<?xml version="1.0" encoding="utf-8"?>
<!-- Generator: Adobe Illustrator 24.0.3, SVG Export Plug-In . SVG Version: 6.00 Build 0)  -->
<svg version="1.1" id="Capa_1" xmlns="http://www.w3.org/2000/svg" xmlns:xlink="http://www.w3.org/1999/xlink" x="0px" y="0px"
	 viewBox="0 0 160 160" style="enable-background:new 0 0 160 160;" xml:space="preserve">
<style type="text/css">
	.st0{fill-rule:evenodd;clip-rule:evenodd;fill:#DD5E3A;}
	.st1{fill:#FFFFFF;}
	.st2{fill:#DD5E3A;}
	.st3{fill:#DC5D3A;}
</style>
<g>
	<path class="st0" d="M150.5,80c0,38.9-31.6,70.5-70.5,70.5S9.5,118.9,9.5,80S41.1,9.5,80,9.5S150.5,41.1,150.5,80z"/>
	<g>
		<path class="st1" d="M90.8,62.2c2.5,0,4.5-2,4.5-4.5s-2-4.5-4.5-4.5s-4.5,2-4.5,4.5S88.3,62.2,90.8,62.2z"/>
		<path class="st1" d="M100.5,68.2c0,0,0.3-5-5-5h-9.2c-5.1,0-5.1,4.6-5.1,5v14.3c0.1,0.8,0.8,1.6,1.8,1.6c0.9,0,1.6-0.8,1.7-1.6
			l1.6,22.7c0.1,1.2,0.9,1.6,1.9,1.6s1.8-0.4,1.9-1.6h1.4c0.1,1.2,0.9,1.6,1.9,1.6s1.8-0.4,1.9-1.6l1.6-22.7c0,0.8,0.7,1.6,1.7,1.6
			c0.9,0,1.7-0.9,1.8-1.6L100.5,68.2z"/>
		<path class="st1" d="M74.2,57.7c0,2.5-2,4.5-4.4,4.5s-4.4-2-4.4-4.5s2-4.5,4.4-4.5C72.3,53.2,74.2,55.2,74.2,57.7z"/>
		<path class="st1" d="M79.5,74.5c0.4-1.7-1.9-8.6-1.9-8.6c-0.2-0.6-1.5-2.6-4.9-2.7h-6.6c-3.3-0.2-4.5,1.7-4.8,2.7
			c0,0-2.2,6.9-1.8,8.5c0.2,1,2.1,2.3,4,3.2l-4,12.3h5.9v15c0.1,1.2,0.9,1.6,1.9,1.6s1.8-0.4,1.9-1.5h0.6c0.1,1.2,0.9,1.6,1.9,1.6
			s1.8-0.4,1.9-1.6V90h6.3l-3.8-12.6C77.8,76.6,79.3,75.4,79.5,74.5z"/>
	</g>
</g>
<circle class="st2" cx="69.2" cy="64.9" r="0.5"/>
<circle class="st2" cx="69.2" cy="66.8" r="0.5"/>
<circle class="st2" cx="69.2" cy="68.6" r="0.5"/>
<circle class="st2" cx="69.2" cy="70.4" r="0.5"/>
<circle class="st2" cx="69.2" cy="72.3" r="0.5"/>
<circle class="st2" cx="69.2" cy="74.1" r="0.5"/>
<circle class="st2" cx="69.2" cy="75.9" r="0.5"/>
<g>
	<path class="st3" d="M95.6,70.4H94c-0.4,0-0.7-0.3-0.7-0.7v-2.7c0-0.4,0.3-0.7,0.7-0.7h1.6c0.4,0,0.7,0.3,0.7,0.7v2.7
		C96.2,70.1,95.9,70.4,95.6,70.4z"/>
	<path class="st1" d="M96.2,67.4h-2.8c-0.1,0-0.1-0.1-0.1-0.1l0,0c0-0.1,0.1-0.1,0.1-0.1h2.8c0.1,0,0.1,0.1,0.1,0.1l0,0
		C96.3,67.4,96.2,67.4,96.2,67.4z"/>
</g>
</svg>
