<?xml version="1.0" encoding="utf-8"?>
<!-- Generator: Adobe Illustrator 26.0.3, SVG Export Plug-In . SVG Version: 6.00 Build 0)  -->
<svg version="1.1" id="Capa_1" xmlns="http://www.w3.org/2000/svg" xmlns:xlink="http://www.w3.org/1999/xlink" x="0px" y="0px"
	 viewBox="0 0 160 160" style="enable-background:new 0 0 160 160;" xml:space="preserve">
<style type="text/css">
	.st0{fill-rule:evenodd;clip-rule:evenodd;fill:#E42E87;}
	.st1{fill:none;}
	.st2{fill:#FFFFFF;}
</style>
<path class="st0" d="M150.5,80c0,38.9-31.6,70.5-70.5,70.5S9.5,118.9,9.5,80S41.1,9.5,80,9.5S150.5,41.1,150.5,80z"/>
<path class="st1" d="M60.7,99.2h9.1h9.1v-4.1H60.7V99.2z"/>
<path class="st2" d="M90.4,56.6c0.1-0.1,0.3,0.2,0.5,0.5c0,0,0-0.1,0-0.1c-0.3-0.5-0.7-1.1-0.6-1.2c0.1-0.1,0.5,0.5,0.8,1
	c0,0,0,0,0.1,0c-0.3-0.5-0.7-1.2-0.6-1.3c0.2-0.1,0.6,0.6,0.9,1.1c0,0,0.1,0,0.1,0c-0.3-0.5-0.5-1.2-0.4-1.2c0.2-0.1,0.7,1,0.9,1.4
	c0.1,0.2,0.2,0.4,0.2,0.6c0.1,0.1,0.2-0.2,0.2-0.3c0-0.1,0.1-0.6,0.2-0.5c0.1,0,0,0.7,0,0.7c0,0.4-0.2,0.9-0.2,1c0,0,0,0,0,0
	c1.5,2.1,6.3,7.8,6.3,7.8c1.6,1.5,3,2.7,4.2,3.5c0.1-0.1,0.1-0.2,0.1-0.2c0.5,0.4,1.4,0.8,2,1.1c0,0,0,0,0,0c0.5,0,0.7,0.2,0.7,0.2
	s0.1,0,0.1,0l0.1-0.1l0,0l0.2-0.2l0.1-0.8l0.3-0.1c0-0.1-0.1-0.2-0.1-0.4c-0.2-0.1-0.5-0.2-0.8-0.4c0,0.2,0,0.5,0,0.5
	c-0.8-0.1-1.2-0.8-1.2-1.1c-0.3,0.4-1,0.2-1,0.2c0.3-0.2,0.8-0.6-0.1-1.8c-0.9-1.2-0.7-2.1-0.7-2.3c0,0,0-0.1,0-0.1
	c-0.1,0.3-0.4,0.3-0.4,0.3c0.2-0.2,0.2-0.7,0.2-1c-0.1-1,0.3-1.8,1.2-2c1.4-3.7,4.7-1,5.8-1.4c0.4-0.1,0.5-0.6,0.5-0.6
	c1.2,1,0.6,1.9,0.1,2.4c0.1,0.2,0.4,0.7,0.4,1.7c-0.1,1.4,0.9,1.3,0.9,1.3s-0.2,0.6-0.6,0.6c0.3,1,0.6,2,0.5,2.8c0,0,0,0,0,0
	c0,0.1,0,0.2,0,0.4c0,0,0,0,0,0c0,0.1,0,0.2-0.1,0.3c0,0,0,0,0,0.1c0,0.1-0.1,0.2-0.1,0.3c0,0,0,0,0,0.1c-0.1,0.1-0.1,0.1-0.2,0.2
	c0,0,0,0-0.1,0.1c-0.1,0.1-0.2,0.1-0.2,0.2c0,0-0.1,0-0.1,0.1c0,0,0,0,0,0c0,0,0,0,0,0c-0.3,0.1-0.7,0.2-1.1,0.2
	c0,0.1-0.1,0.2-0.1,0.3c0.1,0,0.1-0.1,0.1-0.1l0.3,0.1l0.3,0.8c0.2-0.1,0.4-0.2,0.6-0.3l2.1-1.1c0,0,0.1,0,0.1,0s0,0.1,0.1,0.2
	c1-1,2.3-2.2,3.5-3.8c0,0,0.8-2.1,1.7-3.2c0.5-0.7,1.4-1.8,2.3-3.1l-1.4-0.9c0,0,0.1-0.4,0.2-0.9c0.1-0.5,0.4-1.1,0.6-1.6
	c0.3-0.5,0.5-0.6,0.8-0.9c0.1-0.1,0.2-0.2,0.3-0.4c0.2-0.4,1.1-2.1,2.2-3.8c0.9-1.5,1.8-2.9,2.7-2.4c0,0,0,0,0.1,0c0,0,0,0,0,0
	c0.7,0.5-0.1,1.9-0.7,3.1c-0.4,0.8-0.8,1.5-0.8,1.5s0.6-0.3,1.1,0.3c0.6,0.6,0.3,1.2,0.3,1.2s0.5-0.2,0.9,0.5c0.4,0.6-0.1,1-0.1,1
	s0.3-0.2,0.6,0.3c0.3,0.4,0.2,1.4-3.5,3.8l-0.6,0.9l-1.9-1.2c0,0,0,0,0,0c0,0.1-0.1,0.3-0.1,0.4c0,0,0,0,0,0.1
	c0,0.1-0.1,0.2-0.1,0.3c0,0,0,0.1,0,0.1c0,0.1-0.1,0.2-0.1,0.4c0,0,0,0,0,0.1c-0.1,0.1-0.1,0.3-0.2,0.4c0,0,0,0.1,0,0.1
	c0,0.1-0.1,0.2-0.1,0.4c0,0,0,0.1-0.1,0.1c0,0.1-0.1,0.2-0.1,0.3c0,0,0,0.1,0,0.1c-0.1,0.1-0.1,0.3-0.2,0.4c0,0,0,0.1,0,0.1
	c-0.1,0.1-0.1,0.2-0.2,0.4c0,0,0,0.1-0.1,0.1c0,0.1-0.1,0.2-0.1,0.3c0,0,0,0.1-0.1,0.1c-0.1,0.1-0.1,0.3-0.2,0.4c0,0,0,0,0,0.1
	c-0.1,0.1-0.1,0.2-0.2,0.4c0,0,0,0.1-0.1,0.1c-0.1,0.1-0.1,0.2-0.2,0.3c0,0,0,0.1-0.1,0.1c-0.1,0.1-0.1,0.2-0.2,0.4c0,0,0,0,0,0
	c-0.1,0.1-0.1,0.2-0.2,0.3c0,0,0,0.1-0.1,0.1c-0.1,0.1-0.1,0.2-0.2,0.2c0,0,0,0.1-0.1,0.1c-0.1,0.1-0.1,0.2-0.2,0.3
	c-1.1,1.3-3,3.6-4.4,5.2c0,0.3,0,0.5,0.1,0.8c-0.1,0.1-0.2,0.3-0.4,0.4c-0.9,1.1-1.2,2.4-1.2,2.4l0,0c0.1,0.9,0.3,4.1,0.7,7.3
	c0,0.2,0.1,0.5,0.1,0.7c0,0,0,0.1,0,0.1c0,0.2,0.1,0.5,0.1,0.7c0,0,0,0.1,0,0.1c0,0.2,0.1,0.5,0.1,0.7c0,0,0,0,0,0
	c0,0.2,0.1,0.5,0.1,0.7c0,0,0,0.1,0,0.1c0,0.2,0.1,0.4,0.1,0.6c0,0,0,0.1,0,0.1c0,0.2,0.1,0.4,0.1,0.5c0,0,0,0.1,0,0.1
	c0,0.2,0.1,0.4,0.1,0.5c0,0,0,0.1,0,0.1c0.1,0.2,0.1,0.3,0.2,0.5c0,0-0.3,0.2-1.3,0.2l1,11.2l0.8,11h-0.1l0,0.5l0.2,0l-0.1,0.3
	l1.4,0.6h-1.9l-0.2-1l0.1,0l-0.1-0.5h-0.2l-1.1-0.4L110,98.8c0,0-0.7-7.8-1-8.6c-0.2-0.6-1.4-0.7-2.1-0.5c-0.2,0.1-0.4,0.2-0.4,0.3
	l0,0.1l-0.3,1.3h0l-1.9,8.1l-4,12.1h-0.1l-0.1,0.5h0.1l-0.1,0.4l0.1,0.6h-1.3l0.6-0.6l0-0.4h0.1l0.1-0.5h-0.1l-0.8-0.8l2.4-12.6
	l2.3-11.8c-0.4-0.2-0.9-0.4-1.3-0.6c0,0,0,0,0,0c0,0,0,0,0,0c0,0,0,0,0-0.1c0,0,0-0.1,0-0.1c0.1-0.2,0.2-0.4,0.4-0.8
	c0.1-0.3,0.2-0.6,0.4-0.9c0-0.1,0.1-0.2,0.1-0.4c0-0.1,0.1-0.2,0.1-0.3c0-0.1,0.1-0.2,0.1-0.3c0-0.1,0.1-0.2,0.1-0.4c0,0,0,0,0,0
	c0,0-0.1,0-0.1,0.1c-0.1,0.1-0.1,0.1-0.2,0.2c0,0,0,0-0.1,0.1c0,0,0,0,0,0c-0.1,0.1-0.3,0.2-0.5,0.3c0,0,0,0,0-0.1
	c0-0.1-0.1-0.4-0.3-0.7c-0.1-0.2-0.2-0.4-0.3-0.6c0,0,0,0,0,0c-0.1-0.2-0.2-0.4-0.4-0.6c-0.3-0.3-0.5-0.6-0.9-0.8
	c0,0,0.3-0.1,0.6-0.3c0.2-0.1,0.3-0.2,0.5-0.4c0,0,0,0,0,0c0.1-0.1,0.2-0.2,0.3-0.2c0,0,0-0.1,0.1-0.1c0.1-0.1,0.2-0.2,0.2-0.3
	c0.2-0.2,0.3-0.4,0.5-0.7c0.1-0.2,0.2-0.4,0.3-0.6c0,0,0-0.1,0.1-0.1c0.1-0.2,0.2-0.4,0.2-0.6c0.1-0.3,0.2-0.6,0.3-1
	c0-0.2,0.1-0.5,0.1-0.8c0,0,0-0.1,0-0.1c-0.1-0.1-0.1-0.2-0.2-0.3c-0.2-0.3-0.5-0.6-0.8-0.9c-0.1-0.1-0.1-0.1-0.2-0.2
	c0,0-0.1,0-0.1,0.1c0,0,0,0,0,0c0,0,0,0,0,0c-0.3,0.2-0.6,0.4-1,0.5c0,0,0,0,0,0c0,0,0,0,0,0c-0.2,0.1-0.5,0.2-0.7,0.3
	c0,0-0.1,0-0.1,0c-0.2,0.1-0.4,0.1-0.7,0.2c0,0,0,0,0,0c0,0,0,0,0,0c-0.4,0.1-0.7,0.1-1,0.1c0,0,0,0,0,0c0,0,0,0,0,0
	c-0.1,0-0.1,0-0.2,0c-0.1,0-0.1,0-0.2,0c0,0-0.1,0-0.1,0c-0.1,0-0.1,0-0.2,0c0,0-0.1,0-0.1,0c-0.1,0-0.2,0-0.2,0c0,0-0.1,0-0.1,0
	c0,0-0.1,0-0.1,0c0,0,0,0-0.1,0c0,0-0.1,0-0.1,0c0,0,0,0,0,0c0,0-0.1-0.1-0.1-0.1c-0.3-1.5-1.4-3.6-1.4-3.6s0,0,0,0c0,0,0,0,0,0
	c0,0,0.1,0,0.1,0c0,0,0,0,0.1,0c0,0,0.1,0,0.1,0.1c0,0,0.1,0,0.1,0c0.1,0,0.1,0.1,0.2,0.1c0,0,0,0,0.1,0c0.1,0,0.2,0.1,0.3,0.1
	c0,0,0.1,0,0.1,0c0.1,0,0.2,0.1,0.3,0.1c0.1,0,0.1,0,0.2,0c0.4,0.1,1,0.3,1.5,0.4c0.2,0,0.4,0.1,0.7,0.1c0.1,0,0.1,0,0.2,0
	c0.2,0,0.4,0,0.7,0c0.3,0,0.7,0,1-0.1c0,0,0,0,0,0c-1.5-1.4-3.4-3.2-4.5-4.3c-0.1-0.1-0.2-0.2-0.2-0.2c0,0,0-0.1-0.1-0.1
	c-0.1-0.1-0.1-0.1-0.2-0.2c0,0,0-0.1-0.1-0.1c-0.1-0.1-0.2-0.2-0.2-0.3c0,0,0,0,0,0c-0.1-0.1-0.2-0.2-0.3-0.4c0,0-0.1-0.1-0.1-0.1
	C96,66,96,65.9,95.9,65.8c0,0-0.1-0.1-0.1-0.1c-0.1-0.1-0.2-0.2-0.2-0.4c0,0,0,0,0,0c-0.1-0.1-0.2-0.3-0.3-0.4c0,0,0-0.1-0.1-0.1
	c-0.1-0.1-0.1-0.2-0.2-0.3c0,0-0.1-0.1-0.1-0.1c-0.1-0.1-0.2-0.3-0.2-0.4c0,0,0,0,0-0.1c-0.1-0.2-0.2-0.3-0.3-0.5c0,0,0-0.1-0.1-0.1
	c-0.1-0.1-0.1-0.2-0.2-0.4c0,0,0-0.1-0.1-0.1c-0.1-0.1-0.1-0.3-0.2-0.4c0,0,0,0,0-0.1c-0.1-0.2-0.2-0.3-0.2-0.4c0,0,0-0.1-0.1-0.1
	c-0.1-0.1-0.1-0.2-0.2-0.3c0,0,0-0.1-0.1-0.1c-0.1-0.1-0.1-0.2-0.2-0.4c0,0,0,0,0-0.1c-0.1-0.1-0.1-0.3-0.2-0.4c0,0,0,0,0,0
	c0,0,0,0,0,0c-0.6-1.1-0.9-1.9-0.9-1.9s-0.5-0.1-1-1.1C90.7,57.1,90.3,56.7,90.4,56.6z"/>
<path class="st2" d="M97.7,56.7c0-0.2-0.2-0.8-0.5-1c0,0-0.1,0-0.1,0l5.8-13.9l-0.2-0.1l-0.2,0.4c0,0,0,0,0,0c0,0,0,0,0,0
	c0,0,0,0,0,0c0,0,0,0,0,0c0,0,0,0,0,0c0,0,0,0,0,0c0,0,0,0-0.1,0c0,0,0,0,0,0c0,0,0,0-0.1,0c0,0,0,0,0,0c0,0-0.1,0-0.1,0
	c0,0,0,0,0,0c0,0-0.1,0-0.1,0c0,0,0,0,0,0c-0.8-0.3-2.5-0.9-5.1-1.7c0,0,0,0,0,0c-0.1,0-0.2-0.1-0.4-0.1c0,0,0,0,0,0
	c-0.1,0-0.2-0.1-0.4-0.1c0,0,0,0-0.1,0c-0.1,0-0.2-0.1-0.4-0.1c0,0,0,0-0.1,0c-0.1,0-0.3-0.1-0.4-0.1c0,0,0,0-0.1,0
	c-0.1,0-0.3-0.1-0.4-0.1c0,0,0,0,0,0c0,0,0,0,0,0c-6-1.5-15.2-3.2-26.7-3.2c-20,0-31.9,3.7-33.2,4.1L34.8,40l-0.2,0l4.1,15.7
	c-0.3,0.2-0.4,0.7-0.5,0.8c0,0.2,0.3,2.4,0.4,2.9c0,0-0.1,0.1-0.1,0.1c0.4,3.1,1.3,6.1,2.4,8.5c0.8,2,1.7,3.5,2,4
	c1,1.8,1.8,2.9,1.9,3c0.3,0.4,0.5,1.4,0.7,2.8c0,0,0,0,0,0c0,0.1,0,0.2,0,0.3c0,0,0,0.1,0,0.1c0,0.2,0.1,0.5,0.1,0.7
	c0,0,0,0.1,0,0.1c0,0.3,0,0.5,0.1,0.8c0,0,0,0.1,0,0.1c0,0.3,0,0.5,0.1,0.8c0,0,0,0.1,0,0.1c0,0.3,0,0.6,0.1,0.8c0,0,0,0.1,0,0.1
	c0,0.3,0,0.6,0,0.8c0,0,0,0.1,0,0.1c0,0.3,0,0.6,0,0.8c0,0,0,0.1,0,0.1c0,0.3,0,0.5,0,0.8c0,0,0,0,0,0.1c0,0.1,0,0.3,0,0.4
	c0,0,0,0,0,0c0,0.1,0,0.3,0,0.4c0,0,0,0.1,0,0.1c0,0.2,0,0.5,0,0.7c0,0,0,0.1,0,0.1c0,0.2,0,0.5,0,0.7c0,0,0,0,0,0.1
	c0,0.2,0,0.4,0,0.6c0,0,0,0,0,0.1c0,0.2,0,0.4,0,0.5c0,0,0,0,0,0.1c0,0.2,0,0.3,0,0.4c0,0,0,0,0,0c0,0.1,0,0.1,0,0.2c0,0,0,0,0,0
	c0,0,0,0.1,0,0.1c0,0,0,0,0,0c0,0.1,0,0.2,0,0.3c0,0,0,0,0,0c0,0,0,0,0,0c0,0,0.1,0,0.1,0c0.1,0,0.4,0.1,0.7,0.1
	c0.1,0.6,0.1,1.3,0.2,2.2c0,0,0,0.1,0,0.1c0,0.2,0,0.4,0.1,0.6c0,0,0,0,0,0.1c0.4,3.3,0.8,7.4,0.9,7.8c0,0.2-0.1,1.7,0.1,3.4
	c0.3,2.2,0.5,4.3,0.7,5.9h0c0.1,1.3,0.2,2.2,0.2,2.6c0,0,0,0,0,0c0,0.1,0,0.1,0,0.1c0,0,0,0,0,0c0,0,0,0,0,0l-1.4,0.8h1.9l0.1-0.8
	c0,0,0,0,0,0c0.4-4.5,1-7.8,1-9c0-0.1,0-0.3,0-0.4c0,0,0-0.1,0-0.1c0-0.1,0-0.2,0-0.3c0,0,0-0.1,0-0.1c0-0.1,0-0.2-0.1-0.3
	c0,0,0-0.1,0-0.1c0-0.1,0-0.2-0.1-0.3c0,0,0,0,0,0c-0.1-0.3-0.1-0.7-0.2-1c0-0.2-0.1-0.4-0.1-0.6c-0.1-0.9,0.4-5.7,0.6-7.6
	c0,0,0-0.1,0-0.1c0,0,0-0.1,0-0.1c0,0,0-0.1,0-0.1c0-0.1,0-0.2,0-0.2c0,0,0,0,0,0c0,0,0,0,0,0c0,0,0,0,0-0.1c0-0.5,1.6-1,2-0.4
	c0,0.1,0.1,0.1,0.1,0.2c0,0,0,0,0,0.1c0,0,0,0.1,0.1,0.1c0,0,0,0.1,0,0.1c0,0,0,0.1,0.1,0.1c0,0,0,0.1,0,0.1c1,2.5,2.1,7.4,2.2,7.9
	c0,0.1,0,0.2,0,0.3c0,0,0,0,0,0c0,0.5,0,1.2,0,1.9c0,0,0,0,0,0c0,0.1,0,0.1,0,0.2c0,0,0,0,0,0.1c0,0.1,0,0.1,0,0.2c0,0,0,0,0,0.1
	c0,0,0,0.1,0,0.1c0,0,0,0,0,0.1c0,0,0,0.1,0,0.1c0,0,0,0,0,0.1c0,0,0,0.1,0,0.1c0,0,0,0,0,0.1c0,0.1,0,0.1,0,0.1
	c0.6,3,2,5.1,2.9,9.1l0.1,0.8h2.1l-1.6-0.8h0l-0.4-3.6v0l-1.1-9.3l-1.6-11.8c0.5-0.2,0.6-0.4,0.7-0.4c0,0,0.1,0,0.1,0c0,0,0,0,0,0
	c0,0,0-0.1-0.1-0.3c0,0,0,0,0-0.1c0,0,0,0,0-0.1c0,0,0-0.1,0-0.1c0,0,0,0,0-0.1c0-0.1-0.1-0.3-0.1-0.4c0,0,0,0,0-0.1
	c0-0.2-0.1-0.3-0.1-0.5c0,0,0,0,0-0.1c0-0.2-0.1-0.4-0.2-0.6c0,0,0,0,0-0.1c-0.1-0.2-0.1-0.5-0.2-0.7c0,0,0,0,0,0
	c-0.1-0.3-0.1-0.5-0.2-0.8c0,0,0,0,0,0c-0.1-0.3-0.1-0.5-0.2-0.8c0,0,0,0,0,0c-0.1-0.3-0.1-0.6-0.2-0.9c0,0,0,0,0,0
	c-0.1-0.3-0.1-0.6-0.2-0.9c0,0,0,0,0,0c-0.1-0.3-0.1-0.6-0.2-0.9c0,0,0,0,0,0c-0.1-0.3-0.1-0.6-0.2-0.8c0,0,0,0,0,0
	c-0.1-0.3-0.1-0.5-0.2-0.8c0,0,0,0,0,0c-0.1-0.3-0.1-0.5-0.1-0.8c0,0,0,0,0,0c0-0.1,0-0.2-0.1-0.4c0,0,0,0,0,0
	c-0.2-1.3-0.3-2.2-0.2-2.4c1.2-1.4,2.3-2.7,3.3-4c1.5-2,3.3-4.5,4.8-7.2L62,62.9c0.1-0.2,0.2-0.4,0.3-0.4c0,0,0.4-0.1,1.1-0.8
	c0.3-0.2,0.6-0.5,0.6-0.6c0.1,0.9,0.4,2.1,0.6,3.1c0,0,0,0,0,0c-0.3,0.1-0.2,0.4-0.1,0.9c0.1,0.4,0.2,0.8,0.5,0.7
	c0.1,0,0.1,0,0.2-0.1c0,0,0,0,0,0c0.1,0.6,0.2,1.1,0.2,1.4c0,0,0,0,0,0c0,0,0,0,0,0c0,0,0,0.1,0,0.1c0.2,0.5,0.6,1,1.1,1.3
	c0.1,0.2,0.1,0.5,0.1,0.7c-0.9,0.1-1.9,0.2-3,0.5c0,0-2,0.9-4.6,2.5l0.3,0.5c-2.2,1.5-4.4,3.4-4.1,4.4c0,0,0,0,0,0c0,0,0,0,0,0.1
	c0,0,0.8,2.6,4.8,4.5c0,0,0.7,0.3,1.2,0.3c0.2,0,0.4-0.1,0.6-0.2c0,0,0,0,0,0l0.1,0c0,0,0,0,0,0c0.2-0.1,0.3-0.2,0.4-0.3l0,0
	c0,0,0,0,0,0c0,0,0,0,0,0c0.1,0,0.1-0.1,0.1-0.1c0,0,0.1,0,0.1-0.1c0,0,0.1,0,0.1-0.1c0.1,0,0.1-0.1,0.2-0.1c0,0,0.1,0,0.1-0.1
	c0,0,0,0,0,0l0,0l0,0c0,0,0,0,0,0l0,0l0,0c0,0,0.1-0.1,0.1-0.1c-0.1,0.8-0.2,1.7-0.3,2.6c0,0.1,0,0.1,0,0.2c0,0.2,0,0.4-0.1,0.6
	c0,0.2-0.1,0.4-0.1,0.6c0,0.1,0,0.1,0,0.2c0,0.2-0.1,0.5-0.1,0.7c0,0.2-0.1,0.5-0.1,0.7c0,0.1,0,0.1,0,0.2c-0.1,0.7-0.2,1.3-0.3,2
	c0,0,0.3,0,0.9,0.1c0,0,0,0,0,0c0,0.1,0,0.2,0,0.2c0,0,0,0,0,0c0,0.1,0,0.2,0,0.2c0,0,0,0.1,0,0.1c0,0.1,0,0.1,0,0.2c0,0,0,0,0,0.1
	c0,0.1,0,0.2,0,0.3c0,0,0,0,0,0l0,0c-0.4,3.6-0.9,9.2-0.7,10.1c0,0.1,0,0.2,0.1,0.4c0,0,0,0,0,0c0,0,0,0,0,0c0,0.1,0,0.2,0.1,0.3
	c0,0,0,0,0,0c0,0,0,0.1,0,0.1c0,0,0,0,0,0c0,0,0,0.1,0,0.1c0,0,0,0,0,0c0,0,0,0.1,0,0.1c0,0,0,0.1,0,0.1c0,0,0,0.1,0,0.1
	c0,0,0,0.1,0,0.1c0,0,0,0.1,0,0.1c0,0,0,0.1,0,0.1c0,0,0,0.1,0,0.1c0,0,0,0.1,0,0.1c0,0,0,0.1,0,0.1c0,0,0,0.1,0,0.1
	c0,0,0,0.1,0,0.1c0,0,0,0.1,0,0.1c0,0,0,0.1,0,0.1c0,0.1,0,0.1,0,0.2c0,0,0,0,0,0c0,0.1,0.1,0.3,0.1,0.5c0,0,0,0.1,0,0.1
	c0,0,0,0.1,0,0.1c0,0,0,0,0,0.1c0,0.1,0,0.1,0,0.2c0,0,0,0.1,0,0.1c0,0,0,0.1,0,0.1c0,0,0,0.1,0,0.1c0,0,0,0.1,0,0.1
	c0,0,0,0.1,0,0.1c0,0.1,0,0.1,0,0.2c0,0,0,0,0,0.1c0,0.1,0,0.1,0,0.2c0,0,0,0,0,0.1c0,0.1,0,0.1,0,0.2c0,0,0,0.1,0,0.1
	c0,0.1,0.1,0.3,0.1,0.4c0,0.1,0.1,0.3,0.1,0.4c0,0.2,0.1,0.4,0.1,0.5c0,0,0,0.1,0,0.1c0,0.1,0,0.1,0,0.2c0,0,0,0,0,0
	c0,0.1,0,0.2,0.1,0.2c0,0,0,0.1,0,0.1c0,0.1,0,0.1,0,0.2c0,0.1,0,0.1,0,0.2c0,0,0,0,0,0.1c0,0,0,0.1,0,0.1c0,0.1,0,0.2,0.1,0.2
	c0,0,0,0,0,0c0,0.1,0,0.1,0.1,0.2c0,0,0,0.1,0,0.1c0,0,0,0.1,0,0.1c0,0,0,0.1,0,0.1c0,0.1,0,0.1,0,0.2c0,0.1,0,0.1,0,0.2
	c0,0.1,0,0.2,0.1,0.3c0,0.1,0,0.2,0.1,0.3c0.1,0.5,0.2,0.9,0.3,1.3c0,0.1,0.1,0.2,0.1,0.3c0,0.2,0.1,0.3,0.1,0.4c0,0,0,0.1,0,0.1
	c0,0.1,0,0.2,0.1,0.2c0,0,0,0.1,0,0.1c0,0,0,0.1,0,0.1c0,0.1,0.1,0.3,0.1,0.4c0,0,0,0,0,0c0,0,0,0.1,0,0.1c0,0,0,0.1,0,0.1l-1.4,0.8
	h1.9l0-0.8c-0.1-4.1,0.3-9.1,0-10c-0.3-1-0.5-7.1,0.3-9.2c0-0.1,0-0.1,0.1-0.2c0,0,0-0.1,0-0.1c0-0.1,0-0.1,0.1-0.2
	c0,0,0-0.1,0.1-0.1c0-0.1,0-0.1,0.1-0.1c0,0,0-0.1,0.1-0.1c0,0,0-0.1,0.1-0.1c0,0,0-0.1,0.1-0.1c0,0,0-0.1,0.1-0.1
	c0,0,0-0.1,0.1-0.1c0,0,0-0.1,0.1-0.1c0,0,0.1-0.1,0.1-0.1c0,0,0,0,0.1-0.1c0-0.1,0.1-0.1,0.1-0.2c0,0,0,0,0.1,0
	c0.2-0.1,0.6-0.2,1-0.2c0.4,0,0.7,0,1,0.1c0,0,0.1,0,0.1,0c0,0,0,0,0,0c0,0,0.1,0,0.1,0.1c0,0,0,0,0,0c0,0,0.1,0.1,0.1,0.1
	c0,0,0,0,0,0c0,0,0.1,0.1,0.1,0.1c0,0,0,0,0,0c0,0.1,0.1,0.1,0.1,0.2c0,0,0,0,0,0c0,0.1,0.1,0.1,0.1,0.2c0,0,0,0,0,0
	c0,0.1,0.1,0.1,0.1,0.2c0,0,0,0,0,0c0,0.1,0.1,0.1,0.1,0.2c0,0,0,0,0,0.1c0,0.1,0.1,0.2,0.1,0.2c0,0,0,0,0,0.1
	c0.8,2.1,1.2,8.2,1,8.6c0,0.1-0.1,0.2-0.1,0.3c0,0.1-0.1,0.2-0.1,0.3c0,0.1,0,0.2-0.1,0.3c-0.2,1.6,0.6,7.1,0.8,9.9c0,0,0,0,0,0
	l0,0.8h1.9l-1.4-0.8h0c0,0,0,0,0,0c0,0,0-0.1,0-0.1c0-0.1,0-0.1,0-0.2c0-0.1,0-0.1,0-0.2c0,0,0,0,0,0c0-0.1,0-0.2,0-0.3
	c0-0.1,0-0.2,0.1-0.4c0-0.1,0-0.2,0-0.3c0.1-0.4,0.1-0.9,0.2-1.4c0,0,0-0.1,0-0.1c0-0.1,0-0.3,0.1-0.4c0-0.1,0-0.1,0-0.2
	c0,0,0,0,0-0.1c0.1-0.3,0.1-0.6,0.2-1c0-0.1,0-0.2,0.1-0.3c0-0.1,0-0.1,0-0.2c0-0.1,0-0.2,0-0.3c0-0.2,0-0.3,0.1-0.5
	c0-0.2,0.1-0.5,0.1-0.7c0,0,0-0.1,0-0.1c0-0.2,0-0.3,0.1-0.5c0,0,0-0.1,0-0.1c0.1-0.7,0.2-1.3,0.3-1.9c0-0.1,0-0.1,0-0.2
	c0,0,0-0.1,0-0.1c0,0,0,0,0-0.1c0.1-0.8,0.2-1.4,0.3-1.9c0,0,0,0,0,0c0-0.1,0-0.2,0-0.2c0,0,0,0,0,0c0,0,0-0.1,0-0.1c0,0,0,0,0,0
	c0,0,0-0.1,0-0.1c0,0,0,0,0,0c0,0,0,0,0-0.1c0,0,0,0,0,0c0,0,0,0,0,0c0,0,0,0,0,0c0,0,0,0,0,0c0,0,0,0,0,0c0,0,0,0,0,0
	c0.1-0.9-0.8-8.2-1.3-11.5c0,0,0,0,0,0c0,0,0-0.1,0-0.1c0.5,0,0.9,0,1.1,0c-0.1-0.8-0.2-1.5-0.3-2.2c-0.2-2-0.6-5.1-0.8-8.3l0.6,0.6
	l0.4-0.7c1.2,1.3,2.5,2.5,3.3,2.6c0,0,0.1,0,0.1,0c0,0,0,0,0,0c0,0,0.1,0,0.1,0c0,0,0,0,0,0c0,0,0.1,0,0.1,0c0,0,0,0,0,0
	c0,0,0.1-0.1,0.1-0.1c0,0,0,0,0,0c0,0,0.1-0.1,0.1-0.1c0,0,0,0,0,0c0,0,0.1-0.1,0.1-0.1c0,0,0,0,0-0.1c0,0,0.1-0.1,0.1-0.1
	c0,0,0,0,0-0.1c0,0,0.1-0.1,0.1-0.1c0,0,0,0,0-0.1c0.1-0.1,0.1-0.3,0.2-0.5c0,0,0-0.1,0-0.1c0-0.1,0-0.1,0.1-0.2c0,0,0-0.1,0-0.1
	c0-0.1,0-0.1,0.1-0.2c0,0,0-0.1,0-0.1c0-0.1,0-0.2,0.1-0.2c0,0,0,0,0-0.1c0-0.1,0.1-0.2,0.1-0.3c0,0,0-0.1,0-0.1
	c0-0.1,0-0.2,0.1-0.2c0,0,0-0.1,0-0.1c0-0.1,0-0.1,0-0.2c0,0,0-0.1,0-0.1c0-0.1,0-0.1,0-0.2c0,0,0-0.1,0-0.1c0-0.1,0-0.2,0.1-0.3
	c0,0,0,0,0-0.1c0-0.1,0-0.2,0-0.3c0,0,0-0.1,0-0.1c0-0.1,0-0.1,0-0.2c0,0,0-0.1,0-0.1c0-0.1,0-0.1,0-0.2c0,0,0-0.1,0-0.1
	c0-0.1,0-0.1,0-0.2c0,0,0-0.1,0-0.1c0-0.1,0-0.2,0-0.3c0,0,0-0.1,0-0.1c0-0.1,0-0.1,0-0.2c0,0,0-0.1,0-0.1c0,0,0-0.1,0-0.1
	c0,0,0-0.1,0-0.1c0,0,0-0.1,0-0.1c0,0,0-0.1,0-0.1c0,0,0,0,0,0c0,0,0,0,0,0c0-0.3,0-0.5,0-0.8c0-0.2,0-0.6,0-1l2,2.9
	c0,0,0,1.7-0.1,4.6l-0.4,0.4l0.1,0.1l0.4-0.3c0,0.1,0,0.2,0,0.2l-0.2,0.3l0.1,0.1l0.2-0.2c-0.1,2-0.2,4.5-0.5,7.5c0,0.1,0,0.1,0,0.2
	c0,0.2,0,0.4-0.1,0.6c0,0,0.2,0,0.6,0.1c0.5,10.3,0.4,17.2,0.3,20.9c0,0.1,0,0.1,0,0.2c0,0.1,0,0.2,0,0.3c0,0.1,0,0.1,0,0.2
	c0,0.1,0,0.2,0,0.4c0,0.1,0,0.1,0,0.2c0,0.1,0,0.1,0,0.2c0,0.1,0,0.1,0,0.2c0,0.1,0,0.1,0,0.2c0,0.1,0,0.1,0,0.2c0,0.1,0,0.1,0,0.1
	c0,0,0,0.1,0,0.1c0,0,0,0.1,0,0.1c0,0.1,0,0.1,0,0.2c0,0,0,0.1,0,0.1c0,0,0,0.1,0,0.1c0,0,0,0.1,0,0.1c0,0,0,0,0,0.1
	c0,0,0,0.1,0,0.1c0,0,0,0,0,0c0,0,0,0,0,0c0,0,0,0,0,0c0,0,0,0,0,0s0,0,0,0l-1.4,0.8h1.8l0.2-0.8c0,0,0.1,0,0.1,0h0
	c0.1-0.5,0.2-1,0.4-1.5c0.1-0.5,0.2-0.9,0.4-1.3c0.2-0.8,0.5-1.6,0.7-2.3c0.4-1.4,0.7-2.8,0.9-4.3c0-0.1,0-0.2,0-0.3c0,0,0,0,0-0.1
	c0-0.1,0-0.2,0-0.2c0,0,0,0,0,0c0-0.1,0-0.2,0-0.3c0,0,0-0.1,0-0.1c0-0.1,0-0.2,0-0.2c0,0,0-0.1,0-0.1c0-0.1,0-0.2,0-0.2
	c-0.1-0.2,0-6.5,0.3-8.9c0,0,0-0.1,0-0.1c0-0.1,0-0.1,0-0.2c0,0,0-0.1,0-0.1c0-0.1,0-0.2,0-0.3c0,0,0,0,0-0.1c0-0.1,0-0.1,0-0.2
	c0,0,0-0.1,0-0.1c0-0.1,0-0.1,0-0.2c0,0,0,0,0,0c0-0.1,0-0.1,0-0.2c0,0,0,0,0-0.1c0-0.1,0-0.1,0-0.2c0,0,0,0,0,0c0,0,0-0.1,0-0.1
	c0,0,0,0,0,0c0,0,0-0.1,0-0.1c0,0,0,0,0,0c0,0,0-0.1,0-0.1c0,0,0,0,0,0c0,0,0,0,0,0c0.4-0.3,1-0.5,1.6-0.3c0,0,0,0,0,0c0,0,0,0,0,0
	c0,0,0,0,0,0c0,0,0,0,0,0c0,0,0,0,0,0.1c0,0,0,0,0,0c0,0,0,0.1,0,0.1c0,0,0,0,0,0c0,0,0,0,0,0.1c0,0,0,0,0,0c0,0,0,0.1,0,0.1
	c0,0,0,0,0,0c0,0,0,0.1,0,0.1c0,0,0,0,0,0c0,0,0,0.1,0,0.1c0,0,0,0,0,0c0,0,0,0.1,0,0.1c0,0,0,0,0,0c0,0.1,0,0.1,0,0.2c0,0,0,0,0,0
	c0,0,0,0.1,0,0.2c0,0,0,0,0,0.1c0,0.1,0,0.1,0,0.2c0,0,0,0,0,0c0,0.1,0,0.1,0,0.2c0,0,0,0,0,0c0,0.1,0,0.1,0,0.2c0,0,0,0,0,0.1
	c0,0.1,0,0.1,0,0.2c0,0,0,0,0,0c0,0.1,0,0.2,0,0.2v0c0.3,2.8,0.5,6.9,0.5,6.9l2.8,12.9c0,0,0,0,0,0l0.1,0.8h1.4l-0.9-0.8
	c0,0,0,0,0,0c-0.1-4.5,0.8-5.4-0.6-25c0-0.1,0-0.2,0-0.2c0-0.1,0-0.1,0-0.2c0-0.1,0-0.2,0-0.3c0.7-0.4,1-0.7,1-0.7s0-0.2-0.1-0.5
	c0-0.1,0-0.2-0.1-0.4c0-0.2-0.1-0.3-0.1-0.5c-0.1-0.4-0.1-0.9-0.2-1.4c0-0.1,0-0.3-0.1-0.4c0-0.3-0.1-0.6-0.1-0.8
	c0-0.3-0.1-0.6-0.1-0.9c0-0.1,0-0.1,0-0.2l0.1,0l-0.1-0.3c0-0.2-0.1-0.4-0.1-0.5l0.4,0.6l0.1,0l-0.5-0.8c0-0.1,0-0.1,0-0.2
	c0,0,0,0,0,0l0.6,1l0.1-0.1l-0.8-1.2l0,0c0,0,0,0,0,0c0,0,0,0,0,0c0,0,0,0,0,0c-0.2-1.6-0.4-3.3-0.5-4.8l2.1-2.6l-0.1-0.5
	c1-1.4,2.1-3,2.7-4.2c0.1-0.1,0.1-0.2,0.2-0.3c0,0,0-0.1,0-0.1c0-0.1,0.1-0.1,0.1-0.2c0,0,0-0.1,0.1-0.1c0-0.1,0.1-0.1,0.1-0.2
	c0,0,0-0.1,0.1-0.1c0-0.1,0.1-0.2,0.1-0.2c0,0,0-0.1,0-0.1c0-0.1,0.1-0.2,0.1-0.3c0,0,0,0,0,0c0-0.1,0.1-0.2,0.1-0.3
	c0,0,0-0.1,0-0.1c0-0.1,0.1-0.2,0.1-0.3c0,0,0-0.1,0-0.1c0-0.1,0.1-0.2,0.1-0.2c0,0,0-0.1,0-0.1c0-0.1,0.1-0.2,0.1-0.3
	c0,0,0-0.1,0-0.1c0-0.1,0.1-0.3,0.1-0.4c0,0,0,0,0,0c0-0.1,0.1-0.2,0.1-0.3c0,0,0-0.1,0-0.1c0-0.1,0.1-0.2,0.1-0.3c0,0,0-0.1,0-0.1
	c0-0.1,0.1-0.2,0.1-0.3c0,0,0-0.1,0-0.1c0-0.1,0.1-0.2,0.1-0.3c0,0,0,0,0-0.1c0-0.1,0.1-0.2,0.1-0.4c0,0,0,0,0,0
	c0-0.1,0.1-0.2,0.1-0.3c0,0,0,0,0,0c0,0,0,0,0,0c0.2-0.7,0.3-1.3,0.4-1.7C97.2,58.5,97.7,56.9,97.7,56.7z M36.9,57.6
	c0,0,0,0.1-0.1,0.1l-0.2-0.9c0,0,0.1,0,0.1-0.1l0.5,1.9C37.1,58.3,37,58,36.9,57.6z M49.6,67.1L49.6,67.1
	C49.6,67.1,49.5,67.1,49.6,67.1C49.5,67.1,49.6,67.1,49.6,67.1z M43.1,65c-0.1,0-0.3,0-0.4,0.1C42.9,65,43,65,43.1,65L43.1,65z
	 M61,60.5c-0.1,0-0.1-0.2-0.1-0.3c0-0.1,0-0.6-0.1-0.6c-0.1,0-0.2,0.7-0.2,0.7c0,0.4,0,0.9,0,1l-0.2,0.3l0,0c-0.9,1.1-7,7.8-9.7,8.9
	c-0.6,0.3-1.2,0.4-1.8,0.5c0,0,0,0-0.1,0c0,0,0,0,0,0c0,0,0,0,0,0c0,0,0,0,0,0c0,0,0,0,0,0c0,0,0,0,0,0s-0.5-0.2-0.7-0.3
	c0-0.2,0-0.5,0-0.7c0.5-0.4,0.8-0.9,1-1.4c0.1-0.2,0.1-0.6,0.2-1.1c0.2,0,0.3-0.1,0.4-0.2c0,0,0,0,0,0c0.2,0,0.3-0.1,0.3-0.3
	c0.4-0.4,0.6-1.2,0.7-1.9c0,0,0.2-0.1,0.3-0.2c0.1-0.1,0.1-0.4,0-0.5c0,0,0,0,0,0c0,0,0,0,0,0c0,0,0,0,0,0c0,0,0,0,0,0c0,0,0,0,0,0
	c0,0,0,0,0,0c-0.2,0-0.7,0-1.4,0c0.1-1.9,0-2.7,0.5-4c-0.5-0.1-1,0.1-1,0.1l0.3-0.9c0,0-1.1-0.2-1.3,0.7c-0.2-0.5-1-1.4-2.2-1.7
	c-2-0.6-3.8,0.5-4.2,2.5c0.8-0.5,1.3-0.1,1.3,0c-0.1,0-1.3,0.5-0.7,2.2c0,0,0.1-0.3,0.2-0.5c0.1,0.4,0.3,1.1,0.5,2.1
	c-0.8,0.1-1.3,0.2-1.3,0.2c-0.1,0,0,0.4,0.1,0.4c0.1,0.1,0.3,0.2,0.3,0.2c0.2,0.7,0.4,1.3,0.8,1.7c0.1,0.3,0.2,0.5,0.4,0.5
	c0.1,0,0.1,0,0.2-0.1c0.1,0,0.1,0,0.2,0.1c0,0,0,0,0,0c0,0,0,0,0,0c0.2,0.7,0.3,1.2,0.4,1.4c0.3,0.6,0.8,1,1.4,1.2
	c0,0.2,0.1,0.4,0.1,0.6c-0.1,0-0.3,0.1-0.4,0.1c-0.6-0.1-0.9-0.3-0.9-0.3s-4.2-1.5-7.1-11.7l0.2,0l-0.6-2.4c0.1-0.2,0.1-0.5,0.1-0.5
	s0.2-0.1,0.3-0.2c0.1,0,0.1-0.1,0.2-0.1c0,0,0,0,0,0c0,0,0,0,0,0c0,0,0,0,0,0c0,0,0,0,0,0c0,0,0,0,0,0c0,0,0,0,0,0
	c0-0.1,0-0.2-0.1-0.2c0.1-0.1,0-0.3-0.1-0.4c0-0.1,0.1-0.2-0.1-0.3c0,0-0.1,0-0.1,0h0c0,0,0,0,0,0c0-0.2-0.1-0.2-0.1-0.2
	c-0.1,0-0.7-0.1-0.8,0c0,0,0,0,0,0L35.3,51l0,0c0,0,6.8-4.4,32.2-4.4c21,0,30.9,4.1,31.8,4.5l-1.4,3.4c-0.2,0-0.4,0-0.4,0
	c-0.1,0-0.2,0-0.2,0.2c0,0,0,0,0,0h0c0,0-0.1,0-0.1,0C97,54.7,97,54.8,97,54.9c-0.1,0-0.2,0.2-0.1,0.4c-0.1,0.1-0.1,0.1-0.1,0.2
	c0,0,0,0,0,0c0,0,0,0,0,0c0,0,0,0,0,0c0,0,0,0,0,0c0,0,0,0,0,0c0,0,0,0,0,0c0.1,0.1,0.3,0.2,0.4,0.3l-1.1,2.7l0.2,0.1l1-2.5
	c0,0.2,0.1,0.4,0.3,0.6l-0.5,1.4c-0.5,1.2-1.4,3.1-1.8,3.7c-0.5,0.9-1.5,3.3-1.5,3.3c-0.7,1.1-1.5,2.1-2.2,2.8l-0.1-0.4
	c-1,0.8-2,1.4-2.9,1.8C88.4,69.2,88.1,69,88,69c0,0-0.1,0-0.1,0c0,0,0,0,0,0c0,0,0,0,0,0c-0.1,0-0.1,0-0.1,0l-0.2-0.3c0,0,0,0,0,0
	c0.2-0.1,0.4-0.3,0.5-0.5c0.1-0.1,0.2-0.3,0.3-0.6c0.6-0.2,1-0.7,1.4-1.5c0,0,0-0.1,0.1-0.1c0,0,0,0,0,0c0.5-1.1,0.7-2.6,0.8-3.2
	c0.1-0.9,0-1.6-0.3-2l0.4,0c-0.3-0.5-1-0.3-1-0.3l0,0c0,0,0,0,0,0c0,0,0-0.1,0-0.1c0-0.5-0.2-1-0.7-1.1c0,0,0,0,0,0c0,0,0,0,0,0
	c0,0,0,0.1,0,0.2c0,0-0.8-0.8-1.9-1c0.1,0.1,0.2,0.2,0.2,0.3c-0.1,0-0.2-0.1-0.3-0.1c-2.6-0.8-3.7,1.7-5.1,1.6
	c0.1,0.3,0.5,0.6,0.9,0.8c0,0.7,0,1.9,0.2,3.7c-0.1,1-0.1,1.8-0.1,2.1c0,0.9,0.3,1.5,0.6,1.8c-0.4,0.2-0.6,0.4-0.7,0.5
	c-0.1,0.1-0.1,0.2-0.2,0.4c-1.1-0.4-2-1-2.4-1.2l-0.1,0.1c-0.6-0.6-1.3-1.3-1.9-2.1c0,0-0.9-2.1-1.7-3.2c-0.7-0.9-2.1-2.6-3.3-4.4
	c0,0,0,0,0,0c0-0.1,0.1-0.6,0.2-1c0,0,0.1-0.7,0-0.7c-0.1-0.1-0.2,0.4-0.2,0.5c0,0.1-0.1,0.3-0.2,0.3c-0.1-0.2-0.1-0.4-0.2-0.6
	c-0.2-0.5-0.7-1.5-0.9-1.4c-0.1,0,0.2,0.7,0.5,1.2c0,0,0,0-0.1,0c-0.3-0.5-0.8-1.2-0.9-1.1c-0.1,0,0.3,0.8,0.7,1.3c0,0,0,0,0,0
	c-0.3-0.5-0.7-1-0.8-1c-0.1,0.1,0.3,0.7,0.6,1.2c0,0,0,0.1,0,0.1c-0.2-0.3-0.5-0.5-0.6-0.5c0,0,0,0.1,0.1,0.3
	c-0.4,0.2-0.5,0.4-0.6,0.6c0-0.3,0-0.9-0.4-1.2c-0.5-0.4-0.7-0.3-1-0.7c0,0,0,0.2,0.6,0.6c0.1,0.1,0.3,0.2,0.4,0.4
	c-0.3-0.3-0.8-0.5-1.8-0.6c-1.2,0-2.6,0.4-3.9,0.6c-0.5,0.1-1.1,0.1-1.5,0.1c0,0,0.1,0.1,0.3,0.2c-0.4,0.1-0.8,0.1-1.2,0.1
	c0.1,0.6,0.4,1,0.9,1.4c-0.2,0.1-0.7,0.6-1,0.9c0,0,0,0-0.1,0c0.3-0.5,0.7-1,0.6-1.1c-0.2-0.1-0.8,0.8-1.1,1.3
	C61.2,60.2,61.1,60.3,61,60.5z M59.5,74.6C59.5,74.6,59.5,74.6,59.5,74.6C59.5,74.5,59.5,74.5,59.5,74.6L59.5,74.6
	C59.5,74.5,59.5,74.5,59.5,74.6z M71.6,69.5c0,0-1.2-0.6-3.3-0.8c0-0.2,0-0.5,0.1-0.7c0.6-0.4,1.1-0.9,1.3-1.4
	c0.1-0.3,0.2-0.8,0.3-1.5c0,0,0.1,0,0.1,0.1c0.3,0.1,0.4-0.3,0.5-0.8c0.1-0.5,0.2-0.8-0.1-0.9c0,0,0,0-0.1,0c0.3-1.1,0.7-3,0.6-4
	c-0.1-0.5-0.2-0.8-0.4-1c0.1-0.1,0.1-0.4,0.2-0.6c0-0.1,0.1-0.2,0.2-0.2c0.1,0.2,0.3,0.4,0.4,0.6c0.5,0.8,0.9,1,1,1
	c0.1,0.3,0.3,0.9,0.6,1.7c0,0,0,0,0,0c0,0,0,0,0,0c0,0.1,0.1,0.2,0.1,0.4c0,0,0,0,0,0.1c0,0.1,0.1,0.2,0.1,0.3c0,0,0,0.1,0,0.1
	c0,0.1,0.1,0.2,0.1,0.3c0,0,0,0.1,0,0.1c0.1,0.1,0.1,0.3,0.2,0.4c0,0,0,0.1,0,0.1c0,0.1,0.1,0.2,0.1,0.3c0,0,0,0.1,0.1,0.1
	c0,0.1,0.1,0.2,0.1,0.3c0,0,0,0.1,0,0.1c0.1,0.1,0.1,0.3,0.2,0.4c0,0,0,0.1,0,0.1c0.1,0.1,0.1,0.2,0.2,0.4c0,0,0,0.1,0.1,0.1
	c0,0.1,0.1,0.2,0.2,0.3c0,0,0,0.1,0.1,0.1c0.1,0.1,0.1,0.3,0.2,0.4c0,0,0,0,0,0.1c0.1,0.1,0.1,0.2,0.2,0.3c0,0,0,0.1,0.1,0.1
	c0.1,0.1,0.1,0.2,0.2,0.3c0,0,0,0.1,0.1,0.1c0.1,0.1,0.1,0.2,0.2,0.4c0,0,0,0,0,0c0.1,0.1,0.1,0.2,0.2,0.3c0,0,0,0.1,0.1,0.1
	c0.1,0.1,0.1,0.1,0.2,0.2c0,0,0,0.1,0.1,0.1c0.1,0.1,0.1,0.2,0.2,0.3c0.1,0.1,0.2,0.3,0.4,0.4c0.1,0.2,0.3,0.3,0.4,0.5
	c0.1,0.2,0.3,0.3,0.4,0.5c-0.2,0-0.3,0.1-0.3,0.1c-0.1,0-0.2,0.1-0.2,0.2c0,0,0,0,0,0c-0.1,0-0.2,0.2-0.2,0.3c0,0,0,0.1,0,0.1
	s0,0,0,0.1c0,0,0,0,0,0c0,0,0,0,0,0c0,0,0,0,0,0c0,0,0,0,0,0c0,0.1-0.1,0.2,0,0.3c0.1,0.2,0.2,0.3,0.4,0.4c0,0,0,0,0,0
	c0.2,0.1,0.4,0.3,0.4,0.3s0,0.2,0.1,0.4c0,0.2,0.1,0.4,0.3,0.5c0.2,0.1,0.4,0.4,0.4,0.6c-0.1,0.4-0.4,1.4-1.3,3.2
	c-0.3,0.6-0.7,1.2-0.9,2.1c0,0-0.7-1-1.5-2.4l0.3-0.6C72.7,69.9,71.6,69.5,71.6,69.5z M62.2,60.1C62.2,60.1,62.1,60.1,62.2,60.1
	c0.3-0.4,0.7-0.9,0.8-1.1c0,0,0,0,0,0c0,0.1,0,0.2,0,0.3C62.8,59.5,62.4,59.8,62.2,60.1z M62.4,60.5C62.4,60.4,62.4,60.4,62.4,60.5
	c0.2-0.3,0.4-0.6,0.6-0.8c0,0.1,0,0.3,0,0.4C62.9,60,62.6,60.2,62.4,60.5z M64.1,64.6C64.1,64.7,64.1,64.7,64.1,64.6
	C64.1,64.7,64.1,64.7,64.1,64.6z M55.6,76.8C55.6,76.8,55.6,76.7,55.6,76.8c0.1,0,0.1-0.1,0.2-0.1c0.1,0,0.2-0.1,0.3-0.1
	c0,0,0.1-0.1,0.2-0.1c0.1,0,0.1-0.1,0.2-0.1c0.1,0,0.1-0.1,0.2-0.1c0.1,0,0.1-0.1,0.2-0.1c0,0,0,0,0,0c0,0,0,0,0,0c0,0,0,0,0,0
	c0,0.1-0.1,0.2-0.1,0.2c0,0,0,0,0,0c0,0,0,0,0,0c0,0,0,0,0,0c0,0.1-0.1,0.1-0.1,0.2c0,0,0,0,0,0.1c0,0,0,0,0,0c0,0,0,0,0,0
	c0,0.1-0.1,0.1-0.1,0.2c0,0,0,0.1,0,0.1c0,0.1-0.1,0.2-0.1,0.3c0,0,0,0,0,0.1c0,0,0,0,0,0l0,0l0,0c0,0,0,0,0,0l0,0c0,0,0,0,0,0l0,0
	l0,0c0,0,0,0,0,0c0,0,0,0,0,0c-0.1-0.2-0.2-0.4-0.3-0.6C55.7,76.9,55.7,76.9,55.6,76.8z"/>
</svg>
