<svg id="Capa_1" data-name="Capa 1" xmlns="http://www.w3.org/2000/svg" viewBox="0 0 160 160"><path d="M150.5,80A70.5,70.5,0,1,1,80,9.5,70.55,70.55,0,0,1,150.5,80Z" style="fill:#95b6e5;fill-rule:evenodd"/><path d="M90.8,62.2a4.5,4.5,0,1,0-4.5-4.5A4.48,4.48,0,0,0,90.8,62.2Z" style="fill:#fff"/><path d="M100.5,68.2a4.66,4.66,0,0,0-5-5H86.3a4.75,4.75,0,0,0-5.1,5V82.5A1.84,1.84,0,0,0,83,84.1a1.82,1.82,0,0,0,1.7-1.6l1.6,22.7a1.93,1.93,0,0,0,3.8,0h1.4a1.93,1.93,0,0,0,3.8,0l1.6-22.7a1.67,1.67,0,0,0,1.7,1.6,2,2,0,0,0,1.8-1.6Z" style="fill:#fff"/><path d="M74.2,57.7a4.4,4.4,0,1,1-4.4-4.5A4.4,4.4,0,0,1,74.2,57.7Z" style="fill:#fff"/><path d="M79.5,74.5c.4-1.7-1.9-8.6-1.9-8.6-.2-.6-1.5-2.6-4.9-2.7H66.1c-3.3-.2-4.5,1.7-4.8,2.7,0,0-2.2,6.9-1.8,8.5.2,1,2.1,2.3,4,3.2l-4,12.3h5.9v15a1.65,1.65,0,0,0,1.9,1.6c1,0,1.8-.4,1.9-1.5h.6a1.93,1.93,0,0,0,3.8,0V90h6.3L76.1,77.4C77.8,76.6,79.3,75.4,79.5,74.5Z" style="fill:#fff"/><circle cx="69.2" cy="64.9" r="0.5" style="fill:#dd5e3a"/><circle cx="69.2" cy="66.8" r="0.5" style="fill:#dd5e3a"/><circle cx="69.2" cy="68.6" r="0.5" style="fill:#dd5e3a"/><circle cx="69.2" cy="70.4" r="0.5" style="fill:#dd5e3a"/><circle cx="69.2" cy="72.3" r="0.5" style="fill:#dd5e3a"/><circle cx="69.2" cy="74.1" r="0.5" style="fill:#dd5e3a"/><circle cx="69.2" cy="75.9" r="0.5" style="fill:#dd5e3a"/><path d="M95.6,70.4H94a.68.68,0,0,1-.7-.7V67a.68.68,0,0,1,.7-.7h1.6a.68.68,0,0,1,.7.7v2.7A.84.84,0,0,1,95.6,70.4Z" style="fill:#dc5d3a"/><path d="M96.2,67.4H93.4a.1.1,0,0,1-.1-.1h0a.1.1,0,0,1,.1-.1h2.8a.1.1,0,0,1,.1.1h0A.1.1,0,0,1,96.2,67.4Z" style="fill:#fff"/></svg>