<?xml version="1.0" encoding="utf-8"?>
<!-- Generator: Adobe Illustrator 24.0.3, SVG Export Plug-In . SVG Version: 6.00 Build 0)  -->
<svg version="1.1" id="Capa_1" xmlns="http://www.w3.org/2000/svg" xmlns:xlink="http://www.w3.org/1999/xlink" x="0px" y="0px"
	 viewBox="0 0 160 160" style="enable-background:new 0 0 160 160;" xml:space="preserve">
<style type="text/css">
	.st0{fill-rule:evenodd;clip-rule:evenodd;fill:#8A1A9B;}
	.st1{fill:#FFFFFF;}
	.st2{clip-path:url(#SVGID_2_);fill:none;}
	.st3{clip-path:url(#SVGID_2_);fill:none;stroke:#8A1A9B;stroke-width:0.15;stroke-miterlimit:10;}
	.st4{clip-path:url(#SVGID_2_);fill:none;stroke:#8A1A9B;stroke-width:5.000000e-02;stroke-miterlimit:10;}
	.st5{clip-path:url(#SVGID_2_);fill:#8A1A9B;stroke:#8A1A9B;stroke-width:0.15;stroke-miterlimit:10;}
	.st6{fill:#8A1A9B;}
</style>
<g>
	<path class="st0" d="M152.2,79.1c0,38.9-31.6,70.5-70.5,70.5S11.2,118,11.2,79.1S42.8,8.6,81.7,8.6
		C120.7,8.6,152.2,40.1,152.2,79.1z"/>
	<g>
		<path class="st1" d="M92.5,61.3c2.5,0,4.5-2,4.5-4.5s-2-4.5-4.5-4.5s-4.5,2-4.5,4.5S90,61.3,92.5,61.3z"/>
		<path class="st1" d="M102.2,67.3c0,0,0.3-5-5-5H88c-5.1,0-5.1,4.6-5.1,5v14.3c0.1,0.8,0.8,1.6,1.8,1.6c0.9,0,1.6-0.8,1.7-1.6
			l1.6,22.7c0.1,1.2,0.9,1.6,1.9,1.6s1.8-0.4,1.9-1.6h1.4c0.1,1.2,0.9,1.6,1.9,1.6s1.8-0.4,1.9-1.6l1.6-22.7c0,0.8,0.7,1.6,1.7,1.6
			c0.9,0,1.7-0.9,1.8-1.6L102.2,67.3z"/>
		<path class="st1" d="M76,56.7c0,2.5-2,4.5-4.4,4.5s-4.4-2-4.4-4.5s2-4.5,4.4-4.5C74,52.3,76,54.3,76,56.7z"/>
		<path class="st1" d="M81.2,73.6c0.4-1.7-1.9-8.6-1.9-8.6c-0.2-0.6-1.5-2.6-4.9-2.7h-6.6C64.5,62.1,63.3,64,63,65
			c0,0-2.2,6.9-1.8,8.5c0.2,1,2.1,2.3,4,3.2l-4,12.3h5.9v15c0.1,1.2,0.9,1.6,1.9,1.6s1.8-0.4,1.9-1.5h0.6c0.1,1.2,0.9,1.6,1.9,1.6
			s1.8-0.4,1.9-1.6v-15h6.3l-3.8-12.6C79.5,75.6,81,74.5,81.2,73.6z"/>
	</g>
</g>
<g>
	<defs>
		<rect id="SVGID_1_" x="66.9" y="61.9" width="9.2" height="7.2"/>
	</defs>
	<clipPath id="SVGID_2_">
		<use xlink:href="#SVGID_1_"  style="overflow:visible;"/>
	</clipPath>
	<rect x="66.9" y="61.9" class="st2" width="9.2" height="7.2"/>
	<ellipse class="st3" cx="71.5" cy="60.4" rx="3.1" ry="3.9"/>
	<ellipse transform="matrix(0.9935 -0.1142 0.1142 0.9935 -6.4879 8.5445)" class="st4" cx="71.3" cy="60.9" rx="3.1" ry="3.9"/>
	<ellipse class="st3" cx="71.5" cy="61.8" rx="2.2" ry="2.8"/>
	<circle class="st5" cx="71.5" cy="65" r="0.8"/>
</g>
<polygon class="st6" points="92.2,64 91.2,73.9 92.7,76.7 94.1,73.9 93.2,64 "/>
<path class="st6" d="M94,63.9l-1.3,1.3l-1.3-1.3l1.3-1.3L94,63.9z"/>
<rect x="95.8" y="67.9" class="st6" width="3.4" height="0.8"/>
<rect x="91.4" y="62.2" class="st6" width="2.5" height="1.8"/>
</svg>
