<svg xmlns="http://www.w3.org/2000/svg" viewBox="0 0 200 200"><g id="Capa_1" data-name="Capa 1"><path d="M186.1,100A86.1,86.1,0,1,1,100,13.9,86.1,86.1,0,0,1,186.1,100Z" style="fill:#97b6de;fill-rule:evenodd"/><path d="M73,90.16c0,1-.23,1.71.11,2.13s.16.68.57,1.1.35.76,1,.76a1.67,1.67,0,0,0,1.37-.3l.56-.33.53-.2.62-.16c.91-.23,1.18-.3,1.48-.68A5.94,5.94,0,0,0,79.91,91a1.8,1.8,0,0,0-.08-.25.9.9,0,0,0,.44-.18,1.46,1.46,0,0,0,.17.24.5.5,0,0,1,.12.23c-.16.22,0,.48.17.67.45.54.4.48.4,1.09s0,.66.1.85,0,.17-.07.63-.68.8-.61,1.1-.07.49.42.68l.54.22a2.24,2.24,0,0,1,.06,1.53A31,31,0,0,0,80,103a58.29,58.29,0,0,0,.32,7,10.39,10.39,0,0,0,.4,2.52,2.62,2.62,0,0,0,.28.7,3.26,3.26,0,0,1,.33.83,4.35,4.35,0,0,1-.25,1.63,31.43,31.43,0,0,0-.71,6.45c.06,1.68-.28,9.22,0,10.19s.4.85.2,1.34-.71,1.45-.48,1.94.57.8.48,1.48-.31.69-.17,1.12a5.67,5.67,0,0,1,.2.79l6,0s.91-.37,1-.72a.68.68,0,0,0-.18-.68l-.22-.29c-.17-.22-.8-.2-1-.54s.5-1,.51-1.51c0-1-.68-.74-.74-1.51,0,0,1.37-5.91,1.43-7.31s1-9.3,1.37-11.78A27.14,27.14,0,0,1,90,110.25c0,.16.5,2,1,3.51a7.2,7.2,0,0,0,.33,1.09c.46,1.48,1.94,2.28,2.31,2.85.23.39-.12.81-.35,1.59a4.47,4.47,0,0,0-.19.46,18,18,0,0,0-.11,2.74,13.22,13.22,0,0,0-.12,3.09c0,.19.07.34.09.46a3,3,0,0,1-.07.68l0,0a2,2,0,0,0-.14.25c-.25.44-.68,1.18-1,2s-.47.93-.44,1.26a.72.72,0,0,0,.06.34c0,.16.06.27.08.35a.21.21,0,0,1-.08.19,9.43,9.43,0,0,0-1.42,2,11.12,11.12,0,0,0-.89,1.68,17.46,17.46,0,0,0,2.29,1.34c.4.18,1,0,1.42.23s1.46,1.4,2,1.69a12.08,12.08,0,0,0,2.6.88c.34,0,1.68.29,1.88-.26s-1.65-1.25-2.48-1.94a.73.73,0,0,0-.09-.51c-.14-.2-.71-.94-.57-1.37s1.06-6.33,1.51-8.25,1.77-8.1,2.32-9.41a6.06,6.06,0,0,0,.28-3.85c-.31-1.23-1-3.83-1.11-5a45,45,0,0,0-1.29-5.25c-.39-1.31-.2-3-.51-4s-1.77-2.26-1.91-2.83a5.2,5.2,0,0,1-.11-.67v0a.59.59,0,0,0,.34-.19A3.49,3.49,0,0,0,95.26,94c-.11-.49-.16-1-.24-1.53s-.66-2.29-.66-2.83.12.16-.15-1.06-.11-4-.23-5.06-.49-1.3-.26-2.06.19-.41.57-1.21-.08-1.11.49-1.6a34.53,34.53,0,0,0,2.32-3.39c.53-.72,1.45-1.79,2.06-2.58a17.49,17.49,0,0,0,1.71-3.35,37.12,37.12,0,0,0,2-4.83A18.1,18.1,0,0,1,103,62a7.19,7.19,0,0,1,.68-1.25c.35-.57.16-.8-.15-1l-.55-.27.13,0s.19-.46.23-.61.34-.65.53-1.18a2.18,2.18,0,0,0,.46-.65,7.21,7.21,0,0,0,0-1.22c0-.26.13-.21.11-.49s-.09-.5-.76-.61c-.19,0,0-.22-.23-.42s-.38,0-.53-.07-.06-.3-.19-.38-.55.06-.74-.09,0-.37-.41-.36-.46.54-.62.71-.21,0-.55.12-.27.49-.19.87,0,.57.27.91.41.73.64,1.11a.84.84,0,0,1,.08.83,7.5,7.5,0,0,1-.27.77,18.49,18.49,0,0,0-1.1,3S98.7,64.1,98.24,64.7a32.75,32.75,0,0,0-1.67,3.12c-.3.61-.65.65-.88,1.41s-.3.61-.6,1-.42.34-.54.65-.23.07-.53.64a1.44,1.44,0,0,1-.65.77c-.3.22-.91.79-.87,1.17s.26.46,0,.61-.84.12-1.1.5-.09.41-.47.45a2.6,2.6,0,0,0-.42-.05.32.32,0,0,0-.27,0,.26.26,0,0,0-.14.08c-.38.27-.26,0-.76.08s-.83-.12-1.06.11-.5.2-.91.54L87,76c-.23.24-.3.29-.33.34l-.07-.07a2.54,2.54,0,0,1-.42-.84,2.76,2.76,0,0,0-.57-.88,6.08,6.08,0,0,1,0-1.59c.35-.23,1.27-1,1.18-1.45,0-.19-.3-.34-.3-.34-.46-.3-.23-.68-.3-1.1s-.39-.72-.5-1.22a2.36,2.36,0,0,0-.57-.95.91.91,0,0,0,.34-.49,2.73,2.73,0,0,0-.64-.58c-.23-.07-.38.16-.61.2a1.37,1.37,0,0,1-.57-.12,3.19,3.19,0,0,1-1.14-.84c-.12-.22-.16-.34-.42-.45a2,2,0,0,1-.84-.42c-.38-.34-.72-.27-1.22-.19a2,2,0,0,0-1.22.65c-.34.38-.45.68-.83.79a3.34,3.34,0,0,0-1,.65c-.23.19,0,.72-.19,1.1s-.57,1.26-.38,1.45,0,.72,0,.72.19,1.37.57,1.68.61.23.84.72.38.53,1.14.65a5.77,5.77,0,0,1,1.82.83.27.27,0,0,1,.17.19h0a.84.84,0,0,0-.39.57,2.08,2.08,0,0,1,0,.92,4.32,4.32,0,0,1-1,1c-.37.22-.8.45-1.14.62a12.17,12.17,0,0,0-3.32,1.79A2.61,2.61,0,0,0,74,81.48a8.24,8.24,0,0,0-.19,2.59,12.86,12.86,0,0,1-.12,3.61A11.41,11.41,0,0,0,73,90.16Zm4.85-1.92a1.27,1.27,0,0,0,.08-.37,2.46,2.46,0,0,1,.07-.29l.21-.43c.16,0,.19,0,.38.33a1.42,1.42,0,0,0,0,.2c0,.31-.72.69-.72.69S77.86,88.32,77.87,88.24Z" style="fill:#fff"/><path d="M117,78.26a4.22,4.22,0,0,0-.6.23c-.81.37-1.91,2-2.8,3.55-.31.43-.67,1-1,1.56-.91,1.32-3.07,4.58-3,5.73.07,1.77,1,9.39,1.48,9.39a1.6,1.6,0,0,0,1.51-.91.34.34,0,0,0,.06-.15l.09,0a2.28,2.28,0,0,0,.47-.23l0,0c-.06.21-.28.24-.37.6s0-.12-.07.61l-.07.72.08,0c-.05.2-.11.4-.16.6a11.11,11.11,0,0,0-.08,4.72,12,12,0,0,1,0,4.64c-.27,1.07.38,1.14.69,1.29a2.23,2.23,0,0,0,.43.1,50.1,50.1,0,0,0,2.19,6.14,22.31,22.31,0,0,1,.38,3.81,24.76,24.76,0,0,0,1.11,5.36,40.88,40.88,0,0,1,.38,6.35c-.08.39-.27.39-.23.69s.19,1.14-.08,1.41-.15.76-.41,1.06,0,1.37,0,1.37c-.3.53-1.82,1.07-1.82,1.07-1.6-.19-1.71.3-1.83.61s1.3.49,1.3.49a51.37,51.37,0,0,0,6.08,0c.27,0,.91-.06.91-.06s1.94.09,2.06,0-.18-1.27-.22-1.62-.27-.4,0-.9-.3-1.48-.83-2.32a9.56,9.56,0,0,1-.73-4,33,33,0,0,1,0-3.43,31,31,0,0,0,.41-4.1,39.57,39.57,0,0,0-.26-4.84,11.1,11.1,0,0,1,.45-4.49c.33-1,.59-2.09.76-2.83a2.22,2.22,0,0,0,.35-.25s.91-2.66,1.21-3.65,1.37-3.73,1.37-5.33a9.91,9.91,0,0,0-.09-2.22.38.38,0,0,1,.09.09,18.94,18.94,0,0,1-.15-3.72,1.22,1.22,0,0,0,.08-1.15,7.85,7.85,0,0,0-.53-1.57c-.31-.5-.35-.23-.31-.5s-.53-.55-.45-1a18.31,18.31,0,0,0,.15-1.86c0-.35.15-.16.26-.61s-.11-.42,0-.8.76-1.48.95-2a18,18,0,0,0,.65-5.32c-.23-1.45.14-1.28.19-2.22,0-.39-.38-1.25-.22-1.94s-.12-.87,0-1.67-.5-1-.42-2a14.42,14.42,0,0,0-.76-3.77,5.13,5.13,0,0,0-.34-1.1c-.19-.34-.42-.11-.5-.61s-1.82-7.25-1.93-7.63-.8-1.14-1.26-1.18h-.19a2.38,2.38,0,0,1-.48-1.16c0-.6,0-3.23.06-3.72s-.13-.56-.23-.57c-.25,0,0,1.11-.24,1s-.06-2-.46-2,0,1.88-.23,1.83-.06-2.47-.44-2.45c-.54,0,0,2.45-.24,2.43s-.21-2.19-.56-2.19c-.65,0,.18,4.22-.14,4.42,0,0-.16.24-.29.1s-1.14-1.48-1.54-1.21c-.18.15-.12.32,0,.5a.68.68,0,0,1,.22.39,5.87,5.87,0,0,1,.51.6c.17.25.17.4.35.65s.32.71.69,1,.46.25.59.48a4.23,4.23,0,0,1,.62.71.91.91,0,0,0-.31.84s2,5.42,2.28,6.18a13.33,13.33,0,0,1,.42,2.17c.07.35.09.46.1.56l0-.09c0-.13-1.41-2.62-3.83-2.1a3.71,3.71,0,0,0-2.83,2.62,6.2,6.2,0,0,0,0,3c.29,1,.23,1.31.46,1.63s.06.48.23.71.17,0,.17.23-.4.51-.2,1.08-.34.77.09,1.17.25.37.54.71.4-.28.63-.2S117.2,77.81,117,78.26Zm-2.51,12.5,0,.09a31.42,31.42,0,0,0-.64,3.33,4.52,4.52,0,0,1-.06.53.51.51,0,0,0-.15.19c-.12.24,0,.38-.1.49s-.28.15-.36.29h0c0-.31-.07-.65-.09-.88a11.25,11.25,0,0,0-.3-2.88,1.52,1.52,0,0,1,0-.77c0-.54-.27-.29-.28-.49a1,1,0,0,1,0-.25,4.16,4.16,0,0,0,.14-.56l0-.1c0-.09-.05-.29,0-.43s.42-.28.48-.37c.38-.59.86-1.23,1-1.47a5.57,5.57,0,0,0,.13,1,1,1,0,0,1,0,.17c0,.39.07.92.12,1.6C114.45,90.4,114.33,90.53,114.45,90.76Zm9.44,4.94v0h0Z" style="fill:#fff"/><path d="M123.57,49.56a14.48,14.48,0,0,0-1.33-1.27.24.24,0,0,1-.06-.11l-.75-2.26c-.48-1.48-1-2.94-1.57-4.37a1.46,1.46,0,0,0-1.32-1,1.91,1.91,0,0,0-1.61.62,1.44,1.44,0,0,0-.41,1.36c.16.82.35,1.64.53,2.46.09.39.2.77.31,1.15,0,.09,0,.13-.09.16a3.14,3.14,0,0,0-.89.46,1.5,1.5,0,0,0-.7,1.09.14.14,0,0,1-.07.06,3.71,3.71,0,0,0-.77.39,1.58,1.58,0,0,0-.77,1.06s0,.05-.07.07a2.92,2.92,0,0,0-1.12.67,1.31,1.31,0,0,0-.39,1.27,4,4,0,0,0,.39,1,2.3,2.3,0,0,1,.22.48,10.25,10.25,0,0,0,.71,2.24,4.29,4.29,0,0,0,1.6,1.85.34.34,0,0,1,.09.12c.13.44.25.88.38,1.32A.84.84,0,0,0,117,59l3-.86h0l3-.88a.85.85,0,0,0,.62-1.1c-.06-.24-.13-.48-.18-.72a.32.32,0,0,1,0-.14,8.18,8.18,0,0,0,.37-.93,8.55,8.55,0,0,0,.26-3.45,5.12,5.12,0,0,0-.14-.68A1.46,1.46,0,0,0,123.57,49.56ZM118,48.8a2.91,2.91,0,0,0,0,.31,2.91,2.91,0,0,1,0-.31l.51-.07Z" style="fill:#fff"/><path d="M110.25,53.05a15.57,15.57,0,0,0-.32-1.81.25.25,0,0,1,0-.12l.74-2.27c.49-1.47.94-3,1.32-4.45a1.46,1.46,0,0,0-.48-1.58,2,2,0,0,0-1.66-.46,1.47,1.47,0,0,0-1.14.86c-.35.76-.69,1.53-1,2.3-.16.36-.3.74-.43,1.11,0,.09-.08.1-.17.07a3.3,3.3,0,0,0-1-.15,1.52,1.52,0,0,0-1.21.46.1.1,0,0,1-.09,0,3.51,3.51,0,0,0-.85-.14,1.54,1.54,0,0,0-1.25.39.12.12,0,0,1-.1,0,3,3,0,0,0-1.3-.12,1.3,1.3,0,0,0-1.07.79,4,4,0,0,0-.27,1,1.86,1.86,0,0,1-.11.52,10.75,10.75,0,0,0-.75,2.22,4.32,4.32,0,0,0,.19,2.44.19.19,0,0,1,0,.15c-.15.43-.31.86-.47,1.29a.83.83,0,0,0,.52,1.14l2.93,1.09h0l3,1.1a.86.86,0,0,0,1.15-.52c.09-.23.18-.47.28-.7a.24.24,0,0,1,.1-.1c.28-.18.58-.33.84-.53a8.49,8.49,0,0,0,2.25-2.63,3.6,3.6,0,0,0,.29-.63A1.39,1.39,0,0,0,110.25,53.05Zm-4.07-3.93-.15.28.15-.28.46.25Z" style="fill:#fff"/></g></svg>