<svg xmlns="http://www.w3.org/2000/svg" viewBox="0 0 200 200"><g id="Capa_1" data-name="Capa 1"><path d="M186.1,100A86.1,86.1,0,1,1,100,13.9,86.1,86.1,0,0,1,186.1,100Z" style="fill:#85ac62;fill-rule:evenodd"/><path d="M111.92,73.68a2,2,0,0,0-.22.7h0a7.54,7.54,0,0,1-1.57,1,23.55,23.55,0,0,1-2.73.92,5.14,5.14,0,0,0-2,1.47c-.17.24-1.53,5.81-2.12,7.93-.72,2.65-1.46,5.59-1.68,6.53-.28,1.17-1,8.53-1,8.76,0,.07.17.2.44.34l0,.24a.72.72,0,0,0,0,.31,4.72,4.72,0,0,0-.13,1.3,6,6,0,0,0,.4,1.45,3.24,3.24,0,0,0,.79,1.06,3,3,0,0,0,.83.73,3.86,3.86,0,0,0,1.5-.13c.25-.09.55,0,.63-.31,0-.14-.41-.25-.22-.34s.38-.28.32-.5-.47-.23-.46-.36-.18-.4-.58-.32a.9.9,0,0,1-.81-.31c-.07-.09,0-.25.08-.15a1.23,1.23,0,0,0,.83.12c.32-.08.19-.24.12-.54s-.2-.24-.35-.53,0-.49-.07-.72l-.09-.2a1.74,1.74,0,0,0,.39-.23s.1-.21.1-.21l0-.24a3.37,3.37,0,0,0,.45-.25c0,.05.37-.39.44-.63s.93-6.75.93-6.75-.1,2.92-.36,6.15c-.15,1.94-.67,5.26-.67,5.74a1.34,1.34,0,0,0,.38.85,6.75,6.75,0,0,0,1.06.17,9.14,9.14,0,0,0,1.09,3.93c1,1.3.14,2.59,1,5.16a4.41,4.41,0,0,1,.54,1c.21.51.35,3.21.55,4.34s.82,3.28.92,4.3.17,4.89.31,5.94.41,1.2.41,1.2l.41.1a19.61,19.61,0,0,1-1.09,3c-.38.51-.82,1.16-.72,1.43s-.17.82.1,1a5.33,5.33,0,0,0,2.6.1c1.16-.17,1.6-.21,1.6-.51a8.34,8.34,0,0,1,0-1.23c.07-.48.11-.24.24,0a2.66,2.66,0,0,1,.11,1.67,4.76,4.76,0,0,0-.07,1.74c0,.58,0,.65.37.72a13.48,13.48,0,0,0,3,.27c.65-.14,1.47-.07,1.67-.2s0-.35-.06-.69a13.44,13.44,0,0,0-1-2c-.35-.62-.21-.58-.21-.58s0-1.57,0-2.05.58-1.13.61-1.47a20.19,20.19,0,0,1-.27-4.27,54.21,54.21,0,0,0,1.06-6.52c0-2.15.17-6.86.44-9.43s1.54-5.9,1.57-7.06.34-1.47.34-1.47a4,4,0,0,0,1.19-.47,2.31,2.31,0,0,0,.56-.32c.37-.34-.58-3.38-1-5.87l1,3.38a2.63,2.63,0,0,0,.35.15l.13.43h0a1.62,1.62,0,0,0-.11.61,7.76,7.76,0,0,1,0,.92c0,.26-.22.75,0,1s.29.2.29.2a1.11,1.11,0,0,0-.43.38c-.11.22,0,.52.23.39a2.7,2.7,0,0,1,.88-.16c.13,0,.39-.11.42,0s-.29.22-.51.27-.4.28-.2.33,1.21,0,1.34-.18.31-.28.38-.48.26-.59.35-.86a2.56,2.56,0,0,0,.35-1c0-.41.31-1.5.13-1.76l-.23-.91a5,5,0,0,0,.57-.49s-.61-3.32-.61-3.93a4.81,4.81,0,0,0,0-1.37,37.59,37.59,0,0,0-.55-5.19c-.48-1.71-2.08-12-3-13-.3-.33-1.06-.52-1.54-.93s-.82-.23-1.3-.58a10.64,10.64,0,0,0-1.94-.68,4.94,4.94,0,0,1-1.46-1.16c-.12-.18-.19-.58-.59-.76a1.52,1.52,0,0,1,0-.43c0-.23.3-1.38.36-1.82,0,0,.46,0,.56-.23a20.23,20.23,0,0,0,.08-2.12,3.5,3.5,0,0,0-.06-1.23c-.12-.46-.15-1.36-.33-1.82s0-.87-.28-1.18-.48-.78-1.08-.95-.87.11-1.17.09a3.41,3.41,0,0,0-3.21.48c-.88.68-1.43,2.93-1.16,4.16A16.78,16.78,0,0,1,111,70.3a6.45,6.45,0,0,0,.62,2c.27.48.48.68.48.89s0,.14,0,.23S112,73.61,111.92,73.68Zm13,30.36c.05-.13.32-.3.35-.43a1.48,1.48,0,0,1,.12.6.62.62,0,0,1-.18.41c-.08,0-.16,0-.18,0A1.62,1.62,0,0,1,124.88,104Zm-10.55,6.32a26.23,26.23,0,0,1,.34-3.79,27.87,27.87,0,0,1-.07,6.83A18.25,18.25,0,0,1,114.33,110.36Z" style="fill:#fff"/><path d="M72.15,100.55a3,3,0,0,0,.12.5,4.7,4.7,0,0,1,0,.5,1.33,1.33,0,0,0,.26.42c.08.1,0,.39.17.62a4.16,4.16,0,0,0,.32.42,2.65,2.65,0,0,0,.38.55c.06,0,.15,0,.17-.1s-.09-.5-.08-.74a2.47,2.47,0,0,1,.24-.9c.15-.27.26-.8.39-.79s.15.89.24,1.12a1,1,0,0,0,.4.51c.16.1.22,0,.21-.1s-.08-.5-.1-.8-.06-.79-.12-1.2-.24-1.09-.31-1.38c-.58-2.09.91-4.57.91-4.57a2.94,2.94,0,0,0,1.29-1.34c.49-1.6.91-2.91,1.31-4a6.75,6.75,0,0,1,.47-1.09,1.45,1.45,0,0,1,.29-.47,1.55,1.55,0,0,1,.06.76,5.67,5.67,0,0,0,0,.59c0,.16,0,.33,0,.5-.2,1.83.34,2.37.34,2.37a.26.26,0,0,0,.26.2.86.86,0,0,1,.17.23,4.91,4.91,0,0,0,.25.78,1.69,1.69,0,0,1,0,.23c.06,1.37-2.12,3.67-2.22,4.5,0,0-.4,2.32-.89,4.75a10.14,10.14,0,0,0,0,5.34,26.2,26.2,0,0,1,.3,4.4c0,.29,0,.53,0,.64a8.65,8.65,0,0,0,.31,1.29,2.78,2.78,0,0,0,1.83,1.28,5.85,5.85,0,0,0,.77,0,7.58,7.58,0,0,1,.67,2.13,9.79,9.79,0,0,1,.24,3.07,23.47,23.47,0,0,0,.4,6.43c.49,2.32,1.53,4.84,1.78,5.83a8.76,8.76,0,0,1,0,2.57c0,.65-.2.69-.4,1a12.34,12.34,0,0,1-.89,1.73,2.34,2.34,0,0,0-.1,2.08c.35.69,2.73.25,3.17.2s.1-.45.2-1.19a6.45,6.45,0,0,1,.69-2.08,2.31,2.31,0,0,0-.15-2.12,11.19,11.19,0,0,1-.79-3.07c-.2-1.48,0-2.08.3-4.35a29.89,29.89,0,0,0-.25-5.69,16.77,16.77,0,0,1-.1-3.56,18.69,18.69,0,0,0,.21-3.19l.6-.06,0,0a13.17,13.17,0,0,1,.84,3.8,44.56,44.56,0,0,1-.29,4.7c0,1.29.94,7,1.08,8.46a10.49,10.49,0,0,1-.39,3,5,5,0,0,1-.25,2.22,7.74,7.74,0,0,0-.44,1.53,2.75,2.75,0,0,0,0,1.44c.09.25,3.06,0,3.26,0s.49-.5.64-1.44-.69-2-.74-2.42.2-.64.2-1.33a8.23,8.23,0,0,1,0-1.73,23,23,0,0,1,.49-4,45.92,45.92,0,0,0,.84-6.92c0-1.39-.34-2.77-.39-4a34.76,34.76,0,0,1,.3-3.76,6.57,6.57,0,0,1,.51-1.67l.18-.21,0-.16c.12-.29.22-.48.22-.48l-.25.21h0a8.53,8.53,0,0,0,2.08-2.92s-.5-2.38-.55-2.72-.44.2-.49-.89-.17-1.48-.16-2.78c.13,0,.28,0,.45,0A3.22,3.22,0,0,0,94,103a8.48,8.48,0,0,0,.7-1.17c.33-.52.09-.59.13-1.09A9.33,9.33,0,0,1,95,98.44c.24-.61,0-.53.1-1.32,0-.17.16-1.86.14-2.92a2.26,2.26,0,0,0,.53-1,5.9,5.9,0,0,0,0-1.63c0-.45-.94-5.19-1.14-6.28s-.69-4.7-1.28-5.49-1.09-.55-1.54-1S89.89,77.54,89.15,77a13.43,13.43,0,0,1-1.48-1c-.15-.3,0,0,.54-.45a19.14,19.14,0,0,0,2.67-5c.79-2-.74-2.87-1.38-3.51a5,5,0,0,0-3.12-1.24,6.27,6.27,0,0,0-3.4,1,4.43,4.43,0,0,0-1.3,2.39,3.48,3.48,0,0,0,.25,1.44,3.61,3.61,0,0,1,.2,1c0,.34-.15.89-.2,1.28a6.55,6.55,0,0,0,.25,1.29c0,.2,0,.64.1,1.24s.74.69.74.69h0c-.45.3-1.35,1.1-1.65,1.27s-2.67.6-3,.94A13.5,13.5,0,0,0,76,81.66c-.25.94-1.39,3.89-1.49,4.88s-.36,2.26-.36,2.81-.89,1.76-.79,2.3a5.11,5.11,0,0,1-.17,1.59,3.38,3.38,0,0,0,0,.51s-.3,2.32-.78,4.6a7.1,7.1,0,0,1,0,.9C72.29,99.65,72.14,100.44,72.15,100.55Zm19.1-4.79a.5.5,0,0,1,0-.12A.16.16,0,0,1,91.25,95.76ZM90,91.82l.51-.46.2-.12a1.09,1.09,0,0,0,.57-1,2.24,2.24,0,0,0,0-.62,1.69,1.69,0,0,0,0-.25,5.73,5.73,0,0,0-.1-.75c0-.53,0-.32.19-.06a1.43,1.43,0,0,1,.15.33c.21.73.44,1.75.56,2.11a.24.24,0,0,1,0,.08c0,.15,0,.28.08.33.14.68.22,1.67.34,2.07a2.7,2.7,0,0,0,.38.83.65.65,0,0,0,.25.14,25,25,0,0,1,.19,3.07c-.08.39-.51.79-.63,1a2.27,2.27,0,0,0-.23,1.06,4.44,4.44,0,0,1,0,1.06c0,.24,0,.75.19.86s.53,0,.53,0,.09.09-.11.33a3,3,0,0,1-.83.64,33.12,33.12,0,0,0-.41-3.35c0-.12,0-.17,0-.17a10.23,10.23,0,0,0-.24-2.28c-.2-.59-.09-1.21-.41-1.31-.24-.9-1-1.34-1-2S89.63,92.37,90,91.82Z" style="fill:#fff"/></g></svg>