<svg xmlns="http://www.w3.org/2000/svg" viewBox="0 0 200 200"><g id="Capa_1" data-name="Capa 1"><path d="M186.1,100A86.1,86.1,0,1,1,100,13.9,86.1,86.1,0,0,1,186.1,100Z" style="fill:#10213f;fill-rule:evenodd"/><path d="M130.05,110.63s0-.35-.5-.4c-.18,0-2.76,0-5.91,0a1.09,1.09,0,0,0-.24-.37.51.51,0,0,0-.21-.1c0-1.34-.49-1.71-.92-1.84a9.1,9.1,0,0,0-.31-1.27v0h0s.17-.25.09-.36l.07,0c.37.23.35.18.35.12s.15-3.39.19-4.94.31-4,.27-4.68a5.74,5.74,0,0,1,.33-1.84,14.47,14.47,0,0,0-.18-3.66,3.71,3.71,0,0,1,.12-1.54,1.87,1.87,0,0,0,.19-1c-.08-.39,0-1.37,0-2.65a7.66,7.66,0,0,0-.31-3.07,3.4,3.4,0,0,0-1.51-1.61,10.12,10.12,0,0,1-1.32-.49,6.93,6.93,0,0,1-1.65-1.84h0l0-.1a4.44,4.44,0,0,0,.57-.84c.22-.48,1.25-2,1.9-3.46a4.56,4.56,0,0,0-.54-4.54,1.78,1.78,0,0,0-1.54-.71,4.85,4.85,0,0,0-6.63,1,.93.93,0,0,0-.16,1.16,2.36,2.36,0,0,1-.28.75l0,.1h0a.72.72,0,0,0-.38.37,2.4,2.4,0,0,0-.08.74c-.2.21-.4.43-.54.56a.38.38,0,0,0,0,.62c.15.12.34.12.4.24a.36.36,0,0,1,0,.42.21.21,0,0,0,.07.36.29.29,0,0,1,0,.5.32.32,0,0,0-.1.5c.09.08.1.25,0,.48-.33.92.37.94.79,1s1.06.46,1.1.65a7,7,0,0,0,.25.89,4.33,4.33,0,0,1,.16,1v0s0,0-.21.23-.57.86-.57.86l0,0a.83.83,0,0,0-.08.12c-.07.15-.16.59-.23.8s0,.1-.79,1a9,9,0,0,0-1.63,3.08c-.08.38-.56.27-.79.54s-.29.69-.92.94a4.4,4.4,0,0,0-1.62,1.13,2.14,2.14,0,0,1-1.29.77c-.46.06-1,.58-1.63.52s-.54.37-1,.42-1.39.6-1.83.7a6.37,6.37,0,0,0-1.5.71c-.44.27-1.19.5-1.52.67s-1.27.42-1.85.62h0a1,1,0,0,0-.21.08,5,5,0,0,0-.62-.62.59.59,0,0,0-.55,0c-.16.1-.37.19-.44.4a1.63,1.63,0,0,0,0,.36,18.44,18.44,0,0,0,1.48,4c.17,0,.41.05.52-.55a1.06,1.06,0,0,0,.29.06l.18.32c.14.27,0,.34.31.19s1.67-.54,2.33-.87a52.46,52.46,0,0,1,5.57-2.11,26.65,26.65,0,0,0,4.58-2.21,1.31,1.31,0,0,1,.15.71c0,.44-.57,3.06-.65,3.88s-.37,2.85-.46,4.43c-.07,1.31-.26,2.82-.43,4.25,0,.18-.06.33-.07.45a3.38,3.38,0,0,0,0,.53,1.4,1.4,0,0,0,.21.89.9.9,0,0,0,.4.37l.14.06a4.58,4.58,0,0,0,1.37.27c.39.06.83,0,.93.31,0,.1.09.69.17,1.56a.7.7,0,0,0-.29.61c0,.81,0,11.87,0,11.87s0,.58.27.65H112c.18,2.2.37,4.32.47,5.52.19,2.27.52,4.54.54,5a3.28,3.28,0,0,1-.69,1.71.61.61,0,0,0,0,.91c.21.13,0,.4-.23.54s-.06.5-.33.77a2.91,2.91,0,0,1-1,.55,9.51,9.51,0,0,0-.94.23,19.4,19.4,0,0,1-2.16,0c-.5,0-.52.5-.58.68-.13,0-.19,0-.19.13s.27.23,1.16.46a14.43,14.43,0,0,0,3.21.37,73.82,73.82,0,0,0,10,0,2.37,2.37,0,0,0,0-.88.25.25,0,0,0,.09-.07,0,0,0,0,0,0,0c0-.08.06-.88,0-1.06a4.72,4.72,0,0,0-.13-1.07A3.92,3.92,0,0,1,121,136c0-.42.07-1.57.3-4.13a64.32,64.32,0,0,0,.29-7.08c0-.37,0-.8-.09-1.28h8.36s.33,0,.42-.55S130.05,110.63,130.05,110.63ZM117.89,78.75h0Zm4.61,31h0a.84.84,0,0,0-.45.46h-1.61c0-.12,0-.4,0-.77.19-.1.19-.24.23-.39a.43.43,0,0,0,.83-.09.39.39,0,0,0,.67,0,1,1,0,0,0,.07-.15C122.54,108.85,122.5,109.78,122.5,109.78Z" style="fill:#fff"/><path d="M80.21,90a4.43,4.43,0,0,0,0,1,13.78,13.78,0,0,0,0,1.74.59.59,0,0,0,.18.14.49.49,0,0,0,.22.27c.12.06.63.27,1.33.52.1.24.16.67.26.85a1.92,1.92,0,0,0,.4.57c.17.13.3-.07.43.07-.13.2,0,.43-.23.83a8.44,8.44,0,0,0-.34,1.1c-.09.19-.16.31-.16.31a6.57,6.57,0,0,0-.63,1.51A8.2,8.2,0,0,0,81,101.4,33.89,33.89,0,0,0,81.2,107c.17,2.45.2,4.76.2,4.76h.75a9.15,9.15,0,0,1,1.08.07,5.45,5.45,0,0,1,0,.83.74.74,0,0,0,0,.35c.08,0,.88.3,1.19.39.19.58.36,1.13.44,1.42a2,2,0,0,1-.1,1.34,12.79,12.79,0,0,0-.53,3,7.56,7.56,0,0,1,0,1.51A23.75,23.75,0,0,0,83,125.13c-.37,2.18-.3,6.8-.5,8.24a9,9,0,0,1-1,2.69h0a0,0,0,0,0,0,0c0,.1-1,1.63-.93,2a5.75,5.75,0,0,1,.76,1.6,4.92,4.92,0,0,1,.17,1.2h.82s.6-.38.8-.35.13.38.13.38H84a.31.31,0,0,1,.36-.2.91.91,0,0,1,.43.23l5.94.11s.27-.62.07-.69-1.36-1.12-1.63-1.22-.31-.07-.51-.12l-.07,0a1.76,1.76,0,0,1-.61-.31,5.92,5.92,0,0,1-1.89-4.35c.2-2,1.06-8.25,1.36-9.79a6.51,6.51,0,0,1,1.43-3.35A4.41,4.41,0,0,0,90,118a19.06,19.06,0,0,0-.08-4c.23,0,.88,0,.88-.07s-.07-5-.07-7,.07-6.62.07-8.45c0-.13.23-.73.23-1s-.2-.63-.17-.8a2,2,0,0,0,0-.4.14.14,0,0,0,0,.07,13.15,13.15,0,0,0,2.22,0,2.92,2.92,0,0,0,.74.8.22.22,0,0,1,.13.28c-.18,0-.18.18-.18.18a2.09,2.09,0,0,0,1.25.32c.25,0,.17-.2.15-.35s.15-.32.22-.65,0-.48,0-.55.33-.16.28-.38-.2-.15-.23-.38,0-.4,0-.58-.33-.12-.43-.25-.52-.75-.64-.85-1.65,0-2.19-.1-.82-.41-1.22-.51l-.32-.09v0c0-.4-.16-.84-.2-1.41a1.91,1.91,0,0,0-.26-1,2.49,2.49,0,0,0-.29-.51.13.13,0,0,1,0-.06.18.18,0,0,0,0-.17A.64.64,0,0,1,90,89.8c.18-.17.28-.23.27-.34a2,2,0,0,0,.13-.46,6.33,6.33,0,0,0,.07-2.08,13.88,13.88,0,0,0-1.13-2.78s-.17,0-.1-.34.3-1.94.3-1.94l-1.24-1.4.08.09,0-.13c0-.11,0-.83,0-.83a2.14,2.14,0,0,1,.27,1.19l.07,0c0-.12,0-.86-.05-1.07s0-.48.08-.48.19.3.31.9a4.31,4.31,0,0,0,.32,1A8.58,8.58,0,0,1,89,80c-.12-.58-.23-1.24-.23-1.24a2,2,0,0,1,.06-.22c0-.11.11-.56.11-.56a1.33,1.33,0,0,0,0-.69c-.06-.26,0-.26,0-.26.29-.22.34,0,1,.16A1,1,0,0,0,91,76.74c.12-.17.15-.25.08-.58s0-.19.2-.29a.25.25,0,0,0,.16-.24c0-.07-.05-.11-.16-.18s0-.16,0-.16c.42-.27.25-.37.25-.37a1,1,0,0,1,0-.56c0-.15.14,0,.39-.18s0-.49,0-.49C91,72.78,91,72.35,91,72.35c-.07-.27.23-.52.2-.6s-.1-.28-.1-.28a2.64,2.64,0,0,0-.74-1.73c-.25-.14.34-.39.33-.44A7.48,7.48,0,0,0,88.35,68c-2.29-.6-3.68,0-5.17,2.11s-.55,5.88-1,8-1.09,4-.84,3.57c-.15.55-.68,3.16-.82,3.8s-.43,1.64-.26,1.94-.07.47-.07,1S80.21,89.43,80.21,90Z" style="fill:#fff"/></g></svg>