<?xml version="1.0" encoding="utf-8"?>
<!-- Generator: Adobe Illustrator 26.0.3, SVG Export Plug-In . SVG Version: 6.00 Build 0)  -->
<svg version="1.1" id="Capa_1" xmlns="http://www.w3.org/2000/svg" xmlns:xlink="http://www.w3.org/1999/xlink" x="0px" y="0px"
	 viewBox="0 0 200 200" style="enable-background:new 0 0 200 200;" xml:space="preserve">
<style type="text/css">
	.st0{fill-rule:evenodd;clip-rule:evenodd;fill:#D62F8A;}
	.st1{fill:#FFFFFF;}
	.st2{fill:#F2F2F3;}
</style>
<path class="st0" d="M186.1,100c0,47.6-38.6,86.1-86.1,86.1S13.9,147.6,13.9,100S52.4,13.9,100,13.9
	C147.5,13.9,186.1,52.5,186.1,100z"/>
<g>
	<path class="st1" d="M157.4,92.7h-17.6c-1.3,0-2.4,1.1-2.4,2.4v37.5c0,1.3,1.1,2.4,2.4,2.4h17.6c1.3,0,2.4-1.1,2.4-2.4V95.1
		C159.8,93.8,158.7,92.7,157.4,92.7 M156.6,132.9h-16c-0.4,0-0.8-0.2-1.1-0.5c-0.3-0.3-0.5-0.7-0.5-1.1V96.5c0-0.4,0.2-0.8,0.5-1.1
		c0.3-0.3,0.7-0.5,1.1-0.5h16c0.4,0,0.8,0.2,1.1,0.5c0.3,0.3,0.5,0.7,0.5,1.1v34.9c0,0.4-0.2,0.8-0.5,1.1
		C157.4,132.7,157,132.9,156.6,132.9"/>
	<path class="st1" d="M72.4,71.6L72.4,71.6C72.4,71.6,72.4,71.6,72.4,71.6L72.4,71.6z"/>
	<g>
		<path class="st2" d="M124,134.2H44.7c-5.1,0-9.2-4.1-9.2-9.2c0-0.5,0.4-0.9,0.9-0.9h95.8c0.5,0,0.9,0.4,0.9,0.9
			C133.2,130.1,129.1,134.2,124,134.2z M37.5,126c0.5,3.6,3.5,6.3,7.2,6.3H124c3.7,0,6.8-2.8,7.2-6.3H37.5z"/>
		<path class="st2" d="M67.3,126H52c-0.5,0-0.9-0.4-0.9-0.9v-3.5c0-0.5,0.4-0.9,0.9-0.9h15.3c0.5,0,0.9,0.4,0.9,0.9v3.5
			C68.3,125.5,67.8,126,67.3,126z M53,124.1h13.4v-1.6H53V124.1z"/>
		<path class="st2" d="M116.7,126h-15.3c-0.5,0-0.9-0.4-0.9-0.9v-3.5c0-0.5,0.4-0.9,0.9-0.9h15.3c0.5,0,0.9,0.4,0.9,0.9v3.5
			C117.7,125.5,117.3,126,116.7,126z M102.4,124.1h13.4v-1.6h-13.4V124.1z"/>
		<path class="st2" d="M117,130.1H51.7c-0.5,0-0.9-0.4-0.9-0.9c0-0.5,0.4-0.9,0.9-0.9H117c0.5,0,0.9,0.4,0.9,0.9
			C118,129.7,117.6,130.1,117,130.1z"/>
		<path class="st2" d="M116.8,65.8h-5.3v1.9h5.3c3.5,0,6.4,2.9,6.4,6.4v46.4H45.5V74.1c0-3.5,2.9-6.4,6.4-6.4h59.7v-1.9H51.9
			c-4.6,0-8.3,3.7-8.3,8.3v47.4c0,0.5,0.4,0.9,0.9,0.9h79.6c0.5,0,0.9-0.4,0.9-0.9V74.1C125.1,69.5,121.4,65.8,116.8,65.8z"/>
	</g>
</g>
</svg>
