<svg xmlns="http://www.w3.org/2000/svg" viewBox="0 0 200 200"><g id="Capa_1" data-name="Capa 1"><path d="M186.1,100A86.1,86.1,0,1,1,100,13.9,86.1,86.1,0,0,1,186.1,100Z" style="fill:#7d2796;fill-rule:evenodd"/><path d="M70.74,73.46c.1.17.39.62.7,1.1v0a2.69,2.69,0,0,0,.13,1c.17.39.48.64.48.83s-.1.52-.25.54.66.12.66.12A10.19,10.19,0,0,0,74,79.2c.76.7.68.64.85,1a7.91,7.91,0,0,0,1.68,1.39c.45.32.48,1,1,1.83.37.64.44.66.48.79a6.14,6.14,0,0,0,.1,1c0,.16,0,.32,0,.48a11.09,11.09,0,0,1,.12,2.3s-.55,1-.45,1.26a4.51,4.51,0,0,1,.08.52h0a1.81,1.81,0,0,0,.13.62,2.16,2.16,0,0,0,.42.92,7.3,7.3,0,0,1-.6,1.45.93.93,0,0,1-.31.37c-.17.14-.14.68-.14.68a33.64,33.64,0,0,0-1.66,7.56c0,1.7-.29,7-.34,7.28a.52.52,0,0,0,.17.46,11.35,11.35,0,0,0,2,.36c.23.8.64,2.26.8,2.9,0,0,.23,1.49.3,3.13a10.86,10.86,0,0,1,0,2.82,9.09,9.09,0,0,0-.57,3.84c.15,2.24.36,3.91.66,5.85,0,0,.23,1.41.47,2.33a5.51,5.51,0,0,1,0,2.39,2,2,0,0,0-.08.91,1.35,1.35,0,0,1,0,.94,5.31,5.31,0,0,0-.6,1.73,14,14,0,0,1-.13,1.62,1.19,1.19,0,0,0,.28,1.07s.17.34,1.79.34,1.67-.41,1.67-.41-.2-1-.34-1.49a8.21,8.21,0,0,1-.18-2,3.17,3.17,0,0,0,0-.88,3,3,0,0,1,0-1.11,2,2,0,0,0-.17-.92,5.21,5.21,0,0,1-.25-2.07c.15-.68.61-5,.78-6.84s0-3.57.13-4a16.57,16.57,0,0,0,.66-2.46c.09-.94,0-5.08-.06-6,0-.58,0-1-.08-1.38l1.14,0c.34,0,.76,0,1.22.05,0,.86,0,2.57,0,3.71a21.65,21.65,0,0,0,.32,4,18.17,18.17,0,0,1,.43,1.83,20.79,20.79,0,0,1,0,2.48c0,1.15,0,1.71,0,2.6S86,130.67,86,132a1.63,1.63,0,0,1-.19.88,2.76,2.76,0,0,0-.23,1.43,3,3,0,0,0-.35,1.47c.09.66.17,1.06.2,1.62s-.07,1,.15,1.32.32.41.66.41h3a2.5,2.5,0,0,0,0-.52,13.07,13.07,0,0,0-.5-1.4c-.13-.39-.68-1.69-.83-2s.21-1.09.17-1.58a7,7,0,0,1-.11-2.15,68.77,68.77,0,0,0,1.41-7.62,22.57,22.57,0,0,0,0-5.59,30.8,30.8,0,0,1,.09-5.4,21.81,21.81,0,0,1,.33-2.55c.47,0,.78.07.85.07.28,0,.31-.19.31-.19.11-.34.25-2.83.25-2.83a22,22,0,0,0,0-4.63,25.42,25.42,0,0,0-.51-3.86c-.14-.62-.14-1.24-.22-1.61A9.07,9.07,0,0,1,90.24,96a21.42,21.42,0,0,1-.19-2.23,5.28,5.28,0,0,0-.31-1.38c0-.18-.1-.39-.13-.49s.1-.15.11-.43c0-.51-.25-.4-.12-.57a2.51,2.51,0,0,1,.27-.28c.07-.08-.06,0,.2.06h.07c.12.8.53,1.49,1.06,1.6a.84.84,0,0,0,.74-.18A2.69,2.69,0,0,0,93,90.8a1.23,1.23,0,0,0,.22-.78,2.92,2.92,0,0,0,.09-1.09,5.05,5.05,0,0,0-.27-.86c.07-.14.15-.32.21-.46s0-.61,0-.85a1,1,0,0,1,.16-.54,4,4,0,0,0,.41-.66c0-.15.08-.15.08-.27.9-.85,2.12-2,2.23-2.11a.28.28,0,0,0,0-.37c-.51-.31-1.92-1.07-3.39-1.86a1.76,1.76,0,0,0,0-.19,2.53,2.53,0,0,0-.2-1.62c-.27-.37-.47-.37-.53-.52s-.15-.19-.47-.4-1.79-1.07-2.3-1.41a2.34,2.34,0,0,0-.67-.3c-.33-.22-1.25-.78-1.18-1.16A8.49,8.49,0,0,0,87.76,73c-.11-.71-.48-3.25-.73-4.15s-1.33-4-3.28-3.56a3.7,3.7,0,0,0-3.19.9A8.53,8.53,0,0,0,78.9,72.3c.25,2.57,1.21,3.22.53,4.41a1.87,1.87,0,0,1-.45.47s0,0,0,0a.93.93,0,0,1-.2.09c-.24.07,0-.19-.41.07s-.25.1-.73.06a1.5,1.5,0,0,1-1.38-.89c-.47-.77-.41-.9-.68-.86l-.13,0h-.18a.49.49,0,0,1-.18-.21,7.65,7.65,0,0,0-1.47-1.94c-.2-.27-.5-.49-.58-.73a15.53,15.53,0,0,1,.36-2.56,16.56,16.56,0,0,1,1-4.54,7.67,7.67,0,0,1,.85-1.62,3.66,3.66,0,0,1,.17-.48c.08-.2.81-.88,1-1.25s.54-.79.6-.93-.2-.28-.2-.48a.48.48,0,0,0-.09-.34c0-.08-.31.06-.34,0a.36.36,0,0,0-.33-.28c-.23,0-.15-.11-.29-.11a.84.84,0,0,0-.56.08c-.2.15-.62.09-.74.15a.9.9,0,0,0-.42.36c-.11.2-.56.45-.51.62s.09,1.56.12,1.81S71.44,68.46,70.68,72A2.22,2.22,0,0,0,70.74,73.46Z" style="fill:#fff"/><path d="M101.31,107.75l-.26-.28-.61.08-.1.12-.51.13,0,.23s-1.52,0-1.72.28-.18.9-.18,3.62.2,9.2.2,9.2h1.24s0,.3.21.3.18-.29.18-.29l1.34,0s0,.25.21.28.33-.31.33-.31l5-.13c-.13.92-.23,1.62-.25,1.86-.07.84-.68,5.26-.68,6.17s.68,4,.61,4.57-1.15,1.53-.61,1.91,1.22.68,1.22,1a2.34,2.34,0,0,1-1.15,1.45c-.35.17-1.83.53-1.67,1.37a.46.46,0,0,0,.18.35c.07.05,0,.15,0,.16,2,0,2.67,0,2.67,0h1.53c.53,0,.5,0,.67,0a2.48,2.48,0,0,1,.4-.19c.19,0,.07.17.12.17.75,0,2.24-.06,2.31-.1s-.06-.05.08-.36a2.7,2.7,0,0,0-.22-1.67,18.9,18.9,0,0,1-.09-4.59c.08-1.07,1.07-3.58.92-5.33a27.41,27.41,0,0,1-.1-6.86c.4-2.52,2.08-11.36,2.92-12.58s1.22,1.22,1.29,2.82,1.22,6.78,1.22,6.78.84,3.43,1,4,1.38,8.46,1.45,9.3a47,47,0,0,0,.64,5.25c.91.12,1.08.11.81.74-.53,1.25-.6,1.55-.25,2,.06.09-.09.16,0,.24s0,.35,0,.37c.58,0,4.32,0,5.26-.09.06,0,0-.36,0-.38.06-.19-.19-.25-.15-.32.6-1.32-1.2-1.28-.71-2.51.15-.38.38-1.14.23-1.37s-1.22-11.59-1.52-15.17c-.29-3.37-.24-13.81-.23-15,1.76-.44,4.1-1.11,4.1-1.11s-2.58-8.8-3.23-10.25a24.57,24.57,0,0,1-1.82-5.94c0-1.26.07-3.36.07-3.36s.57,1.37,1.56,1.49a11.13,11.13,0,0,0,3-.5c.46-.07,1-1,1.15-2.05a4.24,4.24,0,0,0-1.6-3.62c-1.3-1.15-.88-.35-1.18-1.53-.25-1-.39-.68-.61-.8s-.08-1.86-.73-1.86-.38.11-.65,0a6.74,6.74,0,0,0-.8-.38c-.15,0-1.56-1.53-1.75-1.68.17,0-.43-.59-.43-.59a.12.12,0,0,1-.07.11h0c-.07-.29.06-.36.2-.61a.66.66,0,0,0,.06-.32,3.08,3.08,0,0,0,0-.52v0h0v-.15c.09-.65-.16-.82-.16-.82a2.09,2.09,0,0,1-.17-.28c-.08-.19-.15-.45-.25-.77s-.36-.53-.6-.5a2.43,2.43,0,0,0-.49.06,1.17,1.17,0,0,0-.09-.4c-.08-.22-.57-.16-.57-.16a5.48,5.48,0,0,0,.54-2.86,3.28,3.28,0,0,0-3.13-2.64,3.24,3.24,0,0,0-3.63,2.08,12.27,12.27,0,0,0-.08,2.41c-.32-.32-.39-.09-.39-.09a5,5,0,0,0,.13,2,.6.6,0,0,0,.44.32c0,.35.11,1.89.12,2.08s-.28.42-.28.42v0l0,0,0,0c-.56,0-1.19,1.31-2,1.56s-4.73,1.27-5.59,1.93c-.26.41-.21,1.37-.51,2.08,0,0-.3,1.68-.66,3.41a32,32,0,0,0-.86,5.94c0,1.53-.72,5.74-.87,7.57s-.4,6.71-.3,7.52.33.63.52.61a2.88,2.88,0,0,1,0,1,8.33,8.33,0,0,0,0,2.06,1.21,1.21,0,0,0,.08.37c.13.21-.35.82-.4,1.6Zm20.45-34.29c-.17.16-.4.41-.67.64C121.32,73.88,121.56,73.63,121.76,73.46Zm-3.39-1.86c.18-.19.23-.63.4-.68s0,0,0,0c0,.25,0,.49.17.51h.1a.24.24,0,0,0,.12-.07.7.7,0,0,0,.14-.58,1.41,1.41,0,0,1,0-.2c0-.38.09-.25.22,0a1.19,1.19,0,0,1,0,.89,3.62,3.62,0,0,1-.46,1,1.1,1.1,0,0,0-.11.35,1.65,1.65,0,0,0-.53-.46,1.38,1.38,0,0,0-.19-.25A.63.63,0,0,1,118.37,71.6Zm-12.13,30.71a.18.18,0,0,1,.07-.15s.66,0,.3-.81a11.58,11.58,0,0,1-.2-4.78,26.38,26.38,0,0,0,.66-5.63,11.68,11.68,0,0,1,.31,3.3,20.66,20.66,0,0,0-.51,3.91,19.62,19.62,0,0,1-.15,4.42,1,1,0,0,0-.07.21,1,1,0,0,0-.39-.29.49.49,0,0,1,0-.14.1.1,0,0,0,0,0Zm0,4.08v0l.19-.62h0a1.85,1.85,0,0,0,.24-.4,5.44,5.44,0,0,0,1.07.15h0s0,.65,0,1.6l-.54,0a2.32,2.32,0,0,0-.66-.21.29.29,0,0,1-.13,0,.45.45,0,0,1-.19,0C106.17,106.83,106.19,106.52,106.28,106.39Zm-.55-2.19.06,0a.27.27,0,0,1,0,.15c0,.14-.07.18-.23.19a.24.24,0,0,1-.24-.15C105.39,104.29,105.47,104.14,105.73,104.2Zm-2.17,2.37h.09l.56,0a.45.45,0,0,0,.32.28.47.47,0,0,0,.35-.13l.06,0a.84.84,0,0,1,.21,0,.56.56,0,0,1,.12-.09h.1c.08.07.07.15,0,.33a.39.39,0,0,0,0,.33s-1.72.26-1.72.26A1.81,1.81,0,0,1,103.56,106.57Z" style="fill:#fff"/></g></svg>