<svg xmlns="http://www.w3.org/2000/svg" viewBox="0 0 200 200"><g id="Capa_1" data-name="Capa 1"><path d="M186.1,100A86.1,86.1,0,1,1,100,13.9,86.1,86.1,0,0,1,186.1,100Z" style="fill:#d57046;fill-rule:evenodd"/><path d="M99.72,139.44c-.19.18-.1.21-.16.27a1,1,0,0,0-.21.2.52.52,0,0,0,0,.53c.11.3,1.38.11,3.61.11a14.3,14.3,0,0,0,2.44-.08c.09,0,.09-.18.18-.18s0,.15.09.17a4.47,4.47,0,0,0,.9,0c.11,0,.11-.12.12-.33a9.75,9.75,0,0,0,0-1.08s.9-1.19,1.3-1.69-.46-1.63-.25-2.39,2.28-9.14,2.28-9.14a10,10,0,0,1,.46-3.15,15.39,15.39,0,0,0,1-5,50.58,50.58,0,0,1,2-8.88c.45-1.12.81-2.34.81-2.34a5.21,5.21,0,0,1,.4,2.13c-.1.92-.86,6.4-.35,7.67a21.07,21.07,0,0,1,.71,6.3c0,2,.41,3.66.3,4.47s.21,4-.35,5.58-1.32,3.51-.36,5.59a10.74,10.74,0,0,0,0,2.39h1.48s-.14-.25.11-.2c.1,0-.18.2.89.2h4.86s.92,0,.82-.55-.33-.46-.33-.46l-2-.56c-1.46-.57-.68-1.27-.68-1.27s.46,0,.46-1a10.66,10.66,0,0,1,.1-4.62c.61-3.61-.45-5.54,0-8.74s2-12.39,2.24-14.27.91-7.06.2-9.9a13.93,13.93,0,0,1-.86-1.63c-.1-.35-.36-1.37-.36-1.37l0-.21.18,0a.41.41,0,0,0,.46.15c.27-.12.57-.8.57-.8s1.22.57,2-1a8.55,8.55,0,0,0,1-2.36,6.17,6.17,0,0,0-.08-1.15,5.36,5.36,0,0,0-.19-.64c.5-.14,1-.25,1.17-.3a.83.83,0,0,0,.68-.56s.84-9,.84-9.14-.2-.17-.2-.17l-5,1s0-.07,0-.08c.15-.23-.38-2.78-1.52-3.24s-4.73-1.67-5.34-1.83a3,3,0,0,1-1.18-.72l-.64-1.33-.2,0c.11-.26.27-.68.36-.92a5.13,5.13,0,0,0,.19-.91H115c.32,0,.45-.8.45-.8s0-.24,0-.49a5.43,5.43,0,0,0-.45-1.25l0-.17c0-.16-.2-.33-.13-.56s.21-.46.16-.64a4,4,0,0,1-.16-1.29,4,4,0,0,0-1.52-2.34c-.28-.23-.53-.15-.84-.23s-.91-.48-1.27-.4-.43.38-.58.3a2.34,2.34,0,0,0-1.45,0,5.43,5.43,0,0,0-1.75,2.16,8.87,8.87,0,0,0,0,2.69s-.13-.07-.23.38a4.34,4.34,0,0,0,.66,2.11.81.81,0,0,0,.64.28,9.59,9.59,0,0,0,.25,1.65,2.71,2.71,0,0,1,.06,1.06,1.72,1.72,0,0,0-.31,1.24,1.43,1.43,0,0,1-.2.34l0-.07-.76.6-1.71.88a23.88,23.88,0,0,0-3,2,3.64,3.64,0,0,0-1,1.68c-.15.72-.69,2.78-.76,3.61a15.51,15.51,0,0,1-.88,4.35,7.49,7.49,0,0,0-.91,2.24c-.08.46-.08,2.71,1.67,3.54a10.56,10.56,0,0,0,3.2-.45c.27,0,2.09-.48,2.44-.5a1.91,1.91,0,0,0,.34,0,5.49,5.49,0,0,1-.54.88c-.19.19-.41.57-.18.72s.67.38.9.51a2.21,2.21,0,0,1-.32.93A17.87,17.87,0,0,0,105.61,99c-.11.4-.56,4.67-.61,6.34s-.61,5.29-.82,9.09a30.2,30.2,0,0,0,.11,4.73,17.5,17.5,0,0,0-.82,3.25c-.15,1.47-1.42,9.54-1.57,12.24a10.65,10.65,0,0,1-.31,1.77,2.62,2.62,0,0,0,.25,1.57,1.73,1.73,0,0,1-.4.6C101.19,138.86,99.93,139.19,99.72,139.44Zm15.11-69.26a2.37,2.37,0,0,1,0-.42c.06-.38.4.43.5.72a1.39,1.39,0,0,1,.09.55,1,1,0,0,0-.22-.12,3,3,0,0,0-.43,0s0-.18,0-.23,0-.16.06-.2A.56.56,0,0,0,114.83,70.18Zm-9,19.64c-.13-.11-.89,0-1,0l-.06,0a1,1,0,0,1-.07-.31c0-.08.68-1.17.68-1.17l.56,1.44S106,89.92,105.84,89.82Z" style="fill:#fff"/><path d="M72.14,108.41c.2.73.43.57.53.8a1,1,0,0,0,.54.53c.23.11,1.34.57,1.5.61s.14-.34,0-.47.1-.14.1-.27-.5-.3-.66-.27.46-.18.43-.37-.37-.13-.7-.23c0,0-.37-.6-.27-.8s.23-.94.34-1,.06.67.2,1a2.85,2.85,0,0,0,.56,1,.22.22,0,0,0,.37-.2,5.66,5.66,0,0,1-.33-1.44,3,3,0,0,0-.07-1.1c-.07-.3-.2-.8-.27-1.11a5.16,5.16,0,0,1-.67-2.84c.27-1.27,1-3.61,1.44-5.42a36.72,36.72,0,0,0,1.21-5.28c.12-1.49.19-2.78.2-3.48,0,.14,0,.28,0,.43s0,.37,0,.56,0,.45,0,.68a4.52,4.52,0,0,0,.25,2.06c.3.7.55.55.5,1.2v0l0,.18c-.18.78-.88,2.38-1,2.74l.18.07a1.83,1.83,0,0,0-.47.63,13,13,0,0,0-1.1,6.26,19.34,19.34,0,0,0,.87,5c.2,1,1.2,6.29,1.3,6.69l1.37.1a10.12,10.12,0,0,1,.54,2,20,20,0,0,1,.27,3.24,28.06,28.06,0,0,0,.33,6.13c.5,2.14.44,1.87.44,1.87a1.4,1.4,0,0,0-.14.87,17.28,17.28,0,0,1,.81,2.71,5.61,5.61,0,0,1-.37,2.41,2.21,2.21,0,0,0,.33,2c.4.56.94,1.27,1.07,1.53a3.66,3.66,0,0,1,.37,1.31c0,.5-.23.87.14,1.24a5.78,5.78,0,0,0,3.84.73s.67-.1.64-.63a7.17,7.17,0,0,0-.94-2.14,3.75,3.75,0,0,1-.4-1.58c-.07-.36-.27-.4-.44-1a13.41,13.41,0,0,0-.43-1.74,13.48,13.48,0,0,1-.67-4c.13-.87.13-.84.34-1.07s2.1-2.78,2.64-3.62a9.15,9.15,0,0,0,1.34-3c.13-.56,0-.86.23-1.17a19.79,19.79,0,0,0,.8-3.37,17.91,17.91,0,0,1,.37-2h-.09c.4,0,.73,0,.95,0h0l.17,0s-.33-6.15-.1-7.69.14-3.08.34-3.28a2,2,0,0,0,.31-.83,1.06,1.06,0,0,0,0-.31,1.42,1.42,0,0,0,0-1.1c-.24-.6-.47-2.58-.81-3.48a9.11,9.11,0,0,0-1.3-2.44.05.05,0,0,0,0,0l.17-.17s-.21-.58-.38-1.26a.5.5,0,0,0,0-.12,7.17,7.17,0,0,1,0-2.43c.13-1.41,0,0,0-.75s.1-.73,0-1.08a.13.13,0,0,0,0-.06c0-.11,0-.22.07-.34a2.27,2.27,0,0,0,.19-.46l0-.07,0-.05c.3-.5,0,0,.25-.75,0-.14.08-.28.11-.43-.06.34-.11.58-.11.58A22.12,22.12,0,0,1,90,92.68a39.83,39.83,0,0,0,1.61,5.87,20.73,20.73,0,0,1,.77,2.93c0,.4-.35.88-.42,1.16a2.23,2.23,0,0,0,0,1.1,4.9,4.9,0,0,1,.18,1.05c0,.25.15.76.35.83s.53-.12.53-.12.1.07,0,.35a2.63,2.63,0,0,1-.81.85,2.46,2.46,0,0,0-.65.45c-.15.18.23.25.23.25s.27.18.27.18.38,0,.86-.15a3.32,3.32,0,0,0,1.28-.6,8.91,8.91,0,0,0,.47-1.31c.23-.58,0-.6-.07-1.1a9.35,9.35,0,0,1-.3-2.34c.12-.65-.08-.52-.15-1.33s-.23-4.81-.23-4.81A16.12,16.12,0,0,0,93,91.7a28.62,28.62,0,0,1-.55-3c-.09-.9-.16-3.32-.17-3.71a9.68,9.68,0,0,0,1.15-1.11s-2-3.31-3.11-4.07-2.16.15-3.11-1.15l-.06-.07c-.11-.91-.42-3.59-.4-4.52,0-1.12-.19-1.84-.19-2.81a4.19,4.19,0,0,0-.43-2.44,4.29,4.29,0,0,0-1.44-1.32,1.19,1.19,0,0,0-1,0,1.83,1.83,0,0,0-1.63-.25c-.69.19-2.54,1.19-2.94,2.51a22.53,22.53,0,0,0-.75,4.72c-.19,2,.09,2.54,0,3.26a1.61,1.61,0,0,1-.38,1l-.16.12a2.54,2.54,0,0,1-1.46.57,1.75,1.75,0,0,0-1.06.4,20.85,20.85,0,0,0-1.55,2.41c-.65,1-1,2.06-1.16,2.16s.66.85.66.85l.1.06a11.58,11.58,0,0,0,.1,1.42,23.07,23.07,0,0,1-.1,4.78c-.2,1-.51,2.84-.71,4.52s-.33,5.48-.4,6-.23.8-.17,1.1a9.41,9.41,0,0,1,0,1c0,.44-.37,1.34-.37,2.08A7.8,7.8,0,0,0,72.14,108.41Zm11.61,11a7.83,7.83,0,0,0,.13-3.68l0-.66a1.09,1.09,0,0,0,.37.06,2.44,2.44,0,0,1,0,.27,12.54,12.54,0,0,0-.18,2,7.79,7.79,0,0,0,.07,2.24c.2.6.1.7-.14,1l-.23.34A4.64,4.64,0,0,1,83.75,119.41Zm-5.3-40.86h0Z" style="fill:#fff"/></g></svg>