<?xml version="1.0" encoding="utf-8"?>
<!-- Generator: Adobe Illustrator 26.0.3, SVG Export Plug-In . SVG Version: 6.00 Build 0)  -->
<svg version="1.1" id="Capa_1" xmlns="http://www.w3.org/2000/svg" xmlns:xlink="http://www.w3.org/1999/xlink" x="0px" y="0px"
	 viewBox="0 0 250 250" style="enable-background:new 0 0 250 250;" xml:space="preserve">
<style type="text/css">
	.st0{fill:#0A1E3F;}
	.st1{fill:#0A1624;}
	.st2{fill:#8BB8E8;}
</style>
<g>
	<path class="st0" d="M102.9,235.5c-19.8-0.1-36-15.8-36.8-35.6c-17.5-1.7-30.8-16.5-30.7-34.1c0-1.8,0.1-3.5,0.4-5.2
		c-20.3-15.2-24.5-43.9-9.4-64.3c3.8-5,8.5-9.2,14-12.4c-0.3-1.9-0.5-3.9-0.5-5.9c0-16.2,11.1-30.2,26.9-33.8c4-20,23.4-33,43.3-29
		c17.4,3.4,29.9,18.8,29.7,36.5v146.5C139.9,218.6,123.4,235.4,102.9,235.5C102.9,235.5,102.9,235.5,102.9,235.5z M78.5,198.4
		c-0.4,13.5,10.2,24.7,23.6,25.1c13.5,0.4,24.7-10.2,25.1-23.6c0-0.5,0-1,0-1.4v-20.6c-3.3-4.4-8.6-6.9-14-6.5c-2.7,0-5.4,0.4-8,1.2
		c-0.7,0.2-1.4,0.4-2.1,0.3c-3.5,0.1-6.3-2.7-6.4-6.2c0-2.7,1.7-5.1,4.2-6c3.9-1.2,8-1.8,12.1-1.8c4.8-0.1,9.6,1,14,3v-50.1
		c-2.1,0.2-4.3,0.4-6.4,0.4c-4.1,0-8.1-0.5-12.1-1.6c-5.4,1.9-8.8,7.3-8.1,13c0.1,1.7-0.4,3.3-1.5,4.5c-1.1,1.3-2.6,2-4.3,2.1h-0.4
		c-3.3,0-6-2.6-6.2-5.9c-0.8-7.7,2.2-15.4,8-20.5c-2.9-2.4-5.3-5.4-7-8.8c-1.4-3.2,0-6.9,3.2-8.3c3.2-1.4,6.9,0,8.3,3.2
		c2.1,3.7,5.5,6.5,9.6,7.8c0.6,0.1,1.1,0.3,1.6,0.6c3,0.9,6,1.3,9.1,1.3c2.1,0,4.3-0.2,6.4-0.4V51.9c0.2-13.5-10.5-24.5-24-24.7
		C90.6,27,79.9,36.5,78.6,49c2.2,4.8,5.9,8.8,10.6,11.2c0.4,0.1,0.8,0.3,1.1,0.6c4.2,1.9,8.7,2.8,13.3,2.7h2.1h0.3
		c3.5,0,6.3,2.7,6.3,6.2c0,1.6-0.6,3.1-1.6,4.3c-1.1,1.2-2.6,2-4.3,2.1h-2.8c-5.3,0.1-10.6-0.8-15.6-2.6c-0.5,1.1-0.6,2.3-0.3,3.5
		c0.3,1.6-0.1,3.3-1.1,4.7c-1,1.4-2.4,2.3-4.1,2.5c-0.3,0-0.7,0-1,0c-3.1-0.1-5.6-2.3-6.2-5.3c-0.7-4-0.1-8.2,1.8-11.8
		c-3.5-2.9-6.4-6.4-8.7-10.3C59,59.5,52.3,68.3,52.3,78.3c0,1,0.2,2.1,0.3,3.1c6.8,0.7,19.2,3.9,25.5,16.8c1.5,3.1,0.3,6.8-2.8,8.4
		c-0.9,0.4-1.8,0.7-2.8,0.7c-2.4,0-4.5-1.3-5.6-3.4c-4.5-9-13.9-10-17.8-10.1C37.5,99.2,30,111,30,123.9c0.1,9.8,4.4,19.2,11.9,25.5
		c2.8-2.8,6.1-5.1,9.7-6.9c-2.6-7.8-1.3-16.4,3.4-23.1c1.2-1.6,3.1-2.5,5-2.5c3.5,0,6.3,2.8,6.3,6.3c0,1.3-0.4,2.6-1.2,3.7
		c-2.5,3.7-3.1,8.3-1.6,12.5c1,0,2.1-0.1,3-0.1c3.4,0,6.8,0.5,10.1,1.3c1.6,0.4,3,1.4,3.8,2.9c1.8,3,0.8,6.8-2.2,8.6
		c-1,0.6-2.1,0.9-3.2,0.9c-0.5,0-1.1-0.1-1.6-0.2c-2.3-0.6-4.7-0.9-7-0.9c-1.6,0-3.2,0.2-4.8,0.5c-0.3,0.1-0.6,0.2-1,0.2
		c-4.8,1.4-9,4.2-12.1,8.2c-0.4,1.7-0.7,3.5-0.7,5.3c0,11.8,9.5,21.5,21.3,21.6h0.3c4.2-3.9,9.8-6.1,15.5-6.1
		c6.4,0.2,12.5,2.4,17.6,6.4c2.8,2,3.4,5.9,1.4,8.7c-2,2.8-5.9,3.4-8.7,1.4c-2.9-2.4-6.6-3.8-10.3-4c-2.3,0-4.6,0.8-6.4,2.3
		L78.5,198.4z"/>
	<path class="st1" d="M191,106.2l-0.4-1c-0.5-1-1.6-1.4-2.7-1c-1,0.5-1.5,1.6-1,2.6c0,0,0,0,0,0l0.9,2.1
		c8.8,21.6-1.3,46.2-22.7,55.3c-1,0.4-1.5,1.6-1.1,2.6c0,0,0,0,0,0c0.3,0.8,1,1.2,1.9,1.2c0.3,0,0.5,0,0.8-0.1
		c23.5-10,34.6-37,24.9-60.6C191.4,106.9,191.2,106.5,191,106.2z"/>
	<path class="st2" d="M228.4,139.1l-11.4-4.7c0.8-6.1,0.8-12.3,0-18.4l11.4-4.7c3.5-1.6,5.1-5.6,3.7-9.2L224,82.2
		c-0.7-1.7-2-3.1-3.7-3.8c-1.7-0.7-3.7-0.7-5.4,0l-11.3,4.7c-3.6-4.9-7.9-9.3-12.8-13l4.5-11.5c0.7-1.7,0.7-3.6,0-5.4
		c-0.7-1.7-2-3.1-3.7-3.9l-19.7-8.3c-1.7-0.7-3.7-0.7-5.4,0c-1.7,0.7-3,2.1-3.7,3.9l-4.6,11.5c-3-0.4-6.1-0.6-9.2-0.6
		c-1.1,0.1-2,1-2,2.1v35.5c0,1.1,0.9,2,2,2c11.9,0,22.5,7.2,27,18.2c6.3,14.9-0.6,32.2-15.5,38.5c-3.6,1.5-7.5,2.3-11.4,2.3
		c-1.1,0-2,0.9-2,2c0,0,0,0,0,0v35.8c0,1.1,0.9,2.1,2,2.1c3.1,0,6.1-0.2,9.2-0.7l4.6,11.5c0.7,1.7,2,3.1,3.7,3.8
		c0.9,0.4,1.8,0.6,2.7,0.6c0.9,0,1.8-0.2,2.7-0.5l19.7-8.3c1.7-0.7,3.1-2.1,3.7-3.8c0.7-1.7,0.7-3.6,0-5.3l-4.7-11.5
		c4.8-3.7,9.1-8.1,12.8-13l11.3,4.8c1.7,0.7,3.7,0.7,5.4,0c1.7-0.7,3-2.1,3.7-3.8l8.2-19.9C233.6,144.7,232,140.6,228.4,139.1z"/>
</g>
</svg>
