<?xml version="1.0" encoding="utf-8"?>
<!-- Generator: Adobe Illustrator 26.0.3, SVG Export Plug-In . SVG Version: 6.00 Build 0)  -->
<svg version="1.1" id="Capa_1" xmlns="http://www.w3.org/2000/svg" xmlns:xlink="http://www.w3.org/1999/xlink" x="0px" y="0px"
	 viewBox="0 0 250 142" style="enable-background:new 0 0 250 142;" xml:space="preserve">
<style type="text/css">
	.st0{fill-rule:evenodd;clip-rule:evenodd;fill:#8CB6DF;}
	.st1{fill-rule:evenodd;clip-rule:evenodd;fill:#D53089;}
</style>
<path class="st0" d="M95.5,55.8c0,0,8.8,0.9,16.2-1.1c5.6-1.5,10.3-4.8,11.2-10.6c1.2-8.1-0.7-12.8-6.1-13.9c-2.5-0.5-5.1-0.8-7.6-1
	c-1.9-2.2-7.4-7.4-18.1-7.2c-11.7,0.2-15,10.6-16.8,16.6c-1.7,5.8-0.9,9.2,0.8,11.2s4.7,2.9,7.8,2.8s5-0.6,6.4-1.9
	c1.1-1.1,1.8-2.4,2.1-3.9c0.6-3.2,0.8-6.5,0.7-9.8c0-1.3-1-2.3-2.3-2.3c-1.3,0-2.3,1-2.3,2.3c0.1,2.6,0,5.2-0.4,7.8
	c0,0.9-0.4,1.8-0.9,2.5c-0.3,0.2-0.6,0.4-1,0.4C84.3,48,83.4,48,82.6,48c-1.5,0.1-3.1,0-4-1.1s-1-3.4,0.1-7
	C80,35.3,82,26.8,91.1,26.6c10.7-0.2,14.9,6.1,14.9,6.1c0.4,0.6,1.1,1,1.9,1.1c2.7,0.1,5.4,0.4,8,0.9c1.4,0.3,2.5,1.5,2.6,2.9
	c0.2,1.9,0.2,3.9-0.2,5.8c-0.6,3.9-4.1,5.7-7.8,6.8c-6.7,1.8-14.5,1-14.5,1c-1.3-0.1-2.4,0.8-2.5,2.1C93.3,54.5,94.2,55.6,95.5,55.8
	L95.5,55.8L95.5,55.8z"/>
<path class="st0" d="M98.3,61.8c-0.3,5.2-1.6,10.3-3.8,15c-2.2,4.6-2.5,10.9-1.8,16.7c0.6,5.4,1.8,10.7,3.5,15.9
	c0.4,1.2,1.7,1.9,2.9,1.5s1.9-1.7,1.5-2.9c0-0.1,0-0.1-0.1-0.2c-1.6-4.9-2.7-9.9-3.3-14.9c-0.5-5-0.5-10.3,1.4-14.2
	c2.5-5.3,4-11,4.3-16.9c0-1.3-1-2.3-2.2-2.4C99.4,59.5,98.3,60.5,98.3,61.8L98.3,61.8z"/>
<path class="st0" d="M80.4,69.6c0.2,13.7,0.3,29.4,5.2,42c1.3,3.3,2.5,5.2,4.1,6.4c2.2,1.7,5.4,2,11.5,1.9c1.3-0.1,2.2-1.2,2.1-2.5
	c-0.1-1.2-1-2.1-2.2-2.1c-2,0.1-4,0.1-6-0.1c-0.9,0-1.8-0.3-2.6-0.8c-1-0.8-1.7-2.2-2.6-4.4c-4.7-12.2-4.7-27.2-4.9-40.4
	c-0.1-1.3-1.2-2.2-2.5-2.1C81.4,67.5,80.4,68.5,80.4,69.6L80.4,69.6z"/>
<path class="st0" d="M64.9,89.5c5.7,3.1,9,10.7,8.4,19c-0.1,1.3,0.9,2.4,2.2,2.5c1.3,0.1,2.4-0.9,2.5-2.2
	c0.7-10.2-3.8-19.5-10.8-23.4c-1.2-0.5-2.5,0.1-3,1.3C63.7,87.7,64,88.8,64.9,89.5L64.9,89.5z"/>
<path class="st0" d="M26.2,72.6c-5,5.2-7.7,12-7.8,19.2c0,1.3,1,2.3,2.3,2.4s2.3-1,2.4-2.3c0-5.9,2.3-11.6,6.3-15.9
	c0.9-0.9,1-2.3,0.1-3.3C28.6,71.8,27.1,71.7,26.2,72.6L26.2,72.6z"/>
<path class="st0" d="M73.7,57.2c-3.1,8.8-5.9,13.1-14.3,21.3C53.9,83.7,51,91.1,49.6,98c-1.2,6.4-1.6,12.9-1.1,19.3
	c0.1,1.3,1.3,2.2,2.5,2.1c1.3-0.1,2.2-1.3,2-2.6l0,0l1-17.9c1.2-6.1,3.7-12.5,8.4-17.2c9.2-8.9,12.2-13.6,15.5-23
	c0.5-1.2,0-2.5-1.2-3c-1.2-0.5-2.5,0-3,1.2C73.7,57,73.7,57.1,73.7,57.2L73.7,57.2z"/>
<path class="st0" d="M81.5,115.4c0,0-22.6,0.1-30.9,0h-0.1c-4.3,0.2-8.6-1.3-11.8-4.2c-3.4-3.2-5.8-8.4-6-16.1
	c-0.3-7.2,2.8-11.9,6-14.6c-4.6,11.6-1.7,20.5,2.1,26.2c0.7,1.1,2.1,1.4,3.2,0.6s1.4-2.1,0.6-3.2l0,0c-3.8-5.7-6.2-15,0.9-27.4
	c0.4-0.8,0.4-1.7-0.1-2.4c-0.5-0.7-1.3-1.1-2.2-1c-4.8,0.6-15.9,7.1-15.3,21.9c0.4,9.3,3.4,15.4,7.5,19.3c4.1,3.7,9.5,5.7,15,5.5
	c8.3,0.1,30.9,0,30.9,0c1.3,0,2.3-1,2.3-2.3C83.8,116.4,82.8,115.4,81.5,115.4C81.5,115.4,81.5,115.4,81.5,115.4L81.5,115.4z"/>
<path class="st0" d="M12.8,77.2c-1.4,2.6-1.9,4.9-2.6,8.9c-0.2,1.3,0.7,2.4,2,2.6c1.2,0.2,2.3-0.7,2.6-1.9c0.3-2.6,1-5.1,2.1-7.5
	c0.6-1.1,0.1-2.5-1-3.1S13.4,76.1,12.8,77.2L12.8,77.2L12.8,77.2z"/>
<path class="st1" d="M154.5,55.8c0,0-8.8,0.9-16.2-1.1c-5.6-1.5-10.3-4.8-11.2-10.6c-1.2-8.1,0.7-12.8,6.1-13.9
	c2.5-0.5,5.1-0.8,7.6-1c1.9-2.2,7.4-7.4,18.1-7.2c11.7,0.2,14.9,10.6,16.8,16.6c1.7,5.8,0.9,9.2-0.8,11.2s-4.7,2.9-7.8,2.8
	s-5-0.6-6.4-1.9c-1.1-1.1-1.8-2.4-2.1-3.9c-0.6-3.2-0.8-6.5-0.6-9.8c0-1.3,1-2.3,2.3-2.3c1.3,0,2.3,1,2.3,2.3
	c-0.1,2.6,0,5.2,0.3,7.8c0,0.9,0.3,1.8,0.9,2.5c0.3,0.2,0.6,0.4,1,0.4c0.8,0.2,1.7,0.2,2.5,0.2c1.5,0.1,3.1,0,4-1.1s1-3.4-0.1-7
	c-1.4-4.6-3.3-13.2-12.4-13.3c-10.7-0.1-14.9,6.2-14.9,6.2c-0.4,0.6-1.1,1-1.9,1.1c-2.7,0.1-5.4,0.4-8,0.9c-1.4,0.3-2.5,1.5-2.6,2.9
	c-0.2,1.9-0.2,3.9,0.1,5.8c0.6,3.9,4.1,5.7,7.8,6.8c6.6,1.8,14.5,1,14.5,1c1.3-0.1,2.4,0.8,2.5,2.1
	C156.7,54.5,155.8,55.7,154.5,55.8L154.5,55.8z"/>
<path class="st1" d="M151.7,61.8c0.3,5.2,1.6,10.3,3.9,15c2.2,4.6,2.5,10.9,1.8,16.7c-0.6,5.4-1.8,10.7-3.5,15.9
	c-0.5,1.2-1.8,1.8-3,1.3c-1.1-0.4-1.7-1.7-1.4-2.8c1.6-4.9,2.7-9.9,3.3-14.9c0.5-5,0.5-10.3-1.4-14.2c-2.5-5.3-4-11-4.3-16.9
	c0-1.3,1-2.3,2.2-2.4C150.6,59.5,151.7,60.5,151.7,61.8L151.7,61.8z"/>
<path class="st1" d="M169.6,69.6c-0.2,13.7-0.3,29.4-5.2,42c-1.3,3.3-2.5,5.2-4.1,6.4c-2.2,1.7-5.4,2-11.5,1.9
	c-1.3-0.1-2.2-1.2-2.1-2.5c0.1-1.2,1-2.1,2.2-2.1c2,0.1,4,0.1,6-0.1c0.9,0,1.8-0.3,2.6-0.8c1.1-0.8,1.7-2.2,2.6-4.4
	c4.7-12.2,4.7-27.2,4.9-40.4c0.1-1.3,1.2-2.2,2.5-2.1C168.6,67.5,169.6,68.5,169.6,69.6L169.6,69.6z"/>
<path class="st1" d="M185.1,89.5c-5.7,3.1-9,10.7-8.4,19c0.1,1.3-0.9,2.4-2.1,2.5c-1.3,0.1-2.4-0.9-2.5-2.2
	c-0.7-10.2,3.8-19.5,10.8-23.4c1-0.8,2.5-0.5,3.2,0.5c0.8,1,0.5,2.5-0.5,3.2C185.5,89.3,185.3,89.4,185.1,89.5L185.1,89.5z"/>
<path class="st1" d="M223.8,72.6c5,5.2,7.7,12,7.8,19.2c0,1.3-1,2.3-2.3,2.4s-2.3-1-2.4-2.3c0-5.9-2.3-11.6-6.3-15.9
	c-0.9-0.9-1-2.3-0.1-3.3C221.4,71.8,222.9,71.7,223.8,72.6L223.8,72.6L223.8,72.6z"/>
<path class="st1" d="M176.3,57.2c3.1,8.8,5.9,13.1,14.4,21.3c5.5,5.3,8.3,12.6,9.7,19.6c1.2,6.4,1.6,12.9,1.1,19.3
	c-0.1,1.3-1.3,2.2-2.6,2.1s-2.2-1.3-2.1-2.6l-1-17.9c-1.2-6.1-3.6-12.5-8.4-17.2c-9.2-8.9-12.2-13.6-15.5-23c-0.5-1.2,0-2.5,1.2-3
	c1.2-0.5,2.5,0,3,1.2C176.3,57,176.3,57.1,176.3,57.2L176.3,57.2z"/>
<path class="st1" d="M168.5,115.4c0,0,22.6,0.1,30.9,0h0.1c4.3,0.2,8.6-1.3,11.8-4.2c3.4-3.2,5.8-8.4,6-16.1
	c0.3-7.2-2.8-11.9-6-14.6c4.6,11.6,1.7,20.5-2.1,26.2c-0.7,1.1-2.1,1.4-3.2,0.6s-1.4-2.1-0.6-3.2c3.8-5.7,6.2-15-0.9-27.4
	c-0.4-0.8-0.4-1.7,0.1-2.4c0.5-0.7,1.3-1.1,2.2-1c4.8,0.6,15.9,7.1,15.3,21.9c-0.4,9.3-3.4,15.4-7.5,19.3c-4.1,3.7-9.5,5.7-15,5.5
	c-8.3,0.1-30.9,0-30.9,0c-1.3,0-2.3-1-2.3-2.3C166.2,116.4,167.2,115.4,168.5,115.4C168.5,115.4,168.5,115.4,168.5,115.4
	L168.5,115.4z"/>
<path class="st1" d="M237.2,77.2c1.4,2.6,1.9,4.9,2.6,8.9c0.2,1.3-0.7,2.4-2,2.6c-1.2,0.2-2.3-0.7-2.6-1.9c-0.3-2.6-1-5.1-2.1-7.5
	c-0.6-1.1-0.1-2.5,1-3.1S236.6,76.1,237.2,77.2L237.2,77.2z"/>
</svg>
