<?xml version="1.0" encoding="utf-8"?>
<!-- Generator: Adobe Illustrator 26.0.3, SVG Export Plug-In . SVG Version: 6.00 Build 0)  -->
<svg version="1.1" id="Capa_1" xmlns="http://www.w3.org/2000/svg" xmlns:xlink="http://www.w3.org/1999/xlink" x="0px" y="0px"
	 viewBox="0 0 250 250" style="enable-background:new 0 0 250 250;" xml:space="preserve">
<style type="text/css">
	.st0{fill:#284470;}
</style>
<path class="st0" d="M167.3,27H82.7c-5.4-0.1-9.8,4.2-9.9,9.6c0,0,0,0,0,0.1v176.7c0.1,5.4,4.5,9.8,9.9,9.7c0,0,0,0,0,0h84.7
	c5.4,0.1,9.9-4.2,9.9-9.7c0,0,0,0,0,0V36.6C177.2,31.2,172.8,26.9,167.3,27C167.4,27,167.4,27,167.3,27z M170.7,209.4H79.3V36.7
	h91.5V209.4z"/>
</svg>
