<?xml version="1.0" encoding="utf-8"?>
<!-- Generator: Adobe Illustrator 26.0.3, SVG Export Plug-In . SVG Version: 6.00 Build 0)  -->
<svg version="1.1" id="Capa_1" xmlns="http://www.w3.org/2000/svg" xmlns:xlink="http://www.w3.org/1999/xlink" x="0px" y="0px"
	 viewBox="0 0 250 250" style="enable-background:new 0 0 250 250;" xml:space="preserve">
<style type="text/css">
	.st0{fill:#F17533;}
	.st1{fill:#95B6E5;}
	.st2{fill:#D62F8A;}
</style>
<g>
	<path class="st0" d="M212.3,115.4l-29,29.4l-38-38.6c-3.2-3.2-8.4-3.3-11.6-0.1c0,0-0.1,0.1-0.1,0.1l-8.8,9l-8.7,8.8
		c-7.9,8.1-20.8,8.2-28.8,0.4c-0.1-0.1-0.2-0.2-0.4-0.4l23.3-23.6l14.7-14.8v0h29.2L168.4,71L212.3,115.4z"/>
	<path class="st0" d="M124.8,174.4c-0.4,0.5-0.7,0.9-1.2,1.4l-5.3,5.4c-0.1,0.1-0.3,0.2-0.4,0.3c-0.1,0.1-0.3,0.2-0.4,0.4l-7.3,7.4
		l-1.5,1.5c-0.1,0.1-0.2,0.3-0.3,0.5c-0.1,0-0.1,0.1-0.2,0.1c-4.1,3.6-10.3,3.3-14.1-0.5c-4-4.1-4-10.7,0-14.8l1.5-1.5l13.4-13.5
		l0.4-0.4c0.3-0.2,0.7-0.5,1-0.8c1.7-1.3,3.8-1.9,6-1.9c2.7,0,5.4,1.1,7.3,3.1c0.2,0.2,0.4,0.4,0.6,0.6c0.2,0.2,0.3,0.5,0.5,0.7
		C127.3,165.9,127.3,170.7,124.8,174.4z"/>
	<path class="st0" d="M132.1,196.7l-7.3,7.5l-1.5,1.5c-3.9,4-10.3,4.1-14.4,0.2c-0.1-0.1-0.2-0.2-0.2-0.2
		c-3.9-3.9-4.1-10.1-0.5-14.2c0-0.1,0.1-0.1,0.2-0.1l1.8-1.9l7.7-7.8c0.1-0.1,0.2-0.2,0.4-0.3c4.1-3.4,10.1-3.1,13.8,0.7
		C136.2,186,136.2,192.6,132.1,196.7z"/>
	<path class="st0" d="M109.6,160.4c0,0.1-0.1,0.1-0.2,0.2l-0.4,0.4l-13.4,13.6l-1.5,1.5c-3.9,4-10.3,4.2-14.4,0.3
		c-0.1-0.1-0.2-0.2-0.3-0.3c-4-4.1-4-10.7,0-14.8l1.5-1.4l0,0l7.3-7.5l6-6.1c1.9-2,4.6-3.1,7.3-3.1c2.6,0,5.1,1,6.9,2.8
		c0.1,0.1,0.3,0.2,0.4,0.3c0.3,0.2,0.5,0.5,0.7,0.8C112.9,150.9,112.8,156.5,109.6,160.4z"/>
	<path class="st0" d="M88.4,152.2l-7.3,7.5l0,0l-1.5,1.4c-3.9,4-10.4,4.1-14.4,0.2c-0.1-0.1-0.1-0.1-0.2-0.2
		c-4.1-4.1-4.1-10.7,0-14.8l1.5-1.5l7.3-7.4c1.9-2,4.6-3.1,7.3-3.1c0.8,0,1.6,0.1,2.4,0.3c0.8,0.2,1.6,0.5,2.3,0.8
		c1,0.5,1.8,1.2,2.6,1.9C92.4,141.5,92.4,148.1,88.4,152.2z"/>
	<path class="st1" d="M184.8,161.1c-3.9,4-10.4,4.1-14.4,0.2c-0.1-0.1-0.1-0.1-0.2-0.2c3.5,3.9,4,9.9,0.7,14.1
		c-3.5,4.4-10,5.1-14.4,1.6c-0.3-0.3-0.6-0.5-0.9-0.8c4,4.1,4,10.7,0,14.8c-4,4-10.5,4.1-14.5,0.1c0,0-0.1-0.1-0.1-0.1
		c4,4.1,4,10.7,0,14.8c-3.9,4-10.3,4.1-14.4,0.2c-0.1-0.1-0.2-0.2-0.2-0.2l-1.5-1.5l0,0l7.3-7.4c4-4.1,4-10.7,0-14.8
		c-3.7-3.8-9.7-4.1-13.8-0.7l5.3-5.4c0.4-0.4,0.8-0.9,1.2-1.4c2.5-3.6,2.5-8.5-0.1-12.1c-0.2-0.3-0.3-0.5-0.5-0.7
		c-0.2-0.2-0.4-0.4-0.6-0.6c-1.9-2-4.5-3.1-7.3-3.1c-2.1,0-4.2,0.7-6,1.9l-0.1-0.1l-0.7,0.7c3.2-3.9,3.3-9.5,0.2-13.5
		c-0.2-0.3-0.5-0.5-0.7-0.8c-0.1-0.1-0.2-0.2-0.4-0.3c-1.9-1.8-4.4-2.8-6.9-2.8c-2.8,0-5.4,1.1-7.3,3.1l-6,6.1c4-4.1,4-10.7,0-14.8
		c-0.8-0.8-1.7-1.4-2.6-1.9c-0.7-0.4-1.5-0.7-2.3-0.8c-0.8-0.2-1.6-0.3-2.4-0.3c-2.8,0-5.4,1.1-7.3,3.1l-7.3,7.4h0l-29-29.4
		l43.8-44.5l14.3,14.5h29.3l-14.6,14.9h0L87,124c7.9,8.1,20.9,8.2,28.9,0.3c0.1-0.1,0.2-0.2,0.3-0.3l8.7-8.8l8.8-8.9
		c3.2-3.2,8.3-3.3,11.5-0.1c0,0,0.1,0.1,0.1,0.1l8.8,8.9l30.7,31.1C188.9,150.4,188.9,157,184.8,161.1z"/>
	<path class="st2" d="M187.2,44.2l54.3,53.4c3.4,3.4,3.5,8.9,0.1,12.3l-11.2,11.4c-3.4,3.4-8.9,3.5-12.3,0.1L163.7,68
		c-3.4-3.4-3.5-8.9-0.1-12.3l11.2-11.4C178.2,40.9,183.7,40.8,187.2,44.2z"/>
	<path class="st2" d="M8.5,98.2L61.9,44c3.4-3.4,8.9-3.5,12.3-0.1l11.4,11.2c3.4,3.4,3.5,8.9,0.1,12.3l-53.4,54.3
		c-3.4,3.4-8.9,3.5-12.3,0.1L8.6,110.5C5.2,107.2,5.1,101.7,8.5,98.2z"/>
</g>
</svg>
