<?xml version="1.0" encoding="utf-8"?>
<!-- Generator: Adobe Illustrator 26.0.3, SVG Export Plug-In . SVG Version: 6.00 Build 0)  -->
<svg version="1.1" id="Capa_1" xmlns="http://www.w3.org/2000/svg" xmlns:xlink="http://www.w3.org/1999/xlink" x="0px" y="0px"
	 viewBox="0 0 250 250" style="enable-background:new 0 0 250 250;" xml:space="preserve">
<style type="text/css">
	.st0{fill:#8AB7E9;}
	.st1{fill:#011E41;}
</style>
<path class="st0" d="M117.9,218.7c-18.7-9-36.3-20-52.6-32.8c-15.6-12.3-28.1-25.3-37.3-38.7C15.9,129.5,9.7,111.1,9.7,92.7
	c0-35.7,30.5-64.8,68.2-64.8c17.4-0.1,34.3,6.3,47.1,18c12.9-11.6,29.7-18.1,47.1-18c37.5,0,68.2,29.1,68.2,64.8
	c0,17.9-6.2,35.9-18.4,53.5c-9,13.1-21.6,26.1-37.1,38.7c-16.3,13-33.8,24.3-52.3,33.7l-7.2,3.5L117.9,218.7z"/>
<path class="st1" d="M121.5,211.4c-18.1-8.7-35.2-19.3-50.9-31.8c-14.9-11.8-26.9-24.2-35.5-36.7c-11.2-16.3-16.8-33-16.8-49.7
	c0-31,26.8-56.2,59.6-56.2c18.8,0,36.1,8.3,47.1,21.8c11.1-13.6,28.4-21.8,47.1-21.8c32.9,0,59.6,25.2,59.6,56.2
	c0,16.1-5.7,32.4-16.8,48.6c-8.6,12.4-20.6,24.9-35.4,36.7c-15.7,12.7-32.7,23.6-50.6,32.8l-3.6,1.7L121.5,211.4z"/>
<path class="st0" d="M172.3,46c-21.3,0-39.6,12.2-47.1,29.5C117.4,58.2,99.2,46,78,46c-28.1,0-51,21.4-51,47.6
	c0,65.6,98.1,110.4,98.1,110.4s98.1-47.6,98.1-110.4C223.1,67.2,200.3,46,172.3,46z"/>
</svg>
