<?xml version="1.0" encoding="utf-8"?>
<!-- Generator: Adobe Illustrator 26.0.3, SVG Export Plug-In . SVG Version: 6.00 Build 0)  -->
<svg version="1.1" id="Capa_1" xmlns="http://www.w3.org/2000/svg" xmlns:xlink="http://www.w3.org/1999/xlink" x="0px" y="0px"
	 viewBox="0 0 250 250" style="enable-background:new 0 0 250 250;" xml:space="preserve">
<style type="text/css">
	.st0{fill:#D62F8A;}
	.st1{fill:#96BF61;}
	.st2{fill:#7D2796;}
	.st3{fill:#F17533;}
</style>
<g>
	<path class="st0" d="M86.7,60.5c-35.7,0-64.4,28.9-64.4,64.4c0,35.7,28.9,64.4,64.4,64.4c35.7,0,64.4-28.9,64.4-64.4
		C151.3,89.4,122.4,60.5,86.7,60.5z M86.7,181.2c-31,0-56.3-25.2-56.3-56.3s25.2-56.3,56.3-56.3s56.3,25.2,56.3,56.3
		S117.9,181.2,86.7,181.2z"/>
	<path class="st1" d="M163.3,60.5c-35.7,0-64.4,28.9-64.4,64.4c0,35.7,28.9,64.4,64.4,64.4c35.7,0,64.4-28.9,64.4-64.4
		S198.8,60.5,163.3,60.5z M163.3,181.2c-31,0-56.3-25.2-56.3-56.3s25.2-56.3,56.3-56.3s56.3,25.2,56.3,56.3S194.4,181.2,163.3,181.2
		z"/>
	<g>
		<path class="st2" d="M60.3,85.9c0,35.7,28.9,64.4,64.4,64.4c35.7,0,64.4-28.9,64.4-64.4c0-35.7-28.9-64.4-64.4-64.4
			C89.2,21.3,60.3,50.2,60.3,85.9z M181,85.9c0,31-25.2,56.3-56.3,56.3s-56.3-25.2-56.3-56.3s25.2-56.3,56.3-56.3
			C155.7,29.6,181,54.9,181,85.9z"/>
		<path class="st3" d="M60.3,164.1c0,35.7,28.9,64.4,64.4,64.4c35.7,0,64.4-28.9,64.4-64.4c0-35.7-28.9-64.4-64.4-64.4
			C89,99.5,60.3,128.4,60.3,164.1z M181,164.1c0,31-25.2,56.3-56.3,56.3s-56.3-25.2-56.3-56.3s25.2-56.3,56.3-56.3
			C155.7,107.8,181,133.1,181,164.1z"/>
	</g>
</g>
</svg>
