<?xml version="1.0" encoding="utf-8"?>
<!-- Generator: Adobe Illustrator 26.0.3, SVG Export Plug-In . SVG Version: 6.00 Build 0)  -->
<svg version="1.1" id="Capa_1" xmlns="http://www.w3.org/2000/svg" xmlns:xlink="http://www.w3.org/1999/xlink" x="0px" y="0px"
	 viewBox="0 0 250 250" style="enable-background:new 0 0 250 250;" xml:space="preserve">
<style type="text/css">
	.st0{fill:#A3C771;}
	.st1{fill:#95B6E5;}
	.st2{fill:#7D2796;}
	.st3{fill:#F17533;}
	.st4{fill:#0A1E3F;}
</style>
<g>
	<path class="st0" d="M77.3,172.3c-26.1-26.1-26.2-68.4-0.1-94.5c11.7-11.7,27.4-18.7,44-19.5V21.4C64,23.3,19.2,71.2,21.1,128.4
		c0.9,26.3,11.7,51.2,30.3,69.8c9.5,9.6,20.8,17.2,33.3,22.3l13.1-34.5C90.2,182.8,83.2,178.2,77.3,172.3z"/>
	<path class="st1" d="M171.9,172.3c-12.5,12.5-29.5,19.6-47.2,19.5c-7-0.1-14-1.2-20.7-3.3L90.8,223c10.9,3.7,22.3,5.7,33.8,5.7
		c56,0,101.8-44.5,103.6-100.4h-37C190.5,144.9,183.6,160.6,171.9,172.3z"/>
	<path class="st2" d="M186.4,41.6C169.4,29.1,149,22,128,21.4v36.8c12.8,0.5,25.2,4.9,35.5,12.4L186.4,41.6z"/>
	<path class="st3" d="M191.6,45.8l-22.9,29c1.1,0.9,2.2,1.8,3.2,2.9c11.7,11.7,18.6,27.4,19.3,44h36.9
		c-0.8-26.3-11.6-51.4-30.3-69.9C195.8,49.5,193.8,47.7,191.6,45.8z"/>
	<path class="st4" d="M193.2,38.6L193.2,38.6c0,0-0.1,0-0.2,0C145.3,1,76.2,9.2,38.6,56.9S9.2,173.8,57,211.4s116.9,29.4,154.5-18.4
		c34.5-43.8,30.8-106.6-8.8-145.9C199.7,44.1,196.5,41.2,193.2,38.6z M128,21.4c21.1,0.6,41.5,7.7,58.4,20.2l-22.9,29
		c-10.4-7.5-22.7-11.9-35.5-12.4L128,21.4z M167.2,82.5c23.4,23.6,23.2,61.6-0.3,85s-61.6,23.2-85-0.3s-23.2-61.6,0.3-85
		c11.3-11.2,26.5-17.5,42.4-17.4C140.6,64.7,155.9,71.1,167.2,82.5z M51.3,198.3C10.8,157.8,10.8,92.2,51.3,51.7
		c18.6-18.6,43.7-29.5,70-30.3v36.9C84.4,60,56,91.4,57.8,128.2c1.2,25.3,16.7,47.8,39.9,57.9l-13.1,34.5
		C72.2,215.5,60.8,207.9,51.3,198.3z M197.9,198.3c-19.4,19.5-45.8,30.4-73.3,30.4c-11.5,0-23-1.9-33.9-5.7l13.2-34.4
		c6.7,2.1,13.7,3.2,20.7,3.3c35.6,0,65-28,66.6-63.5h36.9C227.4,154.6,216.6,179.7,197.9,198.3z M191.2,121.6
		c-0.8-16.6-7.7-32.2-19.4-44c-1-1-2.1-2-3.2-2.9l22.9-29c2.2,1.9,4.3,3.8,6.3,5.9c18.7,18.6,29.6,43.6,30.3,70H191.2z"/>
</g>
</svg>
