<?xml version="1.0" encoding="utf-8"?>
<!-- Generator: Adobe Illustrator 26.0.3, SVG Export Plug-In . SVG Version: 6.00 Build 0)  -->
<svg version="1.1" id="Capa_1" xmlns="http://www.w3.org/2000/svg" xmlns:xlink="http://www.w3.org/1999/xlink" x="0px" y="0px"
	 viewBox="0 0 250 250" style="enable-background:new 0 0 250 250;" xml:space="preserve">
<style type="text/css">
	.st0{fill:#7D2796;}
	.st1{fill:#D62F8A;}
	.st2{fill:#F17533;}
	.st3{fill:#8BB8E8;}
	.st4{fill:#0A1E3F;}
	.st5{fill:#FFFFFF;}
	.st6{fill-rule:evenodd;clip-rule:evenodd;fill:#0A1E3F;}
</style>
<g id="Objects">
	<path class="st0" d="M51.4,19.5h147.2c3.4,0,6.2,2.8,6.2,6.2v73.4c0,3.4-2.8,6.2-6.2,6.2H51.4c-3.4,0-6.2-2.8-6.2-6.2V25.7
		C45.2,22.3,48,19.5,51.4,19.5z"/>
	<path class="st1" d="M51.4,34.1h147.2c3.4,0,6.2,2.8,6.2,6.2v73.4c0,3.4-2.8,6.2-6.2,6.2H51.4c-3.4,0-6.2-2.8-6.2-6.2V40.3
		C45.2,36.8,48,34.1,51.4,34.1z"/>
	<path class="st2" d="M51.4,48.8h147.2c3.4,0,6.2,2.8,6.2,6.2v73.4c0,3.4-2.8,6.2-6.2,6.2H51.4c-3.4,0-6.2-2.8-6.2-6.2V55
		C45.2,51.6,48,48.8,51.4,48.8z"/>
	<path class="st3" d="M125,81.7c-11.3,0-21.3-7.4-24.6-18.2H55.6c-6.6,0-12,5.4-12,12v143.1c0,6.6,5.4,12,12,12h138.7
		c6.6,0,12-5.4,12-12V75.4c0-6.6-5.4-12-12-12h-44.8C146.3,74.2,136.3,81.7,125,81.7z"/>
	<path class="st4" d="M125,98.8c-30.9,0-56,25.1-56,56s25.1,56,56,56c30.9,0,56-25.1,56-56C181,123.9,155.9,98.8,125,98.8
		C125,98.8,125,98.8,125,98.8 M125,206.3c-28.5,0-51.6-23.1-51.6-51.6c0-28.5,23.1-51.6,51.6-51.6c28.5,0,51.6,23.1,51.6,51.6
		c0,0,0,0,0,0C176.6,183.3,153.5,206.4,125,206.3"/>
	<path class="st3" d="M125,103.2c-28.5,0-51.6,23.1-51.6,51.6s23.1,51.6,51.6,51.6c28.5,0,51.6-23.1,51.6-51.6
		C176.6,126.3,153.5,103.2,125,103.2C125,103.2,125,103.2,125,103.2 M125,203.6c-27,0-48.9-21.9-48.9-48.9c0-27,21.9-48.9,48.9-48.9
		c27,0,48.9,21.9,48.9,48.9c0,0,0,0.1,0,0.1c0,27-21.8,48.8-48.8,48.9"/>
	<path class="st4" d="M125,105.9c-27,0-48.9,21.9-48.9,48.9S98,203.7,125,203.7s48.9-21.9,48.9-48.9S152,105.9,125,105.9"/>
	<path class="st5" d="M117.2,169.8h10.2c4.1,0,6.9-1.4,6.9-5.5c0-4.1-3-5.9-6.9-5.9h-10.2V169.8z M117.2,150.2h9.9
		c2.6,0.2,5-1.7,5.2-4.3c0-0.1,0-0.2,0-0.4c0-3.6-2.5-4.8-5.2-4.8h-9.9V150.2z M104.4,130.9h23c8.5-0.1,17.7,2.1,17.7,12.3
		c-0.1,4.3-2.6,8.1-6.5,9.9c5.1,1.5,8.6,6.3,8.5,11.6c0,11.7-8.6,15.3-19.1,15.3h-23.6L104.4,130.9z"/>
	<path class="st6" d="M175.2,200.6h0.7c0.4,0,0.9,0,0.9,0.6c0,0.6-0.4,0.6-0.9,0.6h-0.8L175.2,200.6z M174.3,204.3h0.9v-2h0.5l1.1,2
		h1l-1.2-2c0.6,0,1.1-0.4,1.2-1c0,0,0-0.1,0-0.1c0-1-0.6-1.3-1.7-1.3h-1.7L174.3,204.3z M172.9,202.1c0.1-1.7,1.5-2.9,3.1-2.9
		s2.9,1.5,2.9,3.1c-0.1,1.6-1.4,2.9-3,2.9c-1.6,0-3-1.3-3-2.9C172.9,202.2,172.9,202.2,172.9,202.1z M171.8,202.1
		c-0.1,2.2,1.7,4.1,3.9,4.2c2.2,0.1,4.1-1.7,4.2-3.9c0.1-2.2-1.7-4.1-3.9-4.2c-0.1,0-0.1,0-0.2,0c-2.2-0.1-4,1.6-4.1,3.8
		C171.8,202,171.8,202.1,171.8,202.1z"/>
</g>
</svg>
