<?xml version="1.0" encoding="utf-8"?>
<!-- Generator: Adobe Illustrator 26.0.3, SVG Export Plug-In . SVG Version: 6.00 Build 0)  -->
<svg version="1.1" id="Capa_1" xmlns="http://www.w3.org/2000/svg" xmlns:xlink="http://www.w3.org/1999/xlink" x="0px" y="0px"
	 viewBox="0 0 250 250" style="enable-background:new 0 0 250 250;" xml:space="preserve">
<style type="text/css">
	.st0{fill:#95B6E5;}
	.st1{fill:#0A1E3F;}
</style>
<path class="st0" d="M207.3,202.4v-90.5c0-9-7.2-16.3-16.2-16.3H58.9c-9,0-16.2,7.3-16.2,16.3v90.5c0,9,7.2,16.3,16.2,16.3h132.2
	C200.1,218.7,207.3,211.4,207.3,202.4z M52.5,202.4v-90.5c0-3.5,2.8-6.4,6.4-6.5h132.2c3.5,0,6.4,2.9,6.4,6.5c0,0,0,0,0,0v90.5
	c0,3.5-2.8,6.5-6.4,6.5H58.9C55.4,208.8,52.5,205.9,52.5,202.4L52.5,202.4z"/>
<path class="st1" d="M115,134.2c-0.1-11.4-9.4-20.6-20.8-20.6s-20.6,9.4-20.6,20.8c0.1,11.4,9.4,20.6,20.8,20.6c0,0,0,0,0,0
	C105.8,154.8,115,145.6,115,134.2z M94.4,142.9c-4.9,0.1-9-3.8-9.1-8.7c-0.1-4.9,3.8-9,8.7-9.1c4.9-0.1,9,3.8,9.1,8.7
	c0,0.1,0,0.2,0,0.3C103,138.9,99.2,142.8,94.4,142.9L94.4,142.9z"/>
<path class="st1" d="M176.4,134.2c-0.1-11.4-9.4-20.6-20.8-20.6c-11.4,0.1-20.6,9.4-20.6,20.8c0.1,11.4,9.4,20.6,20.8,20.6
	c0,0,0,0,0,0C167.2,154.8,176.4,145.6,176.4,134.2z M155.8,142.9c-4.9,0.1-9-3.7-9.1-8.6c-0.1-4.9,3.7-9,8.6-9.1
	c4.9-0.1,9,3.7,9.1,8.6c0,0.1,0,0.2,0,0.4C164.4,138.9,160.6,142.8,155.8,142.9L155.8,142.9z"/>
<path class="st0" d="M142.3,49.4c0-9.6-7.8-17.3-17.3-17.3c-9.6,0-17.3,7.8-17.3,17.3c0,9.6,7.8,17.3,17.3,17.3c0,0,0.1,0,0.1,0
	C134.6,66.7,142.3,58.9,142.3,49.4z M125.1,56.8c-4.1,0.1-7.6-3.1-7.7-7.3c-0.1-4.1,3.1-7.6,7.3-7.7c4.1-0.1,7.6,3.1,7.7,7.3
	c0,0.1,0,0.2,0,0.3C132.3,53.4,129.1,56.7,125.1,56.8z"/>
<path class="st1" d="M148.1,174.6c-2.3-1.4-5.3-0.6-6.7,1.8c0,0,0,0,0,0c-3.4,5.9-9.6,9.6-16.5,9.5l0,0c-6.7,0-13-3.6-16.2-9.5
	c-1.3-2.4-4.2-3.3-6.6-2.1c-2.4,1.3-3.3,4.2-2.1,6.6c0,0.1,0.1,0.2,0.2,0.3c5,9,14.4,14.6,24.7,14.6l0,0c10.3,0,19.8-5.5,24.9-14.5
	C151.2,179.1,150.4,176.1,148.1,174.6z"/>
<rect x="118.8" y="63.8" class="st0" width="12.4" height="34.5"/>
<path class="st0" d="M204.5,125.5c-2.4,0-4.8,0.2-7.1,0.7v11.3c2.3-0.8,4.7-1.2,7.1-1.2c11.6,0,21.1,9.9,21.1,22.1
	c0.2,11.7-9,21.3-20.7,21.5c-2.6,0-5.1-0.4-7.5-1.2v11.3c2.3,0.5,4.7,0.7,7.1,0.7c18.5,0,33.5-14.6,33.5-32.4
	C237.8,140,222.8,125.3,204.5,125.5z"/>
<path class="st0" d="M45.5,190.8c2.4,0,4.8-0.2,7.1-0.7v-11.3c-2.3,0.8-4.7,1.2-7.1,1.2c-11.6,0-21.1-9.9-21.1-22.1
	c-0.2-11.7,9-21.3,20.7-21.5c2.6,0,5.1,0.4,7.5,1.2v-11.3c-2.3-0.5-4.7-0.7-7.1-0.7C27,125.5,12,140,12,157.9
	C12.2,176.2,27.2,190.9,45.5,190.8z"/>
</svg>
