<?xml version="1.0" encoding="utf-8"?>
<!-- Generator: Adobe Illustrator 26.0.3, SVG Export Plug-In . SVG Version: 6.00 Build 0)  -->
<svg version="1.1" id="Capa_1" xmlns="http://www.w3.org/2000/svg" xmlns:xlink="http://www.w3.org/1999/xlink" x="0px" y="0px"
	 viewBox="0 0 250 250" style="enable-background:new 0 0 250 250;" xml:space="preserve">
<style type="text/css">
	.st0{fill:#0A1E3F;}
	.st1{fill:#F17533;}
	.st2{fill:#7D2796;}
	.st3{fill:#D62F8A;}
</style>
<g id="Objects">
	<path class="st0" d="M11.4,119.9c-1-17.8,10.2-28,27.6-28c15.8,0,26.6,6.6,26.6,20.3c0,16.6-16.3,21.8-28.6,29.2v0.1h29.5v15.8
		H10.1c-0.4-5.7,1.3-11.4,4.7-16c5.4-7.5,14.8-12.5,23.1-17.4c3.4-2,8.8-4.6,8.8-9.4c0-5.8-3.5-7.9-7.9-7.9c-7.5,0-10,5.4-9.8,13.3
		L11.4,119.9z"/>
	<path class="st1" d="M119.9,108.5H89.5l-1.9,8.6l0.2,0.2c4-2.9,9.4-3.8,14.2-3.8c11.6,0,21.3,6.7,21.3,21.9
		c0,13.1-10.4,22.8-29.2,22.8c-24.1,0-28.5-14.7-27.9-21.1h18.5c0.4,1.7,1.3,3.2,2.6,4.4c2.2,1.5,4.8,2.3,7.4,2.1
		c5.4,0,9.9-3.5,9.9-8.7c0-5.7-3.7-9-9.4-9c-4.4,0-7.5,1.2-9.5,4.2H68.3l6.7-37.3h44.8L119.9,108.5z"/>
	<path class="st2" d="M153.8,91.9c17.9,0,26.4,8.4,26.4,17.8c0,6.7-4,12.2-10.2,13.6v0.2c7.4,0.6,13,6.8,12.8,14.2
		c0,15.3-15.8,20.5-29.1,20.5c-14.1,0-29-4.7-29-20.5c0-11.1,8.3-13.4,13.1-14.2v-0.2c-6.9-1.9-10.2-6.6-10.2-13.6
		C127.7,95.4,143,91.9,153.8,91.9z M153.8,144.7c4.6,0.1,10.4-1.6,10.4-7.2c0-6.2-4.7-8.4-10.3-8.4s-10.6,1.9-10.6,8.4
		C143.4,143.1,149.1,144.8,153.8,144.7L153.8,144.7z M153.7,118.3c4.6,0,9.8-1.5,9.8-6.8c0-6.1-4.9-7.3-9.7-7.3
		c-4.9,0-9.4,1.5-9.4,7.3C144.4,116.6,149.2,118.3,153.7,118.3L153.7,118.3z"/>
	<path class="st3" d="M185.6,114.3c-0.2-6.6,2.8-12.9,8.1-16.9c5-3.6,11.7-5.4,19-5.4c18.9,0,25.2,11.2,25.2,16.6
		c0,13.6-8.6,13.6-8.6,13.9v0.2c0,0.7,10.7,0.7,10.7,15.2c0,7.9-6,20.3-27.4,20.3c-29.3,0-29.4-20.5-29-25.3h17.8
		c-0.1,3.4,0.8,6,2.5,7.7c1.8,2.1,4.5,2.9,7.8,2.9c5.3,0,8.7-2,8.7-7.3c0-5.7-4.4-6.7-8.7-6.7c-1.8,0-3.6,0.2-5.4,0.5v-12.7
		c1.5,0.1,2.9,0.4,5.4,0.4c3.9,0,8.9-0.8,8.9-5.8c0-4.1-4.7-5.7-8.5-5.7c-5.1,0-9.2,2.7-9,8.1H185.6z"/>
</g>
</svg>
