<?xml version="1.0" encoding="utf-8"?>
<!-- Generator: Adobe Illustrator 26.0.3, SVG Export Plug-In . SVG Version: 6.00 Build 0)  -->
<svg version="1.1" id="Capa_1" xmlns="http://www.w3.org/2000/svg" xmlns:xlink="http://www.w3.org/1999/xlink" x="0px" y="0px"
	 viewBox="0 0 250 250" style="enable-background:new 0 0 250 250;" xml:space="preserve">
<style type="text/css">
	.st0{fill-rule:evenodd;clip-rule:evenodd;fill:#F17533;}
</style>
<path class="st0" d="M226,125.3c0,34.9-28.2,63.1-63.1,63.2H87.1v25.3l-50.6-37.9L87.1,138v25.2h75.8c20.9,0,37.9-17,37.9-37.9
	c0-4.7-0.9-9.4-2.6-13.8L218.9,96C223.6,105,226,115.1,226,125.3L226,125.3z M162.9,87.4H87.1c-20.9,0-37.9,17-37.9,37.9
	c0,4.7,0.9,9.4,2.6,13.9l-20.7,15.5C15,123.7,27,85.5,57.9,69.4c9-4.7,19-7.2,29.2-7.2h75.8V36.9l50.5,37.9l-50.5,37.9V87.4z"/>
</svg>
