<?xml version="1.0" encoding="utf-8"?>
<!-- Generator: Adobe Illustrator 26.0.3, SVG Export Plug-In . SVG Version: 6.00 Build 0)  -->
<svg version="1.1" id="Capa_1" xmlns="http://www.w3.org/2000/svg" xmlns:xlink="http://www.w3.org/1999/xlink" x="0px" y="0px"
	 viewBox="0 0 250 250" style="enable-background:new 0 0 250 250;" xml:space="preserve">
<style type="text/css">
	.st0{fill:#D62F8A;}
</style>
<path class="st0" d="M124.5,155.5l-54.2-44.7h108.3L124.5,155.5z M70.3,122v78.3h108.3V122l-54.2,44.7L70.3,122z"/>
<path class="st0" d="M20.6,108.7L20.6,108.7h38.9c3.1,0,5.5-2.5,5.6-5.5v-18c0-7,7.6-8.4,23.3-10c10.3-1.1,65.1-1.4,77.9,0
	c9,0.9,17.7,2.6,17.6,9.9c0,0,0,17.9,0,18l0,0c0,3.1,2.5,5.5,5.5,5.5c0,0,0,0,0,0l0,0c0,0,40.1-0.1,40.1,0c3.1,0,5.5-2.5,5.5-5.6
	v-18c-1-8.5-24.5-35.3-111.6-35.3C34.3,49.7,15,76.8,15.1,85.2c0,0-0.1,17.9-0.1,17.9l0,0C15,106.2,17.5,108.7,20.6,108.7z"/>
</svg>
