<?xml version="1.0" encoding="utf-8"?>
<!-- Generator: Adobe Illustrator 26.0.3, SVG Export Plug-In . SVG Version: 6.00 Build 0)  -->
<svg version="1.1" id="Capa_1" xmlns="http://www.w3.org/2000/svg" xmlns:xlink="http://www.w3.org/1999/xlink" x="0px" y="0px"
	 viewBox="0 0 250 250" style="enable-background:new 0 0 250 250;" xml:space="preserve">
<style type="text/css">
	.st0{fill:#95B6E5;}
	.st1{fill:#FFFFFF;}
	.st2{fill:#F17533;}
	.st3{fill:#A3C771;}
	.st4{fill:#0A1E3F;}
</style>
<path class="st0" d="M213.2,21H36.8c-8.7,0-15.7,7-15.8,15.7v138.7c0,8.7,7.1,15.7,15.8,15.7h0h64l-4.6,15.8H85.6
	c-6.1,0-11,4.9-11,11c0,0,0,0.1,0,0.1c0,6.1,4.9,11,11,11h78.8c6.1,0,11-5,11-11c0-6.1-4.9-11-11-11c0,0-0.1,0-0.1,0h-10.6
	l-4.6-15.8h64c8.7,0,15.7-7,15.8-15.7c0,0,0,0,0,0V36.7C228.9,28,221.9,21,213.2,21z"/>
<path class="st1" d="M203.8,39.9H46.2c-3.5,0-6.3,2.8-6.3,6.3c0,0,0,0,0,0V166c0,3.5,2.8,6.3,6.3,6.3h157.6c3.5,0,6.3-2.8,6.3-6.3
	V46.3C210.1,42.8,207.3,39.9,203.8,39.9C203.8,39.9,203.8,39.9,203.8,39.9z"/>
<path class="st2" d="M61.8,63.1h4.7c1.7,0,3.1-1.4,3.1-3.2c0,0,0,0,0,0c0-1.7-1.4-3.1-3.1-3.1c0,0,0,0,0,0h-4.7
	c-1.7,0-3.1,1.4-3.1,3.1C58.7,61.6,60.1,63.1,61.8,63.1z"/>
<path class="st2" d="M61.8,81.6h4.7c1.7,0,3.1-1.4,3.1-3.1c0-1.7-1.4-3.1-3.1-3.1c0,0,0,0,0,0h-4.7c-1.7,0-3.1,1.4-3.1,3.1
	S60.1,81.6,61.8,81.6C61.8,81.6,61.8,81.6,61.8,81.6z"/>
<path class="st2" d="M61.8,118.5h4.7c1.7,0,3.1-1.4,3.1-3.1c0-1.7-1.4-3.1-3.1-3.1c0,0,0,0,0,0h-4.7c-1.7,0-3.1,1.4-3.1,3.1
	S60.1,118.5,61.8,118.5C61.8,118.5,61.8,118.5,61.8,118.5z"/>
<path class="st2" d="M66.5,149h-4.7c-1.8,0-3.2,1.4-3.2,3.2c0,1.8,1.4,3.2,3.2,3.2c0,0,0,0,0,0h4.7c1.8,0,3.2-1.4,3.2-3.2
	C69.7,150.5,68.3,149,66.5,149z"/>
<path class="st3" d="M61.8,136.9h24c1.7,0,3.1-1.4,3.1-3.1c0-1.7-1.4-3.1-3.1-3.1c0,0,0,0,0,0h-24c-1.7,0-3.1,1.4-3.1,3.1
	C58.7,135.5,60.1,136.9,61.8,136.9C61.8,136.9,61.8,136.9,61.8,136.9z"/>
<path class="st2" d="M99.6,133.8c0,1.7,1.5,3.1,3.2,3.1h30.3c1.7,0,3.1-1.4,3.1-3.1c0-1.7-1.4-3.1-3.1-3.1c0,0,0,0,0,0h-30.3
	C101,130.6,99.6,132,99.6,133.8C99.6,133.8,99.6,133.8,99.6,133.8L99.6,133.8z"/>
<path class="st4" d="M135.1,96.9c0-1.7-1.4-3.2-3.1-3.2c0,0-0.1,0-0.1,0h-22c-1.8,0-3.2,1.4-3.2,3.2c0,1.8,1.4,3.2,3.2,3.2h22
	c1.7,0.1,3.2-1.3,3.3-3C135.1,96.9,135.1,96.9,135.1,96.9z"/>
<g>
	<path class="st2" d="M121.8,63.1h20.6c1.7,0,3.1-1.4,3.1-3.2c0,0,0,0,0,0c0-1.7-1.4-3.1-3.1-3.1h-20.6c-1.7,0-3.2,1.4-3.2,3.1
		c0,0,0,0,0,0C118.6,61.7,120,63.1,121.8,63.1C121.7,63.1,121.7,63.1,121.8,63.1z"/>
	<path class="st2" d="M85.9,63.1h20c1.7,0,3.1-1.4,3.1-3.2c0,0,0,0,0,0c0-1.7-1.4-3.1-3.1-3.1h-20c-1.7,0-3.2,1.4-3.2,3.1
		c0,0,0,0,0,0C82.7,61.7,84.1,63.1,85.9,63.1C85.9,63.1,85.9,63.1,85.9,63.1z"/>
	<path class="st2" d="M85.9,81.6h27.4c1.7,0,3.1-1.4,3.1-3.1c0-1.7-1.4-3.1-3.1-3.1c0,0,0,0,0,0H85.9c-1.7,0-3.1,1.4-3.1,3.1
		C82.8,80.2,84.2,81.6,85.9,81.6C85.9,81.6,85.9,81.6,85.9,81.6z"/>
	<path class="st2" d="M126,78.4c0,1.7,1.5,3.1,3.2,3.1h22.3c1.7,0,3.1-1.4,3.1-3.1c0-1.7-1.4-3.1-3.1-3.1c0,0,0,0,0,0h-22.3
		C127.4,75.3,126,76.7,126,78.4z"/>
	<path class="st2" d="M187.7,75.3h-20.6c-1.7,0-3.1,1.4-3.1,3.1c0,1.7,1.4,3.1,3.1,3.1c0,0,0,0,0,0h20.6c1.7,0,3.1-1.4,3.1-3.1
		C190.8,76.7,189.4,75.3,187.7,75.3C187.7,75.3,187.7,75.3,187.7,75.3z"/>
	<path class="st2" d="M117.4,112.2H85.9c-1.7,0-3.1,1.4-3.1,3.1c0,1.7,1.4,3.1,3.1,3.1c0,0,0,0,0,0h31.4c1.7,0,3.1-1.4,3.1-3.1
		C120.5,113.6,119.1,112.2,117.4,112.2z"/>
	<path class="st2" d="M148.9,112.2h-15.7c-1.7,0-3.1,1.4-3.1,3.1c0,1.7,1.4,3.1,3.1,3.1c0,0,0,0,0,0h15.7c1.7,0,3.1-1.4,3.1-3.1
		C152,113.6,150.6,112.2,148.9,112.2C148.9,112.2,148.9,112.2,148.9,112.2z"/>
	<path class="st2" d="M186.7,112.2h-22c-1.7,0-3.1,1.4-3.1,3.1c0,1.7,1.4,3.1,3.1,3.1c0,0,0,0,0,0h22c1.7,0,3.1-1.4,3.1-3.1
		C189.9,113.6,188.5,112.2,186.7,112.2C186.7,112.2,186.7,112.2,186.7,112.2z"/>
	<path class="st2" d="M61.8,100h32.3c1.8,0,3.2-1.4,3.2-3.2c0-1.8-1.4-3.2-3.2-3.2H61.8c-1.8,0-3.2,1.4-3.2,3.2
		C58.6,98.6,60,100,61.8,100C61.8,100,61.8,100,61.8,100z"/>
	<path class="st2" d="M144.7,96.9c0,1.7,1.4,3.2,3.1,3.2c0,0,0,0,0,0h30.6c1.8,0,3.2-1.4,3.2-3.2c0-1.8-1.4-3.2-3.2-3.2h-30.5
		c-1.7,0-3.2,1.3-3.2,3.1C144.7,96.8,144.7,96.8,144.7,96.9z"/>
	<path class="st2" d="M100.8,149H85.9c-1.8,0-3.2,1.4-3.2,3.2c0,1.8,1.4,3.2,3.2,3.2h14.8c1.8,0,3.2-1.4,3.2-3.2
		C103.9,150.5,102.5,149,100.8,149z"/>
	<path class="st2" d="M143.7,149h-27.2c-1.8,0-3.2,1.4-3.2,3.2c0,1.8,1.4,3.2,3.2,3.2h27.2c1.8,0,3.2-1.4,3.2-3.2
		C146.9,150.5,145.5,149,143.7,149z"/>
	<path class="st2" d="M178.4,149h-17.7c-1.8,0-3.2,1.4-3.2,3.2c0,1.8,1.4,3.2,3.2,3.2c0,0,0,0,0,0h17.7c1.8,0,3.2-1.4,3.2-3.2
		C181.6,150.5,180.1,149,178.4,149z"/>
	<path class="st2" d="M158.1,63.1h15.1c1.7,0,3.2-1.4,3.2-3.1c0,0,0,0,0,0c0-1.7-1.4-3.1-3.2-3.1c0,0,0,0,0,0h-15.1
		c-1.7,0-3.2,1.4-3.2,3.1c0,0,0,0,0,0C154.9,61.7,156.3,63.1,158.1,63.1C158.1,63.1,158.1,63.1,158.1,63.1z"/>
</g>
</svg>
