<?xml version="1.0" encoding="utf-8"?>
<!-- Generator: Adobe Illustrator 26.0.3, SVG Export Plug-In . SVG Version: 6.00 Build 0)  -->
<svg version="1.1" id="Capa_1" xmlns="http://www.w3.org/2000/svg" xmlns:xlink="http://www.w3.org/1999/xlink" x="0px" y="0px"
	 viewBox="0 0 250 250" style="enable-background:new 0 0 250 250;" xml:space="preserve">
<style type="text/css">
	.st0{fill:#284470;}
	.st1{fill:#525254;}
	.st2{fill-rule:evenodd;clip-rule:evenodd;fill:#AECAE7;}
</style>
<path class="st0" d="M74.8,175.1h-4v9.4c0,5-4.8,6.8-9.4,6.8s-9.4-1.9-9.4-6.8v-9.4h-4c-3.1,0.1-5.5,2.7-5.4,5.8c0,0,0,0,0,0v21.3
	c-0.1,3.1,2.3,5.7,5.4,5.8c0,0,0,0,0,0h26.8c3.1-0.1,5.5-2.7,5.4-5.8V181C80.4,177.9,77.9,175.3,74.8,175.1
	C74.8,175.1,74.8,175.1,74.8,175.1z"/>
<path class="st0" d="M135.4,175.1h-4v9.4c0,5-4.8,6.8-9.4,6.8c-4.7,0-9.4-1.9-9.4-6.8v-9.4h-4c-3.1,0.1-5.5,2.7-5.4,5.8v32.9
	c-0.1,3.1,2.3,5.7,5.4,5.8c0,0,0,0,0,0h26.8c3.1-0.1,5.5-2.7,5.4-5.8c0,0,0,0,0,0V181C140.9,177.9,138.5,175.3,135.4,175.1
	C135.4,175.1,135.4,175.1,135.4,175.1z"/>
<path class="st0" d="M195.9,175.1h-4v9.4c0,5-4.8,6.8-9.5,6.8s-9.4-1.9-9.4-6.8v-9.4h-4c-3.1,0.1-5.5,2.7-5.4,5.8v44.3
	c-0.1,3.1,2.3,5.7,5.4,5.8h26.8c3.1-0.1,5.5-2.7,5.4-5.8V181C201.5,177.9,199,175.3,195.9,175.1z"/>
<path class="st1" d="M182.5,146.9h-55.8v-26.1h-9.4v26.1H61.5c-2.2,0-4.1,1.7-4.7,4.7v28.2c0.1,2.6,2.1,4.6,4.7,4.7
	c2.5-0.3,4.4-2.2,4.7-4.7v-23.5h51.1v23.5c0.2,2.4,2.1,4.3,4.5,4.5c2.5-0.2,4.5-2.1,4.9-4.5v-23.5h51.1v23.5c0,2.2,2.8,4,4.9,4
	c2.3,0,4.3-1.7,4.5-4v-28.2C187,149.1,185,147.2,182.5,146.9z"/>
<path class="st2" d="M208.4,103c0-16.5-12-29.9-27.1-30.7c0.7-3.2,1.1-6.5,1.1-9.8c0-24-18-43.5-40.3-43.5
	c-13.5,0-25.4,7.1-32.7,18.1c-3.7-2.6-8.1-4.1-12.8-4.1C83.5,33,73,44.3,73,58.3c0,0.9,0,1.8,0.1,2.7C55.6,62.2,41.6,78,41.6,97.3
	c0,20.1,15.1,36.5,33.8,36.5c0.5,0,1,0,1.5,0l0,0.1h105l0-0.1C196.8,132.5,208.4,119.2,208.4,103z"/>
</svg>
