<?xml version="1.0" encoding="utf-8"?>
<!-- Generator: Adobe Illustrator 26.0.3, SVG Export Plug-In . SVG Version: 6.00 Build 0)  -->
<svg version="1.1" id="Capa_1" xmlns="http://www.w3.org/2000/svg" xmlns:xlink="http://www.w3.org/1999/xlink" x="0px" y="0px"
	 viewBox="0 0 250 250" style="enable-background:new 0 0 250 250;" xml:space="preserve">
<style type="text/css">
	.st0{fill:#6D2E87;}
</style>
<path class="st0" d="M227.8,69.3h-10.4l-4.2,17.9H80.6l-7-43.6C73,39.6,69.1,35,65,35H26.9c-2.4-0.2-4.4,1.6-4.6,3.9
	c-0.2,2.4,1.6,4.4,3.9,4.6c0.2,0,0.5,0,0.7,0h29.6c5.9,0,7.8,2.9,8.6,8.6l17.1,120h128.6v-8.6h-120l-2.4-17.1h122.4L227.8,69.3z
	 M197.8,189.3c-7.1,0-12.9,5.8-12.9,12.9s5.8,12.9,12.9,12.9c7.1,0,12.9-5.8,12.9-12.9c0,0,0,0,0,0
	C210.6,195.1,204.9,189.3,197.8,189.3L197.8,189.3z M94.9,189.3c-7.1,0-12.9,5.7-12.9,12.8c0,7.1,5.7,12.9,12.8,12.9
	c7.1,0,12.9-5.7,12.9-12.8c0,0,0,0,0,0C107.8,195.1,102.1,189.3,94.9,189.3L94.9,189.3z"/>
</svg>
