<?xml version="1.0" encoding="utf-8"?>
<!-- Generator: Adobe Illustrator 26.0.3, SVG Export Plug-In . SVG Version: 6.00 Build 0)  -->
<svg version="1.1" id="Capa_1" xmlns="http://www.w3.org/2000/svg" xmlns:xlink="http://www.w3.org/1999/xlink" x="0px" y="0px"
	 viewBox="0 0 250 250" style="enable-background:new 0 0 250 250;" xml:space="preserve">
<style type="text/css">
	.st0{fill:#E68F47;}
	.st1{fill:#AECAE7;stroke:#AECAE7;stroke-width:0.87;stroke-miterlimit:10;}
	.st2{fill:#FFFFFF;stroke:#AECAE7;stroke-width:0.87;stroke-miterlimit:10;}
</style>
<path class="st0" d="M39.5,70.4V52.6h17.8v17.8H39.5z M75.2,141.7v-17.8H39.5v-17.9h71.3v17.8H93v17.8L75.2,141.7z M57.3,52.6V34.8
	h17.8V17H93v17.8h35.7v17.8H57.3z M57.3,88.3V70.4h53.5v17.8H57.3z M110.8,106.1V88.3h17.8v17.8H110.8z"/>
<g>
	<path class="st1" d="M120.1,112.2c-4.3,1.7-6.5,6.6-4.8,10.9l0,0l20.7,46.7l-8.5-8.6c-0.2-0.2-0.5-0.4-0.8-0.6
		c-2.2-1.4-4.9-1.8-7.4-1.3c-2,0.6-3.8,1.6-5.4,3c-2,1.7-3,4.3-2.5,6.9c0.3,2.3,1.3,4.4,2.9,6l21.9,26.4c0.2,0.2,0.4,0.4,0.6,0.6
		l25.7,19.4l8.6,10.2c1,1.2,2.7,1.6,4.2,0.9l33-14.8c1.5-0.7,2.4-2.3,2-4l-10-47.4c0,0,0-0.1,0-0.2c-1.5-4.3-3.3-8.5-5.3-12.6
		c-1.2-2.4-2.2-4.8-3.1-6.6s-1.6-3.6-1.5-3.2c0-0.1,0-0.2,0-0.2l-6.4-14.6c-0.1-0.2-0.2-0.5-0.4-0.7c-1.1-1.7-2.6-3-4.4-3.9
		c-2-0.8-4.2-0.8-6.1,0.2l-0.3,0.1h-0.2c-1.3,0.7-2.4,1.7-3.1,2.9l-0.4-0.9c-2.1-4.2-7.1-5.9-11.3-3.9c-2.3,1-4.1,3-5,5.4l-1.9-4.4
		c-2.1-4.2-7.1-5.9-11.3-3.9c-2,0.9-3.7,2.5-4.6,4.5l-3.7-8.5c-1.9-4.4-7.1-5.7-11.3-3.9L120.1,112.2z"/>
	<path class="st2" d="M121.5,115.5c-2.5,0.9-3.8,3.7-2.9,6.2l24.1,54.3c0.8,2-2,3.6-3.2,2.4L125,163.9c-4-2.2-5.9-0.9-8.9,1.5
		c-2,1.5-1.5,5.5,1,7.8l21.8,26.2l26,19.6l8.9,10.5l33-14.8l-10-47.3c-1.1-4.1-9.3-20.7-9.8-22.2l-6.4-14.6c-2-2.7-4-4-6.2-2.6
		c-2.2,1-3.2,3.7-2.2,5.9c0,0.1,0.1,0.2,0.1,0.3l6.3,14.4c1.3,1.7-2.5,4-3.4,1.5l-9.5-21.7c-1.3-2.4-4.2-3.3-6.6-2.1
		c-2.5,0.9-3.8,3.7-2.9,6.3l7.6,17.5c1.5,1.9-3.5,4.8-4.6,2l-11.7-26.5c-1.5-2.5-4.8-3.3-7.3-1.7c-2,1.2-3,3.6-2.3,5.9l12.2,27.9
		c1.1,1.8-2.8,4.1-4,1.8l-18.3-41.8C126.8,115.2,123.9,114.3,121.5,115.5L121.5,115.5z"/>
</g>
</svg>
