<?xml version="1.0" encoding="utf-8"?>
<!-- Generator: Adobe Illustrator 26.0.3, SVG Export Plug-In . SVG Version: 6.00 Build 0)  -->
<svg version="1.1" id="Capa_1" xmlns="http://www.w3.org/2000/svg" xmlns:xlink="http://www.w3.org/1999/xlink" x="0px" y="0px"
	 viewBox="0 0 250 250" style="enable-background:new 0 0 250 250;" xml:space="preserve">
<style type="text/css">
	.st0{fill:#D62F8A;}
	.st1{fill:#7D2796;}
	.st2{fill:#96C061;}
	.st3{fill:#F17533;}
	.st4{fill:#0A1E3F;}
	.st5{fill:#95B6E5;}
</style>
<g id="g6675">
	<g id="rect5117">
		<path class="st0" d="M137.9,105.1c-0.3,0-0.5-0.1-0.8-0.2c-0.7-0.3-1.2-1-1.2-1.8V91.9h-3.3c-7,0-12.6-5.6-12.6-12.6V31.6
			c0-7,5.6-12.6,12.6-12.6h58.3c7,0,12.6,5.6,12.6,12.6v47.7c0,7-5.6,12.6-12.6,12.6h-39l-12.7,12.7
			C138.9,104.9,138.4,105.1,137.9,105.1z"/>
	</g>
	<g id="path5126">
		<circle class="st1" cx="143.2" cy="55.4" r="4"/>
	</g>
	<g id="circle5128">
		<circle class="st2" cx="161.7" cy="55.4" r="4"/>
	</g>
	<g id="circle5130">
		<circle class="st3" cx="180.3" cy="55.4" r="4"/>
	</g>
</g>
<g id="g6885">
	<path class="st4" d="M99.8,116.7l9.6-7.1l9.6,7.1c0.9,0.7,2.1,0.5,2.8-0.4c0,0,0,0,0,0c0.7-0.9,0.5-2.1-0.4-2.8l-10.8-8
		c-0.7-0.5-1.7-0.5-2.4,0l-10.7,8c-0.8,0.7-1,2-0.2,2.8C97.9,117,99,117.2,99.8,116.7L99.8,116.7z"/>
	<path class="st4" d="M172.3,151.7L172.3,151.7c-0.1-0.2-0.2-0.4-0.3-0.6l0,0l0,0c-0.1-0.1-0.2-0.3-0.4-0.4l-7.9-5.9
		c-0.9-0.7-2.1-0.5-2.8,0.3c-0.7,0.9-0.5,2.1,0.3,2.8c0,0,0.1,0.1,0.1,0.1l5.8,4.3l-57.6,42.6l-57.7-42.7l5.8-4.3
		c0.9-0.6,1.2-1.9,0.5-2.8c-0.6-0.9-1.9-1.2-2.8-0.5c0,0-0.1,0.1-0.1,0.1l-8,5.9c-0.1,0.1-0.3,0.2-0.4,0.4l0,0l0,0
		c-0.1,0.2-0.2,0.4-0.3,0.6l0,0c0,0.2,0,0.3,0,0.5v69.1c0,5.4,4.3,9.8,9.7,9.9h106c5.5,0,10-4.4,10-9.9c0,0,0,0,0,0v-68.9
		C172.3,152,172.3,151.9,172.3,151.7z"/>
	<g id="path6777">
		<path class="st5" d="M154.4,156.8c-1.1,0-2-0.9-2-2l0,0V125H66.3v29.8c0.1,1.1-0.7,2.1-1.8,2.2c-1.1,0.1-2.1-0.7-2.2-1.8
			c0-0.1,0-0.2,0-0.4V123c0-1.1,0.9-2,2-2h0h90.1c1.1,0,2,0.9,2,2v0v31.8C156.4,155.9,155.5,156.8,154.4,156.8L154.4,156.8z"/>
	</g>
	<g id="path6811">
		<path class="st5" d="M125.3,178H93.5c-1.1,0.1-2.1-0.7-2.2-1.8c-0.1-1.1,0.7-2.1,1.8-2.2c0.1,0,0.2,0,0.4,0h31.8
			c1.1-0.1,2.1,0.7,2.2,1.8c0.1,1.1-0.7,2.1-1.8,2.2C125.5,178,125.4,178,125.3,178z M141.2,164.7H77.6c-1.1,0.1-2.1-0.7-2.2-1.8
			c-0.1-1.1,0.7-2.1,1.8-2.2c0.1,0,0.2,0,0.4,0h63.6c1.1-0.1,2.1,0.7,2.2,1.8c0.1,1.1-0.7,2.1-1.8,2.2
			C141.4,164.8,141.3,164.8,141.2,164.7z M141.2,151.5H77.6c-1.1,0.1-2.1-0.7-2.2-1.8c-0.1-1.1,0.7-2.1,1.8-2.2c0.1,0,0.2,0,0.4,0
			h63.6c1.1-0.1,2.1,0.7,2.2,1.8c0.1,1.1-0.7,2.1-1.8,2.2C141.4,151.5,141.3,151.5,141.2,151.5z M141.2,138.2H77.6c-1.1,0-2-0.9-2-2
			c0-1.1,0.9-2,2-2h63.6c1.1,0,2,0.9,2,2C143.2,137.4,142.3,138.2,141.2,138.2z"/>
	</g>
</g>
</svg>
