<?xml version="1.0" encoding="utf-8"?>
<!-- Generator: Adobe Illustrator 26.0.3, SVG Export Plug-In . SVG Version: 6.00 Build 0)  -->
<svg version="1.1" id="Capa_1" xmlns="http://www.w3.org/2000/svg" xmlns:xlink="http://www.w3.org/1999/xlink" x="0px" y="0px"
	 viewBox="0 0 250 250" style="enable-background:new 0 0 250 250;" xml:space="preserve">
<style type="text/css">
	.st0{fill:#7D2796;}
	.st1{fill:#F17533;}
</style>
<g>
	<path class="st0" d="M89.2,120c0-1.4,0-2.5,0-3.7c0.2-3.5,1.7-6.1,4.9-7.7c4.4-2.2,9.3-3.1,14.2-2.8c1.3,0.1,2.5,0.7,3.9,1
		c0-0.9-0.1-1.9,0-2.9c0.3-3.9,2-6.7,5.6-8.3c4.6-2.1,9.6-3,14.7-2.7c1.9,0.2,3.7,0.9,5.1,2.2c0-0.6,0.1-1,0.1-1.4
		c0.2-10.6,0.3-21.1,0.7-31.7c0.3-7,0.9-14,1.5-21c0.3-2.8,1.7-5.3,4-6.9c4.3-3.5,11.3-4.1,16.1-1.4c3,1.6,4.9,4.6,5.2,7.9
		c2,17.7,3,35.4,3.6,53.2c0.4,10.4,0.8,20.8,1.3,31.2c0,0.4,0.1,0.8,0.3,1.1c4.6,6,8,12.8,11.6,19.4c1,1.7,1.5,3.6,1.4,5.6
		c-0.2,2.8-0.4,5.6-0.9,8.4c-1.9,11.1-5.8,21.8-11.4,31.6c-2.5,4.3-5.6,8.2-9.3,11.6c-0.4,0.4-0.6,0.9-0.7,1.5
		c-0.1,3.7-0.2,7.4-0.3,11.1c-0.1,3.3-0.5,3.7-3.7,3.7H84.6c-1.8,0-2.5-0.7-2.5-2.6c0-6.4,0-12.9,0-19.3c0-0.6-0.2-1.1-0.6-1.5
		c-6.9-6.8-10.8-15.2-12.3-24.7c-1.4-8.5-1.1-17.1-0.5-25.7c0.2-2.7-0.8-5.2-1.1-7.7c-0.4-3-0.9-6.1-1.1-9.1
		c-0.3-3.2,1.4-6.2,4.3-7.6c3.8-2,8-3.1,12.3-3.2c2-0.1,4,0.6,5.5,1.9C88.7,119.7,88.9,119.8,89.2,120z M156.9,205.7
		c-0.3,0.2-0.7,0.4-1.1,0.5c-1.4,0.6-2.3,0.3-2.8-0.8c-0.5-1-0.2-2.2,0.8-2.8c0.1,0,0.2-0.1,0.2-0.1c5.1-2.3,8.7-6.3,11.7-10.8
		c5.5-8.1,9-17.1,11.4-26.5c1.2-4.6,2.2-9.4,2.2-14.2c0-0.9-0.1-1.8-0.5-2.6c-1.8-3.6-3.7-7.1-5.7-10.7c-3.1-5.5-6.5-10.6-11.2-14.8
		c-0.5-0.4-1.1-0.8-1.7-0.9c-8.5-2.4-17.1-4.3-25.8-5.7c-2-0.3-4-0.6-6-0.9c-0.9,5-1,9.7,1.3,14.2c1.9,3.7,5,6.1,8.5,8.2
		c3.8,2,7.8,3.7,12,4.8c1.4,0.4,1.8,1,1.8,2.3c0.1,3.8,1.1,7.5,2.9,10.9c0.8,1.5,0.1,3-1.6,3.2c-5.6,0.7-11,2.2-16.2,4.4
		c-0.6,0.2-1.3,0.2-1.9-0.2c-0.5-0.6-0.7-1.3-0.6-2c0.2-0.8,0.8-1.4,1.5-1.7c2.5-1.1,5-2,7.6-2.8c2-0.6,4.2-1,6.3-1.4
		c-0.7-2.9-1.5-5.8-2.2-8.7c-1.4,2.7-3.8,4.1-6.5,4.9c-2.3,0.8-4.6,1.3-6.9,1.7c-3.6,0.5-7.2,0.9-10.4-1.5c0,0-0.1,0-0.2,0
		c0,0.2,0,0.4,0,0.5c-0.2,3.6-1.9,6.2-5.2,7.6c-1.8,0.8-3.6,1.4-5.5,1.9c-4.4,0.9-8.9,2-13.1-1.1c-0.5,3.5-2.4,5.7-5.6,7.1
		c-2.7,1.2-5.6,2-8.6,2.4c-5.8,0.6-8.5-0.9-10.8-6.2c-1-2.2-1.8-4.6-2.7-7c0,0.4,0,0.6,0,0.8c0.3,4.3,0.4,8.6,1,12.8
		c1,8.1,4.6,15.6,10.3,21.4c1.8,1.8,3.9,3.4,5.8,5.1c1,0.9,1.3,1.9,0.6,2.9c-0.7,1-1.8,1.2-3,0.4c-0.3-0.2-0.5-0.3-0.9-0.5v15.1
		h70.7V205.7z M165.9,121c0-0.6,0-0.9,0-1.2c-0.3-8.4-0.7-16.8-1-25.3c-0.6-17.8-1.6-35.5-3.6-53.2c-0.3-2.7-1.7-4.6-4.2-5.6
		c-3.3-1.3-7.1-0.9-10.1,1.2c-1.7,1-2.8,2.8-3,4.8c-0.6,9-1.4,18-1.8,27c-0.4,11-0.5,22.1-0.7,33.1c0,0.4,0,0.8,0.1,1.2
		c0.7,3.3,1.5,6.7,2.2,10c0,0.5,0.5,0.9,1,1c3.2,0.7,6.5,1.3,9.6,2.2C158.4,117.4,162.8,117.4,165.9,121L165.9,121z M107.8,158.5
		c3.2-0.2,6.4-1,9.3-2.4c1.8-0.9,2.9-2.3,2.7-4.3c-0.2-3.1-0.5-6.2-1-9.2c-1.3-6.5-2.7-13-4.2-19.5c-0.8-3.5-1.8-7-2.9-10.4
		c-0.5-1.7-2.1-2.9-3.9-2.8c-4.1-0.2-8.2,0.6-11.9,2.4c-1.6,0.7-2.7,2.3-2.6,4.1c-0.1,2.1,0,4.2,0.3,6.3c1,6,2.2,11.9,3.3,17.9
		c0.9,4.8,2.2,9.6,4,14.1C102.3,157.9,103.6,158.8,107.8,158.5L107.8,158.5z M83.7,166.2c3.4-0.1,6.8-1,9.9-2.5
		c1.7-0.7,2.7-2.5,2.4-4.3c-0.2-2.3-0.5-4.6-1-6.8c-1.3-5.4-2.6-10.8-4.1-16.1c-1.1-4-2.4-8.1-3.8-12c-0.8-2.2-2.2-3-4.6-2.8
		c-3.4,0.2-6.7,1-9.7,2.5c-1.5,0.7-2.5,2.2-2.4,3.9c0,1.7,0.1,3.3,0.4,5c1.1,5.3,2.4,10.7,3.6,16c1.2,4.9,2.5,9.7,4.7,14.3
		C80.3,165.4,81.7,166.5,83.7,166.2L83.7,166.2z M139.8,113.1c-0.8-4.4-1.6-8.8-3.3-12.8c-0.7-2-2.6-3.3-4.7-3.2
		c-4.2-0.1-8.3,0.7-12.1,2.4c-2.2,1-3.3,2.7-3.2,5c0.1,3.8,0.5,7.5,1,11.2c0.9,5.5,2.2,10.8,3.3,16.3c1,4.9,2.2,9.8,4.3,14.4
		c0.7,1.9,2.5,3.2,4.5,3.2c4.4,0.2,8.8-0.8,12.8-2.7c0.8-0.5,1.5-1.1,2.2-1.8c-1.8-0.8-3.4-1.4-4.9-2.1c-4.7-2.2-9-4.9-12-9.3
		c-4.5-6.6-4.3-13.7-2.4-21.1c0.2-0.9,1.2-1.5,2.1-1.4c0.8,0.1,1.5,0.2,2.3,0.3L139.8,113.1z"/>
	<path class="st1" d="M121.2,226.7H84.7c-6.2,0-10.3-4.1-10.3-10.4c0-5.4,0-10.7,0-16.1c0-0.6-0.2-1.1-0.6-1.6
		c-6.6-7.4-10.4-16.2-12.1-26c-1.5-9.1-1.3-18.2-0.7-27.3c0.1-2.1-0.6-4.1-0.9-6.1c-0.7-4.1-1.5-8.2-1.2-12.4
		c0.3-5.5,3.5-10.5,8.5-12.9c4.6-2.4,9.6-3.8,14.8-4c0.4,0,0.8-0.2,1-0.5c2.4-5.1,6.8-7.8,12-9.4c3.2-1,6.5-1.6,9.9-1.9
		c0.4,0,0.7-0.2,0.9-0.5c2.2-5.2,6.2-8.2,11.4-9.9c3.7-1.3,7.5-2.1,11.5-2.3c1.1,0,1.5-0.3,1.5-1.5c0-4.6,0-9.2,0.2-13.9
		c0.5-9.8,1.1-19.6,1.8-29.3c0.5-6.1,3.6-10.9,9-14c6-3.7,13.5-4.3,20.1-1.8c7,2.6,10.9,7.9,11.7,15.3c1.9,18,2.9,36,3.6,54.1
		c0.3,9.3,0.7,18.6,1.1,27.8c0,0.5,0.1,0.9,0.3,1.4c4.2,5.9,7.4,12.3,10.8,18.6c1.5,2.7,2.3,5.8,2.2,8.9c-0.1,2.7-0.3,5.4-0.7,8
		c-2.3,13.5-6.6,26.3-14,37.9c-2,3.3-4.8,6.1-7.1,9.2c-0.4,0.4-0.6,1-0.6,1.5c-0.1,2.9-0.2,5.8-0.2,8.8c-0.1,6.2-4.3,10.4-10.5,10.4
		C145.8,226.7,133.5,226.7,121.2,226.7L121.2,226.7z M89.2,120c-0.3-0.2-0.5-0.4-0.6-0.5c-1.5-1.3-3.5-2-5.5-1.9
		c-4.3,0.1-8.5,1.2-12.3,3.2c-2.8,1.4-4.5,4.4-4.3,7.6c0.2,3.1,0.7,6.1,1.1,9.1c0.3,2.6,1.3,5,1.1,7.7c-0.6,8.6-0.8,17.1,0.5,25.7
		c1.5,9.5,5.3,17.9,12.3,24.7c0.4,0.4,0.6,1,0.6,1.5c0,6.4,0,12.9,0,19.3c0,1.8,0.7,2.6,2.5,2.6h72.5c3.2,0,3.7-0.5,3.7-3.7
		c0.1-3.7,0.1-7.4,0.3-11.1c0-0.6,0.3-1.1,0.7-1.5c3.7-3.4,6.8-7.3,9.3-11.6c5.7-9.8,9.6-20.5,11.5-31.6c0.5-2.7,0.7-5.6,0.9-8.4
		c0.1-2-0.4-3.9-1.4-5.6c-3.6-6.6-7-13.4-11.6-19.4c-0.2-0.3-0.3-0.7-0.3-1.1c-0.4-10.4-0.9-20.8-1.3-31.2
		c-0.6-17.8-1.6-35.5-3.6-53.2c-0.3-3.4-2.2-6.3-5.2-7.9c-4.8-2.7-11.8-2-16.1,1.4c-2.2,1.7-3.7,4.2-4,6.9c-0.6,7-1.3,14-1.5,21
		c-0.4,10.6-0.5,21.1-0.7,31.7c0,0.4,0,0.8-0.1,1.4c-1.4-1.2-3.2-2-5.1-2.2c-5-0.3-10.1,0.7-14.7,2.7c-3.6,1.6-5.4,4.5-5.6,8.3
		c-0.1,1,0,2,0,2.9c-1.4-0.4-2.7-1-3.9-1c-4.9-0.3-9.8,0.6-14.2,2.8c-3.2,1.5-4.8,4.2-4.9,7.7C89.2,117.5,89.2,118.7,89.2,120
		L89.2,120z"/>
	<path class="st1" d="M165.9,121c-3.2-3.6-7.5-3.6-11.4-4.7c-3.2-0.9-6.4-1.5-9.6-2.2c-0.5,0-0.9-0.5-1-1c-0.7-3.4-1.5-6.7-2.2-10
		c-0.1-0.4-0.1-0.8-0.1-1.2c0.2-11,0.3-22.1,0.7-33.1c0.4-9,1.1-18,1.8-27c0.2-2,1.3-3.8,3-4.8c2.9-2,6.7-2.5,10.1-1.2
		c2.6,0.9,3.9,2.8,4.2,5.6c1.9,17.7,3,35.4,3.6,53.2c0.3,8.4,0.7,16.8,1,25.3C165.9,120.1,165.9,120.4,165.9,121z"/>
	<path class="st1" d="M107.8,158.5c-4.1,0.2-5.5-0.6-6.8-3.9c-1.8-4.6-3.2-9.3-4-14.1c-1.2-5.9-2.3-11.9-3.3-17.9
		c-0.3-2.1-0.4-4.2-0.3-6.3c0-1.8,1-3.4,2.6-4.1c3.7-1.8,7.8-2.6,11.9-2.4c1.8,0,3.4,1.1,3.9,2.8c1.1,3.4,2,6.9,2.9,10.4
		c1.5,6.5,3,12.9,4.2,19.5c0.5,3.1,0.9,6.1,1,9.2c0.1,2-0.9,3.5-2.7,4.3C114.2,157.6,111,158.4,107.8,158.5z"/>
	<path class="st1" d="M83.7,166.2c-2,0.2-3.4-0.9-4.4-2.9c-2.2-4.6-3.5-9.4-4.7-14.3c-1.3-5.3-2.5-10.6-3.6-16
		c-0.3-1.6-0.4-3.3-0.4-5c-0.1-1.7,0.8-3.2,2.4-3.9c3-1.5,6.3-2.4,9.7-2.5c2.4-0.1,3.8,0.6,4.6,2.8c1.4,4,2.7,8,3.8,12
		c1.5,5.3,2.8,10.7,4.1,16.1c0.5,2.2,0.8,4.5,1,6.8c0.3,1.8-0.7,3.6-2.4,4.3C90.5,165.3,87.2,166.1,83.7,166.2z"/>
	<path class="st1" d="M139.8,113.1l-10.2-1.6c-0.8-0.1-1.5-0.2-2.3-0.3c-1-0.2-1.9,0.4-2.1,1.4c-1.9,7.3-2,14.5,2.4,21.1
		c3,4.4,7.3,7.1,12,9.3c1.5,0.7,3,1.3,4.9,2.1c-0.7,0.7-1.4,1.3-2.2,1.8c-4,2-8.4,2.9-12.8,2.7c-2,0-3.8-1.3-4.5-3.2
		c-2.1-4.6-3.3-9.5-4.3-14.4c-1.1-5.5-2.4-10.8-3.3-16.3c-0.5-3.7-0.9-7.5-1-11.2c-0.1-2.3,1-4,3.2-5c3.8-1.7,8-2.6,12.2-2.4
		c2.1,0,4,1.3,4.7,3.2C138.1,104.3,138.9,108.6,139.8,113.1z"/>
	<path class="st1" d="M179,148.5c-1.8-3.6-3.7-7.1-5.7-10.7c-3.1-5.5-6.5-10.6-11.2-14.8c-0.5-0.4-1.1-0.8-1.7-0.9
		c-8.5-2.4-17.1-4.3-25.8-5.7c-2-0.3-4-0.6-6-0.9c-0.9,5-1,9.7,1.3,14.2c1.9,3.7,5,6.1,8.5,8.2c3.8,2,7.8,3.7,12,4.8
		c1.4,0.4,1.8,1,1.8,2.3c0.1,3.8,1.1,7.5,2.9,10.9c0.8,1.5,0.1,3-1.6,3.2c-5.6,0.7-11,2.2-16.2,4.4c-0.6,0.2-1.3,0.2-1.9-0.2
		c-0.5-0.6-0.7-1.3-0.6-2c0.2-0.8,0.8-1.4,1.5-1.7c2.5-1.1,5-2,7.6-2.8c2-0.6,4.2-1,6.3-1.4c-0.7-2.9-1.5-5.8-2.2-8.7
		c-1.4,2.7-3.8,4.1-6.5,4.9c-2.3,0.8-4.6,1.3-6.9,1.7c-3.6,0.5-7.2,0.9-10.4-1.5c0,0-0.1,0-0.2,0c0,0.2,0,0.4,0,0.5
		c-0.2,3.6-1.9,6.2-5.2,7.6c-1.8,0.8-3.6,1.4-5.5,1.9c-4.4,0.9-8.9,2-13.1-1.1c-0.5,3.5-2.4,5.7-5.6,7.1c-2.7,1.2-5.6,2-8.6,2.4
		c-5.8,0.6-8.5-0.9-10.8-6.2c-1-2.2-1.8-4.6-2.7-7c0,0.4,0,0.6,0,0.8c0.3,4.3,0.4,8.6,1,12.8c1,8.1,4.6,15.6,10.3,21.4
		c1.8,1.8,3.9,3.4,5.8,5.1c1,0.9,1.3,1.9,0.6,2.9c-0.7,1-1.8,1.2-3,0.4c-0.3-0.2-0.5-0.3-0.9-0.5v15.1h70.7v-9.1
		c-0.3,0.2-0.7,0.4-1.1,0.5c-1.4,0.6-2.3,0.3-2.8-0.8c-0.5-1-0.2-2.2,0.8-2.8c0.1,0,0.2-0.1,0.2-0.1c5.1-2.3,8.7-6.3,11.7-10.8
		c5.5-8.1,9-17.1,11.4-26.5c1.2-4.6,2.2-9.4,2.2-14.2C179.5,150.2,179.3,149.3,179,148.5z"/>
</g>
</svg>
