<?xml version="1.0" encoding="utf-8"?>
<!-- Generator: Adobe Illustrator 26.0.3, SVG Export Plug-In . SVG Version: 6.00 Build 0)  -->
<svg version="1.1" id="Capa_1" xmlns="http://www.w3.org/2000/svg" xmlns:xlink="http://www.w3.org/1999/xlink" x="0px" y="0px"
	 viewBox="0 0 250 250" style="enable-background:new 0 0 250 250;" xml:space="preserve">
<style type="text/css">
	.st0{fill:#F17533;}
	.st1{fill:#95B6E5;}
	.st2{fill:#D62F8A;}
	.st3{fill:#89BB55;}
	.st4{fill:#7D2796;}
</style>
<g>
	<path class="st0" d="M233.3,202.9c0-4.2-0.6-4.9-4.9-5.1c-1.5-1.2-3.3-0.9-5-0.9c-16.4,0-32.7,0-49.1,0c-1.5,0-3.1-0.1-4.5,0.5
		c-0.2,0.1-0.4,0.3-0.6,0.6H169v-0.1c-4.7-1.5-9.8-1.5-14.6,0c-4.2,0.3-4.9,1-4.9,5.2c0,1.3,0,2.6,0,3.9c0.1,2.4,1.4,3.7,3.9,3.7
		l21-0.1l0,0l51,0.1C233.3,210.6,233.3,210.6,233.3,202.9z"/>
	<path class="st1" d="M228.3,197.8c0-1.4,0-2.8-0.1-4.3c-0.3-2.9-2.3-4.9-5.2-4.9c-17.2,0-34.4,0-51.5,0.1l0,0
		c-2.7,0-5.5-0.1-8.2-0.1c-7.3,0-8,0.7-8.6,8c-0.1,0.4-0.1,0.8-0.2,1.2H169l0.1,0.1L228.3,197.8z"/>
	<path class="st2" d="M219,146.3c-0.2-4.2-2.3-5.9-6.6-6.2l0,0c-1.1-1-0.9-2.4-1.1-3.7c-0.9-5.3-1.7-10.5-3.7-15.5
		c0.8-1.2,2.9-1.1,2.9-3.1l0,0c0.6-3.5-0.4-4.9-4.1-4.9c-7.5,0-15,0.1-22.4,0.2l0,0h-7.9c-1.8,0-3.2,0.6-3.7,2.5s-0.2,3.4,1.5,4.2
		s1.4,1.9,1,3.3c-1.4,4.7-2.3,9.5-2.7,14.3c-0.2,2.4-1,3-3.3,3c-16.3,0-32.7,0.1-49,0.2c-6.5,0-8.8,2.5-8.2,9c0,1.9-0.2,3.9-0.1,5.8
		c0.3,3.8,2.6,6.1,6.3,6.1c15.7,0,31.3-0.2,47-0.4l0,0c1.4,0.1,2.8,0.1,4.2,0.1c2.3-0.3,3.2,0.5,3.4,2.9c0.6,4.9,1.6,9.8,3.1,14.6
		c0.4,1.3,0.6,2.2-0.9,3s-2.1,2.5-1.5,4.2c0.5,1.6,2,2.7,3.7,2.5c2.5,0,5-0.1,7.6-0.2l0,0l23.4,0c1.7,0.1,3.2-1,3.6-2.7
		c0.5-1.6,0-3.2-1.5-3.9c-1.7-0.8-1.4-2-1-3.3c1.4-4.9,2.3-9.9,2.9-15c0.1-1,0.1-2.1,1.3-2.5c3.8-0.4,5.9-2.4,6.1-6.1
		C219.2,151.8,219.2,149,219,146.3z M200.1,120.4L200.1,120.4l-0.3-0.1L200.1,120.4L200.1,120.4z"/>
	<path class="st3" d="M57.7,125.1c-0.7,0-1.4,0-2.1,0.1c-22.1,1.2-39.1,20-37.9,42.1c0.5,9.9,4.7,19.3,11.8,26.3
		c-0.4,0.4-0.9,0.8-1.4,1c-3.9,2.2-7.6,4.8-11.3,7.2l0.2,0.8h26.3c20.7,8,43.9-2.2,51.9-22.9c8-20.7-2.2-43.9-22.9-51.9
		C67.6,126,62.7,125.1,57.7,125.1L57.7,125.1z"/>
	<path class="st2" d="M42.4,154.8c0-6.4,4.2-11.4,10.7-12.8c7.6-1.6,15.6,1.4,18.6,7.1c2.9,5.7,1.2,12.4-4.3,16.5l-4.9,3.6
		c-2.3,1.7-4.2,3.6-3.7,6.7c0.3,1.7-0.3,2.9-2.6,2.9c-2.2,0-2.5-1-2.9-2.8c-1.6-8,5.6-10.2,10.3-14.2c2.8-2.3,5-4.9,3.6-8.7
		c-1.4-3.6-3.9-5.9-8.1-6.2c-7.3-0.6-10.8,2.6-11.1,10.3c-0.1,1.9-0.3,3.2-2.9,3.2c-2.4-0.1-2.6-1.3-2.6-3
		C42.4,156.5,42.4,155.7,42.4,154.8z"/>
	<path class="st2" d="M56.2,189c-1.8,0.1-2.9-0.3-2.9-2.2s0.6-2.9,2.8-2.8c1.9,0,2.7,0.7,2.7,2.5C58.7,188.1,58.2,189.2,56.2,189z"
		/>
	<path class="st0" d="M170.1,68.6c-1-2.7-11.1-28.6-24.3-29c-3.2-0.1-7.5,2.9-10.5,3.7c-4.2,1-8.3,2.2-17.9,0.1
		c-6.1-1.7-10.2-4.7-14.2-3.9c-2.2,0.3-4.3,1-6.1,2.2c-28,16.8-22.4,60.4-22.4,60.7c0.4,1.8,1,3.5,1.9,5.1c1.2,2,2.8,3.5,5.3,3.9
		c2,0.3,4.1,0.2,6-0.4c2.6-0.7,5-2,7.1-3.6c3.3-2.5,6.1-5.5,9.1-8.2c2.3-2.1,4.7-3.9,7.4-5.3c5-2.6,10.7-3.7,16.3-3.1
		c3.7,0.4,7.2,1.5,10.5,3.2c3.7,2,7.2,4.3,10.5,7c2.9,2.3,5.9,4.6,8.9,6.7c5.5,3.8,9.2,3.5,9.7,3.5c1.8,0.2,3.5-0.5,4.8-1.7
		c1.5-1.5,2.5-3.5,2.9-5.7C177.6,86,171.4,72,170.1,68.6z"/>
	<path class="st4" d="M155.9,80.1c-1.6-1.6-1.7-4.2-0.1-5.8c1.6-1.6,4.2-1.7,5.8-0.1c1.6,1.6,1.7,4.2,0.1,5.8
		C160.2,81.6,157.5,81.7,155.9,80.1C155.9,80.1,155.9,80.1,155.9,80.1z"/>
	<path class="st4" d="M148.7,79.6c1.6,1.6,1.7,4.2,0.1,5.9c-1.6,1.6-4.3,1.6-5.9-0.1c-1.5-1.6-1.6-4-0.2-5.6
		C144.4,78.1,147,78.1,148.7,79.6z"/>
	<path class="st4" d="M153.1,90.3c-1.7-1.5-1.8-4.1-0.3-5.8c0,0,0,0,0,0c1.7-1.5,4.4-1.3,5.9,0.4c1.3,1.5,1.4,3.7,0.2,5.2
		C157.3,91.8,154.7,91.9,153.1,90.3C153.1,90.3,153.1,90.3,153.1,90.3z"/>
	<path class="st2" d="M109.4,71.1c-0.1-2.3,1.7-4.2,4-4.2c2.3-0.1,4.2,1.7,4.2,4c0.1,2.3-1.7,4.2-4,4.2c0,0,0,0,0,0
		C111.4,75.1,109.5,73.3,109.4,71.1z"/>
	<path class="st2" d="M92.6,70.9c0,2.3-1.8,4.1-4.1,4.2c-2.3,0.1-4.2-1.7-4.3-4c-0.1-2.3,1.7-4.2,4-4.3l0,0
		C90.6,66.8,92.6,68.6,92.6,70.9z"/>
	<path class="st2" d="M101.3,62.6c-2.3,0.1-4.2-1.7-4.2-4c-0.1-2.3,1.7-4.2,4-4.2c2.3-0.1,4.2,1.7,4.2,4
		C105.3,60.7,103.5,62.6,101.3,62.6C101.3,62.6,101.3,62.6,101.3,62.6z"/>
	<path class="st2" d="M101.1,79.4c2.3,0,4.1,1.8,4.2,4.1c0.1,2.3-1.7,4.2-4,4.3C99,87.8,97,86,97,83.7
		C96.9,81.4,98.8,79.5,101.1,79.4z"/>
	<path class="st4" d="M101.2,77.9c-3.8,0-6.9-3.1-6.8-6.9c0-3.8,3.1-6.9,6.9-6.8c3.8,0,6.8,3,6.8,6.8
		C108.1,74.8,105,77.9,101.2,77.9C101.2,77.9,101.2,77.9,101.2,77.9z"/>
</g>
</svg>
