<?xml version="1.0" encoding="utf-8"?>
<!-- Generator: Adobe Illustrator 26.0.3, SVG Export Plug-In . SVG Version: 6.00 Build 0)  -->
<svg version="1.1" id="Capa_1" xmlns="http://www.w3.org/2000/svg" xmlns:xlink="http://www.w3.org/1999/xlink" x="0px" y="0px"
	 viewBox="0 0 250 250" style="enable-background:new 0 0 250 250;" xml:space="preserve">
<style type="text/css">
	.st0{fill:#6D2E87;}
	.st1{fill:#C0C0C0;}
</style>
<g>
	<path class="st0" d="M103.8,234.6c6.4,0.3,13.5,0.4,21.2,0.4s14.8-0.2,21.2-0.4V93.9c-6.4-0.3-13.5-0.5-21.2-0.5
		s-14.8,0.2-21.2,0.5L103.8,234.6z"/>
	<path class="st0" d="M39.2,116.9v94.7c0,9.7,7.9,17.6,17.6,17.6c0,0,12.6,3.1,37.5,4.8V94.4c-24.9,1.6-37.5,4.8-37.5,4.8
		C47.1,99.3,39.2,107.2,39.2,116.9L39.2,116.9z M193.2,99.3c0,0-12.6-3.1-37.5-4.8V234c24.9-1.7,37.5-4.8,37.5-4.8
		c9.7,0,17.6-7.9,17.6-17.6v-94.7C210.8,107.2,202.9,99.3,193.2,99.3C193.2,99.3,193.2,99.3,193.2,99.3L193.2,99.3z"/>
	<path class="st0" d="M95.4,15.4c-12.3-4.6-45.1,29.8-40.6,43.3S91,87.4,91,87.4l27.4-2.3C118.5,85.2,107.7,20.1,95.4,15.4z
		 M74.7,63.2C72.6,56.6,88.6,39.7,94.6,42c6,2.3,11.3,34.2,11.3,34.2l-13.4,1.1C92.5,77.3,76.9,69.9,74.7,63.2z"/>
	<path class="st0" d="M131.5,85.2l27.4,2.3c0,0,31.8-15.3,36.2-28.8c4.4-13.4-28.3-47.9-40.6-43.3S131.5,85.2,131.5,85.2L131.5,85.2
		z M157.5,77.3l-13.4-1.1c0,0,5.3-31.9,11.3-34.2c6-2.3,22.1,14.6,19.9,21.2C173,69.8,157.5,77.3,157.5,77.3z"/>
</g>
<path class="st1" d="M169.1,159.5c-8.1-0.1-15.5,4.6-18.9,12c-3.4-7.4-10.8-12.1-18.9-12c-11.3,0-20.5,8.6-20.5,19.3
	c0,26.6,39.5,44.8,39.5,44.8s39.3-19.3,39.3-44.8C189.6,168.1,180.4,159.5,169.1,159.5z"/>
</svg>
