<?xml version="1.0" encoding="utf-8"?>
<!-- Generator: Adobe Illustrator 26.0.3, SVG Export Plug-In . SVG Version: 6.00 Build 0)  -->
<svg version="1.1" id="Capa_1" xmlns="http://www.w3.org/2000/svg" xmlns:xlink="http://www.w3.org/1999/xlink" x="0px" y="0px"
	 viewBox="0 0 250 250" style="enable-background:new 0 0 250 250;" xml:space="preserve">
<style type="text/css">
	.st0{fill:#8BB8E8;}
	.st1{fill:#F17533;}
	.st2{fill:#FFFFFF;}
	.st3{fill:#0A1E3F;}
	.st4{fill:#D62F8A;}
</style>
<g id="Modo_de_aislamiento">
	<rect x="27.3" y="137.7" class="st0" width="21.7" height="31"/>
	<path class="st1" d="M81.5,74.1h86.9c1.3,0,2.4,1.1,2.4,2.4v4.2c0,1.3-1.1,2.4-2.4,2.4H81.5c-1.3,0-2.4-1.1-2.4-2.4v-4.2
		C79.2,75.1,80.2,74.1,81.5,74.1z"/>
	<path class="st1" d="M81.5,83.8h86.9c1.3,0,2.4,1.1,2.4,2.4V150c0,1.3-1.1,2.4-2.4,2.4H81.5c-1.3,0-2.4-1.1-2.4-2.4V86.1
		C79.2,84.8,80.2,83.8,81.5,83.8z"/>
	<path class="st2" d="M208.4,139.2h-13.9c-4.3,0-8.4,1.7-11.5,4.8l-4.7,4.7c-2.1,2.1-5,3.3-7.9,3.3H158c-1.7-0.1-3.3,0.7-4.2,2.1
		h-18.6l11,15c3.1,3.4,7.5,5.3,12.1,5.4h31.6c8,0,18.5-10.6,18.5-10.6L208.4,139.2z"/>
	<path class="st3" d="M145.1,170.1L145,170l-11-15c-0.5-0.7-0.3-1.6,0.4-2.1c0.2-0.2,0.5-0.3,0.8-0.3H153c1.3-1.4,3.1-2.2,5-2.1
		h12.3c2.6,0,5.1-1,6.9-2.9l4.7-4.7c3.3-3.4,7.9-5.2,12.6-5.2h13.9c0.8,0,1.5,0.7,1.5,1.5v24.7c0,0.4-0.2,0.7-0.4,1
		c-0.5,0.5-11,11.1-19.6,11.1h-31.6C153.2,175.9,148.4,173.8,145.1,170.1z M206.9,140.7h-12.4c-3.9,0-7.7,1.6-10.5,4.4l-4.7,4.7
		c-2.4,2.4-5.6,3.7-9,3.7H158c-1.1-0.1-2.2,0.4-2.9,1.3c-0.3,0.5-0.8,0.8-1.3,0.8h-15.7l9.2,12.6c2.8,3.1,6.8,4.8,11,4.8h31.6
		c6.4,0,15-7.8,17-9.8L206.9,140.7z"/>
	<rect x="208.4" y="136.2" class="st0" width="24.7" height="34"/>
	<path class="st3" d="M206.9,170.2v-34c0-0.8,0.7-1.5,1.5-1.5h24.7c0.8,0,1.5,0.7,1.5,1.5v34c0,0.8-0.7,1.5-1.5,1.5h-24.7
		C207.5,171.7,206.9,171,206.9,170.2z M231.6,137.7h-21.7v31h21.7V137.7z"/>
	<path class="st3" d="M158,164h24.8c0.8,0,1.5-0.7,1.5-1.5s-0.7-1.5-1.5-1.5H158c-2.1-0.1-3.7-1.9-3.6-4c0.1-2,1.7-3.5,3.6-3.6h13.8
		c0.8,0,1.5-0.7,1.5-1.5s-0.7-1.5-1.5-1.5H158c-3.8,0.1-6.7,3.3-6.5,7.1C151.6,161,154.4,163.9,158,164L158,164z"/>
	<path class="st2" d="M41.6,163.8c0,0,10.5,10.6,18.5,10.6h31.6c4.6,0,9-1.9,12.1-5.4l11-15H96.3c-0.9-1.4-2.5-2.2-4.2-2.1H79.7
		c-3,0-5.8-1.2-7.9-3.3l-4.7-4.7c-3.1-3.1-7.2-4.8-11.5-4.8H41.6V163.8z"/>
	<path class="st3" d="M91.7,175.9H60.1c-8.5,0-19.1-10.6-19.6-11c-0.3-0.3-0.4-0.6-0.4-1v-24.7c0-0.8,0.7-1.5,1.5-1.5h13.9
		c4.7,0,9.3,1.9,12.6,5.2l4.7,4.7c1.8,1.8,4.3,2.9,6.9,2.9H92c1.9-0.1,3.7,0.7,5,2.1h17.8c0.8,0,1.5,0.7,1.5,1.5
		c0,0.3-0.1,0.6-0.3,0.8l-11,15l-0.1,0.1C101.5,173.8,96.7,175.9,91.7,175.9z M43.1,163.2c2,1.9,10.6,9.8,17,9.8h31.6
		c4.2,0,8.2-1.7,11-4.8l9.2-12.6H96.3c-0.6,0-1.1-0.3-1.3-0.8c-0.7-0.9-1.8-1.4-2.9-1.3H79.7c-3.4,0-6.6-1.3-9-3.7L66,145
		c-2.8-2.8-6.6-4.4-10.5-4.4H43.1V163.2z"/>
	<rect x="16.9" y="136.2" class="st2" width="24.7" height="34"/>
	<path class="st3" d="M41.6,171.7H16.9c-0.8,0-1.5-0.7-1.5-1.5c0,0,0,0,0,0v-34c0-0.8,0.7-1.5,1.5-1.5h24.7c0.8,0,1.5,0.7,1.5,1.5
		v34C43.1,171,42.5,171.7,41.6,171.7C41.6,171.7,41.6,171.7,41.6,171.7z M18.4,168.7h21.7v-31H18.4L18.4,168.7z"/>
	<path class="st3" d="M92,164H67.2c-0.8,0-1.5-0.7-1.5-1.5s0.7-1.5,1.5-1.5H92c2.1-0.1,3.7-1.9,3.6-4c-0.1-2-1.7-3.5-3.6-3.6H78.2
		c-0.8,0-1.5-0.7-1.5-1.5s0.7-1.5,1.5-1.5H92c3.8,0.1,6.7,3.3,6.5,7.1C98.4,161,95.6,163.9,92,164L92,164z"/>
	<rect x="18.4" y="137.7" class="st4" width="21.7" height="31"/>
</g>
</svg>
