<?xml version="1.0" encoding="utf-8"?>
<!-- Generator: Adobe Illustrator 26.0.3, SVG Export Plug-In . SVG Version: 6.00 Build 0)  -->
<svg version="1.1" id="Capa_1" xmlns="http://www.w3.org/2000/svg" xmlns:xlink="http://www.w3.org/1999/xlink" x="0px" y="0px"
	 viewBox="0 0 250 250" style="enable-background:new 0 0 250 250;" xml:space="preserve">
<style type="text/css">
	.st0{fill:#89BB55;}
	.st1{fill:#95B6E5;}
	.st2{fill:#7D2796;}
	.st3{fill:#F17533;}
	.st4{fill:#D62F8A;}
	.st5{fill:none;stroke:#BDBDBD;stroke-width:2;stroke-linecap:round;stroke-linejoin:round;}
</style>
<g>
	<polygon class="st0" points="59.4,180.8 42.3,167.6 25.3,180.8 25.3,200.5 59.4,200.5 	"/>
	<rect x="25.3" y="207.1" class="st0" width="34.1" height="7.1"/>
	<polygon class="st1" points="100.7,154.4 83.7,141.2 66.6,154.4 66.6,200.5 100.7,200.5 	"/>
	<rect x="66.6" y="207.1" class="st1" width="34.1" height="7.1"/>
	<polygon class="st2" points="142.1,141.2 125.1,128 107.9,141.2 107.9,200.5 142.1,200.5 	"/>
	<rect x="107.9" y="207.1" class="st2" width="34.1" height="7.1"/>
	<polygon class="st3" points="183.4,121.4 166.3,108.2 149.3,121.4 149.3,200.5 183.4,200.5 	"/>
	<rect x="149.3" y="207.1" class="st3" width="34.1" height="7.1"/>
	<polygon class="st4" points="224.7,95 207.7,81.9 190.6,95 190.6,200.5 224.7,200.5 	"/>
	<rect x="190.6" y="207.1" class="st4" width="34.1" height="7.1"/>
	<path class="st5" d="M25.8,137.2c0,0,18.7-19.8,57.8-26.4c28.6-4.8,56.4-14.5,85-41.4c14.5-13.6,27.6-22.6,39-27.3"/>
	<circle class="st0" cx="42.4" cy="125.1" r="6"/>
	<circle class="st1" cx="83.7" cy="110.8" r="6"/>
	<circle class="st2" cx="125" cy="98.9" r="6"/>
	<circle class="st3" cx="166.3" cy="71.2" r="6"/>
	<circle class="st4" cx="207.7" cy="41.8" r="6"/>
</g>
</svg>
