<?xml version="1.0" encoding="utf-8"?>
<!-- Generator: Adobe Illustrator 26.1.0, SVG Export Plug-In . SVG Version: 6.00 Build 0)  -->
<svg version="1.1" id="Capa_1" xmlns="http://www.w3.org/2000/svg" xmlns:xlink="http://www.w3.org/1999/xlink" x="0px" y="0px"
	 viewBox="0 0 250 250" style="enable-background:new 0 0 250 250;" xml:space="preserve">
<style type="text/css">
	.st0{fill:#96C061;}
	.st1{fill:#FFFFFF;stroke:#F17533;stroke-width:5;stroke-linecap:round;stroke-linejoin:round;stroke-miterlimit:10;}
</style>
<path class="st0" d="M178.2,31.8H43.4c-4.5,0-8,3.7-8,8.2l0,0v177.5c0,4.5,3.7,8,8,8h134.7c4.5,0,8-3.7,8-8V40
	C186.2,35.5,182.7,32,178.2,31.8L178.2,31.8z M174.8,208.4c0,4.5-3.7,8-8,8H55c-4.5,0-8-3.7-8-8V51.4c0-4.5,3.5-8,8-8h111.8
	c4.5,0,8,3.7,8,8V208.4z"/>
<path class="st0" d="M90.1,24.5h41.4c4.5,0,8,3.5,8,8v10.6c0,4.5-3.5,8-8,8H90.1c-4.5,0-8-3.5-8-8V32.5
	C82.1,28.2,85.6,24.5,90.1,24.5z"/>
<path class="st0" d="M60.9,85.3h99.6c3.3,0,6.1,2.7,6.1,6.1l0,0c0,3.3-2.7,6.1-6.1,6.1H60.9c-3.3,0-6.1-2.7-6.1-6.1l0,0
	C54.8,88,57.6,85.3,60.9,85.3z"/>
<path class="st0" d="M60.9,109.8h99.6c3.3,0,6.1,2.7,6.1,6.1l0,0c0,3.3-2.7,6.1-6.1,6.1H60.9c-3.3,0-6.1-2.7-6.1-6.1l0,0
	C54.8,112.5,57.6,109.8,60.9,109.8z"/>
<path class="st0" d="M60.9,134.1h99.6c3.3,0,6.1,2.7,6.1,6.1l0,0c0,3.3-2.7,6.1-6.1,6.1H60.9c-3.3,0-6.1-2.7-6.1-6.1l0,0
	C54.8,136.9,57.6,134.1,60.9,134.1z"/>
<path class="st0" d="M60.9,158.6h99.6c3.3,0,6.1,2.7,6.1,6.1l0,0c0,3.3-2.7,6.1-6.1,6.1H60.9c-3.3,0-6.1-2.7-6.1-6.1l0,0
	C54.8,161.4,57.6,158.6,60.9,158.6z"/>
<g>
	<g>
		<polygon class="st1" points="223.8,176.3 171.4,149.3 171.2,149.4 177.4,208.1 192.5,193.6 207.1,214.9 219.1,206.7 204.7,185.2 
					"/>
	</g>
</g>
</svg>
