<?xml version="1.0" encoding="utf-8"?>
<!-- Generator: Adobe Illustrator 26.0.3, SVG Export Plug-In . SVG Version: 6.00 Build 0)  -->
<svg version="1.1" id="Capa_1" xmlns="http://www.w3.org/2000/svg" xmlns:xlink="http://www.w3.org/1999/xlink" x="0px" y="0px"
	 viewBox="0 0 250 250" style="enable-background:new 0 0 250 250;" xml:space="preserve">
<style type="text/css">
	.st0{fill:#E68F47;}
	.st1{fill:#7D2796;}
	.st2{fill:#A3C771;}
</style>
<path class="st0" d="M114.3,100.2l-86.6,81.5c-1,1-1,2.6,0,3.6c0,0,0,0,0,0l13.8,13.8c1,1,2.6,1.1,3.6,0.1c0,0,0.1-0.1,0.1-0.1
	l81.5-86.6c1-1,1-2.6,0-3.6l-8.7-8.7C117.1,99.3,115.4,99.2,114.3,100.2C114.4,100.1,114.3,100.1,114.3,100.2z"/>
<path class="st1" d="M197.6,197.4c-0.5-0.5-1.2-0.8-1.9-0.8h-85.8c-0.7,0-1.4,0.3-1.9,0.8c-0.5,0.5-0.8,1.2-0.8,1.9v9.6h-9.8v9.6
	H82.4v9.6h140.7v-9.6h-14.9v-9.6h-9.8v-9.6C198.4,198.6,198.1,197.9,197.6,197.4z"/>
<path class="st0" d="M101.6,73.9l49.8,49.8l34.1-34.1c0.3-0.3,0.7-0.6,1.1-0.9l-50-50c-0.3,0.4-0.6,0.7-0.9,1.1L101.6,73.9z"/>
<path class="st2" d="M186.5,88.7c-0.4,0.3-0.7,0.6-1.1,0.9l-34.1,34.1l-0.5,0.5c-4.1,4.1-4.1,10.7,0,14.8c4.1,4.1,10.7,4.1,14.8,0
	l34.6-34.6c4.1-4.1,4-10.8-0.1-14.8C196.5,86,190.7,85.6,186.5,88.7z"/>
<path class="st2" d="M120.8,25L86.3,59.6c-4,4.2-3.7,10.9,0.5,14.8c4,3.8,10.3,3.8,14.4,0l0.5-0.5l34.1-34.1
	c0.3-0.3,0.6-0.7,0.9-1.1c3.5-4.6,2.5-11.2-2.1-14.7C130.3,21,124.5,21.4,120.8,25z"/>
</svg>
