<?xml version="1.0" encoding="utf-8"?>
<!-- Generator: Adobe Illustrator 26.0.3, SVG Export Plug-In . SVG Version: 6.00 Build 0)  -->
<svg version="1.1" id="Capa_1" xmlns="http://www.w3.org/2000/svg" xmlns:xlink="http://www.w3.org/1999/xlink" x="0px" y="0px"
	 viewBox="0 0 250 250" style="enable-background:new 0 0 250 250;" xml:space="preserve">
<style type="text/css">
	.st0{fill:#0E223F;stroke:#0E223F;stroke-width:0.25;stroke-miterlimit:10;}
	.st1{fill:#8EB8E0;}
	.st2{clip-path:url(#SVGID_00000158012724887887586990000001512650102608201148_);}
	.st3{fill:#0E223F;}
	.st4{clip-path:url(#SVGID_00000171717648173068516190000018423316687177996475_);}
	.st5{fill:#FFFFFF;}
	.st6{fill:#284470;}
</style>
<g id="Capa_30">
	<path class="st0" d="M166.2,118.9l-0.2-0.3l-1.6-2.9c-0.1-0.3-0.2-0.5-0.3-0.8c-0.4-0.7-0.8-1.4-1.1-2.1c-0.7-1.2-1.3-2.4-1.9-3.7
		c0.1,0.1,0.3,0.2,0.4,0.4c0.3,0.5,0.5,0.9,0.8,1.4c1.3,2.4,2.6,4.9,3.9,7.3C166.2,118.3,166.3,118.6,166.2,118.9z"/>
	<path class="st0" d="M166.1,116.3c-1.1-1.9-2.1-3.9-3.2-5.9h0.1c0.2,0.2,0.4,0.4,0.5,0.6c0.8,1.5,1.7,3,2.5,4.6
		c0.1,0.2,0.2,0.5,0.2,0.7L166.1,116.3z"/>
	<path class="st0" d="M111.6,175.8c0.9,1.7,1.9,3.5,2.8,5.2v0.1c-0.2-0.1-0.3-0.3-0.4-0.4c-0.8-1.5-1.7-3-2.4-4.5
		C111.6,176.1,111.6,175.9,111.6,175.8L111.6,175.8z"/>
	<path class="st0" d="M123.6,177.5c0,0,0.1,0.2,0.2,0.3l2.3,4.3c0.1,0.2,0.1,0.4,0.2,0.6h-0.1l-0.2-0.2c-0.8-1.5-1.7-3-2.4-4.5
		c-0.1-0.1-0.1-0.3-0.1-0.5L123.6,177.5z"/>
	<path class="st0" d="M115.9,173.8c0.1,0,0.3,0.1,0.3,0.2l1.7,3.1l0,0c-0.2-0.1-0.4-0.2-0.4-0.4
		C116.9,175.8,116.4,174.8,115.9,173.8L115.9,173.8z"/>
	<path class="st0" d="M128.2,158.3c0.2,0.1,0.3,0.3,0.5,0.4c0.5,0.9,1,1.9,1.5,2.8v0.1c-0.1-0.1-0.3-0.2-0.4-0.4
		C129.2,160.3,128.7,159.3,128.2,158.3L128.2,158.3z"/>
	<path class="st0" d="M134.3,164.7l-2-3.8l0,0c0.2,0.1,0.3,0.3,0.4,0.4c0.5,1,1.1,2,1.6,3C134.4,164.5,134.4,164.6,134.3,164.7
		L134.3,164.7z"/>
	<path class="st0" d="M126.1,156.6c0.7,1.3,1.4,2.5,2,3.8l0,0c-0.2-0.1-0.3-0.3-0.4-0.4l-1.6-2.9
		C125.9,156.9,125.9,156.7,126.1,156.6z"/>
	<path class="st0" d="M122.4,185.8c-0.1,0-0.3-0.2-0.3-0.3c-0.5-0.9-0.9-1.7-1.4-2.7c0.1,0.1,0.3,0.2,0.4,0.3l1.4,2.6L122.4,185.8z"
		/>
	<path class="st0" d="M116.4,182.3c-0.2-0.1-0.3-0.2-0.4-0.4l-1.6-2.9l0,0c0.1,0.1,0.3,0.2,0.4,0.3
		C115.4,180.4,115.9,181.3,116.4,182.3L116.4,182.3z"/>
	<path class="st0" d="M116.6,180.2c0.2,0.1,0.3,0.3,0.4,0.4c0.5,0.9,1,1.9,1.6,2.9l0,0c-0.1-0.1-0.3-0.2-0.4-0.4
		c-0.5-0.9-1-1.9-1.5-2.8C116.6,180.4,116.6,180.4,116.6,180.2z"/>
	<path class="st0" d="M120.5,184.9c-0.2-0.1-0.3-0.3-0.4-0.4c-0.5-0.9-1-1.8-1.5-2.7c0-0.1,0-0.1,0-0.2c0.1,0.1,0.3,0.2,0.4,0.3
		c0.6,1,1.1,2,1.7,3L120.5,184.9z"/>
	<path class="st0" d="M121.9,179.7c-0.1-0.1-0.3-0.2-0.4-0.4c-0.5-1-1-1.9-1.6-2.9l0,0c0.1,0.1,0.3,0.2,0.4,0.3
		C120.9,177.8,121.4,178.7,121.9,179.7L121.9,179.7z"/>
	<path class="st0" d="M124,181c-0.1-0.1-0.3-0.2-0.4-0.4c-0.5-0.9-1-1.8-1.5-2.8c0-0.1,0-0.1,0-0.2c0.2,0.1,0.3,0.2,0.5,0.4l1.6,2.9
		L124,181z"/>
	<path class="st0" d="M119.8,178.5c-0.1-0.1-0.3-0.2-0.4-0.3c-0.5-1-1.1-1.9-1.6-2.9l0,0c0.1,0.1,0.3,0.2,0.4,0.3
		C118.8,176.5,119.4,177.5,119.8,178.5L119.8,178.5z"/>
	<path class="st0" d="M130.2,159.5c0.2,0.1,0.3,0.3,0.5,0.5c0.5,0.9,1,1.9,1.5,2.8c0,0.1,0,0.1,0,0.2c-0.2-0.1-0.3-0.3-0.5-0.5
		c-0.5-0.9-1-1.9-1.5-2.8C130.2,159.7,130.2,159.6,130.2,159.5z"/>
	<path class="st0" d="M165.8,120.7c-0.6-0.8-1-1.8-1.3-2.7C165.1,118.7,165.6,119.7,165.8,120.7z"/>
	<path class="st0" d="M164.6,123.8c-0.3-0.8-0.9-1.4-1-2.2C164.1,121.9,164.8,123.4,164.6,123.8z"/>
	<path class="st0" d="M112.4,179.8c-0.7-0.5-1.2-1.4-1.2-2.3L112.4,179.8z"/>
	<path class="st0" d="M140.9,131c-0.4-0.7-0.8-1.4-0.9-2.1C140.4,129.2,141.1,130.7,140.9,131z"/>
	<path class="st0" d="M144.3,124.2c-0.6-0.6-1.1-1.8-0.9-2.1C143.8,122.7,144.1,123.4,144.3,124.2z"/>
	<path class="st0" d="M136.7,135.5c0.8,1,1.1,1.8,0.9,2.2l-0.5-0.9c-0.2-0.3-0.3-0.6-0.5-0.9C136.7,135.8,136.7,135.7,136.7,135.5z"
		/>
	<path class="st0" d="M134.4,144.3c-0.5-0.5-1.1-1.8-0.9-2.1C133.9,142.7,134.5,144,134.4,144.3z"/>
	<path class="st0" d="M147.5,117.5c-0.5-0.6-0.8-1.3-0.9-2.1C147,115.8,147.6,117.2,147.5,117.5z"/>
	<path class="st0" d="M160.7,111c-0.1-0.1-0.2-0.2-0.3-0.3c-0.1-0.1-0.1-0.2-0.2-0.3l-1-1.8l0,0c0.1,0,0.3,0,0.3,0.2
		C159.9,109.5,160.3,110.2,160.7,111L160.7,111z"/>
	<path class="st0" d="M130.1,148.8c0.6,0.7,1.1,1.8,0.9,2.1C130.5,150.3,130,149.1,130.1,148.8z"/>
	<path class="st0" d="M127.7,157.3c-0.6-0.5-1.1-1.7-1-2l0.2,0.2c0.3,0.5,0.5,1,0.8,1.5C127.7,157,127.7,157.2,127.7,157.3z"/>
	<path class="st0" d="M123.3,161.7c0.5,0.4,1,1.7,0.9,2C123.7,163.2,123.1,161.9,123.3,161.7z"/>
	<path class="st0" d="M115.7,175.9c-0.6-0.7-1-1.5-1.4-2.3l0,0c0.1,0,0.2,0,0.3,0.1C114.9,174.5,115.3,175.2,115.7,175.9
		C115.7,175.9,115.7,175.9,115.7,175.9z"/>
	<path class="st0" d="M119.7,167.9c0.6,0.7,1,1.7,0.9,2C120.1,169.4,119.6,168.2,119.7,167.9z"/>
	<path class="st0" d="M125.1,178.3c-0.6-0.7-1-1.7-0.8-1.9C124.7,176.7,125.3,178,125.1,178.3z"/>
	<path class="st0" d="M128.9,172.5c-0.5-0.5-1-1.7-0.8-1.9C128.6,171.1,129.1,172.3,128.9,172.5z"/>
	<path class="st0" d="M135.9,159.5c0.6,0.6,1,1.7,0.8,1.9C136.3,160.9,135.7,159.7,135.9,159.5z"/>
	<path class="st0" d="M132,165c0.5,0.6,1,1.7,0.8,1.9C132.4,166.5,131.8,165.3,132,165z"/>
	<path class="st0" d="M165.3,122.2c-0.6-0.6-1.2-2-1-2.4C164.7,120.6,165.1,121.4,165.3,122.2z"/>
	<path class="st0" d="M140.7,155.9c-0.4-0.4-1-1.7-0.8-1.9C140.3,154.5,140.8,155.7,140.7,155.9z"/>
	<path class="st0" d="M152.7,139.8c-0.5-0.6-1-1.7-0.8-1.9C152.3,138.3,152.8,139.5,152.7,139.8z"/>
	<path class="st0" d="M156.4,108.2c0.1,0,0.2,0,0.3,0.2c0.3,0.5,0.6,1,0.8,1.6l0,0c-0.1,0-0.2,0-0.3-0.2
		C156.9,109.3,156.6,108.8,156.4,108.2C156.3,108.3,156.4,108.3,156.4,108.2z"/>
	<path class="st0" d="M159.9,127.3c0.7,0.9,1,1.7,0.8,2c-0.3-0.6-0.6-1.1-0.9-1.7C159.8,127.5,159.9,127.4,159.9,127.3z"/>
	<path class="st0" d="M155.9,132.6c0.6,0.7,1,1.7,0.8,1.9C156.2,134,155.7,132.9,155.9,132.6z"/>
	<path class="st0" d="M144.6,150.5c-0.6-0.8-0.9-1.7-0.8-1.9C144.2,149,144.8,150.3,144.6,150.5z"/>
	<path class="st0" d="M147.8,143.3c0.4,0.4,1,1.6,0.8,1.8C148.3,144.8,147.7,143.5,147.8,143.3z"/>
	<path class="st0" d="M124.6,181.8c0.3,0.6,0.7,1.3,1,1.9c0.1,0.1,0.1,0.3,0,0.4C125.1,183.4,124.7,182.7,124.6,181.8L124.6,181.8z"
		/>
	<path class="st0" d="M146.8,118.8c-0.6-0.7-1.1-1.8-0.9-2.1c0.4,0.7,0.7,1.4,1,2.1L146.8,118.8z"/>
	<path class="st0" d="M144.9,122.8c-0.5-0.6-0.8-1.3-0.9-2.1C144.4,121.2,145,122.6,144.9,122.8z"/>
	<path class="st0" d="M142.3,128.3c-0.5-0.6-0.9-1.3-1-2.1C141.8,126.8,142.2,127.5,142.3,128.3z"/>
	<path class="st0" d="M139.4,130.2c0.6,0.9,1,1.8,0.9,2.1c-0.4-0.7-0.8-1.3-1-2.1L139.4,130.2z"/>
	<path class="st0" d="M134.8,139.5c0.5,0.5,1.1,1.8,0.9,2.1C135.1,141.1,134.6,139.8,134.8,139.5z"/>
	<path class="st0" d="M142,124.8c0.5,0.6,1.1,1.8,0.9,2.1C142.4,126.4,141.9,125.1,142,124.8z"/>
	<path class="st0" d="M136.3,140.3c-0.7-1.1-1-1.7-0.8-2.1c0.1,0.3,0.2,0.5,0.4,0.7c0.1,0.2,0.4,0.7,0.6,1c0,0.1,0,0.3,0,0.4
		L136.3,140.3z"/>
	<path class="st0" d="M137,139c-0.6-0.8-1.1-1.8-0.9-2.1C136.6,137.4,137.2,138.7,137,139z"/>
	<path class="st0" d="M138.7,131.5c0.5,0.6,1.1,1.8,0.9,2.1C139.1,133,138.8,132.3,138.7,131.5z"/>
	<path class="st0" d="M138.1,132.9c0.5,0.6,0.9,1.3,0.9,2.1C138.5,134.4,138.2,133.6,138.1,132.9z"/>
	<path class="st0" d="M134.1,140.9c0.5,0.6,1.1,1.8,0.9,2.1C134.6,142.5,134,141.2,134.1,140.9z"/>
	<path class="st0" d="M158.9,110.3c-0.1,0-0.2,0-0.3-0.2c-0.3-0.6-0.6-1.2-1-1.8l0,0c0.1,0,0.2,0,0.3,0.2L158.9,110.3L158.9,110.3z"
		/>
	<path class="st0" d="M151.4,112.1c-0.3-0.5-0.5-0.9-0.7-1.4c0,0,0-0.1,0-0.2s0.2,0,0.2,0.1c0.2,0.4,0.5,0.8,0.7,1.2
		c0.3,0.6,0,0.2,0,0.3L151.4,112.1z"/>
	<path class="st0" d="M140.7,127.5c0.5,0.6,1.1,1.8,0.9,2.1C141.1,129,140.8,128.3,140.7,127.5z"/>
	<path class="st0" d="M143.6,125.5c-0.5-0.6-0.8-1.3-0.9-2.1C143,123.8,143.7,125.3,143.6,125.5z"/>
	<path class="st0" d="M146.2,120.2c-0.5-0.6-1.1-1.9-0.9-2.1C145.8,118.6,146.1,119.4,146.2,120.2z"/>
	<path class="st0" d="M144.6,119.4c0.5,0.5,1.1,1.8,0.9,2.1C145.1,121,144.4,119.7,144.6,119.4z"/>
	<path class="st0" d="M137.4,134.2c0.5,0.6,1.1,1.8,0.9,2.1C137.8,135.7,137.5,135,137.4,134.2z"/>
	<path class="st0" d="M131.8,149.6c-0.5-0.6-0.8-1.3-0.9-2.1C131.1,147.8,131.8,149.3,131.8,149.6z"/>
	<path class="st0" d="M133.7,145.6c-0.6-0.6-1.1-1.8-0.9-2.1C133.3,144.1,133.6,144.8,133.7,145.6z"/>
	<path class="st0" d="M133,146.9c-0.6-0.7-1-1.8-0.9-2C132.7,145.5,133.2,146.7,133,146.9z"/>
	<path class="st0" d="M132.4,148.2c-0.5-0.6-0.8-1.3-0.9-2.1C132,146.7,132.3,147.5,132.4,148.2z"/>
	<path class="st0" d="M129,154.7c-0.7-0.8-1.1-1.8-0.9-2.1l0.6,1.1c0.1,0.2,0.2,0.4,0.3,0.6C129.1,154.5,129.1,154.6,129,154.7z"/>
	<path class="st0" d="M128.8,151.4c0.5,0.6,1.1,1.8,0.9,2.1C129.1,152.9,128.8,152.2,128.8,151.4z"/>
	<path class="st0" d="M130.3,152.1c-0.5-0.5-1.1-1.8-0.9-2C130,150.7,130.3,151.4,130.3,152.1z"/>
	<path class="st0" d="M125.5,161.2c-0.6-0.7-1-1.8-0.9-2C125,159.5,125.7,160.9,125.5,161.2z"/>
	<path class="st0" d="M128.4,156c-0.5-0.6-0.8-1.3-0.9-2C127.8,154.4,128.4,155.8,128.4,156z"/>
	<path class="st0" d="M126.2,159.9c-0.5-0.6-0.8-1.3-0.9-2C125.8,158.2,126.4,159.6,126.2,159.9z"/>
	<path class="st0" d="M124.8,162.5c-0.4-0.6-0.7-1.3-0.9-2C124.4,160.8,125,162.2,124.8,162.5z"/>
	<path class="st0" d="M122,167.4c-0.5-0.7-1-1.7-0.9-2C121.5,165.6,122.2,167.2,122,167.4z"/>
	<path class="st0" d="M121.3,168.7c-0.5-0.6-1-1.7-0.9-2C120.8,167,121.5,168.4,121.3,168.7z"/>
	<path class="st0" d="M123.4,165c-0.4-0.6-0.7-1.3-0.9-2C123,163.3,123.6,164.7,123.4,165z"/>
	<path class="st0" d="M163.9,124.9c-0.6-0.6-1-1.7-0.9-2c0.3,0.6,0.7,1.2,1,1.8C164.1,124.7,164,124.8,163.9,124.9z"/>
	<path class="st0" d="M122.7,166.2c-0.5-0.5-0.8-1.2-0.9-2C122.3,164.5,122.9,165.9,122.7,166.2z"/>
	<path class="st0" d="M119.1,172.4c-0.8-1.1-1-1.7-0.8-2c0.3,0.6,0.6,1.2,0.9,1.7C119.3,172.1,119.2,172.2,119.1,172.4z"/>
	<path class="st0" d="M119,169.1c0.6,0.8,1,1.7,0.9,2C119.5,170.7,118.8,169.4,119,169.1z"/>
	<path class="st0" d="M118.4,173.5c-0.5-0.6-1-1.7-0.9-2C118,171.9,118.6,173.2,118.4,173.5z"/>
	<path class="st0" d="M147.3,114.2c0.6,0.7,1,1.7,0.9,2C147.7,115.8,147.1,114.4,147.3,114.2z"/>
	<path class="st0" d="M127.4,171.7c0.4,0.6,0.7,1.3,0.9,2C127.7,173.2,127.2,172,127.4,171.7z"/>
	<path class="st0" d="M127.4,174.8c-0.5-0.6-1-1.7-0.8-2l0.9,1.7C127.5,174.5,127.5,174.7,127.4,174.8z"/>
	<path class="st0" d="M125.9,177.1c-0.5-0.6-1-1.7-0.8-1.9C125.4,175.6,126,176.9,125.9,177.1z"/>
	<path class="st0" d="M131.2,166.1c0.6,0.7,1,1.7,0.8,1.9C131.5,167.5,131,166.4,131.2,166.1z"/>
	<path class="st0" d="M116.8,172.7c0.4,0.4,1,1.7,0.9,1.9C117.3,174.3,116.6,173,116.8,172.7z"/>
	<path class="st0" d="M162.3,124.1c0.4,0.4,1,1.7,0.8,1.9C162.8,125.7,162.2,124.4,162.3,124.1z"/>
	<path class="st0" d="M131.2,169.1c-0.4-0.5-1-1.7-0.8-1.9C130.8,167.6,131.4,168.9,131.2,169.1z"/>
	<path class="st0" d="M126.6,176c-0.4-0.6-0.7-1.2-0.9-1.9h0.2c0.4,0.6,0.7,1.2,0.9,1.9H126.6z"/>
	<path class="st0" d="M137.5,160.3c-0.5-0.5-1-1.7-0.8-1.9C137.2,158.9,137.7,160.1,137.5,160.3z"/>
	<path class="st0" d="M146.2,145.4c0.5,0.5,1,1.7,0.8,1.8C146.6,146.9,146.1,145.6,146.2,145.4z"/>
	<path class="st0" d="M132.8,164c0.5,0.5,1,1.7,0.8,1.9C133.2,165.5,132.6,164.2,132.8,164z"/>
	<path class="st0" d="M134.3,161.7c0.5,0.5,1,1.7,0.8,1.9C134.8,163.3,134.2,162,134.3,161.7z"/>
	<path class="st0" d="M139.1,155.1c0.5,0.6,1,1.7,0.8,1.9C139.5,156.7,138.9,155.4,139.1,155.1z"/>
	<path class="st0" d="M128.9,169.4c0.4,0.6,0.7,1.2,0.9,1.9C129.3,171,128.7,169.8,128.9,169.4z"/>
	<path class="st0" d="M129.7,168.4c0.6,0.7,1,1.7,0.8,1.9C130.1,170,129.5,168.6,129.7,168.4z"/>
	<path class="st0" d="M137.5,157.3c0.6,0.8,1,1.7,0.8,1.9C137.9,158.9,137.3,157.6,137.5,157.3z"/>
	<path class="st0" d="M151,139c0.6,0.6,1,1.6,0.8,1.9C151.4,140.3,151.2,139.7,151,139z"/>
	<path class="st0" d="M139.1,158.1c-0.5-0.5-1-1.7-0.8-1.8C138.8,156.7,139.2,157.9,139.1,158.1z"/>
	<path class="st0" d="M135.1,160.6c0.5,0.6,1,1.7,0.8,1.9C135.5,162.1,135,160.8,135.1,160.6z"/>
	<path class="st0" d="M140.7,152.9c0.4,0.6,0.7,1.2,0.9,1.9C141,154.5,140.5,153.2,140.7,152.9z"/>
	<path class="st0" d="M113.2,176.5c-0.5-0.6-1-1.7-0.8-1.9C112.7,175,113.3,176.2,113.2,176.5z"/>
	<path class="st0" d="M142.3,153.8c-0.5-0.6-1-1.7-0.8-1.9C141.9,152.3,142.4,153.5,142.3,153.8z"/>
	<path class="st0" d="M148.1,113.1c0.6,0.7,1,1.7,0.8,1.9C148.4,114.4,147.9,113.3,148.1,113.1z"/>
	<path class="st0" d="M159.1,128.5c0.6,0.5,1,1.7,0.8,1.9C159.5,129.8,159.2,129.1,159.1,128.5z"/>
	<path class="st0" d="M148.7,142.2c0.5,0.5,1,1.7,0.8,1.8C149,143.7,148.5,142.4,148.7,142.2z"/>
	<path class="st0" d="M145.4,146.5c0.4,0.5,1,1.7,0.8,1.8C145.8,148,145.3,146.7,145.4,146.5z"/>
	<path class="st0" d="M149.5,141.1c0.6,0.8,0.9,1.7,0.8,1.9C149.8,142.6,149.3,141.4,149.5,141.1z"/>
	<path class="st0" d="M147,144.4c0.5,0.6,1,1.7,0.8,1.8C147.4,145.7,146.9,144.6,147,144.4z"/>
	<path class="st0" d="M145.4,149.4c-0.5-0.6-1-1.7-0.8-1.9C145.1,148,145.6,149.2,145.4,149.4z"/>
	<path class="st0" d="M143,149.7c0.5,0.6,0.9,1.7,0.8,1.8C143.5,151.3,142.9,150,143,149.7z"/>
	<path class="st0" d="M162.3,127.1c-0.4-0.6-0.6-1.2-0.8-1.9C162,125.6,162.5,126.8,162.3,127.1z"/>
	<path class="st0" d="M151.1,142c-0.5-0.6-1-1.7-0.8-1.8C150.6,140.4,151.2,141.7,151.1,142z"/>
	<path class="st0" d="M161.5,128.1c-0.6-0.8-0.9-1.7-0.8-1.8C161.2,126.8,161.7,127.9,161.5,128.1z"/>
	<path class="st0" d="M153.5,138.8c-0.5-0.5-1-1.7-0.8-1.8C153,137.2,153.6,138.5,153.5,138.8z"/>
	<path class="st0" d="M153.5,135.8c0.3,0.6,0.6,1.1,0.9,1.7c0,0,0,0.2,0,0.3C153.7,137.1,153.3,136.1,153.5,135.8z"/>
	<path class="st0" d="M155.1,136.7c-0.4-0.6-0.7-1.2-0.9-1.9l0.2-0.1c0.3,0.6,0.6,1.1,0.9,1.7C155.2,136.4,155.1,136.5,155.1,136.7z
		"/>
	<path class="st0" d="M155.9,135.5c-0.5-0.6-1-1.7-0.8-1.8C155.4,134,156.1,135.2,155.9,135.5z"/>
	<path class="st0" d="M157.5,133.5c-0.4-0.6-0.7-1.2-0.9-1.8C157.1,131.9,157.7,133.2,157.5,133.5z"/>
	<path class="st0" d="M158.3,132.4c-0.6-0.7-1-1.7-0.8-2c0.3,0.5,0.5,1,0.8,1.5c0,0,0,0.1,0,0.1
		C158.4,132.2,158.4,132.3,158.3,132.4z"/>
	<path class="st0" d="M142.3,150.8c0.5,0.6,0.9,1.7,0.8,1.9C142.7,152.4,142.1,151,142.3,150.8z"/>
	<path class="st0" d="M158.3,129.4c0.5,0.6,1,1.7,0.8,1.9l-0.9-1.7C158.2,129.7,158.3,129.5,158.3,129.4z"/>
	<path class="st0" d="M149.7,113.9c-0.5-0.7-0.9-1.6-0.7-1.8C149.4,112.6,149.9,113.6,149.7,113.9z"/>
	<path class="st0" d="M124,183.3c0.3,0.5,0.5,1,0.8,1.5c0,0.1,0,0.2,0,0.3c0,0-0.2,0-0.2-0.1l-0.7-1.3
		C123.9,183.5,123.9,183.4,124,183.3L124,183.3z"/>
	<path class="st0" d="M122.7,183.9c0.1,0,0.2,0.1,0.3,0.2c0.2,0.4,0.5,0.8,0.7,1.2c0,0,0,0.2,0,0.3s-0.2,0-0.2-0.1
		c-0.3-0.5-0.5-1-0.8-1.5L122.7,183.9z"/>
	<path class="st0" d="M150.5,112.9l-0.8-1.4c0,0,0-0.2,0-0.3s0.2,0,0.2,0.1c0.2,0.4,0.5,0.8,0.7,1.2c0,0.1,0,0.2,0,0.3L150.5,112.9z
		"/>
	<path class="st0" d="M156.1,110.1c-0.1,0-0.2-0.1-0.3-0.1c-0.3-0.5-0.5-0.9-0.8-1.4l0,0c0.1,0,0.2,0,0.3,0.1
		C155.6,109.1,155.8,109.6,156.1,110.1L156.1,110.1z"/>
	<path class="st0" d="M113.5,174.8c-0.1-0.2-0.2-0.4-0.3-0.6c-0.1-0.2,0-0.2,0-0.3s0.2,0,0.2,0.1c0.3,0.4,0.5,0.8,0.7,1.3
		c0,0,0,0.1,0,0.2c0,0.1-0.2,0-0.2-0.1C113.8,175.3,113.6,175,113.5,174.8L113.5,174.8z"/>
	<path class="st0" d="M153.9,108.8c0,0,0.2,0,0.3,0.2c0.2,0.4,0.5,0.8,0.7,1.2c0,0,0,0.1,0,0.2s-0.2,0-0.2,0
		c-0.3-0.5-0.5-0.9-0.7-1.4L153.9,108.8z"/>
	<path class="st0" d="M153.1,110.1c-0.1-0.2-0.2-0.4-0.3-0.6c0-0.1,0-0.1,0-0.2c0.1,0,0.2,0,0.2,0c0.2,0.4,0.5,0.8,0.7,1.2
		c0,0,0,0.2,0,0.2c0,0.1-0.2,0-0.2-0.1C153.4,110.5,153.2,110.2,153.1,110.1L153.1,110.1z"/>
	<path class="st0" d="M152,110.6l-0.3-0.6c0,0,0-0.2,0-0.2c0-0.1,0.2,0,0.2,0c0.2,0.4,0.5,0.8,0.7,1.2c0,0,0,0.1,0,0.2s-0.2,0-0.2,0
		C152.3,111.3,152.1,110.8,152,110.6z"/>
	<path class="st1" d="M91.4,102.1H48C37.9,65,62.9,35.6,95.1,35.6S154.6,71.1,141,102L91.4,102.1z"/>
	<g>
		<defs>
			<path id="SVGID_1_" d="M94.9,33.4c-28.5,0-51.6,23.1-51.6,51.6s23.1,51.6,51.6,51.6c28.5,0,51.6-23.1,51.6-51.6
				C146.5,56.6,123.4,33.5,94.9,33.4z M94.9,38.1c18.2,0,34.8,10.5,42.5,27c-1.7,1.8-3.4,3.7-5.1,5.6c-2.3-0.3-4.7-0.7-7-0.9
				c-1.3-0.1-2.4,1-2.4,2.3s1,2.4,2.3,2.4l3.4,0.5c-1.1,1.3-2.3,2.6-3.4,3.9c-1.8-0.3-3.8-0.7-5.6-0.9c-1.3,0-2.4,0.9-2.5,2.2
				c0,1.3,0.9,2.4,2.2,2.5l2.4,0.4c-1.2,1.4-2.3,2.9-3.5,4.3h-5.8c-1.3,0.1-2.3,1.2-2.2,2.5c0.1,1.3,1.2,2.3,2.5,2.2h2.1
				c-1.2,1.6-2.3,3.1-3.4,4.7h-5.9c-1.3,0.2-2.2,1.3-2.1,2.6c0.1,1.2,1.1,2,2.3,2.1h2.5c-1,1.6-2,3.1-3,4.7h-5.6
				c-1.3,0.1-2.3,1.2-2.2,2.5c0.1,1.3,1.2,2.3,2.5,2.2l0,0h2.7c-0.9,1.6-1.7,3.1-2.5,4.7h-5.1c-1.3,0.1-2.3,1.2-2.2,2.5
				c0.1,1.3,1.2,2.3,2.5,2.2l0,0h2.7c-0.7,1.6-1.3,3.1-1.9,4.7H89c-1.3,0.2-2.2,1.3-2.1,2.6c0.1,1.2,1.1,2,2.3,2.1h5.1
				c-0.2,0.8-0.4,1.6-0.7,2.3c-17.5-0.5-33.2-10.7-40.8-26.5c0.3-2.5,0.7-5.1,1-7.7l5.2-5.5l1,2.9c0.5,1.2,1.9,1.8,3.1,1.3
				c1.1-0.4,1.7-1.7,1.4-2.8l-1.8-5.3l3.1-3.5l1.1,3.4c0.4,1.2,1.7,1.9,3,1.5c1.2-0.4,1.9-1.7,1.5-3l0,0l-2-5.9
				c1.3-1.5,2.5-2.9,3.7-4.4l0.8,2.4c0.5,1.2,1.9,1.8,3.1,1.3c1.1-0.5,1.7-1.6,1.4-2.8l-1.8-5.4c1.2-1.7,2.4-3.3,3.6-4.9l0.9,2.4
				c0.4,1.2,1.7,1.9,3,1.5c1.2-0.4,1.9-1.7,1.5-3l-2-5.9c0.8-1.3,1.6-2.7,2.3-4l1.2,2.4c0.4,1.2,1.7,1.9,3,1.5
				c1.2-0.4,1.9-1.7,1.5-3c-0.1-0.2-0.2-0.4-0.3-0.6l-2.8-5.5c0.6-1.2,1.1-2.4,1.7-3.6l0.7,1c0.7,1.1,2.1,1.4,3.2,0.7
				c1.1-0.7,1.4-2.1,0.7-3.2c-0.1-0.1-0.2-0.2-0.2-0.3l-2.5-3.4c0.6-1.9,1.1-3.8,1.6-5.8L94.9,38.1z M88.6,38.5
				c-0.3,1-0.6,2.1-0.9,3.1H83c-1.3,0.1-2.3,1.2-2.2,2.5c0.1,1.3,1.2,2.3,2.5,2.2l0,0h2.9c-0.5,1.2-1,2.3-1.5,3.5h-7.4
				c-1.3,0.1-2.3,1.2-2.2,2.5c0.1,1.3,1.2,2.3,2.5,2.2h4.9c-0.8,1.5-1.7,3-2.6,4.5c-2.3-0.3-4.8-0.7-7.1-1c-1.3,0-2.4,1-2.4,2.3
				c0,1.3,1,2.4,2.3,2.4l4.5,0.7c-1.1,1.7-2.3,3.4-3.6,5.1c-2.6-0.6-5.2-1.7-7.7-2.1c-1.2,0-2.2,0.9-2.4,2c-0.1,1.2,0.6,2.2,1.7,2.6
				l5.2,1.5c-1.4,1.7-2.8,3.5-4.3,5.2c-2.1-0.8-4.2-1.4-6.3-2c-1.3,0.2-2.2,1.4-2,2.7c0.1,0.8,0.7,1.5,1.5,1.8l3.5,1.2l-3.1,3.4
				c-2.2-0.8-4.5-1.5-6.8-2.1c-1.3,0.1-2.3,1.2-2.2,2.5c0.1,1,0.7,1.8,1.6,2.1l3.9,1.3c-1.5,1.5-2.9,3.1-4.3,4.6l-2.9-0.7
				c-0.4-2.4-0.6-4.9-0.6-7.4C48.2,61.6,65.4,41.8,88.6,38.5z M139.4,70c8.3,24.5-4.8,51.2-29.4,59.5c-1.9,0.7-3.9,1.2-5.9,1.6
				c0-0.7-0.4-1.4-0.9-1.8l-3-2.7c0.6-1.7,1.4-3.4,2.1-5.1l2.8,2.7c0.9,0.9,2.4,0.9,3.4,0s0.9-2.4,0-3.4l0,0l-3.9-3.9
				c0.8-1.7,1.7-3.2,2.6-4.8l2.7,2.7c0.9,0.9,2.4,0.9,3.4,0c0.9-0.9,0.9-2.4,0-3.4l-3.5-3.5c1-1.7,2.1-3.4,3.2-4.9l2.7,3.4
				c0.8,1,2.3,1.2,3.3,0.4c1-0.8,1.2-2.3,0.4-3.3l-3.6-4.5c1.3-1.9,2.7-3.7,4.1-5.6l2.9,3.7c0.9,1,2.4,1,3.3,0.2
				c0.9-0.8,1-2.1,0.3-3.1l-3.8-4.4c1-1.3,2-2.6,3.1-3.8l1.2,3.5c0.4,1.2,1.7,1.9,3,1.5c1.2-0.4,1.9-1.7,1.5-3l-2.1-6.3
				c1.1-1.3,2.2-2.6,3.3-3.9l1.3,4.5c0.3,1.3,1.5,2.1,2.8,1.8c1.3-0.3,2.1-1.5,1.8-2.8c0-0.1,0-0.2-0.1-0.3l-2.1-7.4
				C137.2,72.3,138.3,71.2,139.4,70L139.4,70z"/>
		</defs>
		<clipPath id="SVGID_00000016057516414053265550000016294842493545584036_">
			<use xlink:href="#SVGID_1_"  style="overflow:visible;"/>
		</clipPath>
		<g style="clip-path:url(#SVGID_00000016057516414053265550000016294842493545584036_);">
			<path class="st3" d="M94.9,33.4c-28.5,0-51.6,23.1-51.6,51.6s23.1,51.6,51.6,51.6c28.5,0,51.6-23.1,51.6-51.6
				C146.5,56.6,123.4,33.5,94.9,33.4z M94.9,38.1c18.2,0,34.8,10.5,42.5,27c-1.7,1.8-3.4,3.7-5.1,5.6c-2.3-0.3-4.7-0.7-7-0.9
				c-1.3-0.1-2.4,1-2.4,2.3s1,2.4,2.3,2.4l3.4,0.5c-1.1,1.3-2.3,2.6-3.4,3.9c-1.8-0.3-3.8-0.7-5.6-0.9c-1.3,0-2.4,0.9-2.5,2.2
				c0,1.3,0.9,2.4,2.2,2.5l2.4,0.4c-1.2,1.4-2.3,2.9-3.5,4.3h-5.8c-1.3,0.1-2.3,1.2-2.2,2.5c0.1,1.3,1.2,2.3,2.5,2.2h2.1
				c-1.2,1.6-2.3,3.1-3.4,4.7h-5.9c-1.3,0.2-2.2,1.3-2.1,2.6c0.1,1.2,1.1,2,2.3,2.1h2.5c-1,1.6-2,3.1-3,4.7h-5.6
				c-1.3,0.1-2.3,1.2-2.2,2.5c0.1,1.3,1.2,2.3,2.5,2.2l0,0h2.7c-0.9,1.6-1.7,3.1-2.5,4.7h-5.1c-1.3,0.1-2.3,1.2-2.2,2.5
				c0.1,1.3,1.2,2.3,2.5,2.2l0,0h2.7c-0.7,1.6-1.3,3.1-1.9,4.7H89c-1.3,0.2-2.2,1.3-2.1,2.6c0.1,1.2,1.1,2,2.3,2.1h5.1
				c-0.2,0.8-0.4,1.6-0.7,2.3c-17.5-0.5-33.2-10.7-40.8-26.5c0.3-2.5,0.7-5.1,1-7.7l5.2-5.5l1,2.9c0.5,1.2,1.9,1.8,3.1,1.3
				c1.1-0.4,1.7-1.7,1.4-2.8l-1.8-5.3l3.1-3.5l1.1,3.4c0.4,1.2,1.7,1.9,3,1.5c1.2-0.4,1.9-1.7,1.5-3l0,0l-2-5.9
				c1.3-1.5,2.5-2.9,3.7-4.4l0.8,2.4c0.5,1.2,1.9,1.8,3.1,1.3c1.1-0.5,1.7-1.6,1.4-2.8l-1.8-5.4c1.2-1.7,2.4-3.3,3.6-4.9l0.9,2.4
				c0.4,1.2,1.7,1.9,3,1.5c1.2-0.4,1.9-1.7,1.5-3l-2-5.9c0.8-1.3,1.6-2.7,2.3-4l1.2,2.4c0.4,1.2,1.7,1.9,3,1.5
				c1.2-0.4,1.9-1.7,1.5-3c-0.1-0.2-0.2-0.4-0.3-0.6l-2.8-5.5c0.6-1.2,1.1-2.4,1.7-3.6l0.7,1c0.7,1.1,2.1,1.4,3.2,0.7
				c1.1-0.7,1.4-2.1,0.7-3.2c-0.1-0.1-0.2-0.2-0.2-0.3l-2.5-3.4c0.6-1.9,1.1-3.8,1.6-5.8L94.9,38.1z M88.6,38.5
				c-0.3,1-0.6,2.1-0.9,3.1H83c-1.3,0.1-2.3,1.2-2.2,2.5c0.1,1.3,1.2,2.3,2.5,2.2l0,0h2.9c-0.5,1.2-1,2.3-1.5,3.5h-7.4
				c-1.3,0.1-2.3,1.2-2.2,2.5c0.1,1.3,1.2,2.3,2.5,2.2h4.9c-0.8,1.5-1.7,3-2.6,4.5c-2.3-0.3-4.8-0.7-7.1-1c-1.3,0-2.4,1-2.4,2.3
				c0,1.3,1,2.4,2.3,2.4l4.5,0.7c-1.1,1.7-2.3,3.4-3.6,5.1c-2.6-0.6-5.2-1.7-7.7-2.1c-1.2,0-2.2,0.9-2.4,2c-0.1,1.2,0.6,2.2,1.7,2.6
				l5.2,1.5c-1.4,1.7-2.8,3.5-4.3,5.2c-2.1-0.8-4.2-1.4-6.3-2c-1.3,0.2-2.2,1.4-2,2.7c0.1,0.8,0.7,1.5,1.5,1.8l3.5,1.2l-3.1,3.4
				c-2.2-0.8-4.5-1.5-6.8-2.1c-1.3,0.1-2.3,1.2-2.2,2.5c0.1,1,0.7,1.8,1.6,2.1l3.9,1.3c-1.5,1.5-2.9,3.1-4.3,4.6l-2.9-0.7
				c-0.4-2.4-0.6-4.9-0.6-7.4C48.2,61.6,65.4,41.8,88.6,38.5z M139.4,70c8.3,24.5-4.8,51.2-29.4,59.5c-1.9,0.7-3.9,1.2-5.9,1.6
				c0-0.7-0.4-1.4-0.9-1.8l-3-2.7c0.6-1.7,1.4-3.4,2.1-5.1l2.8,2.7c0.9,0.9,2.4,0.9,3.4,0s0.9-2.4,0-3.4l0,0l-3.9-3.9
				c0.8-1.7,1.7-3.2,2.6-4.8l2.7,2.7c0.9,0.9,2.4,0.9,3.4,0c0.9-0.9,0.9-2.4,0-3.4l-3.5-3.5c1-1.7,2.1-3.4,3.2-4.9l2.7,3.4
				c0.8,1,2.3,1.2,3.3,0.4c1-0.8,1.2-2.3,0.4-3.3l-3.6-4.5c1.3-1.9,2.7-3.7,4.1-5.6l2.9,3.7c0.9,1,2.4,1,3.3,0.2
				c0.9-0.8,1-2.1,0.3-3.1l-3.8-4.4c1-1.3,2-2.6,3.1-3.8l1.2,3.5c0.4,1.2,1.7,1.9,3,1.5c1.2-0.4,1.9-1.7,1.5-3l-2.1-6.3
				c1.1-1.3,2.2-2.6,3.3-3.9l1.3,4.5c0.3,1.3,1.5,2.1,2.8,1.8c1.3-0.3,2.1-1.5,1.8-2.8c0-0.1,0-0.2-0.1-0.3l-2.1-7.4
				C137.2,72.3,138.3,71.2,139.4,70L139.4,70z"/>
		</g>
	</g>
	<g>
		<defs>
			<path id="SVGID_00000109745205222075131310000006507820203272002965_" d="M94.9,33.4c-28.5,0-51.6,23.1-51.6,51.6
				s23.1,51.6,51.6,51.6c28.5,0,51.6-23.1,51.6-51.6C146.5,56.6,123.4,33.5,94.9,33.4z M94.9,38.1c18.2,0,34.8,10.5,42.5,27
				c-1.7,1.8-3.4,3.7-5.1,5.6c-2.3-0.3-4.7-0.7-7-0.9c-1.3-0.1-2.4,1-2.4,2.3s1,2.4,2.3,2.4l3.4,0.5c-1.1,1.3-2.3,2.6-3.4,3.9
				c-1.8-0.3-3.8-0.7-5.6-0.9c-1.3,0-2.4,0.9-2.5,2.2c0,1.3,0.9,2.4,2.2,2.5l2.4,0.4c-1.2,1.4-2.3,2.9-3.5,4.3h-5.8
				c-1.3,0.1-2.3,1.2-2.2,2.5c0.1,1.3,1.2,2.3,2.5,2.2h2.1c-1.2,1.6-2.3,3.1-3.4,4.7h-5.9c-1.3,0.2-2.2,1.3-2.1,2.6
				c0.1,1.2,1.1,2,2.3,2.1h2.5c-1,1.6-2,3.1-3,4.7h-5.6c-1.3,0.1-2.3,1.2-2.2,2.5c0.1,1.3,1.2,2.3,2.5,2.2l0,0h2.7
				c-0.9,1.6-1.7,3.1-2.5,4.7h-5.1c-1.3,0.1-2.3,1.2-2.2,2.5c0.1,1.3,1.2,2.3,2.5,2.2l0,0h2.7c-0.7,1.6-1.3,3.1-1.9,4.7H89
				c-1.3,0.2-2.2,1.3-2.1,2.6c0.1,1.2,1.1,2,2.3,2.1h5.1c-0.2,0.8-0.4,1.6-0.7,2.3c-17.5-0.5-33.2-10.7-40.8-26.5
				c0.3-2.5,0.7-5.1,1-7.7l5.2-5.5l1,2.9c0.5,1.2,1.9,1.8,3.1,1.3c1.1-0.4,1.7-1.7,1.4-2.8l-1.8-5.3l3.1-3.5l1.1,3.4
				c0.4,1.2,1.7,1.9,3,1.5c1.2-0.4,1.9-1.7,1.5-3l0,0l-2-5.9c1.3-1.5,2.5-2.9,3.7-4.4l0.8,2.4c0.5,1.2,1.9,1.8,3.1,1.3
				c1.1-0.5,1.7-1.6,1.4-2.8l-1.8-5.4c1.2-1.7,2.4-3.3,3.6-4.9l0.9,2.4c0.4,1.2,1.7,1.9,3,1.5c1.2-0.4,1.9-1.7,1.5-3l-2-5.9
				c0.8-1.3,1.6-2.7,2.3-4l1.2,2.4c0.4,1.2,1.7,1.9,3,1.5c1.2-0.4,1.9-1.7,1.5-3c-0.1-0.2-0.2-0.4-0.3-0.6l-2.8-5.5
				c0.6-1.2,1.1-2.4,1.7-3.6l0.7,1c0.7,1.1,2.1,1.4,3.2,0.7c1.1-0.7,1.4-2.1,0.7-3.2c-0.1-0.1-0.2-0.2-0.2-0.3l-2.5-3.4
				c0.6-1.9,1.1-3.8,1.6-5.8L94.9,38.1z M88.6,38.5c-0.3,1-0.6,2.1-0.9,3.1H83c-1.3,0.1-2.3,1.2-2.2,2.5c0.1,1.3,1.2,2.3,2.5,2.2
				l0,0h2.9c-0.5,1.2-1,2.3-1.5,3.5h-7.4c-1.3,0.1-2.3,1.2-2.2,2.5c0.1,1.3,1.2,2.3,2.5,2.2h4.9c-0.8,1.5-1.7,3-2.6,4.5
				c-2.3-0.3-4.8-0.7-7.1-1c-1.3,0-2.4,1-2.4,2.3c0,1.3,1,2.4,2.3,2.4l4.5,0.7c-1.1,1.7-2.3,3.4-3.6,5.1c-2.6-0.6-5.2-1.7-7.7-2.1
				c-1.2,0-2.2,0.9-2.4,2c-0.1,1.2,0.6,2.2,1.7,2.6l5.2,1.5c-1.4,1.7-2.8,3.5-4.3,5.2c-2.1-0.8-4.2-1.4-6.3-2
				c-1.3,0.2-2.2,1.4-2,2.7c0.1,0.8,0.7,1.5,1.5,1.8l3.5,1.2l-3.1,3.4c-2.2-0.8-4.5-1.5-6.8-2.1c-1.3,0.1-2.3,1.2-2.2,2.5
				c0.1,1,0.7,1.8,1.6,2.1l3.9,1.3c-1.5,1.5-2.9,3.1-4.3,4.6l-2.9-0.7c-0.4-2.4-0.6-4.9-0.6-7.4C48.2,61.6,65.4,41.8,88.6,38.5z
				 M139.4,70c8.3,24.5-4.8,51.2-29.4,59.5c-1.9,0.7-3.9,1.2-5.9,1.6c0-0.7-0.4-1.4-0.9-1.8l-3-2.7c0.6-1.7,1.4-3.4,2.1-5.1l2.8,2.7
				c0.9,0.9,2.4,0.9,3.4,0s0.9-2.4,0-3.4l0,0l-3.9-3.9c0.8-1.7,1.7-3.2,2.6-4.8l2.7,2.7c0.9,0.9,2.4,0.9,3.4,0
				c0.9-0.9,0.9-2.4,0-3.4l-3.5-3.5c1-1.7,2.1-3.4,3.2-4.9l2.7,3.4c0.8,1,2.3,1.2,3.3,0.4c1-0.8,1.2-2.3,0.4-3.3l-3.6-4.5
				c1.3-1.9,2.7-3.7,4.1-5.6l2.9,3.7c0.9,1,2.4,1,3.3,0.2c0.9-0.8,1-2.1,0.3-3.1l-3.8-4.4c1-1.3,2-2.6,3.1-3.8l1.2,3.5
				c0.4,1.2,1.7,1.9,3,1.5c1.2-0.4,1.9-1.7,1.5-3l-2.1-6.3c1.1-1.3,2.2-2.6,3.3-3.9l1.3,4.5c0.3,1.3,1.5,2.1,2.8,1.8
				c1.3-0.3,2.1-1.5,1.8-2.8c0-0.1,0-0.2-0.1-0.3l-2.1-7.4C137.2,72.3,138.3,71.2,139.4,70L139.4,70z"/>
		</defs>
		<clipPath id="SVGID_00000128461310275456914510000016507677893497388676_">
			<use xlink:href="#SVGID_00000109745205222075131310000006507820203272002965_"  style="overflow:visible;"/>
		</clipPath>
		<g style="clip-path:url(#SVGID_00000128461310275456914510000016507677893497388676_);">
			<g id="lineas">
				<path class="st5" d="M34,187.7h0.7h130.8c0.3,0,0.5,0,0.7,0v0.6h-0.7H34.7H34L34,187.7z"/>
				<path class="st5" d="M166.3,159.2h-0.7H34.7H34v-0.6h0.8h130.8h0.8C166.3,158.9,166.3,159,166.3,159.2z"/>
				<path class="st5" d="M34,168.3h0.7h130.8h0.7v0.6c-0.2,0-0.5,0-0.7,0H34.7H34L34,168.3z"/>
				<path class="st5" d="M34,197.4h0.7h130.8h0.7v0.6h-0.7H34.7H34L34,197.4z"/>
				<path class="st5" d="M166.3,149.5c-0.2,0-0.5,0-0.7,0H34.7H34V149h0.8h130.8h0.8C166.3,149.2,166.3,149.3,166.3,149.5z"/>
				<path class="st5" d="M34,139.3h0.7h130.8h0.7v0.6h-0.7H34.7H34L34,139.3z"/>
				<path class="st5" d="M166.3,207.7c-0.2,0-0.5,0-0.7,0H34.7H34v-0.6h0.8h130.8h0.8C166.3,207.3,166.3,207.5,166.3,207.7z"/>
				<path class="st5" d="M34,129.6h0.7h130.8h0.7v0.6c-0.2,0-0.5,0-0.7,0H34.7c-0.3,0-0.5,0-0.8,0L34,129.6z"/>
				<path class="st5" d="M166.3,217.3h-0.7H34.7H34v-0.6h0.8h130.8h0.8C166.3,217,166.3,217.2,166.3,217.3z"/>
				<path class="st5" d="M34,119.9h0.7h130.8h0.7v0.6h-0.7H34.7H34L34,119.9z"/>
				<path class="st5" d="M34,110.2h0.7h130.8h0.7v0.6c-0.2,0-0.5,0-0.7,0H34.7c-0.3,0-0.5,0-0.8,0L34,110.2z"/>
				<path class="st5" d="M166.3,227h-0.7H34.7H34v-0.6h0.8h130.8h0.8C166.3,226.6,166.3,226.8,166.3,227z"/>
				<path class="st5" d="M34,178h0.7h130.8h0.7v0.6h-0.7H34.7H34L34,178z"/>
				<path class="st5" d="M166.3,176.6H34v-0.5h0.8h130.8c0.3,0,0.5,0,0.7,0L166.3,176.6z"/>
				<path class="st5" d="M34,180h132.4v0.5c-0.3,0-0.5,0-0.7,0H34.7c-0.3,0-0.5,0-0.7,0V180z"/>
				<path class="st5" d="M34,174.2h132.4v0.5H34V174.2z"/>
				<path class="st5" d="M166.3,182.4h-0.8H34.8H34v-0.5h132.4C166.3,182.1,166.3,182.2,166.3,182.4z"/>
				<path class="st5" d="M34,172.3h132.4v0.5H34V172.3z"/>
				<path class="st5" d="M34,183.9h132.4v0.5H34V183.9z"/>
				<path class="st5" d="M34,170.3h132.4v0.4h-0.7H34.7H34V170.3z"/>
				<path class="st5" d="M166.3,186.3h-0.8H34.8H34v-0.4h0.8h130.8h0.7L166.3,186.3z"/>
				<path class="st5" d="M166.3,167h-0.8H34.8H34v-0.5h0.8h130.8h0.7L166.3,167z"/>
				<path class="st5" d="M166.3,165H34v-0.5h132.4V165z"/>
				<path class="st5" d="M34,162.6h132.4v0.5H34V162.6z"/>
				<path class="st5" d="M34,189.7h0.8h130.8h0.8v0.5h-0.7H34.7H34V189.7z"/>
				<path class="st5" d="M34,160.6h132.4v0.5h-0.7H34.7H34V160.6z"/>
				<path class="st5" d="M166.3,192.1H34v-0.5h132.4C166.3,191.8,166.3,191.9,166.3,192.1z"/>
				<path class="st5" d="M166.3,157.2H34v-0.5h0.8h130.8c0.3,0,0.5,0,0.7,0L166.3,157.2z"/>
				<path class="st5" d="M166.3,194H34v-0.5h0.8h130.8h0.8L166.3,194z"/>
				<path class="st5" d="M34,154.8h0.8h130.8h0.8v0.5H34V154.8z"/>
				<path class="st5" d="M166.3,196H34v-0.5h0.8h130.8c0.3,0,0.5,0,0.7,0L166.3,196z"/>
				<path class="st5" d="M34,152.9h132.4v0.5H34V152.9z"/>
				<path class="st5" d="M34,150.9h0.8h130.8h0.8v0.5h-0.7H34.7H34V150.9z"/>
				<path class="st5" d="M166.3,147.6h-0.8H34.8H34v-0.5h0.8h130.8h0.7L166.3,147.6z"/>
				<path class="st5" d="M34,199.4h132.4v0.5c-0.3,0-0.5,0-0.7,0H34.7c-0.3,0-0.5,0-0.7,0V199.4z"/>
				<path class="st5" d="M34,145.2h132.4v0.5H34V145.2z"/>
				<path class="st5" d="M166.3,201.8h-0.8H34.8H34v-0.5h132.4C166.3,201.5,166.3,201.6,166.3,201.8z"/>
				<path class="st5" d="M34,143.2h132.4v0.5H34V143.2z"/>
				<path class="st5" d="M166.3,203.7H34v-0.5h132.4V203.7z"/>
				<path class="st5" d="M34,141.2h132.4v0.5c-0.3,0-0.5,0-0.7,0H34.7c-0.3,0-0.5,0-0.7,0V141.2z"/>
				<path class="st5" d="M166.3,205.7H34v-0.5h0.8h130.8h0.7L166.3,205.7z"/>
				<path class="st5" d="M166.3,137.9H34v-0.5h0.8h130.8c0.3,0,0.5,0,0.7,0L166.3,137.9z"/>
				<path class="st5" d="M166.3,135.9H34v-0.5h132.4V135.9z"/>
				<path class="st5" d="M166.3,134H34v-0.4h132.4C166.3,133.7,166.3,133.8,166.3,134z"/>
				<path class="st5" d="M34,209h132.4v0.5h-0.7H34.7H34V209z"/>
				<path class="st5" d="M34,131.6h132.4v0.5h-0.7H34.7H34V131.6z"/>
				<path class="st5" d="M34,211h132.4v0.5H34V211z"/>
				<path class="st5" d="M166.3,128.2h-0.8H34.8H34v-0.5h0.8h130.8h0.7L166.3,128.2z"/>
				<path class="st5" d="M34,212.9h0.8h130.8h0.8v0.5H34V212.9z"/>
				<path class="st5" d="M166.3,126.2H34v-0.5h132.4V126.2z"/>
				<path class="st5" d="M166.3,215.4H34v-0.5h0.8h130.8c0.3,0,0.5,0,0.7,0L166.3,215.4z"/>
				<path class="st5" d="M166.3,124.3h-0.8H34.8H34v-0.5h132.4C166.3,124,166.3,124.1,166.3,124.3z"/>
				<path class="st5" d="M34,121.9h132.4v0.5h-0.7H34.7H34V121.9z"/>
				<path class="st5" d="M166.3,118.5H34v-0.5c0.3,0,0.5,0,0.8,0h130.8c0.3,0,0.5,0,0.7,0L166.3,118.5z"/>
				<path class="st5" d="M34,218.7h132.4v0.5c-0.3,0-0.5,0-0.7,0H34.7c-0.3,0-0.5,0-0.7,0V218.7z"/>
				<path class="st5" d="M166.3,116.6H34v-0.5h0.8h130.8h0.8L166.3,116.6z"/>
				<path class="st5" d="M34,220.7h132.4v0.5h-0.8H34.8H34V220.7z"/>
				<path class="st5" d="M166.3,114.6H34v-0.5h132.4C166.3,114.3,166.3,114.4,166.3,114.6z"/>
				<path class="st5" d="M34,222.6h132.4v0.4H34V222.6z"/>
				<path class="st5" d="M34,112.2h132.4v0.5c-0.3,0-0.5,0-0.7,0H34.7c-0.3,0-0.5,0-0.7,0V112.2z"/>
				<path class="st5" d="M166.3,225.1H34v-0.5h0.8h130.8h0.7L166.3,225.1z"/>
				<path class="st5" d="M166.3,108.8h-0.8H34.8H34v-0.5h0.8h130.8h0.7L166.3,108.8z"/>
				<path class="st5" d="M166.3,106.9H34v-0.5h132.4V106.9z"/>
				<path class="st5" d="M166.3,104.9H34v-0.5h132.4C166.3,104.6,166.3,104.8,166.3,104.9z"/>
				<path class="st5" d="M34,228.4h0.8h130.8h0.8v0.5h-0.7H34.7H34V228.4z"/>
				<path class="st5" d="M34,102.5h132.4v0.5c-0.3,0-0.5,0-0.7,0H34.7c-0.3,0-0.5,0-0.7,0V102.5z"/>
				<path class="st5" d="M34,230.4h132.4v0.5H34V230.4z"/>
				<path class="st5" d="M166.3,101.1h-0.7H34.7H34c0-0.2,0-0.4,0.3-0.3h131.6C166,100.8,166.4,100.6,166.3,101.1z"/>
				<path class="st5" d="M34,232.3h0.8h130.8h0.8v0.1H34.6C34.4,232.4,34.2,232.4,34,232.3z"/>
			</g>
		</g>
	</g>
</g>
<path class="st6" d="M21,106v89.9c-0.1,5.7,4.5,10.5,10.2,10.6c0,0,0,0,0.1,0h187.5c5.7-0.1,10.4-4.8,10.3-10.5c0,0,0,0,0-0.1V106
	c0.1-5.8-4.5-10.5-10.3-10.6c0,0,0,0,0,0H31.2C25.5,95.5,20.9,100.3,21,106C21,106,21,106,21,106z M214.5,102.4v97H31.3v-97H214.5z"
	/>
</svg>
