<?xml version="1.0" encoding="utf-8"?>
<!-- Generator: Adobe Illustrator 26.0.3, SVG Export Plug-In . SVG Version: 6.00 Build 0)  -->
<svg version="1.1" id="Capa_1" xmlns="http://www.w3.org/2000/svg" xmlns:xlink="http://www.w3.org/1999/xlink" x="0px" y="0px"
	 viewBox="0 0 250 250" style="enable-background:new 0 0 250 250;" xml:space="preserve">
<style type="text/css">
	.st0{fill:#E68F47;}
</style>
<polygon class="st0" points="37.4,206.3 53.3,221.9 101.9,210.5 94.5,187 75.4,182.2 71.8,162.7 50.1,155 "/>
<polygon class="st0" points="34.7,212.9 30.3,229 46.7,225.6 "/>
<path class="st0" d="M54.1,149.5l76.6-76.7l56.8,55.8l-80,77.9l-7.1-25.6l-18.8-4.2c0,0-4-19.6-5-19.8S54.1,149.5,54.1,149.5z"/>
<path class="st0" d="M197.3,62.8c-2.3-2.4-8-0.5-12.7,4.1c-4.7,4.6-6.6,10.2-4.3,12.6c2.3,2.4,8,0.5,12.7-4.1
	C197.6,70.8,199.6,65.1,197.3,62.8z"/>
<path class="st0" d="M195.1,37.2c8.4,8.6,11.2,12.7,4.8,19l4.2,4.3c11.3-11.1,2.1-20.5-4.7-27.4c-8.4-8.6-11.2-12.6-4.8-19l-4.2-4.2
	C179.1,20.9,188.4,30.3,195.1,37.2z"/>
<path class="st0" d="M209.7,66.1c-0.9,1.7-2,3.2-3.3,4.5l-18.4,18.1c-5.2,5.2-12.4,6.3-17.2,3.2c0,0,0,0.2-0.1,0.2l-14.8,14.5
	c-0.9,0.9-2.3,0.8-3.1,0c-0.9-0.9-0.8-2.3,0-3.1l0,0L167.5,89c0,0,0.2-0.1,0.2-0.2c-2.9-4.8-1.6-12.1,3.6-17.2l18.4-18.1
	c1.3-1.3,2.9-2.4,4.5-3.2c-14.9-8.9-33.9-6.7-46.4,5.4l-54.5,54.1c-15,14.8-15.2,39.1-0.5,54.2l1.9,1.9c14.8,15,39.1,15.2,54.2,0.5
	l54.5-54.1C215.7,100,218.2,81.1,209.7,66.1z"/>
</svg>
