<?xml version="1.0" encoding="utf-8"?>
<!-- Generator: Adobe Illustrator 26.0.3, SVG Export Plug-In . SVG Version: 6.00 Build 0)  -->
<svg version="1.1" id="Capa_1" xmlns="http://www.w3.org/2000/svg" xmlns:xlink="http://www.w3.org/1999/xlink" x="0px" y="0px"
	 viewBox="0 0 250 250" style="enable-background:new 0 0 250 250;" xml:space="preserve">
<style type="text/css">
	.st0{fill:#0A1E3F;}
	.st1{fill:#95B6E5;}
	.st2{fill:#FFFFFF;}
</style>
<path class="st0" d="M127,29.4c-47.8-0.1-88,36.1-92.9,83.7c-0.3,3-0.5,6-0.5,8.9c0,19.6,6.2,38.6,17.8,54.3l-11.5,34.5l35.8-11.4
	c43.1,28.3,101,16.3,129.3-26.7c9.9-15.1,15.2-32.6,15.3-50.7c0-2.4,0-4.8-0.3-7.2C216.1,66.4,175.6,29.2,127,29.4z"/>
<path class="st0" d="M127,12C67.9,11.7,19,58.1,16.3,117.2c-0.2,1.6-0.3,3.2-0.2,4.8c0,20.1,5.5,39.7,15.9,56.9L11.8,238l61.6-19.4
	c16.4,9,34.9,13.7,53.6,13.6c61.3,0,111.1-49.2,111.1-110.2c0-1-0.1-1.7-0.1-2.7C236.3,59.4,187,11.8,127,12z M127,214.7
	c-18.2,0-36.1-5.3-51.3-15.3l-35.8,11.4l11.5-34.5c-11.6-15.8-17.8-34.8-17.8-54.3c0-3,0.1-6,0.5-8.9c5.3-51.3,51.3-88.6,102.6-83.2
	c44.6,4.6,79.6,40.3,83.4,85c0.2,2.4,0.3,4.8,0.3,7.2C220.1,173.4,178.4,214.8,127,214.7z"/>
<path class="st1" d="M126.9,22.2C73.1,22,28.6,64.2,26.1,117.9c-0.2,1.4-0.3,2.9-0.2,4.3c0,18.9,6.6,38.8,15.8,53.9l-15.5,46.4
	l49.1-14c15.8,8.6,33.5,13.4,51.5,13.8c55.5,0.3,100.8-44.5,101-100.1c0,0,0-0.1,0-0.1c0-0.9-0.1-1.6-0.1-2.5
	C226.1,65.3,181.3,22,126.9,22.2z M127,214.7c-18.2,0-36.1-5.3-51.3-15.3l-35.8,11.4l11.5-34.5c-11.6-15.8-17.8-34.8-17.8-54.3
	c0-3,0.1-6,0.5-8.9c5.3-51.3,51.3-88.6,102.6-83.2c44.6,4.6,79.6,40.3,83.4,85c0.2,2.4,0.3,4.8,0.3,7.2
	C220.1,173.4,178.4,214.8,127,214.7z"/>
<path class="st2" d="M111.6,147.8H130c7.3,0,12.4-2.6,12.4-9.9c0-7.8-5.5-10.4-12.4-10.4h-18.4V147.8z M111.6,112.7h17.8
	c3.9,0,9.4-2.2,9.4-8.4c0-6.2-4.6-8.6-9.4-8.6h-17.8V112.7z M88.6,77.9h41.3c15.2-0.2,31.9,3.7,31.9,22.1
	c-0.1,7.7-4.6,14.6-11.6,17.8c9.3,2.6,15.6,11.3,15.2,20.9c0,21-15.5,27.4-34.4,27.4H88.6L88.6,77.9z"/>
</svg>
