<svg width="250" height="250" viewBox="0 0 250 250" fill="none" xmlns="http://www.w3.org/2000/svg">
<rect width="250" height="250" fill="white"/>
<path d="M125 242.371C189.822 242.371 242.37 189.823 242.37 125.001C242.37 60.1792 189.822 7.63086 125 7.63086C60.1783 7.63086 7.63 60.1792 7.63 125.001C7.63 189.823 60.1783 242.371 125 242.371Z" fill="#E6E7E8"/>
<rect x="81" y="69.3652" width="87.2727" height="115.636" rx="13" fill="#0A1E3F"/>
<rect x="92" y="80" width="65" height="95" rx="8" stroke="#95B6E5" stroke-width="6"/>
<rect x="103" y="91" width="32" height="15" rx="2" fill="#FF6A1B"/>
<rect x="117" y="112" width="32" height="15" rx="2" fill="#FF0296"/>
<rect x="101" y="133" width="32" height="15" rx="2" fill="#FF6A1B"/>
<rect x="101" y="157" width="48" height="7" rx="2" fill="#95B6E5"/>
</svg>
