<?xml version="1.0" encoding="utf-8"?>
<!-- Generator: Adobe Illustrator 25.0.0, SVG Export Plug-In . SVG Version: 6.00 Build 0)  -->
<svg version="1.1" id="Capa_1" xmlns="http://www.w3.org/2000/svg" xmlns:xlink="http://www.w3.org/1999/xlink" x="0px" y="0px"
	 viewBox="0 0 755 802.1" style="enable-background:new 0 0 755 802.1;" xml:space="preserve">
<style type="text/css">
	.st0{fill:#FFFFFF;}
	.st1{fill:#213958;}
	.st2{fill:#8AB7E9;}
	.st3{fill:#FF6C0E;}
	.st4{fill:#E42E87;}
	.st5{fill-rule:evenodd;clip-rule:evenodd;fill:#8AB7E9;}
	.st6{fill:none;}
	.st7{fill:#753D86;}
	.st8{fill:#011E41;}
	.st9{fill:#93BC53;}
	.st10{fill:url(#SVGID_1_);}
</style>
<path class="st0" d="M92.1,126.3c-33.3,0-60.3,27-60.3,60.3s27,60.3,60.3,60.3s60.3-27,60.3-60.3S125.3,126.3,92.1,126.3z"/>
<path class="st1" d="M91.9,119.9c-36.9,0-66.8,29.9-66.8,66.8s29.9,66.8,66.8,66.8s66.8-29.9,66.8-66.8S128.9,119.9,91.9,119.9z
	 M92.1,249.2c-34.6,0-62.6-28-62.6-62.6s28-62.6,62.6-62.6s62.6,28,62.6,62.6C154.8,221.1,126.7,249.2,92.1,249.2z"/>
<path class="st2" d="M92.1,123.9c-34.6,0-62.6,28-62.6,62.6s28,62.6,62.6,62.6s62.6-28,62.6-62.6C154.8,152,126.7,123.9,92.1,123.9z
	 M92.1,246.8c-33.3,0-60.3-27-60.3-60.3s27-60.3,60.3-60.3s60.3,27,60.3,60.3S125.3,246.8,92.1,246.8z"/>
<path class="st3" d="M100.7,171.5c2.1,0,3.9-1.7,3.9-3.9c0-2.1-1.7-3.9-3.9-3.9c-2.1,0-3.9,1.7-3.9,3.9
	C96.8,169.7,98.6,171.5,100.7,171.5z"/>
<path class="st3" d="M108.9,176.6c0,0,0.2-4.3-4.3-4.3h-7.9c-4.4,0-4.4,4-4.4,4.3v12.2c0.1,0.7,0.7,1.4,1.5,1.4s1.4-0.7,1.5-1.4
	l1.4,19.5c0.1,1,0.8,1.4,1.7,1.4s1.6-0.4,1.7-1.4h1.2c0.1,1,0.8,1.4,1.7,1.4s1.6-0.4,1.7-1.4l1.4-19.5c0,0.7,0.6,1.4,1.5,1.4
	c0.8,0,1.4-0.7,1.5-1.4L108.9,176.6z"/>
<path class="st3" d="M86.4,167.5c0,2.1-1.7,3.8-3.8,3.8s-3.8-1.7-3.8-3.8s1.7-3.8,3.8-3.8S86.4,165.4,86.4,167.5z"/>
<path class="st3" d="M90.9,182c0.3-1.4-1.6-7.3-1.6-7.3c-0.2-0.6-1.2-2.3-4.2-2.3h-5.7c-2.8-0.2-3.9,1.5-4.1,2.3
	c0,0-1.9,5.9-1.6,7.3c0.2,0.9,1.8,2,3.4,2.7l-3.5,10.6h5.1v12.8c0.1,1,0.8,1.3,1.6,1.3s1.5-0.3,1.6-1.3h0.5c0.1,1,0.8,1.3,1.6,1.3
	s1.5-0.4,1.6-1.4v-12.8H91l-3.3-10.8C89.4,183.7,90.8,182.8,90.9,182z"/>
<path class="st0" d="M92.1,295.3c-33.3,0-60.3,27-60.3,60.3s27,60.3,60.3,60.3s60.3-27,60.3-60.3S125.3,295.3,92.1,295.3z"/>
<path class="st1" d="M91.9,288.9c-36.9,0-66.8,29.9-66.8,66.8s29.9,66.8,66.8,66.8s66.8-29.9,66.8-66.8
	C158.8,318.8,128.9,288.9,91.9,288.9L91.9,288.9z M92.1,418.2c-34.6,0-62.6-28-62.6-62.6s28-62.6,62.6-62.6s62.6,28,62.6,62.6
	C154.6,390.1,126.7,418.2,92.1,418.2z"/>
<path class="st2" d="M92.1,292.9c-34.6,0-62.6,28-62.6,62.6s28,62.6,62.6,62.6s62.6-28,62.6-62.6C154.6,321,126.7,292.9,92.1,292.9
	L92.1,292.9z M92.1,415.8c-33.3,0-60.3-27-60.3-60.3s27-60.3,60.3-60.3s60.3,27,60.3,60.3S125.3,415.8,92.1,415.8z"/>
<g>
	<path class="st0" d="M32.2,432.8v5.6h-1.5v-13.2h3.6c1.6,0,2.9,0.3,3.6,0.9c0.8,0.6,1.2,1.5,1.2,2.8c0,1.8-0.9,3-2.7,3.6l3.6,6
		h-1.8l-3.1-5.5L32.2,432.8z M32.2,431.5h2.1c1.1,0,2-0.2,2.4-0.6c0.5-0.4,0.8-1.1,0.8-1.9s-0.3-1.5-0.8-1.9
		c-0.4-0.4-1.4-0.6-2.5-0.6h-2V431.5z"/>
	<path class="st0" d="M49.6,438.4h-7.4v-13.2h7.4v1.3h-5.9v4.4h5.6v1.4h-5.6v4.9h5.9V438.4z"/>
	<path class="st0" d="M52.6,438.4v-13.2h1.5v13.2H52.6z"/>
	<path class="st0" d="M68.1,438.4h-1.8l-7.2-11.1c0.1,1.4,0.1,2.6,0.1,3.6v7.5h-1.5v-13.2h1.8l7.2,11.1c0-0.1,0-0.8-0.1-1.6
		c0-0.9,0-1.5,0-1.9V425h1.5C68.1,425,68.1,438.4,68.1,438.4z"/>
	<path class="st0" d="M77.4,426.2c-1.5,0-2.5,0.4-3.5,1.5c-0.9,0.9-1.2,2.2-1.2,4s0.5,3.2,1.2,4.1c0.8,0.9,2,1.3,3.5,1.3
		c0.9,0,2-0.2,3.2-0.4v1.4c-0.9,0.3-2.1,0.4-3.5,0.4c-2,0-3.5-0.6-4.5-1.8c-1-1.2-1.7-2.9-1.7-5.1c0-1.4,0.3-2.6,0.8-3.6
		s1.2-1.8,2.2-2.4c0.9-0.6,2.1-0.9,3.5-0.9s2.5,0.3,3.6,0.8l-0.6,1.3C79.5,426.5,78.3,426.2,77.4,426.2z"/>
	<path class="st0" d="M83.4,438.4v-13.2h1.5v13.2H83.4z"/>
	<path class="st0" d="M99.1,431.6c0,2.2-0.6,3.9-1.8,4.9c-1.2,1.2-2.8,1.8-5.1,1.8h-3.8v-13.2h4c2.1,0,3.6,0.6,4.8,1.7
		C98.5,427.9,99.1,429.5,99.1,431.6L99.1,431.6z M97.6,431.6c0-1.8-0.5-3-1.3-3.9c-0.9-0.9-2.1-1.4-3.9-1.4h-2.2V437h2
		c1.8,0,3.2-0.4,4.2-1.3C97,434.8,97.6,433.4,97.6,431.6z"/>
	<path class="st0" d="M109.6,438.4h-7.3v-13.2h7.3v1.3h-5.8v4.4h5.5v1.4h-5.5v4.9h5.8V438.4z"/>
	<path class="st0" d="M123,438.4h-1.8l-7.2-11.1c0.2,1.4,0.2,2.6,0.2,3.6v7.5h-1.5v-13.2h1.8l7.2,11.1c0-0.1,0-0.8-0.2-1.6
		c0-0.9,0-1.5,0-1.9V425h1.5V438.4z"/>
	<path class="st0" d="M132.1,426.2c-1.5,0-2.6,0.4-3.5,1.5c-0.9,0.9-1.2,2.2-1.2,4s0.5,3.2,1.2,4.1c0.8,0.9,2,1.3,3.5,1.3
		c0.9,0,1.9-0.2,3.1-0.4v1.4c-0.9,0.3-2.1,0.4-3.5,0.4c-1.9,0-3.4-0.6-4.5-1.8c-1-1.2-1.7-2.9-1.7-5.1c0-1.4,0.3-2.6,0.8-3.6
		s1.2-1.8,2.2-2.4c0.9-0.6,2.1-0.9,3.5-0.9c1.3,0,2.5,0.3,3.6,0.8l-0.6,1.3C134.2,426.5,133.3,426.2,132.1,426.2z"/>
	<path class="st0" d="M138.1,438.4v-13.2h1.5v13.2H138.1z"/>
	<path class="st0" d="M151.8,438.4l-1.7-4.2h-5.2l-1.6,4.2h-1.5L147,425h1.3l5.2,13.4H151.8z M149.5,432.6l-1.5-4
		c-0.2-0.5-0.4-1.2-0.6-2c-0.2,0.6-0.3,1.2-0.6,2l-1.5,4H149.5z"/>
</g>
<path class="st4" d="M111.1,340.8h-7.3v-3.6c0-1.6-1.3-2.9-2.9-2.9s-2.9,1.3-2.9,2.9v3.6H84.8v-3.6c0-1.6-1.3-2.9-2.9-2.9
	s-2.9,1.3-2.9,2.9v3.6h-7.3c-1.2,0-2.2,1-2.2,2.2v31.8c0,1.2,1,2.2,2.2,2.2h39.5c1.2,0,2.2-1,2.2-2.2V343
	C113.2,341.8,112.2,340.8,111.1,340.8L111.1,340.8z M89.8,350.6v5.9h-6.9v-5.9H89.8z M92.8,350.6h6.9v5.9h-6.9V350.6z M79.9,350.6
	v5.9h-6.2v-5.9H79.9z M79.9,359.4v4.4h-6.2v-4.4H79.9z M82.8,359.4h6.9v4.4h-6.9V359.4z M89.8,366.7v5.9h-6.9v-5.9H89.8z
	 M92.8,366.7h6.9v5.9h-6.9V366.7z M92.8,363.8v-4.4h6.9v4.4H92.8z M102.6,359.4h6.2v4.4h-6.2V359.4z M102.6,356.5v-5.9h6.2v5.9
	H102.6z M73.7,366.7h6.2v5.9h-6.2V366.7z M102.6,372.6v-5.9h6.2v5.9H102.6z"/>
<path class="st0" d="M92.2,467.6c-33.3,0-60.3,27-60.3,60.3s27,60.3,60.3,60.3s60.3-27,60.3-60.3
	C152.4,494.6,125.3,467.6,92.2,467.6z"/>
<path class="st1" d="M91.9,461.2c-36.9,0-66.8,29.9-66.8,66.8s29.9,66.8,66.8,66.8s66.8-29.9,66.8-66.8
	C158.7,491.1,128.9,461.2,91.9,461.2z M92.2,590.5c-34.6,0-62.6-28-62.6-62.6s28-62.6,62.6-62.6s62.6,28,62.6,62.6
	C154.8,562.4,126.7,590.5,92.2,590.5z"/>
<path class="st2" d="M92.2,465.2c-34.6,0-62.6,28-62.6,62.6s28,62.6,62.6,62.6s62.6-28,62.6-62.6
	C154.8,493.3,126.7,465.2,92.2,465.2z M92.2,588.1c-33.3,0-60.3-27-60.3-60.3s27-60.3,60.3-60.3s60.3,27,60.3,60.3
	C152.4,561.1,125.3,588.1,92.2,588.1z"/>
<g>
	<path class="st0" d="M39.7,610.7h-1.5v-13.2h7.4v1.4h-5.9v4.8h5.6v1.4h-5.6V610.7z"/>
	<path class="st0" d="M49.1,605.1v5.6h-1.5v-13.2h3.6c1.6,0,2.9,0.3,3.6,0.9c0.8,0.6,1.2,1.5,1.2,2.9c0,1.8-0.9,3-2.7,3.6l3.6,6
		h-1.8l-3.1-5.5L49.1,605.1z M49.1,603.7h2.1c1,0,2-0.1,2.4-0.6s0.8-1,0.8-1.9s-0.3-1.5-0.8-2c-0.5-0.4-1.4-0.6-2.5-0.6h-2
		C49.3,598.7,49.3,603.7,49.1,603.7L49.1,603.7z"/>
	<path class="st0" d="M66.7,610.7h-7.4v-13.2h7.4v1.4h-5.9v4.4h5.6v1.4h-5.5v5h5.8C66.7,609.5,66.7,610.7,66.7,610.7z"/>
	<path class="st0" d="M75.2,598.5c-1.5,0-2.5,0.5-3.5,1.5c-0.9,0.9-1.2,2.2-1.2,4.1c0,1.8,0.5,3.1,1.2,4c0.8,0.9,2,1.4,3.5,1.4
		c0.9,0,2-0.1,3.2-0.4v1.4c-0.9,0.3-2.1,0.4-3.5,0.4c-2,0-3.5-0.6-4.5-1.8s-1.7-2.9-1.7-5.1c0-1.4,0.3-2.6,0.8-3.6
		c0.5-1.1,1.2-1.8,2.2-2.4c0.9-0.6,2.1-0.9,3.5-0.9s2.5,0.3,3.6,0.8l-0.6,1.4C77.2,598.8,76.3,598.5,75.2,598.5z"/>
	<path class="st0" d="M91.4,597.3v8.5c0,1.5-0.5,2.7-1.4,3.6c-0.9,0.9-2.1,1.4-3.8,1.4c-1.6,0-2.8-0.4-3.8-1.4
		c-0.9-0.9-1.3-2.1-1.3-3.6v-8.5h1.5v8.7c0,1.1,0.3,2,0.9,2.6s1.5,0.9,2.7,0.9c1,0,2-0.3,2.5-0.9c0.6-0.6,0.9-1.5,0.9-2.6v-8.7H91.4
		z"/>
	<path class="st0" d="M102.1,610.7h-7.4v-13.2h7.4v1.4h-5.9v4.4h5.5v1.4h-5.5v5h5.9V610.7z"/>
	<path class="st0" d="M115.6,610.7h-1.8l-7.2-11.1c0.1,1.4,0.1,2.5,0.1,3.6v7.5h-1.5v-13.2h1.8l7.2,11.1c0-0.1,0-0.8-0.1-1.6
		c0-0.9,0-1.5,0-1.9v-7.6h1.5V610.7z"/>
	<path class="st0" d="M124.7,598.5c-1.5,0-2.5,0.5-3.5,1.5c-0.9,0.9-1.2,2.2-1.2,4.1c0,1.8,0.5,3.1,1.2,4c0.8,0.9,2,1.4,3.5,1.4
		c0.9,0,2-0.1,3.2-0.4v1.4c-0.9,0.3-2.1,0.4-3.5,0.4c-2,0-3.5-0.6-4.5-1.8s-1.7-2.9-1.7-5.1c0-1.4,0.3-2.6,0.8-3.6
		c0.5-1.1,1.2-1.8,2.2-2.4c0.9-0.6,2.1-0.9,3.5-0.9s2.5,0.3,3.6,0.8l-0.6,1.4C126.8,598.8,125.9,598.5,124.7,598.5z"/>
	<path class="st0" d="M131,610.7v-13.2h1.5v13.2H131z"/>
	<path class="st0" d="M144.5,610.7l-1.6-4.2h-5.2l-1.6,4.2h-1.5l5.2-13.4h1.3l5.2,13.4H144.5z M142.4,604.9l-1.5-4.1
		c-0.1-0.4-0.4-1.2-0.6-1.9c-0.2,0.6-0.3,1.2-0.6,1.9l-1.5,4.1H142.4z"/>
</g>
<path class="st5" d="M114.2,529.1c0-6.5-2.9-12.3-7.6-16.1l-3,6.4c2.3,2.4,3.8,6,3.8,9.6c0,2.6-0.7,5-1.8,7l-2.1-2.8l-1.5,5.6
	l-1.6,5.6l5.9,0.2l5.8,0.3l-2.3-3.2C112.7,538.3,114.2,533.9,114.2,529.1z"/>
<path class="st5" d="M93.3,543.2c-5.5,0-10.3-3.2-12.6-7.9l3.8-0.2l-4-4.3l-4.1-4.2l-3.2,4.9l-3.3,4.8l3.6-0.3
	c3,8.1,10.6,13.9,19.8,13.9c2.7,0,5.2-0.6,7.6-1.3l-4.1-5.9C95.7,543.1,94.4,543.2,93.3,543.2z"/>
<path class="st5" d="M93.3,514.8h0.4l-1.7,3.6l5.7-1.3l5.7-1.4l-2.7-5.2l-2.6-5.2l-1.3,3.2c-1.2-0.3-2.3-0.4-3.4-0.4
	c-10.2,0-18.6,7.2-20.5,16.8l7.2-0.7C82.1,518.7,87.2,514.8,93.3,514.8z"/>
<path class="st0" d="M92.1,631.5c-33.3,0-60.3,27-60.3,60.3s27,60.3,60.3,60.3s60.3-27,60.3-60.3S125.3,631.5,92.1,631.5z"/>
<path class="st1" d="M91.9,625.1c-36.9,0-66.8,29.9-66.8,66.8s29.9,66.8,66.8,66.8s66.8-29.9,66.8-66.8S128.9,625.1,91.9,625.1z
	 M92.1,754.4c-34.6,0-62.6-28-62.6-62.6s28-62.6,62.6-62.6s62.6,28,62.6,62.6C154.8,726.3,126.7,754.4,92.1,754.4z"/>
<path class="st2" d="M92.1,629.1c-34.6,0-62.6,28-62.6,62.6s28,62.6,62.6,62.6s62.6-28,62.6-62.6
	C154.8,657.2,126.7,629.1,92.1,629.1z M92.1,752c-33.3,0-60.3-27-60.3-60.3s27-60.3,60.3-60.3s60.3,27,60.3,60.3S125.3,752,92.1,752
	z"/>
<g>
	<path class="st0" d="M16.7,774.6h-1.5v-11.8H11v-1.4h9.9v1.4h-4.2V774.6z"/>
	<path class="st0" d="M23.1,774.6v-13.2h1.5v13.2H23.1z"/>
	<path class="st0" d="M33.9,762.4c-1.5,0-2.6,0.4-3.5,1.5c-0.9,0.9-1.2,2.2-1.2,4s0.4,3.1,1.2,4c0.8,0.9,2,1.4,3.5,1.4
		c0.9,0,1.9-0.2,3.1-0.5v1.4c-0.9,0.3-2.1,0.4-3.5,0.4c-1.9,0-3.4-0.6-4.5-1.8c-1-1.2-1.6-2.9-1.6-5.1c0-1.4,0.3-2.6,0.8-3.6
		s1.2-1.8,2.2-2.4c0.9-0.6,2.1-0.9,3.5-0.9c1.3,0,2.5,0.3,3.6,0.8l-0.6,1.4C35.7,762.7,35,762.4,33.9,762.4L33.9,762.4z"/>
	<path class="st0" d="M49.4,774.6h-1.8l-4.8-6.4l-1.4,1.2v5.2h-1.5v-13.2h1.5v6.6l6-6.6h1.8l-5.4,5.7L49.4,774.6z"/>
	<path class="st0" d="M58.8,774.6h-7.4v-13.2h7.4v1.4H53v4.4h5.5v1.4H53v5h5.9v1L58.8,774.6L58.8,774.6z"/>
	<path class="st0" d="M65.7,774.6h-1.5v-11.8H60v-1.4h9.9v1.4h-4.2C65.7,762.8,65.7,774.6,65.7,774.6z"/>
	<path class="st0" d="M85.2,765.1c0,1.4-0.5,2.4-1.3,3.1c-0.9,0.8-2.2,1-3.9,1h-1.5v5.2H77v-13.2h3.5
		C83.6,761.2,85.2,762.6,85.2,765.1z M78.3,768h1.3c1.4,0,2.4-0.1,3-0.6s0.9-1.2,0.9-2.1s-0.3-1.5-0.9-2c-0.6-0.4-1.5-0.6-2.7-0.6
		h-1.6C78.3,762.7,78.3,768,78.3,768z"/>
	<path class="st0" d="M89.6,769v5.5h-1.5v-13.2h3.6c1.7,0,2.9,0.3,3.6,0.9s1.2,1.5,1.2,2.9c0,1.8-0.9,3-2.7,3.6l3.6,6h-1.8l-3.1-5.5
		L89.6,769z M89.6,767.7h2.1c1,0,2-0.2,2.4-0.6c0.4-0.5,0.8-1,0.8-1.9s-0.3-1.5-0.8-1.9c-0.5-0.5-1.4-0.6-2.5-0.6h-2V767.7z"/>
	<path class="st0" d="M110.9,767.8c0,2.1-0.6,3.8-1.6,5s-2.5,1.8-4.5,1.8s-3.5-0.6-4.5-1.8s-1.7-2.9-1.7-5.1c0-2.1,0.6-3.9,1.7-5.1
		s2.5-1.8,4.5-1.8s3.5,0.6,4.5,1.8C110.6,764.1,110.9,765.7,110.9,767.8L110.9,767.8z M100.4,767.8c0,1.8,0.5,3.2,1.2,4.1
		s2,1.4,3.3,1.4c1.5,0,2.5-0.5,3.3-1.4s1.2-2.2,1.2-4.1c0-1.8-0.3-3.1-1-4s-1.8-1.4-3.3-1.4s-2.5,0.4-3.3,1.4
		C100.8,764.8,100.4,766.2,100.4,767.8z"/>
	<path class="st0" d="M119.7,774.6l-4.5-11.7c0.2,0.9,0.2,2.1,0.2,3.3v8.4h-1.5v-13.2h2.2l4.2,10.9l4.2-10.9h2.2v13.2h-1.5V766
		c0-1,0-2.1,0.1-3.1l-4.5,11.7L119.7,774.6L119.7,774.6z"/>
	<path class="st0" d="M138,774.6h-7.3v-13.2h7.3v1.4h-5.8v4.4h5.5v1.4h-5.5v5h5.8V774.6z"/>
	<path class="st0" d="M151.5,767.8c0,2.2-0.6,3.9-1.8,5c-1.2,1.2-2.8,1.8-5.1,1.8H141v-13.2h4c2.1,0,3.6,0.6,4.8,1.6
		C151.1,764.1,151.5,765.7,151.5,767.8z M150,767.8c0-1.8-0.5-3-1.3-3.9c-0.9-0.9-2.1-1.4-3.9-1.4h-2.2v10.7h2
		c1.8,0,3.1-0.5,4.2-1.4C149.6,771,150,769.6,150,767.8L150,767.8z"/>
	<path class="st0" d="M154.5,774.6v-13.2h1.5v13.2H154.5z"/>
	<path class="st0" d="M171.3,767.8c0,2.1-0.6,3.8-1.7,5s-2.6,1.8-4.5,1.8c-2,0-3.5-0.6-4.5-1.8c-1.1-1.2-1.7-2.9-1.7-5.1
		c0-2.1,0.6-3.9,1.7-5.1s2.5-1.8,4.5-1.8c1.9,0,3.4,0.6,4.5,1.8C170.7,764.1,171.3,765.7,171.3,767.8L171.3,767.8z M160.8,767.8
		c0,1.8,0.4,3.2,1.2,4.1s2,1.4,3.3,1.4c1.5,0,2.5-0.5,3.3-1.4s1.2-2.2,1.2-4.1c0-1.8-0.3-3.1-1.1-4s-1.8-1.4-3.3-1.4
		s-2.6,0.4-3.3,1.4C161.3,764.8,160.8,766.2,160.8,767.8L160.8,767.8z"/>
</g>
<path class="st6" d="M104.3,671.1H77.4v41.8h26.9c1.6,0,3-1.3,3-3V674C107.3,672.4,105.9,671.1,104.3,671.1L104.3,671.1z
	 M93.8,706.9h-12c-0.8,0-1.5-0.7-1.5-1.5s0.7-1.5,1.5-1.5h12c0.8,0,1.5,0.7,1.5,1.5C95.3,706.3,94.8,706.9,93.8,706.9z M102.8,701
	H81.9c-0.8,0-1.5-0.7-1.5-1.5s0.7-1.5,1.5-1.5h20.9c0.8,0,1.5,0.7,1.5,1.5S103.7,701,102.8,701z M102.8,695H81.9
	c-0.8,0-1.5-0.7-1.5-1.5s0.7-1.5,1.5-1.5h20.9c0.8,0,1.5,0.7,1.5,1.5S103.7,695,102.8,695z M102.8,689H81.9c-0.8,0-1.5-0.7-1.5-1.5
	s0.7-1.5,1.5-1.5h20.9c0.8,0,1.5,0.7,1.5,1.5C104.3,688.4,103.7,689,102.8,689z M102.8,683H81.9c-0.8,0-1.5-0.7-1.5-1.5
	s0.7-1.5,1.5-1.5h20.9c0.8,0,1.5,0.7,1.5,1.5C104.3,682.4,103.7,683,102.8,683z M102.8,677.1H81.9c-0.8,0-1.5-0.7-1.5-1.5
	s0.7-1.5,1.5-1.5h20.9c0.8,0,1.5,0.7,1.5,1.5S103.7,677.1,102.8,677.1z"/>
<path class="st7" d="M102.8,698H81.9c-0.8,0-1.5,0.7-1.5,1.5s0.7,1.5,1.5,1.5h20.9c0.8,0,1.5-0.7,1.5-1.5S103.7,698,102.8,698z"/>
<path class="st7" d="M104.2,668.1H73.8v47.8h30.4c3.3,0,6-2.7,6-6V674C110.2,670.8,107.6,668.1,104.2,668.1L104.2,668.1z
	 M107.2,709.9c0,1.6-1.3,3-3,3H77.3v-41.8h26.9c1.6,0,3,1.3,3,3C107.2,674.1,107.2,709.9,107.2,709.9z"/>
<path class="st7" d="M102.8,692H81.9c-0.8,0-1.5,0.7-1.5,1.5s0.7,1.5,1.5,1.5h20.9c0.8,0,1.5-0.7,1.5-1.5S103.7,692,102.8,692z"/>
<path class="st7" d="M93.8,704h-12c-0.8,0-1.5,0.7-1.5,1.5s0.7,1.5,1.5,1.5h12c0.8,0,1.5-0.7,1.5-1.5C95.3,704.6,94.8,704,93.8,704z
	"/>
<path class="st7" d="M102.8,674.1H81.9c-0.8,0-1.5,0.7-1.5,1.5s0.7,1.5,1.5,1.5h20.9c0.8,0,1.5-0.7,1.5-1.5
	C104.3,674.7,103.7,674.1,102.8,674.1z"/>
<path class="st7" d="M102.8,686H81.9c-0.8,0-1.5,0.7-1.5,1.5s0.7,1.5,1.5,1.5h20.9c0.8,0,1.5-0.7,1.5-1.5S103.7,686,102.8,686z"/>
<path class="st7" d="M102.8,680.1H81.9c-0.8,0-1.5,0.7-1.5,1.5s0.7,1.5,1.5,1.5h20.9c0.8,0,1.5-0.7,1.5-1.5
	C104.3,680.7,103.7,680.1,102.8,680.1z"/>
<g>
	<path class="st0" d="M260,334.7h1.7l-4.8,13.2h-1.5l-4.8-13.2h1.7l3,8.6c0.3,1.1,0.6,1.9,0.9,2.9c0.2-1.1,0.5-1.9,0.9-3L260,334.7z
		"/>
	<path class="st0" d="M271,348h-7.3v-13.2h7.3v1.3h-5.8v4.4h5.5v1.3h-5.5v4.9h5.8V348z"/>
	<path class="st0" d="M284.2,348h-1.8l-7.2-11.1c0.2,1.4,0.2,2.6,0.2,3.6v7.5h-1.5v-13.2h1.8l7.2,11.1c0-0.1,0-0.8-0.2-1.5
		c-0.1-0.8,0-1.5,0-1.9v-7.6h1.5V348z"/>
	<path class="st0" d="M292.1,348h-1.5v-11.9h-4.4v-1.3h9.9v1.3H292L292.1,348z"/>
	<path class="st0" d="M306.5,348l-1.6-4.2h-5.2L298,348h-1.5l5.2-13.4h1.4l5.2,13.4H306.5z M304.3,342.3l-1.5-4.1
		c-0.1-0.4-0.4-1.2-0.6-1.9c-0.2,0.6-0.3,1.2-0.6,1.9l-1.5,4.1H304.3z"/>
	<path class="st0" d="M317.5,344.4c0,1.2-0.4,2.1-1.2,2.7c-0.9,0.6-1.9,1.1-3.4,1.1s-2.8-0.1-3.6-0.6v-1.5c0.6,0.3,1.2,0.4,1.8,0.6
		c0.6,0.2,1.3,0.2,1.9,0.2c1.1,0,1.8-0.2,2.2-0.6s0.8-0.9,0.8-1.6c0-0.4-0.2-0.9-0.3-1.2c-0.2-0.3-0.4-0.6-0.9-0.8
		c-0.4-0.3-1.1-0.6-1.9-0.9c-1.2-0.4-2.1-0.9-2.7-1.5s-0.8-1.3-0.8-2.4s0.4-1.8,1.2-2.4c0.8-0.6,1.8-0.9,3-0.9
		c1.4,0,2.6,0.3,3.6,0.8l-0.4,1.3c-1.1-0.4-2.1-0.8-3.2-0.8c-0.8,0-1.5,0.2-1.9,0.6c-0.4,0.3-0.8,0.9-0.8,1.5c0,0.4,0.2,0.9,0.3,1.2
		c0.2,0.3,0.4,0.6,0.9,0.8c0.4,0.3,1.1,0.4,1.8,0.8c1.3,0.4,2.4,1.1,2.8,1.6C317.2,342.8,317.5,343.5,317.5,344.4L317.5,344.4z"/>
</g>
<g>
	<path class="st0" d="M284.1,204.9c-33.3,0-60.3,27-60.3,60.3s27,60.3,60.3,60.3s60.3-27,60.3-60.3S317.4,204.9,284.1,204.9z"/>
	<path class="st1" d="M284,198.6c-36.9,0-66.8,29.9-66.8,66.8s29.9,66.8,66.8,66.8s66.8-29.9,66.8-66.8S320.9,198.6,284,198.6
		L284,198.6z M284.1,327.9c-34.6,0-62.6-28-62.6-62.6s28-62.6,62.6-62.6s62.6,28,62.6,62.6C346.8,299.8,318.6,327.9,284.1,327.9z"/>
	<path class="st2" d="M284.1,202.6c-34.6,0-62.6,28-62.6,62.6s28,62.6,62.6,62.6s62.6-28,62.6-62.6S318.6,202.6,284.1,202.6z
		 M284.1,325.5c-33.3,0-60.3-27-60.3-60.3s27-60.3,60.3-60.3s60.3,27,60.3,60.3S317.4,325.5,284.1,325.5z"/>
	<path class="st8" d="M281,241.5h5v3.6c2.3,0.1,4.6,0.8,6.9,2.1v8.4c-2.5-2.4-4.8-3.6-7-3.6c-1.1,0-2,0.3-2.9,1s-1.3,1.6-1.3,2.7
		c0,0.9,0.3,1.6,0.9,2.2s2,1.5,4.2,2.4c2,0.9,3.5,1.7,4.6,2.5s2,1.9,2.8,3.3c0.7,1.4,1.1,2.9,1.1,4.6c0,2.6-0.8,5-2.3,7.1
		s-3.9,3.6-7,4.5v4.1h-5v-3.6c-2.3-0.1-5-0.8-8.1-2.3v-8.7c2.9,2.7,5.6,4.1,8.3,4.1c1.5,0,2.7-0.4,3.7-1.3s1.5-2,1.5-3.4
		c0-1.2-0.4-2.1-1.2-2.8c-0.8-0.7-2.2-1.5-4.3-2.4c-2.6-1.1-4.6-2.5-6-4.1s-2.1-3.7-2.1-6.2c0-2.5,0.7-4.6,2-6.3
		c1.4-1.7,3.4-3,6.1-4L281,241.5L281,241.5z"/>
</g>
<g>
	<path class="st0" d="M179.3,512.1v5.5h-1.5v-13.2h3.6c1.7,0,2.8,0.3,3.6,0.9s1.2,1.5,1.2,2.8c0,1.8-0.9,3-2.7,3.6l3.6,6h-1.9
		l-3.2-5.5L179.3,512.1L179.3,512.1z M179.3,510.8h2.1c1.1,0,2-0.2,2.4-0.6c0.5-0.4,0.8-1.1,0.8-1.9s-0.3-1.5-0.8-1.9
		c-0.4-0.4-1.3-0.6-2.5-0.6h-2V510.8z"/>
	<path class="st0" d="M196.5,517.7h-7.3v-13.2h7.3v1.4h-5.8v4.4h5.6v1.3h-5.6v5h5.8V517.7z"/>
	<path class="st0" d="M203.7,517.7h-1.5v-11.9H198v-1.4h9.9v1.4h-4.2V517.7z"/>
	<path class="st0" d="M221.3,510.9c0,2.1-0.6,3.8-1.7,4.9c-1.1,1.2-2.5,1.8-4.5,1.8c-1.9,0-3.4-0.6-4.5-1.8c-1-1.2-1.7-2.8-1.7-5.1
		c0-2.1,0.6-3.9,1.7-5.1c1.1-1.2,2.6-1.8,4.5-1.8c2,0,3.5,0.6,4.5,1.8C220.8,507.2,221.3,508.8,221.3,510.9z M210.8,510.9
		c0,1.8,0.5,3.1,1.2,4c0.8,0.9,1.9,1.4,3.3,1.4c1.5,0,2.6-0.4,3.3-1.4c0.8-0.9,1.2-2.2,1.2-4s-0.3-3.2-1-4.1
		c-0.8-0.9-1.8-1.3-3.3-1.3s-2.5,0.4-3.3,1.3C211.2,507.8,210.8,509.1,210.8,510.9L210.8,510.9z"/>
	<path class="st0" d="M225.8,512.1v5.5h-1.5v-13.2h3.6c1.7,0,2.8,0.3,3.6,0.9s1.2,1.5,1.2,2.8c0,1.8-0.9,3-2.7,3.6l3.6,6h-1.8
		l-3.2-5.5L225.8,512.1L225.8,512.1z M225.8,510.8h2.1c1.1,0,2-0.2,2.4-0.6c0.5-0.4,0.8-1.1,0.8-1.9s-0.3-1.5-0.8-1.9
		c-0.4-0.4-1.3-0.6-2.5-0.6h-2V510.8z"/>
	<path class="st0" d="M246.3,517.7h-1.8l-7.2-11.1c0.2,1.4,0.2,2.6,0.2,3.6v7.5H236v-13.2h1.8l7.2,11.1c0-0.1,0-0.8-0.2-1.5
		s0-1.5,0-1.9v-7.7h1.5V517.7z"/>
	<path class="st0" d="M261.5,510.9c0,2.1-0.6,3.8-1.7,4.9c-1.1,1.2-2.5,1.8-4.5,1.8c-1.9,0-3.4-0.6-4.5-1.8c-1-1.2-1.7-2.8-1.7-5.1
		c0-2.1,0.6-3.9,1.7-5.1c1.1-1.2,2.6-1.8,4.5-1.8c2,0,3.5,0.6,4.5,1.8C260.7,507.2,261.5,508.8,261.5,510.9z M250.8,510.9
		c0,1.8,0.4,3.1,1.2,4s2,1.4,3.3,1.4c1.5,0,2.5-0.4,3.3-1.4c0.8-0.9,1.2-2.2,1.2-4s-0.3-3.2-1-4.1c-0.8-0.9-1.8-1.3-3.3-1.3
		c-1.5,0-2.6,0.4-3.3,1.3C251.3,507.8,250.8,509.1,250.8,510.9L250.8,510.9z"/>
	<path class="st0" d="M279.6,510.8c0,2.2-0.6,3.9-1.8,5.1s-2.9,1.8-5.1,1.8h-3.6v-13.2h4c2.1,0,3.6,0.6,4.8,1.7
		C279,507.2,279.6,508.8,279.6,510.8L279.6,510.8z M278,510.9c0-1.8-0.5-3-1.4-3.9s-2.1-1.3-3.9-1.3h-2.2v10.6h1.9
		c1.8,0,3.2-0.5,4.2-1.4C277.5,514.1,278,512.7,278,510.9z"/>
	<path class="st0" d="M290.1,517.7h-7.3v-13.2h7.3v1.4h-5.8v4.4h5.6v1.3h-5.6v5h5.8V517.7z"/>
	<path class="st0" d="M297.8,517.7v-13.2h1.5v13.2H297.8z"/>
	<path class="st0" d="M313.4,517.7h-1.8l-7.2-11.1c0.2,1.4,0.2,2.6,0.2,3.6v7.5H303v-13.2h1.8l7.2,11.1c0-0.1,0-0.8-0.2-1.5
		c-0.1-0.8,0-1.5,0-1.9v-7.7h1.5v13.2L313.4,517.7L313.4,517.7z"/>
	<path class="st0" d="M324.6,504.3h1.7l-4.8,13.2H320l-4.8-13.2h1.6l3,8.6c0.3,1,0.6,1.9,0.9,2.9c0.1-1.1,0.4-2,0.9-3L324.6,504.3z"
		/>
	<path class="st0" d="M335.4,517.7h-7.3v-13.2h7.3v1.4h-5.8v4.4h5.6v1.3h-5.6v5h5.8V517.7z"/>
	<path class="st0" d="M339.9,512.1v5.5h-1.5v-13.2h3.6c1.6,0,2.8,0.3,3.6,0.9s1.2,1.5,1.2,2.8c0,1.8-0.9,3-2.7,3.6l3.6,6h-1.8
		l-3.2-5.5L339.9,512.1L339.9,512.1z M339.9,510.8h2.1c1.1,0,1.9-0.2,2.4-0.6s0.8-1.1,0.8-1.9s-0.3-1.5-0.8-1.9s-1.3-0.6-2.6-0.6
		h-1.9V510.8z"/>
	<path class="st0" d="M357.5,514.1c0,1.2-0.4,2.1-1.2,2.7c-0.9,0.6-1.9,1-3.4,1s-2.9-0.1-3.6-0.6v-1.5c0.6,0.3,1.2,0.5,1.8,0.6
		c0.6,0.1,1.4,0.1,1.9,0.1c1.1,0,1.8-0.1,2.2-0.6s0.8-0.9,0.8-1.6c0-0.4-0.1-0.9-0.3-1.2c-0.1-0.3-0.4-0.6-0.9-0.8
		c-0.4-0.3-1.1-0.6-1.9-0.9c-1.2-0.4-2.1-0.9-2.7-1.5s-0.8-1.3-0.8-2.4c0-1,0.4-1.8,1.2-2.4s1.8-0.9,3-0.9c1.3,0,2.6,0.3,3.6,0.8
		l-0.4,1.3c-1.1-0.4-2.1-0.8-3.1-0.8c-0.8,0-1.5,0.2-1.9,0.6c-0.4,0.3-0.8,0.9-0.8,1.5c0,0.5,0.1,0.9,0.3,1.2
		c0.1,0.3,0.4,0.6,0.9,0.8c0.4,0.3,1.1,0.4,1.8,0.8c1.4,0.4,2.4,1,2.9,1.6C357.3,512.4,357.5,513.2,357.5,514.1L357.5,514.1z"/>
	<path class="st0" d="M360.3,517.7v-13.2h1.5v13.2H360.3z"/>
	<path class="st0" d="M377,510.9c0,2.1-0.6,3.8-1.7,4.9c-1.1,1.2-2.6,1.8-4.5,1.8s-3.4-0.6-4.5-1.8s-1.6-2.8-1.6-5.1
		c0-2.1,0.6-3.9,1.6-5.1c1.1-1.2,2.6-1.8,4.5-1.8s3.4,0.6,4.5,1.8C376.4,507.2,377,508.8,377,510.9z M366.3,510.9
		c0,1.8,0.4,3.1,1.2,4c0.8,0.9,1.9,1.4,3.3,1.4c1.5,0,2.6-0.4,3.3-1.4c0.8-0.9,1.2-2.2,1.2-4s-0.3-3.2-1.1-4.1
		c-0.8-0.9-1.8-1.3-3.3-1.3s-2.6,0.4-3.3,1.3C366.6,507.8,366.3,509.1,366.3,510.9L366.3,510.9z M369.6,503c0.3-0.3,0.6-0.9,0.9-1.3
		c0.3-0.6,0.6-1.1,0.8-1.3h1.8v0.1c-0.3,0.4-0.6,0.9-1.2,1.5s-1.1,1.1-1.4,1.4h-1.1L369.6,503z"/>
	<path class="st0" d="M390.3,517.7h-1.8l-7.2-11.1c0.2,1.4,0.2,2.6,0.2,3.6v7.5H380v-13.2h1.8l7.2,11.1c0-0.1,0-0.8-0.2-1.5
		c-0.1-0.8,0-1.5,0-1.9v-7.7h1.5V517.7z"/>
</g>
<g>
	<path class="st0" d="M284.1,373.9c-33.3,0-60.3,27-60.3,60.3s27,60.3,60.3,60.3s60.3-27,60.3-60.3S317.4,373.9,284.1,373.9z"/>
	<path class="st1" d="M284,367.6c-36.9,0-66.8,29.9-66.8,66.8s29.9,66.8,66.8,66.8s66.8-29.9,66.8-66.8S320.9,367.6,284,367.6
		L284,367.6z M284.1,496.9c-34.6,0-62.6-28-62.6-62.6s28-62.6,62.6-62.6s62.6,28,62.6,62.6C346.8,468.8,318.6,496.9,284.1,496.9z"/>
	<path class="st2" d="M284.1,371.6c-34.6,0-62.6,28-62.6,62.6s28,62.6,62.6,62.6s62.6-28,62.6-62.6S318.6,371.6,284.1,371.6z
		 M284.1,494.5c-33.3,0-60.3-27-60.3-60.3s27-60.3,60.3-60.3s60.3,27,60.3,60.3S317.4,494.5,284.1,494.5z"/>
	<path class="st9" d="M250,396.8h5.2v66.4H250V396.8z"/>
	<path class="st9" d="M251,458h66.4v5.2H251V458z"/>
	<path class="st9" d="M262.5,437h8.5v24.5h-8.5V437z"/>
	<path class="st9" d="M279,425.3h8.5v36.1H279V425.3z"/>
	<path class="st9" d="M295.8,413.3h8.5v48.2h-8.5V413.3z"/>
</g>
<g>
	<path class="st0" d="M284.1,543.2c-33.3,0-60.3,27-60.3,60.3s27,60.3,60.3,60.3s60.3-27,60.3-60.3S317.4,543.2,284.1,543.2z"/>
	<path class="st1" d="M284,536.9c-36.9,0-66.8,29.9-66.8,66.8c0,36.9,29.9,66.8,66.8,66.8s66.8-29.9,66.8-66.8
		S320.9,536.9,284,536.9L284,536.9z M284.1,666.2c-34.6,0-62.6-28-62.6-62.6s28-62.6,62.6-62.6s62.6,28,62.6,62.6
		C346.6,638.1,318.6,666.2,284.1,666.2z"/>
	<path class="st2" d="M284.1,540.9c-34.6,0-62.6,28-62.6,62.6s28,62.6,62.6,62.6s62.6-28,62.6-62.6S318.6,540.9,284.1,540.9z
		 M284.1,663.8c-33.3,0-60.3-27-60.3-60.3s27-60.3,60.3-60.3s60.3,27,60.3,60.3S317.4,663.8,284.1,663.8z"/>
	<g>
		<path class="st0" d="M230,683.4c0,1.2-0.4,2.1-1.2,2.7c-0.9,0.6-2,1-3.5,1s-2.8-0.1-3.6-0.6V685c0.6,0.3,1.2,0.5,1.8,0.6
			c0.6,0.2,1.3,0.1,1.9,0.1c1.1,0,1.8-0.1,2.2-0.6c0.5-0.5,0.8-0.9,0.8-1.6c0-0.4-0.2-0.9-0.3-1.2s-0.5-0.6-0.9-0.8
			c-0.5-0.3-1.1-0.6-2-0.9c-1.2-0.5-2.1-0.9-2.7-1.5c-0.6-0.6-0.8-1.4-0.8-2.4s0.4-1.8,1.2-2.4c0.8-0.6,1.8-0.9,3-0.9
			c1.3,0,2.6,0.3,3.6,0.8l-0.4,1.4c-1.1-0.5-2.1-0.8-3.2-0.8c-0.8,0-1.5,0.1-2,0.6c-0.4,0.3-0.8,0.9-0.8,1.5c0,0.4,0.2,0.9,0.3,1.2
			s0.4,0.6,0.9,0.8c0.4,0.3,1,0.5,1.8,0.8c1.3,0.5,2.4,1.1,2.8,1.6C229.7,681.7,230,682.5,230,683.4L230,683.4z"/>
		<path class="st0" d="M240.9,687l-1.7-4.2H234l-1.7,4.2h-1.5l5.2-13.4h1.3l5.2,13.4H240.9z M238.7,681.3l-1.5-4
			c-0.2-0.5-0.4-1.2-0.6-2c-0.2,0.6-0.3,1.2-0.6,2l-1.5,4H238.7z"/>
		<path class="st0" d="M248.4,687h-1.5v-11.9h-4.2v-1.4h9.9v1.4h-4.2V687z"/>
		<path class="st0" d="M254.8,687v-13.2h1.5V687H254.8z"/>
		<path class="st0" d="M267.2,683.4c0,1.2-0.5,2.1-1.2,2.7c-0.9,0.6-1.9,1-3.4,1s-2.9-0.1-3.6-0.6V685c0.6,0.3,1.2,0.5,1.8,0.6
			c0.6,0.2,1.4,0.1,2,0.1c1,0,1.8-0.1,2.2-0.6s0.8-0.9,0.8-1.6c0-0.4-0.1-0.9-0.3-1.2c-0.1-0.3-0.5-0.6-0.9-0.8
			c-0.4-0.3-1-0.6-1.9-0.9c-1.2-0.5-2.1-0.9-2.7-1.5s-0.8-1.4-0.8-2.4s0.5-1.8,1.2-2.4c0.8-0.6,1.8-0.9,3-0.9c1.3,0,2.5,0.3,3.6,0.8
			l-0.5,1.4c-1-0.5-2.1-0.8-3.1-0.8c-0.8,0-1.5,0.1-2,0.6c-0.5,0.3-0.8,0.9-0.8,1.5c0,0.4,0.2,0.9,0.3,1.2c0.1,0.3,0.5,0.6,0.9,0.8
			c0.5,0.3,1,0.5,1.8,0.8c1.4,0.5,2.4,1.1,2.9,1.6C267.2,681.7,267.2,682.5,267.2,683.4L267.2,683.4z"/>
		<path class="st0" d="M271.7,687h-1.5v-13.2h7.4v1.4h-5.9v4.8h5.5v1.4h-5.5V687z"/>
		<path class="st0" d="M287.9,687l-1.7-4.2H281l-1.6,4.2h-1.5l5.2-13.4h1.3l5.2,13.4H287.9z M285.9,681.3l-1.5-4
			c-0.1-0.5-0.4-1.2-0.6-2c-0.2,0.6-0.3,1.2-0.6,2l-1.5,4H285.9z"/>
		<path class="st0" d="M297.2,674.8c-1.5,0-2.6,0.4-3.4,1.5c-0.9,0.9-1.2,2.2-1.2,4s0.4,3.1,1.2,4.1c0.8,0.9,1.9,1.4,3.4,1.4
			c0.9,0,1.9-0.1,3.2-0.5v1.4c-0.9,0.3-2.1,0.5-3.4,0.5c-1.9,0-3.4-0.6-4.5-1.8s-1.7-2.9-1.7-5.1c0-1.4,0.3-2.5,0.8-3.6
			c0.4-1,1.2-1.8,2.2-2.4c0.9-0.6,2.1-0.9,3.4-0.9c1.4,0,2.6,0.3,3.6,0.8l-0.6,1.4C299,675.1,298.1,674.8,297.2,674.8L297.2,674.8z"
			/>
		<path class="st0" d="M308.8,674.8c-1.5,0-2.6,0.4-3.4,1.5c-0.9,0.9-1.2,2.2-1.2,4s0.4,3.1,1.2,4.1c0.8,0.9,1.9,1.4,3.4,1.4
			c0.9,0,1.9-0.1,3.2-0.5v1.4c-0.9,0.3-2.1,0.5-3.4,0.5c-1.9,0-3.4-0.6-4.5-1.8s-1.7-2.9-1.7-5.1c0-1.4,0.3-2.5,0.8-3.6
			c0.4-1,1.2-1.8,2.2-2.4c0.9-0.6,2.1-0.9,3.4-0.9c1.4,0,2.6,0.3,3.6,0.8l-0.6,1.4C310.9,675.1,309.9,674.8,308.8,674.8L308.8,674.8
			z"/>
		<path class="st0" d="M314.8,687v-13.2h1.5V687H314.8z"/>
		<path class="st0" d="M331.7,680.2c0,2.1-0.6,3.8-1.6,4.9c-1.1,1.2-2.6,1.8-4.5,1.8s-3.4-0.6-4.5-1.8s-1.7-2.9-1.7-5.1
			c0-2.1,0.6-3.9,1.7-5.1s2.6-1.8,4.5-1.8s3.4,0.6,4.5,1.8C331.1,676.5,331.7,678.1,331.7,680.2L331.7,680.2z M320.9,680.2
			c0,1.8,0.4,3.1,1.2,4c0.8,0.9,1.9,1.4,3.3,1.4c1.5,0,2.6-0.4,3.3-1.4c0.8-0.9,1.2-2.2,1.2-4s-0.3-3.1-1.1-4.1
			c-0.8-0.9-1.8-1.4-3.3-1.4s-2.6,0.5-3.3,1.4C321.4,677.1,320.9,678.4,320.9,680.2L320.9,680.2z M324.2,672.3
			c0.3-0.3,0.6-0.9,0.9-1.4c0.3-0.6,0.6-1,0.8-1.4h1.8v0.1c-0.3,0.5-0.6,0.9-1.2,1.5s-1.1,1.1-1.4,1.4H324L324.2,672.3z"/>
		<path class="st0" d="M344.8,687H343l-7.2-11.1c0.2,1.4,0.2,2.5,0.2,3.6v7.5h-1.5v-13.2h1.8l7.2,11.1c0-0.1,0-0.8-0.2-1.5
			c-0.1-0.8,0-1.5,0-1.9v-7.6h1.5V687z"/>
	</g>
	<circle class="st4" cx="269" cy="592.8" r="6.5"/>
	<path class="st4" d="M291.1,589.5h15.8v4.6h-15.8V589.5z"/>
	<path class="st4" d="M284.1,632.3c11.1,0,20.5-7.9,22.9-18.5h-5.3c-2.3,7.7-9.3,13.3-17.6,13.3s-15.3-5.6-17.6-13.3h-5.3
		C263.8,624.4,273,632.3,284.1,632.3z"/>
</g>
<path class="st0" d="M474.9,288.4c-33.3,0-60.3,27-60.3,60.3s27,60.3,60.3,60.3s60.3-27,60.3-60.3S508.1,288.4,474.9,288.4
	L474.9,288.4z"/>
<path class="st1" d="M474.8,282c-36.9,0-66.8,29.9-66.8,66.8s29.9,66.8,66.8,66.8s66.8-29.9,66.8-66.8S511.6,282,474.8,282
	L474.8,282z M474.9,411.3c-34.6,0-62.6-28-62.6-62.6s28-62.6,62.6-62.6s62.6,28,62.6,62.6C537.5,383.2,509.5,411.3,474.9,411.3z"/>
<path class="st2" d="M474.9,286c-34.6,0-62.6,28-62.6,62.6s28,62.6,62.6,62.6s62.6-28,62.6-62.6S509.5,286,474.9,286L474.9,286z
	 M474.9,408.9c-33.3,0-60.3-27-60.3-60.3s27-60.3,60.3-60.3s60.3,27,60.3,60.3S508.1,408.9,474.9,408.9z"/>
<path class="st3" d="M478.8,359.7c-1,0-1.9-0.6-2.7-1.1c-0.6-0.4-1.4-0.9-1.8-0.9c-0.5,0-1.2,0.5-1.8,0.9c-1,0.7-2.2,1.4-3.4,1
	s-1.8-1.7-2.2-2.9c-0.3-0.7-0.6-1.5-0.9-1.7c-0.3-0.3-1.2-0.3-1.9-0.4c-1.3-0.1-2.7-0.2-3.4-1.2s-0.4-2.4-0.1-3.6
	c0.2-0.7,0.4-1.6,0.3-2s-0.8-0.9-1.3-1.4c-1-0.8-2.1-1.7-2.1-3s1.1-2.2,2.1-3c0.6-0.5,1.2-1,1.3-1.4s-0.1-1.2-0.3-2
	c-0.3-1.2-0.7-2.6,0.1-3.6s2.2-1.1,3.4-1.2c0.7,0,1.6-0.1,1.9-0.4c0.3-0.2,0.6-1,0.9-1.7c0.5-1.2,1-2.5,2.2-2.9s2.4,0.4,3.4,1
	c0.6,0.4,1.4,0.9,1.8,0.9c0.5,0,1.2-0.5,1.8-0.9c1-0.7,2.2-1.4,3.4-1s1.8,1.7,2.2,2.9c0.3,0.7,0.6,1.5,0.9,1.7
	c0.3,0.3,1.2,0.3,1.9,0.4c1.3,0.1,2.7,0.2,3.4,1.2s0.4,2.4,0.1,3.6c-0.2,0.7-0.4,1.6-0.3,2s0.8,0.9,1.3,1.4c1,0.8,2.1,1.7,2.1,3
	s-1.1,2.2-2.1,3c-0.6,0.5-1.2,1-1.3,1.4s0.1,1.2,0.3,2c0.3,1.2,0.7,2.6-0.1,3.6s-2.2,1.1-3.4,1.2c-0.7,0-1.6,0.1-1.9,0.4
	c-0.3,0.2-0.6,1-0.9,1.7c-0.5,1.2-1,2.5-2.2,2.9C479.1,359.7,479,359.7,478.8,359.7L478.8,359.7z M469.6,329.1h-0.1
	c-0.4,0.1-0.8,1.1-1.1,1.8c-0.4,1-0.8,2-1.6,2.5c-0.8,0.6-1.9,0.6-2.9,0.7c-0.8,0-1.8,0.1-2,0.4s0,1.3,0.2,2c0.3,1,0.5,2.1,0.2,3
	s-1.1,1.6-1.9,2.2c-0.6,0.5-1.4,1.2-1.4,1.6s0.8,1.1,1.4,1.6c0.8,0.7,1.6,1.3,1.9,2.2s0,2-0.2,3c-0.2,0.7-0.4,1.7-0.2,2
	c0.2,0.3,1.3,0.4,2,0.4c1,0.1,2.1,0.1,2.9,0.7s1.2,1.6,1.6,2.5c0.3,0.8,0.7,1.7,1.1,1.8s1.2-0.4,1.8-0.8c0.9-0.6,1.8-1.2,2.8-1.2
	s1.9,0.6,2.8,1.2c0.6,0.4,1.5,0.9,1.8,0.8c0.4-0.1,0.8-1.1,1.1-1.8c0.4-1,0.8-2,1.6-2.5c0.8-0.6,1.9-0.6,2.9-0.7
	c0.8,0,1.8-0.1,2-0.4s0-1.3-0.2-2c-0.3-1-0.5-2.1-0.2-3s1.1-1.6,1.9-2.2c0.6-0.5,1.4-1.2,1.4-1.6s-0.8-1.1-1.4-1.6
	c-0.8-0.7-1.6-1.3-1.9-2.2s0-2,0.2-3c0.2-0.7,0.4-1.7,0.2-2c-0.2-0.3-1.3-0.4-2-0.4c-1-0.1-2.1-0.1-2.9-0.7s-1.2-1.6-1.6-2.5
	c-0.3-0.8-0.7-1.7-1.1-1.8s-1.2,0.4-1.8,0.8c-0.9,0.6-1.8,1.2-2.8,1.2s-1.9-0.6-2.8-1.2C470.8,329.5,470,329.1,469.6,329.1
	L469.6,329.1z"/>
<path class="st3" d="M474.1,354c-5.8,0-10.5-4.7-10.5-10.5s4.7-10.5,10.5-10.5s10.5,4.7,10.5,10.5C484.8,349.3,480,354,474.1,354z
	 M474.1,334.8c-4.8,0-8.7,3.9-8.7,8.7c0,4.8,3.9,8.7,8.7,8.7s8.7-3.9,8.7-8.7C482.8,338.7,479,334.8,474.1,334.8z"/>
<path class="st3" d="M468.2,371.7c-0.4,0-0.7-0.2-0.8-0.5l-2.2-4.8l-5,1.8c-0.3,0.1-0.7,0-1-0.2c-0.3-0.3-0.3-0.7-0.2-1l5.5-13.3
	c0.2-0.5,0.7-0.7,1.2-0.5s0.7,0.7,0.5,1.2l-4.7,11.3l3.8-1.4c0.5-0.2,1,0,1.2,0.5l1.7,3.7l4.9-11.7c0.2-0.5,0.7-0.7,1.2-0.5
	s0.7,0.7,0.5,1.2l-5.7,13.7C469,371.5,468.6,371.7,468.2,371.7z"/>
<path class="st3" d="M480,371.7c-0.4,0-0.7-0.2-0.9-0.6l-5.7-13.7c-0.2-0.5,0-1,0.5-1.2s1,0,1.2,0.5l4.9,11.7l1.7-3.7
	c0.2-0.4,0.7-0.6,1.2-0.5l3.8,1.4l-4.7-11.3c-0.2-0.5,0-1,0.5-1.2s1,0,1.2,0.5l5.5,13.3c0.1,0.3,0.1,0.7-0.2,1s-0.6,0.4-1,0.2
	l-5-1.8l-2.2,4.8C480.8,371.5,480.5,371.7,480,371.7z"/>
<path class="st3" d="M477.5,349c-0.2,0-0.4-0.1-0.5-0.2l-2.8-2l-2.8,2c-0.3,0.2-0.8,0.2-1.1,0c-0.3-0.2-0.5-0.7-0.3-1l1.1-3.3
	l-2.8-2c-0.3-0.2-0.5-0.7-0.3-1c0.1-0.4,0.5-0.6,0.9-0.6h3.5l1.1-3.3c0.1-0.4,0.5-0.6,0.9-0.6s0.8,0.3,0.9,0.6l1.1,3.3h3.5
	c0.4,0,0.8,0.3,0.9,0.6c0.1,0.4,0,0.8-0.3,1l-2.8,2l1.1,3.3c0.1,0.4,0,0.8-0.3,1C478,349,477.8,349,477.5,349L477.5,349z
	 M474.1,344.7c0.2,0,0.4,0.1,0.5,0.2l1,0.8l-0.4-1.2c-0.1-0.4,0-0.8,0.3-1l1-0.8h-1.3c-0.4,0-0.8-0.3-0.9-0.6l-0.4-1.2l-0.4,1.2
	c-0.1,0.4-0.5,0.6-0.9,0.6h-1.1l1,0.8c0.3,0.2,0.5,0.7,0.3,1l-0.3,1.2l1-0.8C473.8,344.8,474,344.7,474.1,344.7L474.1,344.7z"/>
<g>
	<path class="st0" d="M405.7,418.2h1.7l-4.8,13.2h-1.5l-4.8-13.2h1.6l3,8.6c0.3,1.1,0.6,1.9,0.9,2.8c0.1-1.1,0.4-1.9,0.9-3
		L405.7,418.2z"/>
	<path class="st0" d="M417.6,431.5l-1.7-4.2h-5.2l-1.6,4.2h-1.5l5.2-13.3h1.3l5.2,13.3H417.6z M415.3,425.9l-1.5-4.1
		c-0.2-0.4-0.4-1.2-0.6-1.9c-0.1,0.6-0.3,1.2-0.6,1.9l-1.5,4.1H415.3z"/>
	<path class="st0" d="M420.7,431.5v-13.2h1.5v11.9h5.9v1.3L420.7,431.5L420.7,431.5z"/>
	<path class="st0" d="M442.2,424.8c0,2.1-0.6,3.8-1.6,4.9s-2.6,1.8-4.5,1.8s-3.4-0.6-4.5-1.8c-1.1-1.2-1.7-2.8-1.7-5.1
		c0-2.1,0.6-3.9,1.7-5.1s2.6-1.8,4.5-1.8s3.4,0.6,4.5,1.8C441.6,420.8,442.2,422.6,442.2,424.8z M431.4,424.8c0,1.8,0.4,3.2,1.2,4.1
		c0.8,0.9,1.9,1.4,3.3,1.4c1.5,0,2.6-0.4,3.3-1.4c0.8-0.9,1.2-2.2,1.2-4.1s-0.3-3.1-1.1-4.1c-0.8-0.9-1.8-1.3-3.3-1.3
		s-2.6,0.4-3.3,1.3C432,421.7,431.4,423.1,431.4,424.8L431.4,424.8z"/>
	<path class="st0" d="M446.7,425.9v5.6h-1.5v-13.2h3.6c1.6,0,2.8,0.3,3.6,0.9c0.8,0.6,1.2,1.5,1.2,2.8c0,1.8-0.9,3-2.7,3.6l3.6,6
		h-1.8l-3.2-5.6L446.7,425.9L446.7,425.9z M446.7,424.6h2.1c1.1,0,1.9-0.2,2.4-0.6s0.8-1.1,0.8-1.9s-0.3-1.5-0.8-1.9
		s-1.3-0.6-2.6-0.6h-1.9V424.6z"/>
	<path class="st0" d="M471.9,424.7c0,2.2-0.6,3.9-1.8,5.1c-1.2,1.2-2.9,1.8-5.1,1.8h-3.8v-13.2h4.1c2.1,0,3.6,0.6,4.8,1.6
		C471.3,421.1,471.9,422.6,471.9,424.7L471.9,424.7z M470.2,424.7c0-1.8-0.4-3-1.3-3.9s-2.1-1.4-3.9-1.4h-2.2v10.7h1.9
		c1.8,0,3.2-0.4,4.2-1.4C469.8,427.8,470.2,426.5,470.2,424.7L470.2,424.7z"/>
	<path class="st0" d="M482.2,431.5h-7.3v-13.2h7.3v1.4h-5.8v4.3h5.6v1.4h-5.6v4.9h5.8V431.5z"/>
	<path class="st0" d="M495.9,431.5l-4.5-11.7c0.1,0.9,0.1,2.1,0.1,3.3v8.4H490v-13.2h2.2l4.2,10.9l4.2-10.9h2.2v13.2h-1.5v-8.6
		c0-1.1,0-2.1,0.2-3.2l-4.5,11.7h-1.1L495.9,431.5L495.9,431.5z"/>
	<path class="st0" d="M515.2,431.5l-1.7-4.2h-5.2l-1.7,4.2h-1.5l5.2-13.3h1.4l5.2,13.3H515.2z M513,425.9l-1.5-4.1
		c-0.1-0.4-0.4-1.2-0.6-1.9c-0.2,0.6-0.3,1.2-0.6,1.9l-1.5,4.1H513z"/>
	<path class="st0" d="M520.2,425.9v5.6h-1.5v-13.2h3.6c1.7,0,2.9,0.3,3.6,0.9c0.8,0.6,1.2,1.5,1.2,2.8c0,1.8-0.9,3-2.7,3.6l3.6,6
		h-1.8l-3.1-5.6L520.2,425.9L520.2,425.9z M520.2,424.6h2.1c1.1,0,2-0.2,2.4-0.6s0.8-1.1,0.8-1.9s-0.3-1.5-0.8-1.9
		c-0.4-0.4-1.3-0.6-2.5-0.6h-2V424.6z"/>
	<path class="st0" d="M535.6,419.3c-1.5,0-2.5,0.4-3.4,1.5c-0.9,0.9-1.2,2.2-1.2,4.1s0.5,3.1,1.2,4.1c0.8,0.9,1.9,1.3,3.4,1.3
		c0.9,0,2-0.1,3.2-0.4v1.4c-0.9,0.3-2.1,0.4-3.4,0.4c-2,0-3.5-0.6-4.5-1.8c-1.1-1.2-1.7-2.9-1.7-5.1c0-1.3,0.3-2.6,0.8-3.6
		c0.4-1,1.2-1.8,2.2-2.4c0.9-0.6,2.1-0.9,3.4-0.9c1.4,0,2.6,0.3,3.6,0.8l-0.6,1.3C537.7,419.6,536.8,419.3,535.6,419.3z"/>
	<path class="st0" d="M550.2,431.5l-1.7-4.2h-5.2l-1.8,4.2H540l5.2-13.3h1.3l5.2,13.3H550.2z M548.1,425.9l-1.5-4.1
		c-0.2-0.4-0.5-1.2-0.6-1.9c-0.2,0.6-0.3,1.2-0.6,1.9l-1.5,4.1H548.1z"/>
</g>
<path class="st0" d="M475,459.9c-33.3,0-60.3,27-60.3,60.3s27,60.3,60.3,60.3s60.3-27,60.3-60.3C535.1,486.9,508.1,459.9,475,459.9z
	"/>
<path class="st1" d="M474.8,453.5c-36.9,0-66.8,29.9-66.8,66.8s29.9,66.8,66.8,66.8s66.8-29.9,66.8-66.8S511.6,453.5,474.8,453.5z
	 M475,582.8c-34.6,0-62.6-28-62.6-62.6s28-62.6,62.6-62.6s62.6,28,62.6,62.6C537.5,554.7,509.5,582.8,475,582.8z"/>
<path class="st2" d="M475,457.5c-34.6,0-62.6,28-62.6,62.6s28,62.6,62.6,62.6s62.6-28,62.6-62.6S509.5,457.5,475,457.5z M475,580.4
	c-33.3,0-60.3-27-60.3-60.3s27-60.3,60.3-60.3s60.3,27,60.3,60.3C535.1,553.4,508.1,580.4,475,580.4z"/>
<g>
	<path class="st0" d="M437.6,602.9v-13.2h1.5v11.9h5.9v1.4L437.6,602.9L437.6,602.9z"/>
	<path class="st0" d="M454.5,602.9h-7.4v-13.2h7.4v1.4h-5.9v4.4h5.6v1.4h-5.6v5h5.9V602.9z"/>
	<path class="st0" d="M465.9,602.9l-1.7-4.2H459l-1.6,4.2h-1.5l5.2-13.4h1.3l5.2,13.4H465.9z M463.8,597.2l-1.5-4
		c-0.1-0.5-0.4-1.2-0.6-2c-0.2,0.6-0.3,1.2-0.6,2l-1.5,4H463.8z"/>
	<path class="st0" d="M469.2,602.9v-13.2h1.5v11.9h5.8v1.4L469.2,602.9L469.2,602.9z"/>
	<path class="st0" d="M482.9,602.9h-1.5V591h-4.2v-1.4h9.9v1.4h-4.2L482.9,602.9z"/>
	<path class="st0" d="M497.6,602.9l-1.6-4.2h-5.2l-1.7,4.2h-1.5l5.2-13.4h1.4l5.2,13.4H497.6z M495.5,597.2l-1.5-4
		c-0.2-0.5-0.4-1.2-0.6-2c-0.1,0.6-0.3,1.2-0.6,2l-1.5,4H495.5z"/>
	<path class="st0" d="M511.5,596.2c0,2.2-0.6,3.9-1.8,5.1c-1.2,1.2-2.9,1.8-5.1,1.8h-3.8v-13.2h4.1c2.1,0,3.6,0.6,4.8,1.6
		C511.1,592.4,511.5,594,511.5,596.2L511.5,596.2z M509.9,596.2c0-1.8-0.4-3-1.3-3.9s-2.1-1.4-3.9-1.4h-2.2v10.6h1.9
		c1.8,0,3.2-0.5,4.2-1.4C509.6,599.3,509.9,598,509.9,596.2L509.9,596.2z"/>
</g>
<path class="st2" d="M473,540.8l-1.5-0.7c-1-0.5-24.1-11.9-24.1-28.4c0.1-7.9,6.8-14.4,15.1-14.4h0.2c3.9,0,7.6,1.5,10.4,4.1
	c2.7-2.6,6.4-4.1,10.3-4.1h0.1c8.4,0,15.2,6.5,15.2,14.4c0,7.2-4.3,14.5-12.4,21c-5.8,4.6-11.5,7.3-11.8,7.4L473,540.8z"/>
<path class="st8" d="M473.1,538.7l-0.8-0.4c-0.9-0.4-23-11.4-23-26.7c0.1-7,6.1-12.6,13.3-12.6h0.2c4.2,0,8,1.9,10.4,5
	c2.5-3.1,6.3-5,10.3-5h0.2c7.3,0,13.3,5.7,13.3,12.6c0,6.7-4,13.4-11.7,19.5c-5.6,4.5-11.1,7.1-11.4,7.2L473.1,538.7z"/>
<path class="st8" d="M473.1,538.7l-0.8-0.4c-0.9-0.4-23-11.4-23-26.7c0.1-7,6.1-12.6,13.3-12.6h0.2c4.2,0,8,1.9,10.4,5
	c2.5-3.1,6.3-5,10.3-5h0.2c7.3,0,13.3,5.7,13.3,12.6c0,6.7-4,13.4-11.7,19.5c-5.6,4.5-11.1,7.1-11.4,7.2L473.1,538.7z"/>
<path class="st2" d="M451.1,511.7c0,14.3,22,25,22,25s22-10.2,22-25c0-5.9-5.2-10.7-11.4-10.7c-4.5-0.1-8.6,2.6-10.5,6.7
	c-1.8-4.1-6-6.7-10.5-6.7C456.4,501,451.2,505.8,451.1,511.7z"/>
<path class="st0" d="M664,374c-33.3,0-60.3,27-60.3,60.3s27,60.3,60.3,60.3s60.3-27,60.3-60.3S697.3,374,664,374z"/>
<path class="st1" d="M664,367.7c-36.9,0-66.8,29.9-66.8,66.8s29.9,66.8,66.8,66.8s66.8-29.9,66.8-66.8S700.8,367.7,664,367.7z
	 M664,497c-34.6,0-62.6-28-62.6-62.6s28-62.6,62.6-62.6s62.6,28,62.6,62.6C726.8,468.9,698.7,497,664,497z"/>
<path class="st2" d="M664,371.7c-34.6,0-62.6,28-62.6,62.6s28,62.6,62.6,62.6s62.6-28,62.6-62.6C726.8,399.7,698.7,371.7,664,371.7z
	 M664,494.6c-33.3,0-60.3-27-60.3-60.3s27-60.3,60.3-60.3s60.3,27,60.3,60.3S697.3,494.6,664,494.6z"/>
<g>
	<path class="st0" d="M593.6,517.2V504h1.5v11.9h5.9v1.4L593.6,517.2L593.6,517.2z"/>
	<path class="st0" d="M614.6,510.4c0,2.1-0.6,3.8-1.6,5s-2.6,1.8-4.5,1.8c-2,0-3.5-0.6-4.5-1.8c-1.1-1.2-1.6-2.8-1.6-5.1
		c0-2.1,0.6-3.9,1.6-5.1s2.5-1.8,4.5-1.8c1.9,0,3.4,0.6,4.5,1.8C614,506.4,614.6,508.3,614.6,510.4z M604.1,510.4
		c0,1.8,0.4,3.2,1.2,4s2,1.4,3.3,1.4c1.5,0,2.5-0.5,3.3-1.4s1.2-2.2,1.2-4.1c0-1.8-0.3-3.1-1.1-4s-1.8-1.4-3.3-1.4s-2.6,0.4-3.3,1.4
		C604.5,507.3,604.1,508.6,604.1,510.4L604.1,510.4z"/>
	<path class="st0" d="M621,510.4l3.6-6.6h1.6l-4.5,8.1v5.1h-1.5v-4.9l-4.4-8.2h1.6L621,510.4z"/>
	<path class="st0" d="M636.5,517.2l-1.6-4.2h-5.2l-1.6,4.2h-1.5l5.2-13.4h1.4l5.2,13.4H636.5z M634.2,511.5l-1.5-4.1
		c-0.1-0.4-0.5-1.2-0.6-1.9c-0.1,0.6-0.3,1.2-0.6,1.9l-1.5,4.1H634.2z"/>
	<path class="st0" d="M639.8,517.2V504h1.5v11.9h5.9v1.4L639.8,517.2L639.8,517.2z"/>
	<path class="st0" d="M653.6,517.2h-1.5v-11.9h-4.2V504h9.9v1.4h-4.2V517.2z"/>
	<path class="st0" d="M663,510.4l3.6-6.6h1.6l-4.5,8.1v5.1h-1.5v-4.9l-4.4-8.2h1.6L663,510.4z"/>
	<path class="st0" d="M683.3,507.7c0,1.4-0.4,2.4-1.4,3.1c-0.9,0.8-2.2,1.1-3.9,1.1h-1.5v5.2H675V504h3.5
		C681.8,503.8,683.3,505.2,683.3,507.7L683.3,507.7z M676.5,510.6h1.4c1.4,0,2.4-0.2,3-0.6s0.9-1.2,0.9-2.1s-0.3-1.5-0.9-1.9
		c-0.6-0.5-1.5-0.6-2.7-0.6h-1.8L676.5,510.6z"/>
	<path class="st0" d="M687.8,511.6v5.6h-1.5V504h3.6c1.6,0,2.9,0.3,3.6,0.9s1.2,1.5,1.2,2.8c0,1.8-0.9,3-2.7,3.6l3.6,6h-1.8
		l-3.1-5.6L687.8,511.6z M687.8,510.3h2.1c1.1,0,2-0.1,2.4-0.6c0.5-0.4,0.8-1.1,0.8-1.9s-0.3-1.5-0.8-1.9c-0.4-0.4-1.4-0.6-2.5-0.6
		h-2V510.3z"/>
	<path class="st0" d="M709.1,510.4c0,2.1-0.6,3.8-1.6,5s-2.6,1.8-4.5,1.8c-2,0-3.5-0.6-4.5-1.8c-1.1-1.2-1.6-2.8-1.6-5.1
		c0-2.1,0.6-3.9,1.6-5.1s2.5-1.8,4.5-1.8c1.9,0,3.4,0.6,4.5,1.8C708.8,506.7,709.1,508.3,709.1,510.4z M698.6,510.4
		c0,1.8,0.4,3.2,1.2,4s2,1.4,3.3,1.4c1.5,0,2.5-0.5,3.3-1.4s1.2-2.2,1.2-4.1c0-1.8-0.3-3.1-1.1-4s-1.8-1.4-3.3-1.4s-2.6,0.4-3.3,1.4
		C699,507.3,698.6,508.6,698.6,510.4L698.6,510.4z"/>
	<path class="st0" d="M713.6,517.2h-1.5V504h7.4v1.4h-5.9v4.8h5.5v1.3h-5.5V517.2z"/>
	<path class="st0" d="M721.9,517.2V504h1.5v13.2H721.9z"/>
	<path class="st0" d="M731,517.2h-1.5v-11.9h-4.2V504h9.9v1.4H731V517.2z"/>
</g>
<path class="st8" d="M693.2,392.5h1.8v1.3c0.8,0,1.7,0.3,2.5,0.8v3c-0.9-0.9-1.7-1.3-2.5-1.3c-0.4,0-0.7,0.1-1,0.4s-0.5,0.6-0.5,1
	c0,0.3,0.1,0.6,0.3,0.8s0.7,0.5,1.5,0.9c0.7,0.3,1.3,0.6,1.7,0.9s0.7,0.7,1,1.2s0.4,1,0.4,1.7c0,0.9-0.3,1.8-0.8,2.6
	s-1.4,1.3-2.5,1.6v1.5h-1.8v-1.3c-0.8,0-1.8-0.3-2.9-0.8v-3.1c1,1,2,1.5,3,1.5c0.5,0,1-0.1,1.3-0.5c0.4-0.3,0.5-0.7,0.5-1.2
	c0-0.4-0.1-0.8-0.4-1c-0.3-0.3-0.8-0.5-1.5-0.9c-0.9-0.4-1.7-0.9-2.2-1.5s-0.8-1.3-0.8-2.2s0.3-1.7,0.7-2.3c0.5-0.6,1.2-1.1,2.2-1.4
	V392.5z"/>
<path class="st4" d="M634.9,452.5H646v23.2h-11.1V452.5z"/>
<path class="st3" d="M651.8,449.2h11.1v26.4h-11.1V449.2z"/>
<path class="st7" d="M667.6,445.1h11.1v30.5h-11.1V445.1z"/>
<path class="st1" d="M683.2,437h11.1v38.8h-11.1V437z"/>
<path class="st9" d="M701,413.1l-4.3,0.2h-0.4l-11.9,0.6l0.2,4.6l8.6-0.4c-10.4,13-29.6,23.8-52.9,28.3c-5.9,1.1-11.7,1.8-17.4,2
	c0.1,1.3,0.3,2.7,0.6,4c7.2,0.1,14.8-0.6,22.6-2.1c21.7-4.2,39.9-13.9,50.7-25.8l0.3,5.3l4.6-0.2l-0.5-10.6l-0.1-1.4L701,413.1z"/>
<path class="st2" d="M623.5,427.2c0.2-8.5,7.4-15.3,16.2-15.3h0.2c5.1,0,9.7,2.3,12.7,6.1c3-3.8,7.7-6.1,12.6-6.1h0.2
	c8.9,0,16.2,6.9,16.2,15.3c0,0.7,0,1.3-0.1,2c0.8-0.6,1.6-1.2,2.3-1.8v-0.1c0-9.7-8.3-17.6-18.5-17.6h-0.2c-4.8,0-9.2,1.8-12.6,5
	c-3.4-3.2-7.9-5-12.7-5h-0.2c-10.1,0-18.3,7.9-18.4,17.5c0,8,4.5,15,9.9,20.6c0.9-0.1,1.8-0.2,2.8-0.4
	C628.3,442,623.5,435.1,623.5,427.2z"/>
<path class="st8" d="M665.3,411.9h-0.2c-4.9,0-9.5,2.3-12.6,6.1c-3-3.8-7.6-6.1-12.7-6.1h-0.2c-8.8,0-16.1,6.8-16.2,15.3
	c0,7.9,4.8,14.8,10.5,20.3c0.9-0.1,1.9-0.3,2.8-0.4c-5.8-5.2-11-12.1-11-19.8c0.1-7.2,6.3-13,13.9-13c5.5-0.1,10.6,3.1,12.8,8.1
	c2.3-5,7.3-8.2,12.8-8.1c7.7,0,13.9,5.8,13.9,13c0,1.3-0.1,2.5-0.4,3.8c0.9-0.6,1.8-1.2,2.6-1.9c0.1-0.7,0.1-1.3,0.1-2
	C681.5,418.8,674.3,411.9,665.3,411.9L665.3,411.9z"/>
<path class="st2" d="M678.8,431c0.3-1.2,0.4-2.5,0.4-3.8c0-7.2-6.3-13-13.9-13c-5.5-0.1-10.5,3.1-12.8,8.1c-2.2-5-7.3-8.2-12.8-8.1
	c-7.7,0-13.9,5.8-13.9,13c0,7.7,5.2,14.5,11,19.8c1.1-0.2,2.3-0.4,3.4-0.6C655.2,443.6,668.5,438,678.8,431z"/>
<linearGradient id="SVGID_1_" gradientUnits="userSpaceOnUse" x1="-1910.1141" y1="-1347.1721" x2="-1546.5585" y2="-983.6167" gradientTransform="matrix(6.123234e-17 1 -1 6.123234e-17 -792.7732 1813.1019)">
	<stop  offset="0" style="stop-color:#011E41"/>
	<stop  offset="1" style="stop-color:#8AB7E9"/>
</linearGradient>
<path class="st10" d="M687.5,119.4l45.8-31.9c1.8-1.5,1.8-4,0-5.6L687.5,50c-1.8-1.5-3.3-0.9-3.3,1.5v13.4c0,2.4-1.9,4.3-4.3,4.3
	h-14H26.6h-0.1c-2.4,0-4.3,2-4.3,4.4v22.5c0,2.4,1.9,4.3,4.3,4.3l653.4-0.1c2.4,0,4.3,1.9,4.3,4.3V118
	C684.2,120.3,685.7,120.9,687.5,119.4"/>
<g>
	<path class="st0" d="M737.9,506.1c0.1-0.4,0.4-0.7,0.7-0.9c0.3-0.3,0.5-0.4,0.9-0.5s0.7-0.3,1.1-0.3s0.8,0.1,1.1,0.3
		c0.4,0.1,0.7,0.4,0.9,0.5c0.3,0.3,0.4,0.5,0.7,0.9c0.1,0.4,0.3,0.7,0.3,1.1s-0.1,0.8-0.3,1.1c-0.1,0.4-0.4,0.7-0.7,0.9
		c-0.3,0.3-0.5,0.4-0.9,0.5s-0.7,0.3-1.1,0.3s-0.8-0.1-1.1-0.3c-0.4-0.1-0.7-0.4-0.9-0.5c-0.3-0.3-0.4-0.5-0.7-0.9
		c-0.1-0.4-0.3-0.7-0.3-1.1C737.8,506.8,737.8,506.4,737.9,506.1z M738.5,508.1c0.1,0.3,0.3,0.5,0.5,0.8c0.3,0.3,0.4,0.4,0.8,0.5
		c0.3,0.1,0.5,0.1,0.9,0.1c0.3,0,0.7,0,0.9-0.1c0.3-0.1,0.5-0.3,0.8-0.5c0.3-0.3,0.4-0.5,0.5-0.8s0.1-0.7,0.1-0.9
		c0-0.4,0-0.7-0.1-0.9c-0.1-0.3-0.3-0.5-0.5-0.8c-0.3-0.3-0.4-0.4-0.8-0.5c-0.3-0.1-0.5-0.1-0.9-0.1c-0.3,0-0.7,0-0.9,0.1
		c-0.3,0.1-0.5,0.3-0.8,0.5c-0.3,0.3-0.4,0.5-0.5,0.8s-0.1,0.7-0.1,0.9C738.2,507.6,738.3,507.9,738.5,508.1z M740.7,505.6
		c0.4,0,0.7,0.1,0.9,0.3c0.1,0.1,0.3,0.4,0.3,0.7c0,0.3-0.1,0.5-0.3,0.7c-0.1,0.1-0.4,0.3-0.7,0.3l0.9,1.5h-0.5l-0.9-1.5h-0.5v1.5
		h-0.5v-3.3L740.7,505.6L740.7,505.6z M740.6,507.1c0.1,0,0.3,0,0.3,0c0.1,0,0.1,0,0.3,0c0.1,0,0.1-0.1,0.1-0.1
		c0-0.1,0.1-0.1,0.1-0.3s0-0.1,0-0.3l-0.1-0.1c-0.1,0-0.1,0-0.3-0.1c-0.1,0-0.1,0-0.3,0H740v1.1h0.5L740.6,507.1L740.6,507.1z"/>
</g>
<g>
	<path class="st0" d="M173.8,22.8v32.5h-4.2V22.8H173.8z"/>
	<path class="st0" d="M185.9,55.3V22.8h4.6l10.4,16.4c2.4,3.8,4.3,7.2,5.8,10.6h0.1c-0.4-4.3-0.5-8.3-0.5-13.4V22.8h4v32.5h-4.2
		l-10.3-16.5c-2.3-3.6-4.4-7.3-6.1-10.8h-0.1c0.2,4.1,0.3,8,0.3,13.4v13.9C189.9,55.3,185.9,55.3,185.9,55.3z"/>
	<path class="st0" d="M245.2,54.3c-1.5,0.8-4.6,1.5-8.6,1.5c-9.2,0-16.1-5.8-16.1-16.4c0-10.2,6.9-17.1,17-17.1c4,0,6.6,0.9,7.7,1.4
		l-1,3.4c-1.6-0.8-3.9-1.4-6.6-1.4c-7.6,0-12.7,4.9-12.7,13.4c0,8,4.6,13.1,12.5,13.1c2.6,0,5.2-0.5,6.8-1.4L245.2,54.3z"/>
	<path class="st0" d="M255.2,23.2c2.1-0.4,5.2-0.7,8.1-0.7c4.5,0,7.4,0.8,9.4,2.7c1.6,1.4,2.6,3.7,2.6,6.2c0,4.3-2.7,7.1-6.1,8.3
		v0.1c2.5,0.9,4,3.2,4.8,6.6c1.1,4.5,1.8,7.7,2.5,8.9h-4.3c-0.5-0.9-1.3-3.7-2.2-7.8c-1-4.5-2.7-6.2-6.5-6.3h-4v14.1h-4.2
		L255.2,23.2L255.2,23.2z M259.4,38.1h4.3c4.5,0,7.3-2.5,7.3-6.2c0-4.2-3-6-7.5-6.1c-2,0-3.5,0.2-4.1,0.4L259.4,38.1L259.4,38.1z"/>
	<path class="st0" d="M302.8,40.1h-12.6v11.7h14.1v3.5H286V22.8h17.6v3.5h-13.4v10.3h12.6L302.8,40.1L302.8,40.1z"/>
	<path class="st0" d="M341.9,41c-0.2-4.5-0.5-10-0.5-14h-0.1c-1.1,3.8-2.5,7.9-4.1,12.3l-5.7,15.8h-3.2L323,39.6
		c-1.5-4.6-2.8-8.8-3.8-12.6h-0.1c-0.1,4.1-0.3,9.5-0.6,14.4l-0.9,13.9h-4l2.3-32.5h5.4l5.5,15.7c1.3,4,2.5,7.6,3.3,10.9h0.1
		c0.8-3.3,2-6.8,3.4-10.9l5.8-15.7h5.4l2,32.5h-4.1L341.9,41z"/>
	<path class="st0" d="M375,40.1h-12.6v11.7h14.1v3.5h-18.3V22.8h17.6v3.5h-13.4v10.3H375V40.1z"/>
	<path class="st0" d="M386.7,55.3V22.8h4.6l10.4,16.4c2.4,3.8,4.3,7.2,5.8,10.6h0.1c-0.4-4.3-0.5-8.3-0.5-13.4V22.8h4v32.5h-4.2
		l-10.3-16.5c-2.3-3.6-4.4-7.3-6.1-10.8h-0.1c0.2,4.1,0.3,8,0.3,13.4v13.9C390.7,55.3,386.7,55.3,386.7,55.3z"/>
	<path class="st0" d="M429.4,26.4h-9.9v-3.6h24.1v3.6h-9.9v28.9h-4.2V26.4H429.4z"/>
	<path class="st0" d="M453.7,45.1l-3.4,10.2H446l11-32.5h5.1l11.1,32.5h-4.5l-3.5-10.2H453.7z M464.3,41.8l-3.2-9.4
		c-0.7-2.1-1.2-4-1.7-5.9h-0.1c-0.5,1.9-1,3.9-1.6,5.9l-3.2,9.4C454.5,41.8,464.3,41.8,464.3,41.8z"/>
	<path class="st0" d="M509.9,41c-0.2-4.5-0.5-10-0.5-14h-0.1c-1.1,3.8-2.5,7.9-4.1,12.3l-5.7,15.8h-3.2L491,39.6
		c-1.5-4.6-2.8-8.8-3.8-12.6h-0.1c-0.1,4.1-0.3,9.5-0.6,14.4l-0.9,13.9h-4l2.3-32.5h5.4l5.5,15.7c1.3,4,2.5,7.6,3.3,10.9h0.1
		c0.8-3.3,2-6.8,3.4-10.9l5.8-15.7h5.4l2,32.5h-4.1L509.9,41z"/>
	<path class="st0" d="M553.9,38.7c0,11.2-6.8,17.1-15.1,17.1c-8.6,0-14.6-6.7-14.6-16.5c0-10.3,6.4-17.1,15.1-17.1
		C548.2,22.3,553.9,29.1,553.9,38.7z M528.7,39.3c0,6.9,3.8,13.2,10.4,13.2c6.7,0,10.4-6.1,10.4-13.5c0-6.5-3.4-13.2-10.4-13.2
		C532.2,25.7,528.7,32.1,528.7,39.3z"/>
	<path class="st0" d="M563.6,50.2c1.9,1.2,4.6,2.1,7.5,2.1c4.3,0,6.8-2.3,6.8-5.5c0-3-1.7-4.8-6.1-6.5c-5.3-1.9-8.6-4.6-8.6-9.2
		c0-5.1,4.2-8.8,10.5-8.8c3.3,0,5.7,0.8,7.2,1.6l-1.2,3.4c-1.1-0.6-3.2-1.5-6.2-1.5c-4.4,0-6.1,2.7-6.1,4.9c0,3,2,4.5,6.5,6.3
		c5.5,2.1,8.3,4.8,8.3,9.5c0,5-3.7,9.4-11.4,9.4c-3.1,0-6.6-0.9-8.3-2.1L563.6,50.2z"/>
</g>
<g>
	<path class="st0" d="M59.5,257.2c-1.5,0-2.7,0.5-3.5,1.5c-0.9,1-1.3,2.3-1.3,4.1c0,1.8,0.4,3.1,1.2,4.1c0.8,1,2,1.4,3.6,1.4
		c0.9,0,2-0.2,3.2-0.5v1.4c-0.9,0.4-2.1,0.5-3.5,0.5c-2,0-3.5-0.6-4.6-1.8c-1.1-1.2-1.6-2.9-1.6-5.2c0-1.4,0.3-2.6,0.8-3.7
		s1.3-1.9,2.3-2.4c1-0.6,2.1-0.9,3.5-0.9c1.4,0,2.7,0.3,3.7,0.8l-0.7,1.4C61.6,257.4,60.5,257.2,59.5,257.2z"/>
	<path class="st0" d="M65.2,269.5V256h1.6v12.1h6v1.4H65.2z"/>
	<path class="st0" d="M74.6,269.5V256h1.6v13.5H74.6z"/>
	<path class="st0" d="M86.9,269.5h-7.6V256h7.6v1.4h-6v4.4h5.6v1.4H81v5h6V269.5z"/>
	<path class="st0" d="M100.1,269.5h-1.8l-7.4-11.4h-0.1c0.1,1.3,0.1,2.6,0.1,3.7v7.7h-1.5V256h1.8l7.4,11.3h0.1c0-0.2,0-0.7-0.1-1.6
		c0-0.9-0.1-1.6,0-1.9V256h1.5V269.5z"/>
	<path class="st0" d="M107.5,269.5h-1.6v-12.1h-4.3V256h10.2v1.4h-4.3V269.5z"/>
	<path class="st0" d="M120.9,269.5h-7.6V256h7.6v1.4h-6v4.4h5.6v1.4h-5.6v5h6V269.5z"/>
	<path class="st0" d="M131,265.9c0,1.2-0.4,2.1-1.3,2.8c-0.9,0.7-2,1-3.5,1c-1.6,0-2.8-0.2-3.7-0.6v-1.5c0.6,0.2,1.2,0.4,1.8,0.6
		s1.3,0.2,1.9,0.2c1.1,0,1.8-0.2,2.4-0.6c0.5-0.4,0.8-1,0.8-1.7c0-0.5-0.1-0.9-0.3-1.2c-0.2-0.3-0.5-0.6-0.9-0.8
		c-0.4-0.3-1.1-0.5-2-0.9c-1.3-0.5-2.2-1-2.7-1.6s-0.8-1.4-0.8-2.4c0-1,0.4-1.9,1.2-2.5c0.8-0.6,1.8-0.9,3.1-0.9
		c1.3,0,2.6,0.2,3.7,0.7l-0.5,1.4c-1.1-0.5-2.2-0.7-3.3-0.7c-0.8,0-1.5,0.2-2,0.5c-0.5,0.4-0.7,0.9-0.7,1.5c0,0.5,0.1,0.9,0.3,1.2
		c0.2,0.3,0.5,0.6,0.9,0.8c0.4,0.3,1,0.5,1.9,0.8c1.4,0.5,2.4,1.1,2.9,1.6C130.8,264.2,131,265,131,265.9z"/>
</g>
</svg>
