<?xml version="1.0" encoding="utf-8"?>
<!-- Generator: Adobe Illustrator 25.0.0, SVG Export Plug-In . SVG Version: 6.00 Build 0)  -->
<svg version="1.1" id="Capa_1" xmlns="http://www.w3.org/2000/svg" xmlns:xlink="http://www.w3.org/1999/xlink" x="0px" y="0px"
	 viewBox="0 0 755 802.1" style="enable-background:new 0 0 755 802.1;" xml:space="preserve">
<style type="text/css">
	.st0{fill:#FFFFFF;}
	.st1{fill:#213958;}
	.st2{fill:#8AB7E9;}
	.st3{fill:#FF6C0E;}
	.st4{fill:#E42E87;}
	.st5{fill-rule:evenodd;clip-rule:evenodd;fill:#8AB7E9;}
	.st6{fill:none;}
	.st7{fill:#753D86;}
	.st8{fill:#011E41;}
	.st9{fill:#93BC53;}
	.st10{fill:url(#SVGID_1_);}
	.st11{fill:#FCFCFC;}
</style>
<path class="st0" d="M92.1,126.3c-33.3,0-60.3,27-60.3,60.3s27,60.3,60.3,60.3s60.3-27,60.3-60.3S125.3,126.3,92.1,126.3z"/>
<path class="st1" d="M91.9,119.9c-36.9,0-66.8,29.9-66.8,66.8s29.9,66.8,66.8,66.8s66.8-29.9,66.8-66.8S128.9,119.9,91.9,119.9z
	 M92.1,249.2c-34.6,0-62.6-28-62.6-62.6s28-62.6,62.6-62.6s62.6,28,62.6,62.6C154.8,221.1,126.7,249.2,92.1,249.2z"/>
<path class="st2" d="M92.1,123.9c-34.6,0-62.6,28-62.6,62.6s28,62.6,62.6,62.6s62.6-28,62.6-62.6C154.8,152,126.7,123.9,92.1,123.9z
	 M92.1,246.8c-33.3,0-60.3-27-60.3-60.3s27-60.3,60.3-60.3s60.3,27,60.3,60.3S125.3,246.8,92.1,246.8z"/>
<path class="st3" d="M100.7,171.5c2.1,0,3.9-1.7,3.9-3.9c0-2.1-1.7-3.9-3.9-3.9c-2.1,0-3.9,1.7-3.9,3.9
	C96.8,169.7,98.6,171.5,100.7,171.5z"/>
<path class="st3" d="M108.9,176.6c0,0,0.2-4.3-4.3-4.3h-7.9c-4.4,0-4.4,4-4.4,4.3v12.2c0.1,0.7,0.7,1.4,1.5,1.4s1.4-0.7,1.5-1.4
	l1.4,19.5c0.1,1,0.8,1.4,1.7,1.4s1.6-0.4,1.7-1.4h1.2c0.1,1,0.8,1.4,1.7,1.4s1.6-0.4,1.7-1.4l1.4-19.5c0,0.7,0.6,1.4,1.5,1.4
	c0.8,0,1.4-0.7,1.5-1.4L108.9,176.6z"/>
<path class="st3" d="M86.4,167.5c0,2.1-1.7,3.8-3.8,3.8s-3.8-1.7-3.8-3.8s1.7-3.8,3.8-3.8S86.4,165.4,86.4,167.5z"/>
<path class="st3" d="M90.9,182c0.3-1.4-1.6-7.3-1.6-7.3c-0.2-0.6-1.2-2.3-4.2-2.3h-5.7c-2.8-0.2-3.9,1.5-4.1,2.3
	c0,0-1.9,5.9-1.6,7.3c0.2,0.9,1.8,2,3.4,2.7l-3.5,10.6h5.1v12.8c0.1,1,0.8,1.3,1.6,1.3s1.5-0.3,1.6-1.3h0.5c0.1,1,0.8,1.3,1.6,1.3
	s1.5-0.4,1.6-1.4v-12.8H91l-3.3-10.8C89.4,183.7,90.8,182.8,90.9,182z"/>
<path class="st0" d="M92.1,295.3c-33.3,0-60.3,27-60.3,60.3s27,60.3,60.3,60.3s60.3-27,60.3-60.3S125.3,295.3,92.1,295.3z"/>
<path class="st1" d="M91.9,288.9c-36.9,0-66.8,29.9-66.8,66.8s29.9,66.8,66.8,66.8s66.8-29.9,66.8-66.8
	C158.8,318.8,128.9,288.9,91.9,288.9L91.9,288.9z M92.1,418.2c-34.6,0-62.6-28-62.6-62.6s28-62.6,62.6-62.6s62.6,28,62.6,62.6
	C154.6,390.1,126.7,418.2,92.1,418.2z"/>
<path class="st2" d="M92.1,292.9c-34.6,0-62.6,28-62.6,62.6s28,62.6,62.6,62.6s62.6-28,62.6-62.6C154.6,321,126.7,292.9,92.1,292.9
	L92.1,292.9z M92.1,415.8c-33.3,0-60.3-27-60.3-60.3s27-60.3,60.3-60.3s60.3,27,60.3,60.3S125.3,415.8,92.1,415.8z"/>
<path class="st4" d="M111.1,340.8h-7.3v-3.6c0-1.6-1.3-2.9-2.9-2.9s-2.9,1.3-2.9,2.9v3.6H84.8v-3.6c0-1.6-1.3-2.9-2.9-2.9
	s-2.9,1.3-2.9,2.9v3.6h-7.3c-1.2,0-2.2,1-2.2,2.2v31.8c0,1.2,1,2.2,2.2,2.2h39.5c1.2,0,2.2-1,2.2-2.2V343
	C113.2,341.8,112.2,340.8,111.1,340.8L111.1,340.8z M89.8,350.6v5.9h-6.9v-5.9H89.8z M92.8,350.6h6.9v5.9h-6.9V350.6z M79.9,350.6
	v5.9h-6.2v-5.9H79.9z M79.9,359.4v4.4h-6.2v-4.4H79.9z M82.8,359.4h6.9v4.4h-6.9V359.4z M89.8,366.7v5.9h-6.9v-5.9H89.8z
	 M92.8,366.7h6.9v5.9h-6.9V366.7z M92.8,363.8v-4.4h6.9v4.4H92.8z M102.6,359.4h6.2v4.4h-6.2V359.4z M102.6,356.5v-5.9h6.2v5.9
	H102.6z M73.7,366.7h6.2v5.9h-6.2V366.7z M102.6,372.6v-5.9h6.2v5.9H102.6z"/>
<path class="st0" d="M92.2,467.6c-33.3,0-60.3,27-60.3,60.3s27,60.3,60.3,60.3s60.3-27,60.3-60.3
	C152.4,494.6,125.3,467.6,92.2,467.6z"/>
<path class="st1" d="M91.9,461.2c-36.9,0-66.8,29.9-66.8,66.8s29.9,66.8,66.8,66.8s66.8-29.9,66.8-66.8
	C158.7,491.1,128.9,461.2,91.9,461.2z M92.2,590.5c-34.6,0-62.6-28-62.6-62.6s28-62.6,62.6-62.6s62.6,28,62.6,62.6
	C154.8,562.4,126.7,590.5,92.2,590.5z"/>
<path class="st2" d="M92.2,465.2c-34.6,0-62.6,28-62.6,62.6s28,62.6,62.6,62.6s62.6-28,62.6-62.6
	C154.8,493.3,126.7,465.2,92.2,465.2z M92.2,588.1c-33.3,0-60.3-27-60.3-60.3s27-60.3,60.3-60.3s60.3,27,60.3,60.3
	C152.4,561.1,125.3,588.1,92.2,588.1z"/>
<path class="st5" d="M114.2,529.1c0-6.5-2.9-12.3-7.6-16.1l-3,6.4c2.3,2.4,3.8,6,3.8,9.6c0,2.6-0.7,5-1.8,7l-2.1-2.8l-1.5,5.6
	l-1.6,5.6l5.9,0.2l5.8,0.3l-2.3-3.2C112.7,538.3,114.2,533.9,114.2,529.1z"/>
<path class="st5" d="M93.3,543.2c-5.5,0-10.3-3.2-12.6-7.9l3.8-0.2l-4-4.3l-4.1-4.2l-3.2,4.9l-3.3,4.8l3.6-0.3
	c3,8.1,10.6,13.9,19.8,13.9c2.7,0,5.2-0.6,7.6-1.3l-4.1-5.9C95.7,543.1,94.4,543.2,93.3,543.2z"/>
<path class="st5" d="M93.3,514.8h0.4l-1.7,3.6l5.7-1.3l5.7-1.4l-2.7-5.2l-2.6-5.2l-1.3,3.2c-1.2-0.3-2.3-0.4-3.4-0.4
	c-10.2,0-18.6,7.2-20.5,16.8l7.2-0.7C82.1,518.7,87.2,514.8,93.3,514.8z"/>
<path class="st0" d="M92.1,631.5c-33.3,0-60.3,27-60.3,60.3s27,60.3,60.3,60.3s60.3-27,60.3-60.3S125.3,631.5,92.1,631.5z"/>
<path class="st1" d="M91.9,625.1c-36.9,0-66.8,29.9-66.8,66.8s29.9,66.8,66.8,66.8s66.8-29.9,66.8-66.8S128.9,625.1,91.9,625.1z
	 M92.1,754.4c-34.6,0-62.6-28-62.6-62.6s28-62.6,62.6-62.6s62.6,28,62.6,62.6C154.8,726.3,126.7,754.4,92.1,754.4z"/>
<path class="st2" d="M92.1,629.1c-34.6,0-62.6,28-62.6,62.6s28,62.6,62.6,62.6s62.6-28,62.6-62.6
	C154.8,657.2,126.7,629.1,92.1,629.1z M92.1,752c-33.3,0-60.3-27-60.3-60.3s27-60.3,60.3-60.3s60.3,27,60.3,60.3S125.3,752,92.1,752
	z"/>
<path class="st6" d="M104.3,671.1H77.4v41.8h26.9c1.6,0,3-1.3,3-3V674C107.3,672.4,105.9,671.1,104.3,671.1L104.3,671.1z
	 M93.8,706.9h-12c-0.8,0-1.5-0.7-1.5-1.5s0.7-1.5,1.5-1.5h12c0.8,0,1.5,0.7,1.5,1.5C95.3,706.3,94.8,706.9,93.8,706.9z M102.8,701
	H81.9c-0.8,0-1.5-0.7-1.5-1.5s0.7-1.5,1.5-1.5h20.9c0.8,0,1.5,0.7,1.5,1.5S103.7,701,102.8,701z M102.8,695H81.9
	c-0.8,0-1.5-0.7-1.5-1.5s0.7-1.5,1.5-1.5h20.9c0.8,0,1.5,0.7,1.5,1.5S103.7,695,102.8,695z M102.8,689H81.9c-0.8,0-1.5-0.7-1.5-1.5
	s0.7-1.5,1.5-1.5h20.9c0.8,0,1.5,0.7,1.5,1.5C104.3,688.4,103.7,689,102.8,689z M102.8,683H81.9c-0.8,0-1.5-0.7-1.5-1.5
	s0.7-1.5,1.5-1.5h20.9c0.8,0,1.5,0.7,1.5,1.5C104.3,682.4,103.7,683,102.8,683z M102.8,677.1H81.9c-0.8,0-1.5-0.7-1.5-1.5
	s0.7-1.5,1.5-1.5h20.9c0.8,0,1.5,0.7,1.5,1.5S103.7,677.1,102.8,677.1z"/>
<path class="st7" d="M102.8,698H81.9c-0.8,0-1.5,0.7-1.5,1.5s0.7,1.5,1.5,1.5h20.9c0.8,0,1.5-0.7,1.5-1.5S103.7,698,102.8,698z"/>
<path class="st7" d="M104.2,668.1H73.8v47.8h30.4c3.3,0,6-2.7,6-6V674C110.2,670.8,107.6,668.1,104.2,668.1L104.2,668.1z
	 M107.2,709.9c0,1.6-1.3,3-3,3H77.3v-41.8h26.9c1.6,0,3,1.3,3,3C107.2,674.1,107.2,709.9,107.2,709.9z"/>
<path class="st7" d="M102.8,692H81.9c-0.8,0-1.5,0.7-1.5,1.5s0.7,1.5,1.5,1.5h20.9c0.8,0,1.5-0.7,1.5-1.5S103.7,692,102.8,692z"/>
<path class="st7" d="M93.8,704h-12c-0.8,0-1.5,0.7-1.5,1.5s0.7,1.5,1.5,1.5h12c0.8,0,1.5-0.7,1.5-1.5C95.3,704.6,94.8,704,93.8,704z
	"/>
<path class="st7" d="M102.8,674.1H81.9c-0.8,0-1.5,0.7-1.5,1.5s0.7,1.5,1.5,1.5h20.9c0.8,0,1.5-0.7,1.5-1.5
	C104.3,674.7,103.7,674.1,102.8,674.1z"/>
<path class="st7" d="M102.8,686H81.9c-0.8,0-1.5,0.7-1.5,1.5s0.7,1.5,1.5,1.5h20.9c0.8,0,1.5-0.7,1.5-1.5S103.7,686,102.8,686z"/>
<path class="st7" d="M102.8,680.1H81.9c-0.8,0-1.5,0.7-1.5,1.5s0.7,1.5,1.5,1.5h20.9c0.8,0,1.5-0.7,1.5-1.5
	C104.3,680.7,103.7,680.1,102.8,680.1z"/>
<g>
	<path class="st0" d="M284.1,204.9c-33.3,0-60.3,27-60.3,60.3s27,60.3,60.3,60.3s60.3-27,60.3-60.3S317.4,204.9,284.1,204.9z"/>
	<path class="st1" d="M284,198.6c-36.9,0-66.8,29.9-66.8,66.8s29.9,66.8,66.8,66.8s66.8-29.9,66.8-66.8S320.9,198.6,284,198.6
		L284,198.6z M284.1,327.9c-34.6,0-62.6-28-62.6-62.6s28-62.6,62.6-62.6s62.6,28,62.6,62.6C346.8,299.8,318.6,327.9,284.1,327.9z"/>
	<path class="st2" d="M284.1,202.6c-34.6,0-62.6,28-62.6,62.6s28,62.6,62.6,62.6s62.6-28,62.6-62.6S318.6,202.6,284.1,202.6z
		 M284.1,325.5c-33.3,0-60.3-27-60.3-60.3s27-60.3,60.3-60.3s60.3,27,60.3,60.3S317.4,325.5,284.1,325.5z"/>
	<path class="st8" d="M281,241.5h5v3.6c2.3,0.1,4.6,0.8,6.9,2.1v8.4c-2.5-2.4-4.8-3.6-7-3.6c-1.1,0-2,0.3-2.9,1s-1.3,1.6-1.3,2.7
		c0,0.9,0.3,1.6,0.9,2.2s2,1.5,4.2,2.4c2,0.9,3.5,1.7,4.6,2.5s2,1.9,2.8,3.3c0.7,1.4,1.1,2.9,1.1,4.6c0,2.6-0.8,5-2.3,7.1
		s-3.9,3.6-7,4.5v4.1h-5v-3.6c-2.3-0.1-5-0.8-8.1-2.3v-8.7c2.9,2.7,5.6,4.1,8.3,4.1c1.5,0,2.7-0.4,3.7-1.3s1.5-2,1.5-3.4
		c0-1.2-0.4-2.1-1.2-2.8c-0.8-0.7-2.2-1.5-4.3-2.4c-2.6-1.1-4.6-2.5-6-4.1s-2.1-3.7-2.1-6.2c0-2.5,0.7-4.6,2-6.3
		c1.4-1.7,3.4-3,6.1-4L281,241.5L281,241.5z"/>
</g>
<g>
	<path class="st0" d="M284.1,373.9c-33.3,0-60.3,27-60.3,60.3s27,60.3,60.3,60.3s60.3-27,60.3-60.3S317.4,373.9,284.1,373.9z"/>
	<path class="st1" d="M284,367.6c-36.9,0-66.8,29.9-66.8,66.8s29.9,66.8,66.8,66.8s66.8-29.9,66.8-66.8S320.9,367.6,284,367.6
		L284,367.6z M284.1,496.9c-34.6,0-62.6-28-62.6-62.6s28-62.6,62.6-62.6s62.6,28,62.6,62.6C346.8,468.8,318.6,496.9,284.1,496.9z"/>
	<path class="st2" d="M284.1,371.6c-34.6,0-62.6,28-62.6,62.6s28,62.6,62.6,62.6s62.6-28,62.6-62.6S318.6,371.6,284.1,371.6z
		 M284.1,494.5c-33.3,0-60.3-27-60.3-60.3s27-60.3,60.3-60.3s60.3,27,60.3,60.3S317.4,494.5,284.1,494.5z"/>
	<path class="st9" d="M250,396.8h5.2v66.4H250V396.8z"/>
	<path class="st9" d="M251,458h66.4v5.2H251V458z"/>
	<path class="st9" d="M262.5,437h8.5v24.5h-8.5V437z"/>
	<path class="st9" d="M279,425.3h8.5v36.1H279V425.3z"/>
	<path class="st9" d="M295.8,413.3h8.5v48.2h-8.5V413.3z"/>
</g>
<g>
	<g>
		<path class="st0" d="M231.3,683.3c0,1.2-0.4,2.1-1.3,2.7c-0.8,0.6-2,1-3.4,1c-1.6,0-2.8-0.2-3.6-0.6v-1.5c0.5,0.2,1.1,0.4,1.8,0.5
			s1.3,0.2,1.9,0.2c1,0,1.8-0.2,2.3-0.6s0.8-0.9,0.8-1.6c0-0.5-0.1-0.8-0.3-1.1s-0.5-0.6-0.9-0.8s-1.1-0.5-2-0.8
			c-1.2-0.4-2.1-1-2.6-1.6s-0.8-1.4-0.8-2.3c0-1,0.4-1.8,1.1-2.4c0.8-0.6,1.8-0.9,3-0.9c1.3,0,2.5,0.2,3.6,0.7l-0.5,1.3
			c-1.1-0.5-2.1-0.7-3.2-0.7c-0.8,0-1.4,0.2-1.9,0.5s-0.7,0.8-0.7,1.4c0,0.5,0.1,0.8,0.3,1.1s0.5,0.6,0.8,0.8s1,0.5,1.8,0.8
			c1.4,0.5,2.3,1,2.8,1.6C231,681.7,231.3,682.4,231.3,683.3z"/>
		<path class="st0" d="M242.2,686.8l-1.6-4.2h-5.3l-1.6,4.2h-1.5l5.2-13.2h1.3l5.2,13.2H242.2z M240.1,681.3l-1.5-4.1
			c-0.2-0.5-0.4-1.1-0.6-1.9c-0.1,0.6-0.3,1.2-0.6,1.9l-1.5,4.1H240.1z"/>
		<path class="st0" d="M249.6,686.8h-1.5V675h-4.2v-1.4h9.8v1.4h-4.2L249.6,686.8L249.6,686.8z"/>
		<path class="st0" d="M255.7,686.8v-13.1h1.5v13.1H255.7z"/>
		<path class="st0" d="M268.3,683.3c0,1.2-0.4,2.1-1.3,2.7c-0.8,0.6-2,1-3.4,1c-1.6,0-2.8-0.2-3.6-0.6v-1.5c0.5,0.2,1.1,0.4,1.8,0.5
			s1.3,0.2,1.9,0.2c1,0,1.8-0.2,2.3-0.6s0.8-0.9,0.8-1.6c0-0.5-0.1-0.8-0.3-1.1c-0.2-0.3-0.5-0.6-0.9-0.8s-1.1-0.5-2-0.8
			c-1.2-0.4-2.1-1-2.6-1.6s-0.8-1.4-0.8-2.3c0-1,0.4-1.8,1.1-2.4c0.8-0.6,1.8-0.9,3-0.9c1.3,0,2.5,0.2,3.6,0.7l-0.5,1.3
			c-1.1-0.5-2.1-0.7-3.2-0.7c-0.8,0-1.4,0.2-1.9,0.5s-0.7,0.8-0.7,1.4c0,0.5,0.1,0.8,0.3,1.1s0.5,0.6,0.8,0.8s1,0.5,1.8,0.8
			c1.4,0.5,2.3,1,2.8,1.6C268,681.7,268.3,682.4,268.3,683.3z"/>
		<path class="st0" d="M272.5,686.8H271v-13.1h7.3v1.4h-5.8v4.8h5.4v1.4h-5.4V686.8z"/>
		<path class="st0" d="M288.7,686.8l-1.6-4.2h-5.3l-1.6,4.2h-1.5l5.2-13.2h1.3l5.2,13.2H288.7z M286.6,681.3l-1.5-4.1
			c-0.2-0.5-0.4-1.1-0.6-1.9c-0.1,0.6-0.3,1.2-0.6,1.9l-1.5,4.1H286.6z"/>
		<path class="st0" d="M297.7,674.9c-1.4,0-2.6,0.5-3.4,1.4c-0.8,1-1.3,2.3-1.3,3.9c0,1.7,0.4,3,1.2,4c0.8,0.9,2,1.4,3.4,1.4
			c0.9,0,2-0.2,3.1-0.5v1.3c-0.9,0.3-2,0.5-3.4,0.5c-1.9,0-3.4-0.6-4.5-1.8c-1-1.2-1.6-2.8-1.6-5c0-1.4,0.3-2.5,0.8-3.6
			c0.5-1,1.2-1.8,2.2-2.3s2.1-0.8,3.4-0.8c1.4,0,2.6,0.3,3.6,0.8l-0.6,1.3C299.6,675.1,298.6,674.9,297.7,674.9z"/>
		<path class="st0" d="M307.7,686.8h-1.5V675H302v-1.4h9.8v1.4h-4.2v11.8H307.7z"/>
		<path class="st0" d="M313.8,686.8v-13.1h1.5v13.1H313.8z"/>
		<path class="st0" d="M330.3,680.2c0,2.1-0.5,3.7-1.6,5c-1.1,1.2-2.5,1.8-4.4,1.8s-3.4-0.6-4.5-1.8s-1.6-2.8-1.6-5
			c0-2.1,0.5-3.8,1.6-5s2.5-1.8,4.5-1.8c1.9,0,3.4,0.6,4.4,1.8C329.8,676.5,330.3,678.1,330.3,680.2z M319.8,680.2
			c0,1.8,0.4,3.1,1.1,4c0.8,0.9,1.9,1.4,3.3,1.4c1.5,0,2.5-0.5,3.3-1.4c0.7-0.9,1.1-2.3,1.1-4c0-1.8-0.4-3.1-1.1-4s-1.8-1.4-3.3-1.4
			s-2.6,0.5-3.3,1.4C320.2,677.1,319.8,678.5,319.8,680.2z"/>
		<path class="st0" d="M343.5,686.8h-1.7l-7.2-11h-0.1c0.1,1.3,0.1,2.5,0.1,3.6v7.5h-1.4v-13.1h1.7l7.1,11h0.1c0-0.2,0-0.7-0.1-1.6
			c0-0.9-0.1-1.5,0-1.9v-7.5h1.4v13H343.5z"/>
	</g>
	<g>
		<path class="st0" d="M284.1,543.2c-33.3,0-60.3,27-60.3,60.3s27,60.3,60.3,60.3s60.3-27,60.3-60.3S317.4,543.2,284.1,543.2z"/>
		<path class="st1" d="M284,536.9c-36.9,0-66.8,29.9-66.8,66.8c0,36.9,29.9,66.8,66.8,66.8s66.8-29.9,66.8-66.8
			S320.9,536.9,284,536.9L284,536.9z M284.1,666.2c-34.6,0-62.6-28-62.6-62.6s28-62.6,62.6-62.6s62.6,28,62.6,62.6
			C346.6,638.1,318.6,666.2,284.1,666.2z"/>
		<path class="st2" d="M284.1,540.9c-34.6,0-62.6,28-62.6,62.6s28,62.6,62.6,62.6s62.6-28,62.6-62.6S318.6,540.9,284.1,540.9z
			 M284.1,663.8c-33.3,0-60.3-27-60.3-60.3s27-60.3,60.3-60.3s60.3,27,60.3,60.3S317.4,663.8,284.1,663.8z"/>
		<circle class="st4" cx="269" cy="592.8" r="6.5"/>
		<path class="st4" d="M291.1,589.5h15.8v4.6h-15.8V589.5z"/>
		<path class="st4" d="M284.1,632.3c11.1,0,20.5-7.9,22.9-18.5h-5.3c-2.3,7.7-9.3,13.3-17.6,13.3s-15.3-5.6-17.6-13.3h-5.3
			C263.8,624.4,273,632.3,284.1,632.3z"/>
	</g>
</g>
<path class="st0" d="M474.9,288.4c-33.3,0-60.3,27-60.3,60.3s27,60.3,60.3,60.3s60.3-27,60.3-60.3S508.1,288.4,474.9,288.4
	L474.9,288.4z"/>
<path class="st1" d="M474.8,282c-36.9,0-66.8,29.9-66.8,66.8s29.9,66.8,66.8,66.8s66.8-29.9,66.8-66.8S511.6,282,474.8,282
	L474.8,282z M474.9,411.3c-34.6,0-62.6-28-62.6-62.6s28-62.6,62.6-62.6s62.6,28,62.6,62.6C537.5,383.2,509.5,411.3,474.9,411.3z"/>
<path class="st2" d="M474.9,286c-34.6,0-62.6,28-62.6,62.6s28,62.6,62.6,62.6s62.6-28,62.6-62.6S509.5,286,474.9,286L474.9,286z
	 M474.9,408.9c-33.3,0-60.3-27-60.3-60.3s27-60.3,60.3-60.3s60.3,27,60.3,60.3S508.1,408.9,474.9,408.9z"/>
<path class="st3" d="M478.8,359.7c-1,0-1.9-0.6-2.7-1.1c-0.6-0.4-1.4-0.9-1.8-0.9c-0.5,0-1.2,0.5-1.8,0.9c-1,0.7-2.2,1.4-3.4,1
	s-1.8-1.7-2.2-2.9c-0.3-0.7-0.6-1.5-0.9-1.7c-0.3-0.3-1.2-0.3-1.9-0.4c-1.3-0.1-2.7-0.2-3.4-1.2s-0.4-2.4-0.1-3.6
	c0.2-0.7,0.4-1.6,0.3-2s-0.8-0.9-1.3-1.4c-1-0.8-2.1-1.7-2.1-3s1.1-2.2,2.1-3c0.6-0.5,1.2-1,1.3-1.4s-0.1-1.2-0.3-2
	c-0.3-1.2-0.7-2.6,0.1-3.6s2.2-1.1,3.4-1.2c0.7,0,1.6-0.1,1.9-0.4c0.3-0.2,0.6-1,0.9-1.7c0.5-1.2,1-2.5,2.2-2.9s2.4,0.4,3.4,1
	c0.6,0.4,1.4,0.9,1.8,0.9c0.5,0,1.2-0.5,1.8-0.9c1-0.7,2.2-1.4,3.4-1s1.8,1.7,2.2,2.9c0.3,0.7,0.6,1.5,0.9,1.7
	c0.3,0.3,1.2,0.3,1.9,0.4c1.3,0.1,2.7,0.2,3.4,1.2s0.4,2.4,0.1,3.6c-0.2,0.7-0.4,1.6-0.3,2s0.8,0.9,1.3,1.4c1,0.8,2.1,1.7,2.1,3
	s-1.1,2.2-2.1,3c-0.6,0.5-1.2,1-1.3,1.4s0.1,1.2,0.3,2c0.3,1.2,0.7,2.6-0.1,3.6s-2.2,1.1-3.4,1.2c-0.7,0-1.6,0.1-1.9,0.4
	c-0.3,0.2-0.6,1-0.9,1.7c-0.5,1.2-1,2.5-2.2,2.9C479.1,359.7,479,359.7,478.8,359.7L478.8,359.7z M469.6,329.1h-0.1
	c-0.4,0.1-0.8,1.1-1.1,1.8c-0.4,1-0.8,2-1.6,2.5c-0.8,0.6-1.9,0.6-2.9,0.7c-0.8,0-1.8,0.1-2,0.4s0,1.3,0.2,2c0.3,1,0.5,2.1,0.2,3
	s-1.1,1.6-1.9,2.2c-0.6,0.5-1.4,1.2-1.4,1.6s0.8,1.1,1.4,1.6c0.8,0.7,1.6,1.3,1.9,2.2s0,2-0.2,3c-0.2,0.7-0.4,1.7-0.2,2
	c0.2,0.3,1.3,0.4,2,0.4c1,0.1,2.1,0.1,2.9,0.7s1.2,1.6,1.6,2.5c0.3,0.8,0.7,1.7,1.1,1.8s1.2-0.4,1.8-0.8c0.9-0.6,1.8-1.2,2.8-1.2
	s1.9,0.6,2.8,1.2c0.6,0.4,1.5,0.9,1.8,0.8c0.4-0.1,0.8-1.1,1.1-1.8c0.4-1,0.8-2,1.6-2.5c0.8-0.6,1.9-0.6,2.9-0.7
	c0.8,0,1.8-0.1,2-0.4s0-1.3-0.2-2c-0.3-1-0.5-2.1-0.2-3s1.1-1.6,1.9-2.2c0.6-0.5,1.4-1.2,1.4-1.6s-0.8-1.1-1.4-1.6
	c-0.8-0.7-1.6-1.3-1.9-2.2s0-2,0.2-3c0.2-0.7,0.4-1.7,0.2-2c-0.2-0.3-1.3-0.4-2-0.4c-1-0.1-2.1-0.1-2.9-0.7s-1.2-1.6-1.6-2.5
	c-0.3-0.8-0.7-1.7-1.1-1.8s-1.2,0.4-1.8,0.8c-0.9,0.6-1.8,1.2-2.8,1.2s-1.9-0.6-2.8-1.2C470.8,329.5,470,329.1,469.6,329.1
	L469.6,329.1z"/>
<path class="st3" d="M474.1,354c-5.8,0-10.5-4.7-10.5-10.5s4.7-10.5,10.5-10.5s10.5,4.7,10.5,10.5C484.8,349.3,480,354,474.1,354z
	 M474.1,334.8c-4.8,0-8.7,3.9-8.7,8.7c0,4.8,3.9,8.7,8.7,8.7s8.7-3.9,8.7-8.7C482.8,338.7,479,334.8,474.1,334.8z"/>
<path class="st3" d="M468.2,371.7c-0.4,0-0.7-0.2-0.8-0.5l-2.2-4.8l-5,1.8c-0.3,0.1-0.7,0-1-0.2c-0.3-0.3-0.3-0.7-0.2-1l5.5-13.3
	c0.2-0.5,0.7-0.7,1.2-0.5s0.7,0.7,0.5,1.2l-4.7,11.3l3.8-1.4c0.5-0.2,1,0,1.2,0.5l1.7,3.7l4.9-11.7c0.2-0.5,0.7-0.7,1.2-0.5
	s0.7,0.7,0.5,1.2l-5.7,13.7C469,371.5,468.6,371.7,468.2,371.7z"/>
<path class="st3" d="M480,371.7c-0.4,0-0.7-0.2-0.9-0.6l-5.7-13.7c-0.2-0.5,0-1,0.5-1.2s1,0,1.2,0.5l4.9,11.7l1.7-3.7
	c0.2-0.4,0.7-0.6,1.2-0.5l3.8,1.4l-4.7-11.3c-0.2-0.5,0-1,0.5-1.2s1,0,1.2,0.5l5.5,13.3c0.1,0.3,0.1,0.7-0.2,1s-0.6,0.4-1,0.2
	l-5-1.8l-2.2,4.8C480.8,371.5,480.5,371.7,480,371.7z"/>
<path class="st3" d="M477.5,349c-0.2,0-0.4-0.1-0.5-0.2l-2.8-2l-2.8,2c-0.3,0.2-0.8,0.2-1.1,0c-0.3-0.2-0.5-0.7-0.3-1l1.1-3.3
	l-2.8-2c-0.3-0.2-0.5-0.7-0.3-1c0.1-0.4,0.5-0.6,0.9-0.6h3.5l1.1-3.3c0.1-0.4,0.5-0.6,0.9-0.6s0.8,0.3,0.9,0.6l1.1,3.3h3.5
	c0.4,0,0.8,0.3,0.9,0.6c0.1,0.4,0,0.8-0.3,1l-2.8,2l1.1,3.3c0.1,0.4,0,0.8-0.3,1C478,349,477.8,349,477.5,349L477.5,349z
	 M474.1,344.7c0.2,0,0.4,0.1,0.5,0.2l1,0.8l-0.4-1.2c-0.1-0.4,0-0.8,0.3-1l1-0.8h-1.3c-0.4,0-0.8-0.3-0.9-0.6l-0.4-1.2l-0.4,1.2
	c-0.1,0.4-0.5,0.6-0.9,0.6h-1.1l1,0.8c0.3,0.2,0.5,0.7,0.3,1l-0.3,1.2l1-0.8C473.8,344.8,474,344.7,474.1,344.7L474.1,344.7z"/>
<path class="st0" d="M475,459.9c-33.3,0-60.3,27-60.3,60.3s27,60.3,60.3,60.3s60.3-27,60.3-60.3C535.1,486.9,508.1,459.9,475,459.9z
	"/>
<path class="st1" d="M474.8,453.5c-36.9,0-66.8,29.9-66.8,66.8s29.9,66.8,66.8,66.8s66.8-29.9,66.8-66.8S511.6,453.5,474.8,453.5z
	 M475,582.8c-34.6,0-62.6-28-62.6-62.6s28-62.6,62.6-62.6s62.6,28,62.6,62.6C537.5,554.7,509.5,582.8,475,582.8z"/>
<path class="st2" d="M475,457.5c-34.6,0-62.6,28-62.6,62.6s28,62.6,62.6,62.6s62.6-28,62.6-62.6S509.5,457.5,475,457.5z M475,580.4
	c-33.3,0-60.3-27-60.3-60.3s27-60.3,60.3-60.3s60.3,27,60.3,60.3C535.1,553.4,508.1,580.4,475,580.4z"/>
<path class="st2" d="M473,540.8l-1.5-0.7c-1-0.5-24.1-11.9-24.1-28.4c0.1-7.9,6.8-14.4,15.1-14.4h0.2c3.9,0,7.6,1.5,10.4,4.1
	c2.7-2.6,6.4-4.1,10.3-4.1h0.1c8.4,0,15.2,6.5,15.2,14.4c0,7.2-4.3,14.5-12.4,21c-5.8,4.6-11.5,7.3-11.8,7.4L473,540.8z"/>
<path class="st8" d="M473.1,538.7l-0.8-0.4c-0.9-0.4-23-11.4-23-26.7c0.1-7,6.1-12.6,13.3-12.6h0.2c4.2,0,8,1.9,10.4,5
	c2.5-3.1,6.3-5,10.3-5h0.2c7.3,0,13.3,5.7,13.3,12.6c0,6.7-4,13.4-11.7,19.5c-5.6,4.5-11.1,7.1-11.4,7.2L473.1,538.7z"/>
<path class="st8" d="M473.1,538.7l-0.8-0.4c-0.9-0.4-23-11.4-23-26.7c0.1-7,6.1-12.6,13.3-12.6h0.2c4.2,0,8,1.9,10.4,5
	c2.5-3.1,6.3-5,10.3-5h0.2c7.3,0,13.3,5.7,13.3,12.6c0,6.7-4,13.4-11.7,19.5c-5.6,4.5-11.1,7.1-11.4,7.2L473.1,538.7z"/>
<path class="st2" d="M451.1,511.7c0,14.3,22,25,22,25s22-10.2,22-25c0-5.9-5.2-10.7-11.4-10.7c-4.5-0.1-8.6,2.6-10.5,6.7
	c-1.8-4.1-6-6.7-10.5-6.7C456.4,501,451.2,505.8,451.1,511.7z"/>
<path class="st0" d="M664,374c-33.3,0-60.3,27-60.3,60.3s27,60.3,60.3,60.3s60.3-27,60.3-60.3S697.3,374,664,374z"/>
<path class="st1" d="M664,367.7c-36.9,0-66.8,29.9-66.8,66.8s29.9,66.8,66.8,66.8s66.8-29.9,66.8-66.8S700.8,367.7,664,367.7z
	 M664,497c-34.6,0-62.6-28-62.6-62.6s28-62.6,62.6-62.6s62.6,28,62.6,62.6C726.8,468.9,698.7,497,664,497z"/>
<path class="st2" d="M664,371.7c-34.6,0-62.6,28-62.6,62.6s28,62.6,62.6,62.6s62.6-28,62.6-62.6C726.8,399.7,698.7,371.7,664,371.7z
	 M664,494.6c-33.3,0-60.3-27-60.3-60.3s27-60.3,60.3-60.3s60.3,27,60.3,60.3S697.3,494.6,664,494.6z"/>
<g>
	<path class="st0" d="M593.6,517.2V504h1.5v11.9h5.9v1.4L593.6,517.2L593.6,517.2z"/>
	<path class="st0" d="M614.6,510.4c0,2.1-0.6,3.8-1.6,5s-2.6,1.8-4.5,1.8c-2,0-3.5-0.6-4.5-1.8c-1.1-1.2-1.6-2.8-1.6-5.1
		c0-2.1,0.6-3.9,1.6-5.1s2.5-1.8,4.5-1.8c1.9,0,3.4,0.6,4.5,1.8C614,506.4,614.6,508.3,614.6,510.4z M604.1,510.4
		c0,1.8,0.4,3.2,1.2,4s2,1.4,3.3,1.4c1.5,0,2.5-0.5,3.3-1.4s1.2-2.2,1.2-4.1c0-1.8-0.3-3.1-1.1-4s-1.8-1.4-3.3-1.4s-2.6,0.4-3.3,1.4
		C604.5,507.3,604.1,508.6,604.1,510.4L604.1,510.4z"/>
	<path class="st0" d="M621,510.4l3.6-6.6h1.6l-4.5,8.1v5.1h-1.5v-4.9l-4.4-8.2h1.6L621,510.4z"/>
	<path class="st0" d="M636.5,517.2l-1.6-4.2h-5.2l-1.6,4.2h-1.5l5.2-13.4h1.4l5.2,13.4H636.5z M634.2,511.5l-1.5-4.1
		c-0.1-0.4-0.5-1.2-0.6-1.9c-0.1,0.6-0.3,1.2-0.6,1.9l-1.5,4.1H634.2z"/>
	<path class="st0" d="M639.8,517.2V504h1.5v11.9h5.9v1.4L639.8,517.2L639.8,517.2z"/>
	<path class="st0" d="M653.6,517.2h-1.5v-11.9h-4.2V504h9.9v1.4h-4.2V517.2z"/>
	<path class="st0" d="M663,510.4l3.6-6.6h1.6l-4.5,8.1v5.1h-1.5v-4.9l-4.4-8.2h1.6L663,510.4z"/>
	<path class="st0" d="M683.3,507.7c0,1.4-0.4,2.4-1.4,3.1c-0.9,0.8-2.2,1.1-3.9,1.1h-1.5v5.2H675V504h3.5
		C681.8,503.8,683.3,505.2,683.3,507.7L683.3,507.7z M676.5,510.6h1.4c1.4,0,2.4-0.2,3-0.6s0.9-1.2,0.9-2.1s-0.3-1.5-0.9-1.9
		c-0.6-0.5-1.5-0.6-2.7-0.6h-1.8L676.5,510.6z"/>
	<path class="st0" d="M687.8,511.6v5.6h-1.5V504h3.6c1.6,0,2.9,0.3,3.6,0.9s1.2,1.5,1.2,2.8c0,1.8-0.9,3-2.7,3.6l3.6,6h-1.8
		l-3.1-5.6L687.8,511.6z M687.8,510.3h2.1c1.1,0,2-0.1,2.4-0.6c0.5-0.4,0.8-1.1,0.8-1.9s-0.3-1.5-0.8-1.9c-0.4-0.4-1.4-0.6-2.5-0.6
		h-2V510.3z"/>
	<path class="st0" d="M709.1,510.4c0,2.1-0.6,3.8-1.6,5s-2.6,1.8-4.5,1.8c-2,0-3.5-0.6-4.5-1.8c-1.1-1.2-1.6-2.8-1.6-5.1
		c0-2.1,0.6-3.9,1.6-5.1s2.5-1.8,4.5-1.8c1.9,0,3.4,0.6,4.5,1.8C708.8,506.7,709.1,508.3,709.1,510.4z M698.6,510.4
		c0,1.8,0.4,3.2,1.2,4s2,1.4,3.3,1.4c1.5,0,2.5-0.5,3.3-1.4s1.2-2.2,1.2-4.1c0-1.8-0.3-3.1-1.1-4s-1.8-1.4-3.3-1.4s-2.6,0.4-3.3,1.4
		C699,507.3,698.6,508.6,698.6,510.4L698.6,510.4z"/>
	<path class="st0" d="M713.6,517.2h-1.5V504h7.4v1.4h-5.9v4.8h5.5v1.3h-5.5V517.2z"/>
	<path class="st0" d="M721.9,517.2V504h1.5v13.2H721.9z"/>
	<path class="st0" d="M731,517.2h-1.5v-11.9h-4.2V504h9.9v1.4H731V517.2z"/>
</g>
<path class="st8" d="M693.2,392.5h1.8v1.3c0.8,0,1.7,0.3,2.5,0.8v3c-0.9-0.9-1.7-1.3-2.5-1.3c-0.4,0-0.7,0.1-1,0.4s-0.5,0.6-0.5,1
	c0,0.3,0.1,0.6,0.3,0.8s0.7,0.5,1.5,0.9c0.7,0.3,1.3,0.6,1.7,0.9s0.7,0.7,1,1.2s0.4,1,0.4,1.7c0,0.9-0.3,1.8-0.8,2.6
	s-1.4,1.3-2.5,1.6v1.5h-1.8v-1.3c-0.8,0-1.8-0.3-2.9-0.8v-3.1c1,1,2,1.5,3,1.5c0.5,0,1-0.1,1.3-0.5c0.4-0.3,0.5-0.7,0.5-1.2
	c0-0.4-0.1-0.8-0.4-1c-0.3-0.3-0.8-0.5-1.5-0.9c-0.9-0.4-1.7-0.9-2.2-1.5s-0.8-1.3-0.8-2.2s0.3-1.7,0.7-2.3c0.5-0.6,1.2-1.1,2.2-1.4
	V392.5z"/>
<path class="st4" d="M634.9,452.5H646v23.2h-11.1V452.5z"/>
<path class="st3" d="M651.8,449.2h11.1v26.4h-11.1V449.2z"/>
<path class="st7" d="M667.6,445.1h11.1v30.5h-11.1V445.1z"/>
<path class="st1" d="M683.2,437h11.1v38.8h-11.1V437z"/>
<path class="st9" d="M701,413.1l-4.3,0.2h-0.4l-11.9,0.6l0.2,4.6l8.6-0.4c-10.4,13-29.6,23.8-52.9,28.3c-5.9,1.1-11.7,1.8-17.4,2
	c0.1,1.3,0.3,2.7,0.6,4c7.2,0.1,14.8-0.6,22.6-2.1c21.7-4.2,39.9-13.9,50.7-25.8l0.3,5.3l4.6-0.2l-0.5-10.6l-0.1-1.4L701,413.1z"/>
<path class="st2" d="M623.5,427.2c0.2-8.5,7.4-15.3,16.2-15.3h0.2c5.1,0,9.7,2.3,12.7,6.1c3-3.8,7.7-6.1,12.6-6.1h0.2
	c8.9,0,16.2,6.9,16.2,15.3c0,0.7,0,1.3-0.1,2c0.8-0.6,1.6-1.2,2.3-1.8v-0.1c0-9.7-8.3-17.6-18.5-17.6h-0.2c-4.8,0-9.2,1.8-12.6,5
	c-3.4-3.2-7.9-5-12.7-5h-0.2c-10.1,0-18.3,7.9-18.4,17.5c0,8,4.5,15,9.9,20.6c0.9-0.1,1.8-0.2,2.8-0.4
	C628.3,442,623.5,435.1,623.5,427.2z"/>
<path class="st8" d="M665.3,411.9h-0.2c-4.9,0-9.5,2.3-12.6,6.1c-3-3.8-7.6-6.1-12.7-6.1h-0.2c-8.8,0-16.1,6.8-16.2,15.3
	c0,7.9,4.8,14.8,10.5,20.3c0.9-0.1,1.9-0.3,2.8-0.4c-5.8-5.2-11-12.1-11-19.8c0.1-7.2,6.3-13,13.9-13c5.5-0.1,10.6,3.1,12.8,8.1
	c2.3-5,7.3-8.2,12.8-8.1c7.7,0,13.9,5.8,13.9,13c0,1.3-0.1,2.5-0.4,3.8c0.9-0.6,1.8-1.2,2.6-1.9c0.1-0.7,0.1-1.3,0.1-2
	C681.5,418.8,674.3,411.9,665.3,411.9L665.3,411.9z"/>
<path class="st2" d="M678.8,431c0.3-1.2,0.4-2.5,0.4-3.8c0-7.2-6.3-13-13.9-13c-5.5-0.1-10.5,3.1-12.8,8.1c-2.2-5-7.3-8.2-12.8-8.1
	c-7.7,0-13.9,5.8-13.9,13c0,7.7,5.2,14.5,11,19.8c1.1-0.2,2.3-0.4,3.4-0.6C655.2,443.6,668.5,438,678.8,431z"/>
<linearGradient id="SVGID_1_" gradientUnits="userSpaceOnUse" x1="-1910.1141" y1="-1347.1721" x2="-1546.5585" y2="-983.6167" gradientTransform="matrix(6.123234e-17 1 -1 6.123234e-17 -792.7732 1813.1019)">
	<stop  offset="0" style="stop-color:#011E41"/>
	<stop  offset="1" style="stop-color:#8AB7E9"/>
</linearGradient>
<path class="st10" d="M687.5,119.4l45.8-31.9c1.8-1.5,1.8-4,0-5.6L687.5,50c-1.8-1.5-3.3-0.9-3.3,1.5v13.4c0,2.4-1.9,4.3-4.3,4.3
	h-14H26.6h-0.1c-2.4,0-4.3,2-4.3,4.4v22.5c0,2.4,1.9,4.3,4.3,4.3l653.4-0.1c2.4,0,4.3,1.9,4.3,4.3V118
	C684.2,120.3,685.7,120.9,687.5,119.4"/>
<g>
	<path class="st0" d="M412.4,418.7h3.7c1.7,0,3,0.3,3.8,0.8s1.2,1.3,1.2,2.5c0,0.8-0.2,1.4-0.7,1.9c-0.4,0.5-1.1,0.8-1.9,1v0.1
		c2,0.3,3,1.4,3,3.1c0,1.2-0.4,2.1-1.2,2.7c-0.8,0.7-1.9,1-3.3,1h-4.6V418.7z M413.9,424.3h2.5c1.1,0,1.9-0.2,2.3-0.5
		c0.5-0.3,0.7-0.9,0.7-1.7c0-0.7-0.3-1.3-0.8-1.6c-0.5-0.3-1.4-0.5-2.5-0.5h-2.2V424.3z M413.9,425.6v4.9h2.7c1.1,0,1.9-0.2,2.4-0.6
		s0.8-1.1,0.8-1.9s-0.3-1.4-0.8-1.8s-1.4-0.6-2.5-0.6H413.9z"/>
	<path class="st0" d="M425.8,426.3v5.5h-1.5v-13.1h3.6c1.6,0,2.8,0.3,3.6,0.9c0.8,0.6,1.2,1.5,1.2,2.8c0,1.7-0.9,2.9-2.6,3.5
		l3.6,5.9h-1.8l-3.2-5.5L425.8,426.3L425.8,426.3z M425.8,425h2.1c1.1,0,1.9-0.2,2.4-0.6s0.8-1.1,0.8-1.9c0-0.9-0.3-1.5-0.8-1.9
		s-1.3-0.6-2.5-0.6h-2V425z"/>
	<path class="st0" d="M443.9,431.8l-1.6-4.2H437l-1.6,4.2h-1.5l5.2-13.2h1.3l5.2,13.2H443.9z M441.7,426.3l-1.5-4.1
		c-0.2-0.5-0.4-1.1-0.6-1.9c-0.1,0.6-0.3,1.2-0.6,1.9l-1.5,4.1H441.7z"/>
	<path class="st0" d="M457.5,431.8h-1.7l-7.2-11h-0.1c0.1,1.3,0.1,2.5,0.1,3.6v7.5h-1.4v-13.1h1.7l7.1,11h0.1c0-0.2,0-0.7-0.1-1.6
		c0-0.9-0.1-1.5,0-1.9v-7.5h1.4v13H457.5z"/>
	<path class="st0" d="M471.5,425.1c0,2.2-0.6,3.8-1.8,5c-1.2,1.1-2.9,1.7-5.1,1.7H461v-13.1h4c2,0,3.6,0.6,4.8,1.7
		C471,421.5,471.5,423.1,471.5,425.1z M469.9,425.2c0-1.7-0.4-3-1.3-3.9s-2.1-1.3-3.8-1.3h-2.2v10.5h1.9c1.8,0,3.2-0.4,4.1-1.3
		C469.5,428.2,469.9,426.9,469.9,425.2z"/>
	<path class="st0" d="M486.7,418.7h1.6l-4.7,13.1h-1.5l-4.7-13.1h1.6l3,8.5c0.3,1,0.6,1.9,0.8,2.8c0.2-1,0.5-1.9,0.8-2.9
		L486.7,418.7z"/>
	<path class="st0" d="M498.4,431.8l-1.6-4.2h-5.3l-1.6,4.2h-1.5l5.2-13.2h1.3l5.2,13.2H498.4z M496.3,426.3l-1.5-4.1
		c-0.2-0.5-0.4-1.1-0.6-1.9c-0.1,0.6-0.3,1.2-0.6,1.9l-1.5,4.1H496.3z"/>
	<path class="st0" d="M501.8,431.8v-13.1h1.5v11.7h5.8v1.4H501.8z"/>
	<path class="st0" d="M521.2,418.7v8.5c0,1.5-0.5,2.7-1.4,3.5c-0.9,0.9-2.1,1.3-3.7,1.3c-1.6,0-2.8-0.4-3.7-1.3
		c-0.9-0.9-1.3-2-1.3-3.6v-8.4h1.5v8.6c0,1.1,0.3,1.9,0.9,2.5c0.6,0.6,1.5,0.9,2.6,0.9s2-0.3,2.6-0.9s0.9-1.4,0.9-2.5v-8.5h1.6
		L521.2,418.7L521.2,418.7z"/>
	<path class="st0" d="M532,431.8h-7.3v-13.1h7.3v1.4h-5.8v4.2h5.4v1.3h-5.4v4.8h5.8V431.8z"/>
</g>
<g>
	<path class="st11" d="M267.7,344.7c0,1.2-0.4,2.1-1.3,2.7c-0.8,0.6-2,1-3.4,1c-1.6,0-2.8-0.2-3.6-0.6v-1.5c0.5,0.2,1.1,0.4,1.8,0.5
		c0.6,0.1,1.3,0.2,1.9,0.2c1,0,1.8-0.2,2.3-0.6s0.8-0.9,0.8-1.6c0-0.5-0.1-0.8-0.3-1.1c-0.2-0.3-0.5-0.6-0.9-0.8
		c-0.4-0.2-1.1-0.5-2-0.8c-1.2-0.4-2.1-1-2.6-1.6s-0.8-1.4-0.8-2.3c0-1,0.4-1.8,1.1-2.4c0.8-0.6,1.8-0.9,3-0.9
		c1.3,0,2.5,0.2,3.6,0.7l-0.5,1.3c-1.1-0.5-2.1-0.7-3.2-0.7c-0.8,0-1.4,0.2-1.9,0.5s-0.7,0.8-0.7,1.4c0,0.5,0.1,0.8,0.3,1.1
		s0.5,0.6,0.8,0.8s1,0.5,1.8,0.8c1.4,0.5,2.3,1,2.8,1.6C267.5,343.1,267.7,343.8,267.7,344.7z"/>
	<path class="st11" d="M278.6,348.2L277,344h-5.3l-1.6,4.2h-1.5l5.2-13.2h1.3l5.2,13.2H278.6z M276.5,342.7l-1.5-4.1
		c-0.2-0.5-0.4-1.1-0.6-1.9c-0.1,0.6-0.3,1.2-0.6,1.9l-1.5,4.1H276.5z"/>
	<path class="st11" d="M282,348.2v-13.1h1.5v11.7h5.8v1.4H282z"/>
	<path class="st11" d="M298.9,348.2h-7.3v-13.1h7.3v1.4h-5.8v4.2h5.4v1.3h-5.4v4.8h5.8V348.2z"/>
	<path class="st11" d="M309.2,344.7c0,1.2-0.4,2.1-1.3,2.7c-0.8,0.6-2,1-3.4,1c-1.6,0-2.8-0.2-3.6-0.6v-1.5c0.5,0.2,1.1,0.4,1.8,0.5
		c0.6,0.1,1.3,0.2,1.9,0.2c1,0,1.8-0.2,2.3-0.6s0.8-0.9,0.8-1.6c0-0.5-0.1-0.8-0.3-1.1c-0.2-0.3-0.5-0.6-0.9-0.8
		c-0.4-0.2-1.1-0.5-2-0.8c-1.2-0.4-2.1-1-2.6-1.6s-0.8-1.4-0.8-2.3c0-1,0.4-1.8,1.1-2.4c0.8-0.6,1.8-0.9,3-0.9
		c1.3,0,2.5,0.2,3.6,0.7l-0.5,1.3c-1.1-0.5-2.1-0.7-3.2-0.7c-0.8,0-1.4,0.2-1.9,0.5s-0.7,0.8-0.7,1.4c0,0.5,0.1,0.8,0.3,1.1
		s0.5,0.6,0.8,0.8s1,0.5,1.8,0.8c1.4,0.5,2.3,1,2.8,1.6C308.9,343.1,309.2,343.8,309.2,344.7z"/>
</g>
<g>
	<path class="st11" d="M437.6,603v-13.1h1.5v11.7h5.8v1.4L437.6,603L437.6,603z"/>
	<path class="st11" d="M458.5,596.4c0,2.1-0.5,3.7-1.6,5c-1.1,1.2-2.5,1.8-4.4,1.8s-3.4-0.6-4.5-1.8c-1-1.2-1.6-2.8-1.6-5
		c0-2.1,0.5-3.8,1.6-5s2.5-1.8,4.5-1.8c1.9,0,3.4,0.6,4.4,1.8C458,592.6,458.5,594.3,458.5,596.4z M448.1,596.4c0,1.8,0.4,3.1,1.1,4
		c0.8,0.9,1.9,1.4,3.3,1.4c1.5,0,2.5-0.5,3.3-1.4c0.7-0.9,1.1-2.3,1.1-4c0-1.8-0.4-3.1-1.1-4s-1.8-1.4-3.3-1.4s-2.6,0.5-3.3,1.4
		C448.5,593.3,448.1,594.6,448.1,596.4z"/>
	<path class="st11" d="M464.8,596.4l3.5-6.6h1.7l-4.4,8v5.1H464v-5l-4.4-8.1h1.7L464.8,596.4z"/>
	<path class="st11" d="M480,603l-1.6-4.2h-5.3l-1.6,4.2H470l5.2-13.2h1.3l5.2,13.2H480z M477.9,597.4l-1.5-4.1
		c-0.2-0.5-0.4-1.1-0.6-1.9c-0.1,0.6-0.3,1.2-0.6,1.9l-1.5,4.1H477.9z"/>
	<path class="st11" d="M483.4,603v-13.1h1.5v11.7h5.8v1.4L483.4,603L483.4,603z"/>
	<path class="st11" d="M496.9,603h-1.5v-11.8h-4.2v-1.4h9.8v1.4h-4.2V603H496.9z"/>
	<path class="st11" d="M506.4,596.4l3.5-6.6h1.7l-4.4,8v5.1h-1.5v-5l-4.4-8.1h1.7L506.4,596.4z"/>
</g>
<g>
	<path class="st0" d="M178.9,512.4v5.5h-1.5v-13.1h3.6c1.6,0,2.8,0.3,3.6,0.9s1.2,1.5,1.2,2.8c0,1.7-0.9,2.9-2.6,3.5l3.6,5.9H185
		l-3.2-5.5H178.9z M178.9,511h2.1c1.1,0,1.9-0.2,2.4-0.6s0.8-1.1,0.8-1.9c0-0.9-0.3-1.5-0.8-1.9s-1.3-0.6-2.5-0.6h-2V511z"/>
	<path class="st0" d="M196.1,517.8h-7.3v-13.1h7.3v1.4h-5.8v4.2h5.4v1.3h-5.4v4.8h5.8V517.8z"/>
	<path class="st0" d="M203,517.8h-1.5V506h-4.2v-1.4h9.8v1.4H203V517.8z"/>
	<path class="st0" d="M219,504.7v8.5c0,1.5-0.5,2.7-1.4,3.5c-0.9,0.9-2.1,1.3-3.7,1.3c-1.6,0-2.8-0.4-3.7-1.3
		c-0.9-0.9-1.3-2-1.3-3.6v-8.4h1.5v8.6c0,1.1,0.3,1.9,0.9,2.5c0.6,0.6,1.5,0.9,2.6,0.9s2-0.3,2.6-0.9c0.6-0.6,0.9-1.4,0.9-2.5v-8.5
		h1.6L219,504.7L219,504.7z"/>
	<path class="st0" d="M224,512.4v5.5h-1.5v-13.1h3.6c1.6,0,2.8,0.3,3.6,0.9s1.2,1.5,1.2,2.8c0,1.7-0.9,2.9-2.6,3.5l3.6,5.9h-1.8
		l-3.2-5.5H224z M224,511h2.1c1.1,0,1.9-0.2,2.4-0.6s0.8-1.1,0.8-1.9c0-0.9-0.3-1.5-0.8-1.9s-1.3-0.6-2.5-0.6h-2V511z"/>
	<path class="st0" d="M244.1,517.8h-1.7l-7.2-11h-0.1c0.1,1.3,0.1,2.5,0.1,3.6v7.5h-1.4v-13.1h1.7l7.1,11h0.1c0-0.2,0-0.7-0.1-1.6
		c0-0.9-0.1-1.5,0-1.9v-7.5h1.4L244.1,517.8L244.1,517.8z"/>
	<path class="st0" d="M263.9,511.2c0,2.1-0.5,3.7-1.6,5c-1.1,1.2-2.5,1.8-4.4,1.8s-3.4-0.6-4.5-1.8s-1.6-2.8-1.6-5
		c0-2.1,0.5-3.8,1.6-5s2.5-1.8,4.5-1.8c1.9,0,3.4,0.6,4.4,1.8C263.3,507.5,263.9,509.1,263.9,511.2z M253.4,511.2
		c0,1.8,0.4,3.1,1.1,4c0.8,0.9,1.9,1.4,3.3,1.4c1.5,0,2.5-0.5,3.3-1.4c0.7-0.9,1.1-2.3,1.1-4c0-1.8-0.4-3.1-1.1-4s-1.8-1.4-3.3-1.4
		s-2.6,0.5-3.3,1.4C253.8,508.2,253.4,509.5,253.4,511.2z"/>
	<path class="st0" d="M268.3,517.8h-1.5v-13.1h7.3v1.4h-5.8v4.8h5.4v1.4h-5.4V517.8z"/>
	<path class="st0" d="M281,517.8v-13.1h1.5v13.1H281z"/>
	<path class="st0" d="M296.4,517.8h-1.7l-7.2-11h-0.1c0.1,1.3,0.1,2.5,0.1,3.6v7.5h-1.4v-13.1h1.7l7.1,11h0.1c0-0.2,0-0.7-0.1-1.6
		c0-0.9-0.1-1.5,0-1.9v-7.5h1.4v13L296.4,517.8L296.4,517.8z"/>
	<path class="st0" d="M307.5,504.7h1.6l-4.7,13.1h-1.5l-4.7-13.1h1.6l3,8.5c0.3,1,0.6,1.9,0.8,2.8c0.2-1,0.5-1.9,0.8-2.9
		L307.5,504.7z"/>
	<path class="st0" d="M318.2,517.8h-7.3v-13.1h7.3v1.4h-5.8v4.2h5.4v1.3h-5.4v4.8h5.8V517.8z"/>
	<path class="st0" d="M328.6,514.3c0,1.2-0.4,2.1-1.3,2.7c-0.8,0.6-2,1-3.4,1c-1.6,0-2.8-0.2-3.6-0.6v-1.5c0.5,0.2,1.1,0.4,1.8,0.5
		s1.3,0.2,1.9,0.2c1,0,1.8-0.2,2.3-0.6s0.8-0.9,0.8-1.6c0-0.5-0.1-0.8-0.3-1.1c-0.2-0.3-0.5-0.6-0.9-0.8s-1.1-0.5-2-0.8
		c-1.2-0.4-2.1-1-2.6-1.6s-0.8-1.4-0.8-2.3c0-1,0.4-1.8,1.1-2.4c0.8-0.6,1.8-0.9,3-0.9c1.3,0,2.5,0.2,3.6,0.7l-0.5,1.3
		c-1.1-0.5-2.1-0.7-3.2-0.7c-0.8,0-1.4,0.2-1.9,0.5s-0.7,0.8-0.7,1.4c0,0.5,0.1,0.8,0.3,1.1s0.5,0.6,0.8,0.8s1,0.5,1.8,0.8
		c1.4,0.5,2.3,1,2.8,1.6C328.3,512.7,328.6,513.4,328.6,514.3z"/>
	<path class="st0" d="M335.3,517.8h-1.5V506h-4.2v-1.4h9.8v1.4h-4.2v11.8H335.3z"/>
	<path class="st0" d="M347.2,517.8l-4.4-11.6h-0.1c0.1,0.9,0.1,2,0.1,3.3v8.3h-1.4v-13.1h2.3l4.2,10.8h0.1l4.2-10.8h2.3v13.1H353
		v-8.4c0-1,0-2,0.1-3.2H353l-4.5,11.6H347.2z"/>
	<path class="st0" d="M365.3,517.8H358v-13.1h7.3v1.4h-5.8v4.2h5.4v1.3h-5.4v4.8h5.8V517.8z"/>
	<path class="st0" d="M378.4,517.8h-1.7l-7.2-11h-0.1c0.1,1.3,0.1,2.5,0.1,3.6v7.5h-1.4v-13.1h1.7l7.1,11h0.1c0-0.2,0-0.7-0.1-1.6
		s-0.1-1.5,0-1.9v-7.5h1.4v13L378.4,517.8L378.4,517.8z"/>
	<path class="st0" d="M386.1,517.8h-1.5V506h-4.2v-1.4h9.8v1.4H386v11.8H386.1z"/>
</g>
<g>
	<path class="st0" d="M30.9,774.4l-1.6-4.2H24l-1.6,4.2h-1.5l5.2-13.2h1.3l5.2,13.2H30.9z M28.8,768.9l-1.5-4.1
		c-0.2-0.5-0.4-1.1-0.6-1.9c-0.1,0.6-0.3,1.2-0.6,1.9l-1.5,4.1H28.8z"/>
	<path class="st0" d="M41.8,761.3h1.6l-4.7,13.1h-1.5l-4.7-13.1h1.6l3,8.5c0.3,1,0.6,1.9,0.8,2.8c0.2-1,0.5-1.9,0.8-2.9L41.8,761.3z
		"/>
	<path class="st0" d="M52.5,774.4h-7.3v-13.1h7.3v1.4h-5.8v4.2h5.4v1.3h-5.4v4.8h5.8V774.4z"/>
	<path class="st0" d="M57,769v5.5h-1.5v-13.1H59c1.6,0,2.8,0.3,3.6,0.9c0.8,0.6,1.2,1.5,1.2,2.8c0,1.7-0.9,2.9-2.6,3.5l3.6,5.9H63
		l-3.2-5.5L57,769L57,769z M57,767.7h2c1.1,0,1.9-0.2,2.4-0.6c0.5-0.4,0.8-1.1,0.8-1.9c0-0.9-0.3-1.5-0.8-1.9s-1.3-0.6-2.5-0.6h-2
		L57,767.7L57,767.7z"/>
	<path class="st0" d="M75,774.4l-1.6-4.2h-5.3l-1.6,4.2H65l5.2-13.2h1.3l5.2,13.2H75z M72.9,768.9l-1.5-4.1
		c-0.2-0.5-0.4-1.1-0.6-1.9c-0.1,0.6-0.3,1.2-0.6,1.9l-1.5,4.1H72.9z"/>
	<path class="st0" d="M84.2,767.6h4.5v6.4c-0.7,0.2-1.4,0.4-2.1,0.5s-1.5,0.2-2.5,0.2c-2,0-3.5-0.6-4.6-1.8s-1.7-2.8-1.7-5
		c0-1.4,0.3-2.6,0.8-3.6s1.3-1.8,2.4-2.3s2.2-0.8,3.6-0.8s2.7,0.3,3.9,0.8l-0.6,1.3c-1.2-0.5-2.3-0.8-3.4-0.8
		c-1.6,0-2.8,0.5-3.7,1.4s-1.3,2.3-1.3,4c0,1.8,0.4,3.1,1.3,4s2.1,1.4,3.8,1.4c0.9,0,1.8-0.1,2.7-0.3v-4h-2.9v-1.4L84.2,767.6
		L84.2,767.6z"/>
	<path class="st0" d="M99.1,774.4h-7.3v-13.1h7.3v1.4h-5.8v4.2h5.4v1.3h-5.4v4.8h5.8V774.4z"/>
	<path class="st0" d="M110.8,774.4h-1.5v-11.8h-4.2v-1.4h9.8v1.4h-4.2L110.8,774.4L110.8,774.4z"/>
	<path class="st0" d="M116.9,774.4v-13.1h1.5v13.1H116.9z"/>
	<path class="st0" d="M127.7,762.5c-1.4,0-2.6,0.5-3.4,1.4c-0.8,1-1.3,2.3-1.3,3.9c0,1.7,0.4,3,1.2,4s2,1.4,3.4,1.4
		c0.9,0,2-0.2,3.1-0.5v1.3c-0.9,0.3-2,0.5-3.4,0.5c-1.9,0-3.4-0.6-4.5-1.8s-1.6-2.8-1.6-5c0-1.4,0.3-2.5,0.8-3.6s1.2-1.8,2.2-2.3
		s2.1-0.8,3.4-0.8c1.4,0,2.6,0.3,3.6,0.8l-0.6,1.3C129.7,762.7,128.7,762.5,127.7,762.5z"/>
	<path class="st0" d="M143.1,774.4h-1.8l-4.8-6.4l-1.4,1.2v5.1h-1.5v-13.1h1.5v6.5l5.9-6.5h1.8l-5.3,5.7L143.1,774.4z"/>
	<path class="st0" d="M152.2,774.4h-7.3v-13.1h7.3v1.4h-5.8v4.2h5.4v1.3h-5.4v4.8h5.8V774.4z"/>
	<path class="st0" d="M159.2,774.4h-1.5v-11.8h-4.2v-1.4h9.8v1.4h-4.2L159.2,774.4L159.2,774.4z"/>
</g>
<g>
	<path class="st0" d="M41.8,610.5h-1.5v-13.1h7.3v1.4h-5.8v4.8h5.4v1.4h-5.4V610.5z"/>
	<path class="st0" d="M51.3,605v5.5h-1.5v-13.1h3.6c1.6,0,2.8,0.3,3.6,0.9c0.8,0.6,1.2,1.5,1.2,2.8c0,1.7-0.9,2.9-2.6,3.5l3.6,5.9
		h-1.8L54,605H51.3z M51.3,603.7h2.1c1.1,0,1.9-0.2,2.4-0.6c0.5-0.4,0.8-1.1,0.8-1.9c0-0.9-0.3-1.5-0.8-1.9s-1.3-0.6-2.5-0.6h-2
		V603.7z"/>
	<path class="st0" d="M68.4,610.5h-7.3v-13.1h7.3v1.4h-5.8v4.2H68v1.3h-5.4v4.8h5.8V610.5z"/>
	<path class="st0" d="M82.7,603.9c0,1.7-0.3,3.1-1,4.2c-0.7,1.1-1.6,1.9-2.9,2.3l3.1,3.2h-2.2l-2.6-3h-0.5c-1.9,0-3.4-0.6-4.5-1.8
		s-1.6-2.8-1.6-5c0-2.1,0.5-3.8,1.6-5s2.5-1.8,4.5-1.8c1.9,0,3.4,0.6,4.4,1.8C82.2,600.2,82.7,601.8,82.7,603.9z M72.2,603.9
		c0,1.8,0.4,3.1,1.1,4c0.8,0.9,1.9,1.4,3.3,1.4c1.5,0,2.5-0.5,3.3-1.4c0.7-0.9,1.1-2.3,1.1-4c0-1.8-0.4-3.1-1.1-4s-1.8-1.4-3.3-1.4
		s-2.6,0.5-3.3,1.4C72.6,600.8,72.2,602.2,72.2,603.9z"/>
	<path class="st0" d="M95.5,597.4v8.5c0,1.5-0.5,2.7-1.4,3.5c-0.9,0.9-2.1,1.3-3.7,1.3s-2.8-0.4-3.7-1.3c-0.9-0.9-1.3-2-1.3-3.6
		v-8.4H87v8.6c0,1.1,0.3,1.9,0.9,2.5s1.5,0.9,2.6,0.9s2-0.3,2.6-0.9c0.6-0.6,0.9-1.4,0.9-2.5v-8.5L95.5,597.4L95.5,597.4z"/>
	<path class="st0" d="M106.3,610.5H99v-13.1h7.3v1.4h-5.8v4.2h5.4v1.3h-5.4v4.8h5.8V610.5z"/>
	<path class="st0" d="M119.4,610.5h-1.7l-7.2-11h-0.1c0.1,1.3,0.1,2.5,0.1,3.6v7.5h-1.4v-13.1h1.7l7.1,11h0.1c0-0.2,0-0.7-0.1-1.6
		c0-0.9-0.1-1.5,0-1.9v-7.5h1.4L119.4,610.5L119.4,610.5z"/>
	<path class="st0" d="M128.7,598.6c-1.4,0-2.6,0.5-3.4,1.4c-0.8,1-1.3,2.3-1.3,3.9c0,1.7,0.4,3,1.2,4s2,1.4,3.4,1.4
		c0.9,0,2-0.2,3.1-0.5v1.3c-0.9,0.3-2,0.5-3.4,0.5c-1.9,0-3.4-0.6-4.5-1.8s-1.6-2.8-1.6-5c0-1.4,0.3-2.5,0.8-3.6s1.2-1.8,2.2-2.3
		s2.1-0.8,3.4-0.8c1.4,0,2.6,0.3,3.6,0.8l-0.6,1.3C130.6,598.8,129.6,598.6,128.7,598.6z"/>
	<path class="st0" d="M138,603.9l3.5-6.6h1.6l-4.4,8v5.1h-1.5v-5l-4.4-8.1h1.7L138,603.9z"/>
</g>
<g>
	<path class="st0" d="M56.4,432.7v5.5h-1.5v-13.1h3.6c1.6,0,2.8,0.3,3.6,0.9s1.2,1.5,1.2,2.8c0,1.7-0.9,2.9-2.6,3.5l3.6,5.9h-1.8
		l-3.2-5.5L56.4,432.7L56.4,432.7z M56.4,431.4h2.1c1.1,0,1.9-0.2,2.4-0.6s0.8-1.1,0.8-1.9c0-0.9-0.3-1.5-0.8-1.9s-1.3-0.6-2.5-0.6
		h-2V431.4z"/>
	<path class="st0" d="M73.5,438.2h-7.3v-13.1h7.3v1.4h-5.8v4.2h5.4v1.3h-5.4v4.8h5.8V438.2z"/>
	<path class="st0" d="M82,426.2c-1.4,0-2.6,0.5-3.4,1.4c-0.8,1-1.3,2.3-1.3,3.9c0,1.7,0.4,3,1.2,4s2,1.4,3.4,1.4
		c0.9,0,2-0.2,3.1-0.5v1.3c-0.9,0.3-2,0.5-3.4,0.5c-1.9,0-3.4-0.6-4.5-1.8s-1.6-2.8-1.6-5c0-1.4,0.3-2.5,0.8-3.6s1.2-1.8,2.2-2.3
		s2.1-0.8,3.4-0.8c1.4,0,2.6,0.3,3.6,0.8l-0.6,1.3C84,426.5,83,426.2,82,426.2z"/>
	<path class="st0" d="M95.3,438.2H88v-13.1h7.3v1.4h-5.8v4.2h5.4v1.3h-5.4v4.8h5.8V438.2z"/>
	<path class="st0" d="M108.4,438.2h-1.7l-7.2-11h-0.1c0.1,1.3,0.1,2.5,0.1,3.6v7.5h-1.4v-13.1h1.7l7.1,11h0.1c0-0.2,0-0.7-0.1-1.6
		c0-0.9-0.1-1.5,0-1.9v-7.5h1.4L108.4,438.2L108.4,438.2z"/>
	<path class="st0" d="M117.7,426.2c-1.4,0-2.6,0.5-3.4,1.4c-0.8,1-1.3,2.3-1.3,3.9c0,1.7,0.4,3,1.2,4s2,1.4,3.4,1.4
		c0.9,0,2-0.2,3.1-0.5v1.3c-0.9,0.3-2,0.5-3.4,0.5c-1.9,0-3.4-0.6-4.5-1.8s-1.6-2.8-1.6-5c0-1.4,0.3-2.5,0.8-3.6s1.2-1.8,2.2-2.3
		s2.1-0.8,3.4-0.8c1.4,0,2.6,0.3,3.6,0.8l-0.6,1.3C119.7,426.5,118.7,426.2,117.7,426.2z"/>
	<path class="st0" d="M127,431.6l3.5-6.6h1.6l-4.4,8v5.1h-1.5v-5l-4.4-8.1h1.7L127,431.6z"/>
</g>
<g>
	<path class="st0" d="M737.9,506.1c0.1-0.4,0.4-0.7,0.7-0.9c0.3-0.3,0.5-0.4,0.9-0.5s0.7-0.3,1.1-0.3s0.8,0.1,1.1,0.3
		c0.4,0.1,0.7,0.4,0.9,0.5c0.3,0.3,0.4,0.5,0.7,0.9c0.1,0.4,0.3,0.7,0.3,1.1s-0.1,0.8-0.3,1.1c-0.1,0.4-0.4,0.7-0.7,0.9
		c-0.3,0.3-0.5,0.4-0.9,0.5s-0.7,0.3-1.1,0.3s-0.8-0.1-1.1-0.3c-0.4-0.1-0.7-0.4-0.9-0.5c-0.3-0.3-0.4-0.5-0.7-0.9
		c-0.1-0.4-0.3-0.7-0.3-1.1C737.8,506.8,737.8,506.4,737.9,506.1z M738.5,508.1c0.1,0.3,0.3,0.5,0.5,0.8c0.3,0.3,0.4,0.4,0.8,0.5
		c0.3,0.1,0.5,0.1,0.9,0.1c0.3,0,0.7,0,0.9-0.1c0.3-0.1,0.5-0.3,0.8-0.5c0.3-0.3,0.4-0.5,0.5-0.8s0.1-0.7,0.1-0.9
		c0-0.4,0-0.7-0.1-0.9c-0.1-0.3-0.3-0.5-0.5-0.8c-0.3-0.3-0.4-0.4-0.8-0.5c-0.3-0.1-0.5-0.1-0.9-0.1c-0.3,0-0.7,0-0.9,0.1
		c-0.3,0.1-0.5,0.3-0.8,0.5c-0.3,0.3-0.4,0.5-0.5,0.8s-0.1,0.7-0.1,0.9C738.2,507.6,738.3,507.9,738.5,508.1z M740.7,505.6
		c0.4,0,0.7,0.1,0.9,0.3c0.1,0.1,0.3,0.4,0.3,0.7c0,0.3-0.1,0.5-0.3,0.7c-0.1,0.1-0.4,0.3-0.7,0.3l0.9,1.5h-0.5l-0.9-1.5h-0.5v1.5
		h-0.5v-3.3L740.7,505.6L740.7,505.6z M740.6,507.1c0.1,0,0.3,0,0.3,0c0.1,0,0.1,0,0.3,0c0.1,0,0.1-0.1,0.1-0.1
		c0-0.1,0.1-0.1,0.1-0.3s0-0.1,0-0.3l-0.1-0.1c-0.1,0-0.1,0-0.3-0.1c-0.1,0-0.1,0-0.3,0H740v1.1h0.5L740.6,507.1L740.6,507.1z"/>
</g>
<g>
	<path class="st0" d="M223.6,55.3l-8.2-32.5h4.4l3.9,16.4c1,4.1,1.8,8.1,2.4,11.2h0.1c0.5-3.2,1.5-7.1,2.7-11.3l4.3-16.4h4.4l4,16.5
		c0.9,3.9,1.8,7.7,2.3,11.1h0.1c0.7-3.6,1.6-7.2,2.6-11.2l4.3-16.4h4.3L246,55.2h-4.4l-4.1-16.9c-1-4.1-1.7-7.3-2.1-10.6h-0.1
		c-0.6,3.2-1.3,6.4-2.5,10.6l-4.8,17H223.6z"/>
	<path class="st0" d="M280.8,40.1h-12.6v11.7h14.1v3.5H264V22.8h17.6v3.5h-13.4v10.3h12.6L280.8,40.1L280.8,40.1z"/>
	<path class="st0" d="M311.7,22.8v32.5h-4.2V22.8H311.7z"/>
	<path class="st0" d="M323.9,55.3V22.8h4.6l10.4,16.4c2.4,3.8,4.3,7.2,5.8,10.6h0.1c-0.4-4.3-0.5-8.3-0.5-13.4V22.8h4v32.5H344
		l-10.3-16.5c-2.3-3.6-4.4-7.3-6.1-10.8h-0.1c0.2,4.1,0.3,8,0.3,13.4v13.9C327.8,55.3,323.9,55.3,323.9,55.3z"/>
	<path class="st0" d="M383.1,54.3c-1.5,0.8-4.6,1.5-8.6,1.5c-9.2,0-16.1-5.8-16.1-16.4c0-10.2,6.9-17.1,17-17.1
		c4.1,0,6.6,0.9,7.7,1.4l-1,3.4c-1.6-0.8-3.9-1.4-6.6-1.4c-7.6,0-12.7,4.9-12.7,13.4c0,8,4.6,13.1,12.5,13.1c2.6,0,5.2-0.5,6.8-1.4
		L383.1,54.3z"/>
	<path class="st0" d="M393.2,23.2c2.1-0.4,5.2-0.7,8.1-0.7c4.5,0,7.4,0.8,9.4,2.7c1.6,1.4,2.6,3.7,2.6,6.2c0,4.3-2.7,7.1-6.1,8.3
		v0.1c2.5,0.9,4,3.2,4.8,6.6c1.1,4.5,1.8,7.7,2.5,8.9H410c-0.5-0.9-1.3-3.7-2.2-7.8c-1-4.5-2.7-6.2-6.5-6.3h-4v14.1h-4.2V23.2H393.2
		z M397.4,38.1h4.3c4.5,0,7.3-2.5,7.3-6.2c0-4.2-3-6-7.5-6.1c-2,0-3.5,0.2-4.1,0.4L397.4,38.1L397.4,38.1z"/>
	<path class="st0" d="M440.8,40.1h-12.6v11.7h14.1v3.5H424V22.8h17.6v3.5h-13.4v10.3h12.6L440.8,40.1L440.8,40.1z"/>
	<path class="st0" d="M457.8,45.1l-3.4,10.2h-4.3l11-32.5h5.1l11.1,32.5h-4.5l-3.5-10.2H457.8z M468.4,41.8l-3.2-9.4
		c-0.7-2.1-1.2-4-1.7-5.9h-0.1c-0.5,1.9-1,3.9-1.6,5.9l-3.2,9.4C458.6,41.8,468.4,41.8,468.4,41.8z"/>
	<path class="st0" d="M486.3,50.2c1.9,1.2,4.6,2.1,7.5,2.1c4.3,0,6.8-2.3,6.8-5.5c0-3-1.7-4.8-6.1-6.5c-5.3-1.9-8.6-4.6-8.6-9.2
		c0-5.1,4.2-8.8,10.5-8.8c3.3,0,5.7,0.8,7.2,1.6l-1.2,3.4c-1.1-0.6-3.2-1.5-6.2-1.5c-4.4,0-6.1,2.7-6.1,4.9c0,3,2,4.5,6.5,6.3
		c5.5,2.1,8.3,4.8,8.3,9.5c0,5-3.7,9.4-11.4,9.4c-3.1,0-6.6-0.9-8.3-2.1L486.3,50.2z"/>
	<path class="st0" d="M532.3,40.1h-12.6v11.7h14.1v3.5h-18.3V22.8H533v3.5h-13.4v10.3h12.6v3.5H532.3z"/>
</g>
<g>
	<path class="st0" d="M45.8,257.2c-1.5,0-2.7,0.5-3.5,1.5c-0.9,1-1.3,2.3-1.3,4.1c0,1.8,0.4,3.1,1.2,4.1c0.8,1,2,1.4,3.6,1.4
		c0.9,0,2-0.2,3.2-0.5v1.4c-0.9,0.4-2.1,0.5-3.5,0.5c-2,0-3.5-0.6-4.6-1.8c-1.1-1.2-1.6-2.9-1.6-5.2c0-1.4,0.3-2.6,0.8-3.7
		s1.3-1.9,2.3-2.4c1-0.6,2.1-0.9,3.5-0.9c1.4,0,2.7,0.3,3.7,0.8l-0.7,1.4C47.9,257.4,46.8,257.2,45.8,257.2z"/>
	<path class="st0" d="M61.7,256v8.8c0,1.5-0.5,2.8-1.4,3.6c-0.9,0.9-2.2,1.3-3.8,1.3c-1.6,0-2.9-0.4-3.8-1.3
		c-0.9-0.9-1.3-2.1-1.3-3.7V256h1.6v8.8c0,1.1,0.3,2,0.9,2.6s1.5,0.9,2.7,0.9c1.1,0,2-0.3,2.6-0.9c0.6-0.6,0.9-1.5,0.9-2.6V256H61.7
		z"/>
	<path class="st0" d="M72.5,265.9c0,1.2-0.4,2.1-1.3,2.8c-0.9,0.7-2,1-3.5,1c-1.6,0-2.8-0.2-3.7-0.6v-1.5c0.6,0.2,1.2,0.4,1.8,0.6
		s1.3,0.2,1.9,0.2c1.1,0,1.8-0.2,2.4-0.6c0.5-0.4,0.8-1,0.8-1.7c0-0.5-0.1-0.9-0.3-1.2c-0.2-0.3-0.5-0.6-0.9-0.8
		c-0.4-0.3-1.1-0.5-2-0.9c-1.3-0.5-2.2-1-2.7-1.6s-0.8-1.4-0.8-2.4c0-1,0.4-1.9,1.2-2.5c0.8-0.6,1.8-0.9,3.1-0.9
		c1.3,0,2.6,0.2,3.7,0.7l-0.5,1.4c-1.1-0.5-2.2-0.7-3.3-0.7c-0.8,0-1.5,0.2-2,0.5c-0.5,0.4-0.7,0.9-0.7,1.5c0,0.5,0.1,0.9,0.3,1.2
		c0.2,0.3,0.5,0.6,0.9,0.8c0.4,0.3,1,0.5,1.9,0.8c1.4,0.5,2.4,1.1,2.9,1.6C72.2,264.2,72.5,265,72.5,265.9z"/>
	<path class="st0" d="M79,269.5h-1.6v-12.1h-4.3V256h10.2v1.4H79V269.5z"/>
	<path class="st0" d="M96.6,262.7c0,2.2-0.5,3.9-1.6,5.1c-1.1,1.2-2.6,1.9-4.6,1.9c-2,0-3.5-0.6-4.6-1.8c-1.1-1.2-1.6-2.9-1.6-5.2
		c0-2.2,0.5-3.9,1.6-5.1c1.1-1.2,2.6-1.8,4.6-1.8c1.9,0,3.5,0.6,4.6,1.9S96.6,260.5,96.6,262.7z M85.8,262.7c0,1.8,0.4,3.2,1.2,4.2
		s1.9,1.4,3.4,1.4c1.5,0,2.6-0.5,3.4-1.4c0.8-0.9,1.1-2.3,1.1-4.2c0-1.8-0.4-3.2-1.1-4.1c-0.8-0.9-1.9-1.4-3.4-1.4
		c-1.5,0-2.6,0.5-3.4,1.4S85.8,260.9,85.8,262.7z"/>
	<path class="st0" d="M105.1,269.5l-4.6-12h-0.1c0.1,1,0.1,2.1,0.1,3.4v8.6h-1.5V256h2.4l4.3,11.2h0.1l4.3-11.2h2.4v13.5H111v-8.7
		c0-1,0-2.1,0.1-3.3H111l-4.6,12H105.1z"/>
	<path class="st0" d="M123.3,269.5h-7.6V256h7.6v1.4h-6v4.4h5.6v1.4h-5.6v5h6V269.5z"/>
	<path class="st0" d="M127.4,263.9v5.6h-1.6V256h3.7c1.7,0,2.9,0.3,3.7,1s1.2,1.6,1.2,2.9c0,1.8-0.9,3-2.7,3.6l3.7,6.1h-1.9
		l-3.3-5.6H127.4z M127.4,262.5h2.2c1.1,0,1.9-0.2,2.4-0.7c0.5-0.4,0.8-1.1,0.8-2c0-0.9-0.3-1.5-0.8-1.9c-0.5-0.4-1.4-0.6-2.5-0.6
		h-2V262.5z"/>
	<path class="st0" d="M144.7,265.9c0,1.2-0.4,2.1-1.3,2.8c-0.9,0.7-2,1-3.5,1c-1.6,0-2.8-0.2-3.7-0.6v-1.5c0.6,0.2,1.2,0.4,1.8,0.6
		s1.3,0.2,1.9,0.2c1.1,0,1.8-0.2,2.4-0.6c0.5-0.4,0.8-1,0.8-1.7c0-0.5-0.1-0.9-0.3-1.2c-0.2-0.3-0.5-0.6-0.9-0.8
		c-0.4-0.3-1.1-0.5-2-0.9c-1.3-0.5-2.2-1-2.7-1.6s-0.8-1.4-0.8-2.4c0-1,0.4-1.9,1.2-2.5c0.8-0.6,1.8-0.9,3.1-0.9
		c1.3,0,2.6,0.2,3.7,0.7l-0.5,1.4c-1.1-0.5-2.2-0.7-3.3-0.7c-0.8,0-1.5,0.2-2,0.5c-0.5,0.4-0.7,0.9-0.7,1.5c0,0.5,0.1,0.9,0.3,1.2
		c0.2,0.3,0.5,0.6,0.9,0.8c0.4,0.3,1,0.5,1.9,0.8c1.4,0.5,2.4,1.1,2.9,1.6C144.5,264.2,144.7,265,144.7,265.9z"/>
</g>
</svg>
