<?xml version="1.0" encoding="utf-8"?>
<!-- Generator: Adobe Illustrator 24.0.3, SVG Export Plug-In . SVG Version: 6.00 Build 0)  -->
<svg version="1.1" id="Capa_1" xmlns="http://www.w3.org/2000/svg" xmlns:xlink="http://www.w3.org/1999/xlink" x="0px" y="0px"
	 viewBox="0 0 400 400" style="enable-background:new 0 0 400 400;" xml:space="preserve">
<style type="text/css">
	.st0{clip-path:url(#SVGID_2_);}
	.st1{fill:#121D3F;}
	.st2{fill:#84B4E1;}
	.st3{fill:#FFFFFF;}
</style>
<g>
	<defs>
		<rect id="SVGID_1_" width="400" height="400"/>
	</defs>
	<clipPath id="SVGID_2_">
		<use xlink:href="#SVGID_1_"  style="overflow:visible;"/>
	</clipPath>
	<g class="st0">
		<path class="st1" d="M200,400C89.5,400,0,310.5,0,200C0,89.5,89.5,0,200,0c110.5,0,200,89.5,200,200C400,310.5,310.5,400,200,400z
			"/>
		<path class="st2" d="M200,381.7C99.6,381.7,18.3,300.4,18.3,200C18.3,99.7,99.6,18.4,200,18.4c100.3,0,181.7,81.3,181.7,181.7
			C381.6,300.4,300.3,381.7,200,381.7L200,381.7z"/>
		<path class="st1" d="M200,371.5c-94.7,0-171.5-76.8-171.5-171.5c0-94.7,76.8-171.5,171.5-171.5c94.7,0,171.5,76.8,171.5,171.5
			C371.5,294.8,294.7,371.5,200,371.5L200,371.5z"/>
		<path class="st3" d="M127.1,115.4h91.2c16.7,0,29.5,4.1,38.4,12.4c8.9,8.3,13.4,18.5,13.4,30.7c0,10.2-3.2,19-9.6,26.3
			c-2.8,3.2-7.4,7-11.9,9.3c6.1,2,14.9,6.8,20.7,14.1c5.9,7.3,8.8,20.1,8.8,31.1c0,9-2.1,17-6.3,24.2c-4.2,7.2-9.9,12.8-17.1,17
			c-4.5,2.6-11.3,4.5-20.3,5.7c-12,1.6-20,2.4-24,2.4h-83.4L127.1,115.4z M172.1,183.3h31.2c8.3,0,14.2-1.4,17.4-4.3
			c3.3-2.9,4.9-7,4.9-12.5c0-5-1.6-9-4.9-11.8c-3.3-2.8-9-4.3-17.1-4.3h-31.5L172.1,183.3z M172.1,251.4h35.3
			c9.2,0,15.7-1.6,19.5-4.9c3.5-3,5.7-8.9,5.7-13.6c0-4.8-1.9-11.8-5.6-14.9c-3.7-3.1-10.3-4.7-19.7-4.7h-35.2L172.1,251.4z"/>
		<g>
			<path class="st1" d="M379.8,364.8c3.7,0.1,7.3,1.9,9.6,5c0,0,5.3,9,0,16c-3.5,4.6-10.2,6.2-15.4,3.7c-4.9-2.4-8.1-8.3-6.9-14.3
				c0,0,0.4-1.8,1-3c2-4.3,6.4-7.2,11.1-7.4C379.5,364.8,379.5,364.8,379.8,364.8L379.8,364.8z M379.3,367.7
				c-4.3,0.2-8.1,3.3-9.3,7.6c-0.3,1.2,0.1,5.5,0.1,5.5c1.9,5.6,8.5,8.6,13.6,6.1C391.2,383.2,391.7,367.5,379.3,367.7z"/>
			<path class="st1" d="M375,383.1h2.4v-4.4h2.4c1.2,0,1.6,0.5,1.8,1.7c0.1,0.9,0.1,2,0.4,2.7h2.4c-0.4-0.6-0.4-1.9-0.5-2.6
				c-0.1-1.1-0.4-2.3-1.6-2.6v0c1.2-0.5,1.7-1.5,1.7-2.8c0-1.7-1.2-3.1-3.2-3.1H375L375,383.1z M377.4,373.9h2.6
				c1.1,0,1.6,0.5,1.6,1.5c0,1.1-0.6,1.6-1.6,1.6h-2.6V373.9z"/>
		</g>
	</g>
</g>
</svg>
