<svg id="Capa_1" data-name="Capa 1" xmlns="http://www.w3.org/2000/svg" viewBox="0 0 250 250"><defs><style>.cls-1{fill:#e6e7e8;}.cls-2{fill:#95b6e5;}.cls-3{fill:#d62f8a;}.cls-4{fill:#0a1e3f;}.cls-5{fill:#a3c771;}</style></defs><circle class="cls-1" cx="125" cy="125" r="117.37"/><path class="cls-2" d="M176.9,71.39H73.12A1.62,1.62,0,0,0,71.48,73v96.66a1.63,1.63,0,0,0,1.64,1.65h59.62a1.62,1.62,0,1,0,0-3.24h-58V90.87H175.26V168.1H172a1.62,1.62,0,1,0,0,3.24h4.87a1.63,1.63,0,0,0,1.62-1.65V73A1.62,1.62,0,0,0,176.9,71.39ZM74.74,87.63v-13H175.26v13Z"/><path class="cls-3" d="M167.23,80a1.51,1.51,0,0,0-.48,1.16,1.54,1.54,0,0,0,.48,1.1,1.69,1.69,0,0,0,1.14.49,1.72,1.72,0,0,0,1.15-.49,1.51,1.51,0,0,0,.49-1.1,1.49,1.49,0,0,0-.49-1.16A1.62,1.62,0,0,0,167.23,80Z"/><path class="cls-3" d="M159.45,79.49a1.64,1.64,0,1,0,1.63,1.64A1.62,1.62,0,0,0,159.45,79.49Z"/><path class="cls-3" d="M149.39,80a1.48,1.48,0,0,0-.48,1.11,1.57,1.57,0,0,0,.48,1.15,1.71,1.71,0,0,0,1.14.49,1.64,1.64,0,0,0,1.15-.49,1.54,1.54,0,0,0,.49-1.15,1.46,1.46,0,0,0-.49-1.11A1.62,1.62,0,0,0,149.39,80Z"/><path class="cls-4" d="M145,145.88l-.19-.15c-.05,0-.07-.1-.15-.14h-.11l-.32-.15c-.09,0-.19,0-.29,0h-.31a2.46,2.46,0,0,0-.29.09c-.1,0-.2.1-.29.1a.74.74,0,0,1-.27.19c0,.05-.07.05-.09.1a1.74,1.74,0,0,1-.12.14s-.1.1-.12.15a26.92,26.92,0,1,1-29.95-39.68,1.63,1.63,0,0,0,1.19-2,1.61,1.61,0,0,0-2-1.16,30.15,30.15,0,1,0,21.65,55.84l17.23,17.21a7.59,7.59,0,0,0,10.71,0l1.76-1.74a7.58,7.58,0,0,0,2.22-5.35,7.7,7.7,0,0,0-2.22-5.4Z"/><path class="cls-4" d="M106.63,119.94a18,18,0,0,1,4.29-3.13,1.64,1.64,0,0,0-1.52-2.9,22.87,22.87,0,0,0-5.06,3.72,21.09,21.09,0,0,0,28,31.43,1.62,1.62,0,0,0,.26-2.27,1.66,1.66,0,0,0-2.29-.29,17.83,17.83,0,0,1-23.72-26.56Z"/><path class="cls-5" d="M138.55,144.53h.07a1.37,1.37,0,0,0,.58.14h0a1.34,1.34,0,0,0,.58-.14h.07l22.61-10.13a1.6,1.6,0,0,0,1-1.49V109.33a2.1,2.1,0,0,0,0-.43s0-.05-.05-.05a.74.74,0,0,0-.14-.34l-.05-.1c-.1-.09-.14-.19-.22-.23l-.12-.1s-.07,0-.1-.1a.19.19,0,0,1-.09,0c-.1,0-.1,0-.15,0L139.87,97.76a1.6,1.6,0,0,0-1.32,0l-22.61,10.13s0,0-.1,0-.07,0-.12,0-.08,0-.1.1-.09.1-.14.1l-.17.19a.33.33,0,0,0-.1.14c0,.1-.09.2-.12.29s0,0,0,.15a1,1,0,0,0-.07.38v23.58a1.65,1.65,0,0,0,1,1.49Zm-20.32-12.64v-20l6.84,3.09,12.51,5.59v20Zm42,0-19.38,8.63v-20l19.38-8.68Zm-21-14.22-8-3.56,18.66-8.3,8,3.52Zm0-16.63,6.7,3-18.63,8.29-6.68-3Z"/></svg>