<svg id="Capa_1" data-name="Capa 1" xmlns="http://www.w3.org/2000/svg" viewBox="0 0 250 250"><defs><style>.cls-1{fill:#e6e7e8;}.cls-2{fill:#a3c771;}.cls-3{fill:#95b6e5;}.cls-4{fill:#7d2796;}.cls-5{fill:#f17533;}.cls-6{fill:#0a1e3f;}</style></defs><circle class="cls-1" cx="125" cy="125" r="117.37"/><path class="cls-2" d="M103.71,146.31a30.11,30.11,0,0,1,19.78-51.38V78.34A46.69,46.69,0,0,0,92,158a45.77,45.77,0,0,0,15,10.06l5.92-15.52A30,30,0,0,1,103.71,146.31Z"/><path class="cls-3" d="M146.29,146.31a30,30,0,0,1-21.28,8.8,31.73,31.73,0,0,1-9.32-1.47l-5.93,15.51A47,47,0,0,0,125,171.7a46.71,46.71,0,0,0,46.66-45.21H155A30,30,0,0,1,146.29,146.31Z"/><path class="cls-4" d="M152.82,87.46a46.58,46.58,0,0,0-26.31-9.12V94.93a29.31,29.31,0,0,1,16,5.59Z"/><path class="cls-5" d="M155.17,89.34,144.86,102.4a14.24,14.24,0,0,1,1.43,1.29A30,30,0,0,1,155,123.5h16.64A46.3,46.3,0,0,0,158,92C157.09,91,156.15,90.19,155.17,89.34Z"/><path class="cls-6" d="M155.9,86.08s0,0,0,0a.08.08,0,0,1-.07,0,49.54,49.54,0,1,0,4.33,3.84A50,50,0,0,0,155.9,86.08Zm-29.39-7.74a46.58,46.58,0,0,1,26.31,9.12l-10.33,13.06a29.31,29.31,0,0,0-16-5.59Zm17.66,27.5a27.06,27.06,0,1,1-19.16-8A27.1,27.1,0,0,1,144.17,105.84ZM92,158a46.68,46.68,0,0,1,31.5-79.68V94.93a30.1,30.1,0,0,0-10.62,57.63L107,168.08A45.77,45.77,0,0,1,92,158Zm66,0a46.36,46.36,0,0,1-33,13.68,47,47,0,0,1-15.25-2.55l5.93-15.51a31.73,31.73,0,0,0,9.32,1.47,30,30,0,0,0,30-28.62h16.64A46.4,46.4,0,0,1,158,158Zm-3-34.52a30,30,0,0,0-8.74-19.81,14.24,14.24,0,0,0-1.43-1.29l10.31-13.06c1,.85,1.92,1.7,2.84,2.64a46.3,46.3,0,0,1,13.66,31.52Z"/></svg>