<svg id="Capa_1" data-name="Capa 1" xmlns="http://www.w3.org/2000/svg" viewBox="0 0 250 250"><defs><style>.cls-1{fill:#e6e7e8;}.cls-2{fill:#95b6e5;}.cls-3{fill:#0a1e3f;}</style></defs><circle class="cls-1" cx="125" cy="125" r="117.37"/><path class="cls-2" d="M171.26,168.67v-50.9a9.15,9.15,0,0,0-9.11-9.17H87.85a9.15,9.15,0,0,0-9.11,9.17v50.9a9.15,9.15,0,0,0,9.11,9.17h74.3A9.15,9.15,0,0,0,171.26,168.67Zm-87,0v-50.9a3.62,3.62,0,0,1,3.58-3.64h74.3a3.61,3.61,0,0,1,3.58,3.64v50.9a3.62,3.62,0,0,1-3.58,3.65H87.85A3.62,3.62,0,0,1,84.27,168.67Z"/><path class="cls-3" d="M119.37,130.32A11.62,11.62,0,1,0,107.82,142,11.67,11.67,0,0,0,119.37,130.32Zm-11.55,4.94a5,5,0,1,1,4.87-4.94A5,5,0,0,1,107.82,135.26Z"/><path class="cls-3" d="M153.87,130.32A11.62,11.62,0,1,0,142.32,142,11.67,11.67,0,0,0,153.87,130.32Zm-11.55,4.94a5,5,0,1,1,4.86-4.94A5,5,0,0,1,142.32,135.26Z"/><path class="cls-2" d="M134.75,82.69a9.75,9.75,0,1,0-9.69,9.75A9.8,9.8,0,0,0,134.75,82.69Zm-9.69,4.15a4.21,4.21,0,1,1,4.08-4.15A4.18,4.18,0,0,1,125.06,86.84Z"/><path class="cls-3" d="M138,153.08a2.75,2.75,0,0,0-3.77,1,10.57,10.57,0,0,1-9.25,5.36h0a10.43,10.43,0,0,1-9.13-5.35,2.76,2.76,0,1,0-4.8,2.72A15.86,15.86,0,0,0,124.91,165h0a16,16,0,0,0,14-8.14A2.75,2.75,0,0,0,138,153.08Z"/><rect class="cls-2" x="121.52" y="90.77" width="6.97" height="19.37"/><path class="cls-2" d="M169.7,125.45a20,20,0,0,0-4,.41v6.36a12.42,12.42,0,0,1,4-.68c6.53,0,11.84,5.57,11.84,12.42a11.87,11.87,0,0,1-15.86,11.41v6.38a20,20,0,0,0,4,.4c10.39,0,18.84-8.18,18.84-18.24A18.67,18.67,0,0,0,169.7,125.45Z"/><path class="cls-2" d="M80.3,162.15a19.23,19.23,0,0,0,4-.41v-6.36a12.16,12.16,0,0,1-4,.68c-6.53,0-11.84-5.57-11.84-12.42a11.87,11.87,0,0,1,15.86-11.41v-6.38a20,20,0,0,0-4-.4c-10.39,0-18.84,8.18-18.84,18.24A18.67,18.67,0,0,0,80.3,162.15Z"/></svg>