<svg id="Capa_1" data-name="Capa 1" xmlns="http://www.w3.org/2000/svg" viewBox="0 0 250 250"><defs><style>.cls-1{fill:#e6e7e8;}.cls-2{fill:#6d2e87;}.cls-3{fill:silver;}</style></defs><circle class="cls-1" cx="125" cy="125" r="117.37"/><path class="cls-2" d="M111.51,194.57c4.09.17,8.57.28,13.49.28s9.4-.11,13.49-.28V105.26c-4.09-.18-8.57-.29-13.49-.29s-9.4.11-13.49.29Z"/><path class="cls-2" d="M70.51,119.85V180a11.21,11.21,0,0,0,11.2,11.19s8,2,23.83,3.07V105.59c-15.81,1-23.83,3.07-23.83,3.07A11.21,11.21,0,0,0,70.51,119.85Zm97.78-11.19s-8-2-23.8-3.07v88.65c15.79-1.05,23.8-3.07,23.8-3.07A11.19,11.19,0,0,0,179.49,180V119.85A11.19,11.19,0,0,0,168.29,108.66Z"/><path class="cls-2" d="M106.23,55.41c-7.8-2.92-28.63,18.94-25.8,27.48s23,18.26,23,18.26l17.42-1.44S114,58.36,106.23,55.41ZM93.09,85.76c-1.39-4.18,8.82-14.9,12.63-13.46S112.9,94,112.9,94l-8.54.71S94.48,90,93.09,85.76Z"/><path class="cls-2" d="M129.13,99.71l17.43,1.44s20.18-9.73,23-18.26-18-30.4-25.8-27.48S129.13,99.71,129.13,99.71Zm16.51-5L137.11,94s3.35-20.26,7.17-21.7,14.05,9.28,12.63,13.46S145.64,94.71,145.64,94.71Z"/><path class="cls-3" d="M153,146.9a13,13,0,0,0-12,7.62,13,13,0,0,0-12-7.62c-7.2,0-13,5.48-13,12.26,0,16.9,25.06,28.47,25.06,28.47S166,175.37,166,159.16C166,152.38,160.18,146.9,153,146.9Z"/></svg>