<svg id="Capa_1" data-name="Capa 1" xmlns="http://www.w3.org/2000/svg" viewBox="0 0 250 250"><defs><style>.cls-1{fill:#e6e7e8;}.cls-2{fill:#e68f47;}</style></defs><circle class="cls-1" cx="125" cy="125" r="117.37"/><polygon class="cls-2" points="73.13 169.78 82.33 178.83 110.53 172.24 106.24 158.59 95.2 155.83 93.06 144.49 80.49 140.04 73.13 169.78"/><polygon class="cls-2" points="71.59 173.62 68.99 182.97 78.5 180.97 71.59 173.62"/><path class="cls-2" d="M82.79,136.83l44.45-44.46,32.92,32.35-46.41,45.21-4.14-14.87-10.88-2.45s-2.3-11.34-2.91-11.49S82.79,136.83,82.79,136.83Z"/><path class="cls-2" d="M165.87,86.58c-1.34-1.37-4.62-.31-7.35,2.36s-3.83,5.94-2.49,7.31,4.63.28,7.34-2.38S167.2,87.93,165.87,86.58Z"/><path class="cls-2" d="M164.59,71.69c4.88,5,6.48,7.34,2.77,11l2.42,2.47c6.55-6.44,1.19-11.89-2.72-15.88-4.87-5-6.49-7.33-2.77-11l-2.42-2.46C155.33,62.26,160.7,67.72,164.59,71.69Z"/><path class="cls-2" d="M173.05,88.47a10.1,10.1,0,0,1-1.92,2.61l-10.68,10.5c-3,3-7.22,3.65-10,1.88,0,0,0,.09-.08.14L141.77,112a1.27,1.27,0,1,1-1.79-1.81l8.59-8.44s.1-.06.13-.09c-1.71-2.81-.94-7,2.07-10l10.69-10.51a10.17,10.17,0,0,1,2.63-1.86,22.24,22.24,0,0,0-26.9,3.14l-31.62,31.37a22.28,22.28,0,0,0-.28,31.42l1.1,1.12a22.28,22.28,0,0,0,31.42.28l31.62-31.37A22.26,22.26,0,0,0,173.05,88.47Z"/></svg>