<svg id="Capa_1" data-name="Capa 1" xmlns="http://www.w3.org/2000/svg" viewBox="0 0 250 250"><defs><style>.cls-1{fill:#e6e7e8;}.cls-2{fill:#f17533;fill-rule:evenodd;}</style></defs><circle class="cls-1" cx="125" cy="125" r="117.37"/><path class="cls-2" d="M194.3,125.29A43.33,43.33,0,0,1,151,168.63H99V186L64.29,160,99,134V151.3h52a26,26,0,0,0,24.2-35.5l14.2-10.63A43.14,43.14,0,0,1,194.3,125.29ZM151,99.29H99a26,26,0,0,0-24.21,35.5L60.56,145.43A43.38,43.38,0,0,1,99,82h52V64.64l34.68,26-34.68,26Z"/></svg>