<svg id="Capa_1" data-name="Capa 1" xmlns="http://www.w3.org/2000/svg" viewBox="0 0 250 250"><defs><style>.cls-1{fill:#e6e7e8;}.cls-2{fill:#d62f8a;}</style></defs><circle class="cls-1" cx="125" cy="125" r="117.37"/><path class="cls-2" d="M124.63,146.41l-38-31.36h75.94Zm-38-23.52v54.9h75.94v-54.9l-38,31.36Z"/><path class="cls-2" d="M51.75,113.58l0,0,27.3,0a3.93,3.93,0,0,0,3.9-3.89l0-12.6c0-4.89,5.35-5.87,16.32-7,7.25-.75,45.68-1,54.62,0,6.28.65,12.39,1.82,12.38,6.95,0,0,0,12.59,0,12.61l0,0a3.88,3.88,0,0,0,3.89,3.88h0s28.1-.05,28.12,0a3.92,3.92,0,0,0,3.89-3.91l0-12.63C201.5,91,185,72.21,123.88,72.21c-62.52,0-76.06,19-75.95,24.88,0,0-.09,12.59-.08,12.58v0A3.91,3.91,0,0,0,51.75,113.58Z"/></svg>