<svg id="Capa_1" data-name="Capa 1" xmlns="http://www.w3.org/2000/svg" viewBox="0 0 250 250"><defs><style>.cls-1{fill:#e6e7e8;}.cls-2{fill:#6d2e87;}</style></defs><circle class="cls-1" cx="125" cy="125" r="117.37"/><path class="cls-2" d="M195,87.06h-7.11l-2.86,12.18H94.79L90,69.55c-.39-2.72-3.08-5.84-5.84-5.84h-26a2.93,2.93,0,1,0,0,5.84H78.29c4,0,5.29,2,5.84,5.83L95.8,157.11h87.57v-5.84H101.64L100,139.59h83.39Zm-20.43,81.72a8.76,8.76,0,1,0,8.76,8.75A8.77,8.77,0,0,0,174.61,168.78Zm-70.05,0a8.76,8.76,0,1,0,8.75,8.75A8.77,8.77,0,0,0,104.56,168.78Z"/></svg>