<svg id="Capa_1" data-name="Capa 1" xmlns="http://www.w3.org/2000/svg" viewBox="0 0 250 250"><defs><style>.cls-1{fill:#e6e7e8;}.cls-2{isolation:isolate;}.cls-3{fill:#d62f8a;}.cls-4{fill:#7d2796;}.cls-5{fill:#96c061;}.cls-6{fill:#f17533;}.cls-7{fill:#0a1e3f;}.cls-8{fill:#95b6e5;}</style></defs><circle class="cls-1" cx="125" cy="125" r="117.37"/><g id="g6675" class="cls-2"><g id="rect5117"><path class="cls-3" d="M132.53,113.42a1.12,1.12,0,0,1-.44-.09,1.15,1.15,0,0,1-.72-1.07V105.7h-1.93a7.35,7.35,0,0,1-7.34-7.34V70.57a7.35,7.35,0,0,1,7.34-7.34h34a7.34,7.34,0,0,1,7.34,7.34V98.36a7.34,7.34,0,0,1-7.34,7.34H140.73l-7.38,7.38A1.17,1.17,0,0,1,132.53,113.42Z"/></g><g id="path5126"><circle class="cls-4" cx="135.62" cy="84.46" r="2.32"/></g><g id="circle5128"><circle class="cls-5" cx="146.43" cy="84.46" r="2.32"/></g><g id="circle5130"><circle class="cls-6" cx="157.24" cy="84.46" r="2.32"/></g></g><g id="g6885" class="cls-2"><path class="cls-7" d="M110.35,120.14l5.58-4.12,5.58,4.12a1.15,1.15,0,0,0,1.62-.24,1.16,1.16,0,0,0-.24-1.62l-6.27-4.64a1.17,1.17,0,0,0-1.38,0L109,118.28a1.16,1.16,0,0,0,1.38,1.86Z"/><path class="cls-7" d="M152.57,140.56h0a1.56,1.56,0,0,0-.17-.37s0,0,0,0l0,0a1.2,1.2,0,0,0-.23-.22l-4.63-3.43a1.16,1.16,0,1,0-1.37,1.87l3.37,2.49-33.57,24.81L82.36,140.83l3.37-2.49a1.16,1.16,0,1,0-1.37-1.87l-4.64,3.43a1.15,1.15,0,0,0-.22.22l0,0,0,0a1,1,0,0,0-.17.37h0a1.24,1.24,0,0,0,0,.27V181A5.8,5.8,0,0,0,85,186.77h61.77A5.79,5.79,0,0,0,152.6,181V140.83A1.24,1.24,0,0,0,152.57,140.56Z"/><g id="path6777"><path class="cls-8" d="M142.18,143.53a1.16,1.16,0,0,1-1.16-1.16V125H90.83v17.37a1.16,1.16,0,1,1-2.31,0V123.84a1.16,1.16,0,0,1,1.16-1.16h52.5a1.16,1.16,0,0,1,1.16,1.16v18.53A1.16,1.16,0,0,1,142.18,143.53Z"/></g><g id="path6811"><path class="cls-8" d="M125.19,155.88H106.66a1.16,1.16,0,1,1,0-2.31h18.53a1.16,1.16,0,1,1,0,2.31Zm9.27-7.72H97.4a1.16,1.16,0,1,1,0-2.31h37.06a1.16,1.16,0,1,1,0,2.31Zm0-7.72H97.4a1.16,1.16,0,1,1,0-2.31h37.06a1.16,1.16,0,1,1,0,2.31Zm0-7.72H97.4a1.16,1.16,0,0,1,0-2.32h37.06a1.16,1.16,0,1,1,0,2.32Z"/></g></g></svg>