<svg id="Capa_1" data-name="Capa 1" xmlns="http://www.w3.org/2000/svg" xmlns:xlink="http://www.w3.org/1999/xlink" viewBox="0 0 250 250"><defs><style>.cls-1{fill:none;clip-rule:evenodd;}.cls-2{fill:#e6e7e8;}.cls-3{clip-path:url(#clip-path);}.cls-4{fill:#4a77b8;}.cls-5{clip-path:url(#clip-path-2);}.cls-6{fill:#61b36d;}.cls-7{clip-path:url(#clip-path-3);}.cls-8{fill:#f1c848;}.cls-9{clip-path:url(#clip-path-4);}.cls-10{fill:#db5740;}</style><clipPath id="clip-path"><path class="cls-1" d="M181.87,126.32a66.26,66.26,0,0,0-1.06-11.87H126.16V136.9h31.23a26.71,26.71,0,0,1-11.58,17.51V169h18.75c11-10.1,17.31-25,17.31-42.65Zm0,0"/></clipPath><clipPath id="clip-path-2"><path class="cls-1" d="M126.16,183c15.67,0,28.8-5.2,38.4-14.06l-18.75-14.56A34.89,34.89,0,0,1,126.16,160c-15.11,0-27.91-10.21-32.47-23.92H74.31v15a58,58,0,0,0,51.85,32Zm0,0"/></clipPath><clipPath id="clip-path-3"><path class="cls-1" d="M93.69,136a34.33,34.33,0,0,1,0-22.06v-15H74.31a58,58,0,0,0,0,52.12l19.38-15Zm0,0"/></clipPath><clipPath id="clip-path-4"><path class="cls-1" d="M126.16,90.05a31.34,31.34,0,0,1,22.18,8.68L165,82.09A55.76,55.76,0,0,0,126.16,67a58,58,0,0,0-51.85,32l19.38,15c4.56-13.71,17.36-23.92,32.47-23.92Zm0,0"/></clipPath></defs><circle class="cls-2" cx="125" cy="125" r="117.37"/><g class="cls-3"><rect class="cls-4" x="93.92" y="82.21" width="120.18" height="118.99"/></g><g class="cls-5"><rect class="cls-6" x="42.07" y="103.79" width="154.73" height="111.48"/></g><g class="cls-7"><rect class="cls-8" x="35.9" y="66.7" width="90.03" height="116.59"/></g><g class="cls-9"><rect class="cls-10" x="42.07" y="34.74" width="155.15" height="111.48"/></g></svg>