<svg id="Capa_1" data-name="Capa 1" xmlns="http://www.w3.org/2000/svg" viewBox="0 0 250 250"><defs><style>.cls-1{fill:#e6e7e8;}.cls-2{fill:#284470;}.cls-3{fill:#525254;}.cls-4{fill:#aecae7;fill-rule:evenodd;}</style></defs><circle class="cls-1" cx="125" cy="125" r="117.37"/><path class="cls-2" d="M91.83,158.14H89.19v6.22c0,3.28-3.14,4.51-6.23,4.51s-6.22-1.23-6.22-4.51v-6.22H74.11A3.71,3.71,0,0,0,70.53,162V176.1a3.69,3.69,0,0,0,3.58,3.81H91.83a3.7,3.7,0,0,0,3.58-3.81V162A3.72,3.72,0,0,0,91.83,158.14Z"/><path class="cls-3" d="M141.65,99.23v21.58H104.33V99.23h37.32m2.4-6.21H101.93a3.9,3.9,0,0,0-3.82,4v26.08a3.89,3.89,0,0,0,3.82,4h42.12a3.88,3.88,0,0,0,3.82-4V97a3.89,3.89,0,0,0-3.82-4Z"/><path class="cls-2" d="M131.85,158.14h-2.63v6.22c0,3.28-3.15,4.51-6.23,4.51s-6.21-1.23-6.21-4.51v-6.22h-2.64a3.72,3.72,0,0,0-3.59,3.82v21.72a3.7,3.7,0,0,0,3.59,3.81h17.71a3.7,3.7,0,0,0,3.59-3.81V162A3.72,3.72,0,0,0,131.85,158.14Z"/><path class="cls-2" d="M171.89,158.14h-2.64v6.22c0,3.28-3.14,4.51-6.25,4.51s-6.21-1.23-6.21-4.51v-6.22h-2.63a3.72,3.72,0,0,0-3.58,3.82v29.3a3.7,3.7,0,0,0,3.58,3.81h17.73a3.7,3.7,0,0,0,3.57-3.81V162A3.72,3.72,0,0,0,171.89,158.14Z"/><path class="cls-3" d="M163,139.47H126.1V122.23h-6.2v17.24H83c-1.44,0-2.72,1.11-3.11,3.11v18.66A3.22,3.22,0,0,0,83,164.36a3.57,3.57,0,0,0,3.12-3.12V145.69H119.9v15.55a3.34,3.34,0,0,0,3,3,3.56,3.56,0,0,0,3.21-3V145.69h33.81v15.55c0,1.43,1.82,2.66,3.25,2.66a3,3,0,0,0,3-2.66V142.58A3.57,3.57,0,0,0,163,139.47Z"/><path class="cls-4" d="M161.24,90.14c10.42,0,18.86,9.1,18.86,20.33s-8.44,20.33-18.86,20.33-18.86-9.1-18.86-20.33S150.83,90.14,161.24,90.14Z"/><path class="cls-4" d="M92.26,82.6c12.36,0,22.37,10.8,22.37,24.1s-10,24.1-22.37,24.1S69.9,120,69.9,106.7,79.91,82.6,92.26,82.6Z"/><path class="cls-4" d="M136.21,54.93c14.72,0,26.65,12.86,26.65,28.73s-11.93,28.73-26.65,28.73-26.66-12.86-26.66-28.73S121.49,54.93,136.21,54.93Z"/><path class="cls-4" d="M89.94,89.55h70.13l2.63,41.26H93.28Z"/><path class="cls-4" d="M106.15,64.18c8.56,0,15.5,7.47,15.5,16.7s-6.94,16.69-15.5,16.69-15.5-7.47-15.5-16.69S97.58,64.18,106.15,64.18Z"/></svg>