<?xml version="1.0" encoding="UTF-8"?><svg id="a" xmlns="http://www.w3.org/2000/svg" viewBox="0 0 1800 214"><rect x="794.5" y="-789.61" width="211" height="1796.22" rx="32" ry="32" transform="translate(1008.5 -791.5) rotate(90)" style="fill:#e6e7e7;"/><rect x="801.26" y="-782.85" width="197.47" height="1782.7" rx="22" ry="22" transform="translate(1008.5 -791.5) rotate(90)" style="fill:#e6e7e7;"/><rect x="801.26" y="-782.85" width="197.47" height="1782.7" rx="22" ry="22" transform="translate(1008.5 -791.5) rotate(90)" style="fill:#95b6e5;"/><rect x="15.42" y="16.53" width="1769.17" height="183.95" rx="12" ry="12" style="fill:#e6e7e7;"/><g><path d="M764.35,72.18c-.29-5.49-.64-12.15-.64-16.99h-.12c-1.4,4.56-2.98,9.52-4.96,14.95l-6.95,19.1h-3.85l-6.42-18.75c-1.87-5.61-3.39-10.63-4.5-15.3h-.12c-.12,4.91-.41,11.45-.76,17.4l-1.05,16.88h-4.85l2.75-39.36h6.48l6.72,19.04c1.63,4.85,2.92,9.17,3.97,13.26h.12c1.05-3.97,2.45-8.29,4.2-13.26l7.01-19.04h6.48l2.45,39.36h-5.02l-.93-17.29Z" style="fill:#0a1e3f;"/><path d="M789.75,77.09l-4.09,12.38h-5.26l13.43-39.36h6.07l13.43,39.36h-5.43l-4.2-12.38h-13.96Zm12.96-3.97l-3.91-11.33c-.88-2.57-1.46-4.91-2.04-7.18h-.12c-.58,2.28-1.17,4.73-1.99,7.12l-3.85,11.39h11.91Z" style="fill:#0a1e3f;"/><path d="M824.97,50.64c2.57-.47,6.31-.82,9.75-.82,5.43,0,8.99,1.05,11.39,3.21,1.93,1.75,3.1,4.44,3.1,7.53,0,5.14-3.27,8.58-7.36,9.99v.17c2.98,1.05,4.79,3.85,5.72,7.94,1.29,5.49,2.22,9.29,3.04,10.8h-5.26c-.64-1.17-1.52-4.5-2.57-9.4-1.17-5.43-3.33-7.47-7.94-7.65h-4.79v17.05h-5.08V50.64Zm5.08,17.93h5.2c5.43,0,8.88-2.98,8.88-7.47,0-5.08-3.68-7.3-9.05-7.3-2.45,0-4.15,.18-5.02,.41v14.37Z" style="fill:#0a1e3f;"/><path d="M862.22,50.11h5.08v18.98h.18c1.05-1.52,2.1-2.92,3.09-4.2l12.03-14.77h6.31l-14.25,16.7,15.36,22.66h-6.01l-12.91-19.33-3.8,4.32v15.01h-5.08V50.11Z" style="fill:#0a1e3f;"/><path d="M920.03,71.02h-15.24v14.19h17.05v4.26h-22.19V50.11h21.31v4.26h-16.18v12.44h15.24v4.2Z" style="fill:#0a1e3f;"/><path d="M942.69,54.43h-11.97v-4.32h29.14v4.32h-12.03v35.04h-5.14V54.43Z" style="fill:#0a1e3f;"/><path d="M975.15,50.11v39.36h-5.14V50.11h5.14Z" style="fill:#0a1e3f;"/><path d="M989.87,89.47V50.11h5.61l12.56,19.91c2.86,4.61,5.2,8.76,7.01,12.79l.18-.06c-.47-5.26-.58-10.04-.58-16.18v-16.47h4.79v39.36h-5.14l-12.5-19.97c-2.74-4.38-5.37-8.88-7.3-13.14l-.18,.06c.29,4.96,.35,9.69,.35,16.23v16.82h-4.79Z" style="fill:#0a1e3f;"/><path d="M1064.14,87.72c-2.28,.88-6.83,2.16-12.15,2.16-5.96,0-10.86-1.52-14.72-5.2-3.39-3.27-5.49-8.53-5.49-14.66,0-11.74,8.12-20.32,21.31-20.32,4.55,0,8.17,.99,9.87,1.81l-1.28,4.15c-2.1-.99-4.73-1.69-8.7-1.69-9.58,0-15.83,5.96-15.83,15.83s5.96,15.88,15.18,15.88c3.33,0,5.61-.47,6.77-1.05v-11.74h-7.94v-4.09h12.96v18.92Z" style="fill:#0a1e3f;"/></g><g><path d="M721.14,134.27h-11.97v-4.32h29.14v4.32h-12.03v35.04h-5.14v-35.04Z" style="fill:#0a1e3f;"/><path d="M768.85,150.86h-15.24v14.19h17.05v4.26h-22.19v-39.36h21.31v4.26h-16.17v12.44h15.24v4.2Z" style="fill:#0a1e3f;"/><path d="M810.54,168.08c-1.81,.93-5.61,1.87-10.39,1.87-11.1,0-19.39-7.01-19.39-19.97s8.35-20.67,20.55-20.67c4.85,0,8,1.05,9.34,1.75l-1.29,4.15c-1.87-.93-4.61-1.63-7.88-1.63-9.23,0-15.36,5.9-15.36,16.23,0,9.69,5.55,15.83,15.07,15.83,3.15,0,6.31-.64,8.35-1.64l.99,4.09Z" style="fill:#0a1e3f;"/><path d="M822.8,169.31v-39.36h5.61l12.56,19.91c2.86,4.61,5.2,8.76,7.01,12.79l.18-.06c-.47-5.26-.58-10.04-.58-16.18v-16.47h4.79v39.36h-5.14l-12.5-19.97c-2.74-4.38-5.37-8.88-7.3-13.14l-.18,.06c.29,4.96,.35,9.69,.35,16.23v16.82h-4.79Z" style="fill:#0a1e3f;"/><path d="M900.7,149.22c0,13.49-8.23,20.73-18.28,20.73s-17.69-8.12-17.69-20.03c0-12.5,7.71-20.67,18.22-20.67s17.75,8.23,17.75,19.97Zm-30.6,.58c0,8.47,4.55,16,12.61,16s12.61-7.42,12.61-16.35c0-7.88-4.09-16.06-12.56-16.06s-12.67,7.82-12.67,16.41Z" style="fill:#0a1e3f;"/><path d="M913.08,129.95h5.14v35.1h16.82v4.26h-21.96v-39.36Z" style="fill:#0a1e3f;"/><path d="M977.9,149.22c0,13.49-8.23,20.73-18.28,20.73s-17.69-8.12-17.69-20.03c0-12.5,7.71-20.67,18.22-20.67s17.75,8.23,17.75,19.97Zm-30.6,.58c0,8.47,4.55,16,12.61,16s12.61-7.42,12.61-16.35c0-7.88-4.09-16.06-12.55-16.06s-12.67,7.82-12.67,16.41Z" style="fill:#0a1e3f;"/><path d="M1020.35,167.56c-2.28,.88-6.83,2.16-12.15,2.16-5.96,0-10.86-1.52-14.72-5.2-3.39-3.27-5.49-8.53-5.49-14.66,0-11.74,8.12-20.32,21.31-20.32,4.55,0,8.18,.99,9.87,1.81l-1.29,4.15c-2.1-.99-4.73-1.69-8.7-1.69-9.58,0-15.83,5.96-15.83,15.83s5.96,15.88,15.18,15.88c3.33,0,5.61-.47,6.77-1.05v-11.74h-7.94v-4.09h12.96v18.92Z" style="fill:#0a1e3f;"/><path d="M1044.99,121.02l-7.47,6.83h-4.15l5.43-6.83h6.19Zm-6.01,8.93v39.36h-5.14v-39.36h5.14Z" style="fill:#0a1e3f;"/><path d="M1060.06,156.93l-4.09,12.38h-5.26l13.43-39.36h6.07l13.43,39.36h-5.43l-4.21-12.38h-13.96Zm12.96-3.97l-3.91-11.33c-.88-2.57-1.46-4.91-2.04-7.18h-.12c-.58,2.28-1.17,4.73-1.99,7.12l-3.85,11.39h11.91Z" style="fill:#0a1e3f;"/></g><rect x="13.39" y="101.74" width="1773.23" height="6.76" style="fill:#95b6e5;"/></svg>