<svg id="Capa_1" data-name="Capa 1" xmlns="http://www.w3.org/2000/svg" viewBox="0 0 250 250"><defs><style>.cls-1{fill:#e6e7e8;}.cls-2{fill:#e68f47;}.cls-3{fill:#aecae7;}.cls-3,.cls-4{stroke:#aecae7;stroke-miterlimit:10;stroke-width:0.87px;}.cls-4{fill:#fff;}</style></defs><circle class="cls-1" cx="125" cy="125" r="117.37"/><path class="cls-2" d="M66.39,87.58V75.36H78.61V87.58Zm24.44,48.89V124.25H66.39V112h48.89v12.22H103.06v12.22ZM78.61,75.36V63.13H90.83V50.91h12.23V63.13h24.45V75.36Zm0,24.44V87.58h36.67V99.8ZM115.28,112V99.8h12.23V112Z"/><g id="g3922"><path id="path3917" class="cls-3" d="M121.63,116.25a5.82,5.82,0,0,0-3.28,7.5s0,0,0,0l14.22,32-5.83-5.92a3.06,3.06,0,0,0-.53-.42,7.06,7.06,0,0,0-5.1-.91,9.72,9.72,0,0,0-3.68,2.08,5,5,0,0,0-1.72,4.74,7.28,7.28,0,0,0,2,4.11h0l15,18.08a2.28,2.28,0,0,0,.42.4l17.63,13.27,5.91,7a2.45,2.45,0,0,0,2.86.65l22.66-10.14a2.44,2.44,0,0,0,1.39-2.72l-6.85-32.47s0-.08,0-.12a67.17,67.17,0,0,0-3.65-8.66c-.79-1.67-1.54-3.29-2.13-4.54s-1.1-2.45-1-2.21a1.56,1.56,0,0,1,0-.16l-4.38-10a1.64,1.64,0,0,0-.27-.46,7.72,7.72,0,0,0-3-2.69,5,5,0,0,0-4.18.11v0l-.18.1-.12,0v0a5.58,5.58,0,0,0-2.14,2l-.28-.65a5.83,5.83,0,0,0-7.75-2.67h0a6.29,6.29,0,0,0-3.42,3.7l-1.31-3a5.81,5.81,0,0,0-7.73-2.67,6.38,6.38,0,0,0-3.18,3.09l-2.57-5.86c-1.29-3-4.88-3.92-7.73-2.68Z"/><path id="rect3906" class="cls-4" d="M122.6,118.49a3.35,3.35,0,0,0-2,4.28L137.1,160c.54,1.37-1.36,2.49-2.18,1.67l-9.89-10c-2.72-1.54-4.06-.61-6.09,1-1.4,1.06-1,3.76.68,5.38L134.57,176l17.84,13.45,6.1,7.21,22.66-10.15-6.84-32.46c-.73-2.78-6.36-14.18-6.73-15.22l-4.37-10c-1.35-1.84-2.74-2.71-4.22-1.8a3.07,3.07,0,0,0-1.41,4.27l4.32,9.87c.91,1.19-1.69,2.74-2.31,1l-6.53-14.9a3.36,3.36,0,0,0-4.53-1.42h0a3.35,3.35,0,0,0-2,4.29l5.24,12c1,1.3-2.42,3.29-3.17,1.38l-8-18.19a3.62,3.62,0,0,0-6.57,2.87l8.38,19.13c.72,1.26-1.94,2.83-2.76,1.2L127.14,119.9a3.38,3.38,0,0,0-4.54-1.41Z"/></g></svg>