<svg id="Capa_1" data-name="Capa 1" xmlns="http://www.w3.org/2000/svg" viewBox="0 0 500 500"><polygon points="105.3 391.93 67.59 362.78 29.89 391.93 29.89 435.67 105.3 435.67 105.3 391.93" style="fill:#89bb55"/><rect x="29.89" y="450.21" width="75.41" height="15.79" style="fill:#89bb55"/><polygon points="196.68 333.63 158.98 304.47 121.28 333.63 121.28 435.67 196.68 435.67 196.68 333.63" style="fill:#95b6e5"/><rect x="121.28" y="450.21" width="75.41" height="15.79" style="fill:#95b6e5"/><polygon points="288.07 304.47 250.66 275.32 212.66 304.47 212.66 435.67 288.07 435.67 288.07 304.47" style="fill:#7d2796"/><rect x="212.66" y="450.21" width="75.41" height="15.79" style="fill:#7d2796"/><polygon points="379.46 260.74 341.75 231.59 304.05 260.74 304.05 435.67 379.46 435.67 379.46 260.74" style="fill:#f17533"/><rect x="304.05" y="450.21" width="75.41" height="15.79" style="fill:#f17533"/><polygon points="470.85 202.43 433.14 173.28 395.44 202.43 395.44 435.67 470.85 435.67 470.85 202.43" style="fill:#d62f8a"/><rect x="395.44" y="450.21" width="75.41" height="15.79" style="fill:#d62f8a"/><path d="M31.15,295.59S72.44,251.86,159,237.28c63.2-10.65,124.64-32.1,188-91.51,32-30,61.11-50,86.17-60.31" style="fill:none;stroke:#bdbdbd;stroke-linecap:round;stroke-linejoin:round;stroke-width:2px"/><circle cx="67.68" cy="268.86" r="13.36" style="fill:#89bb55"/><circle cx="158.98" cy="237.28" r="13.36" style="fill:#95b6e5"/><circle cx="250.37" cy="210.86" r="13.36" style="fill:#7d2796"/><circle cx="341.76" cy="149.82" r="13.36" style="fill:#f17533"/><circle cx="433.17" cy="84.68" r="13.36" style="fill:#d62f8a"/></svg>