<svg id="Capa_1" data-name="Capa 1" xmlns="http://www.w3.org/2000/svg" viewBox="0 0 500 500"><path d="M170,238.86c0-3-.11-5.61,0-8.21.37-7.83,3.85-13.76,11-17.21a62,62,0,0,1,31.74-6.2c2.88.2,5.67,1.47,8.8,2.33,0-2-.13-4.26,0-6.51.6-8.63,4.55-15,12.64-18.6A70.49,70.49,0,0,1,267,178.37c4.19.22,7.77,2,11.4,4.86.07-1.3.14-2.16.15-3,.54-23.64.77-47.29,1.69-70.91.61-15.67,2.08-31.33,3.43-47,.56-6.38,3.91-11.49,8.88-15.52,9.6-7.77,25.2-9.19,36-3.2,6.94,3.85,10.77,9.83,11.65,17.68,4.42,39.53,6.68,79.21,8.08,119,.82,23.29,1.87,46.58,2.84,69.87a4.71,4.71,0,0,0,.74,2.52c10.36,13.42,17.89,28.53,25.91,43.35,2.16,4,3.44,8.06,3.06,12.54-.53,6.25-.9,12.54-2,18.7a210.74,210.74,0,0,1-25.65,70.64,108,108,0,0,1-20.74,25.79,5.24,5.24,0,0,0-1.47,3.39c-.31,8.25-.47,16.52-.63,24.79-.15,7.27-1.19,8.34-8.38,8.34H178.61c-6.28,0-12.56,0-18.84,0-4.08,0-5.66-1.63-5.66-5.75,0-14.38,0-28.77-.06-43.15a5.34,5.34,0,0,0-1.32-3.43c-15.53-15.23-24-33.9-27.39-55.17-3-19.08-2.46-38.25-1.18-57.39.41-6.08-1.77-11.52-2.53-17.29-.9-6.79-2.13-13.57-2.5-20.39-.4-7.42,2.86-13.32,9.54-17a60.43,60.43,0,0,1,27.55-7.16,18.1,18.1,0,0,1,12.35,4.29C168.93,238.07,169.3,238.34,170,238.86ZM321.4,430.57c-.78.39-1.57.8-2.38,1.17-3,1.36-5.07.77-6.26-1.75a4.64,4.64,0,0,1,2.38-6.45c11.48-5.13,19.45-14,26.26-24.18,12.22-18.18,20-38.29,25.51-59.36,2.71-10.4,4.91-20.93,4.91-31.75a13.07,13.07,0,0,0-1.07-5.75c-4.09-8-8.31-16-12.72-23.83-6.84-12.14-14.52-23.69-25-33.1a10,10,0,0,0-3.81-2.11,522.74,522.74,0,0,0-57.77-12.8c-4.44-.76-8.91-1.32-13.5-2-2.07,11.12-2.29,21.71,2.95,31.77,4.27,8.22,11.17,13.78,19.06,18.27,8.45,4.8,17.58,7.93,26.84,10.76,3,.92,4,2.21,4.12,5.06A58.15,58.15,0,0,0,317.37,319c1.74,3.41.27,6.73-3.53,7.16a126.46,126.46,0,0,0-36.18,9.93c-1.18.51-3.42.36-4.2-.44a5.69,5.69,0,0,1-1.42-4.58,6.53,6.53,0,0,1,3.36-3.86,170.69,170.69,0,0,1,16.89-6.32c4.62-1.42,9.47-2.13,14.06-3.12-1.65-6.49-3.28-12.89-5-19.47-3,6.11-8.45,9.14-14.55,11a99.37,99.37,0,0,1-15.58,3.87c-7.94,1.14-16,2-23.15-3.33-.09-.07-.3,0-.53.05,0,.4-.07.8-.09,1.2-.55,8-4.31,13.83-11.69,17a64.56,64.56,0,0,1-12.16,4.13c-9.86,2-19.88,4.45-29.26-2.39-1,7.86-5.44,12.81-12.43,15.85A65.92,65.92,0,0,1,162.69,351c-13,1.39-18.93-1.94-24.22-13.89-2.23-5-4-10.24-6.16-15.72,0,.79,0,1.24,0,1.7.66,9.55.8,19.18,2.13,28.64,2.57,18.3,10,34.55,23.09,47.82,4.05,4.1,8.63,7.68,13,11.42,2.32,2,2.87,4.25,1.32,6.47s-4,2.64-6.7.85c-.58-.38-1.17-.73-1.91-1.19V451H321.4ZM341.51,241c0-1.34,0-2,0-2.66-.74-18.83-1.55-37.65-2.22-56.48-1.41-39.72-3.68-79.39-8-118.92-.67-6.14-3.74-10.36-9.46-12.45a24.07,24.07,0,0,0-22.48,2.64c-3.83,2.52-6.39,6.13-6.72,10.79-1.41,20.1-3.12,40.2-3.9,60.33-1,24.69-1.1,49.41-1.59,74.11a11.69,11.69,0,0,0,.15,2.71c1.64,7.49,3.35,15,5,22.47a2.4,2.4,0,0,0,2.18,2.17c7.19,1.5,14.43,2.86,21.5,4.82C324.68,233,334.45,233,341.51,241Zm-130,84a56.12,56.12,0,0,0,20.91-5.29c4.07-1.91,6.37-5.17,6-9.64a175.77,175.77,0,0,0-2.3-20.65c-2.84-14.58-6.07-29.1-9.43-43.57-1.82-7.86-4-15.64-6.47-23.33-1.24-3.92-4.46-6.17-8.65-6.37a55.25,55.25,0,0,0-26.67,5.42,9.64,9.64,0,0,0-5.83,9.08,79.76,79.76,0,0,0,.73,14.09c2.25,13.35,4.81,26.64,7.42,39.93,2.12,10.78,4.71,21.45,9,31.63C199.27,323.62,202.26,325.5,211.47,325Zm-53.8,17.21a53.71,53.71,0,0,0,22.15-5.63c4-2,6-5.23,5.48-9.63A130.38,130.38,0,0,0,183,311.81c-2.82-12.06-5.8-24.09-9.09-36-2.49-9-5.34-18-8.45-26.88-1.74-4.94-5-6.6-10.29-6.32a54.13,54.13,0,0,0-21.64,5.72,8.88,8.88,0,0,0-5.33,8.75,62.24,62.24,0,0,0,1,11.1c2.53,12,5.27,23.85,8.12,35.73,2.62,10.93,5.55,21.76,10.47,31.95C150,340.35,153.25,342.79,157.67,342.25ZM283,223.3c-1.88-9.94-3.67-19.61-7.47-28.73A11,11,0,0,0,265,187.35a61.83,61.83,0,0,0-27.2,5.46c-4.84,2.16-7.43,6-7.14,11.12a233.71,233.71,0,0,0,2.28,25.12c2,12.21,4.89,24.27,7.37,36.4,2.25,11,4.88,21.92,9.55,32.22,2,4.35,5.33,6.95,10.17,7.12a59.59,59.59,0,0,0,28.55-6c1.73-.84,3.1-2.44,4.94-3.94-4.06-1.73-7.5-3.1-10.85-4.66-10.55-4.89-20.2-11-26.93-20.81-10.11-14.69-9.71-30.71-5.47-47.1.6-2.3,2.49-3.22,4.79-3.07,1.73.12,3.45.38,5.17.64C267.69,221,275.18,222.1,283,223.3Z" style="fill:#7d2796"/><path d="M241.57,477.42H160c-13.91,0-23.12-9.23-23.12-23.19,0-12,0-24-.06-36a5.71,5.71,0,0,0-1.28-3.49c-14.84-16.66-23.31-36.26-27-58.1-3.42-20.28-2.91-40.68-1.66-61.08.29-4.79-1.24-9.12-2.06-13.64-1.67-9.2-3.46-18.42-2.75-27.79,1-13,7.35-22.77,18.9-28.94a79,79,0,0,1,33-9,3.12,3.12,0,0,0,2.32-1.2c5.48-11.5,15.3-17.37,26.88-21.06a90.32,90.32,0,0,1,22.1-4.14,2.75,2.75,0,0,0,2.07-1.19c4.87-11.6,14-18.24,25.5-22.25a87.79,87.79,0,0,1,25.63-5.22c2.54-.09,3.34-.72,3.35-3.32,0-10.33,0-20.68.55-31,1.15-21.87,2.38-43.74,4.13-65.57,1.1-13.74,8.14-24.36,20.07-31.29,14.25-8.28,29.43-9.7,44.87-4,15.75,5.84,24.27,17.59,26.07,34.27,4.34,40.21,6.59,80.55,8.09,121q1.15,31.1,2.48,62.2a5.85,5.85,0,0,0,.78,3c9.34,13.09,16.57,27.41,24.24,41.49a38.06,38.06,0,0,1,5.05,19.9,140.48,140.48,0,0,1-1.47,18c-5.05,30.2-14.69,58.81-31.2,84.75-4.63,7.28-10.62,13.68-15.91,20.54a6.61,6.61,0,0,0-1.42,3.43c-.29,6.52-.4,13.05-.54,19.58-.29,13.88-9.56,23.16-23.4,23.19-27.53.06-55.06,0-82.59,0ZM170,238.86c-.67-.52-1-.79-1.4-1.08a18.1,18.1,0,0,0-12.35-4.29,60.43,60.43,0,0,0-27.55,7.16c-6.68,3.63-9.94,9.53-9.54,17,.37,6.82,1.6,13.6,2.5,20.39.76,5.77,2.94,11.21,2.53,17.29-1.28,19.14-1.83,38.31,1.18,57.39,3.35,21.27,11.86,39.94,27.39,55.17a5.34,5.34,0,0,1,1.32,3.43c.08,14.38,0,28.77.06,43.15,0,4.12,1.58,5.74,5.66,5.75,6.28,0,12.56,0,18.84,0H322c7.19,0,8.23-1.07,8.38-8.34.16-8.27.32-16.54.63-24.79a5.24,5.24,0,0,1,1.47-3.39,108,108,0,0,0,20.74-25.79,210.74,210.74,0,0,0,25.65-70.64c1.1-6.16,1.47-12.45,2-18.7.38-4.48-.9-8.55-3.06-12.54-8-14.82-15.55-29.93-25.91-43.35a4.71,4.71,0,0,1-.74-2.52c-1-23.29-2-46.58-2.84-69.87-1.4-39.74-3.66-79.42-8.08-118.95-.88-7.85-4.71-13.83-11.65-17.68-10.8-6-26.4-4.57-36,3.2-5,4-8.32,9.14-8.88,15.52-1.35,15.63-2.82,31.29-3.43,47-.92,23.62-1.15,47.27-1.69,70.91,0,.86-.08,1.72-.15,3-3.63-2.83-7.21-4.64-11.4-4.86a70.49,70.49,0,0,0-32.82,6.09c-8.09,3.58-12,10-12.64,18.6-.15,2.25,0,4.51,0,6.51-3.13-.86-5.92-2.13-8.8-2.33a62,62,0,0,0-31.74,6.2c-7.15,3.45-10.63,9.38-11,17.21C169.86,233.25,170,235.87,170,238.86Z" style="fill:#f17533"/><path d="M341.51,241c-7.06-8.06-16.83-8.05-25.59-10.47-7.07-2-14.31-3.32-21.5-4.82a2.4,2.4,0,0,1-2.18-2.17c-1.63-7.5-3.34-15-5-22.47a11.69,11.69,0,0,1-.15-2.71c.49-24.7.63-49.42,1.59-74.11.78-20.13,2.49-40.23,3.9-60.33.33-4.66,2.89-8.27,6.72-10.79a24.07,24.07,0,0,1,22.48-2.64c5.72,2.09,8.79,6.31,9.46,12.45,4.34,39.53,6.61,79.2,8,118.92.67,18.83,1.48,37.65,2.22,56.48C341.53,239,341.51,239.68,341.51,241Z" style="fill:#f17533"/><path d="M211.47,325c-9.21.46-12.2-1.42-15.26-8.7-4.28-10.18-6.87-20.85-9-31.63-2.61-13.29-5.17-26.58-7.42-39.93a79.76,79.76,0,0,1-.73-14.09,9.64,9.64,0,0,1,5.83-9.08,55.25,55.25,0,0,1,26.67-5.42c4.19.2,7.41,2.45,8.65,6.37,2.43,7.69,4.65,15.47,6.47,23.33,3.36,14.47,6.59,29,9.43,43.57a175.77,175.77,0,0,1,2.3,20.65c.33,4.47-2,7.73-6,9.64A56.12,56.12,0,0,1,211.47,325Z" style="fill:#f17533"/><path d="M157.67,342.25c-4.42.54-7.69-1.9-9.87-6.42-4.92-10.19-7.85-21-10.47-31.95-2.85-11.88-5.59-23.78-8.12-35.73a62.24,62.24,0,0,1-1-11.1,8.88,8.88,0,0,1,5.33-8.75,54.13,54.13,0,0,1,21.64-5.72c5.26-.28,8.55,1.38,10.29,6.32,3.11,8.86,6,17.83,8.45,26.88,3.29,11.94,6.27,24,9.09,36A130.38,130.38,0,0,1,185.3,327c.49,4.4-1.46,7.64-5.48,9.63A53.71,53.71,0,0,1,157.67,342.25Z" style="fill:#f17533"/><path d="M283,223.3c-7.82-1.2-15.31-2.35-22.8-3.48-1.72-.26-3.44-.52-5.17-.64-2.3-.15-4.19.77-4.79,3.07-4.24,16.39-4.64,32.41,5.47,47.1,6.73,9.78,16.38,15.92,26.93,20.81,3.35,1.56,6.79,2.93,10.85,4.66-1.84,1.5-3.21,3.1-4.94,3.94a59.59,59.59,0,0,1-28.55,6c-4.84-.17-8.2-2.77-10.17-7.12-4.67-10.3-7.3-21.2-9.55-32.22-2.48-12.13-5.34-24.19-7.37-36.4a233.71,233.71,0,0,1-2.28-25.12c-.29-5.16,2.3-9,7.14-11.12a61.83,61.83,0,0,1,27.2-5.46,11,11,0,0,1,10.56,7.22C279.33,203.69,281.12,213.36,283,223.3Z" style="fill:#f17533"/><path d="M370.75,302.5c-4.09-8-8.31-16-12.72-23.83-6.84-12.14-14.52-23.69-25-33.1a10,10,0,0,0-3.81-2.11,522.74,522.74,0,0,0-57.77-12.8c-4.44-.76-8.91-1.32-13.5-2-2.07,11.12-2.29,21.71,2.95,31.77,4.27,8.22,11.17,13.78,19.06,18.27,8.45,4.8,17.58,7.93,26.84,10.76,3,.92,4,2.21,4.12,5.06A58.15,58.15,0,0,0,317.37,319c1.74,3.41.27,6.73-3.53,7.16a126.46,126.46,0,0,0-36.18,9.93c-1.18.51-3.42.36-4.2-.44a5.69,5.69,0,0,1-1.42-4.58,6.53,6.53,0,0,1,3.36-3.86,170.69,170.69,0,0,1,16.89-6.32c4.62-1.42,9.47-2.13,14.06-3.12-1.65-6.49-3.28-12.89-5-19.47-3,6.11-8.45,9.14-14.55,11a99.37,99.37,0,0,1-15.58,3.87c-7.94,1.14-16,2-23.15-3.33-.09-.07-.3,0-.53.05,0,.4-.07.8-.09,1.2-.55,8-4.31,13.83-11.69,17a64.56,64.56,0,0,1-12.16,4.13c-9.86,2-19.88,4.45-29.26-2.39-1,7.86-5.44,12.81-12.43,15.85A65.92,65.92,0,0,1,162.69,351c-13,1.39-18.93-1.94-24.22-13.89-2.23-5-4-10.24-6.16-15.72,0,.79,0,1.24,0,1.7.66,9.55.8,19.18,2.13,28.64,2.57,18.3,10,34.55,23.09,47.82,4.05,4.1,8.63,7.68,13,11.42,2.32,2,2.87,4.25,1.32,6.47s-4,2.64-6.7.85c-.58-.39-1.17-.73-1.91-1.19V451H321.4V430.57c-.78.39-1.57.8-2.38,1.17-3,1.36-5.07.77-6.26-1.75a4.64,4.64,0,0,1,2.38-6.45c11.48-5.13,19.45-14,26.26-24.18,12.22-18.18,20-38.29,25.51-59.36,2.71-10.4,4.91-20.93,4.91-31.75A13.07,13.07,0,0,0,370.75,302.5Z" style="fill:#f17533"/></svg>