<svg id="Capa_1" data-name="Capa 1" xmlns="http://www.w3.org/2000/svg" viewBox="0 0 500 500"><path d="M417.19,232.47l-55.46,56.34L289,215a15.67,15.67,0,0,0-22.38,0l-16.9,17.14L233.07,249a39.05,39.05,0,0,1-55.94,0l44.63-45.26,28.09-28.41v-.08h55.94l27.45-27.85Z" style="fill:#011e41"/><path d="M249.61,345.33a22.46,22.46,0,0,1-2.21,2.61L237.27,358.3a4.61,4.61,0,0,0-.71.64c-.24.24-.56.47-.8.71l-14,14.24L219,376.66a3.46,3.46,0,0,0-.63.87,1.1,1.1,0,0,0-.32.24,19.65,19.65,0,0,1-27-1,20.25,20.25,0,0,1,0-28.4l2.77-2.77,25.63-26,.72-.71c.63-.47,1.26-1,1.9-1.5a19.59,19.59,0,0,1,11.39-3.72,19.28,19.28,0,0,1,13.93,5.93c.39.4.79.8,1.1,1.19s.64.95.95,1.43A20,20,0,0,1,249.61,345.33Z" style="fill:#011e41"/><path d="M263.69,388l-14,14.24L246.92,405A19.4,19.4,0,0,1,219,405a20,20,0,0,1-1-27.22,1.1,1.1,0,0,1,.32-.24l3.48-3.56,14.72-15a4.61,4.61,0,0,1,.71-.64,19.52,19.52,0,0,1,26.42,1.35A20.15,20.15,0,0,1,263.69,388Z" style="fill:#011e41"/><path d="M220.49,318.51c-.08.15-.23.23-.31.39l-.72.71-25.63,26-2.77,2.77a19.5,19.5,0,0,1-28,0,20.32,20.32,0,0,1,0-28.33l2.77-2.69.08-.08,14-14.32,11.56-11.71a19.4,19.4,0,0,1,27.29-.63,4.07,4.07,0,0,1,.71.63,12,12,0,0,1,1.35,1.5A20.49,20.49,0,0,1,220.49,318.51Z" style="fill:#011e41"/><path d="M179.9,302.92l-14,14.32-.08.08L163.05,320a19.54,19.54,0,0,1-27.93,0,20.26,20.26,0,0,1,0-28.41l2.77-2.76,14-14.25a19.5,19.5,0,0,1,14-5.85,18.71,18.71,0,0,1,4.67.55,17.17,17.17,0,0,1,4.35,1.58,22.78,22.78,0,0,1,5,3.72A20.3,20.3,0,0,1,179.9,302.92Z" style="fill:#011e41"/><path d="M364.5,320a19.54,19.54,0,0,1-27.93,0c6.64,7.44,7.67,19,1.34,26.9a19.62,19.62,0,0,1-29.35,1.43,20.25,20.25,0,0,1,0,28.4,19.64,19.64,0,0,1-28,0,20.17,20.17,0,0,1,0,28.33,19.4,19.4,0,0,1-27.93,0l-2.85-2.77-.08-.08,14-14.24a20.15,20.15,0,0,0,0-28.33,19.52,19.52,0,0,0-26.42-1.35l10.13-10.36a22.46,22.46,0,0,0,2.21-2.61,20,20,0,0,0-.16-23.1c-.31-.48-.63-1-.95-1.43s-.71-.79-1.1-1.19a19.28,19.28,0,0,0-13.93-5.93,19.59,19.59,0,0,0-11.39,3.72l-.24-.24-1.35,1.35a20.49,20.49,0,0,0,.32-25.8,12,12,0,0,0-1.35-1.5,4.07,4.07,0,0,0-.71-.63,19.4,19.4,0,0,0-27.29.63L179.9,302.92a20.3,20.3,0,0,0,0-28.33,22.78,22.78,0,0,0-5-3.72,17.17,17.17,0,0,0-4.35-1.58,18.71,18.71,0,0,0-4.67-.55,19.5,19.5,0,0,0-14,5.85l-14,14.25-.08.08L82.27,232.58l83.87-85.21,27.45,27.85h56.18l-28,28.48h-.08L177.13,249a39.18,39.18,0,0,0,55.94,0l16.62-16.86L266.62,215a15.62,15.62,0,0,1,22.31,0l16.86,17.1L364.5,291.6A20.26,20.26,0,0,1,364.5,320Z" style="fill:#95b6e5"/><rect x="308.97" y="138.08" width="179.09" height="63.89" rx="12" transform="translate(233.74 -230.69) rotate(44.54)" style="fill:#d62f8a"/><rect x="11.28" y="138.08" width="179.09" height="63.89" rx="12" transform="translate(-91.08 122.63) rotate(-45.46)" style="fill:#d62f8a"/></svg>