<svg id="Capa_1" data-name="Capa 1" xmlns="http://www.w3.org/2000/svg" viewBox="0 0 500 500"><path d="M235.28,443.51c-2.23-1-55.2-25.47-108.62-67.72C94.44,350.26,68.52,323.44,49.73,296c-25.14-36.66-37.88-74.61-37.88-112.76C11.85,109.49,75,49.5,152.64,49.5c36.89,0,71.42,13.35,97.4,37.19,26-23.8,60.52-37.14,97.41-37.14,77.58,0,140.7,60,140.7,133.7,0,36.95-12.77,74.14-38,110.55-18.75,27.1-44.52,53.94-76.59,79.76-53.17,42.82-105.87,68.58-108.09,69.66l-15,7.28Z" style="fill:#8ab7e9"/><path d="M242.65,427.4c-2.14-1-53.22-24.54-105-65.52C106.83,337.49,82.16,312,64.34,286c-23.09-33.66-34.78-68.23-34.78-102.74,0-64,55.21-116,123.08-116,38.83,0,74.47,17.07,97.4,45.16C273,84.27,308.6,67.21,347.45,67.21c67.81,0,123,52,123,116,0,33.28-11.71,67.08-34.81,100.47-17.78,25.68-42.39,51.29-73.13,76.05-51.64,41.61-102.57,66.47-104.72,67.5l-7.54,3.61Z" style="fill:#011e41"/><path d="M347.45,84.91c-44,0-81.64,25.23-97.41,61-15.79-35.81-53.41-61-97.4-61-58.14,0-105.37,44-105.37,98.29C47.27,318.55,250,411.3,250,411.3S452.72,313,452.72,183.2C452.69,128.9,405.49,84.91,347.45,84.91Z" style="fill:#8ab7e9"/></svg>