<svg id="Capa_1" data-name="Capa 1" xmlns="http://www.w3.org/2000/svg" viewBox="0 0 500 500"><text transform="translate(223.72 253.35)" style="font-size:90.22252655029297px;fill:#7d2796;font-family:AktivGrotesk-XBold;font-weight:700">&amp;</text><path d="M429.59,423.34c9.23.66,10.57,2.06,10.62,11.09.1,16.57.1,16.59-16.84,16.57q-54.93-.09-109.85-.21c-4-1.47-5.54-4.5-5.63-8.54a81.16,81.16,0,0,1,0-8.4c.33-3.89.3-7.21-4.65-8.32-2-.46-1.82-2.08,0-3.18,3.15-1.32,6.48-1,9.75-1q52.95,0,105.89,0C422.53,421.33,426.39,420.7,429.59,423.34Z" style="fill:#f17533"/><path d="M429.59,423.34l-127.82.21-.78-.78c-2.38-10-.91-14.63,6.05-19,37-.06,74.08-.18,111.12-.14,6.31,0,10.61,4.3,11.23,10.6C429.69,417.21,429.54,420.29,429.59,423.34Z" style="fill:#95b6e5"/><path d="M301.77,423.55c8.41,0,8.84,5,8,11.68-.65,5.4-1.4,11.32,3.73,15.56l-45.3.21c-5.37,0-8.06-2.79-8.34-8-.15-2.83-.06-5.67,0-8.5.06-9,1.59-10.57,10.57-11.13a52.64,52.64,0,0,1,31.38-.05Z" style="fill:#f17533"/><path d="M301.79,423.34l-31.38.05a20.66,20.66,0,0,0,.5-2.56c1.18-15.81,2.8-17.36,18.45-17.33,5.89,0,11.78.14,17.67.22C300.83,409.07,301.54,416.27,301.79,423.34Z" style="fill:#95b6e5"/><path d="M396.51,343.29c-2.5,1-2.5,3.29-2.77,5.46a210.09,210.09,0,0,1-6.29,32.12c-.8,2.75-1.45,5.2,2.19,7,3.22,1.6,4.28,5,3.23,8.51-1.12,3.76-3.85,5.7-7.83,5.71q-25.21.08-50.44.11c-2.36-3.89-4.1-7.84-1.17-12.22a2.8,2.8,0,0,0,.68-2.41c-5-18.1-5.15-36.68-6.06-55.24A415.16,415.16,0,0,1,330.84,263c.53-4.49,1.77-8.77,0-13.45-1.2-3.22.72-6.36,3.08-8.87,16.12-.14,32.24-.39,48.36-.37,7.84,0,10.12,3,8.74,10.5-2.05,3.91-5.57,5.07-9.67,5.24s-8.23-.34-12.3.47c-4.78-.68-9.59-.17-14.39-.35,4.67.27,9.37-.35,14,.42,5.38,0,10.89-2.13,16.09,1,4.27,10.78,6.11,22.12,8,33.46.45,2.72.06,5.72,2.34,7.92,2,8.84.94,17.82,1.2,26.73C396.52,331.54,396.87,337.41,396.51,343.29Z" style="fill:#d62f8a"/><path d="M334,240.68c-.88,4.7-3.62,9.19.36,14.18.93,1.17-1.57,5.17-1.9,8.12-1.5,13.19-2.68,26.37-3,39.67-.63,26.61-.3,53.22,5,79.33,1.45,7.16-3.15,13.61.2,20.24-5.44.13-10.87.28-16.32.38-3.95.08-6.77-1.78-8-5.49s-.21-7.24,3.23-9.06c3.26-1.72,2.72-3.68,1.91-6.41a168.39,168.39,0,0,1-6.61-31.34c-.49-5.09-2.43-6.79-7.37-6.18-3,.38-6.08-.05-9.12-.12-3.53-1.34-2.9-4.51-3.16-7.24-1.08-11.15-5.33-15.18-16.45-15.14-28.88.11-57.77.39-86.66.44-2.93,0-6.76,1.57-8.42-2.79-1.13-14,3.72-19.26,17.78-19.35,35.22-.24,70.45-.55,105.68-.55,4.95,0,6.79-1.25,7.18-6.36a164.32,164.32,0,0,1,5.86-30.88c.8-2.92,1.46-5.16-2.14-7s-4.23-5.44-3.12-9.15c1.18-3.92,4.22-5.32,8.08-5.32Q325.44,240.64,334,240.68Z" style="fill:#d62f8a"/><path d="M177.61,319.27c2.24,2.06,5,1.27,7.55,1.26q43.74-.21,87.46-.52c12.37-.07,17.58,4.87,18.09,17.14.1,2.39-.26,4.87,1.59,6.85-33.76.3-67.51.71-101.26.83-8,0-13-5-13.63-13.15C177.1,327.57,177.52,323.41,177.61,319.27Z" style="fill:#d62f8a"/><path d="M396.51,343.29c-1.89-2-1.5-4.42-1.56-6.79-.26-11.73-.54-23.46-.74-35.2,0-.78.61-1.57.94-2.36,9.45.64,13.79,4.53,14.34,13.45a173,173,0,0,1,.14,17.64C409.31,338,404.8,342.36,396.51,343.29Z" style="fill:#d62f8a"/><path d="M384.8,257.56l-16.21-.95h0c3-2.54,6.69-1.43,10-1.35a16.91,16.91,0,0,0,12.44-4.45C391.16,255.09,386.5,255,384.8,257.56Z" style="fill:#d62f8a"/><path d="M368.59,256.61a65.67,65.67,0,0,1-19.24-.37c6.41-.53,12.83-2.3,19.24.37Z" style="fill:#d62f8a"/><path d="M147.92,41.77c-1.6,0-3.18,0-4.75.13A90,90,0,0,0,84.38,195.57a12.86,12.86,0,0,1-3.18,2.32c-8.7,5-17,10.66-25.41,16.05l.42,1.79h59.11a90,90,0,1,0,32.6-174Z" style="fill:#f17533"/><path d="M113.5,108.53c.09-14.41,9.35-25.5,23.92-28.63,17.12-3.69,35.07,3.2,41.65,16s2.71,27.92-9.66,37L158.34,141c-5.21,3.81-9.43,8-8.3,15,.64,3.91-.62,6.63-5.88,6.63-5,0-5.62-2.32-6.41-6.34-3.51-17.94,12.62-23,23.13-31.85,6.16-5.19,11.31-10.86,8-19.56-3.09-8.12-8.82-13.27-18.22-14-16.48-1.3-24.15,5.79-24.89,23.06-.19,4.3-.66,7.28-6.51,7.13-5.38-.13-5.93-3-5.78-6.83C113.56,112.3,113.5,110.41,113.5,108.53Z" style="fill:#d62f8a"/><path d="M144.46,185.24c-4,.31-6.48-.68-6.58-5s1.24-6.43,6.25-6.33c4.26.08,6.05,1.58,6,5.59C150.11,183.26,149,185.63,144.46,185.24Z" style="fill:#d62f8a"/></svg>