<svg id="Capa_1" data-name="Capa 1" xmlns="http://www.w3.org/2000/svg" xmlns:xlink="http://www.w3.org/1999/xlink" viewBox="0 0 250 250"><defs><style>.cls-1{fill:none;}.cls-2{fill:#e6e7e8;}.cls-3,.cls-6{fill:#0e223f;}.cls-3{stroke:#0e223f;stroke-miterlimit:10;stroke-width:0.25px;}.cls-4{fill:#8eb8e0;}.cls-5{clip-path:url(#clip-path);}.cls-7{fill:#fff;}.cls-8{fill:#284470;}</style><clipPath id="clip-path"><path class="cls-1" d="M107.2,68.73a30.55,30.55,0,1,0,30.55,30.56A30.57,30.57,0,0,0,107.2,68.73Zm0,2.76a27.75,27.75,0,0,1,25.15,16q-1.53,1.62-3,3.29c-1.37-.18-2.8-.41-4.14-.56a1.39,1.39,0,0,0-.11,2.78l2,.28c-.68.76-1.36,1.54-2,2.32-1.09-.18-2.25-.39-3.32-.52a1.44,1.44,0,0,0-1.48,1.29,1.46,1.46,0,0,0,1.29,1.49l1.45.23c-.69.85-1.38,1.7-2.06,2.56h-3.45a1.39,1.39,0,0,0,.13,2.78h1.22c-.69.92-1.37,1.84-2,2.78h-3.49a1.39,1.39,0,0,0,.13,2.77H115c-.6.93-1.2,1.85-1.76,2.78h-3.34a1.39,1.39,0,0,0,.13,2.78h1.61c-.51.92-1,1.85-1.46,2.77h-3a1.39,1.39,0,1,0,.13,2.78h1.62c-.4.92-.79,1.85-1.14,2.78h-4.08a1.39,1.39,0,0,0,.13,2.77h3c-.14.46-.26.92-.39,1.37a27.75,27.75,0,0,1-24.14-15.67c.2-1.5.39-3,.58-4.55l3.08-3.28.59,1.73a1.4,1.4,0,0,0,2.65-.89l-1.06-3.16L90,99.12l.65,2a1.39,1.39,0,1,0,2.64-.89L92.1,96.72c.75-.86,1.49-1.72,2.21-2.61l.48,1.43a1.4,1.4,0,0,0,2.65-.88l-1.07-3.19c.73-1,1.43-1.93,2.11-2.91L99,90a1.39,1.39,0,1,0,2.64-.89l-1.17-3.51c.48-.79.95-1.58,1.39-2.39l.69,1.41A1.39,1.39,0,1,0,105,83.37l-1.63-3.23c.33-.7.66-1.41,1-2.13l.42.57a1.39,1.39,0,1,0,2.21-1.67l-1.5-2c.37-1.11.66-2.25.94-3.41Zm-3.75.26c-.16.62-.33,1.23-.52,1.84h-2.79a1.39,1.39,0,1,0,.13,2.78H102c-.28.71-.58,1.39-.89,2.08h-4.4a1.39,1.39,0,1,0,.13,2.78h2.9c-.47.9-1,1.78-1.54,2.65-1.39-.2-2.85-.43-4.23-.59a1.39,1.39,0,1,0-.1,2.78l2.69.39c-.68,1-1.38,2-2.11,3-1.51-.38-3.08-1-4.57-1.26a1.45,1.45,0,0,0-1.4,1.2,1.43,1.43,0,0,0,1,1.53l3.1.89c-.83,1-1.68,2.07-2.56,3.09a31.36,31.36,0,0,0-3.73-1.16A1.39,1.39,0,0,0,86,96.42l2.07.69-1.85,2a38.37,38.37,0,0,0-4-1.26,1.39,1.39,0,0,0-.33,2.71l2.28.76c-.86.91-1.7,1.83-2.56,2.74l-1.72-.44a28.4,28.4,0,0,1-.34-4.36A27.75,27.75,0,0,1,103.45,71.75ZM133.5,90.37a27.77,27.77,0,0,1-20.85,36.15,1.42,1.42,0,0,0-.56-1.06l-1.8-1.57c.38-1,.8-2,1.25-3l1.63,1.62a1.39,1.39,0,1,0,2-2l-2.3-2.3c.48-1,1-1.91,1.54-2.87l1.58,1.59a1.39,1.39,0,1,0,2-2l-2.08-2.08c.6-1,1.22-2,1.87-2.93l1.62,2a1.39,1.39,0,1,0,2.17-1.74l-2.14-2.69c.77-1.1,1.58-2.21,2.4-3.3l1.74,2.17a1.39,1.39,0,0,0,2.17-1.73L123.5,102c.6-.76,1.2-1.52,1.82-2.27l.7,2.1a1.39,1.39,0,1,0,2.64-.89l-1.23-3.73c.65-.76,1.29-1.53,1.95-2.28l.78,2.67a1.4,1.4,0,1,0,2.69-.76l-1.26-4.38c.63-.7,1.27-1.38,1.91-2.06Z"/></clipPath></defs><circle class="cls-2" cx="125" cy="125" r="117.37"/><g id="Capa_30" data-name="Capa 30"><path class="cls-3" d="M149.36,119.31l-.12-.19-.93-1.73c-.08-.15-.12-.31-.2-.45-.22-.42-.45-.82-.68-1.23-.39-.73-.78-1.45-1.14-2.22a1,1,0,0,1,.23.23c.16.27.31.55.46.83q1.16,2.16,2.33,4.32A.41.41,0,0,1,149.36,119.31Z"/><path class="cls-3" d="M149.35,117.77c-.63-1.15-1.25-2.31-1.88-3.47l.05,0a1.87,1.87,0,0,1,.29.34c.5.9,1,1.8,1.47,2.71a2,2,0,0,1,.13.44Z"/><path class="cls-3" d="M117.05,153c.56,1,1.12,2.06,1.67,3.09l0,.05a1.48,1.48,0,0,1-.25-.25c-.48-.88-1-1.76-1.42-2.64a.57.57,0,0,1,0-.24Z"/><path class="cls-3" d="M124.16,154s.07.1.1.16l1.38,2.56a2.75,2.75,0,0,1,.1.34l-.08,0-.1-.14c-.48-.89-1-1.77-1.43-2.66a1.18,1.18,0,0,1-.06-.27Z"/><path class="cls-3" d="M119.61,151.86c.06,0,.15.07.19.13l1,1.82,0,0c-.09-.07-.21-.13-.26-.23-.32-.56-.62-1.13-.93-1.7Z"/><path class="cls-3" d="M126.88,142.65a1.29,1.29,0,0,1,.27.25c.31.56.61,1.12.91,1.68l0,.06c-.08-.08-.2-.14-.25-.24-.32-.56-.62-1.13-.93-1.7Z"/><path class="cls-3" d="M130.52,146.44l-1.2-2.23,0,0a1.6,1.6,0,0,1,.26.26c.32.58.64,1.17.95,1.77a.41.41,0,0,1,0,.22Z"/><path class="cls-3" d="M125.63,141.62c.41.75.8,1.49,1.2,2.23l0,0a1.6,1.6,0,0,1-.26-.26l-.94-1.73C125.54,141.8,125.5,141.71,125.63,141.62Z"/><path class="cls-3" d="M123.45,158.91c-.06,0-.15-.09-.19-.16-.29-.51-.56-1-.81-1.59.08.06.19.1.23.17l.82,1.52Z"/><path class="cls-3" d="M119.91,156.87a1,1,0,0,1-.24-.22l-.93-1.71,0,0c.08.06.19.11.24.2.32.57.62,1.15.94,1.72Z"/><path class="cls-3" d="M120,155.63a1.25,1.25,0,0,1,.26.25c.32.56.62,1.14.93,1.71l0,0a1.25,1.25,0,0,1-.24-.21c-.31-.55-.61-1.11-.91-1.67C120,155.73,120,155.71,120,155.63Z"/><path class="cls-3" d="M122.36,158.39a1.18,1.18,0,0,1-.25-.25c-.3-.53-.58-1.07-.87-1.62a.11.11,0,0,1,0-.11c.07.06.17.1.21.18.33.58.64,1.17,1,1.76Z"/><path class="cls-3" d="M123.17,155.35a1,1,0,0,1-.23-.22c-.32-.57-.62-1.14-.93-1.71l0,0a.87.87,0,0,1,.23.19c.32.57.63,1.15.94,1.73Z"/><path class="cls-3" d="M124.4,156.11c-.08-.08-.19-.14-.24-.24-.31-.54-.6-1.09-.89-1.63a.84.84,0,0,1,0-.13,1.1,1.1,0,0,1,.27.22l.95,1.74Z"/><path class="cls-3" d="M121.94,154.59a1,1,0,0,1-.22-.2c-.32-.57-.63-1.15-.93-1.72l0,0c.08.07.19.12.24.2.32.57.63,1.15.94,1.73Z"/><path class="cls-3" d="M128.08,143.38a1.46,1.46,0,0,1,.28.27c.31.55.6,1.1.9,1.65a.89.89,0,0,1,0,.13,1.46,1.46,0,0,1-.28-.27c-.31-.55-.6-1.11-.9-1.66A1.09,1.09,0,0,0,128.08,143.38Z"/><path class="cls-3" d="M149.14,120.39a6.21,6.21,0,0,1-.78-1.62A3.5,3.5,0,0,1,149.14,120.39Z"/><path class="cls-3" d="M148.44,122.2c-.19-.48-.55-.82-.57-1.31C148.17,121.13,148.55,122,148.44,122.2Z"/><path class="cls-3" d="M117.52,155.36a1.77,1.77,0,0,1-.73-1.36Z"/><path class="cls-3" d="M134.42,126.49a4.16,4.16,0,0,1-.56-1.26C134.14,125.42,134.54,126.3,134.42,126.49Z"/><path class="cls-3" d="M136.41,122.45c-.35-.33-.67-1.07-.56-1.27A4,4,0,0,1,136.41,122.45Z"/><path class="cls-3" d="M131.92,129.18c.48.6.68,1.07.56,1.28l-.28-.52c-.09-.17-.19-.34-.27-.52A.64.64,0,0,1,131.92,129.18Z"/><path class="cls-3" d="M130.54,134.35c-.29-.29-.63-1.08-.54-1.22C130.28,133.4,130.63,134.2,130.54,134.35Z"/><path class="cls-3" d="M138.3,118.47a2.14,2.14,0,0,1-.54-1.22C138,117.49,138.4,118.32,138.3,118.47Z"/><path class="cls-3" d="M146.12,114.63a1.77,1.77,0,0,1-.2-.17.59.59,0,0,1-.1-.17l-.59-1.08,0,0c.06,0,.15,0,.18.1.25.44.48.88.72,1.32Z"/><path class="cls-3" d="M128,137c.34.41.63,1.08.53,1.23C128.27,137.94,127.93,137.18,128,137Z"/><path class="cls-3" d="M126.59,142.07c-.34-.31-.67-1-.58-1.21l.09.1c.16.29.32.57.46.86A.72.72,0,0,1,126.59,142.07Z"/><path class="cls-3" d="M124,144.66c.27.24.62,1,.52,1.18C124.22,145.58,123.87,144.8,124,144.66Z"/><path class="cls-3" d="M119.48,153.09a6.56,6.56,0,0,1-.84-1.36l0,0c.06,0,.14,0,.16.07.24.42.48.86.71,1.29A.18.18,0,0,1,119.48,153.09Z"/><path class="cls-3" d="M121.87,148.32c.34.41.61,1,.51,1.19C122.1,149.22,121.78,148.49,121.87,148.32Z"/><path class="cls-3" d="M125.07,154.49c-.34-.41-.59-1-.5-1.15C124.83,153.57,125.17,154.33,125.07,154.49Z"/><path class="cls-3" d="M127.32,151.07c-.28-.27-.59-1-.49-1.12C127.11,150.22,127.42,150.94,127.32,151.07Z"/><path class="cls-3" d="M131.45,143.36c.33.38.58,1,.48,1.12C131.66,144.2,131.35,143.51,131.45,143.36Z"/><path class="cls-3" d="M129.12,146.62c.32.35.59,1,.49,1.13C129.35,147.49,129,146.78,129.12,146.62Z"/><path class="cls-3" d="M148.86,121.3c-.36-.37-.73-1.19-.62-1.4A5,5,0,0,1,148.86,121.3Z"/><path class="cls-3" d="M134.27,141.24c-.26-.23-.58-1-.48-1.11C134.05,140.38,134.37,141.1,134.27,141.24Z"/><path class="cls-3" d="M141.38,131.71c-.31-.33-.58-1-.49-1.11C141.15,130.83,141.47,131.55,141.38,131.71Z"/><path class="cls-3" d="M143.57,113c.06,0,.14,0,.17.09.17.3.34.62.5.93l0,0c-.06,0-.14,0-.17-.09-.18-.3-.34-.61-.5-.92C143.54,113.06,143.56,113.05,143.57,113Z"/><path class="cls-3" d="M145.68,124.29c.4.55.58,1,.46,1.16-.18-.34-.36-.66-.53-1C145.59,124.43,145.64,124.37,145.68,124.29Z"/><path class="cls-3" d="M143.29,127.45c.34.42.58,1,.47,1.11C143.47,128.25,143.19,127.6,143.29,127.45Z"/><path class="cls-3" d="M136.61,138.05c-.35-.48-.56-1-.47-1.1C136.39,137.14,136.73,137.91,136.61,138.05Z"/><path class="cls-3" d="M138.51,133.77c.25.21.58.94.5,1.08C138.77,134.68,138.41,133.9,138.51,133.77Z"/><path class="cls-3" d="M124.74,156.58c.2.37.41.75.6,1.12a.27.27,0,0,1,0,.23,3.31,3.31,0,0,1-.65-1.33Z"/><path class="cls-3" d="M137.91,119.27c-.34-.42-.63-1.09-.51-1.27a10.68,10.68,0,0,1,.61,1.22Z"/><path class="cls-3" d="M136.76,121.66a2.16,2.16,0,0,1-.55-1.22C136.48,120.67,136.86,121.52,136.76,121.66Z"/><path class="cls-3" d="M135.23,124.87a2.3,2.3,0,0,1-.57-1.24A2.33,2.33,0,0,1,135.23,124.87Z"/><path class="cls-3" d="M133.53,126c.38.52.62,1.08.51,1.26a7.31,7.31,0,0,1-.61-1.22Z"/><path class="cls-3" d="M130.79,131.55c.29.32.63,1.08.53,1.22C131,132.46,130.69,131.7,130.79,131.55Z"/><path class="cls-3" d="M135.07,122.83c.3.34.63,1.08.54,1.22C135.32,123.78,135,123,135.07,122.83Z"/><path class="cls-3" d="M131.68,132c-.43-.65-.6-1-.48-1.26.07.15.14.28.21.4s.23.41.33.62a1,1,0,0,1,0,.25Z"/><path class="cls-3" d="M132.1,131.21c-.37-.49-.63-1.09-.53-1.23C131.84,130.25,132.2,131.05,132.1,131.21Z"/><path class="cls-3" d="M133.12,126.79c.31.37.64,1.08.56,1.24A2.23,2.23,0,0,1,133.12,126.79Z"/><path class="cls-3" d="M132.73,127.59a2.26,2.26,0,0,1,.56,1.24A2.25,2.25,0,0,1,132.73,127.59Z"/><path class="cls-3" d="M130.39,132.33c.31.36.63,1.08.55,1.23C130.68,133.32,130.3,132.5,130.39,132.33Z"/><path class="cls-3" d="M145.09,114.22c-.06,0-.14,0-.17-.09-.2-.35-.38-.71-.58-1.06l0,0c.06,0,.14,0,.17.1l.57,1Z"/><path class="cls-3" d="M140.64,115.3c-.15-.28-.3-.55-.44-.83,0,0,0-.08,0-.13s.11,0,.13.06q.21.36.39.72s0,.11,0,.17Z"/><path class="cls-3" d="M134.28,124.41c.32.38.64,1.08.56,1.24A2.22,2.22,0,0,1,134.28,124.41Z"/><path class="cls-3" d="M136,123.26a2.33,2.33,0,0,1-.56-1.23C135.68,122.21,136.09,123.11,136,123.26Z"/><path class="cls-3" d="M137.54,120.08c-.31-.34-.65-1.1-.55-1.25A2.21,2.21,0,0,1,137.54,120.08Z"/><path class="cls-3" d="M136.6,119.64c.28.27.64,1.07.55,1.22C136.87,120.58,136.51,119.79,136.6,119.64Z"/><path class="cls-3" d="M132.34,128.39c.31.34.64,1.08.55,1.23A2.2,2.2,0,0,1,132.34,128.39Z"/><path class="cls-3" d="M129,137.48a2.41,2.41,0,0,1-.55-1.22C128.63,136.41,129.05,137.31,129,137.48Z"/><path class="cls-3" d="M130.15,135.14c-.33-.38-.63-1.08-.54-1.23A2.15,2.15,0,0,1,130.15,135.14Z"/><path class="cls-3" d="M129.73,135.9c-.34-.42-.62-1.07-.51-1.21C129.54,135.05,129.85,135.78,129.73,135.9Z"/><path class="cls-3" d="M129.35,136.7a2.27,2.27,0,0,1-.55-1.22A2.06,2.06,0,0,1,129.35,136.7Z"/><path class="cls-3" d="M127.39,140.55c-.4-.45-.66-1.06-.55-1.25l.35.65c.06.12.14.24.19.37A.59.59,0,0,1,127.39,140.55Z"/><path class="cls-3" d="M127.22,138.56c.32.36.63,1.08.53,1.22A2.11,2.11,0,0,1,127.22,138.56Z"/><path class="cls-3" d="M128.16,139c-.3-.32-.63-1.07-.53-1.21A2.19,2.19,0,0,1,128.16,139Z"/><path class="cls-3" d="M125.31,144.36c-.34-.44-.61-1.05-.53-1.2C125,143.39,125.41,144.19,125.31,144.36Z"/><path class="cls-3" d="M127,141.31a2.12,2.12,0,0,1-.54-1.19C126.66,140.32,127,141.17,127,141.31Z"/><path class="cls-3" d="M125.72,143.59a2.12,2.12,0,0,1-.53-1.19C125.45,142.62,125.82,143.44,125.72,143.59Z"/><path class="cls-3" d="M124.88,145.13a5.15,5.15,0,0,1-.55-1.2C124.63,144.14,125,144.94,124.88,145.13Z"/><path class="cls-3" d="M123.23,148.07c-.32-.41-.6-1-.53-1.18C122.93,147,123.33,147.9,123.23,148.07Z"/><path class="cls-3" d="M122.81,148.79c-.31-.37-.6-1-.52-1.17C122.53,147.83,122.9,148.63,122.81,148.79Z"/><path class="cls-3" d="M124.05,146.61a4.38,4.38,0,0,1-.54-1.19C123.8,145.61,124.17,146.43,124.05,146.61Z"/><path class="cls-3" d="M148.05,122.88c-.33-.38-.61-1-.51-1.21.19.36.39.71.57,1.06C148.12,122.76,148.07,122.82,148.05,122.88Z"/><path class="cls-3" d="M123.65,147.31a2.07,2.07,0,0,1-.52-1.17C123.38,146.35,123.75,147.17,123.65,147.31Z"/><path class="cls-3" d="M121.52,151c-.46-.68-.61-1-.49-1.2.19.35.38.69.56,1C121.61,150.84,121.55,150.9,121.52,151Z"/><path class="cls-3" d="M121.46,149.05c.35.46.59,1,.51,1.16C121.72,150,121.35,149.21,121.46,149.05Z"/><path class="cls-3" d="M121.09,151.65c-.32-.37-.6-1-.51-1.16C120.83,150.72,121.18,151.49,121.09,151.65Z"/><path class="cls-3" d="M138.2,116.54c.33.39.6,1,.51,1.16C138.46,117.47,138.11,116.69,138.2,116.54Z"/><path class="cls-3" d="M126.39,150.56a4.16,4.16,0,0,1,.52,1.17C126.59,151.46,126.29,150.77,126.39,150.56Z"/><path class="cls-3" d="M126.43,152.44c-.32-.36-.6-1-.49-1.18l.55,1S126.45,152.38,126.43,152.44Z"/><path class="cls-3" d="M125.52,153.8c-.32-.38-.59-1-.5-1.14C125.26,152.87,125.61,153.64,125.52,153.8Z"/><path class="cls-3" d="M128.67,147.28c.34.41.58,1,.48,1.12C128.87,148.12,128.57,147.43,128.67,147.28Z"/><path class="cls-3" d="M120.14,151.2c.25.23.6,1,.52,1.13C120.42,152.15,120.05,151.34,120.14,151.2Z"/><path class="cls-3" d="M147.1,122.42c.26.25.58,1,.5,1.11C147.35,123.34,147,122.56,147.1,122.42Z"/><path class="cls-3" d="M128.69,149.07c-.26-.27-.58-1-.49-1.11C128.45,148.16,128.79,148.93,128.69,149.07Z"/><path class="cls-3" d="M125.93,153.11a5.9,5.9,0,0,1-.54-1.1l.12,0a6.6,6.6,0,0,1,.54,1.1Z"/><path class="cls-3" d="M132.39,143.82c-.29-.3-.57-1-.47-1.1C132.21,143,132.5,143.7,132.39,143.82Z"/><path class="cls-3" d="M137.57,135c.28.3.57,1,.48,1.09C137.79,135.88,137.47,135.16,137.57,135Z"/><path class="cls-3" d="M129.59,146c.28.3.58,1,.49,1.11C129.86,146.91,129.5,146.13,129.59,146Z"/><path class="cls-3" d="M130.51,144.66c.29.31.58,1,.5,1.11C130.78,145.59,130.42,144.82,130.51,144.66Z"/><path class="cls-3" d="M133.32,140.77c.31.36.58,1,.49,1.11C133.56,141.68,133.22,140.93,133.32,140.77Z"/><path class="cls-3" d="M127.3,149.24a3.88,3.88,0,0,1,.52,1.14C127.54,150.18,127.2,149.44,127.3,149.24Z"/><path class="cls-3" d="M127.75,148.61c.33.42.58,1,.49,1.12C128,149.56,127.65,148.76,127.75,148.61Z"/><path class="cls-3" d="M132.39,142.06c.35.46.57,1,.48,1.11C132.62,143,132.28,142.21,132.39,142.06Z"/><path class="cls-3" d="M140.38,131.25c.37.35.62.95.48,1.1A3.83,3.83,0,0,1,140.38,131.25Z"/><path class="cls-3" d="M133.33,142.52c-.28-.27-.58-1-.47-1.09C133.14,141.72,133.43,142.4,133.33,142.52Z"/><path class="cls-3" d="M131,144c.32.38.57,1,.48,1.11C131.22,144.89,130.89,144.16,131,144Z"/><path class="cls-3" d="M134.28,139.47a4.59,4.59,0,0,1,.52,1.1C134.49,140.38,134.16,139.63,134.28,139.47Z"/><path class="cls-3" d="M118,153.43c-.31-.35-.58-1-.49-1.11C117.72,152.53,118.05,153.25,118,153.43Z"/><path class="cls-3" d="M135.21,140c-.32-.37-.58-1-.48-1.11C135,139.13,135.3,139.81,135.21,140Z"/><path class="cls-3" d="M138.67,115.88c.35.44.57,1,.46,1.11C138.84,116.67,138.57,116,138.67,115.88Z"/><path class="cls-3" d="M145.17,125c.33.3.61,1,.48,1.1A3.35,3.35,0,0,1,145.17,125Z"/><path class="cls-3" d="M139,133.13c.28.3.57,1,.48,1.09C139.21,134,138.89,133.26,139,133.13Z"/><path class="cls-3" d="M137.1,135.67c.26.27.57,1,.48,1.09C137.32,136.54,137,135.8,137.1,135.67Z"/><path class="cls-3" d="M139.48,132.49c.35.47.56,1,.47,1.1C139.69,133.37,139.37,132.63,139.48,132.49Z"/><path class="cls-3" d="M138.05,134.4c.3.33.57,1,.47,1.08C138.24,135.22,137.94,134.52,138.05,134.4Z"/><path class="cls-3" d="M137.09,137.41c-.31-.37-.57-1-.47-1.1C136.88,136.56,137.19,137.26,137.09,137.41Z"/><path class="cls-3" d="M135.68,137.57c.3.36.56,1,.49,1.09C135.94,138.51,135.58,137.72,135.68,137.57Z"/><path class="cls-3" d="M147.09,124.21a4.51,4.51,0,0,1-.5-1.1C146.89,123.32,147.21,124,147.09,124.21Z"/><path class="cls-3" d="M140.42,133c-.3-.35-.57-1-.48-1.09C140.18,132.07,140.52,132.81,140.42,133Z"/><path class="cls-3" d="M146.62,124.8c-.35-.45-.56-1-.46-1.09C146.44,124,146.73,124.67,146.62,124.8Z"/><path class="cls-3" d="M141.85,131.08c-.28-.31-.57-1-.49-1.09C141.59,130.15,141.94,130.92,141.85,131.08Z"/><path class="cls-3" d="M141.87,129.31c.18.34.36.64.52,1,0,0,0,.12,0,.2C142,130.09,141.76,129.49,141.87,129.31Z"/><path class="cls-3" d="M142.8,129.88a5.26,5.26,0,0,1-.54-1.13l.09-.05c.18.33.36.65.52,1C142.89,129.71,142.84,129.77,142.8,129.88Z"/><path class="cls-3" d="M143.28,129.18c-.3-.34-.57-1-.48-1.08C143,128.29,143.38,129,143.28,129.18Z"/><path class="cls-3" d="M144.22,128a4.66,4.66,0,0,1-.51-1.09C144,127.05,144.33,127.78,144.22,128Z"/><path class="cls-3" d="M144.73,127.33c-.33-.4-.58-1-.46-1.16.16.31.32.6.47.88a.2.2,0,0,1,0,.08C144.77,127.19,144.75,127.25,144.73,127.33Z"/><path class="cls-3" d="M135.21,138.21c.31.38.56,1,.49,1.1C135.47,139.15,135.1,138.36,135.21,138.21Z"/><path class="cls-3" d="M144.71,125.56c.31.35.58,1,.47,1.14l-.53-1S144.69,125.62,144.71,125.56Z"/><path class="cls-3" d="M139.61,116.37c-.32-.41-.54-.94-.44-1.05C139.43,115.57,139.71,116.21,139.61,116.37Z"/><path class="cls-3" d="M124.39,157.46c.16.29.32.58.47.87a.31.31,0,0,1,0,.15s-.09,0-.11-.07l-.41-.76c0-.05,0-.12,0-.18Z"/><path class="cls-3" d="M123.66,157.82c.06,0,.14.07.17.12.14.23.27.47.39.71,0,0,0,.11,0,.16s-.11,0-.13-.06c-.16-.29-.32-.57-.47-.86Z"/><path class="cls-3" d="M140.09,115.8l-.45-.85s0-.1,0-.15.1,0,.12.08c.14.23.27.47.39.71a.67.67,0,0,1,0,.2Z"/><path class="cls-3" d="M143.38,114.11a.36.36,0,0,1-.15-.08c-.16-.27-.3-.56-.46-.84l0,0c.06,0,.14,0,.17.07.16.28.3.56.45.84Z"/><path class="cls-3" d="M118.18,152.4c-.06-.12-.13-.24-.18-.36s0-.1,0-.15.1,0,.11.06c.15.25.29.5.42.76,0,0,0,.08,0,.13s-.1,0-.12-.05-.14-.26-.22-.39Z"/><path class="cls-3" d="M142.11,113.32s.13,0,.15.09c.14.23.27.47.39.71,0,0,0,.08,0,.13s-.12,0-.14,0c-.15-.27-.3-.54-.44-.82Z"/><path class="cls-3" d="M141.62,114.09c-.06-.12-.13-.23-.19-.36a.27.27,0,0,1,0-.12c.05,0,.11,0,.12,0,.14.24.27.48.4.73,0,0,0,.09,0,.13s-.11,0-.12-.05-.14-.25-.21-.37Z"/><path class="cls-3" d="M141,114.44l-.2-.37s0-.09,0-.13.1,0,.12,0c.14.24.27.48.39.73,0,0,0,.08,0,.13s-.1,0-.12,0-.13-.24-.19-.36Z"/><path class="cls-4" d="M105.13,109.37H79.39C73.43,87.44,88.21,70,107.28,70s35.27,21,27.17,39.33Z"/><g class="cls-5"><path class="cls-6" d="M107.2,68.73a30.55,30.55,0,1,0,30.55,30.56A30.57,30.57,0,0,0,107.2,68.73Zm0,2.76a27.75,27.75,0,0,1,25.15,16q-1.53,1.62-3,3.29c-1.37-.18-2.8-.41-4.14-.56a1.39,1.39,0,0,0-.11,2.78l2,.28c-.68.76-1.36,1.54-2,2.32-1.09-.18-2.25-.39-3.32-.52a1.44,1.44,0,0,0-1.48,1.29,1.46,1.46,0,0,0,1.29,1.49l1.45.23c-.69.85-1.38,1.7-2.06,2.56h-3.45a1.39,1.39,0,0,0,.13,2.78h1.22c-.69.92-1.37,1.84-2,2.78h-3.49a1.39,1.39,0,0,0,.13,2.77H115c-.6.93-1.2,1.85-1.76,2.78h-3.34a1.39,1.39,0,0,0,.13,2.78h1.61c-.51.92-1,1.85-1.46,2.77h-3a1.39,1.39,0,1,0,.13,2.78h1.62c-.4.92-.79,1.85-1.14,2.78h-4.08a1.39,1.39,0,0,0,.13,2.77h3c-.14.46-.26.92-.39,1.37a27.75,27.75,0,0,1-24.14-15.67c.2-1.5.39-3,.58-4.55l3.08-3.28.59,1.73a1.4,1.4,0,0,0,2.65-.89l-1.06-3.16L90,99.12l.65,2a1.39,1.39,0,1,0,2.64-.89L92.1,96.72c.75-.86,1.49-1.72,2.21-2.61l.48,1.43a1.4,1.4,0,0,0,2.65-.88l-1.07-3.19c.73-1,1.43-1.93,2.11-2.91L99,90a1.39,1.39,0,1,0,2.64-.89l-1.17-3.51c.48-.79.95-1.58,1.39-2.39l.69,1.41A1.39,1.39,0,1,0,105,83.37l-1.63-3.23c.33-.7.66-1.41,1-2.13l.42.57a1.39,1.39,0,1,0,2.21-1.67l-1.5-2c.37-1.11.66-2.25.94-3.41Zm-3.75.26c-.16.62-.33,1.23-.52,1.84h-2.79a1.39,1.39,0,1,0,.13,2.78H102c-.28.71-.58,1.39-.89,2.08h-4.4a1.39,1.39,0,1,0,.13,2.78h2.9c-.47.9-1,1.78-1.54,2.65-1.39-.2-2.85-.43-4.23-.59a1.39,1.39,0,1,0-.1,2.78l2.69.39c-.68,1-1.38,2-2.11,3-1.51-.38-3.08-1-4.57-1.26a1.45,1.45,0,0,0-1.4,1.2,1.43,1.43,0,0,0,1,1.53l3.1.89c-.83,1-1.68,2.07-2.56,3.09a31.36,31.36,0,0,0-3.73-1.16A1.39,1.39,0,0,0,86,96.42l2.07.69-1.85,2a38.37,38.37,0,0,0-4-1.26,1.39,1.39,0,0,0-.33,2.71l2.28.76c-.86.91-1.7,1.83-2.56,2.74l-1.72-.44a28.4,28.4,0,0,1-.34-4.36A27.75,27.75,0,0,1,103.45,71.75ZM133.5,90.37a27.77,27.77,0,0,1-20.85,36.15,1.42,1.42,0,0,0-.56-1.06l-1.8-1.57c.38-1,.8-2,1.25-3l1.63,1.62a1.39,1.39,0,1,0,2-2l-2.3-2.3c.48-1,1-1.91,1.54-2.87l1.58,1.59a1.39,1.39,0,1,0,2-2l-2.08-2.08c.6-1,1.22-2,1.87-2.93l1.62,2a1.39,1.39,0,1,0,2.17-1.74l-2.14-2.69c.77-1.1,1.58-2.21,2.4-3.3l1.74,2.17a1.39,1.39,0,0,0,2.17-1.73L123.5,102c.6-.76,1.2-1.52,1.82-2.27l.7,2.1a1.39,1.39,0,1,0,2.64-.89l-1.23-3.73c.65-.76,1.29-1.53,1.95-2.28l.78,2.67a1.4,1.4,0,1,0,2.69-.76l-1.26-4.38c.63-.7,1.27-1.38,1.91-2.06Z"/></g><g class="cls-5"><g id="lineas"><path class="cls-7" d="M71.09,160.06l.44,0H149c.15,0,.3,0,.44,0v.34l-.44,0H71.54l-.45,0Z"/><path class="cls-7" d="M149.47,143.2l-.44,0H71.54l-.45,0v-.34l.45,0H149l.45,0C149.47,143,149.47,143.09,149.47,143.2Z"/><path class="cls-7" d="M71.09,148.6l.44,0H149l.44,0v.34c-.14,0-.29,0-.44,0H71.54l-.45,0Z"/><path class="cls-7" d="M71.09,165.8l.44,0H149l.44,0v.34l-.44,0H71.54l-.45,0Z"/><path class="cls-7" d="M149.47,137.47c-.14,0-.29,0-.44,0H71.54l-.45,0v-.34l.45,0H149l.45,0C149.47,137.24,149.47,137.35,149.47,137.47Z"/><path class="cls-7" d="M71.09,131.39l.44,0H149l.44,0v.34l-.44,0H71.54l-.45,0Z"/><path class="cls-7" d="M149.47,171.88c-.14,0-.29,0-.44,0H71.54l-.45,0v-.35l.45,0H149l.45,0C149.47,171.65,149.47,171.76,149.47,171.88Z"/><path class="cls-7" d="M71.09,125.66l.44,0H149l.44,0V126c-.14,0-.29,0-.44,0H71.54c-.15,0-.3,0-.45,0Z"/><path class="cls-7" d="M149.47,177.61l-.44,0H71.54l-.45,0v-.34l.45,0H149l.45,0C149.47,177.38,149.47,177.5,149.47,177.61Z"/><path class="cls-7" d="M71.09,119.92l.44,0H149l.44,0v.34l-.44,0H71.54l-.45,0Z"/><path class="cls-7" d="M71.09,114.19l.44,0H149l.44,0v.34c-.14,0-.29,0-.44,0H71.54c-.15,0-.3,0-.45,0Z"/><path class="cls-7" d="M149.47,183.34l-.44,0H71.54l-.45,0V183l.45,0H149l.45,0C149.47,183.12,149.47,183.23,149.47,183.34Z"/><path class="cls-7" d="M71.09,154.33l.44,0H149l.44,0v.34l-.44,0H71.54l-.45,0Z"/><path class="cls-7" d="M149.47,153.51H71.09v-.27l.45,0H149c.15,0,.3,0,.44,0Z"/><path class="cls-7" d="M71.09,155.49h78.38v.27c-.15,0-.29,0-.44,0H71.53c-.15,0-.29,0-.44,0Z"/><path class="cls-7" d="M71.09,152.08h78.38v.27H71.09Z"/><path class="cls-7" d="M149.47,156.92l-.47,0H71.57l-.48,0v-.27h78.39A2.44,2.44,0,0,0,149.47,156.92Z"/><path class="cls-7" d="M71.09,150.92h78.38v.27H71.09Z"/><path class="cls-7" d="M71.09,157.81h78.38v.28H71.09Z"/><path class="cls-7" d="M71.09,149.76h78.38V150l-.44,0H71.53l-.44,0Z"/><path class="cls-7" d="M149.47,159.25l-.47,0H71.57l-.48,0V159l.45,0H149l.44,0Z"/><path class="cls-7" d="M149.47,147.78l-.47,0H71.57l-.48,0v-.28l.45,0H149l.44,0Z"/><path class="cls-7" d="M149.47,146.61H71.09v-.27h78.38Z"/><path class="cls-7" d="M71.09,145.18h78.38v.28H71.09Z"/><path class="cls-7" d="M71.09,161.22l.48,0H149l.48,0v.28l-.44,0H71.53l-.44,0Z"/><path class="cls-7" d="M71.09,144h78.38v.28l-.44,0H71.53l-.44,0Z"/><path class="cls-7" d="M149.47,162.66H71.09v-.27h78.39A2.44,2.44,0,0,0,149.47,162.66Z"/><path class="cls-7" d="M149.47,142H71.09v-.27l.45,0H149c.15,0,.3,0,.44,0Z"/><path class="cls-7" d="M149.47,163.82H71.09v-.27l.48,0H149l.48,0Z"/><path class="cls-7" d="M71.09,140.61l.48,0H149l.48,0v.27H71.09Z"/><path class="cls-7" d="M149.47,165H71.09v-.27l.45,0H149c.15,0,.3,0,.44,0Z"/><path class="cls-7" d="M71.09,139.45h78.38v.27H71.09Z"/><path class="cls-7" d="M71.09,138.28l.48,0H149l.48,0v.28l-.44,0H71.53l-.44,0Z"/><path class="cls-7" d="M149.47,136.31l-.47,0H71.57l-.48,0V136l.45,0H149l.44,0Z"/><path class="cls-7" d="M71.09,167h78.38v.27c-.15,0-.29,0-.44,0H71.53c-.15,0-.29,0-.44,0Z"/><path class="cls-7" d="M71.09,134.87h78.38v.28H71.09Z"/><path class="cls-7" d="M149.47,168.39l-.47,0H71.57l-.48,0v-.27h78.39A2.44,2.44,0,0,0,149.47,168.39Z"/><path class="cls-7" d="M71.09,133.71h78.38V134H71.09Z"/><path class="cls-7" d="M149.47,169.55H71.09v-.27h78.38Z"/><path class="cls-7" d="M71.09,132.55h78.38v.27c-.15,0-.29,0-.44,0H71.53c-.15,0-.29,0-.44,0Z"/><path class="cls-7" d="M149.47,170.71H71.09v-.27l.45,0H149l.44,0Z"/><path class="cls-7" d="M149.47,130.57H71.09v-.27l.45,0H149c.15,0,.3,0,.44,0Z"/><path class="cls-7" d="M149.47,129.41H71.09v-.27h78.38Z"/><path class="cls-7" d="M149.47,128.25H71.09V128h78.39A2.44,2.44,0,0,0,149.47,128.25Z"/><path class="cls-7" d="M71.09,172.7h78.38V173l-.44,0H71.53l-.44,0Z"/><path class="cls-7" d="M71.09,126.82h78.38v.27l-.44,0H71.53l-.44,0Z"/><path class="cls-7" d="M71.09,173.86h78.38v.27H71.09Z"/><path class="cls-7" d="M149.47,124.84l-.47,0H71.57l-.48,0v-.28l.45,0H149l.44,0Z"/><path class="cls-7" d="M71.09,175l.48,0H149l.48,0v.27H71.09Z"/><path class="cls-7" d="M149.47,123.67H71.09v-.27h78.38Z"/><path class="cls-7" d="M149.47,176.45H71.09v-.27l.45,0H149c.15,0,.3,0,.44,0Z"/><path class="cls-7" d="M149.47,122.51l-.47,0H71.57l-.48,0v-.27h78.39A2.44,2.44,0,0,0,149.47,122.51Z"/><path class="cls-7" d="M71.09,121.08h78.38v.28l-.44,0H71.53l-.44,0Z"/><path class="cls-7" d="M149.47,119.1H71.09v-.27c.15,0,.3,0,.45,0H149c.15,0,.3,0,.44,0Z"/><path class="cls-7" d="M71.09,178.43h78.38v.27c-.15,0-.29,0-.44,0H71.53c-.15,0-.29,0-.44,0Z"/><path class="cls-7" d="M149.47,117.94H71.09v-.27l.48,0H149l.48,0Z"/><path class="cls-7" d="M71.09,179.59h78.38v.27l-.47,0H71.57l-.48,0Z"/><path class="cls-7" d="M149.47,116.78H71.09v-.27h78.39A2.44,2.44,0,0,0,149.47,116.78Z"/><path class="cls-7" d="M71.09,180.75h78.38V181H71.09Z"/><path class="cls-7" d="M71.09,115.35h78.38v.27c-.15,0-.29,0-.44,0H71.53c-.15,0-.29,0-.44,0Z"/><path class="cls-7" d="M149.47,182.18H71.09v-.27l.45,0H149l.44,0Z"/><path class="cls-7" d="M149.47,113.37l-.47,0H71.57l-.48,0v-.28l.45,0H149l.44,0Z"/><path class="cls-7" d="M149.47,112.21H71.09v-.28h78.38Z"/><path class="cls-7" d="M149.47,111.05H71.09v-.28h78.39A2.53,2.53,0,0,0,149.47,111.05Z"/><path class="cls-7" d="M71.09,184.16l.48,0H149l.48,0v.28l-.44,0H71.53l-.44,0Z"/><path class="cls-7" d="M71.09,109.61h78.38v.27c-.15,0-.29,0-.44,0H71.53c-.15,0-.29,0-.44,0Z"/><path class="cls-7" d="M71.09,185.32h78.38v.28H71.09Z"/><path class="cls-7" d="M149.47,108.79l-.44,0H71.54l-.45,0c0-.11,0-.26.18-.2h77.9C149.3,108.59,149.53,108.49,149.47,108.79Z"/><path class="cls-7" d="M71.09,186.49l.48,0H149l.48,0s0,.06,0,.06h-78A1.7,1.7,0,0,1,71.09,186.49Z"/></g></g></g><path class="cls-8" d="M63.41,111.71v53.2a6.14,6.14,0,0,0,6.06,6.25h111a6.16,6.16,0,0,0,6.1-6.25v-53.2a6.17,6.17,0,0,0-6.1-6.26h-111A6.15,6.15,0,0,0,63.41,111.71ZM178,109.58V167H69.52V109.58Z"/></svg>