<svg id="Capa_1" data-name="Capa 1" xmlns="http://www.w3.org/2000/svg" viewBox="0 0 250 250"><defs><style>.cls-1{fill:#e6e7e8;}.cls-2{fill:#95b6e5;}.cls-3{fill:#fff;}.cls-4{fill:#f17533;}.cls-5{fill:#a3c771;}.cls-6{fill:#0a1e3f;}</style></defs><circle class="cls-1" cx="125" cy="125" r="117.37"/><path class="cls-2" d="M163.59,79.51H86.41a6.91,6.91,0,0,0-6.89,6.87v60.67a6.88,6.88,0,0,0,6.89,6.87h28l-2,6.91h-4.64a4.8,4.8,0,0,0-4.81,4.83,4.85,4.85,0,0,0,4.81,4.83h34.46a4.87,4.87,0,0,0,4.83-4.83,4.81,4.81,0,0,0-4.83-4.83h-4.64l-2-6.91h28a6.88,6.88,0,0,0,6.89-6.87V86.38A6.91,6.91,0,0,0,163.59,79.51Z"/><path class="cls-3" d="M159.46,87.78H90.54a2.76,2.76,0,0,0-2.76,2.78v52.36a2.76,2.76,0,0,0,2.76,2.74h68.92a2.76,2.76,0,0,0,2.76-2.74V90.56A2.76,2.76,0,0,0,159.46,87.78Z"/><path class="cls-4" d="M97.36,97.92h2.06a1.38,1.38,0,0,0,1.37-1.39,1.36,1.36,0,0,0-1.37-1.35H97.36A1.37,1.37,0,0,0,96,96.53,1.39,1.39,0,0,0,97.36,97.92Z"/><path class="cls-4" d="M97.36,106h2.06a1.37,1.37,0,1,0,0-2.74H97.36a1.37,1.37,0,1,0,0,2.74Z"/><path class="cls-4" d="M97.36,122.14h2.06a1.37,1.37,0,1,0,0-2.74H97.36a1.37,1.37,0,1,0,0,2.74Z"/><path class="cls-4" d="M99.42,135.51H97.36a1.39,1.39,0,1,0,0,2.78h2.06a1.39,1.39,0,0,0,0-2.78Z"/><path class="cls-5" d="M97.36,130.2h10.51a1.37,1.37,0,1,0,0-2.74H97.36a1.37,1.37,0,1,0,0,2.74Z"/><path class="cls-4" d="M113.88,128.85a1.38,1.38,0,0,0,1.4,1.35h13.27a1.37,1.37,0,1,0,0-2.74H115.28A1.38,1.38,0,0,0,113.88,128.85Z"/><path class="cls-6" d="M129.43,112.69A1.38,1.38,0,0,0,128,111.3h-9.61a1.39,1.39,0,0,0,0,2.78H128A1.38,1.38,0,0,0,129.43,112.69Z"/><path class="cls-4" d="M123.58,97.92h9a1.38,1.38,0,0,0,1.37-1.39,1.37,1.37,0,0,0-1.37-1.35h-9a1.37,1.37,0,0,0-1.39,1.35A1.38,1.38,0,0,0,123.58,97.92Z"/><path class="cls-4" d="M107.91,97.92h8.74A1.37,1.37,0,0,0,118,96.53a1.36,1.36,0,0,0-1.36-1.35h-8.74a1.37,1.37,0,0,0-1.39,1.35A1.38,1.38,0,0,0,107.91,97.92Z"/><path class="cls-4" d="M107.91,106h12a1.37,1.37,0,1,0,0-2.74h-12a1.37,1.37,0,1,0,0,2.74Z"/><path class="cls-4" d="M125.44,104.63a1.39,1.39,0,0,0,1.39,1.35h9.74a1.37,1.37,0,1,0,0-2.74h-9.74A1.39,1.39,0,0,0,125.44,104.63Z"/><path class="cls-4" d="M152.42,103.24h-9a1.37,1.37,0,1,0,0,2.74h9a1.37,1.37,0,1,0,0-2.74Z"/><path class="cls-4" d="M121.66,119.4H107.91a1.37,1.37,0,1,0,0,2.74h13.75a1.37,1.37,0,0,0,0-2.74Z"/><path class="cls-4" d="M135.44,119.4h-6.87a1.37,1.37,0,1,0,0,2.74h6.87a1.37,1.37,0,1,0,0-2.74Z"/><path class="cls-4" d="M152,119.4h-9.61a1.37,1.37,0,1,0,0,2.74H152a1.37,1.37,0,1,0,0-2.74Z"/><path class="cls-4" d="M97.36,114.08h14.15a1.39,1.39,0,0,0,0-2.78H97.36a1.39,1.39,0,1,0,0,2.78Z"/><path class="cls-4" d="M133.6,112.69a1.37,1.37,0,0,0,1.37,1.39h13.38a1.39,1.39,0,0,0,0-2.78H135A1.37,1.37,0,0,0,133.6,112.69Z"/><path class="cls-4" d="M114.4,135.51h-6.49a1.39,1.39,0,0,0,0,2.78h6.49a1.39,1.39,0,0,0,0-2.78Z"/><path class="cls-4" d="M133.19,135.51H121.31a1.39,1.39,0,0,0,0,2.78h11.88a1.39,1.39,0,0,0,0-2.78Z"/><path class="cls-4" d="M148.35,135.51h-7.73a1.39,1.39,0,1,0,0,2.78h7.73a1.39,1.39,0,0,0,0-2.78Z"/><path class="cls-4" d="M139.49,97.92h6.59a1.38,1.38,0,0,0,1.39-1.39,1.37,1.37,0,0,0-1.39-1.35h-6.59a1.37,1.37,0,0,0-1.39,1.35A1.38,1.38,0,0,0,139.49,97.92Z"/></svg>