<svg id="Capa_1" data-name="Capa 1" xmlns="http://www.w3.org/2000/svg" viewBox="0 0 250 250"><defs><style>.cls-1{fill:#e6e7e8;}.cls-2{fill:#e68f47;}.cls-3{fill:#7d2796;}.cls-4{fill:#a3c771;}</style></defs><circle class="cls-1" cx="125" cy="125" r="117.37"/><path class="cls-2" d="M119.41,112,74.1,154.66a1.35,1.35,0,0,0,0,1.93l7.24,7.24a1.33,1.33,0,0,0,1.93,0l42.65-45.3a1.35,1.35,0,0,0,0-1.87l-4.57-4.57A1.35,1.35,0,0,0,119.41,112Z"/><path class="cls-3" d="M163,162.9a1.42,1.42,0,0,0-1-.43H117.08a1.46,1.46,0,0,0-1,.43,1.44,1.44,0,0,0-.43,1v5H110.5v5h-7.81v5h73.63v-5h-7.8v-5H163.4v-5A1.42,1.42,0,0,0,163,162.9Z"/><path class="cls-2" d="M112.74,98.28l26.05,26.05,17.84-17.84a6.17,6.17,0,0,1,.57-.47L131.05,79.87a6.17,6.17,0,0,1-.47.57Z"/><path class="cls-4" d="M157.2,106a6.17,6.17,0,0,0-.57.47l-17.84,17.84-.25.25a5.48,5.48,0,1,0,7.75,7.76l18.1-18.09A5.48,5.48,0,0,0,157.2,106Z"/><path class="cls-4" d="M122.82,72.68l-18.09,18.1a5.49,5.49,0,0,0,7.76,7.76l.25-.26,17.84-17.84a6.17,6.17,0,0,0,.47-.57,5.48,5.48,0,0,0-8.23-7.19Z"/></svg>