<svg id="Capa_1" data-name="Capa 1" xmlns="http://www.w3.org/2000/svg" viewBox="0 0 250 250"><defs><style>.cls-1{fill:#e6e7e8;}.cls-2{fill:#0a1e3f;}.cls-3{fill:#95b6e5;}.cls-4{fill:#fff;}</style></defs><circle class="cls-1" cx="125" cy="125" r="117.37"/><path class="cls-2" d="M125.94,80.63a43.25,43.25,0,0,0-43.09,38.82,34,34,0,0,0-.23,4.15,42.59,42.59,0,0,0,8.26,25.22l-5.35,16,16.62-5.3a43.32,43.32,0,0,0,67.11-35.92,31.72,31.72,0,0,0-.12-3.35A43.22,43.22,0,0,0,125.94,80.63Z"/><path class="cls-2" d="M125.94,72.55a51.19,51.19,0,0,0-51.4,48.83,14.68,14.68,0,0,0-.11,2.22A51.1,51.1,0,0,0,81.83,150l-9.34,27.43,28.58-9a51.72,51.72,0,0,0,24.87,6.32c28.46,0,51.57-22.83,51.57-51.12,0-.45-.06-.79-.06-1.25A51.34,51.34,0,0,0,125.94,72.55Zm0,94.09a43.13,43.13,0,0,1-23.79-7.12l-16.62,5.3,5.35-16a42.59,42.59,0,0,1-8.26-25.22,34,34,0,0,1,.23-4.15,43.34,43.34,0,0,1,86.29.8,31.72,31.72,0,0,1,.12,3.35A43.25,43.25,0,0,1,125.94,166.64Z"/><path class="cls-3" d="M125.86,77.31a46.55,46.55,0,0,0-46.74,44.4,13.34,13.34,0,0,0-.1,2c0,8.75,3.08,18,7.33,25l-7.18,21.52,22.8-6.49a52.63,52.63,0,0,0,23.89,6.42,46.66,46.66,0,0,0,46.88-46.48c0-.41-.05-.72-.05-1.14A46.68,46.68,0,0,0,125.86,77.31Zm.08,89.33a43.13,43.13,0,0,1-23.79-7.12l-16.62,5.3,5.35-16a42.59,42.59,0,0,1-8.26-25.22,34,34,0,0,1,.23-4.15,43.34,43.34,0,0,1,86.29.8,31.72,31.72,0,0,1,.12,3.35A43.25,43.25,0,0,1,125.94,166.64Z"/><path class="cls-4" d="M118.8,135.56h8.54c3.39,0,5.75-1.2,5.75-4.59,0-3.61-2.53-4.81-5.75-4.81H118.8Zm0-16.28h8.26c1.83,0,4.36-1,4.36-3.9s-2.12-4-4.36-4H118.8Zm-10.67-16.12h19.16c7.06-.11,14.8,1.72,14.8,10.26a9.2,9.2,0,0,1-5.4,8.26,9.72,9.72,0,0,1,7.06,9.7c0,9.75-7.17,12.73-15.94,12.73H108.13Z"/></svg>