<svg xmlns="http://www.w3.org/2000/svg" viewBox="0 0 160 78.75"><defs><style>.cls-1{fill:#70d14d;}.cls-2{fill:#fff;}.cls-3{fill:#001783;}</style></defs><g id="Modo_de_aislamiento" data-name="Modo de aislamiento"><path class="cls-1" d="M30.86,67.22h4.32v1.56H32.74v1.54h1.61v1.45H32.74v2.87H30.86Z"/><path class="cls-1" d="M40.63,67.22h2.68l2.24,7.42H43.62l-.38-1.24H40.7l-.38,1.24H38.39Zm.53,4.62h1.61l-.57-1.91c-.07-.23-.13-.56-.13-.56h-.21s-.06.34-.12.56Z"/><path class="cls-1" d="M53.89,71.85l1.73,2.79H53.44l-1.56-2.55H51.6v2.55H49.71V67.22h2.85a2.71,2.71,0,0,1,1.86.56,2.6,2.6,0,0,1,.77,1.93,2.34,2.34,0,0,1-.78,1.83A2.31,2.31,0,0,1,53.89,71.85ZM53.09,69a.81.81,0,0,0-.58-.19H51.6v1.86h.91a.84.84,0,0,0,.58-.22,1,1,0,0,0,.21-.73A1,1,0,0,0,53.09,69Z"/><path class="cls-1" d="M64.12,73.69h-.93L62,71.06a5.24,5.24,0,0,1-.23-.68H61.6s.07.79.07,1.1v3.15H59.78V67.22h2.09l1.74,3.92h.1l1.73-3.92h2.1v7.42H65.65V71.49c0-.31.07-1.1.07-1.1h-.16a5.24,5.24,0,0,1-.23.68Z"/><path class="cls-1" d="M73.94,67.22h2.68l2.24,7.42H76.93l-.38-1.24H74l-.38,1.24H71.7Zm.53,4.62h1.61l-.57-1.91c-.06-.23-.13-.56-.13-.56h-.21s-.06.34-.12.56Z"/><path class="cls-1" d="M88,74.3a4.53,4.53,0,0,1-2.16.5,3.82,3.82,0,0,1-2.22-.65c-.58-.49-1-1.28-1-3.22s.42-2.6,1-3.11a3.33,3.33,0,0,1,2.27-.77,5.58,5.58,0,0,1,1.92.35l-.33,1.48a4.26,4.26,0,0,0-1.29-.22,1.73,1.73,0,0,0-1.17.39c-.25.24-.46.74-.46,1.89s.21,1.68.5,1.92a1.71,1.71,0,0,0,1.13.34,5.06,5.06,0,0,0,1.53-.28Z"/><path class="cls-1" d="M92.19,67.22h1.89v7.42H92.19Z"/><path class="cls-1" d="M100.47,67.22h2.68l2.24,7.42h-1.93l-.38-1.24h-2.54l-.38,1.24H98.23Zm.53,4.62h1.61L102,69.93c-.07-.23-.13-.56-.13-.56h-.21s-.06.34-.12.56Z"/><path class="cls-1" d="M112.21,74.8a6.84,6.84,0,0,1-2.74-.62l.34-1.51a5.68,5.68,0,0,0,2.2.53c.53,0,.93-.24.93-.76,0-.36-.19-.6-.65-.71l-.8-.19c-1.2-.27-2.11-.74-2.11-2.18s.93-2.31,2.71-2.31a5.42,5.42,0,0,1,2.24.52l-.51,1.5a4.46,4.46,0,0,0-1.66-.41c-.54,0-.85.27-.85.65a.54.54,0,0,0,.47.57l.89.21c1.3.31,2.2.83,2.2,2.25S114.2,74.8,112.21,74.8Z"/><path class="cls-2" d="M79,36.5c-1,2.31-2.48,8.19-.6,12.69,2,4.88,6.11,8.34,13.52,8.34s10.89-3.74,10.89-3.74c3.69,6,12.41,3,12.41,3l-.07-6.29h-2.07c-1.65,0-2-1.8-2-3.31V30.51c-4.2-2-14.59-2.75-19.58-1.92C91.5,28.59,82,29.76,79,36.5Zm22.47,10.42s-2.1,2.93-7,2.93C90,49.85,88,47.51,87.58,45S86.89,35.6,96,35.6a13.83,13.83,0,0,1,5.47.9Z"/><path class="cls-2" d="M58.77,49.19l10-9.57a45.84,45.84,0,0,0,5.34-5.7L74,28.56H44V36.5h15c-6.44,5.91-15.76,15-15.76,15V56.8H74.7l-.12-7.61Z"/><path class="cls-2" d="M30,28.53l-7.9,19-7.32-19H3.6L15.87,57.87a11.29,11.29,0,0,1-1.31.85,8.79,8.79,0,0,1-2.68.91,22.28,22.28,0,0,1-2.37.26q-1.15,0-2.25,0l-1.52,7c1.5.1,3.38.15,5.65.15a21.24,21.24,0,0,0,9-1.66A15,15,0,0,0,26,61.08a15,15,0,0,0,.91-1.19,9.62,9.62,0,0,0,.73-1.25L41.1,28.53Z"/><path class="cls-1" d="M131.78,28.56v5.56a6.35,6.35,0,0,0,12.7,0V28.56h5.57a6.35,6.35,0,0,0,0-12.7h-5.57V10.29a6.35,6.35,0,0,0-12.7,0v5.57h-5.56a6.35,6.35,0,1,0,0,12.7Z"/><path class="cls-3" d="M144.5,17.6a.58.58,0,1,1,1.15,0,.58.58,0,0,1-1.15,0Z"/><path class="cls-3" d="M146.91,17.6a.45.45,0,1,1,.45.44A.45.45,0,0,1,146.91,17.6Z"/><path class="cls-3" d="M149.32,17.6a.32.32,0,1,1,.32.31A.31.31,0,0,1,149.32,17.6Z"/><path class="cls-3" d="M151.77,17.6a.14.14,0,0,1,.15-.15.15.15,0,0,1,.15.15.15.15,0,0,1-.15.15A.15.15,0,0,1,151.77,17.6Z"/><path class="cls-3" d="M151.77,19.88a.15.15,0,0,1,.15-.15.15.15,0,0,1,.15.15.16.16,0,0,1-.15.16A.15.15,0,0,1,151.77,19.88Z"/><path class="cls-3" d="M151.77,22.17a.15.15,0,0,1,.15-.15.15.15,0,0,1,0,.3A.15.15,0,0,1,151.77,22.17Z"/><path class="cls-3" d="M151.77,24.46a.14.14,0,0,1,.15-.15.15.15,0,0,1,.15.15.15.15,0,0,1-.15.15A.15.15,0,0,1,151.77,24.46Z"/><path class="cls-3" d="M151.77,26.74a.15.15,0,0,1,.15-.15.15.15,0,0,1,.15.15.16.16,0,0,1-.15.16A.15.15,0,0,1,151.77,26.74Z"/><path class="cls-3" d="M145.72,18.74a.49.49,0,0,1,.48-.48.48.48,0,0,1,.48.48.47.47,0,0,1-.48.48A.48.48,0,0,1,145.72,18.74Z"/><path class="cls-3" d="M148.14,18.74a.35.35,0,1,1,.35.35A.35.35,0,0,1,148.14,18.74Z"/><path class="cls-3" d="M150.56,18.74a.21.21,0,0,1,.21-.21.21.21,0,0,1,.22.21.22.22,0,1,1-.43,0Z"/><path class="cls-3" d="M144.5,19.88a.58.58,0,1,1,.57.58A.58.58,0,0,1,144.5,19.88Z"/><path class="cls-3" d="M146.91,19.88a.45.45,0,1,1,.45.45A.45.45,0,0,1,146.91,19.88Z"/><path class="cls-3" d="M149.32,19.88a.32.32,0,1,1,.32.32A.31.31,0,0,1,149.32,19.88Z"/><path class="cls-3" d="M145.72,21a.48.48,0,0,1,.48-.48.47.47,0,0,1,.48.48.48.48,0,0,1-.48.48A.49.49,0,0,1,145.72,21Z"/><path class="cls-3" d="M148.14,21a.35.35,0,1,1,.35.35A.35.35,0,0,1,148.14,21Z"/><path class="cls-3" d="M150.56,21a.22.22,0,1,1,.43,0,.21.21,0,0,1-.22.21A.21.21,0,0,1,150.56,21Z"/><path class="cls-3" d="M144.5,22.17a.58.58,0,1,1,.57.58A.58.58,0,0,1,144.5,22.17Z"/><path class="cls-3" d="M146.91,22.17a.45.45,0,1,1,.45.45A.45.45,0,0,1,146.91,22.17Z"/><path class="cls-3" d="M149.32,22.17a.32.32,0,1,1,.32.31A.31.31,0,0,1,149.32,22.17Z"/><path class="cls-3" d="M145.72,23.31a.49.49,0,0,1,.48-.48.48.48,0,0,1,.48.48.47.47,0,0,1-.48.48A.48.48,0,0,1,145.72,23.31Z"/><path class="cls-3" d="M148.14,23.31a.35.35,0,1,1,.35.35A.35.35,0,0,1,148.14,23.31Z"/><path class="cls-3" d="M150.56,23.31a.22.22,0,0,1,.43,0,.22.22,0,1,1-.43,0Z"/><path class="cls-3" d="M144.5,24.46a.58.58,0,1,1,1.15,0,.58.58,0,0,1-1.15,0Z"/><path class="cls-3" d="M146.91,24.46a.45.45,0,1,1,.45.44A.45.45,0,0,1,146.91,24.46Z"/><path class="cls-3" d="M149.32,24.46a.32.32,0,1,1,.32.31A.31.31,0,0,1,149.32,24.46Z"/><path class="cls-3" d="M145.72,25.6a.49.49,0,0,1,.48-.48.48.48,0,0,1,.48.48.47.47,0,0,1-.48.48A.48.48,0,0,1,145.72,25.6Z"/><path class="cls-3" d="M148.14,25.6a.35.35,0,1,1,.35.35A.35.35,0,0,1,148.14,25.6Z"/><path class="cls-3" d="M150.56,25.6a.21.21,0,0,1,.21-.21.21.21,0,0,1,.22.21.22.22,0,1,1-.43,0Z"/><path class="cls-3" d="M144.5,26.74a.58.58,0,1,1,.57.58A.58.58,0,0,1,144.5,26.74Z"/><path class="cls-3" d="M146.91,26.74a.45.45,0,1,1,.45.45A.45.45,0,0,1,146.91,26.74Z"/><path class="cls-3" d="M149.32,26.74a.32.32,0,1,1,.32.32A.31.31,0,0,1,149.32,26.74Z"/><path class="cls-3" d="M142.71,28.57a.57.57,0,0,1,.57.58.56.56,0,0,1-.57.57.57.57,0,0,1-.58-.57A.58.58,0,0,1,142.71,28.57Z"/><path class="cls-3" d="M142.71,31a.45.45,0,1,1-.45.45A.45.45,0,0,1,142.71,31Z"/><path class="cls-3" d="M142.71,33.4a.31.31,0,1,1-.32.31A.31.31,0,0,1,142.71,33.4Z"/><path class="cls-3" d="M142.71,35.84a.15.15,0,0,1,0,.3.15.15,0,1,1,0-.3Z"/><path class="cls-3" d="M140.42,35.84a.15.15,0,1,1-.15.15A.15.15,0,0,1,140.42,35.84Z"/><path class="cls-3" d="M138.13,35.84a.15.15,0,1,1,0,.3.15.15,0,1,1,0-.3Z"/><path class="cls-3" d="M135.85,35.84a.15.15,0,0,1,0,.3.15.15,0,1,1,0-.3Z"/><path class="cls-3" d="M133.56,35.84a.15.15,0,1,1-.15.15A.15.15,0,0,1,133.56,35.84Z"/><path class="cls-3" d="M141.56,29.8a.47.47,0,0,1,.48.48.48.48,0,0,1-.48.48.49.49,0,0,1-.48-.48A.48.48,0,0,1,141.56,29.8Z"/><path class="cls-3" d="M141.56,32.21a.35.35,0,1,1-.34.35A.35.35,0,0,1,141.56,32.21Z"/><path class="cls-3" d="M141.56,34.63a.22.22,0,1,1,0,.43.22.22,0,0,1,0-.43Z"/><path class="cls-3" d="M140.42,28.57a.58.58,0,0,1,.58.58.58.58,0,0,1-1.16,0A.58.58,0,0,1,140.42,28.57Z"/><path class="cls-3" d="M140.42,31a.45.45,0,1,1,0,.89.45.45,0,0,1,0-.89Z"/><path class="cls-3" d="M140.42,33.4a.31.31,0,1,1-.31.31A.31.31,0,0,1,140.42,33.4Z"/><path class="cls-3" d="M139.28,29.8a.48.48,0,0,1,.48.48.49.49,0,0,1-.48.48.48.48,0,0,1-.48-.48A.47.47,0,0,1,139.28,29.8Z"/><path class="cls-3" d="M139.28,32.21a.35.35,0,0,1,0,.7.35.35,0,1,1,0-.7Z"/><path class="cls-3" d="M139.28,34.63a.21.21,0,0,1,.21.22.21.21,0,0,1-.21.21.22.22,0,1,1,0-.43Z"/><path class="cls-3" d="M138.13,28.57a.58.58,0,0,1,.58.58.58.58,0,0,1-1.15,0A.58.58,0,0,1,138.13,28.57Z"/><path class="cls-3" d="M138.13,31a.45.45,0,1,1-.44.45A.45.45,0,0,1,138.13,31Z"/><path class="cls-3" d="M138.13,33.4a.31.31,0,1,1-.31.31A.31.31,0,0,1,138.13,33.4Z"/><path class="cls-3" d="M137,29.8a.47.47,0,0,1,.48.48.48.48,0,0,1-.48.48.49.49,0,0,1-.48-.48A.48.48,0,0,1,137,29.8Z"/><path class="cls-3" d="M137,32.21a.35.35,0,1,1-.35.35A.35.35,0,0,1,137,32.21Z"/><path class="cls-3" d="M137,34.63a.22.22,0,1,1,0,.43.21.21,0,0,1-.21-.21A.21.21,0,0,1,137,34.63Z"/><path class="cls-3" d="M135.85,28.57a.57.57,0,0,1,.57.58.56.56,0,0,1-.57.57.57.57,0,0,1-.58-.57A.58.58,0,0,1,135.85,28.57Z"/><path class="cls-3" d="M135.85,31a.45.45,0,1,1-.45.45A.45.45,0,0,1,135.85,31Z"/><path class="cls-3" d="M135.85,33.4a.31.31,0,0,1,0,.62.31.31,0,1,1,0-.62Z"/><path class="cls-3" d="M134.7,29.8a.47.47,0,0,1,.48.48.48.48,0,0,1-.48.48.49.49,0,0,1-.48-.48A.48.48,0,0,1,134.7,29.8Z"/><path class="cls-3" d="M134.7,32.21a.35.35,0,1,1-.34.35A.35.35,0,0,1,134.7,32.21Z"/><path class="cls-3" d="M134.7,34.63a.22.22,0,1,1,0,.43.22.22,0,0,1,0-.43Z"/><path class="cls-3" d="M133.56,28.57a.58.58,0,0,1,.58.58.58.58,0,0,1-1.16,0A.58.58,0,0,1,133.56,28.57Z"/><path class="cls-3" d="M133.56,31a.45.45,0,1,1-.44.45A.45.45,0,0,1,133.56,31Z"/><path class="cls-3" d="M133.56,33.4a.31.31,0,1,1-.31.31A.31.31,0,0,1,133.56,33.4Z"/><path class="cls-2" d="M126.35,56.8a5.34,5.34,0,1,1,5.32-5.35A5.33,5.33,0,0,1,126.35,56.8Zm0-10.09a4.75,4.75,0,1,0,4.73,4.74A4.74,4.74,0,0,0,126.35,46.71Zm-1.72,2h2a1.39,1.39,0,0,1,1.42,1.55,1.47,1.47,0,0,1-1.21,1.55l1.66,2.35h-.72l-1.58-2.32h-1v2.32h-.59Zm1.82.53h-1.23v2.06h1.15c.7,0,1.1-.21,1.1-1.06C127.47,49.52,127.17,49.2,126.45,49.2Z"/></g></svg>