<?xml version="1.0" encoding="UTF-8"?><svg id="Capa_1" xmlns="http://www.w3.org/2000/svg" xmlns:xlink="http://www.w3.org/1999/xlink" viewBox="0 0 632.23 661.16"><defs><filter id="drop-shadow-1" filterUnits="userSpaceOnUse"><feOffset dx="7" dy="7"/><feGaussianBlur result="blur" stdDeviation="5"/><feFlood flood-color="#221f20" flood-opacity=".35"/><feComposite in2="blur" operator="in"/><feComposite in="SourceGraphic"/></filter><clipPath id="clippath"><path d="m488.72,500.86l-381.96,71.84c-6.79,1.28-13.25-3.13-14.52-9.93l-46.22-245.72c-1.28-6.79,3.13-13.25,9.93-14.52l382.1-71.87c6.79-1.28,13.25,3.13,14.52,9.93l46.24,245.86c1.12,6.68-3.3,13.14-10.09,14.41Z" style="fill:none; stroke-width:0px;"/></clipPath><clipPath id="clippath-1"><path d="m488.72,500.86l-381.96,71.84c-6.79,1.28-13.25-3.13-14.52-9.93l-46.22-245.72c-1.28-6.79,3.13-13.25,9.93-14.52l382.1-71.87c6.79-1.28,13.25,3.13,14.52,9.93l46.24,245.86c1.12,6.68-3.3,13.14-10.09,14.41Z" style="fill:none; stroke-width:0px;"/></clipPath><clipPath id="clippath-2"><path d="m488.72,500.86l-381.96,71.84c-6.79,1.28-13.25-3.13-14.52-9.93l-46.22-245.72c-1.28-6.79,3.13-13.25,9.93-14.52l382.1-71.87c6.79-1.28,13.25,3.13,14.52,9.93l46.24,245.86c1.12,6.68-3.3,13.14-10.09,14.41Z" style="fill:none; stroke-width:0px;"/></clipPath><clipPath id="clippath-3"><path d="m488.72,500.86l-381.96,71.84c-6.79,1.28-13.25-3.13-14.52-9.93l-46.22-245.72c-1.28-6.79,3.13-13.25,9.93-14.52l382.1-71.87c6.79-1.28,13.25,3.13,14.52,9.93l46.24,245.86c1.12,6.68-3.3,13.14-10.09,14.41Z" style="fill:none; stroke-width:0px;"/></clipPath><clipPath id="clippath-4"><path d="m488.72,500.86l-381.96,71.84c-6.79,1.28-13.25-3.13-14.52-9.93l-46.22-245.72c-1.28-6.79,3.13-13.25,9.93-14.52l382.1-71.87c6.79-1.28,13.25,3.13,14.52,9.93l46.24,245.86c1.12,6.68-3.3,13.14-10.09,14.41Z" style="fill:none; stroke-width:0px;"/></clipPath><clipPath id="clippath-5"><path d="m488.72,500.86l-381.96,71.84c-6.79,1.28-13.25-3.13-14.52-9.93l-46.22-245.72c-1.28-6.79,3.13-13.25,9.93-14.52l382.1-71.87c6.79-1.28,13.25,3.13,14.52,9.93l46.24,245.86c1.12,6.68-3.3,13.14-10.09,14.41Z" style="fill:none; stroke-width:0px;"/></clipPath><clipPath id="clippath-6"><path d="m488.72,500.86l-381.96,71.84c-6.79,1.28-13.25-3.13-14.52-9.93l-46.22-245.72c-1.28-6.79,3.13-13.25,9.93-14.52l382.1-71.87c6.79-1.28,13.25,3.13,14.52,9.93l46.24,245.86c1.12,6.68-3.3,13.14-10.09,14.41Z" style="fill:none; stroke-width:0px;"/></clipPath><clipPath id="clippath-7"><path d="m488.72,500.86l-381.96,71.84c-6.79,1.28-13.25-3.13-14.52-9.93l-46.22-245.72c-1.28-6.79,3.13-13.25,9.93-14.52l382.1-71.87c6.79-1.28,13.25,3.13,14.52,9.93l46.24,245.86c1.12,6.68-3.3,13.14-10.09,14.41Z" style="fill:none; stroke-width:0px;"/></clipPath><clipPath id="clippath-8"><path d="m488.72,500.86l-381.96,71.84c-6.79,1.28-13.25-3.13-14.52-9.93l-46.22-245.72c-1.28-6.79,3.13-13.25,9.93-14.52l382.1-71.87c6.79-1.28,13.25,3.13,14.52,9.93l46.24,245.86c1.12,6.68-3.3,13.14-10.09,14.41Z" style="fill:none; stroke-width:0px;"/></clipPath><clipPath id="clippath-9"><path d="m488.72,500.86l-381.96,71.84c-6.79,1.28-13.25-3.13-14.52-9.93l-46.22-245.72c-1.28-6.79,3.13-13.25,9.93-14.52l382.1-71.87c6.79-1.28,13.25,3.13,14.52,9.93l46.24,245.86c1.12,6.68-3.3,13.14-10.09,14.41Z" style="fill:none; stroke-width:0px;"/></clipPath><clipPath id="clippath-10"><rect x="206.1" y="539.95" width="5.81" height="5.81" transform="translate(-351.79 697.41) rotate(-84.35)" style="fill:none; stroke-width:0px;"/></clipPath><clipPath id="clippath-11"><path d="m488.72,500.86l-381.96,71.84c-6.79,1.28-13.25-3.13-14.52-9.93l-46.22-245.72c-1.28-6.79,3.13-13.25,9.93-14.52l382.1-71.87c6.79-1.28,13.25,3.13,14.52,9.93l46.24,245.86c1.12,6.68-3.3,13.14-10.09,14.41Z" style="fill:none; stroke-width:0px;"/></clipPath><clipPath id="clippath-12"><path d="m488.72,500.86l-381.96,71.84c-6.79,1.28-13.25-3.13-14.52-9.93l-46.22-245.72c-1.28-6.79,3.13-13.25,9.93-14.52l382.1-71.87c6.79-1.28,13.25,3.13,14.52,9.93l46.24,245.86c1.12,6.68-3.3,13.14-10.09,14.41Z" style="fill:none; stroke-width:0px;"/></clipPath><clipPath id="clippath-13"><path d="m488.72,500.86l-381.96,71.84c-6.79,1.28-13.25-3.13-14.52-9.93l-46.22-245.72c-1.28-6.79,3.13-13.25,9.93-14.52l382.1-71.87c6.79-1.28,13.25,3.13,14.52,9.93l46.24,245.86c1.12,6.68-3.3,13.14-10.09,14.41Z" style="fill:none; stroke-width:0px;"/></clipPath><clipPath id="clippath-14"><path d="m488.72,500.86l-381.96,71.84c-6.79,1.28-13.25-3.13-14.52-9.93l-46.22-245.72c-1.28-6.79,3.13-13.25,9.93-14.52l382.1-71.87c6.79-1.28,13.25,3.13,14.52,9.93l46.24,245.86c1.12,6.68-3.3,13.14-10.09,14.41Z" style="fill:none; stroke-width:0px;"/></clipPath><clipPath id="clippath-15"><path d="m488.72,500.86l-381.96,71.84c-6.79,1.28-13.25-3.13-14.52-9.93l-46.22-245.72c-1.28-6.79,3.13-13.25,9.93-14.52l382.1-71.87c6.79-1.28,13.25,3.13,14.52,9.93l46.24,245.86c1.12,6.68-3.3,13.14-10.09,14.41Z" style="fill:none; stroke-width:0px;"/></clipPath><clipPath id="clippath-16"><path d="m488.72,500.86l-381.96,71.84c-6.79,1.28-13.25-3.13-14.52-9.93l-46.22-245.72c-1.28-6.79,3.13-13.25,9.93-14.52l382.1-71.87c6.79-1.28,13.25,3.13,14.52,9.93l46.24,245.86c1.12,6.68-3.3,13.14-10.09,14.41Z" style="fill:none; stroke-width:0px;"/></clipPath></defs><g style="filter:url(#drop-shadow-1);"><g style="clip-path:url(#clippath);"><rect x="65.02" y="286" width="158.95" height="270.21" transform="translate(-75.35 33.97) rotate(-10.65)" style="fill:#010101; stroke-width:0px;"/></g><g style="clip-path:url(#clippath-1);"><rect x="66.86" y="296.06" width="158.95" height="269.66" transform="translate(-77.13 34.48) rotate(-10.65)" style="fill:none; stroke-width:0px;"/></g><g style="clip-path:url(#clippath-2);"><path d="m145.97,323.57l.08-.3-2.04-10.87c-.41-2.17-2.51-3.61-4.68-3.2l-35.04,6.59c-2.17.41-3.61,2.51-3.2,4.68h0l2.04,10.87.19.25,42.65-8.02h0Zm22.74,82.78l.06-.43-1.74-9.24-.21-.38-55.96,10.53-.06.43,1.71,9.1.21.38,55.99-10.39h0Zm63.33,148.27l.08.41c.26,1.36-.49,2.62-1.85,2.88l-121.3,22.82c-1.22.23-2.35-.54-2.58-1.76l7.05,49.44.08.41.24.52h0l.43.06,58.27-10.96.25-.19,4.45,23.63.37.49.43.06,10.59-1.99.38-.21.06-.43-4.45-23.63.3.08,58.27-10.96.52-.24.03-.57-11.39-49.33-.24-.52h0Zm-10-21.75h0Z" style="fill:#c13530; stroke-width:0px;"/><path d="m173.14,332.67l8.48,45.1c1.69,8.96-4.29,17.54-13.12,19.2l-58.27,10.96c-8.83,1.66-17.52-4.16-19.2-13.12l-8.48-45.1c-1.69-8.96,4.29-17.54,13.12-19.2l58.27-10.96c8.96-1.69,17.52,4.16,19.2,13.12m4.67,308.95l-4.45-23.63-.25.19-58.27,10.96-.43-.06-.2.46,3.42,23.41.24.52.43.06,59.22-11.14.38-.21-.1-.54h0Zm66.08-36.76l-59.22,11.14-.3-.08,4.45,23.63-.06.43.57.03,60.17-11.32.52-.24.03-.57-5.32-23.05-.35-.36c-.11.16-.49.37-.49.37Zm-21.29-72.08h0Zm5.13-36.27c-3.31-7.11-25.51-63.83-31.16-78.94-1.68-4.47-3.25-7.55-4.77-9.65-3.42-4.7-6.91-4.61-12.92-3.62l-76.88,14.46h0c-5.41,1.16-8.57,2.31-10.3,6.58-1.03,2.73-1.46,6.46-1.36,12.21.2,15.29.01,77.07-.35,84.87-.19,2.71-.22,4.82.14,6.72.82,4.35,3.99,6.28,10.15,6.11.43.06.98-.04,1.52-.15,1.66-.17,3.45-.37,5.35-.72l108.94-20.49c2.58-.49,4.73-1.03,6.58-1.66h0c5.93-2.1,8.05-5.03,7.35-9.54-.33-1.77-1.28-3.84-2.29-6.18" style="fill:#d83a38; stroke-width:0px;"/><path d="m276.07,512.03c1.84,9.78,2.69,18.76-6.55,20.5l-.14.03c-4.62.87-7.19-1.6-9.44-3.85-.37-.49-1.39-1.43-1.69-1.51-1.72-1.65-3.79-2.94-7.07-2.47l-1.49.28c-3.23.75-4.69,2.71-5.69,4.87-.11.16-.86,1.43-.89,2-1.39,3.07-2.89,6.31-7.37,7.15l-.27.05c-2.44.46-5.28-.41-6.84-1.24-.2-1.09-.33-1.77-.54-2.15l-.16-.11-.9-4.05c-.23-1.22-1.36-1.99-2.47-1.93-.17.59-.5,1.08-.83,1.56l-.82.86c-1.34,1.1-3.35,1.62-5.91,2.24h0l-105.41,19.83c-1.63.31-3.04.29-4.07.06l-.3-.08c-1.19-.34-2.13-.86-2.72-1.74-.9.45-1.43,1.39-1.22,2.48l1.09,6.55c-1.34,1.1-2.95,2.24-4.86,2.6l-.27.05c-4.48.84-7.06-1.63-9.47-3.99-.37-.49-1.37-1.29-1.55-1.54-1.72-1.65-3.79-2.94-7.07-2.47l-1.49.28c-3.23.75-4.69,2.71-5.69,4.87-.08.3-.86,1.43-1.03,2.02-1.28,2.91-2.78,6.15-7.4,7.02l-.14.03c-9.24,1.74-11.71-6.94-13.55-16.72-1.79-9.51,1.93-17.38,5.33-22.52.77-1.13,2.01-2.77,2.94-3.79l-.43-.06c-2.12-1.57-3.4-3.86-4.01-7.12s-.46-6.94-.36-10.9c.05-1.98.07-4.09.12-6.07-.12-10.38.1-15.91.7-18.7.25-.89.83-3.81,1.41-7.44l1.22-6.98c1.51-8.44,3.44-19.07,5-27.24,1.98-9.65,8.31-15.63,18.91-17.62l.95-.18h0c1.77-.33,4.61-.16,8.37.39-1.06,2.59-1.46,6.46-1.39,12.07.15,15.02-.03,76.09-.42,83.76-.19,2.71-.22,4.82.14,6.72.82,4.35,3.86,6.31,10.01,6.13.43.06.98-.04,1.52-.15,1.66-.17,3.31-.34,5.35-.72l108.39-20.39c2.58-.49,4.73-1.03,6.58-1.66h0c5.93-2.1,8.05-5.03,7.24-9.38-.36-1.9-1.31-3.97-2.31-6.32-3.31-7.11-25.35-63.02-30.82-77.88-1.66-4.33-3.22-7.41-4.74-9.52l-.05-.27.33-.48c3.28-2.02,6-3.24,7.77-3.57h0l.95-.18c10.59-1.99,18.8,1.25,24.02,9.55,4.42,7.04,10.06,16.11,14.56,23.56l3.67,6.06c2,3.14,3.46,5.68,4.02,6.42,1.57,2.38,3.79,7.44,7.45,17.16.65,1.99,1.56,3.79,2.32,5.61,1.53,3.65,3.01,7.03,3.62,10.29s.26,5.86-1.15,8.09l-.38.21c1.24.61,2.99,1.69,4.12,2.46,5.19,3.66,11.54,9.78,13.31,19.16" style="fill:#c13530; stroke-width:0px;"/><path d="m237.22,578.4l.08.41c.26,1.36-.49,2.62-1.85,2.88l-7.61,1.43-55.69,10.48-50.53,9.5-7.74,1.46c-1.22.23-2.9-.44-3.26-1.64l-.74-3.94s-2.28-13.63-3.77-23.06l-1.95-11.87-1.09-6.55c-.2-1.09.86-2.13,1.76-2.58.56.74,1.53,1.4,2.72,1.74l.3.08c1.03.23,2.44.24,4.07-.06l105.54-19.85h0c2.58-.49,4.57-1.14,5.91-2.24l.28-.76c.36-.35,1.21-1.07,1.37-1.66,1.11-.07,2.24.7,2.47,1.93l9.74,44.3h0Z" style="fill:#d83a38; stroke-width:0px;"/></g><g style="clip-path:url(#clippath-3);"><rect x="372.5" y="236.64" width="84.59" height="86.25" transform="translate(-44.57 81.5) rotate(-10.65)" style="fill:#fff; stroke-width:0px;"/></g><g style="clip-path:url(#clippath-4);"><rect x="289.61" y="251.23" width="86.25" height="86.25" transform="translate(-48.68 66.58) rotate(-10.65)" style="fill:#599ad1; stroke-width:0px;"/></g><g style="clip-path:url(#clippath-5);"><rect x="204.98" y="267.15" width="86.25" height="86.25" transform="translate(-53.08 51.21) rotate(-10.65)" style="fill:#63ac55; stroke-width:0px;"/></g><g style="clip-path:url(#clippath-6);"><path d="m445.76,267.19l-14.47-2.9c-.3-.08-.57-.03-.7,0-1.37-1.29-3.97-1.64-6.82-1.11s-5.12,1.95-5.95,3.51l-7.47,1.41h0c-1.37-1.29-4.13-1.76-7.12-1.19s-5.39,2-6.2,3.7l-14.26,2.68h0c-.54.1-1.04.48-1.37.96s-.36,1.05-.26,1.6l3.73,19.83c.15.81.85,1.53,1.58,1.67l14.49,3.04c.3.08.57.03.84-.02s.54-.1.65-.26l.27-.05,47.13-8.87c.82-.15,1.5-.99,1.32-1.94l-3.76-19.97h0c-.04-.98-.77-1.83-1.66-2.08h0Z" style="fill:#fff; stroke-width:0px;"/><path d="m406.78,295.47l-1.72-1.65-.68.13.36,1.9-1.77.33-1.18-6.25,2.44-.46c1.36-.26,2.6.36,2.85,1.71.15.81-.15,1.43-.62,1.94l2.06,2-1.77.33h0Zm-2.81-2.99l.82-.15c.41-.08.63-.4.55-.81s-.4-.63-.81-.55l-.82.15.26,1.36h0Z" style="fill:#010101; stroke-width:0px;"/><path d="m408.05,288.76l4.35-.82.28,1.49-2.72.51.15.81,1.9-.36.26,1.36-1.9.36.2,1.09,2.85-.54.28,1.49-4.48.84-1.18-6.25h0Z" style="fill:#010101; stroke-width:0px;"/><path d="m422.44,286.06l-1.38,6.87-.54.1-2.24-2.95-1.02,3.57-.54.1-3.78-5.9,1.77-.33,1.78,2.76.91-3.41.54-.1,2.08,2.84.66-3.22,1.77-.33h0Z" style="fill:#010101; stroke-width:0px;"/><path d="m427.05,291.1l-2.31.43-.17.59-1.77.33,1.65-6.92.54-.1,4.05,5.85-1.63.31-.37-.49h0Zm-1.62-2.65l-.26,1.6,1.09-.2-.82-1.39h0Z" style="fill:#010101; stroke-width:0px;"/><path d="m433.53,290.44l-1.72-1.65-.68.13.36,1.9-1.63.31-1.18-6.25,2.44-.46c1.36-.26,2.6.36,2.85,1.71.15.81-.15,1.43-.62,1.94l2.06,2-1.9.36h0Zm-2.81-2.99l.82-.15c.41-.08.63-.4.55-.81s-.4-.63-.81-.55l-.82.15.26,1.36h0Z" style="fill:#010101; stroke-width:0px;"/><path d="m434.8,283.73l2.17-.41c1.9-.36,3.63.58,3.98,2.49s-.91,3.41-2.81,3.76l-2.17.41-1.18-6.25Zm3.07,4.35c1.09-.2,1.64-1.01,1.46-1.96s-.99-1.5-2.07-1.3l-.54.1.61,3.26.54-.1Z" style="fill:#010101; stroke-width:0px;"/><path d="m442.77,286.45c.51.47.97.66,1.51.56.41-.08.65-.26.6-.54s-.21-.38-.78-.42l-.73-.14c-1.16-.2-1.83-.78-1.99-1.6-.2-1.09.59-2.08,1.82-2.31,1.09-.2,1.87.21,2.4.81l-.93,1.02c-.35-.36-.67-.58-1.21-.47-.27.05-.52.24-.47.51s.21.38.65.44l.73.14c1.16.2,1.81.64,1.99,1.6.23,1.22-.59,2.08-1.95,2.34-1.09.2-2.14-.16-2.7-.9l1.07-1.04h0Z" style="fill:#010101; stroke-width:0px;"/><path d="m400.62,283.69l4.07-.77.2,1.09-1.63.31,1.1.64.05.27-.8.99,1.63-.31.2,1.09-4.07.77-.05-.27,1.71-2.15-2.37-1.38-.05-.27h0Z" style="fill:#010101; stroke-width:0px;"/><path d="m402.67,280.35l1.49-.28.2,1.09-1.49.28-2.19,1.82-.23-1.22,1.23-.93-1.49-.42-.23-1.22,2.7.9h0Z" style="fill:#010101; stroke-width:0px;"/><path d="m411.17,285.93l-4.07.77-1.56-8.29,3.12-.59c1.63-.31,3.03.41,3.31,1.91.1.54.04.98-.29,1.46,1.03.23,1.7.81,1.88,1.76.39,1.33-.76,2.67-2.39,2.98h0Zm-3.13-6.16l.28,1.49.82-.15c.54-.1.76-.42.69-.83s-.4-.63-.94-.53l-.84.02h0Zm2.38,2.93l-1.77.33.28,1.49,1.77-.33c.54-.1.76-.42.69-.83s-.42-.76-.97-.66h0Z" style="fill:#010101; stroke-width:0px;"/><path d="m420.4,284.19l-2.39-2.22-.95.18.49,2.58-2.17.41-1.56-8.29,3.4-.64c1.9-.36,3.6.45,3.93,2.21.2,1.09-.19,2-.92,2.56l2.9,2.69-2.72.51h0Zm-3.7-3.95l1.09-.2c.68-.13,1.01-.61.91-1.16s-.59-.87-1.27-.75l-1.09.2.36,1.9Z" style="fill:#010101; stroke-width:0px;"/><path d="m422.24,275.27l2.17-.41,1.56,8.29-2.17.41-1.56-8.29Z" style="fill:#010101; stroke-width:0px;"/><path d="m430.37,273.6c1.77-.33,3.28.23,4.35,1.43l-1.56,1.42c-.72-.85-1.61-1.1-2.43-.95-1.36.26-2.13,1.39-1.87,2.74.13.68.5,1.17.99,1.5s1.08.5,1.76.37c.95-.18,1.55-.71,1.92-1.77l1.97.75c-.56,1.51-1.76,2.58-3.53,2.91-2.58.49-5.11-1.01-5.44-3.48-.54-2.15,1.27-4.46,3.85-4.94h0Z" style="fill:#010101; stroke-width:0px;"/><path d="m442.68,280l-4.03-3.46.77,4.07-2.17.41-1.56-8.29,2.17-.41.72,3.8,2.14-4.34,2.58-.49-2.25,4.5,4.21,3.71-2.58.49h0Z" style="fill:#010101; stroke-width:0px;"/><path d="m398.81,271.8c.12-.87,1.82-2.31,4.8-2.87,2.58-.49,4.5,0,5.33.68.16.11.21.38.24.52.15.81-1.63,2.56-4.75,3.14s-5.39-.25-5.57-1.2l-.05-.27Z" style="fill:#010101; stroke-width:0px;"/><path d="m419.45,267.91c.12-.87,1.82-2.31,4.67-2.85,2.44-.46,4.36.02,5.04.6.16.11.19.25.24.52.15.81-1.52,2.4-4.64,2.98s-5.26-.28-5.41-1.09l.11-.16Z" style="fill:#010101; stroke-width:0px;"/><path d="m424.73,269.03c3.67-.69,4.41-1.96,4.58-2.55l-9.78,1.84c.4.63,1.53,1.4,5.2.71h0Z" style="fill:#010101; stroke-width:0px;"/><path d="m404.35,272.86c3.67-.69,4.55-1.98,4.72-2.58l-10.19,1.92c.54.6,1.8,1.35,5.47.66h0Z" style="fill:#010101; stroke-width:0px;"/><path d="m430.83,266.34l-1.36.26.43,2.31.03.14c-.06.43-.64,1.81-4.72,2.58-2.99.56-4.58-.4-5.2-.71-.16-.11-.19-.25-.21-.38l-.38-2.04-10.19,1.92.41,2.17c.03.14.08.41-.03.57-.17.59-1.08,1.75-4.74,2.44-2.85.54-4.55-.27-5.2-.71-.16-.11-.35-.36-.4-.63l-.38-2.04-15.62,2.94,3.73,19.83,14.49,3.04-3.73-19.83,47.54-8.94-14.47-2.9h0Z" style="fill:#010101; stroke-width:0px;"/></g><g style="clip-path:url(#clippath-7);"><rect x="306.82" y="268.46" width="52.38" height="52.52" transform="translate(-48.74 66.64) rotate(-10.65)" style="fill:#fff; stroke-width:0px;"/><path d="m302.42,273.75l9.71,51.62,51.48-9.68-9.71-51.62-51.48,9.68Zm52.12,12.42h0c.17,1.66.15,3.77-.17,5.09-.74,5.77-2.3,9.43-7.19,10.35-1.49.28-4.02.33-5.45-2.07l-.37-.49-.31.62c-1.14,2.18-3.24,3.7-5.69,4.16-1.9.36-3.52-.04-4.68-.95l-.32-.22-.22.32c-.88,1.29-2.52,2.3-4.56,2.69-1.63.31-3.23.04-4.25-.89l-.32-.22-.22.32c-.88,1.29-2.41,2.14-4.47,2.39-2.44.46-4.36-.73-4.79-3.04-.8-3.51,1.22-11.48,2.28-14.07.67-1.67,1.76-2.58,3.39-2.89,1.09-.2,1.95-.09,2.57.22.48.33.7.71.88,1.66l.23,1.22.36-1.05c1.03-2.73,3.43-3.46,5.87-3.92,1.77-.33,3.39.07,4.11.91l.35.36.22-.32c1.02-1.32,2.68-2.19,4.72-2.58,2.17-.41,3.77-.15,4.92.76.32.22.48.33.7.71l.37.49.33-.48c1.05-1.89,2.8-3.06,5.11-3.49,1.9-.36,3.36-.07,4.49.7,1.43.86,1.87,2.46,2.1,3.68h0Z" style="fill:#ede14b; fill-rule:evenodd; stroke-width:0px;"/><path d="m302.42,273.75l9.71,51.62,51.48-9.68-9.71-51.62-51.48,9.68Zm53.97,14.04h0c.09,1.95-.5,5.58-.9,7.2-1.08,4-2.98,7.31-7.6,8.18-2.44.46-4.64.03-6.14-1.24-1.48,1.83-3.5,3.05-5.81,3.48-1.77.33-3.5.1-4.9-.63-1.18,1.21-2.84,2.08-4.88,2.47-1.63.31-3.2.18-4.6-.54-1.21,1.07-2.73,1.92-4.8,2.17-3.29.48-5.98-1.13-6.7-4.22-.9-4.05,1.22-12.18,2.23-15.05.84-2.27,2.43-3.55,4.74-3.98,2.44-.46,3.52.04,4.11.91,1.6-1.99,4.04-2.45,5.94-2.81s3.36-.07,4.47.57c1.34-1.1,2.87-1.95,4.91-2.33,2.58-.49,4.58-.3,6.06.83,1.26-1.5,3.17-2.57,5.21-2.95,2.85-.54,4.96.19,6.33,1.48,2.04,1.87,2.18,4.09,2.34,6.45h0Z" style="fill:#bd3430; fill-rule:evenodd; stroke-width:0px;"/><path d="m301.96,273.56l9.84,52.3,52.3-9.84-9.84-52.3-52.3,9.84h0Zm51.74-9.03h0l9.56,50.8-50.8,9.56-9.56-50.8,50.8-9.56Z" style="fill:#191817; fill-rule:evenodd; stroke-width:0px;"/><path d="m354.61,279.83l-.08-.41.27-.05c.14-.03.27-.05.3.08s.03.14-.25.19c.03.14-.25.19-.25.19Zm.94.53h0l-.19-.25q-.19-.25-.32-.22h0c.27-.05.38-.21.33-.48-.03-.14-.21-.38-.48-.33l-.68.13.26,1.36.27-.05-.1-.54h0l.27-.05s.16.11.19.25l.19.25.27-.05h0Zm-.85-1.53c-.54.1-.87.59-.77,1.13s.59.87,1.13.77.87-.59.77-1.13-.59-.87-1.13-.77h0Zm-.05-.27h0c-.68.13-1.12.77-.99,1.45s.77,1.12,1.45.99,1.12-.77.99-1.45-.77-1.12-1.45-.99Z" style="fill:#191817; fill-rule:evenodd; stroke-width:0px;"/><path d="m347.98,281.22c-2.72.51-4.41,1.96-5.36,3.68-.35-.36-.54-.6-.72-.85-1.32-1.02-3.05-1.25-5.22-.85s-3.81,1.42-4.97,2.76c-.88-.96-2.51-1.36-4.41-1-2.44.46-5.08,1.38-6.26,4.13-.18-.95-.39-1.33-1.04-1.77-.81-.55-1.78-.51-2.73-.33-1.77.33-2.97,1.4-3.75,3.24-1.06,2.59-3.05,10.7-2.25,14.21.43,2.31,2.4,3.77,5.25,3.23,2.17-.41,3.84-1.28,4.72-2.58,1.16.91,2.75,1.17,4.52.84,2.04-.38,3.84-1.28,4.8-2.87,1.18,1.04,2.94,1.42,4.98,1.03,2.58-.49,4.8-2.17,5.93-4.35,1.25,2.16,3.58,2.56,5.89,2.13,5.03-.95,6.67-4.91,7.41-10.68.18-1.3.34-3.44.14-5.23-.38-2.74-2.19-5.64-6.94-4.74h0Zm-30.94,20.17h0c2.5-.89,3.36-.07,3.52.75.21,2.63-1.97,3.75-4.17,4.02-1.49.28-2.98-.14-3.31-1.91-.72-3.1,1.21-10.78,2.27-13.37.47-1.21,1.19-1.91,2.55-2.17,1.22-.23,1.62.4,1.75,1.08.25,2.06-1.97,8.95-2.6,11.6h0Zm8.1-4.05h0c-.06.43-.26,1.6-.36,2.6.76-.42,1.42-.69,2.53-.76,1.22-.23,2.14.16,2.34,1.25.46,2.44-2.24,3.8-4.14,4.15-2.17.41-4.17-.48-4.6-2.79-.51-2.72.22-7.07,1.04-10.18.99-3.7,2.68-4.44,5.67-5,1.36-.26,2.95,0,3.18,1.23.33,1.77-1.03,2.73-2.39,2.98l-2.17.41s-.42.78-.57,2.22c2.64-.92,3.85-.44,3.73,1.13-.13,2.28-2.01,2.77-4.26,2.77h0Zm11.81-8.97h0c-.68.13-1.15.64-1.32,1.23-.61,1.24-1.42,5.89-1.36,7.71.09,1.25.69,1.42,1.23,1.32.95-.18,1.72-1.31,1.82-3.02,0,0-1.77.33-1.53-1.4.26-1.6,1-2.16,2.49-2.44,2.96-.7,2.96,1.55,3.06,2.8-.1,3.96-2.12,7.43-5.92,8.15-2.58.49-4.47-.57-4.98-3.28-.36-1.9.03-5.07.4-6.83.94-3.97,2.08-6.86,6.3-7.65,2.58-.49,4.66.11,4.82,2.47.06,1.82-.58,2.92-2.18,3.36-.41.08-2.17.41-1.96-1.46.03-.57.07-1.14-.88-.96h0Zm16.48.13h0c0,2.25-.6,5.04-1.3,7.28-1.18,3.46-3.25,4.41-5.15,4.77s-4.07.06-4.63-2.93c-.38-2.04-.13-5.18.33-7.23.69-3.79,1.52-6.9,5.75-7.55,5.16-.97,5.05,3.69,5,5.67h0Zm-3.94-1.51h0c.26,1.36-.79,7.04-1.23,8.39-.17.59-.5,1.08-1.04,1.18s-.89-.25-.97-.66c-.23-1.22.82-7.61,1.46-8.71.17-.59.58-.67.98-.75.65-.26.73.14.81.55h0Z" style="fill:#191817; fill-rule:evenodd; stroke-width:0px;"/></g><g style="clip-path:url(#clippath-8);"><path d="m226.79,313.58c-1.49.28-2.98-.14-3.16-1.09h0l-.28-1.49h0c-.15-.81.78-1.83,2.27-2.12l-6.29-2.05h0l-.14.03-.38.21-.14.03-1.83,1.47h0l-2.82,2.22,5.24,1.69,7.78,2.47,5.12-4.2-3.13-.96.31,1.63c.31.93-.92,1.86-2.55,2.17h0Z" style="fill:none; stroke-width:0px;"/><path d="m223.76,310.91h0c.13.68,1.34,1.15,2.7.9s2.32-1.14,2.19-1.82h0l-.03-.14-2.24-.7-.41.08c-1.38.12-2.34,1-2.22,1.68h0Z" style="fill:none; stroke-width:0px;"/><polygon points="215.19 317.73 228.21 321.89 226.98 315.37 213.97 311.21 215.19 317.73" style="fill:none; stroke-width:0px;"/><polygon points="228.62 321.81 233.74 317.61 233.71 317.48 233.48 316.26 232.51 311.09 227.39 315.29 228.62 321.81" style="fill:none; stroke-width:0px;"/><polygon points="233.75 316.2 233.98 317.43 239.1 313.23 237.87 306.71 232.76 310.91 233.75 316.2" style="fill:none; stroke-width:0px;"/><path d="m237.69,306.46l-3.46-1.18-.14.03.03.14h0c.13.68-.83,1.56-2.19,1.82s-2.57-.22-2.67-.76h0l-.03-.14-.14.03h0l-2.68,2.19.3.08c1.11-.07,2,.19,2.4.81l3.59,1.15,3.28-2.73,1.7-1.44h0Z" style="fill:none; stroke-width:0px;"/><path d="m237.69,306.46l-3.46-1.18-.14.03c-.24-.52-1.16-.91-2.24-.7h0l-.43-.06-.38.21h0c-1.06.34-1.77,1.04-1.83,1.47l-.14.03h0l-2.68,2.19.3.08-.54.1-.27.05-3.29-1.07.28,1.49c.18.95-.92,1.86-2.55,2.17s-2.98-.14-3.16-1.09h0l-.28-1.49h0l-2.57,2.03,5.24,1.69,7.78,2.47,5.12-4.2-3.13-.96h0c-.03-.14-.05-.27-.21-.38l3.59,1.15,3.28-2.73,1.72-1.31h0Z" style="fill:none; stroke-width:0px;"/><polygon points="215.19 317.73 228.21 321.89 226.98 315.37 213.97 311.21 215.19 317.73" style="fill:none; stroke-width:0px;"/><polygon points="228.62 321.81 233.74 317.61 233.71 317.48 233.48 316.26 232.51 311.09 227.39 315.29 228.62 321.81" style="fill:none; stroke-width:0px;"/><polygon points="233.75 316.2 233.98 317.43 239.1 313.23 237.87 306.71 232.76 310.91 233.75 316.2" style="fill:none; stroke-width:0px;"/><path d="m219.33,306.82l-.41.08h0l-1.7,1.44.03.14h0c.1.54,1.32,1.02,2.67.76s2.32-1.14,2.19-1.82h0l-.03-.14-2.4-.81q-.2.46-.36.35h0Z" style="fill:none; stroke-width:0px;"/><path d="m238.64,306.28s-.03-.14,0,0l-.03-.14-.03-.14h0l-3.73-1.13c-.54-.6-1.43-.86-2.54-.79l-.46-.2c-.16-.11-.43-.06-.54.1l-.36.35c-1.06.34-1.91,1.06-2.19,1.82l-2.68,2.19-3.29-1.07c-.54-.6-1.45-.99-2.7-.9l-.46-.2c-.16-.11-.43-.06-.54.1l-.36.35c-1.06.34-1.77,1.04-2.08,1.66l-3.06,2.4h0l.03.14h0l1.3,6.93c.05.27.21.38.35.36l13.48,4.36.14-.03h0l.14-.03h0l.14-.03h0l.14-.03,10.97-8.96c.11-.16.22-.32.2-.46l-1.82-6.69h0Zm-9.43-.05c-.03-.14.08-.3.2-.46h0c.36-.35.85-.72,1.64-1.01l.14-.03.27-.05.14-.03.14-.03h0c.41-.08.7,0,.98-.04h0c.3.08.59.17.76.28h0c.3.08.48.33.51.47h0l.03.14h0c.13.68-.83,1.56-2.19,1.82s-2.57-.22-2.67-.76h0q-.05-.27.08-.3h0Zm-2.72,2.76c1.11-.07,2,.19,2.24.7l.03.14h0c.13.68-.83,1.56-2.19,1.82s-2.57-.22-2.67-.76h0c-.13-.68.83-1.56,2.19-1.82l.41-.08h0Zm-9.4-.62c.03-.57.77-1.13,1.83-1.47l.41-.08.27-.05c1.25-.09,2.3.27,2.4.81l.03.14h0c.13.68-.83,1.56-2.19,1.82s-2.57-.22-2.67-.76h0q-.05-.27-.08-.41h0Zm11.12,13.52l-13.02-4.16-1.23-6.52,13.02,4.16,1.23,6.52Zm-1.14-6.82l-7.78-2.47-5.24-1.69,2.57-2.03h0l.28,1.49h0c.18.95,1.66,1.37,3.16,1.09s2.72-1.22,2.55-2.17l-.28-1.49,3.16,1.09c-1.49.28-2.43,1.3-2.27,2.12h0l.28,1.49h0c.18.95,1.66,1.37,3.16,1.09s2.72-1.22,2.55-2.17l-.28-1.49,3.13.96-4.98,4.17h0Zm6.55,1.16l.26,1.36-5.25,4.22-1.23-6.52,5.25-4.22.97,5.16Zm-4.67-6.86c-.37-.49-1.29-.88-2.4-.81l-.3-.08,2.57-2.03.28,1.49h0c.18.95,1.66,1.37,3.16,1.09s2.72-1.22,2.55-2.17l-.28-1.49,3.13.96-1.83,1.47-3.28,2.73-3.59-1.15h0Zm10.15,3.86l-5.12,4.2-1.23-6.52,5.12-4.2,1.23,6.52Z" style="fill:#fff; stroke-width:0px;"/><path d="m280.68,295c.08.41-.14.73-.42.78s-.59-.17-.67-.58.14-.73.42-.78.62.31.67.58Zm-.27.05c-.05-.27-.21-.38-.48-.33s-.38.21-.33.48.21.38.48.33.38-.21.33-.48Zm-.08.3l-.14.03-.16-.11h0l.03.14-.14.03-.1-.54.27-.05c.14-.03.3.08.32.22,0,0,.03.14-.08.3h0Zm-.32-.22h0s.14-.03,0,0q.11-.16,0,0h0Z" style="fill:#fff; stroke-width:0px;"/><path d="m277.3,296.48c-1.13-.77-2.45-1.09-3.95-.8s-2.61,1.05-3.25,2.16c-.77,1.13-.92,2.56-.64,4.06s1.08,2.75,2.1,3.68c1.13.77,2.45,1.09,3.81.83s2.61-1.05,3.39-2.18c.77-1.13.92-2.56.62-4.19s-.94-2.78-2.07-3.55h0Zm-.75,4.22c.33,1.77-.3,2.87-1.66,3.13s-2.38-.68-2.68-2.31.3-2.87,1.66-3.13,2.35.54,2.68,2.31Z" style="fill:#fff; stroke-width:0px;"/><path d="m268.33,301.12l-4.35.82.28,1.49h0l.1.54,1.63-.31.1.54h0l.1.54c-.33.48-.82.86-1.5.99-.95.18-1.73-.24-2.32-1.11-.21-.38-.29-.79-.39-1.33-.08-.41-.13-.68-.04-.98.04-1.27.62-1.94,1.71-2.15.82-.15,1.57.13,2.13.86l.03.14,1.92-1.77-.03-.14c-1.12-1.48-2.63-2.04-4.53-1.68-1.49.28-2.61,1.05-3.25,2.16s-.92,2.56-.64,4.06,1.08,2.75,2.1,3.68c1.13.77,2.45,1.09,3.95.8,1.77-.33,3.24-1.45,3.91-3.13l-.49-2.58h0l-.42-1.47h0Z" style="fill:#fff; stroke-width:0px;"/><polygon points="258.29 301.6 257.75 298.75 257.62 298.78 256.39 299.01 252.59 299.72 249.74 300.26 249.74 300.26 250.53 304.47 250.94 306.64 251.2 308 251.73 310.85 251.73 310.85 258.39 309.6 258.39 309.6 259.75 309.35 259.21 306.49 259.07 306.52 257.85 306.75 254.05 307.46 253.79 306.11 256.1 305.67 256.1 305.67 257.46 305.42 257.05 303.24 256.92 303.27 255.69 303.5 253.38 303.93 253.13 302.57 256.93 301.86 256.93 301.86 258.29 301.6" style="fill:#fff; stroke-width:0px;"/><polygon points="249.84 308.26 249.43 308.33 249.16 308.38 248.48 308.51 245.22 309.12 243.76 301.38 240.91 301.92 242.75 311.7 242.75 311.7 242.9 312.51 249.02 311.36 249.02 311.36 249.69 311.24 250.37 311.11 250.78 311.03 250.24 308.18 249.84 308.26" style="fill:#fff; stroke-width:0px;"/><path d="m253.96,312.97c1.36-.26,2.65.63,2.9,1.99s-.63,2.65-1.99,2.9-2.65-.63-2.9-1.99.63-2.65,1.99-2.9Zm.18.95c-.82.15-1.23.93-1.08,1.75s.82,1.39,1.64,1.24,1.23-.93,1.08-1.75-.82-1.39-1.64-1.24Z" style="fill:#fff; stroke-width:0px;"/><path d="m265.71,314.13c.48.33.94.53,1.35.45s.65-.26.58-.67c-.05-.27-.21-.38-.78-.42l-.43-.06c-.87-.12-1.35-.45-1.48-1.13-.15-.81.42-1.49,1.37-1.66.68-.13,1.27.04,1.76.37l-.42.78c-.32-.22-.76-.28-1.16-.2s-.65.26-.6.54.21.38.65.44l.43.06c.89.25,1.35.45,1.48,1.13.08.41.02.84-.34,1.19-.22.32-.6.54-1.15.64-.82.15-1.57-.13-2.08-.59l.82-.86h0Z" style="fill:#fff; stroke-width:0px;"/><polygon points="274.04 308.34 272.6 311.15 270.24 309.06 269.73 308.59 269.19 308.7 269.34 309.51 270.36 314.94 271.31 314.76 270.55 310.69 272.21 312.06 272.24 312.2 272.56 312.42 273.1 312.32 274.02 310.46 274.35 309.97 275.12 314.05 276.2 313.84 275.18 308.41 275.03 307.6 274.35 307.72 274.04 308.34" style="fill:#fff; stroke-width:0px;"/><path d="m251.17,317.57c-.54.1-.87-.12-.97-.66l-.31-1.63h0l-.08-.41,1.49-.28-.18-.95-1.49.28-.08-.41h0l-.18-.95-.95.18.28,1.49-.68.13.18.95.68-.13.41,2.17c.2,1.09.85,1.53,1.94,1.32.27-.05.54-.1.79-.29l-.15-.81c-.3-.08-.43-.06-.7,0h0Z" style="fill:#fff; stroke-width:0px;"/><path d="m244.6,317.82c.51.47,1.13.77,1.81.64s1.04-.48.93-1.02c-.08-.41-.4-.63-1.13-.77l-.73-.14c-1.03-.23-1.65-.53-1.8-1.35-.18-.95.51-1.78,1.6-1.99.82-.15,1.71.1,2.11.73l-.58.67c-.35-.36-.94-.53-1.35-.45s-.9.45-.82.86.37.49.97.66l.73.14c1.03.23,1.67.67,1.83,1.48.2,1.09-.48,1.92-1.71,2.15-.95.18-2-.19-2.56-.92l.71-.7h0Z" style="fill:#fff; stroke-width:0px;"/><polygon points="278.22 312.62 278.61 311.7 278.89 310.95 279.43 311.55 279.99 312.29 280.69 313 281.77 312.8 281.4 312.3 281.4 312.3 280.84 311.57 280.14 310.85 279.44 310.14 279.26 309.89 279.23 309.76 279.62 308.84 280.01 307.92 280.4 307.01 280.4 307.01 280.6 306.55 279.37 306.78 279.12 307.67 278.73 308.59 278.54 309.05 278.05 308.72 277.35 308 276.79 307.26 275.57 307.49 276.06 307.83 276.06 307.83 276.62 308.56 277.31 309.28 278.01 309.99 278.04 310.12 277.95 310.42 277.7 311.31 277.31 312.23 276.92 313.15 276.92 313.15 276.75 313.74 277.83 313.54 278.22 312.62" style="fill:#fff; stroke-width:0px;"/><path d="m262.11,311.43c-1.22.23-2.24,1.55-1.85,2.88.26,1.36,1.55,2.24,2.9,1.99.68-.13,1.31-.53,1.64-1.01l-.54-.6c-.33.48-.71.7-1.26.8-.82.15-1.43-.15-1.7-.81l3.4-.64-.03-.14c-.03-.14-.05-.27.06-.43h0l-.05-.27c-.37-1.2-1.36-1.99-2.58-1.76h0Zm-.98,2.29c-.03-.14-.05-.27.08-.3.17-.59.53-.94,1.07-1.04s1,.09,1.24.61l.05.27-2.44.46Z" style="fill:#fff; stroke-width:0px;"/><path d="m259.26,311.97c-.54.1-1.06.34-1.28.66l-.08-.41-.95.18.92,4.89.95-.18-.46-2.44h0c-.15-.81.26-1.6,1.08-1.75l.14-.03-.18-.95-.14.03h0Z" style="fill:#fff; stroke-width:0px;"/></g><g style="clip-path:url(#clippath-9);"><rect x="92.23" y="547.93" width="25.71" height="25.71" transform="translate(-101.85 29.09) rotate(-10.65)" style="fill:#c55b98; stroke-width:0px;"/><path d="m112.34,568.7l-11.68,2.2c-.41.08-.89-.25-.97-.66l-3.83-9.13c-.1-.54.25-.89.66-.97l15.89-2.99c.41-.08.89.25.97.66l-.25,9.89c-.06.43-.39.92-.8.99Z" style="fill:#e7bfd6; stroke-width:0px;"/><path d="m114.44,555.93l-5.3,1-3.83-3.92c-.16-.11-.3-.08-.41.08l-.22.32c-.11.16-.08.3.08.41l3.3,3.32-7.47,1.41,1.87-4.29c.11-.16.08-.3-.08-.41l-.32-.22c-.16-.11-.3-.08-.41.08l-2.28,5.07-5.3,1c-.41.08-.6.54-.53.94l.1.54c.08.41.42.76.83.69l20.37-3.83c.41-.08.6-.54.53-.94l-.1-.54c-.1-.54-.42-.76-.83-.69h0Z" style="fill:#e2aac9; stroke-width:0px;"/><path d="m104.59,561.16l1.15,6.11.15.82h0c.03.14.19.25.32.22s.25-.19.22-.32l-1.15-6.11-.15-.82h0c-.03-.14-.19-.25-.32-.22s-.25.19-.22.32h0Z" style="fill:#e2aac9; stroke-width:0px;"/><path d="m108.12,560.5l1.15,6.11.15.82h0c.03.14.19.25.32.22s.25-.19.22-.32l-1.15-6.11-.15-.82h0c-.03-.14-.19-.25-.32-.22s-.25.19-.22.32h0Z" style="fill:#e2aac9; stroke-width:0px;"/><path d="m101.06,561.82l1.15,6.11.15.82h0c.03.14.19.25.32.22s.25-.19.22-.32l-1.15-6.11-.15-.82h0c-.03-.14-.19-.25-.32-.22s-.25.19-.22.32h0Z" style="fill:#e2aac9; stroke-width:0px;"/><path d="m110.77,563.37l-10.19,1.92-.41.08h0c-.14.03-.25.19-.22.32s.19.25.32.22l10.19-1.92.41-.08h0c.14-.03.25-.19.22-.32s-.19-.25-.32-.22h0Z" style="fill:#e2aac9; stroke-width:0px;"/><path d="m111.26,565.95l-10.19,1.92-.41.08h0c-.14.03-.25.19-.22.32s.19.25.32.22l10.19-1.92.41-.08h0c.14-.03.25-.19.22-.32s-.19-.25-.32-.22h0Z" style="fill:#e2aac9; stroke-width:0px;"/><path d="m110.29,560.79l-10.19,1.92-.41.08h0c-.14.03-.25.19-.22.32s.19.25.32.22l10.19-1.92.41-.08h0c.14-.03.25-.19.22-.32s-.19-.25-.32-.22h0Z" style="fill:#e2aac9; stroke-width:0px;"/><rect x="168.97" y="533.31" width="26.26" height="25.98" transform="translate(-97.85 43.08) rotate(-10.65)" style="fill:#eabf45; stroke-width:0px;"/><path d="m187.46,547.12c-.08.3-.31.62-.58.67-.41.08-.89-.25-.83-.69l.26-3.85c.08-.3.31-.62.58-.67.41-.08.89.25.83.69l-.26,3.85Zm-3.74,7.03c-4.48.84-8.84-2.13-9.68-6.62s2.13-8.84,6.62-9.68c4.48-.84,8.84,2.13,9.68,6.62s-2.13,8.84-6.62,9.68m-4.91-4.42c-.03-.14-.21-.38-.48-.33l-1.09.2.34-5.69c-.03-.14-.21-.38-.35-.36l-.14.03c-.14.03-.25.19-.22.32l-.4,6.12c.05.27.21.38.35.36l1.49-.28c.27-.05.38-.21.49-.37m2.83-.67c-.03-.14-.21-.38-.48-.33l-1.09.2.11-2.41.81-.15c.14-.03.25-.19.22-.32s-.19-.25-.32-.22l-.54.1.13-2.28,1.22-.23c.14-.03.25-.19.22-.32s-.19-.25-.32-.22l-1.09.2-.54.1c-.14.03-.25.19-.25.19l-.37,6.26c.03.14.21.38.35.36l1.49-.28c.38-.21.49-.37.44-.65m3.13-1.29l.13-2.28c-.05-.27-.21-.38-.35-.36l-1.09.2c-.14.03-.25.19-.22.32s.19.25.32.22l.68-.13-.08,1.84c-.08.3-.31.62-.58.67-.41.08-.89-.25-.83-.69l.26-3.85c.08-.3.31-.62.58-.67.41-.08.89.25.83.69.03.14.21.38.35.36h0c.14-.03.25-.19.22-.32h0c.12-.87-.74-1.69-1.69-1.51-.68.13-1.15.64-1.15,1.34l-.26,3.85c-.12.87.74,1.69,1.69,1.51.7,0,1.17-.5,1.18-1.21m3.4-.64l.24-3.98c.12-.87-.74-1.69-1.69-1.51-.68.13-1.15.64-1.15,1.34l-.24,3.98c-.12.87.74,1.69,1.69,1.51.68-.13,1.15-.64,1.15-1.34" style="fill:#f7e352; stroke-width:0px;"/><rect x="194.78" y="528.44" width="26.4" height="25.98" transform="translate(-96.5 47.78) rotate(-10.65)" style="fill:#63ac55; stroke-width:0px;"/><path d="m202.11,550.97l-1.08-.5c-.16-.11-.21-.38-.24-.52l-.27-11.9" style="fill:#d77e3b; stroke-width:0px;"/><path d="m217.46,548.09l-15.21,2.86c-.41.08-.73-.14-.67-.58l-1.08-12.45c-.05-.27.17-.59.44-.65l12.77-2.4c.27-.05.59.17.65.44l3.52,11.99c.21.38,0,.7-.42.78Z" style="fill:#f0d047; stroke-width:0px;"/><path d="m211.7,536.93c-.13-.68-.26-1.36-.52-2.01-.21-.38-.45-.9-.77-1.12-.54-.6-1.43-.86-2.27-.84-.84.02-1.52.15-2.31.43s-1.58.58-1.99,1.36c-.64,1.1-.49,2.62-.26,3.85.05.27.4.63.81.55s.63-.4.55-.81l-.18-.95-.03-.14-.03-.14q.03.14,0,0c-.03-.14-.05-.27.06-.43-.05-.27.06-.43,0-.7-.03-.14-.11.16.03.14h0s-.03-.14.11-.16c-.03-.14.11-.16.08-.3h0c-.03-.14-.11.16,0,0l.11-.16.11-.16s.11-.16,0,0l.11-.16c.14-.03.11-.16.25-.19l.14-.03c.14-.03-.11.16-.14.03h0q.14-.03.25-.19l.27-.05.14-.03h0c.14-.03,0,0-.14.03l.54-.1.54-.1,1.09-.2.27-.05c.14-.03-.14.03-.14.03h0l.14-.03c.14-.03.3.08.43.06h0c.14-.03-.14.03-.14.03l.14-.03c.14-.03.16.11.3.08,0,0,.14-.03.16.11l-.16-.11h0l.16.11s.03.14.16.11c-.16-.11,0,0,0,0,.03.14.16.11.19.25,0,0,.03.14.16.11,0,0-.16-.11-.03-.14l.03.14c.03.14.19.25.21.38s.05.27.21.38l.05.27q-.03-.14,0,0l.03.14.2,1.09c.05.27.4.63.81.55s.33-.48.25-.89h0Z" style="fill:#e9bd45; stroke-width:0px;"/><path d="m203.86,549.1l11.55-2.17c.14-.03.16.11.16.11h0c.03.14-.11.16-.11.16l-11.55,2.17c-.14.03-.16-.11-.16-.11h0q-.03-.14.11-.16Z" style="fill:#e9bd45; stroke-width:0px;"/><rect x="206.1" y="539.95" width="5.81" height="5.81" transform="translate(-351.79 697.41) rotate(-84.35)" style="fill:#e9bd45; stroke-width:0px;"/><g style="clip-path:url(#clippath-10);"><path d="m207.71,540.36c-.43-.06-.93.31-.98.75s.31.93.75.98.93-.31.98-.75-.31-.93-.75-.98m-.61,1.24h0l-.27.05h0l.17-.59h0l-.17.59.27-.05h0m.3.08h0l-.27.05h0l.17-.59h0l.14-.03h0l-.14.03-.11.16h0l.03.14c.03.14,0,0,0,0l-.14.03-.08.3.41-.08q-.03-.14,0,0m.41-.08l-.11.16c-.14.03-.16-.11-.19-.25l.2-.46.11-.16c.14-.03.16.11.19.25h0l-.03-.14-.14.03-.2.46c-.14.03-.11.16.16.11q-.14.03,0,0l-.05-.27-.14.03h0l.14-.03h0l.05.27h0Zm.49-.37l-.2.46-.11.16c-.14.03-.16-.11-.19-.25l.2-.46.11-.16c.14-.03.16.11.19.25m-.16-.11s.14-.03,0,0l-.06.43-.14.03s-.16-.11-.03-.14l.22-.32h0m2.87.3s.14-.03,0,0l-.06.43-.14.03s-.16-.11-.03-.14l.22-.32h0m-.56-.74c-.43-.06-.93.31-.98.75s.31.93.75.98.93-.31.98-.75-.18-.95-.75-.98m-.47,1.21h0l-.27.05h0l.17-.59h0l-.17.59.27-.05h0m.27-.05s.03.14,0,0l-.27.05h0l.17-.59h0l.14-.03h0l-.14.03-.11.16h0l.03.14c.03.14,0,0,0,0l-.14.03-.08.3.41-.08h0m.43.06l-.11.16c-.14.03-.16-.11-.19-.25l.2-.46.11-.16h0c.14-.03.16.11.19.25h0l-.03-.14-.14.03-.03.57c-.3-.08-.27.05,0,0q-.14.03,0,0l-.05-.27-.14.03h0l.14-.03h0l.05.27h0Zm.49-.37l-.2.46-.11.16c-.14.03-.16-.11-.19-.25l.2-.46.11-.16c.14-.03.16.11.19.25m-3.9,1.72c-.43-.06-.93.31-.98.75s.31.93.75.98.93-.31.98-.75-.18-.95-.75-.98m-.47,1.21h0l-.27.05h0l.17-.59h0l-.17.59.27-.05h0m.3.08h0l-.27.05h0l.17-.59h0l.14-.03h0l-.14.03-.11.16h0l.03.14c.03.14,0,0,0,0l-.14.03-.08.3.41-.08c-.03-.14,0,0,0,0m.41-.08l-.11.16c-.14.03-.16-.11-.19-.25l.2-.46.11-.16c.14-.03.16.11.19.25h0l-.03-.14-.14.03-.2.46c-.14.03-.11.16.16.11q-.14.03,0,0l-.05-.27-.14.03h0l.14-.03h0l.05.27h0Zm.49-.37l-.2.46-.11.16c-.14.03-.16-.11-.19-.25l.2-.46.11-.16q.16.11.19.25m-.16-.11h0l-.06.43-.14.03s-.16-.11-.03-.14l.22-.32c-.14.03,0,0,0,0m2.87.3h0l-.06.43-.14.03s-.16-.11-.03-.14l.22-.32c-.14.03,0,0,0,0m-.56-.74c-.43-.06-.93.31-.98.75s.31.93.75.98.93-.31.98-.75-.18-.95-.75-.98m-.47,1.21s-.14.03,0,0l-.27.05h0l.17-.59h0l-.17.59.27-.05c-.14.03,0,0,0,0m.3.08h0l-.27.05h0l.17-.59h0l.14-.03h0l-.14.03-.11.16h0l.03.14c.03.14,0,0,0,0l-.14.03-.08.3.41-.08c-.16-.11-.03-.14,0,0m.27-.05l-.11.16c-.14.03-.16-.11-.19-.25l.2-.46.11-.16c.14-.03.16.11.19.25h0l-.03-.14-.14.03-.03.57c-.16-.11-.14.03,0,0h0l-.05-.27-.14.03h0l.14-.03h0l.05.27h0Zm.49-.37l-.2.46-.11.16c-.14.03-.16-.11-.19-.25l.2-.46.11-.16c.27-.05.3.08.19.25" style="fill:#f0d047; stroke-width:0px;"/></g><rect x="220.31" y="523.62" width="26.54" height="25.98" transform="translate(-95.17 52.43) rotate(-10.65)" style="fill:#cb3787; stroke-width:0px;"/><circle cx="234.2" cy="536.92" r="8.15" transform="translate(-95.22 52.55) rotate(-10.65)" style="fill:#f0d047; stroke-width:0px;"/><path d="m240.15,535.66c.64,3.4-1.57,6.62-4.96,7.26s-6.62-1.57-7.26-4.96c-.64-3.4,1.57-6.62,4.96-7.26s6.62,1.57,7.26,4.96Z" style="fill:#e9bd45; stroke-width:0px;"/><path d="m236.58,537.6c.1.54.07,1.11-.29,1.46-.2.46-.58.67-1.09.91l.08.41q.05.27-.06.43c.03.14-.11.16-.25.19l-.41.08-.41.08c-.14.03-.16-.11-.16-.11-.03-.14-.16-.11-.21-.38l-.08-.41c-.3-.08-.57-.03-.87-.12s-.46-.2-.62-.31c0,0-.3-.08-.37-.49-.03-.14.06-.43.14-.73.11-.16.25-.19.38-.21s.41-.08.73.14.62.31.89.25c.54-.1.76-.42.69-.83-.03-.14-.19-.25-.35-.36-.3-.08-.43-.06-.87-.12-.3-.08-.59-.17-1-.09s-.59-.17-.92-.39-.4-.63-.48-1.04-.02-.84.18-1.3c.2-.46.58-.67,1.09-.91l-.05-.27q-.05-.27.06-.43c.11-.16.22-.32.49-.37s.41-.08.43.06.16.11.19.25l.05.27.05.27c.27-.05.43.06.57.03.16.11.3.08.43.06l.16.11c.16.11.19.25.21.38s.05.27-.03.57-.63.4-.93.31c-.3-.08-.73-.14-.87-.12s-.41.08-.38.21-.08.3-.06.43.19.25.35.36,1.14.07,1.3.18,1.03.23,1.4.72c.59.17.78.42.86.82h0Z" style="fill:#f0d047; stroke-width:0px;"/><rect x="117.52" y="543.15" width="25.98" height="25.98" transform="translate(-100.56 33.71) rotate(-10.65)" style="fill:#e4a6c6; stroke-width:0px;"/><rect x="143.04" y="538.29" width="26.68" height="25.85" transform="translate(-99.2 38.41) rotate(-10.65)" style="fill:#e7bfd6; stroke-width:0px;"/><path d="m132.99,545.41c-5.43.32-9.63,4.9-9.31,10.33.32,5.43,4.9,9.63,10.33,9.31,5.43-.32,9.63-4.9,9.31-10.33s-4.9-9.63-10.33-9.31" style="fill:#f1f0f0; stroke-width:0px;"/><path d="m133.26,550.56c-1.35-.45-2.61.35-3.08,1.56s.35,2.61,1.56,3.08c1.35.45,2.61-.35,3.08-1.56s-.21-2.63-1.56-3.08m-3.54,11.07c-3.46-1.18-5.42-4.89-4.38-8.32s4.89-5.42,8.34-4.24,5.42,4.89,4.38,8.32-4.78,5.26-8.34,4.24" style="fill:#0a0b0f; stroke-width:0px;"/><path d="m152.42,541.76c-5.43.32-9.63,4.9-9.31,10.33.32,5.43,4.9,9.63,10.33,9.31,5.43-.32,9.63-4.9,9.31-10.33-.18-5.45-4.9-9.63-10.33-9.31" style="fill:#f1f0f0; stroke-width:0px;"/><path d="m153.6,547.3c-1.24-.61-2.73-.33-3.34.91s-.19,2.71.91,3.34,2.73.33,3.34-.91.36-2.6-.91-3.34m-5.7,10.07c-3.15-1.8-4.35-5.93-2.42-9.11,1.8-3.15,5.96-4.21,9.11-2.42s4.35,5.93,2.42,9.11c-1.8,3.15-5.96,4.21-9.11,2.42" style="fill:#0a0b0f; stroke-width:0px;"/></g><g style="clip-path:url(#clippath-11);"><rect x="223.38" y="335.91" width="256.53" height="125.5" transform="translate(-67.63 71.87) rotate(-10.65)" style="fill:#c13530; stroke-width:0px;"/></g><g style="clip-path:url(#clippath-12);"><g style="isolation:isolate;"><path d="m278.47,385.71l2.85-.54,6.23,33.14,17.52-3.3.49,2.58-20.37,3.83-6.72-35.72Z" style="fill:#d83a38; stroke-width:0px;"/></g></g><g style="clip-path:url(#clippath-13);"><g style="isolation:isolate;"><path d="m317.62,377.78c9.89-2,20.17,4.79,21.79,14.89,2.19,10.14-4.92,20.19-14.89,21.79-10,2.16-20.03-4.81-21.79-14.89-2.03-10.03,4.81-20.03,14.89-21.79Zm.65,2.69c-8.58,1.47-14.16,9.98-12.39,18.64,1.52,8.85,9.78,14.61,18.31,12.87,8.58-1.47,14.16-9.98,12.39-18.64-1.52-8.85-9.94-14.73-18.31-12.87Z" style="fill:#d83a38; stroke-width:0px;"/><path d="m371.65,368.18l-8.39,39.13-1.09.2-22.17-33.38,2.99-.56,18.57,28.43,6.97-33.24s3.12-.59,3.12-.59Z" style="fill:#d83a38; stroke-width:0px;"/><path d="m379.12,366.77l22.28-4.19.49,2.58-19.56,3.68,2.38,12.63,15.21-2.86.49,2.58-15.21,2.86,2.91,15.48,20.24-3.81.49,2.58-22.96,4.32-6.75-35.86Z" style="fill:#d83a38; stroke-width:0px;"/><path d="m439.9,392.33l-14.97-13.78-8.69,1.64,3.01,16.03-2.99.56-6.72-35.72,12.09-2.27c6.66-1.25,11.66,2.17,12.71,7.74.95,5.03-1.33,9.39-6.34,11.18l15.16,14.03-3.26.61Zm-24.26-14.56l9.24-1.74c5.16-.97,7.45-4.5,6.63-8.84s-4.23-6.8-9.39-5.83l-9.24,1.74,2.76,14.67h0Z" style="fill:#d83a38; stroke-width:0px;"/></g></g><g style="clip-path:url(#clippath-14);"><rect x="240.91" y="460.06" width="256.53" height="63.58" transform="translate(-84.56 76.72) rotate(-10.65)" style="fill:#fff; stroke-width:0px;"/></g><g style="clip-path:url(#clippath-15);"><path d="m236.21,478.04l110.43-20.77c7.88-1.48,15.33,3.73,16.78,11.47l.03.14c1.48,7.88-3.73,15.33-11.47,16.78l-96.31,18.11c-7.88,1.48-15.33-3.73-16.78-11.47l-2.68-14.26h0Z" style="fill:#010101; stroke-width:0px;"/></g><g style="clip-path:url(#clippath-16);"><g style="isolation:isolate;"><path d="m267.93,479.95l2.1,11.14-.95.18-7.05-4.58,1.05,5.57-2.85.54-2.1-11.14.95-.18,7.05,4.58-1.02-5.43,2.85-.54-.03-.14Z" style="fill:#fff; stroke-width:0px;"/><path d="m270.1,479.54l2.85-.54,2.04,10.87-2.85.54-2.04-10.87Z" style="fill:#fff; stroke-width:0px;"/><path d="m280.4,477.46c2.17-.41,4.14.35,5.59,2.04l-1.89,1.9c-.91-1.09-1.96-1.46-3.18-1.23-1.77.33-2.76,1.78-2.43,3.55.18.95.58,1.58,1.22,2.02s1.38.59,2.33.41c1.22-.23,2.07-.95,2.52-2.3l2.45,1.09c-.59,2.08-2.29,3.52-4.46,3.93-3.26.61-6.44-1.32-6.91-4.61-.61-3.26,1.62-6.35,4.77-6.8Z" style="fill:#fff; stroke-width:0px;"/><path d="m296.08,486.05l-5.23-4.64,1.02,5.43-2.85.54-2.04-10.87,2.85-.54.92,4.89,2.75-5.58,3.26-.61-2.83,5.88,5.42,4.89-3.26.61Z" style="fill:#fff; stroke-width:0px;"/><path d="m308.27,472.36l2.1,11.14-.95.18-7.05-4.58,1.05,5.57-2.72.51-2.1-11.14.95-.18,7.05,4.58-1.02-5.43,2.72-.51-.03-.14h0Z" style="fill:#fff; stroke-width:0px;"/><path d="m318.58,480.83l-3.94.74-.23,1.03-2.99.56,2.79-12.06.95-.18,6.99,10.22-2.99.56-.59-.87Zm-2.8-4.4l-.47,2.76,1.9-.36-1.44-2.4Z" style="fill:#fff; stroke-width:0px;"/><path d="m332.42,467.68l2.1,11.14-2.85.54-.87-4.62-1.82,3.02-.95.18-2.79-2.15.87,4.62-2.85.54-2.1-11.14.95-.18,5.69,4.84,3.55-6.57,1.09-.2Z" style="fill:#fff; stroke-width:0px;"/><path d="m334.62,467.4l7.61-1.43.49,2.58-4.75.89.28,1.49,3.4-.64.46,2.44-3.4.64.36,1.9,4.89-.92.49,2.58-7.74,1.46-2.07-11h0Z" style="fill:#fff; stroke-width:0px;"/></g></g><path d="m488.72,500.86l-381.96,71.84c-6.79,1.28-13.25-3.13-14.52-9.93l-46.22-245.72c-1.28-6.79,3.13-13.25,9.93-14.52l382.1-71.87c6.79-1.28,13.25,3.13,14.52,9.93l46.24,245.86c1.12,6.68-3.3,13.14-10.09,14.41Z" style="fill:none; stroke:#676767; stroke-miterlimit:10; stroke-width:.5px;"/></g><path d="m297.12,98c.33.03.65.1.98.1h42.92c-.41-2.48,1.08-3.84,2.77-5.05,3.08-2.21,6.64-3.24,10.29-3.99,3.63-.75,7.33-.91,11.01-.7,4.68.26,9.25,1.16,13.49,3.25,1.63.8,3.2,1.73,4.33,3.27.74,1.01,1.15,2.02.69,3.39,1.27,0,2.45.1,3.6-.02,2.28-.27,4.21.74,6.2,1.56,6.03,2.47,12.06,4.95,18.1,7.42,6.44,2.65,12.9,5.29,19.33,7.95,5.17,2.12,10.34,4.26,15.5,6.4.1.03.19.09.33.15h-203.36v85.01c-1.61-.65-3.05-1.22-4.47-1.82-3.61-1.51-7.23-3.01-10.86-4.5-4.73-1.95-9.45-3.89-14.18-5.84-5.34-2.19-10.69-4.37-16.01-6.58-3.82-1.58-7.62-3.15-11.44-4.73-.6-.24-.75-.62-.75-1.25v-83.16c0-.74.19-.99.96-.99,16.01.02,32.01,0,48.02.02,5.72,0,11.44.14,17.16.15.8,0,1.03.24,1.01,1.03-.05,2.11.09,4.23-.03,6.34-.14,2.35.91,3.97,2.71,5.31,3.65,2.72,7.77,4.26,12.23,5.09,3.87.72,7.79.63,11.68.48,3.7-.15,7.38-.63,10.89-1.94,2.43-.91,4.78-2.02,6.25-4.3.43-.67.7-1.54.72-2.35.07-3.25.02-6.51,0-9.78h-.02v.02l-.03.05Zm86.67.26c-.67.75-1.15,1.35-1.71,1.88-2.79,2.67-6.34,3.8-9.97,4.62-2.23.51-4.54.63-6.82.96-3.1.45-6.17.1-9.23-.27-2.09-.26-4.16-.79-6.18-1.4-2.47-.75-4.86-1.73-6.82-3.51-.72-.65-1.37-1.4-2.12-2.17,0,3.1-.03,6.11.03,9.11,0,.55.39,1.22.8,1.63,2.21,2.28,4.88,3.85,7.84,4.93,5.12,1.85,10.4,2.47,15.81,1.97,2.41-.22,4.83-.36,7.21-.75,3.43-.55,6.73-1.56,9.37-3.96,1.06-.96,1.87-2.14,1.8-3.75-.09-2.11-.02-4.21-.02-6.34v-2.95h0Z" style="fill:#221f20; stroke-width:0px;"/><path d="m299.51,145.34c1.63.79,3.12,1.64,4.2,3.08,1.85,2.5,2.19,5.24,1.34,8.17-1.11,3.78-3.85,5.98-7.45,6.99-1.95.55-4.06.7-6.11.75-4.88.1-9.76,0-14.64.05-.79,0-1.03-.22-1.03-1.01.02-11.17.02-22.31,0-33.46,0-.77.19-1.04,1.01-1.04,4.16.03,8.32-.09,12.47.05,3.51.1,6.8,1.01,9.44,3.56,3.19,3.07,3.87,8.73,1.23,12.11-.17.22-.29.51-.43.79h0l-.02-.03Zm-14.4,11.3c2.93-.1,5.81-.1,8.67-.33,1.1-.09,1.92-.89,2.17-2.11.22-1.06.09-1.99-.67-2.84-.87-.99-2.06-1.08-3.2-1.11-2.11-.09-4.21-.02-6.32-.02-.22,0-.45.05-.67.09v6.3h0l.02.02Zm0-13.55c1.66-.14,3.24-.15,4.78-.39,1.28-.21,2.12-1.42,2.21-2.6.14-1.83-.87-2.88-2.09-3.13-1.58-.33-3.24-.27-4.91-.39v6.52h.02Z" style="fill:#221f20; stroke-width:0px;"/><path d="m320.2,153.32c-.02.43-.05.75-.05,1.08,0,2.96-.02,5.91,0,8.87,0,.72-.19,1.03-.96,1.01-2.53-.03-5.07-.03-7.59,0-.75,0-.99-.29-.99-1.03v-33.29c0-.8.33-1.03,1.08-1.03,4.57.02,9.16,0,13.73,0,3.72,0,7.14,1.03,10.02,3.43,2.09,1.75,3.29,4.08,3.7,6.8.39,2.59,0,5.03-1.15,7.35-.98,1.94-2.48,3.43-4.45,4.64,3.19,4.33,6.32,8.58,9.57,13-.43.03-.72.1-1.03.1-2.93,0-5.84,0-8.77.02-.65,0-1.06-.22-1.44-.72-2.28-3.05-4.59-6.06-6.85-9.13-.57-.77-1.15-1.28-2.21-1.15-.86.1-1.73.02-2.65.02h0l.03.03Zm0-7.89c2.14-.1,4.18-.1,6.2-.31,1.54-.15,2.86-1.7,3.13-3.32.29-1.76-.58-3.46-2.02-4.26-.96-.53-1.95-.51-2.96-.51h-4.33v8.39l-.02.02Z" style="fill:#221f20; stroke-width:0px;"/><path d="m436.94,129.21c-.65.89-1.28,1.78-1.94,2.65-3.31,4.4-6.61,8.82-9.97,13.19-.43.57-.36.94,0,1.4,1.49,1.88,2.98,3.75,4.47,5.63,2.24,2.81,4.49,5.62,6.71,8.43.92,1.16,1.85,2.35,2.91,3.66-.39.03-.67.1-.94.1-3.25,0-6.51.03-9.76-.02-.39,0-.89-.31-1.16-.63-1.73-2.11-3.41-4.25-5.1-6.39-2.6-3.29-5.19-6.58-7.79-9.86-.1-.12-.26-.21-.57-.46v16.35c0,.79-.24,1.04-1.03,1.04-2.53-.03-5.07-.03-7.6,0-.8,0-1.01-.29-1.01-1.06.02-11.06.02-22.14,0-33.21,0-.86.27-1.1,1.1-1.08,2.47.03,4.95.05,7.42,0,.84,0,1.15.21,1.15,1.11-.05,4.49-.02,8.99-.02,13.48v.96l.22.09c.87-1.11,1.75-2.21,2.6-3.34,2.91-3.84,5.81-7.69,8.7-11.54.41-.53.87-.77,1.59-.75,2.96.05,5.91.02,8.85.02h.98l.14.24h0l.05-.02Z" style="fill:#221f20; stroke-width:0px;"/><path d="m398.96,137.68c-2.59,1.7-4.98,3.25-7.31,4.78-1.1-1.16-2.07-2.31-3.19-3.34-1.68-1.54-3.73-2.23-5.99-2.33-3.7-.15-6.82,1.03-8.97,4.16-2.53,3.7-2.21,9.21.79,12.47,2.21,2.4,5.09,3.17,8.25,3.01,3.87-.19,6.58-2.26,8.67-5.36.07-.1.14-.19.29-.39,2.41,1.58,4.83,3.15,7.28,4.76-1.52,2.81-3.6,4.97-6.2,6.59-3.87,2.41-8.15,3.19-12.62,2.84-5.39-.41-10.04-2.6-13.63-6.68-2.79-3.17-4.23-6.88-4.3-11.18-.03-2.83.45-5.51,1.68-8.03,1.63-3.31,4.09-5.86,7.26-7.79,3.89-2.36,8.15-3.17,12.6-2.84,4.8.34,9.04,2.07,12.4,5.6,1.04,1.1,1.9,2.38,2.96,3.72h0l.03.02Z" style="fill:#221f20; stroke-width:0px;"/><path d="m297.13,97.99c-.24.27-.5.55-.72.82-1.71,2.17-4.06,3.39-6.56,4.38-3.39,1.34-6.9,2.16-10.53,2.35-2.6.12-5.24.33-7.84.15-5.14-.36-10.14-1.42-14.66-4.04-1.7-.98-3.27-2.14-3.99-4.11-.53-1.47.26-2.57,1.15-3.56,1.76-1.97,4.11-3.07,6.52-4.01,3.25-1.27,6.63-2,10.12-2.17,2.47-.12,4.93-.31,7.38-.15,4.37.27,8.68.96,12.67,2.89,1.7.82,3.37,1.83,4.85,3.01,1.25,1.01,2.09,2.41,1.51,4.21-.02.07.05.17.07.24h.02l.02-.02Z" style="fill:#221f20; stroke-width:0px;"/><path d="m298.96,173.39c2.57,0,4.95-.02,7.31.03.29,0,.69.45.8.77,1.54,3.87,3.05,7.74,4.57,11.63.02.05.07.09.17.22.75-1.59,1.51-3.13,2.23-4.69.94-2.04,1.87-4.09,2.81-6.13.17-.36.41-.69.5-1.06.22-1.03.79-1.35,1.85-1.35.94,0,1.25.46,1.56,1.16,1.32,2.93,2.67,5.84,4.01,8.75.46,1.01.92,2,1.51,3.25.26-.45.43-.67.51-.92,1.44-3.65,2.88-7.31,4.35-10.94.12-.29.5-.67.77-.67,2.38-.05,4.74-.03,7.26-.03-.63,1.63-1.23,3.13-1.85,4.66-1.87,4.64-3.75,9.26-5.63,13.91-1.06,2.64-2.14,5.27-3.19,7.91-.22.55-.55.82-1.16.77-.67-.05-1.35.17-1.76-.7-1.88-3.99-3.84-7.95-5.77-11.92-.17-.36-.38-.72-.6-1.15-.17.14-.31.19-.34.27-.96,1.88-1.9,3.75-2.84,5.65-1.2,2.43-2.36,4.86-3.54,7.3-.41.86-1.22.55-1.85.5-.34-.02-.82-.39-.96-.72-2.72-6.68-5.39-13.39-8.08-20.09-.84-2.07-1.71-4.14-2.64-6.4h.02Z" style="fill:#221f20; stroke-width:0px;"/><path d="m392.47,186.8c0-4.13.02-8.25,0-12.4,0-.79.22-1.04,1.01-1.03,3.32.03,6.64-.15,9.95.05,5.26.34,9.57,2.6,11.78,7.55,2.11,4.71,1.73,9.45-1.44,13.73-2.4,3.25-5.79,4.97-9.74,5.26-3.56.27-7.16.15-10.74.24-.72.02-.84-.31-.84-.92.02-4.16,0-8.32,0-12.48h.02Zm6.95-7.02v14.06c1.01,0,1.97.05,2.91,0,1.9-.14,3.68-.7,4.98-2.14,1.59-1.76,2.14-3.84,1.82-6.22-.34-2.43-1.59-4.11-3.75-5.12-1.88-.89-3.92-.6-5.98-.58h.02Z" style="fill:#221f20; stroke-width:0px;"/><path d="m389.7,200.19c-2.65,0-5.02,0-7.36-.02-.26,0-.6-.24-.77-.48-1.7-2.28-3.37-4.57-5.03-6.88-.67-.92-2.26-1.44-3.24-.94-.19.09-.31.48-.31.74-.02,2.19-.03,4.4,0,6.61,0,.74-.19,1.01-.96.99-1.75-.05-3.49-.03-5.24,0-.67,0-.89-.22-.89-.89,0-8.36.02-16.71,0-25.07,0-.69.22-.87.89-.87,3.72.02,7.43-.17,11.11.05,5.36.34,9.32,4.18,8.89,9.9-.22,2.95-1.63,5.14-4.11,6.88,2.31,3.27,4.61,6.52,7.04,9.98h-.02Zm-16.68-14.51h3.78c1.25-.02,2.59-1.11,2.81-2.24.34-1.78-.31-3.39-1.83-3.73-1.54-.34-3.17-.31-4.83-.43v5.69c0,.21.03.41.05.74h0l.02-.02Z" style="fill:#221f20; stroke-width:0px;"/><path d="m274.87,200.19c-2.53,0-4.91.02-7.28-.02-.29,0-.63-.31-.82-.57-1.75-2.36-3.48-4.74-5.19-7.11-.45-.6-2.59-1.04-3.12-.57-.21.17-.24.6-.24.91-.02,2.07-.03,4.16,0,6.23.02.84-.19,1.2-1.11,1.15-1.68-.07-3.37-.03-5.05,0-.62,0-.84-.19-.84-.82v-25.14c0-.62.17-.86.82-.86,3.7.02,7.42-.14,11.11.05,4.2.21,8.08,2.86,8.8,7.36.57,3.49-.33,6.59-3.25,8.82-.65.5-.67.82-.24,1.42,2.06,2.84,4.09,5.69,6.13,8.53.1.14.15.31.29.63h0l-.02-.03Zm-16.54-14.51c1.37,0,2.67.09,3.96-.02,1.46-.12,2.57-1.28,2.67-2.6.14-1.76-.6-3.2-2.04-3.44-1.49-.24-3.01-.21-4.59-.31v6.39h0v-.02Z" style="fill:#221f20; stroke-width:0px;"/><path d="m284.75,179.57v3.78h7.54c.46,0,.75.1.74.65,0,1.51-.02,3.01,0,4.52,0,.63-.36.65-.82.65h-6.42c-.33,0-.65.02-1.03.05v4.64h1.11c3.34,0,6.7.02,10.04,0,.72,0,.94.22.92.94-.05,1.54-.03,3.08,0,4.61,0,.63-.21.84-.84.84-5.84-.02-11.7-.02-17.54,0-.63,0-.84-.21-.84-.84v-25.16c0-.62.19-.84.82-.84,5.67.02,11.34.02,17.01,0,.62,0,.86.19.84.82-.03,1.47-.05,2.96,0,4.44.02.7-.19.94-.92.94-3.17-.03-6.34,0-9.49,0h-1.13l.02-.05Z" style="fill:#221f20; stroke-width:0px;"/><path d="m363.15,200.16c-.53.02-.82.05-1.1.05-1.83,0-3.68-.03-5.51.02-.69.02-1.04-.22-1.28-.84-.58-1.52-.6-1.52-2.23-1.52-2.35,0-4.69.02-7.04,0-.67,0-1.03.19-1.27.84-.53,1.54-.57,1.52-2.17,1.52h-5.99c.62-1.42,1.16-2.67,1.71-3.92,1.7-3.8,3.37-7.6,5.07-11.42,1.37-3.07,2.76-6.13,4.14-9.18.33-.7.69-1.4.96-2.12.17-.45.34-.79.87-.69.67.12,1.54-.41,1.97.6.8,1.83,1.66,3.66,2.47,5.5,1.16,2.62,2.33,5.26,3.49,7.89,1.64,3.7,3.27,7.4,4.91,11.08.31.67.6,1.35,1.01,2.23h0l-.02-.03Zm-13.12-13.53c-.1,0-.21-.02-.33-.03-.7,1.82-1.39,3.65-2.12,5.57h4.52c-.72-1.9-1.4-3.72-2.07-5.53h0Z" style="fill:#221f20; stroke-width:0px;"/><path d="m433.76,181.78c-.98-1.15-1.76-2.35-3.24-2.62-.72-.14-1.51-.19-2.23-.09-.74.1-1.32.6-1.42,1.44-.1.89.46,1.44,1.15,1.76,1.63.77,3.29,1.44,4.93,2.17,2.28,1.01,4.35,2.29,5.53,4.64,1.7,3.43.15,8.13-3.17,10.05-4.35,2.52-11.56,1.78-15.12-2.21-1.78-2-1.85-2.14.29-3.75.45-.34.91-.69,1.35-1.03s.89-.7,1.54-1.2c.48.55.96,1.13,1.47,1.66,1.54,1.58,3.41,2.14,5.58,1.75.91-.17,1.46-.69,1.63-1.56.17-.92-.29-1.58-1.1-1.97-2.06-.99-4.14-1.9-6.18-2.93-2.11-1.08-3.85-2.55-4.62-4.91-1.28-3.96.82-8.03,4.83-9.45,2.86-1.01,5.72-.99,8.53.05,2.11.79,3.61,2.29,4.68,4.25.07.14.05.46-.05.55-1.44,1.13-2.89,2.21-4.42,3.37h0l.03.02Z" style="fill:#221f20; stroke-width:0px;"/><path d="m356.51,146.59v16.56c0,.86-.22,1.16-1.11,1.15-2.47-.05-4.95-.03-7.42,0-.72,0-1.03-.22-1.03-.98v-33.38c0-.7.26-.98.96-.96,2.57.02,5.12.03,7.69,0,.74,0,.89.33.89.99-.02,5.55,0,11.1,0,16.65h0l.02-.03Z" style="fill:#221f20; stroke-width:0px;"/><path d="m261.44,159.83c2.12,0,4.01.03,5.89,0,.8-.02,1.16.17,1.08,1.04-.07.8-.05,1.63,0,2.43.05.75-.22,1.01-.98.99-2.35-.03-4.69,0-7.06,0h-8.41c-.38,0-.96-.12-1.08-.36-.21-.48-.14-.99.39-1.42,2.59-2.07,5.15-4.2,7.72-6.3.22-.19.45-.39.75-.67-.84-.7-1.61-1.39-2.41-2.04-2.06-1.7-4.14-3.34-6.17-5.07-.27-.24-.29-.84-.29-1.28,0-.1.51-.31.8-.31,5.27-.02,10.55,0,15.82-.02.67,0,.92.19.89.87-.05.84-.05,1.7,0,2.53.05.74-.19,1.01-.96.99-1.92-.05-3.85,0-5.77,0l-.15.24c.8.7,1.63,1.39,2.41,2.12.65.6,1.66,1.03,1.39,2.19-.09.38-.27.79-.53,1.04-.92.86-1.9,1.64-2.86,2.47-.14.1-.22.27-.48.6h0l-.02-.07Z" style="fill:#221f20; stroke-width:0px;"/><path d="m251.22,144.82c0-1.59-.03-3.03.03-4.47,0-.27.39-.62.7-.79,1.63-.91,3.25-1.76,5.07-2.72-.39-.31-.62-.55-.87-.69-1.37-.74-2.76-1.47-4.16-2.16-.57-.27-.82-.58-.79-1.23.05-1.32,0-2.64,0-4.16.87.46,1.58.82,2.26,1.2,2.43,1.35,4.85,2.76,7.3,4.08.6.33,1.35.53,2.04.57,1.56.09,3.13.05,4.69,0,.74-.02.96.24.92.94-.05.94-.05,1.87,0,2.81.03.65-.24.84-.86.82-1.18-.03-2.36.1-3.53-.03-1.82-.24-3.24.58-4.71,1.42-2.45,1.4-4.91,2.76-7.38,4.11-.17.1-.38.15-.75.29h0l.03.02Z" style="fill:#221f20; stroke-width:0px;"/><path d="m507.18,548.36v93.72c0,.33.15.7-.15.98v-93.98c0-.24-.19-.55.15-.72h0Z" style="fill:#424242; stroke-width:0px;"/><path d="m602.05,548.36h-94.87v93.72c0,.33.14.7-.15.98v.32c.34,0,.69-.02,1.04-.02,31,0,62,0,92.99.02.78,0,1.02-.13,1.02-.97-.02-31.35-.02-62.7-.02-94.05h0Zm-2.34,93.7c-15.08-.02-30.18-.02-45.25-.02s-30.07,0-45.09.02c-.84,0-1.02-.24-1.01-1.04.02-30.09.01-60.18.01-90.26,0-.7.35-1.05,1.04-1.05h90.26c.69,0,1.03.35,1.03,1.05,0,30.09,0,60.18.02,90.28,0,.8-.17,1.03-1.01,1.03h-.01Z" style="fill:#020202; stroke-width:0px;"/><path d="m507.02,643.39c.35,0,.69-.02,1.04-.02,31,0,62,0,93,.01.77,0,1.02-.13,1.02-.97-.02-31.35-.02-62.7-.02-94.05.05.03.16-.08.16.08v.64c0,31.25,0,62.49.01,93.74,0,.6-.13.74-.74.74-31.24-.02-62.49-.01-93.73-.02-.24,0-.55.19-.72-.15h-.01Z" style="fill:#fdfeff; stroke-width:0px;"/><path d="m600.69,550.76c0-.7-.34-1.05-1.03-1.05h-90.26c-.69,0-1.04.35-1.04,1.05,0,30.09,0,60.18-.01,90.26,0,.8.16,1.04,1.01,1.04,15.03-.02,30.06-.02,45.09-.02s30.17,0,45.25.02c.83,0,1.01-.24,1.01-1.03-.02-30.09-.02-60.18-.02-90.28h.01Zm-4.42,46.7c-1.37,4.08-2.96,8.03-5.51,11.53-3.25,4.46-7.56,6.83-13.15,6.77-3.14-.04-6.12-.63-8.67-2.6-.46-.36-.9-.78-1.29-1.21-.27-.28-.45-.34-.78-.07-3.13,2.6-6.76,3.88-10.79,3.93-2.86.03-5.57-.62-7.96-2.33-.42-.31-.68-.27-1.11-.03-5.38,2.9-10.81,3.37-16.26.2-.43-.25-.67-.08-1.01.11-3.74,1.98-7.68,2.48-11.74,1.41-4.88-1.29-7.64-5.62-7.06-10.62.67-5.74,2.72-11.03,5-16.26,1.15-2.66,2.45-5.24,3.93-7.72,3.12-5.17,8.23-6.46,13.47-5.17,1.2.3,2.21.95,2.86,2.05.19.31.32.34.61.11,2.81-2.18,6.11-2.7,9.53-2.81,1.66-.05,3.31,0,4.95.4,1.22.31,2.42.77,3.4,1.55.59.46,1.01.37,1.63.08,5.16-2.51,10.44-2.63,15.78-.61.95.36,1.83.92,2.55,1.64.43.43.69.32,1.14.02,4.7-3.28,9.85-3.83,15.15-2.01,4.61,1.58,6.89,5.19,7.18,9.98.24,4-.58,7.87-1.85,11.65h-.01Z" style="fill:#d83b34; stroke-width:0px;"/><path d="m577.63,615.76c-3.14-.04-6.12-.63-8.67-2.6-.46-.36-.89-.78-1.29-1.2-.27-.3-.45-.35-.78-.07-3.13,2.6-6.76,3.88-10.79,3.93-2.86.04-5.59-.62-7.96-2.32-.42-.3-.68-.27-1.11-.03-5.38,2.9-10.81,3.37-16.25.21-.43-.25-.68-.08-1.01.11-3.73,1.98-7.67,2.49-11.74,1.41-4.88-1.29-7.64-5.62-7.06-10.62.67-5.74,2.72-11.04,5-16.28,1.15-2.66,2.45-5.24,3.93-7.72,3.12-5.17,8.23-6.46,13.47-5.17,1.2.3,2.21.95,2.86,2.05.17.31.32.34.61.12,2.81-2.18,6.11-2.7,9.53-2.82,1.66-.05,3.31,0,4.94.4,1.24.31,2.42.77,3.41,1.55.59.46,1.01.38,1.63.08,5.16-2.51,10.44-2.63,15.78-.61.95.36,1.83.92,2.56,1.64.43.43.69.33,1.14.02,4.7-3.27,9.85-3.83,15.15-2,4.61,1.58,6.9,5.2,7.18,9.97.24,4-.58,7.87-1.85,11.66-1.37,4.08-2.96,8.03-5.51,11.53-3.25,4.46-7.56,6.83-13.14,6.77h0l-.04-.02Zm-9.86-7.92c1.15,2.93,3.36,4.6,6.32,5.3,2.55.59,5.1.48,7.62-.23,3.88-1.08,6.48-3.72,8.44-7.08,2.14-3.67,3.57-7.64,4.65-11.74.72-2.75,1.21-5.53.98-8.41-.32-3.96-2.65-6.94-6.37-7.97-2.49-.69-5.03-.69-7.55-.14-2.81.61-5.15,2.04-7.06,4.24-1.09-2.03-2.73-3.38-4.89-3.96-5.06-1.37-9.91-1.05-14.33,2.1-.27.2-.42.31-.69-.04-.85-1.14-2.04-1.78-3.36-2.23-2.21-.77-4.49-.66-6.76-.47-2.85.24-5.52,1.05-7.66,3.09-.58.55-1.03,1.2-1.62,1.92-.02-.32-.02-.5-.04-.68-.19-2.12-1.29-3.45-3.36-3.98-1.66-.42-3.34-.42-5.01,0-2.42.61-4.07,2.19-5.28,4.27-2.86,4.97-5.14,10.22-6.92,15.67-.92,2.83-1.72,5.68-1.65,8.71.08,2.98,1.75,5.41,4.51,6.51,1.06.43,2.15.61,3.29.64,3.31.09,6.47-.38,9.07-2.69.33-.28.45-.08.62.11.98.94,2.11,1.67,3.41,2.04,4.94,1.4,9.45.66,13.48-2.67,4.16,5.06,14.6,4.57,20.11-2.33h0l.03-.02Z" style="fill:#f8d048; stroke-width:0px;"/><path d="m567.76,607.83c-5.52,6.9-15.95,7.38-20.11,2.33-4.02,3.32-8.55,4.07-13.48,2.67-1.3-.37-2.43-1.09-3.41-2.04-.19-.17-.3-.39-.62-.11-2.6,2.31-5.75,2.78-9.07,2.69-1.13-.03-2.23-.23-3.29-.64-2.77-1.1-4.44-3.53-4.51-6.51-.08-3.03.72-5.88,1.65-8.71,1.78-5.45,4.06-10.69,6.92-15.67,1.2-2.09,2.86-3.67,5.28-4.27,1.66-.42,3.34-.42,5.01,0,2.08.52,3.17,1.85,3.36,3.98.01.17.02.35.04.68.59-.72,1.04-1.38,1.62-1.92,2.14-2.04,4.81-2.85,7.66-3.09,2.26-.2,4.55-.31,6.76.47,1.31.46,2.51,1.1,3.36,2.23.26.35.4.24.69.04,4.42-3.15,9.27-3.46,14.33-2.1,2.14.58,3.79,1.92,4.89,3.96,1.91-2.2,4.25-3.63,7.06-4.24,2.52-.55,5.05-.55,7.55.14,3.73,1.04,6.06,4.01,6.37,7.97.23,2.87-.26,5.66-.98,8.41-1.08,4.1-2.5,8.07-4.65,11.74-1.96,3.37-4.56,6-8.44,7.08-2.52.7-5.07.82-7.62.23-2.97-.69-5.17-2.37-6.32-5.3h0l-.03.02Zm-11.8,2.78c1.16.04,2.26-.11,3.34-.45,4.13-1.26,6.79-4.12,8.49-7.96.9-2.01,1.54-4.11,1.46-6.35-.07-1.68-.96-2.74-2.59-3.13-1.17-.27-2.33-.19-3.51-.01-1.73.25-2.85,1.18-3.49,2.8-.58,1.5-.52,2.98,1.74,3.34.3.05.42.13.33.47-.43,1.56-1.14,2.94-2.54,3.86-.83.54-1.76.78-2.66.26-.9-.51-.78-1.45-.68-2.31.19-1.54.67-3.02,1.16-4.49.95-2.84,1.99-5.64,3.43-8.27.52-.95,1.19-1.81,2.28-2.14.66-.21,1.42-.35,1.99.15s.13,1.15,0,1.73c-.02.08-.07.15-.09.23-.38,1.4.13,2.28,1.53,2.66,2.43.66,4.89-.59,5.82-2.93,1.42-3.59.36-6.42-3.01-7.43-4.75-1.43-10.8-.73-14.36,4.61-2.28,3.43-3.83,7.2-5,11.14-.73,2.46-1.38,4.95-1.25,7.56.16,3.13,1.74,5.31,4.45,6.23,1.03.35,2.08.5,3.14.45h0v-.02Zm21.59-.02c1.24.04,2.36-.11,3.48-.44,2.9-.84,4.86-2.83,6.37-5.32,1.93-3.21,3.33-6.68,4.36-10.3.72-2.55,1.32-5.14,1.28-7.8-.05-3.41-1.71-5.63-4.69-6.35-1.77-.43-3.55-.42-5.35-.1-3.49.61-5.85,2.72-7.49,5.73-1.85,3.39-3.13,7.02-4.2,10.71-.71,2.45-1.26,4.93-1.24,7.49.02,3.33,1.8,5.51,5.06,6.16.81.16,1.64.26,2.4.21h0Zm-39.21-8.11c.36-1.53.81-2.89,1.26-4.25.13-.39.36-.28.62-.24,1.06.17,2.12.26,3.2.23,2.34-.09,3.92-1.24,4.63-3.4.69-2.05-.09-3.24-2.24-3.54-1.24-.17-2.45.03-3.75.07.44-1.24.99-2.34,1.61-3.43.15-.27.35-.24.6-.24,1.2,0,2.4-.02,3.61-.09,1.02-.05,2.01-.28,2.92-.78,1.5-.82,2.39-2.37,2.16-3.89-.25-1.65-1.5-2.32-2.93-2.7-2.03-.56-4.09-.33-6.13-.02-2.34.35-4.19,1.52-5.64,3.37-1.1,1.4-1.92,2.95-2.66,4.56-2.26,5.01-4.21,10.11-4.57,15.69-.17,2.73,1.19,5.16,3.74,6.13,3.39,1.3,6.68.85,9.77-.99,1.11-.67,1.81-1.72,2.12-3.01.54-2.26-.56-3.79-2.89-4.01-.13-.01-.26-.02-.4-.02-1.67-.12-3.3.12-5.06.59h.02Zm-14.07-.2c.15-.36.26-.6.37-.84,1.87-3.99,3.89-7.9,5.6-11.97.87-2.09,1.81-4.16,2.1-6.45.22-1.73-.71-2.73-2.45-2.82-2.48-.12-4.25.99-5.48,3.08-2.09,3.53-3.74,7.26-5.21,11.06-1.29,3.31-2.45,6.67-2.94,10.21-.46,3.26.96,5.39,3.98,5.85,1.9.28,3.79.15,5.63-.45,2.16-.71,3.6-2.12,4.08-4.42.39-1.86-.39-2.97-2.27-3.31-1.1-.2-2.19.01-3.4.07h0Z" style="fill:#060606; stroke-width:0px;"/><path d="m596.8,578.2c.34.09.58.07.57-.38,0-.16-.1-.42.15-.47.25-.05.39.16.48.35.17.39.4.68.95.54-.67.75-1.48.79-2.31.16.05-.07.11-.13.16-.2h-.01Z" style="fill:#d83b34; stroke-width:0px;"/><path d="m555.95,610.61c-1.06.05-2.12-.1-3.14-.45-2.7-.92-4.28-3.1-4.45-6.23-.13-2.6.51-5.09,1.25-7.56,1.17-3.93,2.71-7.7,5-11.14,3.56-5.35,9.61-6.04,14.36-4.61,3.37,1.02,4.43,3.85,3.01,7.43-.93,2.35-3.39,3.59-5.82,2.93-1.4-.38-1.91-1.27-1.53-2.66.02-.08.07-.14.09-.23.13-.58.57-1.22,0-1.73-.57-.51-1.33-.36-1.99-.15-1.09.34-1.76,1.19-2.28,2.14-1.44,2.63-2.48,5.43-3.43,8.27-.49,1.46-.97,2.94-1.16,4.49-.1.85-.22,1.79.68,2.31s1.83.28,2.66-.26c1.4-.91,2.11-2.3,2.54-3.86.09-.33-.02-.42-.33-.47-2.25-.37-2.32-1.86-1.74-3.34.63-1.62,1.76-2.56,3.49-2.8,1.17-.16,2.34-.26,3.51.01,1.63.38,2.52,1.44,2.59,3.13.08,2.24-.56,4.34-1.46,6.35-1.71,3.84-4.36,6.69-8.49,7.96-1.08.33-2.19.49-3.34.45h0v.02Z" style="fill:#fdfeff; stroke-width:0px;"/><path d="m577.54,610.59c-.77.05-1.58-.04-2.4-.21-3.25-.66-5.04-2.83-5.06-6.16-.01-2.57.52-5.05,1.24-7.49,1.07-3.69,2.35-7.32,4.2-10.71,1.64-3.01,4-5.13,7.49-5.73,1.78-.31,3.57-.33,5.35.1,2.98.72,4.62,2.94,4.69,6.35.04,2.68-.56,5.26-1.28,7.8-1.03,3.61-2.43,7.07-4.36,10.3-1.5,2.49-3.46,4.48-6.37,5.32-1.11.32-2.25.47-3.48.44h0Zm8.46-22.78c0-.67.01-1.36-.83-1.52-.9-.17-1.71-.01-2.31.75-.38.49-.68,1.03-.94,1.58-1.64,3.49-2.93,7.1-4.01,10.8-.25.84-.49,1.69-.55,2.58-.1,1.44,1.01,2.18,2.33,1.56.37-.17.67-.45.92-.77.44-.55.74-1.17,1.04-1.8,1.4-3.13,2.56-6.34,3.55-9.61.36-1.18.73-2.35.81-3.59h-.01Z" style="fill:#fdfeff; stroke-width:0px;"/><path d="m538.33,602.47c1.76-.47,3.39-.71,5.06-.59.13,0,.26.01.4.02,2.32.22,3.42,1.75,2.89,4.01-.31,1.29-1.01,2.34-2.12,3.01-3.08,1.85-6.37,2.3-9.77.99-2.55-.97-3.91-3.39-3.74-6.13.36-5.56,2.31-10.67,4.57-15.69.73-1.61,1.55-3.17,2.66-4.56,1.45-1.85,3.31-3.02,5.64-3.37,2.04-.31,4.1-.54,6.13.02,1.43.39,2.68,1.05,2.93,2.7.23,1.52-.67,3.08-2.16,3.89-.91.49-1.9.72-2.92.78-1.2.07-2.4.08-3.61.09-.25,0-.46-.03-.6.24-.61,1.09-1.17,2.2-1.61,3.43,1.3-.04,2.51-.24,3.75-.07,2.15.31,2.92,1.49,2.24,3.54-.72,2.16-2.3,3.31-4.63,3.4-1.07.04-2.14-.05-3.2-.23-.26-.04-.49-.14-.62.24-.45,1.36-.91,2.72-1.26,4.25h-.02Z" style="fill:#fdfeff; stroke-width:0px;"/><path d="m524.27,602.27c1.21-.05,2.3-.26,3.4-.07,1.88.34,2.67,1.45,2.27,3.31-.48,2.3-1.91,3.71-4.08,4.42-1.84.6-3.73.73-5.63.45-3.02-.45-4.44-2.59-3.98-5.85.5-3.54,1.65-6.9,2.94-10.21,1.49-3.8,3.14-7.54,5.21-11.06,1.24-2.09,2.99-3.2,5.48-3.08,1.75.09,2.67,1.09,2.45,2.82-.28,2.28-1.22,4.36-2.1,6.45-1.71,4.07-3.73,7.98-5.6,11.97-.11.24-.21.48-.37.84h0Z" style="fill:#fdfeff; stroke-width:0px;"/><path d="m585.99,587.8c-.08,1.24-.45,2.42-.81,3.59-.99,3.27-2.15,6.48-3.55,9.61-.28.63-.6,1.26-1.04,1.8-.25.32-.54.59-.92.77-1.32.61-2.43-.12-2.33-1.56.07-.89.31-1.74.55-2.58,1.08-3.69,2.37-7.31,4.01-10.8.26-.56.56-1.09.94-1.58.6-.78,1.41-.94,2.31-.75.84.16.83.85.83,1.52h.01Z" style="fill:#060606; stroke-width:0px;"/><path d="m597.55,578.99c-1.28,0-2.32-1.04-2.32-2.32s1.04-2.32,2.32-2.32,2.32,1.04,2.32,2.32-1.04,2.32-2.32,2.32Zm0-4.13c-1.01,0-1.81.81-1.81,1.81s.81,1.81,1.81,1.81,1.81-.81,1.81-1.81-.81-1.81-1.81-1.81Z" style="fill:#020202; stroke-width:0px;"/><path d="m598.13,577.75l-.6-.79h-.35v.79h-.47v-2.23h.86c.48,0,.83.3.83.72,0,.28-.15.51-.4.63l.66.87h-.54.01Zm-.94-1.19h.39c.22,0,.35-.13.35-.32s-.14-.32-.35-.32h-.39v.63Z" style="fill:#020202; stroke-width:0px;"/></svg>