<?xml version="1.0" encoding="UTF-8"?><svg id="Capa_1" xmlns="http://www.w3.org/2000/svg" xmlns:xlink="http://www.w3.org/1999/xlink" viewBox="0 0 350.5 58.06"><defs><clipPath id="clippath"><rect x="257.82" y="26.09" width="12.97" height="12.97" transform="translate(158.85 277.11) rotate(-73.7)" style="fill:none; stroke-width:0px;"/></clipPath></defs><rect y=".31" width="57.44" height="57.44" style="fill:#c55b98; stroke-width:0px;"/><path d="m41.38,49.41H14.82c-.93,0-1.85-.93-1.85-1.85l-4.63-21.62c0-1.24.93-1.85,1.85-1.85h36.13c.93,0,1.85.93,1.85,1.85l-4.63,21.62c-.31.93-1.24,1.85-2.16,1.85Z" style="fill:#e7bfd6; stroke-width:0px;"/><path d="m51.26,22.23h-12.04l-6.79-10.19c-.31-.31-.62-.31-.93,0l-.62.62c-.31.31-.31.62,0,.93l5.87,8.65h-16.98l5.87-8.65c.31-.31.31-.62,0-.93l-.62-.62c-.31-.31-.62-.31-.93,0l-7.1,10.19H4.94c-.93,0-1.54.93-1.54,1.85v1.24c0,.93.62,1.85,1.54,1.85h46.32c.93,0,1.54-.93,1.54-1.85v-1.24c0-1.24-.62-1.85-1.54-1.85h0Z" style="fill:#e2aac9; stroke-width:0px;"/><path d="m27.48,29.65v15.75h0c0,.31.31.62.62.62s.62-.31.62-.62v-15.75h0c0-.31-.31-.62-.62-.62s-.62.31-.62.62h0Z" style="fill:#e2aac9; stroke-width:0px;"/><path d="m35.51,29.65v15.75h0c0,.31.31.62.62.62s.62-.31.62-.62v-15.75h0c0-.31-.31-.62-.62-.62s-.62.31-.62.62h0Z" style="fill:#e2aac9; stroke-width:0px;"/><path d="m19.45,29.65v15.75h0c0,.31.31.62.62.62s.62-.31.62-.62v-15.75h0c0-.31-.31-.62-.62-.62s-.62.31-.62.62h0Z" style="fill:#e2aac9; stroke-width:0px;"/><path d="m40.14,37.06h-24.09c-.31,0-.62.31-.62.62s.31.62.62.62h24.09c.31,0,.62-.31.62-.62s-.31-.62-.62-.62h0Z" style="fill:#e2aac9; stroke-width:0px;"/><path d="m40.14,42.92h-24.09c-.31,0-.62.31-.62.62s.31.62.62.62h24.09c.31,0,.62-.31.62-.62s-.31-.62-.62-.62h0Z" style="fill:#e2aac9; stroke-width:0px;"/><path d="m40.14,31.19h-24.09c-.31,0-.62.31-.62.62s.31.62.62.62h24.09c.31,0,.62-.31.62-.62s-.31-.62-.62-.62h0Z" style="fill:#e2aac9; stroke-width:0px;"/><rect x="174.48" width="58.67" height="58.06" style="fill:#eabf45; stroke-width:0px;"/><path d="m215.24,33.04c-.31.62-.93,1.24-1.54,1.24-.93,0-1.85-.93-1.54-1.85l2.16-8.34c.31-.62.93-1.24,1.54-1.24.93,0,1.85.93,1.54,1.85l-2.16,8.34Zm-11.12,13.9c-10.19,0-18.53-8.34-18.53-18.53s8.34-18.53,18.53-18.53,18.53,8.34,18.53,18.53-8.34,18.53-18.53,18.53m-8.96-11.73c0-.31-.31-.93-.93-.93h-2.47l3.09-12.35c0-.31-.31-.93-.62-.93h-.31c-.31,0-.62.31-.62.62l-3.4,13.28c0,.62.31.93.62.93h3.4c.62,0,.93-.31,1.24-.62m6.48-.31c0-.31-.31-.93-.93-.93h-2.47l1.24-5.25h1.85c.31,0,.62-.31.62-.62s-.31-.62-.62-.62h-1.24l1.24-4.94h2.78c.31,0,.62-.31.62-.62s-.31-.62-.62-.62h-3.71c-.31,0-.62.31-.62.31l-3.4,13.59c0,.31.31.93.62.93h3.4c.93-.31,1.24-.62,1.24-1.24m7.41-1.54l1.24-4.94c0-.62-.31-.93-.62-.93h-2.47c-.31,0-.62.31-.62.62s.31.62.62.62h1.54l-.93,4.01c-.31.62-.93,1.24-1.54,1.24-.93,0-1.85-.93-1.54-1.85l2.16-8.34c.31-.62.93-1.24,1.54-1.24.93,0,1.85.93,1.54,1.85,0,.31.31.93.62.93h0c.31,0,.62-.31.62-.62h0c.62-1.85-.93-4.01-3.09-4.01-1.54,0-2.78.93-3.09,2.47l-2.16,8.34c-.62,1.85.93,4.01,3.09,4.01,1.54.31,2.78-.62,3.09-2.16m7.72,0l2.16-8.65c.62-1.85-.93-4.01-3.09-4.01-1.54,0-2.78.93-3.09,2.47l-2.16,8.65c-.62,1.85.93,4.01,3.09,4.01,1.54,0,2.78-.93,3.09-2.47" style="fill:#f7e352; stroke-width:0px;"/><rect x="233.15" width="58.98" height="58.06" style="fill:#63ac55; stroke-width:0px;"/><path d="m245.81,47.56l-2.16-1.54c-.31-.31-.31-.93-.31-1.24l4.32-26.25" style="fill:#d77e3b; stroke-width:0px;"/><path d="m280.71,47.56h-34.59c-.93,0-1.54-.62-1.24-1.54l2.78-27.79c0-.62.62-1.24,1.24-1.24h29.03c.62,0,1.24.62,1.24,1.24l2.78,27.79c.31.93-.31,1.54-1.24,1.54Z" style="fill:#f0d047; stroke-width:0px;"/><path d="m272.68,20.69c0-1.54,0-3.09-.31-4.63-.31-.93-.62-2.16-1.24-2.78-.93-1.54-2.78-2.47-4.63-2.78-1.85-.31-3.4-.31-5.25,0s-3.71.62-4.94,2.16c-1.85,2.16-2.16,5.56-2.16,8.34,0,.62.62,1.54,1.54,1.54s1.54-.62,1.54-1.54v-2.78q0,.31,0,0c0-.31,0-.62.31-.93,0-.62.31-.93.31-1.54,0-.31-.31.31,0,.31h0s0-.31.31-.31c0-.31.31-.31.31-.62h0c0-.31-.31.31,0,0l.31-.31.31-.31s.31-.31,0,0l.31-.31c.31,0,.31-.31.62-.31h.31c.31,0-.31.31-.31,0h0q.31,0,.62-.31h.93c.31,0,0,0-.31,0h5.56c.31,0-.31,0-.31,0h.31c.31,0,.62.31.93.31h0c.31,0-.31,0-.31,0h.31c.31,0,.31.31.62.31,0,0,.31,0,.31.31l-.31-.31h0l.31.31s0,.31.31.31c-.31-.31,0,0,0,0,0,.31.31.31.31.62,0,0,0,.31.31.31,0,0-.31-.31,0-.31v.31c0,.31.31.62.31.93s0,.62.31.93v.62q0-.31,0,0v2.78c0,.62.62,1.54,1.54,1.54s.93-.93.93-1.85h0Z" style="fill:#e9bd45; stroke-width:0px;"/><path d="m250.44,44.16h26.25c.31,0,.31.31.31.31h0c0,.31-.31.31-.31.31h-26.25c-.31,0-.31-.31-.31-.31h0q0-.31.31-.31Z" style="fill:#e9bd45; stroke-width:0px;"/><rect x="257.82" y="26.09" width="12.97" height="12.97" transform="translate(158.85 277.11) rotate(-73.7)" style="fill:#e9bd45; stroke-width:0px;"/><g style="clip-path:url(#clippath);"><path d="m262.49,26.56c-.93-.31-2.16.31-2.47,1.24s.31,2.16,1.24,2.47,2.16-.31,2.47-1.24-.31-2.16-1.24-2.47m-1.85,2.47h-.62l.62-1.24h0l-.62,1.24h.62m.62.31h-.62l.62-1.24h.31-.31l-.31.31h0v.31c0,.31,0,0,0,0h-.31l-.31.62h.93q0-.31,0,0m.93,0l-.31.31c-.31,0-.31-.31-.31-.62l.62-.93.31-.31c.31,0,.31.31.31.62h0v-.31h-.31l-.62.93c-.31,0-.31.31.31.31q-.31,0,0,0v-.62h-.31.31v.62h0Zm1.24-.62l-.62.93-.31.31c-.31,0-.31-.31-.31-.62l.62-.93.31-.31c.31,0,.31.31.31.62m-.31-.31s.31,0,0,0l-.31.93h-.31s-.31-.31,0-.31l.62-.62h0m6.18,1.85s.31,0,0,0l-.31.93h-.31s-.31-.31,0-.31l.62-.62h0m-.93-1.85c-.93-.31-2.16.31-2.47,1.24s.31,2.16,1.24,2.47,2.16-.31,2.47-1.24,0-2.16-1.24-2.47m-1.54,2.47h-.62l.62-1.24h0l-.62,1.24h.62m.62,0s0,.31,0,0h-.62l.62-1.24h.31-.31l-.31.31h0v.31c0,.31,0,0,0,0h-.31l-.31.62h.93m.93.31l-.31.31c-.31,0-.31-.31-.31-.62l.62-.93.31-.31h0c.31,0,.31.31.31.62h0v-.31h-.31l-.31,1.24c-.62-.31-.62,0,0,0q-.31,0,0,0v-.62h-.31.31v.62h0Zm1.24-.62l-.62.93-.31.31c-.31,0-.31-.31-.31-.62l.62-.93.31-.31c.31,0,.31.31.31.62m-9.26,2.16c-.93-.31-2.16.31-2.47,1.24s.31,2.16,1.24,2.47,2.16-.31,2.47-1.24,0-2.16-1.24-2.47m-1.54,2.47h-.62l.62-1.24h0l-.62,1.24h.62m.62.31h-.62l.62-1.24h.31-.31l-.31.31h0v.31c0,.31,0,0,0,0h-.31l-.31.62h.93c0-.31,0,0,0,0m.93,0l-.31.31c-.31,0-.31-.31-.31-.62l.62-.93.31-.31c.31,0,.31.31.31.62h0v-.31h-.31l-.62.93c-.31,0-.31.31.31.31q-.31,0,0,0v-.62h-.31.31v.62h0Zm1.24-.62l-.62.93-.31.31c-.31,0-.31-.31-.31-.62l.62-.93.31-.31q.31.31.31.62m-.31-.31h0l-.31.93h-.31s-.31-.31,0-.31l.62-.62c-.31,0,0,0,0,0m6.18,1.85h0l-.31.93h-.31s-.31-.31,0-.31l.62-.62c-.31,0,0,0,0,0m-.93-1.85c-.93-.31-2.16.31-2.47,1.24s.31,2.16,1.24,2.47,2.16-.31,2.47-1.24,0-2.16-1.24-2.47m-1.54,2.47s-.31,0,0,0h-.62l.62-1.24h0l-.62,1.24h.62c-.31,0,0,0,0,0m.62.31h-.62l.62-1.24h.31-.31l-.31.31h0v.31c0,.31,0,0,0,0h-.31l-.31.62h.93c-.31-.31,0-.31,0,0m.62,0l-.31.31c-.31,0-.31-.31-.31-.62l.62-.93.31-.31c.31,0,.31.31.31.62h0v-.31h-.31l-.31,1.24c-.31-.31-.31,0,0,0h0v-.62h-.31.31v.62h0Zm1.24-.62l-.62.93-.31.31c-.31,0-.31-.31-.31-.62l.62-.93.31-.31c.62,0,.62.31.31.62" style="fill:#f0d047; stroke-width:0px;"/></g><rect x="291.2" width="59.29" height="58.06" style="fill:#cb3787; stroke-width:0px;"/><circle cx="322.09" cy="29.95" r="18.22" style="fill:#f0d047; stroke-width:0px;"/><path d="m335.67,29.65c0,7.72-6.18,13.9-13.9,13.9s-13.9-6.18-13.9-13.9,6.18-13.9,13.9-13.9,13.9,6.18,13.9,13.9Z" style="fill:#e9bd45; stroke-width:0px;"/><path d="m327.03,32.42c0,1.24-.31,2.47-1.24,3.09-.62.93-1.54,1.24-2.78,1.54v.93q0,.62-.31.93c0,.31-.31.31-.62.31h-1.85c-.31,0-.31-.31-.31-.31,0-.31-.31-.31-.31-.93v-.93c-.62-.31-1.24-.31-1.85-.62s-.93-.62-1.24-.93c0,0-.62-.31-.62-1.24,0-.31.31-.93.62-1.54.31-.31.62-.31.93-.31s.93,0,1.54.62,1.24.93,1.85.93c1.24,0,1.85-.62,1.85-1.54,0-.31-.31-.62-.62-.93-.62-.31-.93-.31-1.85-.62-.62-.31-1.24-.62-2.16-.62s-1.24-.62-1.85-1.24-.62-1.54-.62-2.47.31-1.85.93-2.78c.62-.93,1.54-1.24,2.78-1.54v-.62q0-.62.31-.93c.31-.31.62-.62,1.24-.62s.93,0,.93.31.31.31.31.62v1.24c.62,0,.93.31,1.24.31.31.31.62.31.93.31l.31.31c.31.31.31.62.31.93s0,.62-.31,1.24-1.54.62-2.16.31c-.62-.31-1.54-.62-1.85-.62s-.93,0-.93.31-.31.62-.31.93.31.62.62.93,2.47.62,2.78.93,2.16.93,2.78,2.16c1.24.62,1.54,1.24,1.54,2.16h0Z" style="fill:#f0d047; stroke-width:0px;"/><rect x="57.44" y=".31" width="58.06" height="58.06" style="fill:#e4a6c6; stroke-width:0px;"/><rect x="115.49" y=".31" width="59.6" height="57.75" style="fill:#e7bfd6; stroke-width:0px;"/><path d="m96.35,6.79c-12.04-1.54-23.16,6.79-24.7,18.84-1.54,12.04,6.79,23.16,18.84,24.7s23.16-6.79,24.7-18.84c1.54-12.04-6.79-23.16-18.84-24.7" style="fill:#f1f0f0; stroke-width:0px;"/><path d="m94.8,18.22c-2.78-1.54-5.87-.31-7.41,2.16s-.31,5.87,2.16,7.41c2.78,1.54,5.87.31,7.41-2.16s.62-5.87-2.16-7.41m-12.35,22.85c-7.1-4.01-9.88-12.97-6.18-20.07s12.97-9.88,20.07-5.87,9.88,12.97,6.18,20.07-12.66,9.57-20.07,5.87" style="fill:#0a0b0f; stroke-width:0px;"/><path d="m140.51,6.79c-12.04-1.54-23.16,6.79-24.7,18.84-1.54,12.04,6.79,23.16,18.84,24.7s23.16-6.79,24.7-18.84c1.85-12.04-6.79-23.16-18.84-24.7" style="fill:#f1f0f0; stroke-width:0px;"/><path d="m140.82,19.45c-2.47-1.85-5.87-1.85-7.72.62s-1.54,5.87.62,7.72,5.87,1.85,7.72-.62,1.85-5.56-.62-7.72m-16.68,19.76c-6.18-5.25-7.1-14.82-1.54-21,5.25-6.18,14.82-6.79,21-1.54,6.18,5.25,7.1,14.82,1.54,21-5.25,6.18-14.82,6.79-21,1.54" style="fill:#0a0b0f; stroke-width:0px;"/></svg>