<svg id="Capa_1" data-name="Capa 1" xmlns="http://www.w3.org/2000/svg" viewBox="0 0 163.91 125"><defs><style>.cls-1{fill:#d83832;fill-rule:evenodd;}</style></defs><path class="cls-1" d="M6.14,49.31h22a13.13,13.13,0,0,1,.63-3.75c1.35-4,5.9-6.15,10.31-6.28,5-.15,9.82,2.28,9.6,7.47.05,3.9-2.84,5.61-7.44,6.08H30.81V68.11H38.6a11.41,11.41,0,0,1,4.62,1.59c7.46,4.6,3.9,14.34-3.69,15.35-4.71.63-10-1-12.16-6a23.32,23.32,0,0,1-1.54-8.19H3.07c0,21.17,12,33,34.32,32.92,13.58-.18,27.14-4.86,32.49-15,.09-.16.17-.32.25-.48v13.55H93.3v-49l12.27,49h19.81L138,53l-.2,49h22.81V23.12h-34l-11,45.78L104.24,23.12H70.13v16c-4-13.22-18.23-17.35-30.59-17.51-22.31-.05-32.35,9.55-33.4,27.69Zm64,19.19a26.47,26.47,0,0,0-7.86-8.17c-.34-.27-.37-.41,0-.63a20,20,0,0,0,5.94-5,13.73,13.73,0,0,0,1.92-3.6V68.5Z"/></svg>