<svg xmlns="http://www.w3.org/2000/svg" xmlns:xlink="http://www.w3.org/1999/xlink" viewBox="0 0 288.83 125"><defs><style>.cls-1{fill:none;}.cls-2{isolation:isolate;}.cls-3{fill:#c0b59e;}.cls-4{fill:#301e0f;}.cls-5{fill:#bf3633;}.cls-6{fill:#fff;}.cls-7{clip-path:url(#clip-path);}.cls-8{fill:url(#radial-gradient);}.cls-9{clip-path:url(#clip-path-2);}.cls-10{fill:url(#radial-gradient-2);}.cls-11{fill:#ad3034;}.cls-12{clip-path:url(#clip-path-3);}.cls-13{fill:url(#linear-gradient);}.cls-14{clip-path:url(#clip-path-4);}.cls-15{fill:url(#linear-gradient-2);}.cls-16{clip-path:url(#clip-path-5);}.cls-17{fill:url(#radial-gradient-3);}.cls-18{clip-path:url(#clip-path-6);}.cls-19{fill:url(#linear-gradient-3);}.cls-20{fill:#221f20;}.cls-21{fill:#fff249;}.cls-22{fill:#a7a9ac;}.cls-23{opacity:0.55;}.cls-24{clip-path:url(#clip-path-7);}.cls-25{clip-path:url(#clip-path-8);}.cls-26{fill:url(#linear-gradient-4);}.cls-27{clip-path:url(#clip-path-9);}.cls-28{fill:url(#linear-gradient-5);}.cls-29{clip-path:url(#clip-path-10);}.cls-30{fill:url(#linear-gradient-6);}.cls-31{fill:#5a3a1b;}.cls-32{clip-path:url(#clip-path-11);}.cls-33{fill:url(#linear-gradient-7);}.cls-34{mix-blend-mode:multiply;}.cls-35{clip-path:url(#clip-path-12);}.cls-36{clip-path:url(#clip-path-13);}.cls-37{fill:url(#linear-gradient-8);}.cls-38{clip-path:url(#clip-path-14);}.cls-39{fill:url(#linear-gradient-9);}.cls-40{clip-path:url(#clip-path-15);}.cls-41{clip-path:url(#clip-path-16);}.cls-42{fill:url(#linear-gradient-10);}.cls-43{clip-path:url(#clip-path-17);}.cls-44{fill:url(#linear-gradient-11);}.cls-45{clip-path:url(#clip-path-18);}.cls-46{fill:url(#linear-gradient-12);}.cls-47{clip-path:url(#clip-path-19);}.cls-48{fill:url(#linear-gradient-13);}.cls-49{clip-path:url(#clip-path-20);}.cls-50{fill:url(#linear-gradient-14);}.cls-51{fill:#230c00;}</style><clipPath id="clip-path"><path class="cls-1" d="M149.11,70.82c-.12,0-.31.1-.42.15a2.59,2.59,0,0,0,1,1.7c2.12,1.84,7.32,3.61,10.37,3.24-.1.06-5.74,2.81-7.57,3.81a13.6,13.6,0,0,0-2.36,1.52s1.75,1.76,14.16-.43c-.42.21-8,5.43-8.33,6.26.05.22,6.52,2.48,14.08-2.74.08,0-1.53,1.53-2.79,3.15-.31.4-.59.83-.8,1.16a1.75,1.75,0,0,0-.26.51s0,0,.08,0h.23A12.79,12.79,0,0,0,174,85.92c-.16.28-1.38,3.81,3.24,0,.08.12,1.18,1.74,6.36-4.6s4.73-8,4.73-8l-5.38-8.59s-27.56,4.12-33.83,6.12"/></clipPath><radialGradient id="radial-gradient" cx="-1277.82" cy="358.03" r="4.2" gradientTransform="matrix(18.59, 0, 0, -18.54, 23977.04, 6703.43)" gradientUnits="userSpaceOnUse"><stop offset="0" stop-color="#fffac8"/><stop offset="0.04" stop-color="#fff249"/><stop offset="0.17" stop-color="#feed4a"/><stop offset="0.31" stop-color="#fbdf4d"/><stop offset="0.47" stop-color="#f5c851"/><stop offset="0.49" stop-color="#f4c452"/><stop offset="0.55" stop-color="#e98c45"/><stop offset="0.64" stop-color="#d83832"/><stop offset="0.68" stop-color="#b83b2f"/><stop offset="0.86" stop-color="#382517"/><stop offset="1" stop-color="#382517"/></radialGradient><clipPath id="clip-path-2"><path class="cls-1" d="M161.16,85.63Zm-6.82-13.76a17.55,17.55,0,0,0,10.5,2.65c-2,1.23-9.16,4.83-10,5.71.37.23,8.62-.42,13.78-1.44-2,1.84-5.93,5-7.51,6.84.09-.07,4.65.16,11.74-4.21a25.34,25.34,0,0,1-4,6.12,19.38,19.38,0,0,0,7.21-4.81c-.14.23-2.66,5.83,2.88.28,0,.29.16,2.95,5.33-4.08,4-5.83,2.45-7.54,2.45-7.54l-3-6.06s-24.87,4.91-29.42,6.54"/></clipPath><radialGradient id="radial-gradient-2" cx="-1289.17" cy="358.04" r="4.2" gradientTransform="matrix(22.93, 0, 0, -22.87, 29685.49, 8265.88)" gradientUnits="userSpaceOnUse"><stop offset="0" stop-color="#af3634"/><stop offset="0.01" stop-color="#af3634"/><stop offset="0.13" stop-color="#ab3532"/><stop offset="0.26" stop-color="#a0302e"/><stop offset="0.38" stop-color="#8c2926"/><stop offset="0.39" stop-color="#8a2825"/><stop offset="0.45" stop-color="#832623"/><stop offset="0.55" stop-color="#6f221f"/><stop offset="0.66" stop-color="#4e1b18"/><stop offset="0.73" stop-color="#341512"/><stop offset="1" stop-color="#341512"/></radialGradient><clipPath id="clip-path-3"><path class="cls-1" d="M193.08,71.52l3.45.46A10.26,10.26,0,0,0,201.48,73l1-.08a1.35,1.35,0,0,1,1,.2,3.4,3.4,0,0,0,2,.77,4.19,4.19,0,0,0,1.4-.14,1.71,1.71,0,0,1,1.27-.06,5.33,5.33,0,0,0,3.57.5,1.8,1.8,0,0,1,1.17.09,19.11,19.11,0,0,0,4.56,1.34,23.39,23.39,0,0,0,3.09.41,24.15,24.15,0,0,0,4,0c2.05-.1,3.9-.85,3.57-1-5.08-.5-6.68-1.88-6-1.73,12.34,3.06,15.92,1,15.37.69-6.33-1.36-7.68-2.34-7.45-2.43,10.36,2.87,16.32,1.86,15.64,1.38a72.21,72.21,0,0,1-11.17-4.23c14.76,4.74,21,4,23.25,3.19a2.62,2.62,0,0,0,1.13-.58c-14.12-2-16.52-4.38-16.52-4.47,16.65,4.21,23.88,3.29,26.75,2.38a6.45,6.45,0,0,0,1.69-.78c-18.07-2.56-18.31-3.66-18.59-3.77,24.27,4.71,28.1-1.35,28-1.35a131.67,131.67,0,0,1-22.59-2c23.3,2.25,25-3.51,25-3.51-6.47.91-17,.33-23.83-.1-7.08-.52-9.66-.4-19.58.91-18.68,2.54-18.12-1.8-18.12-1.8-4,4.08-26.31,13.41-28,14.71"/></clipPath><linearGradient id="linear-gradient" x1="-1284.33" y1="358.26" x2="-1280.13" y2="358.26" gradientTransform="matrix(21.32, 0, 0, -21.32, 27577.49, 7705.49)" gradientUnits="userSpaceOnUse"><stop offset="0" stop-color="#8a2825"/><stop offset="0.01" stop-color="#8a2825"/><stop offset="0.18" stop-color="#af3634"/><stop offset="0.45" stop-color="#e8983e"/><stop offset="0.56" stop-color="#eeb041"/><stop offset="0.75" stop-color="#f7d445"/><stop offset="0.9" stop-color="#fdea48"/><stop offset="1" stop-color="#fff249"/></linearGradient><clipPath id="clip-path-4"><path class="cls-1" d="M255.52,71.33h0M195.46,70l14,2.47c8.6,3.77,17.15,3,16.51,2.77-6.43-1-8.39-4-7.44-3.6,11.27,3.49,18,2.82,17.46,2.55-8.35-1.64-7.79-3.87-8-4,5.34,2.26,15.48,3,14.85,2.52C233,70,232.59,67.67,232.59,67.67c15.29,4.09,20.93,3.91,22.47,3.73a3.76,3.76,0,0,0,.46-.07c-15.06-2.15-16.43-6-16.43-6,16.36,3.85,24.89,3.58,27.73,3.32.71-.07,1.07-.13,1.09-.13-18.27-1.67-19.07-5-19.32-5.13,16.19,3,27.93.51,27.8.5-19.16-.24-23.67-3.5-23.93-3.61,18.51,1.85,26.21-1.48,26.21-1.48-3.38.75-20.09-.75-26.36-1.15-6.53-.48-5.74-.25-14.88,1-13.57,1.32-16.32-1.32-16.32-1.32C219.67,58.76,199.31,67,195.46,70"/></clipPath><linearGradient id="linear-gradient-2" x1="-1275.93" y1="346.3" x2="-1271.74" y2="346.3" gradientTransform="matrix(16.48, 0, 0, -16.48, 21223.34, 5773.39)" xlink:href="#linear-gradient"/><clipPath id="clip-path-5"><path class="cls-1" d="M118.24,19h0Zm36,9.74c-1.06-.34-20.64-5.24-33.06-18.54,0,.11,6.87,14.61,22.27,18.41-.91-.16-13.85-1.26-25.24-9.6.33.3,4.92,10.65,25,13.53,0,0-9.33,1.09-24.38-5.24a34.19,34.19,0,0,0,23.46,9.08,54.26,54.26,0,0,1-19.86-2.06c-.33.24,8.32,5.28,20.15,5.17.14,0-3.89,1.22-16.59-.91-.53,0,6.83,4.25,18.07,4.42.14,0-5.13,2.08-14-.89-.37.16,7.08,5.4,15.64,5.38l1.47,1.35s5.88,6.16,8.24,5.9a.87.87,0,0,1,.94.46.77.77,0,0,0,.39.49.88.88,0,0,0,.53,0,1,1,0,0,1,.63,0c.52.23.37.59.64.83a1.28,1.28,0,0,0,1.12.21c.64-.13.87.44,1.07.85s.69.49,1.31.3a.79.79,0,0,1,.91.43c.15.3.14.67.41.89a1.33,1.33,0,0,0,1.06.23,1.08,1.08,0,0,1,.83.11c.27.2.31.61.47.87s.51.68,1.71.49c.71-.09,1,.57,1.21,1.12.34.78,1.9,1.72,2.41,2A28.19,28.19,0,0,0,174.85,66l1.76-.24h0s4.24,1.59-3.84,8.17c1.4,2.39,28,2.21,43.36-11,1.24-1.07,2.65-2.6,4-3.82,0-.19.34-9.69-1.49-13.92,0,0-16.67,10.64-36-11.6a9.57,9.57,0,0,0-3.23,0c-2.59.21-5.95.42-7.34-1,0,0-32.27-15.32-42.32-28.35,0,0,5.28,15.27,24.47,24.36"/></clipPath><radialGradient id="radial-gradient-3" cx="-1296.16" cy="360.01" r="4.19" gradientTransform="matrix(34.38, 0, 0, -34.29, 44817.53, 12360.39)" xlink:href="#radial-gradient"/><clipPath id="clip-path-6"><path class="cls-1" d="M205.58,59.59c-6.69,8.15-27,12.5-28.51,12.79,1.42.08,1.11.6,1.11.6.37,1.27-.12,1.71-.12,1.71a8.92,8.92,0,0,0,5.05-1.56,8.55,8.55,0,0,1,.08,1.89c23.73-1.77,33.87-12.95,33.87-12.95L214,63.39c-.67.31,0-.16,0-.16l1.93-2-2.72.76,1.7-1.63-5.56,1.22,2.43-3.09Z"/></clipPath><linearGradient id="linear-gradient-3" x1="-1266.15" y1="335.09" x2="-1261.96" y2="335.09" gradientTransform="matrix(12.43, 0, 0, -12.43, 15905.29, 4230.06)" xlink:href="#linear-gradient"/><clipPath id="clip-path-7"><rect class="cls-1" x="210.08" y="50.43" width="20.09" height="13.02"/></clipPath><clipPath id="clip-path-8"><path class="cls-1" d="M219.07,52.9c1.44-.38,3,.1,2.34.84a21.25,21.25,0,0,1-3.67,1.72c2.42-.54,2.13.36.16,1.18A48.32,48.32,0,0,1,213,58.4s.52-.07,1.14-.16c.95-.14,2.09-.28,1.69,0a54.57,54.57,0,0,1-5.79,2.9,27.13,27.13,0,0,0,5.27-1.36c.46-.18.1.3-.32.79s-.9,1-.65.78a6.27,6.27,0,0,0,2.26-.67,19.58,19.58,0,0,1-2.1,2.26,17.93,17.93,0,0,0,2.82-1.13c-.1.24-.45,1.23-.14,1.68a30.21,30.21,0,0,1,3.06-3.79c1.25-1.25,2.44-2.51,4.53-4.55a42.6,42.6,0,0,1,5.37-4.52,8.35,8.35,0,0,0-2.38.07c-1.78.15-3.94.29-4-.22a30.49,30.49,0,0,1-4.72,2.46"/></clipPath><linearGradient id="linear-gradient-4" x1="-1234.12" y1="295.34" x2="-1229.93" y2="295.34" gradientTransform="matrix(7.07, 0, 0, -7.07, 8937.97, 2144.82)" gradientUnits="userSpaceOnUse"><stop offset="0" stop-color="#f4f5f5"/><stop offset="1" stop-color="#221f20"/></linearGradient><clipPath id="clip-path-9"><path class="cls-1" d="M226.58,46.17c-.6.51-.59,2.42-1.3,3.16s-2.77.29-3.24,1.11c-1,1.93,3,1.34,6,.55,1.4-.31.3.93.3.93l.49-.4.55-.38a8.78,8.78,0,0,1,1.06-.64,1.85,1.85,0,0,1,.65-.22,1,1,0,0,1,.52,0c1.19.6.05,2.14.1,2.22.94-.7,3.23-3.66,1.43-5.67a4.64,4.64,0,0,0-3.53-1.24,6.84,6.84,0,0,0-3,.59"/></clipPath><linearGradient id="linear-gradient-5" x1="-1164.08" y1="331.39" x2="-1159.88" y2="331.39" gradientTransform="matrix(4.81, 0, 0, -4.81, 5821.03, 1643.35)" gradientUnits="userSpaceOnUse"><stop offset="0" stop-color="#fff249"/><stop offset="0.12" stop-color="#fff249"/><stop offset="0.28" stop-color="#fdea48"/><stop offset="0.53" stop-color="#f7d245"/><stop offset="0.85" stop-color="#edad41"/><stop offset="1" stop-color="#e8983e"/></linearGradient><clipPath id="clip-path-10"><path class="cls-1" d="M228.94,49.78c-.72.16-1.43.31-2.16.41a12.82,12.82,0,0,1-1.51.13,6.67,6.67,0,0,0-1.55.12c-.16,0-.79.17-.44.41a1.76,1.76,0,0,0,.94.07c.37,0,.73-.11,1.1-.17l.81-.12c.3-.07.6-.12.91-.18l1.55-.3a5,5,0,0,1,2.75,0c.34.13.71.2.83.82a1.14,1.14,0,0,0-.33-1,2.09,2.09,0,0,0-1.51-.47,7.19,7.19,0,0,0-1.39.22"/></clipPath><linearGradient id="linear-gradient-6" x1="-966.14" y1="292.53" x2="-961.94" y2="292.53" gradientTransform="matrix(2.12, 0, 0, -2.12, 2268.52, 669.15)" gradientUnits="userSpaceOnUse"><stop offset="0" stop-color="#e8983e"/><stop offset="0.26" stop-color="#e7913d"/><stop offset="0.63" stop-color="#e37f3a"/><stop offset="0.88" stop-color="#df6e37"/><stop offset="0.98" stop-color="#df6e37"/><stop offset="1" stop-color="#df6e37"/></linearGradient><clipPath id="clip-path-11"><path class="cls-1" d="M268.7,53.86c-.45,0-.9,0-1.35.06-2.12.09-4.24.16-6.36.17-2.37,0-4.69-.14-7.15-.35-1.14-.1-2.28-.25-3.42-.27a27.31,27.31,0,0,0-4.87.32c-1.66.26-3.23.78-4.85,1.18a29.34,29.34,0,0,1-10.37,1.15c-5.36-.64-6.91,1.64-6.91,1.64a16.9,16.9,0,0,0,4.94,1,58.62,58.62,0,0,0,8-.21c2.67-.25,4.65-.71,6.65-1.07,1.29-.23,2.34-.34,3.64-.5a23.55,23.55,0,0,1,3.46-.12c1.26,0,3.56.28,6.12.39,2,.08,4.38-.06,6.4-.18,1.5-.09,5.78-.76,7.06-1,.35,0,12.06-2.35,13.45-5.62a38,38,0,0,1-14.41,3.43"/></clipPath><linearGradient id="linear-gradient-7" x1="-1265.42" y1="358.15" x2="-1261.23" y2="358.15" gradientTransform="matrix(14.22, 0, 0, -14.22, 18221.66, 5148.59)" gradientUnits="userSpaceOnUse"><stop offset="0" stop-color="#fbfbfb"/><stop offset="0.01" stop-color="#fbfbfb"/><stop offset="0.39" stop-color="#dddede"/><stop offset="0.77" stop-color="#c5c6c8"/><stop offset="1" stop-color="#bcbec0"/></linearGradient><clipPath id="clip-path-12"><rect class="cls-1" x="149.75" y="30.66" width="51.91" height="27.71"/></clipPath><clipPath id="clip-path-13"><path class="cls-1" d="M154.52,31.11a6.5,6.5,0,0,0-3.14,2.07,8.48,8.48,0,0,0-1.63,5.13v.32a12.63,12.63,0,0,0,1.2,5.08,26.31,26.31,0,0,0,6,7.52,48.21,48.21,0,0,0,5.46,4.36c1.29.89,3.32,1.83,4.87,2.78,0,0,22.74-3.92,31.3-2.32,2.91.55,3,1.73,3,1.73s.22-1.44-2.21-3.79a49.48,49.48,0,0,0-7.57-5.84c-2.52-1.59-4.61-3.23-7.61-5.12-.35-.22-16.29-12.37-26.63-12.37a10,10,0,0,0-3.11.45"/></clipPath><linearGradient id="linear-gradient-8" x1="-1280.43" y1="369.83" x2="-1276.23" y2="369.83" gradientTransform="matrix(0, 17.8, 17.8, 0, -6408.73, 22819.67)" gradientUnits="userSpaceOnUse"><stop offset="0" stop-color="#af3634"/><stop offset="0.01" stop-color="#af3634"/><stop offset="0.02" stop-color="#b43f35"/><stop offset="0.09" stop-color="#cb6639"/><stop offset="0.16" stop-color="#db813c"/><stop offset="0.22" stop-color="#e5923d"/><stop offset="0.26" stop-color="#e8983e"/><stop offset="0.26" stop-color="#e8993e"/><stop offset="0.4" stop-color="#f0b942"/><stop offset="0.53" stop-color="#f7d245"/><stop offset="0.68" stop-color="#fbe447"/><stop offset="0.83" stop-color="#feef49"/><stop offset="1" stop-color="#fff249"/></linearGradient><clipPath id="clip-path-14"><path class="cls-1" d="M131.33,37.09Zm27.29-7.26c0,.05-12,0-30.75-12.31a44.49,44.49,0,0,0,21.47,12l-.79.05c-2.42.17-10.22.33-22.41-4.85.11,0,4.77,5.12,22.92,7.84a12.48,12.48,0,0,1-2,.5c-3.07.58-9.62,1.15-19.11-1.41.1.06,5.3,3.33,20.06,4.19,0,0-5.82,2.49-16.69,1.21.21,0,5.41,1.85,16.75,1.95.1,0-4.72,2-13.43,1.61a54,54,0,0,0,14,1.71s-3.75,3-10.66,2.36a21.93,21.93,0,0,0,9.68,1.48c.11.1,5.76,7.12,9.06,6.78a1,1,0,0,1,1,.63,1,1,0,0,0,1,.53H159c.38,0,.6,0,.9.5s.32.66,1.18.68a1.16,1.16,0,0,1,1.18.65,1.22,1.22,0,0,0,1.28.78,1.26,1.26,0,0,1,1.29.65,2,2,0,0,0,2.47,1s-15.79-9.69-17.07-18c-.43-3.06-.22-9.85,7.91-9.25s18.92,7.44,19.6,7.93l-9.4-9.64s-16.26-3.27-34.11-19.11c0,.16,7.41,11.64,24.38,19.54"/></clipPath><linearGradient id="linear-gradient-9" x1="-1263.12" y1="359.08" x2="-1258.92" y2="359.08" gradientTransform="matrix(12.3, 0, 0, -12.3, 15660.72, 4450.76)" gradientUnits="userSpaceOnUse"><stop offset="0" stop-color="#382517"/><stop offset="0.04" stop-color="#382517"/><stop offset="0.15" stop-color="#993c2c"/><stop offset="0.28" stop-color="#b83b2f"/><stop offset="0.54" stop-color="#d83832"/><stop offset="0.95" stop-color="#f4c452"/><stop offset="1" stop-color="#fff249"/></linearGradient><clipPath id="clip-path-15"><rect class="cls-1" x="159.28" y="31.23" width="31.84" height="34.59"/></clipPath><clipPath id="clip-path-16"><path class="cls-1" d="M159.28,31.23s20,15.3,16.58,34.59c0,0,15-1.63,15.26-10.77v-.37c-.06-2.56-1.26-5.69-4.21-9.52C186.91,45.16,170.64,32.66,159.28,31.23Z"/></clipPath><linearGradient id="linear-gradient-10" x1="-1225.12" y1="357.25" x2="-1220.92" y2="357.25" gradientTransform="matrix(7.59, 0, 0, -7.59, 9454.03, 2758.87)" gradientUnits="userSpaceOnUse"><stop offset="0" stop-color="#8a2825"/><stop offset="0.01" stop-color="#8a2825"/><stop offset="0.18" stop-color="#af3634"/><stop offset="0.45" stop-color="#e8983e"/><stop offset="0.55" stop-color="#eaa03f"/><stop offset="0.71" stop-color="#f0b742"/><stop offset="0.9" stop-color="#fadd46"/><stop offset="1" stop-color="#fff249"/></linearGradient><clipPath id="clip-path-17"><path class="cls-1" d="M141.86,5c.88,2.53,3.84,7.68,12.08,14.66,11.13,9.41,23.28,18.72,29.56,22.64s13.21,6.36,16.71,6.65c2.19,0-1.71-1.39-1.71-1.39S193.38,46,185.62,39.9c-.52-.41-1.57-1.44-2.89-2.8a19,19,0,0,0-5-4.5c-2.22-1.42-3.09-2-5.49-3.7-3.76-2.61-26-17.34-29.68-24.69a9.54,9.54,0,0,1-1.14-2.11A8.88,8.88,0,0,0,141.86,5"/></clipPath><linearGradient id="linear-gradient-11" x1="-1094.82" y1="48.05" x2="-1090.63" y2="48.05" gradientTransform="matrix(1.87, 0, 0, -1.87, 2209.76, 115.24)" gradientUnits="userSpaceOnUse"><stop offset="0" stop-color="#fff"/><stop offset="0.01" stop-color="#fff"/><stop offset="0.01" stop-color="#fff"/><stop offset="0.05" stop-color="#fff"/><stop offset="0.06" stop-color="#fefefe"/><stop offset="0.46" stop-color="#dadbdc"/><stop offset="0.79" stop-color="#c4c6c8"/><stop offset="1" stop-color="#bcbec0"/></linearGradient><clipPath id="clip-path-18"><path class="cls-1" d="M221.79,51.15c0,.62,1,.76,2,.72a13.45,13.45,0,0,0,2.81-.52c-5.17.79-4.48-1-4.48-1a1,1,0,0,0-.31.79"/></clipPath><linearGradient id="linear-gradient-12" x1="-1034.28" y1="305.1" x2="-1030.08" y2="305.1" gradientTransform="matrix(2.62, 0, 0, -2.62, 2927.94, 849.53)" xlink:href="#linear-gradient-6"/><clipPath id="clip-path-19"><path class="cls-1" d="M176.15,73.75a2.62,2.62,0,0,0-.39,1.7c0,.1,0,2,3.66,1a14,14,0,0,0,2.52-.75c1.47-.58,1.13-2.37,1.13-2.37-6,3-6.92.37-6.92.37"/></clipPath><linearGradient id="linear-gradient-13" x1="-1205.69" y1="327.11" x2="-1201.5" y2="327.11" gradientTransform="matrix(6.1, 0, 0, -6.1, 7523.82, 2072.82)" xlink:href="#linear-gradient"/><clipPath id="clip-path-20"><path class="cls-1" d="M176.8,72.72a17.16,17.16,0,0,1-4.39,1.62c0-.38-.91-.48-1.9.23-1.24.92.8,1.52.8,1.52.26,1.53,3,.52,3.42.31A27,27,0,0,0,177.34,75c1.23-1,.87-1.94.87-1.94a1,1,0,0,0-.84-.56,1.16,1.16,0,0,0-.57.19"/></clipPath><linearGradient id="linear-gradient-14" x1="-1208.39" y1="328.03" x2="-1204.19" y2="328.03" gradientTransform="matrix(6.25, 0, 0, -6.25, 7717.37, 2124.68)" xlink:href="#linear-gradient"/></defs><g class="cls-2"><g id="Capa_1" data-name="Capa 1"><path class="cls-3" d="M170,119.18c-4.39,0-10.15-2.06-10.28-8.31h22c.24-8.73-5.32-15.09-13.47-15.09-8.91,0-15,6-15,14.33s6,14.41,16.58,14.69c5.37.13,8.47-1.93,10.95-3.54v-5s-6.3,3-10.77,3m-1.86-18.3c3.91,0,7.23,3.36,7.23,5.34H160c0-2.24,3-5.34,8.11-5.34"/><path class="cls-3" d="M88,85v-.18H77.84V85c1.26.74,1.57,2.87,1.64,5v28.39c-.06,2.21-.36,4.48-1.64,5.21v.17H88v-.17c-1.27-.77-1.57-3-1.63-5.25V90.29c.06-2.23.36-4.52,1.63-5.29"/><path class="cls-3" d="M139.65,103.24c3.94-.79,8.82-3.09,8.82-9.12,0-5.66-4.67-9.32-14.07-9.32l-3.62,0h-10.1V85c1.24.74,1.56,2.87,1.63,5v28.39c-.06,2.21-.37,4.48-1.63,5.21v.17h15.77c8.66,0,15-3.15,15-11.11s-8-9.38-11.76-9.43m-10.5-12.87c0-.25,0-.49,0-.73,1-.06,1.84-.16,2.8-.16,7.25,0,9.54,1.74,9.54,5.32,0,5-5.4,6.1-10.68,6.1a14.3,14.3,0,0,1-1.68-.09Zm5.82,28.4a31.91,31.91,0,0,1-5.82-.45V106.08a21.21,21.21,0,0,1,2.33-.14c6.86,0,12.64.69,12.64,6.73,0,3.66-2.24,6.1-9.15,6.1"/><path class="cls-3" d="M200.88,96.46v.18c.94.73.4,2.84-.38,5l-5.57,13.74-7.66-18.89h-6.94v.18c1.55.74,1.26,2.87,2.2,5l6.78,16.76c1.83,4.24,7,5.38,7,5.38h.3L207.7,96.46Z"/><path class="cls-3" d="M117.14,118.37V105.58a10.65,10.65,0,0,0-1.45-5.73c-1.88-2.78-5.66-4.07-9-4.07-3.72,0-5.32.18-8.06,2.56l0,0-1.52,0-7-1.85v.18c1.25.74,1.57,2.87,1.63,5V118.4c-.06,2.22-.36,4.49-1.63,5.22v.17h10.1v-.17c-1.27-.77-1.56-3-1.63-5.25l0-12.57c.2-2.86,1.73-5.61,5.5-5.61,4.67,0,6.12,2.4,6.17,8.15V118.4c-.06,2.22-.37,4.49-1.64,5.22v.17h10.11v-.17c-1.27-.77-1.57-3-1.64-5.25"/><path class="cls-4" d="M158.51,110h22C180.7,101.3,175.14,95,167,95c-8.91,0-15,6-15,14.32S158.1,123.93,168.6,124a18.76,18.76,0,0,0,11-3.36v-5.11s-5.45,3-10.78,2.85c-4.67-.16-10.15-2-10.27-8.31m8.42-10c3.89,0,7.21,3.36,7.21,5.35H158.81c0-2.25,3-5.35,8.12-5.35"/><path class="cls-4" d="M86.73,84.16V84H76.63v.17c1.25.75,1.56,2.88,1.63,5v28.39c-.06,2.22-.36,4.49-1.63,5.22V123h10.1v-.17c-1.27-.77-1.57-3-1.64-5.25V89.46c.07-2.23.37-4.53,1.64-5.3"/><path class="cls-4" d="M138.43,102.41c3.94-.79,8.82-3.1,8.82-9.12,0-5.66-4.67-9.33-14.08-9.33l-3.61,0H119.45v.17c1.25.75,1.56,2.88,1.64,5v28.39c-.07,2.21-.37,4.48-1.64,5.21V123h15.78c8.66,0,15-3.15,15-11.11s-8-9.39-11.77-9.43M127.92,89.53c0-.24,0-.48,0-.73,1-.06,1.83-.15,2.79-.15,7.25,0,9.54,1.74,9.54,5.31,0,5-5.39,6.11-10.69,6.11a14.48,14.48,0,0,1-1.68-.09Zm5.83,28.4a32.09,32.09,0,0,1-5.83-.45V105.25a19.23,19.23,0,0,1,2.34-.15c6.86,0,12.64.69,12.64,6.74,0,3.65-2.23,6.09-9.15,6.09"/><path class="cls-4" d="M199.67,95.62v.18c.94.74.42,2.84-.38,5l-5.57,13.74-7.66-18.9h-8.39v.18c1.55.74,2.72,2.87,3.66,5l6.78,16.75c1.84,4.23,7,5.38,7,5.38h.31l11.07-27.34Z"/><path class="cls-4" d="M115.93,117.54V104.75A10.57,10.57,0,0,0,114.48,99c-1.88-2.78-5.66-4.07-9-4.07-3.72,0-5.31.18-8.06,2.55l0,0v-1.9H88.93v.19c1.25.73,1.56,2.86,1.63,5v16.73c-.06,2.22-.36,4.49-1.63,5.22V123H99v-.17c-1.27-.77-1.57-3-1.63-5.25l0-12.57c.2-2.86,1.73-5.61,5.5-5.61,4.67,0,6.11,2.39,6.17,8.14v10.07c-.06,2.22-.36,4.49-1.63,5.22V123h10.09v-.17c-1.26-.77-1.56-3-1.62-5.25"/><path class="cls-3" d="M61.09,103.24c3.94-.79,8.82-3.09,8.82-9.12,0-5.66-4.66-9.32-14.07-9.32l-3.62,0H42.11V85c1.25.74,1.57,2.87,1.64,5v11.13a58.5,58.5,0,0,0-11.08,1.39L25.46,84.75H17.39l0,.07h-.57V85c.94.74.39,2.87-.4,5L5,118.41c-1,2.21-2.18,4.48-3.74,5.21v.17h8.4a32.37,32.37,0,0,1,8.17-8.62,40.8,40.8,0,0,1,11.15-6l3.69,9.11c.84,2.22,1.46,4.48.48,5.22v.17h8.13l-6.52-16.1a54.05,54.05,0,0,1,9-1.06v11.85c-.07,2.21-.36,4.48-1.64,5.21v.17H57.89c8.67,0,15-3.15,15-11.11s-8-9.38-11.77-9.43M15,110.5l7.23-17.84,4.68,11.55A46.16,46.16,0,0,0,15,110.5M50.59,90.37c0-.24,0-.49,0-.73,1-.06,1.83-.16,2.8-.16,7.24,0,9.53,1.74,9.53,5.32,0,5-5.39,6.1-10.68,6.1a14.48,14.48,0,0,1-1.68-.09Zm5.82,28.4a32,32,0,0,1-5.82-.45V106.08a21.21,21.21,0,0,1,2.33-.14c6.87,0,12.64.69,12.64,6.73,0,3.66-2.23,6.1-9.15,6.1"/><path class="cls-5" d="M59.87,102.41c4-.79,8.83-3.1,8.83-9.12C68.7,87.63,64,84,54.61,84L51,84H40.9v.17c1.25.75,1.56,2.88,1.62,5v11.12a58.27,58.27,0,0,0-10.86,1.35L24.5,84H15.64v.17c1,.75.4,2.88-.4,5L3.75,117.58c-1,2.21-2.18,4.48-3.75,5.21V123H8.4a32.61,32.61,0,0,1,8.17-8.62,40.58,40.58,0,0,1,11-5.89l3.7,9.13c.83,2.21,1.45,4.48.48,5.21V123h8.54l-6.56-16.21a52.78,52.78,0,0,1,8.8-1v11.85c-.05,2.21-.36,4.48-1.62,5.21V123H56.67c8.67,0,15-3.15,15-11.11s-8-9.39-11.77-9.43m-46.09,7.25L20.92,92l4.62,11.39a46.61,46.61,0,0,0-11.76,6.23M49.37,89.53c0-.24,0-.48,0-.73,1-.06,1.83-.15,2.79-.15,7.25,0,9.54,1.74,9.54,5.31,0,5-5.4,6.11-10.68,6.11a14.39,14.39,0,0,1-1.68-.09Zm5.83,28.4a32.09,32.09,0,0,1-5.83-.45V105.25a19.11,19.11,0,0,1,2.34-.15c6.86,0,12.63.69,12.63,6.74,0,3.65-2.23,6.09-9.14,6.09"/><path class="cls-6" d="M223,57.6s6.5-6.75,8.27-6.94c.56,0,.8.91.15,2-.15.29,0,.66,1.1-.46s3.27-4.56.35-6.24A6.5,6.5,0,0,0,228,45.3s-2.36-4-8.78-.91c-4.61,2.2-6.5,2.7-10.62,2.86-4.95.19-14.47-1.73-26.3-14.22l-21.23-6.94S138.53,14.64,128.89,2.47c-.38-.78,1.55,11.71,18.56,23.32.06.11-15.92-5.5-27-17C120.17,8.45,123,19.26,137,26.84a55.49,55.49,0,0,1-19.67-9.11c-.06-.05,2.41,9.61,19,13.93a99.22,99.22,0,0,1-18.78-5.44c-.75-.59,4.81,7.42,17.28,9.82,0,0-3.13-.31-6.24-.86-2.47-.42-7.28-1.56-7.28-1.56s1,3.15,13.15,5.57L125,38s.48,2.87,13.7,5.06c-.37.29-5.57-.3-9.55-1.69,0,0,1,3,10.17,5.72a24.54,24.54,0,0,0,6.17.87c.11,0,6,6.17,8.83,7.18.86.32,1.1,0,1.44.24s.15.43.62.78.81-.07,1.27.19.27.61.83.94,1-.17,1.44.09.2.8.79,1.12,1.11-.21,1.64.09.11.83.89,1.22,1.07,0,1.66.26.13.85,1,1.27,1.34-.19,1.8.18.38,1,1.28,1.71a20.64,20.64,0,0,0,4.36,2.56s-17.53,2.47-25.24,4.87c-.07,1.29,1.38,2.94,4.17,4.11a21,21,0,0,0,6.21,1.58s-7.56,3.29-8.87,5c.23.33,2.63,2.09,13.11.18,0,0-6.22,4-7.44,5.82.08.16,6.05,2.49,12.88-1.38a12.37,12.37,0,0,0-2.44,3.53,12.09,12.09,0,0,0,7.65-2.66c0,.07-.67,3.17,3.79-.35,0,.06,1.84,1.9,8.55-7.25a24.63,24.63,0,0,0,2.58-4.34,66.45,66.45,0,0,0,9.2-2,12,12,0,0,0,4.24.57c2.09-.16,1.31.46,3.31.82,1.49.26,1.88-.26,2.69-.18s.83.53,2.2.68,1.67-.27,2.64,0a24.64,24.64,0,0,0,7.29,1.72c4.66.51,7.74-.27,9.19-1.34,0,0,8.1,1.23,9.34-1.36,0,0,8.37,1,8.08-1.22.45,0,11.27,1.93,13.09-1.46,0,0-6.3-1-5.78-1.15,1.12,0,14.69,2.34,17.69-1.77-1.25-.08-10.07-1.53-10-1.6s16.45,2,19.23-3.5c-.58,0-13.07-.48-13.24-.78-.1-.14,14.69.73,15.6-4.95a92.54,92.54,0,0,1-15,.43c.22-.32,14.21-1.31,15.61-8-.65,0-7,5-27.62,3.67-2.42-.11-8.13-1.36-15,.83s-11.38,1.31-11.48,1.31-4.09-.81-6.63,2.05"/><g class="cls-7"><rect class="cls-8" x="148.68" y="64.7" width="39.99" height="25.03"/></g><g class="cls-9"><rect class="cls-10" x="154.25" y="65.33" width="34.1" height="23.23"/></g><path class="cls-11" d="M255.45,58s22.35-1.39,27.64-7.53c0,0-1.71,7.63-27.64,7.53"/><g class="cls-12"><rect class="cls-13" x="193.08" y="56.81" width="89.48" height="19.55"/></g><g class="cls-14"><rect class="cls-15" x="194.39" y="47.16" width="85.36" height="39.07" transform="translate(-9.13 60.54) rotate(-14.28)"/></g><path class="cls-11" d="M252.18,64.69s21.11,2.21,28-1.34c0,0-3.32,6-28,1.34"/><path class="cls-11" d="M242.33,66.86s20.58,3.92,28.45,1.6c-.15,0-4,4.71-28.45-1.6"/><path class="cls-11" d="M234.47,68.72s17.12,4.73,24.38,2.61c0,0-3.72,4.12-24.38-2.61"/><path class="cls-11" d="M257.55,61.31s22.24,2.54,25-3.5c0,0-5.16,4.11-25,3.5"/><g class="cls-16"><rect class="cls-17" x="118.24" y="4.33" width="102.24" height="71.97"/></g><g class="cls-18"><rect class="cls-19" x="175.43" y="51.64" width="43.27" height="30.25" transform="translate(-10.68 78.36) rotate(-21.91)"/></g><path class="cls-6" d="M227.9,46.39s-2.23-5.16-10.93-.26c0,0,1.5-.65,1.9-.31,0-.07-1.54.24-4.32,2.26,0,0,.71-.21.82,0,0,0-3.06,2-8.74,1.78a6.48,6.48,0,0,0,2.92.56,11.27,11.27,0,0,1-5.94.32s.15.83,2.24,1.26a18.6,18.6,0,0,1-4,.58c0,.06.46.62,3,.75a8.24,8.24,0,0,1-3.16,1.44s1.32.38,5.07-.61a35.67,35.67,0,0,1-4.64,2.59,15.45,15.45,0,0,0,4.67-.38s-.46.7-2.41,1.66a13.75,13.75,0,0,0,3.69-.51,10.11,10.11,0,0,1-2.73,2.27,32.77,32.77,0,0,0,6.13-1.07,39.48,39.48,0,0,1-2.6,3.18c0-.08,2.3-.4,4.2-1,.75-.18,1.79-.55.8.32s-1,1-1,1a19.23,19.23,0,0,0,2.43-.69A12.3,12.3,0,0,1,213,63.81a12.21,12.21,0,0,0,3.47-1.17s.19,1.17.78,1.58A40.86,40.86,0,0,1,223,57.6c1.66-2,5.48-5.55,5.78-6.24.85-1.69-.7-4.59-.86-5"/><path class="cls-20" d="M221.75,46.87s-.21,1.24,2.35.76c0,0-1.95.84-2.77-.44a4.73,4.73,0,0,0-1.45.18,7,7,0,0,1,1.87-.5"/><path class="cls-20" d="M221.81,46.65a2.66,2.66,0,0,1,2.4-.06c.12,0,.09.09.22.14a1.62,1.62,0,0,0,.2,0,2.73,2.73,0,0,0,.49.06,3.2,3.2,0,0,0,.44,0c.13,0,.28-.1.27-.24a.6.6,0,0,0-.36-.48A1,1,0,0,0,225,46a1,1,0,0,1,.26.23c.14.18,0,.39-.76.11,0,0-2.42-1-2.67.32"/><path class="cls-20" d="M224.55,46.93c0,.36-.52.65-1.17.65s-1.16-.29-1.16-.65.53-.65,1.16-.65,1.17.29,1.17.65"/><path class="cls-21" d="M224.21,46.89c0,.26-.35.48-.77.48s-.78-.22-.78-.48.35-.48.78-.48.77.22.77.48"/><path class="cls-20" d="M223.86,46.89c0,.14-.19.26-.42.26S223,47,223,46.89s.18-.26.42-.26.42.11.42.26"/><path class="cls-20" d="M223.54,46.32a1.57,1.57,0,0,0,.67.53c.37.11,0-.47,0-.47Z"/><path class="cls-22" d="M219.73,44.7c-1,.4-1.94.86-2.9,1.32a25.69,25.69,0,0,1-3.3,1.14,17.29,17.29,0,0,0,3.72-1.08c.42-.19.86-.36,1.29-.54.77-.32,1.56-.62,2.35-.88a5.94,5.94,0,0,1,4.68.32,2.31,2.31,0,0,1,1.14,1.32.43.43,0,0,0,0,.05,3.34,3.34,0,0,1,1.18-.45c-.09-.08-.07-.09-.17-.17a4.76,4.76,0,0,0-3-1.88,8.31,8.31,0,0,0-3.33.29c-.55.16-1.09.35-1.62.56"/><g class="cls-23"><g class="cls-24"><g class="cls-25"><rect class="cls-26" x="208.14" y="45.86" width="23.97" height="22.25" transform="translate(7.11 136.53) rotate(-34.99)"/></g></g></g><g class="cls-27"><rect class="cls-28" x="220.56" y="44.55" width="14.85" height="8.97" transform="translate(-4.82 35.56) rotate(-8.83)"/></g><g class="cls-29"><rect class="cls-30" x="222.88" y="48.83" width="9.38" height="2.9" transform="translate(-5.11 37.05) rotate(-9.2)"/></g><path class="cls-6" d="M228.22,46.63c.16.12,0,.52-.26.79s-.65.38-.81.27-.07-.5.21-.76.7-.41.86-.3"/><path class="cls-31" d="M228.2,46.57c.16.12.06.43-.23.69s-.64.38-.8.27-.06-.43.23-.69.64-.39.8-.27"/><path class="cls-6" d="M228.45,46.05s3.39-.88,4.33,1.64c0,0-.61-1.53-4.33-1.64"/><g class="cls-32"><rect class="cls-33" x="223.42" y="50.43" width="59.7" height="8.42"/></g><path class="cls-22" d="M223.4,57.76s1.56-2.28,6.91-1.64A29.36,29.36,0,0,0,240.68,55c1.63-.4,3.2-.92,4.85-1.18a27.37,27.37,0,0,1,4.87-.32c1.15,0,2.28.17,3.43.27,2.46.21,4.76.36,7.15.35,2.11,0,4.23-.07,6.34-.17.46,0,.91-.05,1.37-.06,0,.86-2,1.06-2.59,1.16a30.56,30.56,0,0,1-4.31.27c-2,0-3.91.08-5.87,0s-3.81-.3-5.72-.35a21.84,21.84,0,0,0-3.24.13c-1.3.16-2.59.41-3.87.63a62.69,62.69,0,0,1-6.53,1.25,26,26,0,0,1-6.46,0,11,11,0,0,0-6.7.85"/><g class="cls-34"><g class="cls-35"><g class="cls-36"><rect class="cls-37" x="155.49" y="15.69" width="40.64" height="57.64" transform="translate(85.91 202.02) rotate(-74.49)"/></g></g></g><g class="cls-38"><rect class="cls-39" x="126.14" y="10.29" width="51.65" height="48.59"/></g><g class="cls-34"><g class="cls-40"><g class="cls-41"><rect class="cls-42" x="159.28" y="31.23" width="31.84" height="34.59"/></g></g></g><path class="cls-6" d="M141.31,1s-5.92,5.69,21.48,27.11C172,35.24,189.69,50,201.24,49.9c2.65-.14,3.69-.88-.21-2.21-3.66-1.25-13.27-5.94-18.16-14-.75-1.64-4.42-2.64-10.23-6.51,0,0-23.76-14.09-31.33-26.19"/><g class="cls-43"><rect class="cls-44" x="134.93" y="-12.94" width="73.91" height="76.93" transform="translate(49.49 148.88) rotate(-53.67)"/></g><g class="cls-45"><rect class="cls-46" x="221.3" y="49.96" width="5.39" height="2.58" transform="translate(-5.32 36.52) rotate(-9.21)"/></g><g class="cls-47"><rect class="cls-48" x="175.25" y="72.57" width="8.51" height="5.68" transform="translate(-12.2 41.39) rotate(-12.72)"/></g><g class="cls-49"><rect class="cls-50" x="168.82" y="71.57" width="10.2" height="7.01" transform="translate(-12.26 40.11) rotate(-12.71)"/></g><path class="cls-51" d="M183.19,72.48a8.59,8.59,0,0,1-4.7,1.59,1.13,1.13,0,0,0,.15-.48,1.24,1.24,0,0,0,0-.47c-.17-1-1.24-.9-1.93-.63a3.63,3.63,0,0,0-.82.45,10.28,10.28,0,0,1-3.62,1c0-.69-1.44.08-1.4,0-1-.35-.06-1.37-.06-1.37-2.54.58-1.08,2.13-1.08,2.12-.32.36.23.83.28.8.13.85,1.23,1,1.2,1,.43.83,1.78.82,2.5.57.54-.18,1.9-.76,2-.77.66,1,2.7.69,3.39.55a11.43,11.43,0,0,0,3.23-1c1.69-.9,1-3.18.84-3.37M180.66,76a.88.88,0,0,1-1-.62.5.5,0,0,0,.19.82,7.13,7.13,0,0,1-1.4.26c-.08,0-.88-.06-.82-.67,0,0-.54.28-.07.75,0,0-1.33.2-1.62-.75a9,9,0,0,0-1,.37c-.05,0-.58,0-.58-.31,0,0-.38.3,0,.56,0,0-2,.78-2-.12a15.33,15.33,0,0,0,5-2.23,16.61,16.61,0,0,1-2.3,1c-.15,0-.94-.14-.92-.66,0,0-.69.34.21.9l-.45.18-.48.15s-.83,0-.94-.67c0,0-.58.49.28.88,0,0-1.55.65-2.28-.44-.27-.41.27-.88.71-1s1.08-.29,1,.18a19,19,0,0,0,4.51-1.42c.88-.52,2,.17.78,1.81a8.71,8.71,0,0,0,5.43-1.31s.53,1.75-2.22,2.39"/><path class="cls-20" d="M176,75.41s.13.22.88-.1c0,0-.62,0-.76-.37,0,0-.3.29-.12.47"/><path class="cls-6" d="M222.06,58.38s5.18,2.7,21.69-.3a34.32,34.32,0,0,1,7.32-.43s10.79,1,19.83-1.86c0,0-9.72,1.82-17.47,1.22a31.2,31.2,0,0,0-9.68.24s-14.6,2.89-20.84.31Z"/><path class="cls-22" d="M141.39,2.1s7.21,12.56,39.38,30.63a4.47,4.47,0,0,1,1.85,1.59c.5.84.94,1.68,1.51,2.47a29.5,29.5,0,0,0,3.21,3.67,36.62,36.62,0,0,0,4.17,3.5,36.89,36.89,0,0,0,3.32,2c-.08,0-7.14-2.83-14.06-10.73-1.41-1.52-6.51-4.52-6.78-4.69S143.4,10.63,141.39,2.1"/></g></g></svg>