<svg id="Capa_1" data-name="Capa 1" xmlns="http://www.w3.org/2000/svg" viewBox="0 0 294.64 125"><defs><style>.cls-1{fill:#b4cbaa;}.cls-2{fill:#b7d1ce;}</style></defs><path class="cls-1" d="M10,42.54H36c12.49,0,15.14,7,15.14,11.8s-2.32,7.31-5.84,9.23c4.25,1.45,8.23,4.81,8.23,11.73,0,9.42-8.23,14.3-16.6,14.3H10ZM24.61,60.86h7.7c3,0,5-.85,5-3.89,0-2.37-2-3.23-5-3.23h-7.7Zm0,17.53h8.56c3.06,0,5.71-.85,5.71-4.48,0-2.77-1.66-4.28-5.11-4.28H24.61Z"/><path class="cls-2" d="M55.62,42.54h26c12.49,0,15.15,7,15.15,11.8s-2.33,7.31-5.85,9.23c4.25,1.45,8.24,4.81,8.24,11.73,0,9.42-8.24,14.3-16.61,14.3H55.62ZM70.23,60.86h7.7c3.06,0,5-.85,5-3.89,0-2.37-2-3.23-5-3.23h-7.7Zm0,17.53H78.8c3,0,5.71-.85,5.71-4.48,0-2.77-1.66-4.28-5.12-4.28H70.23Z"/><path class="cls-2" d="M113.07,76.4c.33,3.89,2.59,6.66,6.71,6.66,2.12,0,4.45-.79,5.51-2.44h12.28c-2.65,7.38-9.89,10.81-17.73,10.81-11,0-19.32-6.46-19.32-17.86,0-10,7.3-18.06,18.19-18.06,13.68,0,19.6,7.58,19.6,20.89Zm12.62-6.79a5.64,5.64,0,0,0-5.78-5.73c-3.92,0-6.18,2-6.77,5.73Z"/><path class="cls-2" d="M175.37,82c0,2.57.13,5.47,1.59,7.65H163.55a9.27,9.27,0,0,1-.47-3.23H163c-2.79,3.16-6.84,4.09-11.09,4.09-6.64,0-12.15-3.17-12.15-10.35,0-10.81,12.75-10.42,19.45-11.67,1.8-.33,3.59-.85,3.59-3s-2.19-3.16-4.32-3.16c-4.05,0-4.84,2-4.91,3.49H141.3a9.89,9.89,0,0,1,6-9.23c3.32-1.58,7.7-2,11.75-2,16.47,0,16.34,6.78,16.34,13.37Zm-12.62-7.71a22.87,22.87,0,0,1-5.18,1.65c-2.92.66-4.45,1.38-4.45,3.69,0,1.58,1.73,3.16,4.12,3.16,3,0,5.31-1.78,5.51-5.33Z"/><path class="cls-2" d="M214.67,89.6H202V85.25h-.13c-2.46,3.43-6,5.21-11.23,5.21-6.17,0-11.82-3.76-11.82-11.6V55.39H192V73.32c0,4,.47,6.72,4.32,6.72,2.26,0,5.24-1.12,5.24-6.59V55.39h13.15Z"/><path class="cls-2" d="M235.52,55.39h7v8h-7V75.36c0,3.17.73,4.55,4,4.55a23.22,23.22,0,0,0,3-.2V89.6c-2.66,0-5.65.39-8.44.39-5.58,0-11.75-.85-11.75-10.21V63.43h-5.85v-8h5.85V45h13.15Z"/><path class="cls-2" d="M271.9,87c-1.06,3-2.26,6.92-4.32,9.49-3.45,4.29-8.76,4.22-13.88,4.22h-6V90.26h3.05c1.33,0,3.06.13,4-.33S256,88.87,256,87.36s-5-14.24-5.78-16.22L244.4,55.39h14.08L264,75h.13l5.58-19.64h13.61Z"/></svg>