<svg id="Capa_1" data-name="Capa 1" xmlns="http://www.w3.org/2000/svg" viewBox="0 0 326.93 125"><defs><style>.cls-1{fill:#1b9467;}</style></defs><path class="cls-1" d="M24.25,89.76H4.67V48.42H22.13C28.86,48.42,35,51.45,35,59c0,4.06-1.76,7.52-5.58,9.09v.12c4.85,1.09,7.7,4.85,7.7,9.88C37.16,85.76,31.53,89.76,24.25,89.76ZM20.68,55.57H14.07v9.76h6.61c2.9,0,5.27-1.82,5.27-4.91S23.58,55.57,20.68,55.57Zm.42,16.8h-7V82.61h7c3.39,0,6.49-1.27,6.49-5.09S24.43,72.37,21.1,72.37Z"/><path class="cls-1" d="M69.77,89.76H42.62V48.42H69.23v7.46H52v9.27H67.65v7.46H52v9.7H69.77Z"/><path class="cls-1" d="M116.93,89.76H107l-21.16-27v27H76.44V48.42H86.56l21,27v-27h9.4Z"/><path class="cls-1" d="M152.57,89.76H125.41V48.42H152v7.46H134.81v9.27h15.64v7.46H134.81v9.7h17.76Z"/><path class="cls-1" d="M190,55.88H178.33V89.76H169V55.88H156.81V48.42H190Z"/><path class="cls-1" d="M228,55.88H216.33V89.76H207V55.88H194.82V48.42H228Z"/><path class="cls-1" d="M252.58,90.31c-12.67,0-22.79-8.06-22.79-21.22a22,22,0,0,1,2.12-9.39c3.88-8.25,11.88-11.82,20.67-11.82,12.55,0,22.55,8.24,22.55,21.21S265.13,90.31,252.58,90.31Zm0-34.31a13.09,13.09,0,1,0,0,26.18,13.09,13.09,0,1,0,0-26.18Z"/><path class="cls-1" d="M322.29,89.76h-10l-21.15-27v27h-9.4V48.42h10.13l21,27v-27h9.4Z"/></svg>