<svg id="Capa_1" data-name="Capa 1" xmlns="http://www.w3.org/2000/svg" viewBox="0 0 134.53 125"><defs><style>.cls-1{fill:#d83833;fill-rule:evenodd;}.cls-2{fill:#21529a;}</style></defs><path class="cls-1" d="M128.42,42.26a48.86,48.86,0,0,0-80.1,0l-.47.67H59.44l.13-.14a39.47,39.47,0,0,1,57.6,0l.13.14h11.59l-.47-.67Z"/><path class="cls-2" d="M43.25,85.74,43,86c-3.56,3.63-7.68,5.56-11.93,5.56-8.87,0-15.3-6.67-15.3-15.86s6.43-15.85,15.3-15.85c4.25,0,8.37,1.94,11.93,5.58l.22.22L49,58.7l-.16-.19c-4.74-5.61-10.43-8.34-17.42-8.34a26.37,26.37,0,0,0-18,6.64c-5,4.61-7.68,11.13-7.68,18.85s2.65,14.25,7.68,18.87a26.32,26.32,0,0,0,18.05,6.64c7,0,12.68-2.73,17.42-8.35l.16-.17-5.7-6.91Zm11.46,14.49H64.78V51H54.71v49.26Zm49.51-10.71A14.52,14.52,0,0,1,96.79,92c-3.25,0-4.72-1.71-4.72-5.54V60.29h10.26V51H92.07V35.69L82.2,41V51H73.69v9.28H82.2V88.1c0,7.58,4.48,12.74,11.16,12.89a15.93,15.93,0,0,0,8.94-2.26l.09-.07,2.43-9.51-.6.37Zm8.35,10.71h10.07V51H112.57v49.26Z"/></svg>