<svg id="Capa_1" data-name="Capa 1" xmlns="http://www.w3.org/2000/svg" viewBox="0 0 107.17 125"><defs><style>.cls-1{fill:#2b418c;}.cls-1,.cls-2{fill-rule:evenodd;}.cls-2{fill:#fff;}</style></defs><path class="cls-1" d="M85,13.76c-1.85,1.15-3.78,3.31-2.3,5.71,2.25,3.63,7-.95,7.9.56.41.66-.06,1.2-.6,1.53a1.59,1.59,0,0,1-1,.25c-.36,0-.67-.25-.61-.26l-3.37,2.08c1.46,2.05,4.11,1.32,6.15.06,3.27-2,4-4.29,2.77-6.24-2.17-3.51-7.25.85-8.06-.46-.29-.46,0-.9.59-1.28a1.24,1.24,0,0,1,.86-.21c.29.05.54.19.54.25l3.21-2h10.18V49.21l-44.86.07a13.23,13.23,0,1,0,0,26.45h44.86v35.43l-48.66.11a48.77,48.77,0,0,1,0-97.54l32.45,0Z"/><path class="cls-2" d="M34.07,58.6l-3.28,2L30,60a3.93,3.93,0,0,1-2.21,2.91c-1.93,1.2-4,.72-5.63-2l-3.53-5.71L22.12,53l3.13,5.06c.8,1.29,1.48,1.44,2.33.91,1-.63.84-1.64-.06-3.09l-2.79-4.5,3.54-2.19,5.8,9.37Z"/><path class="cls-2" d="M29.87,48.24l3.24-2,.85.67a3.57,3.57,0,0,1,1.81-2.69,3.32,3.32,0,0,1,4-.08,4.17,4.17,0,0,1,2-3.62c2.6-1.61,4.37-.57,6,2L51.14,48,47.6,50.23l-3-4.78c-.85-1.38-1.45-1.77-2.38-1.19s-.65,1.71,0,2.84l2.87,4.63-3.53,2.19-3-4.78c-.85-1.37-1.45-1.77-2.39-1.19s-.65,1.71.05,2.84l2.86,4.64-3.53,2.18-5.8-9.37Z"/><polygon class="cls-2" points="69.95 36.4 64.15 27.02 67.69 24.83 73.49 34.21 69.95 36.4 69.95 36.4"/><polygon class="cls-2" points="61.77 23.17 65.31 20.99 66.95 23.63 63.41 25.82 61.77 23.17 61.77 23.17"/><path class="cls-2" d="M69.57,23.67l3.23-2,1,.7a3.44,3.44,0,0,1,1.8-2.83c2.35-1.45,4.35-.69,5.94,1.89l3.48,5.62-3.53,2.19-3.07-5c-.58-.93-1.32-1.61-2.33-1s-.92,1.59-.18,2.79l3,4.78L75.37,33l-5.8-9.37Z"/><path class="cls-2" d="M46.86,37.72l3.25-2,.84.68a3.55,3.55,0,0,1,1.81-2.69,3.32,3.32,0,0,1,4-.08,4.19,4.19,0,0,1,2-3.62c2.6-1.61,4.37-.58,6,2l3.43,5.55-3.54,2.18-3-4.77c-.86-1.38-1.45-1.78-2.39-1.2s-.65,1.72,0,2.84l2.87,4.64-3.53,2.19-3-4.78c-.85-1.38-1.45-1.78-2.39-1.2s-.65,1.72,0,2.85l2.87,4.63L52.66,47.1l-5.8-9.38Z"/><path class="cls-2" d="M18.39,68.3A8.11,8.11,0,1,1,9.86,54.51l4.6-2.84,2.22,3.6-4,2.46a3.88,3.88,0,1,0,4.08,6.59l4-2.46L23,65.46l-4.6,2.84Z"/></svg>