<svg id="Capa_1" data-name="Capa 1" xmlns="http://www.w3.org/2000/svg" viewBox="0 0 232.38 125"><defs><style>.cls-1{fill:#fff;}.cls-2{fill:#bb2c34;fill-rule:evenodd;}</style></defs><path class="cls-1" d="M226.31,66.21c-1.88-1.24-3.81-.89-5.62.48a11.32,11.32,0,0,1-1.5.93,15.81,15.81,0,0,0,2.43-6.46,13.11,13.11,0,0,0-.5-4.93,15.93,15.93,0,0,0-1.21-2.84l-.13-.21c.42-.27,1-.59,1.37-.89h0a7.74,7.74,0,0,0,2.23-2.86,9.09,9.09,0,0,0,.9-3.23,8.68,8.68,0,0,0-.25-3.16,7.89,7.89,0,0,0-1.75-3.24,7.72,7.72,0,0,0-2.17-1.67,9.63,9.63,0,0,0-3.44-1,11.67,11.67,0,0,0-4.27.42,14.66,14.66,0,0,0-3.48,1.52,23.64,23.64,0,0,0-4.73,3.76l-.13-.12A7.21,7.21,0,0,0,202,40.25a9,9,0,0,0-2.82-1.39,13.44,13.44,0,0,0-2.66-.53,22.67,22.67,0,0,0-6.57.47c-.56.14-1.23.33-1.23.33s-.89,0-1.43,0l-1.73,0,.08-.15c1-1.59,2-3.12,2.78-4.54s1.49-2.67,2-3.77a14,14,0,0,0,.75-1.84v0a6.8,6.8,0,0,0,.36-1.66,6.63,6.63,0,0,0-.81-3.88,7.35,7.35,0,0,0-2.3-2.49,13.18,13.18,0,0,0-4.78-1.9,29.42,29.42,0,0,0-3.19-.52c-.2,0-.4-.06-.6-.08A20.75,20.75,0,0,0,169,20.16c-4.2,2-8.52,5.75-12.35,11.94L151,41l-.08-.12a8.1,8.1,0,0,0-1.51-1.76,8.87,8.87,0,0,0-2.75-1.71l-.48-.13.1-.13,7.2-13.2a4.75,4.75,0,0,0-6.1-6.63l-15.84,7.11a4.8,4.8,0,0,0-2.19,2l-5.16,9s.15.24-.14,0a4.75,4.75,0,0,0-4.39-.53l-9,3.51-.34-.1a14.48,14.48,0,0,0-2.2-.53l-.56-.07a12.2,12.2,0,0,0-2.56,0,18.61,18.61,0,0,0-2.69.51,26.61,26.61,0,0,0-5.9,2.44A27.8,27.8,0,0,0,94,42.27l-.07-.13A5.27,5.27,0,0,0,93.22,41s-.07,0-.1-.06a13.26,13.26,0,0,0,1-1.3,18.45,18.45,0,0,0,2.71-8.24,4.91,4.91,0,0,0-2.68-4.9,5,5,0,0,0-1.57-.42,4.71,4.71,0,0,0-3.92,1.47,15,15,0,0,1-3.93,2.73c-1.61.82-3.2,1.46-4.31,1.9a9.77,9.77,0,0,0-.94.39l-.28.14a5.52,5.52,0,0,0-.43-.53,7.73,7.73,0,0,0-2.1-1.48,15.59,15.59,0,0,0-2.92-1,18.81,18.81,0,0,0-2.27-.34,28.68,28.68,0,0,0-7.42.36,29.32,29.32,0,0,0-7.29,2.25A32.18,32.18,0,0,1,52,33.88a10.53,10.53,0,0,1-4.24.4c-.42,0-.84-.1-1.32-.19a9.08,9.08,0,0,1-3.43-1.63,18.16,18.16,0,0,1-2.72-2.53,8.57,8.57,0,0,1-.59-.73,4.75,4.75,0,0,0-8.43,1.59,14.25,14.25,0,0,0-.38,2.06,15.24,15.24,0,0,0,1.17,7.22,22.33,22.33,0,0,0,3,5.16,13.55,13.55,0,0,0,1.53,1.68L20,84.58a14.65,14.65,0,0,0-3.32.7c-6.58,1.57-28.53,25.07,2.35,26.23,4.9.19,10-1.26,15.12-2.53a149.75,149.75,0,0,0,15.93-5c11-4.05,22.78-9,35.42-12.8,25.35-7.59,50.35-10.48,72.7-8.67l1.82.16a123.47,123.47,0,0,1,19,3.24s-3.25,1.53-3.75,2.57c-5.29,10.93,20,8.31,20,8.31a38.3,38.3,0,0,0,29.52-17.08,49.65,49.65,0,0,0,4.06-7.36C229.67,70.19,228.22,67.46,226.31,66.21Z"/><path class="cls-2" d="M63.55,43.34c-1.16,3.4-11,26.2-12.47,28.72s-6.26,8-8.94,9.43-4,1.31-4,1.31l15.1-34.08s2.19-6.37,5.54-8.18,6-.59,4.82,2.8m9-9.05c-3.93-.84-9.54-.06-13.8,1.94s-7.61,3.53-13.14,2.54S35.89,32,35.89,32c-1.49,5.66,3.68,11.61,5.16,12.72s.22,3.3.22,3.3L22,92s17.89-3,25.57-6.38A32.94,32.94,0,0,0,63.07,70.85c2.23-4.74,10-22.13,12.24-27.7s1.3-8-2.6-8.85Z"/><path class="cls-2" d="M213.48,47.33c-1.33.62-1.26,1-1.26,1s-.08-2.43.88-2.55a6.26,6.26,0,0,1,2.1.2,3.77,3.77,0,0,1-1.72,1.31M198.84,66.62c-2.22,0-3.61-1.09-3.14-2.63s7.17-.71,8.55-.58c0,0-3.19,3.22-5.41,3.21m-5.69-17.29c-.52,0-1-1.57-.46-2.8,0,0,1.75-.69,1.82.91s-.82,1.94-1.36,1.89m-7.85,3.38s-5.39,7.87-7.2,10.15-2.36,2.43-3.6,2.31.08-2.22,1.36-4.23,9.54-12.43,9.54-12.43-.59,1.74-.13,2.32.18,1.6.18,1.6ZM137,50c-.49.79-8.1,13.29-8.1,13.29a2.79,2.79,0,0,1-2.12.61c-1.37-.13-.21-2.27.6-3.63l7.27-12.13s1.48-2.76,3.37-2.49-.54,3.58-1,4.35m-35.44,7.42c-2.58,4.84-4.55,9-6.49,9s1.07-6.69,6.55-16.34c0,0,1.88-3.24,3.44-2.87s-.92,5.32-3.5,10.16M177.13,28.9s2.06-1.24,2.26.05-6,9.82-7.34,11.62-4.54,3.27-4.54,3.27L177.07,29Zm39.12,13c-4.53-.43-9,4.35-10.5,6.53s-.41,2.2-3.61,2.44-3.9-.48-3.9-.48,3.4-4.45.93-6.28-7.77-.84-9.3-.35-5.91-.24-9.05.33-8.31,5.14-11.8,9.48a46.46,46.46,0,0,0-5.2,7.87,9,9,0,0,1-4.53.84c-2.74-.15-2.77-1-.87-4.22s4.68-6.85,4.68-6.85a22.41,22.41,0,0,0,12-6.3c5.06-5.35,10.64-14.88,11.52-17.57s-2.61-3.73-6.79-4.24-12-.08-19.22,11.54S145.3,58.91,145.21,59.86s-1.35.92-2.77,1.12-1.82-.82-.36-2.79,9.67-13.61,2.81-16.38a19.91,19.91,0,0,0-6.68.31l11.13-20.45-15.83,7.09-17.13,30a15.3,15.3,0,0,0-1,2.43c0,.54-1.78.91-3.38,1s-1.15-1.29,0-3.71,9.32-19.05,9.32-19.05L112,42.93l-1.12,1.71s-.15-1.61-3.5-2.14S94.7,44.81,88.74,55.05c0,0-3.79,6.32-4.38,9.24a4.19,4.19,0,0,1-2.24,1.37c-1.63.48-2,.13-.62-3.78S89.57,44,89.57,44l-8.36,2.17c-2.4.62-4.35,1.06-4.35,1.06s-7.07,16.51-8.67,20-.57,8.32,3.58,8,12.53-5.6,12.53-5.6,1.22,2.67,6.88,2.14,8.15-3.15,8.15-3.15,1.25,2.55,4.82,1.72S115,65.48,115,65.48s.6,2.6,6,3a18.6,18.6,0,0,0,8.59-1.1,19.7,19.7,0,0,0,10-.32c5.14-1.65,5.68-3.09,5.68-3.09s.82,3.8,6.9,4.37a22.65,22.65,0,0,0,11.11-1.92s.13,2,7.93,2.34,11.92.82,16.52-4.26A98.58,98.58,0,0,0,195.4,55s4.58-.42,6.91-.4a17,17,0,0,0,3-.15l1.06,5.42s-.05.61-2.68.36S195,59.27,192,61.94s-.55,9.28,4.67,10.1,13.7-.2,17.7-5.44,2.55-9.09,1.16-11.33-2.08-3.7-2.08-3.7a46.77,46.77,0,0,0,4.85-3c1.72-1.32,2.49-6.24-2-6.66"/><path class="cls-2" d="M92.11,30s-.8,6.08-4.45,9a32.53,32.53,0,0,1-9.24,4.64s2.68-7.07,2.71-7.37,7.32-2.38,11-6.28"/><path class="cls-2" d="M7.66,97.72c-1.89,3.84-.41,8.88,8.75,9.45,16.41,1,41.91-12.87,67.76-20.59s51.41-10.74,74.46-8.85,32.76,8.33,32.76,8.33c-1.93,2-12.46,4.06-12.46,4.06,7.23,2.33,18.9,2.63,31.18-3.66,10.06-5.15,13.62-16.26,13.62-16.26-2.12,2.18-14.32,6.75-22.41,6.47S189.44,73,189.44,73s-.22.78,1.67,4.14,1.44,4.9,1.44,4.9-1.05-.42-7.32-3.23S155,72.6,139,71.87s-58,4.94-73.2,11.34S26.57,98.63,18.43,98.15c-6.81-.39-3.24-7.89-3.24-7.89S9.75,93.46,7.66,97.72Z"/></svg>