<svg id="Capa_1" data-name="Capa 1" xmlns="http://www.w3.org/2000/svg" xmlns:xlink="http://www.w3.org/1999/xlink" viewBox="0 0 331.8 125"><defs><style>.cls-1{fill:url(#linear-gradient);}.cls-2{fill:#71706f;}</style><linearGradient id="linear-gradient" x1="45.03" y1="16.54" x2="45.03" y2="109.24" gradientUnits="userSpaceOnUse"><stop offset="0" stop-color="#eac146"/><stop offset="0.34" stop-color="#db8c45"/><stop offset="0.68" stop-color="#d16b3e"/><stop offset="1" stop-color="#d05f68"/></linearGradient></defs><path class="cls-1" d="M79.46,63a6.08,6.08,0,0,0-8.19-2.54,6.1,6.1,0,0,0-3.14,6.41l-17.3,7.82L50.62,66,70.55,46l0,0,0-.07a6.41,6.41,0,0,0,3.8.28,6.41,6.41,0,1,0-5.78-1.54l0,.06-18,14.88-3.42-9.31c0-.1.09-.2.13-.3l0-.13,5.86-9.58a7,7,0,1,0-2.89-1.67l-5,6.61L39.59,29.62a7,7,0,1,0-3.46.92,6.62,6.62,0,0,0,1.07-.09L42,46.18,34,43.1a5.42,5.42,0,0,0,.13-1.19,5.65,5.65,0,1,0-1.57,3.89l10.93,5.33,3.05,10L19.09,52.84a4.68,4.68,0,0,0,.18-2.62,4.74,4.74,0,1,0-3.63,5.63,4.68,4.68,0,0,0,2-.94l29,11.55-.3,11.74-20-7.6a5.68,5.68,0,0,0-7.92-6.1A5.68,5.68,0,0,0,20.7,75.37a5.71,5.71,0,0,0,4.74-2.56l20.7,10.92-.56,22.49a3,3,0,1,0,6.05,0L51,80.53,69.1,69.22A6.06,6.06,0,0,0,79.46,63Z"/><path class="cls-2" d="M103.64,66.71a3,3,0,0,1-.82-2.27V41a3,3,0,0,1,.82-2.27,3.29,3.29,0,0,1,2.36-.8h8.76a19.47,19.47,0,0,1,8.64,1.77,12.65,12.65,0,0,1,5.54,5.08,15.63,15.63,0,0,1,1.92,8,15.92,15.92,0,0,1-1.9,8,12.37,12.37,0,0,1-5.52,5.1,19.56,19.56,0,0,1-8.68,1.77H106A3.29,3.29,0,0,1,103.64,66.71Zm10.65-4.5q9.81,0,9.81-9.53t-9.81-9.5h-4.67v19Z"/><path class="cls-2" d="M144.85,66.88a3.18,3.18,0,0,1-.91-2.4V40.91a3.11,3.11,0,0,1,.91-2.35,3.93,3.93,0,0,1,5,0,3.11,3.11,0,0,1,.91,2.35V64.48a3.18,3.18,0,0,1-.91,2.4,4,4,0,0,1-5,0Z"/><path class="cls-2" d="M190.4,51.81a2.3,2.3,0,0,1,.72,1.79v8.19a9.35,9.35,0,0,1-.28,2.61,2.89,2.89,0,0,1-1,1.47,6,6,0,0,1-2.09.92,24.88,24.88,0,0,1-3.91.8,30.85,30.85,0,0,1-4.16.3,18.33,18.33,0,0,1-8.46-1.83,12.86,12.86,0,0,1-5.5-5.25,16.4,16.4,0,0,1-1.92-8.13,16.38,16.38,0,0,1,1.9-8,13,13,0,0,1,5.43-5.27,17.45,17.45,0,0,1,8.24-1.85,16,16,0,0,1,10,3,3.24,3.24,0,0,1,.92,1,2.8,2.8,0,0,1,.26,1.26,2.88,2.88,0,0,1-.63,1.87,1.88,1.88,0,0,1-1.51.78,3,3,0,0,1-1-.17,6.25,6.25,0,0,1-1.11-.55A15.79,15.79,0,0,0,183,43.18a11.52,11.52,0,0,0-3.36-.46q-8.9,0-8.9,10,0,5.12,2.32,7.64t7,2.52a20.37,20.37,0,0,0,5-.63V55.7h-4a3,3,0,0,1-2-.59,2.39,2.39,0,0,1,0-3.36,3,3,0,0,1,2-.59h7.45A2.79,2.79,0,0,1,190.4,51.81Z"/><path class="cls-2" d="M205.65,66.88a3.19,3.19,0,0,1-.92-2.4V40.91a3.12,3.12,0,0,1,.92-2.35,3.91,3.91,0,0,1,5,0,3.11,3.11,0,0,1,.91,2.35V64.48a3.18,3.18,0,0,1-.91,2.4,3.95,3.95,0,0,1-5,0Z"/><path class="cls-2" d="M233.53,66.84a3.11,3.11,0,0,1-.93-2.36V43.22h-7.07c-2.15,0-3.23-.89-3.23-2.69s1.08-2.65,3.23-2.65h20.93c2.16,0,3.23.89,3.23,2.65s-1.07,2.69-3.23,2.69H239.4V64.48a3.14,3.14,0,0,1-.92,2.36,3.46,3.46,0,0,1-2.48.88A3.5,3.5,0,0,1,233.53,66.84Z"/><path class="cls-2" d="M285.54,64.86a2.53,2.53,0,0,1-1,2,3.47,3.47,0,0,1-2.25.82,3.08,3.08,0,0,1-1.57-.44,2.86,2.86,0,0,1-1.13-1.33l-2.31-5H262.51l-2.31,5a2.88,2.88,0,0,1-1.11,1.33,3,3,0,0,1-1.59.44,3.52,3.52,0,0,1-2.27-.82,2.49,2.49,0,0,1-1-2,3.14,3.14,0,0,1,.35-1.34l11.77-23.83a3.34,3.34,0,0,1,1.44-1.53,4.24,4.24,0,0,1,4.14,0,3.71,3.71,0,0,1,1.48,1.51l11.78,23.83A3.29,3.29,0,0,1,285.54,64.86ZM264.82,56H275l-5.05-10.93Z"/><path class="cls-2" d="M298,66.71a3,3,0,0,1-.83-2.27V40.91a3.11,3.11,0,0,1,.91-2.35,3.91,3.91,0,0,1,5,0,3.08,3.08,0,0,1,.92,2.35V62.17H315.1c2.13,0,3.19.9,3.19,2.69s-1.06,2.65-3.19,2.65H300.32A3.25,3.25,0,0,1,298,66.71Z"/><path class="cls-2" d="M103.38,108.68a1.91,1.91,0,0,1-.56-1.44V83.8a1.88,1.88,0,0,1,.54-1.41,2.06,2.06,0,0,1,1.5-.52h14.32q1.92,0,1.92,1.62t-1.92,1.62H106.9v8.52h11.48q1.92,0,1.92,1.62t-1.92,1.62H106.9v10.37a2,2,0,0,1-.54,1.46,2,2,0,0,1-1.5.54A2,2,0,0,1,103.38,108.68Z"/><path class="cls-2" d="M164.49,107.51a1.54,1.54,0,0,1-.62,1.23,2.19,2.19,0,0,1-1.38.5,1.84,1.84,0,0,1-1.68-1.12l-2.64-5.78H143.52l-2.64,5.78a1.78,1.78,0,0,1-.72.83,1.93,1.93,0,0,1-1,.29,2.22,2.22,0,0,1-1.42-.5,1.54,1.54,0,0,1-.62-1.23,2,2,0,0,1,.2-.77L148.6,83a2.09,2.09,0,0,1,.9-1,2.57,2.57,0,0,1,1.3-.35,2.51,2.51,0,0,1,1.3.35,2,2,0,0,1,.9,1l11.29,23.79A2,2,0,0,1,164.49,107.51ZM145,99.18h11.73l-5.89-12.76Z"/><path class="cls-2" d="M211.8,82.24a2,2,0,0,1,.56,1.44v23.67a1.73,1.73,0,0,1-1.89,1.89,1.76,1.76,0,0,1-1.32-.5,1.92,1.92,0,0,1-.48-1.39V89.43l-7.84,14.37a2.1,2.1,0,0,1-3.92,0L189,89.58v17.77a1.92,1.92,0,0,1-.48,1.39,1.82,1.82,0,0,1-1.36.5,1.76,1.76,0,0,1-1.34-.52,1.87,1.87,0,0,1-.5-1.37V83.68a1.92,1.92,0,0,1,2-2,2.27,2.27,0,0,1,2,1.39l9.56,17.61,9.48-17.61a2.24,2.24,0,0,1,2-1.39A2,2,0,0,1,211.8,82.24Z"/><path class="cls-2" d="M236.81,108.7a1.91,1.91,0,0,1-.56-1.46V83.68a1.91,1.91,0,0,1,.56-1.44,2,2,0,0,1,1.48-.56,2.11,2.11,0,0,1,1.52.54,2,2,0,0,1,.56,1.46v23.56a2,2,0,0,1-.54,1.46,2.09,2.09,0,0,1-1.54.54A2,2,0,0,1,236.81,108.7Z"/><path class="cls-2" d="M264,108.55a1.77,1.77,0,0,1-.54-1.35V83.68a2,2,0,0,1,.56-1.44,2,2,0,0,1,1.48-.56,2.09,2.09,0,0,1,1.52.54,2,2,0,0,1,.56,1.46v22h12.16a2.08,2.08,0,0,1,1.42.43,1.76,1.76,0,0,1,0,2.46,2.08,2.08,0,0,1-1.42.43H265.47A2.09,2.09,0,0,1,264,108.55Z"/><path class="cls-2" d="M316.41,81.68a1.81,1.81,0,0,1,1.3.56,1.76,1.76,0,0,1,.58,1.29,1.65,1.65,0,0,1-.48,1.19l-9.44,11.34v11.18a1.91,1.91,0,0,1-.58,1.48,2.17,2.17,0,0,1-1.51.52,2.09,2.09,0,0,1-1.48-.52,1.94,1.94,0,0,1-.56-1.48V96.06L294.8,84.72a1.7,1.7,0,0,1-.48-1.23,1.72,1.72,0,0,1,.56-1.27,1.86,1.86,0,0,1,1.32-.54,1.8,1.8,0,0,1,1.4.69l8.73,10.56L315,82.37A1.73,1.73,0,0,1,316.41,81.68Z"/></svg>