<svg id="Capa_1" data-name="Capa 1" xmlns="http://www.w3.org/2000/svg" viewBox="0 0 338.42 125"><defs><style>.cls-1{fill:#d42a34;}.cls-2{fill:#001783;}</style></defs><polygon class="cls-1" points="72.87 40.32 59.44 40.41 71 45.67 72.87 40.32"/><path class="cls-2" d="M316.77,50.46c-2-1.65-5.37-2.43-10-2.39a27.39,27.39,0,0,0-12.54,2.73c-3.5,1.8-5.81,4.22-6.85,7.22-1.23,3.54,1.09,7.17,6.85,11l2,1.29a1,1,0,0,0,.38.26q3.69,2.49,3.08,4.24a3.88,3.88,0,0,1-1.54,2,4.25,4.25,0,0,1-2.48.75,2.07,2.07,0,0,1-2-.85,2.94,2.94,0,0,1,.1-2.47l.7-2L282,72.27l-.8,2.35c-1.05,3-.51,5.33,1.6,7s5.58,2.5,10.33,2.47a28.77,28.77,0,0,0,13-2.75c3.58-1.82,5.91-4.26,7-7.29a6.53,6.53,0,0,0-.11-5.33c-.77-1.51-2.63-3.25-5.53-5.14-.6-.39-1.43-1-2.55-1.66-3.49-2.22-5.06-4-4.63-5.21a3.19,3.19,0,0,1,1.42-1.62,4.4,4.4,0,0,1,2.33-.66c1,0,1.71.24,2,.71a3.07,3.07,0,0,1-.13,2.36l-.56,1.5,12.37-.07.54-1.56C319.24,54.39,318.76,52.1,316.77,50.46Z"/><path class="cls-2" d="M87.85,50.4c-1.15-1.41-3.41-2.08-6.77-2.07a19.15,19.15,0,0,0-6.61,1.23A17.91,17.91,0,0,0,68.76,53l1.62-4.67-13.33.08L42.34,90.68l13.84-.09,3.43-9.77a7.11,7.11,0,0,0,3.37,3,12.93,12.93,0,0,0,5.39,1,14.87,14.87,0,0,0,8.23-2.22,12.58,12.58,0,0,0,4.77-6.55l6.7-19.19C89.09,54,89,51.81,87.85,50.4ZM73.62,58l-6,17.1a4.21,4.21,0,0,1-1.4,2.05,3.82,3.82,0,0,1-2.35.71c-1.17,0-1.88-.37-2.08-1.15s0-2.23.74-4.35l4-11.46a12.23,12.23,0,0,1,2.3-4.37,3.88,3.88,0,0,1,2.91-1.19c.95,0,1.58.19,1.87.64A2.16,2.16,0,0,1,73.62,58Z"/><path class="cls-2" d="M40.18,40.41,35.91,52.63a7.37,7.37,0,0,0-3.33-3,12.63,12.63,0,0,0-5.37-1,15.08,15.08,0,0,0-8.28,2.15,11.8,11.8,0,0,0-4,4.72l16.68-.14c1.22,0,1.9.39,2.15,1.14s-.06,2.36-.84,4.57L29,72.53a13.12,13.12,0,0,1-2.25,4.39,3.93,3.93,0,0,1-2.9,1.13,2.2,2.2,0,0,1-1.9-.62,2.31,2.31,0,0,1,0-2l4.91-14.22L14.77,55.91a11.82,11.82,0,0,0-.59,1.43L7.49,76.52c-1,2.9-.94,5.07.2,6.52s3.41,2.14,6.75,2.1A18.44,18.44,0,0,0,21,83.9a18.75,18.75,0,0,0,5.77-3.43l-1.37,3.94,13.28-.07L54,40.4Z"/><path class="cls-2" d="M158,74.05c-1.52,4.29-1.64,7.08-.41,8.36s4.14,1.91,8.68,1.87c.94,0,1.84,0,2.8-.09s1.91-.17,2.85-.3L174.29,77H174a4.91,4.91,0,0,1-2.59-.44,1,1,0,0,1-.46-1.37l4.86-13.95-11.57-5.08Z"/><path class="cls-2" d="M184.32,48.42l-3.78,0,2.28-6.77-13.61.08-2.31,6.76-3.43,0-3.81,0a13.45,13.45,0,0,0-5.82,1.09,19.1,19.1,0,0,0-6,4.9L150,48.25l-13.13.08-12.49,36,13.82,0,7.52-21.56a9.13,9.13,0,0,1,3.85-5.27c1.73-1,4.23-1.49,7.62-1.54l3.65,0h0l3.46,0,13.34-.07,4.06,0Z"/><path class="cls-2" d="M260.35,50.19c-1.16-1.41-3.41-2.11-6.78-2.1a19.22,19.22,0,0,0-6.7,1.3A18.85,18.85,0,0,0,240.94,53l1.67-4.73-13.17.09-2.58,7.36-.24.67-.3.86-9.38,26.91h13.87l7.84-22.55,2-5.51,3.4,0a2.15,2.15,0,0,1,1.9.69,2.34,2.34,0,0,1,0,2.06l-8.84,25.34H251l9.56-27.49C261.6,53.76,261.52,51.6,260.35,50.19Z"/><polygon class="cls-2" points="268.11 55.4 258.41 83.21 258.07 84.13 271.72 84.11 272.06 83.14 281.71 55.24 268.11 55.4"/><polygon class="cls-2" points="284.82 46.54 285.06 45.88 271.39 45.96 270.21 49.4 269.28 52.04 282.92 51.94 284.82 46.54"/><path class="cls-2" d="M218.17,50.8c-2.26-1.81-6.23-2.69-12-2.65s-10.41,1-13.88,2.81a14.53,14.53,0,0,0-7.16,8.3l-4.9,14c-1.29,3.69-.84,6.46,1.36,8.27s6.21,2.69,12,2.63,10.47-1,14-2.82a14.6,14.6,0,0,0,7.21-8.3l.53-1.22-14.14.07-1,2.54a4.54,4.54,0,0,1-1.52,2.29,4.49,4.49,0,0,1-2.63.67c-1.15,0-1.87-.19-2.2-.66a2.62,2.62,0,0,1,.08-2.25l2.43-7,20.43-.14,2-5.64v-.07a26.24,26.24,0,0,0,1.6-5.64A5.78,5.78,0,0,0,218.17,50.8Zm-12.27,7L204.8,61l-6.3,0,1.13-3.15a4.29,4.29,0,0,1,1.5-2.22,4.59,4.59,0,0,1,2.65-.72c1.1,0,1.81.21,2.15.66a1.2,1.2,0,0,1,.22.5l0,.09A3.73,3.73,0,0,1,205.9,57.82Z"/><path class="cls-2" d="M125.73,50.92a9.38,9.38,0,0,0-3.18-1.6,23.75,23.75,0,0,0-5.3-.93,2.72,2.72,0,0,1-.42,0h-.13c-.87,0-1.83-.06-2.82-.06h-.14a37.85,37.85,0,0,0-9.46,1.11,19.87,19.87,0,0,0-4.38,1.7A14.23,14.23,0,0,0,95,55.18a18.32,18.32,0,0,0-2.22,4.18L87.89,73.42c-1.28,3.71-.84,6.44,1.36,8.27s6.18,2.67,12,2.61,10.4-1,13.9-2.79a14.66,14.66,0,0,0,7.19-8.32l4.86-14C128.43,55.45,128,52.72,125.73,50.92Zm-12.25,7-5.77,16.67a3.84,3.84,0,0,1-4.16,2.94c-1.12,0-1.83-.2-2.17-.66a2.52,2.52,0,0,1,.05-2.23L106,61.59c1-2.46,1.88-5.49,3.77-6.11,1.64-.6,3.23-.52,3.77.25A2.49,2.49,0,0,1,113.48,58Z"/><polygon class="cls-2" points="325.48 53.37 323.71 48.16 322.5 48.17 322.55 54.34 323.33 54.32 323.31 49.16 325.11 54.32 325.91 54.3 327.62 49.11 327.63 54.29 328.47 54.28 328.41 48.14 327.24 48.14 325.48 53.37"/><path class="cls-2" d="M334.65,53.8a4.7,4.7,0,0,1-.08-.73c0-.35,0-.66,0-.87a2.1,2.1,0,0,0-.24-.61.79.79,0,0,0-.49-.37,1.51,1.51,0,0,0,.84-1.42,1.68,1.68,0,0,0-.28-.94,1.85,1.85,0,0,0-.71-.56,2.06,2.06,0,0,0-1-.19h-2.94l.05,6.17h.8V51.64h2.1a1,1,0,0,1,.76.23.92.92,0,0,1,.27.5c0,.18,0,.49.06.93a4.56,4.56,0,0,0,.08,1h1.05v-.14A.34.34,0,0,1,334.65,53.8Zm-1-3.43a1,1,0,0,1-.36.39,1,1,0,0,1-.57.14l-2.12,0V48.85l2.17,0a.94.94,0,0,1,.78.3,1.15,1.15,0,0,1,.26.74A1.27,1.27,0,0,1,333.66,50.37Z"/></svg>