<svg id="Capa_1" data-name="Capa 1" xmlns="http://www.w3.org/2000/svg" viewBox="0 0 267.02 125"><defs><style>.cls-1{fill:#844c95;}</style></defs><path class="cls-1" d="M19.36,50.12A14.45,14.45,0,0,0,8.75,54.41c-3.46,3.52-5.38,9-5.27,15C3.42,75.07,5.15,80,8.39,83.24a15.07,15.07,0,0,0,11,4.32h.05c8.51,0,14.19-4.8,15.55-13.1l.14-.9-4.09,0-.11.63c-1.13,6-5.44,9.58-11.53,9.6a10.65,10.65,0,0,1-7.87-3.15c-2.45-2.48-3.88-6.35-4-10.69l27.64-.06,0-.73c.28-6-1.38-11.23-4.65-14.65a15.06,15.06,0,0,0-11.24-4.41m0,3v.78c7.25,0,11.29,6.06,11.73,12.3l-23.48,0C8.42,60,12.57,53.88,19.36,53.87Zm0,33.7Z"/><rect class="cls-1" x="43.32" y="37.52" width="4.09" height="49.19" transform="translate(-0.15 0.11) rotate(-0.14)"/><path class="cls-1" d="M71.39,50a14.45,14.45,0,0,0-10.59,4.3c-3.47,3.51-5.38,9-5.29,15C55.45,75,57.2,79.85,60.43,83.13a15,15,0,0,0,11,4.32h.06C80,87.44,85.66,82.67,87,74.36l.15-.9h-4.1L83,74.1c-1.12,6-5.41,9.59-11.52,9.6a10.64,10.64,0,0,1-7.86-3.14,15.76,15.76,0,0,1-4-10.69l27.66-.06,0-.74c.27-6-1.38-11.23-4.64-14.65A15.11,15.11,0,0,0,71.39,50m0,3v.78c7.25,0,11.31,6.06,11.74,12.3l-23.49,0c.79-6.26,4.94-12.33,11.74-12.35Zm0,33.7Z"/><path class="cls-1" d="M119.49,72.92l-.09.67c-.81,6-5.3,10-11.19,10-7.76,0-12.41-5.71-12.43-15.28A16.68,16.68,0,0,1,99,58.17a11.29,11.29,0,0,1,9.26-4.49c6.25,0,10.39,3.24,10.8,8.46l.06.71h4.11l-.08-.84c-.73-7.57-6.3-12.08-15-12.08a15.43,15.43,0,0,0-12.26,5.53,20.09,20.09,0,0,0-4.21,12.9c0,9.19,4.37,19,16.51,19h.05c8.13,0,14.1-5.35,15.21-13.59l.12-.88ZM108.21,86.6Z"/><path class="cls-1" d="M212.3,50.22c-10.18,0-16.5,6.8-16.48,17.68l0,.65c0,.29,0,.59,0,.89,0,10.85,6.34,17.59,16.5,17.59h.07c10.18,0,16.5-6.79,16.47-17.66V67.81c0-10.85-6.34-17.59-16.56-17.59m0,3.82,0-.78V54c8.22,0,12.16,7.33,12.41,14.56-.24,7.27-4.16,14.6-12.42,14.62s-12.17-7.35-12.41-14.56c.23-7.27,4.15-14.61,12.37-14.62"/><path class="cls-1" d="M263.5,64.76c0-4,0-14.62-13-14.62a13.89,13.89,0,0,0-11.63,5.91V51h-4.09l.09,35.84h4.09l-.05-19.33c0-8.24,4.51-13.58,11.58-13.6,8,0,8.93,6,9,10.41l.06,22.47h4.07Z"/><rect class="cls-1" x="185.02" y="50.95" width="4.34" height="36.21"/><rect class="cls-1" x="185.02" y="42.49" width="4.34" height="4.22"/><path class="cls-1" d="M173.91,36.64,142.43,87.2h10.19q7.23,0,10.11-.91a17.53,17.53,0,0,0,8.1-5.23,21.57,21.57,0,0,0,4.7-10.22h1.54L174.9,90.2H125.84l31.52-50.64h-7.94a40.48,40.48,0,0,0-6.09.28,14.83,14.83,0,0,0-5.19,2,12.78,12.78,0,0,0-4,4.05,21,21,0,0,0-2.5,6.4h-1.47l1.47-15.68Z"/></svg>