<?xml version="1.0" encoding="utf-8"?>
<!-- Generator: Adobe Illustrator 27.5.0, SVG Export Plug-In . SVG Version: 6.00 Build 0)  -->
<svg version="1.1" id="Capa_1" xmlns="http://www.w3.org/2000/svg" xmlns:xlink="http://www.w3.org/1999/xlink" x="0px" y="0px"
	 viewBox="0 0 547 125" style="enable-background:new 0 0 547 125;" xml:space="preserve">
<style type="text/css">
	.st0{clip-path:url(#SVGID_00000183208094497656809440000001237647714126284447_);}
	.st1{fill:#00A4BD;}
</style>
<g>
	<path d="M507.9,55l5.7,17.3h-11.5l5.5-17.3L507.9,55L507.9,55z M498.2,85l3.7-11.7H514l4.7,14l-4.2,0.4v0.7h18.7v-0.7l-2.6-0.4
		l-16.6-41.5l-5.7,3.9L496.8,85l-6.5,2.7v0.7h14.3v-0.7L498.2,85L498.2,85z"/>
	<polygon points="122.8,87.4 122.8,47.3 126.4,47 126.4,46.1 109.5,46.1 109.5,47 113.1,47.3 113.1,87.1 109.5,87.4 109.5,88.4 
		141.6,88.4 142.2,78 141.6,78 134.6,87.1 	"/>
	<polygon points="172,47 183.1,47.3 189.8,56.4 190.4,56.4 190.1,46.1 158.6,46.1 158.6,47 162.2,47.3 162.2,87.1 158.6,87.4 
		158.6,88.4 190.7,88.4 191.3,78 190.7,78 183.7,87.1 172,87.4 172,67.8 180.4,68.1 183.7,74.8 184.3,74.8 184.3,59.3 183.7,59.3 
		180.4,66.3 172,66.6 	"/>
	<polygon points="410.7,87.3 410.7,88.4 427.4,88.4 427.4,87.3 423.9,86.9 423.9,47.5 427.4,47 427.4,46.1 410.7,46.1 410.7,47 
		414.3,47.5 414.3,86.9 	"/>
	<polygon points="86.8,47 98,47.3 104.6,56.4 105.2,56.4 104.9,46.1 73.5,46.1 73.5,47 77.1,47.3 77.1,87.1 73.5,87.4 73.5,88.4 
		105.5,88.4 106.1,78 105.5,78 98.6,87.1 86.8,87.4 86.8,67.8 95.3,68.1 98.6,74.8 99.2,74.8 99.2,59.3 98.6,59.3 95.3,66.3 
		86.8,66.6 	"/>
	<path d="M240.5,67.2c0-13.6,3.6-20.4,11.3-20.4s11.3,6.8,11.3,20.4c0,13.6-3.6,20.4-11.3,20.4S240.5,80.8,240.5,67.2 M230.5,67.2
		c0,12.4,10.2,21.4,21.4,21.4c11.2,0,21.4-9,21.4-21.4S263,45.8,251.8,45.8S230.5,54.8,230.5,67.2"/>
	<path d="M227.3,84.9l0.6-10h-0.6l-4.2,6.9c-1.2,2.1-4.4,5.8-8.3,5.8c-8.3,0-11.9-6.8-11.9-20.4s4.2-20.4,11.9-20.4
		c3.9,0,6.8,3.6,8,5.8l4.2,6.9h0.6l-0.3-10c-2.4-1.5-7.7-3.7-13.6-3.7c-12.5,0-20.8,9-20.8,21.4s8.3,21.4,20.8,21.4
		C219.6,88.6,224.9,86.4,227.3,84.9"/>
	<polygon points="306.2,72.1 288.3,46.1 273.3,46.1 273.3,46.9 279.7,47.2 279.7,85 273.3,87.7 273.3,88.4 287.7,88.4 287.7,87.7 
		281,85 280.8,52.7 281.1,52.7 306.3,88.6 307.7,88.6 307.7,49.4 314.1,46.7 314.1,46.1 299.7,46.1 299.7,46.7 306.4,49.4 
		306.6,72.1 	"/>
	<path d="M324.8,67.2c0-13.6,3.6-20.4,11.3-20.4s11.3,6.8,11.3,20.4c0,13.6-3.6,20.4-11.3,20.4S324.8,80.8,324.8,67.2 M314.7,67.2
		c0,12.4,10.2,21.4,21.4,21.4s21.4-9,21.4-21.4s-10.2-21.4-21.4-21.4S314.7,54.8,314.7,67.2"/>
	<polygon points="385.4,72.7 374,46 358.1,46 358.1,47 364.5,47.5 364.5,85 358.1,87.7 358.1,88.4 372.5,88.4 372.5,87.7 365.8,85 
		365.5,52.7 365.9,52.7 380.9,88.2 382.3,88.2 393.7,50.3 394.1,50.3 394.1,86.9 390.5,87.5 390.5,88.4 407.3,88.4 407.3,87.5 
		403.7,86.9 403.7,47.3 407.3,46.8 407.3,46 393.9,46 385.8,72.7 	"/>
	<path d="M433.1,84.9c3.3,2.1,7.1,3.6,11.5,3.6c8,0,15-4.2,15-13.1c0-7.7-6.8-11.5-12.8-13.9c-4.3-1.7-8.3-3.9-8.3-8.3
		c0-5.6,5.4-6.5,7.3-6.5c4,0,6.7,2.3,9.3,8c0.6,1.3,1.2,2.5,1.8,3.8h0.6l-0.3-12.4h-0.6l-0.6,2.5c-2.4-1.6-6.6-2.8-10.3-2.8
		c-8.1,0-14.7,4.3-14.7,11.9s6.1,10.5,12.1,13c4.5,1.9,9,4.4,9,9.5c0,5.6-3.9,7.4-7.5,7.4c-4.9,0-8.2-3-10.6-8.6
		c-0.6-1.4-1.2-2.8-1.8-4.1h-0.6l0.3,13.3h0.6L433.1,84.9L433.1,84.9z"/>
	<polygon points="461.7,56.3 462.3,56.3 468.9,47.4 473.7,47.1 473.7,87.1 470.1,87.5 470.1,88.4 486.9,88.4 486.9,87.5 483.3,87.1 
		483.3,47.1 488.1,47.4 494.7,56.3 495.3,56.3 495,46 462,46 	"/>
	<g>
		<defs>
			<path id="SVGID_1_" d="M13.8,66.1c0,14,11.4,25.4,25.5,25.4s25.5-11.4,25.5-25.4S53.5,40.7,39.4,40.7S13.8,52,13.8,66.1"/>
		</defs>
		<clipPath id="SVGID_00000140004801403279877090000017868447799213098923_">
			<use xlink:href="#SVGID_1_"  style="overflow:visible;"/>
		</clipPath>
		<g style="clip-path:url(#SVGID_00000140004801403279877090000017868447799213098923_);">
			<path class="st1" d="M63.5,62.5L63.5,62.5L63.5,62.5c0-0.1-0.1-0.1-0.2-0.1c-0.1,0-0.2,0.1-0.2,0.1l0,0
				c-2.2,8.2-8.8,15-17.7,17.2C32.5,83,19.2,72.1,16.7,62.2c-0.5-2.6-0.3-2.7-0.2-3.7c0,0.2,0.1,0.4,0.1,0.7
				c0.5,2.6,1.7,5.2,3.7,7.5c6.6,7.5,19.9,9.8,29.4,4.5c9.4-5.2,11.6-15.6,4.8-23.2c-1.7-1.9-3.9-3.5-6.2-4.7l0,0c0,0-0.1,0-0.1,0
				c-0.1,0-0.2,0.1-0.2,0.2c0,0.1,0,0.1,0,0.1l0,0c5.7,7.1,4.5,16.8-2.9,22.1c-7.7,5.5-19.2,4-25.3-3c-1.3-1.5-2.4-3.3-2.7-4.4
				c-0.1-0.2-0.1-0.5-0.2-0.8c0,0,0,0,0-0.1c1.5,1.2,5.8,4.2,11.5,4.2c18.4,0.1,16.6-17.3,4.4-17.3c-3.4,0-7.2,1.3-11.1,4.7
				c-2.2,2.2-3.8,4.3-5.2,7.8l0,0c0,0-0.9,2.2-1.3,4c-0.1,0.5-0.2,1.1-0.3,1.6c-0.1,0.8-0.2,1.5-0.2,2.3
				c-0.7,13.2,9.6,25.1,23.3,25.8c8.8,0.4,16.7-3.8,21.3-10.5l-0.1-0.1c-5.3,6-13.7,9.3-22.5,7.9c-12.3-1.9-20.9-12.2-21.4-23.5
				c0-0.6,0-1.3,0.3-3c0,0,0-0.1,0-0.2c0,0.8,0.1,1.6,0.3,2.5c2.2,12.9,14.5,22.5,27.7,20.6C54.9,82.6,62.9,73.4,63.5,62.5
				L63.5,62.5L63.5,62.5"/>
		</g>
	</g>
</g>
</svg>
