<svg id="Capa_1" data-name="Capa 1" xmlns="http://www.w3.org/2000/svg" viewBox="0 0 337.77 125"><defs><style>.cls-1{fill:#91c055;}.cls-2{fill:#999;}</style></defs><path class="cls-1" d="M227.89,26.45c-1.36-2-.16-4.77,2-5.83s4.46,0,5.91,1.94,1.9,11.88,0,10C229.55,26.32,229.69,29,227.89,26.45Z"/><path class="cls-1" d="M250.76,30.8c2-1.35,1.63-4.23,0-6s-3.76-1.49-5.82-.24c-2.21,1.36-6.23,10.14-3.82,9.09C249.26,30.08,248.16,32.57,250.76,30.8Z"/><path class="cls-1" d="M224.55,32.37a3.31,3.31,0,0,0-3.31,4.21c.57,2.33,3,3.17,5.44,3.46,3.78.46,11.13-4.95,7-5.48C225.35,33.48,227.71,32.48,224.55,32.37Z"/><path class="cls-1" d="M249.28,40a3.94,3.94,0,0,1,1.58,6c-1.64,1.76-4.18,1.47-6.3.33-3.13-1.63-6.18-10.46-3.16-9.11A58.46,58.46,0,0,0,249.28,40Z"/><path class="cls-1" d="M230.21,45.59c-1,2.2-.19,4.78,1.42,5.18,2.35.59,4.45-1.7,5.55-3.83,1.19-2.3.9-10.72-.23-8.33C234.42,43.92,231.53,42.73,230.21,45.59Z"/><path class="cls-1" d="M236.43,36.15a1.66,1.66,0,1,1,2.22.76A1.65,1.65,0,0,1,236.43,36.15Z"/><path class="cls-1" d="M140.92,37.08s2.48-9.55,20-9.55S190,37,216.65,28.64c0,0,3.85,3.14-5.77,6.79s-23.56,7.49-34.62,35.14S147.65,98,147.65,98s23.8-10.82,43.28-10.82,49,14.18,78.62,14.18S318.36,91,327.74,82.11c2.88-3.37,6.49,2.16,2.88,4.33s-37.51,22.36-60.35,22.36-43.81-15.39-78.86-15.39c-21.24,0-33.58,4.89-43.84,9.06s-12-5.45-1.76-8.5,19.63-6.09,24.44-24.36S181.79,42.11,196,38.19c0,0-14.2,1.8-24-4.42s-22.12-4.41-26.13,3.29C144.28,39.43,140.68,39.54,140.92,37.08Z"/><path class="cls-2" d="M34.69,53.78h4.47l7.7,10.59,7.61-10.59H59L49.1,67.45,60.2,82.72H55.67L46.86,70.56,38.1,82.72H33.65l11-15.24Z"/><path class="cls-2" d="M90.43,57.48A14.3,14.3,0,0,0,79.88,53a13.51,13.51,0,0,0-6.41,1.52A15,15,0,0,0,68.4,59.1a17.94,17.94,0,0,0-3.73,11.3V94.93H68.4V77.75A16,16,0,0,0,73.63,82a14.62,14.62,0,0,0,16.84-3,15,15,0,0,0,4.34-10.84A14.67,14.67,0,0,0,90.43,57.48Zm-.8,16.66a11.41,11.41,0,0,1-4.21,4.34A10.89,10.89,0,0,1,79.78,80,11.66,11.66,0,0,1,74,78.49a10.71,10.71,0,0,1-4.22-4.17,11.92,11.92,0,0,1-1.47-5.92,11.54,11.54,0,0,1,3.3-8.4,11,11,0,0,1,8.14-3.37,11.27,11.27,0,0,1,5.73,1.52,11.15,11.15,0,0,1,4.18,4.3,11.69,11.69,0,0,1,1.55,5.84A11.82,11.82,0,0,1,89.63,74.14Z"/><path class="cls-2" d="M114,56.86a10.75,10.75,0,0,0-10.09,6.07q-.69,2.48-.69,10v9.79H99.4V53.78h3.81V58s1.74-4.23,10.38-4.23a15.73,15.73,0,0,1,7.77,2.34L120,59A9.62,9.62,0,0,0,114,56.86Z"/><path class="cls-2" d="M26.5,75.51l3.76,1a16.19,16.19,0,0,1-2.59,3.15,12,12,0,0,1-4.55,2.84,16,16,0,0,1-5.72,1q-7.08,0-11.08-4.64a15.7,15.7,0,0,1-4-10.5,15.47,15.47,0,0,1,3.38-9.82A13.83,13.83,0,0,1,17.19,53,14.27,14.27,0,0,1,29,58.65c2.1,2.64,3.2,6.35,3.2,11.75h-26c0,1.95,1.14,4.26,3.22,6.41A10.27,10.27,0,0,0,17.08,80a12.41,12.41,0,0,0,4.3-.76,11.19,11.19,0,0,0,3.55-2A6.94,6.94,0,0,0,26.5,75.51Zm2-8.83a14.68,14.68,0,0,0-2.54-6.12,10.22,10.22,0,0,0-3.77-2.87,11.47,11.47,0,0,0-4.92-1.09,10.61,10.61,0,0,0-7.33,2.74,13.75,13.75,0,0,0-3.84,7.34Z"/><path class="cls-2" d="M148.18,75.51l3.75,1a15.83,15.83,0,0,1-2.58,3.15,12.11,12.11,0,0,1-4.56,2.84,16,16,0,0,1-5.72,1q-7.08,0-11.07-4.64a15.86,15.86,0,0,1-.62-20.32A13.83,13.83,0,0,1,138.86,53a14.3,14.3,0,0,1,11.82,5.62c2.1,2.64,3.19,6.35,3.19,11.75h-26c0,1.95,1.15,4.26,3.22,6.41a10.29,10.29,0,0,0,7.7,3.22,12.41,12.41,0,0,0,4.3-.76,11.24,11.24,0,0,0,3.56-2A7.4,7.4,0,0,0,148.18,75.51Zm2-8.83a14.81,14.81,0,0,0-2.54-6.12,10.3,10.3,0,0,0-3.77-2.87,11.51,11.51,0,0,0-4.93-1.09,10.58,10.58,0,0,0-7.32,2.74,13.69,13.69,0,0,0-3.84,7.34Z"/><rect class="cls-2" x="236.73" y="53.78" width="3.87" height="28.92"/><path class="cls-2" d="M278.48,60.63a14.69,14.69,0,0,0-13-7.61,14.31,14.31,0,0,0-10.64,4.41,15.11,15.11,0,0,0-4.32,11,15.63,15.63,0,0,0,1.92,7.75A14.11,14.11,0,0,0,258,81.62a15.25,15.25,0,0,0,7.59,2,14.37,14.37,0,0,0,7.38-2,15,15,0,0,0,5.5-5.68,15.36,15.36,0,0,0,0-15.3Zm-3.07,13.51a11.31,11.31,0,0,1-4.2,4.34A10.89,10.89,0,0,1,265.57,80a11.63,11.63,0,0,1-5.8-1.54,10.65,10.65,0,0,1-4.22-4.17,11.92,11.92,0,0,1-1.47-5.92,11.5,11.5,0,0,1,3.3-8.4,10.93,10.93,0,0,1,8.13-3.37,11.17,11.17,0,0,1,9.92,5.82,11.73,11.73,0,0,1,0,11.69Z"/><path class="cls-2" d="M313.73,67.92V82.7H310V69c.27-6.49-2.25-8.73-2.8-9.36a9.24,9.24,0,0,0-6.74-2.86,9,9,0,0,0-6,2.09,10.38,10.38,0,0,0-3.5,5.49,38.23,38.23,0,0,0-.53,7.81V82.7h-3.69V54h3.69v5.15a16.72,16.72,0,0,1,4.7-4.23,12.37,12.37,0,0,1,6.36-1.45,12.65,12.65,0,0,1,9.68,5.17C314.15,62.39,313.73,67.92,313.73,67.92Z"/><path class="cls-2" d="M263.3,51.06l.63-.59,8.21-7.85.36-.34-2.43-2.63h0l-9.13,8.72h0Z"/></svg>