<svg id="Capa_1" data-name="Capa 1" xmlns="http://www.w3.org/2000/svg" xmlns:xlink="http://www.w3.org/1999/xlink" viewBox="0 0 291.59 125"><defs><style>.cls-1,.cls-8{fill:none;}.cls-2{fill:#f8ee5d;}.cls-3{fill:#d42a34;}.cls-4{clip-path:url(#clip-path);}.cls-5{fill:url(#Degradado_sin_nombre_44);}.cls-6{clip-path:url(#clip-path-2);}.cls-7{fill:url(#Degradado_sin_nombre_44-2);}.cls-8{stroke:#d42a34;stroke-miterlimit:10;stroke-width:0.25px;}</style><clipPath id="clip-path"><path class="cls-1" d="M229.59,79.48h0C203,82.59,180.43,76.8,179.24,66.57s19.42-21,46-24.15,49.18,2.68,50.38,12.92-19.43,21-46,24.14M278.25,55C276.88,43.22,253,36.31,224.93,39.57s-49.68,15.49-48.31,27.31,25.24,18.72,53.3,15.45S279.63,66.84,278.25,55Z"/></clipPath><linearGradient id="Degradado_sin_nombre_44" x1="3303.8" y1="511.89" x2="3304.87" y2="511.89" gradientTransform="matrix(0, 48.79, -55.93, 0, 28855.8, -161153.28)" gradientUnits="userSpaceOnUse"><stop offset="0" stop-color="#d83b41"/><stop offset="0.5" stop-color="#fff"/><stop offset="1" stop-color="#d83b41"/></linearGradient><clipPath id="clip-path-2"><path class="cls-1" d="M228.65,81h0c-26.62,3.1-50.53-4.68-51.72-14.91S199.6,44,226.21,40.87,276.76,45.55,278,55.78,255.26,77.94,228.65,81m49.6-26C276.88,43.22,253,36.31,224.93,39.57s-49.68,15.49-48.31,27.31,25.24,18.72,53.3,15.45S279.63,66.84,278.25,55Z"/></clipPath><linearGradient id="Degradado_sin_nombre_44-2" x1="3372.34" y1="506.79" x2="3373.87" y2="506.79" gradientTransform="matrix(-53.68, 0, 0, -61.15, 181280.64, 31052.79)" xlink:href="#Degradado_sin_nombre_44"/></defs><rect class="cls-2" x="5.48" y="23.64" width="280.63" height="80.41" rx="14.03"/><path class="cls-3" d="M15.71,72.83a3.14,3.14,0,0,0,1.36-.26,1.5,1.5,0,0,0,.61-1.34V60.46a1.53,1.53,0,0,0-.61-1.35,3.36,3.36,0,0,0-1.36-.24v-.61H28.13v4.52h-.55a5.25,5.25,0,0,0-1.37-2.93,6.06,6.06,0,0,0-3.55-.74,2.72,2.72,0,0,0-1.21.12,1.48,1.48,0,0,0-.27.87v5.26a3,3,0,0,0,2.4-.74A6.4,6.4,0,0,0,24.51,62h.56v7.47h-.56A4.44,4.44,0,0,0,23.64,67a2.9,2.9,0,0,0-2.46-.87v5.15a1.37,1.37,0,0,0,.61,1.34,3.37,3.37,0,0,0,1.79.26v.6H15.71v-.6"/><path class="cls-3" d="M41.55,68.29h0c-.71-1.71-1.43-3.43-2.08-5.14h-.16c-.72,1.71-1.37,3.43-2,5.14h4.28m-8.21,4.78a1.52,1.52,0,0,0,1.32-.74,11,11,0,0,0,.87-1.83c1.58-4,3.17-8.09,4.82-12.24H41c1.59,3.91,3.23,7.82,4.87,11.75.55,1.22,1,2.07,1.2,2.56a1.36,1.36,0,0,0,1.21.5v.61H41.17v-.61a14.18,14.18,0,0,0,1.42-.13.77.77,0,0,0,.32-.73,3,3,0,0,0-.16-.86,3.13,3.13,0,0,0-.27-.72,7.74,7.74,0,0,1-.6-1.36H37c-.33.86-.55,1.47-.66,1.72a5.72,5.72,0,0,0-.27,1.22.73.73,0,0,0,.6.73,2.86,2.86,0,0,0,1.15.13v.61H33.34Z"/><path class="cls-3" d="M62.4,65.12h0c.66-.38.93-1.35.93-2.71A5.17,5.17,0,0,0,63,60.33a2.24,2.24,0,0,0-2.24-1.22,2.53,2.53,0,0,0-1.15.12,1,1,0,0,0-.27.74v5.75a6.27,6.27,0,0,0,3.06-.6m-8.54,7.71a2.38,2.38,0,0,0,1.54-.37,2.56,2.56,0,0,0,.38-1.72V61a2.22,2.22,0,0,0-.49-1.72,5,5,0,0,0-1.43-.36v-.61h7.07a13.7,13.7,0,0,1,3.55.48,3.48,3.48,0,0,1,2.63,3.43,3.58,3.58,0,0,1-1.37,3,5.55,5.55,0,0,1-2.25,1c1.54,2.09,3.08,4.17,4.6,6.25.11.24.27.37.39.37a.76.76,0,0,0,.54.13v.6H64.43l-5.09-7h0v4.28c0,.86.11,1.34.38,1.59s.71.5,1.48.5v.6H53.86Z"/><path class="cls-3" d="M75.23,72.83c.88,0,1.43-.13,1.64-.5a1.67,1.67,0,0,0,.39-1.23V60.46a1.38,1.38,0,0,0-.44-1.23,6.83,6.83,0,0,0-1.53-.36v-.61h5.53c1.42,3.54,2.84,7,4.32,10.4h.16c1.43-3.43,2.86-6.86,4.27-10.4h5.48v.61a7.31,7.31,0,0,0-1.48.36A2.52,2.52,0,0,0,93.19,61v9.79a2.51,2.51,0,0,0,.38,1.72,2.3,2.3,0,0,0,1.48.37v.6H87.82v-.6a2.5,2.5,0,0,0,1.48-.37c.32-.13.5-.61.5-1.23v-11h-.18C87.82,64.62,86,69,84.26,73.43h-.6c-1.8-4.27-3.61-8.57-5.36-12.86h-.11V70.62a2.27,2.27,0,0,0,.44,1.59,2.08,2.08,0,0,0,1.75.62v.6H75.23v-.6"/><path class="cls-3" d="M109.72,68.29h0c-.72-1.71-1.43-3.43-2.08-5.14h-.22c-.66,1.71-1.31,3.43-2,5.14h4.27m-8.21,4.78a1.36,1.36,0,0,0,1.26-.74,7.7,7.7,0,0,0,.93-1.83l4.81-12.24h.66c1.59,3.91,3.23,7.71,4.88,11.62.54,1.22.92,2.09,1.19,2.58a1.31,1.31,0,0,0,1.16.48v.61c-2.35,0-4.71,0-7.07.13v-.61a14.16,14.16,0,0,0,1.43-.13.75.75,0,0,0,.32-.73,3,3,0,0,0-.16-.86,1.92,1.92,0,0,0-.32-.72,7.71,7.71,0,0,1-.55-1.36h-4.93c-.33.86-.49,1.47-.6,1.72a3.76,3.76,0,0,0-.28,1.22.74.74,0,0,0,.61.73,2.86,2.86,0,0,0,1.15.13v.61h-4.49Z"/><path class="cls-3" d="M132.63,58.73a6.24,6.24,0,0,0,1.53.49,1.49,1.49,0,0,0,.72-.23,2.11,2.11,0,0,0,.27-.73h.65v5.26h-.6a9.36,9.36,0,0,0-1.58-2.7A4.54,4.54,0,0,0,130.11,59,3.21,3.21,0,0,0,127,61a12.11,12.11,0,0,0-.87,5.13,12.05,12.05,0,0,0,.54,4,3.76,3.76,0,0,0,3.72,2.94,5.61,5.61,0,0,0,3.13-1,12.11,12.11,0,0,0,2-1.83,2.45,2.45,0,0,0,.65.61,13,13,0,0,1-2.25,2.08,7,7,0,0,1-3.83,1.11,7.56,7.56,0,0,1-5.42-2,7.45,7.45,0,0,1-2.4-5.87,8,8,0,0,1,2.29-5.88,7.7,7.7,0,0,1,5.32-2.07,7.58,7.58,0,0,1,2.79.47"/><path class="cls-3" d="M143,72.83a3.14,3.14,0,0,0,1.32-.26,1.32,1.32,0,0,0,.65-1.34V60.46a1.4,1.4,0,0,0-.6-1.35,3.34,3.34,0,0,0-1.37-.25v-.6h7.61v.6a3.16,3.16,0,0,0-1.37.25,1.32,1.32,0,0,0-.66,1.35V71.23a1.63,1.63,0,0,0,.49,1.34,4.66,4.66,0,0,0,1.54.26v.6H143v-.6"/><path class="cls-3" d="M165.25,68.29h0c-.71-1.71-1.43-3.43-2.08-5.14H163c-.66,1.71-1.32,3.43-2,5.14h4.27M157,73.07a1.45,1.45,0,0,0,1.25-.74,7.08,7.08,0,0,0,.88-1.83c1.59-4,3.23-8.09,4.87-12.24h.66q2.38,5.87,4.87,11.75c.55,1.22,1,2.07,1.26,2.56a1.31,1.31,0,0,0,1.15.5v.61h-7.11v-.61c.7,0,1.2-.13,1.42-.13a.75.75,0,0,0,.33-.73,3.06,3.06,0,0,0-.17-.86,3.13,3.13,0,0,0-.27-.72,7,7,0,0,1-.55-1.36h-5c-.34.86-.55,1.47-.65,1.71a6.15,6.15,0,0,0-.28,1.23.74.74,0,0,0,.65.73,2.81,2.81,0,0,0,1.16.13v.61H157Z"/><path class="cls-3" d="M201.56,56.72h0a2.27,2.27,0,0,0-2.26-1.5.87.87,0,0,0-.73.24,1.42,1.42,0,0,0-.28.63L196,67.45a1.25,1.25,0,0,0,0,.31,1.85,1.85,0,0,0,0,.23.92.92,0,0,0,.2.65,1,1,0,0,0,.73.2c2,0,3.44-1.4,4.32-4.15a17.29,17.29,0,0,0,.8-5.31,7.13,7.13,0,0,0-.43-2.66M192.14,69a1.51,1.51,0,0,0,.78-.3,2.29,2.29,0,0,0,.59-1.31l2.05-10.1c.06-.28.1-.52.13-.71a2.51,2.51,0,0,0,0-.52c0-.37-.07-.62-.23-.71a2.75,2.75,0,0,0-1-.23v-.59h4.89a4.48,4.48,0,0,1,3.8,1.67,7.36,7.36,0,0,1,1.31,4.55,9.6,9.6,0,0,1-1.91,6A6.66,6.66,0,0,1,197,69.58l-4.86,0Z"/><path class="cls-3" d="M204.41,69.09a2,2,0,0,0,.89-.3,1.7,1.7,0,0,0,.48-.93l2.08-8c0-.22.09-.4.12-.56a2.38,2.38,0,0,0,.05-.41c0-.29-.08-.49-.23-.57a3.66,3.66,0,0,0-1-.17v-.46l9.12,0L215.22,61l-.44-.08a3.43,3.43,0,0,0-.4-1.84,3.06,3.06,0,0,0-2.63-.9,1.45,1.45,0,0,0-.86.17,1.27,1.27,0,0,0-.32.65l-1,3.95a6.75,6.75,0,0,0,2.34-.31,3.49,3.49,0,0,0,1.19-1.57l.43,0-1.24,4.81-.44-.08c0-.17,0-.31,0-.44s0-.23,0-.31a1.45,1.45,0,0,0-.51-1.29,3.85,3.85,0,0,0-2-.33l-1.15,4.44-.06.31c0,.1,0,.17,0,.23a.52.52,0,0,0,.18.41,1.35,1.35,0,0,0,.77.15,6.76,6.76,0,0,0,2.61-.47A5.13,5.13,0,0,0,214.35,66l.45.08-1,3.44-9.4,0Z"/><path class="cls-3" d="M229.32,56.61h0a2.27,2.27,0,0,0-2.27-1.49.86.86,0,0,0-.72.23,1.51,1.51,0,0,0-.28.64l-2.3,11.36a2.19,2.19,0,0,0-.05.31c0,.07,0,.16,0,.22a.83.83,0,0,0,.2.65,1,1,0,0,0,.73.2c2,0,3.44-1.39,4.33-4.14a17.28,17.28,0,0,0,.79-5.31,7,7,0,0,0-.42-2.67M219.89,68.9a1.54,1.54,0,0,0,.79-.31,2.25,2.25,0,0,0,.58-1.3l2.05-10.1c.06-.29.1-.52.14-.72a4.92,4.92,0,0,0,0-.51c0-.38-.07-.62-.23-.71a2.63,2.63,0,0,0-1-.24v-.58l4.89,0a4.47,4.47,0,0,1,3.8,1.68,7.34,7.34,0,0,1,1.3,4.55,9.51,9.51,0,0,1-1.9,6,6.71,6.71,0,0,1-5.59,2.85l-4.86,0Z"/><path class="cls-3" d="M232.27,69a1.81,1.81,0,0,0,.89-.31,1.84,1.84,0,0,0,.48-1l2.06-8a4.72,4.72,0,0,0,.13-.56,1.63,1.63,0,0,0,0-.41c0-.3-.08-.48-.24-.57a4.18,4.18,0,0,0-1-.18v-.46l5.05,0V58a1.91,1.91,0,0,0-.9.32,1.85,1.85,0,0,0-.46,1l-2.06,8-.14.62c0,.06,0,.11,0,.17a1.28,1.28,0,0,0,0,.17c0,.31.08.49.24.57a3.12,3.12,0,0,0,1,.18v.47h-5Z"/><path class="cls-3" d="M242.31,68.09h0a1.51,1.51,0,0,0,1.5,1.07,2.7,2.7,0,0,0,1.83-.79,8.55,8.55,0,0,0,1.7-3,20.1,20.1,0,0,0,.87-2.92,13.63,13.63,0,0,0,.3-2.48,2.68,2.68,0,0,0-.43-1.54,1.47,1.47,0,0,0-1.32-.63c-1.43,0-2.62,1.31-3.58,4a14.79,14.79,0,0,0-1.08,5,3.69,3.69,0,0,0,.21,1.32M241.78,60a6.36,6.36,0,0,1,5-2.74,4,4,0,0,1,4.2,4.25A8.58,8.58,0,0,1,248.88,67a6.47,6.47,0,0,1-5.09,2.79,4,4,0,0,1-3-1.15,4.23,4.23,0,0,1-1.15-3.08A8.66,8.66,0,0,1,241.78,60Z"/><path class="cls-3" d="M251.58,69.69l.6-4,.48,0a9,9,0,0,0,.15,1.26,3,3,0,0,0,.57,1.18,3.11,3.11,0,0,0,.87.69,2.29,2.29,0,0,0,1.06.24,1.89,1.89,0,0,0,1.58-.69,2.31,2.31,0,0,0,.55-1.58c0-.75-.7-1.69-2.09-2.84s-2.09-2.28-2.09-3.29a3.42,3.42,0,0,1,.9-2.43,3.28,3.28,0,0,1,2.54-1,5.18,5.18,0,0,1,.94.1,3.52,3.52,0,0,1,.56.14l.43.15.3.07.25,0a.68.68,0,0,0,.46-.14,1.21,1.21,0,0,0,.27-.32h.5l-.66,3.54-.44-.07-.06-.58a3.74,3.74,0,0,0-.5-1.41,2,2,0,0,0-1.76-.93,1.54,1.54,0,0,0-1.42.77,2,2,0,0,0-.29,1.06,1.89,1.89,0,0,0,.3,1.07,2.73,2.73,0,0,0,.53.58l1.48,1.26a6.84,6.84,0,0,1,1.33,1.51,3.53,3.53,0,0,1,.56,1.94,3.6,3.6,0,0,1-1.05,2.52,3.75,3.75,0,0,1-2.9,1.14,4.94,4.94,0,0,1-.93-.08,5.7,5.7,0,0,1-.92-.26l-.43-.16a1.11,1.11,0,0,0-.3-.1.41.41,0,0,0-.19,0,.53.53,0,0,0-.4.12,1.52,1.52,0,0,0-.27.49Z"/><g class="cls-4"><rect class="cls-5" x="170.49" y="11.03" width="113.91" height="99.84" transform="translate(5.6 139.9) rotate(-34.59)"/></g><g class="cls-6"><rect class="cls-7" x="182.23" y="3.25" width="90.42" height="115.41" transform="translate(72.07 237.88) rotate(-63.71)"/></g><path class="cls-3" d="M262.89,56.92V53.77h1.39a1.84,1.84,0,0,1,.65.08.78.78,0,0,1,.35.3.9.9,0,0,1,.13.47.77.77,0,0,1-.22.57,1,1,0,0,1-.67.29,1.21,1.21,0,0,1,.25.16,2.11,2.11,0,0,1,.35.42l.55.86h-.53l-.41-.66c-.12-.18-.23-.33-.31-.43a.69.69,0,0,0-.21-.21.66.66,0,0,0-.19-.09h-.71v1.4Zm.42-1.76h.89a1.32,1.32,0,0,0,.45-.06.48.48,0,0,0,.25-.19.57.57,0,0,0,.08-.29.44.44,0,0,0-.17-.36.7.7,0,0,0-.5-.14h-1Z"/><path class="cls-8" d="M266.83,55.44a2.58,2.58,0,1,1-2.58-2.58A2.58,2.58,0,0,1,266.83,55.44Z"/><path class="cls-3" d="M200,93.85a1,1,0,0,1,1.24,0,1,1,0,0,1,.29.66.91.91,0,1,1-1.81,0,1,1,0,0,1,.28-.66"/><path class="cls-3" d="M203,93.85a1.24,1.24,0,0,1,.67-.22,1.22,1.22,0,0,1,.62.22,1,1,0,0,1,.24.66,1,1,0,0,1-.24.77,1.22,1.22,0,0,1-.62.22.83.83,0,0,1-.91-1,1.19,1.19,0,0,1,.24-.66"/><path class="cls-3" d="M206.06,93.85a1.22,1.22,0,0,1,.62-.22,1.13,1.13,0,0,1,.62.22,1,1,0,0,1,.28.66,1.06,1.06,0,0,1-.28.77,1.13,1.13,0,0,1-.62.22,1.22,1.22,0,0,1-.62-.22,1.06,1.06,0,0,1-.29-.77,1,1,0,0,1,.29-.66"/><path class="cls-3" d="M210.91,90.65h0a1,1,0,0,1-.29-.66.7.7,0,0,1,.29-.66.74.74,0,0,1,.63-.33.72.72,0,0,1,.61.33.68.68,0,0,1,.29.66,1,1,0,0,1-.29.66,1.07,1.07,0,0,1-.61.22,1.11,1.11,0,0,1-.63-.22m-2.14,6.06a1.66,1.66,0,0,0,.15-.44,5.17,5.17,0,0,0,.43-.77c.19-.43.42-.88.61-1.43a8.39,8.39,0,0,0,.48-1.1c.14-.33.28-.66.43-1.11.09.12.19.12.33.12a.56.56,0,0,0,0,.21c-.14.78-.24,1.33-.28,1.77s-.15,1.11-.25,2.31a2.21,2.21,0,0,0,0,.44,2.39,2.39,0,0,1-.28.89.82.82,0,0,1-.72.33.7.7,0,0,1-.47-.12.82.82,0,0,1-.38-.76A1,1,0,0,1,208.77,96.71Z"/><path class="cls-3" d="M217.1,90h0c0-.11-.14-.11-.28-.11s-.58.23-.85.67a9.85,9.85,0,0,0-.72,2.09,2.63,2.63,0,0,0,1.95-2.2,1,1,0,0,0-.1-.45m-2.52.77A3.1,3.1,0,0,1,217,89.44a1.39,1.39,0,0,1,.95.33.83.83,0,0,1,.39.78,2.06,2.06,0,0,1-.91,1.54,4.35,4.35,0,0,1-2.23.88,4.28,4.28,0,0,1-.06.44v.22a2.63,2.63,0,0,0,.1.66.87.87,0,0,0,.72.44,1.37,1.37,0,0,0,.9-.55,2.44,2.44,0,0,0,.47-.66c.1.11.2.22.34.22a5.4,5.4,0,0,1-.86,1.21,2.25,2.25,0,0,1-1.47.55,1.78,1.78,0,0,1-1.2-.43,2,2,0,0,1-.57-1.55A4.26,4.26,0,0,1,214.58,90.76Z"/><path class="cls-3" d="M219.05,93.41h.34a2,2,0,0,0,.43,1.32,1.27,1.27,0,0,0,.76.45.78.78,0,0,0,.48-.23.87.87,0,0,0,.19-.55,1.15,1.15,0,0,0-.19-.55,1.57,1.57,0,0,0-.38-.55c-.14-.23-.29-.44-.43-.66a3.13,3.13,0,0,1-.53-.78,1.71,1.71,0,0,1-.19-.88,1.62,1.62,0,0,1,.43-1.1,1.66,1.66,0,0,1,1.24-.44,1.33,1.33,0,0,1,.67.12,4.51,4.51,0,0,0,.47.21c.1,0,.19-.11.24-.11s.1-.1.1-.22h.38c-.1.67-.19,1.32-.29,2h-.33a2.33,2.33,0,0,0-.38-1.22,1,1,0,0,0-.67-.33c-.24,0-.38,0-.53.23a.58.58,0,0,0-.14.44,1.41,1.41,0,0,0,.1.43l.48.66a2.86,2.86,0,0,0,.61.78c.1.22.24.44.34.65a2,2,0,0,1,.14.78,1.64,1.64,0,0,1-1.81,1.65,1.48,1.48,0,0,1-.67-.11c-.28-.11-.43-.21-.48-.21s-.14.1-.23.1a2,2,0,0,0-.09.22h-.34c.1-.66.19-1.32.28-2.09"/><path class="cls-3" d="M227.68,90.76A3,3,0,0,1,230,89.44a1.47,1.47,0,0,1,1,.33,1.11,1.11,0,0,1,.34.78c0,.32,0,.55-.24.65a.62.62,0,0,1-.52.34,1.09,1.09,0,0,1-.48-.23.7.7,0,0,1-.19-.55v-.21s0-.11.14-.23l.05-.11h0v-.1c0-.12,0-.12-.09-.23h-.19c-.47,0-.85.44-1.28,1.43a5,5,0,0,0-.48,2.21,1.83,1.83,0,0,0,.19.66.71.71,0,0,0,.72.55,1.05,1.05,0,0,0,.71-.33,7,7,0,0,0,.72-.88.46.46,0,0,0,.33.22,8.94,8.94,0,0,1-.95,1.21,2.39,2.39,0,0,1-1.48.55,1.76,1.76,0,0,1-1.2-.43,2.06,2.06,0,0,1-.56-1.55,4.49,4.49,0,0,1,1.05-2.76"/><path class="cls-3" d="M233.53,94.73h0a.67.67,0,0,0,.58.45c.47,0,.95-.67,1.32-1.88a7.87,7.87,0,0,0,.53-2.65,1.61,1.61,0,0,0-.05-.54c-.1-.23-.29-.23-.52-.23-.57,0-1.1.56-1.48,1.88a9.79,9.79,0,0,0-.42,2.53,1.27,1.27,0,0,0,0,.44m3.05-5a1.84,1.84,0,0,1,.81,1.66,3.9,3.9,0,0,1-.95,2.64A3,3,0,0,1,234,95.5a2.17,2.17,0,0,1-1.33-.43,2,2,0,0,1-.62-1.55,4,4,0,0,1,1-2.65,3,3,0,0,1,2.43-1.43A2.12,2.12,0,0,1,236.58,89.77Z"/><path class="cls-3" d="M238,95.39c.33-1.32.71-2.75,1.1-4.19,0-.1,0-.22.09-.33s.05-.32.05-.43-.05-.23-.14-.23a.81.81,0,0,0-.53-.1v-.34c.48,0,.9-.11,1.19-.11a8.61,8.61,0,0,0,1.24-.22l-.72,2.32v.1s.14-.22.38-.66.52-.65.72-.88a1.73,1.73,0,0,1,.76-.66,1.92,1.92,0,0,1,.76-.22,1.33,1.33,0,0,1,.67.22.94.94,0,0,1,.28.78,11.16,11.16,0,0,1-.56,2.2c-.34,1.1-.53,1.65-.53,1.76s0,.11.1.11,0,.11.09.11.28-.22.48-.44a2.72,2.72,0,0,0,.38-.55c0,.11.14.11.23.11-.28.55-.52.88-.71,1.21a1.84,1.84,0,0,1-1.14.55.92.92,0,0,1-.57-.22.69.69,0,0,1-.29-.66,4,4,0,0,1,.14-.77c.1-.33.19-.66.29-1.1s.38-1.21.57-1.88v-.11c0-.11,0-.11,0-.11s0-.21-.1-.21-.14-.12-.23-.12c-.24,0-.53.23-.81.66a8.25,8.25,0,0,0-.76,1.21,12.27,12.27,0,0,0-.53,1.33c-.14.44-.29,1.1-.48,1.87H238"/><path class="cls-3" d="M243,97.7a1.1,1.1,0,0,1-.34-.76.57.57,0,0,1,.2-.44.78.78,0,0,1,.48-.23.55.55,0,0,1,.37.23.45.45,0,0,1,.19.44.46.46,0,0,1-.09.33c-.05.11-.1.11-.1.21s.05,0,.05.12h.19c.29,0,.53-.22.67-.78s.48-2,1-4.51c.14-.67.28-1.44.47-2.2h-.9a4.78,4.78,0,0,0,.14-.55h.91a6.49,6.49,0,0,1,.43-1.22,3.47,3.47,0,0,1,.9-1.32,1.8,1.8,0,0,1,1.33-.66,1.26,1.26,0,0,1,.91.33.81.81,0,0,1,.33.77.57.57,0,0,1-.14.44.84.84,0,0,1-.43.22.57.57,0,0,1-.43-.22.41.41,0,0,1-.19-.33.92.92,0,0,1,.1-.44c.09-.11.09-.11.09-.22l0-.11h-.14c-.24,0-.43.11-.62.44a6.46,6.46,0,0,0-.47,1.43,8.81,8.81,0,0,0-.24.89h1.09a4.09,4.09,0,0,0-.09.55h-1.1a41.29,41.29,0,0,1-1.43,6c-.52,1.32-1.28,1.87-2.19,1.87a1.17,1.17,0,0,1-.9-.23"/><path class="cls-3" d="M251.77,86.8h0a1.17,1.17,0,0,1,.23.66.69.69,0,0,1-.23.55.65.65,0,0,1-.58.33.64.64,0,0,1-.56-.33.57.57,0,0,1-.24-.55.91.91,0,0,1,.24-.66.82.82,0,0,1,1.14,0m-2.86,7.27a2.68,2.68,0,0,1,.1-.44c.24-.88.47-1.87.76-2.87v-.21c0-.23-.05-.34-.15-.34a3,3,0,0,0-.57-.1v-.34a3.85,3.85,0,0,0,1-.11c.47,0,.76-.1.95-.1a.91.91,0,0,0,.52-.12c-.34,1.21-.67,2.42-.95,3.63-.1.34-.15.56-.19.67,0,.33-.1.55-.1.66l.05.11s.09.11.14.11.29-.11.48-.33a6.47,6.47,0,0,0,.48-.77c0,.11.14.22.23.22a8,8,0,0,1-.9,1.21,1.64,1.64,0,0,1-1.1.55,1.09,1.09,0,0,1-.57-.22c-.19-.1-.28-.33-.28-.66A3.2,3.2,0,0,1,248.91,94.07Z"/><path class="cls-3" d="M255.82,90.21h0a.62.62,0,0,0-.43-.22c-.43,0-.86.56-1.34,1.65a6.34,6.34,0,0,0-.62,2.21,1.26,1.26,0,0,0,.15.55c.14.11.24.22.42.22.39,0,.86-.55,1.34-1.76a6.72,6.72,0,0,0,.53-2.21c0-.21-.05-.33-.05-.44m-2.76.77a3,3,0,0,1,2.14-1.54.8.8,0,0,1,.71.33,1.3,1.3,0,0,1,.24.55,2.87,2.87,0,0,1,.19-.66,5.28,5.28,0,0,0,1.23-.1c-.28,1-.51,2-.75,3a6.1,6.1,0,0,0-.24,1,3.93,3.93,0,0,0-.2.88c0,.11.06.11.06.22h.14a.19.19,0,0,0,.19-.11c.05,0,.14-.11.23-.22l.2-.22c.09-.11.14-.22.24-.33,0,.11.13.22.23.22a4.93,4.93,0,0,1-.95,1.11,1,1,0,0,1-.81.43.64.64,0,0,1-.57-.22.8.8,0,0,1-.24-.66s.05-.33.14-.77l0,.11a1.4,1.4,0,0,1-.19.33,4.8,4.8,0,0,1-.76.89,1.63,1.63,0,0,1-1,.32,1.48,1.48,0,0,1-.9-.32,2,2,0,0,1-.43-1.33A4.82,4.82,0,0,1,253.06,91Z"/><path class="cls-3" d="M258.15,95.39c.34-1.32.66-2.75,1-4.19a.67.67,0,0,0,.1-.33,1.63,1.63,0,0,0,0-.43c0-.12,0-.23-.09-.23s-.29-.1-.57-.1v-.34c.51,0,.9-.11,1.18-.11a6.79,6.79,0,0,0,1.24-.22l-.72,2.32c0,.1,0,.1.05.1a5.58,5.58,0,0,1,.39-.66,6.78,6.78,0,0,1,.71-.88,1.89,1.89,0,0,1,.72-.66,2.11,2.11,0,0,1,.81-.22,1.52,1.52,0,0,1,.66.22,1.13,1.13,0,0,1,.24.78,9,9,0,0,1-.53,2.2c-.33,1.1-.53,1.65-.53,1.76s0,.11.06.11.1.11.14.11.24-.22.47-.44a2.09,2.09,0,0,0,.34-.55.32.32,0,0,0,.28.11,13.62,13.62,0,0,1-.76,1.21,1.63,1.63,0,0,1-1.14.55,1.23,1.23,0,0,1-.57-.22.8.8,0,0,1-.24-.66c0-.11,0-.44.1-.77s.19-.66.28-1.1.39-1.21.57-1.88c0-.11.05-.11.05-.11v-.11c0-.1-.05-.21-.09-.21s-.14-.12-.19-.12c-.24,0-.53.23-.82.66a6.85,6.85,0,0,0-.76,1.21,9.21,9.21,0,0,0-.53,1.33c-.13.44-.28,1.1-.47,1.87h-1.47"/><path class="cls-3" d="M265.62,89.56h3.82v.21c-1.15,1.43-2.29,2.87-3.44,4.19a2.65,2.65,0,0,1,1.19,1.22c.29.54.53.76.72.76h.14c.05,0,.1-.11.1-.11s0-.11-.14-.33a.7.7,0,0,1-.1-.32.46.46,0,0,1,.19-.45.82.82,0,0,1,.42-.22.83.83,0,0,1,.44.22.48.48,0,0,1,.19.45,1.1,1.1,0,0,1-.38.88,1.41,1.41,0,0,1-.91.33,2.85,2.85,0,0,1-1.48-.56,2.79,2.79,0,0,0-1-.55.81.81,0,0,0-.43.22,2.74,2.74,0,0,1-.33.22c-.05,0-.1,0-.14-.1s-.05,0-.05-.12v-.11h.05c1.18-1.43,2.38-3,3.61-4.52h-1.86a.49.49,0,0,0-.51.23,1.07,1.07,0,0,0-.25.54.39.39,0,0,1-.33-.1c.14-.67.33-1.33.52-2"/><path class="cls-3" d="M273.29,90.21h0a.6.6,0,0,0-.43-.22c-.42,0-.9.56-1.34,1.65a5.52,5.52,0,0,0-.61,2.21,1.25,1.25,0,0,0,.14.55.48.48,0,0,0,.38.22c.38,0,.86-.55,1.38-1.76a6.72,6.72,0,0,0,.53-2.21,1.06,1.06,0,0,0,0-.44m-2.81.77a3,3,0,0,1,2.24-1.54.76.76,0,0,1,.66.33,1.18,1.18,0,0,1,.24.55,3.53,3.53,0,0,1,.2-.66,5.57,5.57,0,0,0,1.28-.1c-.29,1-.57,2-.81,3-.1.44-.19.77-.24,1a5.19,5.19,0,0,0-.14.88.43.43,0,0,0,0,.22h.1a.18.18,0,0,0,.19-.11c.09,0,.14-.11.24-.22s.1-.11.19-.22a1.38,1.38,0,0,0,.24-.33c0,.11.14.22.24.22a7.21,7.21,0,0,1-.91,1.11,1.21,1.21,0,0,1-.9.43.53.53,0,0,1-.53-.22.71.71,0,0,1-.28-.66s.05-.33.14-.77c.05,0,0,0,0,.11a1.4,1.4,0,0,1-.19.33,3.3,3.3,0,0,1-.77.89,1.6,1.6,0,0,1-.95.32,1.51,1.51,0,0,1-.91-.32,2,2,0,0,1-.43-1.33A4.88,4.88,0,0,1,270.48,91Z"/><path class="cls-3" d="M279.76,87.9h0a.82.82,0,0,1-.09.33,6.59,6.59,0,0,1-.43.88c-.33.66-.67,1.44-.95,2.09-.14.44-.33.89-.57,1.55-.14,0-.24,0-.33-.11.09-.45.19-1.1.33-2,.14-1.09.24-1.87.28-2.42v-.44a5.46,5.46,0,0,1,.19-.66.87.87,0,0,1,.77-.56,1.23,1.23,0,0,1,.61.23,1.26,1.26,0,0,1,.24.77.76.76,0,0,1-.05.33m-2,6.06a.81.81,0,0,1,.24.66,1,1,0,0,1-.29.66,1.22,1.22,0,0,1-.62.22,1.29,1.29,0,0,1-.62-.22,1,1,0,0,1-.28-.66.7.7,0,0,1,.28-.66.74.74,0,0,1,.62-.33A.89.89,0,0,1,277.72,94Z"/></svg>