<svg id="Capa_1" data-name="Capa 1" xmlns="http://www.w3.org/2000/svg" viewBox="0 0 308.28 125"><defs><style>.cls-1{fill:#003661;}.cls-2{fill:#fff;}.cls-3{fill:#72b65a;}.cls-4{fill:#70d14d;}.cls-5{fill:#77b85c;}</style></defs><path class="cls-1" d="M284.93,44.33c-5.61-4.9-12.21-6.19-19.38-4.9a29.57,29.57,0,0,0-17.34,10.1,30.63,30.63,0,0,0-4.48,6.74,5.85,5.85,0,0,0-.38-.49A5.38,5.38,0,0,0,239.2,54h-9.47c.38-1,.77-2,1.16-3.05.22-.57.44-1.14.65-1.7a5.5,5.5,0,0,0,.22-.78l0-.13a3.35,3.35,0,0,0-2.68-4.1l.17-.49a3.34,3.34,0,0,0-3.12-4.54h-2.92c-1.75,0-3.47,0-5.19,0a4,4,0,0,0-3.55,2.54c-.33.85-.64,1.67-.92,2.45h-1.15a3.91,3.91,0,0,0-3.76,2.67c-.22.63-.46,1.25-.7,1.87l-.32.82-1.19,3.14a3.3,3.3,0,0,0-.2,1.55,7.42,7.42,0,0,0-2-.26h-5.9c-2.3,0-4.6,0-6.93,0a4,4,0,0,0-3.18,1.41A5.32,5.32,0,0,0,184.68,54H171.14a6.54,6.54,0,0,0-4.45,1.68,5.34,5.34,0,0,0-4-1.68h-13a6.59,6.59,0,0,0-4.7,1.67A5.26,5.26,0,0,0,141.12,54H125.77a3.94,3.94,0,0,0-3.44,2.07,6.75,6.75,0,0,0-5-2.08H96.05a6.48,6.48,0,0,0-4.55,1.7A5.32,5.32,0,0,0,87.42,54H72.9a4,4,0,0,0-3.07,1.36A5.11,5.11,0,0,0,66.39,54H51.17a4.3,4.3,0,0,0-2.17.56l.17-.6a3.45,3.45,0,0,0,.11-1.53,3.38,3.38,0,0,0-2-2.53h1.51l.3,0c.27,0,.55,0,.81,0a4.54,4.54,0,0,0,2.72-.81A4.87,4.87,0,0,0,54.46,46c0-.1,0-.19,0-.27.53-1.75,1-3.51,1.57-5.28l.62-2.08a3.43,3.43,0,0,0,.11-1.56A3.35,3.35,0,0,0,53.67,34H53.5L53,34H21a3.88,3.88,0,0,0-3.88,3c-.45,1.56-.92,3.13-1.38,4.69l-.29,1c-.21.69-.91,3-.91,3a3.33,3.33,0,0,0,.53,3,3.38,3.38,0,0,0,1.15,1,4,4,0,0,0-3.75,3Q10,60.83,7.59,69.08L6.37,73.17,4.85,78.31a3.26,3.26,0,0,0-.1,1.61A3.35,3.35,0,0,0,8,82.65h6.43c2.1,0,4.2,0,6.3,0h0a4,4,0,0,0,4-3q1.18-4,2.39-8.1c.64-2.17,1.29-4.34,1.93-6.51H42.83a4,4,0,0,0,3.43-1.78l.12.19a4,4,0,0,0,.26.32,5.71,5.71,0,0,0-3.18,3.52L39.52,78.12a3.37,3.37,0,0,0,1.32,4,3.41,3.41,0,0,0,1.45.51h.08a3.54,3.54,0,0,0,.57,0H46.7q6.91,0,13.82,0h0a4.07,4.07,0,0,0,2.05-.55,3.36,3.36,0,0,0,1.81.53h7.35a4.06,4.06,0,0,0,4-2.82q2.13-5.93,4.3-11.84h6.22c-.71,2-3.12,8.59-3.12,8.59l-.4,1.1-.15.42a3.43,3.43,0,0,0-.15,1.9,3.36,3.36,0,0,0,3.28,2.64h3.83c1.19,0,2.36,0,3.53,0h.07a4.36,4.36,0,0,0,1.47-.25,3.4,3.4,0,0,0,1.23.23h2.91c1.61,0,3.21,0,4.81,0a3.42,3.42,0,0,0,1.17-.21,3.45,3.45,0,0,0,1.24.23h7.61a4,4,0,0,0,2-.55,3.35,3.35,0,0,0,1.54.51h.11a4.79,4.79,0,0,0,.51,0h5.94c3.84,0,7.68,0,11.52,0h0a4.12,4.12,0,0,0,2.1-.58,3.31,3.31,0,0,0,1.33.5,3.84,3.84,0,0,0,.68.06l4.15,0,13.31.07h0a3.93,3.93,0,0,0,2.16-.61,3.27,3.27,0,0,0,1.43.47h.1a4.34,4.34,0,0,0,.6,0H178.9a3.93,3.93,0,0,0,2.08-.56,3.32,3.32,0,0,0,1.85.55H187c1,0,2.06,0,3.08,0h.07a4.61,4.61,0,0,0,1.52-.25,3.47,3.47,0,0,0,1.25.23h4.27c1,0,2,0,2.94,0h.1a4.42,4.42,0,0,0,2.26-.59,3.35,3.35,0,0,0,1.87.57h8a3.53,3.53,0,0,0,1.85-.55,3.36,3.36,0,0,0,1.83.55h8.06a3.35,3.35,0,0,0,3.09-2.07l.08-.18c.08-.19.15-.38.22-.56l2.38-6.54h0c1,8.64,4.75,15.76,11.74,20.93,7.95,5.88,16.95,7.21,26.44,5.33a42.16,42.16,0,0,0,11-3.74l5.36-15a30.88,30.88,0,0,1-16.81,9.33c-7,1.37-13.58.4-19.41-3.91a21.17,21.17,0,0,1-8.52-14.68h-9.16L231.86,68H239a3.83,3.83,0,0,0,2-.6c0,.18,0,.35,0,.52,0,.67.05,1.33.09,2,0,.33.07.66.11,1A20.06,20.06,0,0,0,249.26,85C254.78,89,261,90,267.6,88.66a29.57,29.57,0,0,0,18.08-11.38c4.73-6.11,7-13,5.81-20.8A19.54,19.54,0,0,0,284.93,44.33Zm17.67,8.79a28.11,28.11,0,0,0-9.46-17.53c-8.1-7.08-17.62-8.94-28-7.07A41.27,41.27,0,0,0,254,32.21l-5.11,14.6A30.74,30.74,0,0,1,265.5,38c7.59-1.37,14.58,0,20.52,5.19A20.74,20.74,0,0,1,293,56a28.5,28.5,0,0,1,.3,3.65H303A38.84,38.84,0,0,0,302.6,53.12Z"/><path class="cls-2" d="M243.54,67.53A25.26,25.26,0,0,1,250,51a26.59,26.59,0,0,1,15.6-9.09c6.44-1.16,12.38,0,17.42,4.41A17.52,17.52,0,0,1,289,57.25c1.05,7-1,13.2-5.22,18.71a26.63,26.63,0,0,1-16.26,10.23c-5.93,1.17-11.53.34-16.49-3.32a18,18,0,0,1-7.27-12.68c0-.29-.08-.59-.1-.88C243.58,68.72,243.56,68.13,243.54,67.53Z"/><polygon class="cls-3" points="283.12 58.9 273.15 58.9 274.78 48.2 263 48.2 261.36 58.9 250.9 58.9 248.93 69.72 259.71 69.72 258.07 80.42 269.88 80.42 271.51 69.72 281.37 69.72 283.12 58.9"/><path class="cls-1" d="M117.3,57.37H96.05a3.06,3.06,0,0,0-3.13,2.2L86.3,77.72l-.56,1.58c2.53,0,5,0,7.4,0a.7.7,0,0,0,.79-.56c2-5.45,3.95-10.89,5.93-16.34.31-.84.38-.89,1.28-.89s1.08.25.76,1.12q-2.22,6.15-4.45,12.29L95.87,79.3c2.61,0,5.14,0,7.68,0,.16,0,.39-.27.46-.46q2.25-6.13,4.48-12.28l1.59-4.38a1.31,1.31,0,0,1,1.74-.59c.64.27.33.75.18,1.15-1.43,4-2.87,7.94-4.31,11.91-.55,1.53-1.11,3.06-1.69,4.67,2.61,0,5.11,0,7.61,0,.37,0,.45-.21.54-.48q3.12-8.55,6.22-17.11A3.06,3.06,0,0,0,117.3,57.37Zm35.33,13.82c-.34.9-.67,1.8-1,2.71-.67,1.83-.39,1.62-2.29,1.63-1.13,0-1.36-.32-1-1.36,1.33-3.65,2.64-7.32,4-11,.69-1.87.24-1.69,2.49-1.69.91,0,1.16.37.85,1.23L155,64.68c2.54,0,5,0,7.42,0a.66.66,0,0,0,.47-.38c.59-1.56,1.18-3.12,1.7-4.71a1.76,1.76,0,0,0-1.92-2.22h-13a3.12,3.12,0,0,0-3.38,2.36Q142.92,68.86,139.6,78c-.15.42-.28.84-.43,1.27l.24,0,17.47.08c.37,0,.51-.15.62-.47.86-2.38,1.74-4.76,2.6-7.14.1-.25.18-.51.28-.81h-7.66A2.18,2.18,0,0,0,152.63,71.19Zm-109.06-10c.57-2,1.17-3.95,1.76-5.93L46,53l-.54,0q-14.49,0-29,0c-.46,0-.63.15-.76.59q-3,10.31-6.11,20.61c-.5,1.71-1,3.42-1.54,5.19h.65c4,0,8.07,0,12.1,0a.73.73,0,0,0,.84-.63c1.6-5.46,3.23-10.92,4.83-16.38a.78.78,0,0,1,.9-.65c5.16,0,10.31,0,15.47,0C43.24,61.69,43.45,61.59,43.57,61.16Zm164.1-.51a3.15,3.15,0,0,0-3.38-3.28c-4.27,0-8.54,0-12.81,0a.74.74,0,0,0-.83.59Q187.33,67,184,76.08c-.38,1-.76,2.09-1.16,3.22h.66c2.23,0,4.45,0,6.67,0a.77.77,0,0,0,.88-.61q2.93-8.13,5.89-16.23c.33-.91.41-1,1.36-1s1,.27.73,1.07l-5,13.68c-.36,1-.71,2-1.09,3h.71c2.19,0,4.37,0,6.56,0a.84.84,0,0,0,1-.65c2.06-5.65,4.16-11.28,6.23-16.92A3.75,3.75,0,0,0,207.67,60.65Zm15-6.76c1,0,2,0,3.06,0a.58.58,0,0,0,.68-.45c.67-1.81,1.37-3.6,2.06-5.4.05-.14.07-.29.13-.51h-4.19l1.8-5c-2.78,0-5.43,0-8.08,0-.16,0-.39.23-.46.4-.52,1.35-1,2.72-1.5,4.09-.13.37-.29.53-.71.51-1,0-2,0-2.95,0a.59.59,0,0,0-.64.45c-.33.93-.69,1.84-1,2.76l-1.19,3.14h3.92c-3,8.48-6.06,16.9-9.11,25.38,2.73,0,5.36,0,8,0,.14,0,.34-.22.4-.38.4-1,.76-2,1.14-3q4-10.71,7.92-21.44A.66.66,0,0,1,222.62,53.89ZM174.92,71a.64.64,0,0,0-.47.38c-.33.8-.59,1.62-.9,2.43-.75,2-.34,1.76-2.56,1.77-.85,0-1.11-.41-.82-1.22.54-1.5,1.1-3,1.62-4.49a.72.72,0,0,1,.81-.56q4,0,8,0a3,3,0,0,0,3.18-2.19c.89-2.42,1.77-4.83,2.65-7.25a1.76,1.76,0,0,0-1.73-2.46H171.15A3.16,3.16,0,0,0,168,59.6q-3.47,9.43-6.94,18.86c-.1.25-.18.51-.28.8a3.67,3.67,0,0,0,.39,0c5.91,0,11.81,0,17.71,0,.36,0,.47-.15.57-.44.44-1.22.89-2.43,1.33-3.65l1.56-4.29C179.8,70.93,177.36,70.93,174.92,71Zm-1.76-5,1.38-3.81a.93.93,0,0,1,.93-.68h1.83c.47,0,.66.27.52.69-.46,1.31-.91,2.63-1.45,3.91-.12.28-.58.47-.92.59a2.53,2.53,0,0,1-.87,0h0c-.32,0-.63,0-1,0S173,66.43,173.16,66ZM66.35,57.36c-.57,0-1.15,0-1.72,0H51.18c-.21,0-.55.08-.6.2-.5,1.28-.95,2.57-1.45,4h.71c2.92,0,5.83,0,8.74,0,.82,0,1,.25.71,1-.42,1.18-.88,2.36-1.27,3.55a.71.71,0,0,1-.8.56c-2.68,0-5.35,0-8,0a2.38,2.38,0,0,0-2.58,1.8c-.82,2.23-1.63,4.47-2.44,6.7-.49,1.36-1,2.72-1.5,4.13l.28,0c5.86,0,11.72,0,17.59,0,.43,0,.51-.23.62-.54,2.29-6.31,4.55-12.63,6.91-18.92A1.85,1.85,0,0,0,66.35,57.36Zm-10,13.28c-.52,1.46-1,2.93-1.61,4.36a1.28,1.28,0,0,1-.77.51,2.86,2.86,0,0,1-.88,0h0c-.31,0-.63,0-.94,0s-.65-.28-.48-.73c.5-1.4,1-2.81,1.54-4.19a1,1,0,0,1,.68-.52,20.19,20.19,0,0,1,2.06,0C56.35,70.05,56.46,70.3,56.34,70.64Zm84.78-13.28c-5.11,0-10.23,0-15.34,0a.59.59,0,0,0-.46.23c-.48,1.26-.93,2.53-1.43,3.91h.77c2.89,0,5.78,0,8.68,0,.83,0,1,.23.71,1-.41,1.15-.84,2.28-1.22,3.44a.83.83,0,0,1-1,.68c-2.65,0-5.31,0-8,0a2.36,2.36,0,0,0-2.53,1.78q-1.87,5.13-3.73,10.24c-.07.19-.13.39-.2.62l.37,0c5.82,0,11.64,0,17.47,0,.42,0,.51-.21.62-.53,2.29-6.31,4.57-12.63,6.91-18.92A1.82,1.82,0,0,0,141.12,57.36Zm-10,13.35c-.52,1.42-1,2.85-1.57,4.25a1.08,1.08,0,0,1-.73.54,11,11,0,0,1-1.82,0c-.51,0-.69-.29-.51-.79.48-1.37,1-2.73,1.48-4.09a.81.81,0,0,1,.84-.6h1.83C131.06,70.05,131.26,70.23,131.08,70.71ZM240.85,58a2.07,2.07,0,0,0-1.65-.65q-7.2,0-14.39,0a.75.75,0,0,0-.85.58q-3.39,9.29-6.83,18.57c-.33.91-.67,1.82-1,2.78h8.06l.25-.61q3-8.1,5.9-16.21c.33-.91.4-1,1.36-.94.8,0,1,.27.73,1s-.49,1.38-.75,2.12c2.51,0,4.93,0,7.34,0a.65.65,0,0,0,.48-.36c.6-1.56,1.15-3.13,1.73-4.7A1.47,1.47,0,0,0,240.85,58ZM87.68,64.31c.59-1.58,1.19-3.16,1.7-4.76a1.79,1.79,0,0,0-.13-1.22,1.85,1.85,0,0,0-1.82-1q-7.26,0-14.52,0a.68.68,0,0,0-.74.55q-3.23,8.9-6.46,17.78c-.43,1.17-.85,2.35-1.31,3.62,2.53,0,4.93,0,7.33,0a.77.77,0,0,0,.88-.6q2.92-8.11,5.89-16.22c.35-1,.44-1,1.46-1,.72,0,.91.3.67,1s-.51,1.39-.78,2.15c2.53,0,5,0,7.44,0A.55.55,0,0,0,87.68,64.31Zm-69-17.71,30.16,0c.64,0,1.45.19,1.88-.12s.44-1.13.62-1.73l2.19-7.4-.49,0q-16,0-32,0c-.44,0-.57.19-.68.55q-.82,2.85-1.67,5.7l-.91,3.06Z"/><path class="cls-1" d="M117.3,57.37H96.05a3.06,3.06,0,0,0-3.13,2.2L86.3,77.72l-.56,1.58c2.53,0,5,0,7.4,0a.7.7,0,0,0,.79-.56c2-5.45,3.95-10.89,5.93-16.34.31-.84.38-.89,1.28-.89s1.08.25.76,1.12q-2.22,6.15-4.45,12.29L95.87,79.3c2.61,0,5.14,0,7.68,0,.16,0,.39-.27.46-.46q2.25-6.13,4.48-12.28l1.59-4.38a1.31,1.31,0,0,1,1.74-.59c.64.27.33.75.18,1.15-1.43,4-2.87,7.94-4.31,11.91-.55,1.53-1.11,3.06-1.69,4.67,2.61,0,5.11,0,7.61,0,.37,0,.45-.21.54-.48q3.12-8.55,6.22-17.11A3.06,3.06,0,0,0,117.3,57.37Zm35.33,13.82c-.34.9-.67,1.8-1,2.71-.67,1.83-.39,1.62-2.29,1.63-1.13,0-1.36-.32-1-1.36,1.33-3.65,2.64-7.32,4-11,.69-1.87.24-1.69,2.49-1.69.91,0,1.16.37.85,1.23L155,64.68c2.54,0,5,0,7.42,0a.66.66,0,0,0,.47-.38c.59-1.56,1.18-3.12,1.7-4.71a1.76,1.76,0,0,0-1.92-2.22h-13a3.12,3.12,0,0,0-3.38,2.36Q142.92,68.86,139.6,78c-.15.42-.28.84-.43,1.27l.24,0,17.47.08c.37,0,.51-.15.62-.47.86-2.38,1.74-4.76,2.6-7.14.1-.25.18-.51.28-.81h-7.66A2.18,2.18,0,0,0,152.63,71.19Zm-109.06-10c.57-2,1.17-3.95,1.76-5.93L46,53l-.54,0q-14.49,0-29,0c-.46,0-.63.15-.76.59q-3,10.31-6.11,20.61c-.5,1.71-1,3.42-1.54,5.19h.65c4,0,8.07,0,12.1,0a.73.73,0,0,0,.84-.63c1.6-5.46,3.23-10.92,4.83-16.38a.78.78,0,0,1,.9-.65c5.16,0,10.31,0,15.47,0C43.24,61.69,43.45,61.59,43.57,61.16Zm164.1-.51a3.15,3.15,0,0,0-3.38-3.28c-4.27,0-8.54,0-12.81,0a.74.74,0,0,0-.83.59Q187.33,67,184,76.08c-.38,1-.76,2.09-1.16,3.22h.66c2.23,0,4.45,0,6.67,0a.77.77,0,0,0,.88-.61q2.93-8.13,5.89-16.23c.33-.91.41-1,1.36-1s1,.27.73,1.07l-5,13.68c-.36,1-.71,2-1.09,3h.71c2.19,0,4.37,0,6.56,0a.84.84,0,0,0,1-.65c2.06-5.65,4.16-11.28,6.23-16.92A3.75,3.75,0,0,0,207.67,60.65Zm15-6.76c1,0,2,0,3.06,0a.58.58,0,0,0,.68-.45c.67-1.81,1.37-3.6,2.06-5.4.05-.14.07-.29.13-.51h-4.19l1.8-5c-2.78,0-5.43,0-8.08,0-.16,0-.39.23-.46.4-.52,1.35-1,2.72-1.5,4.09-.13.37-.29.53-.71.51-1,0-2,0-2.95,0a.59.59,0,0,0-.64.45c-.33.93-.69,1.84-1,2.76l-1.19,3.14h3.92c-3,8.48-6.06,16.9-9.11,25.38,2.73,0,5.36,0,8,0,.14,0,.34-.22.4-.38.4-1,.76-2,1.14-3q4-10.71,7.92-21.44A.66.66,0,0,1,222.62,53.89ZM174.92,71a.64.64,0,0,0-.47.38c-.33.8-.59,1.62-.9,2.43-.75,2-.34,1.76-2.56,1.77-.85,0-1.11-.41-.82-1.22.54-1.5,1.1-3,1.62-4.49a.72.72,0,0,1,.81-.56q4,0,8,0a3,3,0,0,0,3.18-2.19c.89-2.42,1.77-4.83,2.65-7.25a1.76,1.76,0,0,0-1.73-2.46H171.15A3.16,3.16,0,0,0,168,59.6q-3.47,9.43-6.94,18.86c-.1.25-.18.51-.28.8a3.67,3.67,0,0,0,.39,0c5.91,0,11.81,0,17.71,0,.36,0,.47-.15.57-.44.44-1.22.89-2.43,1.33-3.65l1.56-4.29C179.8,70.93,177.36,70.93,174.92,71Zm-1.76-5,1.38-3.81a.93.93,0,0,1,.93-.68h1.83c.47,0,.66.27.52.69-.46,1.31-.91,2.63-1.45,3.91-.12.28-.58.47-.92.59a2.53,2.53,0,0,1-.87,0h0c-.32,0-.63,0-1,0S173,66.43,173.16,66ZM66.35,57.36c-.57,0-1.15,0-1.72,0H51.18c-.21,0-.55.08-.6.2-.5,1.28-.95,2.57-1.45,4h.71c2.92,0,5.83,0,8.74,0,.82,0,1,.25.71,1-.42,1.18-.88,2.36-1.27,3.55a.71.71,0,0,1-.8.56c-2.68,0-5.35,0-8,0a2.38,2.38,0,0,0-2.58,1.8c-.82,2.23-1.63,4.47-2.44,6.7-.49,1.36-1,2.72-1.5,4.13l.28,0c5.86,0,11.72,0,17.59,0,.43,0,.51-.23.62-.54,2.29-6.31,4.55-12.63,6.91-18.92A1.85,1.85,0,0,0,66.35,57.36Zm-10,13.28c-.52,1.46-1,2.93-1.61,4.36a1.28,1.28,0,0,1-.77.51,2.86,2.86,0,0,1-.88,0h0c-.31,0-.63,0-.94,0s-.65-.28-.48-.73c.5-1.4,1-2.81,1.54-4.19a1,1,0,0,1,.68-.52,20.19,20.19,0,0,1,2.06,0C56.35,70.05,56.46,70.3,56.34,70.64Zm84.78-13.28c-5.11,0-10.23,0-15.34,0a.59.59,0,0,0-.46.23c-.48,1.26-.93,2.53-1.43,3.91h.77c2.89,0,5.78,0,8.68,0,.83,0,1,.23.71,1-.41,1.15-.84,2.28-1.22,3.44a.83.83,0,0,1-1,.68c-2.65,0-5.31,0-8,0a2.36,2.36,0,0,0-2.53,1.78q-1.87,5.13-3.73,10.24c-.07.19-.13.39-.2.62l.37,0c5.82,0,11.64,0,17.47,0,.42,0,.51-.21.62-.53,2.29-6.31,4.57-12.63,6.91-18.92A1.82,1.82,0,0,0,141.12,57.36Zm-10,13.35c-.52,1.42-1,2.85-1.57,4.25a1.08,1.08,0,0,1-.73.54,11,11,0,0,1-1.82,0c-.51,0-.69-.29-.51-.79.48-1.37,1-2.73,1.48-4.09a.81.81,0,0,1,.84-.6h1.83C131.06,70.05,131.26,70.23,131.08,70.71ZM240.85,58a2.07,2.07,0,0,0-1.65-.65q-7.2,0-14.39,0a.75.75,0,0,0-.85.58q-3.39,9.29-6.83,18.57c-.33.91-.67,1.82-1,2.78h8.06l.25-.61q3-8.1,5.9-16.21c.33-.91.4-1,1.36-.94.8,0,1,.27.73,1s-.49,1.38-.75,2.12c2.51,0,4.93,0,7.34,0a.65.65,0,0,0,.48-.36c.6-1.56,1.15-3.13,1.73-4.7A1.47,1.47,0,0,0,240.85,58ZM87.68,64.31c.59-1.58,1.19-3.16,1.7-4.76a1.79,1.79,0,0,0-.13-1.22,1.85,1.85,0,0,0-1.82-1q-7.26,0-14.52,0a.68.68,0,0,0-.74.55q-3.23,8.9-6.46,17.78c-.43,1.17-.85,2.35-1.31,3.62,2.53,0,4.93,0,7.33,0a.77.77,0,0,0,.88-.6q2.92-8.11,5.89-16.22c.35-1,.44-1,1.46-1,.72,0,.91.3.67,1s-.51,1.39-.78,2.15c2.53,0,5,0,7.44,0A.55.55,0,0,0,87.68,64.31Zm-69-17.71,30.16,0c.64,0,1.45.19,1.88-.12s.44-1.13.62-1.73l2.19-7.4-.49,0q-16,0-32,0c-.44,0-.57.19-.68.55q-.82,2.85-1.67,5.7l-.91,3.06Z"/><path class="cls-2" d="M156.88,80.64l-13.33-.07-4.14,0-.34,0-1.57-.24.61-1.82c.1-.31.2-.6.31-.9l6.65-18.26a4.35,4.35,0,0,1,4.56-3.19h13a3,3,0,0,1,3,1.78,3,3,0,0,1,.13,2.08c-.52,1.6-1.11,3.17-1.71,4.77a1.88,1.88,0,0,1-1.64,1.18c-1.5,0-3,0-4.53,0h-4.68l1.13-3.17h-.52l0,.13c-.07.21-.16.45-.27.75-.94,2.54-1.88,5.14-2.79,7.65l-1.08,3h.51l.29-.81c.33-.91.67-1.81,1-2.72l.09-.23.36-.81h10.23l-.66,1.94c-.06.19-.12.37-.19.55l-.77,2.11-1.83,5a1.8,1.8,0,0,1-1.79,1.3Zm-136.1-.07H6.36l2-6.8,1.21-4.09q2.46-8.25,4.9-16.52a1.9,1.9,0,0,1,2-1.49l22.65.05h6.34a3.17,3.17,0,0,1,.42,0h.19l1.56.1L47,54.1c-.14.5-.29,1-.43,1.49L46,57.41c-.41,1.36-.82,2.73-1.21,4.1a1.86,1.86,0,0,1-2,1.43H27.59c-.78,2.67-1.57,5.35-2.36,8L22.83,79a1.93,1.93,0,0,1-2,1.53Zm179.43,0c-1,0-2,0-3,0h-6.06l.08-.23a2.21,2.21,0,0,1-1.06.25c-1.08,0-2.11,0-3.15,0h-6l1-2.68c.27-.76.53-1.49.8-2.22l1.85-5q2.42-6.54,4.81-13.1a2,2,0,0,1,2-1.41h12.82a4.76,4.76,0,0,1,3.48,1.42,4.29,4.29,0,0,1,1.15,3.19,4.69,4.69,0,0,1-.32,1.45q-1.14,3.1-2.29,6.21c-1.32,3.57-2.64,7.13-3.94,10.71a2.08,2.08,0,0,1-2.1,1.48Zm-139.68,0q-6.91,0-13.84,0H43a1.73,1.73,0,0,1-.3,0l-1.71-.2L45.43,68a3.61,3.61,0,0,1,3.76-2.62h7.74c.25-.74.52-1.46.77-2.16.06-.15.12-.3.17-.45H47.33l1-2.59c.38-1.06.74-2.06,1.13-3.07a1.82,1.82,0,0,1,1.76-1H66.39a3.08,3.08,0,0,1,2.51,1.35,3,3,0,0,1,.34,2.83c-1.79,4.78-3.55,9.65-5.26,14.37-.55,1.52-1.09,3-1.64,4.54a1.83,1.83,0,0,1-1.8,1.37Zm32.6,0H84l1.16-3.26,1-2.7q2.81-7.73,5.63-15.45a4.34,4.34,0,0,1,4.31-3H117.3a4.31,4.31,0,0,1,4.25,6q-2,5.54-4,11.07l-2.2,6a1.72,1.72,0,0,1-1.72,1.3h-9.4l.08-.22a1.47,1.47,0,0,1-.73.2c-1.59,0-3.18,0-4.79,0H94.08l.07-.2a2.17,2.17,0,0,1-1,.21Zm42.15,0H117.82l-.32,0-1.71-.13.52-1.7c0-.17.1-.32.16-.48q1.86-5.11,3.73-10.24a3.56,3.56,0,0,1,3.7-2.6H128c1.22,0,2.43,0,3.65,0,.25-.73.51-1.45.77-2.15,0-.15.11-.31.17-.47H122.1l.93-2.56c.38-1.06.74-2.05,1.12-3.05a1.78,1.78,0,0,1,1.63-1h15.34a3.18,3.18,0,0,1,2.56,1.35A3,3,0,0,1,144,60.3c-1.85,5-3.68,10-5.46,14.94l-1.44,4a1.81,1.81,0,0,1-1.8,1.35Zm-63.56,0h-9.1l1-2.84c.31-.84.6-1.65.89-2.46l1.58-4.35Q68.55,64.2,71,57.48A1.88,1.88,0,0,1,72.9,56.1H87.43a3,3,0,0,1,2.94,1.66,3,3,0,0,1,.21,2.16c-.48,1.49-1,3-1.56,4.39l-.17.43A1.79,1.79,0,0,1,87.3,65.9H78.59l-.06.18c-1.59,4.35-3.17,8.69-4.74,13a2,2,0,0,1-2,1.42Zm107.17,0H161.18l-.37,0-1.73-.16.61-1.79c.07-.2.13-.38.2-.56l.74-2,6.21-16.86a4.36,4.36,0,0,1,4.3-3.05l6.67,0,6.86,0a3,3,0,0,1,2.91,4.13c-.88,2.43-1.76,4.85-2.66,7.26a4.69,4.69,0,0,1-1.48,2.17h.7l-2.53,6.94c-.32.89-.65,1.78-1,2.67a1.75,1.75,0,0,1-1.75,1.27Zm-8-6.3,31.76,6.29,9.1-25.38h-3.95l1.84-4.84.31-.81q.38-.95.72-1.92a1.81,1.81,0,0,1,1.79-1.28h2.62c.42-1.2.88-2.43,1.4-3.79a1.87,1.87,0,0,1,1.62-1.2c1.71,0,3.43,0,5.18,0h4.69l-1.79,5h4l-.39,1.56,0,.18a4.44,4.44,0,0,1-.13.48l-.66,1.7c-.47,1.22-.94,2.45-1.39,3.68a1.81,1.81,0,0,1-1.81,1.28h-1.61l-1.19,0c-2.15,5.85-4.3,11.65-6.45,17.46L214.88,77c-.3.8-.6,1.61-.91,2.41a1.8,1.8,0,0,1-1.56,1.17c-1.75,0-3.49,0-5.27,0Zm11.7,0L216,76.07l1.41-3.83q2.72-7.36,5.42-14.74a2,2,0,0,1,2-1.4H239.2a3.3,3.3,0,0,1,2.58,1.06,2.73,2.73,0,0,1,.61,2.85c-.2.54-.4,1.08-.59,1.62-.38,1-.75,2.06-1.15,3.09A1.89,1.89,0,0,1,239,65.9H230.4L225.6,79.1c-.06.16-.13.31-.19.47l-.4,1ZM49.92,47.89l-.65,0-.46,0H16.08l.76-2.57c.21-.71.42-1.4.62-2.09l.3-1,1.38-4.71A1.82,1.82,0,0,1,21,36H53l.36,0,1.79.09-1.09,3.66c-.52,1.77-1,3.52-1.56,5.27,0,.14-.07.29-.1.45a2.89,2.89,0,0,1-1,1.94A2.51,2.51,0,0,1,49.92,47.89Z"/><path class="cls-1" d="M117.3,57.37H96.05a3.06,3.06,0,0,0-3.13,2.2L86.3,77.72l-.56,1.58c2.53,0,5,0,7.4,0a.7.7,0,0,0,.79-.56c2-5.45,3.95-10.89,5.93-16.34.31-.84.38-.89,1.28-.89s1.08.25.76,1.12q-2.22,6.15-4.45,12.29L95.87,79.3c2.61,0,5.14,0,7.68,0,.16,0,.39-.27.46-.46q2.25-6.13,4.48-12.28l1.59-4.38a1.31,1.31,0,0,1,1.74-.59c.64.27.33.75.18,1.15-1.43,4-2.87,7.94-4.31,11.91-.55,1.53-1.11,3.06-1.69,4.67,2.61,0,5.11,0,7.61,0,.37,0,.45-.21.54-.48q3.12-8.55,6.22-17.11A3.06,3.06,0,0,0,117.3,57.37Zm35.33,13.82c-.34.9-.67,1.8-1,2.71-.67,1.83-.39,1.62-2.29,1.63-1.13,0-1.36-.32-1-1.36,1.33-3.65,2.64-7.32,4-11,.69-1.87.24-1.69,2.49-1.69.91,0,1.16.37.85,1.23L155,64.68c2.54,0,5,0,7.42,0a.66.66,0,0,0,.47-.38c.59-1.56,1.18-3.12,1.7-4.71a1.76,1.76,0,0,0-1.92-2.22h-13a3.12,3.12,0,0,0-3.38,2.36Q142.92,68.86,139.6,78c-.15.42-.28.84-.43,1.27l.24,0,17.47.08c.37,0,.51-.15.62-.47.86-2.38,1.74-4.76,2.6-7.14.1-.25.18-.51.28-.81h-7.66A2.18,2.18,0,0,0,152.63,71.19Zm-109.06-10c.57-2,1.17-3.95,1.76-5.93L46,53l-.54,0q-14.49,0-29,0c-.46,0-.63.15-.76.59q-3,10.31-6.11,20.61c-.5,1.71-1,3.42-1.54,5.19h.65c4,0,8.07,0,12.1,0a.73.73,0,0,0,.84-.63c1.6-5.46,3.23-10.92,4.83-16.38a.78.78,0,0,1,.9-.65c5.16,0,10.31,0,15.47,0C43.24,61.69,43.45,61.59,43.57,61.16Zm164.1-.51a3.15,3.15,0,0,0-3.38-3.28c-4.27,0-8.54,0-12.81,0a.74.74,0,0,0-.83.59Q187.33,67,184,76.08c-.38,1-.76,2.09-1.16,3.22h.66c2.23,0,4.45,0,6.67,0a.77.77,0,0,0,.88-.61q2.93-8.13,5.89-16.23c.33-.91.41-1,1.36-1s1,.27.73,1.07l-5,13.68c-.36,1-.71,2-1.09,3h.71c2.19,0,4.37,0,6.56,0a.84.84,0,0,0,1-.65c2.06-5.65,4.16-11.28,6.23-16.92A3.75,3.75,0,0,0,207.67,60.65Zm15-6.76c1,0,2,0,3.06,0a.58.58,0,0,0,.68-.45c.67-1.81,1.37-3.6,2.06-5.4.05-.14.07-.29.13-.51h-4.19l1.8-5c-2.78,0-5.43,0-8.08,0-.16,0-.39.23-.46.4-.52,1.35-1,2.72-1.5,4.09-.13.37-.29.53-.71.51-1,0-2,0-2.95,0a.59.59,0,0,0-.64.45c-.33.93-.69,1.84-1,2.76l-1.19,3.14h3.92c-3,8.48-6.06,16.9-9.11,25.38,2.73,0,5.36,0,8,0,.14,0,.34-.22.4-.38.4-1,.76-2,1.14-3q4-10.71,7.92-21.44A.66.66,0,0,1,222.62,53.89ZM174.92,71a.64.64,0,0,0-.47.38c-.33.8-.59,1.62-.9,2.43-.75,2-.34,1.76-2.56,1.77-.85,0-1.11-.41-.82-1.22.54-1.5,1.1-3,1.62-4.49a.72.72,0,0,1,.81-.56q4,0,8,0a3,3,0,0,0,3.18-2.19c.89-2.42,1.77-4.83,2.65-7.25a1.76,1.76,0,0,0-1.73-2.46H171.15A3.16,3.16,0,0,0,168,59.6q-3.47,9.43-6.94,18.86c-.1.25-.18.51-.28.8a3.67,3.67,0,0,0,.39,0c5.91,0,11.81,0,17.71,0,.36,0,.47-.15.57-.44.44-1.22.89-2.43,1.33-3.65l1.56-4.29C179.8,70.93,177.36,70.93,174.92,71Zm-1.76-5,1.38-3.81a.93.93,0,0,1,.93-.68h1.83c.47,0,.66.27.52.69-.46,1.31-.91,2.63-1.45,3.91-.12.28-.58.47-.92.59a2.53,2.53,0,0,1-.87,0h0c-.32,0-.63,0-1,0S173,66.43,173.16,66ZM66.35,57.36c-.57,0-1.15,0-1.72,0H51.18c-.21,0-.55.08-.6.2-.5,1.28-.95,2.57-1.45,4h.71c2.92,0,5.83,0,8.74,0,.82,0,1,.25.71,1-.42,1.18-.88,2.36-1.27,3.55a.71.71,0,0,1-.8.56c-2.68,0-5.35,0-8,0a2.38,2.38,0,0,0-2.58,1.8c-.82,2.23-1.63,4.47-2.44,6.7-.49,1.36-1,2.72-1.5,4.13l.28,0c5.86,0,11.72,0,17.59,0,.43,0,.51-.23.62-.54,2.29-6.31,4.55-12.63,6.91-18.92A1.85,1.85,0,0,0,66.35,57.36Zm-10,13.28c-.52,1.46-1,2.93-1.61,4.36a1.28,1.28,0,0,1-.77.51,2.86,2.86,0,0,1-.88,0h0c-.31,0-.63,0-.94,0s-.65-.28-.48-.73c.5-1.4,1-2.81,1.54-4.19a1,1,0,0,1,.68-.52,20.19,20.19,0,0,1,2.06,0C56.35,70.05,56.46,70.3,56.34,70.64Zm84.78-13.28c-5.11,0-10.23,0-15.34,0a.59.59,0,0,0-.46.23c-.48,1.26-.93,2.53-1.43,3.91h.77c2.89,0,5.78,0,8.68,0,.83,0,1,.23.71,1-.41,1.15-.84,2.28-1.22,3.44a.83.83,0,0,1-1,.68c-2.65,0-5.31,0-8,0a2.36,2.36,0,0,0-2.53,1.78q-1.87,5.13-3.73,10.24c-.07.19-.13.39-.2.62l.37,0c5.82,0,11.64,0,17.47,0,.42,0,.51-.21.62-.53,2.29-6.31,4.57-12.63,6.91-18.92A1.82,1.82,0,0,0,141.12,57.36Zm-10,13.35c-.52,1.42-1,2.85-1.57,4.25a1.08,1.08,0,0,1-.73.54,11,11,0,0,1-1.82,0c-.51,0-.69-.29-.51-.79.48-1.37,1-2.73,1.48-4.09a.81.81,0,0,1,.84-.6h1.83C131.06,70.05,131.26,70.23,131.08,70.71ZM240.85,58a2.07,2.07,0,0,0-1.65-.65q-7.2,0-14.39,0a.75.75,0,0,0-.85.58q-3.39,9.29-6.83,18.57c-.33.91-.67,1.82-1,2.78h8.06l.25-.61q3-8.1,5.9-16.21c.33-.91.4-1,1.36-.94.8,0,1,.27.73,1s-.49,1.38-.75,2.12c2.51,0,4.93,0,7.34,0a.65.65,0,0,0,.48-.36c.6-1.56,1.15-3.13,1.73-4.7A1.47,1.47,0,0,0,240.85,58ZM87.68,64.31c.59-1.58,1.19-3.16,1.7-4.76a1.79,1.79,0,0,0-.13-1.22,1.85,1.85,0,0,0-1.82-1q-7.26,0-14.52,0a.68.68,0,0,0-.74.55q-3.23,8.9-6.46,17.78c-.43,1.17-.85,2.35-1.31,3.62,2.53,0,4.93,0,7.33,0a.77.77,0,0,0,.88-.6q2.92-8.11,5.89-16.22c.35-1,.44-1,1.46-1,.72,0,.91.3.67,1s-.51,1.39-.78,2.15c2.53,0,5,0,7.44,0A.55.55,0,0,0,87.68,64.31Zm-69-17.71,30.16,0c.64,0,1.45.19,1.88-.12s.44-1.13.62-1.73l2.19-7.4-.49,0q-16,0-32,0c-.44,0-.57.19-.68.55q-.82,2.85-1.67,5.7l-.91,3.06Z"/><polygon class="cls-4" points="283.12 58.9 273.15 58.9 274.78 48.2 263 48.2 261.36 58.9 250.9 58.9 248.93 69.72 259.71 69.72 258.07 80.42 269.88 80.42 271.51 69.72 281.37 69.72 283.12 58.9"/><path class="cls-1" d="M303.72,52.79A29,29,0,0,0,294,34.71a31.62,31.62,0,0,0-13.55-7.1,37.19,37.19,0,0,0-15.27-.19,44,44,0,0,0-25.78,15l.09.09a43.83,43.83,0,0,1,25.71-15,37.12,37.12,0,0,1,15.22.19,31.44,31.44,0,0,1,13.5,7.07,29,29,0,0,1,9.72,18c1.64,11-1.26,21.34-8.62,30.84a43.93,43.93,0,0,1-26.81,16.88c-10.35,2-19.49.2-27.17-5.48a29.32,29.32,0,0,1-11.41-17.68l-.08.17a29.4,29.4,0,0,0,11.42,17.61,31.74,31.74,0,0,0,19.32,6.31,41.09,41.09,0,0,0,7.95-.81,44,44,0,0,0,26.88-16.92C302.46,74.19,305.36,63.78,303.72,52.79Z"/><path class="cls-5" d="M270,42.45v1.19h0A17.08,17.08,0,0,1,281.57,48a15.55,15.55,0,0,1,5.26,9.74c.9,6-.7,11.76-4.77,17a24.36,24.36,0,0,1-14.86,9.36,22.66,22.66,0,0,1-4.4.45,17.22,17.22,0,0,1-10.45-3.42,16.21,16.21,0,0,1-6.5-11.35l0-.14c0-.22-.05-.42-.06-.61,0-.39,0-.79-.06-1.18l0-.47a23.11,23.11,0,0,1,5.94-15A24.29,24.29,0,0,1,265.88,44a22.89,22.89,0,0,1,4.12-.38V42.45m0,0a24,24,0,0,0-4.33.41,25.39,25.39,0,0,0-14.93,8.69,24.2,24.2,0,0,0-6.23,15.83c0,.58,0,1.14.08,1.71,0,.28.06.56.09.84a17.33,17.33,0,0,0,7,12.14,18.38,18.38,0,0,0,11.16,3.65,23.85,23.85,0,0,0,4.63-.47A25.52,25.52,0,0,0,283,75.45c4.07-5.27,6-11.21,5-17.91a16.82,16.82,0,0,0-5.65-10.46A18.17,18.17,0,0,0,270,42.45Z"/><path class="cls-1" d="M290.06,97.29V93.84h1.53a2.15,2.15,0,0,1,.71.09.76.76,0,0,1,.38.33,1,1,0,0,1,.15.52.9.9,0,0,1-.24.63,1.27,1.27,0,0,1-.74.31.8.8,0,0,1,.28.18,2.15,2.15,0,0,1,.38.45l.6.94h-.57l-.46-.71a4.69,4.69,0,0,0-.33-.48,1,1,0,0,0-.23-.23.64.64,0,0,0-.21-.09.87.87,0,0,0-.26,0h-.52v1.53Zm.47-1.93h1a1.59,1.59,0,0,0,.49-.06.51.51,0,0,0,.27-.21.59.59,0,0,0,.09-.31.55.55,0,0,0-.18-.41.87.87,0,0,0-.56-.15h-1.09Z"/><path class="cls-1" d="M291.61,99.31a3.62,3.62,0,1,1,3.62-3.61A3.61,3.61,0,0,1,291.61,99.31Zm0-6.67a3.06,3.06,0,1,0,3.06,3.06A3.06,3.06,0,0,0,291.61,92.64Z"/></svg>