<svg id="Capa_1" data-name="Capa 1" xmlns="http://www.w3.org/2000/svg" viewBox="0 0 341.29 125"><defs><style>.cls-1{fill:#000e86;}.cls-2{fill:#fff;}.cls-3{fill:#189a56;}</style></defs><path class="cls-1" d="M156.6,93V36.73h143c13.75,0,28.71,6.73,29.54,25.62v3.93A26.78,26.78,0,0,1,302.36,93Z"/><path class="cls-1" d="M299.56,43.23c6.66,0,22.2,1.88,23,19.27v3.78a20.26,20.26,0,0,1-20.24,20.24H163.1V43.23H299.56m0-13H150.1V99.52H302.36A33.24,33.24,0,0,0,335.6,66.28V62.22c-.83-20.51-16.14-32-36-32Z"/><path class="cls-2" d="M172.52,86.6a3.18,3.18,0,0,1-1.13.65,4.74,4.74,0,0,1-1.49.21,4,4,0,0,1-3-1.14,4.27,4.27,0,0,1-1.1-3.11,5.37,5.37,0,0,1,1.63-4.09,5.92,5.92,0,0,1,4.27-1.55c.17,0,.36,0,.57,0l.71.08c0-.38.05-.79.06-1.22s0-.93,0-1.49h3.62q-.24,3.63-.42,6.63c-.11,2-.2,3.87-.28,5.6H172.5Zm.37-6.52a2.89,2.89,0,0,0-.47-.11,2.25,2.25,0,0,0-.44,0,2.32,2.32,0,0,0-1.84.78,3.09,3.09,0,0,0-.67,2.11,2.49,2.49,0,0,0,.41,1.51,1.33,1.33,0,0,0,1.13.55,1.46,1.46,0,0,0,1.26-.59,3.06,3.06,0,0,0,.5-1.75Z"/><path class="cls-2" d="M185.78,87.07c-.6.12-1.18.22-1.73.29a15.09,15.09,0,0,1-1.6.1,5.37,5.37,0,0,1-3.73-1.18,4.28,4.28,0,0,1-1.3-3.37,5,5,0,0,1,5.41-5.38,4.8,4.8,0,0,1,3.25.94,3.59,3.59,0,0,1,1.07,2.85c0,.23,0,.5,0,.81s-.07.63-.13,1h-5.71s0,.07,0,.1v.17a1.28,1.28,0,0,0,.57,1.16,3.29,3.29,0,0,0,1.78.38,11.19,11.19,0,0,0,2.58-.32Zm-4.5-5.77h2.47v-.08a2,2,0,0,0-.27-1.15.91.91,0,0,0-.8-.4,1.17,1.17,0,0,0-.93.43A2.28,2.28,0,0,0,181.28,81.3Z"/><path class="cls-2" d="M199.88,86.6a3.18,3.18,0,0,1-1.13.65,4.74,4.74,0,0,1-1.49.21,4,4,0,0,1-3-1.14,4.31,4.31,0,0,1-1.1-3.11,5.38,5.38,0,0,1,1.64-4.09,5.89,5.89,0,0,1,4.26-1.55c.17,0,.36,0,.58,0l.7.08c0-.38,0-.79.07-1.22s0-.93,0-1.49H204q-.24,3.63-.41,6.63c-.12,2-.21,3.87-.28,5.6h-3.49Zm.37-6.52a2.89,2.89,0,0,0-.47-.11,2.15,2.15,0,0,0-.43,0,2.3,2.3,0,0,0-1.84.78,3.09,3.09,0,0,0-.68,2.11,2.49,2.49,0,0,0,.41,1.51,1.34,1.34,0,0,0,1.13.55,1.45,1.45,0,0,0,1.26-.59,3.14,3.14,0,0,0,.51-1.75Z"/><path class="cls-2" d="M213.14,87.07c-.6.12-1.17.22-1.73.29a15.09,15.09,0,0,1-1.6.1,5.38,5.38,0,0,1-3.73-1.18,4.32,4.32,0,0,1-1.3-3.37,5,5,0,0,1,5.41-5.38,4.78,4.78,0,0,1,3.25.94,3.59,3.59,0,0,1,1.07,2.85c0,.23,0,.5,0,.81s-.07.63-.12,1h-5.72a.34.34,0,0,0,0,.1.81.81,0,0,0,0,.17,1.28,1.28,0,0,0,.57,1.16,3.29,3.29,0,0,0,1.78.38,11,11,0,0,0,2.58-.32Zm-4.49-5.77h2.47v-.08a2,2,0,0,0-.28-1.15.9.9,0,0,0-.8-.4,1.14,1.14,0,0,0-.92.43A2.13,2.13,0,0,0,208.65,81.3Z"/><path class="cls-2" d="M235.73,87.14c-.5.11-1,.19-1.45.25a10.1,10.1,0,0,1-1.31.08,4.73,4.73,0,0,1-3.47-1.22,4.66,4.66,0,0,1-1.23-3.45,5.16,5.16,0,0,1,1.42-3.87,5.42,5.42,0,0,1,3.94-1.4,8.88,8.88,0,0,1,1.22.09,13.68,13.68,0,0,1,1.37.3l.13,2.75q-.9-.21-1.29-.27a4.62,4.62,0,0,0-.7-.06,2.32,2.32,0,0,0-1.73.6,2.36,2.36,0,0,0-.6,1.74,1.8,1.8,0,0,0,.55,1.42,2.17,2.17,0,0,0,1.55.5,6.61,6.61,0,0,0,1-.07,8.81,8.81,0,0,0,1.07-.24Z"/><path class="cls-2" d="M248,77.79c-.15,1.46-.27,3-.35,4.54s-.11,3.19-.11,4.86H244V86a4.13,4.13,0,0,1-1.41,1.12,4.37,4.37,0,0,1-1.83.34,4.21,4.21,0,0,1-2.73-.72,2.91,2.91,0,0,1-.86-2.33c0-.38.05-1.31.13-2.78s.13-2.76.16-3.85h3.61q-.12,1.45-.18,2.67c0,.81-.06,1.44-.06,1.91a4,4,0,0,0,.29,1.85,1.1,1.1,0,0,0,1,.5,1.66,1.66,0,0,0,1.64-1.29,21.73,21.73,0,0,0,.5-5.64Z"/><path class="cls-2" d="M257.06,87.07c-.6.12-1.18.22-1.74.29a14.91,14.91,0,0,1-1.59.1A5.39,5.39,0,0,1,250,86.28a4.31,4.31,0,0,1-1.29-3.37,5,5,0,0,1,5.4-5.38,4.82,4.82,0,0,1,3.26.94,3.58,3.58,0,0,1,1.06,2.85c0,.23,0,.5,0,.81s-.07.63-.12,1h-5.72s0,.07,0,.1,0,.1,0,.17a1.28,1.28,0,0,0,.57,1.16,3.32,3.32,0,0,0,1.78.38,11,11,0,0,0,1.27-.08,10.34,10.34,0,0,0,1.31-.24Zm-4.5-5.77H255v-.08a2,2,0,0,0-.28-1.15.89.89,0,0,0-.79-.4,1.15,1.15,0,0,0-.93.43A2.2,2.2,0,0,0,252.56,81.3Z"/><path class="cls-2" d="M259.09,87.19c.15-1.46.27-3,.35-4.53s.12-3.19.12-4.87h3.51V79a3.78,3.78,0,0,1,1.39-1.11,4.45,4.45,0,0,1,1.84-.34,4.22,4.22,0,0,1,2.74.72,2.89,2.89,0,0,1,.85,2.33c0,.39,0,1.31-.12,2.79s-.13,2.75-.15,3.84H266c.08-1,.14-1.86.18-2.67s.07-1.46.07-1.93a3.86,3.86,0,0,0-.3-1.83,1.07,1.07,0,0,0-1-.5,1.68,1.68,0,0,0-1.65,1.29,21.28,21.28,0,0,0-.5,5.64Z"/><path class="cls-2" d="M275.07,82.72s0,.07,0,.17,0,.19,0,.28a2.19,2.19,0,0,0,.26,1.25,1,1,0,0,0,.87.34c.1,0,.28,0,.57-.07l.28,0-.22,2.62a9.64,9.64,0,0,1-1,.14c-.33,0-.67,0-1,0a3.71,3.71,0,0,1-2.53-.74,2.85,2.85,0,0,1-.82-2.24v-.32l.21-4H270.3l.11-2.42h1.53l.08-1.51,3.37-.74-.12,2.25h2.13l-.12,2.42h-2.07Z"/><path class="cls-2" d="M277.47,82.68a4.85,4.85,0,0,1,1.5-3.77A5.75,5.75,0,0,1,283,77.53a5.46,5.46,0,0,1,3.84,1.24,4.51,4.51,0,0,1,1.35,3.51,5,5,0,0,1-1.47,3.8,5.72,5.72,0,0,1-4.06,1.38,5.59,5.59,0,0,1-3.87-1.24A4.55,4.55,0,0,1,277.47,82.68ZM282.91,80a1.46,1.46,0,0,0-1.3.64,3.52,3.52,0,0,0-.43,1.95,3,3,0,0,0,.4,1.72,1.39,1.39,0,0,0,1.22.55,1.47,1.47,0,0,0,1.29-.62,3.12,3.12,0,0,0,.43-1.81,3.52,3.52,0,0,0-.37-1.87A1.41,1.41,0,0,0,282.91,80Z"/><path class="cls-2" d="M220.82,87.75a9.53,9.53,0,0,1-4.51-1.65l1.5-2.23a7.25,7.25,0,0,0,3.11,1.37v-2c-2.69-.62-4.06-1.54-4.06-3.61v0c0-2,1.44-3.35,4-3.53v-.95h1.74v1a7.7,7.7,0,0,1,3.53,1.3l-1.37,2.24a6.78,6.78,0,0,0-2.24-1V80.6c2.65.62,4,1.57,4,3.64v0c0,2-1.57,3.3-3.94,3.51v1.64h-1.74Zm.12-9.24c-.82.07-1.14.4-1.14.84v0c0,.43.23.68,1.14.93Zm2.67,6v0c0-.45-.25-.7-1.12-.95v1.83C223.26,85.26,223.61,85,223.61,84.49Z"/><path class="cls-2" d="M167.34,52.72h-2.48l.3-4.91,2.42,0q.09-3.19,1.68-4.57c1.07-.91,2.83-1.36,5.3-1.36.66,0,1.35,0,2.07.11s1.45.19,2.22.34l.19,3.74c-.49-.13-.95-.22-1.37-.29a8.4,8.4,0,0,0-1.16-.09,2.78,2.78,0,0,0-1.83.57,2.11,2.11,0,0,0-.73,1.57l4.33,0L178,52.72h-3.84c-.09,1.86-.16,3.83-.22,5.89s-.1,4.51-.12,7.33h-7.22q.36-4.38.54-7.52c.11-2.09.17-3.81.17-5.16Z"/><path class="cls-2" d="M186,66c-.51.11-1,.19-1.45.25a10.36,10.36,0,0,1-1.32.08A6.26,6.26,0,0,1,178.94,65a4.67,4.67,0,0,1-1.54-3.68,5.15,5.15,0,0,1,1.49-3.9,10.36,10.36,0,0,1,4.92-2.19q.33-.09.93-.21c2.61-.57,3.92-1.24,3.92-2a.93.93,0,0,0-.48-.88,3.49,3.49,0,0,0-1.6-.27,15,15,0,0,0-3.23.37A19.08,19.08,0,0,0,180,53.36l.78-5.17a23.31,23.31,0,0,1,3.31-.69,28.76,28.76,0,0,1,3.66-.23,11.05,11.05,0,0,1,5.69,1.14,3.84,3.84,0,0,1,1.84,3.52c0,.26,0,.55,0,.87s0,.67-.05,1l-.41,9.1a6.77,6.77,0,0,0,0,.78v2.23h-6.8l.21-2.93c.06-.7.09-1.2.12-1.49l.13-3.17-.76.26-1.11.32-1.44.35a3,3,0,0,0-1.4.69,1.49,1.49,0,0,0-.49,1.12,1.27,1.27,0,0,0,.44,1,1.78,1.78,0,0,0,1.21.39,7.16,7.16,0,0,0,.91-.08c.36,0,.8-.13,1.3-.24Z"/><path class="cls-2" d="M210.11,52.92l-.38,0h-.59a5.21,5.21,0,0,0-2.82.69,3.78,3.78,0,0,0-1.58,2.06,12.36,12.36,0,0,0-.49,2.8q-.17,1.86-.29,7.5H197c.27-2.7.48-5.42.63-8.14s.21-5.45.21-8.18V47.81H204l-.13,2.52A6.27,6.27,0,0,1,206,48a5.45,5.45,0,0,1,2.88-.73c.21,0,.54,0,1,.06h.1Z"/><path class="cls-2" d="M210.83,65.94q.43-4.23.65-8.75c.15-3,.23-6.14.23-9.38h6.58v2.24a6.68,6.68,0,0,1,2.23-2.14,6.28,6.28,0,0,1,3-.64,7.13,7.13,0,0,1,3.55.78,4,4,0,0,1,1.89,2.32A6.87,6.87,0,0,1,231.19,48a6.1,6.1,0,0,1,3.08-.71,6,6,0,0,1,4.42,1.4,6.15,6.15,0,0,1,1.39,4.48c0,.75-.07,2.55-.21,5.39s-.23,5.3-.27,7.4h-6.7c.13-1.38.24-2.81.31-4.29s.1-3,.1-4.58a10.24,10.24,0,0,0-.41-3.57,1.41,1.41,0,0,0-1.41-.92c-1.11,0-1.9.88-2.35,2.65a47,47,0,0,0-.68,9.86v.85H222c.14-1.57.24-3.09.31-4.57s.11-2.91.11-4.3A10.24,10.24,0,0,0,222,53.5a1.42,1.42,0,0,0-1.41-.92c-1.12,0-1.9.88-2.35,2.65a47,47,0,0,0-.68,9.86v.85Z"/><path class="cls-2" d="M250,66c-.5.11-1,.19-1.45.25a10.1,10.1,0,0,1-1.31.08A6.25,6.25,0,0,1,242.92,65a4.64,4.64,0,0,1-1.54-3.68,5.12,5.12,0,0,1,1.49-3.9,10.36,10.36,0,0,1,4.92-2.19q.33-.09.93-.21c2.61-.57,3.91-1.24,3.91-2a.93.93,0,0,0-.48-.88,3.44,3.44,0,0,0-1.59-.27,15.13,15.13,0,0,0-3.24.37,19,19,0,0,0-3.38,1.09l.77-5.17A23.46,23.46,0,0,1,248,47.5a28.76,28.76,0,0,1,3.66-.23,11.08,11.08,0,0,1,5.69,1.14,3.86,3.86,0,0,1,1.84,3.52c0,.26,0,.55,0,.87s0,.67-.05,1l-.42,9.1a7.33,7.33,0,0,0,0,.78v2.23h-6.8l.21-2.93c0-.7.09-1.2.11-1.49l.14-3.17-.77.26-1.1.32-1.45.35a3.12,3.12,0,0,0-1.4.69,1.52,1.52,0,0,0-.49,1.12,1.24,1.24,0,0,0,.45,1,1.77,1.77,0,0,0,1.2.39,7,7,0,0,0,.91-.08c.37,0,.81-.13,1.31-.24Z"/><path class="cls-3" d="M275,65.83c-.95.21-1.86.38-2.73.49a20,20,0,0,1-2.49.16,8.71,8.71,0,0,1-6.54-2.38,9.21,9.21,0,0,1-2.33-6.7,10.25,10.25,0,0,1,2.69-7.53A10,10,0,0,1,271,47.15a15.89,15.89,0,0,1,2.31.18,24,24,0,0,1,2.59.57l.24,5.36c-1.13-.27-1.94-.45-2.43-.53a8.29,8.29,0,0,0-1.33-.12,4.36,4.36,0,0,0-3.27,1.16,4.71,4.71,0,0,0-1.13,3.4,3.64,3.64,0,0,0,1,2.76,4.12,4.12,0,0,0,2.94,1,12.72,12.72,0,0,0,1.82-.14,17.55,17.55,0,0,0,2-.47Z"/><path class="cls-3" d="M285.36,47.94q-.45,3.93-.67,8.32t-.23,9.68h-7.19c.29-2.77.51-5.66.66-8.65s.23-6.11.23-9.35Zm-7-1.58.21-4.21h7l-.21,4.21Z"/><path class="cls-3" d="M294.89,66c-.51.11-1,.19-1.47.25a10.46,10.46,0,0,1-1.32.09A6.36,6.36,0,0,1,287.79,65a4.69,4.69,0,0,1-1.55-3.71,5.19,5.19,0,0,1,1.5-3.93,10.39,10.39,0,0,1,5-2.21c.22-.06.53-.13.94-.21,2.63-.58,3.95-1.25,3.95-2a.93.93,0,0,0-.49-.89,3.51,3.51,0,0,0-1.61-.27,15.25,15.25,0,0,0-3.25.38,19.15,19.15,0,0,0-3.42,1.1L289.6,48a23.89,23.89,0,0,1,3.35-.69,27.24,27.24,0,0,1,3.69-.24,11.21,11.21,0,0,1,5.73,1.15,3.89,3.89,0,0,1,1.86,3.56c0,.25,0,.55,0,.87s0,.68,0,1l-.42,9.17a7.68,7.68,0,0,0,0,.79v2.25h-6.87c.1-1.26.17-2.25.22-3s.09-1.2.11-1.5l.14-3.19c-.23.08-.49.17-.77.25l-1.12.33-1.45.35a3.11,3.11,0,0,0-1.41.7,1.51,1.51,0,0,0-.5,1.12,1.26,1.26,0,0,0,.45,1,1.81,1.81,0,0,0,1.22.39,7.16,7.16,0,0,0,.91-.08q.56-.07,1.32-.24Z"/><path class="cls-3" d="M305.26,60.22q2,.62,3.3.87a11.09,11.09,0,0,0,2.16.25,2.79,2.79,0,0,0,1.4-.28.88.88,0,0,0,.49-.8c0-.37-.67-1-2-1.92l-.4-.26a14.74,14.74,0,0,1-3.62-3,4.61,4.61,0,0,1-.8-2.68,4.39,4.39,0,0,1,1.9-3.86,9.62,9.62,0,0,1,5.52-1.31,27.43,27.43,0,0,1,3.1.16,17.44,17.44,0,0,1,2.68.52l.44,5a18.9,18.9,0,0,0-2.39-.54,13.77,13.77,0,0,0-2.08-.17,2.33,2.33,0,0,0-1.21.28.82.82,0,0,0-.44.72c0,.45.53,1,1.59,1.67.26.17.45.29.58.39a12.61,12.61,0,0,1,3.3,2.81A5.3,5.3,0,0,1,317.71,65,9.74,9.74,0,0,1,312,66.45a24.07,24.07,0,0,1-3.19-.21,23.5,23.5,0,0,1-3.07-.62Z"/><path class="cls-3" d="M42.53,30.23a36,36,0,0,0-36,36.05h0A33.24,33.24,0,0,0,39.73,99.52H151.51V30.23Z"/><path class="cls-2" d="M19.47,65.47v-.13c0-13.87,10.87-24.74,25.62-24.74,8.36,0,14.28,2.58,19.31,6.93l-7.75,9.31c-3.4-2.85-6.8-4.49-11.49-4.49C38.3,52.35,33,58.13,33,65.41v.13c0,7.68,5.37,13.19,12.91,13.19a13.46,13.46,0,0,0,7.61-2V71H44.14V61.33H66V82.74a32.2,32.2,0,0,1-20.66,7.34C30.55,90.08,19.47,79.88,19.47,65.47Z"/><path class="cls-2" d="M88,41.55h13.93L113.25,60,124.6,41.55h13.93V89.13H125.41V61.8L113.25,80.43H113L100.88,61.94V89.13H88Z"/><path class="cls-2" d="M80.87,72.08A8.92,8.92,0,0,1,75.33,74c-3.81,0-6.65-2-6.65-5.38v-.06c0-2.31,1.25-4.07,3.78-5.21a6,6,0,0,1-1.23-3.57v-.06c0-2.71,2.21-5.06,5.86-5.06,3.38,0,5.54,2.08,5.54,4.8v0c0,2.29-1.47,3.84-3.65,4.85l2.08,2a27.35,27.35,0,0,0,1.75-2.95l3.41,1.7A35.15,35.15,0,0,1,83.77,69l2.51,2.48L82.79,74Zm-2.64-2.72-3.06-3.12a2.37,2.37,0,0,0-1.33,2v0A2,2,0,0,0,76,70.16,4,4,0,0,0,78.23,69.36Zm.3-9.64v0a1.38,1.38,0,0,0-1.44-1.49,1.5,1.5,0,0,0-1.49,1.65v.05a3.37,3.37,0,0,0,1,2.13C77.89,61.42,78.53,60.71,78.53,59.72Z"/><path class="cls-2" d="M147.61,41.11a3.19,3.19,0,0,1,1.54.4,2.85,2.85,0,0,1,1.17,1.14,3.08,3.08,0,0,1,.42,1.54,3,3,0,0,1-.41,1.53,2.83,2.83,0,0,1-1.16,1.14,3.17,3.17,0,0,1-3.12,0,2.77,2.77,0,0,1-1.16-1.14,3,3,0,0,1-.42-1.53,3.08,3.08,0,0,1,.42-1.54,2.82,2.82,0,0,1,1.18-1.14,3.19,3.19,0,0,1,1.54-.4m0,.51a2.65,2.65,0,0,0-1.29.34,2.36,2.36,0,0,0-1,.95,2.6,2.6,0,0,0-.35,1.28,2.57,2.57,0,0,0,.35,1.28,2.4,2.4,0,0,0,1,1,2.63,2.63,0,0,0,1.3.34,2.66,2.66,0,0,0,1.3-.34,2.4,2.4,0,0,0,1-1,2.56,2.56,0,0,0,.34-1.28,2.6,2.6,0,0,0-.35-1.28,2.3,2.3,0,0,0-1-.95,2.61,2.61,0,0,0-1.28-.34m-1.38,4.28V42.58h1.16a2.93,2.93,0,0,1,.86.09.86.86,0,0,1,.43.32.91.91,0,0,1,.15.49.85.85,0,0,1-.26.63,1,1,0,0,1-.7.3.9.9,0,0,1,.29.18,4.21,4.21,0,0,1,.5.66l.41.65h-.67l-.3-.53a2.57,2.57,0,0,0-.57-.77.74.74,0,0,0-.43-.11h-.32V45.9Zm.55-1.87h.66a1.08,1.08,0,0,0,.64-.14.45.45,0,0,0,.09-.63.45.45,0,0,0-.23-.17,1.65,1.65,0,0,0-.54-.06h-.62Z"/></svg>