<svg id="Capa_1" data-name="Capa 1" xmlns="http://www.w3.org/2000/svg" xmlns:xlink="http://www.w3.org/1999/xlink" viewBox="0 0 248.28 125"><defs><style>.cls-1{fill:url(#linear-gradient);}.cls-2,.cls-50{fill:url(#linear-gradient-2);}.cls-10,.cls-11,.cls-13,.cls-14,.cls-15,.cls-16,.cls-2,.cls-25,.cls-3,.cls-4,.cls-5,.cls-6,.cls-7,.cls-8,.cls-9{clip-rule:evenodd;}.cls-3,.cls-54{fill:url(#linear-gradient-3);}.cls-4,.cls-57{fill:url(#linear-gradient-4);}.cls-5,.cls-61{fill:url(#linear-gradient-5);}.cls-6,.cls-64{fill:url(#linear-gradient-6);}.cls-67,.cls-7{fill:url(#linear-gradient-7);}.cls-70,.cls-8{fill:url(#linear-gradient-8);}.cls-73,.cls-9{fill:url(#linear-gradient-9);}.cls-10,.cls-76{fill:url(#linear-gradient-10);}.cls-11,.cls-79{fill:url(#radial-gradient);}.cls-12{fill:url(#linear-gradient-11);}.cls-13,.cls-82{fill:url(#linear-gradient-12);}.cls-14,.cls-86{fill:url(#linear-gradient-13);}.cls-15,.cls-89{fill:url(#linear-gradient-14);}.cls-16,.cls-92{fill:url(#linear-gradient-15);}.cls-17{fill:url(#linear-gradient-16);}.cls-18,.cls-41,.cls-42,.cls-43,.cls-44,.cls-53,.cls-60,.cls-85{fill:none;}.cls-19{fill:url(#linear-gradient-17);}.cls-20{fill:url(#linear-gradient-18);}.cls-21{fill:url(#linear-gradient-19);}.cls-22{fill:#041398;}.cls-23{fill:url(#linear-gradient-20);}.cls-24{fill:url(#linear-gradient-21);}.cls-25,.cls-47{fill:url(#linear-gradient-22);}.cls-26{fill:#d42a34;}.cls-27{fill:#fff;}.cls-28{clip-path:url(#clip-path);}.cls-29{fill:url(#linear-gradient-24);}.cls-30{clip-path:url(#clip-path-2);}.cls-31{fill:url(#linear-gradient-26);}.cls-32{clip-path:url(#clip-path-3);}.cls-33{fill:url(#linear-gradient-28);}.cls-34{clip-path:url(#clip-path-4);}.cls-35{fill:url(#linear-gradient-30);}.cls-36{clip-path:url(#clip-path-5);}.cls-37{fill:url(#linear-gradient-32);}.cls-38{clip-path:url(#clip-path-6);}.cls-39{clip-path:url(#clip-path-7);}.cls-40{fill:url(#linear-gradient-34);}.cls-41,.cls-42,.cls-43,.cls-44,.cls-85{stroke:#d42a34;}.cls-41{stroke-width:0.45px;}.cls-42{stroke-width:0.44px;}.cls-43,.cls-53,.cls-85{stroke-width:0.26px;}.cls-44{stroke-width:1.79px;}.cls-45{clip-path:url(#clip-path-8);}.cls-46{fill:url(#linear-gradient-36);}.cls-47,.cls-50,.cls-54,.cls-57,.cls-61,.cls-64,.cls-67,.cls-70,.cls-73,.cls-76,.cls-79,.cls-82,.cls-86,.cls-89,.cls-92,.cls-95{fill-rule:evenodd;}.cls-48{clip-path:url(#clip-path-9);}.cls-49{fill:url(#linear-gradient-38);}.cls-51{clip-path:url(#clip-path-10);}.cls-52{fill:url(#linear-gradient-40);}.cls-53,.cls-60{stroke:#cc3a2b;}.cls-53,.cls-60,.cls-85{stroke-miterlimit:22.93;}.cls-55{clip-path:url(#clip-path-11);}.cls-56{fill:url(#linear-gradient-42);}.cls-58{clip-path:url(#clip-path-12);}.cls-59{fill:url(#linear-gradient-44);}.cls-60{stroke-width:0.26px;}.cls-62{clip-path:url(#clip-path-13);}.cls-63{fill:url(#linear-gradient-46);}.cls-65{clip-path:url(#clip-path-14);}.cls-66{fill:url(#linear-gradient-48);}.cls-68{clip-path:url(#clip-path-15);}.cls-69{fill:url(#linear-gradient-50);}.cls-71{clip-path:url(#clip-path-16);}.cls-72{fill:url(#linear-gradient-52);}.cls-74{clip-path:url(#clip-path-17);}.cls-75{fill:url(#linear-gradient-54);}.cls-77{clip-path:url(#clip-path-18);}.cls-78{fill:url(#linear-gradient-56);}.cls-80{clip-path:url(#clip-path-19);}.cls-81{fill:url(#radial-gradient-3);}.cls-83{clip-path:url(#clip-path-20);}.cls-84{fill:url(#linear-gradient-58);}.cls-87{clip-path:url(#clip-path-21);}.cls-88{fill:url(#linear-gradient-60);}.cls-90{clip-path:url(#clip-path-22);}.cls-91{fill:url(#linear-gradient-62);}.cls-93{clip-path:url(#clip-path-23);}.cls-94{fill:url(#linear-gradient-64);}.cls-95{fill:#cc3a2b;}.cls-96{clip-path:url(#clip-path-24);}.cls-97{fill:url(#linear-gradient-66);}.cls-98{clip-path:url(#clip-path-25);}.cls-99{fill:url(#linear-gradient-67);}</style><linearGradient id="linear-gradient" x1="66.65" y1="83.18" x2="73.28" y2="83.18" gradientUnits="userSpaceOnUse"><stop offset="0" stop-color="#fff"/><stop offset="1" stop-color="#cc3a2b"/></linearGradient><linearGradient id="linear-gradient-2" x1="59.11" y1="75.2" x2="61.44" y2="75.2" xlink:href="#linear-gradient"/><linearGradient id="linear-gradient-3" x1="59.89" y1="74.75" x2="60.56" y2="74.75" xlink:href="#linear-gradient"/><linearGradient id="linear-gradient-4" x1="60.27" y1="74.81" x2="60.95" y2="74.81" xlink:href="#linear-gradient"/><linearGradient id="linear-gradient-5" x1="59.97" y1="74.07" x2="61.26" y2="74.07" xlink:href="#linear-gradient"/><linearGradient id="linear-gradient-6" x1="59.09" y1="75.57" x2="61.26" y2="75.57" xlink:href="#linear-gradient"/><linearGradient id="linear-gradient-7" x1="61.55" y1="75.72" x2="62.05" y2="75.72" gradientUnits="userSpaceOnUse"><stop offset="0" stop-color="#fff"/><stop offset="1" stop-color="#d42a34"/></linearGradient><linearGradient id="linear-gradient-8" x1="61.22" y1="75.68" x2="61.81" y2="75.68" xlink:href="#linear-gradient-7"/><linearGradient id="linear-gradient-9" x1="58.44" y1="74.99" x2="58.94" y2="74.99" xlink:href="#linear-gradient-7"/><linearGradient id="linear-gradient-10" x1="58.66" y1="75.05" x2="59.28" y2="75.05" xlink:href="#linear-gradient-7"/><radialGradient id="radial-gradient" cx="1927.98" cy="268.33" r="0.84" gradientTransform="translate(-7968.94 -1037.68) scale(4.16)" gradientUnits="userSpaceOnUse"><stop offset="0" stop-color="#fff"/><stop offset="0.04" stop-color="#d4d7ed"/><stop offset="0.09" stop-color="#a9aedc"/><stop offset="0.15" stop-color="#8189cb"/><stop offset="0.21" stop-color="#5f69bd"/><stop offset="0.28" stop-color="#434eb2"/><stop offset="0.35" stop-color="#2c38a8"/><stop offset="0.44" stop-color="#1a27a1"/><stop offset="0.54" stop-color="#0d1c9c"/><stop offset="0.68" stop-color="#061599"/><stop offset="1" stop-color="#041398"/></radialGradient><linearGradient id="linear-gradient-11" x1="65.86" y1="85.83" x2="68.69" y2="85.83" xlink:href="#linear-gradient"/><linearGradient id="linear-gradient-12" x1="59.09" y1="76.87" x2="60.27" y2="76.87" xlink:href="#linear-gradient"/><linearGradient id="linear-gradient-13" x1="59.56" y1="76.91" x2="60.57" y2="76.91" xlink:href="#linear-gradient"/><linearGradient id="linear-gradient-14" x1="57.66" y1="83.38" x2="58.72" y2="83.38" xlink:href="#linear-gradient"/><linearGradient id="linear-gradient-15" x1="57.94" y1="83.52" x2="59.11" y2="83.52" xlink:href="#linear-gradient"/><linearGradient id="linear-gradient-16" x1="60.92" y1="73.02" x2="73.93" y2="73.02" gradientUnits="userSpaceOnUse"><stop offset="0" stop-color="#fff"/><stop offset="1" stop-color="#221f20"/></linearGradient><linearGradient id="linear-gradient-17" x1="65.47" y1="88.91" x2="75.2" y2="88.91" xlink:href="#linear-gradient"/><linearGradient id="linear-gradient-18" x1="54.6" y1="86.72" x2="56.31" y2="86.72" xlink:href="#linear-gradient"/><linearGradient id="linear-gradient-19" x1="47.9" y1="87.03" x2="52.82" y2="87.03" xlink:href="#linear-gradient-16"/><linearGradient id="linear-gradient-20" x1="55.96" y1="65.58" x2="57.03" y2="65.58" xlink:href="#linear-gradient-16"/><linearGradient id="linear-gradient-21" x1="49.58" y1="60.5" x2="50.74" y2="60.5" xlink:href="#linear-gradient"/><linearGradient id="linear-gradient-22" x1="60.47" y1="73.59" x2="60.97" y2="73.59" xlink:href="#linear-gradient-7"/><clipPath id="clip-path"><path class="cls-1" d="M66.65,82.33a5.45,5.45,0,0,1,2.3.13c1,.35,1.88.56,2.85.84s1.25.34,1.46.69-1.39-.35-3.2-.69-1.24-.35-2.37-.56-1-.41-1-.41"/></clipPath><linearGradient id="linear-gradient-24" x1="66.59" y1="83.23" x2="73.47" y2="83.23" xlink:href="#linear-gradient-7"/><clipPath id="clip-path-2"><path class="cls-12" d="M66,84.89a6.76,6.76,0,0,0,2.74,1.88s-3.44-.56-2.74-1.88"/></clipPath><linearGradient id="linear-gradient-26" x1="65.25" y1="85.83" x2="68.69" y2="85.83" xlink:href="#linear-gradient-7"/><clipPath id="clip-path-3"><path class="cls-19" d="M65.49,91l9.71,0s-1.44-.3-2.71-.59-.9,0-1.94-.07-.69-.06-1.47-.14-.34-.27-1.32-.62-.13-.49-.13-.76,1,0,1.67.06,1.25,0,2.16.14a23.22,23.22,0,0,1,3.13,1.32c-.5-.27-.7-.48-1.26-.76a17.41,17.41,0,0,0-2.22-1c-.84-.29.35.42-2.65-.29s-3-1.53-3-1.53Z"/></clipPath><linearGradient id="linear-gradient-28" x1="65.47" y1="88.91" x2="75.2" y2="88.91" xlink:href="#linear-gradient-7"/><clipPath id="clip-path-4"><path class="cls-20" d="M54.6,82.35a9.72,9.72,0,0,1,1.12,4c.15,2.3.59,4.79.59,4.79h-.82s-.08-6.06-.89-8.74"/></clipPath><linearGradient id="linear-gradient-30" x1="54.6" y1="86.72" x2="56.31" y2="86.72" xlink:href="#linear-gradient-7"/><clipPath id="clip-path-5"><path class="cls-21" d="M51,83a28.11,28.11,0,0,0,.14,3.73c.24,1.72,1.12,4.24,1.65,4.32H47.9Z"/></clipPath><linearGradient id="linear-gradient-32" x1="2196.97" y1="597.83" x2="2197.37" y2="597.83" gradientTransform="matrix(-9.87, 0.01, -0.01, -10.05, 21744.47, 6081.86)" xlink:href="#linear-gradient-7"/><clipPath id="clip-path-6"><path class="cls-22" d="M63.64,62.08a19.48,19.48,0,0,0,4.58,10.37s-2.9-3.71-2.56-12.68c0,0,1.08-3.84,1.17-4.83a9.6,9.6,0,0,0-.6-4.11s-.42.44-3.5-.88c-.75-.31-1.5.34-2.22.85a48.1,48.1,0,0,0-4.87,4.66,6.26,6.26,0,0,0-1.32,4.2l-.07,2.07,2,1.4s-1.25-3.8.38-5.8,3.8-6.33,5.43-6,3.16,0,2.94,3.33c0,0-.06.35-.28,1.2a10.6,10.6,0,0,0-.19,2.87,7.54,7.54,0,0,1-.91,3.38"/></clipPath><clipPath id="clip-path-7"><path class="cls-23" d="M53.53,69.21s1,.31,1.29.14,0-2.53.25-4.35c.22-1.3.27-1.25,1.36-.85a6,6,0,0,0,2.83.42,25.5,25.5,0,0,1-4.89-2.81,6.61,6.61,0,0,0-.28,1.09,31.82,31.82,0,0,0-.53,4Z"/></clipPath><linearGradient id="linear-gradient-34" x1="2000.71" y1="68.8" x2="2000.89" y2="68.8" gradientTransform="translate(-339.47 16212.94) rotate(-90) scale(8.07 5.75)" xlink:href="#linear-gradient-7"/><clipPath id="clip-path-8"><path class="cls-24" d="M50.3,52.84C51,48.94,55,46.57,55,46.57a9.41,9.41,0,0,0-3.85,6.49c-.7,3-2.34,15.6-5.79,21.37,0,0,3.35-13,4.95-21.59"/></clipPath><linearGradient id="linear-gradient-36" x1="1787.64" y1="463.54" x2="1787.76" y2="463.54" gradientTransform="translate(-17206.68 -12896.09) scale(9.65 27.95)" xlink:href="#linear-gradient-7"/><clipPath id="clip-path-9"><path class="cls-25" d="M61,73.58a.25.25,0,0,1-.25.26.26.26,0,0,1-.25-.26.25.25,0,0,1,.25-.24.25.25,0,0,1,.25.24"/></clipPath><linearGradient id="linear-gradient-38" x1="2441.81" y1="2699.55" x2="2442.7" y2="2699.55" gradientTransform="matrix(-0.38, 1.55, -0.93, -0.22, 3485.07, -3113.91)" xlink:href="#linear-gradient"/><clipPath id="clip-path-10"><polygon class="cls-2" points="61.44 75.28 59.19 74.74 59.11 75.11 61.36 75.66 61.44 75.28"/></clipPath><linearGradient id="linear-gradient-40" x1="58.9" y1="75.2" x2="61.65" y2="75.2" xlink:href="#linear-gradient"/><clipPath id="clip-path-11"><polygon class="cls-3" points="60.56 74.23 60.08 74.11 59.89 74.9 60.27 75.39 60.56 74.23"/></clipPath><linearGradient id="linear-gradient-42" x1="1598.29" y1="-1661.83" x2="1598.87" y2="-1661.83" gradientTransform="matrix(1.56, 0, 0, 1.01, -2430.48, 1762.2)" xlink:href="#linear-gradient-7"/><clipPath id="clip-path-12"><polygon class="cls-4" points="60.95 74.33 60.57 74.22 60.27 75.39 60.76 75.11 60.95 74.33"/></clipPath><linearGradient id="linear-gradient-44" x1="2515.25" y1="2534.17" x2="2515.93" y2="2534.17" gradientTransform="matrix(-0.36, 1.39, -0.99, -0.26, 3489.44, -2775.9)" xlink:href="#linear-gradient"/><clipPath id="clip-path-13"><path class="cls-5" d="M60.72,73.67s-.83-.25-.74.25.55.93,1.21.3c0,0,.33-.33-.47-.55"/></clipPath><linearGradient id="linear-gradient-46" x1="2297.41" y1="1416.96" x2="2298.03" y2="1416.96" gradientTransform="matrix(-2.43, 0, 0, -2.23, 5652.93, 3226.83)" xlink:href="#linear-gradient"/><clipPath id="clip-path-14"><polygon class="cls-6" points="61.36 75.66 59.1 75.11 59.02 75.5 61.26 76.04 61.36 75.66"/></clipPath><linearGradient id="linear-gradient-48" x1="1173.97" y1="924.67" x2="1174.89" y2="924.67" gradientTransform="matrix(2.45, 0.61, -0.36, 1.44, -2486.48, -1973.16)" xlink:href="#linear-gradient"/><clipPath id="clip-path-15"><path class="cls-7" d="M62.05,75.7a.24.24,0,0,1-.23.27.24.24,0,0,1-.27-.22.25.25,0,1,1,.5,0"/></clipPath><linearGradient id="linear-gradient-50" x1="3950" y1="-501.92" x2="3950.87" y2="-501.92" gradientTransform="matrix(0, -1.09, 0.82, 0, 486.53, 4376.82)" xlink:href="#linear-gradient"/><clipPath id="clip-path-16"><path class="cls-8" d="M61.41,76.2a.22.22,0,0,1-.18-.28l.13-.59a.22.22,0,0,1,.27-.17.22.22,0,0,1,.18.28l-.13.59a.23.23,0,0,1-.27.17"/></clipPath><linearGradient id="linear-gradient-52" x1="3446.13" y1="-54.17" x2="3446.8" y2="-54.17" gradientTransform="matrix(-1.41, -0.42, 0.44, -1.48, 4948.38, 1453.24)" xlink:href="#linear-gradient-7"/><clipPath id="clip-path-17"><path class="cls-9" d="M58.47,74.85a.27.27,0,0,0,.08.35.25.25,0,0,0,.35-.08.24.24,0,0,0-.08-.34.25.25,0,0,0-.35.07"/></clipPath><linearGradient id="linear-gradient-54" x1="-516.25" y1="1332.2" x2="-515.36" y2="1332.2" gradientTransform="matrix(0.82, 0.19, -0.17, 0.73, 711.62, -801.96)" xlink:href="#linear-gradient"/><clipPath id="clip-path-18"><path class="cls-10" d="M58.83,75.57a.24.24,0,0,0,.29-.17l.15-.59a.22.22,0,0,0-.16-.28.23.23,0,0,0-.29.16l-.16.6a.25.25,0,0,0,.17.28"/></clipPath><linearGradient id="linear-gradient-56" x1="256.88" y1="937.72" x2="257.49" y2="937.72" gradientTransform="matrix(1.19, 0.28, -0.31, 1.34, 45.35, -1248.01)" xlink:href="#linear-gradient-7"/><clipPath id="clip-path-19"><path class="cls-11" d="M59.68,77.75s-.45-1.67-1.84-1.67-1.67,1.44-1.67,2.09a7.57,7.57,0,0,0,2.15,5.13s4.16-1.45,4.63-4.67A1.69,1.69,0,0,0,61.81,77a2.41,2.41,0,0,0-2.13.74"/></clipPath><radialGradient id="radial-gradient-3" cx="1928.17" cy="268.22" r="1.28" gradientTransform="translate(-7968.94 -1037.68) scale(4.16)" gradientUnits="userSpaceOnUse"><stop offset="0" stop-color="#fff"/><stop offset="0.03" stop-color="#fcf2f3"/><stop offset="0.17" stop-color="#f2bec1"/><stop offset="0.31" stop-color="#e99196"/><stop offset="0.45" stop-color="#e16c72"/><stop offset="0.59" stop-color="#db4f57"/><stop offset="0.73" stop-color="#d73a44"/><stop offset="0.87" stop-color="#d52e38"/><stop offset="1" stop-color="#d42a34"/></radialGradient><clipPath id="clip-path-20"><polygon class="cls-13" points="60.27 75.41 59.71 75.67 59.09 78.21 59.56 78.33 60.27 75.41"/></clipPath><linearGradient id="linear-gradient-58" x1="58.39" y1="76.86" x2="60.97" y2="76.86" xlink:href="#linear-gradient-7"/><clipPath id="clip-path-21"><polygon class="cls-14" points="60.57 75.87 60.27 75.39 59.56 78.33 59.96 78.42 60.57 75.87"/></clipPath><linearGradient id="linear-gradient-60" x1="2229.91" y1="1645.17" x2="2230.87" y2="1645.17" gradientTransform="matrix(-0.82, 3.22, -1.74, -0.44, 4747.56, -6376.55)" xlink:href="#linear-gradient"/><clipPath id="clip-path-22"><polygon class="cls-15" points="58.72 81.66 58.24 81.54 57.66 83.98 57.84 85.23 58.72 81.66"/></clipPath><linearGradient id="linear-gradient-62" x1="2198.02" y1="1525.06" x2="2198.92" y2="1525.06" gradientTransform="matrix(-0.98, 3.82, -1.94, -0.5, 5161.62, -7559.32)" xlink:href="#linear-gradient"/><clipPath id="clip-path-23"><polygon class="cls-16" points="59.11 81.75 58.72 81.62 57.94 85.42 58.53 84.18 59.11 81.75"/></clipPath><linearGradient id="linear-gradient-64" x1="1860.37" y1="-598.21" x2="1861.27" y2="-598.21" gradientTransform="matrix(3.9, 0.01, 0, 2.04, -7201.71, 1295.35)" xlink:href="#linear-gradient-7"/><clipPath id="clip-path-24"><path class="cls-17" d="M62.22,64.81A12.75,12.75,0,0,0,63.07,63a6.41,6.41,0,0,0,.52,1.69c.33.68-.08,1.42-.15,2.3a7.16,7.16,0,0,0,1.08,3.18c.61,1.22,3,4.39,3.73,5.41s1.42,2.5,1.89,3.38A40.1,40.1,0,0,0,73.05,83a11,11,0,0,0-2.36-2.45C69.88,80,68.58,77.28,68,76s-2.5-3.38-4.87-6.83-3.64-3.32-3.64-3.32l0-1.18s2.23.83,2.71.14"/></clipPath><linearGradient id="linear-gradient-66" x1="2055.6" y1="383.91" x2="2056.42" y2="383.91" gradientTransform="matrix(-15.55, -24.78, 22.61, -14.19, 23354.38, 56470.01)" xlink:href="#linear-gradient-7"/><clipPath id="clip-path-25"><path class="cls-18" d="M40.15,74.89c.48-1.29,8.52-17,8.52-17a76.55,76.55,0,0,1-4.75,8.51c-2.09,3.12-2.62,3.9-5.7,11.46,0,0-.95,3.64-2,6.84-1.91,5.07-3.37,6.39-3.37,6.39h3.69S36.38,85,40.15,74.89"/></clipPath><linearGradient id="linear-gradient-67" x1="1996.72" y1="399.79" x2="1997.18" y2="399.79" gradientTransform="matrix(18.21, -41.68, 31.32, 13.69, -48855.96, 77841.99)" xlink:href="#linear-gradient-7"/></defs><rect class="cls-26" x="7.71" y="23.98" width="232.85" height="80.12" rx="17.15"/><path class="cls-27" d="M101,48.07a2.13,2.13,0,0,1,2.22-2.22H110a2,2,0,0,1,2.22,2.06A2,2,0,0,1,110,50H105.4v3.48h4a2.07,2.07,0,1,1,0,4.12h-4v5.63a2.23,2.23,0,1,1-4.45,0Z"/><path class="cls-27" d="M119.32,50.35h-.06l-2.39,7.16h4.67Zm-3.85-.91c.8-2.17,1.48-4,3.71-4s3,1.87,3.76,4L127.21,61a6.92,6.92,0,0,1,.67,2.74c0,1.1-.88,1.81-2.14,1.81-1.45,0-1.92-.93-2.33-2.16l-.55-1.76h-7.31L115,63.39c-.41,1.23-.88,2.16-2.33,2.16-1.26,0-2.14-.71-2.14-1.81a7,7,0,0,1,.66-2.74Z"/><path class="cls-27" d="M133.36,54.27h2.95a2.16,2.16,0,1,0,0-4.31h-2.95Zm-4.44-6.2a2.13,2.13,0,0,1,2.22-2.22h5.36c3.95,0,6.53,2.41,6.53,6.06a5.3,5.3,0,0,1-4.55,5.48l3.86,4.18a2.71,2.71,0,0,1,.94,1.92A2.19,2.19,0,0,1,141,65.55a2.26,2.26,0,0,1-2.11-1.1l-5.47-6.89h-.06v5.63a2.22,2.22,0,1,1-4.44,0Z"/><path class="cls-27" d="M146.57,48.48c.41-2.33,1.81-2.8,2.94-2.8,2.22,0,2.71,1.29,3.83,4.8l2.18,6.73h0l2.17-6.73c1.13-3.51,1.62-4.8,3.84-4.8,1.13,0,2.52.47,2.94,2.8l1.75,10c.36,2,.75,4.25.75,4.92a2.1,2.1,0,0,1-2.09,2.11c-2,0-2.37-1.42-2.58-2.93L161,53.93H161l-3,9.62c-.44,1.43-1.1,2-2.44,2s-2-.57-2.45-2l-3-9.62h-.06l-1.31,8.69c-.22,1.51-.58,2.93-2.58,2.93a2.1,2.1,0,0,1-2.08-2.11c0-.67.38-2.88.74-4.92Z"/><path class="cls-27" d="M176.24,50.35h-.06l-2.39,7.16h4.67Zm-3.84-.91c.8-2.17,1.48-4,3.69-4s3,1.87,3.77,4L184.14,61a7.23,7.23,0,0,1,.66,2.74c0,1.1-.88,1.81-2.14,1.81-1.46,0-1.92-.93-2.33-2.16l-.55-1.76h-7.3l-.55,1.76c-.41,1.23-.88,2.16-2.33,2.16-1.28,0-2.14-.71-2.14-1.81a7.15,7.15,0,0,1,.65-2.74Z"/><path class="cls-27" d="M195,45.4c2.69,0,5.9.77,5.9,3.1A2,2,0,0,1,199,50.61c-1,0-2.14-.92-3.87-.92-3.6,0-5,2.9-5,5.93s1.6,5.75,4.65,5.75c2.77,0,3.21-.9,4.36-.9a1.89,1.89,0,0,1,2,2.06c0,2.45-3.7,3.29-6.14,3.29-6.15,0-9.61-4.61-9.61-10.2,0-5.93,3.82-10.22,9.69-10.22"/><path class="cls-27" d="M206.56,63.19a2.22,2.22,0,1,1-4.44,0V48a2.22,2.22,0,1,1,4.44,0Z"/><path class="cls-27" d="M216.4,50.35h-.06L214,57.51h4.67Zm-3.85-.91c.8-2.17,1.48-4,3.7-4s3,1.87,3.77,4L224.3,61a7,7,0,0,1,.66,2.74c0,1.1-.88,1.81-2.14,1.81-1.46,0-1.92-.93-2.34-2.16l-.54-1.76h-7.31l-.55,1.76c-.41,1.23-.88,2.16-2.33,2.16-1.27,0-2.14-.71-2.14-1.81a7.23,7.23,0,0,1,.66-2.74Z"/><path class="cls-27" d="M101,73.06a2.12,2.12,0,0,1,2.22-2.36c1.18,0,1.6.53,3.07,2.4l7.39,9.24h.05V73.06a2.23,2.23,0,1,1,4.45,0V88.22a2.12,2.12,0,0,1-2.23,2.36c-1.17,0-1.61-.53-3.07-2.39l-7.38-9.25h0v9.28a2.23,2.23,0,1,1-4.45,0Z"/><path class="cls-27" d="M124.62,80.63h0c0,3.11,1.4,6.11,4.83,6.11s4.83-3,4.83-6.11-1.4-6.08-4.83-6.08-4.83,3-4.83,6.08m14.44,0c0,6.21-3.82,10.23-9.61,10.23s-9.61-4-9.61-10.23,3.81-10.2,9.61-10.2S139.06,74.44,139.06,80.63Z"/><path class="cls-27" d="M141.86,85.29c1.09,0,2.52,1.11,4.8,1.11,1.73,0,2.36-.87,2.36-1.84,0-1.47-1.7-1.77-4.22-2.6-2.31-.74-4.7-1.73-4.7-5.27,0-4.25,3.32-6.26,7-6.26s5.55,1.24,5.55,2.93a2,2,0,0,1-2,2.09c-1.43,0-1.9-.73-3.79-.73-1.21,0-2,.62-2,1.59,0,1.12,1.1,1.26,4.18,2.28,2.41.79,4.74,2,4.74,5.73,0,4.5-3.32,6.54-7.46,6.54-2.6,0-6.56-1-6.56-3.22a2.16,2.16,0,0,1,2.09-2.35"/><path class="cls-27" d="M163.84,75.37h-.06l-2.39,7.16h4.67ZM160,74.46c.8-2.17,1.48-4,3.71-4s3,1.86,3.76,4L171.74,86a7.18,7.18,0,0,1,.66,2.75,1.9,1.9,0,0,1-2.15,1.82c-1.46,0-1.93-.94-2.32-2.18l-.56-1.75h-7.3l-.55,1.75c-.41,1.24-.87,2.18-2.33,2.18a1.9,1.9,0,0,1-2.14-1.82,7.38,7.38,0,0,1,.66-2.75Z"/><path class="cls-27" d="M178.6,79.29h2.93a2.16,2.16,0,1,0,0-4.31H178.6Zm-4.45-6.19a2.13,2.13,0,0,1,2.22-2.22h5.35c3.95,0,6.53,2.4,6.53,6.06a5.33,5.33,0,0,1-4.55,5.49l3.87,4.17a2.72,2.72,0,0,1,.93,1.92,2.2,2.2,0,0,1-2.28,2.06,2.27,2.27,0,0,1-2.11-1.1l-5.46-6.89h-.05v5.63a2.23,2.23,0,1,1-4.45,0Z"/><path class="cls-27" d="M199.1,70.43c2.69,0,5.9.77,5.9,3.1a2,2,0,0,1-1.92,2.11c-1.05,0-2.15-.92-3.87-.92-3.6,0-5,2.9-5,5.91s1.6,5.77,4.64,5.77c2.78,0,3.21-.9,4.37-.9a1.89,1.89,0,0,1,2,2c0,2.45-3.71,3.31-6.15,3.31-6.15,0-9.6-4.61-9.6-10.23,0-5.91,3.81-10.2,9.69-10.2"/><path class="cls-27" d="M210.52,80.63h0c0,3.11,1.4,6.11,4.83,6.11s4.83-3,4.83-6.11-1.39-6.08-4.83-6.08-4.83,3-4.83,6.08m14.44,0c0,6.21-3.82,10.23-9.61,10.23s-9.6-4-9.6-10.23,3.82-10.2,9.6-10.2S225,74.44,225,80.63Z"/><path class="cls-27" d="M225.49,50v-4.2h1.86a2.72,2.72,0,0,1,.86.11,1,1,0,0,1,.46.41,1.13,1.13,0,0,1,.18.63,1.06,1.06,0,0,1-.29.76,1.57,1.57,0,0,1-.9.38,1.86,1.86,0,0,1,.34.21,2.93,2.93,0,0,1,.46.56l.73,1.14h-.7l-.55-.87c-.16-.25-.3-.45-.4-.58a1.23,1.23,0,0,0-.29-.28.8.8,0,0,0-.25-.11,1.2,1.2,0,0,0-.31,0h-.64V50Zm.56-2.34h1.19a1.89,1.89,0,0,0,.6-.08.59.59,0,0,0,.32-.26.66.66,0,0,0-.1-.87,1,1,0,0,0-.68-.19h-1.33Z"/><path class="cls-27" d="M227.31,51.68A3.69,3.69,0,1,1,231,48,3.69,3.69,0,0,1,227.31,51.68Zm0-6.88A3.19,3.19,0,1,0,230.5,48,3.19,3.19,0,0,0,227.31,44.8Z"/><polygon class="cls-27" points="77 90.46 72.65 82.62 92.95 87.07 75.49 75.8 96.02 72.61 75.67 68.41 93.67 58.02 73.17 61.46 86.2 45.27 68.33 55.88 74.62 36.08 61.79 52.43 60.51 31.69 54.45 51.56 45.77 32.69 47.3 53.41 32.38 38.95 41.3 57.72 22.16 49.62 37.26 63.91 16.48 63.27 35.73 71.13 16.13 78.04 36.9 78.42 22.21 91.06 23.71 91.06 40.63 84.8 37.6 90.47 45.23 90.46 46.42 89.4 46.29 90.47 68.21 90.49 67.55 87.96 71.28 90.46 77 90.46"/><path class="cls-27" d="M77.72,91.08c0-.77-1.36-6-1.36-6-.42-1-1-3.29-2.42-7-1.87-5-6.26-11.56-7.12-13.88a9.56,9.56,0,0,1-.46-5.31c.19-1.25.35-2.88.35-2.88s.77-4.23-1.34-6.45c-4.42-4.63-5.79-4.62-7.9-4.62a8.83,8.83,0,0,0-7.92,8.2C49,59.17,47,61.85,43.69,66.36a76.92,76.92,0,0,0-5.48,8.87s-5.41,10-5.33,15.8Z"/><path class="cls-1" d="M66.65,82.33a5.45,5.45,0,0,1,2.3.13c1,.35,1.88.56,2.85.84s1.25.34,1.46.69-1.39-.35-3.2-.69-1.24-.35-2.37-.56-1-.41-1-.41"/><g class="cls-28"><rect class="cls-29" x="66.59" y="82.11" width="6.88" height="2.23"/></g><path class="cls-12" d="M66,84.89a6.76,6.76,0,0,0,2.74,1.88s-3.44-.56-2.74-1.88"/><g class="cls-30"><rect class="cls-31" x="65.25" y="84.89" width="3.44" height="1.87"/></g><path class="cls-19" d="M65.49,91l9.71,0s-1.44-.3-2.71-.59-.9,0-1.94-.07-.69-.06-1.47-.14-.34-.27-1.32-.62-.13-.49-.13-.76,1,0,1.67.06,1.25,0,2.16.14a23.22,23.22,0,0,1,3.13,1.32c-.5-.27-.7-.48-1.26-.76a17.41,17.41,0,0,0-2.22-1c-.84-.29.35.42-2.65-.29s-3-1.53-3-1.53Z"/><g class="cls-32"><rect class="cls-33" x="65.47" y="86.77" width="9.72" height="4.28"/></g><path class="cls-20" d="M54.6,82.35a9.72,9.72,0,0,1,1.12,4c.15,2.3.59,4.79.59,4.79h-.82s-.08-6.06-.89-8.74"/><g class="cls-34"><rect class="cls-35" x="54.6" y="82.35" width="1.72" height="8.73"/></g><path class="cls-21" d="M51,83a28.11,28.11,0,0,0,.14,3.73c.24,1.72,1.12,4.24,1.65,4.32H47.9Z"/><g class="cls-36"><rect class="cls-37" x="45.83" y="82.41" width="9.07" height="9.25" transform="translate(-45.62 57.07) rotate(-42.61)"/></g><path class="cls-22" d="M63.64,62.08a19.48,19.48,0,0,0,4.58,10.37s-2.9-3.71-2.56-12.68c0,0,1.08-3.84,1.17-4.83a9.6,9.6,0,0,0-.6-4.11s-.42.44-3.5-.88c-.75-.31-1.5.34-2.22.85a48.1,48.1,0,0,0-4.87,4.66,6.26,6.26,0,0,0-1.32,4.2l-.07,2.07,2,1.4s-1.25-3.8.38-5.8,3.8-6.33,5.43-6,3.16,0,2.94,3.33c0,0-.06.35-.28,1.2a10.6,10.6,0,0,0-.19,2.87,7.54,7.54,0,0,1-.91,3.38"/><g class="cls-38"><rect class="cls-26" x="54.25" y="49.64" width="13.97" height="22.82"/></g><path class="cls-23" d="M53.53,69.21s1,.31,1.29.14,0-2.53.25-4.35c.22-1.3.27-1.25,1.36-.85a6,6,0,0,0,2.83.42,25.5,25.5,0,0,1-4.89-2.81,6.61,6.61,0,0,0-.28,1.09,31.82,31.82,0,0,0-.53,4Z"/><g class="cls-39"><rect class="cls-40" x="53.52" y="61.76" width="5.74" height="7.76"/></g><path class="cls-41" d="M47.84,91.08s6.33-13.87,5.63-21.56a31.17,31.17,0,0,1,.37-5.68A11.56,11.56,0,0,0,54.3,60a6.23,6.23,0,0,1,1.47-4.68c1.1-1.1,5.59-5.77,6.59-5.5s2,1.1,3.67,1.1"/><path class="cls-42" d="M66,76.48A50.13,50.13,0,0,1,65.68,83a52.3,52.3,0,0,0-.19,8"/><path class="cls-43" d="M71.74,81.4l1.45,1.83c.57.69,1.19,2,1.74,2.64a20.46,20.46,0,0,0,1.6,1.67"/><path class="cls-42" d="M59.58,65.78s-.48,4.76-6,3.43"/><path class="cls-41" d="M64.31,50.59a11.82,11.82,0,0,1,.79,3,9.85,9.85,0,0,1-.35,2.25s-.29.32-.2,1.93a7.06,7.06,0,0,1-1,4.45C62.59,63.76,62.43,64.9,62,65c0,0-1.83.75-7.68-3.2"/><path class="cls-41" d="M64.89,54.83c-1.4,0-1.9,1.71-1.9,1.71s-.29,1.07.5,3.7"/><path class="cls-41" d="M61.57,56.17s-1.37-.21-4,1.13"/><path class="cls-44" d="M45.71,91.13s6.92-14.44,6.17-22.42a31.93,31.93,0,0,1,.4-5.9,12,12,0,0,0,.5-4A6.31,6.31,0,0,1,54.34,54c1.18-1.13,6-6,7.08-5.71s2.42,1.65,4.19,1.65"/><path class="cls-24" d="M50.3,52.84C51,48.94,55,46.57,55,46.57a9.41,9.41,0,0,0-3.85,6.49c-.7,3-2.34,15.6-5.79,21.37,0,0,3.35-13,4.95-21.59"/><g class="cls-45"><rect class="cls-46" x="45.35" y="46.57" width="9.63" height="27.87"/></g><path class="cls-47" d="M61,73.58a.25.25,0,0,1-.25.26.26.26,0,0,1-.25-.26.25.25,0,0,1,.25-.24.25.25,0,0,1,.25.24"/><g class="cls-48"><polygon class="cls-49" points="60.51 73.23 60.36 73.81 60.95 73.95 61.08 73.36 60.51 73.23"/></g><polygon class="cls-50" points="61.44 75.28 59.19 74.74 59.11 75.11 61.36 75.66 61.44 75.28"/><g class="cls-51"><polygon class="cls-52" points="61.65 74.79 59.24 74.21 58.9 75.6 61.31 76.19 61.65 74.79"/></g><polygon class="cls-53" points="61.44 75.28 59.19 74.74 59.11 75.11 61.36 75.66 61.44 75.28"/><polygon class="cls-54" points="60.56 74.23 60.08 74.11 59.89 74.9 60.27 75.39 60.56 74.23"/><g class="cls-55"><rect class="cls-56" x="59.52" y="74.29" width="1.4" height="0.94" transform="translate(-26.3 116.33) rotate(-76.81)"/></g><polygon class="cls-53" points="60.56 74.23 60.08 74.11 59.89 74.9 60.27 75.39 60.56 74.23"/><polygon class="cls-57" points="60.95 74.33 60.57 74.22 60.27 75.39 60.76 75.11 60.95 74.33"/><g class="cls-58"><polygon class="cls-59" points="60.32 74.05 59.98 75.32 60.91 75.56 61.24 74.29 60.32 74.05"/></g><polygon class="cls-60" points="60.95 74.33 60.57 74.22 60.27 75.39 60.76 75.11 60.95 74.33"/><path class="cls-61" d="M60.72,73.67s-.83-.25-.74.25.55.93,1.21.3c0,0,.33-.33-.47-.55"/><g class="cls-62"><rect class="cls-63" x="59.81" y="73.17" width="1.78" height="1.93" transform="translate(-25.71 115.54) rotate(-76.29)"/></g><polygon class="cls-64" points="61.36 75.66 59.1 75.11 59.02 75.5 61.26 76.04 61.36 75.66"/><g class="cls-65"><polygon class="cls-66" points="58.8 75.98 61.21 76.59 61.57 75.17 59.15 74.56 58.8 75.98"/></g><polygon class="cls-53" points="61.36 75.66 59.1 75.11 59.02 75.5 61.26 76.04 61.36 75.66"/><path class="cls-67" d="M62.05,75.7a.24.24,0,0,1-.23.27.24.24,0,0,1-.27-.22.25.25,0,1,1,.5,0"/><g class="cls-68"><rect class="cls-69" x="61.47" y="75.4" width="0.66" height="0.65" transform="translate(-28.58 112.94) rotate(-73.16)"/></g><path class="cls-70" d="M61.41,76.2a.22.22,0,0,1-.18-.28l.13-.59a.22.22,0,0,1,.27-.17.22.22,0,0,1,.18.28l-.13.59a.23.23,0,0,1-.27.17"/><g class="cls-71"><polygon class="cls-72" points="62.14 75.22 61.26 74.95 60.89 76.14 61.78 76.41 62.14 75.22"/></g><path class="cls-73" d="M58.47,74.85a.27.27,0,0,0,.08.35.25.25,0,0,0,.35-.08.24.24,0,0,0-.08-.34.25.25,0,0,0-.35.07"/><g class="cls-74"><polygon class="cls-75" points="58.27 75.24 58.94 75.41 59.1 74.73 58.43 74.57 58.27 75.24"/></g><path class="cls-76" d="M58.83,75.57a.24.24,0,0,0,.29-.17l.15-.59a.22.22,0,0,0-.16-.28.23.23,0,0,0-.29.16l-.16.6a.25.25,0,0,0,.17.28"/><g class="cls-77"><polygon class="cls-78" points="58.39 75.54 59.27 75.75 59.55 74.55 58.66 74.34 58.39 75.54"/></g><path class="cls-79" d="M59.68,77.75s-.45-1.67-1.84-1.67-1.67,1.44-1.67,2.09a7.57,7.57,0,0,0,2.15,5.13s4.16-1.45,4.63-4.67A1.69,1.69,0,0,0,61.81,77a2.41,2.41,0,0,0-2.13.74"/><g class="cls-80"><rect class="cls-81" x="54.8" y="74.11" width="11.12" height="10.25"/></g><polygon class="cls-82" points="60.27 75.41 59.71 75.67 59.09 78.21 59.56 78.33 60.27 75.41"/><g class="cls-83"><polygon class="cls-84" points="60.19 78.61 60.98 75.58 59.16 75.11 58.39 78.14 60.19 78.61"/></g><polygon class="cls-85" points="60.27 75.41 59.71 75.67 59.09 78.21 59.56 78.33 60.27 75.41"/><polygon class="cls-86" points="60.57 75.87 60.27 75.39 59.56 78.33 59.96 78.42 60.57 75.87"/><g class="cls-87"><polygon class="cls-88" points="59.62 75.15 58.84 78.25 60.52 78.67 61.31 75.58 59.62 75.15"/></g><polygon class="cls-85" points="60.57 75.87 60.27 75.39 59.56 78.33 59.96 78.42 60.57 75.87"/><polygon class="cls-89" points="58.72 81.66 58.24 81.54 57.66 83.98 57.84 85.23 58.72 81.66"/><g class="cls-90"><polygon class="cls-91" points="57.72 81.28 56.76 85 58.65 85.48 59.6 81.77 57.72 81.28"/></g><polygon class="cls-85" points="58.72 81.66 58.24 81.54 57.66 83.98 57.84 85.23 58.72 81.66"/><polygon class="cls-92" points="59.11 81.75 58.72 81.62 57.94 85.42 58.53 84.18 59.11 81.75"/><g class="cls-93"><rect class="cls-94" x="56.58" y="82.42" width="3.79" height="2" transform="translate(-35.31 123.22) rotate(-77.97)"/></g><polygon class="cls-85" points="59.11 81.75 58.72 81.62 58.05 85.12 58.53 84.18 59.11 81.75"/><path class="cls-95" d="M58.71,78.05a3,3,0,0,0,1.65.42,1.17,1.17,0,0,1-1.65-.42"/><path class="cls-95" d="M57.85,81.5a3.88,3.88,0,0,1,1.63.42,1.2,1.2,0,0,0-1.63-.42"/><path class="cls-17" d="M62.22,64.81A12.75,12.75,0,0,0,63.07,63a6.41,6.41,0,0,0,.52,1.69c.33.68-.08,1.42-.15,2.3a7.16,7.16,0,0,0,1.08,3.18c.61,1.22,3,4.39,3.73,5.41s1.42,2.5,1.89,3.38A40.1,40.1,0,0,0,73.05,83a11,11,0,0,0-2.36-2.45C69.88,80,68.58,77.28,68,76s-2.5-3.38-4.87-6.83-3.64-3.32-3.64-3.32l0-1.18s2.23.83,2.71.14"/><g class="cls-96"><polygon class="cls-97" points="82.79 77.83 69.52 56.68 50.18 68.81 63.45 89.96 82.79 77.83"/></g><g class="cls-98"><polygon class="cls-99" points="46.13 96.85 60.85 63.18 35.41 52.07 20.69 85.74 46.13 96.85"/></g></svg>