<svg id="Capa_1" data-name="Capa 1" xmlns="http://www.w3.org/2000/svg" viewBox="0 0 324.03 125"><defs><style>.cls-1{fill:#7c994a;}.cls-2{fill:#1e8045;opacity:0.23;}.cls-3{fill:#2b7644;}.cls-4{fill:#a7462f;}.cls-5{fill:#548547;}</style></defs><rect class="cls-1" x="6.61" y="51.9" width="40.98" height="25.17" transform="translate(-0.09 0.04) rotate(-0.08)"/><rect class="cls-1" x="47.63" y="51.84" width="40.98" height="25.17" transform="translate(-0.09 0.1) rotate(-0.08)"/><rect class="cls-1" x="35.02" y="23.57" width="25.17" height="40.98" transform="translate(-0.06 0.07) rotate(-0.08)"/><rect class="cls-1" x="35.08" y="64.45" width="25.17" height="40.98" transform="translate(-0.12 0.07) rotate(-0.08)"/><polygon class="cls-2" points="47.68 64.55 47.62 23.57 34.99 23.59 35.07 77.19 88.67 77.12 88.66 64.49 47.68 64.55"/><polygon class="cls-3" points="47.59 64.55 60.22 64.53 60.2 51.81 6.59 51.88 6.61 64.51 47.59 64.45 47.59 64.55"/><rect class="cls-3" x="47.62" y="77.17" width="12.63" height="28.26" transform="translate(-0.13 0.08) rotate(-0.08)"/><path class="cls-4" d="M105.28,75.34a1.84,1.84,0,0,0-1.82-1.81,1.8,1.8,0,0,0-1.78,1.82,1.78,1.78,0,0,0,1.78,1.78,7.4,7.4,0,1,1-7.35,7.38h5.58a1.8,1.8,0,1,0,3.6,0,1.82,1.82,0,0,0-1.82-1.81,7.36,7.36,0,1,1,7.36-7.38Z"/><path class="cls-4" d="M113.09,91.92,124.22,68h2.84l11.3,23.91h-6.29l-1.47-3.12h-9.79l-1.43,3.13Zm10.17-8.44h4.88l-2.44-5.26Z"/><path class="cls-4" d="M159.13,91.86,147.82,80.55V91.87h-6.28l0-23.92h2.55l11.34,11.28,0-11.29h6.29l0,23.92Z"/><path class="cls-4" d="M166,67.89l18.85,0v6.26H178.5l0,17.71h-6.29l0-17.71H166Z"/><path class="cls-4" d="M185.87,91.82,197,67.88h2.84l11.29,23.91h-6.28l-1.47-3.12h-9.8l-1.43,3.13ZM196,83.38h4.88l-2.43-5.26Z"/><path class="cls-4" d="M234.9,75.74a5.58,5.58,0,0,0-4-1.56,5.62,5.62,0,0,0,0,11.23,5.5,5.5,0,0,0,4-1.6l4.48,4.39a12,12,0,1,1-8.52-20.37,11.87,11.87,0,0,1,8.43,3.46Z"/><path class="cls-4" d="M258.06,91.72l-3.71-6.35h-3.89v6.35h-6.29l0-23.93h10.08a8.78,8.78,0,0,1,6,15.24l5.09,8.67ZM250.45,80h3.89a3.43,3.43,0,1,0,0-6.86h-3.89Z"/><path class="cls-4" d="M274.67,82.16a3.13,3.13,0,0,0,6.25,0l0-14.39h6.32l0,14.48a9.45,9.45,0,1,1-18.89,0l0-14.48h6.32Z"/><path class="cls-4" d="M301.28,85.37h9.25v6.28l-20.13,0,10.15-17.62H291V67.75l20.45,0Z"/><path class="cls-5" d="M98.51,43.07l11.66,0v2.32h-9v5.28h7.9V53h-7.91V60.6H98.54Z"/><path class="cls-5" d="M112.73,59.86a3.38,3.38,0,0,1-1.16-2.71,3.93,3.93,0,0,1,2.66-3.71,12.26,12.26,0,0,1,4.93-.87l1,0v-1c0-1.54-1-2.31-2.9-2.31a4.52,4.52,0,0,0-2.3.53,1.83,1.83,0,0,0-.9,1.74h-2.36a3.61,3.61,0,0,1,1.58-3.2,6.76,6.76,0,0,1,3.85-1.08A6.3,6.3,0,0,1,121,48.43a3.9,3.9,0,0,1,1.5,3.35v8.79h-2.34V58.84a5.6,5.6,0,0,1-4.44,2A4.41,4.41,0,0,1,112.73,59.86Zm5.81-1.57a4.84,4.84,0,0,0,1.64-1.58V54.27c-.48,0-.83-.05-1.07-.05a7.56,7.56,0,0,0-3.38.67,2.27,2.27,0,0,0-1.5,2.06,1.68,1.68,0,0,0,.63,1.39,2.49,2.49,0,0,0,1.64.51A4.07,4.07,0,0,0,118.54,58.29Z"/><path class="cls-5" d="M125.88,47.56h2.52v1.76a3.57,3.57,0,0,1,1.23-1.43,3.25,3.25,0,0,1,1.82-.54,4.78,4.78,0,0,1,1.29.21v2.36h-.36a3.8,3.8,0,0,0-1.14-.2,2.45,2.45,0,0,0-2.05,1,3.9,3.9,0,0,0-.74,2.45v7.42H125.9Z"/><path class="cls-5" d="M134.85,47.54h2.52v1.52a4.12,4.12,0,0,1,1.55-1.32,4.67,4.67,0,0,1,2.11-.46,4.05,4.05,0,0,1,2.12.54,3.22,3.22,0,0,1,1.33,1.61,3.9,3.9,0,0,1,1.67-1.65,5,5,0,0,1,2.27-.51,4,4,0,0,1,3.19,1.27,5.12,5.12,0,0,1,1.11,3.5v8.49h-2.56l0-8.31a3.24,3.24,0,0,0-.57-2,2.1,2.1,0,0,0-1.79-.73,2.37,2.37,0,0,0-2.06.94,4.07,4.07,0,0,0-.68,2.46v7.68h-2.57V52.21a3.29,3.29,0,0,0-.54-2,2,2,0,0,0-1.75-.71,2.39,2.39,0,0,0-2.08,1,4,4,0,0,0-.68,2.46v7.67h-2.57Z"/><path class="cls-5" d="M156.73,59.8a3.41,3.41,0,0,1-1.16-2.71,4,4,0,0,1,2.67-3.71,12.24,12.24,0,0,1,4.92-.87l1,0v-1c0-1.54-1-2.31-2.9-2.31a4.53,4.53,0,0,0-2.3.52,1.86,1.86,0,0,0-.9,1.75h-2.36a3.62,3.62,0,0,1,1.58-3.21,6.75,6.75,0,0,1,3.85-1.07A6.31,6.31,0,0,1,165,48.36a4,4,0,0,1,1.51,3.36v8.79h-2.34V58.78a5.68,5.68,0,0,1-4.44,2A4.44,4.44,0,0,1,156.73,59.8Zm5.82-1.57a4.84,4.84,0,0,0,1.64-1.58V54.21c-.47,0-.83-.05-1.06-.05a7.39,7.39,0,0,0-3.38.67,2.26,2.26,0,0,0-1.5,2.06,1.69,1.69,0,0,0,.63,1.39,2.48,2.48,0,0,0,1.63.51A4.08,4.08,0,0,0,162.55,58.23Z"/><path class="cls-5" d="M172,60a5.45,5.45,0,0,1-2.22-2.29,7.66,7.66,0,0,1-.81-3.65,8,8,0,0,1,.79-3.7A5.62,5.62,0,0,1,172,48a6.69,6.69,0,0,1,3.26-.79,6.14,6.14,0,0,1,4.15,1.41,5.3,5.3,0,0,1,1.8,3.89h-2.47a3.14,3.14,0,0,0-1-2.31,3.61,3.61,0,0,0-2.43-.79,3.45,3.45,0,0,0-2.74,1.15,5.12,5.12,0,0,0-1,3.46,5,5,0,0,0,1,3.37,3.47,3.47,0,0,0,2.75,1.12,3.66,3.66,0,0,0,2.4-.77,3,3,0,0,0,1-2.23h2.49a5.25,5.25,0,0,1-1.81,3.85,6.14,6.14,0,0,1-4.13,1.39A6.54,6.54,0,0,1,172,60Z"/><path class="cls-5" d="M183.93,43h2.77v2.59h-2.77Zm.11,4.52h2.57l0,13h-2.57Z"/><path class="cls-5" d="M190.93,59.75A3.41,3.41,0,0,1,189.77,57a4,4,0,0,1,2.67-3.71,12.24,12.24,0,0,1,4.92-.87l1,0v-1c0-1.54-1-2.31-2.9-2.31a4.52,4.52,0,0,0-2.3.53,1.83,1.83,0,0,0-.9,1.74h-2.36a3.59,3.59,0,0,1,1.58-3.2,6.76,6.76,0,0,1,3.85-1.08,6.27,6.27,0,0,1,3.86,1.12,3.93,3.93,0,0,1,1.51,3.35v8.79h-2.34V58.73a5.62,5.62,0,0,1-4.45,2A4.43,4.43,0,0,1,190.93,59.75Zm5.82-1.57a4.84,4.84,0,0,0,1.64-1.58V54.16c-.47,0-.83,0-1.07,0a7.51,7.51,0,0,0-3.37.67,2.27,2.27,0,0,0-1.5,2.06,1.68,1.68,0,0,0,.63,1.39,2.48,2.48,0,0,0,1.63.51A4.08,4.08,0,0,0,196.75,58.18Z"/><path class="cls-4" d="M318.88,68.24v-4h1.76a2.42,2.42,0,0,1,.81.11.86.86,0,0,1,.44.38,1,1,0,0,1,.17.59,1,1,0,0,1-.28.72,1.37,1.37,0,0,1-.84.36,2,2,0,0,1,.32.2,3,3,0,0,1,.43.53l.69,1.08h-.66l-.52-.82a4.45,4.45,0,0,0-.38-.55,1.13,1.13,0,0,0-.27-.27.56.56,0,0,0-.24-.1,1.07,1.07,0,0,0-.29,0h-.6v1.76Zm.54-2.22h1.12a1.66,1.66,0,0,0,.56-.07.58.58,0,0,0,.31-.24.69.69,0,0,0,.11-.36.6.6,0,0,0-.21-.46.94.94,0,0,0-.64-.18h-1.25Z"/><path class="cls-4" d="M320.66,70.55a4.15,4.15,0,1,1,4.15-4.14A4.15,4.15,0,0,1,320.66,70.55Zm0-7.65a3.51,3.51,0,1,0,3.51,3.51A3.51,3.51,0,0,0,320.66,62.9Z"/></svg>