<svg id="Capa_1" data-name="Capa 1" xmlns="http://www.w3.org/2000/svg" viewBox="0 0 362.45 125"><defs><style>.cls-1{fill:#041398;}.cls-2{fill:#fff;}.cls-3{fill:#df4748;}.cls-4{fill:#00ab4f;}.cls-5{fill:#f7e323;}</style></defs><rect class="cls-1" x="99.92" y="74.98" width="248.6" height="19.63" rx="3.93"/><path class="cls-2" d="M113.11,79.28l-1.61,1.29a6.48,6.48,0,0,0-1.16-1,2.84,2.84,0,0,0-1.51-.33,2.91,2.91,0,0,0-1.74.48,1.46,1.46,0,0,0-.67,1.24,1.48,1.48,0,0,0,.58,1.16,7.68,7.68,0,0,0,2,1.1,15.48,15.48,0,0,1,2.19,1.12,5.29,5.29,0,0,1,1.28,1.14,4.34,4.34,0,0,1,.75,1.31,4.24,4.24,0,0,1,.25,1.47,4.11,4.11,0,0,1-1.32,3.07,4.48,4.48,0,0,1-3.21,1.27,5.5,5.5,0,0,1-3.24-1,6.32,6.32,0,0,1-2.16-3l2-.56a3.52,3.52,0,0,0,3.33,2.44,2.6,2.6,0,0,0,1.81-.64,2.07,2.07,0,0,0,.73-1.63,2.19,2.19,0,0,0-.38-1.18,3.26,3.26,0,0,0-.94-1,10.47,10.47,0,0,0-1.79-.89,12.06,12.06,0,0,1-1.89-.91,4.94,4.94,0,0,1-1.15-1,4.45,4.45,0,0,1-.7-1.14,3.31,3.31,0,0,1-.23-1.22,3.4,3.4,0,0,1,1.26-2.65,4.5,4.5,0,0,1,3.06-1.09,6.22,6.22,0,0,1,2.42.51A5,5,0,0,1,113.11,79.28Z"/><path class="cls-2" d="M121.39,77.12l6.89,15h-2.09l-1.69-3.7h-6.2l-1.68,3.7h-2.07Zm0,4.51L119,86.79h4.7Z"/><path class="cls-2" d="M130,77.09l10.8,11V77.67h2V92.8L132,81.86V92.13h-2Z"/><path class="cls-2" d="M152.09,77.67h8.09v2h-6.12v3.61h6.12v1.95h-6.09v6.92h-2Z"/><path class="cls-2" d="M162.84,77.67H166a6,6,0,0,1,3.84,1.17,3.61,3.61,0,0,1,1.49,3,3.81,3.81,0,0,1-1,2.56,5.43,5.43,0,0,1-3,1.57l4.25,6.18h-2.29l-4.05-5.94h-.45v5.94h-2Zm2,1.75v5q4.41.09,4.41-2.53a2.2,2.2,0,0,0-.51-1.5,2.66,2.66,0,0,0-1.38-.8A11.32,11.32,0,0,0,164.84,79.42Z"/><path class="cls-2" d="M179.72,77.12l6.9,15h-2.09l-1.69-3.7h-6.2L175,92.13h-2.07Zm0,4.51-2.34,5.16h4.7Z"/><path class="cls-2" d="M188.34,77.09l10.8,11V77.67h2V92.8l-10.8-10.94V92.13h-2Z"/><path class="cls-2" d="M215.92,78.17v2.24a10,10,0,0,0-4.34-1.15,6.07,6.07,0,0,0-4.29,1.63,5.46,5.46,0,0,0,0,8,6.43,6.43,0,0,0,4.46,1.61,8.5,8.5,0,0,0,4.13-1.21v2.26a9.14,9.14,0,0,1-4.3,1,8.18,8.18,0,0,1-5.8-2.27,7.31,7.31,0,0,1-2.41-5.49,7.15,7.15,0,0,1,2.37-5.39,8,8,0,0,1,5.71-2.25A11.63,11.63,0,0,1,215.92,78.17Z"/><path class="cls-2" d="M218.26,77.67h2V92.13h-2Z"/><path class="cls-2" d="M232.36,79.28l-1.62,1.29a5.86,5.86,0,0,0-1.16-1,2.8,2.8,0,0,0-1.5-.33,3,3,0,0,0-1.75.48,1.47,1.47,0,0,0-.08,2.4,7.58,7.58,0,0,0,2,1.1,14.44,14.44,0,0,1,2.19,1.12,5.34,5.34,0,0,1,1.29,1.14,4.34,4.34,0,0,1,.75,1.31,4.49,4.49,0,0,1,.25,1.47,4.12,4.12,0,0,1-1.33,3.07,4.44,4.44,0,0,1-3.2,1.27,5.5,5.5,0,0,1-3.24-1,6.19,6.19,0,0,1-2.16-3l2-.56a3.54,3.54,0,0,0,3.34,2.44,2.6,2.6,0,0,0,1.81-.64,2.09,2.09,0,0,0,.72-1.63,2.11,2.11,0,0,0-.38-1.18,3.15,3.15,0,0,0-.94-1,10.09,10.09,0,0,0-1.79-.89,12.33,12.33,0,0,1-1.88-.91,4.56,4.56,0,0,1-1.15-1,4.51,4.51,0,0,1-.71-1.14,3.3,3.3,0,0,1-.22-1.22,3.4,3.4,0,0,1,1.26-2.65,4.5,4.5,0,0,1,3.06-1.09,6.26,6.26,0,0,1,2.42.51A5,5,0,0,1,232.36,79.28Z"/><path class="cls-2" d="M247,78.17v2.24a10,10,0,0,0-4.35-1.15,6.06,6.06,0,0,0-4.28,1.63,5.44,5.44,0,0,0,0,8,6.41,6.41,0,0,0,4.46,1.61A8.5,8.5,0,0,0,247,89.32v2.26a9.17,9.17,0,0,1-4.3,1,8.16,8.16,0,0,1-5.8-2.27,7.28,7.28,0,0,1-2.41-5.49,7.15,7.15,0,0,1,2.37-5.39,8,8,0,0,1,5.7-2.25A11.64,11.64,0,0,1,247,78.17Z"/><path class="cls-2" d="M248.75,84.82a7.11,7.11,0,0,1,2.39-5.37,8.08,8.08,0,0,1,5.73-2.23,7.89,7.89,0,0,1,5.63,2.25,7.15,7.15,0,0,1,2.36,5.35,7.45,7.45,0,0,1-2.33,5.54,8.33,8.33,0,0,1-11.43,0A7.43,7.43,0,0,1,248.75,84.82Zm14,.09a5.31,5.31,0,0,0-1.74-4,6,6,0,0,0-4.29-1.64,5.75,5.75,0,0,0-4.14,1.67,5.36,5.36,0,0,0-1.73,4,5.25,5.25,0,0,0,1.77,4A6.17,6.17,0,0,0,257,90.56,5.64,5.64,0,0,0,261,88.88,5.36,5.36,0,0,0,262.74,84.91Z"/><path class="cls-2" d="M274,77.67h3.54q4.22,0,6.26,2.21a7.14,7.14,0,0,1,2.06,5,7.05,7.05,0,0,1-2.12,5,8.21,8.21,0,0,1-6.17,2.19H274Zm2,1.93V90.18h.11a19.91,19.91,0,0,0,3.35-.2,5.46,5.46,0,0,0,2.13-.87,4.83,4.83,0,0,0,1.61-1.77,5.15,5.15,0,0,0,.59-2.44,5.09,5.09,0,0,0-.95-3,4.66,4.66,0,0,0-2.27-1.81A11.06,11.06,0,0,0,277,79.6Z"/><path class="cls-2" d="M288,77.67h8.09v2h-6.12v3.61h6.12v1.95h-6.12v5h6.12v1.95H288Z"/><path class="cls-2" d="M310.33,77.12l6.9,15h-2.09l-1.7-3.7h-6.2l-1.67,3.7h-2.08Zm0,4.51L308,86.79h4.7Z"/><path class="cls-2" d="M328,79.28l-1.62,1.29a5.86,5.86,0,0,0-1.16-1,2.78,2.78,0,0,0-1.5-.33,3,3,0,0,0-1.75.48,1.47,1.47,0,0,0-.08,2.4,7.58,7.58,0,0,0,2,1.1,14.44,14.44,0,0,1,2.19,1.12,5.34,5.34,0,0,1,1.29,1.14,4.34,4.34,0,0,1,.75,1.31,4.49,4.49,0,0,1,.25,1.47A4.12,4.12,0,0,1,327,91.35a4.44,4.44,0,0,1-3.2,1.27,5.45,5.45,0,0,1-3.24-1,6.19,6.19,0,0,1-2.16-3l2-.56a3.54,3.54,0,0,0,3.34,2.44,2.62,2.62,0,0,0,1.81-.64,2.09,2.09,0,0,0,.72-1.63,2.11,2.11,0,0,0-.38-1.18,3.15,3.15,0,0,0-.94-1,10.09,10.09,0,0,0-1.79-.89,13,13,0,0,1-1.89-.91,4.69,4.69,0,0,1-1.14-1,4.51,4.51,0,0,1-.71-1.14A3.3,3.3,0,0,1,319.2,81a3.4,3.4,0,0,1,1.26-2.65,4.5,4.5,0,0,1,3.06-1.09,6.26,6.26,0,0,1,2.42.51A5,5,0,0,1,328,79.28Z"/><path class="cls-2" d="M330.77,77.67h2V92.13h-2Z"/><path class="cls-2" d="M344.87,79.28l-1.62,1.29a6.15,6.15,0,0,0-1.16-1,2.84,2.84,0,0,0-1.51-.33,2.93,2.93,0,0,0-1.74.48,1.46,1.46,0,0,0-.67,1.24,1.49,1.49,0,0,0,.59,1.16,7.58,7.58,0,0,0,2,1.1,14.94,14.94,0,0,1,2.19,1.12,5.54,5.54,0,0,1,1.29,1.14,4.53,4.53,0,0,1,.74,1.31,4.24,4.24,0,0,1,.25,1.47,4.11,4.11,0,0,1-1.32,3.07,4.46,4.46,0,0,1-3.21,1.27,5.5,5.5,0,0,1-3.24-1,6.32,6.32,0,0,1-2.16-3l2-.56a3.53,3.53,0,0,0,3.33,2.44,2.65,2.65,0,0,0,1.82-.64,2.09,2.09,0,0,0,.72-1.63,2.19,2.19,0,0,0-.38-1.18,3.26,3.26,0,0,0-.94-1,10.47,10.47,0,0,0-1.79-.89,12.06,12.06,0,0,1-1.89-.91,4.69,4.69,0,0,1-1.14-1,4.51,4.51,0,0,1-.71-1.14,3.31,3.31,0,0,1-.23-1.22,3.41,3.41,0,0,1,1.27-2.65,4.5,4.5,0,0,1,3.06-1.09,6.21,6.21,0,0,1,2.41.51A5.06,5.06,0,0,1,344.87,79.28Z"/><path class="cls-3" d="M100.26,35h18.31v4.51H104.72v8.25h13.85v4.46h-13.8V68h-4.51Z"/><path class="cls-3" d="M134.64,33.7,150.24,68h-4.73l-3.83-8.45h-14L123.86,68h-4.69Zm0,10.31L129.34,55.8H140Z"/><path class="cls-3" d="M155.09,35h7.16a13.62,13.62,0,0,1,8.7,2.66,8.3,8.3,0,0,1,3.36,6.8,8.72,8.72,0,0,1-2.17,5.86,12.09,12.09,0,0,1-6.78,3.58L175,68h-5.18l-9.16-13.59h-1V68h-4.51Zm4.51,4V50.48q10,.21,10-5.78a5,5,0,0,0-1.17-3.44,5.83,5.83,0,0,0-3.11-1.82A25.51,25.51,0,0,0,159.6,39Z"/><path class="cls-3" d="M208.23,33.6l9,34.41h-4.42l-5.47-21L198,69.29,188.51,46.8,183,68h-4.4l9-34.41L198,58.22Z"/><path class="cls-3" d="M234.24,33.7,249.84,68h-4.73l-3.83-8.45h-14L223.46,68h-4.69Zm0,10.31L228.94,55.8h10.63Z"/><path class="cls-3" d="M278.58,36.11v5.11a22.51,22.51,0,0,0-9.83-2.62,13.6,13.6,0,0,0-9.7,3.72,12.54,12.54,0,0,0,.09,18.34,14.37,14.37,0,0,0,10.1,3.7,19.12,19.12,0,0,0,9.34-2.78v5.16a20.39,20.39,0,0,1-9.72,2.39,18.32,18.32,0,0,1-13.13-5.2,16.69,16.69,0,0,1-5.45-12.53,16.51,16.51,0,0,1,5.36-12.34,18,18,0,0,1,12.9-5.13A25.9,25.9,0,0,1,278.58,36.11Z"/><path class="cls-3" d="M283.87,35h4.47V68h-4.47Z"/><path class="cls-3" d="M307.93,33.7,323.53,68H318.8L315,59.56H301L297.15,68h-4.69Zm0,10.31L302.63,55.8h10.63Z"/><path class="cls-3" d="M347.86,38.65l-3.65,2.93a14.9,14.9,0,0,0-2.63-2.24,6.48,6.48,0,0,0-3.4-.74,6.57,6.57,0,0,0-3.95,1.1,3.35,3.35,0,0,0-1.51,2.83A3.43,3.43,0,0,0,334,45.18a17.91,17.91,0,0,0,4.5,2.52,31.24,31.24,0,0,1,5,2.55,12.83,12.83,0,0,1,2.92,2.6,10.51,10.51,0,0,1,1.69,3,10,10,0,0,1,.56,3.34,9.43,9.43,0,0,1-3,7,10.05,10.05,0,0,1-7.25,2.9,12.31,12.31,0,0,1-7.33-2.27,14.32,14.32,0,0,1-4.89-6.81l4.52-1.27q2.46,5.58,7.55,5.58a5.83,5.83,0,0,0,4.09-1.48A4.79,4.79,0,0,0,344,59.16a5,5,0,0,0-.86-2.7A7.6,7.6,0,0,0,341,54.22a23.19,23.19,0,0,0-4-2,29.2,29.2,0,0,1-4.28-2.08,11,11,0,0,1-2.59-2.26,9.54,9.54,0,0,1-1.6-2.6,7.49,7.49,0,0,1-.5-2.77,7.79,7.79,0,0,1,2.85-6.06,10.17,10.17,0,0,1,6.92-2.5,14,14,0,0,1,5.48,1.17A11.19,11.19,0,0,1,347.86,38.65Z"/><path class="cls-1" d="M90.13,29.65A1.17,1.17,0,0,0,89,30.85V98.27a1.14,1.14,0,1,0,2.28,0V30.85A1.17,1.17,0,0,0,90.13,29.65Z"/><path class="cls-1" d="M354.81,78.83V75.35h1.55a1.94,1.94,0,0,1,.71.09.72.72,0,0,1,.38.33,1,1,0,0,1-.09,1.15,1.24,1.24,0,0,1-.74.32,2,2,0,0,1,.28.18,2.59,2.59,0,0,1,.38.46l.61,1h-.59l-.45-.72a5,5,0,0,0-.34-.48.76.76,0,0,0-.23-.24.64.64,0,0,0-.21-.09h-.79v1.54Zm.47-2h1a1.59,1.59,0,0,0,.49-.06.48.48,0,0,0,.27-.21.55.55,0,0,0-.09-.73.83.83,0,0,0-.56-.15h-1.1Z"/><path class="cls-1" d="M356.37,80.87A3.65,3.65,0,1,1,360,77.22,3.65,3.65,0,0,1,356.37,80.87Zm0-6.74a3.09,3.09,0,1,0,3.09,3.09A3.09,3.09,0,0,0,356.37,74.13Z"/><path class="cls-4" d="M41.39,75.5H15.79a2.91,2.91,0,0,1-2.92-2.91V54.41h6.61V47.6h-6a7.29,7.29,0,0,0-7.29,7.29V75a7.29,7.29,0,0,0,7.29,7.29H46.37Z"/><path class="cls-5" d="M69.25,47.6H36.61l4.67,6.81H67.05a2.87,2.87,0,0,1,2.86,2.87V75.5H63.49v6.82h5.76A7.29,7.29,0,0,0,76.54,75V54.89A7.29,7.29,0,0,0,69.25,47.6Z"/><path class="cls-3" d="M51.93,59.34V89.92A2.91,2.91,0,0,1,49,92.83H30.85V86.22H24v6a7.29,7.29,0,0,0,7.29,7.29H51.46a7.29,7.29,0,0,0,7.29-7.29V59.34Z"/><path class="cls-1" d="M24,36.45V69.1L30.78,69l.07-30.37a2.87,2.87,0,0,1,2.86-2.87H51.93v6.43h6.82V36.45a7.29,7.29,0,0,0-7.29-7.29H31.32A7.29,7.29,0,0,0,24,36.45Z"/><path class="cls-1" d="M44.75,63.32l-.86,1.34-1.27,2h-.56a2.12,2.12,0,0,0-.51-1.31l-2.26-2.46c-.35-.39-.93-.91-.81-1.35s.41-.44.81-.44h2.05v2.57h1.89V61.1h1.88v-.34H43.23v-.65h1.88v-.35H41.34v1H39.06a6.5,6.5,0,0,0-1.56.18,2.41,2.41,0,0,0-2,2.24,2.49,2.49,0,0,0,.57,1.6l1.43,1.49.37.39H35.79s-.56,0-.17.57a3.44,3.44,0,0,0,1.88,1.6,6.62,6.62,0,0,0,.71.18c1.32.16,3.58-.56,3.83-2h.36l-.34.49h.52l.31-.49h1.9l.28.49h2.26ZM38.5,68.64a2.07,2.07,0,0,1-.92-.17l-.08,0A3.74,3.74,0,0,1,35.92,67h2.29a2.64,2.64,0,0,1,.71.78C39.21,68.28,39,68.57,38.5,68.64Zm5.39-2h-.73l.73-1.15.07-.1.67,1.25Z"/><path class="cls-1" d="M43.89,56.84a7.82,7.82,0,0,0-2.61-.44,7.92,7.92,0,0,0-3.78,1,8,8,0,0,0,3.78,15.08A8.35,8.35,0,0,0,43.89,72a8,8,0,0,0,0-15.19Zm0,14.55a7.4,7.4,0,1,1-2.61-14.33,7.21,7.21,0,0,1,2.61.48,7.41,7.41,0,0,1,0,13.85Z"/></svg>