<svg id="Capa_1" data-name="Capa 1" xmlns="http://www.w3.org/2000/svg" viewBox="0 0 280.53 125"><defs><style>.cls-1{fill:#002f82;}.cls-2{fill:#d42a34;}.cls-3{fill:#221f58;}.cls-4{fill:#aab4d4;}.cls-5{fill:#fbd4d1;}.cls-6{fill:#883737;}.cls-7{fill:#fefefe;}</style></defs><path class="cls-1" d="M128.76,67.74l8.09,0a18,18,0,0,0-1.54,2.7,25.69,25.69,0,0,0-1.09,3.34L128.59,95.2a30.51,30.51,0,0,1-1.25,4,6.68,6.68,0,0,1-1.54,2.09,7.13,7.13,0,0,1-3.58,1.61,10.56,10.56,0,0,1-2.08.25L99.52,103c-.78,0-1.83-.06-3.17-.19A5.55,5.55,0,0,1,92.51,101a6.12,6.12,0,0,1-1.42-4.18,14.67,14.67,0,0,1,.54-3.51l5.57-21a12.16,12.16,0,0,0,.35-2.78,6.05,6.05,0,0,0-.36-1.9l15.87.08a16.68,16.68,0,0,0-1.54,2.7,27.6,27.6,0,0,0-1.07,3.35l-5.29,20a6.48,6.48,0,0,0-.27,1.61,1.67,1.67,0,0,0,.69,1.57,6,6,0,0,0,2.71.41l10.82.06a4,4,0,0,0,2.76-.71,2.54,2.54,0,0,0,.68-.86,18.88,18.88,0,0,0,.61-2.13l5.6-21.19a11.55,11.55,0,0,0,.35-2.78,6.21,6.21,0,0,0-.35-1.91"/><path class="cls-1" d="M148.86,77.27l-.63,2.4a4.61,4.61,0,0,1,1.6-2,6.09,6.09,0,0,1,2.76-.43l8.57,0a7.1,7.1,0,0,1,5.49,2.1,6.68,6.68,0,0,1,1.75,4.64,17.53,17.53,0,0,1-.64,4.15L165,98.71a11.38,11.38,0,0,0-.35,2.81,5.34,5.34,0,0,0,.37,1.86l-15-.08a15.06,15.06,0,0,0,1.53-2.66,24.66,24.66,0,0,0,1.07-3.36l3-11.53a17.49,17.49,0,0,0,.45-2A1.26,1.26,0,0,0,155,82.43a6.71,6.71,0,0,0-1.32-.08l-3.07,0a3.46,3.46,0,0,0-2.13.48,3.84,3.84,0,0,0-1,2L143.8,98.6a11,11,0,0,0-.35,2.83,6.42,6.42,0,0,0,.29,1.84l-15-.08a17.37,17.37,0,0,0,1.54-2.66,24.21,24.21,0,0,0,1.09-3.36l4.06-15.28a11.11,11.11,0,0,0,.35-2.79,5.44,5.44,0,0,0-.37-1.9Z"/><path class="cls-1" d="M189,77.48l-5.6,21.31a11.18,11.18,0,0,0-.35,2.85,6.08,6.08,0,0,0,.29,1.83l-15-.07a16.08,16.08,0,0,0,1.55-2.66A26.68,26.68,0,0,0,171,97.37l4.06-15.28a11.59,11.59,0,0,0,.35-2.79,5.58,5.58,0,0,0-.37-1.89Zm2.46-9.41L189.7,75l-12.76-.07L178.77,68Z"/><path class="cls-1" d="M203,77.55l15.8.08a15.86,15.86,0,0,1,2.72.19,6.67,6.67,0,0,1,1.89.77A6.11,6.11,0,0,1,225.75,81a6.89,6.89,0,0,1,.84,3.43,11.85,11.85,0,0,1-.46,3l-2.52,9.5a13,13,0,0,1-1.2,3.18,7.15,7.15,0,0,1-1.87,2,6.41,6.41,0,0,1-2.73,1.22,23.91,23.91,0,0,1-4.67.3l-15.72-.08a24.4,24.4,0,0,1-4.1-.24,5.22,5.22,0,0,1-2.12-1.06A6.39,6.39,0,0,1,188.75,97a8.7,8.7,0,0,1,.35-2.21l3-11.39a7,7,0,0,1,3.28-4.61c1.59-.85,4.12-1.26,7.61-1.24m1.52,7.37-2.78,10.62a11.75,11.75,0,0,0-.35,1.5,1.21,1.21,0,0,0,.59,1.13,4,4,0,0,0,1.92.36l3.79,0a4.6,4.6,0,0,0,2.32-.39,3.08,3.08,0,0,0,1-1.8l2.68-10.07a7.41,7.41,0,0,0,.32-1.84,1.51,1.51,0,0,0-.62-1.38,3.83,3.83,0,0,0-2-.43l-3.22,0a5,5,0,0,0-2.51.44,3.09,3.09,0,0,0-1.08,1.86m16.17-18.25-6.94,8.41-7.18,0,5.36-8.43Z"/><path class="cls-1" d="M245.57,77.77l-.64,2.4a4.74,4.74,0,0,1,1.61-2,6.12,6.12,0,0,1,2.76-.42l8.57,0a7.12,7.12,0,0,1,5.49,2.1,6.73,6.73,0,0,1,1.75,4.65,17.68,17.68,0,0,1-.64,4.15l-2.79,10.48a10.9,10.9,0,0,0-.35,2.8,5.43,5.43,0,0,0,.37,1.87l-15-.08a14.67,14.67,0,0,0,1.52-2.66,25.13,25.13,0,0,0,1.08-3.37l3-11.52a17.43,17.43,0,0,0,.45-2,1.28,1.28,0,0,0-1.12-1.28,7.57,7.57,0,0,0-1.32-.08h-3.06a3.45,3.45,0,0,0-2.13.47,3.85,3.85,0,0,0-1,2l-3.63,13.8a11,11,0,0,0-.35,2.83,6.19,6.19,0,0,0,.29,1.84l-15-.08A17.86,17.86,0,0,0,227,101a24.43,24.43,0,0,0,1.09-3.37l4.06-15.27a11.25,11.25,0,0,0,.35-2.8,5.58,5.58,0,0,0-.37-1.89Z"/><path class="cls-1" d="M269.18,97.73a3.32,3.32,0,0,1,1.59.42,3,3,0,0,1,1.2,1.2,3.37,3.37,0,0,1,.42,1.62,3.19,3.19,0,0,1-.44,1.6,3,3,0,0,1-1.19,1.19,3.34,3.34,0,0,1-1.61.42,3.43,3.43,0,0,1-1.61-.43,3.08,3.08,0,0,1-1.19-1.21,3.18,3.18,0,0,1-.41-1.6,3.29,3.29,0,0,1,.44-1.62,3,3,0,0,1,1.21-1.19,3.29,3.29,0,0,1,1.59-.4m0,.53a2.77,2.77,0,0,0-1.33.34,2.53,2.53,0,0,0-1,1,2.74,2.74,0,0,0-.37,1.35,2.68,2.68,0,0,0,.35,1.34,2.57,2.57,0,0,0,1,1,2.72,2.72,0,0,0,1.34.36,2.58,2.58,0,0,0,1.34-.35,2.44,2.44,0,0,0,1-1,2.66,2.66,0,0,0,.36-1.33,2.62,2.62,0,0,0-.35-1.35,2.49,2.49,0,0,0-1-1,2.77,2.77,0,0,0-1.32-.35m-1.44,4.47,0-3.47H269a3.5,3.5,0,0,1,.89.1.9.9,0,0,1,.43.34.88.88,0,0,1,.16.51.87.87,0,0,1-.28.66,1.05,1.05,0,0,1-.72.32,1.09,1.09,0,0,1,.3.18,4.09,4.09,0,0,1,.51.69l.42.69H270l-.3-.55a3,3,0,0,0-.58-.81.75.75,0,0,0-.45-.12h-.33v1.47Zm.57-2H269a1.11,1.11,0,0,0,.67-.14.49.49,0,0,0,.18-.38.45.45,0,0,0-.09-.28.49.49,0,0,0-.24-.18,1.63,1.63,0,0,0-.56-.07h-.63Z"/><path class="cls-2" d="M13.58,67.59h-2L11.42,96.9v.82A4.6,4.6,0,0,0,16,102.34l31.88.16.05-3.27A34.65,34.65,0,0,1,13.58,67.59"/><path class="cls-1" d="M82.51,68h2l-.16,29.32v.81a4.6,4.6,0,0,1-4.62,4.58l-31.88-.17,0-3.27A34.66,34.66,0,0,0,82.51,68"/><path class="cls-1" d="M77.45,64.79A29.39,29.39,0,1,1,48.21,35.25,29.4,29.4,0,0,1,77.45,64.79"/><path class="cls-2" d="M16.29,64.48A31.77,31.77,0,1,0,48.22,32.87,31.8,31.8,0,0,0,16.29,64.48m2.4,0A29.37,29.37,0,1,1,47.91,94,29.4,29.4,0,0,1,18.69,64.49"/><path class="cls-1" d="M9,63.79h1.25l0-1.71a1.49,1.49,0,0,0-.12-.66H11.3a3.31,3.31,0,0,0-.13.36,2.83,2.83,0,0,0,0,.47l0,1.55,1.45,0a1.34,1.34,0,0,0,.77-.2l0,2.38a1.3,1.3,0,0,0-.77-.23L8.9,65.74a1.29,1.29,0,0,0-.76.2l.07-4.5,1-.15a2.24,2.24,0,0,0-.11.36c0,.1,0,.33,0,.71Z"/><path class="cls-1" d="M8.52,58.91l.38-2.25,4.78-1a2.1,2.1,0,0,0,.67-.29l-.43,2.56a.52.52,0,0,0-.32-.18,1.22,1.22,0,0,0-.52,0l-.58.14L12.15,60l.64.44a.79.79,0,0,0,.34.14.74.74,0,0,0,.34,0L13.23,62a3.78,3.78,0,0,0-.85-.77L8.86,58.75a.89.89,0,0,0-.34.16m3.1-.81-1.68.39,1.45,1Z"/><path class="cls-1" d="M13.22,52.06l-.21.58,1.36.48a1.3,1.3,0,0,0,.79.05l-.8,2.25a1.3,1.3,0,0,0-.64-.46L10.3,53.74a1.38,1.38,0,0,0-.79-.05l1.42-4a3.41,3.41,0,0,1,.27-.61.74.74,0,0,1,.32-.29,1,1,0,0,1,.87,0l1,.38a1,1,0,0,1,.45.25A.58.58,0,0,1,14,50l-.06.13L15.56,50a4.42,4.42,0,0,0,.8-.14l-.76,2.13Zm-1,.29.37-1a.53.53,0,0,0,0-.34.62.62,0,0,0-.32-.2l-.25-.08a.79.79,0,0,0-.46-.09c-.07,0-.14.14-.21.33l-.35,1Z"/><path class="cls-1" d="M16.24,45.57l-2-2.36,1.35-2.27a1.31,1.31,0,0,0,.54.57l3.13,1.85a1.29,1.29,0,0,0,.76.21l-1.21,2a1.23,1.23,0,0,0-.55-.57l-2.72-1.61,2.7,3.14-.71,1.19-4.05-.86,2.72,1.61a1.3,1.3,0,0,0,.77.2l-.66,1.11a1.36,1.36,0,0,0-.55-.58L12.62,47.4a1.31,1.31,0,0,0-.76-.2l1.35-2.28Z"/><path class="cls-1" d="M17.5,38.7,19,37l4.59,1.68a2.46,2.46,0,0,0,.72.1L22.6,40.73a.54.54,0,0,0-.18-.33,1.3,1.3,0,0,0-.46-.24L21.39,40,20,41.55l.32.71a1,1,0,0,0,.2.31.87.87,0,0,0,.32.15l-1,1.08a4.11,4.11,0,0,0-.32-1.11l-1.68-3.94a1.49,1.49,0,0,0-.36,0m3,1-1.63-.56.71,1.59Z"/><path class="cls-1" d="M24.48,32.11l.81.71a.86.86,0,0,0-.39.1,3.18,3.18,0,0,0-.49.34l-.83.69a1.08,1.08,0,0,0-.24.22.25.25,0,0,0-.06.17.31.31,0,0,0,0,.18,2.26,2.26,0,0,0,.21.29l1.39,1.7c.16.19.3.29.42.29a.82.82,0,0,0,.5-.24l.79-.65a2.33,2.33,0,0,0,.65-.75l.52.89-2.45,2a1.28,1.28,0,0,1-1,.31,1.11,1.11,0,0,1-.46-.18,1.83,1.83,0,0,1-.46-.44L22,36a2.26,2.26,0,0,1-.35-.53,1.1,1.1,0,0,1-.08-.49,1.25,1.25,0,0,1,.51-.95Z"/><path class="cls-1" d="M30.22,34.53l-2,1.29a1.27,1.27,0,0,0-.23-.75l-2-3a1.3,1.3,0,0,0-.6-.52l2-1.3a1.34,1.34,0,0,0,.24.76l2,3a1.3,1.3,0,0,0,.6.52"/><path class="cls-1" d="M29.79,28.87l2.05-1,3.59,3.33a2,2,0,0,0,.62.37l-2.34,1.12a.48.48,0,0,0,0-.37,1.39,1.39,0,0,0-.33-.4l-.45-.39L31,32.46l0,.78a.74.74,0,0,0,.07.36.73.73,0,0,0,.23.26l-1.3.62a4.23,4.23,0,0,0,.14-1.14l0-4.28a1.5,1.5,0,0,0-.32-.19M32.22,31,30.94,29.8l0,1.74Z"/><path class="cls-1" d="M39.06,25.43l.47,1a1,1,0,0,0-.64,0l-.21.06-1.72.5a.52.52,0,0,0-.24.13.23.23,0,0,0,0,.22l0,.17a.39.39,0,0,0,.14.23.66.66,0,0,0,.34,0l1.22-.36a3.87,3.87,0,0,1,.7-.15.85.85,0,0,1,.39.08,1.15,1.15,0,0,1,.53.72l.39,1.36a1.08,1.08,0,0,1-.1.88,1,1,0,0,1-.31.3,2.71,2.71,0,0,1-.61.23l-3.27.94-.47-.93a1.74,1.74,0,0,0,.44,0,5.36,5.36,0,0,0,.69-.17l1.43-.41a1.09,1.09,0,0,0,.3-.11.17.17,0,0,0,.07-.1.65.65,0,0,0,0-.18l0-.15a.37.37,0,0,0-.12-.23.2.2,0,0,0-.19,0l-1.4.4a3.16,3.16,0,0,1-.68.15.66.66,0,0,1-.4-.06,1.06,1.06,0,0,1-.52-.74l-.4-1.36a1,1,0,0,1,.1-.87.88.88,0,0,1,.31-.3,2.79,2.79,0,0,1,.6-.23Z"/><path class="cls-1" d="M42.86,29.9a1.32,1.32,0,0,0,.16-.77l-.25-3.63a1.28,1.28,0,0,0-.27-.74l4.25-.29a1.62,1.62,0,0,1,.58.07,1.16,1.16,0,0,1,.47.28,1.57,1.57,0,0,1,.36,1l.15,2.2a1.62,1.62,0,0,1-.21,1.08,1.33,1.33,0,0,1-.43.33,1.42,1.42,0,0,1-.57.15Zm2.1-1,.93-.06c.22,0,.35-.06.41-.14a.9.9,0,0,0,.07-.5L46.21,26a.93.93,0,0,0-.09-.44.52.52,0,0,0-.46-.13l-.94.07Z"/><path class="cls-1" d="M51.38,25.46l-.11,1.25,1.57.14a1.89,1.89,0,0,0,.75-.05l-.1,1.09a1,1,0,0,0-.57-.19l-1.73-.15-.11,1.36,1.9.16a2.19,2.19,0,0,0,.75-.11l-.26,1-4.63-.4a1.32,1.32,0,0,0,.28-.74l.32-3.62a1.38,1.38,0,0,0-.14-.78l4.51.4.07,1a1.8,1.8,0,0,0-.36-.13A3.56,3.56,0,0,0,53,25.6Z"/><path class="cls-2" d="M55.83,30.38a1.27,1.27,0,0,0,.43-.66l1.1-3.46a1.34,1.34,0,0,0,0-.79l4.06,1.28A1.75,1.75,0,0,1,62,27a1.21,1.21,0,0,1,.33.43,1.53,1.53,0,0,1,0,1.09l-.66,2.11a1.63,1.63,0,0,1-.6.92,1.38,1.38,0,0,1-.52.15,1.43,1.43,0,0,1-.58-.07Zm2.32-.15.89.28a.54.54,0,0,0,.43,0,.81.81,0,0,0,.25-.44l.68-2.15a1.1,1.1,0,0,0,.07-.45c0-.12-.17-.21-.38-.28l-.89-.28Z"/><path class="cls-2" d="M65.34,29.35l-.56,1.13,1.42.7a1.67,1.67,0,0,0,.71.22l-.49,1A1,1,0,0,0,66,32l-1.54-.78-.61,1.22,1.71.85a2.11,2.11,0,0,0,.73.17l-.61.84-4.15-2.07a1.3,1.3,0,0,0,.53-.59l1.63-3.25a1.36,1.36,0,0,0,.14-.77l4.06,2-.3.93a1.8,1.8,0,0,0-.28-.25,3.83,3.83,0,0,0-.48-.26Z"/><path class="cls-2" d="M72.68,32.91l-.45,1a1.07,1.07,0,0,0-.38-.5l-.19-.13-1.46-1a.45.45,0,0,0-.26-.11c-.06,0-.12,0-.18.13l-.1.14c-.08.11-.11.19-.09.25s.1.14.25.24l1,.73a3.65,3.65,0,0,1,.55.44.7.7,0,0,1,.19.36,1.11,1.11,0,0,1-.23.86l-.81,1.16a1,1,0,0,1-.74.47.87.87,0,0,1-.43-.05,2.88,2.88,0,0,1-.56-.33l-2.8-2,.44-.94a1.37,1.37,0,0,0,.25.35,4.16,4.16,0,0,0,.56.43l1.23.86a1.34,1.34,0,0,0,.27.17.22.22,0,0,0,.12,0l.11-.13.1-.14a.46.46,0,0,0,.1-.23.21.21,0,0,0-.12-.16l-1.19-.83a4.61,4.61,0,0,1-.54-.44.76.76,0,0,1-.21-.35,1.11,1.11,0,0,1,.25-.87l.81-1.16a1.06,1.06,0,0,1,.74-.48,1,1,0,0,1,.43.05,3.21,3.21,0,0,1,.56.33Z"/><path class="cls-2" d="M76.94,36.77l-.59.9a1,1,0,0,0-.15-.38,3.27,3.27,0,0,0-.4-.43L75,36.12a2.06,2.06,0,0,0-.25-.21.29.29,0,0,0-.18,0,.35.35,0,0,0-.17.06l-.27.26-1.5,1.6a.65.65,0,0,0-.23.45.79.79,0,0,0,.3.46l.74.7a2.54,2.54,0,0,0,.83.55l-.81.63-2.3-2.17a1.29,1.29,0,0,1-.44-1,1.21,1.21,0,0,1,.11-.48,2.38,2.38,0,0,1,.39-.51l1.51-1.61a2.28,2.28,0,0,1,.48-.41,1.13,1.13,0,0,1,.47-.14,1.28,1.28,0,0,1,1,.38Z"/><path class="cls-2" d="M79.28,39.53a1.29,1.29,0,0,0-.74.3l-2.32,1.8a1.15,1.15,0,0,0-.32.33.57.57,0,0,0,.15.45l1,1.25c.13.17.24.26.34.26a.85.85,0,0,0,.45-.23l2.32-1.8a1.22,1.22,0,0,0,.47-.64l.79,1a1.32,1.32,0,0,0-.74.3l-2.3,1.79a2.44,2.44,0,0,1-.54.33,1.27,1.27,0,0,1-.49.06,1.26,1.26,0,0,1-.94-.54L74.68,42A1.27,1.27,0,0,1,74.4,41a1.17,1.17,0,0,1,.18-.46,2.84,2.84,0,0,1,.46-.43l2.31-1.79a1.34,1.34,0,0,0,.47-.64Z"/><path class="cls-2" d="M82.21,45.43,81.1,46l.77,1.38a1.88,1.88,0,0,0,.45.59l-1,.53A1,1,0,0,0,81.2,48l-.84-1.52-1.19.66.93,1.67a2,2,0,0,0,.51.56l-1,.35L77.39,45.6a1.25,1.25,0,0,0,.77-.17l3.18-1.75a1.3,1.3,0,0,0,.56-.56l2.19,4-.77.59a2.31,2.31,0,0,0-.09-.36c0-.09-.12-.25-.25-.49Z"/><path class="cls-2" d="M85.55,50.75,82.36,54l3.15-1.13a1.38,1.38,0,0,0,.64-.46l.44,1.21a1.3,1.3,0,0,0-.79.05l-4.14,1.49-.84-2.35,3.24-3.37L80.83,50.6a1.31,1.31,0,0,0-.64.46l-.43-1.21a1.24,1.24,0,0,0,.79-.06L84,48.57a1.31,1.31,0,0,0,.64-.46Z"/><path class="cls-2" d="M82,56.66a1.3,1.3,0,0,0,.79.07l3.48-.66-.17-.9a2,2,0,0,0-.11-.39.77.77,0,0,0-.17-.26l1,0,.9,4.75-1,.34a.92.92,0,0,0,.07-.3,1.85,1.85,0,0,0,0-.4l-.17-.9-3.48.66a1.35,1.35,0,0,0-.71.36Z"/><path class="cls-2" d="M87.89,61.84l.08,3a1.61,1.61,0,0,1-.1.58,1.25,1.25,0,0,1-.29.46,1.56,1.56,0,0,1-1,.31l-2.21.06A1.52,1.52,0,0,1,83.26,66a1.22,1.22,0,0,1-.32-.44,1.58,1.58,0,0,1-.13-.57l-.08-3a1.65,1.65,0,0,1,.1-.58,1.13,1.13,0,0,1,.29-.45,1.51,1.51,0,0,1,1-.32l2.21-.06a1.57,1.57,0,0,1,1.06.26,1.12,1.12,0,0,1,.32.44,1.63,1.63,0,0,1,.13.58m-1.44.67-2.25.06a1.05,1.05,0,0,0-.45.08.52.52,0,0,0-.14.45l0,.7a.54.54,0,0,0,.12.42.84.84,0,0,0,.5.08l2.25-.06a1.09,1.09,0,0,0,.45-.07.56.56,0,0,0,.14-.46l0-.77a.4.4,0,0,0-.13-.35,1,1,0,0,0-.49-.08"/><path class="cls-3" d="M70.45,46.78a28.72,28.72,0,0,1-44.7,36,28.72,28.72,0,1,0,44.7-36"/><path class="cls-4" d="M25.76,82.84a28.72,28.72,0,0,1,44.7-36.05,28.72,28.72,0,1,0-44.7,36.05"/><path class="cls-5" d="M18.18,56.51A31.34,31.34,0,0,1,69.1,41.45a31.34,31.34,0,1,0-42,46.49,31.38,31.38,0,0,1-8.9-31.43"/><path class="cls-6" d="M78,72.86A31.36,31.36,0,0,1,39.36,94.6a31,31,0,0,1-12.31-6.69,31.33,31.33,0,1,0,42-46.48A31.38,31.38,0,0,1,78,72.86"/><path class="cls-4" d="M57.65,98.69A26.75,26.75,0,0,0,81.37,75.81,32.58,32.58,0,0,1,57.65,98.69"/><path class="cls-6" d="M39.26,98.87c-9.83-1.07-11.92-6.43-11.43-5.46,1.72,1.47,4.18,4,11.43,5.46"/><polygon class="cls-6" points="27.62 101.86 47.2 101.96 47.22 99.61 46.57 101.36 27.62 101.86"/><path class="cls-5" d="M14.51,99.24c-2.3-2.33-1.82-22.42-1.82-22.42l-.11,21.73h0a2.89,2.89,0,0,0,2.88,2.84l5.34,0s-4,.15-6.3-2.18"/><path class="cls-3" d="M81.15,99.58c2.33-2.31,2-22.4,2-22.4l-.11,21.73h0a2.9,2.9,0,0,1-2.92,2.81L64,101.65s14.83.23,17.16-2.07"/><path class="cls-7" d="M62.61,47.27a17.53,17.53,0,0,1,2.83.23,16.56,16.56,0,0,1,.25,2.88,17.53,17.53,0,0,1-6,13.11h0A18.44,18.44,0,0,1,58,64.84h0a17.71,17.71,0,0,1-3.24,1.74c-.07.72-.17,1.43-.3,2.14a19.75,19.75,0,0,0,5.09-2.66h0a17.13,17.13,0,0,0,1.5-1.2h0a19.31,19.31,0,0,0,6.19-18.38l-.12-.62-.62-.13a19.73,19.73,0,0,0-3.85-.37,19.43,19.43,0,0,0-13.26,5.16c.42.47.82,1,1.2,1.46a17.48,17.48,0,0,1,12-4.71"/><path class="cls-7" d="M33.43,82.31a17.53,17.53,0,0,1-2.83-.23,16.56,16.56,0,0,1-.25-2.88,17.5,17.5,0,0,1,6-13.13h0l.1-.08,0,0h0a18,18,0,0,1,1.56-1.2h0A16.7,16.7,0,0,1,41.3,63c.07-.73.17-1.44.31-2.15a19.75,19.75,0,0,0-5.09,2.66h0A17.25,17.25,0,0,0,35,64.73,19.29,19.29,0,0,0,28.83,83.1l.12.62.62.13a19.73,19.73,0,0,0,3.85.37,19.4,19.4,0,0,0,13.26-5.16c-.42-.47-.83-1-1.2-1.46a17.48,17.48,0,0,1-12,4.71"/><path class="cls-7" d="M44.92,64.77a16.85,16.85,0,0,1,.14-2h0a16.48,16.48,0,0,1,.58-2.81h0l0-.1.12-.41h0A17.05,17.05,0,0,1,47,56.55a14.57,14.57,0,0,0-1.2-1.71,19.27,19.27,0,0,0-2.24,5.46h0a19.7,19.7,0,0,0-.38,2.06h0a19.09,19.09,0,0,0-.17,2.4v.49a15.64,15.64,0,0,0,1.93.51c0-.33,0-.65,0-1"/><path class="cls-7" d="M52.85,67.22v-.1c0-.24.06-.48.08-.73h0c.05-.52.08-1,.08-1.57,0-.16,0-.31,0-.46a15.74,15.74,0,0,0-1.93-.54q0,.5,0,1a16.57,16.57,0,0,1-.27,2.84h0a16.9,16.9,0,0,1-.62,2.57h0A17.9,17.9,0,0,1,49,73a15.43,15.43,0,0,0,1.21,1.7,19.27,19.27,0,0,0,2.24-5.46h0a19.7,19.7,0,0,0,.38-2.06h0"/><path class="cls-7" d="M48,67.89a16.57,16.57,0,0,1-2.84-.27h0A15.79,15.79,0,0,1,42.57,67h0a18.14,18.14,0,0,1-2.79-1.19,15.34,15.34,0,0,0-1.7,1.2,19.27,19.27,0,0,0,5.46,2.24h0a19.7,19.7,0,0,0,2.06.38h0l.38,0,.37,0a15.2,15.2,0,0,0,1.65.09h.49A15.64,15.64,0,0,0,49,67.86c-.33,0-.65,0-1,0"/><path class="cls-7" d="M48,61.69a15.38,15.38,0,0,1,1.93.13h0a17.14,17.14,0,0,1,2.9.6h0a17.34,17.34,0,0,1,3.39,1.38A15.58,15.58,0,0,0,58,62.59a19.62,19.62,0,0,0-5.34-2.21A20.15,20.15,0,0,0,50.45,60h0a19.09,19.09,0,0,0-2.4-.17h-.48a14.08,14.08,0,0,0-.52,1.93q.48,0,1,0"/><path class="cls-7" d="M30.5,50.2a17.08,17.08,0,0,1,.24-2.87,18.34,18.34,0,0,1,2.87-.21,17.53,17.53,0,0,1,13.14,6h0l.07.09,0,.05h0a18,18,0,0,1,1.2,1.56h0a16.7,16.7,0,0,1,1.73,3.23c.73.07,1.44.18,2.15.31a19.91,19.91,0,0,0-2.66-5.09h0c-.37-.52-.78-1-1.2-1.5h0a19.41,19.41,0,0,0-14.47-6.57,19.07,19.07,0,0,0-3.9.34l-.61.12L29,46.3a19.61,19.61,0,0,0,4.77,17.15c.47-.42,1-.82,1.46-1.2a17.48,17.48,0,0,1-4.71-12"/><path class="cls-7" d="M60.83,67.33a17.48,17.48,0,0,1,4.71,12,16.74,16.74,0,0,1-.24,2.82,15.68,15.68,0,0,1-2.87.26,17.52,17.52,0,0,1-13.15-6h0l0,0-.09-.1h0A16.29,16.29,0,0,1,48,74.74h0a17.79,17.79,0,0,1-1.74-3.25,18.82,18.82,0,0,1-2.13-.3,19.26,19.26,0,0,0,2.65,5.09h0a17.13,17.13,0,0,0,1.2,1.5h0A19,19,0,0,0,66.33,84l.62-.12.13-.62a20,20,0,0,0,.37-3.82A19.44,19.44,0,0,0,62.3,66.13c-.48.43-1,.82-1.47,1.2"/></svg>