<svg id="Capa_1" data-name="Capa 1" xmlns="http://www.w3.org/2000/svg" xmlns:xlink="http://www.w3.org/1999/xlink" viewBox="0 0 123.81 125"><defs><style>.cls-1{fill:none;clip-rule:evenodd;}.cls-2{fill:url(#GradientFill_1);}.cls-3,.cls-6{fill:#cc3a2b;}.cls-11,.cls-12,.cls-13,.cls-14,.cls-15,.cls-16,.cls-4,.cls-6,.cls-7,.cls-8,.cls-9{fill-rule:evenodd;}.cls-4{fill:url(#Degradado_sin_nombre_20);}.cls-15,.cls-5{fill:#fff;}.cls-7{fill:url(#GradientFill_2);}.cls-8{fill:url(#GradientFill_2-2);}.cls-9{fill:url(#Degradado_sin_nombre_38);}.cls-10{clip-path:url(#clip-path);}.cls-11{fill:url(#GradientFill_4);}.cls-12{fill:#001b6d;}.cls-13{fill:url(#Degradado_sin_nombre_30);}.cls-14{fill:url(#Degradado_sin_nombre_20-2);}.cls-16{fill:#f2f2f3;}.cls-17{fill:#b63b38;}.cls-18{fill:url(#Degradado_sin_nombre_20-3);}.cls-19{fill:url(#Degradado_sin_nombre_20-4);}.cls-20{fill:url(#Degradado_sin_nombre_20-5);}.cls-21{fill:url(#Degradado_sin_nombre_20-6);}.cls-22{fill:url(#Degradado_sin_nombre_20-7);}.cls-23{fill:url(#Degradado_sin_nombre_20-8);}.cls-24{fill:url(#Degradado_sin_nombre_20-9);}.cls-25{fill:url(#Degradado_sin_nombre_20-10);}.cls-26{fill:url(#Degradado_sin_nombre_20-11);}.cls-27{fill:url(#Degradado_sin_nombre_20-12);}.cls-28{fill:url(#Degradado_sin_nombre_20-13);}.cls-29{fill:url(#Degradado_sin_nombre_20-14);}.cls-30{fill:url(#Degradado_sin_nombre_20-15);}.cls-31{fill:url(#Degradado_sin_nombre_20-16);}.cls-32{fill:url(#Degradado_sin_nombre_20-17);}.cls-33{fill:url(#Degradado_sin_nombre_20-18);}.cls-34{fill:url(#Degradado_sin_nombre_20-19);}.cls-35{fill:#263f8f;}</style><linearGradient id="GradientFill_1" x1="6.42" y1="56.28" x2="117.62" y2="56.28" gradientUnits="userSpaceOnUse"><stop offset="0" stop-color="#b1acae"/><stop offset="0.12" stop-color="#e1e1dd"/><stop offset="0.25" stop-color="#fff"/><stop offset="0.39" stop-color="#c7c9c7"/><stop offset="0.58" stop-color="#a3a5ac"/><stop offset="0.75" stop-color="#cacbce"/><stop offset="1" stop-color="#fff"/></linearGradient><linearGradient id="Degradado_sin_nombre_20" x1="-62.98" y1="314.17" x2="-62.98" y2="217.18" gradientTransform="translate(120.48 -210.83) rotate(-0.99)" gradientUnits="userSpaceOnUse"><stop offset="0" stop-color="#001b6d"/><stop offset="1" stop-color="#007fc4"/></linearGradient><linearGradient id="GradientFill_2" x1="-103.82" y1="262.49" x2="-103.82" y2="274.36" gradientTransform="translate(120.48 -210.83) rotate(-0.99)" gradientUnits="userSpaceOnUse"><stop offset="0" stop-color="#373469"/><stop offset="1" stop-color="#3b7aac"/></linearGradient><linearGradient id="GradientFill_2-2" x1="-22.25" y1="262.49" x2="-22.25" y2="274.37" xlink:href="#GradientFill_2"/><linearGradient id="Degradado_sin_nombre_38" x1="-62.12" y1="295.27" x2="-62.12" y2="234.58" gradientTransform="translate(120.48 -210.83) rotate(-0.99)" gradientUnits="userSpaceOnUse"><stop offset="0" stop-color="#72acb6"/><stop offset="0.21" stop-color="#75aeb8"/><stop offset="0.37" stop-color="#7fb4bd"/><stop offset="0.53" stop-color="#90bec6"/><stop offset="0.67" stop-color="#a8ccd2"/><stop offset="0.81" stop-color="#c7dee2"/><stop offset="0.94" stop-color="#ecf4f5"/><stop offset="1" stop-color="#fff"/></linearGradient><clipPath id="clip-path"><path class="cls-1" d="M62.42,24.8C79.55,24.5,93.67,37.85,94,54.61S80.6,85.19,63.47,85.48s-31.24-13-31.53-29.8S45.3,25.1,62.42,24.8Z"/></clipPath><linearGradient id="GradientFill_4" x1="-108.65" y1="258.85" x2="-18.46" y2="258.85" gradientTransform="translate(120.48 -210.83) rotate(-0.99)" gradientUnits="userSpaceOnUse"><stop offset="0" stop-color="#fff"/><stop offset="1" stop-color="#fff"/></linearGradient><linearGradient id="Degradado_sin_nombre_30" x1="-61.49" y1="258.56" x2="-61.49" y2="296.75" xlink:href="#Degradado_sin_nombre_20"/><linearGradient id="Degradado_sin_nombre_20-2" x1="104.19" y1="716.82" x2="104.19" y2="654.56" gradientTransform="matrix(0.94, 0.34, -0.34, 0.94, 199.7, -624.78)" xlink:href="#Degradado_sin_nombre_20"/><linearGradient id="Degradado_sin_nombre_20-3" x1="12.7" y1="102.92" x2="12.7" y2="96.58" gradientTransform="matrix(1, 0, 0, 1, 0, 0)" xlink:href="#Degradado_sin_nombre_20"/><linearGradient id="Degradado_sin_nombre_20-4" x1="18.49" y1="105.28" x2="18.49" y2="97.15" gradientTransform="matrix(1, 0, 0, 1, 0, 0)" xlink:href="#Degradado_sin_nombre_20"/><linearGradient id="Degradado_sin_nombre_20-5" x1="22.58" y1="110.77" x2="22.58" y2="102.16" gradientTransform="matrix(1, 0, 0, 1, 0, 0)" xlink:href="#Degradado_sin_nombre_20"/><linearGradient id="Degradado_sin_nombre_20-6" x1="30.25" y1="114.45" x2="30.25" y2="107.11" gradientTransform="matrix(1, 0, 0, 1, 0, 0)" xlink:href="#Degradado_sin_nombre_20"/><linearGradient id="Degradado_sin_nombre_20-7" x1="33.87" y1="118.47" x2="33.87" y2="111.15" gradientTransform="matrix(1, 0, 0, 1, 0, 0)" xlink:href="#Degradado_sin_nombre_20"/><linearGradient id="Degradado_sin_nombre_20-8" x1="40.23" y1="119.85" x2="40.23" y2="113.39" gradientTransform="matrix(1, 0, 0, 1, 0, 0)" xlink:href="#Degradado_sin_nombre_20"/><linearGradient id="Degradado_sin_nombre_20-9" x1="47.97" y1="123.48" x2="47.97" y2="115.31" gradientTransform="matrix(1, 0, 0, 1, 0, 0)" xlink:href="#Degradado_sin_nombre_20"/><linearGradient id="Degradado_sin_nombre_20-10" x1="56.68" y1="124.15" x2="56.68" y2="117.33" gradientTransform="matrix(1, 0, 0, 1, 0, 0)" xlink:href="#Degradado_sin_nombre_20"/><linearGradient id="Degradado_sin_nombre_20-11" x1="63.37" y1="124.14" x2="63.37" y2="117.42" gradientTransform="matrix(1, 0, 0, 1, 0, 0)" xlink:href="#Degradado_sin_nombre_20"/><linearGradient id="Degradado_sin_nombre_20-12" x1="67.95" y1="123.73" x2="67.95" y2="114.84" gradientTransform="matrix(1, 0, 0, 1, 0, 0)" xlink:href="#Degradado_sin_nombre_20"/><linearGradient id="Degradado_sin_nombre_20-13" x1="73.35" y1="123.44" x2="73.35" y2="116.46" gradientTransform="matrix(1, 0, 0, 1, 0, 0)" xlink:href="#Degradado_sin_nombre_20"/><linearGradient id="Degradado_sin_nombre_20-14" x1="82.36" y1="121.49" x2="82.36" y2="114.29" gradientTransform="matrix(1, 0, 0, 1, 0, 0)" xlink:href="#Degradado_sin_nombre_20"/><linearGradient id="Degradado_sin_nombre_20-15" x1="90.32" y1="119.15" x2="90.32" y2="109.9" gradientTransform="matrix(1, 0, 0, 1, 0, 0)" xlink:href="#Degradado_sin_nombre_20"/><linearGradient id="Degradado_sin_nombre_20-16" x1="96.09" y1="113.96" x2="96.09" y2="105.74" gradientTransform="matrix(1, 0, 0, 1, 0, 0)" xlink:href="#Degradado_sin_nombre_20"/><linearGradient id="Degradado_sin_nombre_20-17" x1="101.49" y1="113.45" x2="101.49" y2="103.82" gradientTransform="matrix(1, 0, 0, 1, 0, 0)" xlink:href="#Degradado_sin_nombre_20"/><linearGradient id="Degradado_sin_nombre_20-18" x1="106.68" y1="107.23" x2="106.68" y2="99.8" gradientTransform="matrix(1, 0, 0, 1, 0, 0)" xlink:href="#Degradado_sin_nombre_20"/><linearGradient id="Degradado_sin_nombre_20-19" x1="108.97" y1="102.38" x2="108.97" y2="95.07" gradientTransform="matrix(1, 0, 0, 1, 0, 0)" xlink:href="#Degradado_sin_nombre_20"/></defs><ellipse class="cls-2" cx="62.02" cy="56.28" rx="55.6" ry="54.24"/><ellipse class="cls-3" cx="62.1" cy="55.91" rx="53.05" ry="51.9" transform="translate(-0.96 1.08) rotate(-0.99)"/><path class="cls-4" d="M62.94,104.4c28.21-.48,50.72-22.6,50.25-49.37S89.48,6.93,61.26,7.42,10.54,30,11,56.79,34.72,104.89,62.94,104.4Z"/><ellipse class="cls-5" cx="62.1" cy="55.91" rx="48.85" ry="46.36" transform="translate(-0.96 1.08) rotate(-0.99)"/><path class="cls-6" d="M21.46,43.31a.67.67,0,0,1-.43-.56,1.89,1.89,0,0,1,.23-.91c.22-.41.45-.89.71-1.42s.47-1,.64-1.35c.24-.52.45-1,.63-1.4s.36-.87.53-1.37a1,1,0,0,1,1-.42,3.3,3.3,0,0,1,1.29.28,1,1,0,0,1,.58.49.63.63,0,0,1,0,.52,1.35,1.35,0,0,1-1,.53,1.5,1.5,0,0,0-1.09.82l-.45.76A.72.72,0,0,0,24,40a1.29,1.29,0,0,0,.62.46l.69.32c.16.07.28.1.36.06s.16-.13.24-.31c.19-.5.11-.8-.22-.91s-.43-.39-.27-.83c.08-.18.27-.29.59-.31a3.09,3.09,0,0,1,1.38.36,5.89,5.89,0,0,1,1.58.94.72.72,0,0,1,.25.88.69.69,0,0,1-.93.21.73.73,0,0,0-1,.32c-.09.21-.1.36,0,.44a.8.8,0,0,0,.35.21l.86.37c.68.26,1.09.22,1.21-.11s.4-.43.86-.27a.69.69,0,0,1,.43.74,5.57,5.57,0,0,1-.64,1.94,5.24,5.24,0,0,1-1.3,1.95.68.68,0,0,1-.78.05c-.34-.2-.46-.42-.36-.68s-.19-.55-.86-.89q-.64-.36-1.65-.81l-1.68-.75c-1-.41-1.54-.49-1.63-.23s-.3.33-.67.21ZM34.92,33.09a.43.43,0,0,1,.12.58q-.18.3.18.63c.3.21.64.15,1-.19a10.24,10.24,0,0,0,1.35-1.5,6.58,6.58,0,0,0,1-1.59c.17-.44.12-.76-.14-1a.56.56,0,0,0-.72,0,1,1,0,0,1-.8.18c-.61-.12-1.25-.26-1.93-.44l-2-.53c-.68-.17-1.33-.31-1.95-.41a6.57,6.57,0,0,0-1.67-.1,1.24,1.24,0,0,0-.54.13,2.41,2.41,0,0,0-.75.68,1.48,1.48,0,0,0-.32.46.85.85,0,0,0-.06.36.78.78,0,0,0,.08.32A1.5,1.5,0,0,0,28,31a5.6,5.6,0,0,1,.47.58,14.12,14.12,0,0,1,.78,1.26l2,3.66q.59,1,.3,1.44t.15.78a.69.69,0,0,0,.84,0,4.34,4.34,0,0,0,.92-.91,5.18,5.18,0,0,0,.82-1.26.67.67,0,0,0-.2-.86c-.28-.17-.49-.17-.64,0a.4.4,0,0,1-.58.07.42.42,0,0,1-.12-.57,4.41,4.41,0,0,1,.56-.8,8.56,8.56,0,0,1,.88-1c.3-.28.53-.37.69-.26Zm-3.27.66-.61-1c-.23-.4-.3-.66-.24-.81s.43-.1.9,0,.87.2,1.19.29l-1.24,1.55ZM35,22.48l.86-.63,1.85-1.4.81-.6A3.51,3.51,0,0,1,40.8,19a2.18,2.18,0,0,1,1.6.88,1.88,1.88,0,0,1,.46,1.2,2,2,0,0,1-.37,1.08c0,.05,0,.11,0,.18a.16.16,0,0,0,.2.06,2.77,2.77,0,0,1,1-.2,2.54,2.54,0,0,1,1.74.93c.42.48.74.64,1,.46s.47-.12.72.14a.77.77,0,0,1,0,.81A3.55,3.55,0,0,1,46,25.83a2.31,2.31,0,0,1-1.77.53,3.22,3.22,0,0,1-1.38-.69,13.05,13.05,0,0,0-1.11-.86.81.81,0,0,0-1,0,.42.42,0,0,0-.16.13.89.89,0,0,0-.08.17l1,1.24c.34.38.62.52.84.41s.46,0,.71.24.15.56-.13.89a8.2,8.2,0,0,1-1.4,1.22,8.19,8.19,0,0,1-1.35.85c-.46.23-.82.21-1.08-.07s-.19-.33-.15-.43a2.32,2.32,0,0,0,.14-.35,1.13,1.13,0,0,0-.12-.7A7.59,7.59,0,0,0,38,26.9l-1.81-2.35c-.45-.52-.81-.72-1.07-.59a.57.57,0,0,1-.72-.12.65.65,0,0,1-.06-.54,1.6,1.6,0,0,1,.64-.82Zm3.42-.74a.39.39,0,0,0-.17.25.37.37,0,0,0,0,.25l.62.84.49.64a.21.21,0,0,0,.24.05.83.83,0,0,0,.25-.12.9.9,0,0,0,.36-.59,1.1,1.1,0,0,0-.26-.77l-.29-.38a1,1,0,0,0-.52-.36.86.86,0,0,0-.76.19ZM46,16.15a.72.72,0,0,0,.64.54c.29,0,.55.38.77,1.07l.7,2.78a5.25,5.25,0,0,1,.22,1.56,1.07,1.07,0,0,1-.21.65L47.8,23c-.1.07-.11.21-.06.42a.58.58,0,0,0,.46.44,2.07,2.07,0,0,0,1-.05l.77-.18a3.92,3.92,0,0,0,1-.36.59.59,0,0,0,.32-.65c-.12-.35-.31-.51-.56-.49a.52.52,0,0,1-.53-.4,6.67,6.67,0,0,1-.29-1c-.09-.4-.16-.75-.21-1.07a.17.17,0,0,1,0-.18.31.31,0,0,1,.2-.13c.1,0,.29.16.54.5s.56.73.89,1.18a12.56,12.56,0,0,0,1,1.17c.31.33.58.48.79.45s.28-.3.37-.72.18-.9.25-1.44.15-1,.24-1.42.2-.64.34-.69a.27.27,0,0,1,.26,0,.29.29,0,0,1,.12.22l.2.73a6.21,6.21,0,0,1,.15.75c.08.43,0,.71-.18.83a.62.62,0,0,0-.22.68.67.67,0,0,0,.62.49,3.73,3.73,0,0,0,1.34-.12l1.13-.28A3.75,3.75,0,0,0,59,21.24a.67.67,0,0,0,.28-.73c-.07-.22-.15-.35-.25-.38L58.7,20c-.13,0-.27-.19-.42-.44a5.79,5.79,0,0,1-.48-1.37l-.69-2.71c-.17-.84-.15-1.33.07-1.47a.66.66,0,0,0,.28-.67.7.7,0,0,0-.46-.49,2.27,2.27,0,0,0-1.29,0l-.73.18a3.87,3.87,0,0,0-.77.26.82.82,0,0,0-.47.46,4.27,4.27,0,0,0-.35,1c-.11.4-.2.81-.28,1.23s-.17.79-.25,1.09-.15.46-.23.49l-.25.06c-.09,0-.25-.09-.47-.31l-.74-.8-.85-.93a7.1,7.1,0,0,0-.73-.69.89.89,0,0,0-.74-.24,4,4,0,0,0-.89.15l-.64.16a2.57,2.57,0,0,0-1,.44.72.72,0,0,0-.35.73ZM66.19,20c0-.19-.21-.32-.61-.4a8.9,8.9,0,0,0-1.33-.14,4.51,4.51,0,0,0-1,0,.43.43,0,0,0-.4.42c0,.27.14.41.38.43s.37.18.38.5a.7.7,0,0,1-.61.66,5.88,5.88,0,0,1-1.52.06,4.45,4.45,0,0,1-1.29-.21.67.67,0,0,1-.51-.66q.08-.57.57-.57c.33,0,.68-.35,1-1.07l1.9-3.72c.29-.58.49-1,.61-1.34a5.65,5.65,0,0,0,.21-.71,2.08,2.08,0,0,1,.1-.34.8.8,0,0,1,.22-.25.72.72,0,0,1,.34-.15,1.49,1.49,0,0,1,.57,0,2.35,2.35,0,0,1,1,.22,1.39,1.39,0,0,1,.42.35,6.74,6.74,0,0,1,.87,1.4c.27.55.53,1.15.77,1.79L69,18.22c.24.64.48,1.24.73,1.8a.94.94,0,0,0,.61.54c.26.06.39.26.4.59s-.26.54-.72.65a6.74,6.74,0,0,1-1.92.11,10.66,10.66,0,0,1-2-.23c-.51-.12-.76-.35-.75-.71s.19-.49.42-.51a.44.44,0,0,0,.42-.43Zm-2.43-2.24,2,.1c-.1-.31-.25-.68-.43-1.12s-.35-.67-.51-.72-.34.25-.54.65-.38.77-.53,1.09Zm15.29-2.28a5,5,0,0,1,1.24.72,4.78,4.78,0,0,0,.74.53l.71.16a1.16,1.16,0,0,1,.57.94,3.07,3.07,0,0,1-.17,1.59,1.86,1.86,0,0,1-.55.77,1.13,1.13,0,0,1-1.11.1,1.05,1.05,0,0,1-.59-.58,6.28,6.28,0,0,1-.24-.86,2.44,2.44,0,0,0-.38-.9,2,2,0,0,0-1-.7,1.38,1.38,0,0,0-1.11,0,1.92,1.92,0,0,0-.87,1.09,3.48,3.48,0,0,0-.08,2.51,2.58,2.58,0,0,0,1.49,1.54,2.3,2.3,0,0,0,1.65.1,1.37,1.37,0,0,1,.86-.19.52.52,0,0,1,.32.34,1,1,0,0,1,0,.62,2.34,2.34,0,0,1-.53.79,1.89,1.89,0,0,1-.67.44.62.62,0,0,1-.26,0,1.18,1.18,0,0,1-.38-.07,3.68,3.68,0,0,1-1.09.14,6.05,6.05,0,0,1-2-.37,4.59,4.59,0,0,1-2.77-2.7,4.71,4.71,0,0,1,0-3.27,4.87,4.87,0,0,1,2.59-2.68,4.92,4.92,0,0,1,3.7-.11Zm10.17,7a.69.69,0,0,0,0-.82,5.26,5.26,0,0,0-1.43-1.28,6.25,6.25,0,0,0-1.65-.86c-.45-.14-.77-.08-1,.17a.62.62,0,0,0,0,.76c.18.21.11.56-.2,1.06l-2,2.78c-.65.83-1.1,1.17-1.36,1s-.55,0-.86.29a.55.55,0,0,0,0,.58,2.49,2.49,0,0,0,.48.64,5.58,5.58,0,0,0,.66.57l.52.38a6.06,6.06,0,0,0,1.64.86.72.72,0,0,0,.85-.22q.3-.5,0-.75c-.18-.17-.09-.52.25-1.07l2.2-3.06c.5-.64.88-.91,1.13-.83a.62.62,0,0,0,.71-.22Zm1.23,10.06c.14-.15.08-.38-.15-.71a8.38,8.38,0,0,0-.85-1,4.54,4.54,0,0,0-.72-.67.45.45,0,0,0-.59,0,.38.38,0,0,0,0,.57c.16.18.13.38-.09.63a.71.71,0,0,1-.9.05,5.34,5.34,0,0,1-1.14-1,4,4,0,0,1-.77-1,.63.63,0,0,1,.1-.81.55.55,0,0,1,.81,0c.24.22.74.2,1.5-.07l4-1.38A14,14,0,0,0,93,26.57a5.43,5.43,0,0,0,.66-.36A1.57,1.57,0,0,1,94,26a.86.86,0,0,1,.34,0,.7.7,0,0,1,.36.12,1.69,1.69,0,0,1,.41.37,2.22,2.22,0,0,1,.56.84,1.19,1.19,0,0,1,.06.54,6.38,6.38,0,0,1-.37,1.6c-.2.58-.44,1.19-.72,1.81s-.56,1.25-.85,1.88S93.24,34.38,93,35a.9.9,0,0,0,0,.81.53.53,0,0,1-.12.69c-.25.22-.58.21-1,0a6.71,6.71,0,0,1-1.46-1.23,11.06,11.06,0,0,1-1.3-1.54c-.28-.43-.28-.77,0-1s.48-.22.66-.08a.47.47,0,0,0,.6,0Zm-.15-3.27,1.37,1.44c.15-.3.31-.66.48-1.1s.23-.73.15-.87-.42,0-.85.1l-1.15.43Zm12.06,7.59a4.16,4.16,0,0,0-2-2,2.93,2.93,0,0,0-2.49.06,2.4,2.4,0,0,0-1.26,1.38,4.81,4.81,0,0,0-.2,1.77c.06.6.11,1.13.16,1.59s0,.75-.23.88a.51.51,0,0,1-.56,0,1.1,1.1,0,0,1-.32-.38,2.61,2.61,0,0,1-.32-1.31,2.38,2.38,0,0,1,.28-1c.15-.28.27-.54.38-.77a.73.73,0,0,0,0-.66c-.12-.22-.26-.33-.43-.33a.92.92,0,0,0-.38.09l-.57.28a3.39,3.39,0,0,0-.93.73,1.62,1.62,0,0,0-.37.57,4.67,4.67,0,0,0,.14,1.56,8,8,0,0,0,.68,1.83,5.38,5.38,0,0,0,1.88,2.08,3,3,0,0,0,3,.11,2.36,2.36,0,0,0,1.31-1.43,3.57,3.57,0,0,0,0-1.69c-.11-.57-.21-1.08-.29-1.52a.76.76,0,0,1,.31-.91.52.52,0,0,1,.36,0,.78.78,0,0,1,.44.4,1.75,1.75,0,0,1,.22.87,3.18,3.18,0,0,1-.12.78c-.08.25-.14.48-.2.69a.85.85,0,0,0,0,.57,1,1,0,0,0,.6.51,1.11,1.11,0,0,0,.73-.1,3.1,3.1,0,0,0,.87-.92,1.45,1.45,0,0,0,.29-1.37l-.45-.62c-.06-.16-.14-.41-.23-.74A5.18,5.18,0,0,0,102.36,36.86Z"/><polygon class="cls-7" points="21.24 54.84 22.44 58.29 26.16 58.22 23.18 60.4 24.4 63.84 21.36 61.75 18.39 63.95 19.48 60.47 16.43 58.38 20.15 58.33 21.24 54.84"/><polygon class="cls-8" points="102.8 53.43 104 56.88 107.72 56.8 104.75 58.99 105.96 62.43 102.92 60.34 99.95 62.54 101.05 59.06 97.99 56.97 101.72 56.92 102.8 53.43"/><path class="cls-9" d="M62.42,24.8C79.55,24.5,93.67,37.85,94,54.61S80.6,85.19,63.47,85.48s-31.24-13-31.53-29.8S45.3,25.1,62.42,24.8Z"/><g class="cls-10"><path class="cls-11" d="M27.85,50.74a10,10,0,0,0,5.58-.1c2.78-1,12.36-3.24,12.36-3.24l11.62-9.31,3.81,5.09,3.43.55c4.5,2.27-1.35,7.8,7.17,2.3,5.52,2.47,5.23,2.2,9.57-2.59l3.42.55c1.06,1.09,2.11,2.19,3.16,3.28L93,49l3.44,1.76s3.81,4.79-.54,4.56-29.22-3.14-29.22-3.14L55.21,53.91l-13,1.74-9.53,5Z"/><path class="cls-12" d="M28.48,51.24l-.5-.82a9.5,9.5,0,0,0,5.34-.1c2.65-.91,11.4-3,12.31-3.24l11.56-9.25a.36.36,0,0,1,.49,0v0h0l3.72,5,3.28.52.11,0h0A3.89,3.89,0,0,1,67,47.17a2.1,2.1,0,0,0,.14.83c.21.31,1.14-.11,4.47-2.25a.36.36,0,0,1,.36,0c4.9,2.19,5,2.1,8.34-1.64l.8-.89a.36.36,0,0,1,.34-.1l3.4.54a.31.31,0,0,1,.2.11h0L88.17,47l4.91,1.71,0,0,3.44,1.76-.39.57-3.35-1.72-5-1.72a.42.42,0,0,1-.16-.09l-3.08-3.2-3.11-.5-.67.74c-3.66,4.07-3.79,4.2-9,1.87-3.66,2.36-4.8,2.66-5.28,1.95a2.5,2.5,0,0,1-.25-1.16,3.28,3.28,0,0,0-1.79-3.15l-3.34-.54a.32.32,0,0,1-.25-.14l-3.59-4.8L46,47.65a.55.55,0,0,1-.15.08S36.31,50,33.55,51A10.2,10.2,0,0,1,28.48,51.24Z"/><path class="cls-13" d="M31.75,61c0,.85.46,1.39.48,2.43l.06.49.39.35a19.05,19.05,0,0,0,2.71,6.33A3.44,3.44,0,0,1,36.27,72a3.2,3.2,0,0,0,.82,1.43,5.35,5.35,0,0,0,1.08,1.18c.39.35.45,1.21,1.11,1.25.23.87.58.8,1.17,1.31s.16.73,1.07,1.4c.41.29.84.78,1.32,1.14s.94.69,1.42,1.06a9.71,9.71,0,0,0,1.44,1,5.82,5.82,0,0,1,1.58.89,21.57,21.57,0,0,0,3.24,1.68c.13,0,1.68.7,1.73.74,1.06.72.9.24,1.88.58a9.22,9.22,0,0,0,4.13.79,7.88,7.88,0,0,1,2,.42,17.38,17.38,0,0,0,2.42,0c1.67.09,3,0,4.77-.08h.33v-.21a23.06,23.06,0,0,0,6-1.25l1.08-.15c.14-.37,2.58-1.32,3.19-1.39L79.32,83l-.06-.09h.44a9.48,9.48,0,0,0,1.71-1.2c.46,0,1.8-1.22,2.13-1.55a9.89,9.89,0,0,1,1.09-.74c.13-.07.74-.7.94-.89.52-.49,1.26-1.5,1.77-1.88.84-.63,1.36-.91,1.66-2.08l.4-.47.72-1.43c1.15-.33,2-3.42,2.69-3.69,0-1.43,1.06-1.76,1-3.52.53-.81.44-1.41.73-1.82A3.63,3.63,0,0,0,95,61.51l.33-.11.54-4.27,0-3.92c0-.53-.33-.4-.34-1,0-.24-3.85-.15-4.68-.13-1.16,0,0-.7-1.84-.08-2.25.77-4.19-1-6.43-.95-.21,0-.55.2-.65,0-.24-.47-.31-.84-.88-.83-.72,0-2.35,1.42-3.89,1.45-4.67.08-9.43-3-14-2.95a26.17,26.17,0,0,1-2.8,1.11c-1.15.15-1,1.11-2,1.74-1.67,1-3.54-1.2-5.67-1.39a3.25,3.25,0,0,0-.54,0c-.35,0-.86.28-.86.65,0,.81-2,1.88-2.45,2.38-.33.33-1,0-1.42,0-.68,0-1,.3-1.42-.51-.86-1.7-3.16,1.23-3.67,1.24s-1.66.6-2,0c-1.21-2.35-7.09,3.29-8.36,0-.33.09-.43.21-.43.64l0,1h-.22Z"/></g><path class="cls-14" d="M63.49,86.17a32,32,0,0,0,22.26-9.48A30.55,30.55,0,0,0,85,32.82a32.21,32.21,0,0,0-44.84.77,30.56,30.56,0,0,0,.76,43.88,32,32,0,0,0,22.58,8.7ZM84.75,75.74a30.79,30.79,0,0,1-42.87.74,29.22,29.22,0,0,1-.73-41.94A30.79,30.79,0,0,1,84,33.8a29.22,29.22,0,0,1,.73,41.94Z"/><path class="cls-15" d="M54.67,76.25l.09.75c.39,1,1.69,1.52,3.4,1.82a32,32,0,0,0,6.07.28l1,0c3.63-.08,7-.16,7.82-3.38-3.83,1.09-8.63,1-13.06.9h-.94a25,25,0,0,1-4.42-.33Zm17.58-.8c-3.64.87-8.09.79-12.22.7H59.1a28.81,28.81,0,0,1-3.71-.22l3.44-.24h0l9.66-.52,2.44.19Z"/><path class="cls-15" d="M56,63.39a40.78,40.78,0,0,1-9-1.84,16.68,16.68,0,0,0,3.48,1.07,43.75,43.75,0,0,0,5.55.77ZM45.64,61.18a10.88,10.88,0,0,0,4.73,1.87,57.5,57.5,0,0,0,12.37,1,57.07,57.07,0,0,0,12.33-1.4c2.39-.6,4.1-1.36,4.83-2.21.54,4.51.16,7.8-1,10.17a8.84,8.84,0,0,1-5.79,4.63c-3.79,1.12-8.62,1-13.09.93H59.1a16.73,16.73,0,0,1-6.81-1.08c-3.3-1.37-5.08-3.3-6-5.7S45.43,64.3,45.64,61.18Z"/><path class="cls-15" d="M74.87,56.92a40.89,40.89,0,0,0-4.72-.69c-.18.22-.38.46-.61.71l-.19.24c1,.06,2,.15,2.79.26,2.51.32,4.06.85,4.07,1.51s-1.52,1.25-4,1.66a69.33,69.33,0,0,1-9.32.73H61.51l-.42,0v0a63,63,0,0,1-7.56-.42c-2.5-.32-4.06-.85-4.07-1.51s1.53-1.25,4-1.66A69.19,69.19,0,0,1,62.8,57h1.79c.38-.36.77-.71,1.16-1.05-1,0-2.07,0-3.15,0a56.74,56.74,0,0,0-12.22,1.39c-3,.75-4.9,1.72-4.88,2.72s1.91,1.9,5,2.55a56.49,56.49,0,0,0,12.26,1A57.4,57.4,0,0,0,75,62.2c3-.76,4.9-1.73,4.88-2.72s-1.92-1.9-5-2.56Zm-5.25-.74-.41.46h0l-.38.49c-1.11-.06-2.32-.1-3.58-.11.38-.37.78-.71,1.19-1,1.11,0,2.17.1,3.19.19ZM61,60.91a62.43,62.43,0,0,1-7.4-.42c-2.26-.29-3.67-.68-3.68-1.08s1.39-.84,3.64-1.21a66.81,66.81,0,0,1,9.26-.72l1.34,0c-.82.83-1.6,1.7-2.37,2.56l-.79.89Zm8-3.31c1.13.07,2.16.16,3,.28,2.27.29,3.68.68,3.68,1.08s-1.38.84-3.64,1.21c-1.48.24-3.31.44-5.37.57.48-.66,1.58-2.2,2.28-3.14Zm-6.91,2.71c.86-1,1.73-1.94,2.66-2.85,1.31,0,2.57,0,3.72.11-.82,1.11-2,2.75-2.28,3.15l-4.63.19Z"/><path class="cls-16" d="M69.69,58.08l-2,2-.22.58c1.76-.13,3.34-.3,4.64-.52A16.59,16.59,0,0,0,75,59.51a.5.5,0,0,1,.41-.18c.24-.12.37-.25.36-.37,0-.4-1.41-.79-3.68-1.08-.68-.09-1.43-.16-2.25-.23a.84.84,0,0,0-.14.43Zm-1.78,3c.89,0,2.24-.07,2.78-.15a.64.64,0,0,0,.44-.18c-1,.13-2,.24-3.22.33ZM75,58l-.12,0h.15l0,0Zm-1.75-.42-.6-.1h.47l.13.11Zm-1.94-.27a1.5,1.5,0,0,0-.51-.21h-.32a.6.6,0,0,0-.27.1Z"/><path class="cls-6" d="M57.11,66.8a.43.43,0,0,1,.22-.41,1.23,1.23,0,0,1,.61-.13H59l1,0,1,0c.3,0,.63,0,1-.09a.67.67,0,0,1,.54.45,2,2,0,0,1,.2.83.67.67,0,0,1-.13.48.44.44,0,0,1-.33.12.85.85,0,0,1-.59-.4,1,1,0,0,0-.81-.39l-.59,0a.48.48,0,0,0-.42.15.81.81,0,0,0-.11.49v.5a.29.29,0,0,0,.06.22.36.36,0,0,0,.26,0c.36,0,.52-.17.49-.39s.12-.36.42-.4c.14,0,.26.08.36.25a1.92,1.92,0,0,1,.18.91,3.75,3.75,0,0,1-.11,1.19c-.09.26-.24.39-.46.39a.44.44,0,0,1-.4-.47.47.47,0,0,0-.48-.48c-.15,0-.24.05-.26.12a.58.58,0,0,0,0,.27l0,.6c0,.47.18.69.41.67s.37.11.41.42-.09.35-.32.46a3.74,3.74,0,0,1-1.36.2,3.66,3.66,0,0,1-1.55-.19c-.2-.13-.29-.28-.26-.44s.12-.39.31-.41.27-.27.29-.75c0-.32,0-.72,0-1.19s0-.88,0-1.19c0-.7-.14-1-.33-1S57.15,67.05,57.11,66.8Z"/><path class="cls-6" d="M62.63,69.43a2,2,0,0,1,.28-.91A1,1,0,0,1,63.6,68l.49.06L67.22,68a.53.53,0,0,1,.35.13.39.39,0,0,1,.13.29.73.73,0,0,1-.06.3l-.1.2L65.32,72.5c-.08.15-.08.24,0,.28a.93.93,0,0,0,.34,0q.87-.08.93-.48a.52.52,0,0,1,.49-.47.45.45,0,0,1,.41.21.83.83,0,0,1,.11.42,1.86,1.86,0,0,1-.27,1c-.18.29-.35.43-.52.45l-.63-.09L63,74a.78.78,0,0,1-.47-.12.38.38,0,0,1-.16-.3.51.51,0,0,1,0-.17.59.59,0,0,1,.07-.16L65,69.29a.13.13,0,0,0-.07-.18.87.87,0,0,0-.39-.06c-.53,0-.81.21-.85.49s-.25.44-.61.49a.39.39,0,0,1-.27-.12A.69.69,0,0,1,62.63,69.43Z"/><path class="cls-6" d="M31.56,76.75a3.14,3.14,0,0,1,1.37-.5,1.44,1.44,0,0,1,1.31.31l.37.62,2.87,3.65a.7.7,0,0,1,.16.52.57.57,0,0,1-.25.41A1,1,0,0,1,37,82l-.34.06-6.45.65c-.25,0-.36.12-.32.27a1.06,1.06,0,0,0,.24.44c.58.64,1.06.86,1.42.67a.81.81,0,0,1,1,.16.61.61,0,0,1,.1.67,1.27,1.27,0,0,1-.41.5,3.06,3.06,0,0,1-1.51.61,1.27,1.27,0,0,1-1-.22L29.26,85l-3-3.74a1,1,0,0,1-.28-.66.61.61,0,0,1,.23-.46,1,1,0,0,1,.23-.11.92.92,0,0,1,.26-.07l7.1-.51a.2.2,0,0,0,.16-.24,1.06,1.06,0,0,0-.28-.52c-.53-.58-1-.76-1.37-.56a.9.9,0,0,1-1.14-.28.49.49,0,0,1-.09-.42A1,1,0,0,1,31.56,76.75Z"/><path class="cls-6" d="M38.65,89.85c.1-.16,0-.38-.3-.65a8,8,0,0,0-1-.79,4,4,0,0,0-.84-.5.43.43,0,0,0-.56.14.38.38,0,0,0,.09.56c.19.13.21.34.05.62a.69.69,0,0,1-.86.23,5.17,5.17,0,0,1-1.31-.72,4,4,0,0,1-1-.84.63.63,0,0,1-.07-.8.55.55,0,0,1,.78-.19c.27.17.75,0,1.43-.37l3.59-2.15a14.56,14.56,0,0,0,1.22-.82c.26-.21.45-.37.56-.48a1.73,1.73,0,0,1,.26-.24.75.75,0,0,1,.32-.1.86.86,0,0,1,.37,0,1.49,1.49,0,0,1,.48.27,2.5,2.5,0,0,1,.72.69,1.26,1.26,0,0,1,.17.52,6.82,6.82,0,0,1,0,1.62c-.07.6-.17,1.23-.31,1.89l-.42,2c-.15.66-.26,1.29-.35,1.88a.92.92,0,0,0,.22.77.5.5,0,0,1,0,.69.8.8,0,0,1-1,.19,6.92,6.92,0,0,1-1.67-.89,12.2,12.2,0,0,1-1.58-1.23c-.36-.36-.44-.69-.24-1s.42-.31.62-.21a.46.46,0,0,0,.58-.15Zm-.84-3.12,1.63,1.11c.08-.31.15-.7.23-1.16s.07-.75,0-.87-.42,0-.8.27Z"/><path class="cls-6" d="M46.27,86.72l.71.18a10.1,10.1,0,0,0,1.43.37l1.44.27.8.2a3.31,3.31,0,0,1,2.27,1.54,2.6,2.6,0,0,1,.18,1.92A3.07,3.07,0,0,1,51.78,93a3.27,3.27,0,0,1-2.55.3L48,93l-.26,1c-.07.42,0,.7.23.84a.61.61,0,0,1,.27.68.79.79,0,0,1-.83.55,8.84,8.84,0,0,1-3.56-.94c-.4-.24-.56-.54-.47-.88s.32-.5.58-.48.45-.14.58-.47l.82-2.64.47-1.74q.16-.87-.3-1.08a.61.61,0,0,1-.4-.68.62.62,0,0,1,.33-.39,1.16,1.16,0,0,1,.8,0ZM49.33,89a.26.26,0,0,0-.28.14,1.59,1.59,0,0,0-.22.47c-.06.22-.13.47-.2.76s-.14.54-.18.75a.77.77,0,0,0,0,.4c0,.08.08.12.18.14a.92.92,0,0,0,.8-.13,1.66,1.66,0,0,0,.59-1,1.49,1.49,0,0,0,0-1A.91.91,0,0,0,49.33,89Z"/><path class="cls-6" d="M58.28,89.07a4.84,4.84,0,0,1,3.88,1.34,4.72,4.72,0,0,1,1.3,3,4.55,4.55,0,0,1-1.2,3.36,5.12,5.12,0,0,1-3.52,1.53A5,5,0,0,1,55,97a4.59,4.59,0,0,1-1.45-3,4.52,4.52,0,0,1,1.21-3.34,5.11,5.11,0,0,1,3.56-1.55Zm-1.47,3.37a6,6,0,0,0,.83,2.69c.49.8,1,1.22,1.58,1.23a.85.85,0,0,0,.76-.5,2.17,2.17,0,0,0,.17-1,6.13,6.13,0,0,0-.74-2.46A2.07,2.07,0,0,0,57.77,91a.93.93,0,0,0-.72.41A1.56,1.56,0,0,0,56.81,92.44Z"/><path class="cls-6" d="M64.22,91.72a3.35,3.35,0,0,1,.39-1.53,1.64,1.64,0,0,1,1.11-1,2,2,0,0,1,.38,0,1,1,0,0,0,.41,0l4.21-.35a1.45,1.45,0,0,0,.4-.13,1.15,1.15,0,0,1,.46-.11,1.37,1.37,0,0,1,1.13.71,2.87,2.87,0,0,1,.54,1.35,1.41,1.41,0,0,1-.17.94.84.84,0,0,1-.66.32,1.28,1.28,0,0,1-1.16-.64c-.23-.4-.46-.63-.69-.67a.33.33,0,0,0-.26.19,1.56,1.56,0,0,0-.06.18l.37,4.27c.1.61.3.92.61.93s.5.22.58.63-.2.61-.67.78A9,9,0,0,1,69,98a6,6,0,0,1-1.8-.08c-.5-.11-.77-.33-.82-.68s0-.4.15-.46l.42-.21a.92.92,0,0,0,.39-.58,4.71,4.71,0,0,0,.07-1.57l-.25-2.84a1.19,1.19,0,0,0-.1-.38.31.31,0,0,0-.28-.21c-.26.08-.48.34-.67.78a1.38,1.38,0,0,1-1,.82.79.79,0,0,1-.58-.2A1,1,0,0,1,64.22,91.72Z"/><path class="cls-6" d="M73.18,88.83c-.09-.39.1-.74.6-1.06A7.34,7.34,0,0,1,75.41,87a7.77,7.77,0,0,1,1.71-.43c.51,0,.84.09,1,.4s0,.67-.29.8-.32.57-.08,1.35l1.33,3.68a.72.72,0,0,0,.42.5,1.18,1.18,0,0,0,.78-.08c.85-.37,1.23-.78,1.15-1.25A.82.82,0,0,1,81.7,91a.9.9,0,0,1,.66,0,1.06,1.06,0,0,1,.52.62A3.49,3.49,0,0,1,83,93.17a1.28,1.28,0,0,1-.65,1.15l-.7.13a5,5,0,0,0-.74.19l-4.39,1.52a.64.64,0,0,1-.58-.09.72.72,0,0,1,0-1.2c.24-.22.24-.74,0-1.55l-1.26-3.48c-.23-.53-.5-.75-.78-.67A.54.54,0,0,1,73.18,88.83Z"/><path class="cls-6" d="M89.13,88.14c-.11-.15-.36-.15-.73,0a8.14,8.14,0,0,0-1.16.61,4.31,4.31,0,0,0-.8.56.41.41,0,0,0-.09.56.4.4,0,0,0,.56.13q.3-.18.6.21a.65.65,0,0,1-.12.86,5.16,5.16,0,0,1-1.2.89,4.54,4.54,0,0,1-1.17.54.69.69,0,0,1-.79-.26.52.52,0,0,1,.14-.77c.27-.18.34-.66.22-1.44L84,86c-.1-.63-.2-1.1-.28-1.42a6,6,0,0,0-.23-.69,1.07,1.07,0,0,1-.12-.34.55.55,0,0,1,0-.32.67.67,0,0,1,.18-.31,1.54,1.54,0,0,1,.45-.33,2.5,2.5,0,0,1,.94-.37,1.16,1.16,0,0,1,.55.06,7.23,7.23,0,0,1,1.51.65c.54.3,1.09.65,1.66,1l1.68,1.16c.57.4,1.11.75,1.63,1.06a.93.93,0,0,0,.81.11.55.55,0,0,1,.66.25c.17.28.1.59-.21.94a7,7,0,0,1-1.5,1.14,11.12,11.12,0,0,1-1.78.93c-.48.18-.82.12-1-.17s-.12-.5.06-.64a.45.45,0,0,0,.09-.58Zm-3.26-.49,1.69-1c-.26-.19-.6-.42-1-.67s-.67-.36-.83-.31-.13.39-.06.83S85.8,87.31,85.87,87.65Z"/><path class="cls-6" d="M96.13,74.65l2.88,2a6.16,6.16,0,0,1,1.49,1.28c.24.34.27.62.1.85a2.59,2.59,0,0,1-1.26.62c-.65.19-1.36.35-2.14.5l-2.08.4a2.83,2.83,0,0,0-1,.34.39.39,0,0,0,0,.38,1,1,0,0,0,.35.38l.56.38.7.39a.71.71,0,0,0,.76,0,.65.65,0,0,1,.72,0,.68.68,0,0,1,.28.63,2.37,2.37,0,0,1-.5,1.14l-.3.43a2.84,2.84,0,0,1-.8.79.68.68,0,0,1-.78,0,.65.65,0,0,1-.24-.74c.09-.26-.22-.67-.93-1.2l-2.41-1.65c-.93-.58-1.53-.75-1.77-.51a.69.69,0,0,1-.87.09.58.58,0,0,1-.24-.58,2.59,2.59,0,0,1,.57-1.26l.5-.71a1.65,1.65,0,0,1,.38-.37.83.83,0,0,1,.32-.17c.3-.09.65-.18,1.06-.28l1.29-.3,1.29-.3,1.09-.25.19-.1a.63.63,0,0,0,.21-.17s0-.13,0-.23a.57.57,0,0,0-.21-.25L94.94,76l-.66-.45a.65.65,0,0,0-.81,0,.62.62,0,0,1-.76,0,.63.63,0,0,1-.29-.67,2.45,2.45,0,0,1,.47-1l.43-.6a2.76,2.76,0,0,1,.82-.85.6.6,0,0,1,.68,0c.35.29.45.56.29.81S95.29,74,96.13,74.65Z"/><path class="cls-15" d="M65.24,57l-.46.43c-.93.91-1.8,1.89-2.66,2.85l-.53.6,4.63-.19c.28-.4,1.46-2,2.28-3.15l.32-.43.38-.49h0a5.78,5.78,0,0,0,1.38-2,.6.6,0,0,0,0-.38c0-.07-.12-.11-.26-.13a3.89,3.89,0,0,0-1.74.45A15.89,15.89,0,0,0,65.24,57Z"/><path class="cls-17" d="M83.09,82.12l-.12,0L82.68,82l-.09-.08-.35-1.47-.15-.72v-.23a.57.57,0,0,1,.22-.34,2.07,2.07,0,0,1,.46-.27,4.44,4.44,0,0,1,.55-.19,2.87,2.87,0,0,1,.57-.11h.18l.49.15a.75.75,0,0,1,.21.49,2.85,2.85,0,0,1,0,.53c0,.19,0,.4,0,.62a5.93,5.93,0,0,1-.1.63,4.12,4.12,0,0,1-.13.53,1,1,0,0,1-.25.44l-.09.07-.31.11a2.1,2.1,0,0,1-.37,0h0Z"/><path class="cls-5" d="M84,78.9a.34.34,0,0,1,.22.06.47.47,0,0,1,.09.26,3.59,3.59,0,0,1,0,.48c0,.18,0,.38,0,.6a5.4,5.4,0,0,1-.09.6,3.4,3.4,0,0,1-.13.49.55.55,0,0,1-.14.27.42.42,0,0,1-.19.09,1.27,1.27,0,0,1-.28,0h0l-.23,0a.44.44,0,0,1-.19-.07s0-.08-.07-.22-.07-.29-.11-.49-.09-.41-.15-.64-.09-.46-.14-.67a.59.59,0,0,1,0-.17.27.27,0,0,1,.1-.13,1.48,1.48,0,0,1,.35-.2,4,4,0,0,1,.49-.17,2.23,2.23,0,0,1,.48-.09H84m0-.74h-.18a4.11,4.11,0,0,0-.67.12,4.62,4.62,0,0,0-.62.23,2.32,2.32,0,0,0-.57.33.91.91,0,0,0-.34.55,1.05,1.05,0,0,0,0,.42l0,.13.11.52,0,.14.11.51.12.5a.94.94,0,0,0,.3.59,1.31,1.31,0,0,0,.63.28,2.86,2.86,0,0,0,.42,0,2.61,2.61,0,0,0,.54,0,1.39,1.39,0,0,0,.6-.28,1.31,1.31,0,0,0,.37-.6c0-.16.09-.35.14-.57s.07-.42.1-.65,0-.45,0-.65a3.53,3.53,0,0,0,0-.58,1,1,0,0,0-.34-.71,1.29,1.29,0,0,0-.84-.27Z"/><path class="cls-18" d="M13.72,98.64a.84.84,0,0,1,.3.76,1.55,1.55,0,0,1-.51.72l-.18.15-.24.2-.38.28-.58.44-.85.65-1.18.91-.17.13a.16.16,0,0,1-.09,0s-.09,0-.16-.13l-.46-.51a1.39,1.39,0,0,1-.43-.86.76.76,0,0,1,.26-.6,3.25,3.25,0,0,1,.44-.34c.19-.14.41-.28.65-.43l.77-.48.8-.48.76-.44.62-.37a.4.4,0,0,1,.2-.07.4.4,0,0,1,.15.11Zm.79-.36a.92.92,0,0,1-.29-.69,1,1,0,0,1,.37-.6,1.4,1.4,0,0,1,.33-.24,1.16,1.16,0,0,1,.43-.15,1,1,0,0,1,.48,0,1.18,1.18,0,0,1,.5.35.85.85,0,0,1,.27.72,1.25,1.25,0,0,1-.39.6,1.83,1.83,0,0,1-.38.26,1.33,1.33,0,0,1-.43.13.88.88,0,0,1-.44-.08A1.34,1.34,0,0,1,14.51,98.28Z"/><path class="cls-19" d="M20.17,100.82l-4.85,4.39c-.09.08-.16.09-.22,0l-.46-.45a1.31,1.31,0,0,1-.5-.84.94.94,0,0,1,.31-.72c.08-.09.21-.21.38-.37l.61-.56.78-.7.84-.75.86-.75.78-.7-1.36-1.31c-.06-.06-.05-.13,0-.21l.49-.45a1.08,1.08,0,0,1,.24-.18.71.71,0,0,1,.28-.09.56.56,0,0,1,.31,0,.75.75,0,0,1,.3.2L22.77,101a.26.26,0,0,1,.07.11.16.16,0,0,1-.05.14l-.51.46a1.08,1.08,0,0,1-.54.28.93.93,0,0,1-.66-.33Z"/><path class="cls-20" d="M22.44,104.42a6.9,6.9,0,0,1-.46.52l-.64.68-.63.65a5.09,5.09,0,0,0-.41.46.93.93,0,0,0-.24.63.71.71,0,0,0,.3.53.7.7,0,0,0,.58.14,1.86,1.86,0,0,0,.69-.3,5.77,5.77,0,0,0,.74-.59,10.46,10.46,0,0,0,.75-.74l.69-.76.59-.64a.35.35,0,0,1,.16-.08.25.25,0,0,1,.19.06l.33.26a2.08,2.08,0,0,1,.42.43.86.86,0,0,1,.15.4.77.77,0,0,1-.07.39,2,2,0,0,1-.25.4l-.33.39c-.14.16-.34.38-.6.65s-.6.64-1,1.07l-1.48,1.6a.81.81,0,0,1-.22.19s-.1,0-.18-.08l-.36-.28a1.79,1.79,0,0,1-.41-.43,1.2,1.2,0,0,1-.16-.4.73.73,0,0,1,0-.36,1.29,1.29,0,0,1,.17-.33,2.25,2.25,0,0,1-.63.16,2.06,2.06,0,0,1-.56,0,1.88,1.88,0,0,1-.49-.16,2.39,2.39,0,0,1-.41-.26,2.35,2.35,0,0,1-.54-.61,2,2,0,0,1-.22-.68,1.82,1.82,0,0,1,.08-.69,2,2,0,0,1,.35-.66c.07-.07.17-.2.33-.38l.52-.58.63-.68.62-.68.52-.57.33-.34a.49.49,0,0,1,.25-.16.25.25,0,0,1,.23.08l.3.24a2.07,2.07,0,0,1,.42.42.93.93,0,0,1,.17.39.62.62,0,0,1-.05.36A1.16,1.16,0,0,1,22.44,104.42Zm1.88-.76a.38.38,0,0,1-.11-.16.94.94,0,0,1-.06-.24,1,1,0,0,1,0-.25.38.38,0,0,1,.06-.17.93.93,0,0,1,.22-.08l.5-.16.65-.2.67-.2a.54.54,0,0,1,.18,0,.21.21,0,0,1,.14.07,1.19,1.19,0,0,1,.25.28c.08.13.16.27.23.41a2.49,2.49,0,0,1,.14.41.33.33,0,0,1,0,.27.53.53,0,0,1-.26.11,5,5,0,0,1-.5.07,6.19,6.19,0,0,1-.63,0h-.63l-.53,0A.61.61,0,0,1,24.32,103.66Z"/><path class="cls-21" d="M29.7,111.18l-.45.63-.48.68c-.17.22-.33.45-.48.66l-.41.58-.29.42-.13.17a.27.27,0,0,1-.14.13.31.31,0,0,1-.2-.06l-.36-.22a1.11,1.11,0,0,1-.61-.71,1.39,1.39,0,0,1,.25-.91l.19-.29.39-.56.5-.71c.19-.27.38-.53.56-.8l-.47-.28c-.08,0-.09-.1-.05-.18l.15-.23.21-.29a1.3,1.3,0,0,1,.18-.23.76.76,0,0,1,.23-.17.53.53,0,0,1,.29,0,1,1,0,0,1,.39.13l.28-.38a4.15,4.15,0,0,1,.9-1,2.11,2.11,0,0,1,.92-.42,2,2,0,0,1,1,0,3.77,3.77,0,0,1,1,.44,3.71,3.71,0,0,1,.81.61,1.73,1.73,0,0,1,.43.6,1.05,1.05,0,0,1,.1.57,1.52,1.52,0,0,1-.19.54,1,1,0,0,1-.77.55,1.89,1.89,0,0,1-1-.31.68.68,0,0,1-.19-.15s0-.09,0-.15a2.05,2.05,0,0,0,.26-.56c0-.15,0-.28-.22-.39a.57.57,0,0,0-.42-.08,1,1,0,0,0-.42.18,1.89,1.89,0,0,0-.4.36l-.39.47,1.16.7c.11.06.14.14.08.24l-.37.52a1,1,0,0,1-.46.39.9.9,0,0,1-.71-.18Z"/><path class="cls-22" d="M30.57,114.78a1.9,1.9,0,0,1,1.58-1.08,5.67,5.67,0,0,1,2.81.65,1.44,1.44,0,0,0,.11-.19,1.65,1.65,0,0,0,.1-.19,1.14,1.14,0,0,0,.14-.61c0-.17-.16-.32-.43-.45a1,1,0,0,0-.39-.11.62.62,0,0,0-.31.06,1.24,1.24,0,0,0-.27.21c-.09.09-.17.19-.26.3a.19.19,0,0,1-.16.08.92.92,0,0,1-.24-.09c-.72-.35-1-.8-.69-1.34a1.53,1.53,0,0,1,.46-.55,1.63,1.63,0,0,1,.7-.29,2.67,2.67,0,0,1,.93,0,4.29,4.29,0,0,1,1.12.39,2.7,2.7,0,0,1,1.46,1.31,2,2,0,0,1-.13,1.63l-.23.41-.37.6c-.14.21-.26.41-.37.6s-.19.32-.23.4a.65.65,0,0,0-.08.42.47.47,0,0,0,.14.26l.18.17a.11.11,0,0,1,0,.15,1.86,1.86,0,0,1-.3.45,1.53,1.53,0,0,1-.42.34,1.1,1.1,0,0,1-.55.14,1.36,1.36,0,0,1-.67-.17,1.16,1.16,0,0,1-.64-.61,1.33,1.33,0,0,1,0-.84,2.83,2.83,0,0,1-1,.32,2,2,0,0,1-1.2-.24,2.68,2.68,0,0,1-.56-.36,1.55,1.55,0,0,1-.37-.48,1.31,1.31,0,0,1-.11-.6A1.72,1.72,0,0,1,30.57,114.78Zm3.88.39a4.33,4.33,0,0,0-.56-.22,2.21,2.21,0,0,0-.54-.1,1.12,1.12,0,0,0-.45.08.62.62,0,0,0-.3.3.4.4,0,0,0,0,.41.66.66,0,0,0,.29.26,1.12,1.12,0,0,0,.37.09.9.9,0,0,0,.42-.08,1.8,1.8,0,0,0,.41-.27A1.68,1.68,0,0,0,34.45,115.17Z"/><path class="cls-23" d="M41.55,117.15l-.15-.06-.15-.09-.12-.09a.08.08,0,0,1,0-.09c0-.1.07-.18.1-.26a1.89,1.89,0,0,0,.11-.25,1,1,0,0,0,.08-.42.3.3,0,0,0-.21-.26.65.65,0,0,0-.66.22,3.54,3.54,0,0,0-.71,1.11l-.35.78-.39.83-.33.72a4.15,4.15,0,0,0-.17.41.2.2,0,0,1-.14.13.31.31,0,0,1-.19,0l-.39-.15a1.7,1.7,0,0,1-.54-.28.88.88,0,0,1-.26-.33.84.84,0,0,1-.06-.39,1.85,1.85,0,0,1,.12-.46c0-.11.1-.27.19-.46s.21-.48.37-.82l.6-1.32.9-2c.1-.21.21-.29.35-.24l.43.16a2.3,2.3,0,0,1,.5.26,1.09,1.09,0,0,1,.27.31.83.83,0,0,1,.1.34,1.34,1.34,0,0,1,0,.35,2.11,2.11,0,0,1,.48-.32,2.34,2.34,0,0,1,.49-.16,1.85,1.85,0,0,1,.47,0,2.15,2.15,0,0,1,.4.09,1.29,1.29,0,0,1,.4.24,1.35,1.35,0,0,1,.3.37,1.2,1.2,0,0,1,.14.5,1.6,1.6,0,0,1-.11.62,1.73,1.73,0,0,1-.3.53,1.47,1.47,0,0,1-.42.37,1.23,1.23,0,0,1-.52.17A1.25,1.25,0,0,1,41.55,117.15Z"/><path class="cls-24" d="M45.09,119.89c-.1.35-.2.67-.3,1s-.19.58-.26.81-.06.15-.1.17-.1,0-.2,0l-.42-.1a2,2,0,0,1-.56-.2.87.87,0,0,1-.31-.29.8.8,0,0,1-.11-.38,2.24,2.24,0,0,1,.06-.48q0-.17.12-.48c.06-.21.15-.5.26-.86l.42-1.39.63-2.08a.68.68,0,0,1,.12-.29.32.32,0,0,1,.19,0l.45.1a1.93,1.93,0,0,1,.55.2,1.45,1.45,0,0,1,.31.29.83.83,0,0,1,.13.34,1.53,1.53,0,0,1,0,.37A2,2,0,0,1,47,116a2.2,2.2,0,0,1,1,0,2.81,2.81,0,0,1,.58.19,1.72,1.72,0,0,1,.48.31,1.19,1.19,0,0,1,.3.45,1.46,1.46,0,0,1,.11.62,2.36,2.36,0,0,1,1-.75,2,2,0,0,1,1.13,0,2.93,2.93,0,0,1,.67.22,1.65,1.65,0,0,1,.51.39,1.35,1.35,0,0,1,.27.58,1.93,1.93,0,0,1,0,.82c0,.24-.13.53-.23.87l-.33,1.1L52.11,122c-.13.42-.25.82-.36,1.21l-.07.19a.35.35,0,0,1-.06.09.17.17,0,0,1-.1,0l-.16,0-.37-.08a2,2,0,0,1-.58-.2.84.84,0,0,1-.31-.27.76.76,0,0,1-.11-.36,1.75,1.75,0,0,1,0-.44c0-.1.06-.24.11-.42s.12-.38.18-.59l.21-.65.2-.63.16-.5L51,119a1.32,1.32,0,0,0,0-.56.5.5,0,0,0-.42-.33.78.78,0,0,0-.56.08,1.74,1.74,0,0,0-.49.46,4.11,4.11,0,0,0-.42.76,7.61,7.61,0,0,0-.35,1l-.24.81-.34,1.13c0,.08,0,.14-.06.19a.22.22,0,0,1-.07.09.12.12,0,0,1-.09,0l-.17,0-.36-.08a2.13,2.13,0,0,1-.59-.2.93.93,0,0,1-.31-.27.89.89,0,0,1-.11-.36,1.8,1.8,0,0,1,0-.44c0-.15.1-.38.19-.66s.19-.59.28-.91l.29-.88c.09-.29.15-.49.18-.62a1.17,1.17,0,0,0,0-.56.47.47,0,0,0-.41-.33.71.71,0,0,0-.58.11,1.75,1.75,0,0,0-.5.54,4.47,4.47,0,0,0-.43.85Q45.26,119.34,45.09,119.89Z"/><path class="cls-25" d="M53.56,122.25a1.88,1.88,0,0,1,1.06-1.59,5.75,5.75,0,0,1,2.85-.45c0-.09,0-.16,0-.22a2.06,2.06,0,0,1,0-.21,1.22,1.22,0,0,0-.1-.61.65.65,0,0,0-.57-.26.87.87,0,0,0-.41,0,.68.68,0,0,0-.26.18,1,1,0,0,0-.17.28c-.05.12-.09.25-.13.38a.16.16,0,0,1-.12.13.67.67,0,0,1-.26,0c-.8-.05-1.17-.38-1.13-1a1.37,1.37,0,0,1,.22-.68,1.55,1.55,0,0,1,.54-.54,2.68,2.68,0,0,1,.87-.32,4.41,4.41,0,0,1,1.18-.06A2.73,2.73,0,0,1,59,118a2,2,0,0,1,.48,1.57,3.15,3.15,0,0,1-.06.46c0,.22-.07.45-.12.7l-.12.69c0,.22,0,.37-.06.46a.63.63,0,0,0,.08.42.53.53,0,0,0,.23.19l.23.08a.13.13,0,0,1,.1.13,2,2,0,0,1-.11.52,1.4,1.4,0,0,1-.26.48,1.21,1.21,0,0,1-.46.33,1.6,1.6,0,0,1-.68.1,1.22,1.22,0,0,1-.83-.33,1.35,1.35,0,0,1-.32-.78,2.89,2.89,0,0,1-.79.67,2.11,2.11,0,0,1-1.2.22,2.68,2.68,0,0,1-.65-.13,1.4,1.4,0,0,1-.53-.31,1.33,1.33,0,0,1-.33-.51A1.84,1.84,0,0,1,53.56,122.25Zm3.74-1.08a3,3,0,0,0-.6,0,2.47,2.47,0,0,0-.53.11,1.08,1.08,0,0,0-.39.24.59.59,0,0,0-.17.39.42.42,0,0,0,.15.39.71.71,0,0,0,.36.13.86.86,0,0,0,.38-.06.85.85,0,0,0,.35-.23,1.36,1.36,0,0,0,.28-.4A1.82,1.82,0,0,0,57.3,121.17Z"/><path class="cls-26" d="M63.82,122.56a1.72,1.72,0,0,0,.59-.11,2.27,2.27,0,0,0,.44-.23l.31-.22a.42.42,0,0,1,.23-.1c.18,0,.27.11.28.35a1.31,1.31,0,0,1,0,.23c0,.1,0,.2-.08.31l-.12.3a1.28,1.28,0,0,1-.11.21s-.11.11-.2.2a2.19,2.19,0,0,1-.39.27,3.87,3.87,0,0,1-.57.25,2.72,2.72,0,0,1-.73.12,3.35,3.35,0,0,1-.92-.11,2.28,2.28,0,0,1-.88-.44,2.49,2.49,0,0,1-.67-.89,3.56,3.56,0,0,1-.3-1.42c0-.2,0-.44,0-.7a4.19,4.19,0,0,1,.15-.82,5.26,5.26,0,0,1,.32-.83,2.68,2.68,0,0,1,.56-.74,3,3,0,0,1,.86-.54,3.9,3.9,0,0,1,2.21-.13,2.09,2.09,0,0,1,.7.35,1.38,1.38,0,0,1,.42.52,1.6,1.6,0,0,1,.16.66,1.09,1.09,0,0,1-.37.94,1.89,1.89,0,0,1-1.12.34.73.73,0,0,1-.25,0s-.06-.06-.06-.13,0-.36,0-.5a1.27,1.27,0,0,0-.08-.38.5.5,0,0,0-.16-.23.49.49,0,0,0-.31-.07.78.78,0,0,0-.58.25,1.62,1.62,0,0,0-.31.58,2.78,2.78,0,0,0-.12.69c0,.24,0,.43,0,.59a2,2,0,0,0,.3,1.16A1,1,0,0,0,63.82,122.56Z"/><path class="cls-27" d="M66.84,116a.89.89,0,0,1,.27-.77,1.42,1.42,0,0,1,.89-.35,1,1,0,0,1,.75.13.7.7,0,0,1,.28.53.93.93,0,0,1-.25.75,1.42,1.42,0,0,1-.92.37Q66.92,116.72,66.84,116Zm1.56,7.75a2.23,2.23,0,0,1-.6,0,.89.89,0,0,1-.39-.19.8.8,0,0,1-.22-.33,2.62,2.62,0,0,1-.09-.47c0-.11,0-.28,0-.5s0-.51,0-.89,0-.87,0-1.45,0-1.31,0-2.18a.57.57,0,0,1,0-.31.35.35,0,0,1,.18,0l.46,0a2.33,2.33,0,0,1,.6,0,.84.84,0,0,1,.38.18.8.8,0,0,1,.22.32,1.49,1.49,0,0,1,.09.44c0,.12,0,.3,0,.53s0,.56,0,1,0,.91,0,1.51,0,1.33,0,2.18a.3.3,0,0,1,0,.19s-.09.06-.19.07Z"/><path class="cls-28" d="M70.26,122.13a1.88,1.88,0,0,1,.67-1.79,5.65,5.65,0,0,1,2.67-1.09,1.27,1.27,0,0,0,0-.22,1,1,0,0,0,0-.22,1.16,1.16,0,0,0-.23-.56.64.64,0,0,0-.62-.13.89.89,0,0,0-.38.14.51.51,0,0,0-.21.23,1,1,0,0,0-.11.32c0,.12,0,.25,0,.4a.16.16,0,0,1-.08.15.85.85,0,0,1-.25.07c-.79.13-1.23-.1-1.33-.7a1.55,1.55,0,0,1,0-.71,1.74,1.74,0,0,1,.41-.65,2.71,2.71,0,0,1,.77-.51,4.06,4.06,0,0,1,1.14-.33,2.7,2.7,0,0,1,2,.23,2,2,0,0,1,.83,1.41c0,.08,0,.24,0,.46s0,.46,0,.71,0,.48,0,.7,0,.37,0,.46a.65.65,0,0,0,.17.39.56.56,0,0,0,.27.13l.25,0c.07,0,.11,0,.12.1a1.93,1.93,0,0,1,0,.54,1.56,1.56,0,0,1-.15.52,1.08,1.08,0,0,1-.37.43,1.43,1.43,0,0,1-.64.25,1.17,1.17,0,0,1-.88-.13,1.38,1.38,0,0,1-.5-.68,2.79,2.79,0,0,1-.6.83,2.11,2.11,0,0,1-1.12.49,2.55,2.55,0,0,1-.67,0,1.41,1.41,0,0,1-.58-.18,1.35,1.35,0,0,1-.44-.42A1.93,1.93,0,0,1,70.26,122.13Zm3.39-1.91a3.77,3.77,0,0,0-.58.14,2,2,0,0,0-.49.23,1.12,1.12,0,0,0-.33.32.61.61,0,0,0-.07.42.41.41,0,0,0,.23.34.71.71,0,0,0,.38,0,.93.93,0,0,0,.36-.14,1,1,0,0,0,.29-.31,1.51,1.51,0,0,0,.18-.45A1.68,1.68,0,0,0,73.65,120.22Z"/><path class="cls-29" d="M79.58,120.39a1.89,1.89,0,0,1,.41-1.87,5.66,5.66,0,0,1,2.49-1.46c0-.08,0-.15,0-.21a1.15,1.15,0,0,0-.06-.21,1.08,1.08,0,0,0-.31-.53.66.66,0,0,0-.63,0,.87.87,0,0,0-.36.19.76.76,0,0,0-.18.26,1.14,1.14,0,0,0,0,.33,2.74,2.74,0,0,0,0,.4.14.14,0,0,1-.06.16.67.67,0,0,1-.24.11q-1.14.36-1.41-.51a1.55,1.55,0,0,1,0-.71,1.88,1.88,0,0,1,.31-.7,2.78,2.78,0,0,1,.69-.61,4.93,4.93,0,0,1,1.08-.49,2.73,2.73,0,0,1,2,0,2,2,0,0,1,1,1.28c0,.09.06.24.11.46s.1.45.15.69.09.48.14.69a3.24,3.24,0,0,0,.11.45.64.64,0,0,0,.22.36.54.54,0,0,0,.28.09,1.13,1.13,0,0,0,.26,0,.11.11,0,0,1,.13.08,2.17,2.17,0,0,1,.09.53,1.44,1.44,0,0,1-.07.54,1.14,1.14,0,0,1-.3.47,1.43,1.43,0,0,1-.61.34,1.23,1.23,0,0,1-.89,0,1.38,1.38,0,0,1-.58-.61,2.79,2.79,0,0,1-.49.91,2.07,2.07,0,0,1-1,.64,2.71,2.71,0,0,1-.66.12,1.46,1.46,0,0,1-.6-.09,1.41,1.41,0,0,1-.49-.36A1.68,1.68,0,0,1,79.58,120.39ZM82.67,118a4.68,4.68,0,0,0-.56.23,2,2,0,0,0-.45.3,1,1,0,0,0-.28.36.55.55,0,0,0,0,.42.38.38,0,0,0,.27.31.74.74,0,0,0,.39,0,.92.92,0,0,0,.33-.19,1,1,0,0,0,.25-.34,2.12,2.12,0,0,0,.11-.48A1.87,1.87,0,0,0,82.67,118Z"/><path class="cls-30" d="M88.32,116.68c.14.34.26.66.37,1l.31.8a.28.28,0,0,1,0,.19s-.07.09-.16.13l-.38.18a1.8,1.8,0,0,1-.57.19,1,1,0,0,1-.42,0,.9.9,0,0,1-.32-.23,2.23,2.23,0,0,1-.26-.41c0-.11-.12-.26-.2-.46l-.33-.83c-.14-.36-.31-.81-.53-1.35s-.48-1.22-.8-2a.63.63,0,0,1-.08-.3s.07-.07.16-.11l.41-.2a1.89,1.89,0,0,1,.56-.18,1.44,1.44,0,0,1,.42,0,.77.77,0,0,1,.31.19,1.29,1.29,0,0,1,.22.3,1.93,1.93,0,0,1,.33-1.11,2.17,2.17,0,0,1,.82-.65,3.1,3.1,0,0,1,.58-.21,1.54,1.54,0,0,1,.56,0,1.37,1.37,0,0,1,.52.16,1.52,1.52,0,0,1,.47.42,2.35,2.35,0,0,1,.31-1.2,2,2,0,0,1,.87-.71,2.92,2.92,0,0,1,.66-.24,1.54,1.54,0,0,1,.64,0,1.32,1.32,0,0,1,.58.29,1.94,1.94,0,0,1,.48.66c.11.22.22.49.36.82l.42,1.07.46,1.19c.15.41.3.8.46,1.17a1.3,1.3,0,0,1,.06.19.15.15,0,0,1,0,.11.16.16,0,0,1-.06.08,1.16,1.16,0,0,1-.14.09l-.34.16a2,2,0,0,1-.58.2.83.83,0,0,1-.42,0,.75.75,0,0,1-.3-.21,1.55,1.55,0,0,1-.24-.38c0-.09-.1-.22-.17-.4s-.15-.36-.23-.57-.16-.42-.24-.64-.16-.42-.23-.61-.13-.35-.19-.49-.09-.23-.11-.28a1.23,1.23,0,0,0-.34-.43.48.48,0,0,0-.54,0,.75.75,0,0,0-.39.41A1.49,1.49,0,0,0,91,113a3.73,3.73,0,0,0,.14.86,8.31,8.31,0,0,0,.33,1c.1.22.2.48.31.77s.26.66.44,1.1l.07.19a.49.49,0,0,1,0,.11.16.16,0,0,1-.06.08l-.15.09-.34.16a1.91,1.91,0,0,1-.58.2.78.78,0,0,1-.41,0,.72.72,0,0,1-.31-.21,1.91,1.91,0,0,1-.24-.38c-.06-.14-.15-.35-.26-.63s-.22-.58-.33-.89-.23-.59-.33-.87l-.24-.6a1.25,1.25,0,0,0-.35-.43.48.48,0,0,0-.53,0,.74.74,0,0,0-.39.44,2.1,2.1,0,0,0-.06.73,5.3,5.3,0,0,0,.19.93A11,11,0,0,0,88.32,116.68Z"/><path class="cls-31" d="M93.45,107.5a.87.87,0,0,1-.11-.81A1.44,1.44,0,0,1,94,106a1.06,1.06,0,0,1,.73-.22.67.67,0,0,1,.49.33.93.93,0,0,1,.12.79,1.39,1.39,0,0,1-.64.75C94.12,108,93.72,107.92,93.45,107.5Zm4.94,6.17a1.82,1.82,0,0,1-.54.25.91.91,0,0,1-.43,0,.83.83,0,0,1-.34-.19,2,2,0,0,1-.3-.38c-.07-.1-.15-.24-.26-.43s-.25-.45-.42-.79l-.69-1.27-1-1.92c-.08-.15-.12-.24-.11-.29s0-.07.14-.13l.38-.25a2.58,2.58,0,0,1,.54-.26.8.8,0,0,1,.76.17,1.46,1.46,0,0,1,.29.35l.27.46.46.84.72,1.33,1,1.92a.33.33,0,0,1,0,.19s-.06.09-.14.15Z"/><path class="cls-32" d="M102.75,108.85a1.85,1.85,0,0,1-.77,1.91,2.64,2.64,0,0,1-.79.42,1.71,1.71,0,0,1-.84,0,2.23,2.23,0,0,1-.86-.38,4,4,0,0,1-.85-.85,7.12,7.12,0,0,1-.64-1,3.62,3.62,0,0,1-.37-1.17,2.68,2.68,0,0,1,.14-1.22,2.52,2.52,0,0,1,.88-1.12,2,2,0,0,1,.53-.31,1.39,1.39,0,0,1,.47-.11,1.42,1.42,0,0,1,.42.06,1.9,1.9,0,0,1,.37.2.34.34,0,0,1,0-.08l-.13-.19-.14-.21-.09-.13c0-.06,0-.13,0-.18l.42-.34a1,1,0,0,1,1.67.25l.25.35.46.66c.18.26.37.55.58.87s.41.64.61,1,.4.65.58.95.33.59.45.83a3,3,0,0,1,.25.79,2.2,2.2,0,0,1,0,.88,2.77,2.77,0,0,1-.45.94,4.62,4.62,0,0,1-1,1,4.29,4.29,0,0,1-.94.58,2.76,2.76,0,0,1-.8.22,1.57,1.57,0,0,1-.63-.06.93.93,0,0,1-.43-.3.72.72,0,0,1-.16-.36.77.77,0,0,1,0-.37,1,1,0,0,1,.16-.33,1.48,1.48,0,0,1,.25-.25.36.36,0,0,1,.3-.09l.33.08a1.16,1.16,0,0,0,.42,0,1.46,1.46,0,0,0,.59-.31,1.16,1.16,0,0,0,.52-1.12A3.62,3.62,0,0,0,102.75,108.85Zm-1.11.19a1,1,0,0,0,.41-.57,1.35,1.35,0,0,0,0-.6,1.67,1.67,0,0,0-.23-.57,3.73,3.73,0,0,0-.29-.44,1.77,1.77,0,0,0-.79-.66.74.74,0,0,0-.7.16,1,1,0,0,0-.4.6,1.68,1.68,0,0,0,.05.67,2.82,2.82,0,0,0,.27.61c.12.19.21.32.28.42a1.52,1.52,0,0,0,.7.57A.75.75,0,0,0,101.64,109Z"/><path class="cls-33" d="M105.34,106.7a1.86,1.86,0,0,1-.48-1.85,5.58,5.58,0,0,1,1.57-2.42l-.14-.17-.15-.16a1.08,1.08,0,0,0-.52-.33c-.17,0-.36,0-.58.25a.94.94,0,0,0-.23.33.55.55,0,0,0,0,.31,1,1,0,0,0,.09.32c.06.11.12.23.2.35a.18.18,0,0,1,0,.17.85.85,0,0,1-.17.2c-.57.56-1.07.62-1.49.19a1.43,1.43,0,0,1-.36-.62,1.74,1.74,0,0,1,0-.76,2.61,2.61,0,0,1,.34-.86,4.6,4.6,0,0,1,.75-.92,2.69,2.69,0,0,1,1.73-.93,2,2,0,0,1,1.49.68c.06.07.16.18.3.36l.44.55.44.55c.14.17.24.29.3.35a.67.67,0,0,0,.37.23.58.58,0,0,0,.29,0l.22-.11a.11.11,0,0,1,.16,0,2.32,2.32,0,0,1,.32.42,1.69,1.69,0,0,1,.18.52,1.36,1.36,0,0,1-.06.56,1.56,1.56,0,0,1-.39.58,1.16,1.16,0,0,1-.79.39,1.45,1.45,0,0,1-.8-.27,2.52,2.52,0,0,1,0,1,2,2,0,0,1-.63,1,3.21,3.21,0,0,1-.53.4,1.36,1.36,0,0,1-1.18.09A1.56,1.56,0,0,1,105.34,106.7Zm1.68-3.51a4.19,4.19,0,0,0-.39.45,2.64,2.64,0,0,0-.28.47,1.07,1.07,0,0,0-.08.45.61.61,0,0,0,.18.39.41.41,0,0,0,.39.15.75.75,0,0,0,.34-.18.93.93,0,0,0,.21-.33.91.91,0,0,0,.06-.41,1.5,1.5,0,0,0-.11-.48A1.84,1.84,0,0,0,107,103.19Z"/><path class="cls-34" d="M110.2,99.63a1.29,1.29,0,0,1-.37.32.68.68,0,0,1-.36.08,1,1,0,0,1-.37-.13,3.2,3.2,0,0,1-.4-.3l-.17-.16-.22-.22-.33-.34-.51-.52-.74-.76-1.06-1.07a.77.77,0,0,1-.19-.24s0-.09.1-.17l.46-.52a1.38,1.38,0,0,1,.8-.53.81.81,0,0,1,.63.19c.1.09.23.23.39.4s.32.37.5.59.37.46.57.71l.57.74.54.69.43.58a.3.3,0,0,1,.09.18.26.26,0,0,1-.08.17Zm.45.74a.89.89,0,0,1,.64-.37,1,1,0,0,1,.65.29,1.42,1.42,0,0,1,.28.31,1.16,1.16,0,0,1,.2.4,1.1,1.1,0,0,1,0,.48,1.25,1.25,0,0,1-.29.54.82.82,0,0,1-.69.35,1.16,1.16,0,0,1-.64-.31,1.68,1.68,0,0,1-.3-.35,1,1,0,0,1-.18-.4,1,1,0,0,1,0-.45A1.34,1.34,0,0,1,110.65,100.37Z"/><path class="cls-35" d="M116.65,93.86V91h1.26a1.75,1.75,0,0,1,.58.07.67.67,0,0,1,.31.27.75.75,0,0,1,.13.43.77.77,0,0,1-.2.52,1.12,1.12,0,0,1-.61.26.92.92,0,0,1,.23.14,1.76,1.76,0,0,1,.31.38l.5.77h-.48l-.37-.59a2.68,2.68,0,0,0-.28-.39.49.49,0,0,0-.19-.19.38.38,0,0,0-.17-.08H117v1.26Zm.38-1.59h.81a1.4,1.4,0,0,0,.4,0,.43.43,0,0,0,.22-.17.52.52,0,0,0,.08-.26.43.43,0,0,0-.15-.33.67.67,0,0,0-.46-.13H117Z"/><path class="cls-35" d="M117.92,95.52a3,3,0,1,1,3-3A3,3,0,0,1,117.92,95.52Zm0-5.49a2.52,2.52,0,1,0,2.52,2.52A2.51,2.51,0,0,0,117.92,90Z"/></svg>