<?xml version="1.0" encoding="UTF-8"?><svg id="a" xmlns="http://www.w3.org/2000/svg" viewBox="0 0 171.32 125"><path d="M22.47,6.63c0,2.29,.1,4.86-.1,7.06h-6.1l-.19,.19v9.92c2,.19,4.2,.1,6.2,.1,.1,2,.19,4.29,.1,6.48l-6.29,.1c-.1,7.63-.1,15.83-.1,23.65h-6.58l.29-47.48,.1-.1,12.68,.1h0Z" style="fill:#221f20; fill-rule:evenodd;"/><path d="M29.91,6.72l-.19,47.48h-6.48l.29-47.58c2-.19,4,0,6.29,0l.1,.1h0Z" style="fill:#221f20; fill-rule:evenodd;"/><path d="M70.62,6.72c.1,1.81,0,3.91,0,5.82,.29,.38,.76,.09,1.14,.29v6.29c-.38,.29-1.33-.19-1.14,.48v14.21l-.19,20.6c-2,.1-4.29,0-6.39,0V19.21c-.38-.19-.95,.19-1.05-.29v-6.1c.38-.19,.95,.1,1.14-.38V6.72h6.48Z" style="fill:#221f20; fill-rule:evenodd;"/><path d="M161.68,9.11c.67,1.05,.67,2.77,.1,3.91-.76,1.33-2.1,2.19-3.62,2.19-1.43,0-2.67-.76-3.43-2-.67-.95-.86-2.38-.38-3.53,.48-1.43,2.1-2.48,3.62-2.57,1.53-.1,2.86,.67,3.72,2h0Zm-5.24-.76c-1.14,.76-1.81,2.1-1.62,3.34,.29,1.24,1.33,2.48,2.67,2.67,1.43,.29,2.57-.29,3.43-1.43,.57-.95,.76-2.48,0-3.43-.86-1.43-3.05-2.19-4.48-1.14h0Z" style="fill:#221f20; fill-rule:evenodd;"/><path d="M159.77,9.49c.19,.48,0,1.05-.29,1.43-.1,.1-.29,.1-.38,.19,.76,.48,.57,1.53,.86,2.29h-.86c-.38-.57-.1-1.53-.76-1.91-.38,0-1.24-.38-1.14,.38v1.53h-.57c-.1-1.33-.1-2.96-.1-4.39l.1-.38c1.14,.29,2.38-.29,3.15,.86h0Zm-2.29,0c-.19,.29-.19,.76,0,1.14,.19,0,.57,0,.86-.1,.29,0,.67-.29,.57-.76-.29-.38-.95-.19-1.43-.29h0Z" style="fill:#221f20; fill-rule:evenodd;"/><path d="M95.13,14.73V49.44c.29,.48,.86,.48,1.33,.38,.1-.19,.48-.19,.48-.48l.1-36.42,.19-.1,6.39,.1v10.49l-.19,30.99c-2.1,.29-4.2,0-6.39,.1-.19-.29,0-.76-.19-1.05-1.33,1.14-3.24,1.24-4.96,.95-1.53-.48-2.96-1.91-3.34-3.43l.1-28.03c0-3.43-.1-7.15,.19-10.11h6.29v1.91h0Z" style="fill:#221f20; fill-rule:evenodd;"/><path d="M128.79,13.87c.76-.19,1.62-.95,2.57-.95,1.43,0,2.77,.19,3.72,1.33,.38,.57,.76,1.05,.86,1.72v14.78c-2.1,.1-4.1,0-6.1,0-.1-3.53,0-7.25-.1-11.35-.1-.29-.29-.48-.48-.57-.48,0-.86,.19-1.05,.48l-.1,.76-.1,34.42c-2,.1-4.29,.1-6.48,0l.1-41.48c.09,0,.09-.1,.09-.1h7.06v.95h0Z" style="fill:#221f20; fill-rule:evenodd;"/><path d="M44.98,15.49c.57,.95,1.14,1.91,1.05,3.05v16.11h-7.63l-.1,.19-.1,13.54c.1,.29,.19,.57,.57,.67,.19,0,.57-.19,.57-.48,.1-4.2,.19-7.06,.1-11.44,2.19-.1,4.29-.1,6.58,0l-.1,13.25c-.76,2.19-3.15,3.81-5.34,4-3.24,.38-6.87,0-8.49-3.15-.48-.67-.38-1.62-.38-2.57V17.88c.48-2.1,2.38-4,4.39-4.58,3.05-.86,7.06-.48,8.87,2.19h0Zm-5.53,3.24c-.29-.1-.57-.1-.95,0-.19,3.34-.1,6.1-.1,9.82h1.05v-9.82h0Z" style="fill:#221f20; fill-rule:evenodd;"/><path d="M80.83,14.06c.19-.38-.19-1.14,.38-1.34l5.43,.1,.19,.19-.29,47.58c-.29,1.53-1.34,3.05-2.77,3.81-3.15,1.33-7.63,1.24-10.2-1.24-2.29-2.67-.76-7.15-1.24-10.3,2.1-.29,4.39-.1,6.48-.19,.19,2.67-.19,4.77,.09,6.96,.19,.29,.57,.29,.86,.29l.38-.48v-7.72c-.48-.29-.95,.29-1.43,.29-1.72,.29-3.72,.29-5.05-.95-.67-.67-1.05-1.62-1.33-2.48l.19-30.42c.19-2.1,.95-4.29,3.05-5.24,1.81-.48,4-.38,5.24,1.14h0Zm-1.24,4.67c-.19,0-.48,.19-.57,.38l-.1,27.37c.1,.29,.38,.29,.57,.29,.29,0,.48,0,.67-.29l.1-27.37c-.1-.19-.38-.38-.67-.38h0Z" style="fill:#221f20; fill-rule:evenodd;"/><path d="M61.09,16.73l.48,1.24v16.78h-7.63l-.19,.1-.1,13.83c.19,.1,.38,.48,.57,.48,1.14-.1,.48-1.43,.76-1.91l.1-10.01h6.29c.29,4.29,.09,8.96,0,13.35-.76,2.19-3.15,3.62-5.34,3.91-2.86,.38-5.72,0-7.63-2-.57-.76-1.05-1.43-1.24-2.29l.19-32.42c.57-2,2.48-3.91,4.67-4.48,3.43-.95,7.63-.1,9.06,3.43h0Zm-7.15,2.38c-.1,3.15-.1,6.67,0,9.53h1.05l.1-9.53c-.1-.38-1.05-.48-1.14,0h0Z" style="fill:#221f20; fill-rule:evenodd;"/><path d="M152.15,31.42l-.19,23.17c-2.19,.1-4.58,.1-6.96,0,0-.19-.1-.19-.19-.38-2,.76-4.77,.67-6.48-.57-.76-.38-.95-1.14-1.24-1.72l.1-36.04c.38-1.53,2.1-2.48,3.53-2.86,1.72-.19,3.43,.1,4.86,.76l.1-.86V7.1c1.91-.29,4.29,0,6.48,0V31.42h0Zm-8.3-11.73l-.19,28.99c.1,.29,.1,.67,.48,.67,.1,0,.57,.29,.67-.19l.19-29.08c0-.57-.86-.76-1.14-.38h0Z" style="fill:#221f20; fill-rule:evenodd;"/><path d="M119.44,16.35l.29,.67-.19,37.57-6.29-.1c-.29-.19,0-.57-.19-.86-1.81,1.14-4.58,1.24-6.48,.29-.57-.48-1.14-1.05-1.24-1.91l.19-18.5c1.33-3.43,5.15-5.53,8.2-7.06v-6.58c-.19-.38-.76-.67-1.24-.48-.67,.29-.48,1.05-.57,1.62v4.77c-2.19,.29-4.1,0-6.39,.1l-.1-7.63c.57-2.48,2.57-4.58,4.96-5.15,3.53-.67,7.44,0,9.06,3.24h0Zm-6.29,18.02c-.86,0-.95,.95-1.24,1.43-.1,3.91,0,8.58,0,12.97l.29,.38c.29,.19,.76,0,.86-.29l.1-14.49h0Z" style="fill:#221f20; fill-rule:evenodd;"/><path d="M70.43,56.02c0,5.91,.1,12.87,0,18.78l-.1,26.98-.1,16.69-26.22-.1-34.8-.1-.1-.57,.19-37.09,.1-22.03c0-.86-.1-1.81,.1-2.77,20.5,0,40.43,.1,60.93,.19h0Z" style="fill:#d15451; fill-rule:evenodd;"/></svg>