<?xml version="1.0" encoding="utf-8"?>
<!-- Generator: Adobe Illustrator 26.5.0, SVG Export Plug-In . SVG Version: 6.00 Build 0)  -->
<svg version="1.1" id="Capa_1" xmlns="http://www.w3.org/2000/svg" xmlns:xlink="http://www.w3.org/1999/xlink" x="0px" y="0px"
	 viewBox="0 0 326 125" style="enable-background:new 0 0 326 125;" xml:space="preserve">
<style type="text/css">
	.st0{fill:#40D3B7;}
	.st1{fill:#162F4E;}
</style>
<g>
	<g transform="translate(-137.938 -33.211)">
		<g>
			<g>
				<g>
					<path class="st0" d="M160.9,93.7v6.8l10.4,0.2c-0.2,0.7-0.4,1.4-0.8,2.1c-0.8,1.5-2,2.7-3.4,3.5c-1.7,0.9-3.5,1.3-5.4,1.2
						c-2,0-3.8-0.5-5.5-1.5c-1.6-1-3-2.4-3.8-4c-1-1.9-1.5-3.9-1.4-6c0-2.1,0.4-4.1,1.4-5.9c0.9-1.7,2.3-3.1,3.9-3.9
						c1.8-1,3.7-1.5,5.7-1.4c1.9,0,3.6,0.4,5.3,1.2c1.6,0.8,3.1,2,4.1,3.3l5.5-5.5c-1.8-2.1-3.9-3.6-6.3-4.7
						c-2.7-1.2-5.6-1.8-8.5-1.7c-2.6,0-5.2,0.5-7.6,1.4c-2.3,0.9-4.4,2.3-6.2,3.9c-1.8,1.7-3.2,3.7-4.1,5.9c-1,2.4-1.5,4.8-1.5,7.4
						c-0.1,7.6,4.5,14.5,11.5,17.3c2.4,1,4.9,1.5,7.4,1.5c3.3,0.1,6.6-0.7,9.5-2.3c2.8-1.6,5-3.8,6.5-6.7c1.7-3.4,2.5-7.2,2.4-10.9
						v-1.2C180,93.7,160.9,93.7,160.9,93.7z"/>
					<path class="st0" d="M209.8,97.2c-0.9-1-2-1.8-3.2-2.3c0.9-0.5,1.6-1,2.3-1.7c1.5-1.6,2.2-3.5,2.2-5.6c0.1-3.4-1.9-6.7-5-8.3
						c-1.9-0.9-3.8-1.4-5.9-1.3h-15.6v36.3H200c2.3,0.1,4.5-0.4,6.6-1.4c1.8-0.8,3.2-2.2,4.2-3.7c1-1.6,1.5-3.4,1.5-5.4
						C212.3,101.3,211.5,99,209.8,97.2L209.8,97.2z M198.6,84.3c1.2-0.1,2.3,0.3,3.2,1c0.9,0.8,1.3,1.9,1.3,3.1
						c0.1,1.2-0.4,2.3-1.3,3.1c-0.9,0.7-2.1,1.1-3.2,1h-6.1v-8.1H198.6z M203,106.6c-1,1-2.4,1.5-3.7,1.4h-6.7v-9.5h6.7
						c1,0,1.9,0.2,2.7,0.6c0.7,0.4,1.3,1,1.7,1.7c0.4,0.8,0.6,1.6,0.6,2.5C204.4,104.5,203.9,105.7,203,106.6z"/>
					<path class="st1" d="M243.2,93.7v6.8l10.4,0.2c-0.2,0.7-0.4,1.4-0.8,2.1c-0.8,1.5-2,2.7-3.4,3.5c-1.7,0.9-3.5,1.3-5.4,1.2
						c-2,0-3.8-0.5-5.5-1.5c-1.6-1-3-2.4-3.8-4c-1-1.9-1.5-3.9-1.4-6c0-2.1,0.4-4.1,1.4-5.9c0.9-1.7,2.3-3.1,3.9-3.9
						c1.8-1,3.7-1.5,5.7-1.4c1.9,0,3.6,0.4,5.3,1.2c1.6,0.8,3.1,2,4.1,3.3l5.5-5.5c-1.8-2.1-3.9-3.6-6.3-4.7
						c-2.7-1.2-5.6-1.8-8.5-1.7c-2.6,0-5.2,0.5-7.6,1.4c-2.3,0.9-4.4,2.3-6.2,3.9c-1.8,1.7-3.2,3.7-4.1,5.9c-1,2.4-1.5,4.8-1.5,7.4
						c-0.1,7.6,4.5,14.5,11.5,17.3c2.4,1,4.9,1.5,7.4,1.5c3.3,0.1,6.6-0.7,9.5-2.3c2.8-1.6,5-3.8,6.5-6.7c1.7-3.4,2.5-7.2,2.4-10.9
						v-1.2C262.3,93.7,243.2,93.7,243.2,93.7z"/>
					<path class="st1" d="M266.3,114.3V84.9c0-4.3,3.5-7.9,7.9-7.9v37.3H266.3z"/>
					<path class="st1" d="M291.3,114.9c-2.5,0-4.8-0.6-7-1.7c-2.1-1.1-3.7-2.8-4.9-4.7c-1.2-2-1.9-4.3-1.8-6.7
						c0-2.4,0.6-4.6,1.8-6.6c1.2-2,2.9-3.5,4.9-4.6c2.2-1.2,4.5-1.8,7-1.7c2.5,0,4.8,0.6,7,1.7c2,1.1,3.7,2.7,4.9,4.6
						s1.9,4.3,1.8,6.7c0,2.4-0.6,4.6-1.8,6.7c-1.2,2-2.9,3.6-4.9,4.7C296.1,114.3,293.8,114.9,291.3,114.9z M291.3,107.7
						c1.1,0,2.1-0.2,3-0.8c0.9-0.5,1.6-1.2,2-2.1c0.5-1,0.7-2.1,0.7-3.2s-0.2-2.2-0.7-3.1s-1.2-1.6-2-2.1c-1.9-1-4-1-5.9,0
						c-0.9,0.5-1.6,1.2-2,2.1c-1,2-1,4.2,0,6.1c0.5,0.9,1.2,1.6,2,2.1C289.2,107.5,290.2,107.7,291.3,107.7L291.3,107.7z"/>
					<path class="st1" d="M333.3,95.1c-1-1.9-2.5-3.5-4.3-4.6c-1.9-1.2-4-1.8-6.3-1.7c-1.6,0-3.2,0.3-4.6,1
						c-0.7,0.3-1.3,0.7-1.9,1.2V77c-4.3,0-7.9,3.5-7.9,7.9v29.4h7.8v-1.9c0.6,0.5,1.3,1,2,1.3c1.5,0.7,3.1,1.1,4.6,1.1
						c2.3,0,4.4-0.6,6.3-1.7c1.9-1.1,3.3-2.8,4.3-4.6C335.4,104.3,335.4,99.3,333.3,95.1L333.3,95.1z M326.1,104.9
						c-1,1.8-2.9,3-4.9,2.9c-1,0-2.1-0.2-3-0.8c-0.9-0.5-1.5-1.2-2-2.1c-0.5-1-0.8-2-0.7-3.1c0-1.1,0.2-2.2,0.7-3.1
						c0.5-0.9,1.1-1.6,2-2.1c0.9-0.5,1.9-0.8,3-0.8c1,0,2.1,0.2,2.9,0.8c0.9,0.5,1.5,1.2,2,2.1c0.5,1,0.8,2,0.7,3.1
						C326.9,102.9,326.6,103.9,326.1,104.9L326.1,104.9z"/>
					<path class="st1" d="M355.8,89.3v2.2c-0.7-0.7-1.5-1.3-2.4-1.7c-1.4-0.7-3-1-4.5-1c-2.2,0-4.3,0.6-6.1,1.7
						c-1.8,1.2-3.2,2.8-4.2,4.6c-2.1,4.2-2.1,9.2,0,13.4c1,1.9,2.5,3.4,4.2,4.6c1.9,1.2,3.9,1.8,6.1,1.7c1.6,0,3.2-0.3,4.5-1
						c0.9-0.4,1.7-1,2.3-1.7v2.1h7.7v-25L355.8,89.3L355.8,89.3L355.8,89.3z M354.5,106c-1.1,1.1-2.6,1.8-4,1.7c-1,0-2-0.3-2.9-0.8
						c-0.9-0.5-1.6-1.2-2-2.1c-1-2-1-4.2,0-6.1c0.5-0.9,1.2-1.6,2-2.1c1.8-1,4-1,5.8,0c0.8,0.5,1.5,1.2,2,2.1c0.5,1,0.7,2,0.7,3.1
						C356.1,103.4,355.6,104.9,354.5,106z"/>
					<path class="st1" d="M368.3,114.3V84.9c0-4.3,3.5-7.9,7.9-7.9l0,0v37.3H368.3z"/>
					<path class="st1" d="M144.5,154.7v-36.3c4.4,0,8.1,3.6,8.1,8.1l0,0v28.3H144.5z"/>
					<path class="st1" d="M181.6,134c-0.8-1.4-2-2.7-3.3-3.4c-1.5-0.9-3.2-1.4-4.9-1.3c-1.8,0-3.5,0.4-5.1,1.2
						c-0.7,0.4-1.3,0.8-1.9,1.3v-2h-7.9v25h7.9v-14.3c0-0.8,0.2-1.6,0.6-2.3c0.4-0.7,0.9-1.2,1.6-1.6c0.7-0.4,1.5-0.6,2.3-0.5
						c1.2,0,2.3,0.4,3.1,1.2c0.8,0.9,1.3,2,1.2,3.2v14.3h7.9v-15.9C182.9,137.1,182.4,135.5,181.6,134z"/>
					<path class="st1" d="M204.1,129.8h-5.6v-10.3c-4.3,0-7.9,3.5-7.9,7.9v2.5h-5.7v6.7h5.7v18.3h7.9v-18.3h5.6V129.8z"/>
					<path class="st1" d="M229.6,135.2c-1.1-1.9-2.6-3.3-4.4-4.4c-2-1.1-4.2-1.7-6.5-1.6c-2.4,0-4.7,0.6-6.8,1.7
						c-6.3,3.6-8.5,11.7-4.8,18l0,0c1.2,2,3,3.5,4.9,4.6c2.3,1.2,4.7,1.7,7.2,1.7c2,0,3.9-0.3,5.7-1.1c1.8-0.7,3.2-1.8,4.4-3.2
						l-4.3-4.3c-0.7,0.8-1.6,1.5-2.7,2c-1.1,0.4-2.2,0.7-3.3,0.7c-1.2,0-2.4-0.3-3.4-0.9c-1-0.6-1.8-1.4-2.3-2.5
						c-0.2-0.4-0.3-0.7-0.4-1.1h17.8c0.1-0.6,0.2-1.2,0.3-1.7s0.1-1,0.1-1.4C231.2,139.4,230.6,137.2,229.6,135.2L229.6,135.2z
						 M215.4,136.1c1-0.6,2.1-0.9,3.2-0.9c1.1,0,2.1,0.2,3,0.7c0.8,0.5,1.5,1.3,1.9,2.2c0.2,0.4,0.3,0.9,0.4,1.3H213
						c0.1-0.4,0.2-0.7,0.3-1C213.8,137.4,214.5,136.7,215.4,136.1L215.4,136.1z"/>
					<path class="st1" d="M251.9,129.8c-1-0.4-2.1-0.6-3.2-0.5c-2.4-0.1-4.7,0.8-6.4,2.5v-1.9h-7.9v25h7.9V141
						c-0.1-1.3,0.3-2.7,1.2-3.6c0.8-0.8,2-1.3,3.2-1.2c0.6,0,1.2,0.1,1.8,0.3c0.5,0.2,0.9,0.5,1.3,0.9l4.7-5.9
						C253.7,130.8,252.8,130.2,251.9,129.8L251.9,129.8z"/>
					<path class="st1" d="M279.6,134c-0.8-1.4-2-2.7-3.3-3.4c-1.5-0.9-3.2-1.4-4.9-1.3c-1.8,0-3.5,0.4-5.1,1.2
						c-0.7,0.4-1.3,0.8-1.9,1.3v-2h-7.9v25h7.9v-14.3c0-0.8,0.2-1.6,0.6-2.3s0.9-1.2,1.6-1.6c0.7-0.4,1.5-0.6,2.3-0.5
						c1.2,0,2.3,0.4,3.1,1.2c0.8,0.9,1.3,2,1.2,3.2v14.3h7.9v-15.9C280.9,137.1,280.4,135.5,279.6,134z"/>
					<path class="st1" d="M302.8,129.8v2.2c-0.7-0.7-1.5-1.3-2.4-1.7c-1.4-0.7-3-1-4.5-1c-2.2,0-4.3,0.6-6.1,1.7
						c-1.8,1.2-3.2,2.8-4.2,4.6c-2.1,4.2-2.1,9.2,0,13.4c1,1.9,2.5,3.4,4.2,4.6c1.9,1.2,3.9,1.8,6.1,1.7c1.6,0,3.2-0.3,4.5-1
						c0.9-0.4,1.7-1,2.3-1.7v2.1h7.7v-25L302.8,129.8L302.8,129.8z M301.5,146.5c-1.1,1.1-2.6,1.8-4,1.7c-1,0-2-0.3-2.9-0.8
						s-1.6-1.2-2-2.1c-1-2-1-4.2,0-6.1c0.5-0.9,1.2-1.6,2-2.1c1.8-1,4-1,5.8,0c0.8,0.5,1.5,1.2,2,2.1c0.5,1,0.7,2,0.7,3.1
						C303.2,143.8,302.6,145.3,301.5,146.5z"/>
					<path class="st1" d="M332.3,129.8h-5.6v-10.3c-4.3,0-7.9,3.5-7.9,7.9l0,0v2.5h-5.6v6.7h5.6v18.3h7.9v-18.3h5.6V129.8
						L332.3,129.8z"/>
					<g>
						<path class="st1" d="M338.8,126.3c1.2,0,2.3-0.4,3.1-1.3c1.6-1.8,1.6-4.4,0-6.1c-0.8-0.8-1.9-1.3-3.1-1.3
							c-1.2,0-2.3,0.4-3.1,1.3c-1.6,1.8-1.6,4.4,0,6.1C336.6,125.8,337.7,126.3,338.8,126.3z"/>
						<path class="st1" d="M342.8,129.8v25h-7.9v-25H342.8z"/>
					</g>
					<path class="st1" d="M359.7,155.3c-2.5,0-4.8-0.6-7-1.7c-2.1-1.1-3.7-2.8-4.9-4.7c-1.2-2-1.9-4.3-1.8-6.7
						c0-2.4,0.6-4.6,1.8-6.6c1.2-2,2.9-3.5,4.9-4.6c2.2-1.2,4.5-1.8,7-1.7c2.5,0,4.8,0.6,7,1.7c2,1.1,3.7,2.7,4.9,4.6
						s1.9,4.3,1.8,6.7c0,2.4-0.6,4.6-1.8,6.7c-1.2,2-2.9,3.6-4.9,4.7C364.6,154.8,362.2,155.4,359.7,155.3L359.7,155.3z
						 M359.7,148.2c1.1,0,2.1-0.2,3-0.8c0.9-0.5,1.6-1.2,2-2.1c0.5-1,0.7-2.1,0.7-3.2c0-1.1-0.2-2.1-0.7-3.1c-0.5-0.9-1.2-1.6-2-2.1
						c-1.9-1-4-1-5.9,0c-0.9,0.5-1.6,1.2-2,2.1c-1,2-1,4.2,0,6.1c0.5,0.9,1.2,1.6,2,2.1C357.7,147.9,358.7,148.2,359.7,148.2
						L359.7,148.2z"/>
					<path class="st1" d="M399.9,134c-0.8-1.4-2-2.7-3.3-3.4c-1.5-0.9-3.2-1.4-4.9-1.3c-1.8,0-3.5,0.4-5.1,1.2
						c-0.7,0.4-1.3,0.8-1.9,1.3v-2h-7.9v25h7.9v-14.3c0-0.8,0.2-1.6,0.6-2.3s0.9-1.2,1.6-1.6c0.7-0.4,1.5-0.6,2.3-0.5
						c1.2,0,2.3,0.4,3.1,1.2c0.8,0.9,1.3,2,1.2,3.2v14.3h7.9v-15.9C401.2,137.1,400.7,135.5,399.9,134L399.9,134z"/>
					<path class="st1" d="M423.1,129.8v2.2c-0.7-0.7-1.5-1.3-2.4-1.7c-1.4-0.7-3-1-4.5-1c-2.2,0-4.3,0.6-6.1,1.7
						c-1.8,1.2-3.2,2.8-4.2,4.6c-2.1,4.2-2.1,9.2,0,13.4c1,1.9,2.5,3.4,4.2,4.6c1.9,1.2,3.9,1.8,6.1,1.7c1.6,0,3.2-0.3,4.5-1
						c0.9-0.4,1.7-1,2.3-1.7v2.1h7.7v-25L423.1,129.8L423.1,129.8z M421.8,146.5c-1.1,1.1-2.6,1.8-4,1.7c-1,0-2-0.3-2.9-0.8
						s-1.6-1.2-2-2.1c-1-2-1-4.2,0-6.1c0.5-0.9,1.2-1.6,2-2.1c1.8-1,4-1,5.8,0c0.8,0.5,1.5,1.2,2,2.1c0.5,1,0.7,2,0.7,3.1
						C423.5,143.8,422.9,145.3,421.8,146.5L421.8,146.5z"/>
					<path class="st1" d="M435.7,154.7v-29.4c0-4.3,3.5-7.9,7.9-7.9l0,0v37.4L435.7,154.7z"/>
				</g>
				<g>
					<g>
						<g>
							<g>
								<g>
									<path class="st1" d="M426.6,43.9c-0.6,0-1.1-0.5-1.1-1.1v-5.6c0-0.6,0.5-1.1,1.1-1.1s1.1,0.5,1.1,1.1v5.6
										C427.6,43.4,427.1,43.9,426.6,43.9z"/>
								</g>
							</g>
						</g>
					</g>
					<g>
						<g>
							<g>
								<g>
									<path class="st1" d="M419.9,44.8c-0.5,0-0.9-0.3-1-0.8l-1.5-5.4c-0.2-0.6,0.2-1.2,0.8-1.3c0.6-0.2,1.2,0.2,1.3,0.8l1.5,5.4
										c0.2,0.6-0.2,1.2-0.8,1.3l0,0C420.1,44.8,420,44.8,419.9,44.8z"/>
								</g>
							</g>
						</g>
					</g>
					<g>
						<g>
							<g>
								<g>
									<path class="st1" d="M413.7,47.4c-0.4,0-0.7-0.2-0.9-0.5l-2.8-4.8c-0.3-0.5-0.1-1.2,0.4-1.5c0.5-0.3,1.2-0.1,1.5,0.4l0,0
										l2.8,4.8c0.3,0.5,0.1,1.2-0.4,1.5C414.1,47.4,413.9,47.4,413.7,47.4L413.7,47.4z"/>
								</g>
							</g>
						</g>
					</g>
					<g>
						<g>
							<g>
								<g>
									<path class="st0" d="M408.2,51.5c-0.3,0-0.6-0.1-0.8-0.3l-3.9-3.9c-0.4-0.4-0.4-1.1,0-1.5c0.4-0.4,1.1-0.4,1.5,0l3.9,3.9
										c0.4,0.4,0.4,1.1,0,1.5C408.8,51.4,408.5,51.5,408.2,51.5z"/>
								</g>
							</g>
						</g>
					</g>
					<g>
						<g>
							<g>
								<g>
									<path class="st1" d="M404.2,56.8c-0.2,0-0.4,0-0.5-0.1l-4.8-2.8c-0.5-0.3-0.7-0.9-0.4-1.5c0.3-0.5,0.9-0.7,1.5-0.4l0,0
										l4.8,2.8c0.5,0.3,0.7,0.9,0.4,1.5C404.9,56.6,404.5,56.9,404.2,56.8L404.2,56.8z"/>
								</g>
							</g>
						</g>
					</g>
					<g>
						<g>
							<g>
								<g>
									<path class="st1" d="M401.5,63.1c-0.1,0-0.2,0-0.3,0l-5.4-1.5c-0.6-0.2-0.9-0.7-0.8-1.3c0.2-0.6,0.7-0.9,1.3-0.8l5.4,1.5
										c0.6,0.1,0.9,0.7,0.8,1.3C402.5,62.8,402,63.1,401.5,63.1L401.5,63.1z"/>
								</g>
							</g>
						</g>
					</g>
					<g>
						<g>
							<g>
								<g>
									<path class="st1" d="M400.7,69.8h-5.6c-0.6,0-1.1-0.5-1.1-1.1s0.5-1.1,1.1-1.1h5.6c0.6,0,1.1,0.5,1.1,1.1
										S401.3,69.8,400.7,69.8z"/>
								</g>
							</g>
						</g>
					</g>
					<g>
						<g>
							<g>
								<g>
									<path class="st1" d="M396.2,78c-0.6,0-1.1-0.5-1.1-1c0-0.5,0.3-0.9,0.8-1.1l5.4-1.5c0.6-0.2,1.2,0.2,1.3,0.8
										c0.2,0.6-0.2,1.2-0.8,1.3l-5.4,1.5C396.3,78,396.3,78,396.2,78z"/>
								</g>
							</g>
						</g>
					</g>
					<g>
						<g>
							<g>
								<g>
									<path class="st1" d="M399.4,85.6c-0.6,0-1.1-0.5-1.1-1.1c0-0.4,0.2-0.7,0.5-0.9l4.8-2.8c0.5-0.3,1.2-0.1,1.5,0.4
										c0.3,0.5,0.1,1.2-0.4,1.5l0,0l-4.8,2.8C399.7,85.5,399.5,85.6,399.4,85.6z"/>
								</g>
							</g>
						</g>
					</g>
					<g>
						<g>
							<g>
								<g>
									<path class="st0" d="M404.3,92.1c-0.6,0-1.1-0.5-1.1-1.1c0-0.3,0.1-0.6,0.3-0.8l3.9-3.9c0.4-0.4,1.1-0.4,1.5,0
										c0.4,0.4,0.4,1.1,0,1.5l-3.9,3.9C404.9,92,404.6,92.1,404.3,92.1L404.3,92.1z"/>
								</g>
							</g>
						</g>
					</g>
					<g>
						<g>
							<g>
								<g>
									<path class="st1" d="M410.9,97.1c-0.6,0-1.1-0.5-1.1-1.1c0-0.2,0-0.4,0.1-0.5l2.8-4.8c0.3-0.5,0.9-0.7,1.5-0.4
										c0.5,0.3,0.7,0.9,0.4,1.5l-2.8,4.8C411.6,96.9,411.2,97.1,410.9,97.1z"/>
								</g>
							</g>
						</g>
					</g>
					<g>
						<g>
							<g>
								<g>
									<path class="st1" d="M418.5,100.2c-0.1,0-0.2,0-0.3,0c-0.6-0.2-0.9-0.7-0.8-1.3l0,0l1.5-5.4c0.2-0.6,0.7-0.9,1.3-0.8
										c0.6,0.2,0.9,0.7,0.8,1.3l0,0l-1.5,5.4C419.4,99.9,419,100.2,418.5,100.2L418.5,100.2z"/>
								</g>
							</g>
						</g>
					</g>
					<g>
						<g>
							<g>
								<g>
									<path class="st1" d="M426.6,101.3c-0.6,0-1.1-0.5-1.1-1.1v-5.5c0-0.6,0.5-1.1,1.1-1.1s1.1,0.5,1.1,1.1v5.6
										C427.6,100.8,427.1,101.3,426.6,101.3z"/>
								</g>
							</g>
						</g>
					</g>
					<g>
						<g>
							<g>
								<g>
									<path class="st1" d="M434.7,100.2c-0.5,0-0.9-0.3-1-0.8l-1.5-5.4c-0.2-0.6,0.2-1.2,0.8-1.3c0.6-0.2,1.2,0.2,1.3,0.8
										l1.5,5.4c0.2,0.6-0.2,1.2-0.7,1.3l0,0C434.9,100.2,434.8,100.2,434.7,100.2z"/>
								</g>
							</g>
						</g>
					</g>
					<g>
						<g>
							<g>
								<g>
									<path class="st1" d="M442.3,97.1c-0.4,0-0.7-0.2-0.9-0.5l-2.8-4.8c-0.3-0.5-0.1-1.2,0.4-1.5c0.5-0.3,1.2-0.1,1.5,0.4l0,0
										l2.8,4.8c0.3,0.5,0.1,1.2-0.4,1.5C442.7,97,442.5,97.1,442.3,97.1L442.3,97.1z"/>
								</g>
							</g>
						</g>
					</g>
					<g>
						<g>
							<g>
								<g>
									<path class="st0" d="M448.8,92.1c-0.3,0-0.6-0.1-0.8-0.3l-3.9-3.9c-0.4-0.4-0.4-1.1,0-1.5c0.4-0.4,1.1-0.4,1.5,0l0,0
										l3.9,3.9c0.4,0.4,0.4,1.1,0,1.5C449.4,92,449.1,92.1,448.8,92.1L448.8,92.1z"/>
								</g>
							</g>
						</g>
					</g>
					<g>
						<g>
							<g>
								<g>
									<path class="st1" d="M453.8,85.6c-0.2,0-0.4,0-0.5-0.1l-4.8-2.8c-0.5-0.3-0.7-0.9-0.4-1.5c0.3-0.5,0.9-0.7,1.5-0.4l0,0
										l4.8,2.8c0.5,0.3,0.7,0.9,0.4,1.5C454.6,85.4,454.2,85.6,453.8,85.6L453.8,85.6z"/>
								</g>
							</g>
						</g>
					</g>
					<g>
						<g>
							<g>
								<g>
									<path class="st1" d="M457,78c-0.1,0-0.2,0-0.3,0l-5.4-1.5c-0.6-0.2-0.9-0.7-0.8-1.3c0.2-0.6,0.7-0.9,1.3-0.8l0,0l5.4,1.5
										c0.6,0.1,0.9,0.7,0.8,1.3C458,77.7,457.5,78,457,78L457,78z"/>
								</g>
							</g>
						</g>
					</g>
					<g>
						<g>
							<g>
								<g>
									<path class="st1" d="M458.1,69.8h-5.6c-0.6,0-1.1-0.5-1.1-1.1s0.5-1.1,1.1-1.1h5.6c0.6,0,1.1,0.5,1.1,1.1
										S458.6,69.8,458.1,69.8z"/>
								</g>
							</g>
						</g>
					</g>
					<g>
						<g>
							<g>
								<g>
									<path class="st1" d="M451.7,63.1c-0.6,0-1.1-0.5-1.1-1s0.3-0.9,0.8-1.1l5.4-1.5c0.6-0.2,1.2,0.2,1.3,0.8
										c0.2,0.6-0.2,1.2-0.8,1.3l-5.4,1.5C451.8,63.1,451.8,63.1,451.7,63.1z"/>
								</g>
							</g>
						</g>
					</g>
					<g>
						<g>
							<g>
								<g>
									<path class="st1" d="M433.3,44.8c-0.1,0-0.2,0-0.3,0c-0.6-0.2-0.9-0.7-0.8-1.3l0,0l1.5-5.4c0.2-0.6,0.7-0.9,1.3-0.8
										c0.6,0.2,0.9,0.7,0.8,1.3l-1.5,5.4C434.2,44.5,433.7,44.8,433.3,44.8z"/>
								</g>
							</g>
						</g>
					</g>
					<g>
						<g>
							<g>
								<path class="st1" d="M426.6,66.3c-0.6,0-1.1-0.5-1.1-1.1v-5.4c0-0.6,0.5-1.1,1.1-1.1s1.1,0.5,1.1,1.1v5.4
									C427.6,65.9,427.1,66.3,426.6,66.3z"/>
							</g>
						</g>
						<g>
							<g>
								<path class="st1" d="M426.6,78.8c-0.6,0-1.1-0.5-1.1-1.1v-5.4c0-0.6,0.5-1.1,1.1-1.1s1.1,0.5,1.1,1.1v5.4
									C427.6,78.3,427.1,78.8,426.6,78.8z"/>
							</g>
						</g>
						<g>
							<g>
								<path class="st1" d="M423.1,69.8h-5.5c-0.6,0-1.1-0.5-1.1-1.1s0.5-1.1,1.1-1.1h5.4c0.6,0,1.1,0.5,1.1,1.1
									S423.6,69.8,423.1,69.8z"/>
							</g>
						</g>
						<g>
							<g>
								<path class="st1" d="M435.5,69.8h-5.4c-0.6,0-1.1-0.5-1.1-1.1s0.5-1.1,1.1-1.1h5.4c0.6,0,1.1,0.5,1.1,1.1
									S436.1,69.8,435.5,69.8z"/>
							</g>
						</g>
					</g>
					<g>
						<g>
							<g>
								<path class="st0" d="M440.1,55.2l-6.4-1c-0.5-0.1-0.9-0.6-0.8-1.1c0.1-0.3,0.3-0.6,0.6-0.8l15-6.8c0.5-0.2,1.1,0,1.3,0.5
									c0.1,0.3,0.1,0.6,0,0.8l-6.8,15c-0.2,0.5-0.8,0.7-1.3,0.5c-0.3-0.1-0.5-0.4-0.6-0.8L440.1,55.2z"/>
							</g>
						</g>
					</g>
				</g>
			</g>
		</g>
	</g>
</g>
</svg>
