<svg id="Capa_1" data-name="Capa 1" xmlns="http://www.w3.org/2000/svg" viewBox="0 0 193.11 125"><defs><style>.cls-1{fill:#284b92;}.cls-2{fill:#294b93;}.cls-3{fill:#94c257;}.cls-4{fill:#edd355;}.cls-5{fill:#ce3530;}</style></defs><path class="cls-1" d="M95.51,95.87c0,3,5,3,5,0s-5-3-5,0"/><path class="cls-2" d="M52.3,99.92A7.92,7.92,0,0,0,44,108c0,4.46,3.14,8.07,8.38,8.07s8.41-3.61,8.41-8.07-3.3-8.08-8.45-8.08m0,12.63A4.27,4.27,0,0,1,48,108a4.33,4.33,0,0,1,4.39-4.59A4.45,4.45,0,0,1,56.72,108a4.26,4.26,0,0,1-4.38,4.55"/><path class="cls-2" d="M71.73,99.83A5.15,5.15,0,0,0,67,102l0-.18c0-2.21-4.16-1.91-4.16-1.91v15.79H67v-8.17c0-2.86,2-3.93,4.23-3.93a4.48,4.48,0,0,1,3,1l1.89-3.32a6.82,6.82,0,0,0-4.37-1.48"/><path class="cls-2" d="M95.89,100.2v15.53h4.2V101.87c0-2.21-4.2-1.67-4.2-1.67"/><path class="cls-2" d="M34.07,99.77c-5,0-8.22,3.39-8.22,8.1,0,5,3.17,8.27,8.51,8.27a8.78,8.78,0,0,0,6.09-2.06h0a.08.08,0,0,0,0,0,1.9,1.9,0,0,0,.21-.19h0c1.43-1.69-.92-3.73-.92-3.73s-.67.65-1.22,1.11a6.32,6.32,0,0,1-.76.56l-.18.11a7.39,7.39,0,0,1-3.2.77c-2.69,0-4.36-1.38-4.61-3.3H41.89c.6-6.38-2.63-9.58-7.82-9.58m-4.2,6.41a4.17,4.17,0,0,1,4.33-3c2.2,0,3.77,1,4,3Z"/><path class="cls-2" d="M111,99.77c-5,0-8.23,3.39-8.23,8.1,0,5,3.17,8.27,8.51,8.27a8.76,8.76,0,0,0,6.09-2.06h0a.08.08,0,0,0,.05,0l.22-.19h0c1.43-1.69-.92-3.73-.92-3.73s-.67.65-1.22,1.11a6.32,6.32,0,0,1-.76.56l-.17.11a7.46,7.46,0,0,1-3.21.77c-2.69,0-4.36-1.38-4.61-3.3h12.08c.6-6.38-2.63-9.58-7.81-9.58m-4.21,6.41a4.17,4.17,0,0,1,4.34-3c2.19,0,3.76,1,4,3Z"/><path class="cls-2" d="M184.11,100.9a1.6,1.6,0,0,0-1.6,1.6h0a1.6,1.6,0,0,0,3.19,0h0a1.58,1.58,0,0,0-1.59-1.59m1.41,1.6a1.4,1.4,0,0,1-1.41,1.42,1.38,1.38,0,0,1-1.41-1.41h0a1.41,1.41,0,1,1,2.82,0Z"/><path class="cls-2" d="M184.93,102.06h0a.49.49,0,0,0-.14-.35.78.78,0,0,0-.55-.19h-.85v1.88h.23v-.76h.54l.6.76H185l-.62-.79a.55.55,0,0,0,.51-.54m-1.31.37v-.71h.61c.29,0,.47.13.47.34h0c0,.23-.22.36-.5.36Z"/><path class="cls-2" d="M154.89,99.92a7.92,7.92,0,0,0-8.35,8.08c0,4.46,3.15,8.07,8.39,8.07s8.41-3.61,8.41-8.07-3.31-8.08-8.45-8.08m0,12.63a4.27,4.27,0,0,1-4.39-4.55,4.33,4.33,0,0,1,4.39-4.59A4.44,4.44,0,0,1,159.3,108a4.26,4.26,0,0,1-4.37,4.55"/><path class="cls-2" d="M136.3,99.86c-1.71,0-4.37.88-5.32,2.48v-6h0c0-2.19-4-1.66-4-1.66v1.66h0v19.35h3.75l.26-2.14a6,6,0,0,0,5.22,2.48c4.77,0,8.35-3,8.35-8.1,0-5.34-3.52-8.11-8.25-8.11m-.36,12.66a4.54,4.54,0,1,1,0-9.08,4.37,4.37,0,0,1,4.59,4.53,4.44,4.44,0,0,1-4.59,4.55"/><path class="cls-2" d="M177.29,100.24,174.2,107l-1.76,4.28-1.61-4.37-2-5.22c-.57-1.47-5.06-.61-5.07-.61l6.39,14.37-1.55,3.21c-1.66,3.22,2.81,4.07,2.81,4.07l9.15-19.57c1.35-2.87-3.26-2.94-3.26-2.94"/><path class="cls-2" d="M20.21,100.27,20,102.41a5.8,5.8,0,0,0-5.08-2.49c-4.64,0-8.12,3-8.12,8.11,0,5.34,3.42,8.11,8,8.11,1.65,0,4.21-.87,5.16-2.46v2.12c0,2.14-1.77,3.35-4,3.35A4.57,4.57,0,0,1,12.71,118s-2-2.16-4.2.71c1.19,2.53,4,4.07,7.41,4.07,4.59,0,7.94-2.66,7.94-7V100.27Zm-5.08,12.29A4.31,4.31,0,0,1,10.66,108a4.38,4.38,0,0,1,4.47-4.55,4.54,4.54,0,1,1,0,9.08"/><path class="cls-2" d="M89.21,100.27,89,102.41a5.8,5.8,0,0,0-5.08-2.49c-4.64,0-8.12,3-8.12,8.11,0,5.34,3.42,8.11,8,8.11,1.65,0,4.21-.87,5.15-2.46v2.12c0,2.14-1.76,3.35-4,3.35A4.57,4.57,0,0,1,81.71,118s-2-2.16-4.2.71c1.19,2.53,4,4.07,7.41,4.07,4.59,0,7.93-2.66,7.93-7V100.27Zm-5.08,12.29A4.31,4.31,0,0,1,79.66,108a4.38,4.38,0,0,1,4.47-4.55,4.54,4.54,0,1,1,0,9.08"/><path class="cls-3" d="M83.86,51.9l-1,.58s-9.15,5.86-9.15,14.07V85.09a17.27,17.27,0,0,1,7-6.8C85.7,75.7,97,73.36,97,63.26V61.39c0-3.8-5.45-6.54-13.1-9.49"/><path class="cls-4" d="M101,61.39v1.87c0,10.1,11.27,12.44,16.21,15a17.37,17.37,0,0,1,7,6.8V66.55c0-8.21-9.15-14.07-9.15-14.07l-1-.58c-7.66,3-13.12,5.69-13.12,9.49"/><path class="cls-2" d="M97,36.28V29.94S95.79,17.51,82.89,14,60.59,8.82,57.78,4.13V28.77s.46,13.37,13.84,18.54C76,49,80.17,50.47,83.86,51.9h0c7.65,3,13.1,5.69,13.1,9.49V36.28"/><path class="cls-5" d="M115.05,14c-12.92,3.52-14.09,16-14.09,16V61.39c0-3.8,5.46-6.53,13.12-9.49h0c3.68-1.43,7.88-2.91,12.23-4.59,13.38-5.17,13.85-18.54,13.85-18.54V4.13C137.34,8.82,128,10.47,115.05,14"/><path class="cls-5" d="M144,4.13a2.16,2.16,0,0,0-2.16,2.16h0a2.16,2.16,0,1,0,4.31,0h0A2.14,2.14,0,0,0,144,4.13m1.91,2.16A1.9,1.9,0,0,1,144,8.22a1.88,1.88,0,0,1-1.9-1.92h0a1.91,1.91,0,1,1,3.82,0Z"/><path class="cls-5" d="M145.12,5.69h0a.65.65,0,0,0-.19-.47,1.08,1.08,0,0,0-.75-.26H143V7.49h.3v-1h.73l.81,1h.39l-.84-1.07a.74.74,0,0,0,.69-.73m-1.78.5v-1h.83c.4,0,.64.18.64.46v0c0,.32-.29.48-.68.48Z"/></svg>