<svg id="Capa_1" data-name="Capa 1" xmlns="http://www.w3.org/2000/svg" viewBox="0 0 264.61 125"><defs><style>.cls-1{fill:#d8383a;}.cls-2{fill:#010101;}</style></defs><path class="cls-1" d="M57,77.66,54.67,92.87H243.5L246,77.66Zm-9.44,0L45.17,92.87h7.47l2.55-15.21Zm-12,15.21h6.15l2.56-15.21H38.09Zm-9.77,0h5l2.55-15.21H28.59Zm-9.44,0h3.74l2.54-15.21H19ZM7,92.87H9l2.55-15.21H9.46Z"/><path class="cls-2" d="M253.56,66.71h-.48V65.22h.55a1.5,1.5,0,0,1,.69.08.7.7,0,0,1,.33.64.72.72,0,0,1-.28.64,1.46,1.46,0,0,1-.81.13m1.51,1.05a2,2,0,0,0-.25-.62.93.93,0,0,0-.36-.24.92.92,0,0,0,.63-.58,1.45,1.45,0,0,0,.09-.46,1,1,0,0,0-.31-.78,1.23,1.23,0,0,0-.9-.25h-1.4v4h.51V67.09h.49a1,1,0,0,1,.72.19,1.53,1.53,0,0,1,.3.66l0,.19a3.48,3.48,0,0,0,.12.47.46.46,0,0,0,.14.25h.56c-.15-.18-.16-.26-.33-.86Zm-1.42,2.43a3.48,3.48,0,1,1,3.48-3.46,3.47,3.47,0,0,1-3.48,3.46m0-7.47a4,4,0,1,0,4,4,4,4,0,0,0-4-4M233.11,51.84l-.26-.06L234,44.21l.12-.06c.05,0,1.3-.7,4.7,0a3.34,3.34,0,0,1,2.28,1.49,3.85,3.85,0,0,1,.28,2.77c-1.3,4.77-8.23,3.42-8.29,3.4m8,4.66.39-.06c7.43-1.27,8.29-10.29,8.3-10.34C249,37,241,37,240.61,37H223.94c-.06.4-.95,6.2-1,6.75h2.57l-3.3,19.51H219.8c-.06.4-1.05,6.29-1.14,6.82h13.09c.07-.38,1.07-6.33,1.15-6.88h-2.16l1.12-5.32,6.82,12.27h7.88c.07-.39,1.24-6.65,1.35-7.2h-2.85Zm-31.4,6.61h-7.13l1.06-6.55h7.21c.06-.39,1.25-7,1.35-7.59h-7.4l.87-5.44h7s-.56,2.95-.65,3.46h7.71c.06-.4,1.59-9.32,1.68-9.89H196c-.07.39-1,5.94-1.15,6.49h2.62l-3.36,19.59h-2.3c-.06.39-1.06,6.41-1.15,6.94h26c.08-.41,1.79-10.7,1.89-11.26h-8.06c-.07.39-.73,4.25-.73,4.25M173.88,51.85c-.07.39-1,5.75-1.09,6.29h8.9l-.21.38a9.12,9.12,0,0,1-4.95,4.28,7.85,7.85,0,0,1-6.3-.92c-.06,0-6.42-4.56-1-14,0-.07,4.81-7,11.93-2.93.38.33,2,1.89,2.16,2.94h7.14c.07-.39,1.77-10,1.88-10.61h-6.58l-.48,1.4-.28-.3s-4-3.8-12.48-1.89c-.13,0-12.66,3-13.56,18.11,0,.12-.64,11.52,9.14,15.33.1,0,8.82,3.54,13.74-1.65l.62-.64s-.42,2.21-.51,2.66h6.55c.07-.41,3.2-17.88,3.32-18.47ZM161,37.1H147.54c-.07.4-1,6-1.09,6.56H149l-1.82,10.5L138.24,37H127.36c-.07.38-1,6.08-1.09,6.62h2.41l-3.15,19.45s-2.38.19-2.74.19c-.06.4-.75,6.34-.85,6.89h13.5c.06-.39,1.11-6.39,1.21-6.95h-2.49L136.25,51c-2.9-5.79-1.53-3.13,9.59,19.11h7.22l4.38-26.66h2.43c.06-.39,1-5.81,1.09-6.36M124.1,43.79c.06-.4,1-6.22,1.08-6.75H111.44c-.08.38-1.13,6.26-1.23,6.81h2.56l-3.24,19.33H107c-.06.39-1.11,6.34-1.22,6.88h14c.07-.39,1.07-6.4,1.16-7h-2.49l3.3-19.32ZM87.59,53.32l3.57-8.2.49.08.76,8.12ZM98.15,37.1H82.47c-.06.4-1,6-1.09,6.56H84l-9.9,19.45H71.53c0,.4-1.06,6.48-1.16,7H84c.06-.38,1.18-6.46,1.28-7H82.63l1.48-3.33h9.26l.3,3.52H91.06c-.07.4-1,6.16-1.09,6.7h13.76c.06-.39,1.12-6.34,1.2-6.89h-2.32s-4.38-25.58-4.46-26M54.61,51.84l-.23-.06,1.16-7.57.11-.06c.05,0,1.31-.7,4.71,0a3.34,3.34,0,0,1,2.28,1.49,3.77,3.77,0,0,1,.27,2.77c-1.29,4.77-8.22,3.42-8.3,3.4m8,4.66.38-.06c7.44-1.27,8.29-10.29,8.3-10.34C70.55,37,62.48,37,62.13,37H45.46c-.06.4-1,6.2-1,6.75H47L43.68,63.3H41.33c-.06.4-1.07,6.29-1.17,6.82h13.1c.08-.38,1.07-6.33,1.17-6.88H52.25l1.13-5.32,6.81,12.27h7.88c.09-.39,1.26-6.65,1.35-7.2H66.57ZM23.17,51.85c-.06.39-1,5.75-1.08,6.29H31l-.18.38a9.29,9.29,0,0,1-5,4.28,7.85,7.85,0,0,1-6.3-.92c-.07,0-6.43-4.56-1-14,0-.07,4.8-7,11.92-2.93.38.33,2,1.89,2.17,2.94h7.13c.08-.39,1.78-10,1.88-10.61H35.08c-.1.26-.49,1.4-.49,1.4l-.29-.3s-3.95-3.8-12.46-1.89c-.13,0-12.66,3-13.57,18.11,0,.12-.65,11.52,9.15,15.33.08,0,8.8,3.54,13.74-1.65l.6-.64s-.41,2.21-.5,2.66h6.55c.07-.41,3.2-17.88,3.31-18.47Z"/></svg>