<?xml version="1.0" encoding="utf-8"?>
<!-- Generator: Adobe Illustrator 28.2.0, SVG Export Plug-In . SVG Version: 6.00 Build 0)  -->
<svg version="1.1" id="Capa_1" xmlns="http://www.w3.org/2000/svg" xmlns:xlink="http://www.w3.org/1999/xlink" x="0px" y="0px"
	 viewBox="0 0 120 125" style="enable-background:new 0 0 120 125;" xml:space="preserve">
<style type="text/css">
	.st0{fill:#FFFFFF;stroke:#FFFFFF;stroke-width:5.43;stroke-miterlimit:10;}
	.st1{fill:#FFFFFF;stroke:#FFFFFF;stroke-width:2.72;stroke-linecap:round;stroke-linejoin:round;}
	.st2{fill:#105CA4;}
	.st3{fill:#00AAE9;}
	.st4{fill:#2694D1;}
	.st5{fill:#B5D3EE;}
	.st6{fill:#FFFFFF;}
</style>
<rect x="27" y="9.7" class="st0" width="32.8" height="41.3"/>
<rect x="59.9" y="9.7" class="st0" width="32.7" height="41.3"/>
<rect x="59.9" y="51" class="st0" width="32.6" height="41.6"/>
<rect x="27" y="51" class="st0" width="32.8" height="41.6"/>
<polygon class="st0" points="30.2,9.7 47.7,71.7 65.5,9.7 77.8,9.7 53,92.5 42.5,92.5 27,41 27,9.7 "/>
<polygon class="st0" points="82.3,51.1 59.9,81.9 59.9,86.2 92.4,86.2 92.4,79.9 70.1,79.9 92.4,49.1 92.4,44.6 67.3,44.6 65.3,51 
	"/>
<path class="st1" d="M14.1,109.1V107h5.3v4.9c-0.6,0.6-1.4,1-2.2,1.3c-0.9,0.4-1.9,0.6-2.9,0.6c-1.1,0-2.3-0.2-3.3-0.8
	c-0.9-0.5-1.7-1.3-2.1-2.3c-0.5-1-0.7-2.1-0.7-3.3c0-1.2,0.2-2.4,0.8-3.4c0.5-1,1.3-1.8,2.3-2.3c0.9-0.4,1.9-0.6,2.9-0.6
	c1.2-0.1,2.5,0.3,3.5,0.9c0.8,0.6,1.4,1.6,1.6,2.6l-2.4,0.5c-0.1-0.6-0.5-1.1-0.9-1.4c-0.5-0.4-1.1-0.5-1.7-0.5
	c-0.9,0-1.9,0.3-2.5,1c-0.7,0.9-1,2-0.9,3.1c-0.1,1.2,0.2,2.3,0.9,3.3c0.6,0.7,1.5,1.1,2.5,1.1c0.5,0,1-0.1,1.5-0.3
	c0.5-0.2,0.9-0.4,1.3-0.7v-1.5H14.1z"/>
<path class="st1" d="M23.7,113.6h-2.3v-8.9h2.2v1.3c0.2-0.5,0.6-0.9,1-1.2c0.3-0.2,0.6-0.3,1-0.3c0.5,0,1.1,0.2,1.5,0.4l-0.7,2.1
	c-0.3-0.2-0.7-0.4-1.1-0.4c-0.3,0-0.6,0.1-0.8,0.3c-0.3,0.3-0.5,0.6-0.5,1c-0.2,1-0.2,2-0.2,3L23.7,113.6z"/>
<path class="st1" d="M27.9,104.5h2.2v4.4c0,0.6,0,1.2,0.2,1.8c0.1,0.3,0.3,0.6,0.6,0.8c0.3,0.2,0.6,0.3,0.9,0.3
	c0.7,0,1.3-0.4,1.5-1.1c0.1-0.5,0.2-1.1,0.2-1.7v-4.5h2.2v3.8c0.1,1.1,0,2.2-0.3,3.2c-0.3,0.7-0.7,1.2-1.3,1.6
	c-0.7,0.4-1.4,0.6-2.2,0.6c-0.8,0-1.7-0.2-2.4-0.7c-0.6-0.5-1.1-1.1-1.3-1.9c-0.2-1-0.3-2-0.3-3L27.9,104.5z"/>
<path class="st1" d="M38,104.7h2.1v1.3c0.3-0.4,0.7-0.8,1.1-1.1c0.5-0.3,1-0.4,1.6-0.4c1,0,1.9,0.4,2.6,1.2c0.7,1,1.1,2.2,1.1,3.4
	c0.1,1.2-0.3,2.5-1.1,3.5c-0.6,0.8-1.6,1.2-2.6,1.2c-0.5,0-0.9-0.1-1.3-0.3c-0.5-0.3-0.9-0.6-1.2-1v4.5H38V104.7z M40.3,109
	c-0.1,0.8,0.1,1.6,0.6,2.2c0.3,0.4,0.9,0.7,1.4,0.7c0.5,0,1-0.2,1.3-0.7c0.4-0.6,0.6-1.4,0.5-2.1c0.1-0.7-0.1-1.5-0.6-2.1
	c-0.3-0.4-0.8-0.7-1.3-0.7c-0.5,0-1.1,0.2-1.4,0.7C40.4,107.6,40.2,108.3,40.3,109z"/>
<path class="st1" d="M47.8,109.1c0-0.8,0.2-1.6,0.6-2.3c0.3-0.7,0.9-1.3,1.6-1.7c0.7-0.4,1.5-0.6,2.3-0.6c1.2,0,2.4,0.4,3.2,1.3
	c0.9,0.9,1.3,2.1,1.3,3.3c0,1.2-0.4,2.5-1.3,3.3c-0.8,0.9-2,1.4-3.2,1.3c-0.8,0-1.6-0.2-2.3-0.5c-0.7-0.4-1.3-0.9-1.6-1.7
	C47.9,110.8,47.7,109.9,47.8,109.1z M50.1,109.2c-0.1,0.7,0.2,1.4,0.6,2c0.7,0.8,1.9,0.9,2.8,0.2c0.1-0.1,0.2-0.1,0.2-0.2
	c0.8-1.2,0.8-2.8,0-4c-0.7-0.8-1.9-0.9-2.8-0.2c-0.1,0.1-0.2,0.1-0.2,0.2C50.3,107.7,50.1,108.4,50.1,109.2z"/>
<path class="st1" d="M66.2,113.6l-4.3-12.2h2.6l3,9l2.9-9h2.6l-4.3,12.2H66.2z"/>
<path class="st1" d="M74,103.6v-2.2h2.3v2.2H74z M74,113.6v-8.9h2.3v8.9L74,113.6z"/>
<path class="st1" d="M77.6,113.6v-2.2l6.3-7.9h-5.6v-2.1h8.8v1.9l-6.6,8.2h6.8v2.1L77.6,113.6z"/>
<path class="st1" d="M88.9,103.6v-2.2h2.3v2.2H88.9z M88.9,113.6v-8.9h2.3v8.9L88.9,113.6z"/>
<path class="st1" d="M93,109.1c0-0.8,0.2-1.6,0.6-2.3c0.3-0.7,0.9-1.3,1.6-1.7c0.7-0.4,1.5-0.6,2.3-0.6c1.2,0,2.4,0.4,3.2,1.3
	c0.9,0.9,1.3,2.1,1.3,3.3c0,1.2-0.4,2.5-1.3,3.3c-0.8,0.9-2,1.4-3.2,1.3c-0.8,0-1.6-0.2-2.3-0.5c-0.7-0.4-1.3-0.9-1.7-1.7
	C93.2,110.8,93,109.9,93,109.1z M95.3,109.2c-0.1,0.7,0.2,1.4,0.6,2c0.4,0.4,0.9,0.7,1.5,0.7c0.6,0,1.1-0.2,1.5-0.7
	c0.8-1.2,0.8-2.8,0-4c-0.4-0.4-0.9-0.7-1.5-0.7c-0.6,0-1.1,0.3-1.5,0.7C95.5,107.7,95.3,108.5,95.3,109.2z"/>
<path class="st1" d="M111.7,113.6h-2.3v-4.5c0-0.6,0-1.2-0.1-1.9c-0.2-0.6-0.7-0.9-1.3-0.9c-0.4,0-0.8,0.1-1.1,0.3
	c-0.3,0.2-0.5,0.5-0.7,0.9c-0.1,0.7-0.2,1.4-0.2,2v4h-2.2v-8.9h2.1v1.3c1-1.4,2.7-1.9,4.2-1.2c0.4,0.1,0.7,0.4,0.9,0.7
	c0.2,0.3,0.4,0.6,0.4,1c0.1,0.5,0.1,1,0.1,1.6L111.7,113.6z"/>
<rect x="27.1" y="9.7" class="st2" width="32.8" height="41.3"/>
<rect x="59.9" y="9.7" class="st3" width="32.7" height="41.3"/>
<rect x="59.9" y="51" class="st4" width="32.6" height="41.6"/>
<rect x="27.1" y="51" class="st5" width="32.8" height="41.6"/>
<polygon class="st6" points="30.3,9.1 47.8,71.7 65.7,9.1 78.1,9.1 52.9,93.4 42.9,93.4 26.6,39.4 26.6,9.1 "/>
<polygon class="st6" points="82.3,51.1 59.9,82 59.9,86.2 93.1,86.2 93.1,79.9 70.2,79.9 93.1,48.4 93.1,44.6 67.3,44.6 65.3,51 "/>
<path class="st2" d="M14.2,109.1V107h5.3v4.9c-0.6,0.6-1.4,1-2.2,1.3c-0.9,0.4-1.9,0.6-2.9,0.6c-1.1,0-2.3-0.2-3.3-0.8
	c-0.9-0.5-1.7-1.3-2.1-2.3c-0.5-1-0.7-2.1-0.7-3.3c0-1.2,0.2-2.3,0.8-3.4c0.5-1,1.3-1.8,2.3-2.3c0.9-0.4,1.9-0.6,2.9-0.6
	c1.2-0.1,2.5,0.3,3.5,0.9c0.8,0.7,1.4,1.6,1.6,2.6l-2.4,0.5c-0.1-0.6-0.5-1.1-0.9-1.4c-0.5-0.4-1.1-0.5-1.7-0.5c-1,0-1.9,0.3-2.5,1
	c-0.7,0.9-1,2-0.9,3.1c-0.1,1.2,0.2,2.3,0.9,3.3c0.6,0.7,1.5,1.1,2.5,1.1c0.5,0,1.1-0.1,1.6-0.3c0.5-0.2,0.9-0.4,1.3-0.7v-1.6H14.2z
	"/>
<path class="st2" d="M23.8,113.6h-2.3v-8.9h2.1v1.3c0.2-0.5,0.6-0.9,1-1.2c0.3-0.2,0.6-0.3,1-0.3c0.5,0,1.1,0.2,1.5,0.4l-0.7,2.1
	c-0.3-0.2-0.7-0.4-1.1-0.4c-0.3,0-0.6,0.1-0.8,0.3c-0.3,0.3-0.5,0.6-0.5,1c-0.2,1-0.2,2-0.2,3L23.8,113.6z"/>
<path class="st2" d="M28,104.5h2.2v4.4c0,0.6,0,1.2,0.2,1.8c0.1,0.3,0.3,0.6,0.6,0.8c0.3,0.2,0.6,0.3,0.9,0.3c0.3,0,0.7-0.1,0.9-0.3
	c0.3-0.2,0.5-0.5,0.6-0.8c0.1-0.5,0.2-1.1,0.1-1.7v-4.4h2.2v3.8c0,1.1-0.1,2.2-0.4,3.2c-0.3,0.7-0.7,1.2-1.3,1.6
	c-0.7,0.4-1.4,0.6-2.2,0.6c-0.8,0-1.7-0.2-2.4-0.7c-0.6-0.5-1.1-1.1-1.3-1.9c-0.2-1-0.3-2-0.3-3L28,104.5z"/>
<path class="st2" d="M38,104.7h2.1v1.3c0.3-0.4,0.7-0.8,1.1-1.1c0.5-0.3,1-0.4,1.6-0.4c1,0,1.9,0.4,2.6,1.2c0.8,1,1.1,2.2,1.1,3.4
	c0.1,1.2-0.3,2.5-1.1,3.5c-0.6,0.8-1.6,1.2-2.6,1.2c-0.5,0-0.9-0.1-1.3-0.3c-0.5-0.3-0.9-0.6-1.2-1v4.5H38V104.7z M40.4,109
	c-0.1,0.8,0.1,1.6,0.6,2.2c0.3,0.4,0.9,0.7,1.4,0.7c0.5,0,1-0.2,1.3-0.7c0.4-0.6,0.6-1.4,0.5-2.1c0.1-0.7-0.1-1.5-0.6-2.1
	c-0.3-0.4-0.8-0.7-1.3-0.7c-0.5,0-1.1,0.2-1.4,0.7C40.5,107.6,40.3,108.3,40.4,109z"/>
<path class="st2" d="M47.8,109.1c0-0.8,0.2-1.6,0.6-2.3c0.3-0.7,0.9-1.3,1.6-1.7c0.7-0.4,1.5-0.6,2.3-0.6c1.2,0,2.4,0.4,3.2,1.3
	c0.9,0.9,1.3,2.1,1.3,3.3c0,1.2-0.4,2.4-1.3,3.3c-0.8,0.9-2,1.4-3.2,1.3c-0.8,0-1.6-0.2-2.3-0.5c-0.7-0.4-1.3-0.9-1.7-1.7
	C48,110.8,47.8,109.9,47.8,109.1z M50.2,109.2c-0.1,0.7,0.2,1.4,0.6,2c0.7,0.8,2,0.9,2.8,0.2c0.1-0.1,0.2-0.1,0.2-0.2
	c0.8-1.2,0.8-2.8,0-4c-0.7-0.8-2-0.9-2.8-0.2c-0.1,0.1-0.2,0.1-0.2,0.2C50.4,107.7,50.1,108.5,50.2,109.2z"/>
<path class="st2" d="M66.3,113.6L62,101.4h2.6l3,9l2.9-9h2.6l-4.3,12.2H66.3z"/>
<path class="st2" d="M74.1,103.6v-2.2h2.3v2.2H74.1z M74.1,113.6v-8.9h2.3v8.9L74.1,113.6z"/>
<path class="st2" d="M77.7,113.6v-2.2l6.3-7.9h-5.6v-2.1h8.8v1.9l-6.6,8.2h6.8v2.1L77.7,113.6z"/>
<path class="st2" d="M88.9,103.6v-2.2h2.3v2.2H88.9z M88.9,113.6v-8.9h2.3v8.9L88.9,113.6z"/>
<path class="st2" d="M93.1,109.1c0-0.8,0.2-1.6,0.6-2.3c0.4-0.7,0.9-1.3,1.6-1.7c0.7-0.4,1.5-0.6,2.3-0.6c1.2,0,2.4,0.4,3.2,1.3
	c0.9,0.9,1.3,2.1,1.3,3.3c0,1.2-0.4,2.4-1.3,3.3c-0.8,0.9-2,1.3-3.2,1.3c-0.8,0-1.6-0.2-2.3-0.5c-0.7-0.4-1.3-0.9-1.7-1.7
	C93.2,110.8,93,109.9,93.1,109.1z M95.4,109.2c-0.1,0.7,0.2,1.4,0.6,2c0.7,0.8,2,0.9,2.8,0.2c0.1-0.1,0.2-0.1,0.2-0.2
	c0.8-1.2,0.8-2.8,0-4c-0.7-0.8-2-0.9-2.8-0.2c-0.1,0.1-0.2,0.1-0.2,0.2C95.6,107.7,95.4,108.5,95.4,109.2z"/>
<path class="st2" d="M111.7,113.6h-2.2v-4.5c0-0.6,0-1.2-0.1-1.9c-0.1-0.3-0.3-0.5-0.5-0.7c-0.2-0.2-0.5-0.2-0.8-0.2
	c-0.4,0-0.8,0.1-1.1,0.3c-0.3,0.2-0.5,0.5-0.6,0.9c-0.1,0.7-0.2,1.4-0.2,2v4h-2.3v-8.9h2.1v1.3c0.6-0.9,1.7-1.5,2.9-1.5
	c0.5,0,0.9,0.1,1.4,0.3c0.4,0.2,0.7,0.4,1,0.7c0.2,0.3,0.4,0.6,0.4,1c0.1,0.5,0.1,1,0.1,1.6L111.7,113.6z"/>
</svg>
