<svg id="Capa_1" data-name="Capa 1" xmlns="http://www.w3.org/2000/svg" viewBox="0 0 125.42 125"><defs><style>.cls-1{fill:#fff;}.cls-2{fill:#0b2538;}.cls-3{fill:#fefefe;}.cls-4{fill:#d4534f;}.cls-5{fill:#f0b74e;}.cls-6{fill:#5e3d1d;}</style></defs><path class="cls-1" d="M124,62.5A61.27,61.27,0,1,1,62.71,1.24,61.26,61.26,0,0,1,124,62.5"/><path class="cls-2" d="M102.37,62.5A39.66,39.66,0,1,1,62.71,22.84,39.65,39.65,0,0,1,102.37,62.5"/><path class="cls-2" d="M62.71,124.2a61.7,61.7,0,1,1,61.7-61.7,61.77,61.77,0,0,1-61.7,61.7Zm0-121.44A59.74,59.74,0,1,0,122.44,62.5,59.81,59.81,0,0,0,62.71,2.76Zm0,102.33A42.59,42.59,0,1,1,105.3,62.5a42.63,42.63,0,0,1-42.59,42.59Zm0-83.21A40.63,40.63,0,1,0,103.33,62.5,40.67,40.67,0,0,0,62.71,21.88Z"/><polygon class="cls-1" points="34.14 56.71 42.42 56.31 41.78 57.69 40.61 58.12 38.83 58.46 37.76 58.18 36.81 58.31 35.55 58.27 34.85 57.78 34.48 57.27 34.14 56.71"/><polygon class="cls-3" points="50.37 59.63 27.46 58.45 26.37 59.44 27.71 60.71 49.88 61.7 50.37 59.63"/><polygon class="cls-1" points="75.11 59.8 75.79 61.89 97.81 60.42 99.05 59.4 97.42 57.77 74.95 59.44 75.11 59.8"/><polygon class="cls-1" points="82.08 56.34 89.8 56.34 89.45 57.27 87.78 57.76 85.47 58.06 84.24 57.76 82.47 57.67 82.08 56.34"/><path class="cls-4" d="M74,56.31c.12.1.33-.25.44-.39s.49-.73,3-1.76l2.22-1.07s.74-.38.33-1.42c0,0-.12-.76-1.2-.87a2,2,0,0,1,1.31-1.37s.17,3.18,2,4a1.5,1.5,0,0,1,0-.89s.46.63.8.68c0,0-.19-1.1,1.4-1.35,0,0,2.19-.55,2.33.84a1.69,1.69,0,0,1-1,2l-1.55,1s-1,.8.06,1.13a4.23,4.23,0,0,0,1.37-.38s0,.39.54.4a2,2,0,0,0,1.12-.49s.42.87,1.41.08l1.16-1.17s.3,0,0-1.12c0,0-.88-3.82.3-3.36a2.1,2.1,0,0,1,.92.56s-.43-3-1.94-3a2.33,2.33,0,0,0-1.52.33A1.22,1.22,0,0,1,86,48.41a7.78,7.78,0,0,1-1.84-2.77s-.76-1.87,1.12-1.54a9.31,9.31,0,0,1-.83-1.45,3.71,3.71,0,0,1,1.42.49,13,13,0,0,0-2.54-3.92s1.45-6.13-2.73-6.29c0,0-3.65-.46-9.75,1.42,0,0-3.26,1-4.78-.46,0,0-.68-1.09,1.12-1.55a5.62,5.62,0,0,1,3.13-.17s4.81,1.25,7.61-.52c0,0-1.58-.24-1.91-.63a10.42,10.42,0,0,1,3.26-.36s-7.18-3.4-10.67-.6c0,0-5.4.17-4.74,4,0,0,.72,3.69,5.93,2.44l6-1.45s8.24-1.42,4.78,2.83a31.9,31.9,0,0,0-9,1.25A32.25,32.25,0,0,1,64,40.93a2,2,0,0,0,.4-1.25s-1.88.27-2.73-.56c0,0,.85-1.25,1.21-1.38a2.84,2.84,0,0,1-1.68-.4,6.14,6.14,0,0,1,2.21-.88s-.66-.8-3.13-1.29a5.55,5.55,0,0,0,1.25-.86,6.63,6.63,0,0,1-2.73-1.84s-1.61-2-2.54-1.78a2.65,2.65,0,0,0-2.63-1.35s-.79-.86-3.23-.59A4.69,4.69,0,0,1,50,28a6.53,6.53,0,0,0-1.78,2.11,6.55,6.55,0,0,0-2.74,2.37,3.58,3.58,0,0,1-1.15,1.25s-3.29,1.35-3.13,2.83c0,0,0,1.19,1,1.06a.62.62,0,0,1,.43.75,8.83,8.83,0,0,0,2,.13,8.21,8.21,0,0,1-2.93,2.27s1.59.48,4.82-1.25c0,0-.06.47-.94.77,0,0-.08.2,0,.26s-.1.18-.52.2c0,0,0,1.12,3.31.68a3.31,3.31,0,0,1-.88,1.33,1.27,1.27,0,0,0,.74.08,14.06,14.06,0,0,1-1.83,3.8,10.43,10.43,0,0,1-1.18,1.5s-2.79,1.81-2.73,2.37a5.49,5.49,0,0,0,.82-.06,10.45,10.45,0,0,1-3.7,3s-2.87,1.07-3.49,1.81c0,0-1.35,2.2.1,2.2a17.55,17.55,0,0,1,3.06-.08s.68.13,2.5-1.58c0,0,5-4.19,6.93-4.23,0,0,0,.66.26.82,0,0,1.49-2,2.37-2s2,2.39,7.37,2.23a15.17,15.17,0,0,0,8.33-2.45,50.09,50.09,0,0,0,6.09-4s2.6-.1,2.77.16a6.83,6.83,0,0,0-2,5.21,8.5,8.5,0,0,1,.59-.71s.07.54.25.69c0,0,.4-1,.77-.87,0,0,1,0,.78,1.17a1.23,1.23,0,0,1-1.25,1.13,14.06,14.06,0,0,0-3.23.5,3.8,3.8,0,0,0-1.65,1.14A10.24,10.24,0,0,1,74,56.31"/><path class="cls-4" d="M73.58,55.85l8.77.5s0,1.68,2.2,1a2.65,2.65,0,0,0,2.47.19s2.6-.2,2.3-1.24l7.14.25,2,2.28-23.18,1.3a27.08,27.08,0,0,0-1.7-4.27"/><path class="cls-4" d="M77.39,80.76l21.19-21-23,1.47s1.91,6.41,2,10c0,0,.16,7.61-.14,9.49"/><path class="cls-4" d="M48.48,80.56,26.81,59.86l23.24,1.31s-1.57,7.28-1.66,8.62a74.6,74.6,0,0,0,.09,10.77"/><path class="cls-4" d="M50.35,60,27,58.84l2.34-2.05,5.27-.1s.2,1.09.79,1.34A3.71,3.71,0,0,0,37.27,58s.79-.1,1,.15a2.21,2.21,0,0,0,1.68,0l1.43-.6a1.32,1.32,0,0,0,.79-1.2l9.29-.28s-.76,3.23-1.1,4"/><path class="cls-5" d="M63,53.73s-11.24,0-12,3.26c0,0-1.68,6.18-2.12,9.19,0,0-1.24,8.1-.45,14.38,0,0,1.14,8.64,6.13,15,0,0,2.17,2.22,8.42,2.22,0,0,5.76.1,8.28-2.22s6-11.32,6-15c0,0,.84-8-.6-14.38,0,0-1.38-6.82-2.47-9.19,0,0-.7-3.26-11.24-3.26"/><path class="cls-6" d="M69.9,60.3l-.05-.22-15.15,0c-.83-.42-.85-1.08-.74-1.36,0-1.7,6.92-2.3,9-2.44h0c1.46,0,8.51.13,8.52,2.54h0a.85.85,0,0,1-.12.62,2.26,2.26,0,0,1-1.52.89Zm-6.07-.81h6.63a1.14,1.14,0,0,0,.44-.35.38.38,0,0,0,.06-.27.73.73,0,0,0-.14-.42H65.38a2,2,0,0,1-1.55,1Zm-8.92,0h6.81a2,2,0,0,1-1.55-1H54.76a.45.45,0,0,0-.23.34c0,.13-.1.43.38.7Zm7.87-2.2c-1.18,0-2.06.45-2.06.86s.88.86,2.06.86,2.06-.45,2.06-.86-.88-.86-2.06-.86Zm2.6.57H70a18.11,18.11,0,0,0-6-1,1.83,1.83,0,0,1,1.36,1Zm-9.19,0h4a1.59,1.59,0,0,1,.93-.86,30.64,30.64,0,0,0-4.92.86ZM72.3,59.49,72.06,59c.4-.19.29-.74.29-.75a.78.78,0,0,0-.24-.58c-1.29-1.34-7-1.74-9.09-1.79-4.15.14-10,.94-10,2.31a.77.77,0,0,0,.43.66l-.24.54a1.39,1.39,0,0,1-.78-1.2c0-2.44,8.84-2.84,10.62-2.9.33,0,7.8.18,9.52,2a1.29,1.29,0,0,1,.39.94,1.21,1.21,0,0,1-.63,1.33Z"/><path class="cls-6" d="M61.62,57.16v2a4.67,4.67,0,0,0,1.19.18A5.19,5.19,0,0,0,64,59.22V57.11A4.41,4.41,0,0,0,62.81,57a4.14,4.14,0,0,0-1.19.17"/><path class="cls-1" d="M63.72,57.47c0,.23-.42.41-.94.41s-.94-.18-.94-.41.42-.41.94-.41.94.18.94.41"/><path class="cls-6" d="M72.11,59.33h-.6V56.81l1.39-1.17.38.45-1.17,1v2.24Zm-17.62-.5H53.9v-1.9L52.7,55.4l.47-.36,1.32,1.79v2ZM72.64,58l-.14-.57L74.16,57l.14.57L72.64,58Zm-19.85-.29-1.57-1,.31-.5,1.58,1-.32.5Zm3.73-.16h-.59v-1.3l-.77-1.6.53-.25.8,1.72,0,1.43Zm13.29-.18h-.59V56.19l1.19-1.69.47.36-1.13,1.51.06,1ZM59,57h-.59V55.85l-.72-1.63.54-.23.74,1.74L59,57Zm8.13-.23H66.5v-1l.89-1.83.53.27-.86,1.69,0,.87Zm-5.78,0h-.59V55.6l-.29-1.69.58-.1.29,1.74V56.7Zm2.93-.18h-.6v-1l.49-1.75.57.16-.48,1.67,0,.94Z"/><path class="cls-1" d="M74.21,57.15c0,3.4-11.18,4-11.18,4-10.35,0-11.89-3.93-11.89-3.93-.19.6-.94,3.46-.94,3.46a25.48,25.48,0,0,0,12.71,3.57s7.52-.09,12.43-3.45Z"/><path class="cls-6" d="M62.91,64.52A26.05,26.05,0,0,1,50,60.91l-.18-.12,0-.2s.76-2.88,1-3.47l.24-.78.31.75S53.06,60.83,63,60.83c3-.16,10.88-1.12,10.88-3.68l.58-.09,1.2,3.84-.18.12c-4.93,3.38-12.29,3.5-12.6,3.5Zm-12.37-4a25.69,25.69,0,0,0,12.37,3.4c.13,0,7.32-.13,12.08-3.27l-.78-2.51C72.52,60.85,64.1,61.37,63,61.42c-8.07,0-10.9-2.35-11.8-3.5-.23.82-.57,2.11-.7,2.61Z"/><path class="cls-1" d="M53.18,93.55s3.41,2,9.68,2c0,0,5.77.14,9.93-2.08a7.78,7.78,0,0,1-2,2.36S68.08,97.74,63,97.74c0,0-4.76.14-8.14-1.89Z"/><path class="cls-6" d="M62.78,98a17.07,17.07,0,0,1-8.1-1.94l-1.74-2.37.39-.43s3.43,2,9.53,2h.21c1,0,5.93-.1,9.58-2l.89-.48-.5.88A7.91,7.91,0,0,1,71,96.11c-.09.06-2.86,1.93-8,1.93Zm-8.69-3.72,1,1.36c2.84,1.68,6.92,1.77,7.71,1.77H63a14.55,14.55,0,0,0,7.69-1.84A5,5,0,0,0,72,94.2a24.58,24.58,0,0,1-8.91,1.66h-.22a23.28,23.28,0,0,1-8.76-1.54Z"/><path class="cls-6" d="M63.2,95.47h-.59V64.3h.59V95.47Zm-3.85-.15c-2.32-14-.54-31.21-.52-31.38l.59.06c0,.17-1.79,17.28.51,31.23l-.58.09ZM67,95.19l-.58-.13c2.61-11.45-.17-30.85-.2-31l.58-.08c0,.19,2.83,19.71.2,31.26Zm-10.8-.57C51.5,79.64,55,63.18,55,63l.57.12c0,.17-3.46,16.47,1.18,31.31l-.56.17Zm14-.06-.56-.21c4.25-11.61.5-31,.46-31.21l.59-.12c0,.2,3.81,19.76-.49,31.54Zm-16-.44C46,79.19,51.9,61.78,52,61.61l.56.19c-.06.17-5.83,17.34,2.27,32l-.51.29Zm17.51-.05-.52-.28c7.48-13.58,2.08-31.72,2-31.9l.56-.17c.06.18,5.53,18.55-2.07,32.35Z"/><path class="cls-1" d="M49.94,29.49A9.45,9.45,0,0,0,49.41,31a4.56,4.56,0,0,0-.59-.51s.72-1,1.12-1"/><path class="cls-1" d="M47.86,32.35s.52-.49.89-.47c0,0,.33-.09.36.23l0,.62s-1-.34-1.2-.38"/><path class="cls-1" d="M46.08,32.77a5.38,5.38,0,0,0,1,.95,2.56,2.56,0,0,0-.36,1,2.86,2.86,0,0,0-1.41-.11s.29-.84.68-.86Z"/><path class="cls-1" d="M51.07,29.83a.62.62,0,0,1,.84-.21s.79.56.82,1.09a7.75,7.75,0,0,1-1.43-.27s-.33-.11-.23-.61"/><path class="cls-1" d="M54.18,30.9s.31.71.4,1a4.37,4.37,0,0,1,1-.4,1.89,1.89,0,0,0-1.4-.61"/><path class="cls-1" d="M52,32.86s1.29,3.63,3.38,3.89a17.35,17.35,0,0,1-2.23-3.21A6.53,6.53,0,0,1,52,32.86"/><path class="cls-1" d="M54.63,33.52A3.24,3.24,0,0,0,58,35.83s-3-2-3.36-2.31"/><path class="cls-1" d="M56.22,32.65a.87.87,0,0,1,1,.13s1.09,1,1.21,1.19c0,0-2.41,0-2.23-1.32"/><path class="cls-1" d="M57.78,36.68h1.68a1.47,1.47,0,0,1-.87.59s-.7-.14-.81-.59"/><path class="cls-1" d="M59.14,38.38l1-.05a2.24,2.24,0,0,0,.4.92,2.47,2.47,0,0,1-1.4-.87"/><path class="cls-1" d="M59.11,40a10.07,10.07,0,0,0,1.5.68s-.86.31-1.08.41A3.8,3.8,0,0,1,59.11,40"/><path class="cls-1" d="M54.08,38.15a9.24,9.24,0,0,0,2.69,1l.28,1.23a5,5,0,0,1-3-2.27"/><path class="cls-1" d="M53.85,40.74a22.37,22.37,0,0,0,4.63.64l.35,1.23a11.62,11.62,0,0,0-1.91-.49,2.11,2.11,0,0,0,.15.79,5.88,5.88,0,0,1-3.22-2.17"/><path class="cls-1" d="M57.88,43.92l.71,1.32-1-.15a3.06,3.06,0,0,0,.3-1.17"/><path class="cls-1" d="M54.67,43.52s1.49.28,2.29.51a3,3,0,0,0-.08,1.23,5.46,5.46,0,0,1-2.21-1.74"/><path class="cls-1" d="M51.76,40.11a25.77,25.77,0,0,0,1.7,2.34s-.61-.28-1-.46a4,4,0,0,0-.06.9s-.91-.67-.68-2.78"/><path class="cls-1" d="M50.18,40.24s.61.31.39.66c0,0-.82.82-1.07,1.09,0,0-.33-1.68.68-1.75"/><path class="cls-1" d="M50.08,35.78a2.35,2.35,0,0,1,1,1.86s-.41-.69-1-.69a2.62,2.62,0,0,0,0-1.17"/><path class="cls-1" d="M51.27,34.26l-.51.68A18.15,18.15,0,0,1,52.37,38a7.66,7.66,0,0,1,.26-1.7A3.12,3.12,0,0,1,52,36s0-.51.21-.61c0,0-.76,0-.95-1.11"/><path class="cls-1" d="M42.24,35.65a1.1,1.1,0,0,0-.65,1s-.16.58.61.48a3.47,3.47,0,0,1,0-1.46"/><path class="cls-1" d="M42.88,36s-.4,1,.07,1a.29.29,0,0,0,.27-.12,6.32,6.32,0,0,1-.34-.91"/><path class="cls-1" d="M45.55,38.35l.65.53s-.84.52-1.23.7a5.07,5.07,0,0,0,.58-1.23"/><path class="cls-1" d="M46,37.15s2,.16,1.66,3c0,0,1-.4,1.18-1a4.12,4.12,0,0,0,.59.15l.14-.51.47.17-.14-1a5.49,5.49,0,0,1-1.28,1s-1-2.12-2.62-1.67"/><path class="cls-1" d="M48.14,45.88s.19-1.79,1-1.62c0,0,.31.15.34.28S50.41,43,50.62,43l.07.16-.38,1.94,1.42-.59,1.33,1.09.71-.58,1.63,1.65.46-.89L56.8,47a1.21,1.21,0,0,0,.49,0s.56-1.06,1.17-.88l1,.41-.07-2.66,1.3-.07.1-1.86,1.71-.61.5.25-1.55.89.25,1.84s-1.21.25-1.4.5l.19,2.57-2.6.11a2.53,2.53,0,0,0-.26,1.27,9.12,9.12,0,0,1-1.68-1.37,2.14,2.14,0,0,0-.36.73L54,46.63l-.74.61-2-1.86-2.21,1.2L49,45.5s-.61.23-.9.38"/><path class="cls-1" d="M47.3,48.58l0-.86a16.67,16.67,0,0,0-3,2.57,31,31,0,0,1-2.37,2.4,20.2,20.2,0,0,1-2.29,1.57,8.84,8.84,0,0,0-2.27,1.27,14.62,14.62,0,0,1,1.91-.66,5.53,5.53,0,0,0,2.06-1.17l2.81-2.46a24.54,24.54,0,0,1,3.25-2.66"/><path class="cls-1" d="M51.41,48.69s.63-.71.19-1.13a.74.74,0,0,0-.68.16s-.76.13-.94-.3c0,0-2,1.47-3.34,2.6l-2.59,2.11a17.24,17.24,0,0,0-2.5,2.27,10.21,10.21,0,0,1-2.09,1s-2.16.48-2.19,1c0,0,2.49.1,3.18-.33,0,0,2.32-1.92,2.5-2.1a31.31,31.31,0,0,1,4.12-3,32.46,32.46,0,0,1,3.38-1.52,2.8,2.8,0,0,0,1-.69"/><path class="cls-1" d="M56.62,49.36a7.73,7.73,0,0,0,2.12.1s-.05-1.08.7-1.17c0,0,.52-.08.74.76a.31.31,0,0,0,.36.28s.54.3,1.48-1.55c0,0,6.74-1.24,8.87-2.45A19.22,19.22,0,0,1,63,49.56s-4.12,1-6.67.19Z"/><path class="cls-1" d="M63.9,43.45a2.15,2.15,0,0,0-.62,1.16A6.89,6.89,0,0,0,66,44.05s3.73-1.91,6.25-1.76c0,0-1.53-1.18-4.57,0a23.88,23.88,0,0,1-3.75,1.21"/><path class="cls-1" d="M71.85,40.44a13.92,13.92,0,0,1,8.23-1.58l.42.91a62.18,62.18,0,0,0-8.65.67"/><path class="cls-1" d="M76.5,41.3s5.18-1.73,5.85,3.56c0,0-3.48-3-5.85-3.56"/><path class="cls-1" d="M82.5,39.8a4.93,4.93,0,0,1-.17,1.42s1.36-.11,1.48.06c0,0-.74-1.28-1.31-1.48"/><path class="cls-1" d="M77.29,46.47s1.8.69,2.07,1.21a11.58,11.58,0,0,0-1.8,1.51s-.82-.92-1.68-.38a6.43,6.43,0,0,1,1.41-2.34"/><path class="cls-1" d="M81.12,48.15s.17,2,1.63,2.29a10.61,10.61,0,0,1,2.62.23s0-1-1.76-1.46a4.35,4.35,0,0,1-2.49-1.06"/><path class="cls-1" d="M72.27,54a1.82,1.82,0,0,0-1.13.44.22.22,0,0,0,.1.32.49.49,0,0,0,.51,0,3.58,3.58,0,0,0,.52-.71"/><path class="cls-1" d="M74.32,54.59a2.07,2.07,0,0,0-1.4.38s-.38.37,0,.46a.71.71,0,0,0,.62-.07,5,5,0,0,0,.74-.77"/><path class="cls-1" d="M87.32,50a6.07,6.07,0,0,1,.89,1.34A4.91,4.91,0,0,1,88.68,50,10.4,10.4,0,0,1,87.32,50"/><path class="cls-1" d="M89.33,54.4a7.67,7.67,0,0,1-1.11.91s-.48.34-.2.59c0,0,1.23.37,1.31-1.5"/><path class="cls-1" d="M87,55.39l-.79.55s.38,1.12.79-.55"/><path class="cls-1" d="M85.71,55.49s-1,.31-1.13.4c0,0,.59.9,1.13-.4"/><path class="cls-1" d="M81.67,38.21s.68.31.82.57c0,0,.49-2.67-.31-3.67a5.34,5.34,0,0,1-.51,3.1"/><path class="cls-1" d="M67,35.5A1.92,1.92,0,0,1,65.14,34c-.28-1.45,1.38-2.18,1.38-2.18a9.33,9.33,0,0,1,4.54-.49c3.86.78,4.54-.47,4.54-.47a9.23,9.23,0,0,1-3.19-.13c.1-.51,1.91-.85,1.91-.85a5.69,5.69,0,0,0-4.53.79,4.9,4.9,0,0,1-.73.13,12.56,12.56,0,0,0-2.72.63,2.65,2.65,0,0,0-1.64,2.52s.37,2.24,2.32,1.62"/><path class="cls-6" d="M63.13,98H63c-6.27,0-8.5-2.21-8.59-2.31-5-6.37-6.17-15.06-6.18-15.15-.78-6.22.43-14.34.44-14.42.44-3,2.11-9.14,2.13-9.2.75-3.37,11-3.47,12.18-3.47,10.65,0,11.49,3.35,11.52,3.49,1.06,2.31,2.4,8.89,2.46,9.17,1.42,6.37.6,14.35.6,14.43,0,3.9-3.59,12.85-6.1,15.16S64.11,98,63.13,98Zm-8.26-2.69S57,97.44,63,97.44h.1c.58,0,5.7-.06,7.95-2.14S77,84.29,77,80.55c0-.11.81-8-.59-14.28,0-.07-1.38-6.8-2.44-9.11,0-.08-.9-3.08-10.93-3.08-3.81,0-11.11.64-11.64,3,0,.08-1.68,6.19-2.11,9.15,0,.08-1.22,8.11-.45,14.26,0,.08,1.18,8.61,6,14.84Z"/><path class="cls-6" d="M65.85,62.49a.56.56,0,1,1-.56-.56.56.56,0,0,1,.56.56"/><path class="cls-6" d="M67.39,62.31a.56.56,0,1,1-.55-.55.56.56,0,0,1,.55.55"/><path class="cls-6" d="M66.55,60.73s1.62.08,1.86,1.33c0,0,.28,1.45-1.61,1.83l2.27-.46s.67-.26.56-1.67c0,0-.34-1.43-1-1.39Z"/><path class="cls-6" d="M60.61,96.54a.56.56,0,1,1-.56-.56.57.57,0,0,1,.56.56"/><path class="cls-6" d="M62.15,96.67a.56.56,0,1,1-1.11,0,.56.56,0,1,1,1.11,0"/><path class="cls-6" d="M59.62,95.33a1.07,1.07,0,0,0-1,.82,1.44,1.44,0,0,0,1.11,1.4l-2.17-.46a2.29,2.29,0,0,1-.2-1.26s.23-.82.74-.75Z"/><path class="cls-1" d="M49,66.32A26.93,26.93,0,0,0,62.91,70.1s9-.2,13.73-4a30.9,30.9,0,0,1,.59,3.53,32.53,32.53,0,0,1-14.32,3.62s-8.52.17-14.33-3.45Z"/><path class="cls-6" d="M62.73,73.58c-1.45,0-9-.17-14.3-3.5l-.16-.1.52-4.18.4.27A26.78,26.78,0,0,0,62.91,69.8c.08,0,8.91-.24,13.55-3.9l.37-.3.1.47a27.31,27.31,0,0,1,.59,3.62v.15l-.14.08a33,33,0,0,1-14.46,3.66ZM48.9,69.68C54.09,72.83,61.32,73,62.73,73v.3l.17-.3a32.59,32.59,0,0,0,14-3.5c0-.51-.28-1.83-.49-2.84-4.86,3.51-13.16,3.73-13.52,3.74a28,28,0,0,1-13.66-3.58l-.36,2.87Z"/><path class="cls-6" d="M66.76,71.47a.56.56,0,1,1-.55-.56.55.55,0,0,1,.55.56"/><path class="cls-6" d="M68.37,71.21a.56.56,0,1,1-.56-.56.56.56,0,0,1,.56.56"/><path class="cls-6" d="M67.66,69.59s1.61.08,1.86,1.33c0,0,.28,1.45-1.61,1.83l2.27-.46s.67-.27.56-1.67c0,0-.35-1.43-1-1.39Z"/><path class="cls-6" d="M65.84,78.61a2.94,2.94,0,1,1-2.94-2.94,2.93,2.93,0,0,1,2.94,2.94"/><path class="cls-1" d="M64.8,78.61a1.9,1.9,0,1,1-1.9-1.9,1.91,1.91,0,0,1,1.9,1.9"/><path class="cls-6" d="M63.88,78.61a1,1,0,1,1-1-1,1,1,0,0,1,1,1"/><path class="cls-1" d="M48.79,81.66S54,86,62.92,86c0,0,8.39,0,14.24-4.37A21.27,21.27,0,0,1,76.08,86a31.78,31.78,0,0,1-13.16,3.27,28.34,28.34,0,0,1-13-3.19Z"/><path class="cls-6" d="M62.73,89.54a28.65,28.65,0,0,1-13-3.23l-.14-.18-1.31-5.27.69.57a23.44,23.44,0,0,0,13.94,4.25h0c.36,0,8.42-.05,14.06-4.32l.58-.44-.11.72a21.47,21.47,0,0,1-1.1,4.46,30.86,30.86,0,0,1-13.43,3.44ZM50.15,85.86A28,28,0,0,0,62.73,89v.3l.18-.3a31.75,31.75,0,0,0,13-3.24,20.12,20.12,0,0,0,.82-3.46c-5.75,4-13.49,4-13.83,4a24.83,24.83,0,0,1-13.65-3.9l.87,3.49Z"/><path class="cls-6" d="M59.06,87.29a.56.56,0,0,1-1.11,0,.56.56,0,1,1,1.11,0"/><path class="cls-6" d="M60.67,87.49a.56.56,0,1,1-.55-.56.56.56,0,0,1,.55.56"/><path class="cls-6" d="M58.79,85.62s-1.56.08-1.91,1.31c0,0-.34,1.61,1.78,2l-2.72-.54a2.14,2.14,0,0,1-.24-1.71s.29-1.16,1-1.48Z"/><path class="cls-2" d="M13.46,52.33l-2.13-.53,1.33-5.43.23.05.37.08A5.83,5.83,0,0,1,17,48.89a5.26,5.26,0,0,1,.5,4.24,6.35,6.35,0,0,1-.91,2.11A5.11,5.11,0,0,1,15,56.67a5.42,5.42,0,0,1-2,.7,5.75,5.75,0,0,1-2.18-.12,5.53,5.53,0,0,1-2-.9,5.31,5.31,0,0,1-1.43-1.58,5.22,5.22,0,0,1-.69-2A6.32,6.32,0,0,1,8.1,48a5.28,5.28,0,0,1,2.22-1.5l.55,2.67a3,3,0,0,0-1.1.76,2.59,2.59,0,0,0-.58,1.13,2.51,2.51,0,0,0,.35,2.16,3.46,3.46,0,0,0,2.09,1.27,3.48,3.48,0,0,0,2.46-.15,2.52,2.52,0,0,0,1.31-1.76,3,3,0,0,0-.08-1.88,2.07,2.07,0,0,0-1.18-1.16Z"/><path class="cls-2" d="M15.64,40.56l.23-.47a2.23,2.23,0,0,0,.3-1.35,1.12,1.12,0,0,0-.7-.81,1.34,1.34,0,0,0-1.18-.12,2.08,2.08,0,0,0-.87,1l-.25.52Zm3.81,4.79L10,40.83l1.29-2.69A12.49,12.49,0,0,1,12.53,36a3.3,3.3,0,0,1,1-.84,2.85,2.85,0,0,1,1.36-.3,3.41,3.41,0,0,1,1.46.36,3.15,3.15,0,0,1,1.52,1.39,3,3,0,0,1,.15,2l5-.77-1.4,2.91-4.72.41L20.61,43Z"/><path class="cls-2" d="M16.37,29.36l1.89-2.11L22,30.64a15.68,15.68,0,0,0,1.24,1,3,3,0,0,0,.74.4,1.09,1.09,0,0,0,.83,0,2,2,0,0,0,.82-.6,2.2,2.2,0,0,0,.51-.87,1.27,1.27,0,0,0-.07-.84,3.1,3.1,0,0,0-.48-.69c-.22-.24-.61-.61-1.16-1.11l-.53-.48-3.25-2.92,1.9-2.11,4.11,3.69A11.8,11.8,0,0,1,28.45,28,3.53,3.53,0,0,1,29,29.42a3.29,3.29,0,0,1-.28,1.73,7.13,7.13,0,0,1-1.28,1.9,7.38,7.38,0,0,1-1.76,1.49A3.32,3.32,0,0,1,24,35a3.54,3.54,0,0,1-1.51-.42,11.49,11.49,0,0,1-2-1.53l-.81-.73Z"/><path class="cls-2" d="M31.9,20.47l.44-.32a2.7,2.7,0,0,0,1-1.08,1.13,1.13,0,0,0-.24-1,1.09,1.09,0,0,0-.88-.53,2.63,2.63,0,0,0-1.31.62l-.47.34Zm3.39,4.63-2.16,1.57L27,18.24l2.4-1.76a11.67,11.67,0,0,1,2.09-1.31,2.86,2.86,0,0,1,1.32-.24,3.06,3.06,0,0,1,1.42.44,4.15,4.15,0,0,1,1.19,1.11A4.28,4.28,0,0,1,36.11,18a2.93,2.93,0,0,1,0,1.47,2.82,2.82,0,0,1-.56,1,8.43,8.43,0,0,1-1.46,1.26l-.39.29-.42.3Z"/><path class="cls-2" d="M46,17.18a2.53,2.53,0,0,0,1.27-1.72,3.16,3.16,0,0,0-.42-2.29A3.17,3.17,0,0,0,45,11.65a2.62,2.62,0,0,0-3.39,1.93,3.2,3.2,0,0,0,.41,2.29,3.15,3.15,0,0,0,1.75,1.53A2.5,2.5,0,0,0,46,17.18m3.32-5.42a5.49,5.49,0,0,1,.69,2,5.32,5.32,0,0,1-.18,2.13,5.64,5.64,0,0,1-2.64,3.36,5.9,5.9,0,0,1-2.07.7,5.55,5.55,0,0,1-2.15-.15A5.14,5.14,0,0,1,41,18.91a5.38,5.38,0,0,1-1.41-1.62,5.3,5.3,0,0,1-.68-2,5.39,5.39,0,0,1,.18-2.14,5.69,5.69,0,0,1,1-1.93,5.77,5.77,0,0,1,3.72-2.12,5.46,5.46,0,0,1,2.17.13,5.37,5.37,0,0,1,3.33,2.57"/><path class="cls-2" d="M71.84,18l-2.66-.15-.37-4.54c0-.32,0-.68-.06-1.07s0-.82,0-1.28a12.71,12.71,0,0,1-.48,1.63c-.06.14-.09.24-.11.3l-1.69,4.82-1.9-.11-1.15-5c0-.07,0-.17-.07-.32a12.16,12.16,0,0,1-.3-1.66c-.05.39-.1.78-.16,1.16s-.13.77-.2,1.15l-.86,4.48-2.65-.14L61.34,6.93l2.82.16,1.28,5.46s0,.1,0,.19A7.06,7.06,0,0,1,65.7,14a5.79,5.79,0,0,1,.14-.61c.07-.23.15-.49.26-.81L68,7.29l2.83.16Z"/><path class="cls-2" d="M81,18.89A2.48,2.48,0,0,0,83,18.32a3.22,3.22,0,0,0,1.08-2.06A3.16,3.16,0,0,0,83.66,14a2.61,2.61,0,0,0-3.86-.57,3.22,3.22,0,0,0-1.08,2.06,3.21,3.21,0,0,0,.44,2.29A2.45,2.45,0,0,0,81,18.89m6-2.22a5.51,5.51,0,0,1-.71,2,5.42,5.42,0,0,1-1.45,1.57,5.78,5.78,0,0,1-2,.92,5.88,5.88,0,0,1-2.17.1,5.52,5.52,0,0,1-2.06-.73,5.32,5.32,0,0,1-1.62-1.44,5.4,5.4,0,0,1-1-1.92,5.54,5.54,0,0,1-.11-2.15,5.48,5.48,0,0,1,.72-2,5.35,5.35,0,0,1,1.47-1.57,5.58,5.58,0,0,1,2-.91,5.51,5.51,0,0,1,2.18-.1,5.63,5.63,0,0,1,2.06.72,5.46,5.46,0,0,1,1.62,1.44,5.37,5.37,0,0,1,.94,1.92,5.53,5.53,0,0,1,.1,2.15"/><path class="cls-2" d="M90.75,24.48l.37.3a3.67,3.67,0,0,0,2.34,1,2.75,2.75,0,0,0,2-1.2,2.86,2.86,0,0,0,.79-2.19,3.62,3.62,0,0,0-1.47-2.09l-.37-.3Zm-3.67,0,6.59-8.11,1.69,1.37a18.54,18.54,0,0,1,2.53,2.35,5,5,0,0,1,.9,1.71,4.46,4.46,0,0,1,0,2.32A6.26,6.26,0,0,1,95.73,28a4.49,4.49,0,0,1-2.29.42,4.82,4.82,0,0,1-1.81-.5,14.9,14.9,0,0,1-2.49-1.72l-.37-.31Z"/><polygon class="cls-2" points="96.33 32.94 104.38 26.28 108.46 31.21 106.69 32.67 104.37 29.88 102.98 31.02 105.17 33.66 103.43 35.1 101.25 32.46 99.9 33.58 102.22 36.37 100.41 37.87 96.33 32.94"/><polygon class="cls-2" points="101.86 40.1 111.22 35.44 112.48 37.99 105.32 41.55 106.9 44.74 104.71 45.83 101.86 40.1"/><path class="cls-2" d="M109.54,53.66a2.58,2.58,0,0,0,1.9,1,3.51,3.51,0,0,0,3.43-2.74,2.57,2.57,0,0,0-.53-2.07,2.53,2.53,0,0,0-1.9-1A3.53,3.53,0,0,0,109,51.58a2.52,2.52,0,0,0,.55,2.08m5.87,2.45a5.37,5.37,0,0,1-1.91,1,5.26,5.26,0,0,1-2.13.15,5.62,5.62,0,0,1-3.72-2.09,5.65,5.65,0,0,1-1.21-4.09,5.38,5.38,0,0,1,.63-2.06,5.18,5.18,0,0,1,1.39-1.64,5.58,5.58,0,0,1,1.9-1,5.35,5.35,0,0,1,2.15-.14,5.63,5.63,0,0,1,3.72,2.09,5.74,5.74,0,0,1,1.21,4.1,5.36,5.36,0,0,1-.64,2,5.47,5.47,0,0,1-1.39,1.65"/><path class="cls-2" d="M35,112.9l-2.18-1.53,2.09-4.05c.14-.28.31-.6.51-.94s.41-.7.65-1.1a13.48,13.48,0,0,1-1.27,1.13l-.25.2-4,3.2L29,108.72l1.64-4.83c0-.06.06-.16.11-.3a10.45,10.45,0,0,1,.62-1.57l-.75.9q-.39.45-.78.87l-3.09,3.35-2.17-1.51L31.91,98l2.31,1.62-1.8,5.31s0,.1-.05.19a7.74,7.74,0,0,1-.48,1.17,3.64,3.64,0,0,1,.44-.44c.17-.16.38-.34.64-.55l4.39-3.49,2.32,1.62Z"/><polygon class="cls-2" points="40.37 115.6 43.96 105.79 49.97 107.98 49.18 110.14 45.77 108.89 45.15 110.59 48.36 111.76 47.59 113.87 44.37 112.7 43.77 114.35 47.18 115.59 46.38 117.8 40.37 115.6"/><path class="cls-2" d="M57.57,111.6v0a3.21,3.21,0,0,1,.26.85,3.39,3.39,0,0,1,.39-.75l.05-.07,1.46-2.31,3.37.28-3.91,4.71,3.39,5.74-3.22-.28-1.51-3.23c-.07-.15-.13-.3-.18-.44a3.84,3.84,0,0,1-.11-.46,3.21,3.21,0,0,1-.19.45,2.5,2.5,0,0,1-.23.39l-2,2.93-3.21-.28L56.21,114l-3.08-5.24,3.39.28Z"/><rect class="cls-2" x="67.35" y="109.64" width="2.89" height="10.45" transform="matrix(1, -0.04, 0.04, 1, -4.4, 2.75)"/><path class="cls-2" d="M81.65,106.32l.92,3a4.3,4.3,0,0,0-1.4-.57,2.76,2.76,0,0,0-2.93,1.46,3.1,3.1,0,0,0-.08,2.31,2.94,2.94,0,0,0,1.35,1.76,2.57,2.57,0,0,0,2.14.21,2.64,2.64,0,0,0,1.1-.66,4.3,4.3,0,0,0,.83-1.26l.92,3a6.11,6.11,0,0,1-1.15.87,5.31,5.31,0,0,1-1.24.56,6.12,6.12,0,0,1-1.58.28,4.42,4.42,0,0,1-1.45-.2,5.3,5.3,0,0,1-2.3-1.36,5.91,5.91,0,0,1-1.38-2.38,6.12,6.12,0,0,1-.27-2.2,5.31,5.31,0,0,1,.6-2A4.93,4.93,0,0,1,77,107.47a5.4,5.4,0,0,1,1.88-1,5.47,5.47,0,0,1,1.34-.25,7.09,7.09,0,0,1,1.44.07"/><path class="cls-2" d="M93.51,108.62A2.51,2.51,0,0,0,94.88,107a3.45,3.45,0,0,0-1.94-3.92,2.45,2.45,0,0,0-2.13.07,2.51,2.51,0,0,0-1.38,1.64,3.21,3.21,0,0,0,.28,2.31,3.18,3.18,0,0,0,1.65,1.64,2.53,2.53,0,0,0,2.15-.09m3.65-5.21a5.61,5.61,0,0,1,.56,2.08,5.31,5.31,0,0,1-.31,2.11,5.67,5.67,0,0,1-1.11,1.88,5.54,5.54,0,0,1-1.73,1.31,5.62,5.62,0,0,1-2.11.57,5.51,5.51,0,0,1-2.14-.27,5.34,5.34,0,0,1-1.88-1,5.6,5.6,0,0,1-1.86-3.78,5.39,5.39,0,0,1,.32-2.13A5.46,5.46,0,0,1,88,102.27,5.65,5.65,0,0,1,89.73,101a5.57,5.57,0,0,1,2.11-.57,5.21,5.21,0,0,1,2.15.27,5.32,5.32,0,0,1,1.86,1,5.57,5.57,0,0,1,1.31,1.72"/></svg>