<svg id="Capa_1" data-name="Capa 1" xmlns="http://www.w3.org/2000/svg" viewBox="0 0 290.32 125"><defs><style>.cls-1{fill:#0c1f30;}</style></defs><path class="cls-1" d="M23.67,110.63a13.75,13.75,0,0,1-3.79,1.5,19.09,19.09,0,0,1-4,.46,11.63,11.63,0,0,1-4.4-.78,9.93,9.93,0,0,1-3.43-2.25,10.53,10.53,0,0,1-2.24-3.47A12,12,0,0,1,5,101.67a11.86,11.86,0,0,1,.76-4.4,10.34,10.34,0,0,1,2.19-3.49,9.93,9.93,0,0,1,3.4-2.32,11.33,11.33,0,0,1,4.38-.86,10.11,10.11,0,0,1,7.56,2.84l-1.41,1.48a6.66,6.66,0,0,0-1.17-1,7.88,7.88,0,0,0-1.52-.81,9.58,9.58,0,0,0-1.7-.52,8.74,8.74,0,0,0-1.75-.18,9.17,9.17,0,0,0-3.67.74,8.21,8.21,0,0,0-2.78,2A8.67,8.67,0,0,0,7.52,98a11,11,0,0,0,.06,7.27,8.63,8.63,0,0,0,1.79,2.91,8.19,8.19,0,0,0,2.81,1.93,9.13,9.13,0,0,0,3.69.68,17.59,17.59,0,0,0,3.16-.29,8.06,8.06,0,0,0,2.68-1l-.06-7-5,0v-1.77l7-.05Z"/><path class="cls-1" d="M38.49,90.42l5.76,0,1.18,0a14.5,14.5,0,0,1,1.61.17,9.39,9.39,0,0,1,1.77.49,5,5,0,0,1,1.62,1,5.17,5.17,0,0,1,1.19,1.63,5.78,5.78,0,0,1,.48,2.41,5.57,5.57,0,0,1-.52,2.61,5.22,5.22,0,0,1-1.35,1.67,6,6,0,0,1-1.81,1,11.24,11.24,0,0,1-1.88.44L53,112.3l-2.32,0L44.43,101.9l-3.81,0,.08,10.47h-2Zm2.11,9.65,4.34,0a7.28,7.28,0,0,0,2.62-.42,4.24,4.24,0,0,0,1.55-1,3.2,3.2,0,0,0,.75-1.28,3.77,3.77,0,0,0,0-2.48,3.09,3.09,0,0,0-.76-1.26,4.32,4.32,0,0,0-1.58-1,7.13,7.13,0,0,0-2.62-.39l-4.34,0Z"/><path class="cls-1" d="M80.59,103.13a13.79,13.79,0,0,1-.37,3.38,7.88,7.88,0,0,1-1.33,2.87,6.78,6.78,0,0,1-2.46,2,9.95,9.95,0,0,1-7.53.06,6.84,6.84,0,0,1-2.5-2A7.9,7.9,0,0,1,65,106.63a14.27,14.27,0,0,1-.43-3.37l-.1-13h2l.1,12.5a15,15,0,0,0,.23,2.51,7.5,7.5,0,0,0,.87,2.47,5.25,5.25,0,0,0,1.81,1.88,5.66,5.66,0,0,0,3.09.72,5.59,5.59,0,0,0,3.08-.77,5.13,5.13,0,0,0,1.78-1.9,7.64,7.64,0,0,0,.84-2.49,15.91,15.91,0,0,0,.19-2.51l-.09-12.5,2,0Z"/><path class="cls-1" d="M94.16,90l6.32.14a12.09,12.09,0,0,1,2.4.25,7.11,7.11,0,0,1,2.3.89,5.12,5.12,0,0,1,1.72,1.77,5.54,5.54,0,0,1,.69,2.83,5.77,5.77,0,0,1-.53,2.58,5,5,0,0,1-1.44,1.79,6.19,6.19,0,0,1-2.1,1,8.52,8.52,0,0,1-2.49.36l-4.74,0L96.37,112H94.32Zm2.12,9.84,4.64,0a7.56,7.56,0,0,0,1.71-.22,4.52,4.52,0,0,0,1.48-.66,3.29,3.29,0,0,0,1-1.2,3.7,3.7,0,0,0,.39-1.83,3.63,3.63,0,0,0-.43-1.8A3.84,3.84,0,0,0,104,92.89a4.4,4.4,0,0,0-1.54-.69,7.38,7.38,0,0,0-1.74-.2l-4.52,0Z"/><path class="cls-1" d="M119.18,100.8a12,12,0,0,1,.76-4.41,10.54,10.54,0,0,1,2.19-3.49,10,10,0,0,1,3.4-2.31,11.93,11.93,0,0,1,8.77-.07,9.91,9.91,0,0,1,3.43,2.26A10.35,10.35,0,0,1,140,96.24a12.55,12.55,0,0,1,.06,8.82,10.52,10.52,0,0,1-2.18,3.5,9.74,9.74,0,0,1-3.4,2.3,11.36,11.36,0,0,1-4.38.85,11.63,11.63,0,0,1-4.4-.78,9.93,9.93,0,0,1-3.43-2.25,10.43,10.43,0,0,1-2.24-3.47,11.9,11.9,0,0,1-.83-4.41m1.95,0a10.49,10.49,0,0,0,.65,3.63,8.63,8.63,0,0,0,1.79,2.91,8.33,8.33,0,0,0,2.81,1.93,9.89,9.89,0,0,0,7.36-.06,8.31,8.31,0,0,0,2.78-2,8.67,8.67,0,0,0,1.75-2.94,11,11,0,0,0-.06-7.27,8.5,8.5,0,0,0-1.8-2.91,8.15,8.15,0,0,0-2.8-1.93,9.13,9.13,0,0,0-3.69-.68,9,9,0,0,0-3.67.74,8.08,8.08,0,0,0-2.78,2,8.67,8.67,0,0,0-1.75,2.94,10.53,10.53,0,0,0-.59,3.64"/><path class="cls-1" d="M171.71,102.37a10.62,10.62,0,0,1-.56,3.6,7.83,7.83,0,0,1-1.73,2.87,8,8,0,0,1-2.88,1.91,12.16,12.16,0,0,1-8,.06,7.76,7.76,0,0,1-4.69-4.7,10.65,10.65,0,0,1-.61-3.59l-.11-13,4.84,0,.1,12.78a5.25,5.25,0,0,0,.34,1.89,4.56,4.56,0,0,0,.92,1.5,4.3,4.3,0,0,0,1.42,1,4.38,4.38,0,0,0,1.78.34,4.31,4.31,0,0,0,1.77-.37,4.15,4.15,0,0,0,1.38-1,4.69,4.69,0,0,0,.91-1.51,5.51,5.51,0,0,0,.31-1.89l-.11-12.79,4.84,0Z"/><polygon class="cls-1" points="185.43 89.3 190.26 89.26 190.4 106.76 199.35 106.69 199.38 111.18 185.6 111.28 185.43 89.3"/><polygon class="cls-1" points="212.48 93.37 206.22 93.41 206.19 89.14 223.54 89.01 223.57 93.28 217.31 93.33 217.45 111.04 212.61 111.08 212.48 93.37"/><path class="cls-1" d="M235.16,88.92l8.49.13a14.93,14.93,0,0,1,3.18.3,7.58,7.58,0,0,1,2.64,1.06,5.4,5.4,0,0,1,1.81,2,7,7,0,0,1,.69,3.2,6.43,6.43,0,0,1-1.18,4,5.43,5.43,0,0,1-3.51,2.09l5.57,9.08-5.79,0-4.58-8.59-2.39,0v8.63l-4.83,0Zm4.9,9.23,2.85,0q.66,0,1.38-.06a4.18,4.18,0,0,0,1.32-.29,2.25,2.25,0,0,0,1-.73,2.22,2.22,0,0,0,.37-1.4,2.28,2.28,0,0,0-.35-1.33,2.24,2.24,0,0,0-.87-.75,4,4,0,0,0-1.21-.35,10.24,10.24,0,0,0-1.34-.08l-3.16,0Z"/><path class="cls-1" d="M271.64,88.64l4,0,9.71,21.91-5.45,0L278,105.88l-8.52.06-1.8,4.72-5.33,0ZM273.55,95l-2.62,6.83,5.36,0Z"/><path class="cls-1" d="M163.83,39.64l1.06,1c2.39,2.35,4.77,4.7,7.17,7a.61.61,0,0,1,.16.76C168.45,58.61,161.34,65,150.75,67.14,141.36,69,133,66.46,126,59.94a26.85,26.85,0,0,1-8.46-15.76,27.73,27.73,0,0,1,6.89-23.79A27.47,27.47,0,0,1,136,12.65a.46.46,0,0,1,.57.11l8.61,8.49a1.52,1.52,0,0,1,.19.21,18.12,18.12,0,0,0-14.37,7A17.76,17.76,0,0,0,127.45,44a18.31,18.31,0,0,0,18.31,14.3,17.91,17.91,0,0,0,12.86-5.61,18.23,18.23,0,0,0,5.21-13.07"/><path class="cls-1" d="M154.49,48.28l-9-8.89,8.88-9c4.63,4,5.46,12.78.15,17.9"/></svg>