<svg id="Capa_1" data-name="Capa 1" xmlns="http://www.w3.org/2000/svg" viewBox="0 0 267.72 125"><defs><style>.cls-1{fill:none;}.cls-2{fill:#033d50;}.cls-3{fill:#e28f2f;}.cls-4{fill:#cd5024;}</style></defs><rect class="cls-1" x="-27.19" y="-22.41" width="322.08" height="170.08"/><rect class="cls-2" x="3.45" y="86.28" width="7.03" height="30.7"/><path class="cls-2" d="M40.63,117V99.09c-1.8,3-7.27,12.14-8.54,14.24l-.08.15H30l-.08-.15c-.32-.52-6.67-11.15-8.63-14.43V117h-6V86.28h5.63L31.4,103.11,41.66,86.28h5.6V117Z"/><path class="cls-2" d="M50.93,117V86.28h20.7c3.89,0,6,2.29,6,6.44V99.2c0,4.16-2.15,6.45-6,6.45H57.87V117ZM69.2,99.07a2.49,2.49,0,0,0,1.29-.2c.07-.06.33-.33.33-1.33V94.39A1.8,1.8,0,0,0,70.46,93h0a2.62,2.62,0,0,0-1.26-.18H57.87v6.21Z"/><path class="cls-2" d="M219.56,117l-9.36-11h-3.94v11h-6.93V86.28H220c3.89,0,6,2.29,6,6.44v6.82c0,4.16-2.14,6.45-6,6.45H218.9l10.71,11Zm-2-17.57a2.46,2.46,0,0,0,1.3-.2,1.9,1.9,0,0,0,.32-1.31V94.37a1.77,1.77,0,0,0-.36-1.33h0a2.62,2.62,0,0,0-1.26-.18H206.26V99.4Z"/><path class="cls-2" d="M256.32,117l-2.79-6.36H239.88l-2.7,6.36H230l13.88-30.69h6.27L264.19,117Zm-5.74-13.23-3.78-9-3.92,9Z"/><path class="cls-2" d="M140.78,109.87h15.63v-5H142.74c-2.5,0-4.18-.55-5.17-1.69s-1.41-3.06-1.41-6V94c0-2.93.46-4.89,1.41-6s2.67-1.69,5.17-1.69h22.15L158.24,93H142.47V97.6h13.71c2.49,0,4.19.55,5.19,1.68s1.44,3.07,1.44,6v4c0,2.93-.47,4.9-1.44,6s-2.69,1.68-5.18,1.68H133.67Z"/><polygon class="cls-2" points="111.71 116.97 111.71 86.28 118.74 86.28 118.74 109.88 137.03 109.88 129.93 116.97 111.71 116.97"/><path class="cls-2" d="M172.39,117c-2.49,0-4.18-.55-5.16-1.68s-1.41-3.07-1.41-6V94c0-2.93.46-4.89,1.41-6s2.67-1.69,5.16-1.69H189.5c2.49,0,4.17.55,5.16,1.69s1.41,3.06,1.41,6v15.33c0,2.93-.46,4.89-1.41,6S192,117,189.5,117Zm3.72-23.88a3.24,3.24,0,0,0-2.56.8,5.19,5.19,0,0,0-.7,3.15v8.84a5.19,5.19,0,0,0,.7,3.15,3.45,3.45,0,0,0,2.57.85h9.66a3.44,3.44,0,0,0,2.56-.85,5.13,5.13,0,0,0,.7-3.16V97a5.07,5.07,0,0,0-.7-3.08,3.24,3.24,0,0,0-2.56-.8Z"/><path class="cls-2" d="M86.8,117c-2.5,0-4.18-.55-5.17-1.68s-1.41-3.07-1.41-6v-23h7v20a4.64,4.64,0,0,0,.63,2.87,3,3,0,0,0,2.38.73H98a3,3,0,0,0,2.37-.73,4.64,4.64,0,0,0,.63-2.87v-20h7v23c0,2.93-.46,4.89-1.41,6S104,117,101.47,117Z"/><path class="cls-3" d="M184.1,46.82V20.2A11.91,11.91,0,0,0,172.19,8.29H135.84l24.61,24.14H80.78V58.89A11.9,11.9,0,0,0,92.68,70.8h34.59l-24.45-24Z"/><path class="cls-4" d="M138.6,70.8h33.59A11.91,11.91,0,0,0,184.1,58.89V54.76H122.25Z"/><path class="cls-4" d="M124.5,8.29H92.68A11.9,11.9,0,0,0,80.78,20.2v4.29H141Z"/></svg>