<?xml version="1.0" encoding="utf-8"?>
<!-- Generator: Adobe Illustrator 27.5.0, SVG Export Plug-In . SVG Version: 6.00 Build 0)  -->
<svg version="1.1" id="Capa_1" xmlns="http://www.w3.org/2000/svg" xmlns:xlink="http://www.w3.org/1999/xlink" x="0px" y="0px"
	 viewBox="0 0 518 125" style="enable-background:new 0 0 518 125;" xml:space="preserve">
<style type="text/css">
	.st0{fill:#295137;}
	.st1{fill:#FFFFFF;}
	.st2{fill:#8A2834;}
	.st3{fill:#D33737;}
	.st4{fill:url(#SVGID_1_);}
	.st5{opacity:0.15;fill:url(#SVGID_00000075870547029633319430000014837658910631529369_);enable-background:new    ;}
	.st6{fill:url(#SVGID_00000039094277715859378410000007028598167342200738_);}
	.st7{fill:url(#SVGID_00000098943461034825322750000003412400109582365096_);}
	.st8{fill:url(#SVGID_00000021101305907230851420000004161084208317786271_);}
	.st9{fill:url(#SVGID_00000034070055307703008330000015262164033534321286_);}
	.st10{fill:url(#SVGID_00000183225546750690849310000003199229366438097285_);}
	.st11{fill:#F4E84B;}
	.st12{fill:url(#SVGID_00000108306089573672600380000005195768853319640995_);}
	.st13{opacity:0.4;}
	.st14{fill:#75A3D5;}
	.st15{fill:url(#SVGID_00000049200653464701291810000004277864061362566320_);}
	.st16{fill:url(#SVGID_00000160191571639153406330000014983625247717866404_);}
	.st17{fill:url(#SVGID_00000177458145165346853880000004889337360706370195_);}
	.st18{fill:#FFE849;}
	.st19{opacity:0.5;fill:url(#SVGID_00000132057639823610828800000017779444279170738847_);enable-background:new    ;}
	.st20{opacity:0.5;fill:url(#SVGID_00000115503787968837028090000016242762422845168019_);enable-background:new    ;}
	.st21{fill:url(#SVGID_00000115503374564645609350000008976058183447946122_);}
	.st22{fill:url(#SVGID_00000172406516752913396160000018044814901716452008_);}
	.st23{fill:url(#SVGID_00000168101766996766464690000018339722657489587880_);}
	.st24{fill:#207745;}
</style>
<path class="st0" d="M501.4,41.7h0.5l0.5,0c0.4,0,0.6,0.1,0.8,0.1c0.3,0.1,0.5,0.3,0.7,0.6c0.1,0.2,0.1,0.5,0.1,1.1
	c0,0.5,0.1,0.9,0.1,1.2h2.2l-0.1-0.3c0-0.1,0-0.2,0-0.3s0-0.2,0-0.3v-0.8c0-0.9-0.3-1.6-0.8-2c-0.3-0.2-0.7-0.4-1.3-0.5
	c0.6-0.1,1.1-0.3,1.5-0.6c0.4-0.3,0.6-0.9,0.6-1.6c0-1-0.4-1.7-1.2-2.1c-0.5-0.3-1-0.4-1.7-0.5c-0.1,0-0.7,0-1.8,0
	c-1.1,0-1.9,0-2.5,0v8.8h2.3L501.4,41.7L501.4,41.7z M503.6,39.8c-0.3,0.2-0.7,0.3-1.3,0.3h-0.9v-2.5h0.6c0.6,0,1,0,1.4,0.2
	c0.5,0.2,0.7,0.5,0.7,1S503.9,39.6,503.6,39.8 M508.2,34.8c-1.5-1.6-3.4-2.3-5.6-2.3c-2.2,0-3.9,0.7-5.5,2.2
	c-1.7,1.5-2.5,3.5-2.5,5.8c0,2.3,0.8,4.1,2.3,5.6c1.5,1.5,3.4,2.3,5.7,2.3s4.1-0.7,5.6-2.2c1.6-1.5,2.4-3.4,2.4-5.7
	C510.6,38.1,509.8,36.3,508.2,34.8 M507.2,35.8c1.3,1.3,1.9,2.8,1.9,4.6s-0.6,3.4-1.9,4.7c-1.3,1.3-2.8,1.9-4.6,1.9
	s-3.4-0.6-4.7-1.9c-1.3-1.3-1.9-2.9-1.9-4.7c0-1.8,0.6-3.3,1.9-4.6c1.3-1.3,2.9-2,4.7-2C504.4,33.8,506,34.5,507.2,35.8"/>
<path class="st1" d="M458.6,74.9c0,3.2-1.1,8.4-4.1,8.4s-6.7-5.2-6.7-8.4c0-3.2,2.4-5.8,5.4-5.8C456.2,69.1,458.6,71.7,458.6,74.9
	L458.6,74.9z"/>
<path class="st2" d="M449.6,83.3l-1.4-3.4c-0.4-2.3-1-6.2-1-6.6c0-2.9,2.5-5.2,5.6-5.2c2.4,0,4.6,1.5,5.4,3.6l2.6,9.5L449.6,83.3
	L449.6,83.3L449.6,83.3z M452.8,69.6c-2.3,0-4.1,1.7-4.1,3.7c0,0.3,0.5,3.3,0.9,5.6l8.2-1.5l-1-5.3
	C456.2,70.7,454.6,69.6,452.8,69.6L452.8,69.6L452.8,69.6z"/>
<path class="st3" d="M472.5,90.5l-3.7-28.8l-34.1,6.5l4.5,28.8l6.8-1.4c-0.2-0.7-0.3-1.4-0.3-2.2c0-1.8,0.5-3.5,1.4-5
	c0.2-0.4,0.5-0.8,0.8-1.2l0,0c0.1-0.1,0.2-0.2,0.3-0.3c1.8-2,4.4-3.2,7.2-3.2c4.7,0,8.7,3.4,9.5,7.9c0,0.1,0.1,0.3,0.1,0.4
	L472.5,90.5 M448.2,79.2c0,0-0.9-5.7-0.9-6.1c0-2.3,2.1-4.2,4.6-4.2c2.1,0,3.8,1.2,4.4,2.9l1,5.7L448.2,79.2L448.2,79.2L448.2,79.2z
	"/>
<linearGradient id="SVGID_1_" gradientUnits="userSpaceOnUse" x1="448.7357" y1="769.3693" x2="460.18" y2="713.1121" gradientTransform="matrix(1 0 0 1 0 -666)">
	<stop  offset="0.14" style="stop-color:#8A2834"/>
	<stop  offset="0.19" style="stop-color:#8A2834;stop-opacity:0.79"/>
	<stop  offset="0.27" style="stop-color:#8A2834;stop-opacity:0.51"/>
	<stop  offset="0.34" style="stop-color:#8A2834;stop-opacity:0.29"/>
	<stop  offset="0.42" style="stop-color:#8A2834;stop-opacity:0.13"/>
	<stop  offset="0.49" style="stop-color:#8A2834;stop-opacity:3.000000e-02"/>
	<stop  offset="0.55" style="stop-color:#8A2834;stop-opacity:0"/>
</linearGradient>
<path class="st4" d="M472.5,90.4l-3.7-28.8L434.8,68l4.5,28.8l6.8-1.4c-0.2-0.7-0.3-1.4-0.3-2.2c0-1.8,0.5-3.5,1.4-5
	c0.2-0.4,0.5-0.8,0.8-1.2l0,0c0.1-0.1,0.2-0.2,0.3-0.3c1.8-2,4.4-3.2,7.2-3.2c4.7,0,8.7,3.4,9.5,7.9c0,0.1,0.1,0.3,0.1,0.4
	L472.5,90.4 M448.2,79.2c0,0-0.9-5.7-0.9-6.1c0-2.3,2.1-4.2,4.6-4.2c2.1,0,3.8,1.2,4.4,2.9l1,5.7L448.2,79.2L448.2,79.2L448.2,79.2z
	"/>
<path class="st1" d="M488.4,61.5c2.4-2.4,0.1-4.6,0.1-4.6c3-4.4-1.7-7.6-1.7-7.6c4.3-8.1-4.9-8.2-4.9-8.2c1.4-9.7-10.4-6.9-10.4-6.9
	c-1.6-4.8-9.8-2-9.8-2c-2.9-6.8-11-1.5-11-1.5c-11.3-3.7-13.5,5.2-13.5,5.2c-7,2.9-4.9,9-4.9,9c-6.8,5.9-1.1,11.8-1.1,11.8l38.7-2.7
	c3.1,3.6,6.4,0.9,6.4,0.9c0,1.9,2.4,2,2.4,2c-1,4.1,2.3,6.1,2.3,6.1L488.4,61.5L488.4,61.5L488.4,61.5z"/>
<linearGradient id="SVGID_00000042018081066034370950000014641736010022669230_" gradientUnits="userSpaceOnUse" x1="470.9227" y1="734.7158" x2="448.3653" y2="698.8246" gradientTransform="matrix(1 0 0 1 0 -666)">
	<stop  offset="0" style="stop-color:#5880B9"/>
	<stop  offset="3.000000e-02" style="stop-color:#5880B9;stop-opacity:0.84"/>
	<stop  offset="7.000000e-02" style="stop-color:#5880B9;stop-opacity:0.64"/>
	<stop  offset="0.12" style="stop-color:#5880B9;stop-opacity:0.47"/>
	<stop  offset="0.18" style="stop-color:#5880B9;stop-opacity:0.32"/>
	<stop  offset="0.24" style="stop-color:#5880B9;stop-opacity:0.2"/>
	<stop  offset="0.31" style="stop-color:#5880B9;stop-opacity:0.11"/>
	<stop  offset="0.4" style="stop-color:#5880B9;stop-opacity:5.000000e-02"/>
	<stop  offset="0.53" style="stop-color:#5880B9;stop-opacity:0"/>
	<stop  offset="0.88" style="stop-color:#5880B9;stop-opacity:0"/>
</linearGradient>
<path style="opacity:0.15;fill:url(#SVGID_00000042018081066034370950000014641736010022669230_);enable-background:new    ;" d="
	M488.4,61.6c2.4-2.4,0-4.7,0-4.7c3-4.4-1.7-7.6-1.7-7.6c4.3-8.1-4.9-8.2-4.9-8.2c1.4-9.7-10.4-6.9-10.4-6.9c-1.6-4.8-9.8-2-9.8-2
	c-2.9-6.8-11-1.5-11-1.5c-11.3-3.7-13.5,5.2-13.5,5.2c-7,2.9-4.9,9-4.9,9c-6.8,5.9-1.1,11.8-1.1,11.8l38.7-2.7
	c3.1,3.6,6.4,0.9,6.4,0.9c0,1.9,2.4,2,2.4,2c-1,4.1,2.3,6.1,2.3,6.1L488.4,61.6L488.4,61.6L488.4,61.6z"/>
<polygon class="st3" points="502.2,90.7 499.8,90.6 488.3,92.9 490.2,97 503.2,94.7 "/>
<polygon class="st3" points="488.7,67.2 482.4,68.3 483.4,72.7 489.6,71.7 "/>
<linearGradient id="SVGID_00000036236496422104871880000007536215695408483969_" gradientUnits="userSpaceOnUse" x1="487.913" y1="741.6775" x2="484.4261" y2="727.6522" gradientTransform="matrix(1 0 0 1 0 -666)">
	<stop  offset="0.14" style="stop-color:#8A2834"/>
	<stop  offset="0.2" style="stop-color:#8A2834;stop-opacity:0.79"/>
	<stop  offset="0.28" style="stop-color:#8A2834;stop-opacity:0.51"/>
	<stop  offset="0.37" style="stop-color:#8A2834;stop-opacity:0.29"/>
	<stop  offset="0.45" style="stop-color:#8A2834;stop-opacity:0.13"/>
	<stop  offset="0.53" style="stop-color:#8A2834;stop-opacity:3.000000e-02"/>
	<stop  offset="0.6" style="stop-color:#8A2834;stop-opacity:0"/>
</linearGradient>
<polygon style="fill:url(#SVGID_00000036236496422104871880000007536215695408483969_);" points="490.9,64.5 490.5,61.2 489.1,61.2 
	479,63.2 479.5,66.5 482.4,68.3 483.4,72.7 489.6,71.7 488.7,67.5 "/>
<polygon class="st3" points="494.8,86.3 485.3,87.3 486.7,89.7 488.3,92.9 499.8,90.6 "/>
<linearGradient id="SVGID_00000183238732874152817520000006722546160273464727_" gradientUnits="userSpaceOnUse" x1="489.0745" y1="762.1038" x2="498.2494" y2="745.7993" gradientTransform="matrix(1 0 0 1 0 -666)">
	<stop  offset="0.14" style="stop-color:#8A2834"/>
	<stop  offset="0.18" style="stop-color:#8A2834;stop-opacity:0.79"/>
	<stop  offset="0.23" style="stop-color:#8A2834;stop-opacity:0.51"/>
	<stop  offset="0.28" style="stop-color:#8A2834;stop-opacity:0.29"/>
	<stop  offset="0.34" style="stop-color:#8A2834;stop-opacity:0.13"/>
	<stop  offset="0.39" style="stop-color:#8A2834;stop-opacity:3.000000e-02"/>
	<stop  offset="0.43" style="stop-color:#8A2834;stop-opacity:0"/>
</linearGradient>
<polygon style="fill:url(#SVGID_00000183238732874152817520000006722546160273464727_);" points="494.8,86.3 485.9,88.2 486.7,89.7 
	488.3,92.9 499.8,90.6 "/>
<linearGradient id="SVGID_00000139251535179792000760000016740313779667874448_" gradientUnits="userSpaceOnUse" x1="451.596" y1="730.0105" x2="453.0375" y2="737.5199" gradientTransform="matrix(1 0 0 1 0 -666)">
	<stop  offset="0.14" style="stop-color:#8A2834"/>
	<stop  offset="0.17" style="stop-color:#8A2834;stop-opacity:0.79"/>
	<stop  offset="0.22" style="stop-color:#8A2834;stop-opacity:0.51"/>
	<stop  offset="0.27" style="stop-color:#8A2834;stop-opacity:0.29"/>
	<stop  offset="0.32" style="stop-color:#8A2834;stop-opacity:0.13"/>
	<stop  offset="0.37" style="stop-color:#8A2834;stop-opacity:3.000000e-02"/>
	<stop  offset="0.41" style="stop-color:#8A2834;stop-opacity:0"/>
</linearGradient>
<polygon style="fill:url(#SVGID_00000139251535179792000760000016740313779667874448_);" points="434.8,68.1 435.2,70.5 469.2,64.4 
	468.8,61.7 "/>
<path class="st3" d="M497.4,76.3c-0.4-2.1-1.8-3.2-1.8-3.2l-2.5,0.4l2.1,7.7l2.4-0.8C497.5,80.4,497.8,78.5,497.4,76.3L497.4,76.3z"
	/>
<linearGradient id="SVGID_00000075164063475306208650000018359637959085539250_" gradientUnits="userSpaceOnUse" x1="493.024" y1="743.5889" x2="502.6371" y2="741.2123" gradientTransform="matrix(1 0 0 1 0 -666)">
	<stop  offset="0.14" style="stop-color:#8A2834"/>
	<stop  offset="0.18" style="stop-color:#8A2834;stop-opacity:0.79"/>
	<stop  offset="0.23" style="stop-color:#8A2834;stop-opacity:0.51"/>
	<stop  offset="0.28" style="stop-color:#8A2834;stop-opacity:0.29"/>
	<stop  offset="0.34" style="stop-color:#8A2834;stop-opacity:0.13"/>
	<stop  offset="0.39" style="stop-color:#8A2834;stop-opacity:3.000000e-02"/>
	<stop  offset="0.43" style="stop-color:#8A2834;stop-opacity:0"/>
</linearGradient>
<path style="fill:url(#SVGID_00000075164063475306208650000018359637959085539250_);" d="M497.4,76.3c-0.4-2.1-1.8-3.2-1.8-3.2
	l-2.5,0.4l2.1,7.7l2.4-0.8C497.5,80.4,497.8,78.5,497.4,76.3L497.4,76.3z"/>
<polygon class="st3" points="490.5,61.2 489.1,61.2 479,63.2 479.5,66.5 482.4,68.3 488.7,67.2 490.9,64.5 "/>
<linearGradient id="SVGID_00000096035770554405364140000015949164146658734503_" gradientUnits="userSpaceOnUse" x1="485.9703" y1="736.1639" x2="484.5288" y2="727.0475" gradientTransform="matrix(1 0 0 1 0 -666)">
	<stop  offset="0.26" style="stop-color:#8A2834"/>
	<stop  offset="0.3" style="stop-color:#8A2834;stop-opacity:0.79"/>
	<stop  offset="0.36" style="stop-color:#8A2834;stop-opacity:0.51"/>
	<stop  offset="0.43" style="stop-color:#8A2834;stop-opacity:0.29"/>
	<stop  offset="0.49" style="stop-color:#8A2834;stop-opacity:0.13"/>
	<stop  offset="0.55" style="stop-color:#8A2834;stop-opacity:3.000000e-02"/>
	<stop  offset="0.6" style="stop-color:#8A2834;stop-opacity:0"/>
</linearGradient>
<polygon style="fill:url(#SVGID_00000096035770554405364140000015949164146658734503_);" points="490.5,61.2 489.1,61.2 479,63.2 
	479.5,66.5 482.4,68.3 488.7,67.2 490.9,64.5 "/>
<polygon class="st11" points="428.5,57.2 469,49.5 469.3,61.8 433.2,68.5 "/>
<linearGradient id="SVGID_00000031896796066398558280000012844532552581713558_" gradientUnits="userSpaceOnUse" x1="451.7016" y1="734.4016" x2="445.6434" y2="703.0978" gradientTransform="matrix(1 0 0 1 0 -666)">
	<stop  offset="0.14" style="stop-color:#EFD548"/>
	<stop  offset="0.15" style="stop-color:#EFD548;stop-opacity:0.9"/>
	<stop  offset="0.18" style="stop-color:#EFD548;stop-opacity:0.66"/>
	<stop  offset="0.21" style="stop-color:#EFD548;stop-opacity:0.46"/>
	<stop  offset="0.24" style="stop-color:#EFD548;stop-opacity:0.29"/>
	<stop  offset="0.27" style="stop-color:#EFD548;stop-opacity:0.17"/>
	<stop  offset="0.3" style="stop-color:#EFD548;stop-opacity:7.000000e-02"/>
	<stop  offset="0.33" style="stop-color:#EFD548;stop-opacity:2.000000e-02"/>
	<stop  offset="0.35" style="stop-color:#EFD548;stop-opacity:0"/>
</linearGradient>
<polygon style="fill:url(#SVGID_00000031896796066398558280000012844532552581713558_);" points="428.5,57.2 469,49.5 469.3,61.8 
	433.2,68.5 "/>
<g class="st13">
	<path class="st14" d="M446.1,50c0.5,0.2,1.1,0.3,1.6,0.4c0.5,0.1,1.1,0.1,1.6,0.1c0.5,0,1-0.1,1.5-0.3c0.5-0.1,1-0.3,1.4-0.6
		l0.7-0.4l0.7-0.4c0.4-0.3,0.9-0.6,1.3-0.9s0.7-0.7,1.1-1.1c0.2-0.2,0.3-0.4,0.4-0.6c0.1-0.2,0.3-0.4,0.3-0.6l0.2-0.5l0.5,0
		c0.3,0,0.6,0,1,0c0.3,0,0.7,0,1-0.1c0.7-0.1,1.3-0.2,2-0.5c0.3-0.1,0.6-0.3,0.9-0.4c0.3-0.2,0.6-0.3,0.9-0.6
		c0.3-0.2,0.5-0.4,0.8-0.7c0.3-0.3,0.5-0.5,0.7-0.8c-0.2,0.3-0.3,0.7-0.5,1c-0.2,0.3-0.4,0.6-0.7,0.9c-0.5,0.6-1.1,1.1-1.8,1.4
		c-0.7,0.4-1.4,0.6-2.2,0.8c-0.4,0.1-0.7,0.1-1.1,0.2c-0.4,0-0.7,0.1-1.2,0l0.7-0.4c-0.1,0.4-0.3,0.6-0.4,0.9
		c-0.2,0.3-0.3,0.5-0.5,0.7c-0.4,0.5-0.8,0.9-1.3,1.2c-0.4,0.4-0.9,0.7-1.4,1l-0.8,0.4l-0.8,0.4c-1.1,0.4-2.3,0.6-3.4,0.5
		C448.1,51,447,50.6,446.1,50L446.1,50L446.1,50z"/>
	<path class="st14" d="M432.7,52c-0.5-1-0.7-2.1-0.4-3.3c0.1-0.3,0.2-0.6,0.3-0.8c0.1-0.3,0.3-0.5,0.5-0.8c0.2-0.2,0.4-0.4,0.6-0.7
		c0.2-0.2,0.5-0.4,0.7-0.5l-0.2,1c-0.2-0.3-0.4-0.5-0.5-0.8c-0.1-0.3-0.2-0.6-0.3-0.8c-0.1-0.3-0.1-0.6-0.1-0.9
		c0-0.3,0.1-0.6,0.1-0.9c0.1-0.3,0.2-0.6,0.4-0.8c0.1-0.3,0.3-0.5,0.5-0.7c0.4-0.4,0.9-0.7,1.4-0.9c-0.3,0.4-0.6,0.8-0.8,1.3
		c-0.1,0.2-0.2,0.4-0.3,0.7c0,0.1-0.1,0.2-0.1,0.3c0,0.1-0.1,0.2-0.1,0.3c0,0.2,0,0.4,0,0.7c0,0.2,0.1,0.4,0.1,0.6
		c0.1,0.2,0.2,0.4,0.3,0.6c0.1,0.2,0.2,0.4,0.4,0.5l0.4,0.5l-0.6,0.5c-0.2,0.1-0.4,0.3-0.5,0.4c-0.2,0.1-0.3,0.3-0.5,0.5
		c-0.3,0.3-0.5,0.7-0.7,1.1C433,50,432.8,51,432.7,52L432.7,52L432.7,52z"/>
	<path class="st14" d="M473.6,52c0,0,0.3,0.3,0.7,0.4c0.2,0.1,0.5,0.1,0.8,0.2c0.3,0,0.6,0,0.9,0c0.7-0.1,1.3-0.3,1.8-0.4
		c0.5-0.1,0.9-0.2,0.9-0.2s-0.1,0.1-0.2,0.2c-0.1,0.1-0.3,0.3-0.5,0.4c-0.2,0.1-0.5,0.3-0.8,0.4c-0.3,0.1-0.7,0.2-1.1,0.3
		c-0.4,0-0.8,0-1.1-0.1c-0.4-0.1-0.7-0.3-0.9-0.4C473.6,52.4,473.6,52,473.6,52L473.6,52L473.6,52z"/>
	<path class="st14" d="M476.5,52.9c0,0,0.2,0.4,0.7,0.7c0.4,0.4,1.1,0.6,1.8,0.7c0.4,0,0.7,0,1.1,0c0.4,0,0.7-0.1,1-0.1
		c0.6-0.1,1-0.2,1-0.2s-0.1,0.1-0.2,0.2c-0.2,0.1-0.4,0.2-0.6,0.4c-0.3,0.1-0.6,0.3-1,0.3c-0.4,0.1-0.8,0.1-1.2,0.1
		c-0.4,0-0.8-0.2-1.2-0.4c-0.4-0.2-0.6-0.5-0.8-0.7C476.5,53.3,476.5,52.9,476.5,52.9L476.5,52.9L476.5,52.9z"/>
	<path class="st14" d="M474.4,44c0,0,0.2,0,0.5,0c0.3,0,0.7,0,1.2-0.1c0.2,0,0.5-0.1,0.8-0.2c0.3-0.1,0.5-0.2,0.7-0.4
		c0.1-0.1,0.3-0.2,0.4-0.3l0.3-0.3c0.2-0.2,0.4-0.4,0.6-0.7c0.8-1,1.1-2.3,1.1-3.2c0-0.5-0.2-0.9-0.3-1.2c-0.1-0.3-0.2-0.4-0.2-0.4
		s0.2,0.1,0.4,0.3c0.2,0.2,0.6,0.6,0.8,1.2c0.1,0.3,0.2,0.6,0.2,0.9c0,0.4,0,0.7,0,1.1c-0.1,0.4-0.2,0.7-0.3,1.1
		c-0.2,0.4-0.4,0.7-0.6,1c-0.2,0.3-0.5,0.6-0.8,0.9c-0.1,0.1-0.4,0.3-0.5,0.4c-0.2,0.1-0.3,0.2-0.5,0.2c-0.4,0.2-0.7,0.2-1.1,0.3
		c-0.3,0-0.7,0-1,0c-0.6-0.1-1-0.2-1.3-0.4C474.6,44.2,474.4,44,474.4,44L474.4,44L474.4,44z"/>
	<path class="st14" d="M441.6,35.3c0,0,0-0.2,0.2-0.5c0.2-0.3,0.4-0.8,0.9-1.2c0.4-0.4,1-0.9,1.8-1.2c0.4-0.2,0.7-0.3,1.1-0.4
		c0.4-0.1,0.8-0.2,1.2-0.2c0.8-0.1,1.7-0.1,2.4,0.1c0.8,0.1,1.5,0.4,2,0.7c0.6,0.3,0.9,0.6,1.2,0.8c0.3,0.2,0.4,0.4,0.4,0.4
		s-0.7-0.4-1.8-0.7c-0.6-0.2-1.2-0.3-1.9-0.3c-0.4,0-0.7,0-1.1,0c-0.4,0-0.7,0-1.1,0.1c-0.7,0.1-1.5,0.2-2.1,0.4
		c-0.7,0.2-1.3,0.5-1.7,0.8C442,34.6,441.5,35.3,441.6,35.3L441.6,35.3L441.6,35.3z"/>
	<path class="st14" d="M450.6,32.6c0,0,0.3-0.5,1-0.9c0.7-0.5,1.8-0.9,2.9-1c0.6,0,1.1,0,1.6,0.1c0.5,0.1,1,0.3,1.4,0.4
		c0.4,0.2,0.7,0.4,0.9,0.5c0.2,0.1,0.3,0.2,0.3,0.2s-0.1,0-0.4,0c-0.2,0-0.6-0.1-0.9-0.1c-0.8-0.1-1.8-0.2-2.8-0.1
		c-0.5,0-1,0.1-1.5,0.2c-0.5,0.1-0.9,0.2-1.3,0.3C451.2,32.4,450.6,32.6,450.6,32.6L450.6,32.6L450.6,32.6z"/>
</g>
<linearGradient id="SVGID_00000012435480468649287980000010807822442741545610_" gradientUnits="userSpaceOnUse" x1="495.0399" y1="761.1873" x2="492.1959" y2="753.7168" gradientTransform="matrix(1 0 0 1 0 -666)">
	<stop  offset="0.36" style="stop-color:#8A2834"/>
	<stop  offset="0.39" style="stop-color:#8A2834;stop-opacity:0.79"/>
	<stop  offset="0.43" style="stop-color:#8A2834;stop-opacity:0.51"/>
	<stop  offset="0.48" style="stop-color:#8A2834;stop-opacity:0.29"/>
	<stop  offset="0.52" style="stop-color:#8A2834;stop-opacity:0.13"/>
	<stop  offset="0.56" style="stop-color:#8A2834;stop-opacity:3.000000e-02"/>
	<stop  offset="0.6" style="stop-color:#8A2834;stop-opacity:0"/>
</linearGradient>
<polygon style="fill:url(#SVGID_00000012435480468649287980000010807822442741545610_);" points="494.8,86.3 485.9,88.2 486.7,89.7 
	488.3,92.9 499.8,90.6 "/>
<path class="st1" d="M430.9,58.4l1.5-0.4c1-0.3,2.4-0.7,4.1-1s3.6-0.9,5.7-1.3c2.1-0.5,4.4-0.9,6.6-1.4c2.3-0.4,4.5-0.9,6.7-1.2
	c2.1-0.4,4.1-0.7,5.8-0.9c1.7-0.3,3.1-0.4,4.1-0.6c1-0.1,1.6-0.2,1.6-0.2s-0.6,0.2-1.5,0.4c-1,0.3-2.4,0.7-4.1,1s-3.6,0.9-5.7,1.3
	c-2.1,0.5-4.4,0.9-6.6,1.4c-2.3,0.4-4.5,0.9-6.7,1.2c-2.1,0.4-4.1,0.7-5.8,0.9c-1.7,0.3-3.1,0.4-4.1,0.6
	C431.5,58.4,430.9,58.4,430.9,58.4z"/>
<path class="st3" d="M492.5,71.2l-9.1,1.5L470.5,75l2,15.5c0.4-3.5,3.4-6.3,7-6.3c2.4,0,5.1,2.1,6.4,4l8.9-1.9c0,0,1-2.8,0-8.4
	C494.2,74.7,492.5,71.2,492.5,71.2L492.5,71.2L492.5,71.2z"/>
<linearGradient id="SVGID_00000083801295340665737560000009605771699379921079_" gradientUnits="userSpaceOnUse" x1="469.8156" y1="754.4657" x2="503.8758" y2="733.7491" gradientTransform="matrix(1 0 0 1 0 -666)">
	<stop  offset="6.000000e-02" style="stop-color:#8A2834"/>
	<stop  offset="0.1" style="stop-color:#8A2834;stop-opacity:0.79"/>
	<stop  offset="0.17" style="stop-color:#8A2834;stop-opacity:0.51"/>
	<stop  offset="0.24" style="stop-color:#8A2834;stop-opacity:0.29"/>
	<stop  offset="0.31" style="stop-color:#8A2834;stop-opacity:0.13"/>
	<stop  offset="0.37" style="stop-color:#8A2834;stop-opacity:3.000000e-02"/>
	<stop  offset="0.43" style="stop-color:#8A2834;stop-opacity:0"/>
</linearGradient>
<path style="fill:url(#SVGID_00000083801295340665737560000009605771699379921079_);" d="M492.5,71.2l-9.1,1.5L470.5,75l2,15.5
	c0.4-3.5,3.4-6.3,7-6.3c2.4,0,5.1,2.1,6.4,4l8.9-1.9c0,0,1-2.8,0-8.4C494.2,74.7,492.5,71.2,492.5,71.2L492.5,71.2L492.5,71.2z"/>
<linearGradient id="SVGID_00000029005775377209465990000003523635519062975109_" gradientUnits="userSpaceOnUse" x1="484.7759" y1="757.5731" x2="482.9546" y2="745.6417" gradientTransform="matrix(1 0 0 1 0 -666)">
	<stop  offset="0.29" style="stop-color:#8A2834"/>
	<stop  offset="0.32" style="stop-color:#8A2834;stop-opacity:0.79"/>
	<stop  offset="0.37" style="stop-color:#8A2834;stop-opacity:0.51"/>
	<stop  offset="0.42" style="stop-color:#8A2834;stop-opacity:0.29"/>
	<stop  offset="0.47" style="stop-color:#8A2834;stop-opacity:0.13"/>
	<stop  offset="0.51" style="stop-color:#8A2834;stop-opacity:3.000000e-02"/>
	<stop  offset="0.55" style="stop-color:#8A2834;stop-opacity:0"/>
</linearGradient>
<path style="fill:url(#SVGID_00000029005775377209465990000003523635519062975109_);" d="M492.5,71.2l-9.1,1.5L470.5,75l2,15.5
	c0.4-3.5,3.4-6.3,7-6.3c2.4,0,5.1,2.1,6.4,4l8.9-1.9c0,0,1-2.8,0-8.4C494.2,74.7,492.5,71.2,492.5,71.2L492.5,71.2L492.5,71.2z"/>
<circle class="st18" cx="455.5" cy="93.3" r="9.7"/>
<linearGradient id="SVGID_00000178893416180926055750000015254917947512543659_" gradientUnits="userSpaceOnUse" x1="460.3865" y1="767.1675" x2="450.8409" y2="751.8362" gradientTransform="matrix(1 0 0 1 0 -666)">
	<stop  offset="0.35" style="stop-color:#E2B945"/>
	<stop  offset="0.36" style="stop-color:#E2B945;stop-opacity:0.94"/>
	<stop  offset="0.44" style="stop-color:#E2B945;stop-opacity:0.7"/>
	<stop  offset="0.51" style="stop-color:#E2B945;stop-opacity:0.48"/>
	<stop  offset="0.58" style="stop-color:#E2B945;stop-opacity:0.31"/>
	<stop  offset="0.65" style="stop-color:#E2B945;stop-opacity:0.17"/>
	<stop  offset="0.71" style="stop-color:#E2B945;stop-opacity:8.000000e-02"/>
	<stop  offset="0.78" style="stop-color:#E2B945;stop-opacity:2.000000e-02"/>
	<stop  offset="0.84" style="stop-color:#E2B945;stop-opacity:0"/>
</linearGradient>
<circle style="opacity:0.5;fill:url(#SVGID_00000178893416180926055750000015254917947512543659_);enable-background:new    ;" cx="455.5" cy="93.3" r="9"/>
<circle class="st18" cx="479.5" cy="91.3" r="7.1"/>
<linearGradient id="SVGID_00000159460723998661134990000010857897694930357647_" gradientUnits="userSpaceOnUse" x1="483.0223" y1="762.9304" x2="476.157" y2="751.8972" gradientTransform="matrix(1 0 0 1 0 -666)">
	<stop  offset="0.35" style="stop-color:#E2B945"/>
	<stop  offset="0.36" style="stop-color:#E2B945;stop-opacity:0.94"/>
	<stop  offset="0.44" style="stop-color:#E2B945;stop-opacity:0.7"/>
	<stop  offset="0.51" style="stop-color:#E2B945;stop-opacity:0.48"/>
	<stop  offset="0.58" style="stop-color:#E2B945;stop-opacity:0.31"/>
	<stop  offset="0.65" style="stop-color:#E2B945;stop-opacity:0.17"/>
	<stop  offset="0.71" style="stop-color:#E2B945;stop-opacity:8.000000e-02"/>
	<stop  offset="0.78" style="stop-color:#E2B945;stop-opacity:2.000000e-02"/>
	<stop  offset="0.84" style="stop-color:#E2B945;stop-opacity:0"/>
</linearGradient>
<circle style="opacity:0.5;fill:url(#SVGID_00000159460723998661134990000010857897694930357647_);enable-background:new    ;" cx="479.5" cy="91.3" r="6.5"/>
<path class="st1" d="M473.3,91.9c0,0,0-0.2-0.1-0.5c0-0.3-0.1-0.7,0-1.3c0-0.5,0.2-1.1,0.5-1.8c0.2-0.3,0.3-0.6,0.5-0.9
	c0.2-0.3,0.4-0.6,0.7-0.8c0.3-0.2,0.5-0.5,0.8-0.7c0.3-0.2,0.6-0.4,0.9-0.5c0.6-0.3,1.2-0.5,1.8-0.5c0.5-0.1,1,0,1.3,0
	c0.3,0,0.5,0.1,0.5,0.1s-0.2,0.1-0.5,0.1c-0.3,0-0.7,0.2-1.2,0.4c-0.2,0.1-0.5,0.2-0.7,0.3c-0.3,0.1-0.5,0.3-0.8,0.4
	c-0.5,0.3-1,0.7-1.5,1.2c-0.4,0.4-0.8,1-1.2,1.5c-0.1,0.3-0.3,0.5-0.4,0.8c-0.1,0.3-0.2,0.5-0.3,0.7c-0.2,0.5-0.3,0.8-0.4,1.2
	C473.3,91.7,473.3,91.9,473.3,91.9L473.3,91.9L473.3,91.9z"/>
<polygon class="st3" points="479.8,90.3 456,92.7 456.1,94 479.9,91.6 479.9,91.1 479.9,91.1 479.9,91.1 "/>
<linearGradient id="SVGID_00000041295504762449843070000017896174665991159446_" gradientUnits="userSpaceOnUse" x1="467.2148" y1="751.6415" x2="468.2082" y2="760.5826" gradientTransform="matrix(1 0 0 1 0 -666)">
	<stop  offset="0.14" style="stop-color:#8A2834;stop-opacity:0"/>
	<stop  offset="0.62" style="stop-color:#8A2834;stop-opacity:0"/>
	<stop  offset="0.65" style="stop-color:#8A2834;stop-opacity:3.000000e-02"/>
	<stop  offset="0.69" style="stop-color:#8A2834;stop-opacity:0.13"/>
	<stop  offset="0.73" style="stop-color:#8A2834;stop-opacity:0.29"/>
	<stop  offset="0.76" style="stop-color:#8A2834;stop-opacity:0.51"/>
	<stop  offset="0.8" style="stop-color:#8A2834;stop-opacity:0.79"/>
	<stop  offset="0.83" style="stop-color:#8A2834"/>
</linearGradient>
<polygon style="fill:url(#SVGID_00000041295504762449843070000017896174665991159446_);" points="479.8,90.3 456,92.7 456.1,94 
	479.9,91.6 479.9,91.1 479.9,91.1 479.9,91.1 "/>
<circle class="st3" cx="455.5" cy="93.3" r="1.9"/>
<linearGradient id="SVGID_00000115478686087058302070000008207191848195600523_" gradientUnits="userSpaceOnUse" x1="453.0158" y1="757.4546" x2="458.0026" y2="761.1946" gradientTransform="matrix(1 0 0 1 0 -666)">
	<stop  offset="0.14" style="stop-color:#8A2834;stop-opacity:0"/>
	<stop  offset="0.45" style="stop-color:#8A2834;stop-opacity:0"/>
	<stop  offset="0.49" style="stop-color:#8A2834;stop-opacity:3.000000e-02"/>
	<stop  offset="0.53" style="stop-color:#8A2834;stop-opacity:0.13"/>
	<stop  offset="0.58" style="stop-color:#8A2834;stop-opacity:0.29"/>
	<stop  offset="0.63" style="stop-color:#8A2834;stop-opacity:0.51"/>
	<stop  offset="0.68" style="stop-color:#8A2834;stop-opacity:0.79"/>
	<stop  offset="0.71" style="stop-color:#8A2834"/>
</linearGradient>
<circle style="fill:url(#SVGID_00000115478686087058302070000008207191848195600523_);" cx="455.5" cy="93.3" r="1.9"/>
<circle class="st3" cx="479.5" cy="91" r="1.5"/>
<linearGradient id="SVGID_00000163071809388191990490000007125994684762209956_" gradientUnits="userSpaceOnUse" x1="477.7804" y1="754.9357" x2="481.3452" y2="759.1141" gradientTransform="matrix(1 0 0 1 0 -666)">
	<stop  offset="0.14" style="stop-color:#8A2834;stop-opacity:0"/>
	<stop  offset="0.45" style="stop-color:#8A2834;stop-opacity:0"/>
	<stop  offset="0.49" style="stop-color:#8A2834;stop-opacity:3.000000e-02"/>
	<stop  offset="0.53" style="stop-color:#8A2834;stop-opacity:0.13"/>
	<stop  offset="0.58" style="stop-color:#8A2834;stop-opacity:0.29"/>
	<stop  offset="0.63" style="stop-color:#8A2834;stop-opacity:0.51"/>
	<stop  offset="0.68" style="stop-color:#8A2834;stop-opacity:0.79"/>
	<stop  offset="0.71" style="stop-color:#8A2834"/>
</linearGradient>
<circle style="fill:url(#SVGID_00000163071809388191990490000007125994684762209956_);" cx="479.5" cy="91" r="1.5"/>
<path class="st1" d="M446.9,93.6c0,0,0-0.2-0.1-0.6c0-0.2,0-0.4,0-0.7c0-0.3,0-0.6,0.1-0.9c0-0.4,0.1-0.7,0.3-1.1
	c0.1-0.4,0.3-0.8,0.4-1.2c0.2-0.4,0.4-0.8,0.7-1.1c0.3-0.4,0.6-0.7,0.9-1.1c0.4-0.3,0.7-0.6,1.1-0.9c0.4-0.3,0.8-0.5,1.1-0.7
	c0.4-0.2,0.8-0.4,1.2-0.5c0.4-0.1,0.7-0.2,1.1-0.3c0.3-0.1,0.7-0.1,0.9-0.1c0.3,0,0.5,0,0.7,0c0.4,0,0.6,0.1,0.6,0.1
	s-0.2,0.1-0.6,0.1c-0.4,0.1-0.9,0.2-1.5,0.4c-0.3,0.1-0.6,0.2-1,0.4c-0.3,0.1-0.7,0.4-1,0.5c-0.7,0.4-1.3,0.9-1.9,1.5
	c-0.6,0.6-1.1,1.3-1.5,1.9c-0.2,0.4-0.4,0.7-0.5,1c-0.2,0.3-0.3,0.7-0.4,1c-0.2,0.6-0.4,1.1-0.4,1.5C447,93.4,446.9,93.6,446.9,93.6
	L446.9,93.6L446.9,93.6z"/>
<path class="st1" d="M478.5,91.4c0,0-0.1-0.1-0.1-0.4c0-0.3,0.1-0.7,0.4-0.9c0.3-0.3,0.7-0.4,0.9-0.4c0.3,0,0.4,0.1,0.4,0.1
	c0,0-0.6,0.4-0.9,0.7c-0.2,0.2-0.3,0.4-0.5,0.5C478.6,91.2,478.5,91.4,478.5,91.4L478.5,91.4L478.5,91.4z"/>
<path class="st1" d="M453.9,93.9c0,0,0-0.1-0.1-0.1c0-0.1-0.1-0.2-0.1-0.4c0-0.4,0.2-0.8,0.5-1.2c0.4-0.4,0.8-0.5,1.2-0.5
	c0.4,0,0.6,0.1,0.6,0.1s-0.2,0.1-0.5,0.3c-0.3,0.1-0.6,0.4-0.8,0.6c-0.2,0.2-0.5,0.5-0.6,0.8C454,93.6,453.9,93.9,453.9,93.9
	L453.9,93.9L453.9,93.9z"/>
<path class="st24" d="M100.7,56.7L92,35.1c-0.9-2.3-2.4-3.8-4.3-4.5C85.9,30,84,30,82,30.8c-1.9,0.8-3.4,2.1-4.2,3.8
	c-0.9,1.8-0.8,3.9,0.1,6.2l8.7,21.4c0.5,1.2,0.7,2.4,0.7,3.4c0,1-0.3,2-0.7,2.8c-0.4,0.9-1.1,1.7-1.9,2.4c-1.6,1.4-3.9,2.4-6.1,2.5
	c-1,0.1-2-0.1-2.9-0.4c-0.9-0.3-1.7-0.8-2.5-1.5c-0.7-0.7-1.4-1.7-1.9-2.9L62.7,47c-0.9-2.3-2.4-3.8-4.2-4.5
	c-1.8-0.6-3.7-0.6-5.7,0.2c-1.9,0.8-3.4,2.1-4.2,3.8c-0.9,1.8-0.8,3.9,0.1,6.2l8.8,21.5c1.3,3.1,3,5.8,5.1,7.9
	c2.1,2.1,4.5,3.7,7.2,4.7c2.3,0.9,4.9,1.3,7.5,1.3c0.4,0,0.7,0,1.1,0c3-0.1,6.1-0.8,9.1-2.1c3.1-1.3,5.8-2.9,8-4.9
	c2.2-2,4-4.3,5.2-6.9c1.2-2.6,1.8-5.4,1.9-8.4C102.7,62.9,102,59.8,100.7,56.7"/>
<path class="st24" d="M241.5,41.5c-0.9-1.6-2.5-2.8-4.7-3.5l-16.4-5c-1.9-0.6-3.7-0.5-5.5,0.3c-1.9,0.8-3.2,2.4-3.9,4.7l-11.1,36.5
	c-0.7,2.3-0.5,4.3,0.6,6.1c1.1,1.7,2.5,2.8,4.4,3.4l16.8,5.1c0.9,0.3,1.9,0.4,2.7,0.4c1.1,0,2.1-0.2,3.1-0.7
	c1.7-0.9,2.9-2.3,3.5-4.4c0.6-2.1,0.5-4-0.5-5.6c-0.9-1.6-2.5-2.8-4.7-3.4l-9.6-2.9l1.7-5.6l8.3,2.5c2.1,0.7,4.1,0.6,5.8-0.2
	c1.7-0.8,2.9-2.3,3.6-4.4c0.6-2.1,0.5-4-0.5-5.6c-0.9-1.6-2.5-2.8-4.7-3.4l-8.3-2.5l1.3-4.3l9.2,2.8c2.1,0.7,4.1,0.6,5.8-0.2
	c1.7-0.8,2.9-2.3,3.6-4.4C242.6,45,242.4,43.1,241.5,41.5"/>
<path class="st0" d="M239.3,42.8c-0.9-1.6-2.5-2.8-4.7-3.5l-16.4-5c-1.9-0.6-3.7-0.5-5.5,0.3c-1.9,0.8-3.2,2.4-3.9,4.7l-11.1,36.5
	c-0.7,2.3-0.5,4.3,0.6,6.1c1.1,1.7,2.5,2.8,4.4,3.4l16.8,5.1c0.9,0.3,1.9,0.4,2.7,0.4c1.1,0,2.1-0.2,3.1-0.7
	c1.7-0.9,2.9-2.3,3.5-4.4c0.6-2.1,0.5-4-0.5-5.6c-0.9-1.6-2.5-2.8-4.7-3.4l-9.6-2.9l1.7-5.6l8.3,2.5c2.1,0.7,4.1,0.6,5.8-0.2
	c1.7-0.8,2.9-2.3,3.5-4.4c0.6-2.1,0.5-4-0.5-5.6c-0.9-1.6-2.5-2.8-4.7-3.4l-8.3-2.5l1.3-4.3l9.2,2.8c2.1,0.7,4.1,0.6,5.8-0.2
	c1.7-0.8,2.9-2.3,3.6-4.4C240.4,46.3,240.2,44.4,239.3,42.8"/>
<path class="st24" d="M202.3,62.6L196.8,40c-0.6-2.4-1.8-4.1-3.5-5.1c-1.7-0.9-3.6-1.1-5.6-0.6c-2,0.5-3.6,1.5-4.7,3.1
	c-1.1,1.7-1.4,3.7-0.8,6.1l5.5,22.4c0.3,1.3,0.4,2.4,0.2,3.5c-0.2,1-0.6,1.9-1.1,2.7c-0.6,0.8-1.3,1.5-2.2,2.1
	c-1.8,1.2-4.2,1.8-6.4,1.5c-1-0.1-2-0.4-2.8-0.8c-0.8-0.4-1.6-1.1-2.2-1.9c-0.6-0.8-1.1-1.9-1.4-3.2l-5.5-22.4
	c-0.6-2.4-1.8-4.1-3.5-5.1c-1.7-0.9-3.6-1.1-5.6-0.6c-2.1,0.5-3.6,1.6-4.7,3.2c-1.1,1.7-1.4,3.7-0.8,6.1l5.5,22.6
	c0.8,3.3,2.1,6.2,3.9,8.6c1.8,2.4,3.9,4.3,6.4,5.7c2.2,1.2,4.6,2,7.2,2.4c0.4,0.1,0.7,0.1,1.1,0.1c3,0.3,6.1,0.1,9.4-0.7
	c3.3-0.8,6.2-2,8.7-3.7c2.5-1.7,4.6-3.7,6.2-6.1c1.6-2.4,2.6-5.1,3.1-8C203.3,69.1,203.1,65.9,202.3,62.6"/>
<path class="st0" d="M199.9,62.5l-5.5-22.6c-0.6-2.4-1.8-4.1-3.5-5.1c-1.7-0.9-3.6-1.1-5.6-0.6c-2,0.5-3.6,1.5-4.7,3.1
	c-1.1,1.7-1.4,3.7-0.8,6.1l5.5,22.4c0.3,1.3,0.4,2.4,0.2,3.5c-0.2,1-0.6,1.9-1.1,2.7c-0.6,0.8-1.3,1.5-2.2,2.1
	c-1.8,1.2-4.2,1.8-6.4,1.5c-1-0.1-2-0.4-2.8-0.8c-0.8-0.4-1.6-1.1-2.2-1.9c-0.6-0.8-1.1-1.9-1.4-3.2l-5.5-22.4
	c-0.6-2.4-1.8-4.1-3.5-5.1c-1.7-0.9-3.6-1.1-5.6-0.6c-2,0.5-3.6,1.6-4.7,3.2c-1.1,1.7-1.4,3.7-0.8,6.1l5.5,22.6
	c0.8,3.3,2.1,6.2,3.9,8.6c1.8,2.4,3.9,4.3,6.4,5.7c2.2,1.2,4.6,2,7.2,2.4c0.4,0,0.7,0.1,1.1,0.1c3,0.3,6.1,0.1,9.4-0.7
	c3.3-0.8,6.2-2,8.7-3.7c2.5-1.7,4.6-3.7,6.2-6.1c1.6-2.4,2.6-5.1,3.1-8C200.8,69,200.7,65.8,199.9,62.5"/>
<path class="st24" d="M148.6,61.8l-12.6-2.7c-2.5-0.5-4.4-0.3-5.8,0.8c-2.5,1.9-2.7,6.5-1.4,8.4c1.1,1.6,2.7,2.6,4.9,3.1l3.9,0.8
	c-0.6,0.9-1.5,1.7-2.5,2.2c-1.8,0.9-3.9,1.1-6.3,0.5c-1.8-0.4-3.3-1.1-4.4-2c-1.1-0.9-2-2-2.6-3.3c-0.6-1.3-1-2.7-1.1-4.3
	c-0.1-1.6,0-3.2,0.4-4.7c0.4-1.8,1-3.4,1.8-4.7c0.8-1.4,1.8-2.5,2.9-3.3c1.1-0.8,2.4-1.4,3.8-1.8c1.4-0.3,3-0.3,4.5,0
	c1.6,0.3,2.9,0.8,3.8,1.5c1,0.7,1.9,1.5,2.6,2.2c0.8,0.8,1.6,1.6,2.3,2.3c1,1,2.1,1.6,3.5,1.9c2,0.4,3.9,0.2,5.3-0.8
	c1.5-1,2.5-2.4,2.9-4.3c0.5-2.2,0.2-4.3-0.9-6.2c-0.9-1.8-2.3-3.4-4.1-4.8c-1.7-1.4-3.7-2.6-6-3.6c-5.8-2.6-12.1-3.5-17.6-2.6
	c-3.4,0.6-6.6,1.8-9.3,3.7c-2.8,1.8-5.2,4.2-7.1,7.1s-3.4,6.3-4.2,10c-0.7,3.5-0.9,7-0.5,10.3c0.4,3.4,1.5,6.6,3.2,9.4
	c1.7,2.8,4,5.3,6.9,7.4c2.9,2.1,6.4,3.5,10.4,4.4c2,0.4,4,0.7,5.9,0.7c1.5,0,2.9-0.1,4.3-0.4c3.2-0.6,6.1-1.8,8.7-3.5
	c2.5-1.7,4.7-4,6.4-6.6c1.7-2.6,3-5.7,3.7-9c0.5-2.3,0.3-4.1-0.6-5.4C152.7,62.6,150.4,62.1,148.6,61.8"/>
<path class="st24" d="M425.6,43.4c-1-1.6-2.6-2.8-4.6-3.3c-2-0.5-4-0.4-5.7,0.5c-1.8,0.9-3,2.6-3.7,5.1L407,62.8l-9.8-22.2
	c-0.6-1.4-1.1-2.6-1.6-3.5c-0.5-1-1-1.8-1.4-2.5c-0.6-0.8-1.2-1.4-1.9-1.9c-0.7-0.4-1.5-0.8-2.4-1c-2-0.6-4-0.4-5.7,0.5
	c-1.8,0.9-3,2.6-3.7,5.1l-9.8,36.3c-0.7,2.4-0.4,4.5,0.6,6.2c1,1.6,2.6,2.8,4.6,3.3c2,0.6,4,0.4,5.7-0.5c1.8-0.9,3-2.6,3.7-5.1
	l4.6-17.1l9.9,22.2c0.6,1.4,1.1,2.5,1.5,3.4c0.5,1,0.9,1.9,1.4,2.6c0.6,0.8,1.2,1.4,1.9,1.9c0.7,0.4,1.5,0.8,2.4,1
	c0.8,0.2,1.5,0.3,2.3,0.3c1.2,0,2.4-0.3,3.4-0.8c1.8-0.9,3-2.6,3.7-5.1l9.8-36.3C426.9,47.2,426.7,45.1,425.6,43.4"/>
<path class="st0" d="M423.2,43.2c-1.1-1.6-2.6-2.7-4.7-3.3c-2-0.5-4-0.3-5.7,0.6c-1.8,0.9-3,2.6-3.6,5.1l-4.5,17.1l-10-22.1
	c-0.6-1.4-1.1-2.6-1.6-3.5c-0.5-1-1-1.8-1.5-2.5c-0.6-0.8-1.2-1.4-1.9-1.8c-0.7-0.4-1.5-0.8-2.4-1c-2-0.5-4-0.4-5.7,0.6
	c-1.8,0.9-3,2.6-3.6,5.1l-9.6,36.4c-0.6,2.4-0.4,4.5,0.7,6.2c1.1,1.6,2.6,2.7,4.7,3.3c2,0.5,4,0.4,5.7-0.6c1.8-0.9,3-2.6,3.6-5.1
	l4.5-17.1l10,22.1c0.6,1.4,1.1,2.5,1.6,3.4c0.5,1,1,1.9,1.5,2.6c0.6,0.8,1.2,1.4,1.9,1.8c0.7,0.4,1.5,0.8,2.4,1
	c0.8,0.2,1.5,0.3,2.3,0.3c1.2,0,2.3-0.3,3.4-0.9c1.8-0.9,3-2.6,3.6-5.1l9.6-36.4C424.5,47,424.2,44.9,423.2,43.2"/>
<path class="st24" d="M372.8,53.3c-1.3-3.3-3-6.1-5.4-8.4c-2.3-2.3-5.1-4.1-8.3-5.4c-3.2-1.3-6.8-1.9-10.7-1.9s-7.5,0.6-10.7,1.9
	c-3.2,1.3-6,3.1-8.3,5.4c-2.3,2.3-4.1,5.2-5.4,8.4c-1.2,3.2-1.9,6.9-1.9,10.9s0.6,7.6,1.9,10.9c1.2,3.3,3,6.1,5.4,8.4
	c2.3,2.3,5.1,4.1,8.3,5.4c3.2,1.3,6.8,1.9,10.7,1.9s7.5-0.6,10.7-1.9c3.2-1.3,6-3.1,8.3-5.4c2.3-2.3,4.1-5.2,5.4-8.4
	c1.2-3.2,1.9-6.9,1.9-10.9S374,56.5,372.8,53.3 M340.6,55.5c0.8-1.1,1.8-2,3.1-2.6c1.3-0.7,2.8-1,4.7-1s3.4,0.3,4.7,1
	c1.3,0.7,2.3,1.6,3.1,2.6c0.8,1.1,1.4,2.4,1.8,3.9c0.4,1.5,0.6,3.1,0.6,4.8c0,1.6-0.2,3.2-0.6,4.8c-0.4,1.5-1,2.8-1.8,3.9
	c-0.8,1.1-1.8,2-3.1,2.6c-1.3,0.7-2.8,1-4.7,1c-1.8,0-3.4-0.3-4.7-1c-1.3-0.7-2.3-1.6-3.1-2.6c-0.8-1.1-1.4-2.4-1.8-3.9
	c-0.4-1.5-0.6-3.1-0.6-4.8s0.2-3.2,0.6-4.8C339.2,57.9,339.8,56.6,340.6,55.5"/>
<path class="st0" d="M370.3,53.2c-1.3-3.3-3-6.1-5.4-8.4c-2.3-2.3-5.1-4.1-8.3-5.4c-3.2-1.3-6.8-1.9-10.7-1.9
	c-3.9,0-7.5,0.6-10.7,1.9c-3.2,1.3-6,3.1-8.3,5.4c-2.3,2.3-4.1,5.2-5.4,8.4c-1.2,3.2-1.9,6.9-1.9,10.9s0.6,7.6,1.9,10.9
	c1.2,3.3,3,6.1,5.4,8.4c2.3,2.3,5.1,4.1,8.3,5.4c3.2,1.3,6.8,1.9,10.7,1.9c3.9,0,7.5-0.6,10.7-1.9c3.2-1.3,6-3.1,8.3-5.4
	c2.3-2.3,4.1-5.2,5.4-8.4c1.2-3.2,1.9-6.9,1.9-10.9S371.5,56.4,370.3,53.2 M338.2,55.4c0.8-1.1,1.8-2,3.1-2.6c1.3-0.7,2.8-1,4.7-1
	s3.4,0.3,4.7,1c1.3,0.7,2.3,1.6,3.1,2.6c0.8,1.1,1.4,2.4,1.8,3.9c0.4,1.5,0.6,3.1,0.6,4.8c0,1.6-0.2,3.2-0.6,4.8
	c-0.4,1.5-1,2.8-1.8,3.9c-0.8,1.1-1.8,2-3.1,2.6c-1.3,0.7-2.8,1-4.7,1c-1.8,0-3.4-0.3-4.7-1c-1.3-0.7-2.3-1.6-3.1-2.6
	c-0.8-1.1-1.4-2.4-1.8-3.9c-0.4-1.5-0.6-3.1-0.6-4.8s0.2-3.2,0.6-4.8C336.7,57.8,337.4,56.5,338.2,55.4"/>
<path class="st24" d="M327.1,74.6c-0.4-1.2-1-2.2-1.8-3c-0.7-0.7-1.7-1.4-2.8-2l-9.6-5.3c2.1-1.7,3.7-3.7,4.6-6.1
	c1.4-3.4,1.4-7.1,0.2-11c-0.8-2.4-1.9-4.6-3.4-6.3c-1.5-1.7-3.3-3.1-5.3-4.1c-2-0.9-4.2-1.5-6.7-1.6c-2.4-0.1-4.9,0.3-7.5,1.1
	L282,40.5c-1.9,0.6-3.3,1.7-4.4,3.4c-1.1,1.8-1.3,3.8-0.6,6.1L288.6,86c0.8,2.4,2.1,4.1,3.9,4.9c1,0.5,2,0.7,3.1,0.7
	c0.8,0,1.7-0.1,2.6-0.4c2-0.6,3.5-1.8,4.5-3.5c1-1.8,1.1-3.9,0.3-6.3l-2.6-8.2l13.9,9.3c1.1,0.7,2.1,1.2,3.1,1.5
	c0.5,0.1,1,0.2,1.5,0.2c0.9,0,1.8-0.2,3-0.5c1.3-0.4,2.4-1,3.2-1.9c0.8-0.8,1.3-1.6,1.7-2.5c0.4-0.9,0.6-1.8,0.6-2.6
	C327.4,75.8,327.3,75.1,327.1,74.6 M301.7,50.2c0.8,0.3,1.3,1,1.7,2c0.3,1,0.3,1.9-0.1,2.8c-0.4,0.8-1.1,1.4-2.4,1.8l-5.2,1.7
	l-2.1-6.6l5.2-1.7C299.9,49.8,300.8,49.8,301.7,50.2"/>
<path class="st0" d="M324.6,75.4c-0.4-1.2-1-2.2-1.8-3c-0.7-0.7-1.7-1.4-2.8-2l-9.6-5.3c2.1-1.7,3.7-3.7,4.6-6.1
	c1.4-3.4,1.4-7.1,0.2-11c-0.8-2.4-1.9-4.6-3.4-6.3c-1.5-1.7-3.3-3.1-5.3-4.1c-2-0.9-4.2-1.5-6.7-1.6c-2.4-0.1-4.9,0.3-7.5,1.1
	l-12.9,4.1c-1.9,0.6-3.3,1.7-4.4,3.4c-1.1,1.8-1.3,3.8-0.6,6.1l11.5,36.1c0.8,2.4,2.1,4.1,3.9,4.9c1,0.5,2,0.7,3.1,0.7
	c0.8,0,1.7-0.1,2.6-0.4c2-0.6,3.5-1.8,4.5-3.6c1-1.8,1.1-3.9,0.3-6.3l-2.6-8.2l13.9,9.3c1.1,0.7,2.1,1.2,3.1,1.5
	c0.5,0.1,1,0.2,1.5,0.2c0.9,0,1.8-0.2,3-0.5c1.3-0.4,2.4-1,3.2-1.9c0.8-0.8,1.3-1.6,1.7-2.5c0.4-0.9,0.6-1.8,0.6-2.6
	C324.8,76.7,324.8,76,324.6,75.4 M299.2,51c0.8,0.3,1.3,1,1.7,2c0.3,1,0.3,1.9-0.1,2.8c-0.4,0.8-1.1,1.4-2.4,1.8l-5.2,1.7l-2.1-6.6
	l5.2-1.7C297.3,50.6,298.3,50.6,299.2,51"/>
<path class="st24" d="M281.5,45c-1-1.6-2.7-2.6-5-3.2L253.3,36c-2.3-0.6-4.3-0.4-6,0.5c-1.7,0.9-2.8,2.5-3.3,4.6
	c-0.5,2.1-0.3,3.9,0.8,5.6c1,1.6,2.7,2.7,5,3.3l4.2,1.1l-7.6,30.2c-0.6,2.4-0.4,4.5,0.7,6.2c1.1,1.6,2.6,2.7,4.7,3.2
	c0.7,0.2,1.4,0.3,2.1,0.3c1.3,0,2.5-0.3,3.5-0.9c1.8-1,3-2.7,3.6-5.1l7.6-30.2l4.2,1.1c0.9,0.2,1.8,0.3,2.6,0.3
	c1.3,0,2.4-0.3,3.4-0.8c1.7-0.9,2.8-2.5,3.3-4.5C282.8,48.5,282.5,46.6,281.5,45"/>
<path class="st0" d="M146.5,63l-12.6-2.7c-2.5-0.5-4.4-0.3-5.8,0.8c-2.5,1.9-2.7,6.5-1.4,8.4c1.1,1.6,2.7,2.6,4.9,3.1l3.9,0.8
	c-0.6,0.9-1.5,1.7-2.5,2.2c-1.8,0.9-3.9,1.1-6.3,0.5c-1.8-0.4-3.3-1.1-4.4-2c-1.1-0.9-2-2-2.6-3.3c-0.6-1.3-1-2.7-1.1-4.3
	c-0.1-1.6,0-3.2,0.4-4.7c0.4-1.8,1-3.4,1.8-4.7c0.8-1.4,1.8-2.5,2.9-3.3c1.1-0.8,2.4-1.4,3.8-1.8c1.4-0.3,3-0.3,4.5,0
	c1.6,0.3,2.9,0.8,3.8,1.5c1,0.7,1.9,1.4,2.6,2.2c0.8,0.8,1.6,1.6,2.3,2.3c1,1,2.1,1.6,3.5,1.9c2,0.4,3.9,0.2,5.3-0.8
	c1.5-1,2.5-2.4,2.9-4.3c0.5-2.2,0.2-4.3-0.9-6.2c-0.9-1.8-2.3-3.4-4.1-4.8c-1.7-1.4-3.7-2.6-6-3.6c-5.8-2.6-12.1-3.5-17.6-2.6
	c-3.4,0.6-6.6,1.8-9.3,3.7c-2.8,1.8-5.2,4.2-7.1,7.1s-3.4,6.3-4.2,10c-0.7,3.5-0.9,7-0.5,10.3c0.4,3.4,1.5,6.6,3.2,9.4
	c1.7,2.8,4,5.3,6.9,7.4c2.9,2.1,6.4,3.5,10.4,4.4c2,0.4,4,0.7,5.9,0.7c1.5,0,2.9-0.1,4.3-0.4c3.2-0.6,6.1-1.8,8.7-3.5
	c2.5-1.7,4.7-4,6.4-6.6c1.7-2.6,3-5.7,3.7-9c0.5-2.3,0.3-4.1-0.6-5.4C150.5,63.8,148.3,63.3,146.5,63"/>
<path class="st0" d="M279,46.1c-1-1.6-2.7-2.6-5-3.2L250.8,37c-2.3-0.6-4.3-0.4-6,0.5c-1.7,0.9-2.8,2.5-3.3,4.6
	c-0.5,2.1-0.3,3.9,0.8,5.5c1,1.6,2.7,2.7,5,3.3l4.2,1.1L244,82.1c-0.6,2.4-0.4,4.5,0.7,6.2c1.1,1.6,2.6,2.7,4.7,3.2
	c0.7,0.2,1.4,0.3,2.1,0.3c1.3,0,2.5-0.3,3.6-0.9c1.8-1,3-2.7,3.6-5.1l7.6-30.2l4.2,1.1c0.9,0.2,1.8,0.3,2.6,0.3
	c1.3,0,2.4-0.3,3.4-0.8c1.7-0.9,2.8-2.5,3.3-4.5C280.3,49.6,280,47.7,279,46.1"/>
<path class="st0" d="M99.9,59.1l-8.8-21.5c-0.9-2.3-2.4-3.8-4.3-4.5c-1.8-0.7-3.7-0.6-5.7,0.2c-1.9,0.8-3.4,2.1-4.2,3.8
	c-0.9,1.8-0.8,3.9,0.1,6.2l8.7,21.4c0.5,1.2,0.7,2.4,0.7,3.4c0,1-0.3,2-0.7,2.8c-0.4,0.9-1.1,1.7-1.9,2.4c-1.6,1.4-3.9,2.4-6.1,2.5
	c-1,0.1-2-0.1-2.9-0.4c-0.9-0.3-1.7-0.8-2.5-1.5c-0.7-0.7-1.4-1.7-1.9-2.9l-8.7-21.4c-0.9-2.3-2.4-3.8-4.2-4.5
	c-1.8-0.6-3.7-0.6-5.7,0.2c-2,0.8-3.4,2.1-4.2,3.8c-0.9,1.8-0.8,3.9,0.1,6.2l8.8,21.5c1.3,3.1,3,5.8,5.1,7.9
	c2.1,2.1,4.5,3.7,7.2,4.7c2.3,0.9,4.8,1.3,7.5,1.3c0.4,0,0.7,0,1.1,0c3-0.1,6.1-0.8,9.1-2.1c3.1-1.3,5.8-2.9,8-4.9
	c2.2-2,4-4.3,5.2-6.9c1.2-2.6,1.8-5.4,1.9-8.4C101.8,65.4,101.1,62.3,99.9,59.1"/>
<path class="st24" d="M52.3,44.8c-0.9-1.7-2.4-2.9-4.4-3.6c-2-0.7-3.9-0.7-5.7,0c-1.9,0.7-3.2,2.3-4.1,4.7l-8,22.3
	c-0.9,2.7-1.3,4.3-2.4,5.5c-0.7,0.7-2,0.6-2.6,0.4c-0.7-0.2-3.5-1.4-2.1-4.7c0,0,5-10.5-3.4-12.6c0,0-6-2.4-9.2,4.9
	c0,0-8.8,20.6,10.2,26.4v0c0.2,0.1,0.4,0.2,0.6,0.2c2.7,1,5.1,1.4,7.2,1.4c0.5,0,1,0,1.5-0.1c2.5-0.3,4.6-1.1,6.4-2.3
	c1.7-1.2,3.2-2.8,4.3-4.7c1-1.8,1.9-3.6,2.5-5.4L52.4,51C53.3,48.7,53.2,46.6,52.3,44.8"/>
<path class="st0" d="M49.8,45.9c-0.9-1.7-2.4-2.9-4.4-3.6c-2-0.7-3.9-0.7-5.7,0c-1.9,0.7-3.2,2.3-4.1,4.7l-8,22.3
	c-0.9,2.7-1.3,4.3-2.4,5.5c-0.7,0.7-2,0.6-2.6,0.4c-0.7-0.2-3.5-1.4-2.1-4.7c0,0,5-10.5-3.4-12.6c0,0-6-2.4-9.2,4.9
	c0,0-8.8,20.6,10.2,26.4v0c0.2,0.1,0.4,0.2,0.6,0.2c2.7,1,5.1,1.4,7.2,1.4c0.5,0,1,0,1.5-0.1c2.5-0.3,4.6-1.1,6.4-2.3
	c1.7-1.2,3.2-2.8,4.3-4.7c1-1.8,1.9-3.6,2.5-5.4L50,52.1C50.8,49.7,50.8,47.7,49.8,45.9"/>
</svg>
