<?xml version="1.0" encoding="UTF-8"?><svg id="Capa_1" xmlns="http://www.w3.org/2000/svg" viewBox="0 0 87.14 87.13"><path d="m.19,0v85.74c0,.3.14.64-.14.9V.67C.05.45-.12.17.19,0H.19Z" style="fill:#414141; stroke-width:0px;"/><path d="m86.98,0H.19v85.74c0,.3.13.64-.14.9v.29c.31,0,.63-.02.95-.02,28.36,0,56.72,0,85.07.02.71,0,.93-.12.93-.89-.02-28.68-.02-57.36-.02-86.04h0Zm-2.14,85.72c-13.8-.02-27.61-.02-41.4-.02s-27.51,0-41.25.02c-.77,0-.93-.22-.92-.95.02-27.53.01-55.06.01-82.58,0-.64.32-.96.95-.96h82.58c.63,0,.94.32.94.96,0,27.53,0,55.06.02,82.59,0,.73-.16.94-.92.94h-.01Z" style="fill:#010101; stroke-width:0px;"/><path d="m.04,86.95c.32,0,.63-.02.95-.02,28.36,0,56.72,0,85.08.01.7,0,.93-.12.93-.89-.02-28.68-.02-57.36-.02-86.04.05.03.15-.07.15.07v.59c0,28.59,0,57.17.01,85.76,0,.55-.12.68-.68.68-28.58-.02-57.17-.01-85.75-.02-.22,0-.5.17-.66-.14h-.01Z" style="fill:#fdfeff; stroke-width:0px;"/><path d="m85.74,2.21c0-.64-.31-.96-.94-.96H2.22c-.63,0-.95.32-.95.96,0,27.53,0,55.06-.01,82.58,0,.73.15.95.92.95,13.75-.02,27.5-.02,41.25-.02s27.6,0,41.4.02c.76,0,.92-.22.92-.94-.02-27.53-.02-55.06-.02-82.59h0Zm-4.04,42.72c-1.25,3.73-2.71,7.35-5.04,10.55-2.97,4.08-6.92,6.25-12.03,6.19-2.87-.04-5.6-.58-7.93-2.38-.42-.33-.82-.71-1.18-1.11-.25-.26-.41-.31-.71-.06-2.86,2.38-6.18,3.55-9.87,3.6-2.62.03-5.1-.57-7.28-2.13-.38-.28-.62-.25-1.02-.03-4.92,2.65-9.89,3.08-14.88.18-.39-.23-.61-.07-.92.1-3.42,1.81-7.03,2.27-10.74,1.29-4.46-1.18-6.99-5.14-6.46-9.72.61-5.25,2.49-10.09,4.57-14.88,1.05-2.43,2.24-4.79,3.6-7.06,2.85-4.73,7.53-5.91,12.32-4.73,1.1.27,2.02.87,2.62,1.88.17.28.29.31.56.1,2.57-1.99,5.59-2.47,8.72-2.57,1.52-.05,3.03,0,4.53.37,1.12.28,2.21.7,3.11,1.42.54.42.92.34,1.49.07,4.72-2.3,9.55-2.41,14.44-.56.87.33,1.67.84,2.33,1.5.39.39.63.29,1.04.02,4.3-3,9.01-3.5,13.86-1.84,4.22,1.45,6.3,4.75,6.57,9.13.22,3.66-.53,7.2-1.69,10.66h-.01Z" style="fill:#d83832; stroke-width:0px;"/><path d="m64.64,61.67c-2.87-.04-5.6-.58-7.93-2.38-.42-.33-.81-.71-1.18-1.1-.25-.27-.41-.32-.71-.06-2.86,2.38-6.18,3.55-9.87,3.6-2.62.04-5.11-.57-7.28-2.12-.38-.27-.62-.25-1.02-.03-4.92,2.65-9.89,3.08-14.87.19-.39-.23-.62-.07-.92.1-3.41,1.81-7.02,2.28-10.74,1.29-4.46-1.18-6.99-5.14-6.46-9.72.61-5.25,2.49-10.1,4.57-14.89,1.05-2.43,2.24-4.79,3.6-7.06,2.85-4.73,7.53-5.91,12.32-4.73,1.1.27,2.02.87,2.62,1.88.16.28.29.31.56.11,2.57-1.99,5.59-2.47,8.72-2.58,1.52-.05,3.03,0,4.52.37,1.13.28,2.21.7,3.12,1.42.54.42.92.35,1.49.07,4.72-2.3,9.55-2.41,14.44-.56.87.33,1.67.84,2.34,1.5.39.39.63.3,1.04.02,4.3-2.99,9.01-3.5,13.86-1.83,4.22,1.45,6.31,4.76,6.57,9.12.22,3.66-.53,7.2-1.69,10.67-1.25,3.73-2.71,7.35-5.04,10.55-2.97,4.08-6.92,6.25-12.02,6.19h0l-.04-.02Zm-9.02-7.25c1.05,2.68,3.07,4.21,5.78,4.85,2.33.54,4.67.44,6.97-.21,3.55-.99,5.93-3.4,7.72-6.48,1.96-3.36,3.27-6.99,4.25-10.74.66-2.52,1.11-5.06.9-7.69-.29-3.62-2.42-6.35-5.83-7.29-2.28-.63-4.6-.63-6.91-.13-2.57.56-4.71,1.87-6.46,3.88-1-1.86-2.5-3.09-4.47-3.62-4.63-1.25-9.07-.96-13.11,1.92-.25.18-.38.28-.63-.04-.78-1.04-1.87-1.63-3.07-2.04-2.02-.7-4.11-.6-6.18-.43-2.61.22-5.05.96-7.01,2.83-.53.5-.94,1.1-1.48,1.76-.02-.29-.02-.46-.04-.62-.17-1.94-1.18-3.16-3.07-3.64-1.52-.38-3.06-.38-4.58,0-2.21.56-3.72,2-4.83,3.91-2.62,4.55-4.7,9.35-6.33,14.34-.84,2.59-1.57,5.2-1.51,7.97.07,2.73,1.6,4.95,4.13,5.96.97.39,1.97.56,3.01.59,3.03.08,5.92-.35,8.3-2.46.3-.26.41-.07.57.1.9.86,1.93,1.53,3.12,1.87,4.52,1.28,8.65.6,12.33-2.44,3.81,4.63,13.36,4.18,18.4-2.13h0l.03-.02Z" style="fill:#f8d046; stroke-width:0px;"/><path d="m55.61,54.42c-5.05,6.31-14.59,6.75-18.4,2.13-3.68,3.04-7.82,3.72-12.33,2.44-1.19-.34-2.22-1-3.12-1.87-.17-.16-.27-.36-.57-.1-2.38,2.11-5.26,2.54-8.3,2.46-1.03-.03-2.04-.21-3.01-.59-2.53-1.01-4.06-3.23-4.13-5.96-.07-2.77.66-5.38,1.51-7.97,1.63-4.99,3.71-9.78,6.33-14.34,1.1-1.91,2.62-3.36,4.83-3.91,1.52-.38,3.06-.38,4.58,0,1.9.48,2.9,1.69,3.07,3.64,0,.16.02.32.04.62.54-.66.95-1.26,1.48-1.76,1.96-1.87,4.4-2.61,7.01-2.83,2.07-.18,4.16-.28,6.18.43,1.2.42,2.3,1.01,3.07,2.04.24.32.37.22.63.04,4.04-2.88,8.48-3.17,13.11-1.92,1.96.53,3.47,1.76,4.47,3.62,1.75-2.01,3.89-3.32,6.46-3.88,2.31-.5,4.62-.5,6.91.13,3.41.95,5.54,3.67,5.83,7.29.21,2.63-.24,5.18-.9,7.69-.99,3.75-2.29,7.38-4.25,10.74-1.79,3.08-4.17,5.49-7.72,6.48-2.31.64-4.64.75-6.97.21-2.72-.63-4.73-2.17-5.78-4.85h0l-.03.02Zm-10.8,2.54c1.06.04,2.07-.1,3.06-.41,3.78-1.15,6.21-3.77,7.77-7.28.82-1.84,1.41-3.76,1.34-5.81-.06-1.54-.88-2.51-2.37-2.86-1.07-.25-2.13-.17-3.21,0-1.58.23-2.61,1.08-3.19,2.56-.53,1.37-.48,2.73,1.59,3.06.27.05.38.12.3.43-.39,1.43-1.04,2.69-2.32,3.53-.76.49-1.61.71-2.43.24-.82-.47-.71-1.33-.62-2.11.17-1.41.61-2.76,1.06-4.11.87-2.6,1.82-5.16,3.14-7.57.48-.87,1.09-1.66,2.09-1.96.6-.19,1.3-.32,1.82.14s.12,1.05,0,1.58c-.02.07-.06.14-.08.21-.35,1.28.12,2.09,1.4,2.43,2.22.6,4.47-.54,5.32-2.68,1.3-3.28.33-5.87-2.75-6.8-4.35-1.31-9.88-.67-13.14,4.22-2.09,3.14-3.5,6.59-4.57,10.19-.67,2.25-1.26,4.53-1.14,6.92.15,2.86,1.59,4.86,4.07,5.7.94.32,1.9.46,2.87.41h0v-.02Zm19.75-.02c1.13.04,2.16-.1,3.18-.4,2.65-.77,4.45-2.59,5.83-4.87,1.77-2.94,3.05-6.11,3.99-9.42.66-2.33,1.21-4.7,1.17-7.14-.05-3.12-1.56-5.15-4.29-5.81-1.62-.39-3.25-.38-4.89-.09-3.19.56-5.35,2.49-6.85,5.24-1.69,3.1-2.86,6.42-3.84,9.8-.65,2.24-1.15,4.51-1.13,6.85.02,3.05,1.65,5.04,4.63,5.64.74.15,1.5.24,2.2.19h0Zm-35.87-7.42c.33-1.4.74-2.64,1.15-3.89.12-.36.33-.26.57-.22.97.16,1.94.24,2.93.21,2.14-.08,3.59-1.13,4.24-3.11.63-1.88-.08-2.96-2.05-3.24-1.13-.16-2.24.03-3.43.06.4-1.13.91-2.14,1.47-3.14.14-.25.32-.22.55-.22,1.1,0,2.2-.02,3.3-.08.93-.05,1.84-.26,2.67-.71,1.37-.75,2.19-2.17,1.98-3.56-.23-1.51-1.37-2.12-2.68-2.47-1.86-.51-3.74-.3-5.61-.02-2.14.32-3.83,1.39-5.16,3.08-1.01,1.28-1.76,2.7-2.43,4.17-2.07,4.58-3.85,9.25-4.18,14.35-.16,2.5,1.09,4.72,3.42,5.61,3.1,1.19,6.11.78,8.94-.91,1.02-.61,1.66-1.57,1.94-2.75.49-2.07-.51-3.47-2.64-3.67-.12,0-.24-.02-.37-.02-1.53-.11-3.02.11-4.63.54h.02Zm-12.87-.18c.14-.33.24-.55.34-.77,1.71-3.65,3.56-7.23,5.12-10.95.8-1.91,1.66-3.81,1.92-5.9.2-1.58-.65-2.5-2.24-2.58-2.27-.11-3.89.91-5.01,2.82-1.91,3.23-3.42,6.64-4.77,10.12-1.18,3.03-2.24,6.1-2.69,9.34-.42,2.98.88,4.93,3.64,5.35,1.74.26,3.47.14,5.15-.41,1.98-.65,3.29-1.94,3.73-4.04.36-1.7-.36-2.72-2.08-3.03-1.01-.18-2,0-3.11.06h0Z" style="fill:#050404; stroke-width:0px;"/><path d="m82.18,27.31c.31.08.53.06.52-.35,0-.15-.09-.38.14-.43.23-.05.36.15.44.32.16.36.37.62.87.49-.61.69-1.35.72-2.11.15.05-.06.1-.12.15-.18h-.01Z" style="fill:#d83832; stroke-width:0px;"/><path d="m44.81,56.96c-.97.05-1.94-.09-2.87-.41-2.47-.84-3.92-2.84-4.07-5.7-.12-2.38.47-4.66,1.14-6.92,1.07-3.6,2.48-7.04,4.57-10.19,3.26-4.89,8.79-5.53,13.14-4.22,3.08.93,4.05,3.52,2.75,6.8-.85,2.15-3.1,3.28-5.32,2.68-1.28-.35-1.75-1.16-1.4-2.43.02-.07.06-.13.08-.21.12-.53.52-1.12,0-1.58-.52-.47-1.22-.33-1.82-.14-1,.31-1.61,1.09-2.09,1.96-1.32,2.41-2.27,4.97-3.14,7.57-.45,1.34-.89,2.69-1.06,4.11-.09.78-.2,1.64.62,2.11s1.67.26,2.43-.24c1.28-.83,1.93-2.1,2.32-3.53.08-.3-.02-.38-.3-.43-2.06-.34-2.12-1.7-1.59-3.06.58-1.48,1.61-2.34,3.19-2.56,1.07-.15,2.14-.24,3.21,0,1.49.35,2.31,1.32,2.37,2.86.07,2.05-.51,3.97-1.34,5.81-1.56,3.51-3.99,6.12-7.77,7.28-.99.3-2,.45-3.06.41h0v.02Z" style="fill:#fdfeff; stroke-width:0px;"/><path d="m64.56,56.94c-.7.05-1.45-.04-2.2-.19-2.97-.6-4.61-2.59-4.63-5.64-.01-2.35.48-4.62,1.13-6.85.98-3.38,2.15-6.7,3.84-9.8,1.5-2.75,3.66-4.69,6.85-5.24,1.63-.28,3.27-.3,4.89.09,2.73.66,4.23,2.69,4.29,5.81.04,2.45-.51,4.81-1.17,7.14-.94,3.3-2.22,6.47-3.99,9.42-1.37,2.28-3.17,4.1-5.83,4.87-1.02.29-2.06.43-3.18.4h0Zm7.74-20.84c0-.61.01-1.24-.76-1.39-.82-.16-1.56,0-2.11.69-.35.45-.62.94-.86,1.45-1.5,3.19-2.68,6.5-3.67,9.88-.23.77-.45,1.55-.5,2.36-.09,1.32.92,1.99,2.13,1.43.34-.16.61-.41.84-.7.4-.5.68-1.07.95-1.65,1.28-2.86,2.34-5.8,3.25-8.79.33-1.08.67-2.15.74-3.28h0Z" style="fill:#fdfeff; stroke-width:0px;"/><path d="m28.69,49.51c1.61-.43,3.1-.65,4.63-.54.12,0,.24,0,.37.02,2.12.2,3.13,1.6,2.64,3.67-.28,1.18-.92,2.14-1.94,2.75-2.82,1.69-5.83,2.1-8.94.91-2.33-.89-3.58-3.1-3.42-5.61.33-5.09,2.11-9.76,4.18-14.35.67-1.47,1.42-2.9,2.43-4.17,1.33-1.69,3.03-2.76,5.16-3.08,1.87-.28,3.75-.49,5.61.02,1.31.36,2.45.96,2.68,2.47.21,1.39-.61,2.82-1.98,3.56-.83.45-1.74.66-2.67.71-1.1.06-2.2.07-3.3.08-.23,0-.42-.03-.55.22-.56,1-1.07,2.01-1.47,3.14,1.19-.04,2.3-.22,3.43-.06,1.97.28,2.67,1.36,2.05,3.24-.66,1.98-2.1,3.03-4.24,3.11-.98.04-1.96-.05-2.93-.21-.24-.04-.45-.13-.57.22-.41,1.24-.83,2.49-1.15,3.89h-.02Z" style="fill:#fdfeff; stroke-width:0px;"/><path d="m15.82,49.33c1.11-.05,2.1-.24,3.11-.06,1.72.31,2.44,1.33,2.08,3.03-.44,2.1-1.75,3.39-3.73,4.04-1.68.55-3.41.67-5.15.41-2.76-.41-4.06-2.37-3.64-5.35.46-3.24,1.51-6.31,2.69-9.34,1.36-3.48,2.87-6.9,4.77-10.12,1.13-1.91,2.74-2.93,5.01-2.82,1.6.08,2.44,1,2.24,2.58-.26,2.09-1.12,3.99-1.92,5.9-1.56,3.72-3.41,7.3-5.12,10.95-.1.22-.19.44-.34.77h0Z" style="fill:#fdfeff; stroke-width:0px;"/><path d="m72.29,36.09c-.07,1.13-.41,2.21-.74,3.28-.91,2.99-1.97,5.93-3.25,8.79-.26.58-.55,1.15-.95,1.65-.23.29-.49.54-.84.7-1.21.56-2.22-.11-2.13-1.43.06-.81.28-1.59.5-2.36.99-3.38,2.17-6.69,3.67-9.88.24-.51.51-1,.86-1.45.55-.71,1.29-.86,2.11-.69.77.15.76.78.76,1.39h0Z" style="fill:#050404; stroke-width:0px;"/><path d="m82.87,28.03c-1.17,0-2.12-.95-2.12-2.12s.95-2.12,2.12-2.12,2.12.95,2.12,2.12-.95,2.12-2.12,2.12Zm0-3.78c-.92,0-1.66.74-1.66,1.66s.74,1.66,1.66,1.66,1.66-.74,1.66-1.66-.74-1.66-1.66-1.66Z" style="fill:#010101; stroke-width:0px;"/><path d="m83.4,26.9l-.55-.72h-.32v.72h-.43v-2.04h.79c.44,0,.76.27.76.66,0,.26-.14.47-.37.58l.6.8h-.49.01Zm-.86-1.09h.36c.2,0,.32-.12.32-.29s-.13-.29-.32-.29h-.36v.58Z" style="fill:#010101; stroke-width:0px;"/></svg>