<svg id="Capa_1" data-name="Capa 1" xmlns="http://www.w3.org/2000/svg" viewBox="0 0 293.29 125"><defs><style>.cls-1{fill:#6d2e87;}</style></defs><path class="cls-1" d="M57.78,52.35H44.38l-.63,4h-.14c-2.06-3.76-5.87-5.23-10.29-5.23-11.56,0-20.85,9.42-22.6,20.45s4.53,19.29,15.56,19.29c5,0,8.81-1.7,12.83-5.15l-.29,1.76c-1,6.12-3.12,10.82-10.32,10.82a7.73,7.73,0,0,1-3.68-.89,3.69,3.69,0,0,1-2.06-2.87h-15c-.38,9.94,10.53,14.43,19.21,14.43,13.9,0,22.88-6.47,25.43-22.51ZM34.62,62.42c5.43,0,8,3.9,7.25,8.53a9.76,9.76,0,0,1-9.95,8.47c-5.45,0-8-3.68-7.27-8.47a9.94,9.94,0,0,1,10-8.53"/><path class="cls-1" d="M85.7,62.71c5.44,0,8,3.91,7.25,8.55a9.75,9.75,0,0,1-10,8.45c-5.44,0-8-3.68-7.26-8.45a9.94,9.94,0,0,1,10-8.55m23.2-10.36H95.51L94.92,56c-2.26-3.32-6.57-4.94-10.92-4.94-11.18,0-20.38,9.28-22.09,20.1S66.6,91.35,77.78,91.35c4.41,0,9.32-1.7,12.27-5.46h.14l-.66,4.21h13.39Z"/><path class="cls-1" d="M130.46,52.35h-13.4l-6,37.75h13.39l3.11-19.58c.75-4.7,2.93-8.76,8.38-8.76,6.62,0,5,6.33,4.46,9.94L137.5,90.1h13.4l3.69-23.34c1.46-9.26-1.57-15.67-11.72-15.67a15.51,15.51,0,0,0-13,6.1h-.14Z"/><path class="cls-1" d="M188.11,90.1h13.4L211.18,29H197.79l-4.27,27c-2.28-3.32-6.59-4.94-10.93-4.94-11.18,0-20.37,9.28-22.08,20.1s4.67,20.16,15.85,20.16c4.42,0,9.33-1.7,12.27-5.46h.15Zm-3.82-27.39c5.44,0,8,3.91,7.25,8.55a9.76,9.76,0,0,1-9.94,8.45c-5.45,0-8-3.68-7.27-8.45a9.94,9.94,0,0,1,10-8.55"/><path class="cls-1" d="M219.57,29,209.89,90.1h13.4l3.06-19.36c.7-4.42,3.11-9,8.41-9s5.32,4.56,4.61,9L236.31,90.1H249.7L253.36,67c1.52-9.57-2.12-15.9-11.69-15.9-5.22,0-9.27,1.92-13,6h-.15L233,29Z"/><path class="cls-1" d="M277.17,52.35h-13.4l-6,37.75h13.39Zm-3.22-22a9.16,9.16,0,0,0-8.69,7.51,6.27,6.27,0,0,0,6.31,7.51,9.19,9.19,0,0,0,8.7-7.51A6.27,6.27,0,0,0,274,30.34"/><path class="cls-1" d="M275.7,85.29a4.93,4.93,0,1,0,4.93-4.78,4.77,4.77,0,0,0-4.93,4.78m1.31,0a3.62,3.62,0,1,1,3.62,3.78A3.62,3.62,0,0,1,277,85.29M278.72,88h1.06V85.68h.67L281.76,88h1.11l-1.43-2.34a1.34,1.34,0,0,0,1.4-1.44c0-1.16-.75-1.59-2.1-1.59h-2Zm1.06-4.54h.91c.47,0,1.09.09,1.09.67s-.45.75-1,.75h-1Z"/><rect class="cls-1" x="38.52" y="20.5" width="3.24" height="26.42"/><path class="cls-1" d="M46.61,20.5H49.9v3.67H46.61Zm0,7.25H49.9V46.92H46.61Z"/><path class="cls-1" d="M54.53,20.41h3.15V30a7.07,7.07,0,0,1,2.54-2.12,7.28,7.28,0,0,1,3.22-.73,7.59,7.59,0,0,1,5.86,2.47c1.5,1.66,2.25,4.08,2.25,7.3a12.46,12.46,0,0,1-2.23,7.59,7.21,7.21,0,0,1-6.15,3,6.3,6.3,0,0,1-3.72-1.06,8.7,8.7,0,0,1-1.93-2v2.46h-3ZM66.91,42.58a10.25,10.25,0,0,0,1.31-5.5,9.06,9.06,0,0,0-1.31-5,4.31,4.31,0,0,0-3.86-2,5.37,5.37,0,0,0-3.89,1.64q-1.66,1.64-1.67,5.39a11.85,11.85,0,0,0,.69,4.41A4.74,4.74,0,0,0,63,44.67a4.33,4.33,0,0,0,3.94-2.09"/><path class="cls-1" d="M75.37,27.65h3.08V31a7.35,7.35,0,0,1,1.86-2.36,4.78,4.78,0,0,1,3.39-1.4l.31,0,.74.07v3.42c-.19,0-.37-.06-.53-.07l-.53,0a4.64,4.64,0,0,0-3.77,1.58,5.48,5.48,0,0,0-1.31,3.62V46.92H75.37Z"/><path class="cls-1" d="M99.46,28.19a7.32,7.32,0,0,1,2.91,2.49,8.57,8.57,0,0,1,1.28,3.4,21.45,21.45,0,0,1,.29,4.24h-14A8.41,8.41,0,0,0,91.3,43a4.6,4.6,0,0,0,4,1.78,5.1,5.1,0,0,0,4-1.69,5.78,5.78,0,0,0,1.19-2.26h3.18a6.53,6.53,0,0,1-.84,2.37,8.43,8.43,0,0,1-1.58,2.13,7.46,7.46,0,0,1-3.62,1.94A10.64,10.64,0,0,1,95,47.6,8.06,8.06,0,0,1,88.94,45c-1.66-1.75-2.48-4.19-2.48-7.33A11.1,11.1,0,0,1,89,30.12a8.24,8.24,0,0,1,6.54-2.9,8.64,8.64,0,0,1,4,1m1.15,7.56a8.46,8.46,0,0,0-.91-3.37,4.66,4.66,0,0,0-4.4-2.33,4.83,4.83,0,0,0-3.71,1.61A6,6,0,0,0,90,35.75Z"/><path class="cls-1" d="M108.13,27.65h3.07V31a7.65,7.65,0,0,1,1.86-2.36,4.81,4.81,0,0,1,3.4-1.4l.31,0,.73.07v3.42c-.19,0-.37-.06-.53-.07l-.53,0a4.63,4.63,0,0,0-3.76,1.58,5.48,5.48,0,0,0-1.31,3.62V46.92h-3.24Z"/><path class="cls-1" d="M127.07,19.9l-4.8,5.2h-2.48l3.29-5.2Zm-5.74,7.85h3.29V46.92h-3.29Z"/><path class="cls-1" d="M140.87,35.26a1.74,1.74,0,0,0,1.49-.93,3,3,0,0,0,.22-1.25,2.66,2.66,0,0,0-1.18-2.41,6.28,6.28,0,0,0-3.37-.75,4.23,4.23,0,0,0-3.58,1.38,4.43,4.43,0,0,0-.78,2.25h-3q.09-3.57,2.31-5a9.4,9.4,0,0,1,5.15-1.4,10.48,10.48,0,0,1,5.51,1.29,4.4,4.4,0,0,1,2.11,4v11.1a1.39,1.39,0,0,0,.2.81,1,1,0,0,0,.87.31l.49,0c.18,0,.37,0,.58-.08V47a9.05,9.05,0,0,1-1.15.27,9.62,9.62,0,0,1-1.08.06,2.66,2.66,0,0,1-2.43-1.19,4.55,4.55,0,0,1-.56-1.78,8.33,8.33,0,0,1-2.85,2.25,8.82,8.82,0,0,1-4.08,1,6.08,6.08,0,0,1-4.38-1.63,5.4,5.4,0,0,1-1.7-4.07,5.24,5.24,0,0,1,1.68-4.15,8,8,0,0,1,4.39-1.81ZM134.05,44a3.79,3.79,0,0,0,2.43.81,7.49,7.49,0,0,0,3.31-.79,4.45,4.45,0,0,0,2.69-4.29V37.13a5.56,5.56,0,0,1-1.52.63,12.32,12.32,0,0,1-1.83.36l-2,.25a7.73,7.73,0,0,0-2.64.74A2.85,2.85,0,0,0,133,41.8a2.67,2.67,0,0,0,1,2.21"/><path class="cls-1" d="M153,40.87a4.7,4.7,0,0,0,.83,2.49c.83,1,2.28,1.56,4.34,1.56a6.48,6.48,0,0,0,3.22-.78,2.59,2.59,0,0,0,1.4-2.42,2.05,2.05,0,0,0-1.12-1.89,14.23,14.23,0,0,0-2.81-.92l-2.61-.64a13.08,13.08,0,0,1-3.7-1.37,4.08,4.08,0,0,1-2.12-3.63,5.53,5.53,0,0,1,2-4.43,8.07,8.07,0,0,1,5.37-1.69q4.41,0,6.36,2.56a5.45,5.45,0,0,1,1.18,3.48h-3a3.65,3.65,0,0,0-.8-2c-.76-.85-2.07-1.27-3.95-1.27a4.81,4.81,0,0,0-2.85.7,2.18,2.18,0,0,0-1,1.84,2.27,2.27,0,0,0,1.26,2,7.75,7.75,0,0,0,2.17.79l2.18.52a17.18,17.18,0,0,1,4.76,1.64,4.34,4.34,0,0,1,1.89,3.91,5.92,5.92,0,0,1-2,4.44c-1.32,1.24-3.32,1.87-6,1.87q-4.35,0-6.16-1.95a7.37,7.37,0,0,1-1.94-4.84Z"/></svg>