<?xml version="1.0" encoding="UTF-8"?><svg id="Capa_1" xmlns="http://www.w3.org/2000/svg" viewBox="0 0 320.82 125"><defs><style>.cls-1{fill:#0a1e3f;}</style></defs><path class="cls-1" d="m150.28,75.95c2.54,3.61,5,7.07,7.53,10.65,2.58-3.6,5.1-7.09,7.6-10.57.1.03.14.04.16.05s.05.04.05.06c0,5.04.01,10.08.03,15.12,0,.13-.04.25-.08.43h-2.43c-.06-2.77,0-5.56-.24-8.41-1.69,2.39-3.37,4.77-5.14,7.27-1.72-2.37-3.36-4.65-5-6.91-.06.01-.14.03-.2.04,0,.86-.03,1.74-.03,2.61v5.4h-2.25c-.2-.71-.25-14.41-.03-15.73h.01Z"/><path class="cls-1" d="m244.45,53.52c4.08,0,7.47,3.41,7.45,7.49,0,4.1-3.38,7.43-7.52,7.43s-7.43-3.32-7.43-7.48,3.34-7.44,7.48-7.44h.01Zm.04,12.59c2.77,0,4.97-2.28,4.96-5.14,0-2.87-2.28-5.17-5.07-5.16-2.76.01-4.96,2.3-4.97,5.15-.01,2.83,2.28,5.15,5.09,5.14h0Z"/><path class="cls-1" d="m182.82,58.98v9.21h-2.32v-15.11c3.57,3.39,6.89,6.79,10.46,10.22v-9.56h2.23c.2.66.25,13.6.03,14.99-3.46-3.34-6.84-6.61-10.22-9.88-.06.04-.13.08-.18.13Z"/><path class="cls-1" d="m200.77,82.83h6.68v2.33c-1.09.14-2.2.04-3.31.06-1.09.01-2.18,0-3.33,0-.2.7-.09,1.35-.11,2-.03.66,0,1.32,0,2.1h7.92v2.27c-.73.2-8.22.29-10.3.11-.21-.7-.3-13.13-.11-15.14.69-.21,8.32-.29,10.06-.09v2.33h-7.49v4.03h0Z"/><path class="cls-1" d="m118.11,68.21h-2.28c-.19-.74-.25-13.53-.05-15.07,3.51,3.36,6.83,6.74,10.43,10.2.08-1.75,0-3.28,0-4.82.01-1.55,0-3.12,0-4.76h2.27v15.04c-3.52-3.41-6.88-6.65-10.38-10.05v9.45h.01Z"/><path class="cls-1" d="m270.21,68.81c-3.55-3.43-6.9-6.68-10.41-10.07v9.45h-2.38v-15.13c3.55,3.48,6.93,6.8,10.48,10.3v-9.6h2.29c.1.76.03,1.58.04,2.39v10.03c0,.8.03,1.6-.04,2.62h.01Z"/><path class="cls-1" d="m164.73,53.74c1.8,0,3.57-.14,5.3.04,1.9.19,3.39,1.19,3.95,3.14.6,2.13-.18,4.5-1.69,5.44-.11.08-.21.16-.41.31,1.13,1.8,2.25,3.61,3.49,5.59-.94,0-1.69.04-2.43-.03-.24-.03-.51-.26-.66-.49-.85-1.27-1.69-2.54-2.49-3.83-.31-.5-.66-.78-1.27-.71-.45.05-.9,0-1.47,0v4.99h-2.24c-.19-.74-.26-12.88-.08-14.46h0Zm2.37,7.14c.86,0,1.62.04,2.37,0,1.29-.09,2.13-.96,2.22-2.24.09-1.33-.64-2.41-1.9-2.59-.86-.13-1.75-.03-2.68-.03v4.87h0Z"/><path class="cls-1" d="m151.5,62.06v3.85c.8.14,1.63.05,2.44.06.83.01,1.65,0,2.49,0h2.56v2.13c-.69.21-8.1.29-9.78.1-.2-.69-.28-12.94-.08-14.37.7-.2,8.09-.25,9.56-.08v2.15h-7.17v3.85h6.36v2.3s-6.39,0-6.39,0Z"/><path class="cls-1" d="m286.37,91.73h-2.82c-.48-1.16-.96-2.36-1.44-3.55h-5.49c-.49,1.16-.99,2.34-1.49,3.53h-2.47c2.27-5.35,4.51-10.61,6.73-15.85h.18s.08,0,.09.03c2.14,4.99,4.28,9.98,6.41,14.97.1.24.18.49.31.85h-.01Zm-8.87-5.77h3.76c-.6-1.53-1.18-2.97-1.84-4.65-.68,1.65-1.27,3.08-1.9,4.65h-.01Z"/><path class="cls-1" d="m214.32,90.3c.41-.73.74-1.29,1.1-1.93.31.16.59.33.88.46,1.2.6,2.43,1.06,3.81.75.31-.08.64-.18.93-.34,1.16-.65,1.39-2.13.4-3.02-.5-.45-1.15-.76-1.77-1.08-.74-.36-1.54-.63-2.27-1-1.58-.83-2.43-2.1-2.3-3.95.13-1.73,1.19-3.08,2.94-3.61,2.29-.69,4.43-.2,6.54,1.01-.31.65-.59,1.23-.93,1.92-.36-.15-.69-.29-1.01-.43-.96-.4-1.95-.65-2.99-.53-.35.04-.73.13-1.04.29-1.1.58-1.29,1.95-.31,2.72.61.49,1.35.81,2.07,1.16.65.33,1.35.54,2,.88,1.68.89,2.38,2.32,2.25,4.18-.11,1.73-1.01,2.97-2.58,3.6-2.72,1.09-5.24.43-7.73-1.1h.01Z"/><path class="cls-1" d="m256.07,76.43h2.99c1.3,3.22,2.59,6.43,3.88,9.63.08,0,.14,0,.21.01,1.24-3.21,2.48-6.43,3.73-9.65h2.94c-2.28,5.34-4.53,10.59-6.88,16.1-2.34-5.46-4.58-10.7-6.89-16.1Z"/><path class="cls-1" d="m288.18,68.22h-2.68c-.45-1.1-.89-2.2-1.34-3.33h-5.25c-.45,1.08-.91,2.17-1.39,3.31h-2.36c2.15-5.07,4.27-10.07,6.38-15.02.11,0,.15-.01.18,0,.04,0,.08.01.09.04,2.04,4.79,4.1,9.56,6.14,14.34.08.18.13.36.24.68h0Zm-4.87-5.49c-.55-1.49-1.08-2.83-1.74-4.37-.64,1.59-1.24,2.92-1.74,4.37h3.48Z"/><path class="cls-1" d="m211.2,68.24h-2.63c-.44-1.09-.88-2.19-1.34-3.33h-5.25c-.44,1.05-.9,2.14-1.39,3.29h-2.36c2.15-5.07,4.27-10.06,6.4-15.08.54.58,6.06,13.35,6.55,15.12h.01Zm-6.44-9.65c-.75,1.35-1.35,2.68-1.87,4.12h3.49c-.58-1.44-1.1-2.78-1.63-4.12h0Z"/><path class="cls-1" d="m107.07,76.44h9.23v2.3h-6.71c-.01.79-.04,1.47-.04,2.14v2.09c1.98.1,3.92-.03,5.9.08v2.33h-5.86c-.09,2.14,0,4.17-.06,6.29h-2.44v-15.23h-.01Z"/><path class="cls-1" d="m184.64,91.7h-2.51v-15.26h9.22v2.34h-6.66v4.21h5.79v2.43h-5.85v6.29h.01Z"/><path class="cls-1" d="m230.27,78.84v-2.37h10.18v2.33h-3.85v12.88h-2.56c-.04-4.25,0-8.49-.03-12.84h-3.76Z"/><path class="cls-1" d="m143.34,89.32v2.27c-.71.21-8.34.29-9.91.1-.19-.7-.24-13.89-.05-15.22h2.39v12.85h7.57Z"/><path class="cls-1" d="m295.04,89.37h7.53v2.32h-9.98v-15.23h2.46v12.92Z"/><path class="cls-1" d="m137.59,55.95h-3.63v-2.2h9.7v2.18h-3.67v12.26h-2.37c-.06-.99-.03-2-.03-3.02v-9.22h0Z"/><path class="cls-1" d="m217.61,55.95h-3.62v-2.2h9.71v2.17h-3.68v12.29h-2.37c-.06-1-.03-2.02-.03-3.03v-9.22h-.01Z"/><path class="cls-1" d="m295.44,65.98h7.15v2.22h-9.33c-.21-.66-.28-13.14-.05-14.46h2.24v12.25h-.01Z"/><path class="cls-1" d="m249.61,91.71h-2.41v-15.26h2.41v15.26Z"/><path class="cls-1" d="m125.46,91.71h-2.22c-.24-.73-.34-12.64-.13-15.23h2.29c.19.73.25,13.95.05,15.23h0Z"/><path class="cls-1" d="m106.99,53.73h2.27v14.47h-2.18c-.2-.73-.29-12.54-.09-14.47h0Z"/><path class="cls-1" d="m229.15,53.73h2.25v14.47h-2.19c-.2-.7-.28-12.86-.06-14.47Z"/><path class="cls-1" d="m64,76.57H23.4c2.57,3.08,5.84,5.56,9.48,7.2,3.41,1.54,7.05,2.31,10.82,2.31,7.88,0,15.26-3.46,20.3-9.51h.01Z"/><path class="cls-1" d="m81.84,69.71c-.89,1.06-1.84,2.12-2.83,3.12-.97.98-1.99,1.94-3.03,2.84l-.03.03c-.35.3-.68.58-1.01.84-6.59,5.35-19.11,10.77-30.3,10.77-3.57,0-6.8-.55-9.62-1.64,7.14,5.94,14.99,8.82,23.95,8.82,6.81,0,13.47-1.86,19.25-5.38l.11-.07h0c.32-.19,1.29-.83,1.55-1.01,1.39-.95,2.73-2,3.96-3.13,2.74-2.48,5.08-5.33,6.97-8.5.17-.27.32-.55.47-.83l.02-.04c2.48-4.4,4-9.17,4.53-14.18-4.96.65-9.5,3.09-12.8,6.84-.4.53-.82,1.04-1.21,1.52h.01Z"/><path class="cls-1" d="m88.9,58.28c-.32,0-.64,0-1,.02-5.72.23-11.45,2.2-18.03,6.2-.82.5-1.66,1.03-2.52,1.6-.51.33-1.01.68-1.52,1.02-1.39.95-2.85,1.94-4.4,2.76-2.38,1.26-5.15,2.28-8.43,3.11-2.67.68-5.44,1.05-8.23,1.11h-.09c-.74.02-1.49.01-2.31-.02-1.1-.06-2.22-.21-3.31-.42-4.61-1-8.81-3.58-11.81-7.26-3.05-3.73-4.72-8.44-4.72-13.27v-.07c0-.78,0-1.61.12-2.41.18-1.16.93-2.11,1.92-2.44.68-.23,1.6-.21,2.26.04.22.08.43.19.64.29.19.09.38.19.59.27.39.15.77.3,1.17.45.51.2,1.02.4,1.53.6.88.34,1.62.6,2.44.6.32,0,.63-.04.96-.11,1.14-.27,1.83-.84,2.77-1.86l2.46-2.9c-.33.06-.91.13-1.63.13-1.27,0-2.47-.23-3.58-.66l-5.84-2.11s-.31-.11-.75-.11c-.53,0-1.31.15-2.03.9l-2.06,2.13-.18-.12,1.29-2.66c.79-1.64-.18-2.84-.22-2.89l-3.97-4.77c-1.61-1.75-2.14-3.91-2.28-4.71l-1.89,3.31c-.65,1.26-.94,2.06-.79,3.23.15,1.27.74,2.02,1.62,3.03.34.39.69.78,1.03,1.18.29.33.59.66.88.99.87.99,1.64,1.98,1.72,3.3.04.63-.41,1.64-.51,1.83-1.93,3.76-2.9,7.8-2.9,12.05,0,5.76,1.82,11.23,5.26,15.83h51.9c2.69-2.21,5.15-4.73,7.32-7.46l.04-.05s.03-.03.04-.05c1.02-1.23,2.2-2.36,3.5-3.35,3.1-2.37,6.76-3.87,10.61-4.34.03-.39.05-.81.07-1.26-2.3-.46-4.67-.7-7.03-.7h-.09v.02Z"/><polygon class="cls-1" points="314.52 107.06 6.3 107.06 6.3 25.05 100.23 25.05 100.23 27.08 8.71 27.08 8.71 105.02 312.11 105.02 312.11 27.08 309.32 27.08 309.32 25.05 314.52 25.05 314.52 107.06"/><path class="cls-1" d="m233.7,33.93l-2.56-1.65c-.87,1.36-2.64,2.25-4.43,2.47l-7.3-16.81h-.25l-10.47,24.14h4.51l1.89-4.54.18-.43c1.88-1.16,4.6-1.43,6.36-.37.33.2.69.37,1.05.52l.11.28,1.8,4.54h5.3l-1.92-4.44c2.33-.49,4.49-1.79,5.73-3.71h0Zm-16.81-.69l2.15-5.2,2.08,5.25c-1.36-.34-2.82-.34-4.23-.05h0Z"/><path class="cls-1" d="m201.01,41.82c-1.26.48-2.64.71-4.13.71-2.38,0-4.45-.52-6.21-1.55-1.76-1.03-3.1-2.42-4.04-4.17s-1.4-3.67-1.4-5.76c0-2.3.46-4.35,1.4-6.15.93-1.8,2.24-3.2,3.91-4.21,1.68-1,3.61-1.5,5.81-1.5,1.38,0,2.67.19,3.85.56s2.22.84,3.1,1.4l-1.77,4.25c-1.63-1.24-3.31-1.86-5.03-1.86-1.16,0-2.24.32-3.26.96-1.02.64-1.82,1.52-2.42,2.62-.6,1.11-.9,2.33-.9,3.68,0,1.47.28,2.75.84,3.86.56,1.11,1.36,1.97,2.39,2.59,1.03.62,2.24.93,3.63.93,1.11,0,2.12-.18,3.01-.54.89-.36,1.59-.79,2.11-1.29l1.86,4.04c-.58.48-1.5.96-2.76,1.43h0Z"/><path class="cls-1" d="m251.21,32.43c.67.9,1.01,1.94,1.01,3.12,0,2.32-.76,4.02-2.28,5.11-1.52,1.09-3.42,1.63-5.7,1.63h-7.61v-22.84h6.71c2.42,0,4.33.49,5.71,1.47,1.38.98,2.08,2.41,2.08,4.27,0,1.14-.24,2.14-.71,3s-1.15,1.55-2.01,2.06c1.2.56,2.14,1.29,2.81,2.19h0Zm-10.07-3.65h2.73c.83,0,1.47-.26,1.92-.76s.69-1.14.69-1.88-.26-1.35-.78-1.75c-.52-.4-1.23-.6-2.14-.6h-2.42v5h0Zm5.45,8.67c.65-.42.98-1.06.98-1.91,0-1.61-1.28-2.42-3.85-2.42h-2.57v4.97h2.89c1.05,0,1.91-.21,2.56-.64Z"/><path class="cls-1" d="m260.27,25.09c1.05-1.8,2.46-3.23,4.25-4.3,1.79-1.07,3.73-1.6,5.82-1.6s4.03.53,5.82,1.6c1.79,1.07,3.22,2.5,4.28,4.3,1.07,1.8,1.6,3.74,1.6,5.81s-.53,4.06-1.6,5.84c-1.07,1.78-2.49,3.19-4.28,4.24-1.79,1.05-3.73,1.56-5.82,1.56s-4.06-.52-5.84-1.56c-1.78-1.05-3.19-2.46-4.24-4.24-1.05-1.78-1.56-3.72-1.56-5.84s.52-4,1.56-5.81h0Zm4.04,9.47c.63,1.11,1.49,2,2.57,2.65,1.09.65,2.29.98,3.61.98s2.45-.33,3.51-.98c1.05-.65,1.88-1.53,2.49-2.64.6-1.11.9-2.33.9-3.68s-.31-2.61-.93-3.72c-.62-1.11-1.47-2-2.53-2.65-1.07-.65-2.25-.98-3.55-.98s-2.49.33-3.55.98c-1.07.65-1.91,1.54-2.53,2.65-.62,1.11-.93,2.36-.93,3.72s.32,2.55.95,3.66h0Z"/><path class="cls-1" d="m296.93,23.32c-1,0-1.77.19-2.31.59-.55.39-.82.98-.82,1.77,0,.73.4,1.36,1.2,1.91.8.55,1.86,1.07,3.18,1.56,1.07.39,1.99.84,2.76,1.35s1.4,1.2,1.91,2.1c.51.89.76,2.01.76,3.38,0,1.18-.3,2.27-.91,3.27-.61,1-1.5,1.8-2.69,2.39-1.18.59-2.59.89-4.22.89-1.36,0-2.72-.2-4.06-.6-1.34-.4-2.6-1.02-3.76-1.85l1.99-3.51c.79.58,1.69,1.05,2.7,1.43s1.92.56,2.73.56c.95,0,1.78-.2,2.49-.6s1.05-1.06,1.05-1.97c0-1.18-1.11-2.2-3.32-3.07-1.3-.52-2.39-1.01-3.26-1.49-.87-.48-1.62-1.16-2.25-2.05s-.95-2.01-.95-3.35c0-1.97.64-3.55,1.94-4.75s3.02-1.86,5.17-1.96c1.7,0,3.11.19,4.25.57,1.14.38,2.24.93,3.32,1.63l-1.71,3.45c-1.99-1.09-3.72-1.65-5.18-1.65h0Z"/><path class="cls-1" d="m110.56,19.14v18.95h10.99v4.47h-15.61v-23.39h4.63v-.03Z"/><path class="cls-1" d="m125.85,24.92c1.06-1.83,2.51-3.31,4.37-4.4,1.83-1.09,3.82-1.64,5.98-1.64s4.11.55,5.98,1.64c1.83,1.09,3.31,2.57,4.4,4.4,1.09,1.83,1.64,3.82,1.64,5.94s-.55,4.14-1.64,5.98c-1.09,1.83-2.54,3.28-4.4,4.34-1.83,1.06-3.82,1.61-5.98,1.61s-4.14-.55-5.98-1.61c-1.83-1.06-3.28-2.51-4.34-4.34-1.06-1.83-1.61-3.82-1.61-5.98s.55-4.11,1.61-5.94h-.03Zm4.14,9.7c.64,1.16,1.54,2.06,2.63,2.73,1.12.67,2.35,1,3.69,1s2.51-.32,3.6-1c1.09-.67,1.93-1.57,2.54-2.7s.93-2.38.93-3.76-.32-2.67-.96-3.82c-.64-1.16-1.51-2.06-2.6-2.73-1.09-.67-2.31-1-3.63-1s-2.54.32-3.63,1-1.96,1.57-2.6,2.73c-.64,1.16-.96,2.41-.96,3.82s.32,2.6.96,3.76l.03-.03Z"/><path class="cls-1" d="m159.94,23.12c-1.03,0-1.8.19-2.38.61-.58.42-.84,1-.84,1.8,0,.74.42,1.38,1.22,1.96.8.55,1.9,1.09,3.24,1.61,1.09.42,2.06.87,2.83,1.38s1.45,1.22,1.96,2.15c.51.9.77,2.06.77,3.47,0,1.22-.32,2.31-.93,3.34s-1.54,1.83-2.76,2.44c-1.22.61-2.63.9-4.34.9-1.41,0-2.79-.19-4.18-.61-1.38-.42-2.67-1.03-3.85-1.9l2.02-3.6c.8.58,1.73,1.09,2.76,1.48,1.03.39,1.96.58,2.79.58.96,0,1.83-.19,2.54-.61.71-.42,1.09-1.09,1.09-2.02,0-1.22-1.12-2.25-3.41-3.15-1.35-.51-2.44-1.03-3.34-1.54-.9-.48-1.67-1.19-2.31-2.09-.64-.9-.96-2.06-.96-3.44,0-2.02.67-3.63,1.99-4.85,1.32-1.22,3.08-1.9,5.3-1.99,1.73,0,3.18.19,4.37.58,1.16.39,2.31.96,3.41,1.67l-1.73,3.53c-2.02-1.12-3.79-1.67-5.3-1.67l.03-.03Z"/></svg>