<svg id="Capa_1" data-name="Capa 1" xmlns="http://www.w3.org/2000/svg" viewBox="0 0 303.43 125"><defs><style>.cls-1,.cls-2{fill:#221f20;}.cls-2,.cls-3,.cls-4,.cls-5{fill-rule:evenodd;}.cls-3{fill:#da4a47;}.cls-4{fill:#2f3c8a;}.cls-5{fill:#e99c52;}</style></defs><path class="cls-1" d="M106.23,91.12c-.93.22-2.24.58-3.94,1.14a31.52,31.52,0,0,0,.23,5.6c0,.07.12.36.29.85a2.58,2.58,0,0,1,.26.94c0,.89-.36,1.33-1.08,1.33q-1.36,0-1.36-5.6a23.16,23.16,0,0,1,.16-2.65,1,1,0,0,0-.9-.59,9.53,9.53,0,0,0-1.25.19,10.38,10.38,0,0,1-1.24.2,1.49,1.49,0,0,1-1.07-.46,1.4,1.4,0,0,1-.47-1,1.36,1.36,0,0,1,.39-.87,1,1,0,0,1,.72-.46,4.68,4.68,0,0,1,1,.2,4.33,4.33,0,0,0,1,.21,2.92,2.92,0,0,0,1.56-.23c.17-.16.26-.64.26-1.48V82.62a15,15,0,0,1,.26-2.7c.27-1.61.69-2.43,1.25-2.43s.91.57,1.13,1.69a25,25,0,0,1-.57,2.72c-.38,1.63-.57,2.52-.57,2.68v5a7.27,7.27,0,0,0,1.91.47l2,.32Z"/><path class="cls-1" d="M117.38,90.85a6.13,6.13,0,0,1-1.66,4.33,5.3,5.3,0,0,1-4,1.8c-2.13,0-3.2-1.33-3.2-3.93a8.67,8.67,0,0,1,1.36-4.47q1.59-2.65,3.73-2.66a3.27,3.27,0,0,1,3,1.84,6.26,6.26,0,0,1,.81,3.09m-1.89-.7a1.59,1.59,0,0,0-1.81-1.79c-1.07,0-2,.78-2.76,2.38a5.69,5.69,0,0,0-.73,3.4,2.51,2.51,0,0,0,1.61.81,3.13,3.13,0,0,0,2.72-1.63,5.56,5.56,0,0,0,1-3.17"/><path class="cls-1" d="M131.73,94.25c0,1.68-.45,2.5-1.33,2.5-.52,0-.85-.5-1-1.52a9,9,0,0,0-.63-2.77,3.29,3.29,0,0,0-3.18-1.52,2.51,2.51,0,0,0-2.34,1.44,5,5,0,0,0-.47,2.26,3.08,3.08,0,0,0,1.54,2.85A10.55,10.55,0,0,0,128,98.55a2.94,2.94,0,0,1,1.37-.11,3.68,3.68,0,0,1,1.41.19v.67a5.77,5.77,0,0,1-1.3.55,4.49,4.49,0,0,1-1.25.32,9.64,9.64,0,0,1-1-.1,8.64,8.64,0,0,0-1-.11,5.32,5.32,0,0,1-3.77-1.64,5.63,5.63,0,0,1-1.8-4.18,5.51,5.51,0,0,1,1.38-3.51,4,4,0,0,1,3.16-1.71,5.65,5.65,0,0,1,2.73.6,1.21,1.21,0,0,0,.49-1,4.82,4.82,0,0,0-.1-.73,3.86,3.86,0,0,1-.09-.71V82a1.18,1.18,0,0,1,.76-.48,1.3,1.3,0,0,1,1.27.91,32.27,32.27,0,0,0,.11,7,12.89,12.89,0,0,0,.79,2.39,6.55,6.55,0,0,1,.52,2.46"/><path class="cls-1" d="M143,90.85a6.1,6.1,0,0,1-1.67,4.33,5.32,5.32,0,0,1-4,1.8c-2.13,0-3.21-1.33-3.21-3.93a8.59,8.59,0,0,1,1.37-4.47q1.59-2.65,3.73-2.66a3.29,3.29,0,0,1,3,1.84,6.36,6.36,0,0,1,.81,3.09m-1.91-.7a1.58,1.58,0,0,0-1.81-1.79c-1.07,0-2,.78-2.75,2.38a5.69,5.69,0,0,0-.73,3.4,2.49,2.49,0,0,0,1.61.81,3.13,3.13,0,0,0,2.72-1.63,5.63,5.63,0,0,0,1-3.17"/><path class="cls-1" d="M166.68,91.47c0,2.28-1.21,4.34-3.66,6.22a10.07,10.07,0,0,1-1.84.9,23.51,23.51,0,0,0-2.45,1.13,19.31,19.31,0,0,0,.15,3.13c.14,1.67.21,2.75.21,3.25a4.17,4.17,0,0,1-.21,1.49H158c-.34-.11-.6-1.15-.78-3.14-.07-1.56-.16-3.13-.25-4.73-.72-.8-1.07-1.32-1.07-1.56a2.16,2.16,0,0,1,.5-1.06,2.86,2.86,0,0,0,.43-1.84c-.1-2.15-.17-4.38-.17-6.68.65-.12,1.82-.45,3.52-1a23.5,23.5,0,0,1,2.44-.66c2.72,0,4.07,1.51,4.07,4.52M165,91a1.65,1.65,0,0,0-.64-1.24,2.41,2.41,0,0,0-1.64-.57c-2.79,0-4.19,1.85-4.19,5.52a4.86,4.86,0,0,0,.48,2.71,9.41,9.41,0,0,0,4.15-2.61A5.63,5.63,0,0,0,165,91"/><path class="cls-1" d="M183.26,95.46a1.5,1.5,0,0,1-.37.94,1.84,1.84,0,0,1-1.06.74,16.29,16.29,0,0,1-1.67-3.45c-.84-2.08-1.29-3.19-1.36-3.35l-3.19,4.26A4.75,4.75,0,0,1,172,96.36a2.51,2.51,0,0,1-1.37-.47,1.55,1.55,0,0,1-.81-1.25q0-1.92,5.32-7.91A2.75,2.75,0,0,1,176.4,86c.64-.16,1-.26,1.06-.29a2.17,2.17,0,0,0,.46-.52c.24-.3.44-.44.62-.44a3.41,3.41,0,0,1,1.21.66,15.47,15.47,0,0,0,.15,1.84c.29,1.18.81,2.77,1.51,4.81a12.08,12.08,0,0,0,1.08,2,5.18,5.18,0,0,1,.77,1.45m-5.69-7.54c0-.26-.22-.4-.66-.4a20.29,20.29,0,0,0-2.63,2.71c-1.34,1.59-2,2.68-2,3.24v.67h1c.74,0,1.68-1,2.82-2.86a10.16,10.16,0,0,0,1.48-3.36"/><path class="cls-1" d="M193.58,88.31a6.78,6.78,0,0,0-2.91,2,7.13,7.13,0,0,0-2,3.19,27.52,27.52,0,0,0-.48,3,.67.67,0,0,1-.77.66c-.8,0-1.42-1.14-1.88-3.45a22.61,22.61,0,0,1-.49-4.25c0-.28.35-.79,1-1.52.68.49,1.07.88,1.16,1.17a8.44,8.44,0,0,1,0,1.33l.15.31a22.55,22.55,0,0,0,2.3-2.27c1.11-1.14,2-1.72,2.6-1.72.26,0,.67.29,1.21.85Z"/><path class="cls-1" d="M209.55,95.46a1.52,1.52,0,0,1-.38.94,1.81,1.81,0,0,1-1.06.74,16.29,16.29,0,0,1-1.67-3.45c-.84-2.08-1.3-3.19-1.37-3.35-1.06,1.43-2.11,2.85-3.18,4.26a4.76,4.76,0,0,1-3.62,1.76,2.54,2.54,0,0,1-1.37-.47,1.52,1.52,0,0,1-.81-1.25q0-1.92,5.32-7.91a2.83,2.83,0,0,1,1.26-.78c.64-.16,1-.26,1.08-.29a2.52,2.52,0,0,0,.45-.52c.24-.3.45-.44.61-.44a3.26,3.26,0,0,1,1.22.66,15.47,15.47,0,0,0,.15,1.84c.29,1.18.8,2.77,1.52,4.81a11.11,11.11,0,0,0,1.07,2,5.37,5.37,0,0,1,.78,1.45m-5.69-7.54c0-.26-.23-.4-.67-.4a20.19,20.19,0,0,0-2.64,2.71c-1.33,1.59-2,2.68-2,3.24v.67h1c.74,0,1.68-1,2.81-2.86a10,10,0,0,0,1.49-3.36"/><path class="cls-1" d="M233.17,86.82a1.15,1.15,0,0,1-.59.86,1.74,1.74,0,0,1-1,.44s-.42-.24-1.18-.71l-1.18-.71a5.88,5.88,0,0,0-3,1.5c-1.4,1.07-2.11,2-2.11,2.82,0,1.67,1.47,3,4.41,3.89a16,16,0,0,0,4.5.86v.94a2.58,2.58,0,0,1-1.39.43,13.72,13.72,0,0,1-5.22-1.25c-2.9-1.23-4.37-2.9-4.37-5,0-1.34,1.06-2.72,3.15-4.16,1.9-1.33,3.41-2,4.55-2a5,5,0,0,1,1.95.55c1,.44,1.51,1,1.51,1.57"/><path class="cls-1" d="M243.56,88.31a6.69,6.69,0,0,0-2.92,2,7,7,0,0,0-2,3.19,23.26,23.26,0,0,0-.49,3,.67.67,0,0,1-.77.66c-.79,0-1.41-1.14-1.88-3.45a22.61,22.61,0,0,1-.49-4.25c0-.28.35-.79,1-1.52.68.49,1.07.88,1.16,1.17a7.8,7.8,0,0,1,.05,1.33l.15.31a21.91,21.91,0,0,0,2.29-2.27c1.12-1.14,2-1.72,2.59-1.72.27,0,.67.29,1.23.85Z"/><path class="cls-1" d="M256.08,97c0,.9-.79,1.63-2.29,2.17a9.11,9.11,0,0,1-3.07.59,4.63,4.63,0,0,1-2.47-.74,4.25,4.25,0,0,1-2-3.17,20.4,20.4,0,0,0-.11-3.16.76.76,0,0,0-.25-.45.71.71,0,0,1-.22-.49,1.16,1.16,0,0,1,.33-.86,5.51,5.51,0,0,0,.74-.91c.32-.79.63-1.59,1-2.38.24-.57.83-.85,1.72-.85a4.28,4.28,0,0,1,3.12,1.83A5.17,5.17,0,0,1,254,91.63a2.43,2.43,0,0,1-.43,1.22c-.29.47-.56.7-.86.7a4.68,4.68,0,0,1-.9-.4,6.3,6.3,0,0,0-2.72-.42c-.63,0-1,.12-1.1.37a2.6,2.6,0,0,0-.05.84,5.85,5.85,0,0,0,.6,2.58,2.45,2.45,0,0,0,2.26,1.64A16.79,16.79,0,0,0,255.27,97Zm-4.51-6.34c-.74-1.14-1.3-1.73-1.71-1.73a1.3,1.3,0,0,0-.84.53c-.32.36-.48.61-.48.77,0,.31.08.48.23.51a5.53,5.53,0,0,0,2.8-.08"/><path class="cls-1" d="M271,95.46a1.56,1.56,0,0,1-.37.94,1.88,1.88,0,0,1-1.08.74,17.34,17.34,0,0,1-1.67-3.45c-.83-2.08-1.28-3.19-1.36-3.35-1.05,1.43-2.12,2.85-3.17,4.26a4.81,4.81,0,0,1-3.63,1.76,2.48,2.48,0,0,1-1.37-.47,1.52,1.52,0,0,1-.81-1.25q0-1.92,5.32-7.91a2.7,2.7,0,0,1,1.25-.78c.65-.16,1-.26,1.08-.29a2.43,2.43,0,0,0,.46-.52.9.9,0,0,1,.61-.44,3.18,3.18,0,0,1,1.21.66,15.9,15.9,0,0,0,.16,1.84c.29,1.18.81,2.77,1.51,4.81a12.08,12.08,0,0,0,1.08,2,5.73,5.73,0,0,1,.78,1.45m-5.7-7.54c0-.26-.23-.4-.67-.4A20.39,20.39,0,0,0,262,90.23c-1.35,1.59-2,2.68-2,3.24v.67h1c.74,0,1.68-1,2.82-2.86a10.27,10.27,0,0,0,1.47-3.36"/><path class="cls-1" d="M281.33,88.31a6.86,6.86,0,0,0-2.92,2,7.07,7.07,0,0,0-2,3.19,23.42,23.42,0,0,0-.48,3,.7.7,0,0,1-.79.66c-.78,0-1.41-1.14-1.87-3.45a21,21,0,0,1-.48-4.25c0-.28.34-.79,1-1.52q1,.73,1.17,1.17a10.11,10.11,0,0,1,0,1.33l.15.31a21.44,21.44,0,0,0,2.3-2.27c1.11-1.14,2-1.72,2.58-1.72.29,0,.69.29,1.23.85Z"/><path class="cls-2" d="M286.49,34.79h1.33a2,2,0,0,0,1.3-.31,1,1,0,0,0,.36-.8,1.12,1.12,0,0,0-.17-.57,1,1,0,0,0-.48-.37,3.21,3.21,0,0,0-1.1-.14h-1.24Zm-1.12,4.08V31.63h2.35a5.62,5.62,0,0,1,1.75.2,1.72,1.72,0,0,1,.86.7,1.85,1.85,0,0,1,.32,1A1.94,1.94,0,0,1,290.1,35a2,2,0,0,1-1.41.66,1.72,1.72,0,0,1,.58.38,8.33,8.33,0,0,1,1,1.44l.82,1.42h-1.34l-.6-1.14A6.48,6.48,0,0,0,288,36a1.42,1.42,0,0,0-.88-.24h-.64v3.08Zm2.79-9.33a5.34,5.34,0,0,0-4.6,2.8,6,6,0,0,0-.71,2.81,5.79,5.79,0,0,0,.71,2.79,5.19,5.19,0,0,0,9.2,0,5.88,5.88,0,0,0,0-5.6,4.89,4.89,0,0,0-2-2.07,5,5,0,0,0-2.6-.73m0-1.11a6.16,6.16,0,0,1,3.13.86,6,6,0,0,1,2.37,2.49,7,7,0,0,1,.86,3.37,7.1,7.1,0,0,1-.84,3.34,6.12,6.12,0,0,1-2.36,2.5,6.25,6.25,0,0,1-3.16.89A6.34,6.34,0,0,1,285,41a6.08,6.08,0,0,1-2.34-2.5,7,7,0,0,1-.85-3.34,7.11,7.11,0,0,1,.85-3.37,6.3,6.3,0,0,1,5.51-3.35m-135,12h9.67V46.9a13.5,13.5,0,0,1,6.21-5.9,9.12,9.12,0,0,1,5-1c2.46,0,4.11.28,5.54,1.22a14.59,14.59,0,0,1,4.22,5c1.86-2.15,4.11-4.58,5.64-5.34A12.28,12.28,0,0,1,195,40c3.32,0,6,.78,7.85,2.89s2.81,5.37,2.81,9.83V73.44H195.14V54.66c0-3.84-2.73-5-5.13-5-3.22,0-5.34,5-5.34,7.42V73.44H174.11V55.28c0-1.46-.61-5.71-4.37-5.71-4.34,0-6.07,4.23-6.07,8V73.44H153.18Zm-6.68,32.9h-9.86V67.57a20.56,20.56,0,0,1-5.45,5.3,12.53,12.53,0,0,1-6.16,1.3,10.86,10.86,0,0,1-8.09-3.25,14,14,0,0,1-3.32-9.52v-21h10.45V58.55c0,3.06,2,6,5.4,6,2.52,0,6.12-1.11,6.12-8.3V40.43H146.5ZM95.11,26.46h10.46v47H95.11ZM248.44,41.15h9.8v5.9c1.6-2.16,3.22-4.31,4.86-5.23a11.85,11.85,0,0,1,6-1.4c4.47,0,12.07,2.32,12.07,12.53V73.53H270.82V55.73a6.61,6.61,0,0,0-1.54-4.3,4,4,0,0,0-3.09-1.51c-3.14,0-4.12.67-5.23,2.23A9.26,9.26,0,0,0,259,58V73.53H248.44ZM233.67,54.58q-.37-3.84-2-5.48a5.48,5.48,0,0,0-4.18-1.65,5.59,5.59,0,0,0-4.77,2.48,9.35,9.35,0,0,0-1.45,4.65Zm9.33,6H221.62a6.88,6.88,0,0,0,1.48,3.93c1,1.41,5.62,3.14,11.93,2A22.34,22.34,0,0,0,240,64.68l.16,7.81a29.69,29.69,0,0,1-13.31,2.1c-5.17-.37-16-4.18-16-17.05,0-8.45,5.69-17.14,15.72-17.14,4,0,7.13.69,9.44,2.11a13.34,13.34,0,0,1,5.25,6.16A25.7,25.7,0,0,1,243,59.18Z"/><path class="cls-3" d="M29.14,29.24a14.81,14.81,0,0,1,1,4,22.76,22.76,0,0,1,.21,6.61,26.67,26.67,0,0,1-4.18,12A38.06,38.06,0,0,1,14,63.2a68.22,68.22,0,0,1-8.08,4.2c-.68.36-.82,2.07-.82,2.07a3.43,3.43,0,0,0,1.13,2.31A7.19,7.19,0,0,0,10,73.3a54.09,54.09,0,0,0,9.15.36,23.13,23.13,0,0,0,8.32-1.74A24,24,0,0,0,39,60.92a23.06,23.06,0,0,0,2.49-9.73c0-4.44-1.6-7.22-2.25-8.95a33.74,33.74,0,0,0-4.9-7.76c-1.87-2.17-4.14-4.41-4.57-4.82a2.39,2.39,0,0,0-.6-.42"/><path class="cls-4" d="M82.52,64.75s-1.23,1.52-4.82,2.56a29.39,29.39,0,0,1-12.46,1.2,25.4,25.4,0,0,1-12.32-6.18,19,19,0,0,1-5.06-10.4,36.2,36.2,0,0,1,.65-12.16c.65-2.76,3.43-7.53,4.66-9.2A84.48,84.48,0,0,1,59,23.3a11.93,11.93,0,0,1,4.14-2.79,5.49,5.49,0,0,1,2.43-.21,3.55,3.55,0,0,1,1.58,1.58A6.07,6.07,0,0,1,68,25.72a12.34,12.34,0,0,1-2.09,5.58c-1.4,2.27-3.21,4.56-4.24,8.33a16.71,16.71,0,0,0-.35,7.67c.21,1,2,5.36,3.16,6.44a31.94,31.94,0,0,0,8.24,6.38c4.44,2.32,9.27,4.34,9.27,4.34Z"/><path class="cls-5" d="M16.47,94.11c.38-.6,1.21-2.1,1.66-2.87s3.63-5.86,5.79-8.69a40.57,40.57,0,0,1,6.89-7.4A20.62,20.62,0,0,1,37,71.59,31.56,31.56,0,0,1,46.43,69a20.6,20.6,0,0,1,9.75.82A16.27,16.27,0,0,1,62.68,74a20,20,0,0,1,3.45,5.19,45.88,45.88,0,0,1,3.34,8.76,24.3,24.3,0,0,1,.42,10.91c-.23,1.31-.9,4.17-3.83,4.35s-5-4.88-5-4.88A18.53,18.53,0,0,1,60,96c-.49-1.37-1.59-4.42-2.11-5.46s-2.9-5.69-8.17-6.81a24.62,24.62,0,0,0-11.4.73,38.38,38.38,0,0,0-5.18,1.73,56.94,56.94,0,0,0-8.57,5.48c-2.53,2-3.51,2.87-3.86,3.12a2.22,2.22,0,0,1-.87.43c-.4.12-1,.35-1.48.45s-1.57.29-1.94-.1-.36-.82,0-1.42"/></svg>