<?xml version="1.0" encoding="UTF-8"?><svg id="a" xmlns="http://www.w3.org/2000/svg" viewBox="0 0 282.09 125"><rect x="106.47" y="28.88" width="9.46" height="9.46" transform="translate(8.82 88.5) rotate(-45.01)" style="fill:#7ab956; stroke-width:0px;"/><rect x="119.86" y="15.5" width="9.46" height="9.46" transform="translate(22.17 94) rotate(-44.99)" style="fill:#8b6eab; stroke-width:0px;"/><rect x="133.24" y="2.12" width="9.46" height="9.46" transform="translate(35.57 99.57) rotate(-45)" style="fill:#7ab956; stroke-width:0px;"/><rect x="113.16" y="35.57" width="9.46" height="9.46" transform="translate(6.04 95.19) rotate(-45.01)" style="fill:#f1bb4b; stroke-width:0px;"/><rect x="126.55" y="22.19" width="9.46" height="9.46" transform="translate(19.41 100.71) rotate(-45)" style="fill:#cfdf92; stroke-width:0px;"/><rect x="119.86" y="42.26" width="9.46" height="9.46" transform="translate(3.25 101.83) rotate(-44.99)" style="fill:#0096d2; stroke-width:0px;"/><rect x="133.24" y="28.88" width="9.46" height="9.46" transform="translate(16.66 107.43) rotate(-45.01)" style="fill:#e68f4b; stroke-width:0px;"/><rect x="139.93" y="22.19" width="9.46" height="9.46" transform="translate(23.33 110.17) rotate(-45)" style="fill:#edbcd3; stroke-width:0px;"/><rect x="146.62" y="15.5" width="9.46" height="9.46" transform="translate(29.97 112.88) rotate(-44.97)" style="fill:#4bbcee; stroke-width:0px;"/><rect x="126.55" y="48.95" width="9.46" height="9.46" transform="translate(.49 108.56) rotate(-45)" style="fill:#edbcd3; stroke-width:0px;"/><rect x="133.24" y="55.65" width="9.46" height="9.46" transform="translate(-2.29 115.24) rotate(-45)" style="fill:#d83650; stroke-width:0px;"/><rect x="139.93" y="48.95" width="9.46" height="9.46" transform="translate(4.41 118.02) rotate(-45)" style="fill:#2aad9b; stroke-width:0px;"/><rect x="146.62" y="42.26" width="9.46" height="9.46" transform="translate(11.08 120.75) rotate(-44.98)" style="fill:#cfdf92; stroke-width:0px;"/><rect x="153.31" y="35.57" width="9.46" height="9.46" transform="translate(17.81 123.59) rotate(-45.01)" style="fill:#a93e8f; stroke-width:0px;"/><rect x="160" y="28.88" width="9.46" height="9.46" transform="translate(24.51 126.36) rotate(-45.01)" style="fill:#e68f4b; stroke-width:0px;"/><polygon points="5.32 79.94 9.13 79.94 9.13 99.17 18.53 99.17 18.53 102.2 5.32 102.2 5.32 79.94" style="fill:#221f20; stroke-width:0px;"/><path d="M22.13,93.24v-13.3h3.77v12.86c0,4.77,1.77,6.67,5.85,6.67,3.85,0,5.59-2.25,5.59-6.28v-13.26h3.46v12.95c0,5.94-2.99,9.7-9.18,9.7-6.54,0-9.48-3.68-9.48-9.35Z" style="fill:#221f20; stroke-width:0px;"/><polygon points="45.48 79.94 49.54 79.94 54.7 88 59.59 79.94 63.36 79.94 56.52 90.77 64.05 102.2 60.03 102.2 54.31 93.33 48.76 102.2 45 102.2 52.49 90.6 45.48 79.94" style="fill:#221f20; stroke-width:0px;"/><path d="M68.25,93.24v-13.3h3.77v12.86c0,4.77,1.78,6.67,5.85,6.67,3.86,0,5.59-2.25,5.59-6.28v-13.26h3.46v12.95c0,5.94-2.99,9.7-9.18,9.7-6.54,0-9.49-3.68-9.49-9.35Z" style="fill:#221f20; stroke-width:0px;"/><path d="M93.51,79.94h6.97c5.19,0,8.18,2.13,8.18,6.15,0,3.81-2.77,5.5-6.1,5.84v.09c.47.35,1.25,1.17,2.64,3.03l5.28,7.14h-4.29l-4.5-6.36c-2.16-3.08-2.73-3.34-4.07-3.34h-.39v9.7h-3.72v-22.26ZM100.39,89.73c3.12,0,4.46-1.17,4.46-3.47s-1.47-3.42-4.68-3.42h-2.94v6.88h3.16Z" style="fill:#221f20; stroke-width:0px;"/><polygon points="119.32 93.76 111.48 79.94 115.55 79.94 121.27 90.51 121.36 90.51 126.99 79.94 130.63 79.94 123.05 93.76 123.05 102.2 119.32 102.2 119.32 93.76" style="fill:#221f20; stroke-width:0px;"/><path d="M141.81,102.2h-3.68l8.97-22.26h3.63l9.05,22.26h-3.9l-1.86-4.85h-10.4l-1.82,4.85ZM150.21,87.52c-.73-1.95-1.38-3.99-1.38-4.03h-.09s-.69,2.17-1.38,4.03l-2.55,6.8h8.06l-2.65-6.8Z" style="fill:#221f20; stroke-width:0px;"/><path d="M160.12,79.94h3.94l5.63,14.6c.65,1.65,1.3,3.77,1.3,3.81h.09s.65-2.12,1.3-3.81l5.41-14.6h3.6l-8.62,22.26h-3.63l-9.01-22.26Z" style="fill:#221f20; stroke-width:0px;"/><polygon points="185.29 79.94 198.89 79.94 198.89 82.98 189.01 82.98 189.01 89.08 197.8 89.08 197.8 92.03 189.01 92.03 189.01 99.17 199.11 99.17 199.11 102.2 185.29 102.2 185.29 79.94" style="fill:#221f20; stroke-width:0px;"/><path d="M204.69,79.94h3.76l9.83,13.48c1.3,1.77,2.25,3.64,2.3,3.68h.08s-.18-1.73-.18-3.42v-13.73h3.38v22.26h-3.38l-10.44-14.28c-1.08-1.48-1.99-3.25-1.99-3.29h-.05s.13,1.47.13,2.86v14.72h-3.46v-22.26Z" style="fill:#221f20; stroke-width:0px;"/><path d="M230.37,93.24v-13.3h3.77v12.86c0,4.77,1.77,6.67,5.85,6.67,3.85,0,5.59-2.25,5.59-6.28v-13.26h3.47v12.95c0,5.94-2.99,9.7-9.19,9.7-6.54,0-9.48-3.68-9.48-9.35Z" style="fill:#221f20; stroke-width:0px;"/><polygon points="255.62 79.94 269.22 79.94 269.22 82.98 259.35 82.98 259.35 89.08 268.14 89.08 268.14 92.03 259.35 92.03 259.35 99.17 269.44 99.17 269.44 102.2 255.62 102.2 255.62 79.94" style="fill:#221f20; stroke-width:0px;"/><path d="M274.68,102.61s0,0,0,0,0,0,0,0h0ZM272.51,100.45s0,0,0,0,0,0,0,0h0ZM276.57,99.36c-.19-.34-.47-.62-.81-.81h0c-.33-.18-.69-.28-1.07-.28h0c-.37,0-.74.1-1.07.28-.34.18-.63.46-.81.8-.19.33-.29.71-.29,1.09,0,.38.1.75.28,1.08.19.34.47.62.81.81h0c.33.18.7.29,1.08.29.38,0,.75-.1,1.08-.28.34-.18.62-.46.81-.8.19-.33.29-.7.29-1.08h0c0-.38-.1-.76-.29-1.09ZM276.49,100.45c0,.31-.08.62-.24.9h0c-.16.28-.39.51-.67.67-.28.15-.59.24-.9.24,0,0,0,0,0,0h0s0,0,0,0c-.32,0-.62-.08-.9-.24-.28-.16-.51-.39-.67-.67-.16-.27-.24-.58-.24-.89,0,0,0,0,0,0h0s0,0,0,0c0-.32.09-.63.24-.91.16-.28.4-.52.68-.67.27-.15.58-.23.89-.24h0c.31,0,.62.08.89.24.29.15.52.39.68.67.16.28.24.59.24.91h0Z" style="fill:#221f20; fill-rule:evenodd; stroke-width:0px;"/><path d="M275.41,101.18l-.08-.12h0c-.08-.12-.17-.24-.27-.34h0c-.06-.06-.12-.1-.19-.13h0c.18-.01.35-.08.48-.21.12-.12.19-.28.19-.45,0-.12-.04-.24-.11-.34-.07-.11-.18-.18-.3-.22h0s-.06-.02-.09-.03c-.17-.03-.34-.04-.51-.04h-.81v2.34h.38v-.99h.22s.08,0,.13.01c.06,0,.12.03.18.07.04.03.07.06.1.1.11.14.21.29.29.44l.21.37h.46l-.29-.46ZM274.57,100.33h-.46v-.71h.43c.09,0,.18,0,.27.02h0s.08.01.12.03h0c.07.02.12.07.16.12.04.06.06.12.06.19,0,.1-.04.2-.12.26-.04.03-.08.05-.12.06h0c-.1.03-.21.04-.32.03Z" style="fill:#221f20; fill-rule:evenodd; stroke-width:0px;"/><path d="M87.07,121.4h-2.87v-9.64h2.91c1.8,0,3.26.62,3.26,2.4,0,1.2-.67,1.9-1.72,2.17v.03c1.17.19,2.13.99,2.13,2.35,0,1.97-1.52,2.69-3.71,2.69ZM86.95,113.04h-1.14v2.75h1.12c1.26,0,1.81-.45,1.81-1.42s-.61-1.33-1.78-1.33ZM87.1,117.02h-1.29v3.08h1.2c1.4,0,2.1-.43,2.1-1.49s-.56-1.59-2.01-1.59Z" style="fill:#221f20; stroke-width:0px;"/><path d="M97.12,121.57c-3.11,0-4.89-2.36-4.89-4.98s1.74-5.01,4.85-5.01,4.88,2.35,4.88,4.97-1.72,5.02-4.84,5.02ZM97.12,112.91c-2.1,0-3.17,1.66-3.17,3.63s1.04,3.69,3.13,3.69,3.16-1.69,3.16-3.65-1.01-3.68-3.11-3.68Z" style="fill:#221f20; stroke-width:0px;"/><path d="M107.7,121.57c-2.72,0-3.94-1.45-3.94-3.85v-5.96h1.64v5.8c0,1.8.7,2.65,2.34,2.65s2.26-.98,2.26-2.49v-5.96h1.52v5.83c0,2.51-1.25,3.98-3.82,3.98Z" style="fill:#221f20; stroke-width:0px;"/><path d="M117.37,113.12v8.28h-1.65v-8.28h-2.69v-1.36h7.02v1.36h-2.68Z" style="fill:#221f20; stroke-width:0px;"/><path d="M121.67,121.4v-9.64h1.64v9.64h-1.64Z" style="fill:#221f20; stroke-width:0px;"/><path d="M133.67,122.6c.55,0,.97-.26,1.16-.41l.55,1.11c-.29.25-.91.54-1.77.54-1.39,0-2.52-.54-3.91-2.3-2.75-.28-4.3-2.5-4.3-4.95,0-2.63,1.74-5.01,4.85-5.01s4.88,2.35,4.88,4.97c0,2.26-1.27,4.34-3.59,4.88.62.83,1.17,1.17,2.13,1.17ZM130.29,112.91c-2.1,0-3.17,1.66-3.17,3.63s1.04,3.69,3.13,3.69,3.16-1.69,3.16-3.65-1.01-3.68-3.11-3.68Z" style="fill:#221f20; stroke-width:0px;"/><path d="M140.88,121.57c-2.72,0-3.94-1.45-3.94-3.85v-5.96h1.64v5.8c0,1.8.69,2.65,2.35,2.65,1.56,0,2.26-.98,2.26-2.49v-5.96h1.52v5.83c0,2.51-1.25,3.98-3.82,3.98Z" style="fill:#221f20; stroke-width:0px;"/><path d="M147.24,121.4v-9.64h5.29v1.36h-3.66v2.57h3.23v1.3h-3.23v3.04h3.77v1.36h-5.39Z" style="fill:#221f20; stroke-width:0px;"/><path d="M161.82,121.4l-1.95-5.59c-.23-.65-.41-1.26-.43-1.36h-.03c0,.1-.04.75-.13,1.4l-.68,5.54h-1.49l1.32-9.64h1.58l2.14,6.22c.26.77.52,1.65.54,1.71h.03c.01-.06.27-.94.55-1.71l2.17-6.22h1.58l1.32,9.64h-1.67l-.71-5.57c-.09-.67-.14-1.27-.16-1.38h-.03c-.03.1-.2.71-.42,1.36l-1.93,5.59h-1.59Z" style="fill:#221f20; stroke-width:0px;"/><path d="M170.88,121.4h-1.64l3.68-9.64h1.58l3.75,9.64h-1.78l-.75-2.07h-4.08l-.75,2.07ZM174.23,115.24c-.29-.81-.39-1.16-.55-1.66h-.03c-.16.52-.26.87-.55,1.66l-1,2.75h3.13l-1-2.75Z" style="fill:#221f20; stroke-width:0px;"/><path d="M179.79,121.4v-9.64h1.64v8.31h3.68v1.33h-5.31Z" style="fill:#221f20; stroke-width:0px;"/><path d="M186.95,121.4v-9.64h1.63v8.31h3.68v1.33h-5.31Z" style="fill:#221f20; stroke-width:0px;"/></svg>