<svg id="Capa_1" data-name="Capa 1" xmlns="http://www.w3.org/2000/svg" viewBox="0 0 284.02 125"><defs><style>.cls-1,.cls-2{fill:#00814d;}.cls-1{fill-rule:evenodd;}</style></defs><path class="cls-1" d="M96.44,40.62l6.13,10.79H90.51Zm-10,19.77h20.23l3.26,5.7h12.66l-18-35.26H88.07L70.3,66.09H83.15Zm-66-16.92V66.09H8.15V30.83H29L38.6,48l10-17.12h20V66.09H56.37V44.29L43.7,66.09H33.27Zm129.9,13.28h0c3.07,0,2.71-3.36.06-3.36l-16.81-1.23c-14.91-1.71-12-21.29,0-21.29h30.25V40H138.17a1.58,1.58,0,1,0,0,3.16l15.27,1.09c14.5,1.26,15.53,21.84,0,21.84h-28V56.75Zm99.34-16.13,6.13,10.79h-12Zm-10,19.77h20.23l3.27,5.7h12.66l-18-35.26H241.29L223.51,66.09h12.88Zm-30.38-3.62h0c3.07,0,2.7-3.38.06-3.38l-16.81-1.21c-14.91-1.73-12-21.31,0-21.31h30.24V40H197.12a1.59,1.59,0,1,0-.05,3.17l15.27,1.07c14.5,1.27,15.52,21.86,0,21.86h-28V56.77Zm-41.68,9.32h12.25V30.83H167.59Z"/><path class="cls-2" d="M13.87,91.7c-.66,0-.95-.27-.95-.93V77.16H9.29c-.68,0-.95-.29-.95-.94v-.29c0-.67.27-1,.95-1h10.1c.66,0,.92.28.92,1v.29c0,.65-.26.94-.92.94H15.83V90.77c0,.66-.29.93-.94.93Z"/><path class="cls-2" d="M23.48,80.35a.84.84,0,0,1,1-1h.86c.67,0,.95.29.95,1v6.81a2.24,2.24,0,0,0,2.48,2.51,9.18,9.18,0,0,0,2.57-.38V80.35c0-.67.27-1,.92-1h.89c.64,0,1,.29,1,1v9.83a1.1,1.1,0,0,1-.93,1.16,19.25,19.25,0,0,1-4.52.61c-3.63,0-5.13-1.74-5.13-4.52Z"/><path class="cls-2" d="M67.72,90.77c0,.66-.29.93-1,.93H65.9c-.65,0-.94-.27-.94-.93v-6.6c0-1.66-.69-2.72-2.33-2.72a5.13,5.13,0,0,0-2.42.76v8.56c0,.66-.3.93-1,.93h-.88c-.65,0-.95-.27-.95-.93v-7.6c-.07-1-.8-1.72-2.32-1.72a6.8,6.8,0,0,0-2.44.55v8.77c0,.66-.28.93-.93.93h-.88c-.65,0-1-.27-1-.93V81.45a1.27,1.27,0,0,1,.93-1.33,11.55,11.55,0,0,1,4.53-1,5.87,5.87,0,0,1,3.44.86,11.43,11.43,0,0,1,4.08-.86c3.39,0,4.85,1.86,4.85,4.74Z"/><path class="cls-2" d="M74.32,80.35c0-.67.3-1,.94-1h.86c.68,0,1,.29,1,1v6.81a2.24,2.24,0,0,0,2.48,2.51,9.1,9.1,0,0,0,2.56-.38V80.35c0-.67.28-1,.92-1h.89c.65,0,.95.29.95,1v9.83A1.1,1.1,0,0,1,84,91.34a19.26,19.26,0,0,1-4.53.61c-3.62,0-5.1-1.74-5.1-4.52Z"/><path class="cls-2" d="M102.17,90.77c0,.66-.28.93-.94.93h-.88c-.64,0-.94-.27-.94-.93v-6.7c0-1.6-.72-2.62-2.41-2.62a8.31,8.31,0,0,0-2.75.55v8.77c0,.66-.27.93-.93.93h-.88c-.65,0-1-.27-1-.93V81.45a1.42,1.42,0,0,1,.92-1.36,12.86,12.86,0,0,1,4.83-.92c3.47,0,4.93,1.76,4.93,4.51Z"/><path class="cls-2" d="M116.74,79.89V75.53c0-.68.3-1,1-1h.85c.68,0,1,.29,1,1v14.8c0,.66-.09,1-1,1.13a21.56,21.56,0,0,1-4.08.46c-3.61,0-6-1.5-6-6.18v-.29c0-4,1.62-6.28,5.2-6.28a6.75,6.75,0,0,1,3.11.72m-5.41,5.82c0,2.85,1.12,4.09,3.24,4.09a8.83,8.83,0,0,0,2.17-.31V82a4.8,4.8,0,0,0-2.32-.57c-2.14,0-3.09,1.44-3.09,4Z"/><path class="cls-2" d="M125.74,85.35c0-4.1,2.06-6.19,5.88-6.19s5.89,2.09,5.89,6.19v.39c0,4.08-2.09,6.21-5.89,6.21s-5.88-2.13-5.88-6.21Zm8.85,0c0-2.64-1-4.07-3-4.07s-3,1.43-3,4v.36c0,2.61,1,4.09,3,4.09s3-1.5,3-4.09Z"/><path class="cls-2" d="M144.16,94.17c-.64,0-.88-.27-.73-.93l.85-3.83a1.06,1.06,0,0,1,1.16-.9h1.09c.68,0,.86.24.62.87l-1.24,3.88a1.2,1.2,0,0,1-1.28.91Z"/><path class="cls-2" d="M162.84,81.48h-.47c-.64,0-.93-.26-.93-1v-.18c0-.68.29-1,.93-1h.47V77.7c0-.67.3-.94,1-.94h.84c.67,0,1,.27,1,.94v1.69h1.63c.67,0,1,.28,1,1v.18c0,.69-.29,1-1,1H165.6v6.33c0,1,.42,1.76,1.51,1.76a3.18,3.18,0,0,0,.83-.09c.4-.07.58.32.58.9v.33c0,.6-.18.83-.76.88a3.69,3.69,0,0,1-.93.11c-2.81,0-4-1.16-4-3.87Z"/><path class="cls-2" d="M174,80.35c0-.67.3-1,1-1h.87c.67,0,.94.29.94,1v6.81a2.24,2.24,0,0,0,2.49,2.51,8.91,8.91,0,0,0,2.55-.38V80.35c0-.67.28-1,.93-1h.9c.64,0,.94.29.94,1v9.83a1.1,1.1,0,0,1-.93,1.16,19.1,19.1,0,0,1-4.53.61c-3.61,0-5.11-1.74-5.11-4.52Z"/><path class="cls-2" d="M211.08,90.49c.12.64-.09,1-.7,1.1a18.63,18.63,0,0,1-3.71.36c-4.31,0-6.6-1.8-6.6-6.21v-.39c0-4,1.83-6.19,5.53-6.19s5.48,1.83,5.51,6v.3c0,.67-.28,1-.93,1H203c.17,2.47,1.29,3.34,4,3.34a16.35,16.35,0,0,0,3.06-.28c.61-.06.85.17.94.68ZM203,84.63h5.51c-.05-2.16-.92-3.33-2.7-3.33s-2.67,1.12-2.81,3.33"/><path class="cls-2" d="M226,80.61c-.07.91-.23,1-.79.91a10.61,10.61,0,0,0-2.39-.22c-1.61,0-2.91.22-2.91,1.28,0,2.34,6.58.7,6.58,5.58,0,3-2.79,3.81-5.18,3.81a26.87,26.87,0,0,1-3.45-.29c-.76-.09-.9-.25-.9-1v-.13c0-1,.38-1,1-1a20.11,20.11,0,0,0,3,.24c2,0,2.68-.66,2.68-1.6,0-3-6.57-1.18-6.57-5.67,0-2.87,2.51-3.39,5.23-3.39a17.28,17.28,0,0,1,3,.25c.58.11.78.22.69,1Z"/><path class="cls-2" d="M233.1,81.48h-.47c-.64,0-.92-.26-.92-1v-.18c0-.68.28-1,.92-1h.47V77.7c0-.67.29-.94,1-.94h.84c.68,0,1,.27,1,.94v1.69h1.63c.67,0,1,.28,1,1v.18c0,.69-.29,1-1,1h-1.63v6.33c0,1,.42,1.76,1.51,1.76a3.3,3.3,0,0,0,.84-.09c.39-.07.58.32.58.9v.33c0,.6-.19.83-.78.88a3.51,3.51,0,0,1-.92.11c-2.81,0-4-1.16-4-3.87Z"/><path class="cls-2" d="M245.28,77.8c-.68,0-.95-.31-.95-1V75.77c0-.66.27-1,.95-1h1c.67,0,.95.29.95,1v1.08c0,.64-.28,1-.95,1ZM249,90.33c.09.64,0,1-.6,1.2a4.06,4.06,0,0,1-1.32.17c-1.65,0-2.69-.6-2.69-3.29V80.35c0-.67.28-1,.94-1h.87c.67,0,.95.29.95,1V88.4c0,.85.2,1.17.74,1.17a4.78,4.78,0,0,0,.58-.08c.26-.06.42.18.49.71Z"/><path class="cls-2" d="M259.26,90.59c.06.68-.11.82-.69.94a5.24,5.24,0,0,1-1.37.17c-1.65,0-2.6-.75-2.6-3.29v-13c0-.67.28-1,.93-1h.89c.64,0,.95.28.95,1v13c0,.85.18,1.17.74,1.17.17,0,.49-.08.61-.08.36,0,.51.3.52.72Z"/><path class="cls-2" d="M264.08,85.35c0-4.1,2.07-6.19,5.89-6.19s5.9,2.09,5.9,6.19v.39c0,4.08-2.1,6.21-5.9,6.21s-5.89-2.13-5.89-6.21Zm8.86,0c0-2.64-1-4.07-3-4.07s-3,1.43-3,4v.36c0,2.61,1,4.09,3,4.09s3-1.5,3-4.09Z"/></svg>