<svg id="Capa_1" data-name="Capa 1" xmlns="http://www.w3.org/2000/svg" viewBox="0 0 357.68 125"><defs><style>.cls-1{fill:#c5661d;}.cls-2{fill:#532f7d;}</style></defs><path class="cls-1" d="M347.72,48.72a7.26,7.26,0,0,0-9.82,3,9.3,9.3,0,0,1-5.17,4.21L322.59,36.65c-2.85-5.4-10.13-8.59-15.53-5.75a11.06,11.06,0,0,0-4.62,14.93L314.93,69.5H304.07a10.43,10.43,0,0,0-19-8.38l-9.41,17.73a10.44,10.44,0,0,0,18.44,9.78l1-1.95H324l1.17,2.21a11,11,0,1,0,19.54-10.31l-5.16-9.79a23.27,23.27,0,0,0,11.16-10.25,7.25,7.25,0,0,0-3-9.82"/><path class="cls-2" d="M59.5,51.5h-10v-10a11.16,11.16,0,0,0-22.31,0v10h-10a11.15,11.15,0,1,0,0,22.3h10v10a11.16,11.16,0,0,0,22.31,0v-10h10a11.15,11.15,0,1,0,0-22.3"/><path class="cls-1" d="M281.32,39.63a9.29,9.29,0,0,0-9.29-9.3H229.69a9.3,9.3,0,0,0,0,18.59h10v34.9a11.15,11.15,0,1,0,22.3,0V48.92h10a9.29,9.29,0,0,0,9.29-9.29"/><path class="cls-1" d="M143.1,33.18a11.15,11.15,0,0,0-15.75.86L109.59,53.83V41.48a11.15,11.15,0,0,0-22.3,0V83.82a11.15,11.15,0,0,0,22.3,0v-12l17.82,19.55a11.15,11.15,0,1,0,16.48-15L131.55,62.76,144,48.93a11.15,11.15,0,0,0-.85-15.75"/><path class="cls-1" d="M184.93,29.43A33.07,33.07,0,1,0,218,62.5a33.11,33.11,0,0,0-33.08-33.07m0,46.65A13.58,13.58,0,1,1,198.52,62.5a13.6,13.6,0,0,1-13.59,13.58"/><path class="cls-1" d="M343.91,32.08a3.88,3.88,0,0,1,.87-1.27,4.19,4.19,0,0,1,1.29-.85,4.09,4.09,0,0,1,1.56-.3,4,4,0,0,1,2.84,1.15,3.88,3.88,0,0,1,.87,1.27,3.75,3.75,0,0,1,.32,1.58,3.84,3.84,0,0,1-.32,1.6,3.93,3.93,0,0,1-.87,1.28,3.85,3.85,0,0,1-1.28.84,4,4,0,0,1-1.56.3,4.09,4.09,0,0,1-1.56-.3,4,4,0,0,1-1.29-.84,3.93,3.93,0,0,1-.87-1.28,3.85,3.85,0,0,1-.33-1.6A3.76,3.76,0,0,1,343.91,32.08Zm.66,2.94a3.36,3.36,0,0,0,.69,1.1,3.26,3.26,0,0,0,1.06.72,3.16,3.16,0,0,0,1.31.26,3.11,3.11,0,0,0,1.3-.26,3.22,3.22,0,0,0,1.05-.72,3.39,3.39,0,0,0,.7-1.1,3.8,3.8,0,0,0,0-2.71,3.26,3.26,0,0,0-1.75-1.8,3.28,3.28,0,0,0-1.3-.26,3.33,3.33,0,0,0-1.31.26,3.43,3.43,0,0,0-1.06.72,3.38,3.38,0,0,0-.69,1.08,3.66,3.66,0,0,0,0,2.71Zm3.31-3.7a1.87,1.87,0,0,1,1.24.34,1.23,1.23,0,0,1,.4,1,1.14,1.14,0,0,1-.35.93,1.69,1.69,0,0,1-.88.35L349.63,36h-.78l-1.28-2h-.77v2h-.73v-4.7Zm-.32,2.09.47,0a1.24,1.24,0,0,0,.39-.09.67.67,0,0,0,.27-.23.78.78,0,0,0,.1-.44.68.68,0,0,0-.09-.37.69.69,0,0,0-.23-.22,1.13,1.13,0,0,0-.34-.1,2.31,2.31,0,0,0-.37,0h-1v1.5Z"/></svg>