<?xml version="1.0" encoding="UTF-8"?><svg id="a" xmlns="http://www.w3.org/2000/svg" viewBox="0 0 193.44 125"><g><path d="M59.15,48.83c-.26-6.67-.35-14.46-.35-23.54h-.26c-1.82,7.7-4.24,16.45-6.14,22.85l-5.8,20.34h-12.2l-4.85-20.25c-1.56-6.32-3.29-14.98-4.67-22.94h-.17c-.35,8.22-.61,16.88-.87,23.54l-.95,20.86H8.51L12.15,11.35h21.03l3.81,15.67c1.64,6.49,3.38,14.28,4.59,21.38h.26c1.64-7.1,3.55-15.32,5.28-21.47l4.42-15.58h20.52l2.94,58.34h-15.15l-.69-20.86Z" style="fill:#0c4750;"/><path d="M84.6,11.35h15.49v24.76h.17c1.21-2.16,2.51-4.33,3.72-6.41l11.25-18.35h19.22l-18.52,24.84,19.22,33.5h-18.09l-12.29-23.63-4.67,5.97v17.66h-15.49V11.35Z" style="fill:#0c4750;"/><path d="M140.52,12.21c4.24-.69,10.39-1.3,19.22-1.3s14.46,1.56,18.52,4.67c3.98,2.94,6.67,8.05,6.67,14.02s-1.99,10.99-5.71,14.37c-4.67,4.15-11.51,6.06-19.39,6.06-1.56,0-2.86-.17-3.81-.17v19.82h-15.49V12.21Zm15.49,25.71c.87,.09,1.91,.17,3.55,.17,6.06,0,9.87-3.12,9.87-8.14,0-4.33-2.86-7.27-8.83-7.27-2.25,0-3.81,.17-4.59,.35v14.89Z" style="fill:#0c4750;"/></g><g><path d="M9.25,98.86c.9-.16,2.7-.32,4.44-.32,2.09,0,3.38,.2,4.5,.86,1.06,.56,1.8,1.6,1.8,3s-.79,2.57-2.5,3.22v.04c1.73,.45,3.02,1.78,3.02,3.72,0,1.4-.63,2.48-1.58,3.24-1.1,.88-2.95,1.37-5.97,1.37-1.69,0-2.95-.11-3.72-.23v-14.91Zm3.4,5.81h1.13c1.83,0,2.77-.74,2.77-1.87s-.88-1.76-2.43-1.76c-.77,0-1.19,.05-1.47,.09v3.54Zm0,6.74c.34,.04,.74,.04,1.33,.04,1.55,0,2.93-.61,2.93-2.21,0-1.51-1.37-2.12-3.09-2.12h-1.17v4.28Z" style="fill:#cd5234;"/><path d="M26.28,98.65v8.72c0,2.63,1.01,3.97,2.75,3.97s2.79-1.26,2.79-3.97v-8.72h3.42v8.52c0,4.68-2.37,6.92-6.33,6.92s-6.06-2.14-6.06-6.96v-8.47h3.43Z" style="fill:#cd5234;"/><path d="M38.34,110.3c.9,.47,2.34,.95,3.81,.95,1.58,0,2.41-.65,2.41-1.64s-.72-1.49-2.54-2.12c-2.52-.9-4.19-2.3-4.19-4.5,0-2.59,2.19-4.55,5.74-4.55,1.74,0,2.98,.34,3.88,.77l-.77,2.75c-.59-.29-1.69-.72-3.15-.72s-2.21,.7-2.21,1.47c0,.97,.83,1.4,2.82,2.14,2.68,.99,3.92,2.39,3.92,4.53,0,2.55-1.94,4.71-6.1,4.71-1.73,0-3.45-.47-4.3-.95l.7-2.82Z" style="fill:#cd5234;"/><path d="M53.84,98.65v15.18h-3.42v-15.18h3.42Z" style="fill:#cd5234;"/><path d="M56.81,113.84v-15.18h4.01l3.15,5.56c.9,1.6,1.78,3.49,2.48,5.2h.04c-.2-2-.27-4.06-.27-6.35v-4.42h3.15v15.18h-3.6l-3.24-5.86c-.9-1.62-1.92-3.58-2.64-5.36h-.09c.11,2.03,.16,4.17,.16,6.65v4.57h-3.15Z" style="fill:#cd5234;"/><path d="M81.4,107.42h-5.59v3.6h6.24v2.82h-9.66v-15.18h9.35v2.82h-5.93v3.15h5.59v2.79Z" style="fill:#cd5234;"/><path d="M84.51,110.3c.9,.47,2.34,.95,3.81,.95,1.58,0,2.41-.65,2.41-1.64s-.72-1.49-2.54-2.12c-2.52-.9-4.19-2.3-4.19-4.5,0-2.59,2.19-4.55,5.74-4.55,1.74,0,2.98,.34,3.88,.77l-.77,2.75c-.59-.29-1.69-.72-3.15-.72s-2.21,.7-2.21,1.47c0,.97,.83,1.4,2.82,2.14,2.68,.99,3.92,2.39,3.92,4.53,0,2.55-1.94,4.71-6.1,4.71-1.73,0-3.45-.47-4.3-.95l.7-2.82Z" style="fill:#cd5234;"/><path d="M96.67,110.3c.9,.47,2.34,.95,3.81,.95,1.58,0,2.41-.65,2.41-1.64s-.72-1.49-2.54-2.12c-2.52-.9-4.19-2.3-4.19-4.5,0-2.59,2.19-4.55,5.74-4.55,1.74,0,2.98,.34,3.88,.77l-.77,2.75c-.59-.29-1.69-.72-3.15-.72s-2.21,.7-2.21,1.47c0,.97,.83,1.4,2.82,2.14,2.68,.99,3.92,2.39,3.92,4.53,0,2.55-1.94,4.71-6.1,4.71-1.73,0-3.45-.47-4.3-.95l.7-2.82Z" style="fill:#cd5234;"/><path d="M125.96,113.14c-1.06,.36-3.06,.86-5.07,.86-2.77,0-4.78-.7-6.17-2.03-1.37-1.33-2.14-3.31-2.14-5.54,.02-5.05,3.69-7.93,8.67-7.93,1.96,0,3.47,.38,4.21,.72l-.72,2.77c-.83-.38-1.85-.65-3.51-.65-2.86,0-5.05,1.6-5.05,4.91s1.98,4.98,4.8,4.98c.77,0,1.4-.09,1.67-.2v-3.2h-2.34v-2.68h5.65v8Z" style="fill:#cd5234;"/><path d="M128.64,98.86c1.1-.18,2.73-.32,4.57-.32,2.25,0,3.83,.34,4.91,1.19,.92,.72,1.42,1.8,1.42,3.2,0,1.92-1.37,3.24-2.68,3.72v.07c1.06,.43,1.65,1.42,2.03,2.82,.47,1.73,.92,3.72,1.22,4.3h-3.51c-.23-.45-.61-1.67-1.04-3.54-.43-1.92-1.08-2.41-2.5-2.43h-1.01v5.97h-3.4v-14.98Zm3.4,6.53h1.35c1.71,0,2.73-.86,2.73-2.19s-.95-2.09-2.52-2.09c-.83,0-1.31,.04-1.55,.11v4.17Z" style="fill:#cd5234;"/><path d="M155.82,106.09c0,5-3,8-7.46,8s-7.14-3.4-7.14-7.75,2.93-7.95,7.39-7.95,7.21,3.49,7.21,7.7Zm-10.97,.18c0,3,1.4,5.09,3.7,5.09s3.65-2.21,3.65-5.16c0-2.75-1.28-5.09-3.65-5.09s-3.7,2.21-3.7,5.16Z" style="fill:#cd5234;"/><path d="M161.5,98.65v8.72c0,2.63,1.01,3.97,2.75,3.97s2.79-1.26,2.79-3.97v-8.72h3.43v8.52c0,4.68-2.37,6.92-6.33,6.92s-6.06-2.14-6.06-6.96v-8.47h3.43Z" style="fill:#cd5234;"/><path d="M173.44,98.86c1.06-.18,2.55-.32,4.64-.32s3.63,.41,4.64,1.22c.99,.77,1.62,2.03,1.62,3.51s-.47,2.77-1.4,3.6c-1.17,1.08-2.91,1.6-4.93,1.6-.45,0-.86-.02-1.17-.09v5.45h-3.4v-14.98Zm3.4,6.89c.29,.07,.63,.09,1.15,.09,1.82,0,2.95-.92,2.95-2.46,0-1.4-.97-2.23-2.7-2.23-.68,0-1.15,.04-1.4,.11v4.48Z" style="fill:#cd5234;"/></g><g><path d="M96.44,80.76c-33.48-6.62-85.27-6.81-87.5-6.81l-.02,5.4c.55,0,55,.2,87.6,7v-5.64s-.07,.04-.09,.06Z" style="fill:#26796f;"/><path d="M96.61,80.76c33.48-6.62,85.27-6.81,87.5-6.81l.02,5.4c-.55,0-55,.2-87.6,7v-5.64s.07,.04,.09,.06Z" style="fill:#26796f;"/><rect x="8.92" y="84.94" width="175.21" height="7.3" style="fill:#0c4750;"/></g></svg>