<?xml version="1.0" encoding="UTF-8"?><svg id="a" xmlns="http://www.w3.org/2000/svg" viewBox="0 0 403.13 125"><g><path d="M296.92,29.41c1.79-.31,5.35-.62,8.79-.62,4.15,0,6.69,.4,8.92,1.69,2.1,1.11,3.57,3.17,3.57,5.93s-1.56,5.09-4.95,6.38v.09c3.44,.89,5.98,3.52,5.98,7.36,0,2.76-1.25,4.91-3.12,6.42-2.19,1.74-5.84,2.72-11.82,2.72-3.34,0-5.84-.22-7.36-.45V29.41Zm6.74,11.51h2.23c3.61,0,5.49-1.47,5.49-3.7s-1.74-3.48-4.82-3.48c-1.52,0-2.37,.09-2.9,.18v7Zm0,13.34c.67,.09,1.47,.09,2.63,.09,3.08,0,5.8-1.2,5.8-4.37,0-2.99-2.72-4.19-6.11-4.19h-2.32v8.48Z" style="fill:#0c4750;"/><path d="M345.46,47.93c0,7.99-5.67,11.65-11.51,11.65-6.38,0-11.29-4.19-11.29-11.24s4.64-11.6,11.69-11.6c6.65,0,11.11,4.59,11.11,11.2Zm-15.79,.22c0,3.75,1.56,6.56,4.46,6.56,2.68,0,4.33-2.63,4.33-6.6,0-3.21-1.25-6.51-4.33-6.51s-4.46,3.35-4.46,6.56Z" style="fill:#0c4750;"/><path d="M371.34,47.93c0,7.99-5.67,11.65-11.51,11.65-6.38,0-11.29-4.19-11.29-11.24s4.64-11.6,11.69-11.6c6.65,0,11.11,4.59,11.11,11.2Zm-15.79,.22c0,3.75,1.56,6.56,4.46,6.56,2.68,0,4.33-2.63,4.33-6.6,0-3.21-1.25-6.51-4.33-6.51s-4.46,3.35-4.46,6.56Z" style="fill:#0c4750;"/><path d="M382.32,46.46h.09c.49-.94,1.03-1.83,1.56-2.63l4.42-6.56h8.16l-7.81,8.83,8.92,12.98h-8.34l-5.31-8.97-1.7,2.14v6.83h-6.78V27.41h6.78v19.05Z" style="fill:#0c4750;"/><path d="M318.96,96.3c-1.21,.58-4.06,1.29-7.67,1.29-10.39,0-15.75-6.51-15.75-15.08,0-10.26,7.32-15.93,16.42-15.93,3.52,0,6.2,.67,7.41,1.34l-1.43,5.35c-1.34-.58-3.26-1.12-5.71-1.12-5.35,0-9.55,3.26-9.55,9.95,0,6.02,3.57,9.82,9.59,9.82,2.1,0,4.33-.4,5.71-.98l.98,5.35Z" style="fill:#0c4750;"/><path d="M327.57,65.43h6.78v31.67h-6.78v-31.67Z" style="fill:#0c4750;"/><path d="M364.87,90.1c0,2.86,.09,5.17,.18,7h-5.89l-.31-3.08h-.13c-.85,1.34-2.9,3.57-6.83,3.57-4.46,0-7.67-2.77-7.67-9.5v-12.8h6.78v11.73c0,3.17,1.03,5.09,3.44,5.09,1.87,0,2.99-1.29,3.39-2.36,.18-.4,.27-.89,.27-1.47v-12.98h6.78v14.81Z" style="fill:#0c4750;"/><path d="M374.78,65.43h6.78v12.45h.09c1.29-1.87,3.57-3.08,6.6-3.08,5.22,0,9.01,4.33,8.97,11.02,0,7.85-4.95,11.78-9.95,11.78-2.54,0-5.04-.94-6.56-3.52h-.09l-.27,3.03h-5.76c.09-1.43,.18-4.06,.18-6.51v-25.16Zm6.78,22.4c0,.45,.04,.85,.14,1.21,.45,1.78,2.01,3.21,3.97,3.21,2.9,0,4.69-2.23,4.69-6.16,0-3.39-1.52-6.07-4.69-6.07-1.83,0-3.52,1.38-3.97,3.35-.09,.4-.14,.8-.14,1.25v3.21Z" style="fill:#0c4750;"/></g><g><path d="M240.26,30.61l.61,64.48c0,.93-1.06,1.66-2.3,1.54l-2.93-.24c-.98-.09-1.96-.15-2.95-.18-1.98-.08-3.98-.06-5.96,.05-.94,.04-1.89,.13-2.83,.23l-2.92,.28c-1.24,.14-2.32-.57-2.33-1.5l-.61-64.48c-.01-1.52,1.65-2.77,3.68-2.79l14.82-.11c2.04-.02,3.71,1.21,3.73,2.73Z" style="fill:#0c4750;"/><rect x="223.65" y="34.55" width="11.75" height="2.14" style="fill:#fff;"/><rect x="223.65" y="79.41" width="11.75" height="2.14" style="fill:#fff;"/></g><g><path d="M264.83,30.61l.61,64.48c0,.93-1.06,1.66-2.3,1.54l-2.93-.24c-.98-.09-1.96-.15-2.95-.18-1.98-.08-3.98-.06-5.96,.05-.94,.04-1.89,.13-2.83,.23l-2.92,.28c-1.24,.14-2.32-.57-2.33-1.5l-.61-64.48c-.01-1.52,1.65-2.77,3.68-2.79l14.82-.11c2.04-.02,3.71,1.21,3.73,2.73Z" style="fill:#0c4750;"/><rect x="248.22" y="34.55" width="11.75" height="2.14" style="fill:#fff;"/><rect x="248.22" y="79.41" width="11.75" height="2.14" style="fill:#fff;"/></g><g><path d="M289.4,30.61l.61,64.48c0,.93-1.06,1.66-2.3,1.54l-2.93-.24c-.98-.09-1.96-.15-2.95-.18-1.98-.08-3.98-.06-5.96,.05-.94,.04-1.89,.13-2.83,.23l-2.92,.28c-1.24,.14-2.32-.57-2.33-1.5l-.61-64.48c-.01-1.52,1.65-2.77,3.68-2.79l14.82-.11c2.04-.02,3.71,1.21,3.73,2.73Z" style="fill:#cd5234;"/><rect x="272.79" y="34.55" width="11.75" height="2.14" style="fill:#fff;"/><rect x="272.79" y="79.41" width="11.75" height="2.14" style="fill:#fff;"/></g><g><path d="M65.44,72.39c-.3-7.8-.41-16.92-.41-27.56h-.3c-2.13,9.02-4.97,19.25-7.19,26.75l-6.79,23.81h-14.29l-5.67-23.71c-1.82-7.4-3.85-17.53-5.47-26.85h-.2c-.41,9.63-.71,19.76-1.01,27.56l-1.11,24.42H6.16L10.41,28.51h24.62l4.46,18.34c1.92,7.6,3.95,16.72,5.37,25.03h.3c1.92-8.31,4.15-17.94,6.18-25.13l5.17-18.24h24.02l3.45,68.3h-17.73l-.81-24.42Z" style="fill:#cd5234;"/><path d="M95.22,28.51h18.14v28.98h.2c1.42-2.53,2.94-5.07,4.36-7.5l13.17-21.48h22.49l-21.68,29.08,22.5,39.22h-21.18l-14.39-27.66-5.47,6.99v20.67h-18.14V28.51Z" style="fill:#cd5234;"/><path d="M160.68,29.53c4.97-.81,12.16-1.52,22.5-1.52s16.92,1.82,21.68,5.47c4.66,3.45,7.8,9.42,7.8,16.42s-2.33,12.87-6.69,16.82c-5.47,4.86-13.48,7.09-22.7,7.09-1.82,0-3.34-.2-4.46-.2v23.2h-18.14V29.53Zm18.14,30.1c1.01,.1,2.23,.2,4.15,.2,7.09,0,11.55-3.65,11.55-9.52,0-5.07-3.34-8.51-10.33-8.51-2.64,0-4.46,.2-5.37,.41v17.43Z" style="fill:#cd5234;"/></g></svg>