<svg id="Capa_1" data-name="Capa 1" xmlns="http://www.w3.org/2000/svg" xmlns:xlink="http://www.w3.org/1999/xlink" viewBox="0 0 418.06 125"><defs><style>.cls-1{fill:none;}.cls-2{clip-path:url(#clip-path);}.cls-3{fill:#221f20;}.cls-4{fill:#818284;}.cls-5{clip-path:url(#clip-path-2);}.cls-6{fill:url(#Degradado_sin_nombre_2);}.cls-7{fill:#fff;}</style><clipPath id="clip-path"><rect class="cls-1" x="6.37" y="13.69" width="405.49" height="95.76"/></clipPath><clipPath id="clip-path-2"><path class="cls-1" d="M102.48,65.71a19,19,0,1,0,19-19,19,19,0,0,0-19,19"/></clipPath><radialGradient id="Degradado_sin_nombre_2" cx="-460.18" cy="441.72" r="1.09" gradientTransform="matrix(17.09, 0, 0, -17.09, 7988.26, 7612.06)" gradientUnits="userSpaceOnUse"><stop offset="0" stop-color="#fff"/><stop offset="0.19" stop-color="#f5dede"/><stop offset="0.61" stop-color="#dd8a8b"/><stop offset="1" stop-color="#c53739"/></radialGradient></defs><g class="cls-2"><path class="cls-3" d="M63.2,45.94c.16-.86.46-1.33.87-1.33s.71.26,1.37,1.58L79.35,74.87l13.86-29c.4-.82.66-1.23,1.12-1.23s.77.52.91,1.58l4.63,31.42c.47,3.21,1,4.67,2.5,5.14a10.08,10.08,0,0,0,3.16.5c.45,0,.82.06.82.36s-.62.55-1.33.55c-1.27,0-8.3-.14-10.34-.29-1.17-.11-1.47-.26-1.47-.56s.19-.41.56-.56.46-.76.25-2.19L91,58.19h-.21L79.65,81.27c-1.17,2.39-1.42,2.85-1.88,2.85s-1-1-1.78-2.55C74.76,79.24,70.74,71.46,70.12,70c-.45-1.06-3.51-7.48-5.29-11.29h-.2L62,79a20.37,20.37,0,0,0-.16,2.38c0,1,.67,1.43,1.54,1.63a9.29,9.29,0,0,0,2.13.25c.41,0,.76.11.76.36,0,.46-.45.55-1.21.55-2.14,0-4.44-.14-5.35-.14s-3.42.14-5,.14c-.51,0-.91-.09-.91-.55,0-.25.3-.36.82-.36a6.62,6.62,0,0,0,1.52-.15c1.43-.3,1.83-2.28,2.09-4Z"/><path class="cls-3" d="M191.18,54.13l-6.68.15c-2.59,0-3.66.35-4.32,1.32a5.24,5.24,0,0,0-.76,1.47c-.11.35-.2.56-.52.56s-.4-.26-.4-.71c0-.71.87-4.89,1-5.24.1-.56.26-.81.51-.81s.81.35,1.93.51a43,43,0,0,0,4.47.2h18.19a20.2,20.2,0,0,0,3.06-.2c.71-.1,1.07-.2,1.23-.2s.35.25.35.91c0,.92-.11,4.12-.11,5.24-.06.46-.15.71-.4.71s-.46-.21-.51-.87l-.05-.45c-.11-1.12-1.27-2.44-5.29-2.49l-5.66-.1V71.61c0,4,.06,7.38.26,9.26.15,1.22.4,2,1.73,2.23a15.46,15.46,0,0,0,2.29.15c.51,0,.71.26.71.46s-.36.45-.87.45c-2.94,0-5.95-.14-7.22-.14-1,0-4.07.14-5.86.14-.56,0-.87-.14-.87-.45s.15-.46.71-.46a5.91,5.91,0,0,0,1.58-.15c.92-.2,1.18-1,1.33-2.28.2-1.83.2-5.25.2-9.21Z"/><path class="cls-3" d="M214.74,63.9c0-6.57,0-7.78-.05-9.16s-.51-1.93-1.94-2.33a7.75,7.75,0,0,0-1.79-.16c-.45,0-.75-.15-.75-.45s.35-.42,1-.42c2.33,0,5.19.11,6.47.11,1.43,0,11.37,0,12.22,0a19,19,0,0,0,1.89-.25,5.88,5.88,0,0,1,.71-.21c.26,0,.3.21.3.41a21.42,21.42,0,0,0-.35,2.79c-.05.47-.15,2.34-.26,2.85,0,.2-.14.72-.51.72s-.35-.21-.35-.56a3.9,3.9,0,0,0-.31-1.57c-.36-.77-.71-1.39-2.95-1.58-.76-.1-6.11-.21-7-.21-.2,0-.31.16-.31.4V65c0,.27,0,.47.31.47,1,0,6.83,0,7.85-.1s1.73-.21,2.13-.66.51-.56.71-.56.36.2.36.46-.1,1-.36,3.15c-.09.86-.2,2.59-.2,2.9s0,1-.46,1-.41-.16-.41-.37c0-.45,0-1-.14-1.57-.26-.87-.82-1.53-2.51-1.68-.81-.1-5.9-.2-7-.2-.21,0-.26.2-.26.45v3.46c0,1.48,0,5.14,0,6.42.11,2.94,1.48,3.6,6.07,3.6a12.31,12.31,0,0,0,4.22-.56c1.13-.51,1.64-1.43,1.94-3.2.1-.46.2-.66.51-.66s.4.55.4,1a27.65,27.65,0,0,1-.61,4.78c-.3,1.12-.7,1.12-2.39,1.12-3.35,0-6-.05-8.25-.15s-3.87-.1-5.2-.1c-.5,0-1.47,0-2.54,0s-2.19.09-3.1.09c-.57,0-.86-.14-.86-.45s.13-.46.7-.46a6.2,6.2,0,0,0,1.58-.15c.9-.2,1.17-1,1.32-2.28.21-1.83.21-5.25.21-9.21Z"/><path class="cls-3" d="M242.89,78.27c.1,3.36.66,4.37,1.53,4.68a7.42,7.42,0,0,0,2.34.3c.52,0,.76.21.76.46s-.41.45-1,.45c-2.92,0-5-.14-5.81-.14-.41,0-2.55.14-4.84.14-.61,0-1,0-1-.45,0-.25.3-.46.7-.46a8.77,8.77,0,0,0,2-.2c1.18-.3,1.32-1.48,1.38-5.23l.4-25.62c0-.87.31-1.48.76-1.48s1.18.66,1.94,1.42c.57.56,7.28,7.43,13.8,13.78,3.07,3,9,9.1,9.68,9.71h.21l-.45-19.22c-.06-2.64-.47-3.4-1.54-3.8a7.09,7.09,0,0,0-2.34-.27c-.56,0-.71-.2-.71-.45s.46-.41,1.11-.41c2.36,0,4.74.1,5.7.1.52,0,2.2-.1,4.4-.1.6,0,1,.05,1,.41s-.25.45-.77.45a4.44,4.44,0,0,0-1.38.16c-1.21.35-1.57,1.11-1.62,3.56l-.5,27.25c0,1-.36,1.37-.72,1.37a2.67,2.67,0,0,1-1.84-.92c-2.8-2.58-8.4-7.92-13.08-12.46-4.9-4.66-9.63-9.91-10.49-10.67h-.16Z"/><path class="cls-3" d="M148.26,78.27c.11,3.36.66,4.37,1.54,4.68a7.42,7.42,0,0,0,2.34.3c.51,0,.76.21.76.46s-.41.45-1,.45c-2.91,0-5-.14-5.8-.14-.42,0-2.55.14-4.84.14-.62,0-1,0-1-.45,0-.25.3-.46.71-.46a8.74,8.74,0,0,0,2-.2c1.18-.3,1.33-1.48,1.38-5.23l.41-25.62c0-.87.31-1.48.76-1.48s1.17.66,1.93,1.42c.58.56,7.29,7.43,13.8,13.78,3.07,3,9,9.1,9.69,9.71h.21l-.46-19.22c-.05-2.64-.46-3.4-1.54-3.8a7,7,0,0,0-2.33-.27c-.56,0-.72-.2-.72-.45s.46-.41,1.12-.41c2.35,0,4.74.1,5.7.1.52,0,2.2-.1,4.4-.1.6,0,1,.05,1,.41s-.25.45-.77.45a4.44,4.44,0,0,0-1.38.16c-1.21.35-1.57,1.11-1.62,3.56L174,83.31c0,1-.36,1.37-.71,1.37a2.67,2.67,0,0,1-1.84-.92c-2.8-2.58-8.4-7.92-13.09-12.46-4.89-4.66-9.63-9.91-10.49-10.67h-.16Z"/><path class="cls-3" d="M275.2,64c0-6.57,0-7.78-.05-9.16s-.52-1.92-1.94-2.33a7.72,7.72,0,0,0-1.78-.16c-.46,0-.76-.15-.76-.45s.36-.41,1-.41c2.34,0,5.19.1,6.46.1,1.43,0,11.36.05,12.23,0s1.53-.2,1.88-.25a5.88,5.88,0,0,1,.71-.21c.27,0,.32.21.32.41a18.53,18.53,0,0,0-.36,2.8c-.06.46-.16,2.33-.25,2.84-.07.2-.16.72-.52.72s-.36-.21-.36-.56a4.08,4.08,0,0,0-.3-1.57c-.35-.77-.72-1.39-2.95-1.58-.77-.1-6.12-.21-7-.21-.2,0-.3.16-.3.4V65c0,.27.05.47.3.47,1,0,6.83,0,7.85-.1s1.73-.21,2.14-.66.51-.56.72-.56.35.2.35.46-.1,1-.35,3.15c-.11.87-.21,2.59-.21,2.9s-.05,1-.46,1-.4-.16-.4-.37c-.06-.45-.06-1-.16-1.57-.26-.86-.83-1.53-2.5-1.68-.82-.1-5.91-.2-7-.2-.21,0-.26.2-.26.45v3.46c0,1.48-.06,5.14,0,6.42.1,2.94,1.48,3.6,6.06,3.6a12.07,12.07,0,0,0,4.23-.56c1.11-.51,1.64-1.43,1.93-3.2.1-.46.21-.66.5-.66s.42.55.42,1a27.9,27.9,0,0,1-.62,4.78c-.3,1.11-.7,1.11-2.38,1.11-3.37,0-6.07,0-8.26-.15s-3.86-.1-5.19-.1c-.51,0-1.47,0-2.54,0s-2.2.09-3.12.09c-.55,0-.86-.14-.86-.45s.15-.46.71-.46a6.2,6.2,0,0,0,1.58-.15c.93-.2,1.17-1,1.32-2.28.21-1.83.21-5.25.21-9.21Z"/><path class="cls-3" d="M327,81.27c0,1.17,0,1.21-.56,1.53-3,1.47-7.44,1.93-11,1.93-11,0-20.73-5-20.73-16.93a16,16,0,0,1,7.84-14.13c4.28-2.49,8.3-2.8,12.08-2.8a51.72,51.72,0,0,1,7.94.71,31.32,31.32,0,0,0,3.57.45c.51.06.61.21.61.52a59.71,59.71,0,0,0-.3,7.12c0,.65-.26,1-.62,1s-.41-.2-.45-.55a5.76,5.76,0,0,0-1.54-3.57c-1.32-1.37-4.69-3.3-9.72-3.3-2.45,0-5.56,0-8.67,2.55-2.48,2-4.13,5.23-4.13,10.51,0,9.3,6,16.07,15.6,16.07a7.26,7.26,0,0,0,3.15-.46,1.43,1.43,0,0,0,.87-1.53v-4c0-2.14,0-3.76,0-5.09s-.5-1.93-1.94-2.32a7.48,7.48,0,0,0-1.73-.16c-.41,0-.71-.21-.71-.46s.35-.41,1-.41c2.35,0,5.56.1,6.89.1s3.77-.1,5.24-.1c.61,0,.91,0,.91.41a.53.53,0,0,1-.56.46,5.67,5.67,0,0,0-1.22.16c-1.22.19-1.68.8-1.73,2.32-.05,1.33-.05,3.06-.05,5.19Z"/><path class="cls-3" d="M332.85,64c0-6.57,0-7.78,0-9.16s-.52-1.92-1.94-2.33a7.72,7.72,0,0,0-1.78-.16c-.46,0-.76-.14-.76-.45s.35-.41,1-.41c2.35,0,5.2.1,6.11.1,1.53,0,5.6-.1,7-.1,2.85,0,6.12.26,8.51,1.83a7.53,7.53,0,0,1,3.15,5.95c0,3.2-1.84,6.05-6.21,9.56,4,4.87,7.13,8.79,9.83,11.49,2.49,2.49,4.07,2.69,4.79,2.84a4.22,4.22,0,0,0,1.07.1.52.52,0,0,1,.56.46c0,.36-.31.45-.87.45H359c-2.51,0-3.71-.24-4.9-.85-1.93-1-3.61-3-6.1-6.36-1.79-2.34-3.68-5.24-4.23-5.9a1,1,0,0,0-.81-.3l-4-.11a.33.33,0,0,0-.36.36v.61c0,4,.05,7.38.26,9.21.15,1.27.34,2.08,1.73,2.28a15.55,15.55,0,0,0,2.2.15.51.51,0,0,1,.54.46c0,.31-.34.45-.91.45-2.6,0-6.32-.14-7-.14-.86,0-3.71.14-5.5.14-.56,0-.86-.14-.86-.45s.15-.46.71-.46a6.15,6.15,0,0,0,1.58-.15c.91-.2,1.17-1,1.32-2.28.2-1.83.2-5.25.2-9.21Zm5.71,3.35c0,.46.1.61.41.76a12.08,12.08,0,0,0,3.41.42c1.79,0,2.4-.16,3.17-.72,1.36-1,2.9-2.84,2.9-6.41,0-6.1-4.19-7.67-6.83-7.67a15.13,15.13,0,0,0-2.65.16c-.31.09-.41.25-.41.6Z"/><path class="cls-3" d="M357.57,67.8c0-7.37,5.19-16.94,18.8-16.94,11.31,0,18.33,6.27,18.33,16.17s-7.23,17.7-18.8,17.7c-13,0-18.33-9.25-18.33-16.93m30.45.81c0-9.55-5.74-15.46-13-15.46-5,0-10.87,2.66-10.87,13.33,0,8.9,5.1,15.9,13.55,15.9,3.17,0,10.29-1.46,10.29-13.77"/><path class="cls-4" d="M53.61,102.69c-12.91,3-41,5.92-38.74-14.15.75-6.68,4.86-12.92,8.86-18.25,6.08-8.07,13.82-15,21.85-21.28A156.31,156.31,0,0,1,75.74,30.76a158.87,158.87,0,0,1,37.65-12c7.49-1.49,14.79-2.25,21.15,1.14,9.17,4.87,2.82,24.33,2.82,24.33l7.2-1.84s5.89-20.28-4.36-25.11c-7.55-3.55-17.52-2.49-25.44-1a180.76,180.76,0,0,0-65.3,26.7C33.27,53.48,13.33,68.85,8.15,87.9c-1.78,6.53.18,12.78,6.43,16.28,9.43,5.27,23,2.7,32.87.4a55.63,55.63,0,0,0,6.16-1.89"/><polygon class="cls-3" points="62.35 96.97 58.8 96.97 58.8 95.7 67.44 95.7 67.44 96.97 63.87 96.97 63.87 107.24 62.35 107.24 62.35 96.97"/><polygon class="cls-3" points="80.45 101.83 75.94 101.83 75.94 105.99 80.99 105.99 80.99 107.24 74.41 107.24 74.41 95.7 80.73 95.7 80.73 96.95 75.94 96.95 75.94 100.6 80.45 100.6 80.45 101.83"/><path class="cls-3" d="M96.78,106.87a7.38,7.38,0,0,1-3.08.56c-3.3,0-5.75-2.06-5.75-5.86A5.76,5.76,0,0,1,94,95.51,6.19,6.19,0,0,1,96.8,96l-.37,1.21a5.48,5.48,0,0,0-2.34-.48c-2.73,0-4.55,1.73-4.55,4.76,0,2.84,1.64,4.64,4.46,4.64a6.15,6.15,0,0,0,2.48-.48Z"/><path class="cls-3" d="M104.37,107.24V95.7H106l3.72,5.84a31.56,31.56,0,0,1,2.08,3.74h0c-.14-1.54-.17-3-.17-4.73V95.7h1.41v11.54H111.6l-3.7-5.86a32,32,0,0,1-2.16-3.85l0,0c.08,1.45.1,2.84.1,4.75v4.94Z"/><path class="cls-3" d="M126,107.43c-3.1,0-5.24-2.37-5.24-5.86,0-3.66,2.28-6.06,5.4-6.06s5.26,2.41,5.26,5.84c0,4-2.44,6.08-5.4,6.08Zm.07-1.22c2.39,0,3.73-2.17,3.73-4.79,0-2.3-1.2-4.69-3.71-4.69s-3.76,2.31-3.76,4.81,1.35,4.67,3.72,4.67Z"/><polygon class="cls-3" points="139.05 95.7 140.57 95.7 140.57 105.99 145.55 105.99 145.55 107.24 139.05 107.24 139.05 95.7"/><path class="cls-3" d="M157.48,107.43c-3.1,0-5.24-2.37-5.24-5.86,0-3.66,2.28-6.06,5.4-6.06s5.26,2.41,5.26,5.84c0,4-2.45,6.08-5.41,6.08Zm.07-1.22c2.39,0,3.74-2.17,3.74-4.79,0-2.3-1.21-4.69-3.73-4.69s-3.75,2.31-3.75,4.81,1.35,4.67,3.72,4.67Z"/><path class="cls-3" d="M179.44,106.72a10.54,10.54,0,0,1-3.6.64,6.07,6.07,0,0,1-4.36-1.52,6,6,0,0,1-1.63-4.3c0-3.45,2.41-6,6.32-6a7.34,7.34,0,0,1,2.92.53l-.38,1.22a5.7,5.7,0,0,0-2.58-.5,4.33,4.33,0,0,0-4.68,4.64c0,2.93,1.76,4.66,4.5,4.66a4.72,4.72,0,0,0,2-.32v-3.44H175.6v-1.19h3.84Z"/><path class="cls-3" d="M190.72,93.07l-2.21,2h-1.23l1.63-2Zm-1.8,14.17h-1.51V95.7h1.51Z"/><path class="cls-3" d="M199.13,103.61l-1.21,3.63h-1.56l4-11.54h1.81l4,11.54h-1.61l-1.25-3.63Zm3.82-1.17-1.15-3.32c-.25-.75-.42-1.43-.59-2.1h-.06c-.15.67-.34,1.38-.57,2.08l-1.14,3.34Z"/><polygon class="cls-3" points="225.24 101.83 220.73 101.83 220.73 105.99 225.78 105.99 225.78 107.24 219.21 107.24 219.21 95.7 225.52 95.7 225.52 96.95 220.73 96.95 220.73 100.6 225.24 100.6 225.24 101.83"/><path class="cls-3" d="M233.43,107.24V95.7h1.66l3.72,5.84a31.56,31.56,0,0,1,2.08,3.74h.05c-.14-1.54-.17-3-.17-4.73V95.7h1.42v11.54h-1.52L237,101.38a33.39,33.39,0,0,1-2.16-3.85l-.05,0c.08,1.45.1,2.84.1,4.75v4.94Z"/><polygon class="cls-3" points="262.23 101.83 257.71 101.83 257.71 105.99 262.76 105.99 262.76 107.24 256.19 107.24 256.19 95.7 262.5 95.7 262.5 96.95 257.71 96.95 257.71 100.6 262.23 100.6 262.23 101.83"/><path class="cls-3" d="M270.4,95.86a21.59,21.59,0,0,1,3.21-.25A6.71,6.71,0,0,1,278.34,97a5.28,5.28,0,0,1,1.66,4.15,6.16,6.16,0,0,1-1.68,4.49,7.31,7.31,0,0,1-5.17,1.66,21.62,21.62,0,0,1-2.75-.14Zm1.52,10.21a9.61,9.61,0,0,0,1.52.07c3.22,0,5-1.78,5-4.89,0-2.76-1.54-4.45-4.73-4.45a8.34,8.34,0,0,0-1.76.15Z"/><path class="cls-3" d="M289.13,95.7v6.84c0,2.57,1.17,3.67,2.73,3.67s2.83-1.13,2.83-3.67V95.7h1.52v6.75c0,3.54-1.88,5-4.41,5s-4.19-1.34-4.19-4.93V95.7Z"/><path class="cls-3" d="M312.66,106.87a7.36,7.36,0,0,1-3.09.56c-3.29,0-5.74-2.06-5.74-5.86a5.76,5.76,0,0,1,6.09-6.06,6.28,6.28,0,0,1,2.77.52l-.38,1.21a5.45,5.45,0,0,0-2.34-.48c-2.73,0-4.55,1.73-4.55,4.76,0,2.84,1.64,4.64,4.46,4.64a6.11,6.11,0,0,0,2.48-.48Z"/><path class="cls-3" d="M322.13,103.61l-1.2,3.63h-1.56l4-11.54h1.82l4,11.54h-1.6l-1.24-3.63Zm3.83-1.17-1.16-3.32c-.24-.75-.41-1.43-.58-2.1h-.06c-.16.67-.35,1.38-.57,2.08l-1.14,3.34Z"/><path class="cls-3" d="M344.67,106.87a7.35,7.35,0,0,1-3.08.56c-3.29,0-5.74-2.06-5.74-5.86a5.76,5.76,0,0,1,6.08-6.06,6.28,6.28,0,0,1,2.77.52l-.38,1.21a5.42,5.42,0,0,0-2.34-.48c-2.73,0-4.55,1.73-4.55,4.76,0,2.84,1.65,4.64,4.47,4.64a6.15,6.15,0,0,0,2.48-.48Z"/><rect class="cls-3" x="352.25" y="95.7" width="1.52" height="11.54"/><path class="cls-3" d="M366.65,107.43c-3.1,0-5.25-2.37-5.25-5.86,0-3.66,2.29-6.06,5.4-6.06s5.26,2.41,5.26,5.84c0,4-2.44,6.08-5.39,6.08Zm.07-1.22c2.38,0,3.73-2.17,3.73-4.79,0-2.3-1.21-4.69-3.72-4.69S363,99,363,101.54s1.35,4.67,3.72,4.67Zm2.75-13.14-2.24,2H366l1.62-2Z"/><path class="cls-3" d="M379.72,107.24V95.7h1.65l3.72,5.84a31.56,31.56,0,0,1,2.08,3.74h.05c-.13-1.54-.17-3-.17-4.73V95.7h1.42v11.54H387l-3.71-5.86a33.39,33.39,0,0,1-2.16-3.85l-.05,0c.09,1.45.1,2.84.1,4.75v4.94Z"/><path class="cls-3" d="M406,53a6,6,0,1,1-6,6,5.93,5.93,0,0,1,6-6Zm0,.93a5.1,5.1,0,0,0,0,10.19,4.9,4.9,0,0,0,4.81-5.07A5,5,0,0,0,406,54Zm-1.12,8.59h-1.07V55.83a13.43,13.43,0,0,1,1.9-.15,3.45,3.45,0,0,1,2.08.51,1.6,1.6,0,0,1,.62,1.39A1.68,1.68,0,0,1,407,59.21v0c.59.1,1,.64,1.12,1.63a5.5,5.5,0,0,0,.43,1.66h-1.13a5,5,0,0,1-.45-1.71,1.25,1.25,0,0,0-1.44-1.18h-.75Zm0-3.72h.77c.89,0,1.64-.32,1.64-1.15,0-.59-.43-1.17-1.64-1.17a6.4,6.4,0,0,0-.77.05Z"/></g><g class="cls-5"><rect class="cls-6" x="94.61" y="38.81" width="53.8" height="53.8" transform="translate(-10.11 107.66) rotate(-46.08)"/></g><polygon class="cls-7" points="127.3 65 114.62 77.68 108.86 71.92 121.56 59.24 116.79 54.47 131.29 55.22 131.97 69.67 127.3 65"/></svg>