<?xml version="1.0" encoding="UTF-8"?><svg id="a" xmlns="http://www.w3.org/2000/svg" viewBox="0 0 334.87 125"><path d="M61.19,99.47c-.34,0-.68-.11-.96-.34l-6.55-5.2c-4.32-3.43-2.47-6.53-.84-9.27,1.07-1.78,1.68-3.3,1.22-4.88-.28-.96-.94-2.22-3.58-3.55-3.01-1.51-6.18-1.99-9.24-2.46-8.78-1.34-17.86-2.73-28.58-24.74-.22-.45-.21-.96,.02-1.4,.23-.45,.67-.76,1.18-.83,8.34-1.27,33.27-1.85,52.91-1.85,18.5,0,23.51,1.12,25.68,1.97,2.63,1.03,3.82,2.27,3.55,3.7-.74,3.95-12.18,7.77-17.26,7.34l-.57-.05c-1.4-.13-4.04-.36-6.26-.65-7.04-.92-15.81-2.06-24.59-2.06-7.87,0-8.64,1.06-8.93,1.46-.26,.35-.31,.75-.16,1.22,.91,2.82,4.23,4.13,9.61,5.95,7.04,2.38,15.01,5.07,15.01,12.23,0,8.61-.07,17.54-.12,21.89,0,.59-.34,1.11-.87,1.37-.21,.1-.44,.15-.67,.15ZM15.14,48.93c10,20.08,18.36,21.36,26.44,22.6,3.24,.5,6.59,1.01,9.92,2.67,2.64,1.32,4.15,2.89,4.75,4.95,.74,2.53-.32,4.8-1.45,6.69-1.69,2.83-2.46,4.12,.3,6.31l5.35,4.25c.04-4.71,.1-12.65,.1-20.34,0-5.52-6.84-7.83-13.46-10.07-5.22-1.76-9.72-3.29-11.05-7.41-.38-1.17-.2-2.33,.49-3.27,1.1-1.52,3.22-2.39,10.77-2.39,8.93,0,17.78,1.15,24.88,2.08,2.19,.28,4.79,.52,6.17,.64l.57,.05c.22,.02,.46,.03,.72,.03,5.74,0,13.76-3.74,14.1-5.52-.05,0-.57-.53-2.14-1.15-3.12-1.22-11.25-1.81-24.85-1.81-19.43,0-42.89,.58-51.62,1.69Z" style="fill:#cf3790;"/><path d="M69.65,99.47c-.22,0-.45-.05-.66-.15-.53-.25-.87-.78-.87-1.37-.04-4.36-.12-13.29-.12-21.9,0-7.63,9.76-10.88,18.36-13.74,4.55-1.51,9.13-3.23,11.88-5.5,.58-.44,5.33-4.19,5.03-8.26-.16-2.16-1.87-4.05-5.07-5.62-6.66-3.25-28.99-3.6-38.28-3.6-20.98,0-40.87,1.43-47.28,3.41-.71,.22-1.67,.33-2.23-.34-1.18-1.41-2.99-4.67-4.51-9.57-.08-.29-.14-.83,.39-1.43,4.79-5.45,44.46-5.88,56.5-5.88,26.07,0,47.72,1.5,52.64,3.64,3.01,1.31,4.96,3.31,5.79,5.92,1.69,5.32-1.76,11.44-2.16,12.12-11.1,23.76-20.43,25.19-29.46,26.57-3.06,.47-6.23,.95-9.24,2.46-2.64,1.32-3.3,2.59-3.58,3.55-.46,1.58,.15,3.1,1.22,4.88,1.63,2.74,3.48,5.83-.84,9.27l-6.55,5.2c-.28,.22-.62,.34-.96,.34Zm-9.74-62.42c11.74,0,32.45,.5,39.28,3.83,3.98,1.94,6.12,4.47,6.35,7.5,.39,5.16-4.83,9.42-5.88,10.22-2.83,2.34-7.08,4.05-12.58,5.88-7.88,2.62-16.8,5.59-16.8,11.58,0,7.69,.06,15.64,.1,20.34l5.35-4.25c2.76-2.19,1.99-3.48,.3-6.31-1.13-1.9-2.19-4.17-1.45-6.69,.6-2.05,2.11-3.63,4.75-4.95,3.33-1.66,6.68-2.18,9.91-2.67,8.43-1.29,17.15-2.63,27.78-25.38,.19-.33,3.42-5.91,2-10.37-.62-1.96-2.15-3.49-4.53-4.52-4.59-2-26.34-3.45-51.72-3.45-33.52,0-51.52,2.49-54.55,4.88,1.25,3.89,2.67,6.58,3.64,7.89,.03,0,.06-.02,.09-.03,7.48-2.3,29.78-3.51,47.95-3.51Z" style="fill:#cf3790;"/><path d="M47.1,65.99c-5.22-1.76-9.72-3.29-11.05-7.41-.38-1.17-.2-2.33,.49-3.27,1.1-1.52,3.22-2.39,10.77-2.39,8.93,0,17.78,1.15,24.88,2.08,2.19,.28,4.79,.52,6.17,.64l.57,.05c.22,.02,.46,.03,.72,.03,5.74,0,13.76-3.74,14.1-5.52-.05,0-.57-.53-2.14-1.15-3.12-1.22-11.25-1.81-24.85-1.81-19.43,0-42.89,.58-51.62,1.69,10,20.08,18.36,21.36,26.44,22.6,3.24,.5,6.59,1.01,9.92,2.67,2.64,1.32,4.15,2.89,4.75,4.95,.74,2.53-.32,4.8-1.45,6.69-1.69,2.83-2.46,4.12,.3,6.31l5.35,4.25c.04-4.71,.1-12.65,.1-20.34,0-5.52-6.84-7.83-13.46-10.07Z" style="fill:#2c2a26;"/><path d="M114.51,31.26c-4.59-2-26.34-3.45-51.72-3.45-33.52,0-51.52,2.49-54.55,4.88,1.25,3.89,2.67,6.58,3.64,7.89,.03,0,.06-.02,.09-.03,7.48-2.3,29.78-3.51,47.95-3.51,11.74,0,32.45,.5,39.28,3.83,3.98,1.94,6.12,4.47,6.35,7.5,.39,5.16-4.83,9.42-5.88,10.22-2.83,2.34-7.08,4.05-12.58,5.88-7.88,2.62-16.8,5.59-16.8,11.58,0,7.69,.06,15.64,.1,20.34l5.35-4.25c2.76-2.19,1.99-3.48,.3-6.31-1.13-1.9-2.19-4.17-1.45-6.69,.6-2.05,2.11-3.63,4.75-4.95,3.33-1.66,6.68-2.18,9.91-2.67,8.43-1.29,17.15-2.63,27.78-25.38,.19-.33,3.42-5.91,2-10.37-.62-1.96-2.15-3.49-4.53-4.52Z" style="fill:#2c2a26;"/><g><path d="M140.35,40.29c0-.42,.21-.63,.63-.63h1.09c.42,0,.62,.21,.62,.63v4.73c.26-.43,.54-.87,.84-1.31s.62-.82,.96-1.13c1.16-1.09,2.47-1.94,3.92-2.52,1.45-.59,2.99-.88,4.62-.88,1.17,0,2.3,.15,3.39,.46,1.09,.31,2.11,.74,3.06,1.3,.95,.56,1.82,1.23,2.6,2.01,.78,.78,1.45,1.65,2.01,2.59,.56,.95,.99,1.97,1.3,3.06s.46,2.23,.46,3.4-.15,2.31-.46,3.4c-.31,1.09-.74,2.12-1.3,3.07-.56,.95-1.23,1.82-2.01,2.6-.78,.78-1.65,1.45-2.6,2.01-.95,.56-1.97,.99-3.06,1.3-1.09,.31-2.22,.46-3.39,.46-.82,0-1.62-.08-2.4-.25-.78-.17-1.54-.41-2.27-.71-.73-.31-1.42-.67-2.08-1.11-.66-.43-1.27-.9-1.83-1.43-.35-.36-.66-.73-.92-1.11-.26-.37-.57-.8-.92-1.28v12.57c0,.09-.03,.17-.1,.23-.06,.07-.15,.1-.25,.1l-1.39,.02c-.35,0-.53-.18-.53-.53v-31.07Zm23.11,11.71c0-1.42-.27-2.78-.81-4.07-.54-1.29-1.28-2.42-2.22-3.39-.94-.97-2.04-1.74-3.29-2.32-1.26-.57-2.6-.86-4.04-.86s-2.82,.28-4.11,.83c-1.29,.55-2.42,1.31-3.39,2.27-.97,.96-1.74,2.08-2.3,3.37-.56,1.29-.84,2.67-.84,4.13s.27,2.8,.82,4.1c.55,1.3,1.3,2.43,2.25,3.41s2.07,1.76,3.34,2.34c1.28,.58,2.64,.87,4.09,.87s2.81-.28,4.09-.85c1.28-.57,2.39-1.34,3.33-2.32,.94-.98,1.69-2.11,2.25-3.4,.55-1.29,.83-2.66,.83-4.11Z" style="fill:#2c2a26;"/><path d="M170.48,32.41c0-.25,.04-.45,.11-.61,.07-.16,.22-.25,.44-.27h1.43c.25,.03,.4,.12,.47,.28,.06,.16,.1,.36,.1,.6v.74c0,.38-.06,.62-.19,.72s-.36,.16-.71,.16h-.7c-.34,0-.58-.05-.72-.14-.14-.09-.22-.25-.22-.49v-1Zm.12,7.84c0-.42,.21-.63,.63-.63h1.04c.42,0,.63,.21,.63,.63v23.46c0,.42-.2,.63-.61,.63h-1.02c-.44,0-.67-.21-.67-.63v-23.46Z" style="fill:#2c2a26;"/><path d="M180.1,40.35c0-.23,.07-.41,.2-.54s.31-.19,.53-.19h.79c.23,0,.41,.07,.53,.21s.18,.31,.18,.52v2.87c.56-.85,1.19-1.54,1.9-2.08s1.43-.97,2.17-1.27c.74-.31,1.48-.51,2.2-.63,.72-.11,1.39-.17,2-.17,1.5,0,2.87,.27,4.11,.82,1.24,.55,2.29,1.3,3.17,2.25,.87,.95,1.55,2.06,2.03,3.32,.48,1.26,.72,2.61,.72,4.05v13.96c0,.29-.07,.5-.21,.64-.14,.14-.33,.22-.56,.22h-.72c-.3,0-.5-.06-.6-.2-.1-.13-.16-.34-.16-.65v-14.04c-.04-1.02-.24-2.01-.61-2.98-.36-.97-.88-1.84-1.55-2.59-.67-.76-1.48-1.37-2.45-1.83-.97-.46-2.07-.69-3.31-.69-1,0-1.99,.19-2.95,.56-.96,.37-1.82,.89-2.57,1.56-.76,.67-1.37,1.48-1.85,2.42-.48,.94-.73,1.98-.77,3.11v14.7c0,.42-.19,.63-.58,.63h-1.03c-.41,0-.62-.21-.62-.63v-5.42s-.02-.11-.02-.22v-17.73Z" style="fill:#2c2a26;"/><path d="M211.59,49.02c1.05-1.04,2.11-2.09,3.19-3.15,1.08-1.06,2.14-2.11,3.19-3.14,1.05-1.03,2.03-1.99,2.94-2.89,.06-.06,.14-.12,.21-.17,.08-.05,.17-.07,.27-.07h1.76c.14,0,.24,.04,.3,.13,.06,.09,.1,.17,.13,.26,0,.16-.05,.31-.14,.47-1.51,1.49-3.02,2.96-4.53,4.43-1.51,1.47-3.01,2.95-4.53,4.45l12.3,14.1c.12,.18,.18,.34,.18,.47s-.07,.23-.2,.28c-.13,.06-.29,.1-.47,.12-.18,.02-.37,.03-.58,.02-.2,0-.37-.01-.52-.01-.21,0-.41-.02-.6-.06-.19-.04-.32-.14-.4-.31l-.96-1.08-10.32-11.99-4.16,3.97v8.86c0,.42-.21,.63-.62,.63h-1.03c-.4,0-.6-.21-.6-.63v-30.99c0-.4,.2-.61,.6-.61h1.03c.18,0,.33,.06,.45,.17,.12,.11,.17,.26,.17,.44v19.18c.9-.89,1.87-1.85,2.92-2.88Z" style="fill:#2c2a26;"/><path d="M238.93,63.4c.01,.12,.02,.22,.02,.29v.41c0,.12-.05,.21-.14,.28-.09,.07-.2,.13-.33,.17-.13,.04-.26,.06-.4,.07s-.24,0-.32,0c-.7,0-1.37-.09-2-.26-.63-.18-1.19-.46-1.67-.85-.48-.39-.86-.9-1.13-1.53-.28-.62-.42-1.38-.42-2.27v-18.07h-3.38c-.22,0-.38-.05-.49-.14-.11-.09-.16-.25-.16-.47v-.92c0-.22,.05-.37,.16-.45,.1-.08,.27-.12,.49-.12h3.38v-6.16c0-.13,.05-.23,.16-.31,.05-.04,.11-.07,.17-.1-.01,0,.03-.02,.14-.07,.1-.05,.23-.09,.37-.15s.29-.1,.44-.15c.15-.05,.26-.07,.34-.07,.26,0,.43,.06,.51,.2,.08,.13,.13,.31,.13,.53v6.28h4.38c.43,0,.64,.21,.64,.62v.78c0,.46-.21,.69-.64,.69h-4.38v16.52c0,.57,.02,1.11,.07,1.62,.05,.51,.14,.95,.28,1.34,.14,.38,.35,.69,.62,.92,.27,.23,.63,.34,1.08,.34h.45c.39,0,.69,.02,.91,.07,.21,.05,.38,.11,.49,.2,.11,.09,.18,.2,.2,.33,.03,.14,.04,.29,.04,.46v-.06Z" style="fill:#2c2a26;"/><path d="M242.92,32.41c0-.25,.04-.45,.11-.61,.07-.16,.22-.25,.44-.27h1.43c.25,.03,.4,.12,.47,.28,.06,.16,.1,.36,.1,.6v.74c0,.38-.06,.62-.19,.72s-.36,.16-.71,.16h-.7c-.34,0-.58-.05-.72-.14-.14-.09-.22-.25-.22-.49v-1Zm.12,7.84c0-.42,.21-.63,.63-.63h1.04c.42,0,.63,.21,.63,.63v23.46c0,.42-.2,.63-.61,.63h-1.02c-.44,0-.67-.21-.67-.63v-23.46Z" style="fill:#2c2a26;"/><path d="M274.83,45.02c.01-.2,.02-.4,.02-.61s.01-.42,.04-.63v-3.56c0-.22,.07-.4,.21-.53,.14-.13,.32-.2,.54-.2h.81c.24,0,.42,.08,.55,.22,.13,.15,.2,.32,.2,.52v20.35s0,.05,0,.08c0,.03-.01,.05-.01,.06-.04,1.53-.23,2.89-.56,4.11-.33,1.21-.79,2.28-1.36,3.21-.57,.93-1.24,1.72-2,2.38-.76,.66-1.59,1.2-2.49,1.61-.9,.42-1.84,.72-2.82,.92-.98,.2-1.98,.29-3,.29-1.42,0-2.7-.16-3.84-.47-1.14-.31-2.2-.76-3.18-1.35-.13-.06-.23-.14-.3-.22-.07-.08-.11-.2-.11-.34,0-.12,0-.21,.02-.27,.01-.07,.05-.14,.1-.23,.05-.08,.14-.2,.25-.36,.12-.16,.27-.39,.47-.69,.07-.1,.16-.15,.27-.13,.12,.02,.22,.05,.31,.09,.16,.12,.44,.27,.84,.47,.4,.2,.88,.38,1.42,.57,.54,.18,1.13,.34,1.77,.47,.64,.13,1.28,.2,1.92,.2,1.42,0,2.74-.22,3.97-.65,1.23-.44,2.29-1.08,3.19-1.93,.9-.85,1.61-1.89,2.12-3.14,.51-1.25,.77-2.68,.77-4.31v-2.13c-.52,.94-1.16,1.78-1.92,2.52-.76,.74-1.59,1.37-2.5,1.88-.91,.51-1.88,.9-2.9,1.17-1.02,.27-2.06,.41-3.12,.41-1.17,0-2.3-.15-3.39-.46-1.09-.31-2.11-.74-3.06-1.3-.95-.56-1.82-1.23-2.61-2.01-.79-.78-1.46-1.65-2.02-2.6-.56-.95-.99-1.97-1.3-3.07s-.46-2.23-.46-3.4,.16-2.31,.47-3.4c.31-1.09,.75-2.12,1.31-3.07,.56-.95,1.24-1.82,2.02-2.6,.79-.78,1.66-1.45,2.61-2.01,.95-.56,1.97-.99,3.05-1.3,1.08-.31,2.21-.46,3.38-.46,1.07,0,2.11,.14,3.14,.42,1.02,.28,1.98,.68,2.88,1.19,.9,.51,1.72,1.14,2.45,1.87,.74,.73,1.36,1.54,1.87,2.42Zm-20.86,6.95c0,.95,.12,1.87,.37,2.76,.25,.89,.6,1.73,1.05,2.52,.45,.79,.99,1.51,1.62,2.17,.63,.66,1.33,1.22,2.1,1.7,.77,.48,1.6,.85,2.48,1.11,.89,.27,1.81,.4,2.76,.4,1.34,0,2.62-.24,3.82-.72,1.2-.48,2.28-1.14,3.22-1.98s1.72-1.83,2.34-2.97c.62-1.14,1.01-2.36,1.16-3.66v-2.56c-.16-1.3-.54-2.52-1.14-3.66-.61-1.14-1.37-2.14-2.3-2.99-.93-.85-1.98-1.52-3.17-2.01-1.19-.49-2.45-.73-3.79-.73-.97,0-1.9,.13-2.8,.38-.9,.25-1.74,.61-2.51,1.07-.78,.46-1.48,1.02-2.12,1.67-.64,.65-1.19,1.37-1.65,2.16s-.82,1.63-1.06,2.54c-.25,.9-.37,1.84-.37,2.8Z" style="fill:#2c2a26;"/><path d="M284.22,52.82c.04,.22,.07,.52,.09,.89,.02,.37,.08,.72,.17,1.05,.33,1.16,.8,2.22,1.44,3.19,.63,.97,1.39,1.79,2.26,2.48,.87,.69,1.85,1.23,2.92,1.62,1.08,.39,2.21,.59,3.41,.59,.69,0,1.34-.05,1.93-.16s1.16-.25,1.67-.44c.51-.19,1-.41,1.47-.67s.9-.55,1.32-.86c.13-.08,.26-.17,.4-.28,.14-.11,.27-.21,.4-.31,.13-.1,.25-.18,.36-.25,.11-.07,.21-.11,.3-.11,.1,0,.22,.09,.35,.25,.22,.31,.38,.55,.48,.72,.1,.17,.15,.3,.15,.39,0,.05-.03,.1-.08,.16,.06,.07,.1,.13,.1,.2-.14,.18-.32,.37-.53,.57-.21,.2-.46,.39-.74,.59-1.06,.74-2.2,1.33-3.42,1.76-1.23,.43-2.56,.64-4.01,.64-1.76,0-3.42-.34-4.98-1.01s-2.92-1.59-4.09-2.76c-1.17-1.17-2.09-2.53-2.78-4.08-.68-1.55-1.03-3.21-1.03-4.97,0-1.19,.15-2.33,.45-3.42s.72-2.12,1.27-3.07c.55-.95,1.21-1.82,1.98-2.6s1.64-1.45,2.6-2.01c.96-.56,1.99-.99,3.09-1.3,1.1-.31,2.26-.46,3.47-.46,1.13,0,2.23,.14,3.29,.41,1.06,.27,2.06,.67,3,1.19,.94,.52,1.8,1.16,2.57,1.92,.78,.76,1.44,1.61,2,2.56s1,2,1.33,3.15c.33,1.15,.51,2.37,.55,3.68v-.02s0,.03,.01,.05c0,.02,0,.04,0,.07,0,.44-.21,.66-.63,.66h-22.58Zm7.67-11.05c-.99,.26-1.92,.67-2.78,1.23-.86,.56-1.62,1.23-2.29,2-.67,.77-1.22,1.62-1.67,2.56s-.76,1.92-.93,2.95h20.92c-.16-1.3-.54-2.51-1.16-3.63-.62-1.11-1.4-2.08-2.34-2.89s-2-1.45-3.2-1.92c-1.19-.46-2.44-.69-3.74-.69-.44,0-.87,.02-1.29,.07-.42,.05-.93,.15-1.53,.32Z" style="fill:#2c2a26;"/><path d="M327.97,43.65c-.07,.07-.14,.1-.22,.1-.09,0-.2-.03-.32-.08s-.28-.15-.48-.29c-.27-.19-.6-.39-.97-.6-.37-.2-.76-.39-1.17-.57s-.83-.32-1.25-.43c-.42-.11-.84-.17-1.24-.17-1,0-1.95,.18-2.84,.53s-1.66,.85-2.33,1.5c-.66,.64-1.19,1.43-1.57,2.37s-.58,1.97-.58,3.12v14.61c0,.4-.21,.61-.63,.61h-1.04c-.43,0-.65-.2-.65-.61v-23.48c0-.35,.18-.53,.55-.53,.04,0,.07,0,.1,.02,.03-.01,.07-.02,.14-.02h.8c.23,0,.41,.07,.54,.2,.12,.14,.19,.31,.19,.52v3.19c.27-.51,.63-1.01,1.08-1.51s.97-.94,1.56-1.34c.6-.4,1.27-.72,2-.97,.74-.25,1.53-.37,2.38-.37,.68,0,1.31,.05,1.89,.14,.58,.09,1.13,.23,1.65,.41,.52,.18,1.02,.41,1.51,.69,.48,.28,.96,.61,1.45,.99,.13,.1,.25,.21,.35,.33,.1,.12,.16,.25,.16,.41,0,.12-.11,.3-.33,.54-.22,.24-.46,.47-.72,.69Z" style="fill:#2c2a26;"/></g><g><path d="M171.53,76.9c0-.14,.01-.28,.01-.42s0-.29,.03-.44v-2.48c0-.15,.05-.28,.14-.37,.1-.09,.22-.14,.38-.14h.56c.16,0,.29,.05,.38,.16s.14,.22,.14,.36v14.19s0,.04,0,.05,0,.03,0,.04c-.03,1.06-.16,2.02-.39,2.86-.23,.84-.55,1.59-.95,2.23-.4,.65-.86,1.2-1.39,1.66-.53,.46-1.11,.83-1.74,1.12-.63,.29-1.28,.5-1.97,.64s-1.38,.2-2.09,.2c-.99,0-1.88-.11-2.68-.33-.79-.22-1.53-.53-2.21-.94-.09-.05-.16-.1-.21-.16s-.07-.14-.07-.24c0-.08,0-.14,.01-.19,0-.05,.03-.1,.07-.16s.1-.14,.18-.25c.08-.11,.19-.27,.33-.48,.05-.07,.11-.1,.19-.09,.08,.01,.15,.03,.22,.06,.11,.08,.3,.19,.59,.33,.28,.14,.61,.27,.99,.39,.38,.13,.79,.24,1.23,.33s.89,.14,1.34,.14c.99,0,1.91-.15,2.77-.46,.85-.3,1.59-.75,2.22-1.34,.63-.59,1.12-1.32,1.48-2.19,.36-.87,.54-1.87,.54-3v-1.49c-.36,.65-.81,1.24-1.34,1.76-.53,.52-1.11,.95-1.74,1.31-.64,.35-1.31,.63-2.02,.82-.71,.19-1.44,.29-2.17,.29-.82,0-1.61-.11-2.37-.32-.76-.21-1.47-.52-2.13-.91-.66-.39-1.27-.86-1.82-1.4s-1.02-1.15-1.41-1.81c-.39-.66-.69-1.38-.91-2.14-.21-.76-.32-1.55-.32-2.37s.11-1.61,.33-2.37c.22-.76,.52-1.48,.91-2.14,.39-.66,.86-1.27,1.41-1.81s1.16-1.01,1.82-1.4c.66-.39,1.37-.69,2.13-.91,.75-.21,1.54-.32,2.36-.32,.74,0,1.47,.1,2.19,.29,.71,.2,1.38,.47,2.01,.83,.63,.36,1.2,.79,1.71,1.3,.51,.51,.95,1.07,1.3,1.69Zm-14.54,4.85c0,.66,.09,1.3,.26,1.93,.17,.62,.42,1.21,.73,1.76,.31,.55,.69,1.05,1.13,1.51,.44,.46,.93,.85,1.47,1.18,.54,.33,1.11,.59,1.73,.78,.62,.19,1.26,.28,1.92,.28,.94,0,1.82-.17,2.66-.5,.84-.34,1.59-.8,2.24-1.38,.65-.59,1.2-1.28,1.63-2.07,.43-.79,.7-1.65,.81-2.55v-1.78c-.11-.91-.37-1.76-.8-2.55-.42-.79-.96-1.49-1.6-2.08-.65-.59-1.38-1.06-2.21-1.4s-1.71-.51-2.64-.51c-.67,0-1.32,.09-1.95,.27-.63,.18-1.21,.43-1.75,.75-.54,.32-1.03,.71-1.48,1.16-.45,.45-.83,.96-1.15,1.5-.32,.55-.57,1.14-.74,1.77s-.26,1.28-.26,1.95Z" style="fill:#2c2a26;"/><path d="M187.97,75.95s-.1,.07-.15,.07c-.06,0-.14-.02-.22-.05-.09-.04-.2-.1-.33-.2-.19-.14-.42-.27-.67-.42-.26-.14-.53-.27-.82-.4-.29-.12-.58-.22-.87-.3-.3-.08-.58-.12-.86-.12-.7,0-1.36,.12-1.98,.37-.62,.25-1.16,.59-1.62,1.04-.46,.45-.83,1-1.1,1.65-.27,.65-.4,1.37-.4,2.17v10.18c0,.28-.14,.42-.44,.42h-.72c-.3,0-.45-.14-.45-.42v-16.37c0-.25,.13-.37,.38-.37,.03,0,.05,0,.07,.01,.02,0,.05-.01,.1-.01h.56c.16,0,.29,.05,.37,.14,.09,.09,.13,.22,.13,.36v2.22c.19-.35,.44-.7,.75-1.05,.31-.34,.67-.66,1.09-.93,.42-.28,.88-.5,1.4-.67,.51-.17,1.06-.26,1.66-.26,.47,0,.91,.03,1.31,.1s.79,.16,1.15,.29,.71,.29,1.05,.48,.67,.42,1.01,.69c.09,.07,.17,.15,.25,.23,.07,.08,.11,.18,.11,.29,0,.08-.08,.21-.23,.37-.15,.17-.32,.33-.5,.48Z" style="fill:#2c2a26;"/><path d="M190.81,81.77c0-.82,.11-1.61,.32-2.37,.21-.76,.52-1.48,.91-2.14,.39-.66,.86-1.27,1.4-1.81,.55-.55,1.15-1.01,1.81-1.4,.66-.39,1.37-.69,2.13-.91,.76-.21,1.55-.32,2.36-.32s1.61,.11,2.36,.32c.76,.21,1.47,.52,2.13,.91,.66,.39,1.27,.86,1.82,1.4,.55,.55,1.02,1.15,1.41,1.81,.39,.66,.69,1.38,.91,2.14,.21,.76,.32,1.55,.32,2.37s-.11,1.61-.32,2.37c-.21,.76-.52,1.48-.91,2.14-.39,.66-.86,1.27-1.41,1.81-.55,.55-1.16,1.01-1.82,1.4-.66,.39-1.37,.69-2.13,.91-.76,.21-1.55,.32-2.36,.32s-1.61-.11-2.36-.32c-.76-.21-1.47-.51-2.13-.91-.66-.39-1.27-.86-1.81-1.4-.55-.55-1.01-1.15-1.4-1.81-.39-.66-.69-1.38-.91-2.14-.21-.76-.32-1.55-.32-2.37Zm1.64,0c0,.66,.09,1.31,.26,1.93,.17,.62,.42,1.21,.73,1.76,.31,.55,.69,1.05,1.13,1.51,.44,.46,.93,.85,1.47,1.18,.54,.33,1.12,.58,1.73,.76,.61,.18,1.26,.27,1.93,.27,1.01,0,1.96-.19,2.85-.58,.89-.39,1.68-.91,2.35-1.58,.67-.67,1.2-1.45,1.59-2.34,.39-.89,.59-1.85,.59-2.88s-.19-1.95-.57-2.85c-.38-.9-.9-1.69-1.56-2.38-.66-.68-1.43-1.22-2.32-1.63-.89-.4-1.83-.61-2.84-.61s-1.96,.2-2.85,.59c-.89,.39-1.67,.93-2.34,1.61-.66,.68-1.19,1.47-1.57,2.37-.39,.9-.58,1.85-.58,2.86Z" style="fill:#2c2a26;"/><path d="M224.76,88.43l-.04-.84c-.3,.46-.64,.88-1.02,1.25-.38,.37-.8,.69-1.27,.95-.46,.26-.97,.47-1.51,.61-.55,.14-1.14,.21-1.77,.21-1.05,0-2.02-.19-2.9-.57-.88-.38-1.64-.9-2.28-1.55-.64-.65-1.13-1.42-1.49-2.31-.36-.89-.54-1.83-.54-2.84v-9.73c0-.2,.05-.35,.15-.45,.1-.1,.24-.15,.41-.15h.52c.21,0,.35,.05,.42,.14,.07,.09,.1,.24,.1,.45v9.81c.02,.73,.16,1.43,.44,2.1,.27,.67,.65,1.27,1.14,1.8,.49,.53,1.08,.95,1.78,1.26,.69,.31,1.48,.47,2.35,.47,.72,0,1.4-.13,2.06-.4,.65-.27,1.24-.64,1.74-1.12,.51-.48,.92-1.06,1.23-1.72s.47-1.4,.49-2.2v-10.14c0-.29,.15-.44,.44-.44h.71c.3,0,.45,.15,.45,.44v16.35c0,.38-.17,.57-.5,.57h-.56c-.35,0-.53-.16-.53-.49v-1.44Z" style="fill:#2c2a26;"/><path d="M230.58,73.61c0-.29,.15-.44,.44-.44h.76c.29,0,.44,.14,.44,.44v3.3c.18-.3,.38-.6,.59-.91,.21-.31,.43-.57,.67-.79,.81-.76,1.72-1.35,2.73-1.76,1.01-.41,2.09-.61,3.22-.61,.82,0,1.61,.11,2.36,.32,.76,.21,1.47,.52,2.13,.91,.66,.39,1.27,.86,1.81,1.4,.55,.55,1.01,1.15,1.4,1.81,.39,.66,.69,1.37,.91,2.13,.21,.76,.32,1.55,.32,2.37s-.11,1.61-.32,2.37c-.21,.76-.52,1.48-.91,2.14-.39,.66-.86,1.27-1.4,1.81-.55,.55-1.15,1.01-1.81,1.4-.66,.39-1.37,.69-2.13,.91-.76,.21-1.55,.32-2.36,.32-.57,0-1.13-.06-1.68-.18s-1.07-.28-1.58-.5c-.51-.21-.99-.47-1.45-.77s-.88-.63-1.27-1c-.25-.25-.46-.51-.64-.77-.18-.26-.4-.56-.64-.89v8.76c0,.06-.02,.12-.07,.16s-.1,.07-.18,.07h-.97c-.25,.01-.37-.11-.37-.35v-21.65Zm16.11,8.16c0-.99-.19-1.93-.56-2.83-.38-.9-.89-1.69-1.55-2.36-.65-.68-1.42-1.22-2.3-1.62-.88-.4-1.81-.6-2.81-.6s-1.96,.19-2.86,.58c-.9,.39-1.69,.91-2.36,1.58s-1.21,1.45-1.6,2.35c-.39,.9-.59,1.86-.59,2.88s.19,1.95,.57,2.85c.38,.9,.9,1.7,1.57,2.38s1.44,1.22,2.33,1.63c.89,.4,1.84,.61,2.85,.61s1.96-.2,2.85-.59c.89-.4,1.66-.93,2.32-1.62,.66-.68,1.18-1.47,1.57-2.37,.39-.9,.58-1.85,.58-2.86Z" style="fill:#2c2a26;"/></g></svg>