<svg id="Capa_1" data-name="Capa 1" xmlns="http://www.w3.org/2000/svg" xmlns:xlink="http://www.w3.org/1999/xlink" viewBox="0 0 239.93 125"><defs><style>.cls-1{fill:none;}.cls-2{fill:#0a1e3f;}.cls-3{clip-path:url(#clip-path);}</style><clipPath id="clip-path"><rect class="cls-1" x="1.88" y="93.31" width="19.41" height="28.51"/></clipPath></defs><path class="cls-2" d="M3.06,34.64H17.47c6.54,0,10.08,3.61,10.08,9.64S24,54,17.47,53.92h-10V67.26H3.06ZM7.44,50.27H16c4.92,0,7.18-2.1,7.18-6s-2.26-6-7.18-6H7.44Z"/><path class="cls-2" d="M49.64,67.26H46V63.52h-.09a8.3,8.3,0,0,1-7.73,4.29c-6.26,0-8.19-3.56-8.19-8.63V43.64h3.91v16a4.47,4.47,0,0,0,4.83,4.76c4.74,0,7-3.16,7-7.41V43.64h3.91Z"/><path class="cls-2" d="M53.24,43.64h3.68v3.75H57a8.3,8.3,0,0,1,7.73-4.29c6.26,0,8.19,3.56,8.19,8.63V67.26H69v-16a4.47,4.47,0,0,0-4.83-4.75c-4.74,0-7,3.15-7,7.4V67.26H53.24Z"/><path class="cls-2" d="M82,43.64H86.7v3.43H82V61.74c0,1.78.5,2.1,2.94,2.1h1.8v3.42h-3c-4,0-5.66-.82-5.66-5.16v-15H74V43.64h4V36.56H82Z"/><path class="cls-2" d="M99,43.1c7.55,0,11.55,5.43,11.55,12.38s-4,12.33-11.55,12.33S87.44,62.37,87.44,55.48,91.44,43.1,99,43.1Zm0,21.29c4.09,0,7.41-3.2,7.41-8.91s-3.32-9-7.41-9-7.41,3.2-7.41,9S94.89,64.39,99,64.39Z"/><path class="cls-2" d="M115.24,59.82c.14,3.47,3.17,4.57,6.4,4.57,2.43,0,5.75-.55,5.75-3.52s-3.87-3.52-7.78-4.39-7.78-2.15-7.78-6.67c0-4.75,4.74-6.71,8.88-6.71,5.25,0,9.44,1.64,9.76,7.4h-3.91c-.28-3-3-4-5.52-4-2.35,0-5.07.64-5.07,3,0,2.78,4.15,3.24,7.78,4.11,3.91.87,7.78,2.15,7.78,6.71,0,5.62-5.29,7.45-10.13,7.45-5.33,0-9.84-2.15-10.07-8Z"/><path class="cls-2" d="M182.49,97.76h3.68v3.47h.09a8.79,8.79,0,0,1,7.69-4c2.9,0,5.57,1.14,6.53,4a8.84,8.84,0,0,1,7.46-4c4.74,0,7.92,2,7.92,6.85v17.32H212V105.89c0-2.92-.79-5.25-4.61-5.25s-6.21,2.37-6.21,6v14.71h-3.91V105.89c0-3.06-1-5.25-4.47-5.25a6.39,6.39,0,0,0-6.35,6v14.71h-3.91Z"/><path class="cls-2" d="M225.85,109l-8.29-11.19h5l5.71,8.27,5.93-8.27h4.7l-8.19,10.87,9.2,12.75h-5l-6.63-9.78-6.63,9.78h-4.74Z"/><circle class="cls-2" cx="175.21" cy="118.8" r="2.5"/><path class="cls-2" d="M56.59,79.29h1.32v31.09a10.91,10.91,0,0,1-1,4.76,12.2,12.2,0,0,1-2.8,3.75,12.49,12.49,0,0,1-4.15,2.46,15.41,15.41,0,0,1-10.21,0,12.83,12.83,0,0,1-4.18-2.46,11.6,11.6,0,0,1-2.8-3.75,11.19,11.19,0,0,1-1-4.76V79.29H33v31.09a9.33,9.33,0,0,0,1,4.33,10.79,10.79,0,0,0,2.66,3.36,11.58,11.58,0,0,0,3.77,2.14,13.13,13.13,0,0,0,4.38.74,12.93,12.93,0,0,0,4.36-.74,11.8,11.8,0,0,0,3.75-2.14,10.91,10.91,0,0,0,2.65-3.36,9.33,9.33,0,0,0,1-4.33Zm-2.66,0h1.33v31.09a8.46,8.46,0,0,1-.86,3.83,9.36,9.36,0,0,1-2.34,3,11,11,0,0,1-3.34,1.93,11.34,11.34,0,0,1-7.79,0,11,11,0,0,1-3.34-1.93,9.74,9.74,0,0,1-2.37-3,8.22,8.22,0,0,1-.89-3.83V79.29h1.38v31.09a8,8,0,0,0,.67,3.3,7.63,7.63,0,0,0,1.87,2.62A8.66,8.66,0,0,0,41.13,118a10.9,10.9,0,0,0,3.69.61,10.73,10.73,0,0,0,3.64-.61,8.66,8.66,0,0,0,2.88-1.72,8,8,0,0,0,1.9-2.62,7.8,7.8,0,0,0,.69-3.3Zm-2.59,0h1.27v31.09a6.48,6.48,0,0,1-2.37,5.13,8,8,0,0,1-2.47,1.37,9,9,0,0,1-3,.48,9.24,9.24,0,0,1-3-.48,7.88,7.88,0,0,1-2.5-1.37A6.48,6.48,0,0,1,37,110.38V79.29h1.27v31.09A5.38,5.38,0,0,0,40,114.66a7.08,7.08,0,0,0,4.81,1.53,7,7,0,0,0,4.79-1.53,5.43,5.43,0,0,0,1.73-4.28Z"/><path class="cls-2" d="M86.63,80.51H60.34V79.29H86.63ZM74.12,121.43H72.79V82.89H60.34V81.72H86.63v1.17H74.12Zm-2.6,0H70.2V85.32H60.34V84.1H71.52Zm5.25,0H75.38V84.1H86.63v1.22H76.77Z"/><path class="cls-2" d="M115.4,109.74a12.86,12.86,0,0,1-.92,5,9.79,9.79,0,0,1-2.65,3.64,11.74,11.74,0,0,1-4.16,2.25,17.92,17.92,0,0,1-5.42.77H89.34V79.29h12.91q6,0,9.52,3t3.52,8.7A11.81,11.81,0,0,1,114,96.87a10,10,0,0,1-3.4,3.52,10.5,10.5,0,0,1,3.46,3.49A11.21,11.21,0,0,1,115.4,109.74Zm-13.15,10.52q5.49,0,8.68-2.77a9.69,9.69,0,0,0,3.2-7.75,11.38,11.38,0,0,0-1.27-5.55,9.27,9.27,0,0,0-4.21-3.8,9.38,9.38,0,0,0,4.16-3.84A11.9,11.9,0,0,0,114,91a9.69,9.69,0,0,0-3.15-7.72q-3.14-2.74-8.62-2.75H90.61v39.75ZM113,109.74a8.48,8.48,0,0,1-2.88,6.77,11.62,11.62,0,0,1-7.85,2.49H91.88V81.72h10.37c3.31,0,5.9.84,7.79,2.52A8.57,8.57,0,0,1,112.86,91,9.88,9.88,0,0,1,111,97.14a8.87,8.87,0,0,1-5,3.25,8.86,8.86,0,0,1,5.11,3.19A9.67,9.67,0,0,1,113,109.74Zm-10.73-9.93a11.09,11.09,0,0,0,4.07-.69,8.49,8.49,0,0,0,2.94-1.88,7.9,7.9,0,0,0,1.79-2.8,9.87,9.87,0,0,0,.6-3.46,7.51,7.51,0,0,0-2.45-5.87q-2.45-2.22-7-2.22h-9V99.81Zm-9,1.16v16.86h9q4.5,0,7-2.22a7.5,7.5,0,0,0,2.48-5.87,9.87,9.87,0,0,0-.6-3.46,7.71,7.71,0,0,0-1.82-2.8,8.46,8.46,0,0,0-3-1.85,11.54,11.54,0,0,0-4.07-.66ZM94.53,84.1h7.72q4,0,6.06,1.85a6.41,6.41,0,0,1,2.07,5,7.12,7.12,0,0,1-2.24,5.73,8.71,8.71,0,0,1-5.89,1.93H94.53Zm16,25.64a6.38,6.38,0,0,1-2.13,5.05,9,9,0,0,1-6.12,1.88H94.53V102.24h7.72a9.11,9.11,0,0,1,5.91,1.87A6.8,6.8,0,0,1,110.5,109.74Zm-8.25-12.31a7.7,7.7,0,0,0,5-1.56,5.86,5.86,0,0,0,2-4.89,5,5,0,0,0-1.81-4.26,8.22,8.22,0,0,0-5.11-1.4h-6.4V97.43Zm0,18.08a8.23,8.23,0,0,0,5.17-1.46,5.14,5.14,0,0,0,1.87-4.31,5.73,5.73,0,0,0-2-4.81,7.93,7.93,0,0,0-5-1.58h-6.4v12.16Z"/><path class="cls-2" d="M145.15,110.38a10.91,10.91,0,0,1-1,4.76,12.2,12.2,0,0,1-2.8,3.75,12.49,12.49,0,0,1-4.15,2.46,15.41,15.41,0,0,1-10.21,0,12.83,12.83,0,0,1-4.18-2.46,11.6,11.6,0,0,1-2.8-3.75,11.19,11.19,0,0,1-1-4.76v-20a11.34,11.34,0,0,1,1-4.78,11.19,11.19,0,0,1,2.8-3.75A13.33,13.33,0,0,1,127,79.42a15.41,15.41,0,0,1,10.21,0,13,13,0,0,1,4.15,2.44,11.74,11.74,0,0,1,2.8,3.75,11.06,11.06,0,0,1,1,4.78Zm-1.32-20a9.42,9.42,0,0,0-1-4.38,10.56,10.56,0,0,0-2.65-3.33,12.78,12.78,0,0,0-8.1-2.91,12.69,12.69,0,0,0-4.39.77,12.15,12.15,0,0,0-3.77,2.14A10.59,10.59,0,0,0,121.25,86a9.42,9.42,0,0,0-1,4.38v20a9.33,9.33,0,0,0,1,4.33,10.94,10.94,0,0,0,2.66,3.36,11.58,11.58,0,0,0,3.77,2.14,13.14,13.14,0,0,0,4.39.74,12.91,12.91,0,0,0,4.35-.74,11.8,11.8,0,0,0,3.75-2.14,10.91,10.91,0,0,0,2.65-3.36,9.33,9.33,0,0,0,1-4.33Zm-1.33,20a8.46,8.46,0,0,1-.86,3.83,9.36,9.36,0,0,1-2.34,3A11,11,0,0,1,136,119.1a11.34,11.34,0,0,1-7.79,0,11,11,0,0,1-3.34-1.93,9.36,9.36,0,0,1-2.34-3,8.46,8.46,0,0,1-.86-3.83v-20a8.63,8.63,0,0,1,.86-3.85,9.26,9.26,0,0,1,2.34-3,11,11,0,0,1,3.34-1.93,11.34,11.34,0,0,1,7.79,0,11,11,0,0,1,3.34,1.93,9.26,9.26,0,0,1,2.34,3,8.63,8.63,0,0,1,.86,3.85Zm-1.32-20a7.92,7.92,0,0,0-.7-3.33,7.65,7.65,0,0,0-1.9-2.61,8.76,8.76,0,0,0-2.88-1.69,10.48,10.48,0,0,0-3.63-.61,10.68,10.68,0,0,0-3.7.61,8.76,8.76,0,0,0-2.88,1.69,7.32,7.32,0,0,0-1.87,2.61,8.39,8.39,0,0,0-.67,3.33v20a8.11,8.11,0,0,0,.67,3.3,7.63,7.63,0,0,0,1.87,2.62,8.66,8.66,0,0,0,2.88,1.72,10.92,10.92,0,0,0,3.7.61,10.72,10.72,0,0,0,3.63-.61,8.66,8.66,0,0,0,2.88-1.72,8,8,0,0,0,1.9-2.62,7.66,7.66,0,0,0,.7-3.3Zm-1.27,20a6.48,6.48,0,0,1-2.37,5.13,7.83,7.83,0,0,1-2.51,1.37,9.4,9.4,0,0,1-5.93,0,7.83,7.83,0,0,1-2.51-1.37,6.48,6.48,0,0,1-2.37-5.13v-20a6.47,6.47,0,0,1,.64-2.93,6.81,6.81,0,0,1,1.73-2.22,7.53,7.53,0,0,1,2.51-1.4,9.4,9.4,0,0,1,5.93,0,7.53,7.53,0,0,1,2.51,1.4,6.81,6.81,0,0,1,1.73,2.22,6.47,6.47,0,0,1,.64,2.93Zm-1.33-20a5.5,5.5,0,0,0-1.73-4.33,7,7,0,0,0-4.78-1.53,7.09,7.09,0,0,0-4.82,1.53,5.45,5.45,0,0,0-1.76,4.33v20a5.38,5.38,0,0,0,1.76,4.28,7.09,7.09,0,0,0,4.82,1.53,7,7,0,0,0,4.78-1.53,5.43,5.43,0,0,0,1.73-4.28Z"/><path class="cls-2" d="M27.86,80.46H4.46v41H3.13V79.29H27.86Zm0,2.43H7.12V97H5.72V81.72H27.86Zm0,2.38H9.65V97H8.38V84.1H27.86Z"/><path class="cls-2" d="M167.77,121.43h-19V79.29h1.32v41h17.7Zm0-2.43H151.34V79.29h1.33v38.54h15.1Zm0-2.38H154V79.29h1.27v36.16h12.51Z"/><g class="cls-3"><path class="cls-2" d="M4.4,121.43H3.14v-31a11.34,11.34,0,0,1,1-4.78,11.19,11.19,0,0,1,2.8-3.75,13.33,13.33,0,0,1,4.18-2.44,14.85,14.85,0,0,1,5.1-.87,14.86,14.86,0,0,1,5.11.87,13,13,0,0,1,4.15,2.44,11.74,11.74,0,0,1,2.8,3.75,11.06,11.06,0,0,1,1,4.78v1.22H28V90.39A9.42,9.42,0,0,0,27,86a10.56,10.56,0,0,0-2.65-3.33,12.78,12.78,0,0,0-8.11-2.91,12.67,12.67,0,0,0-4.38.77,12.15,12.15,0,0,0-3.77,2.14A10.59,10.59,0,0,0,5.41,86a9.42,9.42,0,0,0-1,4.38ZM7.11,99.86H20.78V101H7.11v20.41H5.73v-31a8.39,8.39,0,0,1,.89-3.85,9.63,9.63,0,0,1,2.37-3,11,11,0,0,1,3.34-1.93,11.34,11.34,0,0,1,7.79,0,11,11,0,0,1,3.34,1.93,9.26,9.26,0,0,1,2.34,3,8.63,8.63,0,0,1,.86,3.85v1.22H25.34V90.39a8.08,8.08,0,0,0-.7-3.33,7.65,7.65,0,0,0-1.9-2.61,8.76,8.76,0,0,0-2.88-1.69,10.5,10.5,0,0,0-3.64-.61,10.66,10.66,0,0,0-3.69.61,8.76,8.76,0,0,0-2.88,1.69,7.32,7.32,0,0,0-1.87,2.61,8.22,8.22,0,0,0-.67,3.33Zm2.54-2.43H20.78v1.26H8.38v-8.3A6.47,6.47,0,0,1,9,87.46a6.81,6.81,0,0,1,1.73-2.22,7.53,7.53,0,0,1,2.51-1.4,9.14,9.14,0,0,1,3-.48,9,9,0,0,1,3,.48,7.64,7.64,0,0,1,2.47,1.4,6.81,6.81,0,0,1,1.73,2.22A6.47,6.47,0,0,1,24,90.39v1.22H22.74V90.39A5.5,5.5,0,0,0,21,86.06a7,7,0,0,0-4.79-1.53,7.08,7.08,0,0,0-4.81,1.53,5.45,5.45,0,0,0-1.76,4.33Zm0,24H8.38V102.24h12.4v1.21H9.65Z"/></g><path class="cls-2" d="M197.25,43.19l-.22-.1.22.1c0-9-.95-20.55-.95-20.55s0,0,0,0a113.28,113.28,0,0,0-18.62-3.36v0h0c-9.14,13.16-10,17.22-10,17.44l.11,0-.11,0h0c8,12.11,12.06,14.63,12.06,14.63,7.09-2.06,17.56-8.13,17.56-8.13Z"/><path class="cls-2" d="M211.32,13.61h0s12.75,6.78,15.35,10.67c.23.34,2.59-1.38,3.85-4.34h0a40.91,40.91,0,0,0-3.15-4.55l-.05-.06q-.24-.32-.51-.63l-.09-.11-.49-.58-.12-.14-.5-.55-.13-.15c-.17-.18-.34-.35-.5-.53l-.15-.15-.51-.52-.15-.15-.52-.51-.15-.14-.54-.5-.15-.14-.55-.49-.15-.12-.57-.49-.13-.11-.61-.49-.11-.09-.64-.49L220,8.19l-.68-.5,0,0a39.55,39.55,0,0,0-11.63-5.73A74.69,74.69,0,0,1,211.32,13.61Z"/><path class="cls-2" d="M225.44,69.2c.19-.2.37-.41.56-.62l.19-.22c.16-.19.33-.38.49-.58l.2-.24.48-.59.18-.24.48-.63.16-.21.52-.71a1.3,1.3,0,0,1,.1-.15c.41-.59.81-1.2,1.2-1.81h0q.27-.44.54-.9l.11-.18.42-.74.13-.24c.13-.23.25-.47.38-.71l.13-.26c.12-.23.24-.47.35-.71.05-.08.09-.17.13-.25l.35-.75c0-.08.07-.15.1-.23.13-.28.25-.57.37-.86l.06-.12c.28-.68.55-1.37.8-2.08h0c-3.14-9-5.53-10.91-5.74-11.17,0,0,0,0,0,0a44.54,44.54,0,0,1-13.4,9.25.18.18,0,0,0-.11.16c-.1,5.6-2.51,17-2.53,17.11.4-.26-.42.28,0,0-.41.28.41-.26,0,0h0a32,32,0,0,0,12.54-.39h0l.72-.76Z"/><path class="cls-2" d="M194.16,77.84l.45-.07h0C186.46,75.05,178.85,69,178.85,69h-.06a39,39,0,0,1-11.35.85h0a41.41,41.41,0,0,0,5.43,4.82l0,0,.68.49.07,0,.67.46.1.07.66.43.12.07.66.41.12.08.68.4.11.06c.23.14.46.27.7.39l.1.06.72.38.07,0c.25.14.51.26.77.39h0A39.11,39.11,0,0,0,186,81h0c.28.07.56.15.84.21l.09,0,.8.18.12,0,.8.17.14,0,.79.15.15,0,.8.13.13,0,.82.11h.12c.28,0,.56.07.85.09h.07l.9.08h0a20.45,20.45,0,0,0,1.16-4.54Z"/><path class="cls-2" d="M194.61,77.77s-.1,0-.05,0h0c-8.15-2.71-15.73-8.78-15.73-8.78h-.08a39.08,39.08,0,0,1-11.36.85h0a40.61,40.61,0,0,0,5.42,4.82l0,0,.68.49.07.05.67.46.1.07.66.43.12.07.66.42.12.07.68.4.11.07.7.38.1.06.72.38.07,0,.77.38h0A39.11,39.11,0,0,0,186,81h0l.83.22.09,0,.81.19.12,0,.79.17.14,0c.26.06.53.1.79.15l.15,0,.8.13.13,0,.82.11h.12c.28,0,.56.07.85.09h.07l.9.08h0a20.93,20.93,0,0,0,1.16-4.54Z"/><path class="cls-2" d="M157.79,39.73l-.4.15.4-.15h0s-.5-2.9-.93-5.82c-.05.25-.09.49-.13.74l0,.22c0,.22-.07.44-.1.66s0,.21,0,.31,0,.41-.08.62,0,.25,0,.37l-.06.57,0,.44c0,.18,0,.35,0,.52s0,.34,0,.51,0,.32,0,.47,0,.41,0,.62,0,.25,0,.37c0,.34,0,.67,0,1s0,.75,0,1.13c0,.12,0,.24,0,.37l0,.76,0,.43c0,.23,0,.46,0,.69l0,.44c0,.23.05.45.07.68s0,.29.05.44l.09.68c0,.14,0,.28,0,.42s.07.47.11.71l.06.38.15.8c0,.09,0,.18,0,.28.07.36.15.72.23,1.08C157.25,46.57,157.35,41.18,157.79,39.73Z"/><path class="cls-2" d="M157.79,39.76l-.4.15.4-.15h0s-.5-2.89-.93-5.81c-.05.24-.09.49-.13.74l0,.22c0,.22-.07.44-.1.66s0,.21,0,.31,0,.41-.08.61,0,.25,0,.38l-.06.57,0,.44c0,.17,0,.35,0,.52s0,.34,0,.51,0,.31,0,.47,0,.41,0,.62,0,.25,0,.37c0,.33,0,.67,0,1s0,.75,0,1.13c0,.12,0,.24,0,.36l0,.76,0,.43c0,.23,0,.47,0,.7l0,.44c0,.23.05.45.07.67s0,.3.05.45l.09.67c0,.15,0,.29,0,.43s.07.47.11.7l.06.39.15.8c0,.09,0,.18,0,.27.07.37.15.73.23,1.09C157.25,46.59,157.35,41.21,157.79,39.76Z"/><path class="cls-2" d="M176.35,8.06h0c0-.07,0-.15,0-.22s0,.15,0,.22S182.85,3,188.66,1h0c-1.24.25-2.47.55-3.67.92h0a38.91,38.91,0,0,0-4.63,1.73l-.1,0-1.05.49,0,0c-.72.35-1.44.73-2.14,1.12l-.12.07-.89.53-.18.1-.92.58-.06,0-1,.68,0,0-.9.64-.2.15L172,8.7l-.2.16c-.3.23-.59.47-.88.72C172.28,9.18,174.07,8.68,176.35,8.06Z"/></svg>