<?xml version="1.0" encoding="UTF-8"?><svg id="a" xmlns="http://www.w3.org/2000/svg" viewBox="0 0 213.79 125"><path d="M81.49,57.07h3.79v14.49c0,9.43-4.27,14.18-12.28,14.18s-12.33-4.74-12.33-14.18v-14.49h3.79v13.65c0,2.95,0,5.38,.79,7.05,1.32,2.84,4.22,4.49,7.75,4.49,2.58,0,4.85-.96,6.32-2.48,2.21-2.37,2.16-5.06,2.16-9.06v-13.64Z" style="fill:#af3238;"/><path d="M95.78,61.13c2.11-3.06,4.37-4.81,7.22-4.81,1.14,0,2.26,.33,3.2,.96l-1.9,3.06c-.58-.32-1.23-.5-1.9-.53-2.64,0-5.01,2.27-6.06,6.11-.47,1.79-.58,4.69-.58,8.49v10.64h-3.78v-27.98h3.8v4.06Z" style="fill:#af3238;"/><path d="M131.95,57.07h3.52v27.98h-3.52v-4.81c-3.06,3.69-6.91,5.48-11.28,5.48-8.17,0-14.34-6.8-14.34-14.76s6.32-14.65,14.44-14.65c4.53,0,8.38,1.95,11.17,5.85v-5.1Zm-21.92,14.02c0,6.06,4.74,11.38,11.01,11.38,5.75,0,11.17-4.32,11.17-11.28,0-6.48-4.85-11.38-11.12-11.38s-11.07,5.27-11.07,11.28" style="fill:#af3238;"/><path d="M29.92,62.18c2.79-3.9,6.64-5.85,11.12-5.85,8.17,0,14.49,6.69,14.49,14.65s-6.17,14.76-14.39,14.76c-4.37,0-8.17-1.79-11.21-5.48v15.02h-3.6V57.07h3.58v5.11Zm-.26,9.01c0,6.96,5.37,11.28,11.12,11.28,6.22,0,11.07-5.27,11.07-11.38s-4.64-11.28-11.07-11.28-11.12,4.9-11.12,11.38" style="fill:#af3238;"/><path d="M56.68,38.22c-.9-.69-1.95-1.52-3.35-2.46-2.56-1.67-5-3.51-7.32-5.49-1.02-.86-2.09-1.66-3.2-2.39-.16-.1-.22-.32-.11-.48h0c.21-.36,.59-.96,1.09-1.78s1.03-1.72,1.68-2.77c.14-.23,.28-.46,.43-.7h0c2.61-4.29,6.14-10.09,8.47-14,.19-.32,.09-.73-.22-.92-.26-.16-.6-.12-.82,.1-4.01,3.89-10.22,9.95-13.34,12.99-.25,.25-.49,.48-.7,.68l-1.23,1.19c.08-.45,.12-.91,.12-1.37,0-.06,0-.11,0-.17,0-.19,0-.39-.02-.6-.07-1.28-.34-2.97-.87-3.84-.45,1.35-1.6,2.46-2.42,3.68-.13,.2-.25,.39-.35,.59l-.04,.06c-.18,.34-.31,.7-.39,1.08-.13-.36-.25-.71-.37-1.07v-.04c-.06-.19-.12-.38-.18-.57-.51-1.7-.87-3.45-1.08-5.21,0,0-2.24,1.44-3.29,5.84-.03,.13-.06,.27-.09,.41v.07c-.28,1.61-.34,3.26-.18,4.89-.82-.93-3.37-4.04-3.37-4.04-1.73,.56-3.38,1.35-4.9,2.34l-.12,.08c-1.13,.73-2.21,1.54-3.23,2.42,.99,.84,2.86,2.56,3.84,4.24-1.79-1.05-3.69-1.89-5.67-2.52-2.42,2.47-4.23,5.47-5.31,8.76,1.86,1.04,3.59,2.28,5.18,3.7-1.91-.54-3.86-.95-5.83-1.21-.42,2.07-.61,4.19-.55,6.31,.17,7.14,3.77,14.57,8.89,18.98,.13,.12,.28,.24,.42,.36-.15-.32-.29-.67-.41-1.01l-.05-.12c-.71-2.02-1.2-4.1-1.47-6.22-1.47-12.73,3.65-24.92,14.85-31.46,0-.06-.04-.14-.06-.21-.26-1.13-.41-2.28-.46-3.44,0-.71,.04-1.42,.14-2.12v-.03c.03-.17,.05-.34,.09-.51,.15-.82,.41-1.61,.75-2.36,.02,.75,.13,1.49,.35,2.21,.05,.19,.11,.36,.17,.54,.52,1.52,1.28,2.92,1.73,4.49,.09,.3,.16,.6,.21,.91,.5-.06,1.01-.1,1.51-.1,.52,0,1.01-.21,1.37-.59l1.97-2.08,2.49-2.62,9.68-10.19c.06-.05,.14-.05,.19,.01,.04,.04,.05,.11,.02,.16l-7.71,10.66-.88,1.21-2.91,4.01c-.32,.44-.23,1.06,.21,1.38,.02,.02,.05,.03,.07,.05,1.72,1.02,3.35,2.16,4.89,3.43,2.37,2.04,4.87,3.91,7.48,5.63,1.35,.91,2.38,1.66,3.17,2.31,.88,.82,1.27,2.03,1.05,3.2-.56,2.38-2.99,4.23-4.3,4.43-.96,.15-2.27-.43-4.67-1.41-3-1.23-4.53-1.35-7.64-.98-2.24,.27-4.35,.02-6.02-1.39-.96-.81-2.84-2.47-2.38-5.1,.02-.08-.04-.16-.12-.18-.06-.01-.13,.02-.16,.07-.79,1.27-2.01,4.3,1.24,7.84,.49,.47,1.04,.87,1.63,1.19,.65,.3,1.35,.52,2.06,.64,.69,.14,1.39,.2,2.1,.2,1.39,0,2.76-.25,4.14-.37,1.52-.19,3.06-.08,4.53,.32,2.58,.78,5.13,2,7.58,.18,.1-.05,2.8-1.88,3.63-5.02,.43-1.75-.22-3.58-1.64-4.68" style="fill:#af3238;"/><path d="M55.32,42.21s.12,.03,.16-.02c.01-.01,.02-.03,.02-.05,.11-.88-.14-2.17-1.51-2.51-.73-.19-1.28,.62-.76,1.16l.13,.12c.56,.49,1.01,.64,1.96,1.3" style="fill:#af3238;"/><path d="M40.47,34.31c.82,.14,1.62-.32,1.92-1.1,.28-.7-.25-2.56-2.32-2.19-.51,.08-.99,.31-1.38,.64-.31,.29-.55,.63-.71,1.02,.56-.32,.96-.56,1.55-.46-.73,.99,.04,1.92,.94,2.09" style="fill:#af3238;"/><path d="M200.71,112.41c-1.44,0-2.51-1.2-2.51-2.69s1.01-2.66,2.53-2.66,2.54,1.13,2.54,2.68c.07,1.4-1,2.59-2.4,2.67-.05,0-.11,0-.16,0m-.23,1.36c1.05,.01,2.05-.45,2.72-1.26v1.05h1.47v-10.63h-1.47v4.07c-.65-.84-1.66-1.33-2.72-1.31-2.11,0-3.78,1.73-3.78,4.03s1.7,4.05,3.78,4.05m-9.1-1.4c-1.39,0-2.51-1.11-2.52-2.5,0-.04,0-.08,0-.12-.07-1.39,1-2.58,2.39-2.65s2.58,1,2.65,2.39c0,.08,0,.17,0,.25,.06,1.39-1.02,2.56-2.41,2.62-.04,0-.08,0-.12,0m0,1.4c2.23-.06,3.99-1.92,3.92-4.15-.06-2.14-1.78-3.86-3.92-3.92-2.22,0-4.02,1.79-4.02,4.01,0,.01,0,.02,0,.04-.03,2.19,1.72,4,3.91,4.03,.03,0,.07,0,.1,0m-9.33-1.4c-1.38,0-2.51-1.11-2.52-2.49,0-.04,0-.08,0-.12-.07-1.39,1-2.58,2.39-2.65s2.58,1,2.65,2.39c0,.08,0,.17,0,.25,.05,1.39-1.03,2.56-2.42,2.62-.04,0-.07,0-.11,0m0,1.4c2.23,.01,4.05-1.78,4.07-4.01,.01-2.23-1.78-4.05-4.01-4.07-2.23-.01-4.05,1.78-4.07,4.01,0,.01,0,.02,0,.04-.03,2.2,1.73,4,3.92,4.03,.03,0,.06,0,.1,0m-10.2-5.33v1.46h3.18c-.48,1.63-1.78,2.46-3.44,2.46-2.41,0-4.24-1.82-4.24-4s1.75-3.94,4.09-3.94c1.33,.02,2.58,.59,3.48,1.57l1.11-1.07c-1.18-1.29-2.86-2.01-4.61-1.97-3.35,0-5.64,2.47-5.64,5.4s2.21,5.48,5.74,5.48c3.12,0,5.19-2.07,5.19-5.38h-4.87Zm-14.71,5.11h1.47v-3.93c0-1.68,.61-2.6,1.42-2.6,.19,.01,.38,.06,.55,.15l.55-1.23c-.25-.18-.55-.27-.85-.26-.71,0-1.33,.42-1.79,1.24v-1.04h-1.34v7.67Zm-5.72-1.2c-1.39,0-2.51-1.11-2.52-2.5,0-.04,0-.08,0-.12-.07-1.39,1-2.58,2.39-2.65,1.39-.07,2.58,1,2.65,2.39,0,.08,0,.17,0,.25,.06,1.39-1.02,2.56-2.41,2.62-.04,0-.08,0-.12,0m0,1.4c2.23-.06,3.99-1.92,3.92-4.15-.06-2.14-1.78-3.86-3.92-3.92-2.23,.06-3.99,1.92-3.92,4.15,.06,2.14,1.78,3.86,3.92,3.92m-7.71-.2h1.47v-6.41h1.42v-1.28h-1.42v-.79c0-.78,.04-1.06,.69-1.06,.28,0,.55,.06,.81,.18v-1.23c-.4-.16-.83-.24-1.26-.24-1.4,0-1.72,.72-1.72,2.35v.81h-.84v1.28h.84v6.39Zm-12.9,0h1.47v-3.74c0-1.82,1.01-2.79,2.17-2.79,1.32,0,1.65,.98,1.65,2.65v3.89h1.47v-4.81c0-2.01-1.19-3.08-2.73-3.08-.98,0-1.79,.45-2.56,1.28v-1.07h-1.47v7.67Zm-5.72-1.2c-1.38,0-2.51-1.11-2.52-2.49,0-.04,0-.08,0-.12-.07-1.39,1-2.58,2.39-2.65,1.39-.07,2.58,1,2.65,2.39,0,.08,0,.17,0,.25,.05,1.39-1.03,2.56-2.42,2.62-.04,0-.07,0-.11,0m0,1.4c2.23,.01,4.05-1.79,4.06-4.02s-1.79-4.05-4.02-4.06-4.05,1.79-4.06,4.02c0,.01,0,.02,0,.03-.03,2.2,1.73,4,3.92,4.03,.03,0,.06,0,.1,0m-7.18-.2h1.47v-7.67h-1.47v7.67Zm.74-8.76c.56,0,1.02-.46,1.03-1.03,0-.57-.45-1.04-1.03-1.05-.56-.01-1.03,.43-1.04,1h0c-.01,.59,.45,1.07,1.04,1.08m-4.81,8.76h1.47v-6.38h1.34v-1.28h-1.34v-2.84h-1.47v2.84h-1.17v1.28h1.17v6.38Zm-6.6-1.15c-1.44,0-2.51-1.2-2.51-2.69s1.01-2.66,2.53-2.66,2.56,1.13,2.56,2.68c.06,1.41-1.04,2.61-2.45,2.67-.04,0-.07,0-.11,0m-.23,1.36c1.05,.01,2.05-.45,2.72-1.26v1.05h1.47v-7.67h-1.47v1.11c-.65-.84-1.66-1.33-2.72-1.31-2.11,0-3.78,1.73-3.78,4.03s1.7,4.05,3.78,4.05m-5.77-7.87l-2.23,5.4-2.24-5.4h-1.53l3.33,7.67h.88l3.28-7.67h-1.5Zm-10.46,6.47c-1.38,0-2.51-1.11-2.52-2.49,0-.04,0-.08,0-.12-.07-1.39,1-2.58,2.39-2.65,1.39-.07,2.58,1,2.65,2.39,0,.08,0,.17,0,.25,.05,1.39-1.03,2.56-2.42,2.62-.04,0-.07,0-.11,0m0,1.4c2.23,.01,4.05-1.79,4.06-4.02s-1.79-4.05-4.02-4.06-4.05,1.79-4.06,4.02c0,.01,0,.02,0,.03-.03,2.2,1.73,4,3.92,4.03,.03,0,.06,0,.1,0m-12.39-.2h1.47v-3.74c0-1.82,1.01-2.79,2.17-2.79,1.32,0,1.65,.98,1.65,2.65v3.89h1.47v-4.81c0-2.01-1.18-3.08-2.73-3.08-.98,0-1.79,.45-2.56,1.28v-1.07h-1.47v7.67Zm-8.77,0h1.47v-3.74c0-1.82,1.01-2.79,2.17-2.79,1.31,0,1.65,.98,1.65,2.65v3.89h1.47v-4.81c0-2.01-1.19-3.08-2.73-3.08-.98,0-1.79,.45-2.56,1.28v-1.07h-1.47v7.67Zm-3.94,0h1.53v-10.37h-1.53v10.37Zm-10.27-1.16c-1.44,0-2.51-1.2-2.51-2.69s1.01-2.66,2.53-2.66,2.54,1.13,2.54,2.68c.07,1.4-1,2.59-2.4,2.67-.05,0-.11,0-.16,0m-.23,1.36c1.05,.01,2.05-.45,2.72-1.25v1.05h1.47v-10.64h-1.47v4.07c-.65-.84-1.66-1.32-2.72-1.31-2.11,0-3.79,1.73-3.79,4.03s1.7,4.05,3.79,4.05m-9.1-1.4c-1.38,0-2.51-1.11-2.52-2.49,0-.04,0-.08,0-.12-.07-1.39,1-2.58,2.39-2.65s2.58,1,2.65,2.39c0,.08,0,.17,0,.25,.05,1.39-1.03,2.56-2.42,2.62-.04,0-.07,0-.11,0m0,1.4c2.23-.06,3.99-1.92,3.92-4.15-.06-2.14-1.78-3.86-3.92-3.92-2.22,0-4.02,1.79-4.02,4.01,0,.01,0,.02,0,.04-.03,2.19,1.72,4,3.91,4.03,.03,0,.07,0,.1,0m-9.33-1.4c-1.38,0-2.51-1.11-2.51-2.5,0-.04,0-.08,0-.12,0-1.49,1.08-2.66,2.51-2.66,1.42,.02,2.55,1.18,2.53,2.59v.06c.05,1.39-1.03,2.56-2.42,2.62-.04,0-.08,0-.11,0m0,1.4c2.23,.01,4.05-1.78,4.07-4.01,.01-2.23-1.78-4.05-4.01-4.07-2.23-.01-4.05,1.78-4.07,4.01,0,.01,0,.02,0,.04-.03,2.19,1.72,4,3.91,4.03,.03,0,.07,0,.1,0m-10.4-.2h1.5v-4.87h3.67v-1.49h-3.67v-2.53h3.67v-1.49h-5.17v10.37Z" style="fill:#af3238;"/><path d="M185.87,71.14c0,7.96-6.17,14.65-14.6,14.65s-14.6-6.69-14.6-14.65,6.22-14.81,14.6-14.81,14.6,6.8,14.6,14.81m-25.51,.05c0,6.11,4.58,11.12,10.89,11.12s10.91-5.01,10.91-11.12-4.95-11.38-10.91-11.38-10.89,5.16-10.89,11.38" style="fill:#af3238;"/><path d="M190.42,79.2c1.79,2,3.75,3.11,5.85,3.11,2.74,0,5.16-2,5.16-4.64,0-1.62-.9-3.11-2.32-3.9-6.43-3.58-9.7-5.13-9.7-10.01,0-4.42,3.42-7.43,7.69-7.43,3.06,0,5.38,1.48,7.75,3.79l-2.32,2.37c-1.69-1.63-3.37-2.69-5.64-2.69s-4.22,1.63-4.22,3.74c.05,1.53,.86,2.93,2.16,3.74,6.43,3.74,10.01,5.16,10.01,10.22,0,4.37-3.37,8.27-8.43,8.27-3.22,0-6.27-1.48-8.28-4l2.27-2.58Z" style="fill:#af3238;"/><path d="M154,82.94c-.62,.11-1.25,.17-1.88,.17-3.07,0-4.12-1.39-4.12-4.31v-18.49h5.81v-3.18h-5.81v-10.49h-3.61v10.49h-5.03v3.17h5.03v18.48c0,4.31,1.73,7.22,6.9,7.22,1.16,0,2.32-.13,3.45-.39l-.74-2.68Z" style="fill:#af3238;"/></svg>