<svg id="Capa_1" data-name="Capa 1" xmlns="http://www.w3.org/2000/svg" viewBox="0 0 277.05 125"><defs><style>.cls-1{fill:#242020;}</style></defs><polygon class="cls-1" points="223.39 73.06 222.89 44.02 232.05 44.02 232.05 80.64 218.88 80.64 209.72 50.6 209.51 50.6 210.02 80.64 200.93 80.64 200.93 44.02 214.68 44.02 223.19 73.06 223.39 73.06"/><polygon class="cls-1" points="56.88 47.44 51.81 81.02 41.82 81.02 48.67 44.02 65.14 44.02 71.95 81.02 62.02 81.02 57.09 47.44 56.88 47.44"/><polygon class="cls-1" points="100.01 72.31 104.58 44.02 119.67 44.02 120.49 81.02 111.23 81.02 110.99 47.75 110.79 47.76 104.61 81.02 95.22 81.02 89.04 47.75 88.83 47.75 88.6 81.02 79.35 81.02 80.17 44.02 95.25 44.02 99.81 72.31 100.01 72.31"/><path class="cls-1" d="M26.24,70.58a4.86,4.86,0,0,1,.07,2.74c-.3,1.21-1.13,2.47-3.6,2.47-2.31,0-3.72-1.32-3.72-3.34V68.86H9.07v2.86c0,8.25,6.48,10.73,13.44,10.73,6.7,0,12.19-2.27,13.08-8.44a18.18,18.18,0,0,0,0-6.09C34,60.17,20,57.88,18.89,53.54a4.87,4.87,0,0,1,0-1.93,3.07,3.07,0,0,1,3.39-2.49,3.15,3.15,0,0,1,3.44,3.35v2.28h9.23V52.17c0-8.08-7.24-9.34-12.47-9.34-6.59,0-12,2.18-12.94,8.23a12.53,12.53,0,0,0,.09,5C11.19,63.59,24.34,65.78,26.24,70.58Z"/><path class="cls-1" d="M146.55,70.51a5,5,0,0,1,.07,2.72c-.3,1.21-1.13,2.43-3.57,2.43s-3.69-1.3-3.69-3.3V68.81h-9.83v2.82c0,8.18,6.44,10.62,13.33,10.62,6.62,0,12.08-2.24,12.94-8.35a18.23,18.23,0,0,0,0-6c-1.55-7.67-15.46-9.94-16.49-14.24a4.55,4.55,0,0,1,0-1.9,3,3,0,0,1,3.35-2.47,3.12,3.12,0,0,1,3.4,3.3v2.27h9.14V52.27c0-8-7.17-9.23-12.34-9.23-6.52,0-11.84,2.13-12.82,8.14a12.28,12.28,0,0,0,.09,4.93C131.64,63.59,144.66,65.76,146.55,70.51Z"/><path class="cls-1" d="M177.6,75.46a3.32,3.32,0,0,0,3.56-2.66,8,8,0,0,0,.09-1.42V44h9.38V70.53c0,.69-.06,2.08-.1,2.45-.65,6.9-6.12,9.13-12.93,9.13S165.34,79.88,164.7,73c0-.37-.1-1.76-.09-2.45V44H174V71.38a8,8,0,0,0,.09,1.42A3.32,3.32,0,0,0,177.6,75.46Z"/><path class="cls-1" d="M254.79,75.09c2.68,0,3.64-1.69,3.81-2.68a7.19,7.19,0,0,0,.08-1.41V65.63h-3.81V60.22H268v9.94c0,.69,0,1.2-.11,2.44-.62,6.73-6.47,9.14-13,9.14s-12.4-2.41-13-9.14a24,24,0,0,1-.13-2.44V54.58a23.41,23.41,0,0,1,.16-2.42c.82-6.95,6.42-9.15,13-9.15s12.33,2.19,13,9.15c.1,1.16.06,2.42.07,2.42v1.24H258.6V53.74a9.12,9.12,0,0,0-.12-1.39c-.17-.82-.89-2.69-3.72-2.69a3.41,3.41,0,0,0-3.68,2.69,8.2,8.2,0,0,0-.15,1.73V71a8,8,0,0,0,.08,1.41C251.19,73.4,252.12,75.09,254.79,75.09Z"/></svg>