<svg id="Capa_1" data-name="Capa 1" xmlns="http://www.w3.org/2000/svg" xmlns:xlink="http://www.w3.org/1999/xlink" viewBox="0 0 129.4 125"><defs><style>.cls-1{fill:none;}.cls-2{fill:#fff;}.cls-3{fill:#f5dc49;}.cls-4{fill:#242020;}.cls-5{fill:#008b99;}.cls-6{fill:#fddf4f;}.cls-7{fill:#308593;}.cls-8{isolation:isolate;}.cls-9{clip-path:url(#clip-path);}.cls-10{fill:#242021;}</style><clipPath id="clip-path"><polygon class="cls-1" points="29.07 105.1 29.11 88.43 108.56 77.26 108.53 93.93 29.07 105.1"/></clipPath></defs><path class="cls-2" d="M64.7,113.88A51.38,51.38,0,1,1,116.08,62.5,51.39,51.39,0,0,1,64.7,113.88Z"/><path class="cls-3" d="M64.7,6A56.51,56.51,0,1,0,121.21,62.5,56.51,56.51,0,0,0,64.7,6Zm0,107.89A51.38,51.38,0,1,1,116.08,62.5,51.39,51.39,0,0,1,64.7,113.88Z"/><path class="cls-4" d="M27.71,61.81H25.89v-3.6h1.88a2.51,2.51,0,0,0,.49,1.68,1.88,1.88,0,0,0,1.48.55A2.38,2.38,0,0,0,31,60.13a1.07,1.07,0,0,0,.53-1,1.72,1.72,0,0,0-.21-.89,1.17,1.17,0,0,0-.63-.52c-.28-.1-.68-.21-1.2-.36s-1.05-.29-1.58-.48A3.16,3.16,0,0,1,26.52,56a2.64,2.64,0,0,1-.55-1.8,3.27,3.27,0,0,1,.8-2.14,3,3,0,0,1,2.42-.95,3.12,3.12,0,0,1,2.42,1v-.77h1.83V54.6H31.57A2.55,2.55,0,0,0,31,53a2.06,2.06,0,0,0-1.28-.33,1.62,1.62,0,0,0-1.05.32,1.05,1.05,0,0,0-.39.86c0,.61.42,1.06,1.26,1.36s1.47.45,2.07.65a3.5,3.5,0,0,1,1.54,1,2.7,2.7,0,0,1,.62,1.9A3.42,3.42,0,0,1,32.9,61a3.31,3.31,0,0,1-2.68,1,4.2,4.2,0,0,1-1.29-.17,3,3,0,0,1-1.22-.93Z"/><path class="cls-4" d="M44,58.34v3.44H34.89V60.21h1.34V52.82H34.89V51.36H44v3H42.25V52.82H38.39v2.9h3v1.44h-3v3.05h3.83V58.34Z"/><path class="cls-4" d="M100.62,71.9v3.44H91.55V73.78h1.34v-7.4H91.55V64.92h9.07V68H98.91v-1.6H95.05v2.91h3v1.44h-3v3.06h3.83V71.9Z"/><path class="cls-4" d="M53,58.18h2.12A3.79,3.79,0,0,1,50.84,62,5.5,5.5,0,0,1,47,60.66a5.41,5.41,0,0,1-1.46-4.19,5.75,5.75,0,0,1,1.27-3.85,4.35,4.35,0,0,1,3.52-1.5,3.28,3.28,0,0,1,2.88,1.45V51.42H55v3.77H53.08a3.74,3.74,0,0,0-.77-1.9,2,2,0,0,0-1.61-.65,2.44,2.44,0,0,0-2.1,1.07,4.86,4.86,0,0,0-.76,2.89,5.15,5.15,0,0,0,.69,2.77,2.45,2.45,0,0,0,2.23,1.1,2.07,2.07,0,0,0,1.43-.55A2.68,2.68,0,0,0,53,58.18Z"/><path class="cls-4" d="M56.19,51.36H61v1.49H59.69V58a2.9,2.9,0,0,0,.48,1.8,2,2,0,0,0,1.66.63,2.18,2.18,0,0,0,1.57-.53A2.58,2.58,0,0,0,64,58V52.85H62.65V51.36h4.76v1.49H66.1V58a4.26,4.26,0,0,1-.94,3,4.32,4.32,0,0,1-3.33,1,4.76,4.76,0,0,1-3.2-1A3.87,3.87,0,0,1,57.53,58V52.85H56.19Z"/><path class="cls-4" d="M73.5,57.41H71.92v2.81h1.65v1.57H68.42V60.21h1.34V52.82H68.42V51.36h5.73a3.78,3.78,0,0,1,2.71.78,2.8,2.8,0,0,1,.79,2.09A2.2,2.2,0,0,1,77.07,56a3.91,3.91,0,0,1-1.74.77,2.56,2.56,0,0,1,1.1.37,1.73,1.73,0,0,1,.63,1l.61,2.06h1v1.6H75.91l-1-3.24a1.35,1.35,0,0,0-.52-.82A1.58,1.58,0,0,0,73.5,57.41Zm.18-4.59H71.92V56h1.86A1.64,1.64,0,0,0,75,55.56a1.7,1.7,0,0,0,.42-1.21A1.39,1.39,0,0,0,75,53.2,2,2,0,0,0,73.68,52.82Z"/><path class="cls-4" d="M79.58,61.78V60.21h1.31V52.82H79.58V51.36h4.81v1.46H83.05v7.39h1.34v1.57Z"/><path class="cls-4" d="M87.31,61.78V60.21h1.46V52.82H87.14v2.09H85.31V51.36H94.4v3.55H92.57V52.82H90.94v7.39h1.43v1.57Z"/><path class="cls-4" d="M99.36,58,96,52.82H95.2V51.36h4.62v1.46h-1.3l2,3.37,2.06-3.37H101.3V51.36h4.39v1.46h-.76L101.52,58v2.23h1.31v1.57H98.05V60.21h1.31Z"/><path class="cls-4" d="M28.94,75.27V73.71H30.3v-7.4H28.94V64.86H38v3.45H36.32v-2H32.46v3h3v1.49H33.9v0H32.46v2.89H33.8v1.56Z"/><path class="cls-4" d="M39,75.27V73.71h1.31v-7.4H39V64.86h4.81v1.45H42.5v7.4h1.34v1.56Z"/><path class="cls-4" d="M44.76,75.27V73.71H46.1v-7.4H44.76V64.86h4.32L53,72.78V66.31H51.7V64.86h4.37v1.45H54.92v9H52.15L48,66.82v6.89h1.28v1.56Z"/><path class="cls-4" d="M68.61,75.27V73.71h1.25v-7.4H68.61V64.86h4l3.66,7.92V66.31H75.09V64.86h4.09v1.45H78.1v9H75.51l-3.88-8.45v6.89h1.19v1.56Z"/><path class="cls-4" d="M87.88,71.68H90a3.78,3.78,0,0,1-4.25,3.82,5.51,5.51,0,0,1-3.87-1.33A5.42,5.42,0,0,1,80.42,70a5.73,5.73,0,0,1,1.27-3.85,4.35,4.35,0,0,1,3.52-1.51,3.32,3.32,0,0,1,2.88,1.46V64.92h1.82v3.77H88a3.83,3.83,0,0,0-.76-1.9,2,2,0,0,0-1.62-.65,2.45,2.45,0,0,0-2.1,1.07,4.88,4.88,0,0,0-.76,2.89,5.09,5.09,0,0,0,.69,2.76A2.44,2.44,0,0,0,85.68,74a2.14,2.14,0,0,0,1.43-.55A2.72,2.72,0,0,0,87.88,71.68Z"/><path class="cls-4" d="M60.45,73.76v1.51H56.69V73.76h.74l3.3-8.66h2.4l3.29,8.66h.71v1.51H63.19V73.76h1.12l-.56-1.63H59.88l-.57,1.63Zm2.77-3.12-1.4-3.88-1.43,3.88Z"/><rect class="cls-4" x="59.06" y="64.82" width="5.72" height="1.38"/><rect class="cls-5" x="39.61" y="22.73" width="50.67" height="24.75"/><path class="cls-6" d="M86,43.71a12.88,12.88,0,0,0-1.56-6.11h0a16.66,16.66,0,0,0-4.36-5.11h0A23.92,23.92,0,0,0,65.3,27.66h0a25,25,0,0,0-11.71,2.83h0a17.79,17.79,0,0,0-7.42,7.11h0a12.88,12.88,0,0,0-1.56,6.11h0a1.54,1.54,0,0,1-1.52,1.55h0a1.54,1.54,0,0,1-1.53-1.55h0a16,16,0,0,1,1.93-7.59h0a19.49,19.49,0,0,1,5.16-6.07h0A26.86,26.86,0,0,1,65.3,24.57h0a27.92,27.92,0,0,1,13.14,3.18h0a20.8,20.8,0,0,1,8.67,8.37h0A16,16,0,0,1,89,43.71h0a1.54,1.54,0,0,1-1.52,1.55h0A1.54,1.54,0,0,1,86,43.71Z"/><path class="cls-6" d="M45.65,44A12.32,12.32,0,0,1,47.25,38h0a15.63,15.63,0,0,1,4.25-4.84h0a22.49,22.49,0,0,1,13.61-4.33h0a22.55,22.55,0,0,1,13.3,4.1h0A1.52,1.52,0,0,1,78.74,35h0a1.51,1.51,0,0,1-2.12.33h0a19.55,19.55,0,0,0-11.49-3.51h0A20.48,20.48,0,0,0,55.77,34h0a13.9,13.9,0,0,0-5.87,5.44h0A9.38,9.38,0,0,0,48.68,44h0a1.52,1.52,0,0,1-1.52,1.51h0A1.51,1.51,0,0,1,45.65,44Z"/><path class="cls-6" d="M50.43,44a8.66,8.66,0,0,1,1.18-4.31h0a11.21,11.21,0,0,1,3.09-3.4h0a16.57,16.57,0,0,1,9.79-3h0A1.51,1.51,0,0,1,66,34.71h0a1.51,1.51,0,0,1-1.54,1.48h0a14.26,14.26,0,0,0-6.3,1.41h0a9.16,9.16,0,0,0-3.9,3.47h0A5.83,5.83,0,0,0,53.5,44h0A1.51,1.51,0,0,1,52,45.44h0A1.52,1.52,0,0,1,50.43,44Z"/><path class="cls-7" d="M64.7.85A61.65,61.65,0,1,0,126.35,62.5,61.65,61.65,0,0,0,64.7.85ZM64.7,119A56.51,56.51,0,1,1,121.21,62.5,56.51,56.51,0,0,1,64.7,119Z"/><g class="cls-8"><g class="cls-9"><path class="cls-10" d="M34.24,90.08h0a3,3,0,0,0-1.26.53,9.3,9.3,0,0,0-3.87,6.8c0,1.17.44,2.23,1.6,2.06a5.51,5.51,0,0,0,2.5-1.18,7.88,7.88,0,0,0,2.13-2.15c.08-.22.06-.37,0-.35s-.11,0-.19.12c-.38.36-2.29,2.29-3.93,2.52-.65.09-1-.27-1-1.14A8.61,8.61,0,0,1,31.61,93a4.59,4.59,0,0,1,2.35-2c.26,0,.36.11.36.21a.79.79,0,0,1-.06.29c0,.09-.06.2.08.18l.07,0a1.21,1.21,0,0,0,.73-1c0-.55-.47-.73-.9-.67"/><path class="cls-10" d="M39.92,91.44h0c-.36,0-.73.38-1.19.94a19.73,19.73,0,0,0-1.9,2.83c-.08.11-.13.18-.16.18s0-.06,0-.19a11.48,11.48,0,0,1,.6-2.3,1.18,1.18,0,0,0,.16-.5c0-.22-.14-.57-.38-.54s-.44.38-.57.57-.23.47-.32,1.12a36.21,36.21,0,0,1-.87,4.29c-.11.28-.12.49,0,.64a.42.42,0,0,0,.39.21c.15,0,.29-.14.39-.4a22.43,22.43,0,0,1,2.31-4.5c.39-.54.74-1,1-1a.56.56,0,0,1,.39.11.21.21,0,0,0,.14,0,.46.46,0,0,0,.25-.19,1.64,1.64,0,0,0,.32-.71c.06-.34-.13-.62-.49-.57"/><path class="cls-10" d="M41.66,94.36c-.22,0-.26,0-.2-.16.27-.74,1-2.09,1.38-2.15.22,0,.46.18.46.62a2,2,0,0,1-1.63,1.69h0M42.93,91c-.62.09-1.57,1.61-1.85,2.1A9.21,9.21,0,0,0,40,96.48h0c0,1.05.65,1.55,1.27,1.46a5.88,5.88,0,0,0,3.26-2.35c.17-.28.24-.48.2-.62a.18.18,0,0,0-.11,0,.41.41,0,0,0-.26.16A5.26,5.26,0,0,1,41.65,97c-.46.07-.75-.17-.75-.75a3.29,3.29,0,0,1,.21-1c0-.09.06-.12.09-.13a.09.09,0,0,1,.06,0,.54.54,0,0,0,.4.11,3.06,3.06,0,0,0,2-1.33,2.88,2.88,0,0,0,.57-1.64c0-.56-.31-.82-.7-.78-.14,0-.18-.09-.18-.14a.31.31,0,0,0-.38-.29m1.67-3.62c-.18,0-.32.17-.49.44A21.37,21.37,0,0,1,42.47,90c-.14.17-.19.27-.19.34v0c0,.07,0,.08.13.07l.19-.06A9.41,9.41,0,0,0,45,88.13c.17-.19.22-.38.09-.53a.49.49,0,0,0-.47-.21"/><path class="cls-10" d="M46.12,96.16c-.16,0-.28-.09-.28-.34a5.7,5.7,0,0,1,.91-2.36c.65-1.12,1.45-2.08,2-2.16h0a.61.61,0,0,1,.56.16c.08.08.11.21,0,.42A11.11,11.11,0,0,1,47.51,95c-.63.8-1.14,1.17-1.39,1.21M51.9,85.22c-.12,0-.21.08-.31.38-.23.54-1,2.73-1.72,4.83,0,.08,0,.11-.09.12l-.12,0a1,1,0,0,0-.57-.07h0A4.35,4.35,0,0,0,46.6,92.3a8.61,8.61,0,0,0-1.7,4.16c0,.81.34,1,.61.93a4.41,4.41,0,0,0,1.62-1.12,18.66,18.66,0,0,0,2-2.58c0-.07.08-.12.1-.12s0,0,0,.11a14.4,14.4,0,0,0-.2,1.6c-.05.77.17,1.49.74,1.41.84-.11,1.93-1.27,2.74-2.42l.46-1.6c-.68,1.06-2,2.9-2.73,3-.27,0-.44-.3-.37-1.11a20.41,20.41,0,0,1,1-4.53c.58-1.8,1.23-3.36,1.4-3.85a.74.74,0,0,0,0-.73c-.14-.2-.26-.24-.34-.23"/><path class="cls-10" d="M54.67,89.42c-.35,0-1.07,1.33-1.33,2a2.53,2.53,0,0,0-.14.56,2.32,2.32,0,0,1-.1.44c0,.08-.06.19-.1.3l-.46,1.6c0,.17-.09.31-.11.4a1.49,1.49,0,0,0,.07,1.09c.24.44.47.58.68.55h0a2.37,2.37,0,0,0,.91-.44A13.7,13.7,0,0,0,57,93c.12-.43.27-.92.39-1.32-1.13,1.4-2.88,3.39-3.76,3.52-.27,0-.43-.16-.26-.87a22.85,22.85,0,0,1,1.57-4.11.67.67,0,0,0,0-.75.23.23,0,0,0-.21-.09m.71-3.34h0c-.27,0-.46.17-.49.77a2.89,2.89,0,0,0,.06.71.75.75,0,0,0,.45.56.46.46,0,0,0,.21,0c.1,0,.15-.1.14-.24a5.9,5.9,0,0,1,.13-1.39c.08-.34-.16-.5-.48-.46"/><path class="cls-10" d="M59.49,86.5a1.07,1.07,0,0,0-.67.66c-.16.42-.7,2.18-.8,2.45a.43.43,0,0,1-.29.28c-.33.08-.63.19-.89.27a.81.81,0,0,0-.46.33c-.12.14-.16.35,0,.44a.4.4,0,0,0,.29.07h.07l.77-.2h.06c.1,0,.1,0,.06.18s-.14.41-.24.76-.27.89-.39,1.32l-.26.86a3,3,0,0,0-.2.93.84.84,0,0,0,1,.82,1.56,1.56,0,0,0,.61-.21A8.67,8.67,0,0,0,60.5,93.5c.13-.18.12-.38,0-.36a.29.29,0,0,0-.14.08,6.11,6.11,0,0,1-2.24,1.36h0c-.4.06-.56-.19-.46-.85a22.32,22.32,0,0,1,.85-3c.06-.2.12-.23.3-.29a27.17,27.17,0,0,0,3.07-1c.29-.12.48-.48.12-.43-1,.14-2.37.45-2.88.54-.14,0-.22,0-.17-.12s.36-1.11.82-2.14a.65.65,0,0,0,0-.65.23.23,0,0,0-.27-.16"/><path class="cls-10" d="M62.45,94.1c-.26,0-.44-.18-.44-.54v0A7.83,7.83,0,0,1,63.45,90c.3-.45.51-.7.73-.73.58-.08.66.61.66,1.14a6.14,6.14,0,0,1-1.32,3,1.77,1.77,0,0,1-1.07.72m1.9-6.25a.69.69,0,0,0-.49.35.55.55,0,0,1-.38.26.56.56,0,0,0-.42.22.81.81,0,0,0-.24.57,1.14,1.14,0,0,1-.21.58,20.37,20.37,0,0,0-1.1,2A7.55,7.55,0,0,0,61,94h0c0,.63.51,1.13.92,1.07a4.74,4.74,0,0,0,2.87-2.25,5.56,5.56,0,0,0,.91-2.49,2,2,0,0,0-.83-1.81c-.1-.05-.08-.16-.08-.26a.36.36,0,0,0-.45-.4"/><path class="cls-10" d="M72.87,84.48c-.09,0-.17.09-.23.3-.14.44-.21.56-.38.68a1.59,1.59,0,0,0-.48.3c-.12.12-.07.25.26.46.14.09.17.14.1.43-.33,1.26-.43,1.62-.5,1.86s-.12.29-.53.53a.26.26,0,0,0-.19.27.39.39,0,0,0,.22.31c.12.08.14.16.08.35-.32,1.1-.58,2-.79,2.57-.06.16-.11.21-.16.22s-.55.49-.55.68.48.27,1,.21.94-.07,1.47-.14a6.59,6.59,0,0,0,3.86-1.63c.18-.18.19-.32.06-.3a.27.27,0,0,0-.13,0,6.7,6.7,0,0,1-2.75.87c-.83.11-1.45.14-1.74.15s-.2-.09-.15-.26c.23-.78.55-1.68.84-2.56,0-.16.09-.22.25-.25a13.19,13.19,0,0,0,2.13-.46,2.13,2.13,0,0,0,1-.6c.2-.23.29-.43.13-.41l-.06,0a8.1,8.1,0,0,1-1.47.37l-.49.07a4.61,4.61,0,0,1-1,.06c-.14,0-.15,0-.1-.22.08-.33.42-1.63.54-2s.16-.48.49-.56a11.85,11.85,0,0,1,1.46-.32,10.71,10.71,0,0,1,1.24-.14h.25a.25.25,0,0,0,.17-.08c.06-.06,0-.2-.12-.34a1.89,1.89,0,0,0-1.37-.2l-1.6.23c-.22,0-.27,0-.36-.1s-.26-.37-.39-.37h0"/><path class="cls-10" d="M82.62,85.55h0a1.41,1.41,0,0,0-.85.59c-.31.38-.72.87-1.56,1.93a.33.33,0,0,1-.21.16.24.24,0,0,1-.23-.16,2.21,2.21,0,0,1-.38-1.2,1,1,0,0,0-.08-.54.55.55,0,0,0-.53-.21.65.65,0,0,0-.47.49,1.39,1.39,0,0,1-.47.59.63.63,0,0,0-.36.47c0,.1.14.2.37.17a1.39,1.39,0,0,0,.49-.2l.06,0c.1,0,.17,0,.27.25A12.49,12.49,0,0,1,79.16,89c0,.11,0,.25-.14.41s-.54.76-1.09,1.52a.86.86,0,0,1-.44.36,1,1,0,0,0-.58.44,7.27,7.27,0,0,0-.65,1c-.19.29-.16.45-.05.59a.32.32,0,0,0,.32.16c.2,0,.61-.51.92-.92A2.36,2.36,0,0,1,78,92.1a.61.61,0,0,0,.35-.42,5.65,5.65,0,0,1,1-1.6A.2.2,0,0,1,79.5,90a.18.18,0,0,1,.17.11c.18.3.46.82.72,1.32s.75.94,1,.9c.54-.08,1.31-1,1.56-1.3a1,1,0,0,0,.23-.54c0-.12,0-.21,0-.2s-.06,0-.1.08a4.34,4.34,0,0,1-1.21,1c-.2,0-.5-.23-.71-.49a8.71,8.71,0,0,1-.81-1.58c0-.16,0-.35.22-.62.49-.69,1.42-1.93,1.74-2,.16,0,.3.08.44.28s.32.3.42.29.2-.26.2-.52a1.88,1.88,0,0,0-.3-1,.37.37,0,0,0-.44-.23"/><path class="cls-10" d="M84.74,90.86c-.27,0-.3-.1-.24-.39a8.65,8.65,0,0,1,2.26-3.76c.55-.57.82-.67.89-.68h0c.35,0,.42.22.42.44A7.42,7.42,0,0,1,87,89.27a2.9,2.9,0,0,1-1,1,4.62,4.62,0,0,1-1.31.64m1.12-6.31a1.23,1.23,0,0,0-.75.63,3.25,3.25,0,0,0-.36,1c-.12.49-.23,1-.57,2.4-1,4.13-2.2,7.83-2.29,8.16s-.15.55,0,.7a.33.33,0,0,0,.38.18,10.42,10.42,0,0,0,1.89-.79c.35-.18.47-.34.48-.43s-.07-.11-.25-.08l-.12,0-.5.09a2.88,2.88,0,0,1-.74,0c-.18,0-.2-.19-.12-.45s1.24-4,1.3-4.17.07-.18.12-.18,0,0,.07,0,.16.18.25.18h.14A1.08,1.08,0,0,0,85,91.8a10.21,10.21,0,0,0,1.71-1,5.45,5.45,0,0,1,.9-.68,14.44,14.44,0,0,0,3.31-2.75c0-.3.1-.59.14-.85a15.18,15.18,0,0,1-2.8,2.37.59.59,0,0,1-.14.07c-.06,0,0-.06,0-.16A6.6,6.6,0,0,0,89,86c0-.28-.21-1.22-.71-1.16h0a1.85,1.85,0,0,0-.67.35,10.19,10.19,0,0,0-2.17,2.26c0,.06-.1.1-.13.1s-.08,0,0-.19a4.67,4.67,0,0,1,.93-2.2c.12-.15.17-.27,0-.4a.5.5,0,0,0-.41-.19"/><path class="cls-10" d="M95,83.7h0c-.36,0-.73.38-1.2,1a21,21,0,0,0-1.89,2.82c-.08.12-.13.18-.17.18s0-.05,0-.18a11.31,11.31,0,0,1,.6-2.3,1.26,1.26,0,0,0,.15-.51c0-.22-.13-.57-.37-.53s-.44.38-.58.56a2.24,2.24,0,0,0-.31,1.13c0,.17-.06.4-.11.67s-.09.55-.14.85a22,22,0,0,1-.63,2.77c-.1.28-.12.49,0,.64a.42.42,0,0,0,.4.2c.15,0,.28-.14.39-.4a22.09,22.09,0,0,1,2.31-4.49c.39-.55.73-1,1-1a.65.65,0,0,1,.4.11.15.15,0,0,0,.13,0,.38.38,0,0,0,.25-.19,1.55,1.55,0,0,0,.33-.71c.06-.34-.13-.62-.49-.57"/><path class="cls-10" d="M96.7,86.63c-.23,0-.32,0-.26-.16.22-.73,1-2.09,1.44-2.15.22,0,.46.17.46.62a2,2,0,0,1-1.63,1.69h0M98,83.28c-.61.08-1.57,1.52-1.9,2.11A7.64,7.64,0,0,0,95,88.61v0c0,1.37.78,1.64,1.45,1.54C98,90,100,88.24,101.08,86.54c0-.1.1-.19.13-.27l-.13-.26,0-.09,0,0c-1,1.33-2.92,3.13-4.19,3.31-.49.07-.85-.24-.85-1a2.75,2.75,0,0,1,.12-.83.18.18,0,0,1,.1-.12l.08,0a.58.58,0,0,0,.45.1,3.21,3.21,0,0,0,2.48-3c0-.55-.3-.82-.69-.78-.14,0-.19-.09-.19-.14a.3.3,0,0,0-.38-.28"/><path class="cls-10" d="M107.92,81.9a3.77,3.77,0,0,0-2,1.63,1.23,1.23,0,0,1-.26.33,16.29,16.29,0,0,0-1.45,1.49c-.56.65-1.08,1.29-1.42,1.75a4,4,0,0,0-.56-1.14,1.74,1.74,0,0,1-.36-.94c0-.58,1.15-1.51,2-1.63.29,0,.53-.17.53-.39s-.47-.47-.87-.41h0a3.2,3.2,0,0,0-1.59.91,3.08,3.08,0,0,0-1,1.82,1.71,1.71,0,0,0,.12.6l0,.09.13.26c.12.2.29.45.45.71a2,2,0,0,1,.29.69.46.46,0,0,1-.24.41c-.36.21-.61.35-.84.51a1.52,1.52,0,0,0-.74.85c-.08.26.21.39.45.36a4.7,4.7,0,0,0,1.74-1,1.86,1.86,0,0,0,.48-.71,33.74,33.74,0,0,1,2.79-3.44,1.74,1.74,0,0,0,.06.88c.09.21.19.52.37.95a2.56,2.56,0,0,1,.29.93.53.53,0,0,1-.25.38,13.86,13.86,0,0,0-1.52.64.39.39,0,0,0-.09.44.87.87,0,0,0,.84.23,3.18,3.18,0,0,0,1.4-.69,2,2,0,0,0,.58-1.1,2.69,2.69,0,0,0-.27-1.05,5.51,5.51,0,0,1-.61-1.82c0-.45.32-.88,1-1.21a7.05,7.05,0,0,1,.86-.41c.23-.11.35-.22.35-.35a.54.54,0,0,0-.63-.55"/></g></g><path class="cls-4" d="M62.93,100c.41-.23,1.36-.48,1.39-.23,0-.25,0-.25.6-.56,0,.17.6,0,1-.07a5.9,5.9,0,0,0-1.62.12c-.71.52-2.43.3-3.07.84A4.91,4.91,0,0,0,62.93,100Z"/><path class="cls-4" d="M66.62,100.45l.1-.12-1.31.41C65.66,100.61,66.56,100.34,66.62,100.45Z"/><path class="cls-4" d="M70.91,99.39c-.09.21.61.2.63.36-.09-.36,1.06-.25,1.64-.4l.19-.32a15.55,15.55,0,0,0-3.27.42Z"/><path class="cls-4" d="M72.05,99.41l.36-.24C72.09,99.27,71.35,99.43,72.05,99.41Z"/><path class="cls-4" d="M71.05,98.57c-1,.14.6,0-.36.24C71,98.71,71.38,98.63,71.05,98.57Z"/><polygon class="cls-4" points="75.17 98.46 73.15 98.93 74.01 98.91 75.17 98.46"/><path class="cls-4" d="M75.38,99c-.27,0-.71,0-.34-.15.76.1,1.17-.28,1.88-.21l-.64.2c.13.22,1.32-.45,1.35,0,.83-.43-.72-.25.39-.63a20.42,20.42,0,0,1-2.79.35,5.8,5.8,0,0,0,.76,0c-.64.11-1.49.38-2.23.53C74.21,99.32,74.72,99,75.38,99Z"/><path class="cls-4" d="M78.64,98.59c.7-.09,1.76-.24,1.9-.58-.76-.12-.85.17-1.16.35-.22,0-.92.06-.66-.14C78.83,98.27,78.31,98.52,78.64,98.59Z"/><path class="cls-4" d="M81.37,98.23l.46-.35-.31.09-.07-.19a1.15,1.15,0,0,1-.94.54C80.9,98.42,81,98.22,81.37,98.23Z"/><path class="cls-4" d="M81.33,96.82a2.6,2.6,0,0,0,1.29-.21,12.38,12.38,0,0,0-2,.43l0-.05a7.66,7.66,0,0,0-1.16.52C80.22,97.19,81.63,97.29,81.33,96.82Z"/><path class="cls-4" d="M80.36,96.94l.53-.24Z"/><polygon class="cls-4" points="83.51 97.85 82.43 97.92 82.7 97.96 83.51 97.85"/><path class="cls-4" d="M82.11,97.19c.86-.08-.49-.15.31-.26a3.71,3.71,0,0,0-1.22.32C81.42,97.27,82,97,82.11,97.19Z"/><path class="cls-4" d="M84.2,97.78l.85-.33Z"/><path class="cls-4" d="M86.41,97.61l.15-.17c.87,0,2-.35,2.64-.11-.17-.17.3-.43-.45-.39-.1.12-.37.15-.31.26-.32,0-.28-.13-.5-.16-.52.24-1.39.23-1.81.44a1,1,0,0,1,.43,0c-.9.38-1.14-.23-1.49.26C85.38,97.52,86,97.73,86.41,97.61Z"/><path class="cls-4" d="M86.19,96.6l-.75.05c.2-.24.91-.14,1-.34-.06-.11-.82-.06-.55-.18,0,.48-1,.16-.56.63-1,.2-.34-.24-1.36-.07l-.26.28C84.85,96.69,85.07,96.88,86.19,96.6Z"/><path class="cls-4" d="M89.1,96.29l.38.1-.23-.19c1.67-.25,2.76.52,3.76.27,1.22-.45,2.44-.15,3.72-.35.61-.26-.61,0-.69-.15.14-.39.63.13.89-.21,0-.28-1.35-.14-1.92-.23-.48.09-.46.18-.59.35-.14-.14-.64-.12-.78-.26-1,.33-1.55,0-2.5.35-.34-.16.73-.13.4-.12l-.54.08.06,0a6.29,6.29,0,0,1-2.56.21c.37,0,.65.15.23.28l-.39-.19-.9.46C88.13,96.39,89,96.74,89.1,96.29Z"/><path class="cls-4" d="M88,96c-1.14,0,.18.33-1.06.39l1.29-.2Z"/><path class="cls-4" d="M93.43,95.91,94,96C93.66,95.7,92.85,96.26,93.43,95.91Z"/><polygon class="cls-4" points="95.47 95.65 95.22 95.99 95.72 95.76 95.47 95.65"/><path class="cls-4" d="M97.38,95.8c.4-.2-.11-.27-.59-.18C97.22,95.58,97.47,95.69,97.38,95.8Z"/><path class="cls-4" d="M100.52,96c-.94.1.84,0,.2.33C100.82,96.22,101.28,96,100.52,96Z"/><path class="cls-4" d="M103.64,96.42c-.34.09-.48.06-.54,0A1.28,1.28,0,0,1,103.64,96.42Z"/><path class="cls-4" d="M91.83,96.85l-.33,0Z"/><path class="cls-4" d="M92,96.83l-.21,0Z"/><path class="cls-4" d="M99.08,96.64h0l-.08,0Z"/><path class="cls-4" d="M69.35,100.09l-.43.1.43-.1Z"/><path class="cls-4" d="M68.78,99.76c.72-.33.89.31,2.11-.05l-1.54.38C68.58,99.91,69.87,99.83,68.78,99.76Z"/><path class="cls-4" d="M79.07,97.68l0,0C79.19,97.64,79.15,97.66,79.07,97.68Z"/><path class="cls-4" d="M35.88,108.67l0,.08-.34.07-.34.08.33-.12Z"/><path class="cls-4" d="M36,108.78l1.16-.26-1,.39c-.61.22-1.41.56-2.22.88s-1.6.67-2.2.93l-1,.43.16-.19a16.06,16.06,0,0,1,2.58-1.15l1.81-.7C35.78,108.91,36.08,108.8,36,108.78Z"/><path class="cls-4" d="M36.29,108.54c.52-.56,1.1-.27,1.8-.79a3.19,3.19,0,0,1-1.31.76Z"/><path class="cls-4" d="M38.25,107.11c.38-.06.75-.34,1-.36C39.19,107.05,38.57,107,38.25,107.11Z"/><path class="cls-4" d="M38.87,105.81l.17,0a.65.65,0,0,0-.15.1Z"/><path class="cls-4" d="M38.89,105.86l0,.12C38.78,106,38.8,105.93,38.89,105.86Z"/><path class="cls-4" d="M39,105.76a2.55,2.55,0,0,0,.37-.27l-.16,0c.2-.1.54-.32.66-.29-.42.12-.4.2-.36.37l.68-.21C40.23,105.82,39.65,105.58,39,105.76Z"/><path class="cls-4" d="M41.13,105l-.62.44C40.25,105.25,40.87,105,41.13,105Z"/><path class="cls-4" d="M42.24,104.88c-.15.11-.83.31-.39.28a1,1,0,0,1-.36.15C41.92,105.11,41.41,105,42.24,104.88Z"/><path class="cls-4" d="M41.49,105.31l-.2.08A.84.84,0,0,1,41.49,105.31Z"/><path class="cls-4" d="M34.67,108.78c.1,0,.11,0,.08.06Z"/><path class="cls-4" d="M43.7,104.68l.26-.07-.21.07Z"/><path class="cls-4" d="M23.84,115.2c.43-.2.85-.39,1.3-.63s.94-.54,1.5-.89c-.16-.24.44-.32.37-.62l.19-.11c.35-.2.93-.53,1.53-.84s1.21-.64,1.6-.86.58-.33.3-.25l-.12.12-.13.13.1-.21.1-.2a6.09,6.09,0,0,0,1.94-.68,3.48,3.48,0,0,1-.75.37c-.48.22-1.15.49-1.79.8l-1.75.82a3.6,3.6,0,0,0-.69.38c-.15,0,.19-.28.82-.62s1.52-.82,2.46-1.25c1.86-.89,3.86-1.7,3.93-1.82l.15.14c.9-.57,1.45-1,2.23-1.46l.26.14a4.62,4.62,0,0,0-1.33.67c1.06-.43,1.3-.37,2.1-.71-.12-.26-.75.11.23-.4.34,0-.24.55.66.17,1.15-.31.79-.63,1.76-1l-.35.06-.34.06a4,4,0,0,1,1.41-.38,4,4,0,0,0-.85.38c-.29.17-.5.37-.44.5a15.68,15.68,0,0,1,1.7-.53l-.16.26c.46.06.6-.29,1.15-.28.44-.26-.37-.19-.13-.35a3.44,3.44,0,0,0,1.35-.37c-.35-.34-1.06.46-1.77.25l.9-.2c.42-.58-1.4.44-1.21,0,.52-.63,1.48,0,1.94-.75-.44,0-1.74.42-1.62.22.5,0,.74-.39,1.36-.63l.83,0c.28-.22,0-.15-.26-.15a12.28,12.28,0,0,0,2.17-.53,15,15,0,0,1,2.54-.55c.94-.31.07-.21.47-.47a5,5,0,0,0,1.9-.44c.16,0,.39-.34.21-.4l-1.29.5c0-.15-.22-.31-.69-.16.23.19-.26.24-.8.32s-1.13.18-1.1.46l0-.25-1.65.64.06,0c0-.09-1.38.59-2.34.76.24-.16,1.83-.53.83-.52a6.42,6.42,0,0,1,1.38-.44,14.86,14.86,0,0,0,1.82-.51l-.29-.09c1.27-.62,3.13-.76,4.6-1.2l-.39.34a3.64,3.64,0,0,0,1.71-.34c-.63.17-.34,0-.25-.16.83-.34,2.13-.51,3.28-.86,0,0,0,.06,0,.08l1.2-.42a2.85,2.85,0,0,1,1.21.07c.21-.07.75-.18.52-.27a1.18,1.18,0,0,0-.31.05c.57-.38.45,0,1.2-.34-.56.34.25.26.23.49.89-.29,0-.4.09-.52,1.14-.12,1.32,0,2.45-.14,0-.15-.81.07-.94-.06a1.86,1.86,0,0,0,.74-.18l-.7,0a16.87,16.87,0,0,0,3.59-.61l-.12-.05.81-.14-.24.3c.42-.15.92,0,1.11-.26l-.16,0,.53-.18-.51.34c.7,0,1.56-.69,2.69-.86.3.29-1.91.47-2,.93a2.83,2.83,0,0,0,1.24-.2c-.07-.11-.34-.06-.6,0,.94-.41,2.47-.31,3-.79h-.76c.85-.19,1.48.17,1.73-.13l-.6.54c.83-.36,2-.51,2.75-.8,0-.25-1.18.2-1.13.14l.36-.24c1.3-.06.39.09,2,0v-.17c.55.17,1.86-.53,1.41,0l-.44,0,.07.2L78.63,97c-.15.17.71,0,.5.23l.64-.28c.34.24-1.16.53-1.2.76s.35.06.5,0c-.76.33-1.22-.11-2,0l-.36.24,0-.25a1.48,1.48,0,0,0-.67.43c-.84-.22-1.6.32-2.79.45,1-.31-.66-.14-.51-.23-.53.09-1.77.75-2.28.53-.33-.06.62-.3-.13-.22-.48.12-.79.31-.46.37-1.06.27-2.34.43-3.52.67l.25-.22a3.3,3.3,0,0,0-1.78.62c-.11,0-.16,0-.07-.11-1-.09-1.13.58-2.67.83.13.22.82.1,1.29-.11l-.08.29a34,34,0,0,0,3.86-1l-.46.29c1,.17.6-.48,1.55-.23.63-.21-.49,0,0-.25.47,0,0,.48.73.36-2.85.65-6.12,1.26-9.1,2,0,.06.12,0,.28,0a8.29,8.29,0,0,1-1.88.48c-.94.18-2.09.37-3.22.59s-2.23.43-3,.66-1.37.44-1.39.63c-.18-.06.27-.29-.35-.12,0,.06-.19.17,0,.23-1.69,0-3.7,1-5.66,1.36.08.1-.32.29-.3.37-.74-.08-1.75.57-2.4.61l.24.06-.95.31-1,.32c0,.06.22,0,.38-.06-.39.21-.53.09-.61,0l-.74.57a9.57,9.57,0,0,0-2,.53c-.67.25-1.36.53-2,.85s-1.37.65-2.07,1a21,21,0,0,1-2.11.83,3.59,3.59,0,0,1-1.29,1l.36-.09c-.61.5-.09-.09-.64.27-.33.32,0,.38.52,0,.37-.09.19.08,0,.25-.55.23-1.08.47-1.6.7s-1,.44-1.52.64-1,.41-1.5.59S24.32,115.06,23.84,115.2Z"/><path class="cls-4" d="M112.05,96.09c-.27-.08,1-.2.37-.37-2.06-.24-5.28.46-7.69.37a9.11,9.11,0,0,0-1.4-.13.13.13,0,0,0,0,.13,20.5,20.5,0,0,1-2.35.2c-.18.07-.29.26,0,.18-1,.27-1.73-.15-2.26.06.49.07-.46.23.12.26-1,.14-1-.51-1.83-.49,0,.06-.09.11.08.11-.92-.17-2.7.48-2.86,0l-.33.24c-.41-.1-.33-.22-1-.2-.42.13,0,.17-.11.26-.2-.17-1.33.06-1.88-.13-.06-.28,1,.26,1.45-.06,0-.06-.07-.06-.17-.06,2.7-.26,4.85.29,7-.17a1,1,0,0,0,1-.31c-.4,0-1.57-.11-1.55.3l-.72-.18c-.26,0-.3-.36-.43-.41.5,0,1-.47.33-.54,1.28-.19-.32.9.81.67l.13-.31c-.19.18.81.2,1.17.06l-.16,0c3-.21,7.08-.78,10.43-1.23.9.63,2.43-.51,3.27,0,.36-.13-.55-.2.15-.36.35-.08.4.1.39.16l.32-.09C114.85,94.71,114.29,95.39,112.05,96.09Z"/><path class="cls-5" d="M95.93,25.08a2.42,2.42,0,1,1-2.41-2.35A2.37,2.37,0,0,1,95.93,25.08Zm-4.24,0A1.83,1.83,0,0,0,93.53,27a1.89,1.89,0,0,0,0-3.77A1.84,1.84,0,0,0,91.69,25.08Zm1.45,1.24H92.6V24a5,5,0,0,1,.9-.07,1.46,1.46,0,0,1,.82.17.66.66,0,0,1,.23.52.61.61,0,0,1-.49.55v0a.67.67,0,0,1,.43.57,2,2,0,0,0,.17.59h-.58a1.75,1.75,0,0,1-.19-.57c0-.26-.19-.38-.49-.38h-.26Zm0-1.34h.25c.31,0,.55-.1.55-.34s-.16-.36-.5-.36a1,1,0,0,0-.3,0Z"/><path class="cls-4" d="M112.45,82.1A1.41,1.41,0,1,1,111,80.72,1.38,1.38,0,0,1,112.45,82.1Zm-2.47,0A1.06,1.06,0,1,0,111,81,1.06,1.06,0,0,0,110,82.1Zm.84.72h-.31V81.44a3.22,3.22,0,0,1,.52,0,.85.85,0,0,1,.48.1.37.37,0,0,1,.13.3.35.35,0,0,1-.28.32v0a.41.41,0,0,1,.25.33,1.16,1.16,0,0,0,.1.35h-.34a1.2,1.2,0,0,1-.11-.34c0-.15-.11-.22-.29-.22h-.15Zm0-.78H111c.18,0,.32-.06.32-.2s-.09-.21-.29-.21h-.18Z"/></svg>