<svg id="Capa_1" data-name="Capa 1" xmlns="http://www.w3.org/2000/svg" viewBox="0 0 126.08 125"><defs><style>.cls-1{fill:#fff;}.cls-2{fill:#e5893f;}.cls-3,.cls-4{fill:none;}.cls-3{stroke:#fff;stroke-miterlimit:10;stroke-width:0.54px;}</style></defs><rect class="cls-1" x="0.54" width="125" height="125"/><path class="cls-2" d="M4.57,99.34l-.1,0v21.68H26l.11-.24a1,1,0,0,0,0-.43,2.31,2.31,0,0,0-.75-1.21l-19.1-19.1A2.31,2.31,0,0,0,5,99.34a.81.81,0,0,0-.44,0M116.12,51.91a.82.82,0,0,1-.26.65.86.86,0,0,1-.62.27,1.27,1.27,0,0,1-.72-.26l-.76-.55a6.54,6.54,0,0,0-2.34-1.1,3.26,3.26,0,0,0-1.52,0l-1.3-1.29,2.82-2.82,4.38,4.38a1,1,0,0,1,.32.68M115,36.44l-8.49,8.49-.5.5a2.61,2.61,0,0,1-1.31.8,1.18,1.18,0,0,1-1.11-.36,1.43,1.43,0,0,1-.27-1.8q.42-.84.48-1a.8.8,0,0,0,0-.44,2.33,2.33,0,0,0-.75-1.2L84,22.33a2.37,2.37,0,0,0-1.2-.74.8.8,0,0,0-.44,0c-.1,0-.44.2-1,.48a1.42,1.42,0,0,1-1.79-.27,1.18,1.18,0,0,1-.36-1.11,2.51,2.51,0,0,1,.8-1.31l.5-.5L89,10.39Zm-2.86-13.21a1.28,1.28,0,0,1-1,.42,2.83,2.83,0,0,1-1.29-.5,7,7,0,0,0-3-1.09,4,4,0,0,0-2.49.62l-2.22-2.22a7.08,7.08,0,0,0,.48-2.8,5.46,5.46,0,0,0-.9-2.46,3.24,3.24,0,0,1-.6-1.41,1.29,1.29,0,0,1,.43-1,1.19,1.19,0,0,1,1.32-.36,4,4,0,0,1,1.26,1l7.27,7.27a3.86,3.86,0,0,1,1,1.44,1.08,1.08,0,0,1-.39,1.08M78.08,25.84a.8.8,0,0,0,0,.44,2.29,2.29,0,0,0,.74,1.2L97.93,46.59a2.29,2.29,0,0,0,1.2.74.8.8,0,0,0,.44,0l1-.48a1.42,1.42,0,0,1,1.79.27c.67.66.52,1.47-.43,2.43l-.52.51-8.49,8.49-.63.63a3.62,3.62,0,0,1-1.53,1,1.19,1.19,0,0,1-1.2-.35,1.43,1.43,0,0,1-.14-2c.37-.63.59-1,.64-1.12a.83.83,0,0,0,0-.49,2.37,2.37,0,0,0-.8-1.37L72.76,38.46,86.91,64.55l-1,1L56.53,51a5.15,5.15,0,0,0-2.29-.69,2.25,2.25,0,0,0-1.22.5c-1,.64-1.82.66-2.43,0a1.3,1.3,0,0,1-.42-1.12,2.27,2.27,0,0,1,.75-1.3l8.93-8.93,14.47,6.94L70.19,39l-3.32-6.53L75.35,24l.51-.52c1-.95,1.76-1.1,2.43-.44a1.41,1.41,0,0,1,.26,1.8c-.28.56-.44.89-.47,1M64.74,29.12l-4.21,4.2-1.09-1.09a6.89,6.89,0,0,0,.81-1.36,4.88,4.88,0,0,0,.3-1.42A4.67,4.67,0,0,0,60.47,28a7,7,0,0,0-.56-1.54,1.75,1.75,0,0,1-.21-.67.64.64,0,0,1,.22-.45.61.61,0,0,1,.56-.23,1.6,1.6,0,0,1,.69.47Zm-6.42-2.45a.57.57,0,0,1-.21.57.67.67,0,0,1-.5.23,1.52,1.52,0,0,1-.69-.27,3.72,3.72,0,0,0-1.56-.58A2.25,2.25,0,0,0,54,27l-1.17-1.17a3.61,3.61,0,0,0,.25-1.48A3,3,0,0,0,52.65,23a1.68,1.68,0,0,1-.32-.74.65.65,0,0,1,.23-.52.62.62,0,0,1,.69-.19,2.07,2.07,0,0,1,.67.52l3.85,3.85a2.12,2.12,0,0,1,.55.76m-3.6-7a.71.71,0,0,1-.24.53.74.74,0,0,1-.42.23,1.4,1.4,0,0,1-.56-.18,5.37,5.37,0,0,0-2.92-.67,5,5,0,0,0-2.66,1.19l-1.18-1.18,4.07-4.07,3.57,3.58a1,1,0,0,1,.34.57m-8.88.82L59.63,34.23l-4.5,4.5-.26.26a1.39,1.39,0,0,1-.7.42.62.62,0,0,1-.58-.19.75.75,0,0,1-.15-.95l.26-.52a.44.44,0,0,0,0-.23,1.22,1.22,0,0,0-.4-.64L43.19,26.77a1.11,1.11,0,0,0-.63-.39.44.44,0,0,0-.23,0l-.53.25a.76.76,0,0,1-.95-.14.64.64,0,0,1-.19-.59,1.43,1.43,0,0,1,.42-.7l.27-.26Zm-5.41,6.46a.74.74,0,0,1,.14.95l-.25.52a.44.44,0,0,0,0,.23,1.25,1.25,0,0,0,.39.64L50.78,39.32c.37.37.7.49,1,.37l.44-.21a.77.77,0,0,1,1,.15c.35.36.28.79-.23,1.3l-.27.27-4.49,4.49-.29.28c-.47.48-.88.53-1.24.18a.76.76,0,0,1-.17-.94l.21-.44c.14-.25,0-.58-.38-1l-4.67-4.66L40,40.78l-1-1,1.64-1.64-4.4-4.41c-.38-.37-.7-.5-1-.37l-.42.22a.73.73,0,0,1-.93-.16c-.35-.35-.29-.77.2-1.25l.26-.26,4.5-4.5.27-.27c.5-.5.93-.58,1.28-.23m-6.87,8-.21.41c-.13.26,0,.58.38,1l10.1,10.11c.38.38.7.5,1,.37l.42-.21a.73.73,0,0,1,.93.16c.35.35.28.77-.19,1.24l-.27.27-4.5,4.5-.26.26a1.39,1.39,0,0,1-.7.43.64.64,0,0,1-.59-.2.74.74,0,0,1-.14-.94c.15-.3.23-.48.26-.53a.44.44,0,0,0,0-.23,1.25,1.25,0,0,0-.4-.64L29.24,40.72a1.27,1.27,0,0,0-.63-.39.48.48,0,0,0-.24,0c-.05,0-.23.1-.52.25a.75.75,0,0,1-1-.14.63.63,0,0,1-.19-.59,1.37,1.37,0,0,1,.42-.69l.26-.26,4.51-4.51.26-.26c.48-.48.89-.54,1.24-.19a.72.72,0,0,1,.16.93m-7.81,5.67,4.13,4.13a1,1,0,0,1,.31.64.79.79,0,0,1-.25.61.82.82,0,0,1-.59.26,1.1,1.1,0,0,1-.67-.25L28,45.42a6.08,6.08,0,0,0-2.21-1,3.06,3.06,0,0,0-1.44,0L23.09,43.2ZM22.25,44,34.12,55.9a1.2,1.2,0,0,0,.72.42.53.53,0,0,0,.27,0c.07,0,.26-.14.59-.34a.76.76,0,0,1,1,.07.7.7,0,0,1,.17.69,1.92,1.92,0,0,1-.53.77l-.33.33-4.51,4.5-.33.34a1.89,1.89,0,0,1-.81.53.63.63,0,0,1-.63-.18.75.75,0,0,1-.07-1l.33-.59a.45.45,0,0,0,0-.27,1.15,1.15,0,0,0-.42-.71L17.77,48.52ZM17,49.34l1.22,1.22a3,3,0,0,0,0,1.43,6.21,6.21,0,0,0,1,2.22l.52.71a1.2,1.2,0,0,1,.24.68.84.84,0,0,1-.86.83.91.91,0,0,1-.64-.31L14.3,52ZM15.43,83.92l.5-.5,8.49-8.49.52-.51c.95-1,1.76-1.11,2.42-.44a1.42,1.42,0,0,1,.27,1.79q-.42.84-.48,1a1.06,1.06,0,0,0,0,.44,2.26,2.26,0,0,0,.75,1.2l19,19c.7.7,1.31.94,1.85.71l.82-.4a1.42,1.42,0,0,1,1.81.29c.68.67.54,1.48-.42,2.44l-.51.51-8.5,8.5-.53.53c-.89.89-1.67,1-2.35.33a1.43,1.43,0,0,1-.32-1.78l.4-.82c.25-.48,0-1.09-.73-1.83l-8.82-8.82-3.11,3.11-1.89-1.89,3.11-3.11-8.32-8.32c-.71-.71-1.31-.95-1.81-.71l-.8.42a1.39,1.39,0,0,1-1.76-.3c-.66-.66-.53-1.45.38-2.37M54.07,92q-7.43,0-14-6.6a24.62,24.62,0,0,1-5-7A17.09,17.09,0,0,1,33.36,71a15.14,15.14,0,0,1,1-5.34,14.76,14.76,0,0,1,2.92-4.6l2.06,2.06a3.75,3.75,0,0,0-.44,2.31,4.46,4.46,0,0,0,1.33,2.14L57.3,84.62a6.33,6.33,0,0,0,2.82,1.91,3,3,0,0,0,2.14-.5l2.1,2.1A15.51,15.51,0,0,1,54.07,92m2.41,9.74c.38-.38.72-.68,1-.92a7.36,7.36,0,0,1,3.79-1.48,8.16,8.16,0,0,1,4.41.67,13.18,13.18,0,0,1,4.15,2.88,12.77,12.77,0,0,1,3.08,4.68,9.06,9.06,0,0,1,.37,5,7.17,7.17,0,0,1-.71,2,9.43,9.43,0,0,1-1.48,1.81L70,115.24a3.82,3.82,0,0,0,.41-.84,1.22,1.22,0,0,0,0-.6,2,2,0,0,0-.31-.75,5.93,5.93,0,0,0-.8-.92l-8.45-8.45a4.08,4.08,0,0,0-1.47-1,1.48,1.48,0,0,0-.78-.1,2.86,2.86,0,0,0-.88.41Zm20.62,6.07a.52.52,0,0,0,0-.25,1.31,1.31,0,0,0-.42-.67L66,96.21a1.31,1.31,0,0,0-.67-.42.52.52,0,0,0-.25,0l-.56.26a.78.78,0,0,1-1-.14.69.69,0,0,1-.21-.63,1.55,1.55,0,0,1,.45-.73l.28-.28,4.77-4.77,14.62,14.62-4.77,4.77-.28.27a1.42,1.42,0,0,1-.74.45.65.65,0,0,1-.62-.2.8.8,0,0,1-.15-1c.16-.31.25-.5.27-.55m7.25-4.69L83.19,102a6.56,6.56,0,0,0,.85-1.45A4.8,4.8,0,0,0,84.37,99a5.16,5.16,0,0,0-.09-1.55,7.8,7.8,0,0,0-.6-1.64,1.72,1.72,0,0,1-.21-.71.68.68,0,0,1,.23-.48.64.64,0,0,1,.59-.24,1.65,1.65,0,0,1,.73.5L88.8,98.7ZM89,97.41a.77.77,0,0,1-.15-1c.15-.32.24-.5.26-.56a.35.35,0,0,0,0-.25,1.21,1.21,0,0,0-.41-.67L78,84.21a1.33,1.33,0,0,0-.68-.42.47.47,0,0,0-.24,0c-.06,0-.25.11-.56.27a.8.8,0,0,1-1-.15.65.65,0,0,1-.2-.62,1.42,1.42,0,0,1,.45-.74l.28-.28,4.76-4.76L93.35,90.09a1.27,1.27,0,0,0,.76.44.63.63,0,0,0,.29,0l.63-.36a.8.8,0,0,1,1.1.08.72.72,0,0,1,.17.73,1.86,1.86,0,0,1-.54.8l-.37.36-4.77,4.78-.28.28a1.46,1.46,0,0,1-.74.45.67.67,0,0,1-.62-.21M61.22,55.69,69,59.43l5.75,5.75a11.63,11.63,0,0,0,1.32,1.19,4.32,4.32,0,0,0,1.14.54,3.94,3.94,0,0,0,2.36.16l1.17-.25a1.71,1.71,0,0,1,1.7.25c.65.65.49,1.45-.46,2.4L77.2,74.26c-1,1-1.75,1.12-2.39.48a1,1,0,0,1-.34-.59,2.34,2.34,0,0,1,.11-.86c.65-2.18,0-4.21-1.85-6.09ZM73.79,88.54A5.24,5.24,0,0,0,71,89.8l-1.25-1.25L74,84.23,77.83,88a1,1,0,0,1,.35.61.73.73,0,0,1-.26.56.69.69,0,0,1-.44.25,1.46,1.46,0,0,1-.6-.2,5.69,5.69,0,0,0-3.09-.7m2.7,5A3.13,3.13,0,0,0,76,92.2a1.79,1.79,0,0,1-.33-.79.72.72,0,0,1,.24-.55.66.66,0,0,1,.74-.2,2.28,2.28,0,0,1,.7.55l4.08,4.08a2.25,2.25,0,0,1,.59.81.63.63,0,0,1-.22.61.71.71,0,0,1-.54.23,1.58,1.58,0,0,1-.72-.27,3.85,3.85,0,0,0-1.66-.62,2.29,2.29,0,0,0-1.4.35l-1.24-1.24a4.15,4.15,0,0,0,.27-1.58M64.28,82.37a6,6,0,0,0-1.85-2.88L45.37,62.42a4.6,4.6,0,0,0-1.95-1.26,2.8,2.8,0,0,0-1.17-.08,5.11,5.11,0,0,0-1.35.46l-2.06-2.06a14.38,14.38,0,0,1,10-3.93q7.7-.09,14.45,6.66t6.61,14.05a15.39,15.39,0,0,1-3.94,10.31l-2.09-2.1a3.49,3.49,0,0,0,.47-1.07,2.4,2.4,0,0,0,0-1m38.15-.3c-2.78,0-5.4-1.22-7.88-3.7a17.19,17.19,0,0,1-1.16-1.3,5.22,5.22,0,0,1,.52,1.46,6,6,0,0,1-.5,3.57,13.22,13.22,0,0,1-2.72,3.51l-1.15-1.14a3.24,3.24,0,0,0,.43-.88,1.51,1.51,0,0,0,0-.69,3.38,3.38,0,0,0-.9-1.35L85.6,78.13a4,4,0,0,0-.82-.68A1.53,1.53,0,0,0,84,77.3a2.08,2.08,0,0,0-1.21.46l-1.16-1.15a13.08,13.08,0,0,1,3.68-2.84,5.67,5.67,0,0,1,6.6,1.34c.13.12.22.25.34.37a11.37,11.37,0,0,1-.55-1,9.62,9.62,0,0,1-.92-4.19,8.6,8.6,0,0,1,.56-3A8.39,8.39,0,0,1,93,64.68l1.15,1.16a2.13,2.13,0,0,0-.24,1.29,2.37,2.37,0,0,0,.75,1.2l9.57,9.58A3.59,3.59,0,0,0,105.83,79a1.63,1.63,0,0,0,1.2-.28l1.17,1.18a8.65,8.65,0,0,1-5.77,2.19M109.08,79l-1.18-1.18a1.69,1.69,0,0,0,.27-.6,1.43,1.43,0,0,0,0-.58,3.4,3.4,0,0,0-1-1.61l-9.57-9.58a2.47,2.47,0,0,0-1.09-.7,1.52,1.52,0,0,0-.66,0A2.85,2.85,0,0,0,95,65L93.89,63.8a8.05,8.05,0,0,1,5.59-2.2,9.42,9.42,0,0,1,2.79.4l-3-3,2.82-2.82,1.29,1.3a3.14,3.14,0,0,0,0,1.52,6.54,6.54,0,0,0,1.1,2.34l.55.76a1.25,1.25,0,0,1,.26.72.85.85,0,0,1-.17.48,15.25,15.25,0,0,1,2.5,2q3.72,3.72,3.71,7.89A8.65,8.65,0,0,1,109.08,79m7.66-44.28-2.06-2.06a12.65,12.65,0,0,0,1.52-2.59,9.05,9.05,0,0,0,.58-2.68,10.29,10.29,0,0,0-.15-2.77,14.21,14.21,0,0,0-1.07-2.92,2.93,2.93,0,0,1-.39-1.26,1.18,1.18,0,0,1,.41-.85,1.14,1.14,0,0,1,1-.43,2.93,2.93,0,0,1,1.31.88l3.67,3.68V3.93H101.29l3.83,3.82a1.92,1.92,0,0,1,.63,1.09,1.3,1.3,0,0,1-.46,1,1.26,1.26,0,0,1-.78.44,2.39,2.39,0,0,1-1.07-.34,10.14,10.14,0,0,0-5.51-1.25,9.31,9.31,0,0,0-5,2.24L90.67,8.69l4.76-4.76h-91v91l6.76-6.77.5-.5c.9-.9,1.69-1,2.35-.36a1.39,1.39,0,0,1,.3,1.76l-.4.78c-.24.5,0,1.1.71,1.81L33.8,110.72c.71.71,1.31,1,1.81.7l.78-.4a1.38,1.38,0,0,1,1.76.31c.66.66.54,1.44-.37,2.35l-.49.49-6.9,6.9H63.86a.44.44,0,0,0,0-.23,1.3,1.3,0,0,0-.41-.68L52.73,109.44a1.33,1.33,0,0,0-.68-.42.52.52,0,0,0-.25,0l-.55.27a.8.8,0,0,1-1-.15.64.64,0,0,1-.2-.62,1.42,1.42,0,0,1,.45-.74l.28-.28,4.76-4.76,14.62,14.62-3.72,3.71h55.18V65.89l-4,4-.35.35a1.88,1.88,0,0,1-.86.57.66.66,0,0,1-.67-.19.8.8,0,0,1-.08-1.1q.32-.52.36-.63a.42.42,0,0,0,0-.28,1.27,1.27,0,0,0-.44-.76L103,55.31l4.75-4.75,12.58,12.58a1.26,1.26,0,0,0,.77.44.63.63,0,0,0,.29,0l.26-.14V29.85Z"/><path class="cls-2" d="M115.36,112a2.77,2.77,0,1,0,2.69,2.76,2.69,2.69,0,0,0-2.69-2.76"/><path class="cls-2" d="M115.36,111.48a3.33,3.33,0,1,0,3.36,3.32,3.32,3.32,0,0,0-3.36-3.32"/><path class="cls-3" d="M115.36,111.48a3.33,3.33,0,1,0,3.36,3.32A3.32,3.32,0,0,0,115.36,111.48Z"/><path class="cls-1" d="M115.9,115a1,1,0,0,0,1-1.05c0-.76-.45-1.09-1.35-1.09h-1.46v3.83h.58v-1.66h.67l1,1.66H117Z"/><path class="cls-2" d="M115.45,113.39h-.79v1.18h.69c.49,0,.93,0,.93-.62s-.43-.56-.83-.56"/><rect class="cls-4" x="114.56" y="-22.41" width="322.08" height="170.08"/></svg>