<svg id="Capa_1" data-name="Capa 1" xmlns="http://www.w3.org/2000/svg" viewBox="0 0 216.37 125"><defs><style>.cls-1{fill:#af39b3;}.cls-2{fill:#f0efee;}.cls-3{fill:#c6d438;}.cls-4{fill:#c1133c;}.cls-5{fill:#fff;}.cls-6{fill:#00aae9;}.cls-7{fill:#d04b3b;}.cls-8{fill:#dedfdd;}.cls-9{fill:#f67742;}.cls-10{fill:#4c372b;}.cls-11{fill:#9f9167;}</style></defs><path class="cls-1" d="M100.78,29a.48.48,0,0,1-.47-.48V24.91a.46.46,0,0,1,.47-.46h8.56a.49.49,0,0,1,.48.48v3.55a.48.48,0,0,1-.48.47Z"/><polygon class="cls-2" points="100.74 24.99 100.73 24.76 109.57 24.75 109.57 24.99 100.74 24.99"/><polygon class="cls-2" points="100.74 28.6 100.74 28.35 109.58 28.36 109.58 28.59 100.74 28.6"/><polygon class="cls-1" points="112.75 28.35 112.74 24.83 110.63 24.83 110.63 28.35 112.75 28.35"/><polygon class="cls-2" points="111.06 28.04 111.07 27.18 111.93 27.18 111.93 28.04 111.06 28.04"/><polygon class="cls-2" points="111.06 26.16 111.06 25.3 111.92 25.3 111.92 26.16 111.06 26.16"/><rect class="cls-3" x="126.8" y="41.27" width="2.87" height="6.21" transform="translate(-0.07 0.2) rotate(-0.09)"/><path class="cls-3" d="M126.37,46.88a2.5,2.5,0,0,1,0-5Z"/><rect class="cls-3" x="110.1" y="41.29" width="2.87" height="6.21" transform="translate(-0.07 0.19) rotate(-0.1)"/><path class="cls-3" d="M113.38,41.9a2.5,2.5,0,1,1,0,5Z"/><path class="cls-3" d="M127.13,40.78a7.21,7.21,0,0,0-7.2-7.2h-.35a7.21,7.21,0,0,0-7.18,7.22h-1.61A8.82,8.82,0,0,1,119.58,32h.34a8.82,8.82,0,0,1,8.81,8.79Z"/><polygon class="cls-4" points="151.41 24.66 121.92 24.7 125.13 17.08 148.5 17.04 151.41 24.66"/><rect class="cls-4" x="122.04" y="24.99" width="29.37" height="1.93" transform="translate(-0.04 0.22) rotate(-0.09)"/><path class="cls-4" d="M125,3.58l0,13.18,23.61,0,0-13.18Zm21.77,11.7-19.89,0,0-10.29,19.89,0Z"/><path class="cls-1" d="M140.85,33.2H134v-.64h-3v.64h-.06a2.39,2.39,0,0,0-2.38,2.41v5.56a2.39,2.39,0,0,0,2.39,2.41l10,0a2.4,2.4,0,0,0,2.39-2.41V35.6A2.39,2.39,0,0,0,140.85,33.2Zm-6.59,2.15h-3.77v-.75h3.77Z"/><path class="cls-1" d="M138.31,41.09a2.46,2.46,0,0,1-1.71-4.2,2.41,2.41,0,0,1,1.7-.72,2.46,2.46,0,0,1,0,4.92Z"/><path class="cls-5" d="M138.31,36.18a2.45,2.45,0,0,1,0,4.9h0a2.45,2.45,0,0,1,0-4.9h0m0,0h0a2.46,2.46,0,0,0-1.72.72,2.53,2.53,0,0,0-.72,1.75,2.45,2.45,0,1,0,2.44-2.47Z"/><path class="cls-6" d="M122.25,3.24V2.05h-.42v1.1l-.16,0h-2.61A1.88,1.88,0,0,0,117.18,5v7.22a1.88,1.88,0,0,0,1.88,1.87h2.61a1.88,1.88,0,0,0,1.89-1.87l0-7.22A1.86,1.86,0,0,0,122.25,3.24Zm-2.11,9.57H118v-.46h2.1Zm2.57,0h-2.1v-.47h2.1Zm.3-2.72A1.87,1.87,0,0,1,121.13,12H119.6a1.87,1.87,0,0,1-1.86-1.88V5.65a1.86,1.86,0,0,1,1.86-1.87h1.53A1.87,1.87,0,0,1,123,5.64Z"/><path class="cls-3" d="M138.63,13.79a4.79,4.79,0,0,1-2,.41,3.41,3.41,0,0,1-3.5-3.52,4.14,4.14,0,0,1,4.18-4.27,3.19,3.19,0,0,1,3.39,3.23c0,1.65-.92,2.66-2.13,2.67a.87.87,0,0,1-1-.85h0a1.69,1.69,0,0,1-1.45.85,1.29,1.29,0,0,1-1.27-1.45,2.56,2.56,0,0,1,2.63-2.61,3,3,0,0,1,1.33.27l-.33,2.07c-.12.66,0,1,.29,1,.47,0,1.07-.61,1.07-1.89a2.46,2.46,0,0,0-2.68-2.58A3.23,3.23,0,0,0,134,10.57a2.69,2.69,0,0,0,2.85,2.93,4.06,4.06,0,0,0,1.63-.35Zm-1-4.62a1.59,1.59,0,0,0-.34,0,1.48,1.48,0,0,0-1.32,1.6c0,.41.19.68.56.68s.84-.53.94-1.18Z"/><path class="cls-7" d="M105,5.77l0,9.88h9.87l0-9.89ZM113.83,13H106V6.81h7.81Z"/><path class="cls-6" d="M100.65,47.84a.58.58,0,0,1-.79.31l-4.27-1.81a.59.59,0,0,1-.32-.79L99.65,35.3a.59.59,0,0,1,.79-.32l4.26,1.83a.59.59,0,0,1,.32.79Z"/><polygon class="cls-5" points="95.9 45.87 95.63 45.76 100.14 35.18 100.42 35.3 95.9 45.87"/><polygon class="cls-2" points="100.21 47.72 99.93 47.6 104.46 37.03 104.72 37.14 100.21 47.72"/><polygon class="cls-6" points="106.05 33.24 101.85 31.44 100.78 33.96 104.99 35.76 106.05 33.24"/><rect class="cls-2" x="103.97" y="33.79" width="1.11" height="1.12" transform="translate(31.93 117.03) rotate(-66.9)"/><rect class="cls-2" x="101.73" y="32.83" width="1.12" height="1.12" transform="translate(31.55 114.46) rotate(-66.97)"/><path class="cls-8" d="M154,18.39H84.77a1.52,1.52,0,0,0,0,3H154a1.52,1.52,0,0,0,0-3Z"/><path class="cls-8" d="M149.64,30.45H88.16a1.52,1.52,0,0,0,0,3h61.48a1.52,1.52,0,0,0,0-3Z"/><path class="cls-8" d="M145,42.52H90.83a1.52,1.52,0,0,0,0,3H145a1.51,1.51,0,0,0,0-3Z"/><polygon class="cls-8" points="97.47 20.4 94.87 20.79 98.4 52.16 101.14 52.83 97.47 20.4"/><polygon class="cls-8" points="107.9 20.63 105.29 20.84 107.21 53.11 109.95 52.54 107.9 20.63"/><polygon class="cls-8" points="115.78 20.18 115.77 53.21 118.26 53.11 118.39 20.18 115.78 20.18"/><polygon class="cls-8" points="127.86 20.07 122.91 53.59 125.74 52.44 130.44 20.57 127.86 20.07"/><polygon class="cls-8" points="139.11 20.05 130.97 53.78 133.88 53.11 141.62 20.86 139.11 20.05"/><polygon class="cls-8" points="150.11 19.51 139.36 52.16 141.94 53.4 152.56 20.57 150.11 19.51"/><path class="cls-7" d="M142.61,49.93H94.68L84.42,16.76c-.16,1.84-2.17,1.11-3.76,1.33L91.53,52.87a1.94,1.94,0,0,0,1.8,1.46h49.28a2.22,2.22,0,0,0,0-4.4Z"/><path class="cls-7" d="M83.62,15.64a3.64,3.64,0,0,0-2.4-.88H63.85a3.26,3.26,0,0,0-3.43,3.07,3.26,3.26,0,0,0,3.43,3.07H81.22a2.71,2.71,0,0,0,.41,0,3.22,3.22,0,0,0,3-2.74,2.58,2.58,0,0,0,0-.29A2.94,2.94,0,0,0,83.62,15.64Z"/><polygon class="cls-7" points="132.61 75.24 90.33 75.24 95.38 51.82 98.03 52.58 93.82 72.1 132.61 72.1 132.61 75.24"/><path class="cls-7" d="M100.12,74a7.6,7.6,0,1,1-7.6-7.59A7.6,7.6,0,0,1,100.12,74Z"/><path class="cls-9" d="M98.22,74a5.7,5.7,0,1,1-5.7-5.69A5.7,5.7,0,0,1,98.22,74Z"/><path class="cls-7" d="M139.42,74a7.6,7.6,0,1,1-7.59-7.59A7.59,7.59,0,0,1,139.42,74Z"/><path class="cls-9" d="M137.53,74a5.7,5.7,0,1,1-5.7-5.69A5.7,5.7,0,0,1,137.53,74Z"/><path class="cls-6" d="M102.44,13.61a2.15,2.15,0,0,1-2,2H88.23c-1,0-1.37-1-1.37-2V8.41c0-1,.36-1.73,1.37-1.73h12.22a1.89,1.89,0,0,1,2,1.73Z"/><path class="cls-6" d="M85.77,13.29h.62V9h-.62c-.25,0,.62.4.62.65v2.77C86.39,12.72,85.52,13.29,85.77,13.29Z"/><path class="cls-6" d="M102.91,9h0v4.25h0c.25,0,0-.85,0-1.1V9.42C102.91,9.16,103.16,9,102.91,9Z"/><path class="cls-5" d="M88.82,14.72A1.61,1.61,0,0,1,87.18,13V9.38a1.7,1.7,0,0,1,.55-1.21,2.59,2.59,0,0,1,2-.54h9.78c.72,0,2,.22,2,1.72v3.48h-.08a1.94,1.94,0,0,1-1.87,1.87H96.48l-.4-.47H92.33l-.57.47H88.82Z"/><path class="cls-5" d="M87.93,9.43S87.85,8.1,89.75,8.1H99.5s1-.08,1,1.25v3.46s0,1.43-1,1.43h-2.7l-.4-.48H92.05l-.57.48H88.87a1,1,0,0,1-.94-1.05C87.92,11.81,87.93,9.43,87.93,9.43Z"/><path class="cls-6" d="M87.93,9.43S87.85,8.1,89.75,8.1H99.5s1-.08,1,1.25v3.46s0,1.43-1,1.43h-2.7l-.4-.48H92.05l-.57.48H88.87a1,1,0,0,1-.94-1.05C87.92,11.81,87.93,9.43,87.93,9.43Z"/><path class="cls-10" d="M3.35,98.42h14.3v2.72H12.17v19.58H8.84V101.14H3.35Z"/><path class="cls-10" d="M19.6,98.42h3v22.3h-3Z"/><path class="cls-10" d="M25.62,109.69c.14-3,.87-5.31,2.19-6.84a11.41,11.41,0,0,1,4.29-3.26,12.8,12.8,0,0,1,3.11-.89c1-.14,1.79-.24,2.41-.28l2,0v2.76H37.87a10.33,10.33,0,0,0-6.2,2,7.57,7.57,0,0,0-2.69,4,.85.85,0,0,0-.09.31c0,.1,0,.2-.05.3h10.8v2.72H28.84a5.24,5.24,0,0,0,.18,1.33,6.35,6.35,0,0,0,.53,1.4,10.3,10.3,0,0,0,2.69,3.38,6.09,6.09,0,0,0,4,1.54.74.74,0,0,1,.18,0h.11a.08.08,0,0,1,.07,0l3,0v2.73H37.12a6.26,6.26,0,0,1-1.06,0c-.35,0-.71-.09-1.06-.16a12.72,12.72,0,0,1-6.46-3.46,9.66,9.66,0,0,1-2.92-7.35Z"/><path class="cls-10" d="M42.82,101.39a2.83,2.83,0,0,1,.83-2.16,3,3,0,0,1,1.83-.85h.17l.3,0,.34,0a3.17,3.17,0,0,1,1.17.57,2.51,2.51,0,0,1,.85,1.17l7.79,16.32V98.42h3.08v20.81a1.69,1.69,0,0,1-.66,1.51,2.59,2.59,0,0,1-1.47.44l-.28,0-.28,0a4.22,4.22,0,0,1-1.28-.48,1.89,1.89,0,0,1-.85-.9l-8.28-17.1v18.06H42.82Z"/><path class="cls-10" d="M63.64,98.42h7a9.62,9.62,0,0,1,1.38.17,12.5,12.5,0,0,1,1.42.39,11.56,11.56,0,0,1,4.79,3.52A9.73,9.73,0,0,1,80.45,109v.42a12.08,12.08,0,0,1-.28,2.3,11.89,11.89,0,0,1-1,2.94,12.57,12.57,0,0,1-3.34,4.09,9.8,9.8,0,0,1-6.15,2l-1.8,0v-3h1.8a.1.1,0,0,0,.08,0h.1a.13.13,0,0,0,.07,0H70a5.76,5.76,0,0,0,4.22-1.58,9.76,9.76,0,0,0,2.3-3.45,10,10,0,0,0,.51-1.74,8.08,8.08,0,0,0,.16-1.55v-.82a.9.9,0,0,0,0-.28,8.14,8.14,0,0,0-2.14-5,7.36,7.36,0,0,0-5.86-2.25H66.86v19.54H63.64Z"/><path class="cls-10" d="M82.86,106a8.45,8.45,0,0,1,2-5.7A6.92,6.92,0,0,1,90.4,98,7.42,7.42,0,0,1,96,100.24a8.55,8.55,0,0,1,2.2,6.18v14.3h-3V110.45H86.82v-3h8.32v-.81a6.87,6.87,0,0,0-1.22-4.44,4,4,0,0,0-3.27-1.51,4.27,4.27,0,0,0-3.08,1,5.3,5.3,0,0,0-1.42,2.2A6.54,6.54,0,0,0,85.9,105c0,.38-.07.71-.07,1v14.73h-3Z"/><path class="cls-11" d="M110.58,98.42h7a9.62,9.62,0,0,1,1.38.17,12.5,12.5,0,0,1,1.42.39,11.56,11.56,0,0,1,4.79,3.52,9.73,9.73,0,0,1,2.18,6.54v.42a12.08,12.08,0,0,1-.28,2.3,11.89,11.89,0,0,1-1,2.94,12.57,12.57,0,0,1-3.34,4.09,9.8,9.8,0,0,1-6.15,2l-1.8,0v-3h1.8s0,0,.07,0h.11a.13.13,0,0,0,.07,0h.07a5.76,5.76,0,0,0,4.22-1.58,9.76,9.76,0,0,0,2.3-3.45,10,10,0,0,0,.51-1.74,8.08,8.08,0,0,0,.16-1.55v-.82a.9.9,0,0,0,0-.28,8.14,8.14,0,0,0-2.14-5,7.36,7.36,0,0,0-5.86-2.25H113.8v19.54h-3.22Z"/><path class="cls-11" d="M130.22,98.42h3v22.3h-3Z"/><path class="cls-11" d="M136.52,109.46a10,10,0,0,1,2.39-7.06,13.69,13.69,0,0,1,5.22-3.67,15.32,15.32,0,0,1,2.18-.58,11.3,11.3,0,0,1,2-.19,11.75,11.75,0,0,1,4.82,1,13.8,13.8,0,0,1,4.21,3l-2,2.19c-.17-.14-.34-.29-.52-.46l-.55-.5a15.35,15.35,0,0,0-2.67-1.71,7.13,7.13,0,0,0-3.31-.8,7.55,7.55,0,0,0-5.89,2.2,9.73,9.73,0,0,0-2.5,4.85c0,.3-.08.6-.1.9a8.44,8.44,0,0,0,0,.87,9.46,9.46,0,0,0,2.09,5.91q2.08,2.69,6.44,2.87h.11a.15.15,0,0,0,.1,0l.09,0,.09,0a6.76,6.76,0,0,0,4.73-1.7,8.87,8.87,0,0,0,2.53-3.76,6.08,6.08,0,0,0,.26-1c.06-.32.1-.63.13-.94h-7.79v-3h11v2.76a10.2,10.2,0,0,1-3.64,7.61,11.85,11.85,0,0,1-7.65,2.66,11.38,11.38,0,0,1-8.35-3.21,11.7,11.7,0,0,1-3.44-8.26Z"/><path class="cls-11" d="M162.44,98.42h3v22.3h-3Z"/><path class="cls-11" d="M167.67,98.42H182v2.72h-5.49v19.58h-3.33V101.14h-5.49Z"/><path class="cls-11" d="M183.5,106a8.45,8.45,0,0,1,2-5.7A6.92,6.92,0,0,1,191,98a7.42,7.42,0,0,1,5.59,2.28,8.55,8.55,0,0,1,2.2,6.18v14.3h-3.05V110.45h-8.32v-3h8.32v-.81a6.93,6.93,0,0,0-1.22-4.44,4,4,0,0,0-3.27-1.51,4.27,4.27,0,0,0-3.08,1,5.3,5.3,0,0,0-1.42,2.2,6.54,6.54,0,0,0-.25,1.13,7.63,7.63,0,0,0-.07,1v14.73h-3Z"/><path class="cls-11" d="M205.09,98.42V113a7,7,0,0,0,.87,3.61c.58,1,1.69,1.49,3.34,1.49l.13,0,.16,0h0l.14,0h.11l2.51,0v2.73h-3.5a6.48,6.48,0,0,1-1.28-.07,7,7,0,0,1-1.45-.39,7.32,7.32,0,0,1-2.79-2,5.73,5.73,0,0,1-1.28-4V98.42Z"/></svg>