<?xml version="1.0" encoding="UTF-8"?><svg id="a" xmlns="http://www.w3.org/2000/svg" xmlns:xlink="http://www.w3.org/1999/xlink" viewBox="0 0 535.77 125"><defs><linearGradient id="b" x1="297.7" y1="111.24" x2="504.78" y2="111.24" gradientUnits="userSpaceOnUse"><stop offset="0" stop-color="#e62274"/><stop offset="0" stop-color="#e62274"/><stop offset=".66" stop-color="#e94c46"/><stop offset="1" stop-color="#eb652d"/><stop offset="1" stop-color="#eb652d"/></linearGradient><linearGradient id="d" x1="19.32" y1="46.45" x2="88.89" y2="46.45" xlink:href="#b"/></defs><path id="c" d="M298.94,111.79h2.17c1.74,0,2.73.82,2.73,2.33,0,.66-.27,1.32-.67,1.67-.45.39-.89.49-2.05.49h-2.17v-4.5ZM298.94,106.19h2.17c.99,0,1.39.12,1.73.48.33.34.52.85.52,1.46,0,.66-.23,1.26-.62,1.66-.43.43-.83.55-1.74.55h-2.06v-4.14ZM297.35,104.88v12.74h4.72c2.06,0,3.46-1.36,3.46-3.39,0-1.78-.97-2.97-2.67-3.29,1.35-.47,2.19-1.58,2.19-2.94,0-.87-.39-1.76-1-2.34-.65-.57-1.32-.78-2.55-.78h-4.14ZM313.36,104.88v12.74h7.32v-1.33h-5.75v-4.5h4.63v-1.34h-4.63v-4.26h5.58v-1.32h-7.16ZM352.94,104.88v7.89c0,1.58-.11,2.03-.72,2.7-.64.72-1.57,1.11-2.68,1.11s-2.02-.38-2.66-1.11c-.62-.67-.72-1.11-.72-2.7v-7.89h-1.58v8.38c0,1.66.41,2.66,1.47,3.54.96.78,2.14,1.18,3.53,1.18s2.54-.4,3.49-1.18c1.06-.88,1.47-1.84,1.47-3.54v-8.38h-1.59ZM361.29,104.88v1.32h4.24v11.43h1.59v-11.43h4.24v-1.32h-10.08ZM385.95,104.88l-3.52,5.46-3.41-5.46h-1.7l4.23,6.91v5.83h1.6v-5.95l4.47-6.79h-1.68ZM404.39,104.88v12.74h7.35v-1.33h-5.77v-4.5h4.62v-1.34h-4.62v-4.26h5.57v-1.32h-7.15ZM426.82,104.88l-3.35,4.9-3.38-4.9h-1.8l4.24,6.23-4.46,6.51h1.83l3.56-5.2,3.52,5.2h1.82l-4.45-6.47,4.26-6.27h-1.79ZM437.29,111.45v-5.25h2.18c1.03,0,1.58.16,1.96.55.47.48.72,1.16.72,1.99,0,1.2-.58,2.21-1.51,2.6-.42.18-.94.25-1.66.25-.44,0-.8-.02-1.7-.13M435.71,104.88v12.74h1.58v-4.84c1.12.11,1.46.16,1.96.16,2.8,0,4.54-1.64,4.54-4.31,0-1.18-.32-2.07-.99-2.75-.69-.72-1.56-1-3.09-1h-4ZM450.95,104.88v12.74h7.35v-1.33h-5.76v-4.5h4.62v-1.34h-4.62v-4.26h5.58v-1.32h-7.16ZM467.2,106.19h2.06c1.15,0,1.46.05,1.86.38.47.36.7.94.7,1.76,0,1.65-.87,2.49-2.55,2.49h-2.06v-4.63ZM465.62,104.88v12.74h1.58v-5.46h1.7l3.51,5.46h1.81l-3.77-5.7c.96-.22,1.41-.45,1.95-.97.71-.67,1.1-1.63,1.1-2.65,0-.95-.38-1.89-1-2.49-.73-.72-1.47-.94-3.01-.94h-3.87ZM479.77,104.88v1.32h4.25v11.43h1.58v-11.43h4.24v-1.32h-10.08ZM496.2,108.04c0,1.3.82,2.32,2.73,3.34,1.2.66,1.91,1.02,2.12,1.12.51.3.87.67,1.09,1.08.13.19.19.54.19.89,0,1.2-.9,1.93-2.4,1.93-.67,0-1.28-.12-1.84-.33-.45-.18-.77-.36-1.48-.83l-.8,1.26c.83.57,1.16.75,1.64.95.67.26,1.49.42,2.35.42,2.57,0,4.2-1.36,4.2-3.53,0-.92-.37-1.83-.99-2.34-.46-.39-1.14-.82-2-1.3-2.59-1.35-3.15-1.84-3.15-2.79,0-1.08.98-1.79,2.43-1.79.49,0,1.28.11,1.75.27.41.13.68.25,1.34.65l.75-1.31c-.73-.43-1.05-.56-1.58-.76-.65-.21-1.4-.3-2.13-.3-2.52,0-4.22,1.35-4.22,3.38M332.64,106.58l2.06,5.83h-4.15l2.09-5.83ZM331.79,104.51l-4.75,13.11h1.7l1.31-3.78h5.15l1.32,3.78h1.7l-4.74-13.11h-1.69Z" style="fill:url(#b);"/><path id="e" d="M67.31,77.43c-1.87-.75-3.33-1.66-4.49-2.65-1.74-1.47-2.85-3.11-3.56-4.57-.36-.73-.6-1.41-.78-1.98-.17-.57-.27-1.04-.32-1.33v-.05s-.01-.04-.01-.04c-.23-1.24-.41-2.36-.55-3.33,2.09.07,3.99.21,5.69.44,2.01.27,3.71.66,5.09,1.15,1.03.38,1.87.81,2.55,1.29.51.36.92.75,1.28,1.17.53.65.94,1.39,1.25,2.38.31.99.49,2.23.49,3.78v5.25c-2.67-.26-4.85-.81-6.64-1.52M34.26,73.69c0-1.22.12-2.25.32-3.12.17-.76.41-1.39.7-1.93.25-.47.54-.89.88-1.26.59-.66,1.35-1.23,2.38-1.74.77-.38,1.68-.72,2.75-1,1.59-.43,3.52-.74,5.72-.93,1.13-.1,2.34-.17,3.62-.21-.14.97-.32,2.1-.55,3.34v.05s-.01.03-.01.03c-.08.51-.32,1.58-.87,2.83-.41.94-.99,1.98-1.81,3.02-.61.78-1.36,1.55-2.27,2.28-1.37,1.09-3.11,2.09-5.43,2.84-1.53.5-3.33.88-5.41,1.08v-5.25ZM41.62,56c-2.79-.35-5.2-.87-7.18-1.57-1.49-.53-2.73-1.15-3.75-1.86-.76-.54-1.41-1.12-1.96-1.76-.83-.98-1.46-2.12-1.92-3.58-.46-1.46-.72-3.24-.72-5.42v-6.03c5.69.3,10.01,1.37,13.26,2.77,2.91,1.25,4.99,2.76,6.55,4.31,1.16,1.16,2.02,2.35,2.67,3.49.97,1.7,1.45,3.29,1.69,4.43.05.26.09.49.12.7.18,2,.27,3.75.31,5.14-3.35-.08-6.39-.26-9.08-.6M57.83,51.47c.07-.48.2-1.13.43-1.87.36-1.19.94-2.63,1.92-4.12.73-1.12,1.68-2.26,2.94-3.37,1.88-1.66,4.44-3.24,8.06-4.44,2.91-.96,6.51-1.66,10.94-1.9v7.22c0,1.28-.14,2.4-.39,3.4-.21.87-.51,1.64-.9,2.35-.68,1.23-1.61,2.29-2.93,3.26-.99.72-2.2,1.38-3.66,1.97-2.19.87-4.92,1.55-8.19,2-2.53.35-5.38.56-8.53.64.04-1.39.13-3.14.31-5.14M39.63,31.4c-3.74-1.29-8.21-2.15-13.54-2.41v-14.99c1.96.25,3.74.7,5.36,1.34,2.19.85,4.11,2.03,5.83,3.46,1.51,1.25,2.85,2.72,4.07,4.34,2.11,2.85,3.79,6.19,5.09,9.7.28.78.55,1.56.8,2.35-2.11-1.47-4.63-2.78-7.62-3.81M63.76,28.22c1.04-2.07,2.24-4.02,3.62-5.76,2.07-2.61,4.51-4.75,7.45-6.26,2.12-1.08,4.52-1.85,7.28-2.2v14.99c-6.52.31-11.75,1.53-15.93,3.33-1.98.85-3.71,1.83-5.22,2.89.76-2.4,1.69-4.77,2.8-6.99M85.5,7.02h-.02c-4.13,0-7.87.71-11.18,2.01-2.91,1.13-5.48,2.71-7.72,4.58-1.96,1.64-3.67,3.5-5.16,5.5-2.6,3.5-4.54,7.42-6.01,11.4-.48,1.31-.92,2.63-1.3,3.95-.92-3.11-2.1-6.25-3.61-9.27-1.22-2.42-2.65-4.76-4.36-6.93-2.56-3.24-5.76-6.07-9.67-8.08-3.9-2.01-8.5-3.16-13.72-3.16h-3.43v34.78c0,2.15.21,4.14.64,5.99.38,1.62.93,3.13,1.66,4.51.64,1.21,1.42,2.31,2.32,3.3,1.57,1.73,3.49,3.09,5.64,4.13,1.09.53,2.25.97,3.45,1.36-.82.62-1.57,1.32-2.23,2.11-1.13,1.35-1.98,2.95-2.52,4.71-.54,1.77-.79,3.69-.79,5.78v12.18h3.38c5,0,9.14-.81,12.53-2.15,2.54-1.01,4.65-2.32,6.36-3.77,1.91-1.61,3.32-3.38,4.35-5.06.41.68.88,1.37,1.42,2.06,1.82,2.31,4.44,4.6,8.04,6.25,3.6,1.66,8.14,2.69,13.77,2.69h3.39v-12.18c0-1.65-.16-3.19-.49-4.64-.29-1.27-.73-2.46-1.3-3.56-.5-.96-1.12-1.85-1.83-2.64-.65-.73-1.38-1.38-2.18-1.95.71-.23,1.4-.49,2.07-.76,1.84-.76,3.52-1.67,5.01-2.77,1.11-.83,2.11-1.76,2.98-2.8,1.31-1.56,2.3-3.35,2.94-5.31.65-1.96.95-4.06.95-6.28V7.02h-3.39Z" style="fill:url(#d);"/><path d="M137.85,74c-3.13,2.05-6.79,2.98-12.15,2.98s-8.95-.87-12.21-2.98c-4.44-2.92-5.88-6.32-5.88-13.82v-24.92h8.16v25.36c0,6.08,3.33,9.11,10.19,9.11,6.27,0,9.6-3.22,9.6-9.11v-25.36h8.23v24.92c0,7.5-1.44,10.85-5.94,13.82" style="fill:#10110f; stroke-width:0px;"/><polygon points="153.34 76.17 153.34 35.26 161.57 35.26 161.57 69.54 179.21 69.54 179.21 76.17 153.34 76.17" style="fill:#10110f; stroke-width:0px;"/><polygon points="196.22 41.89 196.22 76.17 187.99 76.17 187.99 41.89 175.06 41.89 175.06 35.26 209.15 35.26 209.15 41.89 196.22 41.89" style="fill:#10110f; stroke-width:0px;"/><path d="M237.95,76.17l-9.86-16.37h-4.11v16.37h-8.23v-40.91h14.37c6.27,0,9.14.74,11.69,3.04,2.35,2.04,3.52,5.02,3.52,8.86,0,3.16-.78,5.7-2.35,7.68-1.63,1.99-3.13,2.85-6.72,3.78l10.71,17.54h-9.01ZM229.33,41.89h-5.35v11.28h5.35c5.23,0,7.51-1.74,7.51-5.83s-2.16-5.45-7.51-5.45" style="fill:#10110f; stroke-width:0px;"/><path d="M281.46,76.17l-3.4-10.1h-14.43l-3.53,10.1h-8.62l15.61-40.91h7.38l15.61,40.91h-8.62ZM270.82,44.62l-4.96,14.81h9.99l-5.03-14.81Z" style="fill:#10110f; stroke-width:0px;"/><polygon points="305.01 41.89 305.01 52.43 320.16 52.43 320.16 59 305.01 59 305.01 76.17 296.79 76.17 296.79 35.26 323.5 35.26 323.5 41.89 305.01 41.89" style="fill:#10110f; stroke-width:0px;"/><polygon points="331.2 76.17 331.2 35.26 357.45 35.26 357.45 41.89 339.43 41.89 339.43 52 354.19 52 354.19 58.63 339.43 58.63 339.43 69.54 358.3 69.54 358.3 76.17 331.2 76.17" style="fill:#10110f; stroke-width:0px;"/><path d="M403.33,76.17v-30c-.33,2.11-.26,2.42-1.63,5.83l-9.86,24.18h-7.38l-9.01-23.74c-.91-2.36-.98-3.04-1.63-6.51v30.25h-7.44v-40.91h9.86l11.49,29.2c.46,1.18.65,1.61.84,3.16.26-1.92.39-2.17.79-3.16l11.95-29.2h9.86v40.91h-7.84Z" style="fill:#10110f; stroke-width:0px;"/><path d="M458.73,76.17v-30c-.33,2.11-.26,2.42-1.63,5.83l-9.86,24.18h-7.38l-9.01-23.74c-.91-2.36-.98-3.04-1.63-6.51v30.25h-7.45v-40.91h9.86l11.49,29.2c.46,1.18.65,1.61.85,3.16.26-1.92.39-2.17.79-3.16l11.95-29.2h9.86v40.91h-7.84Z" style="fill:#10110f; stroke-width:0px;"/><polygon points="476.74 76.17 476.74 35.26 502.99 35.26 502.99 41.89 484.96 41.89 484.96 52 499.73 52 499.73 58.63 484.96 58.63 484.96 69.54 503.84 69.54 503.84 76.17 476.74 76.17" style="fill:#10110f; stroke-width:0px;"/><path d="M522.57,34.82c0,4.29-3.37,7.66-7.76,7.66s-7.8-3.37-7.8-7.66,3.46-7.57,7.8-7.57,7.76,3.37,7.76,7.57M508.96,34.82c0,3.37,2.49,6.05,5.91,6.05s5.77-2.68,5.77-6-2.45-6.09-5.82-6.09-5.86,2.72-5.86,6.05M513.62,38.79h-1.76v-7.57c.69-.14,1.66-.23,2.91-.23,1.43,0,2.08.23,2.63.55.42.32.74.92.74,1.66,0,.83-.65,1.48-1.57,1.75v.09c.74.28,1.15.83,1.38,1.85.23,1.15.37,1.62.55,1.89h-1.89c-.23-.28-.37-.97-.6-1.85-.14-.83-.6-1.2-1.57-1.2h-.83v3.05ZM513.66,34.5h.83c.97,0,1.75-.32,1.75-1.11,0-.69-.51-1.15-1.62-1.15-.46,0-.78.05-.97.09v2.17Z" style="fill:#10110f; stroke-width:0px;"/></svg>