<?xml version="1.0" encoding="UTF-8"?><svg id="a" xmlns="http://www.w3.org/2000/svg" viewBox="0 0 356.74 125"><path d="M196.22,35.53c.64.75,1,1.68,1,2.68,0,1.1-.43,2.14-1.21,2.92-.78.78-1.82,1.21-2.92,1.21-1,0-1.94-.35-2.68-.99-.02-.02-.04-.04-.06-.06h0s-6.51-6.5-6.51-6.5c-.78-.78-1.21-1.82-1.21-2.92s.43-2.14,1.21-2.92c0,0,.98-.98,2.19-2.19-.95-.95-1.93-1.93-2.92-2.92l-2.19,2.19c-1.56,1.56-2.42,3.63-2.42,5.84s.86,4.28,2.42,5.84c0,0,6.56,6.54,6.58,6.56,1.53,1.42,3.5,2.2,5.6,2.2,2.21,0,4.28-.86,5.84-2.42,1.56-1.56,2.42-3.63,2.42-5.84s-.79-4.07-2.2-5.61l-2.92,2.92h0Z" style="fill:#af9862; stroke-width:0px;"/><path d="M159.99,16.78l2.91-2.91h0s-.02-.03-.03-.04c-.66-.75-1.02-1.71-1.02-2.72,0-1.1.43-2.14,1.21-2.92.78-.78,1.82-1.21,2.92-1.21,1.01,0,1.96.36,2.71,1.02.07.06.14.12.2.18,0,0,6.96,6.96,8.56,8.56l2.92-2.92-8.56-8.56c-.07-.07-.14-.12-.2-.18-1.53-1.44-3.52-2.23-5.64-2.23s-4.28.86-5.84,2.42c-1.56,1.56-2.42,3.63-2.42,5.84s.8,4.1,2.24,5.64c0,0,.02.02.03.03h0Z" style="fill:#af9862; stroke-width:0px;"/><path d="M165.99,56.75c-1.1,0-2.14-.43-2.92-1.21-.78-.78-1.21-1.82-1.21-2.92,0-1.01.36-1.96,1.02-2.71,0-.01.02-.02.03-.03h0s6.54-6.55,6.54-6.55c1.61-1.61,4.23-1.61,5.84,0l2.19,2.19,2.92-2.92-2.19-2.19c-3.22-3.22-8.46-3.22-11.68,0l-6.54,6.54h0s-.02.03-.03.04c-1.44,1.53-2.23,3.52-2.23,5.64s.86,4.28,2.42,5.84c1.56,1.56,3.63,2.42,5.84,2.42s4.1-.8,5.64-2.23l-2.92-2.92c-.75.66-1.7,1.02-2.71,1.02h0Z" style="fill:#af9862; stroke-width:0px;"/><path d="M190.36,22.41h0s.02-.01.03-.02c1.62-1.42,4.09-1.36,5.63.18.78.78,1.21,1.82,1.21,2.92,0,1.01-.36,1.96-1.02,2.72-.06.07-.12.14-.18.2l-8.56,8.56,2.92,2.92,8.56-8.56c.07-.07.12-.14.18-.2,1.44-1.53,2.23-3.52,2.23-5.64s-.86-4.28-2.42-5.84c-3.15-3.15-8.24-3.21-11.47-.18-.01.01-.02.02-.03.03l1.45,1.45,1.46,1.46h0Z" style="fill:#af9862; stroke-width:0px;"/><path d="M148.51,28.21c-.66-.75-1.02-1.71-1.02-2.72,0-1.1.43-2.14,1.21-2.92,1.54-1.54,4.01-1.6,5.63-.18.01,0,.02.02.03.03h0s.17.16.17.16l6.37,6.38c.78.78,1.21,1.82,1.21,2.92s-.43,2.14-1.21,2.92c0,0-.98.98-2.19,2.19l2.92,2.92,2.19-2.19c1.56-1.56,2.42-3.63,2.42-5.84s-.86-4.28-2.42-5.84l-6.37-6.38-.16-.16h0s-.02,0-.03-.02c-3.23-3.03-8.32-2.97-11.47.19-1.56,1.56-2.42,3.63-2.42,5.84s.79,4.1,2.23,5.64l2.92-2.92h0Z" style="fill:#af9862; stroke-width:0px;"/><path d="M184.7,46.93l-2.91,2.91h0s.04.05.06.07c1.39,1.62,1.32,4.07-.21,5.6-1.53,1.53-3.98,1.6-5.6.21-.08-.07-.16-.14-.24-.21l-8.53-8.53-2.92,2.92,8.53,8.53c.08.08.16.14.24.21,3.24,3,8.3,2.93,11.44-.21,3.14-3.14,3.21-8.21.21-11.44-.02-.02-.04-.04-.06-.06h0Z" style="fill:#af9862; stroke-width:0px;"/><path d="M181.63,8.23c1.53,1.53,1.6,3.98.21,5.6-.02.02-.04.04-.06.06h0s-6.51,6.52-6.51,6.52c-1.61,1.61-4.23,1.61-5.84,0l-2.19-2.19c-.95.95-1.93,1.93-2.92,2.92l2.19,2.19c3.22,3.22,8.46,3.22,11.68,0,0,0,6.35-6.35,6.35-6.35.1-.1.16-.16.16-.16h0s.04-.05.06-.07c2.99-3.24,2.93-8.3-.21-11.45-3.14-3.14-8.21-3.21-11.44-.21l2.92,2.92c1.62-1.39,4.07-1.32,5.6.21h0Z" style="fill:#af9862; stroke-width:0px;"/><path d="M154.38,41.29s-.04.04-.06.06c-.75.64-1.69.99-2.68.99-1.1,0-2.14-.43-2.92-1.21-.78-.78-1.21-1.82-1.21-2.92,0-1,.35-1.94,1-2.68.07-.08.14-.16.21-.24,0,0,6.93-6.93,8.53-8.53l-2.92-2.92-8.53,8.53c-.08.08-.14.16-.21.23-1.42,1.53-2.21,3.5-2.21,5.61,0,2.2.86,4.28,2.42,5.84,1.56,1.56,3.63,2.42,5.84,2.42s4.07-.78,5.6-2.2c.02-.02.04-.04.06-.06l-2.91-2.91h0Z" style="fill:#af9862; stroke-width:0px;"/><polygon points="149.96 35.52 152.88 32.6 162.87 42.6 159.95 45.52 149.96 35.52 149.96 35.52" style="fill:#af9862; stroke-width:0px;"/><polygon points="168.71 9.47 171.63 12.39 161.64 22.38 158.72 19.46 168.71 9.47 168.71 9.47" style="fill:#af9862; stroke-width:0px;"/><polygon points="183.09 41.36 186.01 44.28 176.01 54.27 173.09 51.35 183.09 41.36 183.09 41.36" style="fill:#af9862; stroke-width:0px;"/><polygon points="194.77 28.22 191.85 31.14 181.85 21.14 184.77 18.22 194.77 28.22 194.77 28.22" style="fill:#af9862; stroke-width:0px;"/><path d="M349.69,78.55c-.26-.49-.66-.89-1.15-1.14h0c-.47-.26-.98-.4-1.51-.4h0c-.53,0-1.05.14-1.51.4-.49.26-.89.66-1.15,1.14-.27.47-.41,1-.41,1.55,0,.53.14,1.06.4,1.53.26.48.66.88,1.14,1.15h0c.46.26.99.4,1.53.4.54,0,1.06-.14,1.53-.4.49-.26.88-.66,1.14-1.14.27-.47.41-.99.41-1.53h0c0-.55-.14-1.07-.41-1.55ZM349.58,80.1c0,.45-.12.89-.34,1.27h0c-.22.4-.55.73-.95.95-.39.22-.83.34-1.28.34,0,0,0,0,0,0h0,0c-.45,0-.88-.12-1.27-.34-.4-.22-.73-.55-.95-.96-.22-.39-.34-.82-.34-1.27,0,0,0,0,0,0h0s0,0,0,0c0-.45.12-.89.34-1.29.22-.41.56-.74.97-.95.38-.22.82-.33,1.26-.33h0c.44,0,.87.12,1.26.34.41.22.74.55.96.95.22.39.34.84.34,1.29h0ZM343.95,80.1s0,0,0,0,0,0,0,0h0ZM347.02,83.17h0s0,0,0,0h0ZM347.94,80.98h.01c-.11-.17-.24-.34-.38-.49h0c-.08-.08-.17-.14-.27-.18h0c.25-.02.49-.12.67-.3.16-.17.26-.4.26-.64,0-.17-.06-.34-.16-.48-.1-.15-.25-.26-.42-.32h0s-.09-.03-.13-.04c-.24-.04-.48-.06-.72-.06h-1.14v3.31h.54v-1.41h.31c.06,0,.12,0,.18.02.09.01.18.04.25.1.05.04.1.09.14.14.16.2.3.41.41.63l.29.52h.66l-.41-.65-.11-.16ZM346.86,79.93h-.65v-1h.61c.13,0,.25,0,.38.02h0c.06,0,.11.02.17.04h0c.09.03.17.09.23.17.06.08.08.17.08.27,0,.14-.06.28-.18.37-.05.04-.11.07-.18.09h0c-.15.04-.3.05-.45.05ZM170.28,105.9c0,4.01-.51,6.38-1.81,8.47-.86,1.32-1.52,2.11-3.68,4.54l-.21.24,3.97,3,.18-.18c2.19-2.2,3-3.2,4.07-4.75h0c1.27-1.89,1.87-3.09,3.07-6.16l.02-32.96h-5.62v27.81ZM70.18,82.85h11.26v27.52h5.55v-27.52h11.26v-4.77h-28.07v4.77ZM54.02,78.19h-5.33v31.99h20.29v-4.47h-14.96v-27.52ZM34.31,98.01c0,5.61-2.82,8.46-8.38,8.46s-8.38-2.85-8.38-8.46v-19.92h-5.56v19.06c0,6.4,1.32,9.69,4.71,11.72,2.6,1.48,6.21,2.43,9.22,2.43s6.67-.98,9.16-2.43h0c3.44-2.03,4.78-5.31,4.78-11.72v-19.06h-5.56v19.92ZM268.68,96.18h12.05v-4.77h-12.05v-8.56h14.57v-4.77h-20.19v32.29h20.59v-4.77h-14.96v-9.42ZM242.83,102.22c-.51-1.14-4.99-11.09-5.09-11.31.1-.23,5.56-12.82,5.56-12.82h-5.22s-2.3,5.92-2.73,7.02c-.48-1.08-3.1-7.02-3.1-7.02h-5.27s5.46,13,5.55,13.23c-.09.21-4.15,9.75-4.64,10.9-.51-1.24-9.81-24.13-9.81-24.13h-6.07l14.22,32.88h2.77s5.49-12.77,5.97-13.89c.51,1.11,6.29,13.89,6.29,13.89h3.04l13.55-32.88h-5.61s-8.94,22.9-9.42,24.13ZM298.31,78.09h-5.62v32.29h20.59v-4.77h-14.96v-27.52ZM330.08,82.39c1.38,0,2.77.21,4.36.65,1.56.52,2.27.78,3.89,1.88l.3.2,2.04-4.76-.24-.13c-1.94-1.03-2.78-1.47-4.3-1.88-1.78-.53-3.85-.81-5.97-.81-7.18,0-11.82,3.5-11.82,8.91,0,3.53,2.28,6.27,7.19,8.62l5.76,2.78c2.42,1.15,3.4,2.44,3.4,4.44,0,2.47-2.09,3.95-5.6,3.95-1.69,0-3.51-.37-5.12-1.04-1.23-.52-2.06-1.03-4.04-2.48l-.28-.2-2.54,4.86.23.14c2.33,1.44,3.25,1.89,4.55,2.41,1.86.67,4.14,1.02,6.6,1.02,7.29,0,11.81-3.57,11.81-9.31,0-4.05-1.95-6.3-8.04-9.28-6-2.91-7.14-3.53-8.03-4.87-.22-.34-.35-.87-.35-1.49,0-2.27,2.32-3.62,6.19-3.62ZM191.56,96.18h12.05v-4.77h-12.05v-8.56h14.57v-4.77h-20.19v32.29h20.58v-4.77h-14.96v-9.42ZM126.79,87.5c0-6.01-4.29-9.31-12.08-9.31h-10.95v32.29h5.62v-12.93h4.11c.17.26,8.34,12.93,8.34,12.93h6.53s-8.39-12.79-8.82-13.44c4.34-.92,7.24-4.68,7.24-9.53ZM114.05,92.78h-4.67v-9.82h4.67c3.71,0,3.97.09,4.92.8h0c1.2.88,1.8,2.21,1.8,3.94s-.5,2.83-1.62,3.83c-1.29,1.11-1.86,1.25-5.1,1.25ZM144.38,77.29l-13.15,33.08h5.66s3.43-8.47,3.58-8.82h13.18c.14.35,3.64,8.82,3.64,8.82h5.6l-13.15-33.08h-5.36ZM142.1,96.86c.27-.72,4.52-11.8,5-13.07.48,1.27,4.67,12.36,4.94,13.07h-9.94Z" style="fill:#4e321e; stroke-width:0px;"/></svg>