<svg id="Capa_1" data-name="Capa 1" xmlns="http://www.w3.org/2000/svg" xmlns:xlink="http://www.w3.org/1999/xlink" viewBox="0 0 151.96 125"><defs><style>.cls-1,.cls-5{fill:#009245;}.cls-1,.cls-2,.cls-3,.cls-4,.cls-5,.cls-6,.cls-7{fill-rule:evenodd;}.cls-2,.cls-6{fill:#fff;}.cls-3{fill:url(#linear-gradient);}.cls-4{fill:#f7e323;}.cls-5{stroke:#009245;stroke-width:0.99px;}.cls-5,.cls-6{stroke-miterlimit:2.61;}.cls-6{stroke:#fff;stroke-width:0.03px;}.cls-7{fill:url(#linear-gradient-2);}</style><linearGradient id="linear-gradient" x1="73.34" y1="118.46" x2="73.34" y2="7.77" gradientUnits="userSpaceOnUse"><stop offset="0" stop-color="#3b090f"/><stop offset="0.02" stop-color="#430c11"/><stop offset="0.12" stop-color="#6a1b1d"/><stop offset="0.23" stop-color="#8d2828"/><stop offset="0.34" stop-color="#a83330"/><stop offset="0.47" stop-color="#be3b37"/><stop offset="0.61" stop-color="#cd413b"/><stop offset="0.77" stop-color="#d6443e"/><stop offset="1" stop-color="#d9453f"/></linearGradient><linearGradient id="linear-gradient-2" x1="74.41" y1="11.5" x2="74.41" y2="47.07" gradientUnits="userSpaceOnUse"><stop offset="0" stop-color="#fff"/><stop offset="0.01" stop-color="#fff" stop-opacity="0.98"/><stop offset="0.09" stop-color="#fff" stop-opacity="0.78"/><stop offset="0.17" stop-color="#fff" stop-opacity="0.59"/><stop offset="0.26" stop-color="#fff" stop-opacity="0.43"/><stop offset="0.35" stop-color="#fff" stop-opacity="0.3"/><stop offset="0.45" stop-color="#fff" stop-opacity="0.19"/><stop offset="0.55" stop-color="#fff" stop-opacity="0.11"/><stop offset="0.67" stop-color="#fff" stop-opacity="0.05"/><stop offset="0.8" stop-color="#fff" stop-opacity="0.01"/><stop offset="1" stop-color="#fff" stop-opacity="0"/></linearGradient></defs><path class="cls-1" d="M73.34,1.9c33.52,0,60.7,27.41,60.7,61.21s-27.18,61.22-60.7,61.22S12.63,96.92,12.63,63.11,39.81,1.9,73.34,1.9Zm0,5.87c30.3,0,54.88,24.78,54.88,55.34s-24.58,55.35-54.88,55.35S18.45,93.67,18.45,63.11,43,7.77,73.34,7.77Z"/><path class="cls-2" d="M73.64,5.63C105.29,5.63,131,31.51,131,63.42s-25.67,57.8-57.32,57.8S16.33,95.33,16.33,63.42,42,5.63,73.64,5.63Zm0,2.45c30.31,0,54.89,24.78,54.89,55.34S104,118.76,73.64,118.76,18.76,94,18.76,63.42,43.34,8.08,73.64,8.08Z"/><path class="cls-3" d="M73.34,7.77c30.3,0,54.88,24.78,54.88,55.34s-24.58,55.35-54.88,55.35S18.45,93.67,18.45,63.11,43,7.77,73.34,7.77Z"/><path class="cls-4" d="M38.15,37.91l.72,5.29c3.07-.77,6.11-1.4,8.66-.64,5.29,1.55,5.87,8.13,6.8,12.69L62,92.47c.84,4.11,3.56,10.29-1.71,12.27l-5,1.92.48,3.36L109.54,95.6,108.1,93c-3.46.69-6.49.19-8.38-3.24a15.19,15.19,0,0,1-1.48-4.46c-.67-2.89-1.34-5.78-2-8.68-4.58-20.26-8.69-40.52-11.71-60.79A163.76,163.76,0,0,1,38.15,37.91Z"/><path class="cls-5" d="M4.27,49.55c-.92-3.5,6.66-2.52,8.39-.88a1.48,1.48,0,0,1,.52.88l.5,16.39c.18,2.14,2.49,1.46,2.59-.18,0-.59.14-1.18.21-1.77.44-3.73,1.16-7.45,1.95-11.12a4.41,4.41,0,0,1,1.15-2.38c1-.89,2.14-.55,3.32-.31a19.75,19.75,0,0,1,2.37.62c2.08.66,1.9,2.15,1.94,3.91l.45,11.19c.07,2,2.08,2.53,2.58.2l3.12-14.76c.35-1.63.59-3.43,2.11-4.45a2.92,2.92,0,0,1,2.07-.45l2.18.63c1.17.34,1.93.75,2.05,2.15.16,1.89-1.1,4.75-1.55,6.66L34.55,79.67c-.24,1-.31,2.19-1.53,2.5a7,7,0,0,1-3.31-.4L26,80.85a2.7,2.7,0,0,1-2.24-2.14l-.31-9c0-1.11.07-2.49-1.52-2.49-1.34,0-1.42,1.4-1.6,2.36L18.05,82a6.52,6.52,0,0,1-2.69.43c-2.77,0-7-.42-7.26-4.06L4.27,49.55Z"/><path class="cls-5" d="M43.35,66.91a7.59,7.59,0,0,0,4.09,0A10.43,10.43,0,0,1,48.79,64c.79-1.12,1.78-2.47,3.24-1.74a2.7,2.7,0,0,1,1,1.49l-.09,4.5a26.12,26.12,0,0,0-6.44,1.44c-2,.8-4.42,3.08-4.78,5.31-.51,3.19,2.55,6.6,5.47,7.45a5.44,5.44,0,0,0,3.67-.51c2.32-.51,2.47.15,2.62,1.08l5.58.18a2.57,2.57,0,0,0,1.13-.94c.68-1.15.23-4,.24-5.27l0-11.35c0-4-.5-5-4.2-7C53.35,57,49.78,56,46.9,57.9A5.23,5.23,0,0,0,45,60.38L43.15,64c-.83,1.62-1.93,2.31.2,2.92Zm9.5,7.34c-.27-1.87-2.74-1.5-5,0-.67.43-1,.58-1.12,1.36A2,2,0,0,0,47.87,78a5.09,5.09,0,0,0,3.89.35,1.25,1.25,0,0,0,1.05-.55l0-3.5Z"/><path class="cls-5" d="M67.42,47.35l-1,29.46c-.06,2-.53,3.26,1.1,4.7a3,3,0,0,0,4.18.16,8.46,8.46,0,0,0,1.49-1.42l.18-3.57,1.32-25.9c.16-3.13.86-4-1.91-5.72s-5.09-1.84-5.41,2.29Z"/><path class="cls-5" d="M91.47,47.08l-.34,10.57c-.62.38-1.32.71-2.51-.35a4.91,4.91,0,0,0-4.55,0,15.66,15.66,0,0,0-5.61,7.3c-1.44,3.78-2,8.15-.27,11.92a10.6,10.6,0,0,0,.64,1.2c1.49,2.38,3.26,3.78,6.14,3.71,2.07,0,2.45-.74,3.73-2.07a3.35,3.35,0,0,1,1.72-1.13,3.26,3.26,0,0,0,1.2,3,3,3,0,0,0,4.18.17A8.17,8.17,0,0,0,97.28,80l.18-3.56,1.32-25.91c.16-3.12.87-4-1.9-5.72s-5.1-1.84-5.41,2.29ZM85.06,64.79a26.86,26.86,0,0,0-2,6.06c-.36,1.78-.88,4.48.71,5.82s3.52.37,4.78-.7a9.5,9.5,0,0,0,2.21-2.73A12.28,12.28,0,0,0,92,63.72c-.53-1.74-1.7-3.3-3.77-2.86-1.68.37-2.56,2.54-3.21,3.93Z"/><path class="cls-5" d="M105.08,59.77A7.4,7.4,0,0,1,108,56.9a6.44,6.44,0,0,1,2.54-.7,17.78,17.78,0,0,1,6.61,2.51,9,9,0,0,1,3.7,5.15,20.33,20.33,0,0,1,.4,5.68A25,25,0,0,1,120,75.49a13.62,13.62,0,0,1-3,3.92,10.51,10.51,0,0,1-3,1.89A17.82,17.82,0,0,1,109.7,81c-2.87-.56-5-1.31-6.54-4-1-1.77-.9-3.55-.82-5.49.18-4.65,1-8.65,2.74-11.75Zm3,7.26c-.75,2.61-2,10,1.8,11.07,1.54.45,2.82-.82,3.6-2a11.32,11.32,0,0,0,1.53-3.54c.89-3.34,1.56-7.74-.35-10.81-.62-1-1.26-1.45-1.94-1.36-2.05.26-4.16,5-4.64,6.62Z"/><path class="cls-5" d="M124.86,43.19l-1.12,10.06-.17,1.54c-.21,1.09.4,2.86,4.19,2.21a10.18,10.18,0,0,0,1.53-.4l.33-1.37L132,45.3c.29-1.2,1-1.47-1.65-2.43s-5-1.25-5.48.32Z"/><path class="cls-5" d="M141.5,63.42c1.37,1.72,3.77,1.08,5,.29a10.13,10.13,0,0,0-.2-3.1c-1-3.24-2.7-4.73-6.14-5.31a7.87,7.87,0,0,0-7.6,2.68,6.78,6.78,0,0,0-.75,1c-1.25,2.1-1.48,7.07.19,8.86,1.24,1.33,3.83,2.24,5.63,3.62a2.64,2.64,0,0,1,.92,3.48c-1.12,2.53-4.58-.62-5.53-1.8a3.73,3.73,0,0,0-2.35.58c-1.55,1.15-.68,2,.35,2.84l1.07.9a7.43,7.43,0,0,0,5.34,2.21,12.22,12.22,0,0,0,3.07-.26,9.47,9.47,0,0,0,3.81-3,4.71,4.71,0,0,0,1.33-3.09c.23-4.57-8.82-5.78-9.6-10.23a4.23,4.23,0,0,1,1.53-3.75,2.54,2.54,0,0,1,3.59.77,5.69,5.69,0,0,1,.32,3.27Z"/><path class="cls-1" d="M15.35,84.9c-7.65-.05-9.5-3.46-9.71-6.31L1.83,50a3.86,3.86,0,0,1,.69-3.35c1-1.25,2.65-1.9,4.9-1.9s5.37.68,6.94,2.16a3.86,3.86,0,0,1,1.28,2.4,1.41,1.41,0,0,1,0,.21l.12,4,.24-1.1a6.9,6.9,0,0,1,1.87-3.65,4.58,4.58,0,0,1,3.26-1.26,10,10,0,0,1,2,.25l.28.06a24.17,24.17,0,0,1,2.64.69c3.59,1.14,3.64,4.16,3.66,5.78v.43l.07,1.77,1.27-6c.35-1.72.83-4.07,3-5.57A5.54,5.54,0,0,1,37.85,44a1.84,1.84,0,0,1,.38.08l2.18.63A4.69,4.69,0,0,1,44.23,49a15.29,15.29,0,0,1-1.06,5.62c-.23.71-.43,1.32-.54,1.82L37,80.24l-.08.36a4.6,4.6,0,0,1-3.25,4,5.53,5.53,0,0,1-1.37.17,10,10,0,0,1-2.7-.46l-.46-.11-3.67-.92a5.2,5.2,0,0,1-4.07-4.09,2.2,2.2,0,0,1,0-.36l0-.71-.82,4.35a2.49,2.49,0,0,1-1.39,1.8,8.74,8.74,0,0,1-3.64.66Z"/><path class="cls-1" d="M15.35,84c-5.61,0-8.59-1.89-8.85-5.52L2.68,49.85a3.16,3.16,0,0,1,.52-2.72c.79-1,2.25-1.56,4.22-1.56,2.14,0,5,.66,6.35,1.93a3,3,0,0,1,1,1.87.53.53,0,0,1,0,.13l.38,12.14c.47-3.27,1.1-6.4,1.68-9.11a6,6,0,0,1,1.63-3.21,3.73,3.73,0,0,1,2.66-1,8.24,8.24,0,0,1,1.79.24l.28.05a25.66,25.66,0,0,1,2.55.67c3,1,3,3.37,3.06,5v.44l.34,8.68,2.7-12.77c.34-1.66.76-3.73,2.69-5a4.41,4.41,0,0,1,2.51-.75,5.22,5.22,0,0,1,.67,0l.25,0,2.18.64a3.82,3.82,0,0,1,3.21,3.55,14.78,14.78,0,0,1-1,5.29c-.22.69-.43,1.34-.56,1.88L36.12,80l-.08.38a3.75,3.75,0,0,1-2.62,3.32,4.79,4.79,0,0,1-1.16.14,9.44,9.44,0,0,1-2.48-.43l-.46-.12-3.68-.92A4.25,4.25,0,0,1,22.21,79a1,1,0,0,1,0-.24l-.3-8.53L19.64,82.29a1.61,1.61,0,0,1-.91,1.16,7.73,7.73,0,0,1-3.28.59Z"/><path class="cls-1" d="M4.27,49.55c-.92-3.5,6.66-2.52,8.39-.88a1.48,1.48,0,0,1,.52.88l.5,16.39c.18,2.14,2.49,1.46,2.59-.18,0-.59.14-1.18.21-1.77.44-3.73,1.16-7.45,1.95-11.12a4.41,4.41,0,0,1,1.15-2.38c1-.89,2.14-.55,3.32-.31a19.75,19.75,0,0,1,2.37.62c2.08.66,1.9,2.15,1.94,3.91l.45,11.19c.07,2,2.08,2.53,2.58.2l3.12-14.76c.35-1.63.59-3.43,2.11-4.45a2.92,2.92,0,0,1,2.07-.45l2.18.63c1.17.34,1.93.75,2.05,2.15.16,1.89-1.1,4.75-1.55,6.66L34.55,79.67c-.24,1-.31,2.19-1.53,2.5a7,7,0,0,1-3.31-.4L26,80.85a2.7,2.7,0,0,1-2.24-2.14l-.31-9c0-1.11.07-2.49-1.52-2.49-1.34,0-1.42,1.4-1.6,2.36L18.05,82a6.52,6.52,0,0,1-2.69.43c-2.77,0-7-.42-7.26-4.06L4.27,49.55Z"/><path class="cls-1" d="M53.4,85.45a2.45,2.45,0,0,1-2-1.1,8.5,8.5,0,0,1-3.19.67,6.18,6.18,0,0,1-1.73-.24c-4-1.16-8-5.64-7.22-10.22a9.38,9.38,0,0,1,3.28-5.31,3.85,3.85,0,0,1-2.72-2.16,3.79,3.79,0,0,1,.69-3.51c.15-.25.29-.47.42-.72l1.84-3.56a7.37,7.37,0,0,1,2.77-3.47,8.94,8.94,0,0,1,5-1.43,14.5,14.5,0,0,1,6.95,2c4.44,2.42,5.51,4.23,5.49,9.2L62.9,77c0,.28,0,.65.06,1.05.12,1.88.25,4-.65,5.48a5,5,0,0,1-2.16,1.9,2.56,2.56,0,0,1-1.09.25ZM49.66,76a2.34,2.34,0,0,0,.47,0h.22v-.37A6,6,0,0,0,49.66,76Zm.74-9.92.11,0v-.19A2.12,2.12,0,0,0,50.4,66.08Z"/><path class="cls-1" d="M53.42,84.6a1.61,1.61,0,0,1-1.51-1.24,5.2,5.2,0,0,0-.55.08,7.9,7.9,0,0,1-3.13.72A5.21,5.21,0,0,1,46.74,84c-3.65-1-7.26-5.23-6.61-9.25.38-2.37,2.44-4.67,4.55-5.94a8.08,8.08,0,0,1-1.78-.3,3.11,3.11,0,0,1-2.26-1.68A3,3,0,0,1,41.26,64c.14-.23.3-.49.45-.79l1.84-3.55A6.64,6.64,0,0,1,46,56.55a8.07,8.07,0,0,1,4.49-1.29,13.81,13.81,0,0,1,6.54,1.9c4.16,2.28,5.06,3.78,5,8.45L62,77c0,.3,0,.7.06,1.14.11,1.72.24,3.66-.53,5a4.15,4.15,0,0,1-1.8,1.56,1.61,1.61,0,0,1-.71.17Zm-5.1-8.69a.79.79,0,0,0,0,.35,1.12,1.12,0,0,0,.38.28,2.83,2.83,0,0,0,1.46.37,5.46,5.46,0,0,0,1.08-.13l0-2.19a5.33,5.33,0,0,0-2.5,1c-.18.12-.3.19-.39.26A.3.3,0,0,0,48.32,75.91Zm2.93-12.23c-.37.12-.92.9-1.14,1.21A8.48,8.48,0,0,0,49,67.22c.72-.16,1.49-.3,2.33-.42l.06-2.8A3.06,3.06,0,0,0,51.25,63.68Z"/><path class="cls-1" d="M43.35,66.91a7.59,7.59,0,0,0,4.09,0A10.43,10.43,0,0,1,48.79,64c.79-1.12,1.78-2.47,3.24-1.74a2.7,2.7,0,0,1,1,1.49l-.09,4.5a26.12,26.12,0,0,0-6.44,1.44c-2,.8-4.42,3.08-4.78,5.31-.51,3.19,2.55,6.6,5.47,7.45a5.44,5.44,0,0,0,3.67-.51c2.32-.51,2.47.15,2.62,1.08l5.58.18a2.57,2.57,0,0,0,1.13-.94c.68-1.15.23-4,.24-5.27l0-11.35c0-4-.5-5-4.2-7C53.35,57,49.78,56,46.9,57.9A5.23,5.23,0,0,0,45,60.38L43.15,64c-.83,1.62-1.93,2.31.2,2.92Zm9.5,7.34c-.27-1.87-2.74-1.5-5,0-.67.43-1,.58-1.12,1.36A2,2,0,0,0,47.87,78a5.09,5.09,0,0,0,3.89.35,1.25,1.25,0,0,0,1.05-.55l0-3.5Z"/><path class="cls-1" d="M69.72,84.9a5.68,5.68,0,0,1-3.78-1.53,6.07,6.07,0,0,1-2-5.71c0-.29,0-.6,0-.93l1-29.46c.4-5.28,3.49-5.85,4.8-5.85A8.62,8.62,0,0,1,74.13,43c3.35,2.07,3.43,4,3.18,6.6,0,.46-.08.88-.1,1.35l-1.5,29.47a2.47,2.47,0,0,1-.58,1.46,10.69,10.69,0,0,1-1.93,1.85A5.87,5.87,0,0,1,69.72,84.9Z"/><path class="cls-1" d="M69.72,84a4.85,4.85,0,0,1-3.21-1.32c-2-1.71-1.82-3.46-1.71-5q0-.45.06-1l1-29.47c.33-4.36,2.61-5,3.94-5a7.71,7.71,0,0,1,3.93,1.41c3,1.84,3,3.39,2.78,5.78,0,.41-.08.87-.11,1.39l-1.5,29.47a1.6,1.6,0,0,1-.38,1A10,10,0,0,1,72.7,83a5.07,5.07,0,0,1-3,1.06Z"/><path class="cls-1" d="M67.42,47.35l-1,29.46c-.06,2-.53,3.26,1.1,4.7a3,3,0,0,0,4.18.16,8.46,8.46,0,0,0,1.49-1.42l.18-3.57,1.32-25.9c.16-3.13.86-4-1.91-5.72s-5.09-1.84-5.41,2.29Z"/><path class="cls-1" d="M93.77,84.63A5.63,5.63,0,0,1,90,83.1a6.18,6.18,0,0,1-.76-.78A6,6,0,0,1,85,83.87h-.24a9.29,9.29,0,0,1-8-4.88,14.75,14.75,0,0,1-.79-1.47c-2.3-5-1.15-10.27.22-13.84a18.06,18.06,0,0,1,6.47-8.43A1.65,1.65,0,0,1,83,55a7.61,7.61,0,0,1,3.31-.78,7.47,7.47,0,0,1,2.45.42L89,47c.4-5.27,3.49-5.84,4.8-5.84a8.55,8.55,0,0,1,4.38,1.53c3.34,2.06,3.43,4,3.18,6.6,0,.45-.08.87-.11,1.35l-1.5,29.47a2.53,2.53,0,0,1-.57,1.46,11,11,0,0,1-1.93,1.84A5.89,5.89,0,0,1,93.77,84.63ZM89,63.26a.73.73,0,0,0-.18,0,6.31,6.31,0,0,0-1.33,2.21l-.16.35a24.11,24.11,0,0,0-1.8,5.5c-.51,2.51-.35,3.26-.13,3.44h.06A2.61,2.61,0,0,0,87,74.08a7.19,7.19,0,0,0,1.65-2,9.89,9.89,0,0,0,1.07-7.59C89.41,63.56,89.08,63.26,89,63.26Z"/><path class="cls-1" d="M93.76,83.77a4.8,4.8,0,0,1-3.21-1.32A5.19,5.19,0,0,1,89.35,81,5.29,5.29,0,0,1,85,83h-.23c-4,0-6.11-2.56-7.31-4.48a13.88,13.88,0,0,1-.74-1.37C74.55,72.46,75.65,67.4,77,64a17.38,17.38,0,0,1,6.17-8.05l.24-.14a6.76,6.76,0,0,1,2.93-.69,6.84,6.84,0,0,1,3,.74l.23.14.29-9c.33-4.37,2.61-5,3.94-5a7.81,7.81,0,0,1,3.93,1.4c3,1.84,3,3.4,2.77,5.79,0,.41-.08.86-.1,1.39L98.89,80.06a1.68,1.68,0,0,1-.37,1,10.25,10.25,0,0,1-1.77,1.69,5,5,0,0,1-3,1.06ZM89,62.4a1.59,1.59,0,0,0-.36,0c-.76.17-1.49,1.75-1.93,2.7l-.16.34a25.14,25.14,0,0,0-1.87,5.69c-.25,1.23-.71,3.53.17,4.27a.94.94,0,0,0,.65.23,3.56,3.56,0,0,0,2-.93,8.07,8.07,0,0,0,1.84-2.29,10.71,10.71,0,0,0,1.14-8.26C90.29,63.52,89.82,62.4,89,62.4Z"/><path class="cls-1" d="M91.47,47.08l-.34,10.57c-.62.38-1.32.71-2.51-.35a4.91,4.91,0,0,0-4.55,0,15.66,15.66,0,0,0-5.61,7.3c-1.44,3.78-2,8.15-.27,11.92a10.6,10.6,0,0,0,.64,1.2c1.49,2.38,3.26,3.78,6.14,3.71,2.07,0,2.45-.74,3.73-2.07a3.35,3.35,0,0,1,1.72-1.13,3.26,3.26,0,0,0,1.2,3,3,3,0,0,0,4.18.17A8.17,8.17,0,0,0,97.28,80l.18-3.56,1.32-25.91c.16-3.12.87-4-1.9-5.72s-5.1-1.84-5.41,2.29ZM85.06,64.79a26.86,26.86,0,0,0-2,6.06c-.36,1.78-.88,4.48.71,5.82s3.52.37,4.78-.7a9.5,9.5,0,0,0,2.21-2.73A12.28,12.28,0,0,0,92,63.72c-.53-1.74-1.7-3.3-3.77-2.86-1.68.37-2.56,2.54-3.21,3.93Z"/><path class="cls-1" d="M113.24,83.79a21.14,21.14,0,0,1-4-.39c-2.89-.57-6.14-1.49-8.22-5.18a11.84,11.84,0,0,1-1.14-6.69c.21-5.41,1.21-9.65,3.06-13a9.91,9.91,0,0,1,3.89-3.86,9.19,9.19,0,0,1,3.5-1h.18a2.59,2.59,0,0,1,.48,0,20,20,0,0,1,7.53,2.9,11.43,11.43,0,0,1,4.68,6.53,22.75,22.75,0,0,1,.48,6.51,26.79,26.79,0,0,1-1.3,6.54,2.39,2.39,0,0,1-.15.37,16,16,0,0,1-3.51,4.63A12.9,12.9,0,0,1,115,83.58a2.5,2.5,0,0,1-.85.19C113.86,83.79,113.55,83.79,113.24,83.79Zm-.5-20.46a15.07,15.07,0,0,0-2.24,4.39c-1.09,3.79-.86,7.72.11,8a5.22,5.22,0,0,0,.87-1A9.4,9.4,0,0,0,112.66,72C113.69,68,113.72,65.15,112.74,63.33Z"/><path class="cls-1" d="M113.24,82.93a19.33,19.33,0,0,1-3.85-.38c-2.83-.55-5.74-1.38-7.64-4.75-1.19-2.13-1.11-4.22-1-6.24.2-5.3,1.17-9.38,3-12.58a8.94,8.94,0,0,1,3.54-3.51,8.08,8.08,0,0,1,3.16-.88h.12a1.73,1.73,0,0,1,.32,0,18.88,18.88,0,0,1,7.2,2.76,10.56,10.56,0,0,1,4.34,6,22.15,22.15,0,0,1,.46,6.22A26.7,26.7,0,0,1,121.54,76a2.44,2.44,0,0,1-.1.24,15,15,0,0,1-3.31,4.38,12.45,12.45,0,0,1-3.44,2.18,1.81,1.81,0,0,1-.56.12C113.84,82.93,113.54,82.93,113.24,82.93ZM112.87,62c-.84.39-2.58,3.31-3.2,5.44-1,3.34-1.27,8.49.7,9.07l.19,0c.44,0,1.06-.52,1.63-1.36a10,10,0,0,0,1.3-3c1.15-4.33,1.09-7.54-.16-9.55A2.5,2.5,0,0,0,112.87,62Z"/><path class="cls-1" d="M105.08,59.77A7.4,7.4,0,0,1,108,56.9a6.44,6.44,0,0,1,2.54-.7,17.78,17.78,0,0,1,6.61,2.51,9,9,0,0,1,3.7,5.15,20.33,20.33,0,0,1,.4,5.68A25,25,0,0,1,120,75.49a13.62,13.62,0,0,1-3,3.92,10.51,10.51,0,0,1-3,1.89A17.82,17.82,0,0,1,109.7,81c-2.87-.56-5-1.31-6.54-4-1-1.77-.9-3.55-.82-5.49.18-4.65,1-8.65,2.74-11.75Zm3,7.26c-.75,2.61-2,10,1.8,11.07,1.54.45,2.82-.82,3.6-2a11.32,11.32,0,0,0,1.53-3.54c.89-3.34,1.56-7.74-.35-10.81-.62-1-1.26-1.45-1.94-1.36-2.05.26-4.16,5-4.64,6.62Z"/><path class="cls-1" d="M126.27,59.61A5.18,5.18,0,0,1,122,57.89a4.28,4.28,0,0,1-.9-3.48l1.27-11.49a2.36,2.36,0,0,1,.1-.46,4.12,4.12,0,0,1,4.26-2.87,13.64,13.64,0,0,1,4.41.95c1.35.49,4.53,1.62,3.33,5a2.11,2.11,0,0,0-.1.3l-2.7,11.3a2.48,2.48,0,0,1-1.6,1.77,13,13,0,0,1-1.92.5A12.07,12.07,0,0,1,126.27,59.61Z"/><path class="cls-1" d="M126.27,58.75a4.39,4.39,0,0,1-3.58-1.41,3.45,3.45,0,0,1-.72-2.79L123.26,43a1.59,1.59,0,0,1,.06-.3,3.27,3.27,0,0,1,3.44-2.27,13,13,0,0,1,4.12.9c1.48.53,3.73,1.33,2.81,3.93,0,.12-.09.24-.13.39L130.86,57a1.61,1.61,0,0,1-1,1.15,11.28,11.28,0,0,1-1.79.47,10.27,10.27,0,0,1-1.76.16Z"/><path class="cls-1" d="M124.86,43.19l-1.12,10.06-.17,1.54c-.21,1.09.4,2.86,4.19,2.21a10.18,10.18,0,0,0,1.53-.4l.33-1.37L132,45.3c.29-1.2,1-1.47-1.65-2.43s-5-1.25-5.48.32Z"/><path class="cls-1" d="M138,82.16h-.62a9.83,9.83,0,0,1-6.84-2.79l-1.06-.9a4.58,4.58,0,0,1-2.08-3.6,4,4,0,0,1,1.83-3.11,5.45,5.45,0,0,1,2.48-1,8.66,8.66,0,0,1-1.47-1.22c-2.62-2.81-2.11-9.1-.5-11.81a9.4,9.4,0,0,1,1-1.4,10.32,10.32,0,0,1,7.87-3.64,12.56,12.56,0,0,1,2,.17c4.3.73,6.8,2.9,8.08,7a10.51,10.51,0,0,1,.33,3.41v.45a2.46,2.46,0,0,1-1.15,2.05A7.63,7.63,0,0,1,143.94,67c2.24,1.51,4.35,3.44,4.19,6.51A7.25,7.25,0,0,1,146.26,78a12.87,12.87,0,0,1-1.65,1.74,13.09,13.09,0,0,1-3.08,1.94,2.24,2.24,0,0,1-.5.16A14.6,14.6,0,0,1,138,82.16ZM139,61.42a1.71,1.71,0,0,0-.54,1.28,1.88,1.88,0,0,0,.54.91,2.65,2.65,0,0,1,0-.56A4.06,4.06,0,0,0,139,61.42Z"/><path class="cls-1" d="M138,81.3h-.59a9,9,0,0,1-6.31-2.58l-1.07-.9a3.87,3.87,0,0,1-1.77-2.93,3.2,3.2,0,0,1,1.49-2.44,5.26,5.26,0,0,1,3.22-.91h.12a1.6,1.6,0,0,1,1.23.61,7.27,7.27,0,0,0,2.8,2.13,1.06,1.06,0,0,0-.42-1.52,20.08,20.08,0,0,0-2.43-1.48,13.29,13.29,0,0,1-3.4-2.32c-2.29-2.46-1.88-8.28-.39-10.78a7.24,7.24,0,0,1,.92-1.26,9.47,9.47,0,0,1,7.23-3.36,10.67,10.67,0,0,1,1.85.16c4,.68,6.22,2.6,7.41,6.43a9.81,9.81,0,0,1,.29,3.13v.46a1.62,1.62,0,0,1-.75,1.34,6.8,6.8,0,0,1-3.52,1.05h0a4.54,4.54,0,0,1-3.63-1.69,1.62,1.62,0,0,1-.34-1.25,4.22,4.22,0,0,0-.15-2.27.94.94,0,0,0-.81-.37.79.79,0,0,0-.3.05,2.68,2.68,0,0,0-1,2.26c.25,1.42,2.22,2.62,4.13,3.79,2.65,1.62,5.66,3.46,5.49,6.81a6.35,6.35,0,0,1-1.68,4,12.3,12.3,0,0,1-1.53,1.62,12.44,12.44,0,0,1-2.88,1.81,1.42,1.42,0,0,1-.33.11A14.16,14.16,0,0,1,138,81.3Z"/><path class="cls-1" d="M141.5,63.42c1.37,1.72,3.77,1.08,5,.29a10.13,10.13,0,0,0-.2-3.1c-1-3.24-2.7-4.73-6.14-5.31a7.87,7.87,0,0,0-7.6,2.68,6.78,6.78,0,0,0-.75,1c-1.25,2.1-1.48,7.07.19,8.86,1.24,1.33,3.83,2.24,5.63,3.62a2.64,2.64,0,0,1,.92,3.48c-1.12,2.53-4.58-.62-5.53-1.8a3.73,3.73,0,0,0-2.35.58c-1.55,1.15-.68,2,.35,2.84l1.07.9a7.43,7.43,0,0,0,5.34,2.21,12.22,12.22,0,0,0,3.07-.26,9.47,9.47,0,0,0,3.81-3,4.71,4.71,0,0,0,1.33-3.09c.23-4.57-8.82-5.78-9.6-10.23a4.23,4.23,0,0,1,1.53-3.75,2.54,2.54,0,0,1,3.59.77,5.69,5.69,0,0,1,.32,3.27Z"/><path class="cls-6" d="M4.27,49.55c-.92-3.5,6.66-2.52,8.39-.88a1.48,1.48,0,0,1,.52.88l.5,16.39c.18,2.14,2.49,1.46,2.59-.18,0-.59.14-1.18.21-1.77.44-3.73,1.16-7.45,1.95-11.12a4.41,4.41,0,0,1,1.15-2.38c1-.89,2.14-.55,3.32-.31a19.75,19.75,0,0,1,2.37.62c2.08.66,1.9,2.15,1.94,3.91l.45,11.19c.07,2,2.08,2.53,2.58.2l3.12-14.76c.35-1.63.59-3.43,2.11-4.45a2.92,2.92,0,0,1,2.07-.45l2.18.63c1.17.34,1.93.75,2.05,2.15.16,1.89-1.1,4.75-1.55,6.66L34.55,79.67c-.24,1-.31,2.19-1.53,2.5a7,7,0,0,1-3.31-.4L26,80.85a2.7,2.7,0,0,1-2.24-2.14l-.31-9c0-1.11.07-2.49-1.52-2.49-1.34,0-1.42,1.4-1.6,2.36L18.05,82a6.52,6.52,0,0,1-2.69.43c-2.77,0-7-.42-7.26-4.06L4.27,49.55Z"/><path class="cls-6" d="M43.35,66.91a7.59,7.59,0,0,0,4.09,0A10.43,10.43,0,0,1,48.79,64c.79-1.12,1.78-2.47,3.24-1.74a2.7,2.7,0,0,1,1,1.49l-.09,4.5a26.12,26.12,0,0,0-6.44,1.44c-2,.8-4.42,3.08-4.78,5.31-.51,3.19,2.55,6.6,5.47,7.45a5.44,5.44,0,0,0,3.67-.51c2.32-.51,2.47.15,2.62,1.08l5.58.18a2.57,2.57,0,0,0,1.13-.94c.68-1.15.23-4,.24-5.27l0-11.35c0-4-.5-5-4.2-7C53.35,57,49.78,56,46.9,57.9A5.23,5.23,0,0,0,45,60.38L43.15,64c-.83,1.62-1.93,2.31.2,2.92Zm9.5,7.34c-.27-1.87-2.74-1.5-5,0-.67.43-1,.58-1.12,1.36A2,2,0,0,0,47.87,78a5.09,5.09,0,0,0,3.89.35,1.25,1.25,0,0,0,1.05-.55l0-3.5Z"/><path class="cls-6" d="M67.42,47.35l-1,29.46c-.06,2-.53,3.26,1.1,4.7a3,3,0,0,0,4.18.16,8.46,8.46,0,0,0,1.49-1.42l.18-3.57,1.32-25.9c.16-3.13.86-4-1.91-5.72s-5.09-1.84-5.41,2.29Z"/><path class="cls-6" d="M91.47,47.08l-.34,10.57c-.62.38-1.32.71-2.51-.35a4.91,4.91,0,0,0-4.55,0,15.66,15.66,0,0,0-5.61,7.3c-1.44,3.78-2,8.15-.27,11.92a10.6,10.6,0,0,0,.64,1.2c1.49,2.38,3.26,3.78,6.14,3.71,2.07,0,2.45-.74,3.73-2.07a3.35,3.35,0,0,1,1.72-1.13,3.26,3.26,0,0,0,1.2,3,3,3,0,0,0,4.18.17A8.17,8.17,0,0,0,97.28,80l.18-3.56,1.32-25.91c.16-3.12.87-4-1.9-5.72s-5.1-1.84-5.41,2.29ZM85.06,64.79a26.86,26.86,0,0,0-2,6.06c-.36,1.78-.88,4.48.71,5.82s3.52.37,4.78-.7a9.5,9.5,0,0,0,2.21-2.73A12.28,12.28,0,0,0,92,63.72c-.53-1.74-1.7-3.3-3.77-2.86-1.68.37-2.56,2.54-3.21,3.93Z"/><path class="cls-6" d="M105.08,59.77A7.4,7.4,0,0,1,108,56.9a6.44,6.44,0,0,1,2.54-.7,17.78,17.78,0,0,1,6.61,2.51,9,9,0,0,1,3.7,5.15,20.33,20.33,0,0,1,.4,5.68A25,25,0,0,1,120,75.49a13.62,13.62,0,0,1-3,3.92,10.51,10.51,0,0,1-3,1.89A17.82,17.82,0,0,1,109.7,81c-2.87-.56-5-1.31-6.54-4-1-1.77-.9-3.55-.82-5.49.18-4.65,1-8.65,2.74-11.75Zm3,7.26c-.75,2.61-2,10,1.8,11.07,1.54.45,2.82-.82,3.6-2a11.32,11.32,0,0,0,1.53-3.54c.89-3.34,1.56-7.74-.35-10.81-.62-1-1.26-1.45-1.94-1.36-2.05.26-4.16,5-4.64,6.62Z"/><path class="cls-6" d="M124.86,43.19l-1.12,10.06-.17,1.54c-.21,1.09.4,2.86,4.19,2.21a10.18,10.18,0,0,0,1.53-.4l.33-1.37L132,45.3c.29-1.2,1-1.47-1.65-2.43s-5-1.25-5.48.32Z"/><path class="cls-6" d="M141.5,63.42c1.37,1.72,3.77,1.08,5,.29a10.13,10.13,0,0,0-.2-3.1c-1-3.24-2.7-4.73-6.14-5.31a7.87,7.87,0,0,0-7.6,2.68,6.78,6.78,0,0,0-.75,1c-1.25,2.1-1.48,7.07.19,8.86,1.24,1.33,3.83,2.24,5.63,3.62a2.64,2.64,0,0,1,.92,3.48c-1.12,2.53-4.58-.62-5.53-1.8a3.73,3.73,0,0,0-2.35.58c-1.55,1.15-.68,2,.35,2.84l1.07.9a7.43,7.43,0,0,0,5.34,2.21,12.22,12.22,0,0,0,3.07-.26,9.47,9.47,0,0,0,3.81-3,4.71,4.71,0,0,0,1.33-3.09c.23-4.57-8.82-5.78-9.6-10.23a4.23,4.23,0,0,1,1.53-3.75,2.54,2.54,0,0,1,3.59.77,5.69,5.69,0,0,1,.32,3.27Z"/><path class="cls-7" d="M105,23.09C105,16,91.28,10.25,74.41,10.25S43.87,16,43.87,23.09,57.54,35.92,74.41,35.92,105,30.17,105,23.09Z"/></svg>