<?xml version="1.0" encoding="UTF-8"?><svg id="a" xmlns="http://www.w3.org/2000/svg" viewBox="0 0 143.82 119.11"><path d="M130.85,59.82C130.99,26.93,104.44.15,71.55,0,38.66-.14,11.88,26.4,11.74,59.29c-.14,32.9,26.41,59.68,59.3,59.82,32.9.14,59.68-26.4,59.83-59.29" style="fill:#009245; stroke-width:0px;"/><path d="M127.32,59.8c.13-30.93-24.84-56.14-55.79-56.28-30.93-.14-56.14,24.84-56.26,55.79-.14,30.95,24.84,56.15,55.79,56.28,30.93.13,56.14-24.84,56.26-55.79" style="fill:#fff; stroke-width:0px;"/><path d="M124.14,59.79c.12-29.19-23.43-52.94-52.62-53.07-29.19-.13-52.94,23.42-53.07,52.6-.13,29.19,23.43,52.95,52.6,53.07,29.2.13,52.95-23.43,53.08-52.62" style="fill:#cc3a2b; stroke-width:0px;"/><path d="M32.11,30.85s28.99-8.79,49.8-22.63l14.2,73.84s.83,10.93,11.06,7.5l.58,2.83s-18.81,4.07-56.99,15.05l-.71-2.94s11.09-1.87,9.04-8.81l-11.45-56.45s-1.52-6.68-14.35-3.44l-1.18-4.95h0Z" style="fill:#f7e323; stroke-width:0px;"/><path d="M140.84,61.11l2-3.63c.96-1.75.42-3.98-1.25-5.09-2.9-1.92-6.48-3.02-9.81-3.02-1.82,0-3.58.35-5.13,1,.06-.28.13-.57.19-.87.16-.75.11-1.51-.17-2.22-1.37-3.55-5.45-4.53-8.89-3.94-1.57.27-2.82,1.5-3.13,3.06l-1.11,5.65c-2.56-1.8-5.6-2.74-8.86-2.74s-6.14.9-8.67,2.6v-5.81c0-2.13-1.73-3.85-3.85-3.85h-5.84c-2.13,0-3.85,1.73-3.85,3.85v3.47c-.82-.17-1.67-.25-2.56-.25-2.56,0-5.09.77-7.21,2.17v-5.39c0-2.13-1.73-3.85-3.85-3.85h-5.84c-2.13,0-3.85,1.73-3.85,3.85v5.28c-2.07-1.27-4.66-1.91-7.74-1.91-1.22,0-2.36.08-3.48.23l.41-1.21c.4-1.18.21-2.48-.52-3.49s-1.9-1.61-3.13-1.61h-6.19c-1.71,0-3.19,1.1-3.69,2.73l-2.02,6.61-2.24-6.76c-.52-1.59-2-2.65-3.66-2.65h-5.07c-1.67,0-3.14,1.07-3.66,2.65l-2.24,6.76-2.02-6.61c-.5-1.63-1.99-2.73-3.69-2.73H3.85c-1.24,0-2.41.6-3.13,1.61s-.92,2.31-.52,3.49l9.19,27.09c.53,1.57,2,2.62,3.65,2.62h5.15c1.64,0,3.11-1.05,3.65-2.6l2.43-7.03,2.43,7.03c.54,1.55,2,2.6,3.65,2.6h5.15c1.65,0,3.12-1.06,3.65-2.62l.48-1.4c1.94,2.69,5.2,4.22,9.09,4.22,1.63,0,3.16-.26,4.55-.77.52.25,1.1.39,1.68.39h5.65c.41,0,.81-.06,1.21-.19.4.13.8.19,1.21.19h5.84c1.47,0,2.79-.83,3.43-2.11,2.21,1.63,4.84,2.49,7.63,2.49,1.64,0,3.16-.29,4.56-.86.57.31,1.21.49,1.87.49h5.84c1.55,0,2.94-.93,3.54-2.32,2.57,1.82,5.64,2.79,8.92,2.79,8.43,0,15.04-6.4,15.04-14.58v-.08c0-.92-.09-1.85-.26-2.75.37.03.72.04,1.07.02.21,1.74.83,3.28,1.89,4.6l-2.38,3.65c-1.1,1.7-.73,3.91.86,5.15,3.25,2.53,7.23,3.93,11.21,3.93,7.13,0,11.74-4.12,11.74-10.51v-.08c0-2.69-.99-4.93-2.95-6.69l-.03-.04Z" style="fill:#009245; stroke-width:0px;"/><path d="M3.85,47.25h6.34l5.57,18.22,6.04-18.29h5.07l6.04,18.29,5.57-18.22h6.19l-9.19,27.09h-5.15l-6.07-17.6-6.07,17.6h-5.15S3.85,47.25,3.85,47.25Z" style="fill:#fff; stroke-width:0px;"/><path d="M41.62,68.23v-.08c0-4.46,3.42-6.58,8.3-6.58,2.12,0,3.53.35,5.03.84v-.35c0-2.46-1.5-3.77-4.42-3.77-2.27,0-3.8.39-5.69,1.11l-1.46-4.46c2.27-.96,4.49-1.65,7.99-1.65,3.23,0,5.45.81,6.95,2.31s2.22,3.8,2.22,6.58v11.95h-5.65v-2.22c-1.43,1.58-3.35,2.61-6.23,2.61-3.88,0-7.07-2.19-7.07-6.31h.01ZM55.03,66.89v-1.04c-1.04-.46-2.31-.77-3.73-.77-2.49,0-4.04,1-4.04,2.84v.08c0,1.58,1.31,2.49,3.19,2.49,2.76,0,4.58-1.46,4.58-3.62h0Z" style="fill:#fff; stroke-width:0px;"/><path d="M62.99,46.09h5.84v28.05h-5.84s0-28.05,0-28.05Z" style="fill:#fff; stroke-width:0px;"/><path d="M70.53,63.89v-.08c0-6.88,4.49-10.65,9.37-10.65,3.11,0,5.03,1.43,6.41,3.08v-10.15h5.84v28.05h-5.84v-2.96c-1.43,1.97-3.35,3.35-6.41,3.35-4.8,0-9.37-3.77-9.37-10.65ZM86.4,63.89v-.08c0-3.42-2.27-5.69-5-5.69s-5.03,2.22-5.03,5.69v.08c0,3.42,2.31,5.69,5.03,5.69s5-2.27,5-5.69Z" style="fill:#fff; stroke-width:0px;"/><path d="M93.5,63.96v-.08c0-5.92,4.76-10.72,11.19-10.72s11.11,4.69,11.11,10.65v.08c0,5.92-4.76,10.72-11.19,10.72s-11.11-4.69-11.11-10.65ZM110.02,63.96v-.08c0-3.03-2.19-5.69-5.42-5.69s-5.34,2.54-5.34,5.61v.08c0,3.03,2.19,5.69,5.42,5.69s5.34-2.54,5.34-5.61Z" style="fill:#fff; stroke-width:0px;"/><path d="M123.21,71.42l2.49-3.84c2.27,1.65,4.53,2.46,6.5,2.46,1.7,0,2.46-.62,2.46-1.53v-.08c0-1.26-2-1.65-4.26-2.39-2.88-.81-6.14-2.19-6.14-6.19v-.08c0-4.19,3.38-6.53,7.54-6.53,2.61,0,5.42.89,7.69,2.39l-2.22,4.04c-2.04-1.19-4.07-1.92-5.57-1.92s-2.15.62-2.15,1.43v.08c0,1.08,1.97,1.77,4.19,2.46,2.88.92,6.23,2.34,6.23,6.11v.08c0,4.58-3.42,6.65-7.88,6.65-2.92,0-6.07-.96-8.84-3.11l-.02-.02Z" style="fill:#fff; stroke-width:0px;"/><path d="M117.12,53.88l1.33-6.73s3.78-.66,4.62,1.53c0,0-1.72,7.77-2.27,8.32,0,0-.62.65-2.61-.27,0,0-1.38-.24-1.08-2.86" style="fill:#fff; stroke-width:0px;"/></svg>