<svg id="Capa_1" data-name="Capa 1" xmlns="http://www.w3.org/2000/svg" viewBox="0 0 257.81 125"><defs><style>.cls-1{fill:#2c327e;}.cls-2{fill:#47ab58;}.cls-3{fill:#323084;}</style></defs><path class="cls-1" d="M127.52,56.72c-1.71,3.77-4,13.35-.94,20.7,3.34,8,9.93,13.61,22,13.61S166.32,85,166.32,85c6,9.67,20.21,4.88,20.21,4.88l-.09-10.27H183.1c-2.65,0-3.25-2.91-3.25-5.39V47C173,43.63,156,42.52,147.9,43.8,147.9,43.89,132.4,45.77,127.52,56.72Zm36.57,17s-3.43,4.79-11.31,4.79c-7.36,0-10.62-3.85-11.3-8s-1.12-15.23,13.7-15.23c5.83,0,8.91,1.46,8.91,1.46ZM94.35,77.48,110.6,61.86a75,75,0,0,0,8.67-9.27L119,43.83H70.37v13H94.61C84.23,66.41,69.09,81.26,69.09,81.26v8.67h51L120,77.48Z"/><path class="cls-2" d="M49.34,106.39h7.13v2.48h-4v2.57h2.61v2.32H52.47v4.71H49.34Zm16.18,0h4.32l3.64,12.08H70.35l-.6-2.06H65.69l-.6,2.06H62l3.56-12.08Zm.84,7.54H69l-.93-3.09c-.09-.34-.17-.94-.17-.94h-.34s-.09.52-.17.94Zm20.29,0,2.75,4.53H86l-2.5-4.19h-.42v4.2h-3V106.39h4.49a3.93,3.93,0,0,1,2.92.94,4.39,4.39,0,0,1,1.25,3.17,4,4,0,0,1-1.25,3,5.56,5.56,0,0,0-.83.43m-1.25-4.71a1.12,1.12,0,0,0-.92-.35H83.06V112h1.42a1.45,1.45,0,0,0,.92-.35c.25-.17.33-.68.33-1.2a1.56,1.56,0,0,0-.33-1.19m18.21,7.7h-1.54l-2-4.28a6.73,6.73,0,0,1-.34-1.11h-.26s.09,1.28.09,1.8v5.14H96.53V106.39h3.41l2.81,6.42h.18l2.81-6.42h3.41v12.07h-3.07v-5.13c0-.52.09-1.8.09-1.8h-.26a6.73,6.73,0,0,1-.34,1.11l-2,4.28Zm16.23-10.53h4.33l3.64,12.08h-3.14l-.59-2.06H120l-.59,2.06h-3.13l3.55-12.08Zm.85,7.54h2.63l-.93-3.09c-.09-.34-.17-.94-.17-.94h-.34s-.09.52-.17.94Zm21.94,4.23a7.49,7.49,0,0,1-3.5.85,5.72,5.72,0,0,1-3.58-1.11c-.94-.76-1.7-2-1.7-5.2,0-3,.68-4.26,1.53-5a5.21,5.21,0,0,1,3.67-1.28,8.33,8.33,0,0,1,3.15.6l-.51,2.39a6.46,6.46,0,0,0-2.13-.34,2.66,2.66,0,0,0-1.88.59c-.43.43-.77,1.2-.77,3.07s.34,2.73.77,3.16a2.7,2.7,0,0,0,1.88.51,7.73,7.73,0,0,0,2.47-.43l.6,2.22Zm6.58-11.77h3.29v12.08h-3.29Zm13.5,0H167l3.62,12.08H167.5l-.59-2.06h-4l-.59,2.06h-3.19l3.62-12.08Zm.84,7.54h2.6l-.92-3.09c-.09-.34-.17-.94-.17-.94h-.33s-.09.52-.17.94l-1,3.09ZM181.63,119a10.7,10.7,0,0,1-4.35-1l.5-2.46a8.55,8.55,0,0,0,3.52.85c.83,0,1.5-.43,1.5-1.19a1.16,1.16,0,0,0-1-1.18l-1.26-.34c-1.92-.43-3.34-1.19-3.34-3.56,0-2.2,1.5-3.73,4.35-3.73a9,9,0,0,1,3.59.85l-.83,2.46a7.11,7.11,0,0,0-2.68-.68c-.84,0-1.34.42-1.34,1a.87.87,0,0,0,.75.94l1.43.33c2.09.51,3.51,1.36,3.51,3.65s-1.17,4.06-4.35,4.06"/><path class="cls-1" d="M47.77,44,35,74.94,23.08,44H4.89l19.9,47.56a12.05,12.05,0,0,1-2.13,1.37,12.43,12.43,0,0,1-4.36,1.44,27.83,27.83,0,0,1-3.85.43,25,25,0,0,1-3.67,0L8.3,106.14c2.48.17,5.47.25,9.23.25,5.89,0,10.76-.94,14.61-2.73a24,24,0,0,0,9.14-7,17.73,17.73,0,0,0,1.45-2c.43-.69.86-1.37,1.2-2L65.8,43.83h-18Z"/><path class="cls-2" d="M213.54,43.71v9a10.31,10.31,0,0,0,20.61,0v-9h9a10.31,10.31,0,1,0,0-20.61h-9v-9a10.31,10.31,0,1,0-20.61,0v9h-9a10.31,10.31,0,0,0,0,20.61Z"/><path class="cls-3" d="M234.27,26a.82.82,0,0,1,.82-.82.82.82,0,1,1,0,1.64.82.82,0,0,1-.82-.82m3.84.27a.54.54,0,0,1,.55-.55.55.55,0,0,1,.55.55.54.54,0,0,1-.55.55.53.53,0,0,1-.55-.53v0m3.84,0a.55.55,0,0,1,1.1,0,.59.59,0,0,1-.55.55.52.52,0,0,1-.55-.55m3.84-.22a.33.33,0,1,1,.33.33.35.35,0,0,1-.33-.33m0,3.84a.33.33,0,0,1,.66,0,.33.33,0,0,1-.66,0m0,3.85a.33.33,0,1,1,.33.33.35.35,0,0,1-.33-.33m0,3.84a.33.33,0,1,1,.33.33.29.29,0,0,1-.33-.33m0,3.29a.33.33,0,1,1,.33.33.35.35,0,0,1-.33-.33m-9.87-12.68a.81.81,0,0,1,.81-.82h0a.82.82,0,0,1,.82.82h0a.82.82,0,0,1-.82.83h0a.77.77,0,0,1-.82-.83m3.84-.27a.55.55,0,1,1,.55.55.53.53,0,0,1-.55-.52v0m4.39-.11a.44.44,0,1,1,.44.44c-.22.11-.44-.11-.44-.44m-9.88,2a.82.82,0,0,1,.82-.82.82.82,0,1,1,0,1.64.82.82,0,0,1-.82-.82m3.84,0c0-.51.27-.81.55-.81s.55.4.55.81-.28.82-.55.82-.55-.31-.55-.82m3.84.28a.55.55,0,1,1,.55.55.52.52,0,0,1-.55-.55m-6,1.92a.81.81,0,0,1,.81-.82h0a.82.82,0,0,1,.82.82h0a.82.82,0,0,1-.82.83h0a.82.82,0,0,1-.82-.82h0m3.84-.27a.55.55,0,1,1,.55.55.53.53,0,0,1-.55-.52v0m4.39-.11a.47.47,0,0,1,.44-.44.47.47,0,0,1,.43.44.44.44,0,1,1-.87,0m-9.88,2a.82.82,0,0,1,.82-.82.82.82,0,1,1,0,1.64.82.82,0,0,1-.82-.82m3.84-.27a.54.54,0,0,1,.55-.55.54.54,0,0,1,.55.55.55.55,0,0,1-1.1,0h0m3.84,0a.55.55,0,0,1,1.1,0,.6.6,0,0,1-.55.55.53.53,0,0,1-.55-.55m-6,1.92a.82.82,0,0,1,.81-.83h0a.82.82,0,0,1,.82.82h0a.82.82,0,0,1-.82.82h0a.81.81,0,0,1-.82-.82h0m3.84.27a.55.55,0,1,1,.55.55.65.65,0,0,1-.55-.55m4.39-.11a.44.44,0,1,1,.87,0,.46.46,0,0,1-.43.44.46.46,0,0,1-.44-.44M234.27,37a.83.83,0,0,1,1.65,0,.84.84,0,0,1-.83.83.83.83,0,0,1-.82-.83m3.84.54c0-.5.27-.81.55-.81s.55.41.55.81-.28.82-.55.82-.55-.31-.55-.82m3.84-.26a.55.55,0,0,1,1.1,0,.6.6,0,0,1-.55.55.49.49,0,0,1-.55-.55m-6,1.92a.81.81,0,0,1,.81-.82h0a.81.81,0,0,1,.82.81h0a.82.82,0,0,1-.82.82h0a.81.81,0,0,1-.82-.82h0m3.84-.28a.55.55,0,1,1,.55.55.53.53,0,0,1-.55-.55v0m4.39.44a.44.44,0,1,1,.87,0,.44.44,0,1,1-.87,0m-9.88,1.48a.83.83,0,0,1,.82-.82.83.83,0,1,1,0,1.65.83.83,0,0,1-.82-.83m3.84.28a.55.55,0,0,1,1.1,0,.55.55,0,0,1-1.1,0v0m3.84,0a.6.6,0,0,1,.55-.55.59.59,0,0,1,.55.55.6.6,0,0,1-.55.55.53.53,0,0,1-.55-.55m-10.7,2.74a.83.83,0,0,1,.82.83.82.82,0,1,1-1.64,0,.78.78,0,0,1,.82-.83m0,3.84c.51,0,.81.28.81.55s-.4.55-.81.55-.82-.27-.82-.55.31-.55.82-.55M231,52.06a.59.59,0,0,1,.54.55.55.55,0,1,1-1.09,0,.53.53,0,0,1,.55-.55m.32,3.85a.29.29,0,0,1,.33.33.29.29,0,0,1-.33.32.29.29,0,0,1-.32-.32.29.29,0,0,1,.32-.33m-3.84,0a.29.29,0,0,1,.33.33.33.33,0,0,1-.66,0,.35.35,0,0,1,.33-.33m-3.84,0a.29.29,0,0,1,.33.33.33.33,0,0,1-.66,0,.29.29,0,0,1,.33-.33m-3.29,0a.29.29,0,0,1,.33.33.33.33,0,0,1-.66,0,.29.29,0,0,1,.33-.33m-3.84,0a.29.29,0,0,1,.33.33.33.33,0,0,1-.66,0,.29.29,0,0,1,.33-.33M229.6,46a.82.82,0,0,1,.83.82h0a.82.82,0,0,1-.82.82h0a.81.81,0,0,1-.82-.81h0a.82.82,0,0,1,.82-.82h0m-.27,3.84a.55.55,0,1,1-.55.58v0a.54.54,0,0,1,.55-.55m-.11,3.84a.48.48,0,0,1,.44.44.44.44,0,1,1-.44-.44m-1.81-9.88a.83.83,0,0,1,.82.83.82.82,0,0,1-1.64,0,.78.78,0,0,1,.82-.83m-.28,3.84a.54.54,0,0,1,.55.55.54.54,0,0,1-.55.55.58.58,0,0,1-.54-.55.54.54,0,0,1,.54-.55m.55,4.39a.59.59,0,0,1,.55.55.58.58,0,0,1-.55.55.55.55,0,0,1,0-1.1m-1.92-6a.83.83,0,0,1,.83.82h0a.82.82,0,0,1-.82.82h0a.81.81,0,0,1-.82-.81h0a.82.82,0,0,1,.82-.82h0m-.27,3.84a.55.55,0,1,1-.55.57v0a.58.58,0,0,1,.55-.55m-.11,3.84a.49.49,0,0,1,.44.44.48.48,0,0,1-.44.44.47.47,0,0,1-.44-.44.48.48,0,0,1,.44-.44m-1.81-9.88a.83.83,0,0,1,.82.83.82.82,0,0,1-.82.82.83.83,0,0,1-.83-.82.79.79,0,0,1,.83-.83m.55,3.84c.51,0,.82.28.82.55s-.41.55-.82.55-.81-.27-.81-.55.3-.55.81-.55m-.28,4.39a.59.59,0,0,1,.55.55.58.58,0,0,1-.55.55.59.59,0,0,1-.55-.55.54.54,0,0,1,.55-.55m-1.92-6a.81.81,0,0,1,.82.82h0a.81.81,0,0,1-.81.82h0a.81.81,0,0,1-.82-.81h0a.82.82,0,0,1,.82-.82h0m-.27,3.84a.55.55,0,1,1-.55.58v0a.53.53,0,0,1,.55-.55m.44,3.84a.47.47,0,0,1,.43.44.44.44,0,1,1-.87,0,.47.47,0,0,1,.44-.44m-2.36-9.88a.84.84,0,0,1,.82.83.82.82,0,0,1-.82.82.83.83,0,0,1-.83-.82.79.79,0,0,1,.83-.83m.27,3.84a.55.55,0,0,1,.55.55.55.55,0,0,1-1.1,0v0a.55.55,0,0,1,.55-.55m0,4.39a.59.59,0,0,1,.55.55.58.58,0,0,1-.55.55.59.59,0,0,1-.55-.55.6.6,0,0,1,.55-.55m-1.92-6a.82.82,0,0,1,.82.82h0a.82.82,0,0,1-.81.82h0a.81.81,0,0,1-.82-.81h0a.82.82,0,0,1,.82-.82h0m-.27,3.84a.55.55,0,1,1-.55.57v0a.58.58,0,0,1,.55-.55m.44,3.84a.47.47,0,0,1,.43.44.44.44,0,1,1-.43-.44m-1.82-9.88a.84.84,0,0,1,.83.83.83.83,0,0,1-.83.82.82.82,0,0,1-.82-.82.78.78,0,0,1,.82-.83m0,3.84c.51,0,.82.28.82.55s-.41.55-.82.55-.81-.27-.81-.55.3-.55.81-.55m-.28,4.39a.6.6,0,0,1,.55.55.55.55,0,0,1-1.1,0,.53.53,0,0,1,.55-.55"/></svg>