<?xml version="1.0" encoding="UTF-8"?><svg id="Capa_1" xmlns="http://www.w3.org/2000/svg" viewBox="0 0 264.61 125"><path d="M31.21,62.42c-2.19-2.27-4.63-3.77-7.13-3.77-6.9,0-11.06,5.41-11.06,11.29s4.16,11.29,11.06,11.29c2.89,0,5.57-1.25,7.29-3.52l6.27,6.74c-3.85,3.85-10.25,5.25-13.56,5.25-11.37,0-20.45-7.91-20.45-19.75s9.08-19.74,20.45-19.74c4.78,0,10.04,1.72,13.63,5.72l-6.5,6.5v-.02Zm35.65,21.13h-.23c-2.66,4.24-7.05,6.11-12.07,6.11-6.97,0-13.71-3.85-13.71-11.29,0-12.23,14.26-13.08,23.67-13.08h2.34v-1.01c0-4.63-3.61-7.05-8.62-7.05-3.93,0-7.52,1.56-10.04,3.93l-4.94-4.94c4.16-4.24,10.02-6.04,15.98-6.04,16.06,0,16.06,11.6,16.06,16.92v21.62h-8.46v-5.18l.02,.02h0Zm-.55-11.67h-1.95c-5.18,0-14.1,.39-14.1,5.8,0,3.46,3.54,4.94,6.58,4.94,6.43,0,9.47-3.38,9.47-8.62v-2.13Zm15.51-20.78h9.4v5.96h.16c2.03-4.32,6.19-6.9,11.13-6.9,1.17,0,2.27,.23,3.38,.55v9.1c-1.56-.39-3.06-.7-4.55-.7-8.85,0-10.1,7.44-10.1,9.47v20.14h-9.4V51.11h-.02Zm28.83,7.99v-7.99h7.75v-10.9h9.4v10.9h10.35v7.99h-10.35v16.46c0,3.75,1.09,6.11,5.25,6.11,1.64,0,3.93-.31,5.1-1.17v7.91c-1.95,.94-5.25,1.25-7.44,1.25-9.96,0-12.3-4.45-12.3-13.32v-17.24h-7.76Zm40.51,14.1c.62,5.57,4.86,8.93,10.12,8.93,4.71,0,7.75-2.19,10.12-5.1l6.74,5.1c-4.39,5.41-9.94,7.52-15.92,7.52-11.37,0-20.45-7.91-20.45-19.75s9.08-19.75,20.45-19.75c10.51,0,17.64,7.36,17.64,20.45v2.58h-28.69v.02h0Zm19.28-7.03c-.08-5.49-3.69-8.93-9.57-8.93-5.57,0-9.01,3.52-9.73,8.93h19.3Zm14.65-15.06h9.4v5.96h.16c2.03-4.32,6.19-6.9,11.13-6.9,1.17,0,2.27,.23,3.38,.55v9.1c-1.56-.39-3.05-.7-4.55-.7-8.85,0-10.1,7.44-10.1,9.47v20.14h-9.4V51.11h-.02Zm32.76-15.82h9.55l-6.04,18.65h-8.38l4.86-18.65Zm27.74,26.25c-1.79-2.5-4.16-3.85-7.36-3.85-2.5,0-5.49,1.17-5.49,4,0,6.74,20.3,1.25,20.3,15.9,0,8.93-8.53,12.07-16.23,12.07-5.8,0-10.82-1.49-14.65-5.8l6.27-5.88c2.44,2.66,4.94,4.63,8.95,4.63,2.73,0,6.27-1.33,6.27-4.32,0-7.75-20.3-1.64-20.3-15.98,0-8.38,7.52-12.15,15.12-12.15,5.02,0,10.35,1.56,13.4,5.72l-6.27,5.64h0Z" style="fill:#2da4da;"/><path d="M254.93,54.16h.33v-.74h.26l.45,.74h.37l-.47-.78c.26,0,.43-.2,.43-.51,0-.37-.2-.57-.65-.57h-.7v1.86h-.02Zm.33-1.57h.26c.2,0,.43,0,.43,.26s-.23,.26-.43,.26h-.26v-.51Zm-1.35,.66c0,.9,.74,1.62,1.64,1.62s1.6-.72,1.6-1.62-.72-1.62-1.6-1.62-1.64,.74-1.64,1.62m.29,0c0-.74,.61-1.35,1.35-1.35s1.33,.61,1.33,1.35-.59,1.35-1.33,1.35-1.35-.61-1.35-1.35" style="fill:#2da4da;"/></svg>