<?xml version="1.0" encoding="utf-8"?>
<!-- Generator: Adobe Illustrator 25.1.0, SVG Export Plug-In . SVG Version: 6.00 Build 0)  -->
<svg version="1.1" id="Capa_1" xmlns="http://www.w3.org/2000/svg" xmlns:xlink="http://www.w3.org/1999/xlink" x="0px" y="0px"
	 viewBox="0 0 1812.1 280" style="enable-background:new 0 0 1812.1 280;" xml:space="preserve">
<style type="text/css">
	.st0{fill:#FFFFFF;}
	.st1{fill:url(#SVGID_1_);}
</style>
<g id="INTERIOR">
	<path class="st0" d="M904.5,175.7l-39-63.3c-3.3,0-8.1,1-11.4,1h-32.4v62.4h-9V19.1H854c34.7,0,55.2,18.6,55.2,47.1
		c1,21.9-13.8,40.5-34.7,44.7l39,64.7H904.5z M855,104.3c30,0,46.2-14.8,46.2-39s-18.6-39-46.2-39h-32.4v78.5H855V104.3z"/>
	<path class="st0" d="M1035.9,167.6v8.1h-99V19.1h98.1v8.1h-88.5v60h72.4v8.1h-72.4v72.4H1035.9z"/>
	<path class="st0" d="M1245.3,19.1l-60,156.6h-5.7l-34.8-100.4l-1-3.3l-1,3.3l-35.7,100.4h-4.8l-60-156.6h9l52.8,138l1,4.8l1-4.8
		L1142,53.4h4.8l35.7,103.8l1,4.8l-1-5.7l52.8-138L1245.3,19.1z"/>
	<path class="st0" d="M1344.3,127.2h-94.3l-24.3,48.6h-9l79.5-156.6h3.3l79.5,156.6h-9L1344.3,127.2z M1340.1,118.1l-41.4-82.8
		l-1-3.3l-1,3.3l-42.8,82.8H1340.1z"/>
	<path class="st0" d="M1484.8,175.7l-39-63.3c-3.3,0-8.1,1-11.4,1h-32.4v62.4h-9V19.1h41.4c34.7,0,55.2,18.6,55.2,47.1
		c1,21.9-13.8,40.5-34.7,44.7l39,64.7H1484.8z M1434.3,104.3c30,0,46.2-14.8,46.2-39s-18.6-39-46.2-39h-32.4v78.5h32.4V104.3z"/>
	<path class="st0" d="M1580.5,19.1c42.8-1,78.5,32.4,79.5,74.7c0,1,0,3.3,0,4.8c1,41.4-32.4,76.2-73.8,77.1c-1,0-2.4,0-3.3,0h-65.7
		V19.1H1580.5z M1582.8,167.6c36.7,1,66.6-27.6,68.1-64.7c0-1,0-3.3,0-4.8c1-38.1-27.6-69-64.7-71.4c-2.4,0-3.3,0-5.7,0h-55.2v140.4
		h57.6V167.6z"/>
	<path class="st0" d="M1767.1,59.6c-3.3-21.9-22.8-36.7-44.7-35.7c-24.3,0-42.8,11.4-42.8,32.4s22.8,26.7,44.7,32.4
		c21.9,5.7,52.8,13.8,52.8,46.2c0,25.2-21.9,43.8-54.3,43.8s-52.8-20.9-55.2-46.2l8.1-2.4c1,21.9,18.6,40.5,47.1,40.5
		c28.6,0,44.7-14.8,44.7-35.7c0-27.6-32.4-34.7-52.8-40.5c-18.6-4.8-44.7-12.9-44.7-38.1s21.9-40.5,51.9-40.5
		c25.2-1,48.6,16.2,51.9,41.4L1767.1,59.6z"/>
	<path class="st0" d="M172.8,19.1v86.2c0,47.1-28.6,72.4-69,72.4s-69-24.8-69-72.4V19.1h38.1v88.5c0,21.9,11.4,35.7,32.4,35.7
		s32.4-13.8,32.4-35.7V19.1H172.8z"/>
	<path class="st0" d="M305.7,140v34.7H197.1V19.1h36.7V140C233.8,140,305.7,140,305.7,140z"/>
	<path class="st0" d="M418.5,19.1v34.7h-46.2v121.9h-36.7V53.9h-46.2V19.1H418.5z"/>
	<path class="st0" d="M517.5,174.8l-30-50.9h-18.6v50.5h-36.7V19.1h57.6c38.1,0,60.9,20.9,60.9,52.8c1,19.5-10.5,38.1-27.6,46.2
		l34.7,57.6L517.5,174.8z M468.9,89.6h25.2c9,1,17.1-5.7,18.6-14.8c0-1,0-1,0-2.4c0-9-7.1-17.1-16.2-17.1c-1,0-1,0-2.4,0h-25.2V89.6
		z"/>
	<path class="st0" d="M678.9,154.8h-70.5l-9,19.5h-40.5l71.4-155.7h25.2l72.4,156.6h-40.5L678.9,154.8z M663.6,120.5L646.5,80
		l-2.4-7.1l-2.4,7.1l-17.1,39L663.6,120.5z"/>
	
		<linearGradient id="SVGID_1_" gradientUnits="userSpaceOnUse" x1="-433.2893" y1="-1066.7439" x2="1300.3979" y2="-1066.7439" gradientTransform="matrix(1 0 0 -1 473.8 -812.2305)">
		<stop  offset="0.14" style="stop-color:#000000"/>
		<stop  offset="0.22" style="stop-color:#030303"/>
		<stop  offset="0.27" style="stop-color:#0C0C0C"/>
		<stop  offset="0.31" style="stop-color:#1B1B1B"/>
		<stop  offset="0.35" style="stop-color:#313131"/>
		<stop  offset="0.39" style="stop-color:#4E4E4E"/>
		<stop  offset="0.43" style="stop-color:#707070"/>
		<stop  offset="0.46" style="stop-color:#9A9A9A"/>
		<stop  offset="0.49" style="stop-color:#C8C8C8"/>
		<stop  offset="0.53" style="stop-color:#FDFDFD"/>
		<stop  offset="0.53" style="stop-color:#FFFFFF"/>
		<stop  offset="0.54" style="stop-color:#FBF5EE"/>
		<stop  offset="0.59" style="stop-color:#EFD9C0"/>
		<stop  offset="0.63" style="stop-color:#E5C198"/>
		<stop  offset="0.68" style="stop-color:#DDAD77"/>
		<stop  offset="0.73" style="stop-color:#D79E5E"/>
		<stop  offset="0.78" style="stop-color:#D3934C"/>
		<stop  offset="0.83" style="stop-color:#D08D41"/>
		<stop  offset="0.89" style="stop-color:#CF8B3E"/>
	</linearGradient>
	<rect x="40.5" y="244.8" class="st1" width="1733.7" height="19.5"/>
</g>
</svg>
