<svg id="Capa_1" data-name="Capa 1" xmlns="http://www.w3.org/2000/svg" viewBox="0 0 160 160"><path d="M150.5,80A70.5,70.5,0,1,1,80,9.5,70.55,70.55,0,0,1,150.5,80Z" style="fill:#8bb6de;fill-rule:evenodd"/><path d="M113.54,68.42a9.07,9.07,0,0,0-4.73-5.91,8.23,8.23,0,0,0-8.3.57V58.77a1,1,0,0,0-1-1H52.91a1,1,0,0,0-1,1V68.86c0,8.89,4.72,19,11.78,24.81H47.15a1,1,0,0,0-1,1c0,4.82,12,7.57,15.24,7.57H91c3.27,0,15.24-2.75,15.24-7.57a1,1,0,0,0-1-1H88.74a31,31,0,0,0,5.7-6.35c2.57-3.44,6.13-4.65,9.59-5.81,3.22-1.08,6.25-2.1,8.13-4.84A10.14,10.14,0,0,0,113.54,68.42ZM91,100.21H61.36c-3.23,0-10.75-2.25-12.71-4.49h55.09C101.79,98,94.26,100.21,91,100.21Zm-5.79-6.54H67.16c-7.68-5-13.22-15.65-13.22-24.81V59.79H98.46v9.07C98.46,78,92.91,88.65,85.24,93.67Zm25.23-18.16c-1.49,2.17-4.09,3-7.1,4A32.48,32.48,0,0,0,97.43,82a32.27,32.27,0,0,0,3.08-13.18V65.61c2-1.63,4.57-2.63,7.41-1.25a6.93,6.93,0,0,1,3.63,4.58A8.06,8.06,0,0,1,110.47,75.51Z" style="fill:#fff"/></svg>