<?xml version="1.0" encoding="utf-8"?>
<!-- Generator: Adobe Illustrator 26.0.3, SVG Export Plug-In . SVG Version: 6.00 Build 0)  -->
<svg version="1.1" id="Capa_1" xmlns="http://www.w3.org/2000/svg" xmlns:xlink="http://www.w3.org/1999/xlink" x="0px" y="0px"
	 viewBox="0 0 160 160" style="enable-background:new 0 0 160 160;" xml:space="preserve">
<style type="text/css">
	.st0{fill-rule:evenodd;clip-rule:evenodd;fill:#8BB6DE;}
	.st1{fill:#FFFFFF;}
</style>
<path class="st0" d="M150.5,80c0,38.9-31.6,70.5-70.5,70.5S9.5,118.9,9.5,80S41.1,9.5,80,9.5S150.5,41.1,150.5,80z"/>
<g>
	<path class="st1" d="M53.3,93.6c-0.2,0-0.3,0-0.5-0.1c-0.3-0.2-0.5-0.5-0.5-0.8V62.4c0-0.4,0.2-0.7,0.5-0.8c0.3-0.2,0.7-0.2,1,0
		c4.4,2.8,14.7,4.5,26.2,4.5c11.5,0,21.7-1.8,26.2-4.5c0.3-0.2,0.7-0.2,1,0c0.3,0.2,0.5,0.5,0.5,0.8v30.3c0,0.4-0.2,0.7-0.5,0.8
		c-0.3,0.2-0.7,0.2-1,0c-4.4-2.8-14.7-4.5-26.2-4.5c-11.5,0-21.7,1.8-26.2,4.5C53.7,93.6,53.5,93.6,53.3,93.6z M54.3,64v27
		c5.3-2.5,15-4,25.7-4c10.7,0,20.5,1.6,25.7,4V64c-5.3,2.5-15,4-25.7,4C69.3,68,59.5,66.5,54.3,64z"/>
	<path class="st1" d="M80,68c-5.3,0-10.6-0.4-15.1-1.1c-0.5-0.1-0.8-0.5-0.8-1V55.2c0-2.4,2-4.4,4.4-4.4h23c2.4,0,4.4,2,4.4,4.4V66
		c0,0.5-0.3,0.9-0.8,1C90.6,67.7,85.3,68,80,68z M66,65.1c4.3,0.6,9.1,1,14,1c4.9,0,9.7-0.3,14-1v-9.9c0-1.4-1.1-2.5-2.5-2.5h-23
		c-1.4,0-2.5,1.1-2.5,2.5V65.1z"/>
	<path class="st1" d="M91.5,109.2h-23c-2.4,0-4.4-2-4.4-4.4V89.1c0-0.5,0.3-0.9,0.8-1C69.4,87.4,74.7,87,80,87
		c5.3,0,10.6,0.4,15.1,1.1c0.5,0.1,0.9,0.6,0.8,1.1c-0.1,0.5-0.6,0.9-1.1,0.8c-4.5-0.7-9.6-1.1-14.8-1.1c-4.9,0-9.7,0.3-14,1v14.9
		c0,1.4,1.1,2.5,2.5,2.5h23c1.4,0,2.5-1.1,2.5-2.5V89.5c0-0.5,0.4-1,1-1c0.5,0,1,0.4,1,1v15.3C95.9,107.3,94,109.2,91.5,109.2z"/>
	<path class="st1" d="M61.4,90.7c-0.4,0-0.8-0.3-0.9-0.7c-0.1-0.2-1.4-6,0.9-9.2c0.8-1.2,2-1.9,3.5-2c2.3-0.3,3-1.3,3.8-2.6
		c0.9-1.4,1.9-3.1,5.4-2.8c3.1,0.3,4.2,1.9,5.1,3.2c0.9,1.3,1.5,2.1,3.9,1.9c1.6-0.1,2.9,0.4,3.9,1.4c2.7,2.7,2.3,8.3,2.2,8.5
		c0,0.5-0.5,0.9-1,0.9c-0.5,0-0.9-0.5-0.9-1c0.1-1.4,0-5.3-1.7-7c-0.6-0.6-1.4-0.9-2.4-0.8c-3.6,0.3-4.7-1.4-5.6-2.7
		c-0.8-1.1-1.5-2.1-3.7-2.3c-2.3-0.2-2.7,0.6-3.6,1.9c-0.9,1.4-1.9,3.1-5.2,3.5c-1,0.1-1.7,0.5-2.2,1.2c-1.5,2-0.9,6.2-0.6,7.6
		c0.1,0.5-0.2,1-0.7,1.2C61.6,90.7,61.5,90.7,61.4,90.7z"/>
	<path class="st1" d="M98.5,81c-2.5,0-5.3-1.7-7.2-3.3c-0.4-0.3-0.8-0.4-1.2-0.4c-1.5,0.2-3.2,2.4-3.6,3.1c-0.3,0.5-0.9,0.6-1.3,0.3
		c-0.5-0.3-0.6-0.9-0.3-1.3c0.2-0.4,2.4-3.6,5-4c1-0.1,1.9,0.1,2.7,0.8c1.9,1.6,4.8,3.2,6.6,2.7c0.7-0.2,1.2-0.7,1.5-1.5
		c1.8-4.7,5.7-5.4,5.8-5.4c0.5-0.1,1,0.3,1.1,0.8c0.1,0.5-0.3,1-0.8,1.1c-0.1,0-3,0.6-4.4,4.2c-0.7,1.8-1.9,2.5-2.8,2.7
		C99.3,81,98.9,81,98.5,81z"/>
	<path class="st1" d="M61,76.5c-1.8,0-3.2-1.8-3.2-4.2c0-2.3,1.4-4.2,3.2-4.2c1.8,0,3.2,1.8,3.2,4.2C64.3,74.6,62.9,76.5,61,76.5z
		 M61,70c-0.6,0-1.3,0.9-1.3,2.2c0,1.3,0.7,2.2,1.3,2.2s1.3-0.9,1.3-2.2C62.3,71,61.7,70,61,70z"/>
</g>
</svg>
