<?xml version="1.0" encoding="utf-8"?>
<!-- Generator: Adobe Illustrator 26.0.3, SVG Export Plug-In . SVG Version: 6.00 Build 0)  -->
<svg version="1.1" id="Capa_1" xmlns="http://www.w3.org/2000/svg" xmlns:xlink="http://www.w3.org/1999/xlink" x="0px" y="0px"
	 viewBox="0 0 160 160" style="enable-background:new 0 0 160 160;" xml:space="preserve">
<style type="text/css">
	.st0{fill-rule:evenodd;clip-rule:evenodd;fill:#8BB6DE;}
	.st1{fill:#FFFFFF;}
	.st2{fill:none;}
</style>
<g>
	<path class="st0" d="M150.5,80c0,38.9-31.6,70.5-70.5,70.5S9.5,118.9,9.5,80S41.1,9.5,80,9.5S150.5,41.1,150.5,80z"/>
</g>
<g id="_x31_2_00000165205725738935661700000012303881432372975755_">
	<path class="st1" d="M93.7,83.9H82.8c-0.5,0-1,0.4-1,1c0,0.5,0.4,1,1,1h10.9c0.5,0,1-0.4,1-1C94.7,84.3,94.2,83.9,93.7,83.9z"/>
	<path class="st1" d="M93.7,79.4H82.8c-0.5,0-1,0.4-1,1c0,0.5,0.4,1,1,1h10.9c0.5,0,1-0.4,1-1C94.7,79.8,94.2,79.4,93.7,79.4z"/>
	<path class="st1" d="M93.7,74.9H82.8c-0.5,0-1,0.4-1,1c0,0.5,0.4,1,1,1h10.9c0.5,0,1-0.4,1-1C94.7,75.3,94.2,74.9,93.7,74.9z"/>
	<path class="st1" d="M93.7,70.4H82.8c-0.5,0-1,0.4-1,1c0,0.5,0.4,1,1,1h10.9c0.5,0,1-0.4,1-1C94.7,70.8,94.2,70.4,93.7,70.4z"/>
	<path class="st2" d="M71.2,85.8H60.3V90h15.6v-20c0-1.9-2.1-4.1-4.7-4.1H60.3v4.5h10.9c0.5,0,1,0.4,1,1c0,0.5-0.4,1-1,1H60.3v2.6
		h10.9c0.5,0,1,0.4,1,1c0,0.5-0.4,1-1,1H60.3v2.6h10.9c0.5,0,1,0.4,1,1c0,0.5-0.4,1-1,1H60.3v2.6h10.9c0.5,0,1,0.4,1,1
		C72.2,85.4,71.8,85.8,71.2,85.8z"/>
	<path class="st2" d="M77.8,69.9v20H99V65.9H82.6C79.9,65.9,77.8,68.1,77.8,69.9z"/>
	<path class="st2" d="M100.9,90.9c0,0.5-0.4,1-1,1H60.3v2.6h43.2V71.3h-2.6V90.9z"/>
	<path class="st2" d="M71.2,85.8H60.3V90h15.6v-20c0-1.9-2.1-4.1-4.7-4.1H60.3v4.5h10.9c0.5,0,1,0.4,1,1c0,0.5-0.4,1-1,1H60.3v2.6
		h10.9c0.5,0,1,0.4,1,1c0,0.5-0.4,1-1,1H60.3v2.6h10.9c0.5,0,1,0.4,1,1c0,0.5-0.4,1-1,1H60.3v2.6h10.9c0.5,0,1,0.4,1,1
		C72.2,85.4,71.8,85.8,71.2,85.8z"/>
	<path class="st2" d="M77.8,69.9v20H99V65.9H82.6C79.9,65.9,77.8,68.1,77.8,69.9z"/>
	<path class="st2" d="M100.9,90.9c0,0.5-0.4,1-1,1H60.3v2.6h43.2V71.3h-2.6V90.9z"/>
	<path class="st1" d="M103.7,69.4h-2.8v-4.5c0-0.5-0.4-1-1-1H88.6v-7.1c0-2.6-2.1-4.7-4.7-4.7H59.3c-2.6,0-4.7,2.1-4.7,4.7v47.8
		c0,1.9,1.5,3.4,3.4,3.4h27.3c1.9,0,3.4-1.5,3.4-3.4v-8.2h15.1c1,0,1.8-0.8,1.8-1.8V71.2C105.5,70.2,104.7,69.4,103.7,69.4z
		 M99,65.9V90H77.8v-20c0-1.9,2.1-4.1,4.7-4.1H99z M86.6,104.6c0,0.8-0.6,1.4-1.4,1.4H57.9c-0.8,0-1.4-0.6-1.4-1.4V56.8
		c0-1.6,1.3-2.8,2.8-2.8h24.6c1.6,0,2.8,1.3,2.8,2.8v7.1h-1.2h-0.8h-1.9h-0.2c-2.3,0-4.5,1.2-5.7,3c-1.2-1.8-3.3-3-5.7-3H60.3h-1.9
		v32.4h1.9h22.5h1.9h0.3h1.6V104.6z M71.2,83.9H60.3v-2.6h10.9c0.5,0,1-0.4,1-1c0-0.5-0.4-1-1-1H60.3v-2.6h10.9c0.5,0,1-0.4,1-1
		c0-0.5-0.4-1-1-1H60.3v-2.6h10.9c0.5,0,1-0.4,1-1c0-0.5-0.4-1-1-1H60.3v-4.5h10.9c2.7,0,4.7,2.2,4.7,4.1v20H60.3v-4.2h10.9
		c0.5,0,1-0.4,1-1C72.2,84.3,71.8,83.9,71.2,83.9z M103.5,94.5H60.3v-2.6h39.6c0.5,0,1-0.4,1-1V71.3h2.6V94.5z"/>
</g>
</svg>
