<?xml version="1.0" encoding="utf-8"?>
<!-- Generator: Adobe Illustrator 26.0.3, SVG Export Plug-In . SVG Version: 6.00 Build 0)  -->
<svg version="1.1" id="Capa_1" xmlns="http://www.w3.org/2000/svg" xmlns:xlink="http://www.w3.org/1999/xlink" x="0px" y="0px"
	 viewBox="0 0 160 160" style="enable-background:new 0 0 160 160;" xml:space="preserve">
<style type="text/css">
	.st0{fill-rule:evenodd;clip-rule:evenodd;fill:#8BB6DE;}
	.st1{fill:#FFFFFF;}
</style>
<path class="st0" d="M150.5,80c0,38.9-31.6,70.5-70.5,70.5S9.5,118.9,9.5,80S41.1,9.5,80,9.5S150.5,41.1,150.5,80z"/>
<g>
	<path class="st1" d="M527.5,299.6c-4.6,0-8.4-3.8-8.4-8.4c0-4.6,3.8-8.4,8.4-8.4c4.6,0,8.4,3.8,8.4,8.4
		C535.9,295.9,532.1,299.6,527.5,299.6z M527.5,284.3c-3.8,0-6.9,3.1-6.9,6.9c0,3.8,3.1,6.9,6.9,6.9c3.8,0,6.9-3.1,6.9-6.9
		C534.4,287.4,531.3,284.3,527.5,284.3z"/>
	<path class="st1" d="M492.1,299.6c-4.6,0-8.4-3.8-8.4-8.4c0-4.6,3.8-8.4,8.4-8.4c4.6,0,8.4,3.8,8.4,8.4
		C500.5,295.9,496.7,299.6,492.1,299.6z M492.1,284.3c-3.8,0-6.9,3.1-6.9,6.9c0,3.8,3.1,6.9,6.9,6.9c3.8,0,6.9-3.1,6.9-6.9
		C499,287.4,495.9,284.3,492.1,284.3z"/>
	<path class="st1" d="M520,272.7c-2.7,0-4.9-2.2-4.9-4.9c0-2.7,2.2-4.9,4.9-4.9c0.4,0,0.7,0.3,0.7,0.7v8.4
		C520.8,272.4,520.4,272.7,520,272.7z M519.3,264.5c-1.6,0.3-2.7,1.7-2.7,3.4c0,1.7,1.2,3,2.7,3.4V264.5z"/>
	<path class="st1" d="M520,272.2c-0.4,0-0.7-0.3-0.7-0.7v-7.3c0-0.4,0.3-0.7,0.7-0.7c2.4,0,4.4,2,4.4,4.4
		C524.4,270.3,522.5,272.2,520,272.2z M520.8,265v5.7c1.3-0.3,2.2-1.5,2.2-2.8C523,266.5,522,265.3,520.8,265z"/>
	<path class="st1" d="M527.5,299.6c-4.6,0-8.4-3.8-8.4-8.4c0-4.6,3.8-8.4,8.4-8.4c4.6,0,8.4,3.8,8.4,8.4
		C535.9,295.9,532.1,299.6,527.5,299.6z M527.5,284.3c-3.8,0-6.9,3.1-6.9,6.9c0,3.8,3.1,6.9,6.9,6.9c3.8,0,6.9-3.1,6.9-6.9
		C534.4,287.4,531.3,284.3,527.5,284.3z"/>
	<path class="st1" d="M527.5,295.4c-2.3,0-4.1-1.9-4.1-4.1c0-2.3,1.9-4.1,4.1-4.1c2.3,0,4.1,1.9,4.1,4.1
		C531.6,293.5,529.8,295.4,527.5,295.4z M527.5,288.6c-1.5,0-2.7,1.2-2.7,2.7c0,1.5,1.2,2.7,2.7,2.7c1.5,0,2.7-1.2,2.7-2.7
		C530.1,289.8,528.9,288.6,527.5,288.6z"/>
	<path class="st1" d="M527.5,295.4c-2.3,0-4.1-1.9-4.1-4.1c0-2.3,1.9-4.1,4.1-4.1c2.3,0,4.1,1.9,4.1,4.1
		C531.6,293.5,529.8,295.4,527.5,295.4z M527.5,288.6c-1.5,0-2.7,1.2-2.7,2.7c0,1.5,1.2,2.7,2.7,2.7c1.5,0,2.7-1.2,2.7-2.7
		C530.1,289.8,528.9,288.6,527.5,288.6z"/>
	<path class="st1" d="M492.2,295.4c-2.3,0-4.1-1.9-4.1-4.1c0-2.3,1.9-4.1,4.1-4.1c2.3,0,4.1,1.9,4.1,4.1
		C496.3,293.5,494.4,295.4,492.2,295.4z M492.2,288.6c-1.5,0-2.7,1.2-2.7,2.7c0,1.5,1.2,2.7,2.7,2.7c1.5,0,2.7-1.2,2.7-2.7
		C494.8,289.8,493.6,288.6,492.2,288.6z"/>
	<path class="st1" d="M492.1,299.6c-4.6,0-8.4-3.8-8.4-8.4c0-4.6,3.8-8.4,8.4-8.4c4.6,0,8.4,3.8,8.4,8.4
		C500.5,295.9,496.7,299.6,492.1,299.6z M492.1,284.3c-3.8,0-6.9,3.1-6.9,6.9c0,3.8,3.1,6.9,6.9,6.9c3.8,0,6.9-3.1,6.9-6.9
		C499,287.4,495.9,284.3,492.1,284.3z"/>
	<path class="st1" d="M519.8,292.2h-20.1c-0.2,0-0.4-0.1-0.5-0.2c-0.1-0.1-0.2-0.3-0.2-0.5l0-0.2c0-3.8-3.1-6.9-6.9-6.9
		c-2.4,0-4.7,1.3-6,3.4c-0.1,0.3-0.4,0.4-0.7,0.4c-0.3,0-0.5-0.2-0.6-0.5l-0.7-2.3c0-0.1,0-0.1,0-0.2v-8c0-0.4,0.3-0.7,0.7-0.7h18.6
		c0.4,0,0.7,0.3,0.7,0.7v7.5c0,1.3,1.1,2.4,2.4,2.4h8.7c0.7,0,1.3-0.3,1.8-0.8c0.5-0.5,0.7-1.2,0.6-1.9l-1.4-13.5
		c0-0.3,0.1-0.6,0.4-0.7c0.3-0.1,0.6-0.1,0.8,0.2c0.7,0.7,1.5,1.1,2.5,1.1h0.2c2,0,3.9,1.1,4.8,3l4.7,9.2c0.1,0.3,0.1,0.6-0.1,0.8
		c-0.2,0.2-0.5,0.3-0.7,0.3c-0.5-0.1-1-0.2-1.4-0.2c-3.8,0-6.9,3.1-6.9,6.9l0,0.2c0,0.2-0.1,0.4-0.2,0.6
		C520.2,292.1,520,292.2,519.8,292.2z M500.5,290.8h18.7c0.3-4.5,4.1-8.1,8.7-7.9l-4-8c-0.7-1.3-2-2.1-3.5-2.1H520
		c-0.7,0-1.5-0.2-2.1-0.5l1.2,11.9c0.1,1.1-0.2,2.2-1,3c-0.7,0.8-1.8,1.3-2.9,1.3h-8.7c-2.1,0-3.9-1.7-3.9-3.9v-6.8h-17.1v7.2
		l0.2,0.8c1.6-1.8,3.9-2.9,6.3-2.9C496.6,282.9,500.2,286.4,500.5,290.8z"/>
	<path class="st1" d="M506.3,277.8h-10.8c-1.1,0-2.1-0.9-2.1-2.1c0-1.1,0.9-2.1,2.1-2.1h10.8c1.2,0,2.1,0.9,2.1,2.1
		C508.4,276.8,507.5,277.8,506.3,277.8z M495.5,275.1c-0.3,0-0.6,0.3-0.6,0.6c0,0.3,0.3,0.6,0.6,0.6h10.8c0.3,0,0.6-0.3,0.6-0.6
		c0-0.3-0.3-0.6-0.6-0.6H495.5z"/>
	<path class="st1" d="M512,269.9c-0.3,0-0.5-0.1-0.6-0.4c-0.2-0.4-0.1-0.8,0.3-1l3.9-2.1c0.4-0.2,0.8-0.1,1,0.3
		c0.2,0.4,0.1,0.8-0.3,1l-3.9,2.1C512.3,269.9,512.1,269.9,512,269.9z"/>
	<path class="st1" d="M522.9,283c-0.3,0-0.6-0.2-0.7-0.5l-2-5.2c-0.1-0.4,0-0.8,0.4-0.9c0.4-0.1,0.8,0,0.9,0.4l2,5.2
		c0.1,0.4,0,0.8-0.4,0.9C523.1,283,523,283,522.9,283z"/>
	<path class="st1" d="M503.4,281.1h-8.9c-0.4,0-0.7-0.3-0.7-0.7s0.3-0.7,0.7-0.7h8.9c0.4,0,0.7,0.3,0.7,0.7S503.8,281.1,503.4,281.1
		z"/>
	<path class="st1" d="M490.7,277.8h-10.7c-0.4,0-0.7-0.3-0.7-0.7s0.3-0.7,0.7-0.7h10.7c0.4,0,0.7,0.3,0.7,0.7
		S491.2,277.8,490.7,277.8z"/>
	<path class="st1" d="M491.8,277.8h-14.7c-0.4,0-0.7-0.3-0.7-0.7v-2.4c0-0.4,0.3-0.7,0.7-0.7h14.7c0.4,0,0.7,0.3,0.7,0.7v2.4
		C492.5,277.5,492.2,277.8,491.8,277.8z M477.8,276.3h13.3v-0.9h-13.3V276.3z"/>
	<path class="st1" d="M492.5,275.4h-14.7c-0.4,0-0.7-0.3-0.7-0.7v-2.4c0-0.4,0.3-0.7,0.7-0.7h14.7c0.4,0,0.7,0.3,0.7,0.7v2.4
		C493.2,275.1,492.9,275.4,492.5,275.4z M478.5,273.9h13.3V273h-13.3V273.9z"/>
	<path class="st1" d="M491.8,273h-14.7c-0.4,0-0.7-0.3-0.7-0.7v-2.4c0-0.4,0.3-0.7,0.7-0.7h14.7c0.4,0,0.7,0.3,0.7,0.7v2.4
		C492.5,272.7,492.2,273,491.8,273z M477.8,271.5h13.3v-0.9h-13.3V271.5z"/>
	<path class="st1" d="M492.5,270.6h-14.7c-0.4,0-0.7-0.3-0.7-0.7v-2.4c0-0.4,0.3-0.7,0.7-0.7h14.7c0.4,0,0.7,0.3,0.7,0.7v2.4
		C493.2,270.3,492.9,270.6,492.5,270.6z M478.5,269.2h13.3v-0.9h-13.3V269.2z"/>
	<path class="st1" d="M491.8,268.2h-14.7c-0.4,0-0.7-0.3-0.7-0.7v-2.4c0-0.4,0.3-0.7,0.7-0.7h14.7c0.4,0,0.7,0.3,0.7,0.7v2.4
		C492.5,267.9,492.2,268.2,491.8,268.2z M477.8,266.8h13.3v-0.9h-13.3V266.8z"/>
</g>
<g>
	<path class="st1" d="M101.4,98.4c-4.6,0-8.4-3.8-8.4-8.4c0-4.6,3.8-8.4,8.4-8.4c4.6,0,8.4,3.8,8.4,8.4
		C109.8,94.6,106,98.4,101.4,98.4z M101.4,83.1c-3.8,0-6.9,3.1-6.9,6.9c0,3.8,3.1,6.9,6.9,6.9c3.8,0,6.9-3.1,6.9-6.9
		C108.3,86.2,105.2,83.1,101.4,83.1z"/>
	<path class="st1" d="M66,98.4c-4.6,0-8.4-3.8-8.4-8.4c0-4.6,3.8-8.4,8.4-8.4c4.6,0,8.4,3.8,8.4,8.4C74.4,94.6,70.6,98.4,66,98.4z
		 M66,83.1c-3.8,0-6.9,3.1-6.9,6.9c0,3.8,3.1,6.9,6.9,6.9c3.8,0,6.9-3.1,6.9-6.9C72.9,86.2,69.8,83.1,66,83.1z"/>
	<path class="st1" d="M93.9,71.5c-2.7,0-4.9-2.2-4.9-4.9s2.2-4.9,4.9-4.9c0.4,0,0.7,0.3,0.7,0.7v8.4C94.7,71.1,94.3,71.5,93.9,71.5z
		 M93.2,63.2c-1.6,0.3-2.7,1.7-2.7,3.4c0,1.7,1.2,3,2.7,3.4V63.2z"/>
	<path class="st1" d="M93.9,71c-0.4,0-0.7-0.3-0.7-0.7v-7.3c0-0.4,0.3-0.7,0.7-0.7c2.4,0,4.4,2,4.4,4.4C98.3,69,96.4,71,93.9,71z
		 M94.7,63.7v5.7c1.3-0.3,2.2-1.5,2.2-2.8C96.9,65.2,95.9,64,94.7,63.7z"/>
	<path class="st1" d="M101.4,98.4c-4.6,0-8.4-3.8-8.4-8.4c0-4.6,3.8-8.4,8.4-8.4c4.6,0,8.4,3.8,8.4,8.4
		C109.8,94.6,106,98.4,101.4,98.4z M101.4,83.1c-3.8,0-6.9,3.1-6.9,6.9c0,3.8,3.1,6.9,6.9,6.9c3.8,0,6.9-3.1,6.9-6.9
		C108.3,86.2,105.2,83.1,101.4,83.1z"/>
	<path class="st1" d="M101.4,94.1c-2.3,0-4.1-1.9-4.1-4.1c0-2.3,1.9-4.1,4.1-4.1c2.3,0,4.1,1.9,4.1,4.1
		C105.5,92.3,103.7,94.1,101.4,94.1z M101.4,87.3c-1.5,0-2.7,1.2-2.7,2.7c0,1.5,1.2,2.7,2.7,2.7c1.5,0,2.7-1.2,2.7-2.7
		C104,88.5,102.9,87.3,101.4,87.3z"/>
	<path class="st1" d="M101.4,94.1c-2.3,0-4.1-1.9-4.1-4.1c0-2.3,1.9-4.1,4.1-4.1c2.3,0,4.1,1.9,4.1,4.1
		C105.5,92.3,103.7,94.1,101.4,94.1z M101.4,87.3c-1.5,0-2.7,1.2-2.7,2.7c0,1.5,1.2,2.7,2.7,2.7c1.5,0,2.7-1.2,2.7-2.7
		C104,88.5,102.9,87.3,101.4,87.3z"/>
	<path class="st1" d="M66.1,94.1c-2.3,0-4.1-1.9-4.1-4.1c0-2.3,1.9-4.1,4.1-4.1c2.3,0,4.1,1.9,4.1,4.1
		C70.2,92.3,68.3,94.1,66.1,94.1z M66.1,87.3c-1.5,0-2.7,1.2-2.7,2.7c0,1.5,1.2,2.7,2.7,2.7c1.5,0,2.7-1.2,2.7-2.7
		C68.7,88.5,67.5,87.3,66.1,87.3z"/>
	<path class="st1" d="M66,98.4c-4.6,0-8.4-3.8-8.4-8.4c0-4.6,3.8-8.4,8.4-8.4c4.6,0,8.4,3.8,8.4,8.4C74.4,94.6,70.6,98.4,66,98.4z
		 M66,83.1c-3.8,0-6.9,3.1-6.9,6.9c0,3.8,3.1,6.9,6.9,6.9c3.8,0,6.9-3.1,6.9-6.9C72.9,86.2,69.8,83.1,66,83.1z"/>
	<path class="st1" d="M93.7,91H73.6c-0.2,0-0.4-0.1-0.5-0.2c-0.1-0.1-0.2-0.3-0.2-0.5l0-0.2c0-3.8-3.1-6.9-6.9-6.9
		c-2.4,0-4.7,1.3-6,3.4c-0.1,0.3-0.4,0.4-0.7,0.4c-0.3,0-0.5-0.2-0.6-0.5L58,84c0-0.1,0-0.1,0-0.2v-8c0-0.4,0.3-0.7,0.7-0.7h18.6
		c0.4,0,0.7,0.3,0.7,0.7v7.5c0,1.3,1.1,2.4,2.4,2.4h8.7c0.7,0,1.3-0.3,1.8-0.8c0.5-0.5,0.7-1.2,0.6-1.9l-1.4-13.5
		c0-0.3,0.1-0.6,0.4-0.7c0.3-0.1,0.6-0.1,0.8,0.2c0.7,0.7,1.5,1.1,2.5,1.1h0.2c2,0,3.9,1.1,4.8,3l4.7,9.2c0.1,0.3,0.1,0.6-0.1,0.8
		c-0.2,0.2-0.5,0.3-0.7,0.3c-0.5-0.1-1-0.2-1.4-0.2c-3.8,0-6.9,3.1-6.9,6.9l0,0.2c0,0.2-0.1,0.4-0.2,0.6C94.1,90.9,93.9,91,93.7,91z
		 M74.4,89.5H93c0.3-4.5,4.1-8.1,8.7-7.9l-4-8c-0.7-1.3-2-2.1-3.5-2.1h-0.2c-0.7,0-1.5-0.2-2.1-0.5L93,82.9c0.1,1.1-0.2,2.2-1,3
		c-0.7,0.8-1.8,1.3-2.9,1.3h-8.7c-2.1,0-3.9-1.7-3.9-3.9v-6.8H59.5v7.2l0.2,0.8c1.6-1.8,3.9-2.9,6.3-2.9
		C70.5,81.6,74.1,85.1,74.4,89.5z"/>
	<path class="st1" d="M80.2,76.5H69.4c-1.1,0-2.1-0.9-2.1-2.1c0-1.1,0.9-2.1,2.1-2.1h10.8c1.2,0,2.1,0.9,2.1,2.1
		C82.3,75.6,81.4,76.5,80.2,76.5z M69.4,73.8c-0.3,0-0.6,0.3-0.6,0.6c0,0.3,0.3,0.6,0.6,0.6h10.8c0.3,0,0.6-0.3,0.6-0.6
		c0-0.3-0.3-0.6-0.6-0.6H69.4z"/>
	<path class="st1" d="M85.9,68.6c-0.3,0-0.5-0.1-0.6-0.4c-0.2-0.4-0.1-0.8,0.3-1l3.9-2.1c0.4-0.2,0.8-0.1,1,0.3
		c0.2,0.4,0.1,0.8-0.3,1l-3.9,2.1C86.2,68.6,86.1,68.6,85.9,68.6z"/>
	<path class="st1" d="M96.8,81.7c-0.3,0-0.6-0.2-0.7-0.5l-2-5.2c-0.1-0.4,0-0.8,0.4-0.9c0.4-0.1,0.8,0,0.9,0.4l2,5.2
		c0.1,0.4,0,0.8-0.4,0.9C97,81.7,96.9,81.7,96.8,81.7z"/>
	<path class="st1" d="M77.3,79.9h-8.9c-0.4,0-0.7-0.3-0.7-0.7s0.3-0.7,0.7-0.7h8.9c0.4,0,0.7,0.3,0.7,0.7S77.7,79.9,77.3,79.9z"/>
	<path class="st1" d="M64.7,76.5H54c-0.4,0-0.7-0.3-0.7-0.7S53.6,75,54,75h10.7c0.4,0,0.7,0.3,0.7,0.7S65.1,76.5,64.7,76.5z"/>
	<path class="st1" d="M65.7,76.5H51c-0.4,0-0.7-0.3-0.7-0.7v-2.4c0-0.4,0.3-0.7,0.7-0.7h14.7c0.4,0,0.7,0.3,0.7,0.7v2.4
		C66.4,76.2,66.1,76.5,65.7,76.5z M51.7,75H65v-0.9H51.7V75z"/>
	<path class="st1" d="M66.4,74.1H51.6c-0.4,0-0.7-0.3-0.7-0.7V71c0-0.4,0.3-0.7,0.7-0.7h14.7c0.4,0,0.7,0.3,0.7,0.7v2.4
		C67.1,73.8,66.8,74.1,66.4,74.1z M52.4,72.7h13.3v-0.9H52.4V72.7z"/>
	<path class="st1" d="M65.7,71.7H51c-0.4,0-0.7-0.3-0.7-0.7v-2.4c0-0.4,0.3-0.7,0.7-0.7h14.7c0.4,0,0.7,0.3,0.7,0.7V71
		C66.4,71.4,66.1,71.7,65.7,71.7z M51.7,70.3H65v-0.9H51.7V70.3z"/>
	<path class="st1" d="M66.4,69.4H51.6c-0.4,0-0.7-0.3-0.7-0.7v-2.4c0-0.4,0.3-0.7,0.7-0.7h14.7c0.4,0,0.7,0.3,0.7,0.7v2.4
		C67.1,69,66.8,69.4,66.4,69.4z M52.4,67.9h13.3V67H52.4V67.9z"/>
	<path class="st1" d="M65.7,67H51c-0.4,0-0.7-0.3-0.7-0.7v-2.4c0-0.4,0.3-0.7,0.7-0.7h14.7c0.4,0,0.7,0.3,0.7,0.7v2.4
		C66.4,66.6,66.1,67,65.7,67z M51.7,65.5H65v-0.9H51.7V65.5z"/>
</g>
</svg>
