<svg id="Capa_1" data-name="Capa 1" xmlns="http://www.w3.org/2000/svg" viewBox="0 0 160 160"><path d="M150.5,80A70.5,70.5,0,1,1,80,9.5,70.55,70.55,0,0,1,150.5,80Z" style="fill:#8bb6de;fill-rule:evenodd"/><path d="M71,105.47l-.44,0a4.89,4.89,0,0,1-4.35-5.06L66.88,77a2.24,2.24,0,0,0-1.1-2,5.79,5.79,0,0,1-2.85-5V58.52a1.7,1.7,0,1,1,3.4,0V69.93a2.37,2.37,0,0,0,1.17,2,5.71,5.71,0,0,1,2.79,5.09l-.64,23.42a1.51,1.51,0,0,0,1.26,1.58,1.43,1.43,0,0,0,1.1-.38,1.39,1.39,0,0,0,.45-1.06l-.65-23.56A5.73,5.73,0,0,1,74.6,72a2.37,2.37,0,0,0,1.17-2V58.52a1.7,1.7,0,0,1,3.4,0V69.93a5.78,5.78,0,0,1-2.86,5,2.25,2.25,0,0,0-1.09,2l.64,23.55a4.83,4.83,0,0,1-4.82,5Z" style="fill:#fff"/><path d="M88.85,105.46a3.39,3.39,0,0,1-.45,0A5,5,0,0,1,84,100.3l.69-25.25a1.61,1.61,0,0,0-.56-1.26,10.9,10.9,0,0,1-3.46-8.21c0-5.55,3.68-10.06,8.22-10.06S97.07,60,97.07,65.58a10.9,10.9,0,0,1-3.46,8.21,1.61,1.61,0,0,0-.56,1.26l.69,25.39a4.88,4.88,0,0,1-4.89,5Zm0-46.53c-2.61,0-4.82,3-4.82,6.65a7.46,7.46,0,0,0,2.29,5.63,5,5,0,0,1,1.73,3.93l-.69,25.26a1.58,1.58,0,0,0,1.34,1.65,1.49,1.49,0,0,0,1.16-.39,1.45,1.45,0,0,0,.47-1.12l-.69-25.4a5,5,0,0,1,1.73-3.93,7.43,7.43,0,0,0,2.29-5.63C93.67,62,91.47,58.93,88.86,58.93Z" style="fill:#fff"/><path d="M71.05,70a1.7,1.7,0,0,1-1.7-1.7V58.52a1.7,1.7,0,0,1,3.4,0v9.76A1.7,1.7,0,0,1,71.05,70Z" style="fill:#fff"/><path d="M98.83,99.47a1.71,1.71,0,0,1-1.23-2.89,23.16,23.16,0,0,0,2.27-29.43,1.7,1.7,0,0,1,2.78-2A26.59,26.59,0,0,1,100.05,99,1.71,1.71,0,0,1,98.83,99.47Z" style="fill:#fff"/><path d="M80,114.05a34.05,34.05,0,1,1,34-34A34.09,34.09,0,0,1,80,114.05Zm0-65.88A31.83,31.83,0,1,0,111.83,80,31.87,31.87,0,0,0,80,48.17Z" style="fill:#fff"/></svg>