<svg id="Capa_1" data-name="Capa 1" xmlns="http://www.w3.org/2000/svg" viewBox="0 0 160 160"><path d="M150.5,80A70.5,70.5,0,1,1,80,9.5,70.55,70.55,0,0,1,150.5,80Z" style="fill:#8bb6de;fill-rule:evenodd"/><path d="M61.89,64.38a.94.94,0,0,0,0-1.88H55.06v-.91h6.83c.94,0,.94-1,.94-1,0-2.06-2.1-3.93-4.42-3.93H52.26c-2.31,0-4.42,1.87-4.42,3.93v39.2a3.61,3.61,0,0,0,7.22,0V85.6h3.35c2.32,0,4.42-1.87,4.42-3.93,0,0,0-1-.94-1H55.06v-.91h6.83a.94.94,0,1,0,0-1.88H55.06V76.66h6.83a.94.94,0,1,0,0-1.88H55.06V73.59h6.83a.94.94,0,1,0,0-1.88H55.06V70.52h6.83a.94.94,0,0,0,0-1.88H55.06V67.45h6.83a.94.94,0,0,0,0-1.88H55.06V64.38ZM58.41,83.72H54.12a.94.94,0,0,0-.94.94v15.1a1.73,1.73,0,1,1-3.46,0V60.56a2.53,2.53,0,0,1,2.54-2.05h6.15a2.8,2.8,0,0,1,2.25,1.19H54.12a1,1,0,0,0-.94.95V81.58a.94.94,0,0,0,.94.94h6.54A2.78,2.78,0,0,1,58.41,83.72Z" style="fill:#fff"/><path d="M95.22,65a.94.94,0,0,0-1.37,1.3l4,4.21a1,1,0,0,0,.69.3.93.93,0,0,0,.64-.26,1,1,0,0,0,0-1.33Z" style="fill:#fff"/><path d="M101.61,70.5a.91.91,0,0,0,.68.3.95.95,0,0,0,.68-1.59L99,65a.94.94,0,0,0-1.36,1.3Z" style="fill:#fff"/><path d="M105.37,70.5a.91.91,0,0,0,.68.3.95.95,0,0,0,.68-1.59l-4-4.22a.94.94,0,0,0-1.36,1.3Z" style="fill:#fff"/><path d="M99.87,97.63a.94.94,0,0,0,.94-.94V94.54c1-.48,2.19-1.64,2.82-4.45,1-4.61,1.69-7.26,2.29-9.14a18.31,18.31,0,0,1,3.32-6.08,10.35,10.35,0,0,0,2.92-7.11h0c0-6-5.3-10.83-11.81-10.83h0c-.29,0-7.12.3-20,4.57l-6-1.78a.75.75,0,0,0-.26,0c-2.48,0-3.77,4.06-3.77,8.08s1.29,8.08,3.77,8.08a.75.75,0,0,0,.26,0l6-1.78A104.88,104.88,0,0,0,96.1,78.07a2.28,2.28,0,0,1,.4,2.31c-.17.29-.4.63-.67,1-1.3,2-3.28,5-2.37,7.81a45.37,45.37,0,0,0,1.86,4.91v2.55a.94.94,0,0,0,.94.94h.87v1.94a3.51,3.51,0,0,0,3.5,3.51h9.65a.94.94,0,0,0,0-1.88h-9.65A1.63,1.63,0,0,1,99,99.57V97.63ZM95.68,85.42h3.11a2.95,2.95,0,0,0,0-5.85h-.22a4,4,0,0,0-.21-1.17c1.21.15,2,.18,2,.18a11.42,11.42,0,0,0,4.9-1,19.39,19.39,0,0,0-1.12,2.78c-.61,1.94-1.29,4.63-2.33,9.3-.7,3.11-2.09,3.3-2.2,3.31H96.87a44.91,44.91,0,0,1-1.62-4.33A4.65,4.65,0,0,1,95.68,85.42ZM81.3,63.15c12.06-4,18.72-4.33,19.07-4.35,5.46,0,9.9,4,9.91,8.94h0c0,4.93-4.44,8.94-9.91,9-.36,0-7-.38-19.07-4.35ZM98,81.45h.75c.37,0,.71.49.71,1s-.34,1-.71,1H96.7m2.23,11.33v.88H97.2v-.88ZM79.42,72.32,74,73.93c-.61-.19-1.81-2.29-1.81-6.18s1.2-6,1.81-6.18l5.39,1.61Z" style="fill:#fff"/></svg>