<svg width="600" height="229" viewBox="0 0 600 229" fill="none" xmlns="http://www.w3.org/2000/svg">
<path d="M304.545 158.899C301.657 158.899 299.126 159.923 297.233 161.857C294.853 164.282 293.527 168.069 293.602 172.227C293.557 176.094 294.752 179.464 296.987 181.724C298.915 183.677 301.537 184.702 304.57 184.702H304.6C310.471 184.687 314.378 181.397 315.317 175.677L315.417 175.054L312.595 175.065L312.52 175.501C311.741 179.629 308.778 182.105 304.58 182.12C302.4 182.12 300.583 181.387 299.156 179.951C297.469 178.243 296.485 175.572 296.424 172.584L315.478 172.543L315.503 172.036C315.694 167.883 314.554 164.303 312.299 161.942C310.395 159.954 307.724 158.904 304.55 158.904M304.565 160.948V161.49C309.562 161.49 312.349 165.663 312.65 169.967L296.47 169.997C297.007 165.689 299.869 161.495 304.545 161.49L304.565 160.948Z" fill="#844C95"/>
<path d="M321.022 150.221L321.102 184.114H323.919L323.839 150.216L321.022 150.221Z" fill="#844C95"/>
<path d="M340.406 158.829C337.519 158.829 334.998 159.853 333.105 161.787C330.714 164.207 329.398 167.994 329.464 172.162C329.423 176.029 330.624 179.393 332.853 181.658C334.782 183.607 337.398 184.631 340.427 184.631H340.472C346.342 184.621 350.244 181.337 351.183 175.612L351.284 174.994H348.462L348.381 175.436C347.608 179.564 344.65 182.04 340.437 182.05C338.262 182.05 336.439 181.317 335.023 179.886C333.341 178.173 332.346 175.506 332.286 172.513L351.344 172.473L351.364 171.966C351.555 167.818 350.42 164.227 348.17 161.872C346.262 159.883 343.59 158.834 340.411 158.834M340.427 160.878V161.41C345.423 161.41 348.221 165.588 348.517 169.887L332.326 169.922C332.863 165.608 335.731 161.42 340.411 161.41L340.421 160.878H340.427Z" fill="#844C95"/>
<path d="M373.551 174.618L373.491 175.075C372.934 179.198 369.84 181.98 365.782 181.99C360.434 181.99 357.23 178.053 357.215 171.459C357.215 168.792 357.993 166.306 359.414 164.453C360.971 162.434 363.161 161.36 365.792 161.355C370.101 161.355 372.954 163.589 373.235 167.185L373.275 167.672H376.107L376.052 167.09C375.555 161.872 371.713 158.763 365.747 158.763C362.282 158.763 359.359 160.089 357.3 162.58C355.417 164.86 354.382 168.014 354.398 171.464C354.408 177.796 357.411 184.571 365.777 184.571H365.807C371.412 184.556 375.525 180.885 376.293 175.21L376.379 174.602L373.551 174.613V174.618Z" fill="#844C95"/>
<path d="M437.521 158.974C430.5 158.989 426.151 163.66 426.156 171.152L426.171 171.599C426.156 171.805 426.156 172.006 426.156 172.217C426.176 179.7 430.53 184.34 437.536 184.34H437.581C444.596 184.325 448.95 179.66 448.93 172.172V171.097C448.915 163.62 444.556 158.979 437.521 158.979M437.521 161.606L437.551 161.073V161.606C443.215 161.606 445.932 166.663 446.103 171.64C445.937 176.646 443.235 181.703 437.546 181.714C431.876 181.714 429.159 176.651 428.988 171.68C429.149 166.668 431.856 161.611 437.521 161.606Z" fill="#844C95"/>
<path d="M472.8 168.993C472.79 166.236 472.779 158.914 463.83 158.914C460.476 158.924 457.478 160.496 455.815 162.987L455.805 159.486H452.988L453.048 184.199H455.866L455.83 170.876C455.82 165.196 458.939 161.52 463.81 161.505C469.324 161.505 469.967 165.603 469.982 168.677L470.022 184.159L472.83 184.149L472.8 168.993Z" fill="#844C95"/>
<path d="M421.701 159.471H418.713V184.425H421.701V159.471Z" fill="#844C95"/>
<path d="M421.701 153.641H418.713V156.549H421.701V153.641Z" fill="#844C95"/>
<path d="M411.06 149.613L389.365 184.455H396.391C399.71 184.455 402.036 184.25 403.361 183.828C405.521 183.175 407.379 181.975 408.941 180.222C410.503 178.469 411.582 176.124 412.18 173.186H413.239L411.743 186.524H377.935L399.66 151.627H394.186C392.062 151.627 390.666 151.692 389.993 151.818C388.722 152.054 387.532 152.521 386.412 153.219C385.297 153.917 384.368 154.846 383.635 156.011C382.902 157.171 382.324 158.643 381.908 160.42H380.898L381.908 149.613H411.06Z" fill="#844C95"/>
<path d="M232.355 174.457C232.465 148.021 211.127 126.497 184.691 126.382C158.256 126.266 136.722 147.605 136.612 174.04C136.501 200.486 157.839 222.004 184.27 222.12C210.71 222.236 232.239 200.897 232.355 174.462" fill="#009245"/>
<path d="M229.512 174.437C229.618 149.568 209.545 129.315 184.671 129.209C159.808 129.099 139.549 149.176 139.444 174.05C139.333 198.919 159.416 219.177 184.285 219.283C209.153 219.383 229.407 199.315 229.512 174.437Z" fill="white"/>
<path d="M226.951 174.432C227.051 150.974 208.124 131.881 184.661 131.78C161.204 131.675 142.106 150.608 142.005 174.065C141.905 197.523 160.842 216.626 184.29 216.721C207.752 216.827 226.851 197.889 226.951 174.432Z" fill="#CC3A2B"/>
<path d="M152.988 151.17C152.988 151.17 176.295 144.104 193.013 132.976L204.428 192.33C204.428 192.33 205.091 201.113 213.311 198.361L213.784 200.636C213.784 200.636 198.662 203.91 167.978 212.734L167.406 210.374C167.406 210.374 176.315 208.867 174.668 203.293L165.473 157.92C165.473 157.92 164.247 152.551 153.937 155.153L152.993 151.175L152.988 151.17Z" fill="#F7E323"/>
<path d="M240.38 175.496L241.987 172.584C242.765 171.177 242.323 169.385 240.982 168.496C238.647 166.954 235.77 166.065 233.093 166.065C231.626 166.065 230.215 166.341 228.965 166.874C229.015 166.648 229.07 166.412 229.12 166.171C229.251 165.573 229.206 164.955 228.985 164.383C227.88 161.53 224.606 160.737 221.844 161.214C220.588 161.43 219.579 162.419 219.333 163.67L218.439 168.21C216.385 166.763 213.934 166.005 211.318 166.005C208.701 166.005 206.376 166.723 204.352 168.094V163.424C204.352 161.711 202.961 160.32 201.249 160.32H196.553C194.841 160.32 193.45 161.711 193.45 163.424V166.211C192.792 166.075 192.099 166.01 191.391 166.01C189.332 166.01 187.298 166.628 185.595 167.758V163.429C185.595 161.716 184.204 160.325 182.492 160.325H177.796C176.084 160.325 174.693 161.716 174.693 163.429V167.672C173.031 166.653 170.941 166.135 168.466 166.135C167.481 166.135 166.562 166.196 165.668 166.321L165.995 165.352C166.316 164.408 166.161 163.358 165.578 162.55C164.995 161.741 164.056 161.254 163.057 161.254H158.085C156.714 161.254 155.519 162.138 155.117 163.449L153.495 168.757L151.702 163.323C151.281 162.048 150.1 161.194 148.76 161.194H144.682C143.341 161.194 142.156 162.048 141.739 163.323L139.946 168.757L138.324 163.449C137.922 162.138 136.732 161.254 135.356 161.254H130.259C129.259 161.254 128.32 161.736 127.738 162.55C127.155 163.358 127 164.408 127.321 165.352L134.703 187.127C135.13 188.388 136.31 189.231 137.641 189.231H141.779C143.1 189.231 144.28 188.393 144.712 187.142L146.66 181.493L148.609 187.142C149.041 188.393 150.221 189.231 151.542 189.231H155.68C157.011 189.231 158.191 188.383 158.618 187.127L158.999 185.997C160.561 188.162 163.178 189.387 166.301 189.387C167.612 189.387 168.842 189.181 169.952 188.769C170.374 188.975 170.836 189.081 171.308 189.081H175.848C176.174 189.081 176.501 189.025 176.822 188.92C177.138 189.025 177.465 189.081 177.796 189.081H182.492C183.672 189.081 184.732 188.413 185.254 187.383C187.032 188.694 189.141 189.387 191.386 189.387C192.701 189.387 193.932 189.151 195.042 188.694C195.499 188.945 196.016 189.081 196.543 189.081H201.239C202.489 189.081 203.599 188.332 204.081 187.213C206.145 188.679 208.611 189.452 211.247 189.452C218.027 189.452 223.335 184.305 223.335 177.731V177.671C223.335 176.928 223.265 176.184 223.124 175.456C223.426 175.486 223.707 175.491 223.983 175.471C224.144 176.867 224.656 178.108 225.5 179.167L223.596 182.1C222.712 183.461 223.009 185.239 224.294 186.238C226.911 188.272 230.11 189.392 233.304 189.392C239.034 189.392 242.735 186.078 242.735 180.945V180.885C242.735 178.725 241.941 176.913 240.37 175.506L240.38 175.496Z" fill="#009245"/>
<path d="M130.274 164.353H135.371L139.851 178.997L144.702 164.292H148.78L153.631 178.997L158.11 164.353H163.082L155.7 186.128H151.562L146.68 171.981L141.799 186.128H137.661L130.279 164.353H130.274Z" fill="white"/>
<path d="M160.636 181.216V181.156C160.636 177.575 163.383 175.873 167.311 175.873C169.008 175.873 170.153 176.149 171.358 176.551V176.275C171.358 174.296 170.153 173.247 167.808 173.247C165.985 173.247 164.749 173.558 163.238 174.14L162.063 170.555C163.886 169.781 165.678 169.229 168.486 169.229C171.082 169.229 172.87 169.877 174.075 171.082C175.31 172.317 175.868 174.14 175.868 176.365V185.972H171.328V184.179C170.183 185.445 168.641 186.278 166.326 186.278C163.208 186.278 160.641 184.516 160.641 181.211L160.636 181.216ZM171.413 180.137V179.303C170.58 178.931 169.56 178.685 168.415 178.685C166.407 178.685 165.171 179.489 165.171 180.97V181.031C165.171 182.296 166.221 183.039 167.737 183.039C169.962 183.039 171.413 181.864 171.413 180.137Z" fill="white"/>
<path d="M177.806 163.424H182.502V185.972H177.806V163.424Z" fill="white"/>
<path d="M183.863 177.726V177.666C183.863 172.137 187.479 169.109 191.401 169.109C193.902 169.109 195.448 170.254 196.558 171.579V163.424H201.254V185.972H196.558V183.592C195.413 185.169 193.872 186.278 191.401 186.278C187.539 186.278 183.863 183.25 183.863 177.721V177.726ZM196.619 177.726V177.666C196.619 174.919 194.796 173.096 192.601 173.096C190.406 173.096 188.553 174.889 188.553 177.666V177.726C188.553 180.473 190.406 182.296 192.601 182.296C194.796 182.296 196.619 180.473 196.619 177.726Z" fill="white"/>
<path d="M202.333 177.791V177.731C202.333 172.975 206.165 169.114 211.323 169.114C216.48 169.114 220.252 172.88 220.252 177.671V177.731C220.252 182.487 216.42 186.349 211.262 186.349C206.105 186.349 202.333 182.582 202.333 177.791ZM215.611 177.791V177.731C215.611 175.291 213.849 173.161 211.257 173.161C208.666 173.161 206.964 175.2 206.964 177.671V177.731C206.964 180.172 208.726 182.301 211.318 182.301C213.909 182.301 215.611 180.262 215.611 177.791Z" fill="white"/>
<path d="M226.208 183.782L228.217 180.694C230.039 182.02 231.862 182.673 233.434 182.673C234.795 182.673 235.413 182.18 235.413 181.437V181.377C235.413 180.358 233.806 180.051 231.983 179.464C229.668 178.816 227.041 177.701 227.041 174.492V174.432C227.041 171.067 229.758 169.179 233.098 169.179C235.197 169.179 237.452 169.887 239.275 171.092L237.482 174.336C235.845 173.377 234.208 172.789 233.002 172.789C231.857 172.789 231.275 173.282 231.275 173.934V173.995C231.275 174.859 232.852 175.416 234.64 175.973C236.955 176.717 239.641 177.857 239.641 180.885V180.945C239.641 184.621 236.894 186.288 233.309 186.288C230.964 186.288 228.427 185.515 226.203 183.788L226.208 183.782Z" fill="white"/>
<path d="M221.311 169.681L222.376 164.272C222.376 164.272 225.414 163.745 226.092 165.503C226.092 165.503 224.711 171.755 224.269 172.192C224.269 172.192 223.777 172.709 222.17 171.976C222.17 171.976 221.06 171.79 221.306 169.671" fill="white"/>
<path d="M63.3114 63.7132C62.8293 62.2669 62.5079 61.383 62.5079 56.808V47.9795C62.5079 42.7617 60.7402 40.8333 56.7277 40.8333H53.6743V63.7132H44.8458V7.52283H58.1689C67.3189 7.52283 71.2561 11.7764 71.2561 20.4443V24.8585C71.2561 30.6388 69.408 34.3299 65.4759 36.178V36.3387C69.8901 38.1867 71.3364 42.36 71.3364 48.2205V56.8884C71.3364 59.6153 71.4168 61.6241 72.3007 63.7132H63.3114ZM53.6793 15.5479V32.8082H57.1294C60.4188 32.8082 62.4275 31.3619 62.4275 26.8673V21.3281C62.4275 17.3156 61.0616 15.5479 57.9329 15.5479H53.6793Z" fill="#AEAEAB"/>
<path d="M102 31.2012H114.123V39.2263H102V55.6831H117.252V63.7082H93.1718V7.52283H117.252V15.5529H102V31.2063V31.2012Z" fill="#AEAEAB"/>
<path d="M164.378 42.7617V50.2243C164.378 59.2135 159.883 64.351 151.21 64.351C142.537 64.351 138.048 59.2135 138.048 50.2243V21.0067C138.048 12.0174 142.542 6.88 151.21 6.88C159.878 6.88 164.378 12.0174 164.378 21.0067V26.4655H156.031V20.4442C156.031 16.4317 154.264 14.905 151.456 14.905C148.649 14.905 146.881 16.4317 146.881 20.4442V50.7867C146.881 54.7993 148.649 56.2456 151.456 56.2456C154.264 56.2456 156.031 54.8043 156.031 50.7867V42.7617H164.378Z" fill="#AEAEAB"/>
<path d="M185.088 21.0067C185.088 12.0174 189.824 6.88 198.492 6.88C207.16 6.88 211.895 12.0174 211.895 21.0067V50.2243C211.895 59.2135 207.16 64.351 198.492 64.351C189.824 64.351 185.088 59.2135 185.088 50.2243V21.0067ZM193.917 50.7867C193.917 54.7993 195.684 56.3259 198.492 56.3259C201.299 56.3259 203.067 54.8043 203.067 50.7867V20.4442C203.067 16.4317 201.299 14.905 198.492 14.905C195.684 14.905 193.917 16.4317 193.917 20.4442V50.7867Z" fill="#AEAEAB"/>
<path d="M252.277 47.417H252.437L258.378 7.52283H270.657V63.7132H262.31V23.4172H262.15L256.209 63.7132H247.862L241.439 23.9797H241.279V63.7132H233.575V7.52283H245.853L252.277 47.417Z" fill="#AEAEAB"/>
<path d="M319.304 21.4085V28.7104C319.304 37.6996 314.97 42.596 306.137 42.596H301.964V63.7082H293.13V7.52283H306.137C314.965 7.52283 319.304 12.4192 319.304 21.4135V21.4085ZM301.969 15.5479V34.5709H306.142C308.949 34.5709 310.476 33.2853 310.476 29.2728V20.846C310.476 16.8335 308.954 15.5479 306.142 15.5479H301.969Z" fill="#AEAEAB"/>
<path d="M348.286 31.2012H360.409V39.2263H348.286V55.6831H363.537V63.7082H339.457V7.52283H363.537V15.5529H348.286V31.2063V31.2012Z" fill="#AEAEAB"/>
<path d="M393.081 23.0155H392.916V63.7132H384.971V7.52283H396.049L404.958 41.1597H405.119V7.52283H412.983V63.7132H403.914L393.081 23.0155Z" fill="#AEAEAB"/>
<path d="M447.263 6.88002C455.851 6.88002 460.265 12.0175 460.265 21.0067V22.7744H451.918V20.4443C451.918 16.4317 450.311 14.9051 447.499 14.9051C444.687 14.9051 443.085 16.4317 443.085 20.4443C443.085 24.4568 444.853 27.5905 450.633 32.6475C458.015 39.1509 460.345 43.8063 460.345 50.2243C460.345 59.2136 455.851 64.351 447.178 64.351C438.505 64.351 434.015 59.2136 434.015 50.2243V46.7742H442.362V50.7868C442.362 54.7993 444.129 56.2456 446.942 56.2456C449.754 56.2456 451.517 54.8043 451.517 50.7868C451.517 46.7692 449.749 43.6456 443.969 38.5835C436.586 32.0801 434.256 27.4247 434.256 21.0017C434.256 12.0124 438.67 6.875 447.263 6.875V6.88002Z" fill="#AEAEAB"/>
<path d="M510.042 63.7132H501.133L499.607 53.5187H488.774L487.248 63.7132H479.142L488.132 7.52283H501.053L510.047 63.7132H510.042ZM489.889 45.8904H498.396L494.223 17.4763H494.062L489.884 45.8904H489.889Z" fill="#AEAEAB"/>
<path d="M542.067 6.88002C550.655 6.88002 555.069 12.0175 555.069 21.0067V22.7744H546.722V20.4443C546.722 16.4317 545.115 14.9051 542.303 14.9051C539.491 14.9051 537.889 16.4317 537.889 20.4443C537.889 24.4568 539.656 27.5905 545.437 32.6475C552.819 39.1509 555.149 43.8063 555.149 50.2243C555.149 59.2136 550.654 64.351 541.982 64.351C533.309 64.351 528.819 59.2136 528.819 50.2243V46.7742H537.166V50.7868C537.166 54.7993 538.933 56.2456 541.746 56.2456C544.558 56.2456 546.321 54.8043 546.321 50.7868C546.321 46.7692 544.553 43.6456 538.773 38.5835C531.39 32.0801 529.06 27.4247 529.06 21.0017C529.06 12.0124 533.474 6.875 542.067 6.875V6.88002Z" fill="#AEAEAB"/>
</svg>
