<?xml version="1.0" encoding="utf-8"?>
<!-- Generator: Adobe Illustrator 25.2.3, SVG Export Plug-In . SVG Version: 6.00 Build 0)  -->
<svg version="1.1" id="Capa_1" xmlns="http://www.w3.org/2000/svg" xmlns:xlink="http://www.w3.org/1999/xlink" x="0px" y="0px"
	 viewBox="0 0 400 91" style="enable-background:new 0 0 400 91;" xml:space="preserve">
<style type="text/css">
	.st0{fill:#FFFFFF;}
	.st1{fill:#86BC55;}
</style>
<path class="st0" d="M32.7,31.1L32.1,35h16.8l-1.7,11.7H30.5L30,50.8h19.1l-1.8,12.5H12.2l6.3-44.9h35.2l-1.8,12.6H32.7z"/>
<path class="st0" d="M76.2,53.3L74.8,63c-2.7,0.9-5.6,1.3-8.4,1.3c-6.6,0-12.9-3-11.2-14.7l5-35.2h16l-4.9,35.1
	c-0.5,3.7,1.4,3.9,3.4,3.9C75.1,53.4,75.6,53.3,76.2,53.3z"/>
<path class="st0" d="M119.5,63.4H103l4.5-32.1H95.4l1.8-12.8h40.7l-1.8,12.8H124L119.5,63.4z"/>
<path class="st0" d="M161,31.6l0.5-3.5h16l-3.2,22.6c-0.3,2.6,1.3,3.1,3.7,2.5l-1.4,9.7c-3,0.9-6.1,1.3-9.3,1.3
	c-4.9,0-8-2.3-9.1-5.5c-2.7,3.5-6.9,5.6-11.4,5.5c-7.4,0-11.8-6.9-11.8-15.5c0-11.9,7.8-21.4,17.5-21.4
	C156,27.2,159.1,28.8,161,31.6z M160.4,44.8c0-2.8-1.5-5-3.9-5c-3.1,0-5.6,3.2-5.6,6.8c0,2.8,1.5,5,3.9,5
	C157.9,51.6,160.4,48.4,160.4,44.8L160.4,44.8z"/>
<path class="st0" d="M198.8,50.2L197,63.4h-16.2l4.9-35.2h15.1l-0.9,6.2c1.7-2.9,4.9-8.5,12-6.8L210,41.5
	C203.9,40.6,199.8,43.3,198.8,50.2z"/>
<path class="st0" d="M231.9,28.2l-4.8,34.2c-1.7,11.8-8.9,14.7-15.5,14.7c-2.7,0.1-5.4-0.4-8-1.3l1.3-9.7c0.5,0.1,1,0.1,1.5,0.1
	c2,0,4.1-0.3,4.6-3.9l4.9-34.2L231.9,28.2z M232.7,24.8h-16.5l1.5-10.5h16.5L232.7,24.8z"/>
<path class="st0" d="M248.9,50.7c1,1.9,3.5,2.5,6.4,2.5c3.2,0,6.4-0.4,9.5-1.4l0.5,10.2c-4.4,1.4-8.9,2.2-13.5,2.3
	c-10.9,0-18.1-4.8-18.1-15.9c0-11.8,9.2-21,21.6-21c8.4,0,14.3,4.5,14.3,11.9C269.6,50.2,257.8,51.7,248.9,50.7z M257.1,39.1
	c0-1.3-1-1.9-2.3-1.9c-3.2,0-4.8,2.5-5.5,5C251.6,42.5,257.1,42.5,257.1,39.1z"/>
<path class="st0" d="M275.5,28.2h3.5L280,20h16.1l-1.1,8.2h5.8l-1.7,11.6h-5.8l-1.3,9.4c-0.4,2.8,1.5,3.8,3.5,3.8
	c1,0,1.9-0.1,2.9-0.3l-1.3,9.6c-3.5,1.4-7.2,2.1-11,2.1c-7.1,0-11.8-2.7-10.6-11l1.9-13.5h-3.5L275.5,28.2z"/>
<path class="st0" d="M324.7,27.3c-11.9,0-23,7.7-23,20.8c0,10.2,7.9,16.1,17.9,16.1c11.8,0,22.9-7.8,22.9-20.8
	C342.4,33.2,334.6,27.3,324.7,27.3z M321.2,51.9c-2.5,0-3.9-2.3-3.9-5.2c0-3.7,2.5-7.2,5.6-7.2c2.5,0,3.9,2.3,3.9,5.2
	C326.8,48.5,324.4,51.9,321.2,51.9z"/>
<polygon class="st1" points="327,24.2 317.9,24.2 326.3,13.9 338.9,13.9 "/>
<path class="st0" d="M384.1,50.9c-0.3,2.5,1.3,2.9,3.7,2.3l-1.4,9.7c-3,0.9-6.2,1.3-9.3,1.3c-7.4,0-10.4-4.5-9.6-9.9l1.6-11.1
	c0.3-1.4-0.6-2.9-2-3.2c-0.2,0-0.4-0.1-0.6-0.1c-1.7,0.2-3.1,1.5-3.3,3.2l-2.9,20.1h-16.1l4.9-35.2h15.6l-0.5,3.5
	c3-2.8,7-4.3,11.1-4.3c7.1,0,11.4,5.2,10.4,12.1L384.1,50.9z"/>
</svg>
