<svg id="Capa_1" data-name="Capa 1" xmlns="http://www.w3.org/2000/svg" viewBox="0 0 159 160"><defs><style>.cls-1{fill:#e5893f;}.cls-2{fill:#fff;}</style></defs><rect class="cls-1" x="0.48" y="1.33" width="157.97" height="157.97"/><rect class="cls-2" x="0.48" y="1.33" width="157.97" height="157.97"/><path class="cls-1" d="M5.58,126.88l-.13.06v27.4H32.6l.14-.3a1,1,0,0,0,0-.56A2.94,2.94,0,0,0,31.8,152L7.66,127.82a2.94,2.94,0,0,0-1.52-.94,1,1,0,0,0-.56,0m141-59.95a1.06,1.06,0,0,1-.33.82,1.08,1.08,0,0,1-.79.34,1.62,1.62,0,0,1-.91-.32l-1-.69a8.07,8.07,0,0,0-3-1.4,4.17,4.17,0,0,0-1.92.06l-1.64-1.64,3.56-3.56,5.53,5.54a1.26,1.26,0,0,1,.42.85m-1.4-19.55L134.43,58.12l-.63.62a3.3,3.3,0,0,1-1.66,1,1.52,1.52,0,0,1-1.4-.46A1.79,1.79,0,0,1,130.4,57c.36-.71.56-1.13.61-1.26a1.24,1.24,0,0,0,0-.55,2.93,2.93,0,0,0-.95-1.52L105.92,29.56a2.93,2.93,0,0,0-1.52-.95,1.24,1.24,0,0,0-.55,0c-.13.05-.55.25-1.26.61a1.79,1.79,0,0,1-2.27-.34,1.52,1.52,0,0,1-.46-1.4,3.34,3.34,0,0,1,1-1.66l.62-.63,10.74-10.73Zm-3.61-16.69a1.58,1.58,0,0,1-1.21.53,3.75,3.75,0,0,1-1.64-.63A8.68,8.68,0,0,0,135,29.21a5.07,5.07,0,0,0-3.14.78l-2.8-2.8a8.86,8.86,0,0,0,.6-3.54,7.16,7.16,0,0,0-1.13-3.12,3.88,3.88,0,0,1-.76-1.77,1.56,1.56,0,0,1,.54-1.24,1.5,1.5,0,0,1,1.66-.46,5.3,5.3,0,0,1,1.6,1.25l9.19,9.2A4.77,4.77,0,0,1,142,29.33a1.39,1.39,0,0,1-.49,1.36M98.47,34a1.24,1.24,0,0,0,0,.55,3,3,0,0,0,.94,1.52l24.15,24.15a3,3,0,0,0,1.52.94,1.11,1.11,0,0,0,.55,0c.13,0,.55-.25,1.26-.61a1.79,1.79,0,0,1,2.27.34c.83.84.65,1.86-.56,3.07l-.65.65L117.22,75.33l-.8.8a4.62,4.62,0,0,1-1.93,1.28A1.51,1.51,0,0,1,113,77a1.81,1.81,0,0,1-.17-2.48q.7-1.18.81-1.41a1.19,1.19,0,0,0,.06-.62,3.07,3.07,0,0,0-1-1.74L91.76,49.94l17.88,33-1.28,1.28L71.24,65.78a6.67,6.67,0,0,0-2.89-.87,2.93,2.93,0,0,0-1.55.63c-1.27.82-2.29.84-3.06.07a1.63,1.63,0,0,1-.53-1.42,2.89,2.89,0,0,1,.94-1.64L75.44,51.26,93.72,60l-5.21-9.41-4.2-8.25L95,31.67l.65-.65c1.21-1.21,2.23-1.39,3.07-.56a1.79,1.79,0,0,1,.34,2.27c-.36.71-.56,1.13-.61,1.26M81.61,38.13,76.3,43.44l-1.37-1.37a8.85,8.85,0,0,0,1-1.73,6,6,0,0,0,.39-1.8,6.51,6.51,0,0,0-.1-1.85,9.18,9.18,0,0,0-.72-1.95,2.11,2.11,0,0,1-.26-.85.86.86,0,0,1,.28-.57.77.77,0,0,1,.7-.28,1.88,1.88,0,0,1,.88.59ZM73.5,35a.72.72,0,0,1-.26.72.82.82,0,0,1-.64.28,2,2,0,0,1-.87-.33,4.53,4.53,0,0,0-2-.73,2.68,2.68,0,0,0-1.66.41l-1.48-1.48A4.84,4.84,0,0,0,66.94,32a4,4,0,0,0-.6-1.64,2.21,2.21,0,0,1-.41-.94.9.9,0,0,1,.29-.66.8.8,0,0,1,.88-.24,2.71,2.71,0,0,1,.84.66l4.87,4.87a2.48,2.48,0,0,1,.69,1M69,26.14a.84.84,0,0,1-.3.66.88.88,0,0,1-.53.3,1.71,1.71,0,0,1-.71-.23A6.68,6.68,0,0,0,63.73,26a6.31,6.31,0,0,0-3.37,1.5L58.87,26,64,20.89l4.52,4.52a1.22,1.22,0,0,1,.42.73m-11.22,1L75.16,44.59l-5.68,5.68-.34.33a1.7,1.7,0,0,1-.88.54.81.81,0,0,1-.74-.24.94.94,0,0,1-.18-1.2c.19-.38.3-.6.32-.67a.46.46,0,0,0,0-.29,1.51,1.51,0,0,0-.49-.8L54.39,35.16a1.61,1.61,0,0,0-.8-.5.74.74,0,0,0-.3,0l-.66.32a.94.94,0,0,1-1.2-.18.8.8,0,0,1-.24-.74,1.79,1.79,0,0,1,.53-.88l.33-.33ZM50.9,35.34a.94.94,0,0,1,.18,1.2,7.12,7.12,0,0,0-.32.66.47.47,0,0,0,0,.29,1.53,1.53,0,0,0,.5.81L64,51c.47.47.88.63,1.24.47l.55-.26a1,1,0,0,1,1.21.19c.45.45.36,1-.28,1.63l-.35.34-5.68,5.68-.35.36c-.6.6-1.12.67-1.57.22a1,1,0,0,1-.22-1.19l.27-.55c.17-.32,0-.73-.49-1.22l-5.89-5.9-2.08,2.08-1.27-1.26,2.08-2.08L45.59,44c-.48-.47-.88-.63-1.21-.47l-.54.28a.92.92,0,0,1-1.17-.2c-.45-.44-.36-1,.25-1.59l.33-.33L48.93,36l.35-.34c.63-.64,1.18-.74,1.62-.29m-8.68,10-.27.53c-.16.33,0,.73.47,1.21L55.2,59.9c.48.48.88.64,1.21.48l.52-.27a.93.93,0,0,1,1.18.2c.44.44.36,1-.24,1.57l-.34.33-5.69,5.7-.33.33a1.79,1.79,0,0,1-.88.53.8.8,0,0,1-.74-.24.94.94,0,0,1-.18-1.2c.19-.37.29-.59.32-.66a.5.5,0,0,0,0-.3,1.54,1.54,0,0,0-.5-.8L36.76,52.79A1.56,1.56,0,0,0,36,52.3a.47.47,0,0,0-.29,0,7.12,7.12,0,0,0-.66.32.94.94,0,0,1-1.2-.18.79.79,0,0,1-.25-.74,1.7,1.7,0,0,1,.54-.88l.33-.33,5.69-5.7.34-.33q.9-.9,1.56-.24a.92.92,0,0,1,.21,1.17m-9.88,7.18,5.22,5.22a1.16,1.16,0,0,1,.39.81,1,1,0,0,1-.31.77,1,1,0,0,1-.74.32,1.47,1.47,0,0,1-.86-.31l-.91-.65a7.61,7.61,0,0,0-2.79-1.31,3.83,3.83,0,0,0-1.81,0L29,55.92ZM27.92,57l15,15a1.52,1.52,0,0,0,.91.52.63.63,0,0,0,.35,0c.08,0,.33-.18.74-.43a1,1,0,0,1,1.32.09.86.86,0,0,1,.2.87,2.29,2.29,0,0,1-.66,1l-.42.42-5.69,5.69-.43.42a2.32,2.32,0,0,1-1,.68.79.79,0,0,1-.8-.23,1,1,0,0,1-.09-1.31c.25-.42.39-.67.43-.75a.6.6,0,0,0,0-.34,1.55,1.55,0,0,0-.53-.9l-15-15Zm-6.7,6.7,1.55,1.55A3.6,3.6,0,0,0,22.72,67,7.61,7.61,0,0,0,24,69.83l.65.91a1.44,1.44,0,0,1,.31.86,1,1,0,0,1-.32.74,1,1,0,0,1-.77.31,1.16,1.16,0,0,1-.81-.39L17.87,67Zm-1.91,43.71.62-.63L30.67,96l.65-.65q1.82-1.81,3.06-.56a1.79,1.79,0,0,1,.34,2.27c-.35.71-.56,1.12-.6,1.25a1,1,0,0,0,0,.56,2.94,2.94,0,0,0,.94,1.52l24,24c.88.88,1.66,1.18,2.34.89l1-.51a1.83,1.83,0,0,1,2.3.36c.85.86.67,1.88-.54,3.09l-.65.65L52.86,139.69l-.68.67c-1.12,1.13-2.11,1.27-3,.41a1.78,1.78,0,0,1-.41-2.24l.5-1c.32-.61,0-1.38-.91-2.31L37.25,124,33.32,128l-2.39-2.38,3.93-3.94L24.35,111.13c-.9-.9-1.67-1.2-2.29-.9l-1,.53a1.75,1.75,0,0,1-2.22-.38c-.83-.84-.67-1.83.49-3m48.83,10.26q-9.39,0-17.76-8.34A31.11,31.11,0,0,1,44,100.48,21.42,21.42,0,0,1,42,91.05a19.07,19.07,0,0,1,1.25-6.75,18.66,18.66,0,0,1,3.69-5.82l2.61,2.61A4.7,4.7,0,0,0,49,84a5.55,5.55,0,0,0,1.69,2.7l21.56,21.56a8,8,0,0,0,3.57,2.41,3.78,3.78,0,0,0,2.71-.62l2.65,2.65a19.63,19.63,0,0,1-13,4.94m3,12.31a15,15,0,0,1,1.27-1.16,9.23,9.23,0,0,1,4.79-1.87,10.4,10.4,0,0,1,5.57.84,16.76,16.76,0,0,1,5.24,3.64A16,16,0,0,1,92,137.33a11.32,11.32,0,0,1,.47,6.29,9,9,0,0,1-.9,2.52,11.12,11.12,0,0,1-1.86,2.3L88.2,147a5.71,5.71,0,0,0,.52-1.07,1.5,1.5,0,0,0,0-.76,2.64,2.64,0,0,0-.4-1,7.67,7.67,0,0,0-1-1.16L76.64,132.36a5.2,5.2,0,0,0-1.85-1.29,2,2,0,0,0-1-.12,3.45,3.45,0,0,0-1.11.51Zm26.05,7.67a.84.84,0,0,0,0-.32,1.67,1.67,0,0,0-.53-.85L83.16,122.91a1.7,1.7,0,0,0-.85-.53.79.79,0,0,0-.31,0l-.71.34a1,1,0,0,1-1.27-.19.85.85,0,0,1-.26-.78,1.9,1.9,0,0,1,.57-.93l.35-.36,6-6,18.47,18.48-6,6-.35.35a2,2,0,0,1-.94.57.84.84,0,0,1-.78-.26,1,1,0,0,1-.19-1.27c.2-.4.31-.63.34-.7m9.16-5.93-1.46-1.46A9,9,0,0,0,106,128.4a6.5,6.5,0,0,0,.41-1.9,6.87,6.87,0,0,0-.11-2,9.73,9.73,0,0,0-.76-2.07,2.26,2.26,0,0,1-.28-.9.91.91,0,0,1,.3-.61.83.83,0,0,1,.75-.3,2.13,2.13,0,0,1,.92.63l4.78,4.78Zm5.85-7.26a1,1,0,0,1-.19-1.27c.2-.4.31-.63.34-.7a.84.84,0,0,0,0-.32,1.67,1.67,0,0,0-.53-.85L98.32,107.75a1.6,1.6,0,0,0-.85-.52.53.53,0,0,0-.31,0,7.38,7.38,0,0,0-.71.33,1,1,0,0,1-1.27-.19.85.85,0,0,1-.26-.78,1.9,1.9,0,0,1,.57-.93l.35-.36,6-6,15.9,15.9a1.58,1.58,0,0,0,1,.56.59.59,0,0,0,.37,0c.09,0,.35-.19.8-.45a1,1,0,0,1,1.39.1.9.9,0,0,1,.22.92,2.5,2.5,0,0,1-.69,1l-.46.46-6,6-.35.35a1.89,1.89,0,0,1-.94.57.84.84,0,0,1-.78-.26M77.17,71.71,87,76.44l7.26,7.26A15.19,15.19,0,0,0,96,85.21a6,6,0,0,0,1.44.69,5.07,5.07,0,0,0,3,.19l1.47-.31a2.15,2.15,0,0,1,2.15.31c.82.82.62,1.83-.58,3l-6.06,6.05c-1.2,1.21-2.21,1.41-3,.61a1.42,1.42,0,0,1-.44-.75A3.13,3.13,0,0,1,94.06,94q1.23-4.12-2.34-7.69Zm15.89,41.52a6.56,6.56,0,0,0-3.56,1.59l-1.59-1.58,5.46-5.46,4.79,4.79a1.26,1.26,0,0,1,.44.77.92.92,0,0,1-.32.71.89.89,0,0,1-.55.31,1.64,1.64,0,0,1-.76-.24,7.15,7.15,0,0,0-3.91-.89m3.41,6.37a4,4,0,0,0-.64-1.75,2.36,2.36,0,0,1-.43-1,.92.92,0,0,1,.31-.7.84.84,0,0,1,.93-.26,3.06,3.06,0,0,1,.9.71l5.15,5.15a2.76,2.76,0,0,1,.74,1,.77.77,0,0,1-.28.77.88.88,0,0,1-.67.3,2.09,2.09,0,0,1-.92-.35,5,5,0,0,0-2.1-.78,2.82,2.82,0,0,0-1.76.44l-1.57-1.57a5.09,5.09,0,0,0,.34-2M81,105.43a7.71,7.71,0,0,0-2.34-3.65L57.14,80.22a5.7,5.7,0,0,0-2.46-1.59,3.51,3.51,0,0,0-1.49-.11,6.52,6.52,0,0,0-1.7.59l-2.6-2.61a19.07,19.07,0,0,1,5.82-3.7,19.31,19.31,0,0,1,6.77-1.27Q71.2,71.41,79.74,80q8.37,8.37,8.35,17.76a19.49,19.49,0,0,1-5,13l-2.66-2.65a4.51,4.51,0,0,0,.61-1.35,3.19,3.19,0,0,0,0-1.3m48.21-.38q-5.27,0-10-4.68a20.07,20.07,0,0,1-1.46-1.65,7,7,0,0,1,.66,1.86,7.56,7.56,0,0,1-.64,4.51,17.08,17.08,0,0,1-3.44,4.44L113,108.08a4.35,4.35,0,0,0,.53-1.11,1.76,1.76,0,0,0,0-.87,4.22,4.22,0,0,0-1.13-1.7L108,100.06a5.44,5.44,0,0,0-1-.85A1.89,1.89,0,0,0,106,99a2.65,2.65,0,0,0-1.53.58L103,98.14a16.65,16.65,0,0,1,4.65-3.58A7.17,7.17,0,0,1,116,96.25c.15.15.28.31.42.47-.25-.43-.48-.86-.69-1.3a12,12,0,0,1-1.16-5.29,10.74,10.74,0,0,1,.7-3.79,10.47,10.47,0,0,1,2.07-3.27l1.47,1.47a2.64,2.64,0,0,0-.32,1.63,3.13,3.13,0,0,0,1,1.52l12.1,12.1a4.43,4.43,0,0,0,2,1.35,2.07,2.07,0,0,0,1.52-.35l1.49,1.49a11,11,0,0,1-7.3,2.77m8.41-3.88-1.49-1.49a2.55,2.55,0,0,0,.34-.76,1.82,1.82,0,0,0,0-.73,4.31,4.31,0,0,0-1.31-2l-12.1-12.1a3.13,3.13,0,0,0-1.38-.89,1.85,1.85,0,0,0-.83-.07,3.73,3.73,0,0,0-1,.34L118.45,82a10.66,10.66,0,0,1,3.27-2.07,10.44,10.44,0,0,1,3.8-.71,11.73,11.73,0,0,1,3.53.5l-3.79-3.79,3.56-3.56L130.46,74a3.92,3.92,0,0,0-.06,1.92,8.07,8.07,0,0,0,1.4,3l.69,1a1.62,1.62,0,0,1,.32.91,1,1,0,0,1-.21.61,19.17,19.17,0,0,1,3.16,2.57q4.71,4.69,4.69,10a10.93,10.93,0,0,1-2.79,7.31m9.68-56-2.61-2.6a15.85,15.85,0,0,0,1.92-3.27,11.29,11.29,0,0,0,.73-3.39,12,12,0,0,0-.19-3.5,16.6,16.6,0,0,0-1.35-3.69,3.79,3.79,0,0,1-.49-1.6,1.56,1.56,0,0,1,.51-1.08,1.48,1.48,0,0,1,1.34-.54,3.71,3.71,0,0,1,1.66,1.12l4.64,4.64v-25H127.81l4.84,4.84a2.32,2.32,0,0,1,.79,1.37,1.63,1.63,0,0,1-.58,1.26,1.61,1.61,0,0,1-1,.55,3,3,0,0,1-1.35-.43,12.63,12.63,0,0,0-7-1.58,11.75,11.75,0,0,0-6.35,2.83l-2.82-2.82,6-6H5.45v115L14,112.69l.63-.62c1.14-1.14,2.13-1.3,3-.46a1.74,1.74,0,0,1,.39,2.22l-.51,1c-.3.63,0,1.39.9,2.29l24.14,24.14c.9.91,1.67,1.2,2.29.9l1-.51A1.74,1.74,0,0,1,48,142c.84.83.68,1.82-.46,3l-.62.63-8.73,8.72H80.51a.5.5,0,0,0,0-.3,1.63,1.63,0,0,0-.53-.85L66.43,139.64a1.63,1.63,0,0,0-.85-.53.79.79,0,0,0-.31,0c-.07,0-.31.14-.7.34a1,1,0,0,1-1.28-.19.83.83,0,0,1-.25-.78,1.82,1.82,0,0,1,.57-.94l.35-.35,6-6,18.48,18.47-4.7,4.7H153.5V84.6l-5.12,5.12-.45.45a2.73,2.73,0,0,1-1.08.72.83.83,0,0,1-.85-.25,1,1,0,0,1-.1-1.39c.26-.44.41-.71.45-.79a.6.6,0,0,0,0-.36,1.56,1.56,0,0,0-.55-1l-15.9-15.91,6-6,15.9,15.91a1.61,1.61,0,0,0,1,.55.69.69,0,0,0,.37,0l.34-.19V39.05Z"/></svg>