<?xml version="1.0" encoding="UTF-8"?><svg id="Capa_1" xmlns="http://www.w3.org/2000/svg" viewBox="0 0 330 269"><path d="m168.06,76.37c-9.35-12.95-24.57-21.39-41.77-21.39-28.43,0-51.49,23.05-51.49,51.49s23.05,51.49,51.49,51.49c17.19,0,32.42-8.43,41.77-21.39-6.12-8.46-9.72-18.86-9.72-30.1s3.6-21.63,9.72-30.1Z" style="fill:#6d2e87;"/><path d="m106.98,110.91c-1.42,0-2.32-.2-2.7-.59-.39-.39-.59-1.25-.59-2.6v-2.23c0-1.34.2-2.21.59-2.6s1.29-.59,2.7-.59h14.85v-15.91c0-1.34.2-2.21.59-2.6.39-.39,1.22-.59,2.5-.59h2.44c1.34,0,2.19.2,2.54.59.35.39.53,1.25.53,2.6v15.91h15.17c1.34,0,2.23.2,2.65.59.42.39.64,1.25.64,2.6v2.23c0,1.34-.22,2.21-.64,2.6s-1.31.59-2.65.59h-15.17v15.49c0,1.34-.2,2.23-.59,2.65-.39.42-1.25.64-2.6.64h-2.23c-1.27,0-2.12-.23-2.54-.68-.42-.46-.64-1.33-.64-2.6v-15.49h-14.85,0Z" style="fill:#fff;"/><path d="m209.83,54.98c-17.19,0-32.42,8.43-41.77,21.39,6.12,8.46,9.72,18.86,9.72,30.1s-3.6,21.63-9.72,30.1c9.35,12.95,24.58,21.39,41.77,21.39,28.43,0,51.49-23.05,51.49-51.49s-23.05-51.49-51.49-51.49Z" style="fill:#d62f8a;"/><path d="m168.06,76.37c-6.12,8.46-9.72,18.86-9.72,30.1s3.6,21.63,9.72,30.1c6.12-8.46,9.72-18.86,9.72-30.1s-3.6-21.63-9.72-30.1Z" style="fill:#f17533;"/><path d="m190.52,110.91c-1.42,0-2.32-.2-2.7-.59-.39-.39-.59-1.25-.59-2.6v-2.23c0-1.34.2-2.21.59-2.6s1.29-.59,2.7-.59h14.85v-15.91c0-1.34.2-2.21.59-2.6.39-.39,1.22-.59,2.5-.59h2.44c1.34,0,2.19.2,2.54.59s.53,1.25.53,2.6v15.91h15.17c1.34,0,2.23.2,2.65.59.42.39.64,1.25.64,2.6v2.23c0,1.34-.22,2.21-.64,2.6s-1.31.59-2.65.59h-15.17v15.49c0,1.34-.2,2.23-.59,2.65-.39.42-1.25.64-2.6.64h-2.23c-1.27,0-2.12-.23-2.54-.68-.42-.46-.64-1.33-.64-2.6v-15.49h-14.85,0Z" style="fill:#fff;"/><path d="m68.68,196.58h12.14c5.84,0,7.07,3.27,7.07,5.52s-1.09,3.42-2.73,4.32c1.99.68,3.85,2.25,3.85,5.49,0,4.4-3.85,6.68-7.76,6.68h-12.57v-22h0Zm6.83,8.56h3.6c1.43,0,2.33-.4,2.33-1.82,0-1.11-.93-1.51-2.33-1.51h-3.6s0,3.33,0,3.33Zm0,8.2h4c1.43,0,2.67-.4,2.67-2.09,0-1.29-.77-2.01-2.39-2.01h-4.29s0,4.1,0,4.1Z" style="fill:#0a1e3f;"/><path d="m91.44,206.17c-.34-5.88,3.36-9.28,9.16-9.28,5.24,0,8.82,2.19,8.82,6.75,0,5.49-5.4,7.21-9.47,9.68v.03h9.77v5.23h-18.72c-.13-2.06.5-3.86,1.56-5.3,1.8-2.5,4.9-4.13,7.67-5.79,1.12-.68,2.92-1.54,2.92-3.11,0-1.94-1.14-2.62-2.61-2.62-2.49,0-3.33,1.79-3.26,4.4h-5.84,0Z" style="fill:#95b6e5;"/><path d="m112.43,196.58h12.14c5.84,0,7.07,3.27,7.07,5.52s-1.09,3.42-2.73,4.32c1.99.68,3.85,2.25,3.85,5.49,0,4.4-3.85,6.68-7.76,6.68h-12.57v-22h0Zm6.83,8.56h3.6c1.43,0,2.33-.4,2.33-1.82,0-1.11-.93-1.51-2.33-1.51h-3.6v3.33Zm0,8.2h4c1.43,0,2.67-.4,2.67-2.09,0-1.29-.77-2.01-2.39-2.01h-4.29v4.1Z" style="fill:#0a1e3f;"/><path d="m145.81,196.58h11.43c6.03,0,8.13,4.37,8.13,7.51,0,5.33-3.6,7.83-8.69,7.83h-4.03v6.65h-6.83v-22h0Zm6.83,10.11h2.64c1.77,0,3.63-.13,3.63-2.34,0-2.01-1.56-2.12-3.23-2.12h-3.04v4.47h0Z" style="fill:#0a1e3f;"/><path d="m175.67,218.99c-6.06,0-8.79-3.97-8.79-8.41s2.73-8.39,8.79-8.39,8.79,3.94,8.79,8.39-2.73,8.41-8.79,8.41Zm0-12.36c-2.33,0-2.64,2.25-2.64,3.94s.31,3.97,2.64,3.97,2.64-2.28,2.64-3.97-.31-3.94-2.64-3.94Z" style="fill:#0a1e3f;"/><path d="m193.4,200.87h-6.14v-4.29h6.14v4.29Zm-6.14,1.72h6.14v15.99h-6.14v-15.99Z" style="fill:#0a1e3f;"/><path d="m196.9,202.6h5.93v2.04h.06c1.14-1.6,2.8-2.44,5.24-2.44,2.89,0,5.53,1.76,5.53,5.42v10.97h-6.14v-8.39c0-1.85-.22-3.14-2.02-3.14-1.06,0-2.46.53-2.46,3.08v8.44h-6.14v-15.99h0Z" style="fill:#0a1e3f;"/><path d="m224.42,202.6h3.29v3.76h-3.29v5.58c0,1.48.34,2.12,1.9,2.12.47,0,.93-.03,1.4-.09v4.62c-1.24,0-2.64.19-3.94.19-2.61,0-5.5-.4-5.5-4.77v-7.64h-2.73v-3.76h2.73v-4.87h6.14v4.87Z" style="fill:#0a1e3f;"/><path d="m238.98,207.25c-.03-.53-.31-.92-.71-1.2-.37-.3-.87-.46-1.37-.46-.87,0-1.86.19-1.86,1.23,0,.46.37.68.71.83,1.03.43,3.36.56,5.4,1.23,2.05.65,3.85,1.85,3.85,4.47,0,4.43-4.29,5.64-8.2,5.64s-7.95-1.51-8.04-5.64h5.87c.03.56.28,1.02.74,1.42.31.27.9.46,1.64.46.8,0,2.08-.3,2.08-1.23s-.53-1.2-3.39-1.69c-4.69-.8-6.59-2.28-6.59-5.02,0-4.04,4.37-5.09,7.6-5.09,3.47,0,7.67.96,7.83,5.05h-5.59,0Z" style="fill:#0a1e3f;"/></svg>