<svg xmlns="http://www.w3.org/2000/svg" xmlns:xlink="http://www.w3.org/1999/xlink" viewBox="0 0 330 269"><defs><style>.cls-1{fill:#0a1e3f;}.cls-2{fill:#8bb8e8;}.cls-3{isolation:isolate;}.cls-4{fill:#d62f8a;}.cls-5{fill:#96c061;}.cls-6{fill:#f17533;}</style><symbol id="Blue" data-name="Blue" viewBox="0 0 203.91 54.48"><path class="cls-1" d="M0,1.18H30.36Q38,1.18,42,4.94a12.17,12.17,0,0,1,4.06,9.29,11.79,11.79,0,0,1-2.89,8,12.76,12.76,0,0,1-5.65,3.5q5.64,1.37,8.29,4.66a12.83,12.83,0,0,1,2.66,8.3A14.28,14.28,0,0,1,46.59,46a14,14,0,0,1-5.2,5.14,17.23,17.23,0,0,1-6.14,1.7,70.72,70.72,0,0,1-7.27.72H0ZM16.32,21.77h7.09q3.82,0,5.32-1.3a4.75,4.75,0,0,0,1.5-3.78,4.43,4.43,0,0,0-1.5-3.57q-1.5-1.29-5.21-1.29h-7.2Zm0,20.51h8.29c2.79,0,4.77-.49,5.91-1.48a4.94,4.94,0,0,0,1.73-4,4.59,4.59,0,0,0-1.7-3.72c-1.15-.93-3.13-1.41-6-1.41H16.32Z"/><path class="cls-2" d="M49.6,1.18H65.76V40.65H91v12.9H49.6Z"/><path class="cls-2" d="M125.07,1.18h16.16V32.4a26.16,26.16,0,0,1-1.45,8.77,18.61,18.61,0,0,1-4.54,7.21,17.91,17.91,0,0,1-6.49,4.35,32.64,32.64,0,0,1-11.34,1.75,70.91,70.91,0,0,1-8.36-.54,22,22,0,0,1-7.57-2.12,19.06,19.06,0,0,1-5.56-4.52,16.56,16.56,0,0,1-3.46-6A31.57,31.57,0,0,1,91,32.4V1.18h16.15v32a9.12,9.12,0,0,0,2.39,6.7,10.28,10.28,0,0,0,13.18,0,9.1,9.1,0,0,0,2.38-6.74Z"/><path class="cls-2" d="M161.4,31.15c.5,5.79,3.86,9.92,10,9.92,3.17,0,6.63-1.18,8.22-3.63h18.31c-4,11-14.75,16.11-26.43,16.11-16.44,0-28.81-9.63-28.81-26.63C142.69,12.09,153.58,0,169.82,0,190.21,0,199,11.3,199,31.15ZM180.21,21a8.4,8.4,0,0,0-8.61-8.55c-5.84,0-9.21,3-10.1,8.55Z"/><path class="cls-1" d="M203.91,6a4.45,4.45,0,1,1-4.41-4.33A4.36,4.36,0,0,1,203.91,6Zm-7.78,0a3.36,3.36,0,0,0,3.37,3.45A3.31,3.31,0,0,0,202.8,6a3.34,3.34,0,1,0-6.67,0Zm2.66,2.24h-1V3.87a12.12,12.12,0,0,1,1.66-.13,2.32,2.32,0,0,1,1.48.34,1.12,1.12,0,0,1,.45.93,1.11,1.11,0,0,1-.9,1v.06c.42.13.63.47.76,1a4.18,4.18,0,0,0,.32,1.06h-1.05a3.41,3.41,0,0,1-.35-1.06c-.08-.44-.34-.66-.89-.66h-.48Zm0-2.43h.47c.55,0,1-.19,1-.63s-.29-.66-.92-.66a2.2,2.2,0,0,0-.55,0Z"/></symbol></defs><g id="Capa_1" data-name="Capa 1"><path class="cls-1" d="M172.52,214.23a8.36,8.36,0,0,1-6.78,3c-7.06,0-11.4-5.44-11.4-12.17,0-9,6.38-12.64,11.77-12.64,6.08,0,9.93,3.28,11,8.85h-7a3.49,3.49,0,0,0-3.48-2.95c-5,0-4.88,5.28-4.88,6.9,0,2.22.91,6.11,5.39,6.11a3.65,3.65,0,0,0,3.81-2.63h-3.25v-5.07h9.77v13h-4.65Z"/><path class="cls-1" d="M180.11,199.44h6.35v2.75h.07c1.07-2.05,2.47-3.18,4.88-3.18a7.89,7.89,0,0,1,1.94.26v5.81a6.79,6.79,0,0,0-2.61-.43c-2.61,0-4,1.52-4,5.21v6.8h-6.62Z"/><path class="cls-1" d="M203.07,217.09c-6.52,0-9.46-4.28-9.46-9.06s2.94-9,9.46-9,9.46,4.24,9.46,9S209.59,217.09,203.07,217.09Zm0-13.3c-2.51,0-2.84,2.42-2.84,4.24s.33,4.28,2.84,4.28,2.84-2.45,2.84-4.28S205.58,203.79,203.07,203.79Z"/><path class="cls-1" d="M231.78,216.66H225.4v-2.19h-.07a6.38,6.38,0,0,1-5.65,2.62c-3.11,0-6-1.89-6-5.84V199.44h6.62v9c0,2,.24,3.39,2.17,3.39,1.14,0,2.65-.57,2.65-3.32v-9.09h6.61Z"/><path class="cls-1" d="M233.72,199.44h6.38v1.89h.07c.84-1.09,1.84-2.32,5.08-2.32,4.92,0,7.29,4.81,7.29,9.12,0,4.05-1.57,9-7.39,9a5.69,5.69,0,0,1-4.74-2.32h-.07v7.46h-6.62ZM243,212.31c2.38,0,2.91-2.22,2.91-4.25s-.53-4.27-2.91-4.27-2.91,2.22-2.91,4.27S240.64,212.31,243,212.31Z"/><path class="cls-1" d="M263.74,204.45a1.7,1.7,0,0,0-.77-1.3,2.33,2.33,0,0,0-1.47-.49c-.94,0-2,.2-2,1.32,0,.5.4.73.77.9,1.1.46,3.61.6,5.82,1.33s4.14,2,4.14,4.81c0,4.77-4.61,6.07-8.82,6.07s-8.56-1.63-8.66-6.07h6.32a2.1,2.1,0,0,0,.8,1.52,2.73,2.73,0,0,0,1.77.5c.87,0,2.24-.33,2.24-1.33s-.57-1.29-3.64-1.82c-5.05-.86-7.09-2.46-7.09-5.41,0-4.34,4.71-5.47,8.19-5.47,3.74,0,8.26,1,8.42,5.44Z"/><use width="203.91" height="54.48" transform="translate(58.08 192.74) scale(0.44)" xlink:href="#Blue"/></g><g id="Objects"><g id="g6829" class="cls-3"><g id="path6680"><path class="cls-4" d="M183.58,149.56H146.42a1.74,1.74,0,0,1-1.74-1.74c0-15.65,1.87-24,12.5-29.4a11,11,0,1,1,15.65,0c10.62,5.35,12.49,13.75,12.49,29.4A1.74,1.74,0,0,1,183.58,149.56Zm-35.41-3.48h33.66c-.17-15-2.68-20.6-10.64-24.58a1.75,1.75,0,0,1-.92-1.16,11.47,11.47,0,0,1-10.54,0,1.72,1.72,0,0,1-.92,1.16C150.85,125.48,148.34,131.11,148.17,146.08Zm16.83-43a7.55,7.55,0,1,0,7.55,7.55A7.56,7.56,0,0,0,165,103.1Z"/></g><g id="path6682"><path class="cls-5" d="M139.45,149.56H111.58a1.74,1.74,0,0,1-1.74-1.74c0-15.65,1.87-24,12.5-29.4a11,11,0,1,1,15.64,0,21.69,21.69,0,0,1,7,5.29,1.75,1.75,0,0,1-2.67,2.25,18.28,18.28,0,0,0-6-4.46,1.75,1.75,0,0,1-.92-1.16,11.47,11.47,0,0,1-10.54,0,1.75,1.75,0,0,1-.92,1.16c-8,4-10.47,9.61-10.64,24.58h26.12a1.74,1.74,0,1,1,0,3.48Zm-9.29-46.46a7.55,7.55,0,1,0,7.55,7.55A7.56,7.56,0,0,0,130.16,103.1Z"/></g><g id="path6684"><path class="cls-6" d="M218.42,149.56H190.55a1.74,1.74,0,0,1,0-3.48h26.12c-.17-15-2.68-20.6-10.64-24.58a1.75,1.75,0,0,1-.92-1.16,11.47,11.47,0,0,1-10.54,0,1.72,1.72,0,0,1-.92,1.16,18.28,18.28,0,0,0-6,4.46,1.74,1.74,0,0,1-2.66-2.25,21.64,21.64,0,0,1,7-5.29,11,11,0,1,1,15.65,0c10.63,5.35,12.49,13.75,12.49,29.4A1.74,1.74,0,0,1,218.42,149.56ZM199.84,103.1a7.55,7.55,0,1,0,7.55,7.55A7.56,7.56,0,0,0,199.84,103.1Z"/></g><g id="path6686"><path class="cls-2" d="M165,91.49a1.78,1.78,0,0,1-.78-.18C153.83,86.11,139.92,73,141.54,60c.66-5.28,5.15-11.52,10.78-12.38a13.57,13.57,0,0,1,2-.15A12.79,12.79,0,0,1,165,52.85a12.79,12.79,0,0,1,10.65-5.34,13.57,13.57,0,0,1,2,.15c5.64.86,10.13,7.1,10.78,12.38,1.62,12.93-12.29,26.07-22.68,31.27A1.75,1.75,0,0,1,165,91.49ZM154.35,51a9.51,9.51,0,0,0-1.51.12c-3.89.59-7.35,5.43-7.85,9.36-1.34,10.81,10.87,22.45,20,27.32,9.14-4.87,21.36-16.51,20-27.32-.49-3.93-3.95-8.77-7.85-9.36a9.42,9.42,0,0,0-1.51-.12c-3.38,0-7.75,1.73-9,6.58a1.74,1.74,0,0,1-3.38,0C162.1,52.72,157.73,51,154.35,51Z"/></g><g id="path6731"><path class="cls-1" d="M195.2,91.49a1.75,1.75,0,0,1-.78-.18,51.36,51.36,0,0,1-10.54-7.25,1.74,1.74,0,1,1,2.3-2.62,48.86,48.86,0,0,0,9,6.35c9.13-4.87,21.35-16.51,20-27.32-.49-3.93-3.94-8.77-7.85-9.36-4.22-.63-9.19,1.36-10.46,6.46a1.76,1.76,0,0,1-1.69,1.32h0a1.74,1.74,0,0,1-1.69-1.32,8.24,8.24,0,0,0-4.23-5.44,1.74,1.74,0,0,1,1.62-3.08,11.59,11.59,0,0,1,4.29,3.82c2.85-4.27,8.09-5.91,12.69-5.21,5.63.86,10.12,7.1,10.78,12.38C220.27,73,206.37,86.11,196,91.31A1.81,1.81,0,0,1,195.2,91.49Z"/></g><g id="path6690"><path class="cls-1" d="M134.8,91.49a1.74,1.74,0,0,1-.77-.18C123.64,86.11,109.73,73,111.34,60c.66-5.28,5.16-11.52,10.78-12.38,4.6-.7,9.84.94,12.69,5.2a11.73,11.73,0,0,1,4.29-3.81,1.74,1.74,0,1,1,1.63,3.08,8.24,8.24,0,0,0-4.23,5.44,1.76,1.76,0,0,1-1.7,1.32,1.74,1.74,0,0,1-1.68-1.32c-1.28-5.1-6.24-7.09-10.47-6.46-3.9.59-7.36,5.43-7.85,9.36-1.35,10.82,10.87,22.45,20,27.32a48.2,48.2,0,0,0,9-6.35,1.75,1.75,0,0,1,2.31,2.62,51.15,51.15,0,0,1-10.55,7.25A1.75,1.75,0,0,1,134.8,91.49Z"/></g></g></g></svg>