<svg xmlns="http://www.w3.org/2000/svg" xmlns:xlink="http://www.w3.org/1999/xlink" viewBox="0 0 330 269"><defs><style>.cls-1{fill:#0a1e3f;}.cls-2{fill:#8bb8e8;}.cls-3{fill:#d62f8a;}.cls-4{fill:#f17533;}.cls-5{fill:#96c061;}</style><symbol id="Blue" data-name="Blue" viewBox="0 0 203.91 54.48"><path class="cls-1" d="M0,1.18H30.36Q38,1.18,42,4.94a12.17,12.17,0,0,1,4.06,9.29,11.79,11.79,0,0,1-2.89,8,12.76,12.76,0,0,1-5.65,3.5q5.64,1.37,8.29,4.66a12.83,12.83,0,0,1,2.66,8.3A14.28,14.28,0,0,1,46.59,46a14,14,0,0,1-5.2,5.14,17.23,17.23,0,0,1-6.14,1.7,70.72,70.72,0,0,1-7.27.72H0ZM16.32,21.77h7.09q3.82,0,5.32-1.3a4.75,4.75,0,0,0,1.5-3.78,4.43,4.43,0,0,0-1.5-3.57q-1.5-1.29-5.21-1.29h-7.2Zm0,20.51h8.29c2.79,0,4.77-.49,5.91-1.48a4.94,4.94,0,0,0,1.73-4,4.59,4.59,0,0,0-1.7-3.72c-1.15-.93-3.13-1.41-6-1.41H16.32Z"/><path class="cls-2" d="M49.6,1.18H65.76V40.65H91v12.9H49.6Z"/><path class="cls-2" d="M125.07,1.18h16.16V32.4a26.16,26.16,0,0,1-1.45,8.77,18.61,18.61,0,0,1-4.54,7.21,17.91,17.91,0,0,1-6.49,4.35,32.64,32.64,0,0,1-11.34,1.75,70.91,70.91,0,0,1-8.36-.54,22,22,0,0,1-7.57-2.12,19.06,19.06,0,0,1-5.56-4.52,16.56,16.56,0,0,1-3.46-6A31.57,31.57,0,0,1,91,32.4V1.18h16.15v32a9.12,9.12,0,0,0,2.39,6.7,10.28,10.28,0,0,0,13.18,0,9.1,9.1,0,0,0,2.38-6.74Z"/><path class="cls-2" d="M161.4,31.15c.5,5.79,3.86,9.92,10,9.92,3.17,0,6.63-1.18,8.22-3.63h18.31c-4,11-14.75,16.11-26.43,16.11-16.44,0-28.81-9.63-28.81-26.63C142.69,12.09,153.58,0,169.82,0,190.21,0,199,11.3,199,31.15ZM180.21,21a8.4,8.4,0,0,0-8.61-8.55c-5.84,0-9.21,3-10.1,8.55Z"/><path class="cls-1" d="M203.91,6a4.45,4.45,0,1,1-4.41-4.33A4.36,4.36,0,0,1,203.91,6Zm-7.78,0a3.36,3.36,0,0,0,3.37,3.45A3.31,3.31,0,0,0,202.8,6a3.34,3.34,0,1,0-6.67,0Zm2.66,2.24h-1V3.87a12.12,12.12,0,0,1,1.66-.13,2.32,2.32,0,0,1,1.48.34,1.12,1.12,0,0,1,.45.93,1.11,1.11,0,0,1-.9,1v.06c.42.13.63.47.76,1a4.18,4.18,0,0,0,.32,1.06h-1.05a3.41,3.41,0,0,1-.35-1.06c-.08-.44-.34-.66-.89-.66h-.48Zm0-2.43h.47c.55,0,1-.19,1-.63s-.29-.66-.92-.66a2.2,2.2,0,0,0-.55,0Z"/></symbol></defs><g id="Capa_1" data-name="Capa 1"><path class="cls-1" d="M138,199h-6.69V193H152V199h-6.69v17.62H138Z"/><path class="cls-1" d="M154.82,209.52c.17,2,1.31,3.35,3.38,3.35a3.34,3.34,0,0,0,2.78-1.22h6.18c-1.34,3.71-5,5.44-8.93,5.44-5.54,0-9.72-3.25-9.72-9a8.87,8.87,0,0,1,9.16-9.09c6.88,0,9.86,3.81,9.86,10.51Zm6.36-3.41a2.84,2.84,0,0,0-2.91-2.89,3.13,3.13,0,0,0-3.41,2.89Z"/><path class="cls-1" d="M168.59,199.44H175v2.29h.07a6.27,6.27,0,0,1,5.68-2.72,5.16,5.16,0,0,1,4.68,2.69c.27-.2,1.61-2.69,5.92-2.69s5.95,3.05,5.95,5.84v11.81h-6.62v-9.33c0-1.62-.17-3.08-2.17-3.08-1.68,0-2.24,1.29-2.24,3.08v9.33h-6.62v-9.33c0-1.62-.17-3.08-2.18-3.08-1.67,0-2.24,1.29-2.24,3.08v9.33h-6.62Z"/><path class="cls-1" d="M199.14,199.44h6.39v1.89h.07c.83-1.09,1.84-2.32,5.08-2.32,4.91,0,7.29,4.81,7.29,9.12,0,4.05-1.57,9-7.39,9a5.69,5.69,0,0,1-4.75-2.32h-.07v7.46h-6.62Zm9.3,12.87c2.37,0,2.91-2.22,2.91-4.25s-.54-4.27-2.91-4.27-2.91,2.22-2.91,4.27S206.06,212.31,208.44,212.31Z"/><path class="cls-1" d="M219.27,193h6.62v23.69h-6.62Z"/><path class="cls-1" d="M244.9,212.81a6.9,6.9,0,0,0,.81,3.85H239a4.84,4.84,0,0,1-.23-1.63h-.07a7.07,7.07,0,0,1-5.58,2.06c-3.34,0-6.12-1.59-6.12-5.21,0-5.44,6.42-5.24,9.8-5.87.9-.17,1.8-.43,1.8-1.53s-1.1-1.59-2.17-1.59c-2,0-2.44,1-2.47,1.76h-6.16a5,5,0,0,1,3-4.65,14.47,14.47,0,0,1,5.92-1c8.29,0,8.22,3.41,8.22,6.73Zm-6.35-3.88a11.21,11.21,0,0,1-2.61.83c-1.47.33-2.23.69-2.23,1.85a1.9,1.9,0,0,0,2.07,1.6,2.62,2.62,0,0,0,2.77-2.69Z"/><path class="cls-1" d="M254.7,199.44h3.54v4.05H254.7v6c0,1.59.36,2.29,2,2.29a10.8,10.8,0,0,0,1.5-.1v5c-1.34,0-2.84.2-4.25.2-2.8,0-5.91-.44-5.91-5.15v-8.22h-3v-4.05h3V194.2h6.62Z"/><path class="cls-1" d="M264.26,209.52c.16,2,1.3,3.35,3.37,3.35a3.34,3.34,0,0,0,2.78-1.22h6.18c-1.34,3.71-5,5.44-8.92,5.44-5.55,0-9.73-3.25-9.73-9A8.87,8.87,0,0,1,267.1,199c6.88,0,9.86,3.81,9.86,10.51Zm6.35-3.41a2.84,2.84,0,0,0-2.91-2.89,3.13,3.13,0,0,0-3.41,2.89Z"/><path class="cls-1" d="M288.09,204.45a1.7,1.7,0,0,0-.77-1.3,2.33,2.33,0,0,0-1.47-.49c-.94,0-2,.2-2,1.32,0,.5.4.73.77.9,1.1.46,3.61.6,5.82,1.33s4.14,2,4.14,4.81c0,4.77-4.61,6.07-8.82,6.07s-8.56-1.63-8.66-6.07h6.32a2.1,2.1,0,0,0,.8,1.52,2.73,2.73,0,0,0,1.77.5c.87,0,2.24-.33,2.24-1.33s-.57-1.29-3.64-1.82c-5.05-.86-7.09-2.46-7.09-5.41,0-4.34,4.71-5.47,8.19-5.47,3.74,0,8.26,1,8.42,5.44Z"/><use width="203.91" height="54.48" transform="translate(35.43 192.74) scale(0.44)" xlink:href="#Blue"/></g><g id="Objects"><rect class="cls-3" x="73.68" y="56.5" width="56.26" height="84.08"/><rect class="cls-4" x="136.87" y="56.5" width="56.26" height="84.08"/><rect class="cls-5" x="200.07" y="56.5" width="56.26" height="84.08"/></g></svg>