<?xml version="1.0" encoding="utf-8"?>
<!-- Generator: Adobe Illustrator 26.1.0, SVG Export Plug-In . SVG Version: 6.00 Build 0)  -->
<svg version="1.1" id="Capa_1" xmlns="http://www.w3.org/2000/svg" xmlns:xlink="http://www.w3.org/1999/xlink" x="0px" y="0px"
	 viewBox="0 0 330 269" style="enable-background:new 0 0 330 269;" xml:space="preserve">
<style type="text/css">
	.st0{fill:#0A1E3F;}
	.st1{fill:#95B6E5;}
	.st2{fill:#96C061;}
	.st3{fill:#FFFFFF;stroke:#F17533;stroke-width:2;stroke-linecap:round;stroke-linejoin:round;stroke-miterlimit:10;}
</style>
<symbol  id="Blue_2" viewBox="-102 -27.2 204 54.5">
	<g>
		<path class="st0" d="M-102,26.1h30.4c5.1,0,8.9-1.3,11.7-3.8c2.7-2.5,4.1-5.6,4.1-9.3c0-3.1-1-5.8-2.9-8c-1.3-1.5-3.2-2.7-5.6-3.5
			c3.8-0.9,6.5-2.5,8.3-4.7s2.7-5,2.7-8.3c0-2.7-0.6-5.2-1.9-7.3c-1.3-2.2-3-3.9-5.2-5.1c-1.4-0.8-3.4-1.4-6.1-1.7
			c-3.7-0.5-6.1-0.7-7.3-0.7h-28v52.4H-102z M-85.6,5.5h7.1c2.5,0,4.3,0.4,5.3,1.3s1.5,2.1,1.5,3.8c0,1.5-0.5,2.7-1.5,3.6
			c-1,0.9-2.7,1.3-5.2,1.3h-7.2C-85.6,15.6-85.6,5.5-85.6,5.5z M-85.6-15h8.3c2.8,0,4.8,0.5,5.9,1.5c1.2,1,1.7,2.3,1.7,4
			c0,1.5-0.6,2.8-1.7,3.7s-3.1,1.4-6,1.4h-8.3L-85.6-15L-85.6-15z"/>
		<path class="st1" d="M-52.3,26.1h16.2v-39.5h25.3v-12.9h-41.4L-52.3,26.1L-52.3,26.1z"/>
		<path class="st1" d="M23.1,26.1h16.2V-5.2c0-3.1-0.5-6-1.4-8.8c-1-2.8-2.5-5.2-4.5-7.2c-2.1-2.1-4.2-3.5-6.5-4.3
			c-3.1-1.2-6.9-1.8-11.3-1.8c-2.6,0-5.3,0.2-8.4,0.5c-3,0.3-5.5,1.1-7.6,2.1c-2,1.1-3.9,2.6-5.6,4.5s-2.8,4-3.5,6
			c-1,3.3-1.5,6.3-1.5,8.9V26H5.2V-6c0-2.9,0.8-5.1,2.4-6.7s3.8-2.4,6.6-2.4s5,0.8,6.6,2.4c1.6,1.6,2.4,3.8,2.4,6.7L23.1,26.1
			L23.1,26.1z"/>
		<g>
			<path class="st1" d="M59.4-3.9c0.5-5.8,3.9-9.9,10-9.9c3.2,0,6.6,1.2,8.2,3.6H96c-4-11-14.8-16.1-26.4-16.1
				c-16.4,0-28.8,9.6-28.8,26.6c0,14.8,10.9,26.9,27.1,26.9c20.4,0,29.2-11.3,29.2-31.1C97.1-3.9,59.4-3.9,59.4-3.9z M78.3,6.2
				c0,4.7-3.6,8.5-8.6,8.5c-5.8,0-9.2-3-10.1-8.5H78.3z"/>
		</g>
	</g>
	<g>
		<path class="st0" d="M102,21.3c0-2.4-2-4.4-4.4-4.4c-2.5,0-4.5,1.9-4.5,4.4c0,2.4,2,4.3,4.5,4.3C100,25.6,102,23.8,102,21.3z
			 M94.2,21.3c0-1.9,1.5-3.5,3.4-3.5s3.3,1.5,3.3,3.4s-1.4,3.5-3.4,3.5C95.6,24.8,94.2,23.2,94.2,21.3z M96.8,19h-1v4.3
			c0.4,0.1,1,0.1,1.7,0.1c0.8,0,1.2-0.1,1.5-0.3c0.3-0.2,0.4-0.5,0.4-0.9c0-0.5-0.4-0.9-0.9-1v-0.1c0.4-0.1,0.6-0.5,0.8-1.1
			c0.1-0.7,0.2-0.9,0.3-1.1h-1.1c-0.1,0.2-0.2,0.5-0.3,1.1c-0.1,0.4-0.3,0.7-0.9,0.7h-0.5V19z M96.9,21.5h0.5c0.5,0,1,0.2,1,0.6
			s-0.3,0.7-0.9,0.7c-0.3,0-0.4,0-0.6-0.1V21.5z"/>
	</g>
</symbol>
<path class="st2" d="M199.1,50.8h-68.7c-2.3,0-4.1,1.9-4.1,4.2l0,0v90.5c0,2.3,1.9,4.1,4.1,4.1h68.7c2.3,0,4.1-1.9,4.1-4.1V55
	C203.2,52.7,201.4,50.9,199.1,50.8L199.1,50.8z M197.4,140.9c0,2.3-1.9,4.1-4.1,4.1h-57c-2.3,0-4.1-1.9-4.1-4.1V60.8
	c0-2.3,1.8-4.1,4.1-4.1h57c2.3,0,4.1,1.9,4.1,4.1V140.9z"/>
<path class="st2" d="M154.2,47.1h21.1c2.3,0,4.1,1.8,4.1,4.1v5.4c0,2.3-1.8,4.1-4.1,4.1h-21.1c-2.3,0-4.1-1.8-4.1-4.1v-5.4
	C150.1,49,151.9,47.1,154.2,47.1z"/>
<path class="st2" d="M139.3,78.1h50.8c1.7,0,3.1,1.4,3.1,3.1l0,0c0,1.7-1.4,3.1-3.1,3.1h-50.8c-1.7,0-3.1-1.4-3.1-3.1l0,0
	C136.2,79.5,137.6,78.1,139.3,78.1z"/>
<path class="st2" d="M139.3,90.6h50.8c1.7,0,3.1,1.4,3.1,3.1l0,0c0,1.7-1.4,3.1-3.1,3.1h-50.8c-1.7,0-3.1-1.4-3.1-3.1l0,0
	C136.2,92,137.6,90.6,139.3,90.6z"/>
<path class="st2" d="M139.3,103h50.8c1.7,0,3.1,1.4,3.1,3.1l0,0c0,1.7-1.4,3.1-3.1,3.1h-50.8c-1.7,0-3.1-1.4-3.1-3.1l0,0
	C136.2,104.4,137.6,103,139.3,103z"/>
<path class="st2" d="M139.3,115.5h50.8c1.7,0,3.1,1.4,3.1,3.1l0,0c0,1.7-1.4,3.1-3.1,3.1h-50.8c-1.7,0-3.1-1.4-3.1-3.1l0,0
	C136.2,116.9,137.6,115.5,139.3,115.5z"/>
<g>
	<g>
		<path class="st0" d="M156.2,208.7c0,0.6,0.1,1.1,0.3,1.6c0.5,1.4,2.1,1.7,3.5,1.7c1.2,0,3-0.4,3-2.2c0-1.2-1-1.6-5.1-2.7
			c-3.8-1.1-8.1-2.1-8.1-6.9c0-5.5,4.7-7.8,9.6-7.8c5.2,0,9.8,2,10,7.7h-7c0.1-0.9-0.3-1.5-0.9-1.9c-0.6-0.4-1.4-0.6-2.2-0.6
			c-1,0-2.6,0.3-2.6,1.6c0.1,1.7,3.5,2.1,6.9,3s6.7,2.5,6.7,6.8c0,6.2-5.7,8.2-11,8.2c-2.7,0-10.4-1-10.5-8.5L156.2,208.7
			L156.2,208.7z"/>
		<path class="st0" d="M188.9,216.7h-6.4v-2.2h-0.1c-1.2,1.7-3,2.6-5.7,2.6c-3.1,0-6-1.9-6-5.8v-11.8h6.6v9c0,2,0.2,3.4,2.2,3.4
			c1.1,0,2.6-0.6,2.6-3.3v-9.1h6.6v17.2H188.9z"/>
		<path class="st0" d="M190.9,199.4h6.4v2.8h0.1c1.1-2.1,2.5-3.2,4.9-3.2c0.7,0,1.3,0.1,1.9,0.3v5.8c-0.7-0.2-1.3-0.4-2.6-0.4
			c-2.6,0-4,1.5-4,5.2v6.8H191L190.9,199.4L190.9,199.4z"/>
		<path class="st0" d="M218.2,216.7h-7.8l-5.7-17.2h7l2.7,10.5h0.1l2.7-10.5h6.8L218.2,216.7z"/>
		<path class="st0" d="M229.4,209.5c0.2,2,1.3,3.4,3.4,3.4c1.1,0,2.2-0.4,2.8-1.2h6.2c-1.3,3.7-5,5.4-8.9,5.4c-5.5,0-9.7-3.3-9.7-9
			c0-5,3.7-9.1,9.2-9.1c6.9,0,9.9,3.8,9.9,10.5L229.4,209.5L229.4,209.5z M235.7,206.1c0-1.6-1.2-2.9-2.9-2.9c-2,0-3.1,1-3.4,2.9
			H235.7z"/>
		<path class="st0" d="M254.7,215.3c-0.5,1.5-1.1,3.5-2.2,4.8c-1.7,2.2-4.4,2.1-7,2.1h-3V217h1.5c0.7,0,1.5,0.1,2-0.2
			c0.4-0.2,0.6-0.5,0.6-1.3s-2.5-7.2-2.9-8.2l-2.9-7.9h7.1l2.8,9.9h0.1l2.8-9.9h6.9L254.7,215.3z"/>
		<path class="st0" d="M270.1,204.4c0-0.6-0.3-1-0.8-1.3c-0.4-0.3-0.9-0.5-1.5-0.5c-0.9,0-2,0.2-2,1.3c0,0.5,0.4,0.7,0.8,0.9
			c1.1,0.5,3.6,0.6,5.8,1.3c2.2,0.7,4.1,2,4.1,4.8c0,4.8-4.6,6.1-8.8,6.1c-4.1,0-8.6-1.6-8.7-6.1h6.3c0,0.6,0.3,1.1,0.8,1.5
			c0.3,0.3,1,0.5,1.8,0.5c0.9,0,2.2-0.3,2.2-1.3s-0.6-1.3-3.6-1.8c-5-0.9-7.1-2.5-7.1-5.4c0-4.3,4.7-5.5,8.2-5.5
			c3.7,0,8.3,1,8.4,5.4h-5.9V204.4z"/>
	</g>
	<g>
		<defs>
			<rect id="SVGID_1_" x="53.4" y="192.7" width="90.5" height="24.2"/>
		</defs>
		<clipPath id="SVGID_00000109007450169940883540000005512719257217992372_">
			<use xlink:href="#SVGID_1_"  style="overflow:visible;"/>
		</clipPath>
		<g style="clip-path:url(#SVGID_00000109007450169940883540000005512719257217992372_);">
			
				<use xlink:href="#Blue_2"  width="204" height="54.5" x="-102" y="-27.2" transform="matrix(0.4438 0 0 -0.4438 98.6374 204.8422)" style="overflow:visible;"/>
		</g>
	</g>
</g>
<g>
	<g>
		<polygon class="st3" points="222.4,124.5 195.6,110.7 195.6,110.8 198.7,140.7 206.4,133.3 213.9,144.2 220,140 212.6,129 		"/>
	</g>
</g>
</svg>
