<svg xmlns="http://www.w3.org/2000/svg" xmlns:xlink="http://www.w3.org/1999/xlink" viewBox="0 0 330 269"><defs><style>.cls-1{fill:#0a1e3f;}.cls-2{fill:#8bb8e8;}.cls-3{fill:#f17533;}</style><symbol id="Blue" data-name="Blue" viewBox="0 0 203.91 54.48"><path class="cls-1" d="M0,1.18H30.36Q38,1.18,42,4.94a12.17,12.17,0,0,1,4.06,9.29,11.79,11.79,0,0,1-2.89,8,12.76,12.76,0,0,1-5.65,3.5q5.64,1.37,8.29,4.66a12.83,12.83,0,0,1,2.66,8.3A14.28,14.28,0,0,1,46.59,46a14,14,0,0,1-5.2,5.14,17.23,17.23,0,0,1-6.14,1.7,70.72,70.72,0,0,1-7.27.72H0ZM16.32,21.77h7.09q3.82,0,5.32-1.3a4.75,4.75,0,0,0,1.5-3.78,4.43,4.43,0,0,0-1.5-3.57q-1.5-1.29-5.21-1.29h-7.2Zm0,20.51h8.29c2.79,0,4.77-.49,5.91-1.48a4.94,4.94,0,0,0,1.73-4,4.59,4.59,0,0,0-1.7-3.72c-1.15-.93-3.13-1.41-6-1.41H16.32Z"/><path class="cls-2" d="M49.6,1.18H65.76V40.65H91v12.9H49.6Z"/><path class="cls-2" d="M125.07,1.18h16.16V32.4a26.16,26.16,0,0,1-1.45,8.77,18.61,18.61,0,0,1-4.54,7.21,17.91,17.91,0,0,1-6.49,4.35,32.64,32.64,0,0,1-11.34,1.75,70.91,70.91,0,0,1-8.36-.54,22,22,0,0,1-7.57-2.12,19.06,19.06,0,0,1-5.56-4.52,16.56,16.56,0,0,1-3.46-6A31.57,31.57,0,0,1,91,32.4V1.18h16.15v32a9.12,9.12,0,0,0,2.39,6.7,10.28,10.28,0,0,0,13.18,0,9.1,9.1,0,0,0,2.38-6.74Z"/><path class="cls-2" d="M161.4,31.15c.5,5.79,3.86,9.92,10,9.92,3.17,0,6.63-1.18,8.22-3.63h18.31c-4,11-14.75,16.11-26.43,16.11-16.44,0-28.81-9.63-28.81-26.63C142.69,12.09,153.58,0,169.82,0,190.21,0,199,11.3,199,31.15ZM180.21,21a8.4,8.4,0,0,0-8.61-8.55c-5.84,0-9.21,3-10.1,8.55Z"/><path class="cls-1" d="M203.91,6a4.45,4.45,0,1,1-4.41-4.33A4.36,4.36,0,0,1,203.91,6Zm-7.78,0a3.36,3.36,0,0,0,3.37,3.45A3.31,3.31,0,0,0,202.8,6a3.34,3.34,0,1,0-6.67,0Zm2.66,2.24h-1V3.87a12.12,12.12,0,0,1,1.66-.13,2.32,2.32,0,0,1,1.48.34,1.12,1.12,0,0,1,.45.93,1.11,1.11,0,0,1-.9,1v.06c.42.13.63.47.76,1a4.18,4.18,0,0,0,.32,1.06h-1.05a3.41,3.41,0,0,1-.35-1.06c-.08-.44-.34-.66-.89-.66h-.48Zm0-2.43h.47c.55,0,1-.19,1-.63s-.29-.66-.92-.66a2.2,2.2,0,0,0-.55,0Z"/></symbol></defs><g id="Capa_1" data-name="Capa 1"><path class="cls-1" d="M152.8,199.17h-6.68V193.1h20.72v6.07h-6.68v17.62H152.8Z"/><path class="cls-1" d="M164.7,199.57h6.35v2.76h.07c1.07-2.06,2.47-3.19,4.88-3.19a7.45,7.45,0,0,1,1.94.27v5.8a6.79,6.79,0,0,0-2.61-.43c-2.61,0-4,1.53-4,5.21v6.8H164.7Z"/><path class="cls-1" d="M195.62,212.94a7,7,0,0,0,.8,3.85h-6.75a4.38,4.38,0,0,1-.23-1.63h-.07c-1.4,1.6-3.44,2.06-5.58,2.06-3.35,0-6.12-1.59-6.12-5.21,0-5.44,6.42-5.24,9.79-5.87.91-.17,1.81-.43,1.81-1.53s-1.1-1.59-2.17-1.59c-2,0-2.45,1-2.48,1.76h-6.15a5,5,0,0,1,3-4.64,14.28,14.28,0,0,1,5.92-1c8.29,0,8.22,3.42,8.22,6.74Zm-6.35-3.88a11.36,11.36,0,0,1-2.61.83c-1.47.33-2.24.7-2.24,1.86a1.91,1.91,0,0,0,2.07,1.59,2.62,2.62,0,0,0,2.78-2.69Z"/><path class="cls-1" d="M197.46,199.57h6.38v2.19h.07a6.38,6.38,0,0,1,5.65-2.62c3.11,0,5.95,1.89,5.95,5.84v11.81h-6.62v-9c0-2-.24-3.39-2.17-3.39-1.14,0-2.65.57-2.65,3.32v9.09h-6.61Z"/><path class="cls-1" d="M227.47,204.58a1.64,1.64,0,0,0-.77-1.29,2.31,2.31,0,0,0-1.47-.5c-.93,0-2,.2-2,1.33,0,.49.4.73.77.89,1.1.47,3.61.6,5.81,1.33s4.15,2,4.15,4.81c0,4.78-4.62,6.07-8.83,6.07s-8.56-1.63-8.66-6.07h6.32a2.12,2.12,0,0,0,.8,1.53,2.82,2.82,0,0,0,1.78.49c.86,0,2.24-.33,2.24-1.32S227,210.55,224,210c-5.05-.86-7.09-2.45-7.09-5.41,0-4.34,4.72-5.47,8.19-5.47,3.75,0,8.26,1,8.43,5.44Z"/><path class="cls-1" d="M236.9,203.62h-2.71v-4.05h2.71c-.07-1.69.1-3.58,1.37-4.84,1.43-1.43,3.11-1.63,5.78-1.63,1,0,2,.1,3,.14v4.51a12.74,12.74,0,0,0-1.61-.23c-1.6,0-2.14.46-2,2h3.48v4.05h-3.34v13.17H236.9Z"/><path class="cls-1" d="M252.71,209.66c.16,2,1.3,3.35,3.37,3.35a3.34,3.34,0,0,0,2.78-1.23H265c-1.33,3.71-5,5.44-8.92,5.44-5.55,0-9.73-3.25-9.73-9a8.87,8.87,0,0,1,9.16-9.09c6.88,0,9.86,3.82,9.86,10.52Zm6.35-3.42a2.85,2.85,0,0,0-2.91-2.89,3.13,3.13,0,0,0-3.41,2.89Z"/><path class="cls-1" d="M266.51,199.57h6.35v2.76h.07c1.07-2.06,2.47-3.19,4.88-3.19a7.45,7.45,0,0,1,1.94.27v5.8a6.79,6.79,0,0,0-2.61-.43c-2.61,0-4,1.53-4,5.21v6.8h-6.62Z"/><use width="203.91" height="54.48" transform="translate(50.25 192.87) scale(0.44)" xlink:href="#Blue"/></g><g id="Layer_1" data-name="Layer 1"><path class="cls-1" d="M218.17,105.75a5.24,5.24,0,0,0-1.39-3.38L204.45,89a5.27,5.27,0,1,0-7.76,7.14l4.84,5.26H179.82a4.6,4.6,0,1,0,0,9.2h21.71l-4.84,5.26a5.27,5.27,0,1,0,7.76,7.14l12.33-13.4a5.22,5.22,0,0,0,1.39-3.38v-.44Z"/><path class="cls-3" d="M155,150.06a1.6,1.6,0,0,1-.79-.2,1.67,1.67,0,0,1-.89-1.47v-14.1a8.5,8.5,0,0,1,8.49-8.49h24.55A1.67,1.67,0,0,1,188,127a1.66,1.66,0,0,1-.67,1.88L156,149.78A1.66,1.66,0,0,1,155,150.06Zm6.81-20.91a5.14,5.14,0,0,0-5.13,5.14v11l24.15-16.11Z"/><path class="cls-3" d="M172.33,74.8H127.56a1.68,1.68,0,0,1-1.67-1.68V65.88a1.68,1.68,0,0,1,1.67-1.68h44.77A1.68,1.68,0,0,1,174,65.88v7.24A1.68,1.68,0,0,1,172.33,74.8Zm-43.09-3.36h41.42V67.56H129.24Z"/><path class="cls-3" d="M156.75,83.88h-13.6a1.68,1.68,0,0,1,0-3.36h13.6a1.68,1.68,0,0,1,0,3.36Z"/><path class="cls-3" d="M172.73,93H127.56a1.68,1.68,0,0,1,0-3.36h45.17a1.68,1.68,0,0,1,0,3.36Z"/><path class="cls-3" d="M167.11,102H127.56a1.68,1.68,0,0,1,0-3.35h39.55a1.68,1.68,0,0,1,0,3.35Z"/><path class="cls-3" d="M167.08,111.12H127.56a1.68,1.68,0,0,1,0-3.35h39.52a1.68,1.68,0,0,1,0,3.35Z"/><path class="cls-3" d="M167.05,120.2H127.56a1.68,1.68,0,0,1,0-3.35h39.49a1.68,1.68,0,0,1,0,3.35Z"/><path class="cls-3" d="M155,150.06H120.31a8.49,8.49,0,0,1-8.48-8.48V123.5a1.68,1.68,0,1,1,3.35,0v18.08a5.13,5.13,0,0,0,5.13,5.13h34.21l30.2-20.13v-9.65a1.68,1.68,0,0,1,3.35,0v10.55a1.66,1.66,0,0,1-.75,1.39L156,149.78A1.72,1.72,0,0,1,155,150.06Z"/><path class="cls-3" d="M113.5,129.38a1.67,1.67,0,0,1-1.67-1.67V62.06a8.48,8.48,0,0,1,8.48-8.48h59.27a8.49,8.49,0,0,1,8.49,8.48v32.6a1.68,1.68,0,0,1-3.35,0V62.06a5.14,5.14,0,0,0-5.14-5.13H120.31a5.13,5.13,0,0,0-5.13,5.13v65.65A1.68,1.68,0,0,1,113.5,129.38Z"/></g></svg>