<svg id="Capa_1" data-name="Capa 1" xmlns="http://www.w3.org/2000/svg" xmlns:xlink="http://www.w3.org/1999/xlink" viewBox="0 0 330 269"><defs><style>.cls-1{fill:#0a1e3f;}.cls-2{fill:#8bb8e8;}.cls-3{fill:#fff;}</style><symbol id="Blue" data-name="Blue" viewBox="0 0 203.91 54.48"><path class="cls-1" d="M0,1.18H30.36Q38,1.18,42,4.94a12.17,12.17,0,0,1,4.06,9.29,11.79,11.79,0,0,1-2.89,8,12.76,12.76,0,0,1-5.65,3.5q5.64,1.37,8.29,4.66a12.83,12.83,0,0,1,2.66,8.3A14.28,14.28,0,0,1,46.59,46a14,14,0,0,1-5.2,5.14,17.23,17.23,0,0,1-6.14,1.7,70.72,70.72,0,0,1-7.27.72H0ZM16.32,21.77h7.09q3.82,0,5.32-1.3a4.75,4.75,0,0,0,1.5-3.78,4.43,4.43,0,0,0-1.5-3.57q-1.5-1.29-5.21-1.29h-7.2Zm0,20.51h8.29c2.79,0,4.77-.49,5.91-1.48a4.94,4.94,0,0,0,1.73-4,4.59,4.59,0,0,0-1.7-3.72c-1.15-.93-3.13-1.41-6-1.41H16.32Z"/><path class="cls-2" d="M49.6,1.18H65.76V40.65H91v12.9H49.6Z"/><path class="cls-2" d="M125.07,1.18h16.16V32.4a26.16,26.16,0,0,1-1.45,8.77,18.61,18.61,0,0,1-4.54,7.21,17.91,17.91,0,0,1-6.49,4.35,32.64,32.64,0,0,1-11.34,1.75,70.91,70.91,0,0,1-8.36-.54,22,22,0,0,1-7.57-2.12,19.06,19.06,0,0,1-5.56-4.52,16.56,16.56,0,0,1-3.46-6A31.57,31.57,0,0,1,91,32.4V1.18h16.15v32a9.12,9.12,0,0,0,2.39,6.7,10.28,10.28,0,0,0,13.18,0,9.1,9.1,0,0,0,2.38-6.74Z"/><path class="cls-2" d="M161.4,31.15c.5,5.79,3.86,9.92,10,9.92,3.17,0,6.63-1.18,8.22-3.63h18.31c-4,11-14.75,16.11-26.43,16.11-16.44,0-28.81-9.63-28.81-26.63C142.69,12.09,153.58,0,169.82,0,190.21,0,199,11.3,199,31.15ZM180.21,21a8.4,8.4,0,0,0-8.61-8.55c-5.84,0-9.21,3-10.1,8.55Z"/><path class="cls-1" d="M203.91,6a4.45,4.45,0,1,1-4.41-4.33A4.36,4.36,0,0,1,203.91,6Zm-7.78,0a3.36,3.36,0,0,0,3.37,3.45A3.31,3.31,0,0,0,202.8,6a3.34,3.34,0,1,0-6.67,0Zm2.66,2.24h-1V3.87a12.12,12.12,0,0,1,1.66-.13,2.32,2.32,0,0,1,1.48.34,1.12,1.12,0,0,1,.45.93,1.11,1.11,0,0,1-.9,1v.06c.42.13.63.47.76,1a4.18,4.18,0,0,0,.32,1.06h-1.05a3.41,3.41,0,0,1-.35-1.06c-.08-.44-.34-.66-.89-.66h-.48Zm0-2.43h.47c.55,0,1-.19,1-.63s-.29-.66-.92-.66a2.2,2.2,0,0,0-.55,0Z"/></symbol></defs><path class="cls-1" d="M161.53,193.18h19.76v6.07h-12.4v3h11.26v5.63H168.89v3h12.77v6.07H161.53Z"/><path class="cls-1" d="M183.29,199.65h6.39v2.19h.06a6.4,6.4,0,0,1,5.65-2.62c3.11,0,6,1.89,6,5.84v11.81h-6.62v-9c0-2-.23-3.38-2.17-3.38-1.14,0-2.64.56-2.64,3.32v9.09h-6.62Z"/><path class="cls-1" d="M221,214.64c0,3.42-.9,8.23-9,8.23-4.12,0-8.46-1.09-9.06-5.74h6.55a3.77,3.77,0,0,0,.37.6,2.54,2.54,0,0,0,1.94,1.26c2.14,0,2.6-2.52,2.6-4v-1.59h-.06a5.47,5.47,0,0,1-4.65,2.39c-5.12,0-7.42-3.78-7.42-8.39s2.57-8.23,7.52-8.23a4.67,4.67,0,0,1,4.55,2.52h.06v-2.09H221Zm-9.16-3c2.44,0,2.71-2.33,2.71-4.25s-.94-3.38-2.87-3.38-2.81,1.59-2.81,3.41S209.43,211.63,211.8,211.63Z"/><path class="cls-1" d="M229.42,197.79H222.8v-4.61h6.62Zm-6.62,1.86h6.62v17.22H222.8Z"/><path class="cls-1" d="M231.52,199.65h6.39v2.19H238a6.4,6.4,0,0,1,5.65-2.62c3.11,0,5.95,1.89,5.95,5.84v11.81H243v-9c0-2-.23-3.38-2.17-3.38-1.14,0-2.64.56-2.64,3.32v9.09h-6.62Z"/><path class="cls-1" d="M257.09,209.73c.17,2,1.3,3.36,3.38,3.36a3.31,3.31,0,0,0,2.77-1.23h6.19c-1.34,3.71-5,5.44-8.93,5.44-5.55,0-9.73-3.25-9.73-9a8.87,8.87,0,0,1,9.16-9.09c6.89,0,9.87,3.81,9.87,10.51Zm6.35-3.41a2.84,2.84,0,0,0-2.91-2.89,3.14,3.14,0,0,0-3.41,2.89Z"/><use width="203.91" height="54.48" transform="translate(60.21 192.95) scale(0.44)" xlink:href="#Blue"/><path class="cls-1" d="M152.57,96.21A22.42,22.42,0,1,0,175,118.62a22.41,22.41,0,0,0-22.41-22.41m0,43.07a20.66,20.66,0,1,1,20.65-20.66,20.66,20.66,0,0,1-20.65,20.66"/><path class="cls-2" d="M152.57,98a20.66,20.66,0,1,0,20.65,20.65A20.65,20.65,0,0,0,152.57,98m0,40.19a19.54,19.54,0,1,1,19.53-19.54,19.53,19.53,0,0,1-19.53,19.54"/><path class="cls-1" d="M152.57,99.08a19.54,19.54,0,1,0,19.53,19.54,19.54,19.54,0,0,0-19.53-19.54"/><path class="cls-3" d="M149.43,124.64h4.1c1.63,0,2.76-.58,2.76-2.2s-1.22-2.31-2.76-2.31h-4.1Zm0-7.82h4a1.92,1.92,0,0,0,2.1-1.87c0-1.43-1-1.9-2.1-1.9h-4Zm-5.12-7.74h9.19c3.39,0,7.11.83,7.11,4.93a4.43,4.43,0,0,1-2.59,4,4.67,4.67,0,0,1,3.39,4.65c0,4.68-3.44,6.12-7.66,6.12h-9.44Z"/><path class="cls-1" d="M182.62,144.18a3.74,3.74,0,0,0,1.16.26,1.22,1.22,0,0,0,1.15-.13,2.73,2.73,0,0,0,.9-.51c.25-.38.64-.64.64-.9l6-11.67a3.26,3.26,0,0,0,.25-2.18,1.08,1.08,0,0,0-.51-.9,1.32,1.32,0,0,0-1-.64l-4.48-2.31a29.12,29.12,0,0,0,.51-8.2l4.87-1.54c.39-.13.64-.51.9-.51a1.37,1.37,0,0,0,.64-.9,3.74,3.74,0,0,0,.26-1.16,1.22,1.22,0,0,0-.13-1.15l-4.1-12.31a1.08,1.08,0,0,0-.52-.9c0-.26-.64-.64-.9-.64a3.62,3.62,0,0,0-1.15-.26,1.22,1.22,0,0,0-1.15.13l-4.88,1.54a41.11,41.11,0,0,0-5.38-6.16L178,88.66a2,2,0,0,0,.12-2.06,2.48,2.48,0,0,0-1.54-1.66l-11.79-6a3.33,3.33,0,0,0-2.18-.26c-.39.13-.64.52-.9.52a1.28,1.28,0,0,0-.64,1l-2.31,4.49a28.86,28.86,0,0,0-8.21-.64L149,79.17c-.13-.39-.25-.77-.51-.9a1.3,1.3,0,0,0-1-.64,3.68,3.68,0,0,0-1.15-.26c-.38,0-.77-.13-1.15.13l-12.32,4.1c-.38,0-.64.52-.89.52a1.28,1.28,0,0,0-.64,1,2,2,0,0,0-.13,2l1.54,4.88a35.31,35.31,0,0,0-6,5.51l-4.36-2.31a2.64,2.64,0,0,0-2.18-.25,1.5,1.5,0,0,0-.9.51,1.32,1.32,0,0,0-.64,1l-5.9,11.67a3.62,3.62,0,0,0-.26,1.15,1.84,1.84,0,0,0,.13,1.15,2.72,2.72,0,0,0,.52.9c.38.26.64.64.89.64l4.49,2.31a35,35,0,0,0-.64,8.21L113,122.13a2.73,2.73,0,0,0-.9.51,1.3,1.3,0,0,0-.64,1,3.68,3.68,0,0,0-.26,1.15,1.78,1.78,0,0,0,.13,1.15l4.1,12.32c.13.38.52.64.52.89.38.26.64.64.89.64a3.74,3.74,0,0,0,1.16.26c.38,0,.77.13,1.15-.13l4.88-1.54a34.5,34.5,0,0,0,5.51,6l-2.31,4.49a3.66,3.66,0,0,0-.25,1.15,1.87,1.87,0,0,0,.12,1.16c.13.38.52.64.52.9a1.33,1.33,0,0,0,.89.64l11.8,5.9a1.05,1.05,0,0,0,.52.12,2,2,0,0,0,2.05-.25,2.44,2.44,0,0,0,1.54-1.41l2.3-4.49a29.21,29.21,0,0,0,8.21.51l1.54,4.87c.13.39.26.77.51.9s.65.64,1,.64a3.21,3.21,0,0,0,2.18.26l12.31-4.1a2.52,2.52,0,0,0,1.67-1.54,2.64,2.64,0,0,0,.25-2.18l-1.53-4.88a35.48,35.48,0,0,0,6.15-5.38Zm-7.44-7.69a26.3,26.3,0,0,1-8.2,6.8,3,3,0,0,0-1.29,1.54,4,4,0,0,0,.13,2l1.41,4.1-6.92,2.44L159,149.06a3,3,0,0,0-1.16-1.54,2.12,2.12,0,0,0-1.79-.51,27.54,27.54,0,0,1-10.65-.9,2.44,2.44,0,0,0-2.05.25,3.38,3.38,0,0,0-1.41,1.29l-1.92,4.1-6.42-3.33,1.93-4a2.08,2.08,0,0,0,.13-1.92,4,4,0,0,0-1.16-1.8,27.55,27.55,0,0,1-6.92-8.08c-.52-.51-.9-1-1.41-1.15a3.72,3.72,0,0,0-2.06.13L120,133l-2.31-6.8,4.11-1.54a3.64,3.64,0,0,0,1.53-1.15,2.71,2.71,0,0,0,.52-1.8,25.42,25.42,0,0,1,.77-10.77,2.17,2.17,0,0,0-.26-1.8,2.86,2.86,0,0,0-1.28-1.41L119,105.84l3.34-6.41,4,1.92a3.49,3.49,0,0,0,1.93.26,3.88,3.88,0,0,0,1.79-1.16,27,27,0,0,1,8.21-6.92c.51-.51,1-.9,1.15-1.41a3.89,3.89,0,0,0-.12-2.05L138,85.84l6.93-2.19,1.41,4.11a3.09,3.09,0,0,0,1.15,1.54,4.32,4.32,0,0,0,1.8.51,27.89,27.89,0,0,1,10.77.77,1.84,1.84,0,0,0,1.8-.26,4,4,0,0,0,1.54-1.41l1.92-4.1L171.72,88l-1.92,4.1a2,2,0,0,0-.13,1.92,4.38,4.38,0,0,0,.9,1.54,27.66,27.66,0,0,1,7.05,8.34,2.52,2.52,0,0,0,1.41,1.15,2.86,2.86,0,0,0,2.05-.13l4.11-1.54,2.18,6.93L183.13,112a3,3,0,0,0-1.53,1.15,2.45,2.45,0,0,0-.26,1.92,27.35,27.35,0,0,1-.9,10.65,2.52,2.52,0,0,0,.26,1.92,2.74,2.74,0,0,0,1.28,1.41l4.1,1.93-3.2,6.41-4.11-1.93a3.28,3.28,0,0,0-1.92-.38A6.8,6.8,0,0,0,175.18,136.49Z"/><path class="cls-2" d="M207.53,96a1.91,1.91,0,0,0,.52.33.67.67,0,0,0,.59.14,1.43,1.43,0,0,0,.52-.1c.2-.14.43-.2.48-.32l5-4.66a1.72,1.72,0,0,0,.51-1,.56.56,0,0,0-.09-.53.68.68,0,0,0-.39-.5l-1.79-1.91a15.3,15.3,0,0,0,1.69-3.93l2.65.1c.21,0,.41-.14.53-.09a.66.66,0,0,0,.47-.33,2.07,2.07,0,0,0,.33-.52.65.65,0,0,0,.14-.59l.15-6.74a.56.56,0,0,0-.09-.53c0-.13-.2-.43-.33-.47a1.7,1.7,0,0,0-.52-.33.64.64,0,0,0-.59-.14l-2.65-.1a20.91,20.91,0,0,0-1.56-4L215,68a1,1,0,0,0,.42-1,1.29,1.29,0,0,0-.46-1.08l-4.72-5a1.67,1.67,0,0,0-1-.51c-.21,0-.4.14-.53.09a.67.67,0,0,0-.49.39l-1.92,1.8a14.64,14.64,0,0,0-3.91-1.76l.11-2.65c0-.21,0-.43-.1-.53a.68.68,0,0,0-.39-.5,1.91,1.91,0,0,0-.52-.33c-.19-.06-.35-.19-.58-.13l-6.75-.16c-.19-.06-.4.14-.53.1a.67.67,0,0,0-.49.39,1,1,0,0,0-.43,1l-.1,2.65a19,19,0,0,0-3.92,1.65L187,60.49a1.37,1.37,0,0,0-1-.51.84.84,0,0,0-.53.1.69.69,0,0,0-.49.39L180,65.15a1.66,1.66,0,0,0-.32.52.88.88,0,0,0-.14.58,1.33,1.33,0,0,0,.09.53c.14.2.2.43.33.47l1.79,1.92A18.15,18.15,0,0,0,180,73.08L177.31,73a1.55,1.55,0,0,0-.53.1.67.67,0,0,0-.49.39A1.91,1.91,0,0,0,176,74a.9.9,0,0,0-.14.59l-.15,6.74c0,.21.14.41.09.53.14.19.2.43.33.47a1.91,1.91,0,0,0,.52.33c.19.07.35.2.59.14l2.65.1a18.09,18.09,0,0,0,1.64,3.92l-1.91,1.79a2.07,2.07,0,0,0-.33.52.93.93,0,0,0-.14.59c0,.21.14.4.09.53a.68.68,0,0,0,.33.47l4.74,5a.46.46,0,0,0,.23.15,1,1,0,0,0,1.05.24,1.3,1.3,0,0,0,1-.43l1.92-1.79a14.9,14.9,0,0,0,3.92,1.69l-.1,2.66c0,.21,0,.42.1.53s.2.42.39.49a1.67,1.67,0,0,0,1,.51l6.74.15a1.3,1.3,0,0,0,1.09-.46,1.39,1.39,0,0,0,.51-1l.1-2.66a19.07,19.07,0,0,0,4-1.55Zm-2.29-5.07A13.68,13.68,0,0,1,200,92.8a1.63,1.63,0,0,0-.9.53,2.06,2.06,0,0,0-.3,1l0,2.26-3.81,0,.13-2.36a1.57,1.57,0,0,0-.29-1,1.13,1.13,0,0,0-.79-.57,14.17,14.17,0,0,1-5-2.3,1.27,1.27,0,0,0-1.05-.24,1.79,1.79,0,0,0-.92.38l-1.66,1.67-2.56-2.75,1.64-1.61a1.07,1.07,0,0,0,.4-.92,2,2,0,0,0-.25-1.08,14.67,14.67,0,0,1-2-5.17,2,2,0,0,0-.49-.82,1.89,1.89,0,0,0-1-.29l-2.26,0,.06-3.73,2.28,0a2,2,0,0,0,1-.29,1.47,1.47,0,0,0,.56-.79A13.38,13.38,0,0,1,185,69.56a1.15,1.15,0,0,0,.19-.92,1.46,1.46,0,0,0-.38-.92l-1.67-1.66,2.75-2.55,1.61,1.63a1.87,1.87,0,0,0,.9.47,2.06,2.06,0,0,0,1.08-.25,13.84,13.84,0,0,1,5.23-2,2,2,0,0,0,.82-.49,2.06,2.06,0,0,0,.29-1l.12-2.29,3.77.14,0,2.26a1.56,1.56,0,0,0,.3,1,2.14,2.14,0,0,0,.78.56,14.43,14.43,0,0,1,5.14,2.27,1,1,0,0,0,.93.19,2.2,2.2,0,0,0,1-.42l1.66-1.67,2.58,2.69-1.67,1.67a1.08,1.08,0,0,0-.4.92,2.42,2.42,0,0,0,.17.91,14.26,14.26,0,0,1,2,5.32,1.31,1.31,0,0,0,.49.81,1.54,1.54,0,0,0,1,.3l2.28,0-.15,3.78-2.36.07a1.52,1.52,0,0,0-1,.3,1.26,1.26,0,0,0-.46.89,14.23,14.23,0,0,1-2.31,5.06,1.32,1.32,0,0,0-.21,1,1.48,1.48,0,0,0,.38.92l1.67,1.66-2.69,2.58L207.17,91a1.72,1.72,0,0,0-.87-.52A3.17,3.17,0,0,0,205.24,90.92Z"/><path class="cls-2" d="M200.8,68.17a10.11,10.11,0,0,0-4.33-.58,9.77,9.77,0,0,0-4.12,1.21A8.74,8.74,0,0,0,189,71.48a10.3,10.3,0,0,0-2,3.78,10,10,0,0,0-.19,4.26,12.32,12.32,0,0,0,1.36,4,12,12,0,0,0,2.84,3.2,14,14,0,0,0,3.85,1.74c.7.16,1.32.32,2,.41a10.25,10.25,0,0,0,7-2.19,9.78,9.78,0,0,0,3.78-6.32A10.76,10.76,0,0,0,206.34,73,8.84,8.84,0,0,0,200.8,68.17Zm3.46,11.88a6.76,6.76,0,0,1-3.37,4.31,7,7,0,0,1-9.58-2.56,7.59,7.59,0,0,1-1-5.2A7.21,7.21,0,0,1,198,70.7a3.74,3.74,0,0,1,1.32.25,9,9,0,0,1,2.54,1.34,10.36,10.36,0,0,1,1.84,2.18,6.27,6.27,0,0,1,.91,2.72,7.22,7.22,0,0,1-.34,2.86Z"/></svg>