<svg xmlns="http://www.w3.org/2000/svg" xmlns:xlink="http://www.w3.org/1999/xlink" viewBox="0 0 330 269"><defs><style>.cls-1{fill:#0a1e3f;}.cls-2{fill:#8bb8e8;}.cls-3{fill:#fff;}.cls-4{fill:#7d2796;}</style><symbol id="Blue" data-name="Blue" viewBox="0 0 203.91 54.48"><path class="cls-1" d="M0,1.18H30.36Q38,1.18,42,4.94a12.17,12.17,0,0,1,4.06,9.29,11.79,11.79,0,0,1-2.89,8,12.76,12.76,0,0,1-5.65,3.5q5.64,1.37,8.29,4.66a12.83,12.83,0,0,1,2.66,8.3A14.28,14.28,0,0,1,46.59,46a14,14,0,0,1-5.2,5.14,17.23,17.23,0,0,1-6.14,1.7,70.72,70.72,0,0,1-7.27.72H0ZM16.32,21.77h7.09q3.82,0,5.32-1.3a4.75,4.75,0,0,0,1.5-3.78,4.43,4.43,0,0,0-1.5-3.57q-1.5-1.29-5.21-1.29h-7.2Zm0,20.51h8.29c2.79,0,4.77-.49,5.91-1.48a4.94,4.94,0,0,0,1.73-4,4.59,4.59,0,0,0-1.7-3.72c-1.15-.93-3.13-1.41-6-1.41H16.32Z"/><path class="cls-2" d="M49.6,1.18H65.76V40.65H91v12.9H49.6Z"/><path class="cls-2" d="M125.07,1.18h16.16V32.4a26.16,26.16,0,0,1-1.45,8.77,18.61,18.61,0,0,1-4.54,7.21,17.91,17.91,0,0,1-6.49,4.35,32.64,32.64,0,0,1-11.34,1.75,70.91,70.91,0,0,1-8.36-.54,22,22,0,0,1-7.57-2.12,19.06,19.06,0,0,1-5.56-4.52,16.56,16.56,0,0,1-3.46-6A31.57,31.57,0,0,1,91,32.4V1.18h16.15v32a9.12,9.12,0,0,0,2.39,6.7,10.28,10.28,0,0,0,13.18,0,9.1,9.1,0,0,0,2.38-6.74Z"/><path class="cls-2" d="M161.4,31.15c.5,5.79,3.86,9.92,10,9.92,3.17,0,6.63-1.18,8.22-3.63h18.31c-4,11-14.75,16.11-26.43,16.11-16.44,0-28.81-9.63-28.81-26.63C142.69,12.09,153.58,0,169.82,0,190.21,0,199,11.3,199,31.15ZM180.21,21a8.4,8.4,0,0,0-8.61-8.55c-5.84,0-9.21,3-10.1,8.55Z"/><path class="cls-1" d="M203.91,6a4.45,4.45,0,1,1-4.41-4.33A4.36,4.36,0,0,1,203.91,6Zm-7.78,0a3.36,3.36,0,0,0,3.37,3.45A3.31,3.31,0,0,0,202.8,6a3.34,3.34,0,1,0-6.67,0Zm2.66,2.24h-1V3.87a12.12,12.12,0,0,1,1.66-.13,2.32,2.32,0,0,1,1.48.34,1.12,1.12,0,0,1,.45.93,1.11,1.11,0,0,1-.9,1v.06c.42.13.63.47.76,1a4.18,4.18,0,0,0,.32,1.06h-1.05a3.41,3.41,0,0,1-.35-1.06c-.08-.44-.34-.66-.89-.66h-.48Zm0-2.43h.47c.55,0,1-.19,1-.63s-.29-.66-.92-.66a2.2,2.2,0,0,0-.55,0Z"/></symbol></defs><g id="Capa_1" data-name="Capa 1"><path class="cls-1" d="M155.31,193h10.46l3.41,13.93h.07L172.66,193h10.46v23.69h-7v-15.2h-.07L172,216.66h-5.49l-4.14-15.2h-.07v15.2h-6.95Z"/><path class="cls-1" d="M193.85,217.09c-6.52,0-9.46-4.28-9.46-9.06s2.94-9,9.46-9,9.46,4.24,9.46,9S200.37,217.09,193.85,217.09Zm0-13.31c-2.51,0-2.84,2.43-2.84,4.25s.33,4.28,2.84,4.28,2.84-2.45,2.84-4.28S196.35,203.78,193.85,203.78Z"/><path class="cls-1" d="M222.56,216.66h-6.39v-1.89h-.06c-.84,1.09-1.84,2.32-5.09,2.32-4.91,0-7.28-4.81-7.28-9.13,0-4,1.57-9,7.39-9a5.66,5.66,0,0,1,4.74,2.32h.07V193h6.62Zm-9.29-12.88c-2.38,0-2.91,2.23-2.91,4.25s.53,4.28,2.91,4.28,2.9-2.22,2.9-4.28S215.64,203.78,213.27,203.78Z"/><path class="cls-1" d="M242.55,216.66h-6.39v-2.19h-.06a6.4,6.4,0,0,1-5.66,2.62c-3.1,0-5.95-1.89-5.95-5.84V199.44h6.62v9c0,2,.24,3.39,2.18,3.39,1.13,0,2.64-.57,2.64-3.32v-9.09h6.62Z"/><path class="cls-1" d="M244.62,193h6.62v23.69h-6.62Z"/><path class="cls-1" d="M258.92,209.52c.17,2,1.31,3.35,3.38,3.35a3.3,3.3,0,0,0,2.77-1.22h6.19c-1.34,3.71-5,5.44-8.93,5.44-5.55,0-9.73-3.25-9.73-9a8.87,8.87,0,0,1,9.16-9.09c6.89,0,9.87,3.81,9.87,10.51Zm6.35-3.41a2.83,2.83,0,0,0-2.9-2.89,3.13,3.13,0,0,0-3.41,2.89Z"/><use width="203.91" height="54.48" transform="translate(58.38 192.74) scale(0.44)" xlink:href="#Blue"/></g><g id="Objects"><path class="cls-3" d="M213.75,85.44h-97.5c-2.81,0-5.1,2.94-5.1,6.54v48.77c0,3.6,2.29,6.54,5.1,6.54h97.5c2.81,0,5.1-2.94,5.1-6.54V92C218.85,88.38,216.56,85.44,213.75,85.44Z"/><path class="cls-2" d="M216.38,68.49H155.71a2.61,2.61,0,0,1-.27-.06,2.41,2.41,0,0,1-2.55-1.23l-5.37-10-.11-.23c-1.28-3.11-3.77-5-6.48-5H113.6c-1.32,0-2.44,1.61-2.44,3.52V69a0,0,0,0,0,0,0V82.2a9,9,0,0,1,5.1-1.65h97.5a9,9,0,0,1,5.1,1.65V72C218.85,70.09,217.72,68.49,216.38,68.49Z"/><path class="cls-4" d="M216.38,63.59H156.51L151.89,55c-2.08-4.92-6.27-8-11-8H113.6c-4,0-7.34,3.77-7.34,8.41V90.37a2.5,2.5,0,0,0,.09.49c0,.38-.09.74-.09,1.12v48.77c0,6.3,4.48,11.43,10,11.43h97.5c5.51,0,10-5.13,10-11.43V92c0-.38-.06-.74-.09-1.12a2.5,2.5,0,0,0,.09-.49V72C223.74,67.36,220.44,63.59,216.38,63.59Zm2.47,77.16c0,3.6-2.29,6.54-5.1,6.54h-97.5c-2.81,0-5.1-2.94-5.1-6.54V92c0-3.6,2.29-6.54,5.1-6.54h97.5c2.81,0,5.1,2.94,5.1,6.54Zm0-58.55a9,9,0,0,0-5.1-1.65h-97.5a9,9,0,0,0-5.1,1.65V69.06a0,0,0,0,1,0,0V55.45c0-1.91,1.12-3.52,2.44-3.52h27.33c2.71,0,5.2,1.94,6.48,5l.11.23,5.37,10a2.41,2.41,0,0,0,2.55,1.23,2.61,2.61,0,0,0,.27.06h60.67c1.34,0,2.47,1.6,2.47,3.51Z"/><path class="cls-2" d="M218.85,140.75c0,3.6-2.29,6.54-5.1,6.54h-97.5c-2.81,0-5.1-2.94-5.1-6.54V92c0-3.6,2.29-6.54,5.1-6.54h97.5c2.81,0,5.1,2.94,5.1,6.54Z"/></g></svg>