<svg id="Capa_1" data-name="Capa 1" xmlns="http://www.w3.org/2000/svg" xmlns:xlink="http://www.w3.org/1999/xlink" viewBox="0 0 330 269"><defs><style>.cls-1{fill:#0a1e3f;}.cls-2{fill:#8bb8e8;}.cls-3{fill:#f17533;}.cls-4{fill:#7d2796;}.cls-5{fill:#d62f8a;}.cls-6{fill:#96c061;}</style><symbol id="Blue" data-name="Blue" viewBox="0 0 203.91 54.48"><path class="cls-1" d="M0,1.18H30.36Q38,1.18,42,4.94a12.17,12.17,0,0,1,4.06,9.29,11.79,11.79,0,0,1-2.89,8,12.76,12.76,0,0,1-5.65,3.5q5.64,1.37,8.29,4.66a12.83,12.83,0,0,1,2.66,8.3A14.28,14.28,0,0,1,46.59,46a14,14,0,0,1-5.2,5.14,17.23,17.23,0,0,1-6.14,1.7,70.72,70.72,0,0,1-7.27.72H0ZM16.32,21.77h7.09q3.82,0,5.32-1.3a4.75,4.75,0,0,0,1.5-3.78,4.43,4.43,0,0,0-1.5-3.57q-1.5-1.29-5.21-1.29h-7.2Zm0,20.51h8.29c2.79,0,4.77-.49,5.91-1.48a4.94,4.94,0,0,0,1.73-4,4.59,4.59,0,0,0-1.7-3.72c-1.15-.93-3.13-1.41-6-1.41H16.32Z"/><path class="cls-2" d="M49.6,1.18H65.76V40.65H91v12.9H49.6Z"/><path class="cls-2" d="M125.07,1.18h16.16V32.4a26.16,26.16,0,0,1-1.45,8.77,18.61,18.61,0,0,1-4.54,7.21,17.91,17.91,0,0,1-6.49,4.35,32.64,32.64,0,0,1-11.34,1.75,70.91,70.91,0,0,1-8.36-.54,22,22,0,0,1-7.57-2.12,19.06,19.06,0,0,1-5.56-4.52,16.56,16.56,0,0,1-3.46-6A31.57,31.57,0,0,1,91,32.4V1.18h16.15v32a9.12,9.12,0,0,0,2.39,6.7,10.28,10.28,0,0,0,13.18,0,9.1,9.1,0,0,0,2.38-6.74Z"/><path class="cls-2" d="M161.4,31.15c.5,5.79,3.86,9.92,10,9.92,3.17,0,6.63-1.18,8.22-3.63h18.31c-4,11-14.75,16.11-26.43,16.11-16.44,0-28.81-9.63-28.81-26.63C142.69,12.09,153.58,0,169.82,0,190.21,0,199,11.3,199,31.15ZM180.21,21a8.4,8.4,0,0,0-8.61-8.55c-5.84,0-9.21,3-10.1,8.55Z"/><path class="cls-1" d="M203.91,6a4.45,4.45,0,1,1-4.41-4.33A4.36,4.36,0,0,1,203.91,6Zm-7.78,0a3.36,3.36,0,0,0,3.37,3.45A3.31,3.31,0,0,0,202.8,6a3.34,3.34,0,1,0-6.67,0Zm2.66,2.24h-1V3.87a12.12,12.12,0,0,1,1.66-.13,2.32,2.32,0,0,1,1.48.34,1.12,1.12,0,0,1,.45.93,1.11,1.11,0,0,1-.9,1v.06c.42.13.63.47.76,1a4.18,4.18,0,0,0,.32,1.06h-1.05a3.41,3.41,0,0,1-.35-1.06c-.08-.44-.34-.66-.89-.66h-.48Zm0-2.43h.47c.55,0,1-.19,1-.63s-.29-.66-.92-.66a2.2,2.2,0,0,0-.55,0Z"/></symbol></defs><path class="cls-1" d="M138.46,193.27h14c4.18,0,7.79,2.29,7.79,6.76,0,2.46-1.14,5.05-3.58,5.94,2,.76,3.25,2.95,3.51,5.91.1,1.16.14,4,.8,5.07h-7.35a16.76,16.76,0,0,1-.6-3.65c-.2-2.25-.4-4.61-3.31-4.61h-3.91V217h-7.36Zm7.36,10.35h3.84c1.37,0,3.24-.24,3.24-2.36,0-1.49-.83-2.35-3.64-2.35h-3.44Z"/><path class="cls-1" d="M167,209.82c.17,2,1.31,3.35,3.38,3.35a3.31,3.31,0,0,0,2.77-1.23h6.19c-1.34,3.72-5,5.44-8.93,5.44-5.55,0-9.73-3.25-9.73-9a8.87,8.87,0,0,1,9.16-9.09c6.89,0,9.87,3.82,9.87,10.52Zm6.35-3.42a2.83,2.83,0,0,0-2.91-2.88,3.13,3.13,0,0,0-3.41,2.88Z"/><path class="cls-1" d="M190.87,204.74a1.64,1.64,0,0,0-.77-1.29,2.31,2.31,0,0,0-1.47-.5c-.93,0-2,.2-2,1.33,0,.5.4.73.77.9,1.1.46,3.61.59,5.81,1.32s4.15,2,4.15,4.81c0,4.78-4.62,6.07-8.83,6.07s-8.56-1.62-8.66-6.07h6.32a2.13,2.13,0,0,0,.8,1.53,2.76,2.76,0,0,0,1.78.5c.87,0,2.24-.34,2.24-1.33s-.57-1.29-3.65-1.83c-5.05-.86-7.09-2.45-7.09-5.4,0-4.35,4.72-5.48,8.2-5.48,3.74,0,8.25,1,8.42,5.44Z"/><path class="cls-1" d="M203.94,209.82c.17,2,1.3,3.35,3.38,3.35a3.31,3.31,0,0,0,2.77-1.23h6.19c-1.34,3.72-5,5.44-8.93,5.44-5.55,0-9.73-3.25-9.73-9a8.87,8.87,0,0,1,9.16-9.09c6.89,0,9.87,3.82,9.87,10.52Zm6.35-3.42a2.83,2.83,0,0,0-2.91-2.88A3.13,3.13,0,0,0,204,206.4Z"/><path class="cls-1" d="M234.66,213.1a7,7,0,0,0,.8,3.85h-6.75a4.33,4.33,0,0,1-.23-1.62h-.07a7.1,7.1,0,0,1-5.59,2c-3.34,0-6.11-1.59-6.11-5.21,0-5.44,6.42-5.24,9.79-5.87.9-.16,1.81-.43,1.81-1.52s-1.11-1.59-2.18-1.59c-2,0-2.44,1-2.47,1.75h-6.15a5,5,0,0,1,3-4.64,14.28,14.28,0,0,1,5.92-1c8.29,0,8.22,3.42,8.22,6.74Zm-6.35-3.88a11.36,11.36,0,0,1-2.61.83c-1.47.33-2.24.7-2.24,1.86a1.9,1.9,0,0,0,2.07,1.59,2.62,2.62,0,0,0,2.78-2.69Z"/><path class="cls-1" d="M236.49,199.73h6.36v2.76h.06c1.07-2.06,2.48-3.19,4.88-3.19a7.39,7.39,0,0,1,1.94.27v5.8a6.79,6.79,0,0,0-2.61-.43c-2.6,0-4,1.53-4,5.21V217h-6.62Z"/><path class="cls-1" d="M261.93,206.27a2.37,2.37,0,0,0-.73-1.63,2.47,2.47,0,0,0-1.68-.56c-2.54,0-2.9,2.19-2.9,4.28s.36,4.25,2.9,4.25a2.67,2.67,0,0,0,2.58-2.53h6.32a8,8,0,0,1-3,5.41,9.7,9.7,0,0,1-6,1.89c-5.21,0-9.39-3.58-9.39-9s4.18-9.06,9.39-9.06c4.55,0,8.43,2.23,8.83,7Z"/><path class="cls-1" d="M269.48,193.27h6.62v8.32h.07a6.44,6.44,0,0,1,5.42-2.29c3.1,0,6,1.89,6,5.84V217h-6.62v-9c0-2-.24-3.39-2.18-3.39-1.13,0-2.64.57-2.64,3.32V217h-6.62Z"/><use width="203.91" height="54.48" transform="translate(41.5 193.03) scale(0.44)" xlink:href="#Blue"/><rect class="cls-3" x="133.46" y="49.01" width="78.42" height="98.37" rx="10.37"/><rect class="cls-4" x="118.12" y="73.78" width="30.96" height="11.69" rx="5.85"/><rect class="cls-4" x="118.12" y="93.04" width="30.96" height="11.69" rx="5.85"/><rect class="cls-4" x="118.12" y="112.3" width="30.96" height="11.69" rx="5.85"/><circle class="cls-5" cx="176.7" cy="75.6" r="5.91"/><rect class="cls-5" x="165.98" y="83.41" width="21.43" height="20.34" rx="5.5"/><circle class="cls-2" cx="191.46" cy="91.37" r="5.91"/><rect class="cls-2" x="180.75" y="99.17" width="21.43" height="20.34" rx="5.5"/><circle class="cls-6" cx="164.91" cy="99.05" r="5.91"/><rect class="cls-6" x="154.19" y="106.86" width="21.43" height="20.34" rx="5.5"/><rect class="cls-2" x="283.6" y="65.69" height="0.66"/></svg>