<?xml version="1.0" encoding="utf-8"?>
<!-- Generator: Adobe Illustrator 25.2.1, SVG Export Plug-In . SVG Version: 6.00 Build 0)  -->
<svg version="1.1" id="Capa_1" xmlns="http://www.w3.org/2000/svg" xmlns:xlink="http://www.w3.org/1999/xlink" x="0px" y="0px"
	 viewBox="0 0 330 269" style="enable-background:new 0 0 330 269;" xml:space="preserve">
<style type="text/css">
	.st0{fill:#0A1E3F;}
	.st1{fill:#8BB8E8;}
	.st2{fill:#D62F8A;}
	.st3{fill:#96BF61;}
	.st4{fill:#7D2796;}
	.st5{fill:#F17533;}
</style>
<symbol  id="Blue" viewBox="-102 -27.2 203.9 54.5">
	<path class="st0" d="M-102-26.1h30.4c5.1,0,9,1.3,11.6,3.8c2.6,2.4,4.1,5.8,4.1,9.3c0.1,2.9-1,5.8-2.9,8c-1.5,1.6-3.5,2.9-5.6,3.5
		c3.8,0.9,6.5,2.5,8.3,4.7c1.8,2.4,2.8,5.3,2.7,8.3c0,2.6-0.6,5.1-1.9,7.3c-1.2,2.1-3,3.9-5.2,5.1c-1.9,0.9-4,1.5-6.1,1.7
		c-2.4,0.4-4.8,0.6-7.3,0.7h-28V-26.1z M-85.6-5.5h7.1c2.5,0,4.3-0.4,5.3-1.3c1-1,1.6-2.4,1.5-3.8c0.1-1.4-0.5-2.7-1.5-3.6
		c-1-0.9-2.7-1.3-5.2-1.3h-7.2V-5.5z M-85.6,15h8.3c2.8,0,4.8-0.5,5.9-1.5c1.2-1,1.8-2.5,1.7-4c0-1.4-0.6-2.8-1.7-3.7
		c-1.2-0.9-3.1-1.4-6-1.4h-8.2V15z"/>
	<path class="st1" d="M-52.4-26.1h16.2v39.5H-11v12.9h-41.4V-26.1z"/>
	<path class="st1" d="M23.1-26.1h16.2V5.2c0,3-0.5,6-1.4,8.8c-0.9,2.7-2.5,5.2-4.5,7.2c-1.8,1.9-4,3.4-6.5,4.3
		c-3.6,1.2-7.5,1.8-11.3,1.8c-2.8,0-5.6-0.2-8.4-0.5c-2.6-0.2-5.2-1-7.6-2.1c-2.1-1.1-4-2.7-5.6-4.5c-1.6-1.7-2.7-3.8-3.5-6
		c-0.9-2.9-1.4-5.9-1.5-8.9v-31.2H5.2v32c-0.1,2.5,0.7,4.9,2.4,6.7c3.8,3.2,9.4,3.2,13.2,0c1.7-1.8,2.5-4.3,2.4-6.7L23.1-26.1z"/>
	<path class="st1" d="M59.4,3.9c0.5,5.8,3.9,9.9,10,9.9c3.2,0,6.6-1.2,8.2-3.6H96c-4,11-14.8,16.1-26.4,16.1
		c-16.4,0-28.8-9.6-28.8-26.6c0-14.8,10.9-26.9,27.1-26.9C88.3-27.2,97-15.9,97,3.9H59.4z M78.3-6.2c0.1-4.6-3.6-8.5-8.2-8.6
		c-0.1,0-0.2,0-0.4,0c-5.8,0-9.2,3-10.1,8.5H78.3z"/>
	<path class="st0" d="M102-21.2c0.1,2.5-1.9,4.5-4.3,4.6c-2.5,0.1-4.5-1.9-4.6-4.3s1.9-4.5,4.3-4.6c0.1,0,0.1,0,0.2,0
		C100-25.6,101.9-23.7,102-21.2C102-21.3,102-21.3,102-21.2z M94.2-21.2c0,1.9,1.4,3.4,3.3,3.4c0,0,0.1,0,0.1,0
		c1.8,0,3.3-1.5,3.3-3.3c0,0,0-0.1,0-0.1c0.1-1.8-1.3-3.4-3.2-3.5s-3.4,1.3-3.5,3.2C94.2-21.5,94.2-21.4,94.2-21.2z M96.8-19h-1
		v-4.4c0.5-0.1,1.1-0.1,1.7-0.1c0.5-0.1,1,0.1,1.5,0.3c0.3,0.2,0.5,0.6,0.4,0.9c0,0.5-0.4,0.9-0.9,1v0.1c0.4,0.1,0.6,0.5,0.8,1
		c0.1,0.4,0.2,0.7,0.3,1.1h-1.1c-0.2-0.3-0.3-0.7-0.4-1.1c-0.1-0.4-0.3-0.7-0.9-0.7h-0.5V-19z M96.8-21.4h0.5c0.6,0,1-0.2,1-0.6
		s-0.3-0.7-0.9-0.7c-0.2,0-0.4,0-0.6,0V-21.4z"/>
</symbol>
<path class="st0" d="M198.2,193.3h13.1c6.3,0,7.6,3.5,7.6,5.9c0.1,2-1.1,3.9-2.9,4.6c2.6,0.8,4.3,3.2,4.1,5.9c0,4.7-4.1,7.2-8.4,7.2
	h-13.5V193.3z M205.5,202.5h3.9c1.5,0,2.5-0.4,2.5-2c0-1.2-1-1.6-2.5-1.6h-3.9V202.5z M205.5,211.4h4.3c1.5,0,2.9-0.4,2.9-2.3
	c0-1.4-0.8-2.1-2.6-2.1h-4.6V211.4z"/>
<path class="st0" d="M221.2,193.3h7.4V217h-7.4V193.3z"/>
<g>
	<defs>
		<rect id="SVGID_1_" x="101.2" y="193.1" width="89.7" height="24"/>
	</defs>
	<clipPath id="SVGID_2_">
		<use xlink:href="#SVGID_1_"  style="overflow:visible;"/>
	</clipPath>
	<g style="clip-path:url(#SVGID_2_);">
		
			<use xlink:href="#Blue"  width="203.9" height="54.5" x="-102" y="-27.2" transform="matrix(0.44 0 0 0.44 146.0506 205.0576)" style="overflow:visible;"/>
	</g>
</g>
<g>
	<path class="st2" d="M145.5,65.2c-18.4,0-33.2,14.9-33.2,33.2c0,18.4,14.9,33.2,33.2,33.2c18.4,0,33.2-14.9,33.2-33.2
		C178.8,80.1,163.9,65.2,145.5,65.2z M145.5,127.4c-16,0-29-13-29-29c0-16,13-29,29-29s29,13,29,29
		C174.5,114.4,161.6,127.4,145.5,127.4z"/>
	<path class="st3" d="M185,65.2c-18.4,0-33.2,14.9-33.2,33.2c0,18.4,14.9,33.2,33.2,33.2c18.4,0,33.2-14.9,33.2-33.2
		C218.2,80.1,203.3,65.2,185,65.2z M185,127.4c-16,0-29-13-29-29c0-16,13-29,29-29s29,13,29,29C214,114.4,201,127.4,185,127.4z"/>
	<g>
		<path class="st4" d="M131.9,78.3c0,18.4,14.9,33.2,33.2,33.2c18.4,0,33.2-14.9,33.2-33.2c0-18.4-14.9-33.2-33.2-33.2
			C146.8,45,131.9,59.9,131.9,78.3z M194.1,78.3c0,16-13,29-29,29c-16,0-29-13-29-29s13-29,29-29C181.1,49.3,194.1,62.3,194.1,78.3z
			"/>
		<path class="st5" d="M131.9,118.6c0,18.4,14.9,33.2,33.2,33.2c18.4,0,33.2-14.9,33.2-33.2c0-18.4-14.9-33.2-33.2-33.2
			C146.7,85.3,131.9,100.2,131.9,118.6z M194.1,118.6c0,16-13,29-29,29c-16,0-29-13-29-29s13-29,29-29
			C181.1,89.6,194.1,102.6,194.1,118.6z"/>
	</g>
</g>
</svg>
