<svg id="Capa_1" data-name="Capa 1" xmlns="http://www.w3.org/2000/svg" xmlns:xlink="http://www.w3.org/1999/xlink" viewBox="0 0 330 269"><defs><style>.cls-1{fill:#0a1e3f;}.cls-2{fill:#8bb8e8;}.cls-3{fill:#0a1624;}</style><symbol id="Blue" data-name="Blue" viewBox="0 0 203.91 54.48"><path class="cls-1" d="M0,1.18H30.36Q38,1.18,42,4.94a12.17,12.17,0,0,1,4.06,9.29,11.79,11.79,0,0,1-2.89,8,12.76,12.76,0,0,1-5.65,3.5q5.64,1.37,8.29,4.66a12.83,12.83,0,0,1,2.66,8.3A14.28,14.28,0,0,1,46.59,46a14,14,0,0,1-5.2,5.14,17.23,17.23,0,0,1-6.14,1.7,70.72,70.72,0,0,1-7.27.72H0ZM16.32,21.77h7.09q3.82,0,5.32-1.3a4.75,4.75,0,0,0,1.5-3.78,4.43,4.43,0,0,0-1.5-3.57q-1.5-1.29-5.21-1.29h-7.2Zm0,20.51h8.29c2.79,0,4.77-.49,5.91-1.48a4.94,4.94,0,0,0,1.73-4,4.59,4.59,0,0,0-1.7-3.72c-1.15-.93-3.13-1.41-6-1.41H16.32Z"/><path class="cls-2" d="M49.6,1.18H65.76V40.65H91v12.9H49.6Z"/><path class="cls-2" d="M125.07,1.18h16.16V32.4a26.16,26.16,0,0,1-1.45,8.77,18.61,18.61,0,0,1-4.54,7.21,17.91,17.91,0,0,1-6.49,4.35,32.64,32.64,0,0,1-11.34,1.75,70.91,70.91,0,0,1-8.36-.54,22,22,0,0,1-7.57-2.12,19.06,19.06,0,0,1-5.56-4.52,16.56,16.56,0,0,1-3.46-6A31.57,31.57,0,0,1,91,32.4V1.18h16.15v32a9.12,9.12,0,0,0,2.39,6.7,10.28,10.28,0,0,0,13.18,0,9.1,9.1,0,0,0,2.38-6.74Z"/><path class="cls-2" d="M161.4,31.15c.5,5.79,3.86,9.92,10,9.92,3.17,0,6.63-1.18,8.22-3.63h18.31c-4,11-14.75,16.11-26.43,16.11-16.44,0-28.81-9.63-28.81-26.63C142.69,12.09,153.58,0,169.82,0,190.21,0,199,11.3,199,31.15ZM180.21,21a8.4,8.4,0,0,0-8.61-8.55c-5.84,0-9.21,3-10.1,8.55Z"/><path class="cls-1" d="M203.91,6a4.45,4.45,0,1,1-4.41-4.33A4.36,4.36,0,0,1,203.91,6Zm-7.78,0a3.36,3.36,0,0,0,3.37,3.45A3.31,3.31,0,0,0,202.8,6a3.34,3.34,0,1,0-6.67,0Zm2.66,2.24h-1V3.87a12.12,12.12,0,0,1,1.66-.13,2.32,2.32,0,0,1,1.48.34,1.12,1.12,0,0,1,.45.93,1.11,1.11,0,0,1-.9,1v.06c.42.13.63.47.76,1a4.18,4.18,0,0,0,.32,1.06h-1.05a3.41,3.41,0,0,1-.35-1.06c-.08-.44-.34-.66-.89-.66h-.48Zm0-2.43h.47c.55,0,1-.19,1-.63s-.29-.66-.92-.66a2.2,2.2,0,0,0-.55,0Z"/></symbol></defs><path class="cls-1" d="M154.59,150.5a17.39,17.39,0,0,1-17.29-16.72,16,16,0,0,1-14.42-16,16.56,16.56,0,0,1,.18-2.46,21.57,21.57,0,0,1,2.15-36,16,16,0,0,1-.24-2.77,16.27,16.27,0,0,1,12.63-15.9,17.33,17.33,0,0,1,34.33,3.5v68.81A17.42,17.42,0,0,1,154.59,150.5Zm-11.43-17.45a11.45,11.45,0,1,0,22.89,0v-9.67a7.65,7.65,0,0,0-6.6-3.06,13.43,13.43,0,0,0-3.76.55,2.76,2.76,0,0,1-1,.16,2.94,2.94,0,0,1-1-5.72,19.23,19.23,0,0,1,5.7-.86,14.93,14.93,0,0,1,6.58,1.43V92.35a28.25,28.25,0,0,1-3,.17,20.62,20.62,0,0,1-5.67-.75,5.78,5.78,0,0,0-3.82,6.11,2.92,2.92,0,0,1-.72,2.13,2.88,2.88,0,0,1-2,1h-.2a2.94,2.94,0,0,1-2.93-2.75,11.22,11.22,0,0,1,3.78-9.63,12.68,12.68,0,0,1-3.28-4.15,2.94,2.94,0,0,1,5.38-2.38A8.21,8.21,0,0,0,158,85.77a2.61,2.61,0,0,1,.77.27,14.71,14.71,0,0,0,4.28.59,22.18,22.18,0,0,0,3-.21V64.24a11.45,11.45,0,0,0-22.84-1.33,11.22,11.22,0,0,0,5,5.28,2.4,2.4,0,0,1,.53.27A14.89,14.89,0,0,0,155,69.73l1,0h.13a2.94,2.94,0,0,1,2.2,4.92,2.92,2.92,0,0,1-2,1l-1.32,0a20.93,20.93,0,0,1-7.33-1.24,2.68,2.68,0,0,0-.16,1.65,2.94,2.94,0,0,1-.52,2.19,2.89,2.89,0,0,1-1.92,1.18,3.43,3.43,0,0,1-.47,0,3,3,0,0,1-2.9-2.48,8.41,8.41,0,0,1,.86-5.52,17.56,17.56,0,0,1-4.07-4.85,10.37,10.37,0,0,0-7.66,10.06A10.14,10.14,0,0,0,131,78.1c3.19.34,9,1.82,12,7.89a2.94,2.94,0,0,1-1.32,3.94,2.84,2.84,0,0,1-1.31.31,3,3,0,0,1-2.64-1.62c-2.12-4.24-6.53-4.72-8.37-4.73a15.65,15.65,0,0,0-9,14.19,15.89,15.89,0,0,0,5.61,12,17.39,17.39,0,0,1,4.54-3.22A12.3,12.3,0,0,1,132.11,96a3,3,0,0,1,2.37-1.19,2.94,2.94,0,0,1,2.36,4.69,6.56,6.56,0,0,0-.74,5.88c.48,0,1-.06,1.43-.06a18.79,18.79,0,0,1,4.74.63,2.84,2.84,0,0,1,1.79,1.35,2.94,2.94,0,0,1-2.53,4.44,3.07,3.07,0,0,1-.74-.1,13.46,13.46,0,0,0-3.31-.44,10.6,10.6,0,0,0-2.27.24,3.84,3.84,0,0,1-.46.11,10.88,10.88,0,0,0-5.68,3.84,9.93,9.93,0,0,0-.31,2.49,10.09,10.09,0,0,0,10,10.13h.15a10.9,10.9,0,0,1,7.3-2.87,14.16,14.16,0,0,1,8.26,3,2.94,2.94,0,0,1-3.44,4.78,8.56,8.56,0,0,0-4.86-1.9,4.89,4.89,0,0,0-3,1.06Z"/><path class="cls-3" d="M196,89.74l-.2-.45a1,1,0,0,0-1.25-.48.94.94,0,0,0-.47,1.25l.43,1a20,20,0,0,1-10.68,26,.94.94,0,0,0-.51,1.23.93.93,0,0,0,.87.58.89.89,0,0,0,.36-.07,21.9,21.9,0,0,0,11.7-28.49C196.16,90.09,196.08,89.92,196,89.74Z"/><path class="cls-2" d="M213.58,105.2,208.24,103a33,33,0,0,0,0-8.66l5.36-2.22a3.36,3.36,0,0,0,1.75-4.31l-3.84-9.34a3.25,3.25,0,0,0-1.76-1.79,3.29,3.29,0,0,0-2.54,0l-5.32,2.23a31.18,31.18,0,0,0-6-6.1L198,67.4a3.24,3.24,0,0,0,0-2.52,3.29,3.29,0,0,0-1.76-1.81L187,59.18a3.27,3.27,0,0,0-2.53,0A3.2,3.2,0,0,0,182.75,61l-2.18,5.38a32.82,32.82,0,0,0-4.3-.28,1,1,0,0,0-.94,1V83.8a.94.94,0,0,0,.93.94,13.72,13.72,0,0,1,12.68,8.57,13.8,13.8,0,0,1-12.67,19.2.94.94,0,0,0-.94.94v16.81a1,1,0,0,0,.94,1,31.15,31.15,0,0,0,4.3-.32l2.18,5.38a3.25,3.25,0,0,0,1.76,1.79,3.33,3.33,0,0,0,1.28.26,3.49,3.49,0,0,0,1.26-.25l9.25-3.89a3.24,3.24,0,0,0,1.76-1.8,3.16,3.16,0,0,0,0-2.47l-2.19-5.4a30.78,30.78,0,0,0,6-6.13l5.33,2.24a3.31,3.31,0,0,0,2.53,0,3.27,3.27,0,0,0,1.76-1.78l3.84-9.35A3.35,3.35,0,0,0,213.58,105.2Z"/><path class="cls-1" d="M206.63,193.9h7.19l8.69,23.68h-7.62l-1-3.38H206.3l-1.07,3.38h-7.39Zm5.79,15.22-2.14-7.29h-.07l-2.31,7.29Z"/><path class="cls-1" d="M224.14,193.9h7.36v23.68h-7.36Z"/><use width="203.91" height="54.48" transform="translate(96.63 193.66) scale(0.44)" xlink:href="#Blue"/></svg>