<svg xmlns="http://www.w3.org/2000/svg" xmlns:xlink="http://www.w3.org/1999/xlink" viewBox="0 0 330 269"><defs><style>.cls-1{fill:#0a1e3f;}.cls-2{fill:#8bb8e8;}.cls-3{fill:#f17533;}.cls-4{fill:#7d2796;}.cls-5{fill:#96c061;}.cls-6{fill:#fff;}</style><symbol id="Blue" data-name="Blue" viewBox="0 0 203.91 54.48"><path class="cls-1" d="M0,1.18H30.36Q38,1.18,42,4.94a12.17,12.17,0,0,1,4.06,9.29,11.79,11.79,0,0,1-2.89,8,12.76,12.76,0,0,1-5.65,3.5q5.64,1.37,8.29,4.66a12.83,12.83,0,0,1,2.66,8.3A14.28,14.28,0,0,1,46.59,46a14,14,0,0,1-5.2,5.14,17.23,17.23,0,0,1-6.14,1.7,70.72,70.72,0,0,1-7.27.72H0ZM16.32,21.77h7.09q3.82,0,5.32-1.3a4.75,4.75,0,0,0,1.5-3.78,4.43,4.43,0,0,0-1.5-3.57q-1.5-1.29-5.21-1.29h-7.2Zm0,20.51h8.29c2.79,0,4.77-.49,5.91-1.48a4.94,4.94,0,0,0,1.73-4,4.59,4.59,0,0,0-1.7-3.72c-1.15-.93-3.13-1.41-6-1.41H16.32Z"/><path class="cls-2" d="M49.6,1.18H65.76V40.65H91v12.9H49.6Z"/><path class="cls-2" d="M125.07,1.18h16.16V32.4a26.16,26.16,0,0,1-1.45,8.77,18.61,18.61,0,0,1-4.54,7.21,17.91,17.91,0,0,1-6.49,4.35,32.64,32.64,0,0,1-11.34,1.75,70.91,70.91,0,0,1-8.36-.54,22,22,0,0,1-7.57-2.12,19.06,19.06,0,0,1-5.56-4.52,16.56,16.56,0,0,1-3.46-6A31.57,31.57,0,0,1,91,32.4V1.18h16.15v32a9.12,9.12,0,0,0,2.39,6.7,10.28,10.28,0,0,0,13.18,0,9.1,9.1,0,0,0,2.38-6.74Z"/><path class="cls-2" d="M161.4,31.15c.5,5.79,3.86,9.92,10,9.92,3.17,0,6.63-1.18,8.22-3.63h18.31c-4,11-14.75,16.11-26.43,16.11-16.44,0-28.81-9.63-28.81-26.63C142.69,12.09,153.58,0,169.82,0,190.21,0,199,11.3,199,31.15ZM180.21,21a8.4,8.4,0,0,0-8.61-8.55c-5.84,0-9.21,3-10.1,8.55Z"/><path class="cls-1" d="M203.91,6a4.45,4.45,0,1,1-4.41-4.33A4.36,4.36,0,0,1,203.91,6Zm-7.78,0a3.36,3.36,0,0,0,3.37,3.45A3.31,3.31,0,0,0,202.8,6a3.34,3.34,0,1,0-6.67,0Zm2.66,2.24h-1V3.87a12.12,12.12,0,0,1,1.66-.13,2.32,2.32,0,0,1,1.48.34,1.12,1.12,0,0,1,.45.93,1.11,1.11,0,0,1-.9,1v.06c.42.13.63.47.76,1a4.18,4.18,0,0,0,.32,1.06h-1.05a3.41,3.41,0,0,1-.35-1.06c-.08-.44-.34-.66-.89-.66h-.48Zm0-2.43h.47c.55,0,1-.19,1-.63s-.29-.66-.92-.66a2.2,2.2,0,0,0-.55,0Z"/></symbol></defs><g id="Capa_1" data-name="Capa 1"><path class="cls-1" d="M128.08,193h14c4.18,0,7.79,2.29,7.79,6.77,0,2.45-1.14,5-3.58,5.94,2,.76,3.25,2.95,3.52,5.9.09,1.16.13,4,.8,5.08h-7.36a17,17,0,0,1-.6-3.65c-.2-2.26-.4-4.61-3.31-4.61h-3.91v8.26h-7.36Zm7.36,10.35h3.84c1.37,0,3.25-.23,3.25-2.35,0-1.5-.84-2.36-3.65-2.36h-3.44Z"/><path class="cls-1" d="M156.66,209.52c.17,2,1.31,3.35,3.38,3.35a3.34,3.34,0,0,0,2.78-1.22H169c-1.34,3.71-5,5.44-8.93,5.44-5.55,0-9.73-3.25-9.73-9a8.88,8.88,0,0,1,9.17-9.09c6.88,0,9.86,3.81,9.86,10.51Zm6.36-3.41a2.84,2.84,0,0,0-2.91-2.89,3.13,3.13,0,0,0-3.41,2.89Z"/><path class="cls-1" d="M170.43,199.44h6.39v2.29h.06a6.3,6.3,0,0,1,5.69-2.72,5.16,5.16,0,0,1,4.68,2.69c.27-.2,1.6-2.69,5.92-2.69s6,3.05,6,5.84v11.81H192.5v-9.33c0-1.62-.17-3.08-2.18-3.08-1.67,0-2.24,1.29-2.24,3.08v9.33h-6.62v-9.33c0-1.62-.16-3.08-2.17-3.08-1.67,0-2.24,1.29-2.24,3.08v9.33h-6.62Z"/><path class="cls-1" d="M207.73,197.58h-6.61V193h6.61Zm-6.61,1.86h6.61v17.22h-6.61Z"/><path class="cls-1" d="M209.84,199.44h6.38v2.19h.07a6.37,6.37,0,0,1,5.65-2.62c3.11,0,5.95,1.89,5.95,5.84v11.81h-6.62v-9c0-2-.23-3.38-2.17-3.38-1.14,0-2.64.56-2.64,3.32v9.09h-6.62Z"/><path class="cls-1" d="M247.88,216.66h-6.39v-1.89h-.06c-.84,1.09-1.84,2.32-5.08,2.32-4.92,0-7.29-4.81-7.29-9.13,0-4,1.57-9,7.39-9a5.66,5.66,0,0,1,4.74,2.32h.07V193h6.62Zm-9.29-12.87c-2.38,0-2.91,2.22-2.91,4.24s.53,4.28,2.91,4.28,2.9-2.22,2.9-4.28S241,203.79,238.59,203.79Z"/><path class="cls-1" d="M255.4,209.52c.17,2,1.3,3.35,3.37,3.35a3.34,3.34,0,0,0,2.78-1.22h6.18c-1.33,3.71-5,5.44-8.92,5.44-5.55,0-9.73-3.25-9.73-9a8.87,8.87,0,0,1,9.16-9.09c6.89,0,9.86,3.81,9.86,10.51Zm6.35-3.41a2.83,2.83,0,0,0-2.91-2.89,3.13,3.13,0,0,0-3.41,2.89Z"/><path class="cls-1" d="M269.2,199.44h6.35v2.75h.07c1.07-2.05,2.47-3.18,4.88-3.18a7.82,7.82,0,0,1,1.94.26v5.81a6.79,6.79,0,0,0-2.61-.43c-2.6,0-4,1.52-4,5.21v6.8H269.2Z"/><path class="cls-1" d="M292.4,204.45a1.64,1.64,0,0,0-.77-1.3,2.33,2.33,0,0,0-1.47-.49c-.94,0-2,.2-2,1.32,0,.5.4.73.77.9,1.1.46,3.61.6,5.82,1.33s4.14,2,4.14,4.81c0,4.77-4.61,6.07-8.82,6.07s-8.56-1.63-8.66-6.07h6.32a2.1,2.1,0,0,0,.8,1.52,2.75,2.75,0,0,0,1.77.5c.87,0,2.24-.33,2.24-1.33s-.57-1.29-3.64-1.82c-5.05-.86-7.09-2.46-7.09-5.41,0-4.34,4.72-5.47,8.19-5.47,3.75,0,8.26,1,8.43,5.44Z"/><use width="203.91" height="54.48" transform="translate(31.12 192.74) scale(0.44)" xlink:href="#Blue"/></g><g id="Objects"><rect class="cls-2" x="126.05" y="55.9" width="85.21" height="85.21" transform="translate(-8.77 16.84) rotate(-5.57)"/><rect class="cls-3" x="117.99" y="52.48" width="85.21" height="85.21" transform="translate(-6.91 12.77) rotate(-4.46)"/><rect class="cls-4" x="118.56" y="51.79" width="85.21" height="85.21" transform="translate(4.1 -6.68) rotate(2.41)"/><rect class="cls-5" x="125.62" y="57.03" width="85.21" height="85.21" transform="translate(6.26 -9.89) rotate(3.43)"/><path class="cls-6" d="M194.06,69.62l1.72.93-6.34,11.83a10.64,10.64,0,0,1-2.72,3.28h0a.14.14,0,0,1-.23-.11h0a10.67,10.67,0,0,1,1.23-4.09Z"/><path class="cls-1" d="M199.9,76.45a7.43,7.43,0,0,0,.38-6.15l4.61-12.14c.79.21,1.35.22,1.49,0,.27-.5-1.27-1.85-3.44-3s-4.14-1.7-4.41-1.2c-.14.26.18.72.8,1.26l-7.55,10.56a7.39,7.39,0,0,0-4.91,3.73Z"/></g></svg>