<svg xmlns="http://www.w3.org/2000/svg" xmlns:xlink="http://www.w3.org/1999/xlink" viewBox="0 0 330 269"><defs><style>.cls-1{fill:#0a1e3f;}.cls-2{fill:#8bb8e8;}.cls-3{fill:#6d2e87;}.cls-4{fill:#fff;}.cls-5{fill:#d62f8a;}</style><symbol id="Blue" data-name="Blue" viewBox="0 0 203.91 54.48"><path class="cls-1" d="M0,1.18H30.36Q38,1.18,42,4.94a12.17,12.17,0,0,1,4.06,9.29,11.79,11.79,0,0,1-2.89,8,12.76,12.76,0,0,1-5.65,3.5q5.64,1.37,8.29,4.66a12.83,12.83,0,0,1,2.66,8.3A14.28,14.28,0,0,1,46.59,46a14,14,0,0,1-5.2,5.14,17.23,17.23,0,0,1-6.14,1.7,70.72,70.72,0,0,1-7.27.72H0ZM16.32,21.77h7.09q3.82,0,5.32-1.3a4.75,4.75,0,0,0,1.5-3.78,4.43,4.43,0,0,0-1.5-3.57q-1.5-1.29-5.21-1.29h-7.2Zm0,20.51h8.29c2.79,0,4.77-.49,5.91-1.48a4.94,4.94,0,0,0,1.73-4,4.59,4.59,0,0,0-1.7-3.72c-1.15-.93-3.13-1.41-6-1.41H16.32Z"/><path class="cls-2" d="M49.6,1.18H65.76V40.65H91v12.9H49.6Z"/><path class="cls-2" d="M125.07,1.18h16.16V32.4a26.16,26.16,0,0,1-1.45,8.77,18.61,18.61,0,0,1-4.54,7.21,17.91,17.91,0,0,1-6.49,4.35,32.64,32.64,0,0,1-11.34,1.75,70.91,70.91,0,0,1-8.36-.54,22,22,0,0,1-7.57-2.12,19.06,19.06,0,0,1-5.56-4.52,16.56,16.56,0,0,1-3.46-6A31.57,31.57,0,0,1,91,32.4V1.18h16.15v32a9.12,9.12,0,0,0,2.39,6.7,10.28,10.28,0,0,0,13.18,0,9.1,9.1,0,0,0,2.38-6.74Z"/><path class="cls-2" d="M161.4,31.15c.5,5.79,3.86,9.92,10,9.92,3.17,0,6.63-1.18,8.22-3.63h18.31c-4,11-14.75,16.11-26.43,16.11-16.44,0-28.81-9.63-28.81-26.63C142.69,12.09,153.58,0,169.82,0,190.21,0,199,11.3,199,31.15ZM180.21,21a8.4,8.4,0,0,0-8.61-8.55c-5.84,0-9.21,3-10.1,8.55Z"/><path class="cls-1" d="M203.91,6a4.45,4.45,0,1,1-4.41-4.33A4.36,4.36,0,0,1,203.91,6Zm-7.78,0a3.36,3.36,0,0,0,3.37,3.45A3.31,3.31,0,0,0,202.8,6a3.34,3.34,0,1,0-6.67,0Zm2.66,2.24h-1V3.87a12.12,12.12,0,0,1,1.66-.13,2.32,2.32,0,0,1,1.48.34,1.12,1.12,0,0,1,.45.93,1.11,1.11,0,0,1-.9,1v.06c.42.13.63.47.76,1a4.18,4.18,0,0,0,.32,1.06h-1.05a3.41,3.41,0,0,1-.35-1.06c-.08-.44-.34-.66-.89-.66h-.48Zm0-2.43h.47c.55,0,1-.19,1-.63s-.29-.66-.92-.66a2.2,2.2,0,0,0-.55,0Z"/></symbol></defs><g id="Capa_1" data-name="Capa 1"><path class="cls-1" d="M163.45,203.35H158v-4.77c3.38.06,6.72-1.2,6.92-5h5.48v23.09h-7Z"/><path class="cls-1" d="M177.18,205.08h10.47v5.44H177.18Z"/><path class="cls-1" d="M206.5,201.79a3.81,3.81,0,0,0-3.84-3.48c-3.45,0-4.55,3.32-4.55,6.5s1.1,6.51,4.55,6.51c2.47,0,3.44-1.73,3.87-3.95h7.23c0,4.77-3.92,9.85-10.9,9.85-7.73,0-12.11-5.41-12.11-12.41,0-7.46,4.75-12.4,12.11-12.4,6.55,0,10.16,3.45,10.79,9.38Z"/><path class="cls-1" d="M215.19,193h6.62v23.69h-6.62Z"/><path class="cls-1" d="M230.66,197.58H224V193h6.62ZM224,199.44h6.62v17.22H224Z"/><path class="cls-1" d="M244,206a2.31,2.31,0,0,0-.74-1.62,2.39,2.39,0,0,0-1.67-.56c-2.54,0-2.91,2.18-2.91,4.27s.37,4.25,2.91,4.25a2.64,2.64,0,0,0,2.57-2.52h6.32a8,8,0,0,1-3,5.41,9.73,9.73,0,0,1-6,1.89c-5.22,0-9.4-3.59-9.4-9s4.18-9.05,9.4-9.05c4.54,0,8.42,2.22,8.82,7Z"/><path class="cls-1" d="M251.65,193h6.62v11.44l4.21-5H270l-6.18,6.5,7.15,10.72h-8l-3.54-6.24-1.17,1.26v5h-6.62Z"/><use width="203.91" height="54.48" transform="translate(59.06 192.74) scale(0.44)" xlink:href="#Blue"/></g><g id="Objects"><path class="cls-3" d="M217.93,70h-5.37l-2.17,9.21H142.17l-3.65-22.44c-.29-2.05-2.32-4.41-4.41-4.41H114.46a2.21,2.21,0,1,0,0,4.41H129.7c3,0,4,1.49,4.41,4.41l8.83,61.76h66.17v-4.41H147.35l-1.26-8.82h63Zm-15.44,61.76a6.62,6.62,0,1,0,6.62,6.62A6.63,6.63,0,0,0,202.49,131.76Zm-52.94,0a6.62,6.62,0,1,0,6.62,6.62A6.63,6.63,0,0,0,149.55,131.76Z"/><path class="cls-4" d="M193.22,98.35a2.81,2.81,0,0,0-2.81-2.8,2.78,2.78,0,0,0-1.86.72v7.9a.78.78,0,0,1-1.55,0V95.28a2.82,2.82,0,0,0-2.67-2,2.79,2.79,0,0,0-2,.8v10.06a.78.78,0,0,1-1.55,0V94l0-.1a2.8,2.8,0,0,0-5-1.31v11.54a.78.78,0,0,1-1.55,0V84.81a2.85,2.85,0,0,0-5.7-.11v23.74a.77.77,0,0,1-1.45.37l-4.94-9a2.82,2.82,0,0,0-2.25-1.12,2.77,2.77,0,0,0-1.64.53,2.81,2.81,0,0,0-1,3.09l.07.22a3.55,3.55,0,0,0,.21.44l0,.06,11.63,23.83h20.57l3.49-14.72Z"/><path class="cls-5" d="M167.82,127h1.37l0-.07h-1.59A.72.72,0,0,0,167.82,127Z"/><path class="cls-5" d="M189.71,127h1a.82.82,0,0,0,.31-.07h-1.34Z"/><path class="cls-5" d="M191.51,126.38l3.23-13.93a.5.5,0,0,0,0-.17V98.35a4.34,4.34,0,0,0-6.33-3.87.61.61,0,0,0-.17-.19A4.33,4.33,0,0,0,182,92.47,4.36,4.36,0,0,0,178,90a4.31,4.31,0,0,0-2.24.62V84.81a4.41,4.41,0,0,0-8.81,0v20.63l-3.51-6.37-.05-.08a4.4,4.4,0,0,0-3.53-1.8,4.35,4.35,0,0,0-3.72,6.6l11,22.76a.75.75,0,0,0,.44.36h1.59l-11.63-23.83,0-.06a3.55,3.55,0,0,1-.21-.44l-.07-.22a2.81,2.81,0,0,1,1-3.09,2.77,2.77,0,0,1,1.64-.53,2.82,2.82,0,0,1,2.25,1.12l4.94,9a.77.77,0,0,0,1.45-.37V84.7a2.85,2.85,0,0,1,5.7.11v19.36a.78.78,0,0,0,1.55,0V92.63a2.8,2.8,0,0,1,5,1.31l0,.1v10.13a.78.78,0,0,0,1.55,0V94.11a2.79,2.79,0,0,1,2-.8,2.82,2.82,0,0,1,2.67,2v8.89a.78.78,0,0,0,1.55,0v-7.9a2.78,2.78,0,0,1,1.86-.72,2.81,2.81,0,0,1,2.81,2.8v13.84l-3.49,14.72h1.34A.76.76,0,0,0,191.51,126.38Z"/><path class="cls-2" d="M176.54,79.3a1,1,0,0,1-.38-1.43L179.55,72a1.05,1.05,0,1,1,1.82,1.06L178,78.92A1,1,0,0,1,176.54,79.3Z"/><path class="cls-2" d="M171.52,78A1,1,0,0,1,171,77l0-6.77a1.05,1.05,0,0,1,2.1,0V77a1.06,1.06,0,0,1-1.06,1A1,1,0,0,1,171.52,78Z"/><path class="cls-2" d="M166.49,79.29a1,1,0,0,1-.39-.39L162.73,73a1.05,1.05,0,0,1,1.82-1l3.38,5.87a1.05,1.05,0,0,1-1.44,1.44Z"/><path class="cls-2" d="M162.8,83,157,79.56a1,1,0,0,1-.39-1.43,1.05,1.05,0,0,1,1.44-.39l5.86,3.4A1.05,1.05,0,1,1,162.8,83Z"/><path class="cls-2" d="M154.68,88a1,1,0,0,1-.53-.91,1,1,0,0,1,1-1H162a1.05,1.05,0,1,1,0,2.1H155.2A1,1,0,0,1,154.68,88Z"/><path class="cls-2" d="M181.55,88a1.05,1.05,0,0,1,.53-2h6.77a1.06,1.06,0,1,1,0,2.11l-6.76,0A1,1,0,0,1,181.55,88Z"/><path class="cls-2" d="M180.21,83a1.06,1.06,0,0,1-.38-.38,1,1,0,0,1,.39-1.44l5.87-3.37a1,1,0,1,1,1,1.82L181.26,83A1,1,0,0,1,180.21,83Z"/></g></svg>