<svg xmlns="http://www.w3.org/2000/svg" xmlns:xlink="http://www.w3.org/1999/xlink" viewBox="0 0 330 269"><defs><style>.cls-1{fill:#0a1e3f;}.cls-2{fill:#8bb8e8;}.cls-3{fill:none;}.cls-4{fill:#112141;}.cls-5{fill:#fff;}</style><symbol id="Blue" data-name="Blue" viewBox="0 0 203.91 54.48"><path class="cls-1" d="M0,1.18H30.36Q38,1.18,42,4.94a12.17,12.17,0,0,1,4.06,9.29,11.79,11.79,0,0,1-2.89,8,12.76,12.76,0,0,1-5.65,3.5q5.64,1.37,8.29,4.66a12.83,12.83,0,0,1,2.66,8.3A14.28,14.28,0,0,1,46.59,46a14,14,0,0,1-5.2,5.14,17.23,17.23,0,0,1-6.14,1.7,70.72,70.72,0,0,1-7.27.72H0ZM16.32,21.77h7.09q3.82,0,5.32-1.3a4.75,4.75,0,0,0,1.5-3.78,4.43,4.43,0,0,0-1.5-3.57q-1.5-1.29-5.21-1.29h-7.2Zm0,20.51h8.29c2.79,0,4.77-.49,5.91-1.48a4.94,4.94,0,0,0,1.73-4,4.59,4.59,0,0,0-1.7-3.72c-1.15-.93-3.13-1.41-6-1.41H16.32Z"/><path class="cls-2" d="M49.6,1.18H65.76V40.65H91v12.9H49.6Z"/><path class="cls-2" d="M125.07,1.18h16.16V32.4a26.16,26.16,0,0,1-1.45,8.77,18.61,18.61,0,0,1-4.54,7.21,17.91,17.91,0,0,1-6.49,4.35,32.64,32.64,0,0,1-11.34,1.75,70.91,70.91,0,0,1-8.36-.54,22,22,0,0,1-7.57-2.12,19.06,19.06,0,0,1-5.56-4.52,16.56,16.56,0,0,1-3.46-6A31.57,31.57,0,0,1,91,32.4V1.18h16.15v32a9.12,9.12,0,0,0,2.39,6.7,10.28,10.28,0,0,0,13.18,0,9.1,9.1,0,0,0,2.38-6.74Z"/><path class="cls-2" d="M161.4,31.15c.5,5.79,3.86,9.92,10,9.92,3.17,0,6.63-1.18,8.22-3.63h18.31c-4,11-14.75,16.11-26.43,16.11-16.44,0-28.81-9.63-28.81-26.63C142.69,12.09,153.58,0,169.82,0,190.21,0,199,11.3,199,31.15ZM180.21,21a8.4,8.4,0,0,0-8.61-8.55c-5.84,0-9.21,3-10.1,8.55Z"/><path class="cls-1" d="M203.91,6a4.45,4.45,0,1,1-4.41-4.33A4.36,4.36,0,0,1,203.91,6Zm-7.78,0a3.36,3.36,0,0,0,3.37,3.45A3.31,3.31,0,0,0,202.8,6a3.34,3.34,0,1,0-6.67,0Zm2.66,2.24h-1V3.87a12.12,12.12,0,0,1,1.66-.13,2.32,2.32,0,0,1,1.48.34,1.12,1.12,0,0,1,.45.93,1.11,1.11,0,0,1-.9,1v.06c.42.13.63.47.76,1a4.18,4.18,0,0,0,.32,1.06h-1.05a3.41,3.41,0,0,1-.35-1.06c-.08-.44-.34-.66-.89-.66h-.48Zm0-2.43h.47c.55,0,1-.19,1-.63s-.29-.66-.92-.66a2.2,2.2,0,0,0-.55,0Z"/></symbol></defs><g id="OBJECTS-2" data-name="OBJECTS"><path class="cls-3" d="M218.55,123.91a36.16,36.16,0,0,1-10.18,12.79c4.61-1.06,9.15-2.31,13.42-3.68,17.08-5.48,20.28-14.83,25.66-30.94,3.5-10.49-8.53-11.94-24-9.48l.44,1.48C224,94.51,227,105,218.55,123.91Z"/><path class="cls-4" d="M158.11,138.31C154,123.62,166.71,110.76,197,99a160.12,160.12,0,0,1,25-7.55l-2.7-.51c-.26,0-6.67-1.25-24.71-4.23C175.51,83.52,167.36,75.79,167,75.74l-1.26-.16-1.27.16c-.37.05-10,7.78-29.11,10.94-18,3-24.45,4.18-24.71,4.23l-3.88.73-.65,2.55c-.13.52-3.1,12.82,5.34,35.06,7.48,19.72,32.4,31.63,51.46,35.83l2.09.47,2.09-.47c12.84-2.83,28.32-9.16,39.35-19C185.48,151.42,162.1,152.47,158.11,138.31Z"/><path class="cls-4" d="M160.05,137.55c3.79,13.45,26.8,12.56,48.32,6.73a42.12,42.12,0,0,0,10.18-15C227,107,224,94.71,223.89,94.19l-.44-1.73a153.68,153.68,0,0,0-26.07,7.71C173.25,109.55,155.46,121.22,160.05,137.55Z"/><path class="cls-4" d="M244.56,91.57c-5.17-1.82-13.43-1.43-22.5.15l1.18.18.21.7c15.47-2.46,27.5-1,24,9.48-5.38,16.11-8.58,25.46-25.66,30.94-4.27,1.37-8.81,2.62-13.42,3.68-.63.52-1.27,1-1.93,1.53,5.52-1.2,10.87-2.65,15.66-4.18l.53-.18c18.06-6,21.52-16.33,26.75-32C251.08,96.75,249.46,93.29,244.56,91.57Z"/><path class="cls-4" d="M85.93,91.57c5.17-1.82,13.43-1.43,22.5.15l-1.18.18-.2.7c-15.48-2.46-27.51-1-24,9.48,5.38,16.11,8.58,25.46,25.66,30.94,4.27,1.37,8.81,2.62,13.42,3.68.63.52,1.27,1,1.93,1.53-5.52-1.2-10.87-2.65-15.66-4.18l-.53-.18c-18.06-6-21.51-16.33-26.75-32C79.41,96.75,81,93.29,85.93,91.57Z"/><path class="cls-4" d="M197.38,100.17a153.68,153.68,0,0,1,26.07-7.71l-.21-.82-1.18-.22A160.12,160.12,0,0,0,197,99c-30.33,11.79-43.06,24.65-38.93,39.34,4,14.16,27.37,13.11,48.33,7.76.66-.58,1.3-1.18,1.93-1.79-21.52,5.83-44.53,6.72-48.32-6.73"/><path class="cls-5" d="M165,163.06l-.9-.2c-18.18-4-41.95-15.37-49.09-34.16-8.26-21.78-5.4-33.63-5.28-34.13l.28-1.09,1.66-.31c.26,0,6.61-1.24,24.59-4.21,19.06-3.15,28.56-10.87,28.92-10.91l.55-.07.54.07c.36,0,8.41,7.76,27.47,10.91,18,3,24.33,4.16,24.59,4.21l1.66.31.28,1.09c.12.5,3,12.35-5.28,34.13-7.14,18.79-30.91,30.15-49.09,34.16ZM115,96.23c-.46,3.34-1.19,14.28,5.39,31.63,6.49,17.11,27.89,27.57,44.64,31.47,16.75-3.9,38.15-14.36,44.64-31.47,6.61-17.41,5.87-28.3,5.39-31.63-3-.53-9.91-1.75-22.66-3.86-16.29-2.69-24.45-10.5-26.64-10.79-2.2.29-11.81,8.1-28.09,10.79C124.89,94.48,117.93,95.7,115,96.23Z"/><path class="cls-2" d="M165.73,79.78s8.12,7.71,27.32,10.89c18.14,3,24.5,4.19,24.5,4.19s3,11.74-5.24,33.42C205.67,145.78,183.89,157,165,161.2c-18.89-4.17-40.67-15.42-47.31-32.92-8.23-21.68-5.24-33.42-5.24-33.42s6.36-1.2,24.5-4.19C156.15,87.49,165.73,79.78,165.73,79.78Z"/><path class="cls-1" d="M171.13,191h11.21L186,205.89h.07L189.72,191h11.22v25.38h-7.46V200.06h-.07L189,216.34h-5.88l-4.44-16.28h-.07v16.28h-7.45Z"/><path class="cls-1" d="M221.22,212.22a7.39,7.39,0,0,0,.86,4.12h-7.24a4.77,4.77,0,0,1-.25-1.74h-.07c-1.51,1.7-3.69,2.2-6,2.2-3.58,0-6.55-1.7-6.55-5.58,0-5.83,6.88-5.62,10.49-6.29,1-.18,1.94-.47,1.94-1.64s-1.18-1.71-2.33-1.71c-2.18,0-2.62,1.11-2.65,1.89h-6.59a5.32,5.32,0,0,1,3.22-5,15.42,15.42,0,0,1,6.34-1.06c8.89,0,8.82,3.66,8.82,7.21Zm-6.81-4.16a12.43,12.43,0,0,1-2.79.88c-1.58.36-2.41.75-2.41,2a2,2,0,0,0,2.23,1.7,2.81,2.81,0,0,0,3-2.88Z"/><path class="cls-1" d="M233.94,203.26a1.78,1.78,0,0,0-.83-1.39,2.44,2.44,0,0,0-1.57-.53c-1,0-2.15.21-2.15,1.42,0,.53.43.78.82,1,1.18.5,3.87.64,6.24,1.42s4.44,2.13,4.44,5.16c0,5.12-4.95,6.5-9.46,6.5s-9.17-1.74-9.28-6.5h6.77a2.25,2.25,0,0,0,.86,1.63,3,3,0,0,0,1.9.53c.93,0,2.4-.35,2.4-1.42s-.61-1.38-3.91-1.95c-5.41-.93-7.59-2.63-7.59-5.8,0-4.66,5-5.86,8.78-5.86,4,0,8.85,1.1,9,5.83Z"/><path class="cls-1" d="M242.11,191h7.09v12.26l4.51-5.33h8l-6.63,7,7.67,11.48h-8.53l-3.8-6.68L249.2,211v5.33h-7.09Z"/><use width="203.91" height="54.48" transform="translate(67.22 190.7) scale(0.48)" xlink:href="#Blue"/></g></svg>