<svg xmlns="http://www.w3.org/2000/svg" xmlns:xlink="http://www.w3.org/1999/xlink" viewBox="0 0 330 269"><defs><style>.cls-1{fill:#0a1e3f;}.cls-2{fill:#8bb8e8;}.cls-3{fill:#fff;}</style><symbol id="Blue" data-name="Blue" viewBox="0 0 203.91 54.48"><path class="cls-1" d="M0,1.18H30.36Q38,1.18,42,4.94a12.17,12.17,0,0,1,4.06,9.29,11.79,11.79,0,0,1-2.89,8,12.76,12.76,0,0,1-5.65,3.5q5.64,1.37,8.29,4.66a12.83,12.83,0,0,1,2.66,8.3A14.28,14.28,0,0,1,46.59,46a14,14,0,0,1-5.2,5.14,17.23,17.23,0,0,1-6.14,1.7,70.72,70.72,0,0,1-7.27.72H0ZM16.32,21.77h7.09q3.82,0,5.32-1.3a4.75,4.75,0,0,0,1.5-3.78,4.43,4.43,0,0,0-1.5-3.57q-1.5-1.29-5.21-1.29h-7.2Zm0,20.51h8.29c2.79,0,4.77-.49,5.91-1.48a4.94,4.94,0,0,0,1.73-4,4.59,4.59,0,0,0-1.7-3.72c-1.15-.93-3.13-1.41-6-1.41H16.32Z"/><path class="cls-2" d="M49.6,1.18H65.76V40.65H91v12.9H49.6Z"/><path class="cls-2" d="M125.07,1.18h16.16V32.4a26.16,26.16,0,0,1-1.45,8.77,18.61,18.61,0,0,1-4.54,7.21,17.91,17.91,0,0,1-6.49,4.35,32.64,32.64,0,0,1-11.34,1.75,70.91,70.91,0,0,1-8.36-.54,22,22,0,0,1-7.57-2.12,19.06,19.06,0,0,1-5.56-4.52,16.56,16.56,0,0,1-3.46-6A31.57,31.57,0,0,1,91,32.4V1.18h16.15v32a9.12,9.12,0,0,0,2.39,6.7,10.28,10.28,0,0,0,13.18,0,9.1,9.1,0,0,0,2.38-6.74Z"/><path class="cls-2" d="M161.4,31.15c.5,5.79,3.86,9.92,10,9.92,3.17,0,6.63-1.18,8.22-3.63h18.31c-4,11-14.75,16.11-26.43,16.11-16.44,0-28.81-9.63-28.81-26.63C142.69,12.09,153.58,0,169.82,0,190.21,0,199,11.3,199,31.15ZM180.21,21a8.4,8.4,0,0,0-8.61-8.55c-5.84,0-9.21,3-10.1,8.55Z"/><path class="cls-1" d="M203.91,6a4.45,4.45,0,1,1-4.41-4.33A4.36,4.36,0,0,1,203.91,6Zm-7.78,0a3.36,3.36,0,0,0,3.37,3.45A3.31,3.31,0,0,0,202.8,6a3.34,3.34,0,1,0-6.67,0Zm2.66,2.24h-1V3.87a12.12,12.12,0,0,1,1.66-.13,2.32,2.32,0,0,1,1.48.34,1.12,1.12,0,0,1,.45.93,1.11,1.11,0,0,1-.9,1v.06c.42.13.63.47.76,1a4.18,4.18,0,0,0,.32,1.06h-1.05a3.41,3.41,0,0,1-.35-1.06c-.08-.44-.34-.66-.89-.66h-.48Zm0-2.43h.47c.55,0,1-.19,1-.63s-.29-.66-.92-.66a2.2,2.2,0,0,0-.55,0Z"/></symbol></defs><g id="Capa_1" data-name="Capa 1"><path class="cls-1" d="M188.1,216.66H181l-2.58-14.43h-.06l-2.51,14.43h-7.19L162.13,193h7.22l2.9,14.63h.07L175.2,193h6.48l2.81,14.83h.07l3-14.83h7.26Z"/><path class="cls-1" d="M195.52,193h6.62v8.33h.06a6.41,6.41,0,0,1,5.42-2.29c3.11,0,5.95,1.89,5.95,5.84v11.81H207v-9c0-2-.23-3.38-2.17-3.38-1.14,0-2.64.56-2.64,3.32v9.09h-6.62Z"/><path class="cls-1" d="M232.42,212.81a7,7,0,0,0,.8,3.85h-6.75a4.38,4.38,0,0,1-.23-1.63h-.07a7.07,7.07,0,0,1-5.58,2.06c-3.35,0-6.12-1.59-6.12-5.21,0-5.44,6.42-5.24,9.79-5.87.91-.17,1.81-.43,1.81-1.53s-1.1-1.59-2.17-1.59c-2,0-2.44,1-2.48,1.76h-6.15a5,5,0,0,1,3-4.65,14.44,14.44,0,0,1,5.92-1c8.29,0,8.22,3.41,8.22,6.73Zm-6.35-3.88a11.36,11.36,0,0,1-2.61.83c-1.47.33-2.24.69-2.24,1.85a1.9,1.9,0,0,0,2.07,1.6,2.62,2.62,0,0,0,2.78-2.69Z"/><path class="cls-1" d="M242.21,199.44h3.55v4.05h-3.55v6c0,1.59.37,2.29,2,2.29a11,11,0,0,0,1.51-.1v5c-1.34,0-2.85.2-4.25.2-2.81,0-5.92-.44-5.92-5.15v-8.22h-2.94v-4.05h2.94V194.2h6.62Z"/><path class="cls-1" d="M256.22,204.45a1.7,1.7,0,0,0-.77-1.3,2.33,2.33,0,0,0-1.47-.49c-.94,0-2,.2-2,1.32,0,.5.4.73.77.9,1.1.46,3.61.6,5.82,1.33s4.14,2,4.14,4.81c0,4.77-4.61,6.07-8.82,6.07s-8.56-1.63-8.66-6.07h6.32a2.1,2.1,0,0,0,.8,1.52,2.73,2.73,0,0,0,1.77.5c.87,0,2.24-.33,2.24-1.33s-.57-1.29-3.64-1.82c-5.05-.86-7.09-2.46-7.09-5.41,0-4.34,4.71-5.47,8.19-5.47,3.74,0,8.26,1,8.42,5.44Z"/><use width="203.91" height="54.48" transform="translate(67.3 192.74) scale(0.44)" xlink:href="#Blue"/></g><g id="Objects"><path class="cls-1" d="M165.94,55.4a43.25,43.25,0,0,0-43.09,38.82,34,34,0,0,0-.23,4.15,42.61,42.61,0,0,0,8.26,25.22l-5.35,16,16.62-5.29a43.32,43.32,0,0,0,67.11-35.92,31.72,31.72,0,0,0-.12-3.35A43.21,43.21,0,0,0,165.94,55.4Z"/><path class="cls-1" d="M165.94,47.32a51.19,51.19,0,0,0-51.4,48.83,14.68,14.68,0,0,0-.11,2.22,51,51,0,0,0,7.4,26.41l-9.34,27.44,28.58-9.05a51.72,51.72,0,0,0,24.87,6.32c28.46,0,51.57-22.83,51.57-51.12,0-.45-.06-.79-.06-1.25A51.34,51.34,0,0,0,165.94,47.32Zm0,94.09a43.13,43.13,0,0,1-23.79-7.12l-16.62,5.29,5.35-16a42.61,42.61,0,0,1-8.26-25.22,34,34,0,0,1,.23-4.15,43.34,43.34,0,0,1,86.29.8,31.72,31.72,0,0,1,.12,3.35A43.25,43.25,0,0,1,165.94,141.41Z"/><path class="cls-2" d="M165.86,52.08a46.55,46.55,0,0,0-46.74,44.4,13.34,13.34,0,0,0-.1,2c0,8.75,3.08,18,7.33,25l-7.18,21.53,22.8-6.49A52.63,52.63,0,0,0,165.86,145,46.66,46.66,0,0,0,212.74,98.5c0-.41-.05-.72-.05-1.14A46.68,46.68,0,0,0,165.86,52.08Zm.08,89.33a43.13,43.13,0,0,1-23.79-7.12l-16.62,5.29,5.35-16a42.61,42.61,0,0,1-8.26-25.22,34,34,0,0,1,.23-4.15,43.34,43.34,0,0,1,86.29.8,31.72,31.72,0,0,1,.12,3.35A43.25,43.25,0,0,1,165.94,141.41Z"/><path class="cls-3" d="M158.8,110.33h8.54c3.39,0,5.75-1.21,5.75-4.59,0-3.61-2.53-4.81-5.75-4.81H158.8Zm0-16.29h8.26c1.83,0,4.36-1,4.36-3.89s-2.12-4-4.36-4H158.8ZM148.13,77.93h19.16c7.06-.11,14.8,1.72,14.8,10.26a9.21,9.21,0,0,1-5.4,8.26,9.72,9.72,0,0,1,7.06,9.69c0,9.76-7.17,12.74-15.94,12.74H148.13Z"/></g></svg>