<?xml version="1.0" encoding="UTF-8"?><svg id="Capa_1" xmlns="http://www.w3.org/2000/svg" xmlns:xlink="http://www.w3.org/1999/xlink" viewBox="0 0 330 269"><defs><symbol id="Blue_3" viewBox="0 0 203.91 54.49"><path d="m0,53.3h30.36c5.05,0,8.94-1.25,11.65-3.76,2.7-2.5,4.06-5.61,4.06-9.29,0-3.11-.96-5.77-2.89-7.98-1.29-1.48-3.16-2.65-5.64-3.51,3.76-.91,6.52-2.46,8.29-4.66s2.65-4.97,2.65-8.3c0-2.7-.63-5.15-1.9-7.32-1.26-2.16-2.99-3.87-5.2-5.13-1.36-.78-3.4-1.36-6.14-1.7-3.65-.49-6.08-.72-7.27-.72H0v52.37Zm16.32-20.59h7.09c2.55,0,4.32.43,5.31,1.29,1,.88,1.5,2.13,1.5,3.78,0,1.52-.49,2.71-1.5,3.57-1,.86-2.74,1.29-5.21,1.29h-7.2v-9.94h.01Zm0-20.51h8.29c2.8,0,4.77.49,5.91,1.48,1.15.98,1.72,2.31,1.72,3.97,0,1.54-.57,2.78-1.7,3.72-1.15.93-3.13,1.4-5.98,1.4h-8.25v-10.57h0Z" style="fill:#0a1e3f;"/><path d="m49.6,53.3h16.15V13.83h25.25V.93h-41.41v52.37h0Z" style="fill:#95b6e5;"/><path d="m125.07,53.3h16.16v-31.22c0-3.09-.48-6.02-1.45-8.77-.96-2.76-2.48-5.16-4.54-7.21-2.07-2.06-4.22-3.51-6.5-4.35-3.14-1.17-6.93-1.75-11.34-1.75-2.55,0-5.33.18-8.36.54-3.03.35-5.53,1.07-7.57,2.12-2.03,1.06-3.88,2.57-5.56,4.53-1.67,1.95-2.83,3.96-3.45,6.03-1,3.34-1.49,6.29-1.49,8.86v31.22h16.15v-31.99c0-2.86.8-5.1,2.39-6.7,1.58-1.61,3.79-2.41,6.61-2.41s4.99.79,6.57,2.37c1.59,1.59,2.39,3.83,2.39,6.74v31.99h-.01Z" style="fill:#95b6e5;"/><path d="m161.4,23.33c.49-5.8,3.86-9.92,10-9.92,3.17,0,6.63,1.18,8.22,3.64h18.32c-3.96-11.01-14.75-16.11-26.43-16.11-16.43,0-28.81,9.63-28.81,26.63,0,14.84,10.89,26.92,27.13,26.92,20.39,0,29.2-11.3,29.2-31.15h-37.63Zm18.81,10.12c0,4.72-3.56,8.55-8.61,8.55-5.84,0-9.21-3.04-10.1-8.55h18.71Z" style="fill:#95b6e5;"/><path d="m203.91,48.52c0-2.42-1.95-4.35-4.43-4.35s-4.46,1.93-4.46,4.35,1.97,4.33,4.48,4.33,4.4-1.9,4.4-4.33h.01Zm-7.78,0c0-1.92,1.45-3.45,3.38-3.45,1.87-.03,3.3,1.53,3.3,3.43s-1.43,3.48-3.35,3.48-3.32-1.56-3.32-3.46h0Zm2.67-2.24h-1v4.33c.4.05.95.13,1.66.13.82,0,1.19-.13,1.48-.34.27-.18.45-.5.45-.92,0-.53-.4-.87-.9-1.03v-.05c.42-.13.63-.47.77-1.05.13-.66.24-.9.31-1.06h-1.05c-.13.16-.21.53-.34,1.06-.08.44-.34.66-.9.66h-.47v-1.73Zm.02,2.42h.48c.55,0,1,.19,1,.64,0,.4-.29.66-.92.66-.27,0-.45-.02-.56-.05v-1.24h0Z" style="fill:#0a1e3f;"/></symbol><clipPath id="clippath"><rect x="37.67" y="195.73" width="85.64" height="22.88" style="fill:none;"/></clipPath></defs><rect x="95.23" y="51.41" width="141.22" height="93.11" rx="12" ry="12" style="fill:#f17533;"/><path d="m140.32,196.88h6.86l8.29,22.59h-7.27l-.96-3.23h-7.24l-1.02,3.23h-7.05s8.39-22.59,8.39-22.59Zm5.52,14.52l-2.04-6.96h-.06l-2.2,6.96h4.31-.01Z" style="fill:#0a1e3f;"/><path d="m157.06,196.88h6.32v22.59h-6.32v-22.59Z" style="fill:#0a1e3f;"/><path d="m183.85,217.35c0,3.26-.86,7.85-8.61,7.85-3.92,0-8.07-1.04-8.64-5.48h6.25c.06.16.22.38.35.57.38.57,1.05,1.2,1.85,1.2,2.04,0,2.49-2.41,2.49-3.77v-1.52h-.06c-1.02,1.46-2.55,2.28-4.43,2.28-4.88,0-7.08-3.61-7.08-8.01s2.46-7.85,7.18-7.85c1.85,0,3.6.73,4.34,2.41h.06v-1.99h6.32v14.3h-.02Zm-8.74-2.88c2.33,0,2.58-2.22,2.58-4.05s-.89-3.23-2.74-3.23-2.68,1.52-2.68,3.26c0,1.87.57,4.02,2.84,4.02Z" style="fill:#0a1e3f;"/><path d="m195.4,219.89c-6.22,0-9.03-4.08-9.03-8.64s2.81-8.61,9.03-8.61,9.03,4.05,9.03,8.61-2.81,8.64-9.03,8.64Zm0-12.69c-2.39,0-2.71,2.31-2.71,4.05s.32,4.08,2.71,4.08,2.71-2.34,2.71-4.08-.32-4.05-2.71-4.05Z" style="fill:#0a1e3f;"/><path d="m207.16,203.05h6.06v2.63h.06c1.02-1.96,2.36-3.04,4.66-3.04.64,0,1.24.1,1.85.25v5.54c-.64-.22-1.21-.41-2.49-.41-2.49,0-3.83,1.45-3.83,4.97v6.49h-6.32v-16.42h.01Z" style="fill:#0a1e3f;"/><path d="m227.77,201.28h-6.32v-4.4h6.32v4.4Zm-6.32,1.77h6.32v16.42h-6.32v-16.42Z" style="fill:#0a1e3f;"/><path d="m238.96,203.05h3.38v3.86h-3.38v5.73c0,1.52.35,2.18,1.95,2.18.48,0,.96-.03,1.44-.1v4.75c-1.28,0-2.71.19-4.05.19-2.68,0-5.65-.41-5.65-4.9v-7.85h-2.81v-3.86h2.81v-5h6.32v5h-.01Z" style="fill:#0a1e3f;"/><path d="m244.35,196.88h6.32v7.94h.06c1.08-1.27,2.49-2.18,5.17-2.18,2.97,0,5.68,1.8,5.68,5.57v11.27h-6.32v-8.61c0-1.9-.22-3.23-2.07-3.23-1.08,0-2.52.54-2.52,3.16v8.67h-6.32v-22.59h0Z" style="fill:#0a1e3f;"/><path d="m264.98,203.05h6.09v2.18h.06c1.27-1.9,3.13-2.59,5.42-2.59,1.79,0,3.7.92,4.46,2.56.25-.19,1.53-2.56,5.65-2.56s5.68,2.91,5.68,5.57v11.27h-6.32v-8.89c0-1.55-.16-2.94-2.07-2.94-1.59,0-2.14,1.23-2.14,2.94v8.89h-6.32v-8.89c0-1.55-.16-2.94-2.07-2.94-1.59,0-2.14,1.23-2.14,2.94v8.89h-6.32v-16.42h.02Z" style="fill:#0a1e3f;"/><g style="clip-path:url(#clippath); fill:none;"><use width="203.91" height="54.49" transform="translate(37.67 218.61) scale(.42 -.42)" xlink:href="#Blue_3"/></g><path d="m150.87,85.07v8.82l-14.26,5.5,14.26,5.5v9.03l-25.3-10.39v-8.05l25.3-10.39v-.02Z" style="fill:#fff;"/><path d="m154.63,117.94l12.62-39.94h9.8l-12.68,39.94h-9.74Z" style="fill:#7d2796;"/><path d="m180.8,113.91v-8.82l14.26-5.5-14.26-5.5v-9.03l25.3,10.39v8.05l-25.3,10.39v.02Z" style="fill:#fff;"/></svg>