<svg xmlns="http://www.w3.org/2000/svg" xmlns:xlink="http://www.w3.org/1999/xlink" viewBox="0 0 330 269"><defs><style>.cls-1{fill:#0a1e3f;}.cls-2{fill:#8bb8e8;}.cls-3{fill:#7d2796;}</style><symbol id="Blue" data-name="Blue" viewBox="0 0 203.91 54.48"><path class="cls-1" d="M0,1.18H30.36Q38,1.18,42,4.94a12.17,12.17,0,0,1,4.06,9.29,11.79,11.79,0,0,1-2.89,8,12.76,12.76,0,0,1-5.65,3.5q5.64,1.37,8.29,4.66a12.83,12.83,0,0,1,2.66,8.3A14.28,14.28,0,0,1,46.59,46a14,14,0,0,1-5.2,5.14,17.23,17.23,0,0,1-6.14,1.7,70.72,70.72,0,0,1-7.27.72H0ZM16.32,21.77h7.09q3.82,0,5.32-1.3a4.75,4.75,0,0,0,1.5-3.78,4.43,4.43,0,0,0-1.5-3.57q-1.5-1.29-5.21-1.29h-7.2Zm0,20.51h8.29c2.79,0,4.77-.49,5.91-1.48a4.94,4.94,0,0,0,1.73-4,4.59,4.59,0,0,0-1.7-3.72c-1.15-.93-3.13-1.41-6-1.41H16.32Z"/><path class="cls-2" d="M49.6,1.18H65.76V40.65H91v12.9H49.6Z"/><path class="cls-2" d="M125.07,1.18h16.16V32.4a26.16,26.16,0,0,1-1.45,8.77,18.61,18.61,0,0,1-4.54,7.21,17.91,17.91,0,0,1-6.49,4.35,32.64,32.64,0,0,1-11.34,1.75,70.91,70.91,0,0,1-8.36-.54,22,22,0,0,1-7.57-2.12,19.06,19.06,0,0,1-5.56-4.52,16.56,16.56,0,0,1-3.46-6A31.57,31.57,0,0,1,91,32.4V1.18h16.15v32a9.12,9.12,0,0,0,2.39,6.7,10.28,10.28,0,0,0,13.18,0,9.1,9.1,0,0,0,2.38-6.74Z"/><path class="cls-2" d="M161.4,31.15c.5,5.79,3.86,9.92,10,9.92,3.17,0,6.63-1.18,8.22-3.63h18.31c-4,11-14.75,16.11-26.43,16.11-16.44,0-28.81-9.63-28.81-26.63C142.69,12.09,153.58,0,169.82,0,190.21,0,199,11.3,199,31.15ZM180.21,21a8.4,8.4,0,0,0-8.61-8.55c-5.84,0-9.21,3-10.1,8.55Z"/><path class="cls-1" d="M203.91,6a4.45,4.45,0,1,1-4.41-4.33A4.36,4.36,0,0,1,203.91,6Zm-7.78,0a3.36,3.36,0,0,0,3.37,3.45A3.31,3.31,0,0,0,202.8,6a3.34,3.34,0,1,0-6.67,0Zm2.66,2.24h-1V3.87a12.12,12.12,0,0,1,1.66-.13,2.32,2.32,0,0,1,1.48.34,1.12,1.12,0,0,1,.45.93,1.11,1.11,0,0,1-.9,1v.06c.42.13.63.47.76,1a4.18,4.18,0,0,0,.32,1.06h-1.05a3.41,3.41,0,0,1-.35-1.06c-.08-.44-.34-.66-.89-.66h-.48Zm0-2.43h.47c.55,0,1-.19,1-.63s-.29-.66-.92-.66a2.2,2.2,0,0,0-.55,0Z"/></symbol></defs><g id="Capa_1" data-name="Capa 1"><path class="cls-1" d="M142.49,193h14c4.18,0,7.79,2.29,7.79,6.77,0,2.45-1.14,5-3.58,5.94,2,.76,3.24,2.95,3.51,5.9.1,1.16.13,4,.8,5.08h-7.35a16.37,16.37,0,0,1-.6-3.65c-.21-2.26-.41-4.61-3.32-4.61h-3.91v8.26h-7.35Zm7.35,10.35h3.85c1.37,0,3.24-.23,3.24-2.35,0-1.5-.83-2.36-3.64-2.36h-3.45Z"/><path class="cls-1" d="M171.07,209.52c.17,2,1.3,3.35,3.37,3.35a3.34,3.34,0,0,0,2.78-1.22h6.18c-1.33,3.71-5,5.44-8.92,5.44-5.55,0-9.73-3.25-9.73-9a8.87,8.87,0,0,1,9.16-9.09c6.89,0,9.86,3.81,9.86,10.51Zm6.35-3.41a2.83,2.83,0,0,0-2.91-2.89,3.13,3.13,0,0,0-3.41,2.89Z"/><path class="cls-1" d="M184.87,199.44h6.38v1.89h.07c.84-1.09,1.84-2.32,5.08-2.32,4.92,0,7.29,4.81,7.29,9.12,0,4.05-1.57,9-7.39,9a5.69,5.69,0,0,1-4.74-2.32h-.07v7.46h-6.62Zm9.29,12.87c2.38,0,2.91-2.22,2.91-4.25s-.53-4.27-2.91-4.27-2.91,2.22-2.91,4.27S191.79,212.31,194.16,212.31Z"/><path class="cls-1" d="M213.58,217.09c-6.52,0-9.46-4.28-9.46-9.06s2.94-9,9.46-9,9.46,4.24,9.46,9S220.1,217.09,213.58,217.09Zm0-13.3c-2.5,0-2.84,2.42-2.84,4.24s.34,4.28,2.84,4.28,2.85-2.45,2.85-4.28S216.09,203.79,213.58,203.79Z"/><path class="cls-1" d="M224.24,199.44h6.36v2.75h.06c1.07-2.05,2.48-3.18,4.88-3.18a7.82,7.82,0,0,1,1.94.26v5.81a6.74,6.74,0,0,0-2.6-.43c-2.61,0-4,1.52-4,5.21v6.8h-6.62Z"/><path class="cls-1" d="M247.88,199.44h3.54v4.05h-3.54v6c0,1.59.36,2.29,2,2.29a10.8,10.8,0,0,0,1.5-.1v5c-1.34,0-2.84.2-4.25.2-2.8,0-5.91-.44-5.91-5.15v-8.22h-2.95v-4.05h2.95V194.2h6.62Z"/><path class="cls-1" d="M257.44,209.52c.16,2,1.3,3.35,3.37,3.35a3.34,3.34,0,0,0,2.78-1.22h6.18c-1.34,3.71-5,5.44-8.92,5.44-5.55,0-9.73-3.25-9.73-9a8.87,8.87,0,0,1,9.16-9.09c6.88,0,9.86,3.81,9.86,10.51Zm6.35-3.41a2.84,2.84,0,0,0-2.91-2.89,3.13,3.13,0,0,0-3.41,2.89Z"/><path class="cls-1" d="M271.24,199.44h6.35v2.75h.07c1.07-2.05,2.47-3.18,4.88-3.18a7.89,7.89,0,0,1,1.94.26v5.81a6.79,6.79,0,0,0-2.61-.43c-2.61,0-4,1.52-4,5.21v6.8h-6.62Z"/><use width="203.91" height="54.48" transform="translate(45.53 192.74) scale(0.44)" xlink:href="#Blue"/></g><g id="Objects"><path class="cls-3" d="M129.63,150.92h70.73a4.24,4.24,0,0,0,4.24-4.23V71.23a7.37,7.37,0,0,0-2.32-5.11L182.05,48.37a8.56,8.56,0,0,0-5.1-1.92H129.63a4.24,4.24,0,0,0-4.23,4.24v96A4.24,4.24,0,0,0,129.63,150.92ZM181.14,56l12.45,10.92H181.14ZM131.75,52.8h43V69.06A4.24,4.24,0,0,0,179,73.29h19.23v71.29h-66.5V52.8Z"/><rect class="cls-2" x="141.66" y="93.1" width="6.22" height="6.22"/><rect class="cls-2" x="153.36" y="93.1" width="34.99" height="6.22"/><rect class="cls-1" x="141.66" y="107.33" width="6.22" height="6.22"/><rect class="cls-2" x="153.36" y="107.33" width="34.99" height="6.22"/><rect class="cls-2" x="141.66" y="121.56" width="6.22" height="6.22"/><rect class="cls-2" x="153.36" y="121.56" width="34.99" height="6.22"/></g></svg>