<svg id="Capa_1" data-name="Capa 1" xmlns="http://www.w3.org/2000/svg" xmlns:xlink="http://www.w3.org/1999/xlink" viewBox="0 0 330 269"><defs><style>.cls-1{fill:#0a1e3f;}.cls-2{fill:#8bb8e8;}.cls-3{fill:#d62f8a;}.cls-4{fill:#fff;}.cls-5{fill:#f7f6f6;}.cls-6{fill:#f6f6f6;}</style><symbol id="Blue" data-name="Blue" viewBox="0 0 203.91 54.48"><path class="cls-1" d="M0,1.18H30.36Q38,1.18,42,4.94a12.17,12.17,0,0,1,4.06,9.29,11.79,11.79,0,0,1-2.89,8,12.76,12.76,0,0,1-5.65,3.5q5.64,1.37,8.29,4.66a12.83,12.83,0,0,1,2.66,8.3A14.28,14.28,0,0,1,46.59,46a14,14,0,0,1-5.2,5.14,17.23,17.23,0,0,1-6.14,1.7,70.72,70.72,0,0,1-7.27.72H0ZM16.32,21.77h7.09q3.82,0,5.32-1.3a4.75,4.75,0,0,0,1.5-3.78,4.43,4.43,0,0,0-1.5-3.57q-1.5-1.29-5.21-1.29h-7.2Zm0,20.51h8.29c2.79,0,4.77-.49,5.91-1.48a4.94,4.94,0,0,0,1.73-4,4.59,4.59,0,0,0-1.7-3.72c-1.15-.93-3.13-1.41-6-1.41H16.32Z"/><path class="cls-2" d="M49.6,1.18H65.76V40.65H91v12.9H49.6Z"/><path class="cls-2" d="M125.07,1.18h16.16V32.4a26.16,26.16,0,0,1-1.45,8.77,18.61,18.61,0,0,1-4.54,7.21,17.91,17.91,0,0,1-6.49,4.35,32.64,32.64,0,0,1-11.34,1.75,70.91,70.91,0,0,1-8.36-.54,22,22,0,0,1-7.57-2.12,19.06,19.06,0,0,1-5.56-4.52,16.56,16.56,0,0,1-3.46-6A31.57,31.57,0,0,1,91,32.4V1.18h16.15v32a9.12,9.12,0,0,0,2.39,6.7,10.28,10.28,0,0,0,13.18,0,9.1,9.1,0,0,0,2.38-6.74Z"/><path class="cls-2" d="M161.4,31.15c.5,5.79,3.86,9.92,10,9.92,3.17,0,6.63-1.18,8.22-3.63h18.31c-4,11-14.75,16.11-26.43,16.11-16.44,0-28.81-9.63-28.81-26.63C142.69,12.09,153.58,0,169.82,0,190.21,0,199,11.3,199,31.15ZM180.21,21a8.4,8.4,0,0,0-8.61-8.55c-5.84,0-9.21,3-10.1,8.55Z"/><path class="cls-1" d="M203.91,6a4.45,4.45,0,1,1-4.41-4.33A4.36,4.36,0,0,1,203.91,6Zm-7.78,0a3.36,3.36,0,0,0,3.37,3.45A3.31,3.31,0,0,0,202.8,6a3.34,3.34,0,1,0-6.67,0Zm2.66,2.24h-1V3.87a12.12,12.12,0,0,1,1.66-.13,2.32,2.32,0,0,1,1.48.34,1.12,1.12,0,0,1,.45.93,1.11,1.11,0,0,1-.9,1v.06c.42.13.63.47.76,1a4.18,4.18,0,0,0,.32,1.06h-1.05a3.41,3.41,0,0,1-.35-1.06c-.08-.44-.34-.66-.89-.66h-.48Zm0-2.43h.47c.55,0,1-.19,1-.63s-.29-.66-.92-.66a2.2,2.2,0,0,0-.55,0Z"/></symbol></defs><path class="cls-1" d="M120.55,209.77c.17,2,1.3,3.36,3.37,3.36a3.34,3.34,0,0,0,2.78-1.23h6.18c-1.33,3.71-5,5.44-8.92,5.44-5.55,0-9.73-3.25-9.73-9a8.87,8.87,0,0,1,9.16-9.09c6.89,0,9.86,3.81,9.86,10.51Zm6.35-3.41a2.84,2.84,0,0,0-2.91-2.89,3.13,3.13,0,0,0-3.41,2.89Z"/><path class="cls-1" d="M133.28,205.33h10.46v5.44H133.28Z"/><path class="cls-1" d="M159.76,202.05a3.83,3.83,0,0,0-3.85-3.49c-3.44,0-4.54,3.32-4.54,6.5s1.1,6.51,4.54,6.51c2.48,0,3.45-1.73,3.88-3.95H167c0,4.78-3.91,9.85-10.9,9.85-7.72,0-12.1-5.41-12.1-12.41,0-7.46,4.75-12.4,12.1-12.4,6.55,0,10.17,3.45,10.8,9.39Z"/><path class="cls-1" d="M177.87,217.34c-6.52,0-9.46-4.28-9.46-9.06s2.94-9,9.46-9,9.46,4.25,9.46,9S184.39,217.34,177.87,217.34Zm0-13.3c-2.51,0-2.84,2.42-2.84,4.24s.33,4.28,2.84,4.28,2.84-2.45,2.84-4.28S180.38,204,177.87,204Z"/><path class="cls-1" d="M187.66,199.69h6.39V202h.06a6.3,6.3,0,0,1,5.69-2.72,5.16,5.16,0,0,1,4.68,2.69c.26-.2,1.6-2.69,5.92-2.69s5.95,3.05,5.95,5.84v11.81h-6.62v-9.32c0-1.63-.17-3.09-2.18-3.09-1.67,0-2.24,1.29-2.24,3.09v9.32h-6.62v-9.32c0-1.63-.16-3.09-2.17-3.09-1.67,0-2.24,1.29-2.24,3.09v9.32h-6.62Z"/><path class="cls-1" d="M217.34,199.69h6.39V202h.06a6.3,6.3,0,0,1,5.69-2.72,5.16,5.16,0,0,1,4.68,2.69c.27-.2,1.6-2.69,5.92-2.69s5.95,3.05,5.95,5.84v11.81h-6.62v-9.32c0-1.63-.17-3.09-2.18-3.09-1.67,0-2.24,1.29-2.24,3.09v9.32h-6.62v-9.32c0-1.63-.16-3.09-2.17-3.09-1.67,0-2.24,1.29-2.24,3.09v9.32h-6.62Z"/><path class="cls-1" d="M252.64,209.77c.17,2,1.3,3.36,3.38,3.36a3.31,3.31,0,0,0,2.77-1.23H265c-1.34,3.71-5,5.44-8.93,5.44-5.55,0-9.73-3.25-9.73-9a8.87,8.87,0,0,1,9.16-9.09c6.89,0,9.86,3.81,9.86,10.51Zm6.35-3.41a2.84,2.84,0,0,0-2.91-2.89,3.13,3.13,0,0,0-3.41,2.89Z"/><path class="cls-1" d="M265.61,199.69H272v2.75H272a5.07,5.07,0,0,1,4.88-3.18,7.74,7.74,0,0,1,1.93.26v5.81a6.7,6.7,0,0,0-2.6-.43c-2.61,0-4,1.52-4,5.21v6.8h-6.62Z"/><path class="cls-1" d="M290.71,206.23a2.32,2.32,0,0,0-.74-1.63,2.44,2.44,0,0,0-1.67-.56c-2.54,0-2.91,2.19-2.91,4.28s.37,4.24,2.91,4.24a2.66,2.66,0,0,0,2.58-2.52h6.32a8,8,0,0,1-3,5.41,9.76,9.76,0,0,1-6,1.89c-5.22,0-9.39-3.58-9.39-9s4.17-9.06,9.39-9.06c4.55,0,8.42,2.22,8.82,7Z"/><path class="cls-1" d="M303.84,209.77c.17,2,1.31,3.36,3.38,3.36A3.34,3.34,0,0,0,310,211.9h6.18c-1.34,3.71-5,5.44-8.93,5.44-5.55,0-9.72-3.25-9.72-9a8.87,8.87,0,0,1,9.16-9.09c6.88,0,9.86,3.81,9.86,10.51Zm6.36-3.41a2.85,2.85,0,0,0-2.91-2.89,3.13,3.13,0,0,0-3.41,2.89Z"/><use width="203.91" height="54.48" transform="translate(13.45 192.99) scale(0.44)" xlink:href="#Blue"/><path class="cls-3" d="M149.89,129c-1.49-.14-2.88-.21-4.26-.41a8.6,8.6,0,0,1-7.63-7,8.78,8.78,0,0,1,3.69-9c.91-.64,1.61-1,1.3-2.44q-5.09-22.36-10-44.75c-.41-1.89-1.23-2.5-3.18-2.42-4,.18-8,0-12,.07-2.12,0-3.86-.6-3.93-2.95s1.63-3.08,3.77-3.07c5.41,0,10.82,0,16.24,0,2.33,0,3.61,1,4,3.29.38,2.09,1.12,4.11,1.37,6.21s1.16,2.49,3.11,2.49q34.2-.11,68.41-.05c.71,0,1.42,0,2.13,0,2.37.22,3.57,1.77,2.93,4-3.89,13.77-7.84,27.51-11.76,41.27-.63,2.22-2.2,2.67-4.28,2.66q-25.41-.06-50.84,0c-3.63,0-5.29.94-5.28,3s1.68,3,5.32,3q24.88,0,49.78,0a16.51,16.51,0,0,1,2.9.2,2.87,2.87,0,0,1,0,5.62c-1.18.21-2.39.25-3.74.38,5.16,3.16,7,7,5.75,11.37a9,9,0,0,1-9.37,6.29,8.88,8.88,0,0,1-8.05-6.94c-.9-4.49,1.2-8.28,5.78-10.41-1.82-.58-32.22-.78-36.31-.25,5.15,3.27,6.84,6.68,5.52,11.18a8.61,8.61,0,0,1-8.66,6.46,8.73,8.73,0,0,1-8.53-6.67C142.92,135.71,144.7,132.25,149.89,129Z"/><path class="cls-4" d="M175.16,74.88c10.47,0,20.94.06,31.4,0,2.14,0,2.56.47,2,2.5q-4.62,15.75-9.07,31.55c-.37,1.33-.79,2-2.44,2-15.26-.09-30.51-.07-45.77,0-1.49,0-2.15-.36-2.48-1.9-2.31-10.7-4.71-21.39-7.13-32.07-.4-1.76.24-2.07,1.87-2.06C154.06,74.92,164.61,74.88,175.16,74.88Z"/><path class="cls-5" d="M152.81,140.79c-2-.22-3-1.28-2.92-3.14a2.67,2.67,0,0,1,2.88-2.78,2.77,2.77,0,0,1,3,3A2.89,2.89,0,0,1,152.81,140.79Z"/><path class="cls-6" d="M195.21,140.79c-1.93-.15-3-1.22-3-3a2.72,2.72,0,0,1,2.86-2.87A2.65,2.65,0,0,1,198,137.6C198.1,139.53,197.05,140.53,195.21,140.79Z"/></svg>