<svg id="Capa_1" data-name="Capa 1" xmlns="http://www.w3.org/2000/svg" xmlns:xlink="http://www.w3.org/1999/xlink" viewBox="0 0 330 269"><defs><style>.cls-1{fill:#0a1e3f;}.cls-2{fill:#8bb8e8;}.cls-3{fill:#96c061;}.cls-4{fill:#7d2796;}.cls-5{fill:#f17533;}.cls-6{fill:#d62f8a;}</style><symbol id="Blue" data-name="Blue" viewBox="0 0 203.91 54.48"><path class="cls-1" d="M0,1.18H30.36Q38,1.18,42,4.94a12.17,12.17,0,0,1,4.06,9.29,11.79,11.79,0,0,1-2.89,8,12.76,12.76,0,0,1-5.65,3.5q5.64,1.37,8.29,4.66a12.83,12.83,0,0,1,2.66,8.3A14.28,14.28,0,0,1,46.59,46a14,14,0,0,1-5.2,5.14,17.23,17.23,0,0,1-6.14,1.7,70.72,70.72,0,0,1-7.27.72H0ZM16.32,21.77h7.09q3.82,0,5.32-1.3a4.75,4.75,0,0,0,1.5-3.78,4.43,4.43,0,0,0-1.5-3.57q-1.5-1.29-5.21-1.29h-7.2Zm0,20.51h8.29c2.79,0,4.77-.49,5.91-1.48a4.94,4.94,0,0,0,1.73-4,4.59,4.59,0,0,0-1.7-3.72c-1.15-.93-3.13-1.41-6-1.41H16.32Z"/><path class="cls-2" d="M49.6,1.18H65.76V40.65H91v12.9H49.6Z"/><path class="cls-2" d="M125.07,1.18h16.16V32.4a26.16,26.16,0,0,1-1.45,8.77,18.61,18.61,0,0,1-4.54,7.21,17.91,17.91,0,0,1-6.49,4.35,32.64,32.64,0,0,1-11.34,1.75,70.91,70.91,0,0,1-8.36-.54,22,22,0,0,1-7.57-2.12,19.06,19.06,0,0,1-5.56-4.52,16.56,16.56,0,0,1-3.46-6A31.57,31.57,0,0,1,91,32.4V1.18h16.15v32a9.12,9.12,0,0,0,2.39,6.7,10.28,10.28,0,0,0,13.18,0,9.1,9.1,0,0,0,2.38-6.74Z"/><path class="cls-2" d="M161.4,31.15c.5,5.79,3.86,9.92,10,9.92,3.17,0,6.63-1.18,8.22-3.63h18.31c-4,11-14.75,16.11-26.43,16.11-16.44,0-28.81-9.63-28.81-26.63C142.69,12.09,153.58,0,169.82,0,190.21,0,199,11.3,199,31.15ZM180.21,21a8.4,8.4,0,0,0-8.61-8.55c-5.84,0-9.21,3-10.1,8.55Z"/><path class="cls-1" d="M203.91,6a4.45,4.45,0,1,1-4.41-4.33A4.36,4.36,0,0,1,203.91,6Zm-7.78,0a3.36,3.36,0,0,0,3.37,3.45A3.31,3.31,0,0,0,202.8,6a3.34,3.34,0,1,0-6.67,0Zm2.66,2.24h-1V3.87a12.12,12.12,0,0,1,1.66-.13,2.32,2.32,0,0,1,1.48.34,1.12,1.12,0,0,1,.45.93,1.11,1.11,0,0,1-.9,1v.06c.42.13.63.47.76,1a4.18,4.18,0,0,0,.32,1.06h-1.05a3.41,3.41,0,0,1-.35-1.06c-.08-.44-.34-.66-.89-.66h-.48Zm0-2.43h.47c.55,0,1-.19,1-.63s-.29-.66-.92-.66a2.2,2.2,0,0,0-.55,0Z"/></symbol></defs><path class="cls-1" d="M145.32,202.09a3.81,3.81,0,0,0-3.85-3.48c-3.44,0-4.54,3.31-4.54,6.5s1.1,6.5,4.54,6.5c2.48,0,3.45-1.72,3.88-4h7.22c0,4.78-3.91,9.86-10.9,9.86-7.72,0-12.1-5.41-12.1-12.41,0-7.46,4.75-12.41,12.1-12.41,6.56,0,10.17,3.45,10.8,9.39Z"/><path class="cls-1" d="M171.62,213.1a6.87,6.87,0,0,0,.81,3.85h-6.76a4.78,4.78,0,0,1-.23-1.62h-.07c-1.4,1.59-3.44,2-5.58,2-3.34,0-6.12-1.59-6.12-5.21,0-5.44,6.42-5.24,9.8-5.87.9-.16,1.8-.43,1.8-1.52s-1.1-1.59-2.17-1.59c-2,0-2.44,1-2.48,1.75h-6.15a5,5,0,0,1,3-4.64,14.28,14.28,0,0,1,5.92-1c8.29,0,8.22,3.42,8.22,6.74Zm-6.35-3.88a11.21,11.21,0,0,1-2.61.83c-1.47.33-2.24.7-2.24,1.86a1.9,1.9,0,0,0,2.08,1.59,2.61,2.61,0,0,0,2.77-2.69Z"/><path class="cls-1" d="M182.25,199.73h3.54v4.05h-3.54v6c0,1.59.37,2.29,2,2.29a12.59,12.59,0,0,0,1.5-.1v5c-1.33,0-2.84.2-4.24.2-2.81,0-5.92-.43-5.92-5.14v-8.23h-2.94v-4.05h2.94v-5.24h6.62Z"/><path class="cls-1" d="M204.65,213.1a6.86,6.86,0,0,0,.8,3.85H198.7a4.56,4.56,0,0,1-.24-1.62h-.06a7.1,7.1,0,0,1-5.59,2c-3.34,0-6.12-1.59-6.12-5.21,0-5.44,6.42-5.24,9.8-5.87.9-.16,1.81-.43,1.81-1.52s-1.11-1.59-2.18-1.59c-2,0-2.44,1-2.47,1.75H187.5a5,5,0,0,1,3-4.64,14.23,14.23,0,0,1,5.91-1c8.29,0,8.23,3.42,8.23,6.74Zm-6.35-3.88a11.52,11.52,0,0,1-2.61.83c-1.47.33-2.24.7-2.24,1.86a1.9,1.9,0,0,0,2.07,1.59,2.63,2.63,0,0,0,2.78-2.69Z"/><path class="cls-1" d="M207.45,193.27h6.62V217h-6.62Z"/><path class="cls-1" d="M225.73,217.38c-6.51,0-9.46-4.28-9.46-9s2.95-9,9.46-9,9.47,4.25,9.47,9S232.25,217.38,225.73,217.38Zm0-13.3c-2.5,0-2.84,2.42-2.84,4.25s.34,4.28,2.84,4.28,2.85-2.46,2.85-4.28S228.24,204.08,225.73,204.08Z"/><path class="cls-1" d="M254.92,214.73c0,3.42-.91,8.23-9,8.23-4.11,0-8.46-1.1-9.06-5.74h6.55a4.62,4.62,0,0,0,.37.59,2.54,2.54,0,0,0,1.94,1.26c2.14,0,2.61-2.52,2.61-3.94v-1.6h-.07a5.46,5.46,0,0,1-4.65,2.39c-5.11,0-7.42-3.78-7.42-8.39s2.58-8.23,7.52-8.23a4.69,4.69,0,0,1,4.55,2.52h.07v-2.09h6.62Zm-9.16-3c2.44,0,2.7-2.32,2.7-4.25s-.93-3.38-2.87-3.38-2.81,1.59-2.81,3.42S243.38,211.71,245.76,211.71Z"/><path class="cls-1" d="M275.51,217h-6.39v-2.19h-.07a6.36,6.36,0,0,1-5.65,2.62c-3.11,0-5.95-1.89-5.95-5.84V199.73h6.62v9c0,2,.24,3.38,2.17,3.38,1.14,0,2.65-.56,2.65-3.32v-9.09h6.62Z"/><path class="cls-1" d="M283.86,209.82c.17,2,1.3,3.35,3.37,3.35a3.32,3.32,0,0,0,2.78-1.23h6.18c-1.33,3.72-5,5.44-8.92,5.44-5.55,0-9.73-3.25-9.73-9a8.87,8.87,0,0,1,9.16-9.09c6.89,0,9.86,3.82,9.86,10.52Zm6.35-3.42a2.83,2.83,0,0,0-2.91-2.88,3.13,3.13,0,0,0-3.41,2.88Z"/><use width="203.91" height="54.48" transform="translate(33.31 193.03) scale(0.44)" xlink:href="#Blue"/><rect class="cls-3" x="89.79" y="60.92" width="41.59" height="32.29" rx="6"/><rect class="cls-4" x="144.21" y="60.92" width="41.59" height="32.29" rx="6"/><rect class="cls-2" x="198.62" y="60.92" width="41.59" height="32.29" rx="6"/><rect class="cls-5" x="89.79" y="104.72" width="41.59" height="32.29" rx="6"/><rect class="cls-6" x="144.21" y="104.72" width="41.59" height="32.29" rx="6"/><rect class="cls-1" x="198.62" y="104.72" width="41.59" height="32.29" rx="6"/></svg>