<svg xmlns="http://www.w3.org/2000/svg" xmlns:xlink="http://www.w3.org/1999/xlink" viewBox="0 0 330 269"><defs><style>.cls-1{fill:#0a1e3f;}.cls-2{fill:#8bb8e8;}.cls-3{fill:#fff;}</style><symbol id="Blue" data-name="Blue" viewBox="0 0 203.91 54.48"><path class="cls-1" d="M0,1.18H30.36Q38,1.18,42,4.94a12.17,12.17,0,0,1,4.06,9.29,11.79,11.79,0,0,1-2.89,8,12.76,12.76,0,0,1-5.65,3.5q5.64,1.37,8.29,4.66a12.83,12.83,0,0,1,2.66,8.3A14.28,14.28,0,0,1,46.59,46a14,14,0,0,1-5.2,5.14,17.23,17.23,0,0,1-6.14,1.7,70.72,70.72,0,0,1-7.27.72H0ZM16.32,21.77h7.09q3.82,0,5.32-1.3a4.75,4.75,0,0,0,1.5-3.78,4.43,4.43,0,0,0-1.5-3.57q-1.5-1.29-5.21-1.29h-7.2Zm0,20.51h8.29c2.79,0,4.77-.49,5.91-1.48a4.94,4.94,0,0,0,1.73-4,4.59,4.59,0,0,0-1.7-3.72c-1.15-.93-3.13-1.41-6-1.41H16.32Z"/><path class="cls-2" d="M49.6,1.18H65.76V40.65H91v12.9H49.6Z"/><path class="cls-2" d="M125.07,1.18h16.16V32.4a26.16,26.16,0,0,1-1.45,8.77,18.61,18.61,0,0,1-4.54,7.21,17.91,17.91,0,0,1-6.49,4.35,32.64,32.64,0,0,1-11.34,1.75,70.91,70.91,0,0,1-8.36-.54,22,22,0,0,1-7.57-2.12,19.06,19.06,0,0,1-5.56-4.52,16.56,16.56,0,0,1-3.46-6A31.57,31.57,0,0,1,91,32.4V1.18h16.15v32a9.12,9.12,0,0,0,2.39,6.7,10.28,10.28,0,0,0,13.18,0,9.1,9.1,0,0,0,2.38-6.74Z"/><path class="cls-2" d="M161.4,31.15c.5,5.79,3.86,9.92,10,9.92,3.17,0,6.63-1.18,8.22-3.63h18.31c-4,11-14.75,16.11-26.43,16.11-16.44,0-28.81-9.63-28.81-26.63C142.69,12.09,153.58,0,169.82,0,190.21,0,199,11.3,199,31.15ZM180.21,21a8.4,8.4,0,0,0-8.61-8.55c-5.84,0-9.21,3-10.1,8.55Z"/><path class="cls-1" d="M203.91,6a4.45,4.45,0,1,1-4.41-4.33A4.36,4.36,0,0,1,203.91,6Zm-7.78,0a3.36,3.36,0,0,0,3.37,3.45A3.31,3.31,0,0,0,202.8,6a3.34,3.34,0,1,0-6.67,0Zm2.66,2.24h-1V3.87a12.12,12.12,0,0,1,1.66-.13,2.32,2.32,0,0,1,1.48.34,1.12,1.12,0,0,1,.45.93,1.11,1.11,0,0,1-.9,1v.06c.42.13.63.47.76,1a4.18,4.18,0,0,0,.32,1.06h-1.05a3.41,3.41,0,0,1-.35-1.06c-.08-.44-.34-.66-.89-.66h-.48Zm0-2.43h.47c.55,0,1-.19,1-.63s-.29-.66-.92-.66a2.2,2.2,0,0,0-.55,0Z"/></symbol></defs><g id="Capa_1" data-name="Capa 1"><path class="cls-1" d="M109,193h7.52l7,12.67h.06V193h7v23.69h-7.16L116,203.72H116v12.94h-7Z"/><path class="cls-1" d="M142.12,217.09c-6.51,0-9.46-4.28-9.46-9.06s3-9,9.46-9,9.47,4.24,9.47,9S148.64,217.09,142.12,217.09Zm0-13.3c-2.5,0-2.84,2.42-2.84,4.24s.34,4.28,2.84,4.28S145,209.86,145,208,144.63,203.79,142.12,203.79Z"/><path class="cls-1" d="M161.58,199.44h3.54v4.05h-3.54v6c0,1.59.37,2.29,2,2.29a10.8,10.8,0,0,0,1.5-.1v5c-1.34,0-2.84.2-4.24.2-2.81,0-5.92-.44-5.92-5.15v-8.22H152v-4.05H155V194.2h6.62Z"/><path class="cls-1" d="M173.14,197.58h-6.62V193h6.62Zm-6.62,1.86h6.62v17.22h-6.62Z"/><path class="cls-1" d="M177.18,203.49h-2.7v-4.05h2.7c-.06-1.69.1-3.58,1.37-4.84,1.44-1.43,3.11-1.63,5.79-1.63,1,0,2,.1,3,.13v4.52a12.62,12.62,0,0,0-1.6-.24c-1.61,0-2.14.47-2,2.06h3.48v4.05H183.8v13.17h-6.62Zm18.66-5.91h-6.62V193h6.62Zm-6.62,1.86h6.62v17.22h-6.62Z"/><path class="cls-1" d="M210,206a2.35,2.35,0,0,0-.74-1.62,2.39,2.39,0,0,0-1.67-.56c-2.54,0-2.91,2.18-2.91,4.27s.37,4.25,2.91,4.25a2.64,2.64,0,0,0,2.57-2.52h6.32a8,8,0,0,1-3,5.41,9.74,9.74,0,0,1-6,1.89c-5.21,0-9.39-3.59-9.39-9s4.18-9.05,9.39-9.05c4.55,0,8.43,2.22,8.83,7Z"/><path class="cls-1" d="M235.28,212.81a7,7,0,0,0,.8,3.85h-6.75a4.61,4.61,0,0,1-.24-1.63H229a7.11,7.11,0,0,1-5.59,2.06c-3.34,0-6.12-1.59-6.12-5.21,0-5.44,6.42-5.24,9.8-5.87.9-.17,1.81-.43,1.81-1.53s-1.11-1.59-2.18-1.59c-2,0-2.44,1-2.47,1.76h-6.15a5,5,0,0,1,3-4.65,14.39,14.39,0,0,1,5.91-1c8.3,0,8.23,3.41,8.23,6.73Zm-6.35-3.88a11.52,11.52,0,0,1-2.61.83c-1.47.33-2.24.69-2.24,1.85a1.9,1.9,0,0,0,2.07,1.6,2.62,2.62,0,0,0,2.78-2.69Z"/><path class="cls-1" d="M245.9,199.44h3.55v4.05H245.9v6c0,1.59.37,2.29,2,2.29a10.84,10.84,0,0,0,1.51-.1v5c-1.34,0-2.84.2-4.25.2-2.81,0-5.92-.44-5.92-5.15v-8.22h-2.94v-4.05h2.94V194.2h6.62Z"/><path class="cls-1" d="M257.47,197.58h-6.62V193h6.62Zm-6.62,1.86h6.62v17.22h-6.62Z"/><path class="cls-1" d="M269.13,217.09c-6.52,0-9.46-4.28-9.46-9.06s2.94-9,9.46-9,9.47,4.24,9.47,9S275.65,217.09,269.13,217.09Zm0-13.3c-2.5,0-2.84,2.42-2.84,4.24s.34,4.28,2.84,4.28S272,209.86,272,208,271.64,203.79,269.13,203.79Z"/><path class="cls-1" d="M280.63,199.44H287v2.19h.06a6.37,6.37,0,0,1,5.65-2.62c3.11,0,5.95,1.89,5.95,5.84v11.81h-6.62v-9c0-2-.23-3.38-2.17-3.38-1.14,0-2.64.56-2.64,3.32v9.09h-6.62Z"/><path class="cls-1" d="M311.48,204.45a1.66,1.66,0,0,0-.76-1.3,2.35,2.35,0,0,0-1.48-.49c-.93,0-2,.2-2,1.32,0,.5.4.73.77.9,1.1.46,3.61.6,5.81,1.33s4.15,2,4.15,4.81c0,4.77-4.61,6.07-8.83,6.07-4.07,0-8.55-1.63-8.65-6.07h6.31a2.11,2.11,0,0,0,.81,1.52,2.73,2.73,0,0,0,1.77.5c.87,0,2.24-.33,2.24-1.33s-.57-1.29-3.65-1.82c-5-.86-7.08-2.46-7.08-5.41,0-4.34,4.71-5.47,8.19-5.47,3.74,0,8.25,1,8.42,5.44Z"/><use width="203.91" height="54.48" transform="translate(12 192.74) scale(0.44)" xlink:href="#Blue"/></g><g id="Objects"><path class="cls-2" d="M201.8,134.52H128.2a7.46,7.46,0,0,1-5.53-12.47A39.61,39.61,0,0,0,133,95.39v-1a32.07,32.07,0,0,1,32.65-32c17.34.32,31.45,15.15,31.45,33.05a39.61,39.61,0,0,0,10.28,26.66,7.46,7.46,0,0,1-5.53,12.47Z"/><path class="cls-3" d="M145.23,87a1.76,1.76,0,0,1-.79-.19,1.73,1.73,0,0,1-.74-2.32,23.82,23.82,0,0,1,21.75-13,1.74,1.74,0,0,1,1.69,1.76A1.76,1.76,0,0,1,165.38,75a20.3,20.3,0,0,0-18.62,11.13A1.72,1.72,0,0,1,145.23,87Z"/><path class="cls-2" d="M165,148.91a16.13,16.13,0,0,1-16.11-16.11,1.72,1.72,0,0,1,1.72-1.72h28.78a1.72,1.72,0,0,1,1.72,1.72A16.13,16.13,0,0,1,165,148.91Zm-12.55-14.39a12.67,12.67,0,0,0,25.1,0Zm0,0a12.67,12.67,0,0,0,25.1,0Zm25.1,0h-25.1"/><path class="cls-2" d="M172.86,66.89a1.47,1.47,0,0,1-.46-.07,27.75,27.75,0,0,0-6.86-1,28.25,28.25,0,0,0-8,1,1.72,1.72,0,0,1-2.16-1.66V56a9.58,9.58,0,0,1,19.16,0v9.21a1.74,1.74,0,0,1-.68,1.38A1.72,1.72,0,0,1,172.86,66.89ZM165,62.34h.56a30.38,30.38,0,0,1,5.54.64V56a6.14,6.14,0,1,0-12.28,0v7A31.66,31.66,0,0,1,165,62.34Z"/><path class="cls-1" d="M152.45,134.52a12.67,12.67,0,0,0,25.1,0Z"/></g></svg>