<svg xmlns="http://www.w3.org/2000/svg" xmlns:xlink="http://www.w3.org/1999/xlink" viewBox="0 0 330 269"><defs><style>.cls-1{fill:#0a1e3f;}.cls-2{fill:#8bb8e8;}.cls-3{fill:#96c061;}.cls-4{fill:#f17533;}.cls-5{fill:#d62f8a;}</style><symbol id="Blue" data-name="Blue" viewBox="0 0 203.91 54.48"><path class="cls-1" d="M0,1.18H30.36Q38,1.18,42,4.94a12.17,12.17,0,0,1,4.06,9.29,11.79,11.79,0,0,1-2.89,8,12.76,12.76,0,0,1-5.65,3.5q5.64,1.37,8.29,4.66a12.83,12.83,0,0,1,2.66,8.3A14.28,14.28,0,0,1,46.59,46a14,14,0,0,1-5.2,5.14,17.23,17.23,0,0,1-6.14,1.7,70.72,70.72,0,0,1-7.27.72H0ZM16.32,21.77h7.09q3.82,0,5.32-1.3a4.75,4.75,0,0,0,1.5-3.78,4.43,4.43,0,0,0-1.5-3.57q-1.5-1.29-5.21-1.29h-7.2Zm0,20.51h8.29c2.79,0,4.77-.49,5.91-1.48a4.94,4.94,0,0,0,1.73-4,4.59,4.59,0,0,0-1.7-3.72c-1.15-.93-3.13-1.41-6-1.41H16.32Z"/><path class="cls-2" d="M49.6,1.18H65.76V40.65H91v12.9H49.6Z"/><path class="cls-2" d="M125.07,1.18h16.16V32.4a26.16,26.16,0,0,1-1.45,8.77,18.61,18.61,0,0,1-4.54,7.21,17.91,17.91,0,0,1-6.49,4.35,32.64,32.64,0,0,1-11.34,1.75,70.91,70.91,0,0,1-8.36-.54,22,22,0,0,1-7.57-2.12,19.06,19.06,0,0,1-5.56-4.52,16.56,16.56,0,0,1-3.46-6A31.57,31.57,0,0,1,91,32.4V1.18h16.15v32a9.12,9.12,0,0,0,2.39,6.7,10.28,10.28,0,0,0,13.18,0,9.1,9.1,0,0,0,2.38-6.74Z"/><path class="cls-2" d="M161.4,31.15c.5,5.79,3.86,9.92,10,9.92,3.17,0,6.63-1.18,8.22-3.63h18.31c-4,11-14.75,16.11-26.43,16.11-16.44,0-28.81-9.63-28.81-26.63C142.69,12.09,153.58,0,169.82,0,190.21,0,199,11.3,199,31.15ZM180.21,21a8.4,8.4,0,0,0-8.61-8.55c-5.84,0-9.21,3-10.1,8.55Z"/><path class="cls-1" d="M203.91,6a4.45,4.45,0,1,1-4.41-4.33A4.36,4.36,0,0,1,203.91,6Zm-7.78,0a3.36,3.36,0,0,0,3.37,3.45A3.31,3.31,0,0,0,202.8,6a3.34,3.34,0,1,0-6.67,0Zm2.66,2.24h-1V3.87a12.12,12.12,0,0,1,1.66-.13,2.32,2.32,0,0,1,1.48.34,1.12,1.12,0,0,1,.45.93,1.11,1.11,0,0,1-.9,1v.06c.42.13.63.47.76,1a4.18,4.18,0,0,0,.32,1.06h-1.05a3.41,3.41,0,0,1-.35-1.06c-.08-.44-.34-.66-.89-.66h-.48Zm0-2.43h.47c.55,0,1-.19,1-.63s-.29-.66-.92-.66a2.2,2.2,0,0,0-.55,0Z"/></symbol></defs><g id="Capa_1" data-name="Capa 1"><path class="cls-1" d="M128.8,193h12.07c8,0,10.77,5.84,10.77,11.81,0,7.26-3.88,11.88-12.21,11.88H128.8Zm7.36,17.61H139c4.58,0,5.25-3.68,5.25-5.9,0-1.49-.47-5.64-5.78-5.64h-2.34Z"/><path class="cls-1" d="M170,212.81a7,7,0,0,0,.8,3.85H164a4.38,4.38,0,0,1-.23-1.63h-.07a7.07,7.07,0,0,1-5.58,2.06c-3.35,0-6.12-1.59-6.12-5.21,0-5.44,6.42-5.24,9.79-5.87.91-.17,1.81-.43,1.81-1.53s-1.1-1.59-2.17-1.59c-2,0-2.45,1-2.48,1.76H152.8a5,5,0,0,1,3-4.65,14.44,14.44,0,0,1,5.92-1c8.29,0,8.22,3.41,8.22,6.73Zm-6.35-3.88a11.36,11.36,0,0,1-2.61.83c-1.47.33-2.24.69-2.24,1.85a1.9,1.9,0,0,0,2.07,1.6,2.62,2.62,0,0,0,2.78-2.69Z"/><path class="cls-1" d="M181.81,204.45a1.66,1.66,0,0,0-.76-1.3,2.35,2.35,0,0,0-1.48-.49c-.93,0-2,.2-2,1.32,0,.5.4.73.77.9,1.1.46,3.61.6,5.81,1.33s4.15,2,4.15,4.81c0,4.77-4.61,6.07-8.83,6.07s-8.55-1.63-8.66-6.07h6.32a2.11,2.11,0,0,0,.81,1.52,2.73,2.73,0,0,0,1.77.5c.87,0,2.24-.33,2.24-1.33s-.57-1.29-3.65-1.82c-5-.86-7.08-2.46-7.08-5.41,0-4.34,4.71-5.47,8.19-5.47,3.74,0,8.25,1,8.42,5.44Z"/><path class="cls-1" d="M189.3,193h6.62v8.33H196A6.38,6.38,0,0,1,201.4,199c3.11,0,5.95,1.89,5.95,5.84v11.81h-6.62v-9c0-2-.23-3.38-2.17-3.38-1.14,0-2.64.56-2.64,3.32v9.09H189.3Z"/><path class="cls-1" d="M209.29,193h6.62v8.36H216a5.69,5.69,0,0,1,4.75-2.32c5.82,0,7.39,4.91,7.39,9,0,4.32-2.37,9.13-7.29,9.13-3.24,0-4.24-1.23-5.08-2.32h-.07v1.89h-6.38Zm9.29,10.82c-2.37,0-2.91,2.22-2.91,4.24s.54,4.28,2.91,4.28,2.91-2.22,2.91-4.28S221,203.79,218.58,203.79Z"/><path class="cls-1" d="M238,217.09c-6.52,0-9.46-4.28-9.46-9.06s2.94-9,9.46-9,9.46,4.24,9.46,9S244.52,217.09,238,217.09Zm0-13.3c-2.51,0-2.84,2.42-2.84,4.24s.33,4.28,2.84,4.28,2.84-2.45,2.84-4.28S240.51,203.79,238,203.79Z"/><path class="cls-1" d="M265.58,212.81a6.9,6.9,0,0,0,.8,3.85h-6.75a4.61,4.61,0,0,1-.24-1.63h-.07a7.07,7.07,0,0,1-5.58,2.06c-3.34,0-6.12-1.59-6.12-5.21,0-5.44,6.42-5.24,9.8-5.87.9-.17,1.8-.43,1.8-1.53s-1.1-1.59-2.17-1.59c-2,0-2.44,1-2.47,1.76h-6.15a5,5,0,0,1,3-4.65,14.47,14.47,0,0,1,5.92-1c8.29,0,8.23,3.41,8.23,6.73Zm-6.36-3.88a11.28,11.28,0,0,1-2.6.83c-1.47.33-2.24.69-2.24,1.85a1.9,1.9,0,0,0,2.07,1.6,2.62,2.62,0,0,0,2.77-2.69Z"/><path class="cls-1" d="M267.41,199.44h6.35v2.75h.07c1.07-2.05,2.47-3.18,4.88-3.18a7.89,7.89,0,0,1,1.94.26v5.81a6.79,6.79,0,0,0-2.61-.43c-2.61,0-4,1.52-4,5.21v6.8h-6.62Z"/><path class="cls-1" d="M298,216.66h-6.39v-1.89h-.06c-.84,1.09-1.84,2.32-5.08,2.32-4.92,0-7.29-4.81-7.29-9.13,0-4,1.57-9,7.39-9a5.66,5.66,0,0,1,4.74,2.32h.07V193H298Zm-9.29-12.87c-2.38,0-2.91,2.22-2.91,4.24s.53,4.28,2.91,4.28,2.9-2.22,2.9-4.28S291.11,203.79,288.74,203.79Z"/><use width="203.91" height="54.48" transform="translate(31.84 192.74) scale(0.44)" xlink:href="#Blue"/></g><g id="Objects"><polygon class="cls-3" points="169.43 110.7 118.35 143.14 113.46 133.96 164.55 101.52 169.43 110.7"/><polygon class="cls-3" points="216.35 58.5 174.35 111.68 166.71 104.39 208.71 51.22 216.35 58.5"/><circle class="cls-1" cx="118.68" cy="138.47" r="11.82"/><circle class="cls-4" cx="171.31" cy="105.25" r="11.82"/><circle class="cls-5" cx="211.32" cy="57.11" r="11.82"/></g></svg>