<svg id="Capa_1" data-name="Capa 1" xmlns="http://www.w3.org/2000/svg" xmlns:xlink="http://www.w3.org/1999/xlink" viewBox="0 0 330 269"><defs><style>.cls-1{fill:#0a1e3f;}.cls-2{fill:#8bb8e8;}.cls-3{fill:#f17533;}.cls-4{fill:#6d2e87;}</style><symbol id="Blue" data-name="Blue" viewBox="0 0 203.91 54.48"><path class="cls-1" d="M0,1.18H30.36Q38,1.18,42,4.94a12.17,12.17,0,0,1,4.06,9.29,11.79,11.79,0,0,1-2.89,8,12.76,12.76,0,0,1-5.65,3.5q5.64,1.37,8.29,4.66a12.83,12.83,0,0,1,2.66,8.3A14.28,14.28,0,0,1,46.59,46a14,14,0,0,1-5.2,5.14,17.23,17.23,0,0,1-6.14,1.7,70.72,70.72,0,0,1-7.27.72H0ZM16.32,21.77h7.09q3.82,0,5.32-1.3a4.75,4.75,0,0,0,1.5-3.78,4.43,4.43,0,0,0-1.5-3.57q-1.5-1.29-5.21-1.29h-7.2Zm0,20.51h8.29c2.79,0,4.77-.49,5.91-1.48a4.94,4.94,0,0,0,1.73-4,4.59,4.59,0,0,0-1.7-3.72c-1.15-.93-3.13-1.41-6-1.41H16.32Z"/><path class="cls-2" d="M49.6,1.18H65.76V40.65H91v12.9H49.6Z"/><path class="cls-2" d="M125.07,1.18h16.16V32.4a26.16,26.16,0,0,1-1.45,8.77,18.61,18.61,0,0,1-4.54,7.21,17.91,17.91,0,0,1-6.49,4.35,32.64,32.64,0,0,1-11.34,1.75,70.91,70.91,0,0,1-8.36-.54,22,22,0,0,1-7.57-2.12,19.06,19.06,0,0,1-5.56-4.52,16.56,16.56,0,0,1-3.46-6A31.57,31.57,0,0,1,91,32.4V1.18h16.15v32a9.12,9.12,0,0,0,2.39,6.7,10.28,10.28,0,0,0,13.18,0,9.1,9.1,0,0,0,2.38-6.74Z"/><path class="cls-2" d="M161.4,31.15c.5,5.79,3.86,9.92,10,9.92,3.17,0,6.63-1.18,8.22-3.63h18.31c-4,11-14.75,16.11-26.43,16.11-16.44,0-28.81-9.63-28.81-26.63C142.69,12.09,153.58,0,169.82,0,190.21,0,199,11.3,199,31.15ZM180.21,21a8.4,8.4,0,0,0-8.61-8.55c-5.84,0-9.21,3-10.1,8.55Z"/><path class="cls-1" d="M203.91,6a4.45,4.45,0,1,1-4.41-4.33A4.36,4.36,0,0,1,203.91,6Zm-7.78,0a3.36,3.36,0,0,0,3.37,3.45A3.31,3.31,0,0,0,202.8,6a3.34,3.34,0,1,0-6.67,0Zm2.66,2.24h-1V3.87a12.12,12.12,0,0,1,1.66-.13,2.32,2.32,0,0,1,1.48.34,1.12,1.12,0,0,1,.45.93,1.11,1.11,0,0,1-.9,1v.06c.42.13.63.47.76,1a4.18,4.18,0,0,0,.32,1.06h-1.05a3.41,3.41,0,0,1-.35-1.06c-.08-.44-.34-.66-.89-.66h-.48Zm0-2.43h.47c.55,0,1-.19,1-.63s-.29-.66-.92-.66a2.2,2.2,0,0,0-.55,0Z"/></symbol></defs><path class="cls-1" d="M114.08,199h-6.69V193h20.73V199h-6.69v17.62h-7.35Z"/><path class="cls-1" d="M142.26,212.81a7,7,0,0,0,.8,3.85h-6.75a4.61,4.61,0,0,1-.24-1.63H136a7.11,7.11,0,0,1-5.59,2.06c-3.34,0-6.11-1.59-6.11-5.21,0-5.44,6.41-5.24,9.79-5.87.9-.17,1.81-.43,1.81-1.53s-1.11-1.59-2.18-1.59c-2,0-2.44,1-2.47,1.76h-6.15a5,5,0,0,1,3-4.65,14.39,14.39,0,0,1,5.91-1c8.3,0,8.23,3.42,8.23,6.73Zm-6.35-3.88a11.52,11.52,0,0,1-2.61.83c-1.47.33-2.24.69-2.24,1.85a1.9,1.9,0,0,0,2.07,1.6,2.62,2.62,0,0,0,2.78-2.69Z"/><path class="cls-1" d="M144.09,199.44h6.35v2.75h.07c1.07-2.05,2.48-3.18,4.88-3.18a7.82,7.82,0,0,1,1.94.26v5.81a6.79,6.79,0,0,0-2.61-.43c-2.6,0-4,1.52-4,5.21v6.8h-6.62Z"/><path class="cls-1" d="M176.62,214.43c0,3.42-.91,8.23-9,8.23-4.11,0-8.46-1.09-9.06-5.74h6.55a4.68,4.68,0,0,0,.37.6,2.54,2.54,0,0,0,1.94,1.26c2.14,0,2.61-2.52,2.61-3.95v-1.59h-.07a5.46,5.46,0,0,1-4.65,2.39c-5.11,0-7.42-3.78-7.42-8.39s2.58-8.23,7.52-8.23a4.67,4.67,0,0,1,4.55,2.52H170v-2.09h6.62Zm-9.16-3c2.44,0,2.7-2.33,2.7-4.25s-.93-3.38-2.87-3.38-2.81,1.59-2.81,3.41S165.08,211.42,167.46,211.42Z"/><path class="cls-1" d="M183.9,209.52c.17,2,1.31,3.35,3.38,3.35a3.3,3.3,0,0,0,2.77-1.22h6.19c-1.34,3.71-5,5.44-8.93,5.44-5.55,0-9.73-3.25-9.73-9a8.87,8.87,0,0,1,9.16-9.09c6.89,0,9.87,3.81,9.87,10.51Zm6.35-3.41a2.83,2.83,0,0,0-2.9-2.89,3.13,3.13,0,0,0-3.41,2.89Z"/><path class="cls-1" d="M205.66,199.44h3.54v4.05h-3.54v6c0,1.59.37,2.29,2,2.29a10.8,10.8,0,0,0,1.5-.1v5c-1.33,0-2.84.2-4.24.2-2.81,0-5.92-.44-5.92-5.15v-8.22H196.1v-4.05H199V194.2h6.62Z"/><path class="cls-1" d="M225.08,208.69a4.27,4.27,0,0,0,.27,1.56c.53,1.43,2.14,1.73,3.51,1.73,1.2,0,3-.4,3-2.16,0-1.22-1-1.56-5.15-2.72-3.78-1.06-8.09-2.09-8.09-6.86,0-5.48,4.71-7.83,9.63-7.83,5.18,0,9.76,2,10,7.73H231.3a1.81,1.81,0,0,0-.87-1.89,3.77,3.77,0,0,0-2.17-.6c-1,0-2.65.26-2.65,1.59.14,1.69,3.55,2.06,6.93,3s6.72,2.48,6.72,6.83c0,6.17-5.72,8.16-11,8.16-2.71,0-10.43-1-10.49-8.53Z"/><path class="cls-1" d="M246.17,209.52c.17,2,1.3,3.35,3.38,3.35a3.3,3.3,0,0,0,2.77-1.22h6.19c-1.34,3.71-5,5.44-8.93,5.44-5.55,0-9.73-3.25-9.73-9A8.87,8.87,0,0,1,249,199c6.89,0,9.86,3.81,9.86,10.51Zm6.35-3.41a2.83,2.83,0,0,0-2.91-2.89,3.13,3.13,0,0,0-3.41,2.89Z"/><path class="cls-1" d="M267.93,199.44h3.54v4.05h-3.54v6c0,1.59.37,2.29,2,2.29a10.8,10.8,0,0,0,1.5-.1v5c-1.33,0-2.84.2-4.24.2-2.81,0-5.92-.44-5.92-5.15v-8.22h-2.94v-4.05h2.94V194.2h6.62Z"/><path class="cls-1" d="M281.87,199.44h3.54v4.05h-3.54v6c0,1.59.37,2.29,2,2.29a10.8,10.8,0,0,0,1.5-.1v5c-1.34,0-2.84.2-4.24.2-2.81,0-5.92-.44-5.92-5.15v-8.22h-2.94v-4.05h2.94V194.2h6.62Z"/><path class="cls-1" d="M291.43,209.52c.16,2,1.3,3.35,3.37,3.35a3.34,3.34,0,0,0,2.78-1.22h6.18c-1.33,3.71-5,5.44-8.92,5.44-5.55,0-9.73-3.25-9.73-9a8.87,8.87,0,0,1,9.16-9.09c6.89,0,9.86,3.81,9.86,10.51Zm6.35-3.41a2.83,2.83,0,0,0-2.91-2.89,3.13,3.13,0,0,0-3.41,2.89Z"/><path class="cls-1" d="M305.23,199.44h6.35v2.75h.07c1.07-2.05,2.47-3.18,4.88-3.18a7.89,7.89,0,0,1,1.94.26v5.81a6.79,6.79,0,0,0-2.61-.43c-2.61,0-4,1.52-4,5.21v6.8h-6.62Z"/><use width="203.91" height="54.48" transform="translate(11.53 192.74) scale(0.44)" xlink:href="#Blue"/><path class="cls-3" d="M181.65,48.15A50.75,50.75,0,1,0,232.4,98.89,50.74,50.74,0,0,0,181.65,48.15Zm0,88.37a37.63,37.63,0,1,1,37.63-37.63A37.63,37.63,0,0,1,181.65,136.52Z"/><path class="cls-3" d="M181.65,72.28a26.62,26.62,0,1,0,26.62,26.61A26.61,26.61,0,0,0,181.65,72.28Zm0,42.14a15.53,15.53,0,1,1,15.53-15.53A15.53,15.53,0,0,1,181.65,114.42Z"/><path class="cls-3" d="M181.65,91.94a7,7,0,1,0,6.95,7A6.95,6.95,0,0,0,181.65,91.94Z"/><path class="cls-4" d="M97.6,115.63a8.06,8.06,0,0,0,8.05,8h66.78a8.06,8.06,0,0,0,8-8v-25H97.6Z"/><path class="cls-4" d="M180.47,81.89a8.07,8.07,0,0,0-8-8H105.65a8.07,8.07,0,0,0-8.05,8v1.47h82.87Z"/></svg>