<svg xmlns="http://www.w3.org/2000/svg" xmlns:xlink="http://www.w3.org/1999/xlink" viewBox="0 0 330 269"><defs><style>.cls-1{fill:#0a1e3f;}.cls-2{fill:#8bb8e8;}.cls-3{fill:#7d2796;}</style><symbol id="Blue" data-name="Blue" viewBox="0 0 203.91 54.48"><path class="cls-1" d="M0,1.18H30.36Q38,1.18,42,4.94a12.17,12.17,0,0,1,4.06,9.29,11.79,11.79,0,0,1-2.89,8,12.76,12.76,0,0,1-5.65,3.5q5.64,1.37,8.29,4.66a12.83,12.83,0,0,1,2.66,8.3A14.28,14.28,0,0,1,46.59,46a14,14,0,0,1-5.2,5.14,17.23,17.23,0,0,1-6.14,1.7,70.72,70.72,0,0,1-7.27.72H0ZM16.32,21.77h7.09q3.82,0,5.32-1.3a4.75,4.75,0,0,0,1.5-3.78,4.43,4.43,0,0,0-1.5-3.57q-1.5-1.29-5.21-1.29h-7.2Zm0,20.51h8.29c2.79,0,4.77-.49,5.91-1.48a4.94,4.94,0,0,0,1.73-4,4.59,4.59,0,0,0-1.7-3.72c-1.15-.93-3.13-1.41-6-1.41H16.32Z"/><path class="cls-2" d="M49.6,1.18H65.76V40.65H91v12.9H49.6Z"/><path class="cls-2" d="M125.07,1.18h16.16V32.4a26.16,26.16,0,0,1-1.45,8.77,18.61,18.61,0,0,1-4.54,7.21,17.91,17.91,0,0,1-6.49,4.35,32.64,32.64,0,0,1-11.34,1.75,70.91,70.91,0,0,1-8.36-.54,22,22,0,0,1-7.57-2.12,19.06,19.06,0,0,1-5.56-4.52,16.56,16.56,0,0,1-3.46-6A31.57,31.57,0,0,1,91,32.4V1.18h16.15v32a9.12,9.12,0,0,0,2.39,6.7,10.28,10.28,0,0,0,13.18,0,9.1,9.1,0,0,0,2.38-6.74Z"/><path class="cls-2" d="M161.4,31.15c.5,5.79,3.86,9.92,10,9.92,3.17,0,6.63-1.18,8.22-3.63h18.31c-4,11-14.75,16.11-26.43,16.11-16.44,0-28.81-9.63-28.81-26.63C142.69,12.09,153.58,0,169.82,0,190.21,0,199,11.3,199,31.15ZM180.21,21a8.4,8.4,0,0,0-8.61-8.55c-5.84,0-9.21,3-10.1,8.55Z"/><path class="cls-1" d="M203.91,6a4.45,4.45,0,1,1-4.41-4.33A4.36,4.36,0,0,1,203.91,6Zm-7.78,0a3.36,3.36,0,0,0,3.37,3.45A3.31,3.31,0,0,0,202.8,6a3.34,3.34,0,1,0-6.67,0Zm2.66,2.24h-1V3.87a12.12,12.12,0,0,1,1.66-.13,2.32,2.32,0,0,1,1.48.34,1.12,1.12,0,0,1,.45.93,1.11,1.11,0,0,1-.9,1v.06c.42.13.63.47.76,1a4.18,4.18,0,0,0,.32,1.06h-1.05a3.41,3.41,0,0,1-.35-1.06c-.08-.44-.34-.66-.89-.66h-.48Zm0-2.43h.47c.55,0,1-.19,1-.63s-.29-.66-.92-.66a2.2,2.2,0,0,0-.55,0Z"/></symbol></defs><g id="Capa_1" data-name="Capa 1"><path class="cls-1" d="M172.07,193h7.19L188,216.66h-7.62l-1-3.39h-7.59l-1.07,3.39h-7.39Zm5.79,15.23-2.14-7.3h-.07l-2.31,7.3Z"/><path class="cls-1" d="M188,193h6.62v23.69H188Z"/><path class="cls-1" d="M202.25,209.52c.17,2,1.31,3.35,3.38,3.35a3.3,3.3,0,0,0,2.77-1.22h6.19c-1.34,3.71-5,5.44-8.93,5.44-5.55,0-9.73-3.25-9.73-9a8.87,8.87,0,0,1,9.16-9.09c6.89,0,9.87,3.81,9.87,10.51Zm6.35-3.41a2.83,2.83,0,0,0-2.9-2.89,3.13,3.13,0,0,0-3.41,2.89Z"/><path class="cls-1" d="M216.06,199.44h6.35v2.75h.06c1.07-2.05,2.48-3.18,4.89-3.18a7.81,7.81,0,0,1,1.93.26v5.81a6.74,6.74,0,0,0-2.6-.43c-2.61,0-4,1.52-4,5.21v6.8h-6.61Z"/><path class="cls-1" d="M239.69,199.44h3.54v4.05h-3.54v6c0,1.59.37,2.29,2,2.29a10.8,10.8,0,0,0,1.5-.1v5c-1.34,0-2.84.2-4.24.2-2.81,0-5.92-.44-5.92-5.15v-8.22h-2.94v-4.05h2.94V194.2h6.62Z"/><path class="cls-1" d="M255,204.45a1.69,1.69,0,0,0-.77-1.3,2.33,2.33,0,0,0-1.47-.49c-.94,0-2,.2-2,1.32,0,.5.4.73.77.9,1.1.46,3.61.6,5.82,1.33s4.14,2,4.14,4.81c0,4.77-4.61,6.07-8.82,6.07s-8.56-1.63-8.66-6.07h6.32a2.1,2.1,0,0,0,.8,1.52,2.73,2.73,0,0,0,1.77.5c.87,0,2.24-.33,2.24-1.33s-.57-1.29-3.64-1.82c-5.05-.86-7.09-2.46-7.09-5.41,0-4.34,4.72-5.47,8.19-5.47,3.75,0,8.26,1,8.43,5.44Z"/><use width="203.91" height="54.48" transform="translate(68.49 192.74) scale(0.44)" xlink:href="#Blue"/></g><g id="Objects"><path class="cls-3" d="M157.69,119.41,148,62.64a29.62,29.62,0,0,1-.37-4.86,15.4,15.4,0,0,1,3.61-10.58c2.41-2.73,6.84-4.1,13.32-4.1q6.91,0,10.91,2a11,11,0,0,1,5.46,5.22A18.82,18.82,0,0,1,182.38,58c0,1-.08,2.58-.24,4.61l-9.77,56.77ZM149.87,139a12.65,12.65,0,0,1,4.24-10.07,15.31,15.31,0,0,1,10.44-3.7,15.7,15.7,0,0,1,5.67,1,14.58,14.58,0,0,1,4.7,2.88,13.91,13.91,0,0,1,3.18,4.4,12.8,12.8,0,0,1,1.19,5.46,14.41,14.41,0,0,1-4.16,10.37,15,15,0,0,1-21.11,0A14.43,14.43,0,0,1,149.87,139Z"/></g></svg>