<svg id="Capa_1" data-name="Capa 1" xmlns="http://www.w3.org/2000/svg" xmlns:xlink="http://www.w3.org/1999/xlink" viewBox="0 0 330 269"><defs><symbol id="Blue_2" data-name="Blue 2" viewBox="0 0 203.91 54.48"><path d="M0,1.18H30.36Q38,1.18,42,4.94a12.17,12.17,0,0,1,4.06,9.29,11.79,11.79,0,0,1-2.89,8,12.76,12.76,0,0,1-5.65,3.5q5.64,1.37,8.29,4.66a12.83,12.83,0,0,1,2.66,8.3A14.28,14.28,0,0,1,46.59,46a14,14,0,0,1-5.2,5.14,17.23,17.23,0,0,1-6.14,1.7,70.72,70.72,0,0,1-7.27.72H0ZM16.32,21.77h7.09q3.82,0,5.32-1.3a4.75,4.75,0,0,0,1.5-3.78,4.43,4.43,0,0,0-1.5-3.57q-1.5-1.29-5.21-1.29h-7.2Zm0,20.51h8.29c2.79,0,4.77-.49,5.91-1.48a4.94,4.94,0,0,0,1.73-4,4.59,4.59,0,0,0-1.7-3.72c-1.15-.93-3.13-1.41-6-1.41H16.32Z" style="fill:#0a1e3f"/><path d="M49.6,1.18H65.76V40.65H91v12.9H49.6Z" style="fill:#95b6e5"/><path d="M125.07,1.18h16.16V32.4a26.16,26.16,0,0,1-1.45,8.77,18.61,18.61,0,0,1-4.54,7.21,17.91,17.91,0,0,1-6.49,4.35,32.64,32.64,0,0,1-11.34,1.75,70.91,70.91,0,0,1-8.36-.54,22,22,0,0,1-7.57-2.12,19.06,19.06,0,0,1-5.56-4.52,16.56,16.56,0,0,1-3.46-6A31.57,31.57,0,0,1,91,32.4V1.18h16.15v32a9.12,9.12,0,0,0,2.39,6.7,10.28,10.28,0,0,0,13.18,0,9.1,9.1,0,0,0,2.38-6.74Z" style="fill:#95b6e5"/><path d="M161.4,31.15c.5,5.79,3.86,9.92,10,9.92,3.17,0,6.63-1.18,8.22-3.63h18.31c-4,11-14.75,16.11-26.43,16.11-16.44,0-28.81-9.63-28.81-26.63C142.69,12.09,153.58,0,169.82,0,190.21,0,199,11.3,199,31.15ZM180.21,21a8.4,8.4,0,0,0-8.61-8.55c-5.84,0-9.21,3-10.1,8.55Z" style="fill:#95b6e5"/><path d="M203.91,6a4.45,4.45,0,1,1-4.41-4.33A4.36,4.36,0,0,1,203.91,6Zm-7.78,0a3.36,3.36,0,0,0,3.37,3.45A3.31,3.31,0,0,0,202.8,6a3.34,3.34,0,1,0-6.67,0Zm2.66,2.24h-1V3.87a12.12,12.12,0,0,1,1.66-.13,2.32,2.32,0,0,1,1.48.34,1.12,1.12,0,0,1,.45.93,1.11,1.11,0,0,1-.9,1v.06c.42.13.63.47.76,1a4.18,4.18,0,0,0,.32,1.06h-1.05a3.41,3.41,0,0,1-.35-1.06c-.08-.44-.34-.66-.89-.66h-.48Zm0-2.43h.47c.55,0,1-.19,1-.63s-.29-.66-.92-.66a2.2,2.2,0,0,0-.55,0Z" style="fill:#0a1e3f"/></symbol></defs><path d="M178.15,208.69a4.27,4.27,0,0,0,.27,1.56c.54,1.43,2.14,1.73,3.51,1.73,1.2,0,3-.4,3-2.16,0-1.23-1-1.56-5.15-2.72-3.77-1.06-8.09-2.09-8.09-6.86,0-5.48,4.72-7.83,9.63-7.83,5.18,0,9.76,2,10,7.73h-6.95a1.81,1.81,0,0,0-.87-1.89,3.77,3.77,0,0,0-2.17-.6c-1,0-2.64.26-2.64,1.59.13,1.69,3.54,2.06,6.92,3s6.72,2.48,6.72,6.83c0,6.17-5.72,8.16-11,8.16-2.7,0-10.43-1-10.49-8.53Z" style="fill:#0a1e3f"/><path d="M193,193h6.62v11.45l4.21-5h7.49l-6.19,6.5,7.16,10.72h-8l-3.54-6.24-1.17,1.26v5H193Z" style="fill:#0a1e3f"/><path d="M218.33,197.58h-6.62V193h6.62Zm-6.62,1.86h6.62v17.22h-6.62Z" style="fill:#0a1e3f"/><path d="M220.57,193h6.62v23.69h-6.62Z" style="fill:#0a1e3f"/><path d="M229.42,193H236v23.69h-6.62Z" style="fill:#0a1e3f"/><path d="M248.18,204.45a1.7,1.7,0,0,0-.77-1.3,2.33,2.33,0,0,0-1.47-.49c-.94,0-2,.2-2,1.32,0,.5.4.73.77.9,1.1.46,3.61.6,5.82,1.33s4.14,2,4.14,4.81c0,4.77-4.61,6.07-8.82,6.07s-8.56-1.63-8.66-6.07h6.32a2.1,2.1,0,0,0,.8,1.52,2.73,2.73,0,0,0,1.77.5c.87,0,2.24-.33,2.24-1.33s-.57-1.29-3.64-1.82c-5-.86-7.09-2.46-7.09-5.41,0-4.34,4.71-5.47,8.19-5.47,3.74,0,8.26,1,8.42,5.44Z" style="fill:#0a1e3f"/><use width="203.91" height="54.48" transform="translate(75.34 192.74) scale(0.44)" xlink:href="#Blue_2"/><rect x="109.89" y="155.72" width="110.22" height="4.5" style="fill:#7d2796"/><rect x="71.87" y="43.83" width="186.26" height="114.14" rx="12.82" style="fill:#f17533"/><rect x="85.59" y="55.97" width="158.82" height="89.85" style="fill:#96bf61"/><circle cx="230.82" cy="49.91" r="3.38" style="fill:#7d2796"/></svg>