<svg id="Capa_1" data-name="Capa 1" xmlns="http://www.w3.org/2000/svg" xmlns:xlink="http://www.w3.org/1999/xlink" viewBox="0 0 330 269"><defs><symbol id="Blue_2" data-name="Blue 2" viewBox="0 0 203.91 54.48"><path d="M0,1.18H30.36Q38,1.18,42,4.94a12.17,12.17,0,0,1,4.06,9.29,11.79,11.79,0,0,1-2.89,8,12.76,12.76,0,0,1-5.65,3.5q5.64,1.37,8.29,4.66a12.83,12.83,0,0,1,2.66,8.3A14.28,14.28,0,0,1,46.59,46a14,14,0,0,1-5.2,5.14,17.23,17.23,0,0,1-6.14,1.7,70.72,70.72,0,0,1-7.27.72H0ZM16.32,21.77h7.09q3.82,0,5.32-1.3a4.75,4.75,0,0,0,1.5-3.78,4.43,4.43,0,0,0-1.5-3.57q-1.5-1.29-5.21-1.29h-7.2Zm0,20.51h8.29c2.79,0,4.77-.49,5.91-1.48a4.94,4.94,0,0,0,1.73-4,4.59,4.59,0,0,0-1.7-3.72c-1.15-.93-3.13-1.41-6-1.41H16.32Z" style="fill:#0a1e3f"/><path d="M49.6,1.18H65.76V40.65H91v12.9H49.6Z" style="fill:#95b6e5"/><path d="M125.07,1.18h16.16V32.4a26.16,26.16,0,0,1-1.45,8.77,18.61,18.61,0,0,1-4.54,7.21,17.91,17.91,0,0,1-6.49,4.35,32.64,32.64,0,0,1-11.34,1.75,70.91,70.91,0,0,1-8.36-.54,22,22,0,0,1-7.57-2.12,19.06,19.06,0,0,1-5.56-4.52,16.56,16.56,0,0,1-3.46-6A31.57,31.57,0,0,1,91,32.4V1.18h16.15v32a9.12,9.12,0,0,0,2.39,6.7,10.28,10.28,0,0,0,13.18,0,9.1,9.1,0,0,0,2.38-6.74Z" style="fill:#95b6e5"/><path d="M161.4,31.15c.5,5.79,3.86,9.92,10,9.92,3.17,0,6.63-1.18,8.22-3.63h18.31c-4,11-14.75,16.11-26.43,16.11-16.44,0-28.81-9.63-28.81-26.63C142.69,12.09,153.58,0,169.82,0,190.21,0,199,11.3,199,31.15ZM180.21,21a8.4,8.4,0,0,0-8.61-8.55c-5.84,0-9.21,3-10.1,8.55Z" style="fill:#95b6e5"/><path d="M203.91,6a4.45,4.45,0,1,1-4.41-4.33A4.36,4.36,0,0,1,203.91,6Zm-7.78,0a3.36,3.36,0,0,0,3.37,3.45A3.31,3.31,0,0,0,202.8,6a3.34,3.34,0,1,0-6.67,0Zm2.66,2.24h-1V3.87a12.12,12.12,0,0,1,1.66-.13,2.32,2.32,0,0,1,1.48.34,1.12,1.12,0,0,1,.45.93,1.11,1.11,0,0,1-.9,1v.06c.42.13.63.47.76,1a4.18,4.18,0,0,0,.32,1.06h-1.05a3.41,3.41,0,0,1-.35-1.06c-.08-.44-.34-.66-.89-.66h-.48Zm0-2.43h.47c.55,0,1-.19,1-.63s-.29-.66-.92-.66a2.2,2.2,0,0,0-.55,0Z" style="fill:#0a1e3f"/></symbol></defs><path d="M170.16,193h12.31c6.48,0,8.75,4.71,8.75,8.09,0,5.74-3.87,8.43-9.36,8.43h-4.34v7.17h-7.36Zm7.36,10.88h2.84c1.91,0,3.91-.13,3.91-2.52,0-2.16-1.67-2.29-3.48-2.29h-3.27Z" style="fill:#0a1e3f"/><path d="M208.84,212.81a7,7,0,0,0,.8,3.85h-6.75a4.61,4.61,0,0,1-.24-1.63h-.06a7.11,7.11,0,0,1-5.59,2.06c-3.34,0-6.12-1.59-6.12-5.21,0-5.44,6.42-5.24,9.8-5.87.9-.17,1.81-.43,1.81-1.53s-1.11-1.59-2.18-1.59c-2,0-2.44,1-2.47,1.76h-6.15a5,5,0,0,1,3-4.65,14.39,14.39,0,0,1,5.91-1c8.3,0,8.23,3.41,8.23,6.73Zm-6.35-3.88a11.52,11.52,0,0,1-2.61.83c-1.47.33-2.24.69-2.24,1.85a1.9,1.9,0,0,0,2.07,1.6,2.62,2.62,0,0,0,2.78-2.69Z" style="fill:#0a1e3f"/><path d="M210.67,199.44h6.39v2.19h.06a6.37,6.37,0,0,1,5.65-2.62c3.11,0,6,1.89,6,5.84v11.81h-6.62v-9c0-2-.24-3.38-2.18-3.38-1.13,0-2.64.56-2.64,3.32v9.09h-6.62Z" style="fill:#0a1e3f"/><path d="M236.24,209.52c.17,2,1.31,3.35,3.38,3.35a3.3,3.3,0,0,0,2.77-1.22h6.19c-1.34,3.71-5,5.44-8.93,5.44-5.55,0-9.72-3.25-9.72-9a8.87,8.87,0,0,1,9.16-9.09c6.88,0,9.86,3.81,9.86,10.51Zm6.36-3.41a2.84,2.84,0,0,0-2.91-2.89,3.13,3.13,0,0,0-3.41,2.89Z" style="fill:#0a1e3f"/><path d="M250.18,193h6.62v23.69h-6.62Z" style="fill:#0a1e3f"/><use width="203.91" height="54.48" transform="translate(73.2 192.74) scale(0.44)" xlink:href="#Blue_2"/><rect x="109.13" y="43.18" width="51.42" height="51.42" style="fill:#d62f8a"/><rect x="169.44" y="43.18" width="51.42" height="51.42" style="fill:#96bf61"/><rect x="109.13" y="104.12" width="51.42" height="51.42" style="fill:#7d2796"/><rect x="169.44" y="104.12" width="51.42" height="51.42" style="fill:#f17533"/></svg>