<?xml version="1.0" encoding="UTF-8"?><svg id="b" xmlns="http://www.w3.org/2000/svg" xmlns:xlink="http://www.w3.org/1999/xlink" viewBox="0 0 330 269"><defs><style>.e,.f,.g,.h{fill:none;}.i{fill:#011e41;}.j{fill:#ec008c;}.k{fill:#ff6c0e;}.l{fill:#8ab7e9;}.m{fill:#78278b;}.f{stroke:#78278b;}.f,.g,.h{stroke-linecap:round;stroke-miterlimit:10;stroke-width:1.19px;}.g{stroke:#ff6c0e;}.h{stroke:#ec008c;}.n{clip-path:url(#d);}</style><symbol id="a" viewBox="0 0 203.91 54.49"><g><path d="M0,53.31H30.36c5.09,0,8.97-1.25,11.64-3.76,2.64-2.36,4.12-5.75,4.06-9.29,.07-2.93-.96-5.79-2.89-8-1.54-1.65-3.49-2.85-5.65-3.5,3.76-.91,6.52-2.47,8.29-4.66,1.83-2.37,2.77-5.31,2.66-8.3,.04-2.56-.61-5.09-1.88-7.31-1.25-2.14-3.04-3.92-5.2-5.14-1.92-.94-4.01-1.52-6.14-1.7-2.41-.37-4.84-.61-7.27-.72H0V53.31Zm16.32-20.59h7.09c2.55,0,4.32,.43,5.32,1.3,1.04,.97,1.59,2.36,1.5,3.78,.07,1.36-.48,2.67-1.5,3.57-1,.86-2.74,1.29-5.21,1.29h-7.2v-9.94Zm0-20.51h8.29c2.79,0,4.77,.49,5.91,1.48,1.17,.99,1.8,2.47,1.73,4,.05,1.44-.58,2.81-1.7,3.72-1.15,.93-3.13,1.41-6,1.41h-8.23V12.21Z" style="fill:#011e41;"/><path d="M49.6,53.31h16.16V13.84h25.24V.94H49.6V53.31Z" style="fill:#8ab7e9;"/><path d="M125.07,53.31h16.16V22.09c.02-2.98-.47-5.95-1.45-8.77-.94-2.72-2.49-5.19-4.54-7.21-1.82-1.91-4.03-3.4-6.49-4.35C125.1,.51,121.26-.08,117.41,0c-2.79,.02-5.59,.2-8.36,.54-2.63,.25-5.19,.96-7.57,2.12-2.12,1.14-4.01,2.68-5.56,4.52-1.56,1.73-2.74,3.78-3.46,6-.91,2.88-1.4,5.88-1.46,8.9v31.22h16.15V21.31c-.14-2.46,.72-4.88,2.39-6.7,3.82-3.19,9.36-3.19,13.18,0,1.68,1.83,2.54,4.26,2.38,6.74l-.03,31.96Z" style="fill:#8ab7e9;"/><path d="M161.4,23.34c.5-5.79,3.86-9.92,10-9.92,3.17,0,6.63,1.18,8.22,3.63h18.31c-4-11-14.75-16.11-26.43-16.11-16.44,0-28.81,9.63-28.81,26.63,0,14.83,10.89,26.92,27.13,26.92,20.39,0,29.18-11.3,29.18-31.15h-37.6Zm18.81,10.15c.08,4.64-3.61,8.47-8.25,8.55-.12,0-.24,0-.36,0-5.84,0-9.21-3-10.1-8.55h18.71Z" style="fill:#8ab7e9;"/><path d="M203.91,48.49c.07-2.46-1.87-4.5-4.33-4.57-2.46-.07-4.5,1.87-4.57,4.33-.07,2.46,1.87,4.5,4.33,4.57,.05,0,.11,0,.16,0,2.41,.03,4.38-1.9,4.41-4.31v-.02Zm-7.78,0c-.05-1.86,1.41-3.4,3.27-3.45,.03,0,.07,0,.1,0,1.83,0,3.31,1.49,3.3,3.32,0,.04,0,.09,0,.13,.1,1.84-1.31,3.42-3.15,3.52-1.84,.1-3.42-1.31-3.52-3.15,0-.12,0-.24,0-.37Zm2.66-2.24h-1v4.37c.55,.08,1.1,.12,1.66,.13,.52,.06,1.04-.06,1.48-.34,.29-.22,.46-.57,.45-.93-.04-.5-.41-.91-.9-1v-.06c.42-.13,.63-.47,.76-1,.06-.37,.17-.72,.32-1.06h-1.05c-.17,.33-.29,.69-.35,1.06-.08,.44-.34,.66-.89,.66h-.48v-1.83Zm0,2.43h.47c.55,0,1,.19,1,.63s-.29,.66-.92,.66c-.18,.02-.37,.02-.55,0v-1.29Z" style="fill:#011e41;"/></g></symbol><clipPath id="d"><rect x="78.83" y="192.88" width="89.72" height="23.97" style="fill:none;"/></clipPath></defs><g id="c"><path d="M175.8,193.12h12.3c6.49,0,8.76,4.71,8.76,8.09,0,5.74-3.88,8.43-9.36,8.43h-4.35v7.16h-7.35v-23.68Zm7.35,10.88h2.83c1.91,0,3.92-.13,3.92-2.52,0-2.16-1.68-2.29-3.48-2.29h-3.28v4.81Z" style="fill:#011e41;"/><path d="M197.62,193.12h10.47l3.41,13.93h.06l3.42-13.93h10.46v23.68h-7v-15.19h-.06l-4.15,15.19h-5.48l-4.15-15.19h-.06v15.19h-7l.08-23.68Z" style="fill:#011e41;"/><path d="M233.39,208.84c0,.53,.08,1.06,.27,1.56,.53,1.43,2.14,1.73,3.51,1.73,1.2,0,3-.4,3-2.16,0-1.23-1-1.56-5.15-2.72-3.78-1.06-8.09-2.09-8.09-6.87,0-5.47,4.71-7.83,9.63-7.83,5.18,0,9.76,2,10,7.73h-7c.13-.75-.21-1.5-.87-1.89-.65-.41-1.41-.62-2.18-.59-1,0-2.64,.26-2.64,1.59,.14,1.69,3.55,2,6.92,3s6.72,2.49,6.72,6.84c0,6.17-5.71,8.16-11,8.16-2.71,0-10.43-1-10.5-8.53l7.38-.02Z" style="fill:#011e41;"/><g style="clip-path:url(#d);"><use width="203.91" height="54.49" transform="translate(78.83 216.85) scale(.44 -.44)" xlink:href="#a"/></g><path d="M84.23,99.52l39-42.92c1.16-1.28,2.72-2.11,4.43-2.34l29.32-3.94c3.12-.54,6.1,1.55,6.64,4.67,.08,.47,.1,.94,.07,1.41l-1.14,29.51c-.07,1.72-.74,3.36-1.9,4.63l-39,42.93c-2.31,2.75-6.42,3.12-9.18,.82l-28.19-25.55c-2.55-2.53-2.58-6.66-.05-9.22Zm69.26-41.58c.46,1.88,2.33,3.04,4.22,2.62,1.85-.43,3-2.27,2.57-4.11v-.05c-.48-1.88-2.35-3.04-4.24-2.63-1.84,.43-2.99,2.27-2.56,4.12v.05h.01Z" style="fill:#ff6c0e;"/><path d="M156.1,50.84s2.11-7.93,7.92-3.72c5.6,4,1.09,8.37-.6,8.72" style="fill:none; stroke:#78278b; stroke-linecap:round; stroke-miterlimit:10; stroke-width:1.19px;"/><path d="M161.83,51.72c-1.33-1.18-3.12-1.69-4.87-1.4l-5.81,.78,9.22,2,2.7,5.43,.53,.11,.09-2.26c.1-1.75-.58-3.46-1.86-4.66Z" style="fill:#ff6c0e;"/><path d="M159.21,55.84c3.14-11.83,10.29-14.18,19.87-11.12,23.17,7.41,27.37-3.84,16.43-10.75-7.13-4.58-16.19-4.94-23.65-.92-11.41,6.35-13.73,22.26-13.72,22.26" style="fill:none; stroke:#78278b; stroke-linecap:round; stroke-miterlimit:10; stroke-width:1.19px;"/><path d="M109.53,110.54l39-42.93c1.16-1.28,2.74-2.1,4.45-2.33l29.29-3.95c3.12-.54,6.1,1.55,6.64,4.67,.08,.46,.1,.93,.07,1.4l-1.14,29.52c-.07,1.72-.74,3.36-1.9,4.63l-39,42.92c-2.31,2.76-6.41,3.13-9.18,.83l-28.17-25.59c-2.53-2.52-2.56-6.61-.06-9.17Zm69.27-41.58c.46,1.87,2.34,3.03,4.22,2.61,1.85-.42,3-2.27,2.57-4.11v-.06c-.48-1.87-2.36-3.03-4.24-2.62-1.85,.43-2.99,2.27-2.57,4.12l.02,.06Z" style="fill:#78278b;"/><path d="M181.41,61.86s2.11-7.93,7.92-3.73c5.6,4,1.09,8.37-.6,8.73" style="fill:none; stroke:#ec008c; stroke-linecap:round; stroke-miterlimit:10; stroke-width:1.19px;"/><path d="M187.14,62.73c-1.34-1.16-3.12-1.68-4.87-1.4l-5.81,.79,9.22,2,2.7,5.42,.53,.12,.07-2.26c.1-1.75-.57-3.46-1.84-4.67Z" style="fill:#78278b;"/><path d="M184.51,66.86c3.15-11.83,10.3-14.18,19.87-11.12,23.18,7.41,27.38-3.84,16.44-10.75-7.13-4.58-16.19-4.94-23.65-.92-11.41,6.33-13.73,22.26-13.73,22.26" style="fill:none; stroke:#ec008c; stroke-linecap:round; stroke-miterlimit:10; stroke-width:1.19px;"/><path d="M134.08,119.86l39-42.93c1.16-1.27,2.73-2.09,4.43-2.33l29.29-4c3.12-.56,6.09,1.52,6.65,4.63,.09,.49,.11,.98,.07,1.48l-1.13,29.52c-.07,1.72-.74,3.36-1.9,4.63l-39,42.92c-2.31,2.76-6.42,3.13-9.18,.83l-28.17-25.59c-2.52-2.52-2.55-6.6-.06-9.16Zm69.27-41.58c.46,1.87,2.34,3.03,4.22,2.61,1.84-.42,2.99-2.24,2.57-4.08,0-.03-.01-.06-.02-.09-.46-1.87-2.34-3.03-4.22-2.62-1.84,.42-2.99,2.26-2.57,4.1,0,.03,.01,.06,.02,.08Z" style="fill:#ec008c;"/><path d="M205.98,71.18s2.11-7.93,7.92-3.72c5.59,4,1.09,8.36-.6,8.72" style="fill:none; stroke:#ff6c0e; stroke-linecap:round; stroke-miterlimit:10; stroke-width:1.19px;"/><path d="M211.68,72.05c-1.33-1.17-3.11-1.68-4.86-1.4l-5.84,.75,9.22,2,2.7,5.42,.53,.12,.08-2.27c.1-1.73-.57-3.42-1.83-4.62Z" style="fill:#ec008c;"/><path d="M209.06,76.18c3.15-11.78,10.3-14.18,19.92-11.12,23.18,7.41,27.38-3.84,16.44-10.75-7.15-4.6-16.23-4.95-23.71-.91-11.4,6.35-13.73,22.25-13.73,22.25" style="fill:none; stroke:#ff6c0e; stroke-linecap:round; stroke-miterlimit:10; stroke-width:1.19px;"/></g></svg>