<svg id="Capa_1" data-name="Capa 1" xmlns="http://www.w3.org/2000/svg" xmlns:xlink="http://www.w3.org/1999/xlink" viewBox="0 0 500 500"><defs><symbol id="Blue" data-name="Blue" viewBox="0 0 203.91 54.48"><path d="M0,1.18H30.36Q38,1.18,42,4.94a12.17,12.17,0,0,1,4.06,9.29,11.79,11.79,0,0,1-2.89,8,12.76,12.76,0,0,1-5.65,3.5q5.64,1.37,8.29,4.66a12.83,12.83,0,0,1,2.66,8.3A14.28,14.28,0,0,1,46.59,46a14,14,0,0,1-5.2,5.14,17.23,17.23,0,0,1-6.14,1.7,70.72,70.72,0,0,1-7.27.72H0ZM16.32,21.77h7.09q3.82,0,5.32-1.3a4.75,4.75,0,0,0,1.5-3.78,4.43,4.43,0,0,0-1.5-3.57q-1.5-1.29-5.21-1.29h-7.2Zm0,20.51h8.29c2.79,0,4.77-.49,5.91-1.48a4.94,4.94,0,0,0,1.73-4,4.59,4.59,0,0,0-1.7-3.72c-1.15-.93-3.13-1.41-6-1.41H16.32Z" style="fill:#0a1e3f"/><path d="M49.6,1.18H65.76V40.65H91v12.9H49.6Z" style="fill:#95b6e5"/><path d="M125.07,1.18h16.16V32.4a26.16,26.16,0,0,1-1.45,8.77,18.61,18.61,0,0,1-4.54,7.21,17.91,17.91,0,0,1-6.49,4.35,32.64,32.64,0,0,1-11.34,1.75,70.91,70.91,0,0,1-8.36-.54,22,22,0,0,1-7.57-2.12,19.06,19.06,0,0,1-5.56-4.52,16.56,16.56,0,0,1-3.46-6A31.57,31.57,0,0,1,91,32.4V1.18h16.15v32a9.12,9.12,0,0,0,2.39,6.7,10.28,10.28,0,0,0,13.18,0,9.1,9.1,0,0,0,2.38-6.74Z" style="fill:#95b6e5"/><path d="M161.4,31.15c.5,5.79,3.86,9.92,10,9.92,3.17,0,6.63-1.18,8.22-3.63h18.31c-4,11-14.75,16.11-26.43,16.11-16.44,0-28.81-9.63-28.81-26.63C142.69,12.09,153.58,0,169.82,0,190.21,0,199,11.3,199,31.15ZM180.21,21a8.4,8.4,0,0,0-8.61-8.55c-5.84,0-9.21,3-10.1,8.55Z" style="fill:#95b6e5"/><path d="M203.91,6a4.45,4.45,0,1,1-4.41-4.33A4.36,4.36,0,0,1,203.91,6Zm-7.78,0a3.36,3.36,0,0,0,3.37,3.45A3.31,3.31,0,0,0,202.8,6a3.34,3.34,0,1,0-6.67,0Zm2.66,2.24h-1V3.87a12.12,12.12,0,0,1,1.66-.13,2.32,2.32,0,0,1,1.48.34,1.12,1.12,0,0,1,.45.93,1.11,1.11,0,0,1-.9,1v.06c.42.13.63.47.76,1a4.18,4.18,0,0,0,.32,1.06h-1.05a3.41,3.41,0,0,1-.35-1.06c-.08-.44-.34-.66-.89-.66h-.48Zm0-2.43h.47c.55,0,1-.19,1-.63s-.29-.66-.92-.66a2.2,2.2,0,0,0-.55,0Z" style="fill:#0a1e3f"/></symbol></defs><polygon points="154.38 397.57 129.44 378.28 104.49 397.57 104.49 426.5 154.38 426.5 154.38 397.57" style="fill:#89bb55"/><rect x="104.49" y="436.12" width="49.89" height="10.45" style="fill:#89bb55"/><polygon points="214.85 358.99 189.9 339.7 164.96 358.99 164.96 426.5 214.85 426.5 214.85 358.99" style="fill:#95b6e5"/><rect x="164.96" y="436.12" width="49.89" height="10.45" style="fill:#95b6e5"/><polygon points="275.31 339.7 250.56 320.41 225.42 339.7 225.42 426.5 275.31 426.5 275.31 339.7" style="fill:#7d2796"/><rect x="225.42" y="436.12" width="49.89" height="10.45" style="fill:#7d2796"/><polygon points="335.78 310.76 310.83 291.48 285.89 310.76 285.89 426.5 335.78 426.5 335.78 310.76" style="fill:#f17533"/><rect x="285.89" y="436.12" width="49.89" height="10.45" style="fill:#f17533"/><polygon points="396.24 272.19 371.3 252.9 346.35 272.19 346.35 426.5 396.24 426.5 396.24 272.19" style="fill:#d62f8a"/><rect x="346.35" y="436.12" width="49.89" height="10.45" style="fill:#d62f8a"/><path d="M105.33,333.82s27.32-28.93,84.57-38.58c41.82-7,82.47-21.23,124.39-60.54,21.19-19.88,40.43-33,57-39.9" style="fill:none;stroke:#bdbdbd;stroke-linecap:round;stroke-linejoin:round;stroke-width:2px"/><circle cx="129.5" cy="316.14" r="8.84" style="fill:#89bb55"/><circle cx="189.9" cy="295.24" r="8.84" style="fill:#95b6e5"/><circle cx="250.37" cy="277.76" r="8.84" style="fill:#7d2796"/><circle cx="310.83" cy="237.38" r="8.84" style="fill:#f17533"/><circle cx="371.31" cy="194.28" r="8.84" style="fill:#d62f8a"/><path d="M196,68.88a6.77,6.77,0,0,0,.42,2.43c.83,2.22,3.33,2.69,5.47,2.69,1.88,0,4.74-.62,4.74-3.36,0-1.92-1.61-2.43-8-4.24C192.67,64.74,186,63.14,186,55.69c0-8.54,7.35-12.21,15-12.21,8.07,0,15.21,3.05,15.52,12.05H205.65a2.85,2.85,0,0,0-1.36-3,6,6,0,0,0-3.39-.93c-1.56,0-4.11.42-4.11,2.49.21,2.63,5.52,3.2,10.78,4.65s10.48,3.88,10.48,10.66c0,9.62-8.91,12.72-17.2,12.72-4.22,0-16.26-1.5-16.36-13.29Z" style="fill:#0a1e3f"/><path d="M245.2,75.29c0,2,.1,4.3,1.25,6H235.92a7.15,7.15,0,0,1-.36-2.53h-.11c-2.18,2.48-5.36,3.21-8.7,3.21-5.21,0-9.53-2.49-9.53-8.13,0-8.48,10-8.17,15.26-9.15,1.41-.26,2.82-.67,2.82-2.38s-1.72-2.48-3.39-2.48c-3.18,0-3.8,1.6-3.85,2.74h-9.59a7.74,7.74,0,0,1,4.69-7.24c2.6-1.25,6-1.56,9.22-1.56,12.92,0,12.82,5.33,12.82,10.51Zm-9.9-6.05a17.73,17.73,0,0,1-4.07,1.29c-2.29.52-3.49,1.09-3.49,2.9,0,1.24,1.36,2.48,3.23,2.48a4.08,4.08,0,0,0,4.33-4.19Z" style="fill:#0a1e3f"/><path d="M248.28,44.36h10.31V81.29H248.28Z" style="fill:#0a1e3f"/><path d="M270.58,70.17c.26,3,2,5.23,5.26,5.23a5.18,5.18,0,0,0,4.33-1.92h9.64C287.72,79.28,282,82,275.89,82c-8.65,0-15.16-5.07-15.16-14A13.84,13.84,0,0,1,275,53.77c10.73,0,15.37,5.95,15.37,16.4Zm9.9-5.33a4.43,4.43,0,0,0-4.53-4.5,4.89,4.89,0,0,0-5.32,4.5Z" style="fill:#0a1e3f"/><path d="M307.74,62.26a2.62,2.62,0,0,0-1.2-2,3.62,3.62,0,0,0-2.3-.78c-1.45,0-3.12.31-3.12,2.07,0,.78.62,1.14,1.2,1.4,1.72.72,5.62.93,9.06,2.07s6.47,3.1,6.47,7.5c0,7.45-7.2,9.47-13.76,9.47-6.36,0-13.34-2.54-13.5-9.47h9.85a3.28,3.28,0,0,0,1.25,2.38,4.3,4.3,0,0,0,2.76.78c1.36,0,3.49-.52,3.49-2.07s-.88-2-5.68-2.85c-7.86-1.34-11-3.83-11-8.43,0-6.78,7.34-8.54,12.76-8.54,5.84,0,12.87,1.61,13.14,8.49Z" style="fill:#0a1e3f"/><path d="M334.37,44.36h28.76v9.47h-17.3v4.6h14.85v8.79H345.83V81.29H334.37Z" style="fill:#0a1e3f"/><path d="M378,82c-10.16,0-14.75-6.68-14.75-14.13S367.88,53.77,378,53.77s14.74,6.63,14.74,14.07S388.2,82,378,82Zm0-20.75c-3.91,0-4.43,3.78-4.43,6.62s.52,6.68,4.43,6.68,4.43-3.83,4.43-6.68S382,61.22,378,61.22Z" style="fill:#0a1e3f"/><path d="M394.66,54.45h9.9v4.29h.11c1.67-3.21,3.85-5,7.61-5a11.77,11.77,0,0,1,3,.42v9.05a10.55,10.55,0,0,0-4.07-.67c-4.06,0-6.25,2.38-6.25,8.12v10.6H394.66Z" style="fill:#0a1e3f"/><path d="M431.71,64.64a3.65,3.65,0,0,0-1.14-2.54,3.78,3.78,0,0,0-2.61-.88c-4,0-4.53,3.42-4.53,6.68s.57,6.62,4.53,6.62a4.12,4.12,0,0,0,4-3.93h9.85A12.51,12.51,0,0,1,437.13,79a15.15,15.15,0,0,1-9.38,3c-8.13,0-14.64-5.59-14.64-14.07s6.51-14.13,14.64-14.13c7.09,0,13.14,3.47,13.76,10.87Z" style="fill:#0a1e3f"/><path d="M452.2,70.17c.26,3,2,5.23,5.26,5.23a5.15,5.15,0,0,0,4.32-1.92h9.64c-2.08,5.8-7.76,8.49-13.91,8.49-8.65,0-15.16-5.07-15.16-14a13.83,13.83,0,0,1,14.27-14.18c10.74,0,15.38,5.95,15.38,16.4Zm9.9-5.33a4.43,4.43,0,0,0-4.54-4.5,4.88,4.88,0,0,0-5.31,4.5Z" style="fill:#0a1e3f"/><use width="203.91" height="54.48" transform="translate(35.65 44) scale(0.69)" xlink:href="#Blue"/></svg>