<svg id="Capa_1" data-name="Capa 1" xmlns="http://www.w3.org/2000/svg" xmlns:xlink="http://www.w3.org/1999/xlink" viewBox="0 0 500 500"><defs><symbol id="Blue" data-name="Blue" viewBox="0 0 203.91 54.48"><path d="M0,1.18H30.36Q38,1.18,42,4.94a12.17,12.17,0,0,1,4.06,9.29,11.79,11.79,0,0,1-2.89,8,12.76,12.76,0,0,1-5.65,3.5q5.64,1.37,8.29,4.66a12.83,12.83,0,0,1,2.66,8.3A14.28,14.28,0,0,1,46.59,46a14,14,0,0,1-5.2,5.14,17.23,17.23,0,0,1-6.14,1.7,70.72,70.72,0,0,1-7.27.72H0ZM16.32,21.77h7.09q3.82,0,5.32-1.3a4.75,4.75,0,0,0,1.5-3.78,4.43,4.43,0,0,0-1.5-3.57q-1.5-1.29-5.21-1.29h-7.2Zm0,20.51h8.29c2.79,0,4.77-.49,5.91-1.48a4.94,4.94,0,0,0,1.73-4,4.59,4.59,0,0,0-1.7-3.72c-1.15-.93-3.13-1.41-6-1.41H16.32Z" style="fill:#0a1e3f"/><path d="M49.6,1.18H65.76V40.65H91v12.9H49.6Z" style="fill:#95b6e5"/><path d="M125.07,1.18h16.16V32.4a26.16,26.16,0,0,1-1.45,8.77,18.61,18.61,0,0,1-4.54,7.21,17.91,17.91,0,0,1-6.49,4.35,32.64,32.64,0,0,1-11.34,1.75,70.91,70.91,0,0,1-8.36-.54,22,22,0,0,1-7.57-2.12,19.06,19.06,0,0,1-5.56-4.52,16.56,16.56,0,0,1-3.46-6A31.57,31.57,0,0,1,91,32.4V1.18h16.15v32a9.12,9.12,0,0,0,2.39,6.7,10.28,10.28,0,0,0,13.18,0,9.1,9.1,0,0,0,2.38-6.74Z" style="fill:#95b6e5"/><path d="M161.4,31.15c.5,5.79,3.86,9.92,10,9.92,3.17,0,6.63-1.18,8.22-3.63h18.31c-4,11-14.75,16.11-26.43,16.11-16.44,0-28.81-9.63-28.81-26.63C142.69,12.09,153.58,0,169.82,0,190.21,0,199,11.3,199,31.15ZM180.21,21a8.4,8.4,0,0,0-8.61-8.55c-5.84,0-9.21,3-10.1,8.55Z" style="fill:#95b6e5"/><path d="M203.91,6a4.45,4.45,0,1,1-4.41-4.33A4.36,4.36,0,0,1,203.91,6Zm-7.78,0a3.36,3.36,0,0,0,3.37,3.45A3.31,3.31,0,0,0,202.8,6a3.34,3.34,0,1,0-6.67,0Zm2.66,2.24h-1V3.87a12.12,12.12,0,0,1,1.66-.13,2.32,2.32,0,0,1,1.48.34,1.12,1.12,0,0,1,.45.93,1.11,1.11,0,0,1-.9,1v.06c.42.13.63.47.76,1a4.18,4.18,0,0,0,.32,1.06h-1.05a3.41,3.41,0,0,1-.35-1.06c-.08-.44-.34-.66-.89-.66h-.48Zm0-2.43h.47c.55,0,1-.19,1-.63s-.29-.66-.92-.66a2.2,2.2,0,0,0-.55,0Z" style="fill:#0a1e3f"/></symbol></defs><path d="M406.07,428.27c0-6-.93-7-7.1-7.41-2.14-1.76-4.72-1.34-7.17-1.35q-35.39,0-70.79,0c-2.18,0-4.4-.19-6.51.69a2.26,2.26,0,0,0-.82.81h-.15v-.14a35.21,35.21,0,0,0-21,0c-6,.37-7,1.44-7.07,7.44,0,1.89-.07,3.79,0,5.68.18,3.47,2,5.35,5.57,5.34l30.28-.14h0l73.44.14C406.14,439.36,406.14,439.35,406.07,428.27Z" style="fill:#f17533"/><path d="M399,420.86c0-2,.07-4.1-.13-6.13-.41-4.2-3.29-7.07-7.51-7.08-24.76,0-49.52.05-74.28.09h0c-3.94-.05-7.88-.14-11.82-.15-10.46,0-11.54,1-12.33,11.59a12.62,12.62,0,0,1-.34,1.71l20.83,0,.14.14Z" style="fill:#95b6e5"/><path d="M385.53,346.69c-.36-6-3.26-8.56-9.58-9h0c-1.52-1.47-1.26-3.48-1.57-5.29-1.26-7.59-2.49-15.17-5.35-22.37,1.14-1.75,4.25-1.65,4.18-4.51h0c.92-5-.6-7-5.84-7-10.78,0-21.55.16-32.33.25h0l-11.38,0c-2.57,0-4.61.93-5.4,3.55s-.26,4.91,2.09,6.12,2,2.74,1.42,4.69a110,110,0,0,0-3.91,20.64c-.26,3.42-1.49,4.26-4.8,4.26-23.55,0-47.1.2-70.64.36-9.4.06-12.64,3.61-11.89,12.94-.06,2.76-.34,5.55-.13,8.29.41,5.42,3.73,8.81,9.11,8.79,22.56-.07,45.12-.35,67.69-.55h0a41.35,41.35,0,0,0,6.09.08c3.3-.41,4.6.73,4.93,4.13a112.22,112.22,0,0,0,4.42,21c.54,1.83.9,3.14-1.28,4.29s-3,3.55-2.16,6.05a5.12,5.12,0,0,0,5.37,3.67c3.63-.07,7.27-.17,10.91-.25h0l33.72-.07a5,5,0,0,0,5.23-3.82c.7-2.36,0-4.62-2.16-5.69-2.43-1.21-2-2.85-1.47-4.69A141.35,141.35,0,0,0,375,371c.18-1.45.18-3,1.85-3.65,5.54-.62,8.56-3.53,8.77-8.86A113.1,113.1,0,0,0,385.53,346.69Zm-27.31-37.31-.13,0-.27-.1.49.06Z" style="fill:#d62f8a"/><path d="M153.07,316.15c-1,0-2,0-3,.08a57.79,57.79,0,0,0-37.74,98.68,8.48,8.48,0,0,1-2,1.49c-5.58,3.19-10.89,6.85-16.31,10.31l.27,1.15h37.95a57.81,57.81,0,1,0,20.93-111.71Z" style="fill:#89bb55"/><path d="M131,359c.06-9.25,6-16.38,15.36-18.39,11-2.36,22.52,2.06,26.75,10.26s1.74,17.92-6.2,23.74l-7.11,5.23c-3.35,2.45-6.06,5.13-5.33,9.62.41,2.51-.4,4.25-3.78,4.25-3.21,0-3.61-1.49-4.11-4.07-2.26-11.52,8.1-14.77,14.85-20.45,4-3.33,7.26-7,5.14-12.56-2-5.21-5.66-8.52-11.69-9-10.59-.83-15.52,3.72-16,14.81-.12,2.76-.42,4.68-4.18,4.58-3.46-.09-3.81-1.94-3.71-4.39C131,361.44,131,360.23,131,359Z" style="fill:#d62f8a"/><path d="M150.86,408.27c-2.54.2-4.17-.43-4.23-3.21s.8-4.13,4-4.07c2.74.06,3.89,1,3.86,3.6C154.48,407,153.76,408.53,150.86,408.27Z" style="fill:#d62f8a"/><path d="M315,234.73C313.58,230.9,299,193.48,280,193c-4.6-.12-10.75,4.22-15.19,5.3-6.07,1.48-11.95,3.16-25.87.17-8.78-2.45-14.69-6.81-20.4-5.59A22.92,22.92,0,0,0,209.7,196c-40.33,24.28-32.27,87.08-32.22,87.46a23.93,23.93,0,0,0,2.79,7.38c1.77,2.91,4,5.08,7.58,5.56a20.64,20.64,0,0,0,8.7-.57,30.18,30.18,0,0,0,10.27-5.19c4.73-3.54,8.74-7.88,13.15-11.77a54.72,54.72,0,0,1,10.7-7.7,42.18,42.18,0,0,1,23.55-4.5,41,41,0,0,1,15.1,4.64,92,92,0,0,1,15.15,10.14c4.24,3.32,8.46,6.64,12.89,9.71,7.9,5.48,13.32,5,13.94,5a8.62,8.62,0,0,0,6.89-2.47,15.27,15.27,0,0,0,4.2-8.15C325.93,259.75,316.88,239.66,315,234.73Z" style="fill:#f17533"/><path d="M294.57,251.32a5.94,5.94,0,1,1,8.41-.2A5.94,5.94,0,0,1,294.57,251.32Z" style="fill:#7d2796"/><path d="M284.24,250.62a6.08,6.08,0,0,1,.18,8.44,6,6,0,0,1-8.71-8.24A6.09,6.09,0,0,1,284.24,250.62Z" style="fill:#7d2796"/><path d="M290.48,266a5.91,5.91,0,0,1-.34-8.38,6,6,0,0,1,8.71,8.16A5.88,5.88,0,0,1,290.48,266Z" style="fill:#7d2796"/><path d="M227.58,238.28a5.95,5.95,0,1,1,6.09,5.8A6,6,0,0,1,227.58,238.28Z" style="fill:#d62f8a"/><path d="M203.39,238a6.09,6.09,0,0,1-5.84,6.1,6,6,0,0,1-.33-12A6.1,6.1,0,0,1,203.39,238Z" style="fill:#d62f8a"/><path d="M215.84,226.1a5.94,5.94,0,1,1,5.8-6.08A5.94,5.94,0,0,1,215.84,226.1Z" style="fill:#d62f8a"/><path d="M215.58,250.3a6.08,6.08,0,0,1,6.09,5.84,6,6,0,0,1-12,.33A6.08,6.08,0,0,1,215.58,250.3Z" style="fill:#d62f8a"/><path d="M215.71,248.11a9.89,9.89,0,1,1,9.92-10A9.95,9.95,0,0,1,215.71,248.11Z" style="fill:#7d2796"/><path d="M259.28,77.52c-2.56,3.26-6.52,4.65-10.58,4.65-11,0-17.77-8.48-17.77-19,0-14.07,9.95-19.71,18.34-19.71,9.48,0,15.48,5.12,17.14,13.81h-11a5.43,5.43,0,0,0-5.42-4.6c-7.87,0-7.61,8.22-7.61,10.76,0,3.46,1.41,9.52,8.39,9.52,2.66,0,5.37-1.35,5.94-4.09h-5.05V61h15.21V81.29h-7.24Z" style="fill:#0a1e3f"/><path d="M296.17,75.29c0,2,.11,4.3,1.25,6H286.9a7.16,7.16,0,0,1-.37-2.53h-.1c-2.19,2.48-5.37,3.21-8.7,3.21-5.22,0-9.54-2.49-9.54-8.13,0-8.48,10-8.17,15.27-9.15,1.4-.26,2.81-.67,2.81-2.38s-1.72-2.48-3.39-2.48c-3.17,0-3.8,1.6-3.85,2.74h-9.59a7.76,7.76,0,0,1,4.69-7.24c2.61-1.25,6-1.56,9.22-1.56,12.93,0,12.82,5.33,12.82,10.51Zm-9.9-6.05a17.81,17.81,0,0,1-4.06,1.29c-2.3.52-3.49,1.09-3.49,2.9,0,1.24,1.35,2.48,3.23,2.48a4.07,4.07,0,0,0,4.32-4.19Z" style="fill:#0a1e3f"/><path d="M299,54.45h9.95V58h.11c2.08-3.11,5.1-4.25,8.85-4.25,2.92,0,6.05,1.5,7.3,4.19.42-.31,2.5-4.19,9.22-4.19,6.93,0,9.28,4.76,9.28,9.11V81.29H333.38V66.76c0-2.54-.26-4.81-3.39-4.81-2.6,0-3.49,2-3.49,4.81V81.29H316.18V66.76c0-2.54-.26-4.81-3.38-4.81-2.61,0-3.49,2-3.49,4.81V81.29H299Z" style="fill:#0a1e3f"/><path d="M357.15,51.55H346.83V44.36h10.32Zm-10.32,2.9h10.32V81.29H346.83Z" style="fill:#0a1e3f"/><path d="M360.43,54.45h9.95v3.41h.11c1.93-2.69,4.69-4.09,8.8-4.09,4.85,0,9.28,2.95,9.28,9.11V81.29H378.25V67.22c0-3.1-.36-5.27-3.38-5.27-1.78,0-4.12.88-4.12,5.17V81.29H360.43Z" style="fill:#0a1e3f"/><path d="M419.16,77.83c0,5.33-1.41,12.83-14.07,12.83-6.41,0-13.18-1.71-14.12-9h10.21a6.84,6.84,0,0,0,.58.93,4,4,0,0,0,3,2c3.33,0,4.06-3.93,4.06-6.15V76h-.1a8.53,8.53,0,0,1-7.24,3.72c-8,0-11.57-5.9-11.57-13.09,0-7,4-12.83,11.72-12.83,3,0,5.89,1.19,7.09,3.94h.1V54.45h10.32Zm-14.28-4.71c3.81,0,4.22-3.62,4.22-6.62s-1.46-5.28-4.48-5.28-4.37,2.49-4.37,5.33C400.25,69.6,401.18,73.12,404.88,73.12Z" style="fill:#0a1e3f"/><use width="203.91" height="54.48" transform="translate(80.84 44) scale(0.69)" xlink:href="#Blue"/></svg>