<?xml version="1.0" encoding="utf-8"?>
<!-- Generator: Adobe Illustrator 26.0.3, SVG Export Plug-In . SVG Version: 6.00 Build 0)  -->
<svg version="1.1" id="Capa_1" xmlns="http://www.w3.org/2000/svg" xmlns:xlink="http://www.w3.org/1999/xlink" x="0px" y="0px"
	 viewBox="0 0 500 500" style="enable-background:new 0 0 500 500;" xml:space="preserve">
<style type="text/css">
	.st0{fill:#0A1E3F;}
	.st1{fill:#95B6E5;}
	.st2{fill:#D62F8A;}
	.st3{fill:#FFFFFF;}
</style>
<symbol  id="Blue_2" viewBox="-102 -27.2 203.9 54.5">
	<g>
		<path class="st0" d="M-102,26.1h30.4c5.1,0,8.9-1.3,11.7-3.8c2.7-2.5,4.1-5.6,4.1-9.3c0-3.1-1-5.8-2.9-8c-1.3-1.5-3.2-2.7-5.6-3.5
			c3.8-0.9,6.5-2.5,8.3-4.7c1.8-2.2,2.7-5,2.7-8.3c0-2.7-0.6-5.2-1.9-7.3c-1.3-2.2-3-3.9-5.2-5.1c-1.4-0.8-3.4-1.4-6.1-1.7
			c-3.7-0.5-6.1-0.7-7.3-0.7h-28V26.1z M-85.6,5.5h7.1c2.5,0,4.3,0.4,5.3,1.3c1,0.9,1.5,2.1,1.5,3.8c0,1.5-0.5,2.7-1.5,3.6
			c-1,0.9-2.7,1.3-5.2,1.3h-7.2V5.5z M-85.6-15h8.3c2.8,0,4.8,0.5,5.9,1.5c1.2,1,1.7,2.3,1.7,4c0,1.5-0.6,2.8-1.7,3.7
			c-1.1,0.9-3.1,1.4-6,1.4h-8.3V-15z"/>
		<path class="st1" d="M-52.3,26.1h16.2v-39.5h25.3v-12.9h-41.4V26.1z"/>
		<path class="st1" d="M23.1,26.1h16.2V-5.2c0-3.1-0.5-6-1.4-8.8c-1-2.8-2.5-5.2-4.5-7.2c-2.1-2.1-4.2-3.5-6.5-4.3
			c-3.1-1.2-6.9-1.8-11.3-1.8c-2.6,0-5.3,0.2-8.4,0.5c-3,0.3-5.5,1.1-7.6,2.1c-2,1.1-3.9,2.6-5.6,4.5c-1.7,1.9-2.8,4-3.5,6
			c-1,3.3-1.5,6.3-1.5,8.9v31.2H5.2v-32c0-2.9,0.8-5.1,2.4-6.7c1.6-1.6,3.8-2.4,6.6-2.4c2.8,0,5,0.8,6.6,2.4
			c1.6,1.6,2.4,3.8,2.4,6.7V26.1z"/>
		<g>
			<path class="st1" d="M59.4-3.9c0.5-5.8,3.9-9.9,10-9.9c3.2,0,6.6,1.2,8.2,3.6H96c-4-11-14.8-16.1-26.4-16.1
				c-16.4,0-28.8,9.6-28.8,26.6c0,14.8,10.9,26.9,27.1,26.9c20.4,0,29.2-11.3,29.2-31.1H59.4z M78.3,6.2c0,4.7-3.6,8.5-8.6,8.5
				c-5.8,0-9.2-3-10.1-8.5H78.3z"/>
		</g>
	</g>
	<g>
		<path class="st0" d="M102,21.3c0-2.4-2-4.4-4.4-4.4c-2.5,0-4.5,1.9-4.5,4.4c0,2.4,2,4.3,4.5,4.3C100,25.6,102,23.7,102,21.3z
			 M94.2,21.3c0-1.9,1.5-3.5,3.4-3.5c1.9,0,3.3,1.5,3.3,3.4c0,1.9-1.4,3.5-3.4,3.5C95.6,24.7,94.2,23.2,94.2,21.3z M96.8,19h-1v4.3
			c0.4,0.1,1,0.1,1.7,0.1c0.8,0,1.2-0.1,1.5-0.3c0.3-0.2,0.4-0.5,0.4-0.9c0-0.5-0.4-0.9-0.9-1v-0.1c0.4-0.1,0.6-0.5,0.8-1.1
			c0.1-0.7,0.2-0.9,0.3-1.1h-1.1c-0.1,0.2-0.2,0.5-0.3,1.1c-0.1,0.4-0.3,0.7-0.9,0.7h-0.5V19z M96.9,21.5h0.5c0.5,0,1,0.2,1,0.6
			c0,0.4-0.3,0.7-0.9,0.7c-0.3,0-0.4,0-0.6-0.1V21.5z"/>
	</g>
</symbol>
<circle class="st2" cx="250" cy="316" r="144"/>
<circle class="st3" cx="250" cy="316" r="133.3"/>
<circle class="st2" cx="250" cy="316" r="120.7"/>
<path class="st3" d="M183.2,342.8c-2.1-2.1-5.5-2-7.6,0.1c-1.5,1.5-2,3.8-1.1,5.8c16.8,41.9,64.4,62.2,106.2,45.4
	c20.2-8.1,36.3-23.9,44.8-43.9c2.3-5.3-4.5-10-8.7-5.9C293,367.4,242.4,400.3,183.2,342.8z"/>
<ellipse class="st3" cx="190" cy="285.3" rx="12" ry="20.2"/>
<ellipse class="st3" cx="310" cy="285.3" rx="12" ry="20.2"/>
<g>
	<g>
		<path class="st0" d="M275.8,44.4h20.4c9.8,0,11.9,5.5,11.9,9.3c0,3.7-1.8,5.7-4.6,7.2c3.3,1.1,6.5,3.8,6.5,9.2
			c0,7.4-6.5,11.2-13,11.2h-21.1V44.4z M287.3,58.7h6c2.4,0,3.9-0.7,3.9-3.1c0-1.9-1.6-2.5-3.9-2.5h-6V58.7z M287.3,72.5h6.7
			c2.4,0,4.5-0.7,4.5-3.5c0-2.2-1.3-3.4-4-3.4h-7.2V72.5z"/>
		<path class="st0" d="M311.4,60.4c-0.6-9.9,5.6-15.6,15.4-15.6c8.8,0,14.8,3.7,14.8,11.3c0,9.2-9.1,12.1-15.9,16.2v0.1h16.4v8.8
			h-31.4c-0.2-3.5,0.8-6.5,2.6-8.9c3-4.2,8.2-6.9,12.9-9.7c1.9-1.1,4.9-2.6,4.9-5.2c0-3.3-1.9-4.4-4.4-4.4c-4.2,0-5.6,3-5.5,7.4
			H311.4z"/>
		<path class="st0" d="M344,44.4h30.8v9.5h-19.3v4.6H373v8.8h-17.6v4.6h19.9v9.5H344V44.4z"/>
	</g>
	
		<use xlink:href="#Blue_2"  width="203.9" height="54.5" x="-102" y="-27.2" transform="matrix(0.6919 0 0 -0.6919 195.1556 62.8466)" style="overflow:visible;"/>
</g>
</svg>
