<svg id="Capa_1" data-name="Capa 1" xmlns="http://www.w3.org/2000/svg" xmlns:xlink="http://www.w3.org/1999/xlink" viewBox="0 0 500 500"><defs><symbol id="Blue" data-name="Blue" viewBox="0 0 203.91 54.48"><path d="M0,1.18H30.36Q38,1.18,42,4.94a12.17,12.17,0,0,1,4.06,9.29,11.79,11.79,0,0,1-2.89,8,12.76,12.76,0,0,1-5.65,3.5q5.64,1.37,8.29,4.66a12.83,12.83,0,0,1,2.66,8.3A14.28,14.28,0,0,1,46.59,46a14,14,0,0,1-5.2,5.14,17.23,17.23,0,0,1-6.14,1.7,70.72,70.72,0,0,1-7.27.72H0ZM16.32,21.77h7.09q3.82,0,5.32-1.3a4.75,4.75,0,0,0,1.5-3.78,4.43,4.43,0,0,0-1.5-3.57q-1.5-1.29-5.21-1.29h-7.2Zm0,20.51h8.29c2.79,0,4.77-.49,5.91-1.48a4.94,4.94,0,0,0,1.73-4,4.59,4.59,0,0,0-1.7-3.72c-1.15-.93-3.13-1.41-6-1.41H16.32Z" style="fill:#0a1e3f"/><path d="M49.6,1.18H65.76V40.65H91v12.9H49.6Z" style="fill:#95b6e5"/><path d="M125.07,1.18h16.16V32.4a26.16,26.16,0,0,1-1.45,8.77,18.61,18.61,0,0,1-4.54,7.21,17.91,17.91,0,0,1-6.49,4.35,32.64,32.64,0,0,1-11.34,1.75,70.91,70.91,0,0,1-8.36-.54,22,22,0,0,1-7.57-2.12,19.06,19.06,0,0,1-5.56-4.52,16.56,16.56,0,0,1-3.46-6A31.57,31.57,0,0,1,91,32.4V1.18h16.15v32a9.12,9.12,0,0,0,2.39,6.7,10.28,10.28,0,0,0,13.18,0,9.1,9.1,0,0,0,2.38-6.74Z" style="fill:#95b6e5"/><path d="M161.4,31.15c.5,5.79,3.86,9.92,10,9.92,3.17,0,6.63-1.18,8.22-3.63h18.31c-4,11-14.75,16.11-26.43,16.11-16.44,0-28.81-9.63-28.81-26.63C142.69,12.09,153.58,0,169.82,0,190.21,0,199,11.3,199,31.15ZM180.21,21a8.4,8.4,0,0,0-8.61-8.55c-5.84,0-9.21,3-10.1,8.55Z" style="fill:#95b6e5"/><path d="M203.91,6a4.45,4.45,0,1,1-4.41-4.33A4.36,4.36,0,0,1,203.91,6Zm-7.78,0a3.36,3.36,0,0,0,3.37,3.45A3.31,3.31,0,0,0,202.8,6a3.34,3.34,0,1,0-6.67,0Zm2.66,2.24h-1V3.87a12.12,12.12,0,0,1,1.66-.13,2.32,2.32,0,0,1,1.48.34,1.12,1.12,0,0,1,.45.93,1.11,1.11,0,0,1-.9,1v.06c.42.13.63.47.76,1a4.18,4.18,0,0,0,.32,1.06h-1.05a3.41,3.41,0,0,1-.35-1.06c-.08-.44-.34-.66-.89-.66h-.48Zm0-2.43h.47c.55,0,1-.19,1-.63s-.29-.66-.92-.66a2.2,2.2,0,0,0-.55,0Z" style="fill:#0a1e3f"/></symbol></defs><path d="M197.48,308.69c0-2-.07-3.68,0-5.39.24-5.13,2.53-9,7.22-11.29a40.79,40.79,0,0,1,20.83-4.07c1.88.13,3.72,1,5.77,1.53,0-1.31-.09-2.8,0-4.27.39-5.66,3-9.85,8.29-12.21a46.27,46.27,0,0,1,21.54-4,13.13,13.13,0,0,1,7.48,3.19c0-.86.09-1.42.1-2,.35-15.51.5-31,1.1-46.52.41-10.29,1.37-20.56,2.26-30.83a14.56,14.56,0,0,1,5.82-10.17c6.3-5.11,16.54-6,23.63-2.1a14.38,14.38,0,0,1,7.64,11.6c2.9,25.94,4.39,52,5.3,78.05.54,15.29,1.23,30.57,1.87,45.85a3,3,0,0,0,.48,1.65c6.8,8.81,11.74,18.72,17,28.45a14.48,14.48,0,0,1,2,8.23c-.35,4.1-.59,8.23-1.31,12.27A138.47,138.47,0,0,1,317.71,413,71.19,71.19,0,0,1,304.1,430a3.43,3.43,0,0,0-1,2.22c-.2,5.42-.3,10.85-.41,16.27-.1,4.78-.78,5.48-5.5,5.48H190.79c-2.68,0-3.71-1.07-3.72-3.77,0-9.44,0-18.88,0-28.32a3.44,3.44,0,0,0-.86-2.25c-10.19-10-15.78-22.25-18-36.2-2-12.52-1.62-25.1-.78-37.66.27-4-1.16-7.57-1.66-11.35-.59-4.46-1.39-8.9-1.64-13.38a11.3,11.3,0,0,1,6.26-11.12,39.61,39.61,0,0,1,18.08-4.7,11.92,11.92,0,0,1,8.11,2.81C196.8,308.17,197.05,308.35,197.48,308.69ZM296.85,434.5c-.51.25-1,.52-1.56.76-2,.89-3.32.51-4.1-1.15a3,3,0,0,1,1.55-4.23c7.54-3.37,12.77-9.21,17.24-15.87,8-11.93,13.15-25.12,16.74-38.95,1.78-6.82,3.22-13.73,3.22-20.83a8.58,8.58,0,0,0-.7-3.78c-2.69-5.26-5.45-10.49-8.35-15.63-4.49-8-9.53-15.55-16.39-21.72a6.56,6.56,0,0,0-2.5-1.39,343.24,343.24,0,0,0-37.91-8.4c-2.91-.5-5.85-.86-8.86-1.3-1.36,7.3-1.5,14.25,1.93,20.85,2.81,5.4,7.33,9,12.51,12a85.81,85.81,0,0,0,17.62,7.06c2,.6,2.63,1.45,2.7,3.32a38.08,38.08,0,0,0,4.22,16c1.14,2.24.18,4.41-2.32,4.7a83.15,83.15,0,0,0-23.74,6.51,3,3,0,0,1-2.75-.28,3.73,3.73,0,0,1-.94-3,4.28,4.28,0,0,1,2.21-2.53,112.7,112.7,0,0,1,11.08-4.15c3-.93,6.21-1.4,9.23-2-1.08-4.26-2.15-8.46-3.25-12.77-2,4-5.54,6-9.55,7.24A65,65,0,0,1,264,357.48c-5.21.75-10.53,1.29-15.19-2.19-.06,0-.2,0-.35,0,0,.26,0,.52-.06.79-.36,5.23-2.83,9.07-7.67,11.14a42.45,42.45,0,0,1-8,2.72c-6.47,1.33-13.05,2.92-19.2-1.57-.68,5.16-3.57,8.4-8.16,10.4a43.26,43.26,0,0,1-12.65,3.48c-8.54.91-12.41-1.27-15.89-9.11-1.46-3.3-2.64-6.72-4-10.32,0,.52,0,.82,0,1.12.44,6.26.53,12.58,1.4,18.79a54.29,54.29,0,0,0,15.15,31.38c2.66,2.69,5.67,5,8.56,7.49,1.52,1.3,1.88,2.8.87,4.25s-2.64,1.73-4.4.56c-.37-.25-.77-.48-1.25-.78v22.2H296.85Zm13.2-124.39c0-.88,0-1.31,0-1.75-.49-12.35-1-24.7-1.46-37.06-.93-26.06-2.42-52.09-5.26-78-.45-4-2.46-6.81-6.21-8.18a15.82,15.82,0,0,0-14.76,1.74,9.09,9.09,0,0,0-4.4,7.08c-.93,13.19-2,26.38-2.57,39.59-.62,16.2-.72,32.42-1,48.63a8.15,8.15,0,0,0,.1,1.78c1.08,4.91,2.2,9.82,3.27,14.74a1.58,1.58,0,0,0,1.43,1.43c4.72,1,9.47,1.88,14.11,3.16C299,304.83,305.42,304.82,310.05,310.11Zm-85.33,55.13a36.53,36.53,0,0,0,13.71-3.47c2.68-1.25,4.19-3.39,4-6.32a113.45,113.45,0,0,0-1.51-13.55c-1.86-9.57-4-19.1-6.19-28.59-1.19-5.16-2.65-10.27-4.24-15.31a5.91,5.91,0,0,0-5.68-4.18,36.26,36.26,0,0,0-17.5,3.55,6.34,6.34,0,0,0-3.83,6,52.83,52.83,0,0,0,.48,9.25c1.48,8.76,3.16,17.48,4.87,26.2a106.41,106.41,0,0,0,5.9,20.76C216.71,364.31,218.67,365.55,224.72,365.24Zm-35.31,11.3a35.15,35.15,0,0,0,14.54-3.7,5.87,5.87,0,0,0,3.59-6.32,85.41,85.41,0,0,0-1.48-10c-1.85-7.91-3.81-15.8-6-23.64-1.63-5.94-3.5-11.83-5.54-17.64-1.14-3.24-3.3-4.33-6.75-4.14a35.58,35.58,0,0,0-14.21,3.74,5.84,5.84,0,0,0-3.49,5.75,41,41,0,0,0,.63,7.28q2.51,11.76,5.33,23.45c1.72,7.17,3.65,14.28,6.87,21C184.36,375.29,186.51,376.89,189.41,376.54Zm82.25-78.06c-1.24-6.52-2.41-12.86-4.91-18.85a7.19,7.19,0,0,0-6.93-4.74A40.54,40.54,0,0,0,242,278.48c-3.17,1.41-4.87,3.9-4.68,7.29a148.78,148.78,0,0,0,1.5,16.49c1.33,8,3.21,15.92,4.83,23.88,1.48,7.23,3.2,14.39,6.27,21.14a7.26,7.26,0,0,0,6.67,4.67A39.05,39.05,0,0,0,275.3,348a19.11,19.11,0,0,0,3.24-2.59c-2.66-1.13-4.92-2-7.12-3.05-6.92-3.21-13.25-7.24-17.67-13.66-6.64-9.64-6.38-20.15-3.59-30.91a2.73,2.73,0,0,1,3.14-2c1.14.08,2.27.25,3.39.42Z" style="fill:#7d2796"/><path d="M244.47,465.24H190.92c-9.13,0-15.17-6.06-15.17-15.22,0-7.87,0-15.74,0-23.6a3.75,3.75,0,0,0-.84-2.3c-9.74-10.93-15.29-23.78-17.71-38.12-2.25-13.31-1.92-26.7-1.1-40.08.2-3.15-.81-6-1.35-8.95-1.09-6-2.27-12.09-1.81-18.24a22.35,22.35,0,0,1,12.41-19A51.88,51.88,0,0,1,187,293.85a2.06,2.06,0,0,0,1.53-.79c3.59-7.54,10-11.4,17.63-13.82a59.69,59.69,0,0,1,14.51-2.72,1.75,1.75,0,0,0,1.35-.78c3.2-7.61,9.17-12,16.74-14.6a57.42,57.42,0,0,1,16.82-3.42c1.66-.06,2.19-.48,2.19-2.18,0-6.78,0-13.57.36-20.34.76-14.35,1.56-28.7,2.71-43,.73-9,5.35-16,13.18-20.54a33.3,33.3,0,0,1,29.44-2.6c10.33,3.83,15.93,11.54,17.11,22.49,2.85,26.38,4.32,52.86,5.3,79.36q.76,20.42,1.63,40.82a3.93,3.93,0,0,0,.51,2c6.13,8.59,10.88,18,15.91,27.22A25,25,0,0,1,347.18,354a91.29,91.29,0,0,1-1,11.81c-3.31,19.82-9.64,38.59-20.47,55.62-3,4.77-7,9-10.44,13.48a4.36,4.36,0,0,0-.94,2.25c-.18,4.28-.26,8.56-.35,12.85-.19,9.11-6.27,15.2-15.35,15.21-18.07,0-36.14,0-54.2,0Zm-47-156.55c-.43-.34-.68-.52-.91-.71a11.92,11.92,0,0,0-8.11-2.81,39.61,39.61,0,0,0-18.08,4.7A11.3,11.3,0,0,0,164.12,321c.25,4.48,1,8.92,1.64,13.38.5,3.78,1.93,7.36,1.66,11.35-.84,12.56-1.2,25.14.78,37.66,2.19,13.95,7.78,26.2,18,36.2a3.44,3.44,0,0,1,.86,2.25c.06,9.44,0,18.88,0,28.32,0,2.7,1,3.76,3.72,3.77H297.22c4.72,0,5.4-.7,5.5-5.48.11-5.42.21-10.85.41-16.27a3.43,3.43,0,0,1,1-2.22A71.19,71.19,0,0,0,317.71,413a138.47,138.47,0,0,0,16.83-46.36c.72-4,1-8.17,1.31-12.27a14.48,14.48,0,0,0-2-8.23c-5.27-9.73-10.21-19.64-17-28.45a3,3,0,0,1-.48-1.65c-.64-15.28-1.33-30.56-1.87-45.85-.91-26.08-2.4-52.11-5.3-78.05a14.38,14.38,0,0,0-7.64-11.6c-7.09-3.94-17.33-3-23.63,2.1a14.56,14.56,0,0,0-5.82,10.17c-.89,10.27-1.85,20.54-2.26,30.83-.6,15.5-.75,31-1.1,46.52,0,.57-.06,1.13-.1,2a13.13,13.13,0,0,0-7.48-3.19,46.27,46.27,0,0,0-21.54,4c-5.31,2.36-7.9,6.55-8.29,12.21-.11,1.47,0,3,0,4.27-2.05-.57-3.89-1.4-5.77-1.53A40.79,40.79,0,0,0,204.71,292c-4.69,2.26-7,6.16-7.22,11.29C197.41,305,197.48,306.73,197.48,308.69Z" style="fill:#f17533"/><path d="M310.05,310.11c-4.63-5.29-11.05-5.28-16.79-6.87-4.64-1.28-9.39-2.18-14.11-3.16a1.58,1.58,0,0,1-1.43-1.43c-1.07-4.92-2.19-9.83-3.27-14.74a8.15,8.15,0,0,1-.1-1.78c.32-16.21.42-32.43,1-48.63.52-13.21,1.64-26.4,2.57-39.59a9.09,9.09,0,0,1,4.4-7.08,15.82,15.82,0,0,1,14.76-1.74c3.75,1.37,5.76,4.15,6.21,8.18,2.84,25.94,4.33,52,5.26,78,.44,12.36,1,24.71,1.46,37.06C310.06,308.8,310.05,309.23,310.05,310.11Z" style="fill:#f17533"/><path d="M224.72,365.24c-6.05.31-8-.93-10-5.7a106.41,106.41,0,0,1-5.9-20.76c-1.71-8.72-3.39-17.44-4.87-26.2a52.83,52.83,0,0,1-.48-9.25,6.34,6.34,0,0,1,3.83-6,36.26,36.26,0,0,1,17.5-3.55,5.91,5.91,0,0,1,5.68,4.18c1.59,5,3,10.15,4.24,15.31,2.21,9.49,4.33,19,6.19,28.59a113.45,113.45,0,0,1,1.51,13.55c.22,2.93-1.29,5.07-4,6.32A36.53,36.53,0,0,1,224.72,365.24Z" style="fill:#f17533"/><path d="M189.41,376.54c-2.9.35-5-1.25-6.48-4.21-3.22-6.69-5.15-13.8-6.87-21q-2.81-11.69-5.33-23.45a41,41,0,0,1-.63-7.28,5.84,5.84,0,0,1,3.49-5.75,35.58,35.58,0,0,1,14.21-3.74c3.45-.19,5.61.9,6.75,4.14,2,5.81,3.91,11.7,5.54,17.64,2.16,7.84,4.12,15.73,6,23.64a85.41,85.41,0,0,1,1.48,10,5.87,5.87,0,0,1-3.59,6.32A35.15,35.15,0,0,1,189.41,376.54Z" style="fill:#f17533"/><path d="M271.66,298.48l-15-2.28c-1.12-.17-2.25-.34-3.39-.42a2.73,2.73,0,0,0-3.14,2c-2.79,10.76-3,21.27,3.59,30.91,4.42,6.42,10.75,10.45,17.67,13.66,2.2,1,4.46,1.92,7.12,3.05A19.11,19.11,0,0,1,275.3,348,39.05,39.05,0,0,1,256.56,352a7.26,7.26,0,0,1-6.67-4.67c-3.07-6.75-4.79-13.91-6.27-21.14-1.62-8-3.5-15.88-4.83-23.88a148.78,148.78,0,0,1-1.5-16.49c-.19-3.39,1.51-5.88,4.68-7.29a40.54,40.54,0,0,1,17.85-3.59,7.19,7.19,0,0,1,6.93,4.74C269.25,285.62,270.42,292,271.66,298.48Z" style="fill:#f17533"/><path d="M329.24,350.45c-2.69-5.26-5.45-10.49-8.35-15.63-4.49-8-9.53-15.55-16.39-21.72a6.56,6.56,0,0,0-2.5-1.39,343.24,343.24,0,0,0-37.91-8.4c-2.91-.5-5.85-.86-8.86-1.3-1.36,7.3-1.5,14.25,1.93,20.85,2.81,5.4,7.33,9,12.51,12a85.81,85.81,0,0,0,17.62,7.06c2,.6,2.63,1.45,2.7,3.32a38.08,38.08,0,0,0,4.22,16c1.14,2.24.18,4.41-2.32,4.7a83.15,83.15,0,0,0-23.74,6.51,3,3,0,0,1-2.75-.28,3.73,3.73,0,0,1-.94-3,4.28,4.28,0,0,1,2.21-2.53,112.7,112.7,0,0,1,11.08-4.15c3-.93,6.21-1.4,9.23-2-1.08-4.26-2.15-8.46-3.25-12.77-2,4-5.54,6-9.55,7.24A65,65,0,0,1,264,357.48c-5.21.75-10.53,1.29-15.19-2.19-.06,0-.2,0-.35,0,0,.26,0,.52-.06.79-.36,5.23-2.83,9.07-7.67,11.14a42.45,42.45,0,0,1-8,2.72c-6.47,1.33-13.05,2.92-19.2-1.57-.68,5.16-3.57,8.4-8.16,10.4a43.26,43.26,0,0,1-12.65,3.48c-8.54.91-12.41-1.27-15.89-9.11-1.46-3.3-2.64-6.72-4-10.32,0,.52,0,.82,0,1.12.44,6.26.53,12.58,1.4,18.79a54.29,54.29,0,0,0,15.15,31.38c2.66,2.69,5.67,5,8.56,7.49,1.52,1.3,1.88,2.8.87,4.25s-2.64,1.73-4.4.56c-.37-.25-.77-.48-1.25-.78v22.2H296.85V434.5c-.51.25-1,.52-1.56.76-2,.89-3.32.51-4.1-1.15a3,3,0,0,1,1.55-4.23c7.54-3.37,12.77-9.21,17.24-15.87,8-11.93,13.15-25.12,16.74-38.95,1.78-6.82,3.22-13.73,3.22-20.83A8.58,8.58,0,0,0,329.24,350.45Z" style="fill:#f17533"/><path d="M267.48,44.36h28.77v9.47H279v4.6H293.8v8.79H279V81.29H267.48Z" style="fill:#0a1e3f"/><path d="M323.92,75.29c0,2,.11,4.3,1.25,6H314.65a6.94,6.94,0,0,1-.37-2.53h-.1C312,81.24,308.81,82,305.47,82c-5.21,0-9.53-2.49-9.53-8.13,0-8.48,10-8.17,15.27-9.15,1.4-.26,2.81-.67,2.81-2.38s-1.72-2.48-3.39-2.48c-3.18,0-3.8,1.6-3.85,2.74h-9.59a7.76,7.76,0,0,1,4.69-7.24c2.6-1.25,6-1.56,9.22-1.56,12.93,0,12.82,5.33,12.82,10.51ZM314,69.24A17.81,17.81,0,0,1,310,70.53c-2.3.52-3.5,1.09-3.5,2.9,0,1.24,1.36,2.48,3.24,2.48A4.08,4.08,0,0,0,314,71.72Z" style="fill:#0a1e3f"/><path d="M326.79,54.45h9.95v3.41h.11c1.92-2.69,4.69-4.09,8.8-4.09,4.85,0,9.28,2.95,9.28,9.11V81.29H344.61V67.22c0-3.1-.36-5.27-3.39-5.27-1.77,0-4.11.88-4.11,5.17V81.29H326.79Z" style="fill:#0a1e3f"/><path d="M373.59,62.26a2.62,2.62,0,0,0-1.2-2,3.62,3.62,0,0,0-2.3-.78c-1.45,0-3.12.31-3.12,2.07,0,.78.62,1.14,1.2,1.4,1.72.72,5.62.93,9.06,2.07s6.47,3.1,6.47,7.5c0,7.45-7.2,9.47-13.76,9.47-6.36,0-13.34-2.54-13.5-9.47h9.85a3.28,3.28,0,0,0,1.25,2.38,4.3,4.3,0,0,0,2.76.78c1.36,0,3.49-.52,3.49-2.07s-.88-2-5.67-2.85c-7.87-1.34-11.05-3.83-11.05-8.43,0-6.78,7.35-8.54,12.76-8.54,5.84,0,12.88,1.61,13.14,8.49Z" style="fill:#0a1e3f"/><use width="203.91" height="54.48" transform="translate(116.3 44) scale(0.69)" xlink:href="#Blue"/></svg>