<?xml version="1.0" encoding="utf-8"?>
<!-- Generator: Adobe Illustrator 26.5.0, SVG Export Plug-In . SVG Version: 6.00 Build 0)  -->
<svg version="1.1" id="Capa_1" xmlns="http://www.w3.org/2000/svg" xmlns:xlink="http://www.w3.org/1999/xlink" x="0px" y="0px"
	 viewBox="0 0 503.6 72.7" style="enable-background:new 0 0 503.6 72.7;" xml:space="preserve">
<style type="text/css">
	.st0{fill:#FFFFFF;}
</style>
<g>
	<path class="st0" d="M198.6,45.3c0.3,6.4,4.3,8.5,10.3,8.5c4.3,0,8.7-1.5,8.7-5.6c0-4.8-7.8-5.7-15.7-8c-7.8-2.2-16-5.7-16-15.8
		c0-11.9,12-16.6,22.2-16.6c10.9,0,21.8,5.3,21.9,17.6h-14.2c0.2-5-4.4-6.6-8.8-6.6c-3.1,0-6.9,1.1-6.9,4.7c0,4.2,7.9,5,15.8,7.2
		c7.9,2.2,15.8,5.9,15.8,15.8c0,13.8-11.8,18.3-23.8,18.3s-23.6-5.5-23.7-19.5L198.6,45.3L198.6,45.3z"/>
	<path class="st0" d="M257,22.8c12.3,0,21,9.1,21,21s-8.6,21-21,21s-20.9-9-20.9-21S244.7,22.8,257,22.8z M257,54.8c6,0,8-6,8-11
		s-1.9-11.1-8-11.1s-7.9,6-7.9,11.1S250.9,54.8,257,54.8z"/>
	<path class="st0" d="M285.2,9h13v54.6h-13V9z"/>
	<path class="st0" d="M346.8,63.6h-12.6v-5.4h-0.1c-2.5,4-7.5,6.6-12.1,6.6c-11.4,0-14.7-6.6-14.7-17V24h13v23
		c0,5.3,2.3,7.1,6.4,7.1c2.8,0,7.1-1.8,7.1-8.9V24h13L346.8,63.6L346.8,63.6z"/>
	<path class="st0" d="M379.5,32.4h-8v18c0,3.1,1.8,3.8,4.7,3.8c1.1,0,2.2-0.2,3.4-0.2v9.6c-2.4,0.1-4.7,0.4-7.1,0.4
		c-11.1,0-13.9-3.2-13.9-14V32.4H352V24h6.6V12h13v12h8v8.4H379.5z"/>
	<path class="st0" d="M398.7,19h-13V9h13V19z M385.7,23.9h13v39.7h-13C385.7,63.6,385.7,24,385.7,23.9z"/>
	<path class="st0" d="M426.8,22.8c12.3,0,21,9.1,21,21s-8.6,21-21,21s-20.9-9-20.9-21S414.5,22.8,426.8,22.8z M426.8,54.8
		c6,0,8-6,8-11s-1.9-11.1-8-11.1s-7.9,6-7.9,11.1S420.8,54.8,426.8,54.8z"/>
	<path class="st0" d="M454.6,24h12.6v5.4h0.1c2.4-4,7.7-6.6,12.5-6.6c13.2,0,14.3,9.6,14.3,15.4v25.5h-13V44.4
		c0-5.4,0.6-10.9-6.5-10.9c-4.9,0-7,4.1-7,8.5v21.6h-13V24L454.6,24z"/>
</g>
<g>
	<g>
		<path class="st0" d="M9.2,8.8h30.3c14.6,0,17.7,8.2,17.7,13.8c0,5.5-2.7,8.5-6.8,10.7C55.3,34.9,60,38.9,60,47
			c0,11-9.7,16.6-19.3,16.6H9.4V8.8H9.2z M26.3,30h8.9c3.6,0,5.8-1,5.8-4.6c0-2.8-2.4-3.7-5.8-3.7h-8.9V30z M26.3,50.5h9.9
			c3.6,0,6.7-1,6.7-5.2c0-3.3-1.9-5-5.9-5H26.3V50.5z"/>
		<path class="st0" d="M62.1,32.5C61.2,17.8,70.4,9.4,85,9.4c13.1,0,22,5.5,22,16.8c0,13.7-13.5,18-23.6,24.1v0.1h24.4v13.1H61.1
			c-0.3-5.2,1.2-9.7,3.9-13.2C69.4,44,77.1,40,84.1,35.8c2.8-1.6,7.3-3.9,7.3-7.7c0-4.9-2.8-6.5-6.5-6.5c-6.2,0-8.3,4.5-8.2,11H62.1
			z"/>
		<path class="st0" d="M110.5,8.8h45.7v14.1h-28.7v6.8h26v13.1h-26.1v6.8H157v14.1h-46.5V8.8z"/>
	</g>
</g>
</svg>
