<?xml version="1.0" encoding="utf-8"?>
<!-- Generator: Adobe Illustrator 26.5.0, SVG Export Plug-In . SVG Version: 6.00 Build 0)  -->
<svg version="1.1" id="Capa_1" xmlns="http://www.w3.org/2000/svg" xmlns:xlink="http://www.w3.org/1999/xlink" x="0px" y="0px"
	 viewBox="0 0 326 174.3" style="enable-background:new 0 0 326 174.3;" xml:space="preserve">
<style type="text/css">
	.st0{fill:#40D3B7;}
	.st1{fill:#FFFFFF;}
</style>
<g transform="translate(-137.938 -33.211)">
	<g>
		<g>
			<g>
				<path class="st0" d="M161.1,93.2v6.8l10.4,0.2c-0.2,0.7-0.4,1.4-0.7,2.1c-0.7,1.4-2,2.7-3.4,3.6c-1.6,0.9-3.6,1.2-5.4,1.2
					c-2,0-3.9-0.5-5.5-1.4s-2.9-2.3-3.7-3.9c-0.9-1.8-1.4-3.9-1.4-5.9c0-2.1,0.4-4.1,1.4-5.9c0.9-1.6,2.3-3,3.9-3.9
					c1.8-0.9,3.7-1.4,5.7-1.4c1.8,0,3.7,0.4,5.4,1.1c1.6,0.7,3,2,4.1,3.4l5.5-5.5c-1.8-2-3.9-3.6-6.4-4.6c-2.7-1.1-5.5-1.8-8.6-1.6
					c-2.7,0-5.2,0.5-7.7,1.4c-2.3,0.9-4.5,2.3-6.2,3.9c-1.8,1.6-3.2,3.7-4.1,5.9c-1.1,2.3-1.4,4.8-1.4,7.3c0,7.5,4.5,14.5,11.6,17.3
					c2.3,0.9,4.8,1.4,7.5,1.4c3.4,0,6.6-0.7,9.5-2.3c2.9-1.6,5-3.9,6.4-6.8c1.6-3.4,2.5-7.1,2.3-10.9v-1.2L161.1,93.2z"/>
				<path class="st0" d="M210.1,96.6c-0.9-0.9-2-1.8-3.2-2.3c0.9-0.5,1.6-1.1,2.3-1.8c1.4-1.6,2.1-3.6,2.1-5.7c0-3.4-2-6.6-5-8.2
					c-1.8-0.9-3.9-1.4-5.9-1.2h-15.5v36.2h15.5c2.3,0,4.5-0.4,6.6-1.4c1.8-0.9,3.2-2.1,4.3-3.7s1.4-3.4,1.4-5.4
					C212.6,100.7,211.7,98.4,210.1,96.6L210.1,96.6z M198.8,83.7c1.2,0,2.3,0.4,3.2,1.1s1.2,1.8,1.2,3c0.2,1.1-0.4,2.3-1.2,3
					c-0.9,0.7-2.1,1.1-3.2,1.1h-6.1v-8L198.8,83.7z M203.1,106c-0.9,0.9-2.3,1.4-3.7,1.4h-6.8v-9.6h6.8c0.9,0,1.8,0.2,2.7,0.5
					c0.7,0.4,1.2,0.9,1.8,1.6c0.4,0.7,0.7,1.6,0.5,2.5C204.5,103.9,204,105.2,203.1,106z"/>
				<path class="st1" d="M243.3,93.2v6.8l10.4,0.2c-0.2,0.7-0.4,1.4-0.7,2.1c-0.7,1.4-2,2.7-3.4,3.6c-1.6,0.9-3.6,1.2-5.4,1.2
					c-2,0-3.9-0.5-5.5-1.4s-2.9-2.3-3.7-3.9c-0.9-1.8-1.4-3.9-1.4-5.9c0-2.1,0.4-4.1,1.4-5.9c0.9-1.6,2.3-3,3.9-3.9
					c1.8-0.9,3.7-1.4,5.7-1.4c1.8,0,3.7,0.4,5.4,1.1s3,2,4.1,3.4l5.5-5.5c-1.8-2-3.9-3.6-6.4-4.6c-2.7-1.1-5.5-1.8-8.6-1.6
					c-2.7,0-5.2,0.5-7.7,1.4c-2.3,0.9-4.5,2.3-6.2,3.9c-1.8,1.6-3.2,3.7-4.1,5.9c-1.1,2.3-1.4,4.8-1.4,7.3c0,7.5,4.5,14.5,11.6,17.3
					c2.3,0.9,4.8,1.4,7.5,1.4c3.4,0,6.6-0.7,9.5-2.3c2.9-1.6,5-3.9,6.4-6.8c1.6-3.4,2.5-7.1,2.3-10.9v-1.2L243.3,93.2z"/>
				<path class="st1" d="M266.5,113.7V84.3c0-4.3,3.6-7.9,7.9-7.9v37.3H266.5z"/>
				<path class="st1" d="M291.3,114.3c-2.5,0-4.8-0.5-7-1.8c-2-1.1-3.7-2.7-4.8-4.6c-1.2-2-1.8-4.3-1.8-6.6c0-2.3,0.5-4.6,1.8-6.6
					c1.2-2,2.9-3.6,4.8-4.6c2.1-1.2,4.5-1.8,7-1.8s4.8,0.5,7,1.6c2,1.1,3.7,2.7,4.8,4.6c1.2,2,1.8,4.3,1.8,6.6
					c0,2.3-0.5,4.6-1.8,6.6c-1.2,2-2.9,3.6-4.8,4.6C296.1,113.7,293.8,114.3,291.3,114.3z M291.3,107.1c1.1,0,2.1-0.2,3-0.7
					s1.6-1.2,2-2.1c0.5-0.9,0.7-2,0.7-3c0-1.1-0.2-2.1-0.7-3s-1.1-1.6-2-2c-1.8-1.1-4.1-1.1-5.9,0c-0.9,0.5-1.6,1.2-2,2.1
					c-0.9,2-0.9,4.3,0,6.1c0.5,0.9,1.1,1.6,2,2.1C289.3,106.9,290.4,107.1,291.3,107.1L291.3,107.1z"/>
				<path class="st1" d="M333.3,94.6c-1.1-2-2.5-3.6-4.3-4.6c-2-1.1-4.1-1.8-6.2-1.6c-1.6,0-3.2,0.4-4.6,0.9c-0.7,0.4-1.2,0.7-2,1.1
					v-14c-4.3,0-7.9,3.6-7.9,7.9v29.5h7.7V112c0.5,0.5,1.2,0.9,2,1.2c1.4,0.7,3,1.1,4.6,1.1c2.1,0,4.5-0.5,6.2-1.6
					c1.8-1.1,3.4-2.7,4.3-4.6C335.4,103.7,335.4,98.7,333.3,94.6L333.3,94.6z M326.1,104.3c-0.9,1.8-2.9,2.9-4.8,2.9
					c-1.1,0-2-0.2-2.9-0.7s-1.6-1.2-2-2.1c-0.5-0.9-0.7-2-0.7-3c0-1.1,0.2-2.1,0.7-3c0.4-0.9,1.1-1.6,2-2.1s2-0.7,2.9-0.7
					c1.1,0,2,0.2,2.9,0.7s1.6,1.2,2,2.1c0.5,0.9,0.7,2,0.7,3C327,102.3,326.6,103.4,326.1,104.3L326.1,104.3z"/>
				<path class="st1" d="M355.7,88.7v2.1c-0.7-0.7-1.4-1.2-2.3-1.6c-1.4-0.7-3-1.1-4.5-0.9c-2.1,0-4.3,0.5-6.1,1.6
					c-1.8,1.1-3.2,2.7-4.3,4.6c-2.1,4.3-2.1,9.1,0,13.4c1.1,2,2.5,3.6,4.3,4.6s3.9,1.8,6.1,1.6c1.6,0,3.2-0.4,4.6-0.9
					c0.9-0.4,1.6-0.9,2.3-1.6v2.1h7.7v-25L355.7,88.7L355.7,88.7L355.7,88.7z M354.5,105.5c-1.1,1.1-2.5,1.8-4.1,1.6
					c-1.1,0-2-0.2-2.9-0.7s-1.6-1.2-2-2.1c-0.9-2-0.9-4.1,0-6.1c0.5-0.9,1.2-1.6,2-2.1c1.8-1.1,3.9-1.1,5.7,0c0.9,0.5,1.4,1.2,2,2.1
					c0.5,0.9,0.7,2,0.7,3C356.1,102.8,355.6,104.3,354.5,105.5z"/>
				<path class="st1" d="M368.2,113.7V84.3c0-4.3,3.6-7.9,7.9-7.9l0,0v37.3H368.2z"/>
				<path class="st1" d="M144.7,154.1v-36.2c4.5,0,8,3.6,8,8l0,0v28.2H144.7z"/>
				<path class="st1" d="M181.9,133.4c-0.9-1.4-2-2.7-3.4-3.4c-1.4-0.9-3.2-1.4-4.8-1.2c-1.8,0-3.6,0.4-5.2,1.2
					c-0.7,0.4-1.2,0.7-1.8,1.2v-2h-7.9v25h7.9V140c0-0.7,0.2-1.6,0.5-2.3s0.9-1.2,1.6-1.6c0.7-0.4,1.4-0.5,2.3-0.5
					c1.1,0,2.3,0.4,3,1.2c0.9,0.9,1.2,2,1.2,3.2v14.3h7.9v-15.9C183.1,136.4,182.8,134.8,181.9,133.4z"/>
				<path class="st1" d="M204.4,129.1h-5.7v-10.4c-4.3,0-7.9,3.6-7.9,7.9v2.5h-5.7v6.6h5.7v18.2h7.9v-18.2h5.7V129.1z"/>
				<path class="st1" d="M229.7,134.6c-1.1-1.8-2.5-3.4-4.5-4.5s-4.3-1.6-6.6-1.6s-4.8,0.5-6.8,1.6c-6.2,3.6-8.4,11.8-4.8,18l0,0
					c1.2,2,2.9,3.6,5,4.6s4.6,1.8,7.1,1.6c2,0,3.9-0.4,5.7-1.1c1.8-0.7,3.2-1.8,4.5-3.2l-4.3-4.3c-0.7,0.9-1.6,1.4-2.7,2
					c-1.1,0.4-2.1,0.7-3.4,0.7s-2.3-0.2-3.4-0.9c-0.9-0.5-1.8-1.4-2.3-2.5c-0.2-0.4-0.4-0.7-0.4-1.1h17.9c0.2-0.5,0.2-1.1,0.4-1.8
					c0-0.5,0-0.9,0-1.4C231.3,138.7,230.8,136.6,229.7,134.6L229.7,134.6z M215.6,135.3c0.9-0.5,2.1-0.9,3.2-0.9s2.1,0.2,3,0.7
					s1.4,1.2,1.8,2.1c0.2,0.4,0.4,0.9,0.4,1.2h-10.9c0-0.4,0.2-0.7,0.4-1.1C214,136.8,214.7,136,215.6,135.3L215.6,135.3z"/>
				<path class="st1" d="M252,129.1c-1.1-0.4-2.1-0.5-3.2-0.5c-2.3-0.2-4.6,0.7-6.4,2.3v-2h-7.9v25h7.9v-13.7
					c-0.2-1.2,0.4-2.7,1.1-3.6c0.9-0.9,2-1.2,3-1.2c0.5,0,1.2,0.2,1.8,0.4c0.5,0.2,0.9,0.5,1.2,0.9l4.6-5.9
					C253.8,130.1,252.9,129.6,252,129.1L252,129.1z"/>
				<path class="st1" d="M279.7,133.4c-0.9-1.4-2-2.7-3.4-3.4c-1.4-0.9-3.2-1.4-4.8-1.2c-1.8,0-3.6,0.4-5.2,1.2
					c-0.7,0.4-1.2,0.7-1.8,1.2v-2h-7.9v25h7.9V140c0-0.7,0.2-1.6,0.5-2.3s0.9-1.2,1.6-1.6c0.7-0.4,1.4-0.5,2.3-0.5
					c1.1,0,2.3,0.4,3,1.2c0.9,0.9,1.2,2,1.2,3.2v14.3h7.9v-15.9C280.9,136.4,280.6,134.8,279.7,133.4z"/>
				<path class="st1" d="M302.9,129.1v2.1c-0.7-0.7-1.4-1.2-2.3-1.6c-1.4-0.7-3-1.1-4.5-0.9c-2.1,0-4.3,0.5-6.1,1.6
					c-1.8,1.1-3.2,2.7-4.3,4.6c-2.1,4.3-2.1,9.1,0,13.4c1.1,2,2.5,3.6,4.3,4.6s3.9,1.8,6.1,1.6c1.6,0,3.2-0.4,4.6-0.9
					c0.9-0.4,1.6-0.9,2.3-1.6v2.1h7.7v-25L302.9,129.1L302.9,129.1L302.9,129.1z M301.7,145.9c-1.1,1.1-2.5,1.8-4.1,1.6
					c-1.1,0-2-0.2-2.9-0.7s-1.6-1.2-2-2.1c-0.9-2-0.9-4.1,0-6.1c0.5-0.9,1.1-1.6,2-2.1c1.8-1.1,3.9-1.1,5.7,0c0.9,0.5,1.4,1.2,2,2.1
					c0.5,0.9,0.7,2,0.7,3C303.3,143.2,302.7,144.6,301.7,145.9z"/>
				<path class="st1" d="M332.4,129.1h-5.7v-10.4c-4.3,0-7.9,3.6-7.9,7.9l0,0v2.5h-5.7v6.6h5.7v18.2h7.9v-18.2h5.7V129.1z"/>
				<g>
					<path class="st1" d="M338.8,125.7c1.1,0,2.3-0.4,3-1.2c1.6-1.8,1.6-4.5,0-6.1c-0.7-0.9-2-1.2-3-1.2s-2.3,0.4-3,1.2
						c-1.6,1.8-1.6,4.5,0,6.1C336.6,125.3,337.7,125.7,338.8,125.7z"/>
					<path class="st1" d="M342.7,129.1v25h-7.9v-25H342.7z"/>
				</g>
				<path class="st1" d="M359.7,154.6c-2.5,0-4.8-0.5-7-1.8c-2-1.1-3.7-2.7-4.8-4.6c-1.2-2-1.8-4.3-1.8-6.6s0.5-4.6,1.8-6.6
					c1.2-2,2.9-3.6,4.8-4.6c2.1-1.2,4.5-1.8,7-1.8s4.8,0.5,7,1.6c2,1.1,3.7,2.7,4.8,4.6c1.2,2,1.8,4.3,1.8,6.6s-0.5,4.6-1.8,6.6
					c-1.2,2-2.9,3.6-4.8,4.6C364.5,154.1,362.2,154.6,359.7,154.6L359.7,154.6z M359.7,147.5c1.1,0,2.1-0.2,3-0.7s1.6-1.2,2-2.1
					c0.5-0.9,0.7-2,0.7-3c0-1.1-0.2-2.1-0.7-3s-1.1-1.6-2-2c-1.8-1.1-4.1-1.1-5.9,0c-0.9,0.5-1.6,1.2-2,2.1c-0.9,2-0.9,4.3,0,6.1
					c0.5,0.9,1.1,1.6,2,2.1C357.7,147.3,358.8,147.5,359.7,147.5L359.7,147.5z"/>
				<path class="st1" d="M399.8,133.4c-0.9-1.4-2-2.7-3.4-3.4c-1.4-0.9-3.2-1.4-4.8-1.2c-1.8,0-3.6,0.4-5.2,1.2
					c-0.7,0.4-1.2,0.7-1.8,1.2v-2h-7.9v25h7.9V140c0-0.7,0.2-1.6,0.5-2.3c0.4-0.7,0.9-1.2,1.6-1.6c0.7-0.4,1.4-0.5,2.3-0.5
					c1.1,0,2.3,0.4,3,1.2c0.9,0.9,1.2,2,1.2,3.2v14.3h7.9v-15.9C401.1,136.4,400.6,134.8,399.8,133.4L399.8,133.4z"/>
				<path class="st1" d="M423.1,129.1v2.1c-0.7-0.7-1.4-1.2-2.3-1.6c-1.4-0.7-3-1.1-4.5-0.9c-2.1,0-4.3,0.5-6.1,1.6
					c-1.8,1.1-3.2,2.7-4.3,4.6c-2.1,4.3-2.1,9.1,0,13.4c1.1,2,2.5,3.6,4.3,4.6c1.8,1.1,3.9,1.8,6.1,1.6c1.6,0,3.2-0.4,4.6-0.9
					c0.9-0.4,1.6-0.9,2.3-1.6v2.1h7.7v-25L423.1,129.1L423.1,129.1L423.1,129.1z M421.8,145.9c-1.1,1.1-2.5,1.8-4.1,1.6
					c-1.1,0-2-0.2-2.9-0.7s-1.6-1.2-2-2.1c-0.9-2-0.9-4.1,0-6.1c0.5-0.9,1.1-1.6,2-2.1c1.8-1.1,3.9-1.1,5.7,0c0.9,0.5,1.4,1.2,2,2.1
					c0.5,0.9,0.7,2,0.7,3C423.4,143.2,422.9,144.6,421.8,145.9L421.8,145.9z"/>
				<path class="st1" d="M435.6,154.1v-29.5c0-4.3,3.6-7.9,7.9-7.9l0,0V154h-7.9V154.1z"/>
			</g>
			<g>
				<g>
					<g>
						<g>
							<g>
								<path class="st1" d="M426.4,43.4c-0.5,0-1.1-0.5-1.1-1.1v-5.5c0-0.5,0.5-1.1,1.1-1.1c0.5,0,1.1,0.5,1.1,1.1v5.5
									C427.5,43,427,43.4,426.4,43.4z"/>
							</g>
						</g>
					</g>
				</g>
				<g>
					<g>
						<g>
							<g>
								<path class="st1" d="M419.8,44.3c-0.5,0-0.9-0.4-1.1-0.7l-1.4-5.4c-0.2-0.5,0.2-1.1,0.7-1.2s1.1,0.2,1.2,0.7l1.4,5.4
									c0.2,0.5-0.2,1.1-0.7,1.2l0,0H419.8z"/>
							</g>
						</g>
					</g>
				</g>
				<g>
					<g>
						<g>
							<g>
								<path class="st1" d="M413.6,47c-0.4,0-0.7-0.2-0.9-0.5l-2.9-4.8c-0.4-0.5-0.2-1.1,0.4-1.4c0.5-0.4,1.1-0.2,1.4,0.4l0,0
									l2.9,4.8c0.4,0.5,0.2,1.1-0.4,1.4C413.9,46.8,413.8,47,413.6,47L413.6,47z"/>
							</g>
						</g>
					</g>
				</g>
				<g>
					<g>
						<g>
							<g>
								<path class="st0" d="M408.2,51.1c-0.4,0-0.5-0.2-0.7-0.4l-3.9-3.9c-0.4-0.4-0.4-1.1,0-1.4c0.4-0.4,1.1-0.4,1.4,0l3.9,3.9
									c0.4,0.4,0.4,1.1,0,1.4C408.8,50.9,408.4,51.1,408.2,51.1z"/>
							</g>
						</g>
					</g>
				</g>
				<g>
					<g>
						<g>
							<g>
								<path class="st1" d="M404.1,56.4c-0.2,0-0.4,0-0.5-0.2l-4.8-2.9c-0.5-0.4-0.7-0.9-0.4-1.4c0.4-0.5,0.9-0.7,1.4-0.4l0,0
									l4.8,2.9c0.5,0.4,0.7,0.9,0.4,1.4C404.8,56.2,404.5,56.4,404.1,56.4L404.1,56.4z"/>
							</g>
						</g>
					</g>
				</g>
				<g>
					<g>
						<g>
							<g>
								<path class="st1" d="M401.5,62.7c-0.2,0-0.2,0-0.4,0l-5.4-1.4c-0.5-0.2-0.9-0.7-0.7-1.2c0.2-0.5,0.7-0.9,1.2-0.7l5.4,1.4
									c0.5,0.2,0.9,0.7,0.7,1.2C402.3,62.3,402,62.7,401.5,62.7L401.5,62.7z"/>
							</g>
						</g>
					</g>
				</g>
				<g>
					<g>
						<g>
							<g>
								<path class="st1" d="M400.6,69.3H395c-0.5,0-1.1-0.5-1.1-1.1s0.5-1.1,1.1-1.1h5.5c0.5,0,1.1,0.5,1.1,1.1
									S401.3,69.3,400.6,69.3z"/>
							</g>
						</g>
					</g>
				</g>
				<g>
					<g>
						<g>
							<g>
								<path class="st1" d="M396.1,77.5c-0.5,0-1.1-0.5-1.1-1.1c0-0.5,0.4-0.9,0.7-1.1l5.4-1.4c0.5-0.2,1.1,0.2,1.2,0.7
									c0.2,0.5-0.2,1.1-0.7,1.2l-5.4,1.4C396.3,77.5,396.3,77.5,396.1,77.5z"/>
							</g>
						</g>
					</g>
				</g>
				<g>
					<g>
						<g>
							<g>
								<path class="st1" d="M399.3,85c-0.5,0-1.1-0.5-1.1-1.1c0-0.4,0.2-0.7,0.5-0.9l4.8-2.9c0.5-0.4,1.1-0.2,1.4,0.4
									c0.4,0.5,0.2,1.1-0.4,1.4l0,0l-4.8,2.9C399.7,85,399.5,85,399.3,85z"/>
							</g>
						</g>
					</g>
				</g>
				<g>
					<g>
						<g>
							<g>
								<path class="st0" d="M404.3,91.6c-0.5,0-1.1-0.5-1.1-1.1c0-0.4,0.2-0.5,0.4-0.7l3.9-3.9c0.4-0.4,1.1-0.4,1.4,0
									c0.4,0.4,0.4,1.1,0,1.4l-3.9,3.9C404.8,91.4,404.5,91.6,404.3,91.6L404.3,91.6z"/>
							</g>
						</g>
					</g>
				</g>
				<g>
					<g>
						<g>
							<g>
								<path class="st1" d="M410.7,96.6c-0.5,0-1.1-0.5-1.1-1.1c0-0.2,0-0.4,0.2-0.5l2.9-4.8c0.4-0.5,0.9-0.7,1.4-0.4
									c0.5,0.4,0.7,0.9,0.4,1.4l-2.9,4.8C411.4,96.4,411.1,96.6,410.7,96.6z"/>
							</g>
						</g>
					</g>
				</g>
				<g>
					<g>
						<g>
							<g>
								<path class="st1" d="M418.4,99.6c-0.2,0-0.2,0-0.4,0c-0.5-0.2-0.9-0.7-0.7-1.2l0,0l1.4-5.4c0.2-0.5,0.7-0.9,1.2-0.7
									c0.5,0.2,0.9,0.7,0.7,1.2l0,0l-1.4,5.4C419.3,99.3,418.8,99.6,418.4,99.6L418.4,99.6z"/>
							</g>
						</g>
					</g>
				</g>
				<g>
					<g>
						<g>
							<g>
								<path class="st1" d="M426.4,100.7c-0.5,0-1.1-0.5-1.1-1.1v-5.5c0-0.5,0.5-1.1,1.1-1.1c0.5,0,1.1,0.5,1.1,1.1v5.5
									C427.5,100.3,427,100.7,426.4,100.7z"/>
							</g>
						</g>
					</g>
				</g>
				<g>
					<g>
						<g>
							<g>
								<path class="st1" d="M434.7,99.6c-0.5,0-0.9-0.4-1.1-0.7l-1.4-5.4c-0.2-0.5,0.2-1.1,0.7-1.2c0.5-0.2,1.1,0.2,1.2,0.7
									l1.4,5.4c0.2,0.5-0.2,1.1-0.7,1.2l0,0H434.7z"/>
							</g>
						</g>
					</g>
				</g>
				<g>
					<g>
						<g>
							<g>
								<path class="st1" d="M442.2,96.6c-0.4,0-0.7-0.2-0.9-0.5l-2.9-4.8c-0.4-0.5-0.2-1.1,0.4-1.4c0.5-0.4,1.1-0.2,1.4,0.4l0,0
									L443,95c0.4,0.5,0.2,1.1-0.4,1.4C442.5,96.4,442.3,96.6,442.2,96.6L442.2,96.6z"/>
							</g>
						</g>
					</g>
				</g>
				<g>
					<g>
						<g>
							<g>
								<path class="st0" d="M448.8,91.6c-0.4,0-0.5-0.2-0.7-0.4l-3.9-3.9c-0.4-0.4-0.4-1.1,0-1.4c0.4-0.4,1.1-0.4,1.4,0l0,0
									l3.9,3.9c0.4,0.4,0.4,1.1,0,1.4C449.3,91.4,448.9,91.6,448.8,91.6L448.8,91.6z"/>
							</g>
						</g>
					</g>
				</g>
				<g>
					<g>
						<g>
							<g>
								<path class="st1" d="M453.8,85c-0.2,0-0.4,0-0.5-0.2l-4.8-2.9c-0.5-0.4-0.7-0.9-0.4-1.4c0.4-0.5,0.9-0.7,1.4-0.4l0,0
									l4.8,2.9c0.5,0.4,0.7,0.9,0.4,1.4C454.5,84.8,454.1,85,453.8,85L453.8,85z"/>
							</g>
						</g>
					</g>
				</g>
				<g>
					<g>
						<g>
							<g>
								<path class="st1" d="M456.8,77.5c-0.2,0-0.2,0-0.4,0l-5.4-1.4c-0.5-0.2-0.9-0.7-0.7-1.2c0.2-0.5,0.7-0.9,1.2-0.7l0,0
									l5.4,1.4c0.5,0.2,0.9,0.7,0.7,1.2C457.7,77.1,457.3,77.5,456.8,77.5L456.8,77.5z"/>
							</g>
						</g>
					</g>
				</g>
				<g>
					<g>
						<g>
							<g>
								<path class="st1" d="M457.9,69.3h-5.5c-0.5,0-1.1-0.5-1.1-1.1s0.5-1.1,1.1-1.1h5.5c0.5,0,1.1,0.5,1.1,1.1
									S458.4,69.3,457.9,69.3z"/>
							</g>
						</g>
					</g>
				</g>
				<g>
					<g>
						<g>
							<g>
								<path class="st1" d="M451.4,62.7c-0.5,0-1.1-0.5-1.1-1.1c0-0.5,0.4-0.9,0.7-1.1l5.4-1.4c0.5-0.2,1.1,0.2,1.2,0.7
									c0.2,0.5-0.2,1.1-0.7,1.2l-5.4,1.4C451.6,62.7,451.6,62.7,451.4,62.7z"/>
							</g>
						</g>
					</g>
				</g>
				<g>
					<g>
						<g>
							<g>
								<path class="st1" d="M433.2,44.3c-0.2,0-0.2,0-0.4,0c-0.5-0.2-0.9-0.7-0.7-1.2l0,0l1.4-5.4c0.2-0.5,0.7-0.9,1.2-0.7
									s0.9,0.7,0.7,1.2l-1.4,5.4C434.1,43.9,433.6,44.3,433.2,44.3z"/>
							</g>
						</g>
					</g>
				</g>
				<g>
					<g>
						<g>
							<path class="st1" d="M426.4,65.9c-0.5,0-1.1-0.5-1.1-1.1v-5.4c0-0.5,0.5-1.1,1.1-1.1c0.5,0,1.1,0.5,1.1,1.1v5.4
								C427.5,65.3,427,65.9,426.4,65.9z"/>
						</g>
					</g>
					<g>
						<g>
							<path class="st1" d="M426.4,78.2c-0.5,0-1.1-0.5-1.1-1.1v-5.4c0-0.5,0.5-1.1,1.1-1.1c0.5,0,1.1,0.5,1.1,1.1v5.4
								C427.5,77.7,427,78.2,426.4,78.2z"/>
						</g>
					</g>
					<g>
						<g>
							<path class="st1" d="M422.9,69.3h-5.4c-0.5,0-1.1-0.5-1.1-1.1s0.5-1.1,1.1-1.1h5.4c0.5,0,1.1,0.5,1.1,1.1
								S423.6,69.3,422.9,69.3z"/>
						</g>
					</g>
					<g>
						<g>
							<path class="st1" d="M435.4,69.3H430c-0.5,0-1.1-0.5-1.1-1.1s0.5-1.1,1.1-1.1h5.4c0.5,0,1.1,0.5,1.1,1.1
								S435.9,69.3,435.4,69.3z"/>
						</g>
					</g>
				</g>
				<g>
					<g>
						<g>
							<path class="st0" d="M440,54.8l-6.4-0.9c-0.5,0-0.9-0.5-0.9-1.1c0-0.4,0.2-0.5,0.5-0.7l15-6.8c0.5-0.2,1.1,0,1.2,0.5
								c0.2,0.2,0.2,0.5,0,0.9l-6.8,15c-0.2,0.5-0.9,0.7-1.2,0.5s-0.5-0.4-0.5-0.7L440,54.8z"/>
						</g>
					</g>
				</g>
			</g>
		</g>
	</g>
</g>
<g>
	<g>
		<path class="st0" d="M130.7,170.2l-7.9-11.1h-0.1v11.1h-8.4v-34.3h11.2c3.6,0,6.3,0.5,8.1,1.2c3.7,1.7,6.3,5.7,6.3,10.6
			c0,5.4-3.2,9.9-8.5,10.8l9.3,11.7H130.7z M125.9,153.2c3.5,0,5.6-1.6,5.6-4.9c0-3-2.2-4.6-5.5-4.6h-3.3v9.5H125.9z"/>
		<path class="st0" d="M150.4,159.7c0.4,2.9,2.9,4.9,6,4.9c2.1,0,3.4-0.8,4.7-2.4h7.9c-2.5,5.6-7.1,8.9-12.6,8.9
			c-7.4,0-13.6-6-13.6-13.6c0-7.4,5.9-13.8,13.5-13.8c7.7,0,13.6,6.1,13.6,14c0,0.7,0,1.3-0.2,2H150.4L150.4,159.7z M162.1,154.6
			c-0.6-2.6-2.9-4.4-5.9-4.4c-2.8,0-5.2,1.7-5.8,4.4H162.1z"/>
		<path class="st0" d="M194.4,170.2l-4.3-16.6H190l-4.3,16.6h-7.1l-7.9-25.7h8l3.8,16h0.1l4.2-16h6.5l4.3,16h0.1l3.8-16h7.9
			l-7.9,25.7H194.4z"/>
		<path class="st0" d="M230.9,170.2v-2.8h-0.1c-1.1,2.3-4.2,3.7-7.5,3.7c-7.6,0-12.9-6-12.9-13.8c0-7.6,5.5-13.7,12.9-13.7
			c3.1,0,6.1,1.2,7.5,3.6h0.1v-2.7h7.7v25.7H230.9z M230.9,157.4c0-3.6-2.9-6.5-6.5-6.5c-3.5,0-6.3,2.9-6.3,6.6
			c0,3.6,2.8,6.5,6.4,6.5S230.9,161.1,230.9,157.4z"/>
		<path class="st0" d="M244.1,170.2v-25.7h7.2v2.7h0.1c1.3-2.7,3.5-3.6,6.4-3.6v7.7c-4.6,0-6.1,1.8-6.1,4.7v14.2H244.1L244.1,170.2z
			"/>
		<path class="st0" d="M280.1,170.2v-2.8H280c-1.4,2.4-4,3.6-7.7,3.6c-7.8,0-12.9-6-12.9-13.8c0-7.7,5.2-13.7,12.7-13.7
			c3,0,5.4,0.9,7.5,3.1v-10.7h7.7v34.3L280.1,170.2L280.1,170.2z M280.1,157.3c0-3.6-2.7-6.4-6.5-6.4c-3.6,0-6.5,2.7-6.5,6.4
			c0,3.9,2.7,6.6,6.4,6.6C277.3,163.9,280.1,161.1,280.1,157.3z"/>
		<path class="st0" d="M303.9,151.8c0-1.5-1.1-1.9-2.4-1.9s-2.2,0.7-2.2,1.7c0,1.4,1.3,2.1,4.8,3c6.1,1.6,8.1,4.1,8.1,7.8
			c0,5.4-4.6,8.8-10.5,8.8c-5.8,0-9.9-3.3-10.5-8.5h7.6c0.2,1.6,1.4,2.4,2.9,2.4c1.3,0,2.7-0.8,2.7-2c0-1.4-0.9-2.2-4.7-3.4
			c-6.5-2-8.2-4.5-8.2-7.5c0-5.1,4.8-8.4,10-8.4c5.6,0,9.5,3.1,9.9,8.1h-7.5L303.9,151.8L303.9,151.8z"/>
	</g>
</g>
</svg>
