<?xml version="1.0" encoding="utf-8"?>
<!-- Generator: Adobe Illustrator 27.5.0, SVG Export Plug-In . SVG Version: 6.00 Build 0)  -->
<svg version="1.1" id="Capa_1" xmlns="http://www.w3.org/2000/svg" xmlns:xlink="http://www.w3.org/1999/xlink" x="0px" y="0px"
	 viewBox="0 0 526 125" style="enable-background:new 0 0 526 125;" xml:space="preserve">
<style type="text/css">
	.st0{fill:#295137;}
	.st1{fill:#FFFFFF;}
	.st2{fill:#8A2834;}
	.st3{fill:#D33737;}
	.st4{fill:url(#SVGID_1_);}
	.st5{opacity:0.15;fill:url(#SVGID_00000031194641515732705310000000541694071045746576_);enable-background:new    ;}
	.st6{fill:url(#SVGID_00000002342961458381907550000017568107565150586531_);}
	.st7{fill:url(#SVGID_00000106125657783204202770000015116565392450751384_);}
	.st8{fill:url(#SVGID_00000067946483248850115280000013776335090959508365_);}
	.st9{fill:url(#SVGID_00000176733945325076579970000017683453784009236917_);}
	.st10{fill:url(#SVGID_00000158745578896885851350000001181151762821815686_);}
	.st11{fill:#F4E84B;}
	.st12{fill:url(#SVGID_00000149343230192632655670000010072792399720035001_);}
	.st13{opacity:0.4;}
	.st14{fill:#75A3D5;}
	.st15{fill:url(#SVGID_00000012442099769428315890000005485589669857092487_);}
	.st16{fill:url(#SVGID_00000089546452504508257500000018268079796091464106_);}
	.st17{fill:url(#SVGID_00000109731339786649859400000002649371895568109445_);}
	.st18{fill:#FFE849;}
	.st19{opacity:0.5;fill:url(#SVGID_00000090290559940197670700000008796994855075161218_);enable-background:new    ;}
	.st20{opacity:0.5;fill:url(#SVGID_00000087401754085805250860000015339842428761045633_);enable-background:new    ;}
	.st21{fill:url(#SVGID_00000060011040866694206970000001121453841346679967_);}
	.st22{fill:url(#SVGID_00000178203601618243184250000005175240558626521237_);}
	.st23{fill:url(#SVGID_00000160177999031640048630000004088945600836087991_);}
	.st24{fill:#207745;}
</style>
<path class="st0" d="M509.7,39.5h0.5l0.5,0c0.4,0,0.6,0.1,0.8,0.1c0.3,0.1,0.5,0.3,0.7,0.6c0.1,0.2,0.1,0.5,0.1,1.1
	c0,0.5,0.1,0.9,0.1,1.2h2.2l-0.1-0.3c0-0.1,0-0.2,0-0.3s0-0.2,0-0.3v-0.8c0-0.9-0.3-1.6-0.8-2c-0.3-0.2-0.7-0.4-1.3-0.5
	c0.6-0.1,1.1-0.3,1.5-0.6c0.4-0.3,0.6-0.9,0.6-1.6c0-1-0.4-1.7-1.2-2.1c-0.5-0.3-1-0.4-1.7-0.5c-0.1,0-0.7,0-1.8,0
	c-1.1,0-1.9,0-2.5,0v8.8h2.3L509.7,39.5L509.7,39.5z M511.9,37.6c-0.3,0.2-0.7,0.3-1.3,0.3h-0.9v-2.5h0.6c0.6,0,1,0,1.4,0.2
	c0.5,0.2,0.7,0.5,0.7,1S512.2,37.4,511.9,37.6 M516.6,32.6c-1.5-1.6-3.4-2.3-5.6-2.3s-3.9,0.7-5.5,2.2c-1.7,1.5-2.5,3.5-2.5,5.8
	c0,2.3,0.7,4.1,2.3,5.6c1.5,1.5,3.4,2.3,5.7,2.3c2.2,0,4.1-0.7,5.6-2.2c1.6-1.5,2.4-3.4,2.4-5.7C518.9,35.9,518.1,34.2,516.6,32.6
	 M515.6,33.6c1.3,1.3,1.9,2.8,1.9,4.6c0,1.8-0.6,3.4-1.9,4.7c-1.3,1.3-2.8,1.9-4.6,1.9s-3.4-0.6-4.7-1.9c-1.3-1.3-1.9-2.9-1.9-4.7
	c0-1.8,0.6-3.3,1.9-4.6c1.3-1.3,2.9-2,4.7-2C512.8,31.6,514.3,32.3,515.6,33.6"/>
<path class="st1" d="M466.9,72.7c0,3.2-1.1,8.4-4.1,8.4c-3,0-6.7-5.2-6.7-8.4c0-3.2,2.4-5.8,5.4-5.8S466.9,69.6,466.9,72.7
	L466.9,72.7z"/>
<path class="st2" d="M458,81.1l-1.4-3.4c-0.4-2.3-1-6.2-1-6.6c0-2.9,2.5-5.2,5.6-5.2c2.4,0,4.6,1.5,5.4,3.6l2.6,9.5L458,81.1
	L458,81.1L458,81.1z M461.2,67.4c-2.3,0-4.1,1.7-4.1,3.7c0,0.3,0.5,3.3,0.9,5.6l8.2-1.5l-1-5.3C464.6,68.5,463,67.5,461.2,67.4
	L461.2,67.4L461.2,67.4z"/>
<path class="st3" d="M480.9,88.3l-3.7-28.8L443.1,66l4.5,28.8l6.8-1.4c-0.2-0.7-0.3-1.4-0.3-2.2c0-1.8,0.5-3.5,1.4-5
	c0.2-0.4,0.5-0.8,0.8-1.2l0,0c0.1-0.1,0.2-0.2,0.3-0.3c1.8-2,4.4-3.2,7.2-3.2c4.7,0,8.7,3.4,9.5,7.9c0,0.1,0.1,0.3,0.1,0.4
	L480.9,88.3 M456.5,77c0,0-0.9-5.7-0.9-6.1c0-2.3,2.1-4.2,4.6-4.2c2.1,0,3.8,1.2,4.4,2.9l1,5.7L456.5,77L456.5,77L456.5,77z"/>
<linearGradient id="SVGID_1_" gradientUnits="userSpaceOnUse" x1="457.0849" y1="767.1944" x2="468.5292" y2="710.9372" gradientTransform="matrix(1 0 0 1 0 -666)">
	<stop  offset="0.14" style="stop-color:#8A2834"/>
	<stop  offset="0.19" style="stop-color:#8A2834;stop-opacity:0.79"/>
	<stop  offset="0.27" style="stop-color:#8A2834;stop-opacity:0.51"/>
	<stop  offset="0.34" style="stop-color:#8A2834;stop-opacity:0.29"/>
	<stop  offset="0.42" style="stop-color:#8A2834;stop-opacity:0.13"/>
	<stop  offset="0.49" style="stop-color:#8A2834;stop-opacity:3.000000e-02"/>
	<stop  offset="0.55" style="stop-color:#8A2834;stop-opacity:0"/>
</linearGradient>
<path class="st4" d="M480.9,88.2l-3.7-28.8l-34.1,6.5l4.5,28.8l6.8-1.4c-0.2-0.7-0.3-1.4-0.3-2.2c0-1.8,0.5-3.5,1.4-5
	c0.2-0.4,0.5-0.8,0.8-1.2l0,0c0.1-0.1,0.2-0.2,0.3-0.3c1.8-2,4.4-3.2,7.2-3.2c4.7,0,8.7,3.4,9.5,7.9c0,0.1,0.1,0.3,0.1,0.4
	L480.9,88.2 M456.5,77c0,0-0.9-5.7-0.9-6.1c0-2.3,2.1-4.2,4.6-4.2c2.1,0,3.8,1.2,4.4,2.9l1,5.7L456.5,77L456.5,77L456.5,77z"/>
<path class="st1" d="M496.7,59.4c2.4-2.4,0.1-4.6,0.1-4.6c3-4.4-1.7-7.6-1.7-7.6c4.3-8.1-4.9-8.2-4.9-8.2c1.4-9.7-10.4-6.9-10.4-6.9
	c-1.6-4.8-9.8-2-9.8-2c-2.9-6.8-11-1.5-11-1.5c-11.3-3.7-13.5,5.2-13.5,5.2c-7,2.9-4.9,9-4.9,9c-6.8,5.9-1.1,11.8-1.1,11.8l38.7-2.7
	c3.1,3.6,6.4,0.9,6.4,0.9c0,1.9,2.4,2,2.4,2c-1,4.1,2.3,6.1,2.3,6.1L496.7,59.4L496.7,59.4L496.7,59.4z"/>
<linearGradient id="SVGID_00000002385018430447514610000013398959129589067965_" gradientUnits="userSpaceOnUse" x1="479.272" y1="732.5409" x2="456.7146" y2="696.6497" gradientTransform="matrix(1 0 0 1 0 -666)">
	<stop  offset="0" style="stop-color:#5880B9"/>
	<stop  offset="3.000000e-02" style="stop-color:#5880B9;stop-opacity:0.84"/>
	<stop  offset="7.000000e-02" style="stop-color:#5880B9;stop-opacity:0.64"/>
	<stop  offset="0.12" style="stop-color:#5880B9;stop-opacity:0.47"/>
	<stop  offset="0.18" style="stop-color:#5880B9;stop-opacity:0.32"/>
	<stop  offset="0.24" style="stop-color:#5880B9;stop-opacity:0.2"/>
	<stop  offset="0.31" style="stop-color:#5880B9;stop-opacity:0.11"/>
	<stop  offset="0.4" style="stop-color:#5880B9;stop-opacity:5.000000e-02"/>
	<stop  offset="0.53" style="stop-color:#5880B9;stop-opacity:0"/>
	<stop  offset="0.88" style="stop-color:#5880B9;stop-opacity:0"/>
</linearGradient>
<path style="opacity:0.15;fill:url(#SVGID_00000002385018430447514610000013398959129589067965_);enable-background:new    ;" d="
	M496.7,59.4c2.4-2.4,0-4.7,0-4.7c3-4.4-1.7-7.6-1.7-7.6c4.3-8.1-4.9-8.2-4.9-8.2c1.4-9.7-10.4-6.9-10.4-6.9c-1.6-4.8-9.8-2-9.8-2
	c-2.9-6.8-11-1.5-11-1.5c-11.3-3.7-13.5,5.2-13.5,5.2c-7,2.9-4.9,9-4.9,9c-6.8,5.9-1.1,11.8-1.1,11.8l38.7-2.7
	c3.1,3.6,6.4,0.9,6.4,0.9c0,1.9,2.4,2,2.4,2c-1,4.1,2.3,6.1,2.3,6.1L496.7,59.4L496.7,59.4L496.7,59.4z"/>
<polygon class="st3" points="510.5,88.5 508.1,88.4 496.6,90.7 498.6,94.8 511.6,92.5 "/>
<polygon class="st3" points="497,65.1 490.8,66.1 491.8,70.5 498,69.5 "/>
<linearGradient id="SVGID_00000022537354102130733590000001024176396373121721_" gradientUnits="userSpaceOnUse" x1="496.2622" y1="739.5026" x2="492.7754" y2="725.4772" gradientTransform="matrix(1 0 0 1 0 -666)">
	<stop  offset="0.14" style="stop-color:#8A2834"/>
	<stop  offset="0.2" style="stop-color:#8A2834;stop-opacity:0.79"/>
	<stop  offset="0.28" style="stop-color:#8A2834;stop-opacity:0.51"/>
	<stop  offset="0.37" style="stop-color:#8A2834;stop-opacity:0.29"/>
	<stop  offset="0.45" style="stop-color:#8A2834;stop-opacity:0.13"/>
	<stop  offset="0.53" style="stop-color:#8A2834;stop-opacity:3.000000e-02"/>
	<stop  offset="0.6" style="stop-color:#8A2834;stop-opacity:0"/>
</linearGradient>
<polygon style="fill:url(#SVGID_00000022537354102130733590000001024176396373121721_);" points="499.2,62.4 498.8,59 497.4,59 
	487.3,61 487.8,64.3 490.8,66.1 491.8,70.5 498,69.5 497.1,65.3 "/>
<polygon class="st3" points="503.1,84.1 493.7,85.1 495.1,87.5 496.6,90.7 508.2,88.4 "/>
<linearGradient id="SVGID_00000116211037652477461350000013079156998451483791_" gradientUnits="userSpaceOnUse" x1="497.4237" y1="759.9288" x2="506.5986" y2="743.6244" gradientTransform="matrix(1 0 0 1 0 -666)">
	<stop  offset="0.14" style="stop-color:#8A2834"/>
	<stop  offset="0.18" style="stop-color:#8A2834;stop-opacity:0.79"/>
	<stop  offset="0.23" style="stop-color:#8A2834;stop-opacity:0.51"/>
	<stop  offset="0.28" style="stop-color:#8A2834;stop-opacity:0.29"/>
	<stop  offset="0.34" style="stop-color:#8A2834;stop-opacity:0.13"/>
	<stop  offset="0.39" style="stop-color:#8A2834;stop-opacity:3.000000e-02"/>
	<stop  offset="0.43" style="stop-color:#8A2834;stop-opacity:0"/>
</linearGradient>
<polygon style="fill:url(#SVGID_00000116211037652477461350000013079156998451483791_);" points="503.1,84.1 494.2,86 495.1,87.5 
	496.6,90.7 508.2,88.4 "/>
<linearGradient id="SVGID_00000182519459586280075990000005418260868617358780_" gradientUnits="userSpaceOnUse" x1="459.9453" y1="727.8356" x2="461.3868" y2="735.345" gradientTransform="matrix(1 0 0 1 0 -666)">
	<stop  offset="0.14" style="stop-color:#8A2834"/>
	<stop  offset="0.17" style="stop-color:#8A2834;stop-opacity:0.79"/>
	<stop  offset="0.22" style="stop-color:#8A2834;stop-opacity:0.51"/>
	<stop  offset="0.27" style="stop-color:#8A2834;stop-opacity:0.29"/>
	<stop  offset="0.32" style="stop-color:#8A2834;stop-opacity:0.13"/>
	<stop  offset="0.37" style="stop-color:#8A2834;stop-opacity:3.000000e-02"/>
	<stop  offset="0.41" style="stop-color:#8A2834;stop-opacity:0"/>
</linearGradient>
<polygon style="fill:url(#SVGID_00000182519459586280075990000005418260868617358780_);" points="443.1,66 443.5,68.3 477.5,62.2 
	477.2,59.5 "/>
<path class="st3" d="M505.7,74.1c-0.4-2.1-1.8-3.2-1.8-3.2l-2.5,0.4l2.1,7.7l2.4-0.8C505.9,78.2,506.2,76.4,505.7,74.1L505.7,74.1z"
	/>
<linearGradient id="SVGID_00000034066934986798719290000006890792287086642354_" gradientUnits="userSpaceOnUse" x1="501.3732" y1="741.414" x2="510.9864" y2="739.0375" gradientTransform="matrix(1 0 0 1 0 -666)">
	<stop  offset="0.14" style="stop-color:#8A2834"/>
	<stop  offset="0.18" style="stop-color:#8A2834;stop-opacity:0.79"/>
	<stop  offset="0.23" style="stop-color:#8A2834;stop-opacity:0.51"/>
	<stop  offset="0.28" style="stop-color:#8A2834;stop-opacity:0.29"/>
	<stop  offset="0.34" style="stop-color:#8A2834;stop-opacity:0.13"/>
	<stop  offset="0.39" style="stop-color:#8A2834;stop-opacity:3.000000e-02"/>
	<stop  offset="0.43" style="stop-color:#8A2834;stop-opacity:0"/>
</linearGradient>
<path style="fill:url(#SVGID_00000034066934986798719290000006890792287086642354_);" d="M505.7,74.1c-0.4-2.1-1.8-3.2-1.8-3.2
	l-2.5,0.4l2.1,7.7l2.4-0.8C505.9,78.2,506.2,76.4,505.7,74.1L505.7,74.1z"/>
<polygon class="st3" points="498.8,59 497.4,59 487.3,61 487.8,64.3 490.8,66.1 497,65.1 499.2,62.4 "/>
<linearGradient id="SVGID_00000080166140012385670340000003231739111924385163_" gradientUnits="userSpaceOnUse" x1="494.3196" y1="733.9891" x2="492.8781" y2="724.8726" gradientTransform="matrix(1 0 0 1 0 -666)">
	<stop  offset="0.26" style="stop-color:#8A2834"/>
	<stop  offset="0.3" style="stop-color:#8A2834;stop-opacity:0.79"/>
	<stop  offset="0.36" style="stop-color:#8A2834;stop-opacity:0.51"/>
	<stop  offset="0.43" style="stop-color:#8A2834;stop-opacity:0.29"/>
	<stop  offset="0.49" style="stop-color:#8A2834;stop-opacity:0.13"/>
	<stop  offset="0.55" style="stop-color:#8A2834;stop-opacity:3.000000e-02"/>
	<stop  offset="0.6" style="stop-color:#8A2834;stop-opacity:0"/>
</linearGradient>
<polygon style="fill:url(#SVGID_00000080166140012385670340000003231739111924385163_);" points="498.8,59 497.4,59 487.3,61 
	487.8,64.3 490.8,66.1 497,65.1 499.2,62.4 "/>
<polygon class="st11" points="436.9,55 477.4,47.3 477.7,59.6 441.6,66.3 "/>
<linearGradient id="SVGID_00000094618870250710430350000008957328719965197474_" gradientUnits="userSpaceOnUse" x1="460.0508" y1="732.2267" x2="453.9926" y2="700.923" gradientTransform="matrix(1 0 0 1 0 -666)">
	<stop  offset="0.14" style="stop-color:#EFD548"/>
	<stop  offset="0.15" style="stop-color:#EFD548;stop-opacity:0.9"/>
	<stop  offset="0.18" style="stop-color:#EFD548;stop-opacity:0.66"/>
	<stop  offset="0.21" style="stop-color:#EFD548;stop-opacity:0.46"/>
	<stop  offset="0.24" style="stop-color:#EFD548;stop-opacity:0.29"/>
	<stop  offset="0.27" style="stop-color:#EFD548;stop-opacity:0.17"/>
	<stop  offset="0.3" style="stop-color:#EFD548;stop-opacity:7.000000e-02"/>
	<stop  offset="0.33" style="stop-color:#EFD548;stop-opacity:2.000000e-02"/>
	<stop  offset="0.35" style="stop-color:#EFD548;stop-opacity:0"/>
</linearGradient>
<polygon style="fill:url(#SVGID_00000094618870250710430350000008957328719965197474_);" points="436.9,55 477.4,47.3 477.7,59.6 
	441.6,66.3 "/>
<g class="st13">
	<path class="st14" d="M454.4,47.8c0.5,0.2,1.1,0.3,1.6,0.4c0.5,0.1,1.1,0.1,1.6,0.1c0.5,0,1-0.1,1.5-0.3c0.5-0.1,1-0.3,1.4-0.6
		l0.7-0.4l0.7-0.4c0.4-0.3,0.9-0.6,1.3-0.9s0.7-0.7,1.1-1.1c0.2-0.2,0.3-0.4,0.4-0.6c0.1-0.2,0.3-0.4,0.3-0.6l0.2-0.5l0.5,0
		c0.3,0,0.6,0,1,0c0.3,0,0.7,0,1-0.1c0.7-0.1,1.3-0.2,2-0.5c0.3-0.1,0.6-0.3,0.9-0.4c0.3-0.2,0.6-0.3,0.9-0.6
		c0.3-0.2,0.5-0.4,0.8-0.7c0.3-0.3,0.5-0.5,0.7-0.8c-0.2,0.3-0.3,0.7-0.5,1c-0.2,0.3-0.4,0.6-0.7,0.9c-0.5,0.6-1.1,1.1-1.8,1.4
		c-0.7,0.4-1.4,0.6-2.2,0.8c-0.4,0.1-0.7,0.1-1.1,0.2c-0.4,0-0.7,0.1-1.2,0l0.7-0.4c-0.1,0.4-0.3,0.6-0.4,0.9
		c-0.2,0.3-0.3,0.5-0.5,0.7c-0.4,0.5-0.8,0.9-1.3,1.2c-0.4,0.4-0.9,0.7-1.4,1l-0.8,0.4l-0.8,0.4c-1.1,0.4-2.3,0.6-3.4,0.5
		C456.5,48.9,455.4,48.5,454.4,47.8L454.4,47.8L454.4,47.8z"/>
	<path class="st14" d="M441.1,49.9c-0.5-1-0.7-2.1-0.4-3.3c0.1-0.3,0.2-0.6,0.3-0.8c0.1-0.3,0.3-0.5,0.5-0.8
		c0.2-0.2,0.4-0.4,0.6-0.7c0.2-0.2,0.5-0.4,0.7-0.5l-0.2,1c-0.2-0.3-0.4-0.5-0.5-0.8c-0.1-0.3-0.2-0.6-0.3-0.8
		c-0.1-0.3-0.1-0.6-0.1-0.9c0-0.3,0.1-0.6,0.1-0.9c0.1-0.3,0.2-0.6,0.4-0.8c0.1-0.3,0.3-0.5,0.5-0.7c0.4-0.4,0.9-0.7,1.4-0.9
		c-0.3,0.4-0.6,0.8-0.8,1.3c-0.1,0.2-0.2,0.4-0.3,0.7c0,0.1-0.1,0.2-0.1,0.3c0,0.1-0.1,0.2-0.1,0.3c0,0.2,0,0.4,0,0.7
		c0,0.2,0.1,0.4,0.1,0.6c0.1,0.2,0.2,0.4,0.3,0.6c0.1,0.2,0.2,0.4,0.4,0.5l0.4,0.5l-0.6,0.5c-0.2,0.1-0.4,0.3-0.5,0.4
		c-0.2,0.1-0.3,0.3-0.5,0.5c-0.3,0.3-0.5,0.7-0.7,1.1C441.4,47.8,441.2,48.8,441.1,49.9L441.1,49.9L441.1,49.9z"/>
	<path class="st14" d="M481.9,49.8c0,0,0.3,0.3,0.7,0.4c0.2,0.1,0.5,0.1,0.8,0.2c0.3,0,0.6,0,0.9,0c0.7-0.1,1.3-0.3,1.8-0.4
		c0.5-0.1,0.9-0.2,0.9-0.2s-0.1,0.1-0.2,0.2c-0.1,0.1-0.3,0.3-0.5,0.4c-0.2,0.1-0.5,0.3-0.8,0.4c-0.3,0.1-0.7,0.2-1.1,0.3
		c-0.4,0-0.8,0-1.1-0.1c-0.4-0.1-0.7-0.3-0.9-0.4C482,50.2,481.9,49.8,481.9,49.8L481.9,49.8L481.9,49.8z"/>
	<path class="st14" d="M484.9,50.7c0,0,0.2,0.4,0.7,0.7c0.4,0.4,1.1,0.6,1.8,0.7c0.4,0,0.7,0,1.1,0c0.4,0,0.7-0.1,1-0.1
		c0.6-0.1,1-0.2,1-0.2s-0.1,0.1-0.2,0.2c-0.2,0.1-0.4,0.2-0.6,0.4c-0.3,0.1-0.6,0.3-1,0.3c-0.4,0.1-0.8,0.1-1.2,0.1
		c-0.4,0-0.8-0.2-1.2-0.4c-0.4-0.2-0.6-0.5-0.8-0.7C484.9,51.1,484.9,50.7,484.9,50.7L484.9,50.7L484.9,50.7z"/>
	<path class="st14" d="M482.8,41.9c0,0,0.2,0,0.5,0c0.3,0,0.7,0,1.2-0.1c0.2,0,0.5-0.1,0.8-0.2c0.3-0.1,0.5-0.2,0.7-0.4
		c0.1-0.1,0.3-0.2,0.4-0.3l0.3-0.3c0.2-0.2,0.4-0.4,0.6-0.7c0.8-1,1.1-2.3,1.1-3.2c0-0.5-0.2-0.9-0.3-1.2c-0.1-0.3-0.2-0.4-0.2-0.4
		s0.2,0.1,0.4,0.3c0.2,0.2,0.6,0.6,0.8,1.2c0.1,0.3,0.2,0.6,0.2,0.9c0,0.4,0,0.7,0,1.1c-0.1,0.4-0.2,0.7-0.3,1.1
		c-0.2,0.4-0.4,0.7-0.6,1c-0.2,0.3-0.5,0.6-0.8,0.9c-0.1,0.1-0.4,0.3-0.5,0.4c-0.2,0.1-0.3,0.2-0.5,0.2c-0.4,0.2-0.7,0.2-1.1,0.3
		c-0.3,0-0.7,0-1,0c-0.6-0.1-1-0.2-1.3-0.4C482.9,42,482.8,41.9,482.8,41.9L482.8,41.9L482.8,41.9z"/>
	<path class="st14" d="M449.9,33.1c0,0,0-0.2,0.2-0.5c0.2-0.3,0.4-0.8,0.9-1.2c0.4-0.4,1-0.9,1.8-1.2c0.4-0.2,0.7-0.3,1.1-0.4
		c0.4-0.1,0.8-0.2,1.2-0.2c0.8-0.1,1.7-0.1,2.4,0.1c0.8,0.1,1.5,0.4,2,0.7c0.6,0.3,0.9,0.6,1.2,0.8c0.3,0.2,0.4,0.4,0.4,0.4
		s-0.7-0.4-1.8-0.7c-0.6-0.2-1.2-0.3-1.9-0.3c-0.4,0-0.7,0-1.1,0c-0.4,0-0.7,0-1.1,0.1c-0.7,0.1-1.5,0.2-2.1,0.4
		c-0.7,0.2-1.3,0.5-1.7,0.8C450.4,32.4,449.9,33.1,449.9,33.1L449.9,33.1L449.9,33.1z"/>
	<path class="st14" d="M459,30.4c0,0,0.3-0.5,1-0.9c0.7-0.5,1.8-0.9,2.9-1c0.6,0,1.1,0,1.6,0.1c0.5,0.1,1,0.3,1.4,0.4
		c0.4,0.2,0.7,0.4,0.9,0.5c0.2,0.1,0.3,0.2,0.3,0.2s-0.1,0-0.4,0c-0.2,0-0.6-0.1-0.9-0.1c-0.8-0.1-1.8-0.2-2.8-0.1
		c-0.5,0-1,0.1-1.5,0.2c-0.5,0.1-0.9,0.2-1.3,0.3C459.5,30.2,459,30.5,459,30.4L459,30.4L459,30.4z"/>
</g>
<linearGradient id="SVGID_00000121254487115983274830000002384545468645303702_" gradientUnits="userSpaceOnUse" x1="503.3891" y1="759.0124" x2="500.5451" y2="751.5419" gradientTransform="matrix(1 0 0 1 0 -666)">
	<stop  offset="0.36" style="stop-color:#8A2834"/>
	<stop  offset="0.39" style="stop-color:#8A2834;stop-opacity:0.79"/>
	<stop  offset="0.43" style="stop-color:#8A2834;stop-opacity:0.51"/>
	<stop  offset="0.48" style="stop-color:#8A2834;stop-opacity:0.29"/>
	<stop  offset="0.52" style="stop-color:#8A2834;stop-opacity:0.13"/>
	<stop  offset="0.56" style="stop-color:#8A2834;stop-opacity:3.000000e-02"/>
	<stop  offset="0.6" style="stop-color:#8A2834;stop-opacity:0"/>
</linearGradient>
<polygon style="fill:url(#SVGID_00000121254487115983274830000002384545468645303702_);" points="503.1,84.1 494.2,86 495.1,87.5 
	496.6,90.7 508.2,88.4 "/>
<path class="st1" d="M439.2,56.3l1.5-0.4c1-0.3,2.4-0.7,4.1-1s3.6-0.9,5.7-1.3c2.1-0.5,4.4-0.9,6.6-1.4c2.3-0.4,4.5-0.9,6.7-1.2
	c2.1-0.4,4.1-0.7,5.8-0.9c1.7-0.3,3.1-0.4,4.1-0.6c1-0.1,1.6-0.2,1.6-0.2s-0.6,0.2-1.5,0.4c-1,0.3-2.4,0.7-4.1,1
	c-1.7,0.4-3.6,0.9-5.7,1.3c-2.1,0.5-4.4,0.9-6.6,1.4c-2.3,0.4-4.5,0.9-6.7,1.2c-2.1,0.4-4.1,0.7-5.8,0.9c-1.7,0.3-3.1,0.4-4.1,0.6
	C439.8,56.2,439.2,56.3,439.2,56.3z"/>
<path class="st3" d="M500.9,69l-9.1,1.5l-12.9,2.3l2,15.5c0.4-3.5,3.4-6.3,7-6.3c2.4,0,5.1,2.1,6.4,4l8.9-1.9c0,0,1-2.8,0-8.4
	C502.6,72.6,500.9,69,500.9,69L500.9,69L500.9,69z"/>
<linearGradient id="SVGID_00000077320954516087006690000017137756890008642235_" gradientUnits="userSpaceOnUse" x1="478.1649" y1="752.2908" x2="512.225" y2="731.5742" gradientTransform="matrix(1 0 0 1 0 -666)">
	<stop  offset="6.000000e-02" style="stop-color:#8A2834"/>
	<stop  offset="0.1" style="stop-color:#8A2834;stop-opacity:0.79"/>
	<stop  offset="0.17" style="stop-color:#8A2834;stop-opacity:0.51"/>
	<stop  offset="0.24" style="stop-color:#8A2834;stop-opacity:0.29"/>
	<stop  offset="0.31" style="stop-color:#8A2834;stop-opacity:0.13"/>
	<stop  offset="0.37" style="stop-color:#8A2834;stop-opacity:3.000000e-02"/>
	<stop  offset="0.43" style="stop-color:#8A2834;stop-opacity:0"/>
</linearGradient>
<path style="fill:url(#SVGID_00000077320954516087006690000017137756890008642235_);" d="M500.9,69l-9.1,1.5l-12.9,2.3l2,15.5
	c0.4-3.5,3.4-6.3,7-6.3c2.4,0,5.1,2.1,6.4,4l8.9-1.9c0,0,1-2.8,0-8.4C502.6,72.6,500.9,69,500.9,69L500.9,69L500.9,69z"/>
<linearGradient id="SVGID_00000018959937175742144700000007668532176429185179_" gradientUnits="userSpaceOnUse" x1="493.1252" y1="755.3981" x2="491.3039" y2="743.4669" gradientTransform="matrix(1 0 0 1 0 -666)">
	<stop  offset="0.29" style="stop-color:#8A2834"/>
	<stop  offset="0.32" style="stop-color:#8A2834;stop-opacity:0.79"/>
	<stop  offset="0.37" style="stop-color:#8A2834;stop-opacity:0.51"/>
	<stop  offset="0.42" style="stop-color:#8A2834;stop-opacity:0.29"/>
	<stop  offset="0.47" style="stop-color:#8A2834;stop-opacity:0.13"/>
	<stop  offset="0.51" style="stop-color:#8A2834;stop-opacity:3.000000e-02"/>
	<stop  offset="0.55" style="stop-color:#8A2834;stop-opacity:0"/>
</linearGradient>
<path style="fill:url(#SVGID_00000018959937175742144700000007668532176429185179_);" d="M500.9,69l-9.1,1.5l-12.9,2.3l2,15.5
	c0.4-3.5,3.4-6.3,7-6.3c2.4,0,5.1,2.1,6.4,4l8.9-1.9c0,0,1-2.8,0-8.4C502.6,72.6,500.9,69,500.9,69L500.9,69L500.9,69z"/>
<circle class="st18" cx="463.8" cy="91.1" r="9.7"/>
<linearGradient id="SVGID_00000119804381940575573260000008732818025607007896_" gradientUnits="userSpaceOnUse" x1="468.7357" y1="764.9926" x2="459.1902" y2="749.6613" gradientTransform="matrix(1 0 0 1 0 -666)">
	<stop  offset="0.35" style="stop-color:#E2B945"/>
	<stop  offset="0.36" style="stop-color:#E2B945;stop-opacity:0.94"/>
	<stop  offset="0.44" style="stop-color:#E2B945;stop-opacity:0.7"/>
	<stop  offset="0.51" style="stop-color:#E2B945;stop-opacity:0.48"/>
	<stop  offset="0.58" style="stop-color:#E2B945;stop-opacity:0.31"/>
	<stop  offset="0.65" style="stop-color:#E2B945;stop-opacity:0.17"/>
	<stop  offset="0.71" style="stop-color:#E2B945;stop-opacity:8.000000e-02"/>
	<stop  offset="0.78" style="stop-color:#E2B945;stop-opacity:2.000000e-02"/>
	<stop  offset="0.84" style="stop-color:#E2B945;stop-opacity:0"/>
</linearGradient>
<circle style="opacity:0.5;fill:url(#SVGID_00000119804381940575573260000008732818025607007896_);enable-background:new    ;" cx="463.8" cy="91.1" r="9"/>
<circle class="st18" cx="487.9" cy="89.1" r="7.1"/>
<linearGradient id="SVGID_00000127767056378811078010000003561841920418754976_" gradientUnits="userSpaceOnUse" x1="491.3716" y1="760.7554" x2="484.5063" y2="749.7223" gradientTransform="matrix(1 0 0 1 0 -666)">
	<stop  offset="0.35" style="stop-color:#E2B945"/>
	<stop  offset="0.36" style="stop-color:#E2B945;stop-opacity:0.94"/>
	<stop  offset="0.44" style="stop-color:#E2B945;stop-opacity:0.7"/>
	<stop  offset="0.51" style="stop-color:#E2B945;stop-opacity:0.48"/>
	<stop  offset="0.58" style="stop-color:#E2B945;stop-opacity:0.31"/>
	<stop  offset="0.65" style="stop-color:#E2B945;stop-opacity:0.17"/>
	<stop  offset="0.71" style="stop-color:#E2B945;stop-opacity:8.000000e-02"/>
	<stop  offset="0.78" style="stop-color:#E2B945;stop-opacity:2.000000e-02"/>
	<stop  offset="0.84" style="stop-color:#E2B945;stop-opacity:0"/>
</linearGradient>
<circle style="opacity:0.5;fill:url(#SVGID_00000127767056378811078010000003561841920418754976_);enable-background:new    ;" cx="487.9" cy="89.1" r="6.5"/>
<path class="st1" d="M481.6,89.7c0,0,0-0.2-0.1-0.5c0-0.3-0.1-0.7,0-1.3c0-0.5,0.2-1.1,0.5-1.8c0.2-0.3,0.3-0.6,0.5-0.9
	c0.2-0.3,0.4-0.6,0.7-0.8c0.3-0.2,0.5-0.5,0.8-0.7c0.3-0.2,0.6-0.4,0.9-0.5c0.6-0.3,1.2-0.5,1.8-0.5c0.5-0.1,1,0,1.3,0
	c0.3,0,0.5,0.1,0.5,0.1s-0.2,0.1-0.5,0.1c-0.3,0-0.7,0.2-1.2,0.4c-0.2,0.1-0.5,0.2-0.7,0.3c-0.3,0.1-0.5,0.3-0.8,0.4
	c-0.5,0.3-1,0.7-1.5,1.2c-0.4,0.4-0.8,1-1.2,1.5c-0.1,0.3-0.3,0.5-0.4,0.8c-0.1,0.3-0.2,0.5-0.3,0.7c-0.2,0.5-0.3,0.8-0.4,1.2
	C481.7,89.5,481.6,89.7,481.6,89.7L481.6,89.7L481.6,89.7z"/>
<polygon class="st3" points="488.2,88.1 464.3,90.5 464.4,91.8 488.3,89.4 488.2,89 488.2,89 488.2,88.9 "/>
<linearGradient id="SVGID_00000128473760040979498550000016606915020573517226_" gradientUnits="userSpaceOnUse" x1="475.564" y1="749.4666" x2="476.5575" y2="758.4078" gradientTransform="matrix(1 0 0 1 0 -666)">
	<stop  offset="0.14" style="stop-color:#8A2834;stop-opacity:0"/>
	<stop  offset="0.62" style="stop-color:#8A2834;stop-opacity:0"/>
	<stop  offset="0.65" style="stop-color:#8A2834;stop-opacity:3.000000e-02"/>
	<stop  offset="0.69" style="stop-color:#8A2834;stop-opacity:0.13"/>
	<stop  offset="0.73" style="stop-color:#8A2834;stop-opacity:0.29"/>
	<stop  offset="0.76" style="stop-color:#8A2834;stop-opacity:0.51"/>
	<stop  offset="0.8" style="stop-color:#8A2834;stop-opacity:0.79"/>
	<stop  offset="0.83" style="stop-color:#8A2834"/>
</linearGradient>
<polygon style="fill:url(#SVGID_00000128473760040979498550000016606915020573517226_);" points="488.2,88.1 464.3,90.5 464.4,91.8 
	488.3,89.4 488.2,89 488.2,89 488.2,88.9 "/>
<circle class="st3" cx="463.8" cy="91.1" r="1.9"/>
<linearGradient id="SVGID_00000051349658529672068490000014861259167862729633_" gradientUnits="userSpaceOnUse" x1="461.3651" y1="755.2797" x2="466.3518" y2="759.0198" gradientTransform="matrix(1 0 0 1 0 -666)">
	<stop  offset="0.14" style="stop-color:#8A2834;stop-opacity:0"/>
	<stop  offset="0.45" style="stop-color:#8A2834;stop-opacity:0"/>
	<stop  offset="0.49" style="stop-color:#8A2834;stop-opacity:3.000000e-02"/>
	<stop  offset="0.53" style="stop-color:#8A2834;stop-opacity:0.13"/>
	<stop  offset="0.58" style="stop-color:#8A2834;stop-opacity:0.29"/>
	<stop  offset="0.63" style="stop-color:#8A2834;stop-opacity:0.51"/>
	<stop  offset="0.68" style="stop-color:#8A2834;stop-opacity:0.79"/>
	<stop  offset="0.71" style="stop-color:#8A2834"/>
</linearGradient>
<circle style="fill:url(#SVGID_00000051349658529672068490000014861259167862729633_);" cx="463.8" cy="91.1" r="1.9"/>
<circle class="st3" cx="487.9" cy="88.8" r="1.5"/>
<linearGradient id="SVGID_00000158734699424174960940000007475857982523964830_" gradientUnits="userSpaceOnUse" x1="486.1297" y1="752.7608" x2="489.6945" y2="756.9392" gradientTransform="matrix(1 0 0 1 0 -666)">
	<stop  offset="0.14" style="stop-color:#8A2834;stop-opacity:0"/>
	<stop  offset="0.45" style="stop-color:#8A2834;stop-opacity:0"/>
	<stop  offset="0.49" style="stop-color:#8A2834;stop-opacity:3.000000e-02"/>
	<stop  offset="0.53" style="stop-color:#8A2834;stop-opacity:0.13"/>
	<stop  offset="0.58" style="stop-color:#8A2834;stop-opacity:0.29"/>
	<stop  offset="0.63" style="stop-color:#8A2834;stop-opacity:0.51"/>
	<stop  offset="0.68" style="stop-color:#8A2834;stop-opacity:0.79"/>
	<stop  offset="0.71" style="stop-color:#8A2834"/>
</linearGradient>
<circle style="fill:url(#SVGID_00000158734699424174960940000007475857982523964830_);" cx="487.9" cy="88.8" r="1.5"/>
<path class="st1" d="M455.3,91.5c0,0,0-0.2-0.1-0.6c0-0.2,0-0.4,0-0.7c0-0.3,0-0.6,0.1-0.9c0-0.4,0.1-0.7,0.3-1.1
	c0.1-0.4,0.3-0.8,0.4-1.2c0.2-0.4,0.4-0.8,0.7-1.1c0.3-0.4,0.6-0.7,0.9-1.1c0.4-0.3,0.7-0.6,1.1-0.9c0.4-0.3,0.8-0.5,1.1-0.7
	c0.4-0.2,0.8-0.4,1.2-0.5c0.4-0.1,0.7-0.2,1.1-0.3c0.3-0.1,0.7-0.1,0.9-0.1c0.3,0,0.5,0,0.7,0c0.4,0,0.6,0.1,0.6,0.1
	s-0.2,0.1-0.6,0.1c-0.4,0.1-0.9,0.2-1.5,0.4c-0.3,0.1-0.6,0.2-1,0.4c-0.3,0.1-0.7,0.4-1,0.5c-0.7,0.4-1.3,0.9-1.9,1.5
	c-0.6,0.6-1.1,1.3-1.5,1.9c-0.2,0.4-0.4,0.7-0.5,1c-0.2,0.3-0.3,0.7-0.4,1c-0.2,0.6-0.4,1.1-0.4,1.5
	C455.4,91.2,455.3,91.4,455.3,91.5L455.3,91.5L455.3,91.5z"/>
<path class="st1" d="M486.8,89.2c0,0-0.1-0.1-0.1-0.4c0-0.3,0.1-0.7,0.4-0.9c0.3-0.3,0.7-0.4,0.9-0.4c0.3,0,0.4,0.1,0.4,0.1
	c0,0-0.6,0.4-0.9,0.7c-0.2,0.2-0.3,0.4-0.5,0.5C486.9,89,486.8,89.2,486.8,89.2L486.8,89.2L486.8,89.2z"/>
<path class="st1" d="M462.3,91.7c0,0,0-0.1-0.1-0.1c0-0.1-0.1-0.2-0.1-0.4c0-0.4,0.2-0.8,0.5-1.2c0.4-0.4,0.8-0.5,1.2-0.5
	c0.4,0,0.6,0.1,0.6,0.1s-0.2,0.1-0.5,0.3c-0.3,0.1-0.6,0.4-0.8,0.6c-0.2,0.2-0.5,0.5-0.6,0.8C462.4,91.5,462.3,91.7,462.3,91.7
	L462.3,91.7L462.3,91.7z"/>
<path class="st24" d="M109.1,54.5l-8.8-21.5c-0.9-2.3-2.4-3.8-4.3-4.5c-1.8-0.7-3.7-0.6-5.7,0.2c-1.9,0.8-3.4,2.1-4.2,3.8
	c-0.9,1.8-0.8,3.9,0.1,6.2L95,60c0.5,1.2,0.7,2.4,0.7,3.4c0,1-0.3,2-0.7,2.8c-0.4,0.9-1.1,1.7-1.9,2.4c-1.6,1.4-3.9,2.4-6.1,2.5
	c-1,0.1-2-0.1-2.9-0.4c-0.9-0.3-1.7-0.8-2.5-1.5c-0.7-0.7-1.4-1.7-1.9-2.9l-8.7-21.4c-0.9-2.3-2.4-3.8-4.2-4.5
	c-1.8-0.6-3.7-0.6-5.7,0.2c-1.9,0.8-3.4,2.1-4.2,3.8c-0.9,1.8-0.8,3.9,0.1,6.2l8.8,21.5c1.3,3.1,3,5.8,5.1,7.9
	c2.1,2.1,4.5,3.7,7.2,4.7c2.3,0.9,4.9,1.3,7.5,1.3c0.4,0,0.7,0,1.1,0c3-0.1,6.1-0.8,9.1-2.1c3.1-1.3,5.8-2.9,8-4.9
	c2.2-2,4-4.3,5.2-6.9c1.2-2.6,1.8-5.4,1.9-8.4C111,60.7,110.4,57.6,109.1,54.5"/>
<path class="st24" d="M249.8,39.3c-0.9-1.6-2.5-2.8-4.7-3.5l-16.4-5c-1.9-0.6-3.7-0.5-5.5,0.3c-1.9,0.8-3.2,2.4-3.9,4.7l-11.1,36.5
	c-0.7,2.3-0.5,4.3,0.6,6.1c1.1,1.7,2.5,2.8,4.4,3.4l16.8,5.1c0.9,0.3,1.9,0.4,2.7,0.4c1.1,0,2.1-0.2,3.1-0.7
	c1.7-0.9,2.9-2.3,3.5-4.4c0.6-2.1,0.5-4-0.5-5.6c-0.9-1.6-2.5-2.8-4.7-3.4l-9.6-2.9l1.7-5.6l8.3,2.5c2.1,0.7,4.1,0.6,5.8-0.2
	c1.7-0.8,2.9-2.3,3.6-4.4c0.6-2.1,0.5-4-0.5-5.6c-0.9-1.6-2.5-2.8-4.7-3.4l-8.3-2.5l1.3-4.3l9.2,2.8c2.1,0.7,4.1,0.6,5.8-0.2
	c1.7-0.8,2.9-2.3,3.6-4.4C250.9,42.8,250.7,41,249.8,39.3"/>
<path class="st1" d="M247.6,40.6c-0.9-1.6-2.5-2.8-4.7-3.5l-16.4-5c-1.9-0.6-3.7-0.5-5.5,0.3c-1.9,0.8-3.2,2.4-3.9,4.7l-11.1,36.5
	c-0.7,2.3-0.5,4.3,0.6,6.1c1.1,1.7,2.5,2.8,4.4,3.4l16.8,5.1c0.9,0.3,1.9,0.4,2.7,0.4c1.1,0,2.1-0.2,3.1-0.7
	c1.7-0.9,2.9-2.3,3.5-4.4c0.6-2.1,0.5-4-0.5-5.6c-0.9-1.6-2.5-2.8-4.7-3.4l-9.6-2.9l1.7-5.6l8.3,2.5c2.1,0.7,4.1,0.6,5.8-0.2
	c1.7-0.8,2.9-2.3,3.5-4.4c0.6-2.1,0.5-4-0.5-5.6c-0.9-1.6-2.5-2.8-4.7-3.4l-8.3-2.5l1.3-4.3l9.2,2.8c2.1,0.7,4.1,0.6,5.8-0.2
	c1.7-0.8,2.9-2.3,3.6-4.4C248.7,44.1,248.6,42.2,247.6,40.6"/>
<path class="st24" d="M210.7,60.5l-5.5-22.6c-0.6-2.4-1.8-4.1-3.5-5.1c-1.7-0.9-3.6-1.1-5.6-0.6c-2,0.5-3.6,1.5-4.7,3.1
	c-1.1,1.7-1.4,3.7-0.8,6.1l5.5,22.4c0.3,1.3,0.4,2.4,0.2,3.5c-0.2,1-0.6,1.9-1.1,2.7c-0.6,0.8-1.3,1.5-2.2,2.1
	c-1.8,1.2-4.2,1.8-6.4,1.5c-1-0.1-2-0.4-2.8-0.8c-0.8-0.4-1.6-1.1-2.2-1.9c-0.6-0.8-1.1-1.9-1.4-3.2l-5.5-22.4
	c-0.6-2.4-1.8-4.1-3.5-5.1c-1.7-0.9-3.6-1.1-5.6-0.6c-2.1,0.5-3.6,1.6-4.7,3.2c-1.1,1.7-1.4,3.7-0.8,6.1l5.5,22.6
	c0.8,3.3,2.1,6.2,3.9,8.6c1.8,2.4,3.9,4.3,6.4,5.7c2.2,1.2,4.6,2,7.2,2.4c0.4,0.1,0.7,0.1,1.1,0.1c3,0.3,6.1,0.1,9.4-0.7
	c3.3-0.8,6.2-2,8.7-3.7c2.5-1.7,4.6-3.7,6.2-6.1c1.6-2.4,2.6-5.1,3.1-8C211.6,66.9,211.5,63.7,210.7,60.5"/>
<path class="st1" d="M208.2,60.4l-5.5-22.6c-0.6-2.4-1.8-4.1-3.5-5.1c-1.7-0.9-3.6-1.1-5.6-0.6c-2,0.5-3.6,1.5-4.7,3.1
	c-1.1,1.7-1.4,3.7-0.8,6.1l5.5,22.4c0.3,1.3,0.4,2.4,0.2,3.5c-0.2,1-0.6,1.9-1.1,2.7c-0.6,0.8-1.3,1.5-2.2,2.1
	c-1.8,1.2-4.2,1.8-6.4,1.5c-1-0.1-2-0.4-2.8-0.8c-0.8-0.4-1.6-1.1-2.2-1.9c-0.6-0.8-1.1-1.9-1.4-3.2l-5.5-22.4
	c-0.6-2.4-1.8-4.1-3.5-5.1c-1.7-0.9-3.6-1.1-5.6-0.6c-2,0.5-3.6,1.6-4.7,3.2c-1.1,1.7-1.4,3.7-0.8,6.1l5.5,22.6
	c0.8,3.3,2.1,6.2,3.9,8.6c1.8,2.4,3.9,4.3,6.4,5.7c2.2,1.2,4.6,2,7.2,2.4c0.4,0,0.7,0.1,1.1,0.1c3,0.3,6.1,0.1,9.4-0.7
	c3.3-0.8,6.2-2,8.7-3.7c2.5-1.7,4.6-3.7,6.2-6.1c1.6-2.4,2.6-5.1,3.1-8C209.2,66.8,209,63.6,208.2,60.4"/>
<path class="st24" d="M157,59.6l-12.6-2.7c-2.5-0.5-4.4-0.3-5.8,0.8c-2.5,1.9-2.7,6.5-1.4,8.4c1.1,1.6,2.7,2.6,4.9,3.1L146,70
	c-0.6,0.9-1.5,1.7-2.5,2.2c-1.8,0.9-3.9,1.1-6.3,0.5c-1.8-0.4-3.3-1.1-4.4-2c-1.1-0.9-2-2-2.6-3.3c-0.6-1.3-1-2.7-1.1-4.3
	c-0.1-1.6,0-3.2,0.4-4.7c0.4-1.8,1-3.4,1.8-4.7c0.8-1.4,1.8-2.5,2.9-3.3c1.1-0.8,2.4-1.4,3.8-1.8c1.4-0.3,3-0.3,4.5,0
	s2.9,0.8,3.8,1.5c1,0.7,1.9,1.5,2.6,2.2c0.8,0.8,1.6,1.6,2.3,2.3c1,1,2.1,1.6,3.5,1.9c2,0.4,3.9,0.2,5.3-0.8c1.5-1,2.5-2.4,2.9-4.3
	c0.5-2.2,0.2-4.3-0.9-6.2c-0.9-1.8-2.3-3.4-4.1-4.8c-1.7-1.4-3.7-2.6-6-3.6c-5.8-2.6-12.1-3.5-17.6-2.6c-3.4,0.6-6.6,1.8-9.3,3.7
	c-2.8,1.8-5.2,4.2-7.1,7.1c-2,2.9-3.4,6.3-4.2,10c-0.7,3.5-0.9,7-0.5,10.3c0.4,3.4,1.5,6.6,3.2,9.4c1.7,2.8,4,5.3,6.9,7.4
	c2.9,2.1,6.4,3.5,10.4,4.4c2,0.4,4,0.7,5.9,0.7c1.5,0,2.9-0.1,4.3-0.4c3.2-0.6,6.1-1.8,8.7-3.5c2.5-1.7,4.7-4,6.4-6.6
	c1.7-2.6,3-5.7,3.7-9c0.5-2.3,0.3-4.1-0.6-5.4C161.1,60.4,158.8,60,157,59.6"/>
<path class="st24" d="M434,41.3c-1-1.6-2.6-2.8-4.6-3.3c-2-0.5-4-0.4-5.7,0.5c-1.8,0.9-3,2.6-3.7,5.1l-4.6,17.1l-9.8-22.2
	c-0.6-1.4-1.1-2.6-1.6-3.5c-0.5-1-1-1.8-1.4-2.5c-0.6-0.8-1.2-1.4-1.9-1.9c-0.7-0.4-1.5-0.8-2.4-1c-2-0.6-4-0.4-5.7,0.5
	c-1.8,0.9-3,2.6-3.7,5.1l-9.8,36.3c-0.7,2.4-0.4,4.5,0.6,6.2c1,1.6,2.6,2.8,4.6,3.3c2,0.6,4,0.4,5.7-0.5c1.8-0.9,3-2.6,3.7-5.1
	l4.6-17.1l9.9,22.2c0.6,1.4,1.1,2.5,1.5,3.4c0.5,1,0.9,1.9,1.4,2.6c0.6,0.8,1.2,1.4,1.9,1.9c0.7,0.4,1.5,0.8,2.4,1
	c0.8,0.2,1.5,0.3,2.3,0.3c1.2,0,2.4-0.3,3.4-0.8c1.8-0.9,3-2.6,3.7-5.1l9.8-36.3C435.3,45.1,435,43,434,41.3"/>
<path class="st1" d="M431.5,41.1c-1.1-1.6-2.6-2.7-4.7-3.3c-2-0.5-4-0.3-5.7,0.6c-1.8,0.9-3,2.6-3.6,5.1L413,60.5l-10-22.1
	c-0.6-1.4-1.1-2.6-1.6-3.5c-0.5-1-1-1.8-1.5-2.5c-0.6-0.8-1.2-1.4-1.9-1.8c-0.7-0.4-1.5-0.8-2.4-1c-2-0.5-4-0.4-5.7,0.6
	c-1.8,0.9-3,2.6-3.6,5.1l-9.6,36.4c-0.6,2.4-0.4,4.5,0.7,6.2c1.1,1.6,2.6,2.7,4.7,3.3c2,0.5,4,0.4,5.7-0.6c1.8-0.9,3-2.6,3.6-5.1
	l4.5-17.1l10,22.1c0.6,1.4,1.1,2.5,1.6,3.4c0.5,1,1,1.9,1.5,2.6c0.6,0.8,1.2,1.4,1.9,1.8c0.7,0.4,1.5,0.8,2.4,1
	c0.8,0.2,1.5,0.3,2.3,0.3c1.2,0,2.3-0.3,3.4-0.9c1.8-0.9,3-2.6,3.6-5.1l9.6-36.4C432.8,44.8,432.6,42.8,431.5,41.1"/>
<path class="st24" d="M381.1,51.1c-1.3-3.3-3-6.1-5.4-8.4c-2.3-2.3-5.1-4.1-8.3-5.4c-3.2-1.3-6.8-1.9-10.7-1.9s-7.5,0.6-10.7,1.9
	c-3.2,1.3-6,3.1-8.3,5.4c-2.3,2.3-4.1,5.2-5.4,8.4c-1.2,3.2-1.9,6.9-1.9,10.9s0.6,7.6,1.9,10.9c1.2,3.3,3,6.1,5.4,8.4
	c2.3,2.3,5.1,4.1,8.3,5.4c3.2,1.3,6.8,1.9,10.7,1.9s7.5-0.6,10.7-1.9c3.2-1.3,6-3.1,8.3-5.4c2.3-2.3,4.1-5.2,5.4-8.4
	c1.2-3.2,1.9-6.9,1.9-10.9S382.3,54.3,381.1,51.1 M349,53.3c0.8-1.1,1.8-2,3.1-2.6c1.3-0.7,2.8-1,4.7-1s3.4,0.3,4.7,1
	c1.3,0.7,2.3,1.6,3.1,2.6c0.8,1.1,1.4,2.4,1.8,3.9c0.4,1.5,0.6,3.1,0.6,4.8c0,1.6-0.2,3.2-0.6,4.8c-0.4,1.5-1,2.8-1.8,3.9
	c-0.8,1.1-1.8,2-3.1,2.6c-1.3,0.7-2.8,1-4.7,1s-3.4-0.3-4.7-1c-1.3-0.7-2.3-1.6-3.1-2.6c-0.8-1.1-1.4-2.4-1.8-3.9
	c-0.4-1.5-0.6-3.1-0.6-4.8s0.2-3.2,0.6-4.8C347.5,55.7,348.2,54.4,349,53.3"/>
<path class="st1" d="M378.7,51c-1.3-3.3-3-6.1-5.4-8.4c-2.3-2.3-5.1-4.1-8.3-5.4c-3.2-1.3-6.8-1.9-10.7-1.9s-7.5,0.6-10.7,1.9
	c-3.2,1.3-6,3.1-8.3,5.4c-2.3,2.3-4.1,5.2-5.4,8.4c-1.2,3.2-1.9,6.9-1.9,10.9s0.6,7.6,1.9,10.9c1.2,3.3,3,6.1,5.4,8.4
	c2.3,2.3,5.1,4.1,8.3,5.4c3.2,1.3,6.8,1.9,10.7,1.9s7.5-0.6,10.7-1.9c3.2-1.3,6-3.1,8.3-5.4c2.3-2.3,4.1-5.2,5.4-8.4
	c1.2-3.2,1.9-6.9,1.9-10.9S379.9,54.2,378.7,51 M346.5,53.2c0.8-1.1,1.8-2,3.1-2.6c1.3-0.7,2.8-1,4.7-1s3.4,0.3,4.7,1
	c1.3,0.7,2.3,1.6,3.1,2.6c0.8,1.1,1.4,2.4,1.8,3.9c0.4,1.5,0.6,3.1,0.6,4.8c0,1.6-0.2,3.2-0.6,4.8c-0.4,1.5-1,2.8-1.8,3.9
	c-0.8,1.1-1.8,2-3.1,2.6c-1.3,0.7-2.8,1-4.7,1s-3.4-0.3-4.7-1c-1.3-0.7-2.3-1.6-3.1-2.6c-0.8-1.1-1.4-2.4-1.8-3.9
	c-0.4-1.5-0.6-3.1-0.6-4.8s0.2-3.2,0.6-4.8C345.1,55.6,345.7,54.3,346.5,53.2"/>
<path class="st24" d="M335.4,72.4c-0.4-1.2-1-2.2-1.8-3c-0.7-0.7-1.7-1.4-2.8-2l-9.6-5.3c2.1-1.7,3.7-3.7,4.6-6.1
	c1.4-3.4,1.4-7.1,0.2-11c-0.8-2.4-1.9-4.6-3.4-6.3c-1.5-1.7-3.3-3.1-5.3-4.1c-2-0.9-4.2-1.5-6.7-1.6c-2.4-0.1-4.9,0.3-7.5,1.1
	l-12.9,4.1c-1.9,0.6-3.3,1.7-4.4,3.4c-1.1,1.8-1.3,3.8-0.6,6.1l11.5,36.1c0.8,2.4,2.1,4.1,3.9,4.9c1,0.5,2,0.7,3.1,0.7
	c0.8,0,1.7-0.1,2.6-0.4c2-0.6,3.5-1.8,4.5-3.5c1-1.8,1.1-3.9,0.3-6.3l-2.6-8.2l13.9,9.3c1.1,0.7,2.1,1.2,3.1,1.5
	c0.5,0.1,1,0.2,1.5,0.2c0.9,0,1.8-0.2,3-0.5c1.3-0.4,2.4-1,3.2-1.9c0.8-0.8,1.3-1.6,1.7-2.5c0.4-0.9,0.6-1.8,0.6-2.6
	C335.7,73.6,335.6,73,335.4,72.4 M310.1,48c0.8,0.3,1.3,1,1.7,2s0.3,1.9-0.1,2.8c-0.4,0.8-1.1,1.4-2.4,1.8l-5.2,1.7l-2.1-6.6
	l5.2-1.7C308.2,47.6,309.1,47.6,310.1,48"/>
<path class="st1" d="M332.9,73.2c-0.4-1.2-1-2.2-1.8-3c-0.7-0.7-1.7-1.4-2.8-2l-9.6-5.3c2.1-1.7,3.7-3.7,4.6-6.1
	c1.4-3.4,1.4-7.1,0.2-11c-0.8-2.4-1.9-4.6-3.4-6.3c-1.5-1.7-3.3-3.1-5.3-4.1c-2-0.9-4.2-1.5-6.7-1.6c-2.4-0.1-4.9,0.3-7.5,1.1
	l-12.9,4.1c-1.9,0.6-3.3,1.7-4.4,3.4c-1.1,1.8-1.3,3.8-0.6,6.1l11.5,36.1c0.8,2.4,2.1,4.1,3.9,4.9c1,0.5,2,0.7,3.1,0.7
	c0.8,0,1.7-0.1,2.6-0.4c2-0.6,3.5-1.8,4.5-3.6c1-1.8,1.1-3.9,0.3-6.3l-2.6-8.2l13.9,9.3c1.1,0.7,2.1,1.2,3.1,1.5
	c0.5,0.1,1,0.2,1.5,0.2c0.9,0,1.8-0.2,3-0.5c1.3-0.4,2.4-1,3.2-1.9c0.8-0.8,1.3-1.6,1.7-2.5c0.4-0.9,0.6-1.8,0.6-2.6
	C333.2,74.5,333.1,73.8,332.9,73.2 M307.6,48.8c0.8,0.3,1.3,1,1.7,2c0.3,1,0.3,1.9-0.1,2.8c-0.4,0.8-1.1,1.4-2.4,1.8l-5.2,1.7
	l-2.1-6.6l5.2-1.7C305.7,48.4,306.6,48.4,307.6,48.8"/>
<path class="st24" d="M289.8,42.8c-1-1.6-2.7-2.6-5-3.2l-23.1-5.8c-2.3-0.6-4.3-0.4-6,0.5c-1.7,0.9-2.8,2.5-3.3,4.6
	c-0.5,2.1-0.3,3.9,0.8,5.6c1,1.6,2.7,2.7,5,3.3l4.2,1.1l-7.6,30.2c-0.6,2.4-0.4,4.5,0.7,6.2c1.1,1.6,2.6,2.7,4.7,3.2
	c0.7,0.2,1.4,0.3,2.1,0.3c1.3,0,2.5-0.3,3.5-0.9c1.8-1,3-2.7,3.6-5.1l7.6-30.2l4.2,1.1c0.9,0.2,1.8,0.3,2.6,0.3
	c1.3,0,2.4-0.3,3.4-0.8c1.7-0.9,2.8-2.5,3.3-4.5C291.1,46.3,290.8,44.4,289.8,42.8"/>
<path class="st1" d="M154.8,60.8l-12.6-2.7c-2.5-0.5-4.4-0.3-5.8,0.8c-2.5,1.9-2.7,6.5-1.4,8.4c1.1,1.6,2.7,2.6,4.9,3.1l3.9,0.8
	c-0.6,0.9-1.5,1.7-2.5,2.2c-1.8,0.9-3.9,1.1-6.3,0.5c-1.8-0.4-3.3-1.1-4.4-2c-1.1-0.9-2-2-2.6-3.3c-0.6-1.3-1-2.7-1.1-4.3
	c-0.1-1.6,0-3.2,0.4-4.7c0.4-1.8,1-3.4,1.8-4.7c0.8-1.4,1.8-2.5,2.9-3.3c1.1-0.8,2.4-1.4,3.8-1.8c1.4-0.3,3-0.3,4.5,0
	c1.6,0.3,2.9,0.8,3.8,1.5c1,0.7,1.9,1.4,2.6,2.2c0.8,0.8,1.6,1.6,2.3,2.3c1,1,2.1,1.6,3.5,1.9c2,0.4,3.9,0.2,5.3-0.8
	c1.5-1,2.5-2.4,2.9-4.3c0.5-2.2,0.2-4.3-0.9-6.2c-0.9-1.8-2.3-3.4-4.1-4.8c-1.7-1.4-3.7-2.6-6-3.6c-5.8-2.6-12.1-3.5-17.6-2.6
	c-3.4,0.6-6.6,1.8-9.3,3.7c-2.8,1.8-5.2,4.2-7.1,7.1c-2,2.9-3.4,6.3-4.2,10c-0.7,3.5-0.9,7-0.5,10.3c0.4,3.4,1.5,6.6,3.2,9.4
	c1.7,2.8,4,5.3,6.9,7.4c2.9,2.1,6.4,3.5,10.4,4.4c2,0.4,4,0.7,5.9,0.7c1.5,0,2.9-0.1,4.3-0.4c3.2-0.6,6.1-1.8,8.7-3.5
	c2.5-1.7,4.7-4,6.4-6.6c1.7-2.6,3-5.7,3.7-9c0.5-2.3,0.3-4.1-0.6-5.4C158.9,61.6,156.6,61.1,154.8,60.8"/>
<path class="st1" d="M287.4,43.9c-1-1.6-2.7-2.6-5-3.2l-23.1-5.8c-2.3-0.6-4.3-0.4-6,0.5c-1.7,0.9-2.8,2.5-3.3,4.6
	c-0.5,2.1-0.3,3.9,0.8,5.5c1,1.6,2.7,2.7,5,3.3l4.2,1.1l-7.6,30.2c-0.6,2.4-0.4,4.5,0.7,6.2c1.1,1.6,2.6,2.7,4.7,3.2
	c0.7,0.2,1.4,0.3,2.1,0.3c1.3,0,2.5-0.3,3.6-0.9c1.8-1,3-2.7,3.6-5.1l7.6-30.2l4.2,1.1c0.9,0.2,1.8,0.3,2.6,0.3
	c1.3,0,2.4-0.3,3.4-0.8c1.7-0.9,2.8-2.5,3.3-4.5C288.6,47.4,288.4,45.5,287.4,43.9"/>
<path class="st1" d="M108.2,57l-8.8-21.5c-0.9-2.3-2.4-3.8-4.3-4.5c-1.8-0.7-3.7-0.6-5.7,0.2c-1.9,0.8-3.4,2.1-4.2,3.8
	c-0.9,1.8-0.8,3.9,0.1,6.2l8.7,21.4c0.5,1.2,0.7,2.4,0.7,3.4c0,1-0.3,2-0.7,2.8c-0.4,0.9-1.1,1.7-1.9,2.4c-1.6,1.4-3.9,2.4-6.1,2.5
	c-1,0.1-2-0.1-2.9-0.4c-0.9-0.3-1.7-0.8-2.5-1.5s-1.4-1.7-1.9-2.9l-8.7-21.4c-0.9-2.3-2.4-3.8-4.2-4.5c-1.8-0.6-3.7-0.6-5.7,0.2
	c-2,0.8-3.4,2.1-4.2,3.8c-0.9,1.8-0.8,3.9,0.1,6.2L65,74.6c1.3,3.1,3,5.8,5.1,7.9c2.1,2.1,4.5,3.7,7.2,4.7c2.3,0.9,4.8,1.3,7.5,1.3
	c0.4,0,0.7,0,1.1,0c3-0.1,6.1-0.8,9.1-2.1c3.1-1.3,5.8-2.9,8-4.9c2.2-2,4-4.3,5.2-6.9c1.2-2.6,1.8-5.4,1.9-8.4
	C110.1,63.2,109.5,60.1,108.2,57"/>
<path class="st24" d="M60.6,42.6c-0.9-1.7-2.4-2.9-4.4-3.6c-2-0.7-3.9-0.7-5.7,0c-1.9,0.7-3.2,2.3-4.1,4.7l-8,22.3
	c-0.9,2.7-1.3,4.3-2.4,5.5c-0.7,0.7-2,0.6-2.6,0.4c-0.7-0.2-3.5-1.4-2.1-4.7c0,0,5-10.5-3.4-12.6c0,0-6-2.4-9.2,4.9
	c0,0-8.8,20.6,10.2,26.4v0c0.2,0.1,0.4,0.2,0.6,0.2c2.7,1,5.1,1.4,7.2,1.4c0.5,0,1,0,1.5-0.1c2.5-0.3,4.6-1.1,6.4-2.3
	c1.7-1.2,3.2-2.8,4.3-4.7c1-1.8,1.9-3.6,2.5-5.4l9.4-26.1C61.6,46.5,61.6,44.4,60.6,42.6"/>
<path class="st1" d="M58.2,43.7c-0.9-1.7-2.4-2.9-4.4-3.6c-2-0.7-3.9-0.7-5.7,0c-1.9,0.7-3.2,2.3-4.1,4.7l-8,22.3
	c-0.9,2.7-1.3,4.3-2.4,5.5c-0.7,0.7-2,0.6-2.6,0.4c-0.7-0.2-3.5-1.4-2.1-4.7c0,0,5-10.5-3.4-12.6c0,0-6-2.4-9.2,4.9
	c0,0-8.8,20.6,10.2,26.4v0c0.2,0.1,0.4,0.2,0.6,0.2c2.7,1,5.1,1.4,7.2,1.4c0.5,0,1,0,1.5-0.1c2.5-0.3,4.6-1.1,6.4-2.3
	c1.7-1.2,3.2-2.8,4.3-4.7c1-1.8,1.9-3.6,2.5-5.4l9.4-26.1C59.2,47.6,59.1,45.5,58.2,43.7"/>
</svg>
