<?xml version="1.0" encoding="UTF-8"?><svg id="Capa_1" xmlns="http://www.w3.org/2000/svg" xmlns:xlink="http://www.w3.org/1999/xlink" viewBox="0 0 306.07 73.2"><defs><style>.cls-1{fill:url(#Degradado_sin_nombre_13);}.cls-1,.cls-2{opacity:.5;}.cls-1,.cls-2,.cls-3{isolation:isolate;}.cls-4{fill:#f4e84b;}.cls-5{fill:#fff;}.cls-6{fill:#ffe849;}.cls-7{fill:#d33737;}.cls-8{fill:#8a2834;}.cls-9{fill:#295137;}.cls-10{fill:#75a3d5;}.cls-11{fill:url(#Degradado_sin_nombre_6-2);}.cls-2{fill:url(#Degradado_sin_nombre_13-2);}.cls-3{fill:url(#Degradado_sin_nombre_2);opacity:.15;}.cls-12{fill:url(#Degradado_sin_nombre_10);}.cls-13{fill:url(#Degradado_sin_nombre_11);}.cls-14{fill:url(#Degradado_sin_nombre_12);}.cls-15{fill:url(#Degradado_sin_nombre_14);}.cls-16{fill:url(#Degradado_sin_nombre_16);}.cls-17{opacity:.4;}.cls-18{fill:url(#Degradado_sin_nombre_6);}.cls-19{fill:url(#Degradado_sin_nombre_7);}.cls-20{fill:url(#Degradado_sin_nombre_3);}.cls-21{fill:url(#Degradado_sin_nombre_8);}.cls-22{fill:url(#Degradado_sin_nombre_9);}.cls-23{fill:url(#Degradado_sin_nombre_5);}.cls-24{fill:url(#Degradado_sin_nombre_16-2);}</style><linearGradient id="Degradado_sin_nombre_12" x1="272.45" y1="739.38" x2="278.67" y2="708.78" gradientTransform="translate(0 -666)" gradientUnits="userSpaceOnUse"><stop offset=".14" stop-color="#8a2834"/><stop offset=".19" stop-color="#8a2834" stop-opacity=".79"/><stop offset=".27" stop-color="#8a2834" stop-opacity=".51"/><stop offset=".34" stop-color="#8a2834" stop-opacity=".29"/><stop offset=".42" stop-color="#8a2834" stop-opacity=".13"/><stop offset=".49" stop-color="#8a2834" stop-opacity=".03"/><stop offset=".55" stop-color="#8a2834" stop-opacity="0"/></linearGradient><linearGradient id="Degradado_sin_nombre_2" x1="284.51" y1="720.53" x2="272.25" y2="701.02" gradientTransform="translate(0 -666)" gradientUnits="userSpaceOnUse"><stop offset="0" stop-color="#5880b9"/><stop offset=".03" stop-color="#5880b9" stop-opacity=".84"/><stop offset=".07" stop-color="#5880b9" stop-opacity=".64"/><stop offset=".12" stop-color="#5880b9" stop-opacity=".47"/><stop offset=".18" stop-color="#5880b9" stop-opacity=".32"/><stop offset=".24" stop-color="#5880b9" stop-opacity=".2"/><stop offset=".31" stop-color="#5880b9" stop-opacity=".11"/><stop offset=".4" stop-color="#5880b9" stop-opacity=".05"/><stop offset=".53" stop-color="#5880b9" stop-opacity="0"/><stop offset=".88" stop-color="#5880b9" stop-opacity="0"/></linearGradient><linearGradient id="Degradado_sin_nombre_3" x1="293.75" y1="724.32" x2="291.86" y2="716.69" gradientTransform="translate(0 -666)" gradientUnits="userSpaceOnUse"><stop offset=".14" stop-color="#8a2834"/><stop offset=".2" stop-color="#8a2834" stop-opacity=".79"/><stop offset=".28" stop-color="#8a2834" stop-opacity=".51"/><stop offset=".37" stop-color="#8a2834" stop-opacity=".29"/><stop offset=".45" stop-color="#8a2834" stop-opacity=".13"/><stop offset=".53" stop-color="#8a2834" stop-opacity=".03"/><stop offset=".6" stop-color="#8a2834" stop-opacity="0"/></linearGradient><linearGradient id="Degradado_sin_nombre_6" x1="294.38" y1="735.43" x2="299.37" y2="726.56" gradientTransform="translate(0 -666)" gradientUnits="userSpaceOnUse"><stop offset=".14" stop-color="#8a2834"/><stop offset=".18" stop-color="#8a2834" stop-opacity=".79"/><stop offset=".23" stop-color="#8a2834" stop-opacity=".51"/><stop offset=".28" stop-color="#8a2834" stop-opacity=".29"/><stop offset=".34" stop-color="#8a2834" stop-opacity=".13"/><stop offset=".39" stop-color="#8a2834" stop-opacity=".03"/><stop offset=".43" stop-color="#8a2834" stop-opacity="0"/></linearGradient><linearGradient id="Degradado_sin_nombre_5" x1="274" y1="717.97" x2="274.79" y2="722.06" gradientTransform="translate(0 -666)" gradientUnits="userSpaceOnUse"><stop offset=".14" stop-color="#8a2834"/><stop offset=".17" stop-color="#8a2834" stop-opacity=".79"/><stop offset=".22" stop-color="#8a2834" stop-opacity=".51"/><stop offset=".27" stop-color="#8a2834" stop-opacity=".29"/><stop offset=".32" stop-color="#8a2834" stop-opacity=".13"/><stop offset=".37" stop-color="#8a2834" stop-opacity=".03"/><stop offset=".41" stop-color="#8a2834" stop-opacity="0"/></linearGradient><linearGradient id="Degradado_sin_nombre_6-2" x1="296.53" y1="725.36" x2="301.76" y2="724.06" xlink:href="#Degradado_sin_nombre_6"/><linearGradient id="Degradado_sin_nombre_7" x1="292.7" y1="721.32" x2="291.91" y2="716.36" gradientTransform="translate(0 -666)" gradientUnits="userSpaceOnUse"><stop offset=".26" stop-color="#8a2834"/><stop offset=".3" stop-color="#8a2834" stop-opacity=".79"/><stop offset=".36" stop-color="#8a2834" stop-opacity=".51"/><stop offset=".43" stop-color="#8a2834" stop-opacity=".29"/><stop offset=".49" stop-color="#8a2834" stop-opacity=".13"/><stop offset=".55" stop-color="#8a2834" stop-opacity=".03"/><stop offset=".6" stop-color="#8a2834" stop-opacity="0"/></linearGradient><linearGradient id="Degradado_sin_nombre_8" x1="274.06" y1="720.36" x2="270.77" y2="703.34" gradientTransform="translate(0 -666)" gradientUnits="userSpaceOnUse"><stop offset=".14" stop-color="#efd548"/><stop offset=".15" stop-color="#efd548" stop-opacity=".9"/><stop offset=".18" stop-color="#efd548" stop-opacity=".66"/><stop offset=".21" stop-color="#efd548" stop-opacity=".46"/><stop offset=".24" stop-color="#efd548" stop-opacity=".29"/><stop offset=".27" stop-color="#efd548" stop-opacity=".17"/><stop offset=".3" stop-color="#efd548" stop-opacity=".07"/><stop offset=".33" stop-color="#efd548" stop-opacity=".02"/><stop offset=".35" stop-color="#efd548" stop-opacity="0"/></linearGradient><linearGradient id="Degradado_sin_nombre_9" x1="297.63" y1="734.93" x2="296.08" y2="730.86" gradientTransform="translate(0 -666)" gradientUnits="userSpaceOnUse"><stop offset=".36" stop-color="#8a2834"/><stop offset=".39" stop-color="#8a2834" stop-opacity=".79"/><stop offset=".43" stop-color="#8a2834" stop-opacity=".51"/><stop offset=".48" stop-color="#8a2834" stop-opacity=".29"/><stop offset=".52" stop-color="#8a2834" stop-opacity=".13"/><stop offset=".56" stop-color="#8a2834" stop-opacity=".03"/><stop offset=".6" stop-color="#8a2834" stop-opacity="0"/></linearGradient><linearGradient id="Degradado_sin_nombre_10" x1="283.91" y1="731.27" x2="302.43" y2="720.01" gradientTransform="translate(0 -666)" gradientUnits="userSpaceOnUse"><stop offset=".06" stop-color="#8a2834"/><stop offset=".1" stop-color="#8a2834" stop-opacity=".79"/><stop offset=".17" stop-color="#8a2834" stop-opacity=".51"/><stop offset=".24" stop-color="#8a2834" stop-opacity=".29"/><stop offset=".31" stop-color="#8a2834" stop-opacity=".13"/><stop offset=".37" stop-color="#8a2834" stop-opacity=".03"/><stop offset=".43" stop-color="#8a2834" stop-opacity="0"/></linearGradient><linearGradient id="Degradado_sin_nombre_11" x1="292.05" y1="732.96" x2="291.06" y2="726.47" gradientTransform="translate(0 -666)" gradientUnits="userSpaceOnUse"><stop offset=".29" stop-color="#8a2834"/><stop offset=".32" stop-color="#8a2834" stop-opacity=".79"/><stop offset=".37" stop-color="#8a2834" stop-opacity=".51"/><stop offset=".42" stop-color="#8a2834" stop-opacity=".29"/><stop offset=".47" stop-color="#8a2834" stop-opacity=".13"/><stop offset=".51" stop-color="#8a2834" stop-opacity=".03"/><stop offset=".55" stop-color="#8a2834" stop-opacity="0"/></linearGradient><linearGradient id="Degradado_sin_nombre_13" x1="278.78" y1="738.18" x2="273.59" y2="729.84" gradientTransform="translate(0 -666)" gradientUnits="userSpaceOnUse"><stop offset=".35" stop-color="#e2b945"/><stop offset=".36" stop-color="#e2b945" stop-opacity=".94"/><stop offset=".44" stop-color="#e2b945" stop-opacity=".7"/><stop offset=".51" stop-color="#e2b945" stop-opacity=".48"/><stop offset=".58" stop-color="#e2b945" stop-opacity=".31"/><stop offset=".65" stop-color="#e2b945" stop-opacity=".17"/><stop offset=".71" stop-color="#e2b945" stop-opacity=".08"/><stop offset=".78" stop-color="#e2b945" stop-opacity=".02"/><stop offset=".84" stop-color="#e2b945" stop-opacity="0"/></linearGradient><linearGradient id="Degradado_sin_nombre_13-2" x1="291.09" y1="735.87" x2="287.36" y2="729.88" xlink:href="#Degradado_sin_nombre_13"/><linearGradient id="Degradado_sin_nombre_14" x1="282.5" y1="729.74" x2="283.04" y2="734.6" gradientTransform="translate(0 -666)" gradientUnits="userSpaceOnUse"><stop offset=".14" stop-color="#8a2834" stop-opacity="0"/><stop offset=".62" stop-color="#8a2834" stop-opacity="0"/><stop offset=".65" stop-color="#8a2834" stop-opacity=".03"/><stop offset=".69" stop-color="#8a2834" stop-opacity=".13"/><stop offset=".73" stop-color="#8a2834" stop-opacity=".29"/><stop offset=".76" stop-color="#8a2834" stop-opacity=".51"/><stop offset=".8" stop-color="#8a2834" stop-opacity=".79"/><stop offset=".83" stop-color="#8a2834"/></linearGradient><linearGradient id="Degradado_sin_nombre_16" x1="274.78" y1="732.9" x2="277.49" y2="734.93" gradientTransform="translate(0 -666)" gradientUnits="userSpaceOnUse"><stop offset=".14" stop-color="#8a2834" stop-opacity="0"/><stop offset=".45" stop-color="#8a2834" stop-opacity="0"/><stop offset=".49" stop-color="#8a2834" stop-opacity=".03"/><stop offset=".53" stop-color="#8a2834" stop-opacity=".13"/><stop offset=".58" stop-color="#8a2834" stop-opacity=".29"/><stop offset=".63" stop-color="#8a2834" stop-opacity=".51"/><stop offset=".68" stop-color="#8a2834" stop-opacity=".79"/><stop offset=".71" stop-color="#8a2834"/></linearGradient><linearGradient id="Degradado_sin_nombre_16-2" x1="288.24" y1="731.53" x2="290.18" y2="733.8" xlink:href="#Degradado_sin_nombre_16"/></defs><path class="cls-5" d="m122.77,19.78c-.54.52-1.28,1.04-2.22,1.57-.94.53-2.02.97-3.23,1.33-1.21.36-2.5.54-3.86.54-1.71,0-3.29-.28-4.75-.83s-2.74-1.33-3.84-2.35-1.96-2.24-2.58-3.68c-.62-1.44-.93-3.04-.93-4.82,0-1.66.32-3.2.97-4.61.65-1.41,1.54-2.63,2.68-3.67,1.13-1.04,2.44-1.84,3.91-2.42,1.47-.57,3.03-.86,4.67-.86,1.36,0,2.65.19,3.88.57s2.31.86,3.28,1.44,1.73,1.2,2.32,1.85l-2.2,2.73c-1.02-.91-2.14-1.65-3.36-2.24-1.22-.58-2.59-.87-4.1-.87-1.06,0-2.1.18-3.11.55-1.02.37-1.93.9-2.73,1.61s-1.44,1.55-1.91,2.55c-.48,1-.71,2.12-.71,3.37,0,1.82.42,3.34,1.26,4.56.84,1.22,1.94,2.13,3.29,2.74s2.81.91,4.36.91c1.1,0,2.1-.15,2.98-.44.89-.29,1.68-.66,2.38-1.1.7-.44,1.31-.88,1.83-1.31l1.72,2.89h0Z"/><path class="cls-5" d="m147.22,19.52v3.37h-16.67V.19h3.5v19.33h13.17Z"/><path class="cls-5" d="m175.22.16v12.81c0,1.95-.44,3.68-1.31,5.21-.87,1.53-2.09,2.73-3.65,3.6-1.56.87-3.37,1.31-5.45,1.31s-3.87-.44-5.43-1.31c-1.57-.87-2.79-2.08-3.67-3.6-.87-1.52-1.31-3.26-1.31-5.21V.16h3.5v12.62c0,1.34.31,2.54.94,3.58.63,1.05,1.47,1.87,2.51,2.45,1.05.58,2.2.87,3.45.87,1.34,0,2.54-.29,3.6-.87,1.06-.58,1.9-1.4,2.53-2.45.63-1.05.94-2.24.94-3.58V.16h3.34Z"/><path class="cls-5" d="m195.36.19c2.57,0,4.52.49,5.82,1.46s1.96,2.39,1.96,4.25c0,1.02-.28,1.93-.83,2.74-.55.81-1.36,1.43-2.42,1.87.78.26,1.51.63,2.19,1.1s1.23,1.09,1.64,1.85c.41.76.62,1.68.62,2.76,0,1.32-.25,2.41-.75,3.28s-1.15,1.55-1.96,2.04c-.81.5-1.71.85-2.69,1.05-.98.21-1.97.31-2.97.31h-11.71V.19h11.09,0Zm-.1,3.37h-7.49v5.94h7.88c1.04-.02,1.95-.29,2.74-.81.79-.52,1.18-1.25,1.18-2.2,0-1.06-.42-1.81-1.25-2.25s-1.85-.67-3.06-.67h0Zm.55,9.31h-8.04v6.65h8.21c1.41,0,2.56-.28,3.45-.83.9-.55,1.35-1.4,1.35-2.55,0-.84-.25-1.5-.76-1.98s-1.15-.81-1.91-1.01c-.77-.2-1.53-.29-2.29-.29Z"/><path class="cls-5" d="m143.23,39.8c-.57-1.01-1.53-1.72-2.86-2.13l-10.09-3.08c-1.14-.35-2.3-.28-3.39.2-1.17.51-1.98,1.48-2.41,2.89l-4.12,13.5.2.84c.49,2.02.59,3.96.3,5.76-.3,1.81-.94,3.47-1.91,4.92-.27.4-.57.78-.88,1.16.64.99,1.54,1.66,2.66,2l10.34,3.16c.58.18,1.14.27,1.67.27.68,0,1.32-.15,1.9-.43,1.06-.53,1.78-1.43,2.16-2.67.39-1.27.29-2.44-.3-3.46-.57-.99-1.54-1.69-2.86-2.1l-5.89-1.8,1.05-3.44,5.08,1.55c1.32.4,2.52.35,3.55-.14,1.06-.52,1.79-1.42,2.18-2.7.39-1.27.29-2.44-.3-3.46-.57-.99-1.54-1.69-2.86-2.1l-5.08-1.55.8-2.63,5.65,1.72c1.32.4,2.53.35,3.54-.14,1.06-.52,1.79-1.42,2.18-2.7.38-1.24.28-2.4-.3-3.43h0Z"/><path class="cls-5" d="m119.04,51.95l-3.37-13.88c-.36-1.49-1.09-2.54-2.17-3.12-1.03-.56-2.22-.7-3.46-.39-1.26.3-2.23.95-2.9,1.93-.69,1.01-.86,2.28-.5,3.76l3.34,13.76c.19.78.23,1.5.12,2.12-.11.61-.34,1.17-.68,1.65-.35.5-.8.93-1.34,1.27-1.11.71-2.6,1.07-3.91.95-.63-.06-1.22-.23-1.74-.51-.52-.27-.97-.67-1.36-1.17-.38-.5-.68-1.15-.87-1.94l-3.34-13.76c-.36-1.48-1.09-2.52-2.17-3.11-1.03-.55-2.21-.69-3.46-.38-.92.22-1.69.63-2.3,1.22.76.72,1.37,1.51,1.82,2.35.64,1.21.82,2.49.53,3.82-.25,1.16-.85,2.04-1.79,2.63-.18.11-.36.2-.55.28l.65,2.65c.5.24.96.57,1.29,1.08.54.82.65,1.91.34,3.33-.08.38-.18.76-.29,1.13l.26,1.09c.49,2.02,1.29,3.79,2.38,5.26,1.09,1.47,2.42,2.65,3.93,3.5,1.33.75,2.82,1.25,4.43,1.49.21.03.43.06.65.08,1.84.19,3.77.05,5.74-.43,2-.49,3.79-1.24,5.32-2.26,1.55-1.02,2.82-2.28,3.78-3.72.97-1.46,1.61-3.11,1.91-4.92.29-1.8.2-3.74-.3-5.76h0Z"/><path class="cls-5" d="m256.19,40.21c-.64-1.01-1.6-1.69-2.85-2.03-1.25-.34-2.44-.23-3.48.32-1.09.57-1.85,1.61-2.25,3.1l-2.84,10.49-6.04-13.61c-.36-.86-.68-1.58-.96-2.15-.29-.61-.59-1.13-.88-1.54-.34-.48-.73-.86-1.15-1.14-.41-.27-.89-.48-1.45-.63-1.25-.34-2.44-.23-3.48.32-1.09.57-1.85,1.61-2.25,3.1l-2.97,11c.49,1.68.75,3.52.75,5.48,0,2.44-.38,4.69-1.14,6.68-.49,1.28-1.11,2.45-1.87,3.5.61.71,1.43,1.21,2.44,1.49,1.24.34,2.43.23,3.48-.32,1.09-.57,1.85-1.61,2.25-3.1l2.84-10.49,6.05,13.63c.37.83.68,1.53.95,2.09.28.62.58,1.15.89,1.58.34.48.73.86,1.15,1.14.4.27.89.48,1.45.63.47.13.94.19,1.39.19.74,0,1.44-.17,2.1-.51,1.09-.57,1.85-1.61,2.25-3.1l6.03-22.3c.4-1.49.27-2.77-.38-3.82h0Z"/><path class="cls-5" d="m223.66,46.19c-.77-2.01-1.87-3.75-3.29-5.18s-3.14-2.55-5.11-3.33c-1.96-.77-4.16-1.16-6.55-1.16s-4.58.39-6.54,1.16c-1.98.78-3.7,1.9-5.12,3.33-1.42,1.43-2.52,3.18-3.29,5.18-.76,1.99-1.14,4.23-1.14,6.68,0,.89.05,1.75.15,2.58l1.54.85c.7.37,1.27.78,1.72,1.21.51.49.88,1.1,1.11,1.82.12.36.17.78.17,1.28,0,.53-.12,1.07-.35,1.61-.2.49-.52.96-.92,1.39.31.4.65.77,1.01,1.13,1.42,1.43,3.13,2.55,5.12,3.33,1.96.77,4.17,1.16,6.54,1.16s4.58-.39,6.55-1.16c1.98-.78,3.7-1.9,5.11-3.33,1.42-1.43,2.52-3.17,3.29-5.18.76-1.99,1.14-4.23,1.14-6.68s-.38-4.69-1.14-6.68h0Zm-9.05,9.6c-.24.91-.62,1.72-1.13,2.41-.48.66-1.13,1.21-1.91,1.62-.77.41-1.74.61-2.87.61s-2.09-.21-2.87-.61c-.78-.41-1.42-.96-1.91-1.62-.51-.69-.89-1.5-1.13-2.41-.25-.95-.38-1.93-.38-2.93s.13-1.98.38-2.93c.24-.9.62-1.71,1.13-2.41.49-.66,1.13-1.21,1.91-1.62.77-.41,1.73-.61,2.86-.61s2.09.21,2.87.61c.78.41,1.42.96,1.91,1.62.51.69.88,1.5,1.13,2.41.25.95.38,1.93.38,2.93s-.13,1.98-.38,2.93h0Z"/><path class="cls-5" d="m195.59,59.83c-.23-.72-.6-1.33-1.11-1.82-.44-.42-1.02-.83-1.72-1.21l-5.9-3.25c1.29-1.03,2.24-2.29,2.84-3.77.84-2.09.88-4.36.12-6.76-.48-1.5-1.18-2.8-2.09-3.86-.92-1.07-2.01-1.91-3.25-2.5-1.23-.58-2.61-.91-4.09-.97-1.46-.06-3.01.17-4.59.68l-7.9,2.53c-.4.13-.78.3-1.12.52,1.06.38,1.85.97,2.36,1.76.64.99.8,2.14.48,3.44-.32,1.26-1,2.2-2.02,2.78-.5.28-1.07.45-1.69.5l6.07,18.97c.47,1.48,1.28,2.49,2.4,3.02.61.28,1.25.43,1.91.43.52,0,1.05-.09,1.59-.26,1.24-.39,2.17-1.13,2.76-2.18.6-1.08.67-2.38.19-3.86l-1.61-5.05,8.55,5.69c.66.44,1.31.76,1.91.95.29.09.61.13.95.13.53,0,1.12-.11,1.81-.32.81-.26,1.47-.64,1.96-1.14.47-.47.82-.99,1.05-1.53.23-.54.34-1.08.35-1.61,0-.5-.05-.92-.17-1.28h0Zm-14.62-12.02c-.24.51-.71.85-1.48,1.1l-3.19,1.02-1.3-4.08,3.2-1.02c.68-.22,1.25-.21,1.83.03.5.21.82.6,1.03,1.24.2.63.18,1.18-.07,1.71h0Z"/><path class="cls-5" d="m86.25,52.22l-7.72-1.66c-1.51-.32-2.7-.16-3.58.48-1.56,1.14-1.65,4.01-.88,5.14.65.96,1.67,1.59,3.03,1.89l2.39.52c-.39.58-.91,1.02-1.56,1.35-1.07.54-2.39.66-3.87.33-1.11-.24-2.02-.65-2.7-1.21-.69-.57-1.22-1.25-1.58-2.03-.37-.8-.59-1.68-.65-2.62-.06-.98.01-1.95.21-2.89.23-1.08.61-2.06,1.11-2.91.49-.83,1.09-1.52,1.79-2.05.69-.52,1.48-.88,2.34-1.08.86-.19,1.81-.18,2.79.03.97.21,1.75.52,2.31.91.63.43,1.17.89,1.61,1.34.51.52.98,1,1.41,1.43.59.59,1.32.98,2.15,1.16,1.25.27,2.37.11,3.28-.47.94-.59,1.54-1.47,1.79-2.63.29-1.33.11-2.62-.53-3.82-.58-1.09-1.43-2.08-2.52-2.96-1.04-.83-2.28-1.57-3.67-2.2-3.56-1.59-7.43-2.16-10.78-1.57-2.09.37-4.02,1.13-5.73,2.25-1.7,1.12-3.17,2.59-4.38,4.37-1.21,1.78-2.07,3.84-2.56,6.13-.46,2.14-.56,4.28-.3,6.35.27,2.1.93,4.04,1.97,5.79,1.04,1.74,2.46,3.27,4.22,4.53,1.76,1.26,3.91,2.17,6.39,2.71,1.24.27,2.46.4,3.64.4.9,0,1.78-.08,2.63-.24,1.97-.37,3.76-1.09,5.32-2.16,1.55-1.06,2.88-2.43,3.96-4.05,1.07-1.63,1.84-3.49,2.28-5.55.31-1.43.2-2.52-.34-3.33-.76-1.15-2.16-1.43-3.28-1.66h0Z"/><path class="cls-5" d="m167.62,41.83c-.62-.96-1.66-1.63-3.09-1.98l-14.2-3.57c-1.42-.36-2.66-.26-3.66.29-1.03.57-1.72,1.51-2.04,2.81-.32,1.26-.16,2.41.47,3.4.62.98,1.66,1.66,3.09,2.02l2.59.65-4.65,18.52c-.38,1.5-.23,2.79.44,3.82.65,1,1.62,1.67,2.89,1.99.44.11.88.17,1.3.17.77,0,1.51-.19,2.18-.56,1.08-.59,1.82-1.65,2.2-3.15l4.65-18.52,2.59.65c.55.14,1.08.21,1.57.21.78,0,1.49-.18,2.11-.53,1.03-.58,1.71-1.52,2.02-2.78.32-1.29.17-2.45-.48-3.44h0Z"/><path class="cls-5" d="m57.65,49.85l-5.39-13.22c-.58-1.42-1.46-2.35-2.61-2.77-1.1-.4-2.3-.36-3.48.13-1.2.49-2.07,1.27-2.58,2.33-.54,1.11-.52,2.38.06,3.79l5.35,13.12c.3.75.45,1.45.43,2.08-.02.62-.16,1.21-.43,1.73-.28.55-.66,1.04-1.14,1.46-.99.86-2.42,1.45-3.73,1.52-.63.04-1.24-.05-1.8-.25-.55-.19-1.06-.51-1.51-.95-.46-.44-.84-1.04-1.15-1.79l-5.35-13.12c-.58-1.41-1.45-2.34-2.61-2.75-1.01-.36-2.1-.35-3.19.03.51,1.06.52,2.29.03,3.67l-1.82,5.07,4.38,10.75c.79,1.93,1.84,3.55,3.13,4.84,1.3,1.29,2.78,2.27,4.4,2.88,1.43.54,2.97.82,4.6.82.22,0,.43,0,.66-.02,1.85-.08,3.73-.51,5.61-1.28,1.91-.78,3.56-1.79,4.93-3.02,1.38-1.24,2.45-2.67,3.19-4.24.74-1.58,1.13-3.32,1.15-5.15.03-1.83-.36-3.73-1.15-5.66h0Z"/><path class="cls-5" d="m26.94,41.71c-.56-1.05-1.46-1.8-2.68-2.23-1.21-.43-2.4-.43-3.48.02-1.14.46-1.97,1.43-2.49,2.86l-4.91,13.71c-.54,1.64-.81,2.64-1.5,3.35-.42.43-1.21.35-1.62.23-.41-.12-2.12-.86-1.28-2.9,0,0,3.08-6.44-2.12-7.72,0,0-3.71-1.5-5.62,3,0,0-5.41,12.65,6.25,16.19v-.02c.12.05.24.1.35.14,1.64.59,3.13.88,4.43.88h0c.31,0,.61-.02.9-.05,1.52-.18,2.84-.66,3.93-1.44,1.07-.76,1.95-1.73,2.62-2.89.62-1.07,1.15-2.19,1.55-3.32l5.74-16.01c.52-1.44.49-2.72-.09-3.81h0Z"/><path class="cls-9" d="m301.08,39.84h.26l.28.02c.19.01.34.04.43.08.17.06.29.18.35.35.04.1.07.29.08.59.01.29.03.51.07.66h1.2l-.05-.14s-.03-.09-.03-.14-.01-.1-.01-.14v-.42c0-.49-.14-.85-.43-1.07-.15-.12-.38-.21-.68-.28.33-.03.61-.14.84-.32.23-.18.34-.47.34-.87,0-.53-.22-.9-.65-1.14-.25-.14-.57-.22-.94-.25h-2.34v4.77h1.26v-1.7h0Zm1.18-1.03c-.16.11-.4.17-.69.17h-.5v-1.38h.31c.32,0,.56.03.74.1.25.1.38.29.38.54s-.08.46-.24.58m2.53-2.72c-.84-.85-1.87-1.27-3.07-1.27s-2.13.4-2.98,1.17c-.9.84-1.35,1.88-1.35,3.14s.41,2.24,1.25,3.06c.84.83,1.86,1.25,3.08,1.25s2.2-.41,3.05-1.21c.87-.84,1.3-1.87,1.3-3.1s-.43-2.2-1.27-3.04m-.53.55c.69.71,1.04,1.54,1.04,2.49s-.35,1.84-1.05,2.54c-.7.7-1.54,1.05-2.53,1.05s-1.84-.35-2.53-1.04c-.7-.7-1.06-1.55-1.06-2.55s.35-1.79,1.04-2.49c.7-.72,1.55-1.08,2.55-1.08s1.84.35,2.54,1.08"/><path class="cls-5" d="m277.8,57.9c0,1.73-.6,4.55-2.22,4.55s-3.64-2.82-3.64-4.55,1.31-3.14,2.93-3.14,2.93,1.41,2.93,3.14h0Z"/><path class="cls-8" d="m272.94,62.45l-.77-1.82c-.21-1.25-.55-3.37-.55-3.58,0-1.57,1.38-2.85,3.07-2.85,1.33,0,2.5.79,2.92,1.96l1.39,5.19-6.05,1.09h0Zm1.74-7.43c-1.24,0-2.25.91-2.25,2.03.01.17.28,1.81.47,3.03l4.43-.8-.52-2.91c-.29-.78-1.15-1.36-2.13-1.36h0Z"/><path class="cls-7" d="m285.38,66.38l-2-15.67-18.52,3.51,2.44,15.63,3.68-.76c-.08-.38-.14-.78-.14-1.19,0-.99.28-1.91.75-2.7.12-.23.28-.45.46-.66l.02-.02c.05-.05.1-.11.15-.16.97-1.07,2.37-1.75,3.92-1.75,2.58,0,4.72,1.85,5.19,4.29.02.07.05.14.07.22l3.99-.75m-13.25-6.15s-.51-3.11-.51-3.29c0-1.27,1.12-2.29,2.5-2.29,1.12,0,2.05.67,2.38,1.59l.56,3.11-4.92.88h0Z"/><path class="cls-14" d="m285.38,66.32l-2-15.67-18.52,3.51,2.44,15.63,3.68-.76c-.08-.38-.14-.78-.14-1.19,0-.99.28-1.91.75-2.7.12-.23.28-.45.46-.66l.02-.02c.05-.05.1-.11.15-.16.97-1.07,2.37-1.75,3.92-1.75,2.58,0,4.72,1.85,5.19,4.29.02.07.05.14.07.22l3.99-.75m-13.25-6.09s-.51-3.11-.51-3.3c0-1.27,1.12-2.29,2.5-2.29,1.12,0,2.05.67,2.38,1.59l.56,3.11-4.92.89h0Z"/><path class="cls-5" d="m294.01,50.62c1.28-1.29.03-2.52.03-2.52,1.66-2.37-.91-4.15-.91-4.15,2.35-4.41-2.66-4.46-2.66-4.46.75-5.28-5.65-3.77-5.65-3.77-.85-2.58-5.34-1.08-5.34-1.08-1.59-3.72-5.96-.81-5.96-.81-6.12-1.99-7.35,2.85-7.35,2.85-3.79,1.56-2.66,4.9-2.66,4.9-3.68,3.23-.59,6.42-.59,6.42l21.06-1.47c1.67,1.94,3.46.5,3.46.5,0,1.02,1.28,1.08,1.28,1.08-.53,2.22,1.26,3.3,1.26,3.3l4.03-.8h0Z"/><path class="cls-3" d="m294.02,50.65c1.28-1.29.02-2.55.02-2.55,1.66-2.37-.91-4.15-.91-4.15,2.35-4.41-2.66-4.46-2.66-4.46.75-5.28-5.65-3.77-5.65-3.77-.85-2.58-5.34-1.08-5.34-1.08-1.59-3.72-5.96-.81-5.96-.81-6.12-1.99-7.35,2.85-7.35,2.85-3.79,1.56-2.66,4.9-2.66,4.9-3.68,3.23-.59,6.42-.59,6.42l21.06-1.47c1.67,1.94,3.46.5,3.46.5,0,1.02,1.28,1.08,1.28,1.08-.53,2.22,1.27,3.34,1.27,3.34l4.03-.81h0Z"/><polygon class="cls-7" points="301.52 66.48 300.21 66.44 293.94 67.67 295.02 69.92 302.08 68.64 301.52 66.48"/><polygon class="cls-7" points="294.18 53.73 290.77 54.31 291.31 56.68 294.7 56.13 294.18 53.73"/><polygon class="cls-20" points="295.35 52.26 295.13 50.43 294.39 50.43 288.9 51.52 289.17 53.34 290.77 54.31 291.31 56.68 294.7 56.13 294.18 53.88 295.35 52.26"/><polygon class="cls-7" points="297.49 64.11 292.35 64.64 293.12 65.94 293.95 67.67 300.22 66.44 297.49 64.11"/><polygon class="cls-18" points="297.49 64.11 292.64 65.13 293.12 65.94 293.95 67.67 300.22 66.44 297.49 64.11"/><polygon class="cls-23" points="264.86 54.22 265.06 55.51 283.57 52.16 283.38 50.71 264.86 54.22"/><path class="cls-7" d="m298.88,58.63c-.24-1.13-.95-1.73-.95-1.73l-1.36.21,1.12,4.19,1.28-.43s.17-1.01-.1-2.25h0Z"/><path class="cls-11" d="m298.88,58.63c-.24-1.13-.95-1.73-.95-1.73l-1.36.21,1.12,4.19,1.28-.43s.17-1.01-.1-2.25h0Z"/><polygon class="cls-7" points="295.13 50.43 294.39 50.43 288.9 51.52 289.17 53.34 290.77 54.31 294.18 53.73 295.35 52.26 295.13 50.43"/><polygon class="cls-19" points="295.13 50.43 294.39 50.43 288.9 51.52 289.17 53.34 290.77 54.31 294.18 53.73 295.35 52.26 295.13 50.43"/><polygon class="cls-4" points="261.46 48.27 283.49 44.08 283.64 50.75 264.01 54.42 261.46 48.27"/><polygon class="cls-21" points="261.46 48.27 283.49 44.08 283.64 50.75 264.01 54.42 261.46 48.27"/><g class="cls-17"><path class="cls-10" d="m271,44.36c.29.1.57.17.86.21.29.05.58.05.86.03.28-.02.57-.06.83-.14.27-.06.52-.19.77-.3l.39-.21.35-.22c.24-.16.47-.32.68-.5s.41-.38.59-.58c.08-.11.17-.21.24-.32.07-.11.15-.24.17-.32l.11-.25.26.02c.15.01.35.03.53.02.19,0,.37-.02.55-.04.37-.05.72-.13,1.06-.26.17-.06.34-.14.5-.23.15-.1.33-.19.47-.31.16-.11.29-.24.43-.38s.25-.29.39-.44c-.08.17-.15.37-.26.54-.11.17-.22.34-.35.49-.26.32-.6.57-.96.77-.37.19-.76.34-1.17.42-.2.04-.41.07-.61.09-.21.02-.41.03-.64,0l.37-.23c-.07.2-.15.33-.24.47-.08.14-.19.27-.29.4-.2.25-.44.47-.69.67-.24.2-.51.38-.78.53l-.42.22-.42.19c-.6.24-1.25.35-1.87.27-.62-.07-1.23-.29-1.72-.65h-.01v.02Z"/><path class="cls-10" d="m263.75,45.46c-.28-.52-.35-1.15-.21-1.77.03-.16.1-.31.16-.45.08-.14.15-.29.25-.41.1-.13.21-.24.33-.35.12-.11.25-.2.39-.29l-.08.54c-.12-.15-.2-.28-.27-.43-.07-.15-.13-.31-.16-.46-.04-.16-.05-.33-.06-.5,0-.17.03-.33.08-.49.05-.15.11-.31.2-.44.08-.14.18-.25.29-.37.21-.22.47-.38.74-.5-.17.24-.34.46-.46.7-.06.12-.12.24-.15.36-.02.06-.04.12-.05.18s-.03.12-.03.18c-.01.12,0,.24,0,.35.02.12.04.23.08.34.04.11.09.22.15.33.05.1.13.21.19.28l.23.28-.32.26c-.1.08-.21.14-.3.21-.1.08-.19.16-.26.25-.16.17-.3.38-.4.61-.21.46-.31,1-.34,1.58h-.02Z"/><path class="cls-10" d="m285.96,45.42s.14.15.4.24c.12.06.28.07.43.09s.34,0,.51-.02c.35-.05.72-.14,1-.2.28-.07.47-.11.47-.11,0,0-.04.03-.1.09-.07.05-.16.14-.29.21-.13.06-.28.17-.46.23-.17.07-.37.12-.58.15-.2.02-.41.02-.61-.03-.19-.05-.36-.14-.49-.23-.25-.2-.29-.41-.29-.41h0Z"/><path class="cls-10" d="m287.57,45.93s.12.19.35.38c.23.19.59.34.97.37.19.03.39.02.58,0,.19-.01.37-.04.52-.06.31-.06.52-.08.52-.08,0,0-.04.03-.12.08-.08.05-.19.13-.34.19-.15.06-.33.15-.53.18-.2.05-.43.07-.66.05s-.46-.09-.65-.2c-.2-.11-.33-.26-.43-.4-.2-.28-.21-.51-.21-.51h0Z"/><path class="cls-10" d="m286.43,41.12s.11.01.27.01.41,0,.67-.06c.13-.03.27-.07.41-.12.14-.05.3-.13.4-.19.07-.05.16-.1.23-.15l.17-.15c.12-.11.24-.23.33-.37.41-.54.61-1.23.58-1.75-.01-.26-.09-.48-.15-.64-.07-.15-.12-.24-.12-.24,0,0,.08.05.23.16.13.12.32.32.43.63.06.15.11.33.12.51.02.19.02.39-.02.59-.03.2-.08.41-.17.6-.08.2-.2.39-.32.57-.13.17-.29.33-.46.47-.08.07-.19.14-.29.2-.1.05-.17.08-.25.12-.23.1-.4.13-.59.15-.19.03-.36.02-.52,0-.32-.03-.57-.13-.72-.21-.16-.08-.24-.15-.24-.15h0,0Z"/><path class="cls-10" d="m268.54,36.34s.02-.11.11-.28c.1-.17.24-.41.48-.65.24-.24.57-.47.96-.65.2-.08.4-.17.62-.21.22-.06.43-.08.67-.12.41-.04.91-.03,1.31.05.42.07.79.21,1.09.36.3.15.51.33.66.46.14.13.2.22.2.22,0,0-.38-.23-.98-.4-.3-.08-.66-.15-1.04-.18-.19-.02-.39-.02-.59-.02-.19,0-.4.02-.62.04-.39.04-.8.12-1.15.24-.36.12-.68.28-.94.44-.52.33-.79.69-.79.69h.01Z"/><path class="cls-10" d="m273.48,34.9s.17-.25.55-.5c.37-.26.95-.49,1.57-.52.31-.02.61,0,.9.06s.53.14.74.24c.21.08.35.21.47.28.11.07.16.12.16.12,0,0-.07,0-.2-.03-.12-.03-.31-.05-.51-.07-.42-.06-.96-.11-1.5-.06-.27.01-.54.06-.79.1-.25.05-.49.11-.69.16-.41.11-.68.23-.68.23h-.01Z"/></g><polygon class="cls-22" points="297.49 64.11 292.64 65.13 293.12 65.94 293.95 67.67 300.22 66.44 297.49 64.11"/><path class="cls-5" d="m262.75,48.94l.83-.23c.53-.14,1.29-.35,2.2-.57s1.98-.48,3.12-.73c1.14-.25,2.37-.5,3.6-.75,1.23-.23,2.46-.47,3.62-.67,1.15-.21,2.24-.35,3.17-.51.93-.15,1.71-.23,2.25-.31.55-.06.86-.1.86-.1,0,0-.3.08-.83.23-.53.14-1.29.35-2.2.57s-1.98.49-3.12.73c-1.14.25-2.37.5-3.6.75-1.23.23-2.46.47-3.62.67-1.15.2-2.24.35-3.17.51-.93.15-1.71.23-2.25.31-.55.06-.86.1-.86.1Z"/><path class="cls-7" d="m296.26,55.88l-4.95.79-7.01,1.27,1.08,8.44c.21-1.92,1.82-3.42,3.8-3.42,1.32,0,2.77,1.16,3.46,2.17l4.85-1.02s.52-1.51,0-4.59c-.29-1.71-1.22-3.63-1.22-3.63h0Z"/><path class="cls-12" d="m296.26,55.88l-4.95.79-7.01,1.27,1.08,8.44c.21-1.92,1.82-3.42,3.8-3.42,1.32,0,2.77,1.16,3.46,2.17l4.85-1.02s.52-1.51,0-4.59c-.29-1.71-1.22-3.63-1.22-3.63h0Z"/><path class="cls-13" d="m296.26,55.88l-4.95.79-7.01,1.27,1.08,8.44c.21-1.92,1.82-3.42,3.8-3.42,1.32,0,2.77,1.16,3.46,2.17l4.85-1.02s.52-1.51,0-4.59c-.29-1.71-1.22-3.63-1.22-3.63h0Z"/><circle class="cls-6" cx="276.13" cy="67.91" r="5.29"/><circle class="cls-1" cx="276.13" cy="67.91" r="4.91"/><circle class="cls-6" cx="289.18" cy="66.8" r="3.85"/><circle class="cls-2" cx="289.18" cy="66.8" r="3.53"/><path class="cls-5" d="m285.8,67.12s-.02-.1-.04-.26c-.02-.16-.03-.41,0-.7.03-.29.13-.62.28-.96.09-.16.17-.34.29-.49.11-.16.24-.31.38-.46.15-.13.29-.26.46-.38.15-.12.33-.2.49-.29.34-.15.67-.25.96-.28.29-.04.53-.02.7,0,.16.02.26.04.26.04,0,0-.1.03-.25.06-.16.03-.38.11-.63.2-.13.05-.26.11-.4.17-.14.06-.27.15-.42.23-.28.18-.55.39-.79.64-.24.24-.45.52-.64.79-.07.15-.17.28-.23.42-.07.14-.13.26-.17.4-.1.25-.17.46-.2.63-.04.16-.06.25-.06.25h0Z"/><polygon class="cls-7" points="289.35 66.27 276.38 67.57 276.43 68.26 289.4 66.97 289.38 66.72 289.38 66.72 289.38 66.7 289.35 66.27"/><polygon class="cls-15" points="289.35 66.27 276.38 67.57 276.43 68.26 289.4 66.97 289.38 66.72 289.38 66.72 289.38 66.7 289.35 66.27"/><circle class="cls-7" cx="276.13" cy="67.91" r="1.06"/><circle class="cls-16" cx="276.13" cy="67.91" r="1.06"/><circle class="cls-7" cx="289.18" cy="66.63" r=".8"/><circle class="cls-24" cx="289.18" cy="66.63" r=".8"/><path class="cls-5" d="m271.47,68.09s-.02-.12-.03-.33c-.01-.11-.02-.23,0-.39,0-.15,0-.33.05-.51.02-.19.07-.38.14-.59.05-.21.15-.42.24-.64.12-.2.22-.43.38-.62.14-.21.32-.39.49-.58.19-.17.37-.34.58-.49.2-.16.42-.26.62-.38.22-.1.42-.2.64-.25.2-.07.4-.11.59-.14.19-.04.35-.04.51-.05.15,0,.28,0,.39,0,.21.02.33.04.33.04,0,0-.12.03-.33.07-.21.03-.5.12-.83.23-.16.05-.34.13-.52.21-.19.07-.35.2-.55.29-.36.23-.73.5-1.05.83s-.59.69-.83,1.05c-.1.19-.22.37-.29.55-.08.18-.16.35-.21.52-.11.33-.2.61-.23.83-.04.21-.07.33-.07.33h0v.02Z"/><path class="cls-5" d="m288.63,66.87s-.06-.08-.07-.23c-.01-.15.05-.35.19-.5.14-.15.35-.21.5-.2.15,0,.23.07.23.07-.02.01-.31.2-.47.38-.09.1-.19.19-.25.29-.07.09-.12.18-.12.18h0Z"/><path class="cls-5" d="m275.27,68.21s-.02-.03-.03-.08c-.02-.05-.04-.13-.03-.23,0-.19.08-.46.28-.64.19-.19.45-.28.64-.28.19,0,.31.06.31.06,0,0-.12.06-.26.14s-.3.2-.43.33-.25.29-.33.43c-.08.14-.14.26-.14.26h0Z"/></svg>