<svg id="Capa_1" data-name="Capa 1" xmlns="http://www.w3.org/2000/svg" viewBox="0 0 300 300"><defs><style>.cls-1{fill:#74a5d1;}.cls-2{fill:#8fb4de;}.cls-3{fill:#fff;}</style></defs><circle class="cls-1" cx="150" cy="150" r="144.78" transform="translate(-62.13 150) rotate(-45)"/><circle class="cls-2" cx="150" cy="150" r="133.91"/><circle class="cls-1" cx="150" cy="150" r="125.45"/><path class="cls-3" d="M87.16,126.93l-3.41-15.27h-.14a24.27,24.27,0,0,1,.24,3.24v12H80.76V109h5.12L89,123.09h.1l3-14.09h5.2v17.93H94.13V114.78a30,30,0,0,1,.17-3.1h-.1l-3.4,15.25Z"/><path class="cls-3" d="M107.92,126.93H99.83V109h8.09v2.88h-4.75v4.27h4.4v2.9h-4.4v5h4.75Z"/><path class="cls-3" d="M118.39,126.93l-1-4.52h-4.67l-1,4.52h-3.34l4.44-18h4.53l4.45,18Zm-1.66-7.48-1-4.17c-.06-.25-.19-.89-.39-1.91s-.32-1.7-.36-2c-.11.7-.24,1.48-.41,2.32s-.58,2.78-1.27,5.8Z"/><path class="cls-3" d="M130.87,122a5.4,5.4,0,0,1-1.27,3.85,4.83,4.83,0,0,1-3.67,1.34,8,8,0,0,1-4-.92V123a6.93,6.93,0,0,0,3.69,1.31,1.82,1.82,0,0,0,1.44-.53,2,2,0,0,0,.49-1.43,2.65,2.65,0,0,0-.58-1.64,9,9,0,0,0-1.9-1.65,8.4,8.4,0,0,1-1.75-1.53,5.45,5.45,0,0,1-.92-1.63,6.19,6.19,0,0,1-.33-2.11,5.08,5.08,0,0,1,1.29-3.66,4.51,4.51,0,0,1,3.44-1.35,7.53,7.53,0,0,1,4,1.15l-1.1,2.68a11,11,0,0,0-1.24-.62,3.54,3.54,0,0,0-1.38-.27,1.5,1.5,0,0,0-1.24.54,2.22,2.22,0,0,0-.44,1.45,2.54,2.54,0,0,0,.52,1.58,7.72,7.72,0,0,0,1.83,1.54,7.54,7.54,0,0,1,2.44,2.4A5.62,5.62,0,0,1,130.87,122Z"/><path class="cls-3" d="M143.48,109v11.6a7.32,7.32,0,0,1-1.45,4.89,5.21,5.21,0,0,1-4.19,1.69,5,5,0,0,1-4.07-1.68,7.55,7.55,0,0,1-1.4-5V109h3.31v11.8c0,2.28.76,3.42,2.27,3.42a1.86,1.86,0,0,0,1.64-.87,4.53,4.53,0,0,0,.57-2.48V109Z"/><path class="cls-3" d="M149.28,120v7h-3.34V109h4.37a5.57,5.57,0,0,1,4.09,1.31,5.44,5.44,0,0,1,1.32,4q0,3.41-2.3,4.75l3.45,7.86H153.3l-2.83-7Zm0-2.87h.86a2,2,0,0,0,1.69-.67,3.24,3.24,0,0,0,.51-2,2.85,2.85,0,0,0-.54-2,2.22,2.22,0,0,0-1.69-.58h-.83Z"/><path class="cls-3" d="M166,126.93h-8.09V109H166v2.88h-4.75v4.27h4.41v2.9h-4.41v5H166Z"/><path class="cls-3" d="M174.35,126.93l-3.41-15.27h-.14a24.27,24.27,0,0,1,.24,3.24v12H168V109h5.12l3.07,14.09h.1l3-14.09h5.2v17.93h-3.16V114.78a27.46,27.46,0,0,1,.17-3.1h-.1L178,126.93Z"/><path class="cls-3" d="M195.11,126.93H187V109h8.09v2.88h-4.75v4.27h4.4v2.9h-4.4v5h4.75Z"/><path class="cls-3" d="M209.65,126.93h-4.07l-5.54-13h-.16a16.08,16.08,0,0,1,.3,3.19v9.8h-3.09V109h4.1l5.49,12.85h.14a17,17,0,0,1-.23-3.06V109h3.06Z"/><path class="cls-3" d="M217.7,126.93h-3.33v-15h-3.43V109h10.19v2.93H217.7Z"/><path class="cls-3" d="M153.72,157.09l-.87-1.26a6,6,0,0,1-4.15,1.5A4.85,4.85,0,0,1,145,156a5.1,5.1,0,0,1-1.3-3.7,6.07,6.07,0,0,1,3-5.11,12.25,12.25,0,0,1-1.25-2.3,5.11,5.11,0,0,1-.31-1.79,4.05,4.05,0,0,1,1.19-3.06,4.32,4.32,0,0,1,3.13-1.14,4.11,4.11,0,0,1,3,1.06,3.91,3.91,0,0,1,1.1,2.94,4.81,4.81,0,0,1-.67,2.45,8.6,8.6,0,0,1-2.26,2.35l2.5,3.52a6.82,6.82,0,0,0,.65-1.69c.16-.63.29-1.24.41-1.86H157a16.33,16.33,0,0,1-2,6.11l2.38,3.32ZM147,152a2.71,2.71,0,0,0,.54,1.79,1.8,1.8,0,0,0,1.48.65,3,3,0,0,0,2.15-.9l-2.94-4.25A3.51,3.51,0,0,0,147,152Zm3.51-8.79a1.73,1.73,0,0,0-.32-1.16,1,1,0,0,0-.78-.37,1.12,1.12,0,0,0-.9.4,1.78,1.78,0,0,0-.33,1.16,2.77,2.77,0,0,0,.29,1.25,8.35,8.35,0,0,0,.72,1.16,3.7,3.7,0,0,0,1-1.12A2.68,2.68,0,0,0,150.55,143.19Z"/><path class="cls-3" d="M94.7,187.24,91.29,172h-.14a24.27,24.27,0,0,1,.24,3.24v12h-3.1V169.3h5.13l3.07,14.1h.1l3-14.1h5.2v17.94h-3.16V175.08a27.16,27.16,0,0,1,.17-3.09h-.1l-3.4,15.25Z"/><path class="cls-3" d="M119.71,178.25c0,3-.55,5.25-1.67,6.84a6,6,0,0,1-9.55,0c-1.12-1.59-1.67-3.89-1.67-6.88s.55-5.24,1.67-6.83a5.51,5.51,0,0,1,4.8-2.37,5.42,5.42,0,0,1,4.76,2.39Q119.72,173.8,119.71,178.25Zm-9.48,0a11.21,11.21,0,0,0,.77,4.67,2.45,2.45,0,0,0,2.27,1.61c2,0,3-2.1,3-6.28s-1-6.29-3-6.29a2.47,2.47,0,0,0-2.29,1.6A11.25,11.25,0,0,0,110.23,178.25Z"/><path class="cls-3" d="M134.26,187.24h-4.07l-5.55-13h-.16a15.35,15.35,0,0,1,.31,3.19v9.8H121.7V169.3h4.09l5.5,12.86h.14a17,17,0,0,1-.24-3.07V169.3h3.07Z"/><path class="cls-3" d="M137.4,187.24V169.3h3.14v17.94Z"/><path class="cls-3" d="M149.21,187.24h-3.32v-15h-3.44V169.3h10.2v2.93h-3.44Z"/><path class="cls-3" d="M165.94,178.25c0,3-.55,5.25-1.67,6.84a6,6,0,0,1-9.55,0c-1.12-1.59-1.67-3.89-1.67-6.88s.55-5.24,1.67-6.83a5.51,5.51,0,0,1,4.81-2.37,5.43,5.43,0,0,1,4.76,2.39Q165.94,173.8,165.94,178.25Zm-9.48,0a11.21,11.21,0,0,0,.77,4.67,2.45,2.45,0,0,0,2.27,1.61c2,0,3-2.1,3-6.28s-1-6.29-3-6.29a2.48,2.48,0,0,0-2.3,1.6A11.25,11.25,0,0,0,156.46,178.25Z"/><path class="cls-3" d="M171.27,180.26v7h-3.34V169.3h4.37a5.63,5.63,0,0,1,4.09,1.31,5.47,5.47,0,0,1,1.32,4q0,3.39-2.3,4.74l3.45,7.87h-3.57l-2.83-7Zm0-2.87h.85a2,2,0,0,0,1.7-.67,3.28,3.28,0,0,0,.51-2,2.84,2.84,0,0,0-.54-1.95,2.22,2.22,0,0,0-1.69-.59h-.83Z"/><path class="cls-3" d="M180.46,187.24V169.3h3.14v17.94Z"/><path class="cls-3" d="M199.33,187.24h-4.07l-5.55-13h-.16a15.35,15.35,0,0,1,.31,3.19v9.8h-3.09V169.3h4.1l5.49,12.86h.14a17,17,0,0,1-.24-3.07V169.3h3.07Z"/><path class="cls-3" d="M207.29,177.29h5.48v9.2a12.5,12.5,0,0,1-5,1A5.55,5.55,0,0,1,203,185.1c-1.12-1.58-1.68-3.87-1.68-6.85a10.6,10.6,0,0,1,1.93-6.76,6.5,6.5,0,0,1,5.4-2.45,8.18,8.18,0,0,1,4.1,1.11l-1.05,2.72a5.74,5.74,0,0,0-2.85-.88,3.41,3.41,0,0,0-3,1.7,8.37,8.37,0,0,0-1.11,4.63,10.53,10.53,0,0,0,.8,4.62,2.52,2.52,0,0,0,2.34,1.61,6.71,6.71,0,0,0,1.64-.21v-4.11h-2.22Z"/></svg>