<svg id="Capa_1" data-name="Capa 1" xmlns="http://www.w3.org/2000/svg" viewBox="0 0 300 300"><defs><style>.cls-1{fill:#74a5d1;}.cls-2{fill:#8fb4de;}.cls-3{fill:#fff;}</style></defs><circle class="cls-1" cx="150" cy="150" r="144.78" transform="translate(-62.13 150) rotate(-45)"/><circle class="cls-2" cx="150" cy="150" r="133.91"/><circle class="cls-1" cx="150" cy="150" r="125.45"/><path class="cls-3" d="M109.6,143l-3.41-15.28h-.13a25.93,25.93,0,0,1,.23,3.24v12H103.2V125.05h5.13l3.06,14.1h.1l3-14.1h5.21V143h-3.17V130.83a29.67,29.67,0,0,1,.17-3.09h-.1L113.25,143Z"/><path class="cls-3" d="M130.36,143h-8.09V125.05h8.09v2.89h-4.75v4.27H130v2.89h-4.4v5h4.75Z"/><path class="cls-3" d="M143.75,133.85q0,4.44-1.81,6.79a6.16,6.16,0,0,1-5.21,2.35h-4.39V125.05h4.8a5.74,5.74,0,0,1,4.87,2.31A10.63,10.63,0,0,1,143.75,133.85Zm-3.42.1q0-6-3.31-6h-1.34v12.13h1.08a2.89,2.89,0,0,0,2.7-1.53A9.53,9.53,0,0,0,140.33,134Z"/><path class="cls-3" d="M146.34,143V125.05h3.14V143Z"/><path class="cls-3" d="M158.59,127.71a2.53,2.53,0,0,0-2.26,1.69,10.76,10.76,0,0,0-.83,4.67c0,4.16,1.08,6.23,3.25,6.23a5.89,5.89,0,0,0,3-.91v3a6,6,0,0,1-3.36.88,5.27,5.27,0,0,1-4.65-2.42,12,12,0,0,1-1.63-6.77,11.94,11.94,0,0,1,1.67-6.81,5.35,5.35,0,0,1,4.66-2.45,6.47,6.47,0,0,1,1.88.27,7.51,7.51,0,0,1,1.94,1l-1.11,2.71A10.43,10.43,0,0,0,160,128,3,3,0,0,0,158.59,127.71Z"/><path class="cls-3" d="M164.25,143V125.05h3.14V143Z"/><path class="cls-3" d="M182.89,134c0,3-.55,5.25-1.67,6.84a6,6,0,0,1-9.55,0C170.55,139.26,170,137,170,134s.55-5.24,1.67-6.83a5.51,5.51,0,0,1,4.81-2.37,5.45,5.45,0,0,1,4.76,2.39Q182.89,129.55,182.89,134Zm-9.48,0a11.21,11.21,0,0,0,.77,4.67,2.45,2.45,0,0,0,2.27,1.61c2,0,3-2.1,3-6.28s-1-6.29-3-6.29a2.47,2.47,0,0,0-2.3,1.61A11.17,11.17,0,0,0,173.41,134Zm1.41-10.38v-.33a15.26,15.26,0,0,0,1.17-1.86c.44-.8.75-1.41.94-1.84h3.9v.26a9.47,9.47,0,0,1-1.46,1.7c-.78.78-1.53,1.47-2.26,2.07Z"/><path class="cls-3" d="M197.44,143h-4.07l-5.55-13h-.16a15.35,15.35,0,0,1,.31,3.19V143h-3.09V125.05H189l5.49,12.86h.14a17,17,0,0,1-.24-3.07v-9.79h3.07Z"/><path class="cls-3" d="M89.55,162.28l2.39-7.08h3.5L91.18,166v7.19H87.9v-7L83.65,155.2h3.52Z"/><path class="cls-3" d="M108.38,173.14,105,157.87h-.14a24,24,0,0,1,.24,3.24v12H102V155.2h5.12l3.07,14.1h.1l3-14.1h5.2v17.94h-3.16V161a30,30,0,0,1,.17-3.09h-.1L112,173.14Z"/><path class="cls-3" d="M133.39,164.15c0,3-.55,5.25-1.67,6.84a6,6,0,0,1-9.55,0c-1.12-1.59-1.67-3.88-1.67-6.88s.55-5.24,1.67-6.82a6,6,0,0,1,9.57,0Q133.39,159.7,133.39,164.15Zm-9.48,0a11.21,11.21,0,0,0,.77,4.67,2.45,2.45,0,0,0,2.27,1.61q3,0,3-6.28t-3-6.28a2.46,2.46,0,0,0-2.3,1.6A11.17,11.17,0,0,0,123.91,164.15Z"/><path class="cls-3" d="M147.94,173.14h-4.07l-5.55-13h-.16a15.35,15.35,0,0,1,.31,3.19v9.8h-3.09V155.2h4.1L145,168.06h.14a17,17,0,0,1-.24-3.07V155.2h3.07Z"/><path class="cls-3" d="M151.08,173.14V155.2h3.14v17.94Z"/><path class="cls-3" d="M162.89,173.14h-3.32v-15h-3.44V155.2h10.2v2.94h-3.44Z"/><path class="cls-3" d="M179.62,164.15q0,4.46-1.66,6.84a6,6,0,0,1-9.56,0q-1.67-2.38-1.67-6.88t1.67-6.82a6,6,0,0,1,9.57,0Q179.62,159.7,179.62,164.15Zm-9.48,0a11.21,11.21,0,0,0,.77,4.67,2.46,2.46,0,0,0,2.27,1.61c2,0,3-2.09,3-6.28s-1-6.28-3-6.28a2.46,2.46,0,0,0-2.3,1.6A11.17,11.17,0,0,0,170.14,164.15Z"/><path class="cls-3" d="M185,166.16v7h-3.34V155.2H186a5.57,5.57,0,0,1,4.09,1.32,5.43,5.43,0,0,1,1.32,4c0,2.26-.77,3.85-2.3,4.75l3.45,7.86H189l-2.83-7Zm0-2.87h.85a2,2,0,0,0,1.7-.67,3.26,3.26,0,0,0,.51-2,2.85,2.85,0,0,0-.54-2,2.22,2.22,0,0,0-1.69-.58H185Z"/><path class="cls-3" d="M201.63,173.14h-8.09V155.2h8.09v2.89h-4.75v4.27h4.41v2.89h-4.41v5h4.75Z"/><path class="cls-3" d="M216,164.15a11.87,11.87,0,0,1-1.67,6.84,6,6,0,0,1-9.56,0q-1.66-2.38-1.67-6.88t1.67-6.82a5.51,5.51,0,0,1,4.81-2.38,5.44,5.44,0,0,1,4.76,2.39Q216,159.7,216,164.15Zm-9.49,0a11,11,0,0,0,.78,4.67,2.44,2.44,0,0,0,2.27,1.61q3,0,3-6.28c0-4.19-1-6.28-3-6.28a2.45,2.45,0,0,0-2.29,1.6A11,11,0,0,0,206.47,164.15Z"/></svg>