<svg id="Capa_1" data-name="Capa 1" xmlns="http://www.w3.org/2000/svg" viewBox="0 0 300 300"><defs><style>.cls-1{fill:#142948;}.cls-2{fill:#8fb4de;}.cls-3{fill:#fff;}</style></defs><circle class="cls-1" cx="150" cy="150" r="144.78" transform="translate(-62.13 150) rotate(-45)"/><circle class="cls-2" cx="150" cy="150" r="133.91"/><circle class="cls-1" cx="150" cy="150" r="125.45"/><path class="cls-3" d="M110,149.07a11.93,11.93,0,0,1-1.67,6.85,6,6,0,0,1-9.56,0q-1.67-2.38-1.67-6.87t1.67-6.83a5.51,5.51,0,0,1,4.81-2.37,5.44,5.44,0,0,1,4.76,2.38A12,12,0,0,1,110,149.07Zm-9.49,0a11.26,11.26,0,0,0,.77,4.68,2.45,2.45,0,0,0,2.27,1.6c2,0,3-2.09,3-6.28s-1-6.28-3-6.28a2.46,2.46,0,0,0-2.3,1.6A11.23,11.23,0,0,0,100.51,149.07Z"/><path class="cls-3" d="M121.76,145.65a6.18,6.18,0,0,1-1.44,4.39,5.48,5.48,0,0,1-4.17,1.52h-.83v6.5H112V140.13h4.55Q121.76,140.13,121.76,145.65Zm-6.44,3H116a2.32,2.32,0,0,0,1.82-.68,4.31,4.31,0,0,0,0-4.3,2.07,2.07,0,0,0-1.7-.68h-.81Z"/><path class="cls-3" d="M131.47,158.06h-8.08V140.13h8.08V143h-4.75v4.27h4.41v2.9h-4.41v5h4.75Z"/><path class="cls-3" d="M136.79,151.08v7h-3.33V140.13h4.37a5.63,5.63,0,0,1,4.09,1.31,5.44,5.44,0,0,1,1.32,4q0,3.41-2.3,4.75l3.45,7.86h-3.57l-2.84-7Zm0-2.87h.86a2,2,0,0,0,1.7-.67,3.24,3.24,0,0,0,.51-2,2.85,2.85,0,0,0-.54-2,2.26,2.26,0,0,0-1.69-.58h-.84Z"/><path class="cls-3" d="M153.88,158.06l-1-4.52h-4.67l-1,4.52h-3.34l4.44-18h4.53l4.45,18Zm-1.65-7.48-1-4.17c-.06-.25-.19-.89-.39-1.91s-.32-1.7-.36-2c-.11.7-.24,1.48-.4,2.32s-.59,2.78-1.28,5.8Z"/><path class="cls-3" d="M164.14,142.79a2.53,2.53,0,0,0-2.27,1.68,10.82,10.82,0,0,0-.82,4.68q0,6.22,3.25,6.23a5.89,5.89,0,0,0,3-.91v3a6,6,0,0,1-3.36.87,5.28,5.28,0,0,1-4.66-2.41,12.09,12.09,0,0,1-1.63-6.78,11.9,11.9,0,0,1,1.68-6.81,5.34,5.34,0,0,1,4.66-2.44,6.52,6.52,0,0,1,1.88.27,7.9,7.9,0,0,1,1.93.94l-1.1,2.72a9.17,9.17,0,0,0-1.18-.7A3,3,0,0,0,164.14,142.79Z"/><path class="cls-3" d="M169.79,158.06V140.13h3.14v17.93Z"/><path class="cls-3" d="M188.44,149.07a11.93,11.93,0,0,1-1.67,6.85,6,6,0,0,1-9.56,0q-1.67-2.38-1.67-6.87t1.67-6.83a5.52,5.52,0,0,1,4.81-2.37,5.43,5.43,0,0,1,4.76,2.38A12,12,0,0,1,188.44,149.07Zm-9.49,0a11.08,11.08,0,0,0,.78,4.68,2.43,2.43,0,0,0,2.27,1.6q3,0,3-6.28c0-4.19-1-6.28-3-6.28a2.45,2.45,0,0,0-2.29,1.6A11,11,0,0,0,179,149.07Zm1.41-10.38v-.33a13.9,13.9,0,0,0,1.17-1.85c.44-.8.76-1.42.94-1.84h3.91v.26a10.88,10.88,0,0,1-1.46,1.7,29.18,29.18,0,0,1-2.26,2.06Z"/><path class="cls-3" d="M203,158.06h-4.08l-5.54-13h-.16a16.15,16.15,0,0,1,.3,3.19v9.8h-3.09V140.13h4.1L200,153h.13a18.14,18.14,0,0,1-.23-3.07v-9.79H203Z"/></svg>