<svg id="Capa_1" data-name="Capa 1" xmlns="http://www.w3.org/2000/svg" viewBox="0 0 300 300"><defs><style>.cls-1{fill:#142948;}.cls-2{fill:#8fb4de;}.cls-3{fill:#fff;}</style></defs><circle class="cls-1" cx="150" cy="150" r="144.78" transform="translate(-62.13 150) rotate(-45)"/><circle class="cls-2" cx="150" cy="150" r="133.91"/><circle class="cls-1" cx="150" cy="150" r="125.45"/><path class="cls-3" d="M110.81,148.09a11.93,11.93,0,0,1-1.67,6.85,6,6,0,0,1-9.56,0q-1.67-2.38-1.66-6.87t1.66-6.83a5.54,5.54,0,0,1,4.81-2.37,5.43,5.43,0,0,1,4.76,2.38Q110.82,143.64,110.81,148.09Zm-9.48,0a11.1,11.1,0,0,0,.77,4.68,2.44,2.44,0,0,0,2.27,1.6q3,0,3-6.28t-3-6.28a2.46,2.46,0,0,0-2.29,1.6A11.07,11.07,0,0,0,101.33,148.09Z"/><path class="cls-3" d="M122.57,144.67a6.13,6.13,0,0,1-1.44,4.38,5.44,5.44,0,0,1-4.16,1.53h-.84v6.5H112.8V139.15h4.55Q122.57,139.15,122.57,144.67Zm-6.44,3h.64a2.33,2.33,0,0,0,1.83-.68,4.31,4.31,0,0,0,.05-4.3,2.09,2.09,0,0,0-1.71-.68h-.81Z"/><path class="cls-3" d="M132.29,157.08H124.2V139.15h8.09V142h-4.75v4.27h4.4v2.9h-4.4v5h4.75Z"/><path class="cls-3" d="M137.61,150.1v7h-3.34V139.15h4.37a5.57,5.57,0,0,1,4.09,1.31,5.44,5.44,0,0,1,1.32,4q0,3.41-2.29,4.75l3.45,7.86h-3.58l-2.83-7Zm0-2.87h.86a2,2,0,0,0,1.69-.67,3.17,3.17,0,0,0,.52-2,2.8,2.8,0,0,0-.55-2,2.23,2.23,0,0,0-1.69-.58h-.83Z"/><path class="cls-3" d="M154.7,157.08l-1-4.52H149l-1,4.52h-3.33l4.44-18h4.52l4.46,18ZM153,149.6l-.95-4.17c-.06-.25-.19-.89-.39-1.91s-.32-1.7-.36-2c-.11.7-.24,1.48-.41,2.32s-.59,2.78-1.27,5.8Z"/><path class="cls-3" d="M163.65,157.08h-3.32v-15h-3.44v-2.93h10.2v2.93h-3.44Z"/><path class="cls-3" d="M169,157.08V139.15h3.15v17.93Z"/><path class="cls-3" d="M187.62,148.09c0,3-.55,5.25-1.67,6.85a6,6,0,0,1-9.55,0c-1.12-1.59-1.67-3.88-1.67-6.87s.55-5.25,1.67-6.83a5.51,5.51,0,0,1,4.81-2.37,5.43,5.43,0,0,1,4.75,2.38Q187.63,143.64,187.62,148.09Zm-9.48,0a11.26,11.26,0,0,0,.77,4.68,2.44,2.44,0,0,0,2.27,1.6q3,0,3-6.28t-3-6.28a2.46,2.46,0,0,0-2.3,1.6A11.23,11.23,0,0,0,178.14,148.09Z"/><path class="cls-3" d="M202.17,157.08H198.1l-5.55-13h-.16a15.42,15.42,0,0,1,.31,3.19v9.8h-3.09V139.15h4.09L199.2,152h.13a18.14,18.14,0,0,1-.23-3.07v-9.79h3.07Z"/></svg>