<svg id="Capa_1" data-name="Capa 1" xmlns="http://www.w3.org/2000/svg" viewBox="0 0 300 300"><defs><style>.cls-1{fill:#3b94cf;}.cls-2{fill:#8fb4de;}.cls-3{fill:#fff;}</style></defs><circle class="cls-1" cx="150" cy="150" r="144.78" transform="translate(-62.13 150) rotate(-45)"/><circle class="cls-2" cx="150" cy="150" r="133.91"/><circle class="cls-1" cx="150" cy="150" r="125.45"/><path class="cls-3" d="M102.71,114.52a6.13,6.13,0,0,1-1.44,4.38,5.44,5.44,0,0,1-4.16,1.53h-.84v6.5H92.94V109h4.55Q102.71,109,102.71,114.52Zm-6.44,3h.64a2.33,2.33,0,0,0,1.83-.68,4.31,4.31,0,0,0,.05-4.3,2.09,2.09,0,0,0-1.71-.68h-.81Z"/><path class="cls-3" d="M107.68,120v7h-3.34V109h4.37a5.57,5.57,0,0,1,4.09,1.31,5.44,5.44,0,0,1,1.32,4q0,3.41-2.29,4.75l3.45,7.86h-3.57l-2.84-7Zm0-2.87h.86a2,2,0,0,0,1.69-.67,3.17,3.17,0,0,0,.52-2,2.8,2.8,0,0,0-.55-2,2.19,2.19,0,0,0-1.69-.58h-.83Z"/><path class="cls-3" d="M128.62,117.94c0,3-.55,5.25-1.67,6.85a6,6,0,0,1-9.55,0c-1.12-1.59-1.67-3.88-1.67-6.87s.55-5.25,1.67-6.83a5.52,5.52,0,0,1,4.81-2.38A5.43,5.43,0,0,1,127,111.1Q128.63,113.49,128.62,117.94Zm-9.48,0a11.26,11.26,0,0,0,.77,4.68,2.44,2.44,0,0,0,2.27,1.6q3,0,3-6.28t-3-6.28a2.46,2.46,0,0,0-2.3,1.6A11.23,11.23,0,0,0,119.14,117.94Z"/><path class="cls-3" d="M137,126.93l-3.41-15.27h-.14a24.27,24.27,0,0,1,.24,3.24v12h-3.09V109h5.12l3.07,14.09h.1l3-14.09h5.2v17.93H144V114.78a30,30,0,0,1,.17-3.1h-.1l-3.4,15.25Z"/><path class="cls-3" d="M162,117.94q0,4.45-1.66,6.85a6,6,0,0,1-9.56,0q-1.67-2.39-1.67-6.87t1.67-6.83a5.52,5.52,0,0,1,4.81-2.38,5.45,5.45,0,0,1,4.76,2.39Q162,113.49,162,117.94Zm-9.48,0a11.26,11.26,0,0,0,.77,4.68,2.45,2.45,0,0,0,2.27,1.6c2,0,3-2.09,3-6.28s-1-6.28-3-6.28a2.46,2.46,0,0,0-2.3,1.6A11.23,11.23,0,0,0,152.54,117.94Z"/><path class="cls-3" d="M169.19,126.93h-3.33v-15h-3.43V109h10.19v2.93h-3.43Z"/><path class="cls-3" d="M174.51,126.93V109h3.14v17.93Z"/><path class="cls-3" d="M193.15,117.94q0,4.45-1.66,6.85a6,6,0,0,1-9.56,0q-1.67-2.39-1.67-6.87t1.67-6.83a5.52,5.52,0,0,1,4.81-2.38,5.45,5.45,0,0,1,4.76,2.39Q193.15,113.49,193.15,117.94Zm-9.48,0a11.26,11.26,0,0,0,.77,4.68,2.45,2.45,0,0,0,2.27,1.6c2,0,3-2.09,3-6.28s-1-6.28-3-6.28a2.46,2.46,0,0,0-2.3,1.6A11.23,11.23,0,0,0,183.67,117.94Z"/><path class="cls-3" d="M207.7,126.93h-4.07l-5.55-13h-.15a16.08,16.08,0,0,1,.3,3.19v9.8h-3.09V109h4.1l5.49,12.85h.14a17,17,0,0,1-.23-3.06V109h3.06Z"/><path class="cls-3" d="M153.72,157.09l-.87-1.26a6,6,0,0,1-4.15,1.5A4.85,4.85,0,0,1,145,156a5.1,5.1,0,0,1-1.3-3.7,6.07,6.07,0,0,1,3-5.11,12.25,12.25,0,0,1-1.25-2.3,5.11,5.11,0,0,1-.31-1.79,4.05,4.05,0,0,1,1.19-3.06,4.34,4.34,0,0,1,3.13-1.14,4.11,4.11,0,0,1,3,1.06,3.91,3.91,0,0,1,1.1,2.94,4.81,4.81,0,0,1-.67,2.45,8.6,8.6,0,0,1-2.26,2.35l2.5,3.52a6.82,6.82,0,0,0,.65-1.69c.16-.63.29-1.24.41-1.86H157a16.33,16.33,0,0,1-2,6.11l2.38,3.32ZM147,152a2.71,2.71,0,0,0,.54,1.79,1.8,1.8,0,0,0,1.48.65,3,3,0,0,0,2.15-.9l-2.94-4.25A3.51,3.51,0,0,0,147,152Zm3.51-8.79a1.73,1.73,0,0,0-.32-1.16,1,1,0,0,0-.78-.37,1.12,1.12,0,0,0-.9.4,1.78,1.78,0,0,0-.33,1.16,2.77,2.77,0,0,0,.29,1.25,8.35,8.35,0,0,0,.72,1.16,3.7,3.7,0,0,0,1-1.12A2.68,2.68,0,0,0,150.55,143.19Z"/><path class="cls-3" d="M73.49,172a2.53,2.53,0,0,0-2.27,1.68,10.82,10.82,0,0,0-.82,4.68q0,6.23,3.25,6.23a5.89,5.89,0,0,0,3-.91v3a6,6,0,0,1-3.36.87,5.29,5.29,0,0,1-4.66-2.41A12,12,0,0,1,67,178.29a11.85,11.85,0,0,1,1.67-6.8A5.35,5.35,0,0,1,73.32,169a6.52,6.52,0,0,1,1.88.27,7.46,7.46,0,0,1,1.93.95L76,173a10.43,10.43,0,0,0-1.18-.69A3,3,0,0,0,73.49,172Z"/><path class="cls-3" d="M90.5,178.25c0,3-.55,5.25-1.67,6.84a6,6,0,0,1-9.55,0c-1.12-1.59-1.67-3.89-1.67-6.88s.55-5.24,1.67-6.83A5.51,5.51,0,0,1,84.09,169a5.43,5.43,0,0,1,4.76,2.39Q90.5,173.8,90.5,178.25Zm-9.48,0a11.21,11.21,0,0,0,.77,4.67,2.45,2.45,0,0,0,2.27,1.61c2,0,3-2.1,3-6.28s-1-6.29-3-6.29a2.48,2.48,0,0,0-2.3,1.6A11.25,11.25,0,0,0,81,178.25Z"/><path class="cls-3" d="M98.89,187.24,95.48,172h-.13a25.93,25.93,0,0,1,.23,3.24v12H92.49V169.3h5.13l3.06,14.1h.1l3-14.1H109v17.94h-3.17V175.08A29.67,29.67,0,0,1,106,172h-.1l-3.39,15.25Z"/><path class="cls-3" d="M118,187.24,114.56,172h-.14a24.27,24.27,0,0,1,.24,3.24v12h-3.1V169.3h5.13l3.07,14.1h.1l3-14.1h5.2v17.94h-3.16V175.08a27.16,27.16,0,0,1,.17-3.09H125l-3.4,15.25Z"/><path class="cls-3" d="M141.67,169.3v11.61a7.3,7.3,0,0,1-1.45,4.89,5.23,5.23,0,0,1-4.18,1.68,5,5,0,0,1-4.08-1.67,7.59,7.59,0,0,1-1.4-4.95V169.3h3.32v11.8c0,2.29.75,3.43,2.27,3.43a1.85,1.85,0,0,0,1.63-.87,4.52,4.52,0,0,0,.58-2.48V169.3Z"/><path class="cls-3" d="M156.69,187.24h-4.07l-5.54-13h-.16a16.08,16.08,0,0,1,.3,3.19v9.8h-3.09V169.3h4.1l5.5,12.86h.13a18.06,18.06,0,0,1-.23-3.07V169.3h3.06Z"/><path class="cls-3" d="M159.83,187.24V169.3H163v17.94Z"/><path class="cls-3" d="M172.09,172a2.53,2.53,0,0,0-2.27,1.68,10.82,10.82,0,0,0-.82,4.68q0,6.23,3.25,6.23a5.89,5.89,0,0,0,3-.91v3a6,6,0,0,1-3.36.87,5.28,5.28,0,0,1-4.66-2.41,12,12,0,0,1-1.63-6.78,11.85,11.85,0,0,1,1.68-6.8,5.35,5.35,0,0,1,4.66-2.45,6.52,6.52,0,0,1,1.88.27,7.62,7.62,0,0,1,1.93.95l-1.1,2.71a10.43,10.43,0,0,0-1.18-.69A3,3,0,0,0,172.09,172Z"/><path class="cls-3" d="M185.63,187.24l-1-4.53h-4.67l-1,4.53h-3.33l4.44-18h4.53l4.45,18ZM184,179.75l-.95-4.17c-.06-.25-.19-.89-.39-1.91s-.32-1.69-.36-2c-.11.71-.24,1.48-.41,2.33s-.59,2.78-1.27,5.79Z"/><path class="cls-3" d="M194.58,187.24h-3.32v-15h-3.44V169.3H198v2.93h-3.44Z"/><path class="cls-3" d="M199.91,187.24V169.3h3.14v17.94Z"/><path class="cls-3" d="M218.55,178.25c0,3-.55,5.25-1.67,6.84a6,6,0,0,1-9.55,0c-1.12-1.59-1.67-3.89-1.67-6.88s.55-5.24,1.67-6.83a5.51,5.51,0,0,1,4.81-2.37,5.43,5.43,0,0,1,4.76,2.39Q218.55,173.8,218.55,178.25Zm-9.48,0a11.21,11.21,0,0,0,.77,4.67,2.45,2.45,0,0,0,2.27,1.61c2,0,3-2.1,3-6.28s-1-6.29-3-6.29a2.48,2.48,0,0,0-2.3,1.6A11.25,11.25,0,0,0,209.07,178.25Z"/><path class="cls-3" d="M233.1,187.24H229l-5.55-13h-.16a15.35,15.35,0,0,1,.31,3.19v9.8h-3.09V169.3h4.09l5.5,12.86h.14a17,17,0,0,1-.24-3.07V169.3h3.07Z"/></svg>