<svg id="Capa_1" data-name="Capa 1" xmlns="http://www.w3.org/2000/svg" viewBox="0 0 300 300"><defs><style>.cls-1{fill:#3b94cf;}.cls-2{fill:#8fb4de;}.cls-3{fill:#fff;}</style></defs><circle class="cls-1" cx="150" cy="150" r="144.78" transform="translate(-62.13 150) rotate(-45)"/><circle class="cls-2" cx="150" cy="150" r="133.91"/><circle class="cls-1" cx="150" cy="150" r="125.45"/><path class="cls-3" d="M102.16,130.57a6.16,6.16,0,0,1-1.44,4.39,5.45,5.45,0,0,1-4.17,1.53h-.83V143H92.38V125.05h4.56Q102.16,125.05,102.16,130.57Zm-6.44,3h.64a2.32,2.32,0,0,0,1.83-.67,4.31,4.31,0,0,0,0-4.3,2.06,2.06,0,0,0-1.71-.68h-.81Z"/><path class="cls-3" d="M107.13,136v7h-3.34V125.05h4.37a5.57,5.57,0,0,1,4.09,1.32,5.43,5.43,0,0,1,1.32,4c0,2.26-.77,3.85-2.3,4.75l3.45,7.86h-3.57l-2.83-7Zm0-2.87H108a2,2,0,0,0,1.69-.67,3.26,3.26,0,0,0,.52-2,2.85,2.85,0,0,0-.55-2,2.21,2.21,0,0,0-1.69-.58h-.83Z"/><path class="cls-3" d="M128.07,134a11.87,11.87,0,0,1-1.67,6.84,6,6,0,0,1-9.56,0q-1.66-2.39-1.67-6.88a11.84,11.84,0,0,1,1.67-6.83,5.54,5.54,0,0,1,4.81-2.37,5.44,5.44,0,0,1,4.76,2.39Q128.07,129.55,128.07,134Zm-9.49,0a11,11,0,0,0,.78,4.67,2.44,2.44,0,0,0,2.27,1.61c2,0,3-2.1,3-6.28s-1-6.29-3-6.29a2.46,2.46,0,0,0-2.29,1.61A11,11,0,0,0,118.58,134Z"/><path class="cls-3" d="M136.46,143l-3.41-15.28h-.14a24.27,24.27,0,0,1,.24,3.24v12h-3.1V125.05h5.13l3.07,14.1h.1l3-14.1h5.2V143h-3.16V130.83a27.16,27.16,0,0,1,.17-3.09h-.1L140.1,143Z"/><path class="cls-3" d="M161.47,134c0,3-.55,5.25-1.67,6.84a6,6,0,0,1-9.55,0c-1.12-1.59-1.67-3.88-1.67-6.88s.55-5.24,1.67-6.83a5.51,5.51,0,0,1,4.81-2.37,5.45,5.45,0,0,1,4.76,2.39Q161.47,129.55,161.47,134ZM152,134a11.21,11.21,0,0,0,.77,4.67,2.45,2.45,0,0,0,2.27,1.61c2,0,3-2.1,3-6.28s-1-6.29-3-6.29a2.47,2.47,0,0,0-2.3,1.61A11.17,11.17,0,0,0,152,134Z"/><path class="cls-3" d="M169.41,127.71a2.54,2.54,0,0,0-2.27,1.69,10.77,10.77,0,0,0-.82,4.67c0,4.16,1.08,6.23,3.25,6.23a5.89,5.89,0,0,0,3-.91v3a6,6,0,0,1-3.36.88,5.28,5.28,0,0,1-4.66-2.42,12,12,0,0,1-1.63-6.77,11.86,11.86,0,0,1,1.68-6.81,5.35,5.35,0,0,1,4.66-2.45,6.52,6.52,0,0,1,1.88.27,7.62,7.62,0,0,1,1.93,1l-1.1,2.71a10.43,10.43,0,0,0-1.18-.69A3,3,0,0,0,169.41,127.71Z"/><path class="cls-3" d="M175.06,143V125.05h3.14V143Z"/><path class="cls-3" d="M193.71,134a11.87,11.87,0,0,1-1.67,6.84,6,6,0,0,1-9.56,0q-1.66-2.39-1.67-6.88a11.84,11.84,0,0,1,1.67-6.83,5.52,5.52,0,0,1,4.81-2.37,5.44,5.44,0,0,1,4.76,2.39A12,12,0,0,1,193.71,134Zm-9.49,0a11,11,0,0,0,.78,4.67,2.44,2.44,0,0,0,2.27,1.61c2,0,3-2.1,3-6.28s-1-6.29-3-6.29a2.46,2.46,0,0,0-2.29,1.61A11,11,0,0,0,184.22,134Zm1.41-10.38v-.33a14.12,14.12,0,0,0,1.17-1.86c.44-.8.76-1.41.94-1.84h3.91v.26a10.43,10.43,0,0,1-1.46,1.7c-.78.78-1.53,1.47-2.26,2.07Z"/><path class="cls-3" d="M208.25,143h-4.07l-5.54-13h-.16a16.08,16.08,0,0,1,.3,3.19V143h-3.09V125.05h4.1l5.5,12.86h.13a18.06,18.06,0,0,1-.23-3.07v-9.79h3.06Z"/><path class="cls-3" d="M72.21,162.28l2.39-7.08h3.5L73.84,166v7.19H70.55v-7L66.31,155.2h3.52Z"/><path class="cls-3" d="M90.58,157.87a2.52,2.52,0,0,0-2.26,1.68,10.79,10.79,0,0,0-.83,4.67c0,4.16,1.08,6.23,3.25,6.23a6,6,0,0,0,3-.9v3a5.87,5.87,0,0,1-3.36.88A5.28,5.28,0,0,1,85.71,171a14.82,14.82,0,0,1,0-13.59A5.34,5.34,0,0,1,90.41,155a6.52,6.52,0,0,1,1.88.27,7.61,7.61,0,0,1,1.94.94l-1.11,2.71a10.43,10.43,0,0,0-1.18-.69A3,3,0,0,0,90.58,157.87Z"/><path class="cls-3" d="M107.6,164.15a11.87,11.87,0,0,1-1.67,6.84,6,6,0,0,1-9.56,0q-1.66-2.38-1.67-6.88t1.67-6.82a5.51,5.51,0,0,1,4.81-2.38,5.44,5.44,0,0,1,4.76,2.39A12,12,0,0,1,107.6,164.15Zm-9.49,0a11.21,11.21,0,0,0,.77,4.67,2.47,2.47,0,0,0,2.28,1.61q3,0,3-6.28t-3-6.28a2.47,2.47,0,0,0-2.3,1.6A11.17,11.17,0,0,0,98.11,164.15Z"/><path class="cls-3" d="M116,173.14l-3.42-15.27h-.13a25.67,25.67,0,0,1,.23,3.24v12h-3.09V155.2h5.13l3.07,14.1h.09l3-14.1h5.2v17.94H123V161a27.47,27.47,0,0,1,.18-3.09H123l-3.4,15.25Z"/><path class="cls-3" d="M139.69,155.2v11.61a7.36,7.36,0,0,1-1.45,4.89,5.24,5.24,0,0,1-4.19,1.69,5,5,0,0,1-4.07-1.68,7.59,7.59,0,0,1-1.4-5V155.2h3.32V167c0,2.28.75,3.42,2.27,3.42a1.85,1.85,0,0,0,1.63-.87,4.53,4.53,0,0,0,.57-2.48V155.2Z"/><path class="cls-3" d="M154.71,173.14h-4.07l-5.55-13h-.15a16.08,16.08,0,0,1,.3,3.19v9.8h-3.09V155.2h4.1l5.49,12.86h.14a17.08,17.08,0,0,1-.23-3.07V155.2h3.06Z"/><path class="cls-3" d="M157.85,173.14V155.2H161v17.94Z"/><path class="cls-3" d="M170.11,157.87a2.52,2.52,0,0,0-2.27,1.68,10.79,10.79,0,0,0-.83,4.67c0,4.16,1.09,6.23,3.25,6.23a6,6,0,0,0,3-.9v3a5.92,5.92,0,0,1-3.37.88,5.28,5.28,0,0,1-4.65-2.41,14.78,14.78,0,0,1,.05-13.59,5.32,5.32,0,0,1,4.65-2.44,6.54,6.54,0,0,1,1.89.27,7.56,7.56,0,0,1,1.93.94l-1.11,2.71a10.28,10.28,0,0,0-1.17-.69A3,3,0,0,0,170.11,157.87Z"/><path class="cls-3" d="M183.65,173.14l-1-4.53h-4.68l-1,4.53h-3.33l4.44-18h4.52l4.46,18ZM182,165.66l-1-4.17c-.05-.26-.18-.89-.38-1.91s-.32-1.7-.36-2.05c-.11.71-.25,1.48-.41,2.33s-.59,2.78-1.27,5.8Z"/><path class="cls-3" d="M193.9,157.87a2.52,2.52,0,0,0-2.26,1.68,10.79,10.79,0,0,0-.83,4.67c0,4.16,1.08,6.23,3.25,6.23a6,6,0,0,0,3-.9v3a5.87,5.87,0,0,1-3.36.88A5.28,5.28,0,0,1,189,171a14.82,14.82,0,0,1,0-13.59,5.34,5.34,0,0,1,4.66-2.44,6.52,6.52,0,0,1,1.88.27,7.61,7.61,0,0,1,1.94.94l-1.11,2.71a10.43,10.43,0,0,0-1.18-.69A3,3,0,0,0,193.9,157.87Z"/><path class="cls-3" d="M199.56,173.14V155.2h3.14v17.94Z"/><path class="cls-3" d="M218.2,164.15c0,3-.55,5.25-1.67,6.84a6,6,0,0,1-9.55,0c-1.12-1.59-1.67-3.88-1.67-6.88s.55-5.24,1.67-6.82a5.5,5.5,0,0,1,4.81-2.38,5.43,5.43,0,0,1,4.75,2.39Q218.21,159.7,218.2,164.15Zm-9.48,0a11.21,11.21,0,0,0,.77,4.67,2.45,2.45,0,0,0,2.27,1.61q3,0,3-6.28t-3-6.28a2.46,2.46,0,0,0-2.3,1.6A11.17,11.17,0,0,0,208.72,164.15Zm1.41-10.38v-.33a15.4,15.4,0,0,0,1.16-1.86c.45-.8.76-1.41,1-1.84h3.9V150a9.92,9.92,0,0,1-1.46,1.7c-.78.78-1.53,1.47-2.26,2.07Z"/><path class="cls-3" d="M232.75,173.14h-4.07l-5.55-13H223a15.35,15.35,0,0,1,.31,3.19v9.8h-3.09V155.2h4.1l5.49,12.86h.14a17,17,0,0,1-.24-3.07V155.2h3.07Z"/></svg>