<svg id="Capa_1" data-name="Capa 1" xmlns="http://www.w3.org/2000/svg" viewBox="0 0 300 300"><defs><style>.cls-1{fill:#2c57a2;}.cls-2{fill:#8fb4de;}.cls-3{fill:#fff;}</style></defs><circle class="cls-1" cx="150" cy="150" r="144.78" transform="translate(-62.13 150) rotate(-45)"/><circle class="cls-2" cx="150" cy="150" r="133.91"/><circle class="cls-1" cx="150" cy="150" r="125.45"/><path class="cls-3" d="M86.47,138a5.42,5.42,0,0,1-1.27,3.86,4.82,4.82,0,0,1-3.66,1.33,8,8,0,0,1-4-.92V139a6.87,6.87,0,0,0,3.69,1.32,1.86,1.86,0,0,0,1.44-.53,2,2,0,0,0,.49-1.44,2.62,2.62,0,0,0-.58-1.63,8.27,8.27,0,0,0-1.9-1.65,9,9,0,0,1-1.75-1.53,5.5,5.5,0,0,1-.92-1.64,6.2,6.2,0,0,1-.32-2.11A5.07,5.07,0,0,1,79,126.14a4.51,4.51,0,0,1,3.44-1.35,7.54,7.54,0,0,1,4,1.16l-1.1,2.67A11,11,0,0,0,84,128a3.47,3.47,0,0,0-1.38-.27,1.52,1.52,0,0,0-1.24.53,2.25,2.25,0,0,0-.44,1.46,2.56,2.56,0,0,0,.52,1.58,7.73,7.73,0,0,0,1.83,1.53,7.55,7.55,0,0,1,2.44,2.41A5.51,5.51,0,0,1,86.47,138Z"/><path class="cls-3" d="M96.13,143H88.05V125.05h8.08v2.89H91.38v4.26h4.41v2.9H91.38v5h4.75Z"/><path class="cls-3" d="M103.54,133H109v9.2a12.5,12.5,0,0,1-5,1,5.55,5.55,0,0,1-4.82-2.38c-1.12-1.58-1.68-3.87-1.68-6.85a10.6,10.6,0,0,1,1.93-6.76,6.5,6.5,0,0,1,5.4-2.45,8.18,8.18,0,0,1,4.1,1.11l-1,2.72a5.74,5.74,0,0,0-2.85-.88,3.43,3.43,0,0,0-3,1.7,8.37,8.37,0,0,0-1.11,4.63,10.61,10.61,0,0,0,.8,4.63,2.52,2.52,0,0,0,2.34,1.6,6.65,6.65,0,0,0,1.64-.21V136h-2.22Z"/><path class="cls-3" d="M117.54,143l-3.41-15.28H114a24.15,24.15,0,0,1,.23,3.24v12h-3.09V125.05h5.13l3.07,14.1h.1l3-14.1h5.2V143h-3.16V130.83a27.16,27.16,0,0,1,.17-3.09h-.1L121.18,143Z"/><path class="cls-3" d="M138.29,143h-8.08V125.05h8.08v2.89h-4.74v4.26H138v2.9h-4.4v5h4.74Z"/><path class="cls-3" d="M152.84,143h-4.07l-5.55-13h-.16a15.35,15.35,0,0,1,.31,3.19V143h-3.09V125.05h4.1l5.49,12.86H150a17.08,17.08,0,0,1-.23-3.07v-9.79h3.06Z"/><path class="cls-3" d="M160.89,143h-3.33V128h-3.43v-2.93h10.19V128h-3.43Z"/><path class="cls-3" d="M173.24,143l-1-4.53h-4.67l-1,4.53h-3.33l4.44-18h4.53l4.45,18Zm-1.66-7.48-1-4.18c-.06-.25-.19-.89-.39-1.9s-.32-1.7-.36-2.05c-.11.71-.24,1.48-.41,2.33s-.59,2.78-1.27,5.8Z"/><path class="cls-3" d="M183.49,127.71a2.52,2.52,0,0,0-2.26,1.69,10.76,10.76,0,0,0-.83,4.67c0,4.15,1.09,6.23,3.25,6.23a5.86,5.86,0,0,0,3-.91v3a6,6,0,0,1-3.36.87,5.26,5.26,0,0,1-4.65-2.41,12,12,0,0,1-1.63-6.77,11.86,11.86,0,0,1,1.68-6.81,5.32,5.32,0,0,1,4.65-2.45,6.59,6.59,0,0,1,1.89.27,7.62,7.62,0,0,1,1.93,1L186,128.72a10.28,10.28,0,0,0-1.17-.69A3,3,0,0,0,183.49,127.71Z"/><path class="cls-3" d="M189.15,143V125.05h3.14V143Z"/><path class="cls-3" d="M207.79,134c0,3-.55,5.25-1.67,6.84a6,6,0,0,1-9.55,0q-1.66-2.39-1.67-6.88a11.84,11.84,0,0,1,1.67-6.83,5.51,5.51,0,0,1,4.81-2.37,5.45,5.45,0,0,1,4.76,2.39Q207.79,129.55,207.79,134Zm-9.48,0a11.21,11.21,0,0,0,.77,4.67,2.45,2.45,0,0,0,2.27,1.61c2,0,3-2.1,3-6.28s-1-6.29-3-6.29a2.47,2.47,0,0,0-2.3,1.61A11.17,11.17,0,0,0,198.31,134Zm1.41-10.38v-.33a16.1,16.1,0,0,0,1.17-1.86c.44-.8.75-1.41.94-1.84h3.9v.26a9.47,9.47,0,0,1-1.46,1.7,29.59,29.59,0,0,1-2.26,2.07Z"/><path class="cls-3" d="M222.34,143h-4.07l-5.55-13h-.16a15.35,15.35,0,0,1,.31,3.19V143h-3.09V125.05h4.1l5.49,12.86h.14a17.08,17.08,0,0,1-.23-3.07v-9.79h3.06Z"/><path class="cls-3" d="M105.8,162.28l2.39-7.08h3.5L107.43,166v7.19h-3.29v-7L99.9,155.2h3.52Z"/><path class="cls-3" d="M126.71,173.14l-1-4.53H121l-1,4.53h-3.34l4.44-18h4.53l4.45,18Zm-1.65-7.48-1-4.17c-.06-.26-.18-.89-.39-1.91s-.32-1.7-.36-2.05c-.1.71-.24,1.48-.4,2.33s-.59,2.78-1.28,5.8Z"/><path class="cls-3" d="M143.58,173.14h-4.07l-5.55-13h-.16a15.35,15.35,0,0,1,.31,3.19v9.8H131V155.2h4.1l5.49,12.86h.14a17,17,0,0,1-.24-3.07V155.2h3.07Z"/><path class="cls-3" d="M154.61,173.14l-1-4.53H148.9l-1,4.53h-3.33l4.44-18h4.52l4.46,18Zm-5.11-19.37v-.33a14.12,14.12,0,0,0,1.17-1.86c.44-.8.76-1.41,1-1.84h3.9V150a10.43,10.43,0,0,1-1.46,1.7c-.78.78-1.53,1.47-2.26,2.07ZM153,165.66l-.95-4.17c-.06-.26-.19-.89-.39-1.91s-.32-1.7-.36-2.05c-.11.71-.24,1.48-.41,2.33s-.59,2.78-1.27,5.8Z"/><path class="cls-3" d="M158.91,173.14V155.2h3.34v15h4.62v2.92Z"/><path class="cls-3" d="M169,173.14V155.2h3.14v17.94Z"/><path class="cls-3" d="M183.46,168.2a5.41,5.41,0,0,1-1.27,3.85,4.83,4.83,0,0,1-3.67,1.34,8,8,0,0,1-4-.92v-3.3a6.93,6.93,0,0,0,3.69,1.31,1.86,1.86,0,0,0,1.44-.53,2,2,0,0,0,.49-1.44,2.62,2.62,0,0,0-.58-1.63,8.27,8.27,0,0,0-1.9-1.65,8.4,8.4,0,0,1-1.75-1.53,5.5,5.5,0,0,1-.92-1.64,6.15,6.15,0,0,1-.33-2.11A5.05,5.05,0,0,1,176,156.3a4.51,4.51,0,0,1,3.44-1.35,7.53,7.53,0,0,1,4,1.15l-1.1,2.67a11,11,0,0,0-1.24-.61,3.54,3.54,0,0,0-1.38-.27,1.52,1.52,0,0,0-1.24.53,2.25,2.25,0,0,0-.44,1.46,2.56,2.56,0,0,0,.52,1.58,7.73,7.73,0,0,0,1.83,1.53,7.55,7.55,0,0,1,2.44,2.41A5.52,5.52,0,0,1,183.46,168.2Z"/><path class="cls-3" d="M185.64,173.14V155.2h3.14v17.94Z"/><path class="cls-3" d="M200.11,168.2a5.37,5.37,0,0,1-1.27,3.85,4.8,4.8,0,0,1-3.66,1.34,8.12,8.12,0,0,1-4-.92v-3.3a7,7,0,0,0,3.7,1.31,1.89,1.89,0,0,0,1.44-.53,2.05,2.05,0,0,0,.48-1.44,2.61,2.61,0,0,0-.57-1.63,8.36,8.36,0,0,0-1.91-1.65,8.31,8.31,0,0,1-1.74-1.53,5.29,5.29,0,0,1-.92-1.64,6.15,6.15,0,0,1-.33-2.11,5.09,5.09,0,0,1,1.28-3.65,4.53,4.53,0,0,1,3.44-1.35,7.54,7.54,0,0,1,4,1.15l-1.11,2.67a10.05,10.05,0,0,0-1.23-.61,3.54,3.54,0,0,0-1.38-.27,1.54,1.54,0,0,0-1.25.53,2.25,2.25,0,0,0-.43,1.46,2.5,2.5,0,0,0,.52,1.58A7.85,7.85,0,0,0,197,163a7.6,7.6,0,0,1,2.45,2.41A5.62,5.62,0,0,1,200.11,168.2Z"/></svg>