<svg id="Capa_1" data-name="Capa 1" xmlns="http://www.w3.org/2000/svg" viewBox="0 0 300 300"><defs><style>.cls-1{fill:#2c57a2;}.cls-2{fill:#8fb4de;}.cls-3{fill:#fff;}</style></defs><circle class="cls-1" cx="150" cy="150" r="144.78" transform="translate(-62.13 150) rotate(-45)"/><circle class="cls-2" cx="150" cy="150" r="133.91"/><circle class="cls-1" cx="150" cy="150" r="125.45"/><path class="cls-3" d="M87.28,122A5.35,5.35,0,0,1,86,125.84a4.8,4.8,0,0,1-3.66,1.34,8.12,8.12,0,0,1-4-.92V123a7,7,0,0,0,3.7,1.31,1.82,1.82,0,0,0,1.44-.53,2,2,0,0,0,.48-1.43,2.64,2.64,0,0,0-.57-1.64A8.88,8.88,0,0,0,81.5,119a8.31,8.31,0,0,1-1.74-1.53,5.24,5.24,0,0,1-.92-1.63,6.19,6.19,0,0,1-.33-2.11,5.12,5.12,0,0,1,1.28-3.66,4.55,4.55,0,0,1,3.45-1.35,7.53,7.53,0,0,1,4,1.15l-1.11,2.68a10.11,10.11,0,0,0-1.23-.62,3.54,3.54,0,0,0-1.38-.27,1.5,1.5,0,0,0-1.24.54,2.22,2.22,0,0,0-.44,1.45,2.48,2.48,0,0,0,.52,1.58,7.84,7.84,0,0,0,1.82,1.54,7.48,7.48,0,0,1,2.45,2.4A5.62,5.62,0,0,1,87.28,122Z"/><path class="cls-3" d="M97,126.93H88.86V109H97v2.88H92.2v4.27h4.41v2.9H92.2v5H97Z"/><path class="cls-3" d="M104.36,117h5.48v9.21a12.55,12.55,0,0,1-5,1,5.53,5.53,0,0,1-4.81-2.38c-1.13-1.59-1.69-3.87-1.69-6.86a10.68,10.68,0,0,1,1.93-6.76,6.5,6.5,0,0,1,5.41-2.44,8.27,8.27,0,0,1,4.1,1.1l-1.06,2.73a5.7,5.7,0,0,0-2.84-.89,3.45,3.45,0,0,0-3,1.7,8.41,8.41,0,0,0-1.11,4.63,10.53,10.53,0,0,0,.81,4.63,2.52,2.52,0,0,0,2.33,1.61,6.79,6.79,0,0,0,1.65-.21v-4.11h-2.22Z"/><path class="cls-3" d="M118.35,126.93l-3.41-15.27h-.13a25.93,25.93,0,0,1,.23,3.24v12H112V109h5.13l3.06,14.09h.1L123.29,109h5.2v17.93h-3.17V114.78a30,30,0,0,1,.17-3.1h-.09L122,126.93Z"/><path class="cls-3" d="M139.11,126.93H131V109h8.08v2.88h-4.75v4.27h4.41v2.9h-4.41v5h4.75Z"/><path class="cls-3" d="M153.66,126.93h-4.08l-5.54-13h-.16a16.06,16.06,0,0,1,.31,3.19v9.8H141.1V109h4.09l5.5,12.85h.13a17.93,17.93,0,0,1-.23-3.06V109h3.07Z"/><path class="cls-3" d="M161.7,126.93h-3.32v-15h-3.44V109h10.2v2.93H161.7Z"/><path class="cls-3" d="M174.06,126.93l-1-4.52h-4.68l-1,4.52H164l4.44-18H173l4.46,18Zm-1.66-7.48-1-4.17c-.05-.25-.18-.89-.38-1.91s-.32-1.7-.37-2c-.1.7-.24,1.48-.4,2.32s-.59,2.78-1.28,5.8Z"/><path class="cls-3" d="M183,126.93h-3.32v-15h-3.44V109h10.2v2.93H183Z"/><path class="cls-3" d="M188.33,126.93V109h3.14v17.93Z"/><path class="cls-3" d="M207,117.94a11.93,11.93,0,0,1-1.67,6.85,6,6,0,0,1-9.56,0q-1.67-2.39-1.67-6.87t1.67-6.83a5.54,5.54,0,0,1,4.81-2.38,5.44,5.44,0,0,1,4.76,2.39Q207,113.49,207,117.94Zm-9.48,0a11.1,11.1,0,0,0,.77,4.68,2.43,2.43,0,0,0,2.27,1.6q3,0,3-6.28t-3-6.28a2.45,2.45,0,0,0-2.29,1.6A11.07,11.07,0,0,0,197.5,117.94Z"/><path class="cls-3" d="M221.53,126.93h-4.08l-5.54-13h-.16a16.06,16.06,0,0,1,.31,3.19v9.8H209V109h4.1l5.5,12.85h.13a17.93,17.93,0,0,1-.23-3.06V109h3.07Z"/><path class="cls-3" d="M153.72,157.09l-.87-1.26a6,6,0,0,1-4.15,1.5A4.85,4.85,0,0,1,145,156a5.1,5.1,0,0,1-1.3-3.7,6.07,6.07,0,0,1,3-5.11,12.25,12.25,0,0,1-1.25-2.3,5.11,5.11,0,0,1-.31-1.79,4.05,4.05,0,0,1,1.19-3.06,4.34,4.34,0,0,1,3.13-1.14,4.11,4.11,0,0,1,3,1.06,3.91,3.91,0,0,1,1.1,2.94,4.81,4.81,0,0,1-.67,2.45,8.6,8.6,0,0,1-2.26,2.35l2.5,3.52a6.82,6.82,0,0,0,.65-1.69c.16-.63.29-1.24.41-1.86H157a16.33,16.33,0,0,1-2,6.11l2.38,3.32ZM147,152a2.71,2.71,0,0,0,.54,1.79,1.8,1.8,0,0,0,1.48.65,3,3,0,0,0,2.15-.9l-2.94-4.25A3.51,3.51,0,0,0,147,152Zm3.51-8.79a1.73,1.73,0,0,0-.32-1.16,1,1,0,0,0-.78-.37,1.12,1.12,0,0,0-.9.4,1.78,1.78,0,0,0-.33,1.16,2.77,2.77,0,0,0,.29,1.25,8.35,8.35,0,0,0,.72,1.16,3.7,3.7,0,0,0,1-1.12A2.68,2.68,0,0,0,150.55,143.19Z"/><path class="cls-3" d="M116.56,187.24l-1-4.53h-4.67l-1,4.53h-3.34l4.44-18h4.53l4.45,18Zm-1.65-7.49-1-4.17c-.06-.25-.19-.89-.39-1.91s-.32-1.69-.36-2c-.1.71-.24,1.48-.4,2.33s-.59,2.78-1.28,5.79Z"/><path class="cls-3" d="M133.43,187.24h-4.07l-5.55-13h-.16a15.35,15.35,0,0,1,.31,3.19v9.8h-3.09V169.3H125l5.49,12.86h.14a17,17,0,0,1-.24-3.07V169.3h3.07Z"/><path class="cls-3" d="M144.46,187.24l-1-4.53h-4.68l-1,4.53h-3.33l4.44-18h4.52l4.46,18Zm-1.66-7.49-1-4.17c-.05-.25-.18-.89-.38-1.91s-.32-1.69-.36-2c-.11.71-.24,1.48-.41,2.33s-.59,2.78-1.27,5.79Z"/><path class="cls-3" d="M148.76,187.24V169.3h3.34v15h4.62v2.92Z"/><path class="cls-3" d="M161.85,176.38l2.39-7.08h3.5l-4.26,10.75v7.19h-3.29v-7.06L156,169.3h3.52Z"/><path class="cls-3" d="M176.87,182.29a5.4,5.4,0,0,1-1.28,3.86,4.79,4.79,0,0,1-3.66,1.33,7.94,7.94,0,0,1-4-.92v-3.3a6.87,6.87,0,0,0,3.69,1.32,1.86,1.86,0,0,0,1.44-.53,2.05,2.05,0,0,0,.48-1.44A2.66,2.66,0,0,0,173,181a8.75,8.75,0,0,0-1.9-1.64,8.73,8.73,0,0,1-1.75-1.53,5.41,5.41,0,0,1-.92-1.64,6.19,6.19,0,0,1-.33-2.11,5.12,5.12,0,0,1,1.28-3.66,4.55,4.55,0,0,1,3.45-1.35,7.54,7.54,0,0,1,4,1.16l-1.11,2.67a10.05,10.05,0,0,0-1.23-.61,3.54,3.54,0,0,0-1.38-.27,1.52,1.52,0,0,0-1.24.53,2.25,2.25,0,0,0-.44,1.46,2.5,2.5,0,0,0,.52,1.58,7.85,7.85,0,0,0,1.82,1.53,7.6,7.6,0,0,1,2.45,2.41A5.58,5.58,0,0,1,176.87,182.29Z"/><path class="cls-3" d="M179.05,187.24V169.3h3.14v17.94Z"/><path class="cls-3" d="M193.52,182.29a5.4,5.4,0,0,1-1.27,3.86,4.81,4.81,0,0,1-3.66,1.33,8,8,0,0,1-4-.92v-3.3a6.87,6.87,0,0,0,3.69,1.32,1.9,1.9,0,0,0,1.45-.53,2.05,2.05,0,0,0,.48-1.44,2.61,2.61,0,0,0-.58-1.64,8.29,8.29,0,0,0-1.9-1.64A9,9,0,0,1,186,177.8a5.87,5.87,0,0,1-.92-1.64,6.45,6.45,0,0,1-.32-2.11,5.12,5.12,0,0,1,1.28-3.66,4.53,4.53,0,0,1,3.44-1.35,7.55,7.55,0,0,1,4,1.16l-1.11,2.67a10.05,10.05,0,0,0-1.23-.61,3.54,3.54,0,0,0-1.38-.27,1.54,1.54,0,0,0-1.25.53A2.25,2.25,0,0,0,188,174a2.5,2.5,0,0,0,.52,1.58,7.64,7.64,0,0,0,1.82,1.53,7.6,7.6,0,0,1,2.45,2.41A5.58,5.58,0,0,1,193.52,182.29Z"/></svg>