<svg id="Capa_1" data-name="Capa 1" xmlns="http://www.w3.org/2000/svg" viewBox="0 0 563.85 475.48"><defs><style>.cls-1{fill:#8ab7e9;}.cls-2{fill:#011e41;}</style></defs><path class="cls-1" d="M265.33,456.31c-2.52-1.15-62.35-28.76-122.67-76.48C106.27,351,77,320.71,55.77,289.69,27.38,248.28,13,205.43,13,162.34c0-83.26,71.32-151,159-151,41.66,0,80.65,15.07,110,42,29.34-26.88,68.34-41.95,110-41.95,87.62,0,158.9,67.75,158.9,151,0,41.72-14.42,83.73-42.86,124.85-21.18,30.6-50.28,60.91-86.5,90.07-60.05,48.36-119.57,77.45-122.07,78.67l-17,8.22Z"/><path class="cls-2" d="M273.65,438.12c-2.42-1.11-60.11-27.72-118.58-74-34.81-27.54-62.67-56.39-82.8-85.75C46.2,240.36,33,201.32,33,162.34c0-72.24,62.35-131,139-131,43.85,0,84.1,19.27,110,51,25.87-31.74,66.13-51,110-51,76.59,0,138.9,58.77,138.9,131,0,37.58-13.22,75.76-39.31,113.47-20.08,29-47.87,57.92-82.59,85.88-58.32,47-115.84,75.07-118.26,76.24L282.22,442Z"/><path class="cls-1" d="M392,51.33c-49.69,0-92.19,28.49-110,68.93-17.84-40.44-60.32-68.93-110-68.93-65.66,0-119,49.7-119,111,0,152.86,229,257.6,229,257.6s228.89-111,228.89-257.6C510.86,101,457.55,51.33,392,51.33Z"/></svg>