<?xml version="1.0" encoding="utf-8"?>
<!-- Generator: Adobe Illustrator 26.0.3, SVG Export Plug-In . SVG Version: 6.00 Build 0)  -->
<svg version="1.1" id="Capa_1" xmlns="http://www.w3.org/2000/svg" xmlns:xlink="http://www.w3.org/1999/xlink" x="0px" y="0px"
	 viewBox="0 0 424 215" style="enable-background:new 0 0 424 215;" xml:space="preserve">
<style type="text/css">
	.st0{fill:#8AB7E9;}
	.st1{fill:#FF6C0E;}
	.st2{fill:#E42E87;}
</style>
<path class="st0" d="M316.6,189.6c0,2.2-0.9,4.3-2.5,6c-1.7,1.7-3.8,2.5-6,2.5l-176,1.3c-2.2,0-4.5-0.9-6-2.4
	c-1.7-1.7-2.5-3.8-2.5-6l-0.2-30.2c0-2.2,0.9-4.5,2.4-6c1.7-1.6,3.8-2.5,6-2.5l175.8-1.2c2.2,0,4.5,0.9,6,2.4c1.6,1.6,2.5,3.8,2.5,6
	L316.6,189.6z M129.6,160.8l0.2,30.2c0,0.6,0.3,1.2,0.8,1.7s1,0.8,1.7,0.8l175.9-1.2c0.6,0,1.2-0.3,1.6-0.8c0.5-0.5,0.8-1.1,0.8-1.7
	l-0.3-30.2c0-0.6-0.3-1.2-0.8-1.6s-1-0.8-1.7-0.8l-44.5,0.1l0.2,11.2c0,0.8-0.3,1.5-0.8,2c-0.4,0.4-1.2,0.8-1.9,0.8
	c-0.7,0-1.5-0.3-2-0.8c-0.4-0.5-0.8-1.2-0.8-2l-0.2-11.2h-6l0.2,11.2c0,0.8-0.3,1.5-0.8,2c-0.4,0.4-1.2,0.8-1.9,0.8s-1.5-0.3-2-0.8
	c-0.4-0.5-0.8-1.2-0.8-2l-0.2-11.2h-6l0.2,20.1c0,0.8-0.3,1.4-0.9,1.8c-0.4,0.4-1.2,0.8-1.9,0.8s-1.3-0.3-2-0.8
	c-0.4-0.5-0.9-1.2-0.9-1.8l-0.2-20.1h-6v11.2c0,0.8-0.3,1.4-0.9,1.8c-0.4,0.4-1.2,0.8-1.9,0.8s-1.3-0.3-2-0.8
	c-0.4-0.5-0.9-1.2-0.9-1.8l-0.2-11.2h-6v11.2c0,0.8-0.3,1.4-0.9,1.8c-0.4,0.4-1.2,0.8-1.9,0.8s-1.3-0.3-2-0.8
	c-0.4-0.5-0.9-1.2-0.9-1.8l-0.2-11.2h-6l0.2,11.2c0,0.8-0.3,1.4-0.9,1.8c-0.4,0.4-1.2,0.8-1.9,0.8s-1.3-0.3-2-0.8
	c-0.4-0.5-0.9-1.2-0.9-1.8v-10.8h-6l0.2,20.1c0,0.8-0.3,1.3-0.9,1.8c-0.4,0.5-1.2,0.8-1.9,0.8s-1.3-0.3-2-0.8
	c-0.4-0.4-0.9-1.2-0.9-1.8l-0.2-20.1h-6l0.2,11.2c0,0.8-0.3,1.5-0.8,1.9c-0.4,0.5-1.2,0.8-1.9,0.8s-1.5-0.3-2-0.8
	c-0.4-0.4-0.8-1.2-0.8-1.9v-11.2h-6l0.2,11.2c0,0.8-0.3,1.5-0.8,1.9c-0.4,0.5-1.2,0.8-1.9,0.8s-1.5-0.3-2-0.8
	c-0.4-0.4-0.8-1.2-0.8-1.9v-11.2h-6l0.2,11.2c0,0.8-0.3,1.5-0.8,1.9c-0.4,0.5-1.2,0.8-1.9,0.8c-0.7,0-1.5-0.3-2-0.8
	c-0.5-0.4-0.8-1.2-0.8-1.9l-0.2-11.2l-21.4,0.3c-0.6,0-1.2,0.3-1.7,0.8s-0.8,1.1-0.8,1.6h-1.5L129.6,160.8z"/>
<path class="st1" d="M366.7,26.6c0-1.7-0.3-3.2-1.1-4.7c-0.6-1.5-1.7-2.8-2.9-3.9c-1.1-1.2-2.4-2.2-3.9-2.8c-1.5-0.8-3.2-1-4.8-1
	c-3.2,0.2-6.3,1.5-8.6,3.6l-2.2,2.2l-57,57l0.4,0.3l-2.1,12.4v0.9c0.2,0.3,0.3,0.6,0.4,0.8v0.2v0.1l-1.9,5.7v0.2v0.1h0.2h0.2l5.7-2
	h0.2h0.1c0.2,0.2,0.5,0.5,0.8,0.5c0.3,0.2,0.6,0.2,0.9,0l12.4-2.1l0.3,0.3L361.2,37l1.3-1.4C365.1,33,366.6,29.9,366.7,26.6
	L366.7,26.6z M348,20c1.6-1.7,3.9-2.5,6.1-2.7c1.2,0,2.4,0.3,3.4,0.9c1.1,0.4,2.1,1.2,2.9,2.1c0.9,0.8,1.5,1.7,2.1,2.7
	c0.4,1.1,0.8,2.2,0.8,3.3c-0.1,2.6-1.2,4.8-3,6.6l-0.8,0.6l-12.8-12.8L348,20z M353.1,31.8l-53.8,53.9l-0.2,0.1l-0.1-0.1l-3.6-3.6
	l-0.1-0.1l0.1-0.2l53.7-53.7l0.2-0.2l0.1,0.2L353.1,31.8z M291.1,76.8l0.2-0.1l52.5-52.5L344,24l0.1,0.2l3,3l0.2,0.1l-0.2,0.2
	L294.6,80l-0.3,0.1l-0.2-0.1l-3-3V76.8z M299.7,91.2l-4.1,0.8l-4,0.8c0,0,0,0-0.1,0c-0.2,0,0,0-0.2,0l-3.1-3.2c0,0,0,0,0-0.1
	c0,0,0,0,0-0.2l1.3-7.5l0.2-0.8v-0.1h0.1h0.2h0.1l9.9,9.9c0,0,0.1,0,0.1,0.2v0.1c0,0,0,0.2-0.1,0.2
	C299.7,91.4,299.7,91.4,299.7,91.2z M356.7,36.8l-52.5,52.5l-0.2,0.1l-0.1-0.1l-2.9-2.9l-0.1-0.1l0.1-0.2l52.5-52.5l0.2-0.2l0.1,0.2
	l2.9,2.8l0.1,0.2L356.7,36.8z"/>
<path class="st1" d="M283.4,138c0.3,0.1,0.6,0.2,0.9,0.2c0.3,0.1,0.6,0.1,0.9-0.1c0.3-0.1,0.6-0.3,0.7-0.4c0.2-0.3,0.5-0.5,0.5-0.7
	l4.7-9.1c0.3-0.5,0.3-1.2,0.2-1.7c0-0.3-0.2-0.6-0.4-0.7c-0.2-0.3-0.5-0.5-0.8-0.5l-3.5-1.8c0.4-2.1,0.6-4.2,0.4-6.4l3.8-1.2
	c0.3-0.1,0.5-0.4,0.7-0.4c0.3-0.2,0.5-0.5,0.5-0.7c0.1-0.3,0.2-0.6,0.2-0.9c0.1-0.3,0.1-0.6-0.1-0.9l-3.2-9.6c0-0.3-0.2-0.6-0.4-0.7
	c0-0.2-0.5-0.5-0.7-0.5c-0.3-0.1-0.6-0.2-0.9-0.2c-0.3-0.1-0.6-0.1-0.9,0.1l-3.8,1.2c-1.3-1.8-2.6-3.3-4.2-4.8l1.8-3.5
	c0.4-0.5,0.3-1.2,0.1-1.6c-0.2-0.6-0.6-1.1-1.2-1.3l-9.2-4.7c-0.5-0.3-1.2-0.3-1.7-0.2c-0.3,0.1-0.5,0.4-0.7,0.4
	c-0.3,0.2-0.5,0.5-0.5,0.8l-1.8,3.5c-2-0.5-4.2-0.6-6.4-0.5l-1.2-3.8c-0.1-0.3-0.2-0.6-0.4-0.7c-0.2-0.3-0.5-0.5-0.8-0.5
	c-0.3-0.1-0.6-0.2-0.9-0.2s-0.6-0.1-0.9,0.1l-9.6,3.2c-0.3,0-0.5,0.4-0.7,0.4c-0.3,0.2-0.5,0.5-0.5,0.8c-0.4,0.5-0.3,1.2-0.1,1.6
	l1.2,3.8c-1.7,1.3-3.4,2.7-4.7,4.3l-3.4-1.8c-0.5-0.4-1.2-0.3-1.7-0.2c-0.3,0-0.6,0.3-0.7,0.4c-0.3,0.2-0.5,0.5-0.5,0.8l-4.6,9.1
	c-0.1,0.3-0.2,0.6-0.2,0.9c-0.1,0.3,0,0.6,0.1,0.9s0.3,0.6,0.4,0.7c0.3,0.2,0.5,0.5,0.7,0.5l3.5,1.8c-0.4,2.1-0.6,4.2-0.5,6.4
	l-3.8,1.2c-0.3,0.1-0.6,0.3-0.7,0.4c-0.3,0.2-0.5,0.5-0.5,0.8c-0.1,0.3-0.2,0.6-0.2,0.9c-0.1,0.3,0,0.6,0.1,0.9l3.2,9.6
	c0.1,0.3,0.4,0.5,0.4,0.7c0.3,0.2,0.5,0.5,0.7,0.5c0.3,0.1,0.6,0.2,0.9,0.2s0.6,0.1,0.9-0.1l3.8-1.2c1.3,1.7,2.6,3.3,4.3,4.7
	l-1.8,3.5c-0.1,0.3-0.2,0.6-0.2,0.9c-0.1,0.3,0,0.6,0.1,0.9s0.4,0.5,0.4,0.7c0.2,0.3,0.5,0.5,0.7,0.5l9.2,4.6
	c0.2,0.1,0.3,0.1,0.4,0.1c0.6,0.2,1.1,0.2,1.6-0.2c0.6-0.2,1-0.6,1.2-1.1l1.8-3.5c2.1,0.4,4.2,0.6,6.4,0.4l1.2,3.8
	c0.1,0.3,0.2,0.6,0.4,0.7c0.3,0.2,0.5,0.5,0.8,0.5c0.5,0.3,1.2,0.3,1.7,0.2l9.6-3.2c0.6-0.2,1.1-0.6,1.3-1.2
	c0.4-0.5,0.3-1.2,0.2-1.7l-1.2-3.8c1.8-1.2,3.4-2.7,4.8-4.2L283.4,138z M277.6,132c-1.7,2.1-4,4.1-6.4,5.3c-0.4,0.2-0.8,0.7-1,1.2
	c-0.1,0.4-0.1,1,0.1,1.6l1.1,3.2l-5.4,1.9l-1-3.4c-0.2-0.6-0.6-1-0.9-1.2c-0.3-0.3-0.9-0.5-1.4-0.4c-2.7,0.3-5.6,0.1-8.3-0.7
	c-0.4-0.1-1-0.2-1.6,0.2c-0.5,0.2-0.8,0.6-1.1,1l-1.5,3.2l-5-2.6l1.5-3.1c0.3-0.4,0.3-1.1,0.1-1.5c-0.2-0.6-0.4-0.9-0.9-1.4
	c-2.2-1.7-4.1-4-5.4-6.3c-0.4-0.4-0.7-0.8-1.1-0.9c-0.5-0.1-1.1-0.1-1.6,0.1l-3.2,1.1l-1.8-5.3l3.2-1.2c0.5-0.2,1-0.6,1.2-0.9
	s0.5-0.9,0.4-1.4c-0.4-2.7-0.2-5.7,0.6-8.4c0.1-0.5,0.1-1-0.2-1.4c-0.2-0.6-0.6-0.8-1-1.1l-3.2-1.5l2.6-5l3.1,1.5
	c0.5,0.2,1.1,0.3,1.5,0.2c0.6-0.2,0.9-0.4,1.4-0.9c1.6-2.1,4-4.1,6.4-5.4c0.4-0.4,0.8-0.7,0.9-1.1s0.1-1-0.1-1.6l-1-3.3l5.4-1.7
	l1.1,3.2c0.2,0.6,0.6,1,0.9,1.2c0.4,0.2,0.9,0.4,1.4,0.4c2.7-0.3,5.7-0.2,8.4,0.6c0.4,0.1,1,0.2,1.4-0.2c0.5-0.2,0.8-0.6,1.2-1.1
	l1.5-3.2l5,2.5l-1.5,3.2c-0.3,0.4-0.3,1-0.1,1.5c0.2,0.5,0.4,0.9,0.7,1.2c2.2,1.7,4.1,4,5.5,6.5c0.2,0.4,0.7,0.8,1.1,0.9
	c0.4,0.1,1,0.2,1.6-0.1l3.2-1.2l1.7,5.4l-3.3,1.3c-0.6,0.2-1,0.6-1.2,0.9c-0.2,0.5-0.4,0.9-0.2,1.5c0.3,2.7,0.1,5.6-0.7,8.3
	c-0.1,0.5-0.1,1,0.2,1.5c0.2,0.6,0.6,0.8,1,1.1l3.2,1.5l-2.5,5l-3.2-1.5c-0.4-0.3-1-0.3-1.5-0.3C278.2,131.4,277.9,131.6,277.6,132
	L277.6,132z"/>
<path class="st2" d="M237,97.2c1.1,0.1,2.2,0,3.2-0.6c0.9-0.6,1.5-1.6,1.8-2.7l3.4-18.4c0.2-0.6,0.2-1.1,0-1.6
	c-0.2-0.6-0.3-1.1-0.6-1.5c-0.3-0.5-0.8-0.9-1.2-1.2c-0.5-0.3-0.9-0.4-1.5-0.6l-7.1-1.4c-0.3-3.9-1.2-7.8-2.4-11.4l6-4.1
	c0.5-0.3,0.9-0.8,1.2-1.2c0.3-0.5,0.4-0.9,0.6-1.5s0.2-1.1,0-1.6c-0.2-0.6-0.3-1.1-0.6-1.5l-10.5-15.5c-0.3-0.4-0.8-0.9-1.2-1.2
	s-0.9-0.5-1.5-0.6c-0.6-0.2-1-0.2-1.7,0c-0.6,0.1-1,0.3-1.5,0.6l-6,4c-3-2.5-6.3-4.6-9.8-6.4l1.3-7.1c0.2-1.1,0-2.2-0.6-3.2
	c-0.6-0.9-1.5-1.5-2.7-1.8l-18.3-3.2c-0.6-0.2-1-0.2-1.7,0c-0.6,0.1-1,0.3-1.5,0.6c-0.9,0.6-1.5,1.7-1.8,2.7l-1.3,7
	c-3.9,0.3-7.8,1.2-11.4,2.4l-4.1-6c-0.3-0.4-0.8-0.9-1.2-1.2c-0.5-0.3-0.9-0.4-1.5-0.6c-1.1-0.2-2.2,0-3.2,0.6l-15.3,10.5
	c-0.5,0.3-0.9,0.8-1.2,1.2c-0.3,0.4-0.5,0.9-0.6,1.5c-0.2,1,0,2.2,0.6,3.1l4,6c-2.5,3-4.7,6.3-6.5,9.8l-7-1.4c-0.6-0.1-1-0.1-1.7,0
	c-0.6,0.1-1,0.3-1.5,0.6s-0.9,0.8-1.2,1.2c-0.3,0.5-0.5,0.9-0.6,1.5l-3.4,18.5c-0.2,1.1,0,2.2,0.6,3.1s1.7,1.5,2.7,1.8l7,1.4
	c0.3,3.9,1.2,7.8,2.4,11.4l-6,4c-0.5,0.3-0.9,0.8-1.2,1.2c-0.3,0.4-0.5,0.9-0.6,1.5c-0.2,0.6-0.2,1,0,1.6s0.3,1,0.6,1.5l10.5,15.5
	c0.3,0.5,0.8,0.9,1.2,1.2c0.5,0.3,0.9,0.5,1.5,0.6c0.6,0.1,1,0.1,1.7,0c0.6-0.2,1-0.3,1.5-0.6l6-4c3,2.5,6.3,4.7,9.7,6.5l-1.3,7
	c-0.2,1.1,0,2.2,0.6,3.1c0.6,0.9,1.7,1.5,2.7,1.8l18.3,3.6h0.8c0.9,0,2-0.3,2.7-0.9c0.8-0.6,1.2-1.5,1.5-2.4l1.3-7
	c3.9-0.3,7.7-1.2,11.4-2.4l4,6c0.3,0.5,0.8,0.9,1.2,1.2s0.9,0.4,1.5,0.6c0.6,0.1,1,0.1,1.7,0c0.6-0.2,1-0.3,1.5-0.6l15.4-10.5
	c0.9-0.6,1.5-1.7,1.8-2.7c0.2-1,0-2.2-0.6-3.2l-4.1-6c2.6-3,4.7-6.3,6.5-9.8L237,97.2z M223.6,89.5c-2,4.8-4.8,9.2-8.4,12.8
	c-0.6,0.8-1.1,1.7-1.2,2.5c-0.2,0.9,0.2,2,0.8,2.7l3.6,5.2l-8.5,5.9l-3.6-5.2c-0.6-0.8-1.3-1.4-2.2-1.7s-2-0.1-2.8,0.2
	c-4.8,2-9.9,3-15,3.1c-0.9,0-1.8,0.3-2.6,1c-0.8,0.6-1.2,1.5-1.3,2.4l-1.2,6.2l-10.2-2l1.2-6.1c0.2-0.9,0-2-0.5-2.7
	c-0.4-0.9-1.2-1.5-2.1-1.8c-4.8-2-9.2-4.8-12.7-8.4c-0.8-0.6-1.7-1-2.5-1.2c-0.9-0.1-2,0.2-2.7,0.8l-5.2,3.6l-5.8-8.5l5.2-3.6
	c0.8-0.6,1.3-1.3,1.7-2.2c0.3-0.9,0.2-2-0.2-2.8c-2-4.8-3-9.9-3.2-15c0-0.9-0.5-1.8-1-2.6s-1.5-1.2-2.4-1.3l-6.2-1.2l2-10.2l6.3,1.2
	c0.9,0.1,2,0,2.7-0.5c0.9-0.4,1.5-1.2,1.8-2.1c2-4.8,4.8-9.1,8.4-12.8c0.6-0.8,1-1.6,1.2-2.5s-0.2-2-0.8-2.7l-3.6-5.2l8.5-5.8
	l3.6,5.3c0.6,0.8,1.3,1.4,2.2,1.6c0.9,0.3,1.9,0.3,2.8-0.1c4.8-2,9.9-3,15-3.1c0.9,0,1.9-0.3,2.5-1.1c0.8-0.6,1.2-1.5,1.3-2.4
	l1.2-6.2l10.2,1.9l-1.2,6.1c-0.2,0.9,0,2,0.4,2.7c0.5,0.9,1.2,1.5,2.1,2c4.8,1.9,9.2,4.8,12.8,8.4c0.8,0.6,1.7,1,2.6,1.2
	c0.9,0.1,1.9-0.1,2.7-0.8l5.2-3.6l5.8,8.6l-5.2,3.6c-0.8,0.6-1.3,1.4-1.7,2.2c-0.3,0.9-0.2,1.9,0.2,2.9c2,4.8,3,9.9,3.2,15
	c0,0.9,0.3,1.9,0.9,2.6c0.6,0.6,1.5,1.2,2.4,1.3l6.2,1.2l-2.2,10l-6.2-1.2c-0.9-0.1-1.9,0-2.7,0.5C224.7,87.9,224.1,88.6,223.6,89.5
	L223.6,89.5z"/>
<path class="st2" d="M190,49.8c-3.2-0.8-6.5-0.8-9.6-0.1c-3.1,0.6-6.2,1.8-8.8,3.6c-2.7,1.8-5,4-6.8,6.8c-1.8,2.7-3,5.7-3.6,8.9
	c-0.6,3.1-0.6,6.4,0.2,9.6c0.8,3.2,1.9,6.2,3.9,8.9c1.8,2.7,4.2,5,7,6.6c2.7,1.7,5.8,2.9,9,3.3c1.5,0.3,3,0.5,4.5,0.5
	c6,0,11.8-2.2,16.2-6.3c4.5-4,7.2-9.6,7.8-15.6s-1-12-4.8-16.8C201.1,54.1,195.9,51,190,49.8L190,49.8z M202.6,76.8
	c-0.5,2.2-1.3,4.4-2.6,6.3c-1.2,2-2.8,3.6-4.8,4.8c-2,1.4-4.1,2.2-6.3,2.7s-4.5,0.5-6.8,0c-4.2-0.8-8.1-3.1-10.7-6.6
	c-2.5-3.5-3.8-7.8-3.4-12.2c0.4-4.3,2.4-8.4,5.5-11.2c3.2-3,7.3-4.5,11.7-4.6c1,0,2.2,0.1,3.3,0.3c4.5,0.9,8.6,3.5,11.1,7.4
	C202.5,67.5,203.4,72.3,202.6,76.8z"/>
<path class="st1" d="M263.3,105c-1.8-0.6-3.5-0.9-5.6-0.7c-1.8,0.2-3.7,0.6-5.3,1.6c-1.8,0.9-3.2,2-4.3,3.5c-1.2,1.4-2,3.2-2.5,4.9
	c-0.4,1.8-0.6,3.8-0.2,5.5c0.3,1.8,0.9,3.6,1.8,5.2s2.3,2.9,3.7,4.1c1.6,1,3.4,1.8,5,2.2c0.9,0.2,1.7,0.4,2.6,0.5
	c3.3,0.2,6.5-0.9,9-2.9c2.6-2,4.3-4.9,4.8-8.2c0.6-3.3-0.1-6.6-1.8-9.5C269,108.1,266.5,105.9,263.3,105L263.3,105z M267.9,120.3
	c-0.6,2.4-2.2,4.5-4.3,5.6c-2.1,1.3-4.8,1.6-7.1,0.9c-2.3-0.7-4.2-2.1-5.3-4.1c-1.3-2-1.7-4.3-1.4-6.7c0.4-2.3,1.6-4.3,3.5-5.8
	c1.9-1.4,4.1-2.1,6.4-1.9c0.6,0,1.2,0.1,1.7,0.3c1.1,0.4,2.3,0.9,3.3,1.7c0.9,0.8,1.7,1.7,2.4,2.8c0.7,1,1,2.2,1.2,3.5
	C268.4,117.8,268.3,119.2,267.9,120.3L267.9,120.3z"/>
</svg>
