<?xml version="1.0" encoding="utf-8"?>
<!-- Generator: Adobe Illustrator 25.2.0, SVG Export Plug-In . SVG Version: 6.00 Build 0)  -->
<svg version="1.1" xmlns="http://www.w3.org/2000/svg" xmlns:xlink="http://www.w3.org/1999/xlink" x="0px" y="0px"
	 viewBox="0 0 290 161.3" style="enable-background:new 0 0 290 161.3;" xml:space="preserve">
<style type="text/css">
	.st0{fill:#0A1E3F;}
	.st1{fill:#95B6E5;}
	.st2{fill:none;}
	.st3{fill:#041E42;}
	.st4{fill:#FFFFFF;}
</style>
<symbol  id="Blue" viewBox="-102 -27.2 203.9 54.5">
	<g>
		<path class="st0" d="M-102,26.1h30.4c5.1,0,8.9-1.3,11.7-3.8c2.7-2.5,4.1-5.6,4.1-9.3c0-3.1-1-5.8-2.9-8c-1.3-1.5-3.2-2.7-5.6-3.5
			c3.8-0.9,6.5-2.5,8.3-4.7c1.8-2.2,2.7-5,2.7-8.3c0-2.7-0.6-5.2-1.9-7.3c-1.3-2.2-3-3.9-5.2-5.1c-1.4-0.8-3.4-1.4-6.1-1.7
			c-3.7-0.5-6.1-0.7-7.3-0.7h-28V26.1z M-85.6,5.5h7.1c2.5,0,4.3,0.4,5.3,1.3c1,0.9,1.5,2.1,1.5,3.8c0,1.5-0.5,2.7-1.5,3.6
			c-1,0.9-2.7,1.3-5.2,1.3h-7.2V5.5z M-85.6-15h8.3c2.8,0,4.8,0.5,5.9,1.5c1.2,1,1.7,2.3,1.7,4c0,1.5-0.6,2.8-1.7,3.7
			c-1.1,0.9-3.1,1.4-6,1.4h-8.3V-15z"/>
		<path class="st1" d="M-52.3,26.1h16.2v-39.5h25.3v-12.9h-41.4V26.1z"/>
		<path class="st1" d="M23.1,26.1h16.2V-5.2c0-3.1-0.5-6-1.4-8.8c-1-2.8-2.5-5.2-4.5-7.2c-2.1-2.1-4.2-3.5-6.5-4.3
			c-3.1-1.2-6.9-1.8-11.3-1.8c-2.6,0-5.3,0.2-8.4,0.5c-3,0.3-5.5,1.1-7.6,2.1c-2,1.1-3.9,2.6-5.6,4.5c-1.7,1.9-2.8,4-3.5,6
			c-1,3.3-1.5,6.3-1.5,8.9v31.2H5.2v-32c0-2.9,0.8-5.1,2.4-6.7c1.6-1.6,3.8-2.4,6.6-2.4c2.8,0,5,0.8,6.6,2.4
			c1.6,1.6,2.4,3.8,2.4,6.7V26.1z"/>
		<g>
			<path class="st1" d="M59.4-3.9c0.5-5.8,3.9-9.9,10-9.9c3.2,0,6.6,1.2,8.2,3.6H96c-4-11-14.8-16.1-26.4-16.1
				c-16.4,0-28.8,9.6-28.8,26.6c0,14.8,10.9,26.9,27.1,26.9c20.4,0,29.2-11.3,29.2-31.1H59.4z M78.3,6.2c0,4.7-3.6,8.5-8.6,8.5
				c-5.8,0-9.2-3-10.1-8.5H78.3z"/>
		</g>
	</g>
	<g>
		<path class="st0" d="M102,21.3c0-2.4-2-4.4-4.4-4.4c-2.5,0-4.5,1.9-4.5,4.4c0,2.4,2,4.3,4.5,4.3C100,25.6,102,23.7,102,21.3z
			 M94.2,21.3c0-1.9,1.5-3.5,3.4-3.5c1.9,0,3.3,1.5,3.3,3.4c0,1.9-1.4,3.5-3.4,3.5C95.6,24.7,94.2,23.2,94.2,21.3z M96.8,19h-1v4.3
			c0.4,0.1,1,0.1,1.7,0.1c0.8,0,1.2-0.1,1.5-0.3c0.3-0.2,0.4-0.5,0.4-0.9c0-0.5-0.4-0.9-0.9-1v-0.1c0.4-0.1,0.6-0.5,0.8-1.1
			c0.1-0.7,0.2-0.9,0.3-1.1h-1.1c-0.1,0.2-0.2,0.5-0.3,1.1c-0.1,0.4-0.3,0.7-0.9,0.7h-0.5V19z M96.9,21.5h0.5c0.5,0,1,0.2,1,0.6
			c0,0.4-0.3,0.7-0.9,0.7c-0.3,0-0.4,0-0.6-0.1V21.5z"/>
	</g>
</symbol>
<g id="Capa_1">
</g>
<g id="OBJECTS">
	<g>
		<g>
			<path class="st0" d="M151.1,123.1h11.2L166,138h0.1l3.7-14.9h11.2v25.4h-7.5v-16.3h-0.1l-4.4,16.3h-5.9l-4.4-16.3h-0.1v16.3h-7.5
				V123.1z"/>
			<path class="st0" d="M201.2,144.4c0,1.4,0.1,3,0.9,4.1h-7.2c-0.2-0.5-0.3-1.2-0.3-1.7h-0.1c-1.5,1.7-3.7,2.2-6,2.2
				c-3.6,0-6.6-1.7-6.6-5.6c0-5.8,6.9-5.6,10.5-6.3c1-0.2,1.9-0.5,1.9-1.6c0-1.2-1.2-1.7-2.3-1.7c-2.2,0-2.6,1.1-2.7,1.9h-6.6
				c0.1-2.6,1.4-4.1,3.2-5c1.8-0.9,4.2-1.1,6.3-1.1c8.9,0,8.8,3.7,8.8,7.2V144.4z M194.4,140.2c-0.9,0.4-1.8,0.7-2.8,0.9
				c-1.6,0.4-2.4,0.7-2.4,2c0,0.9,0.9,1.7,2.2,1.7c1.6,0,2.9-1,3-2.9V140.2z"/>
			<path class="st0" d="M213.9,135.4c0-0.6-0.4-1.1-0.8-1.4c-0.4-0.4-1-0.5-1.6-0.5c-1,0-2.1,0.2-2.1,1.4c0,0.5,0.4,0.8,0.8,1
				c1.2,0.5,3.9,0.6,6.2,1.4c2.4,0.7,4.4,2.1,4.4,5.2c0,5.1-4.9,6.5-9.5,6.5c-4.4,0-9.2-1.7-9.3-6.5h6.8c0,0.6,0.3,1.2,0.9,1.6
				c0.4,0.3,1,0.5,1.9,0.5c0.9,0,2.4-0.4,2.4-1.4c0-1.1-0.6-1.4-3.9-2c-5.4-0.9-7.6-2.6-7.6-5.8c0-4.7,5.1-5.9,8.8-5.9
				c4,0,8.8,1.1,9,5.8H213.9z"/>
			<path class="st0" d="M222.1,123.1h7.1v12.3l4.5-5.3h8l-6.6,7l7.7,11.5h-8.5l-3.8-6.7l-1.3,1.4v5.3h-7.1V123.1z"/>
		</g>
		
			<use xlink:href="#Blue"  width="203.9" height="54.5" x="-102" y="-27.2" transform="matrix(0.4757 0 0 -0.4757 95.7199 135.7963)" style="overflow:visible;"/>
	</g>
</g>
<g id="Layer_1">
	<path class="st2" d="M198.6,56.1c-2.1,4.8-5.7,9.1-10.2,12.8c4.6-1.1,9.2-2.3,13.4-3.7c17.1-5.5,20.3-14.8,25.7-30.9
		c3.5-10.5-8.5-11.9-24-9.5l0.4,1.5C204,26.7,207,37.1,198.6,56.1z"/>
	<path class="st3" d="M138.1,70.4c-4.1-14.7,8.6-27.5,38.9-39.3c7.9-3.1,16.8-5.9,25-7.6l-2.7-0.5c-0.3,0-6.7-1.3-24.7-4.2
		C155.5,15.7,147.4,7.9,147,7.9l-1.3-0.2l-1.3,0.2c-0.4,0-10,7.8-29.1,10.9c-18,3-24.4,4.2-24.7,4.2l-3.9,0.7l-0.7,2.6
		C86,26.8,83,39.2,91.4,61.4c7.5,19.7,32.4,31.6,51.5,35.8l2.1,0.5l2.1-0.5c12.8-2.8,28.3-9.2,39.4-19
		C165.5,83.6,142.1,84.6,138.1,70.4z"/>
	<path class="st3" d="M140.1,69.7c3.8,13.5,26.8,12.6,48.3,6.7c4.5-4.4,8-9.4,10.2-15c8.4-22.2,5.5-34.5,5.3-35.1l-0.4-1.7
		c-8.3,1.6-17.6,4.4-26.1,7.7C153.2,41.7,135.5,53.4,140.1,69.7z"/>
	<path class="st3" d="M224.6,23.7c-5.2-1.8-13.4-1.4-22.5,0.2l1.2,0.2l0.2,0.7c15.5-2.5,27.5-1,24,9.5c-5.4,16.1-8.6,25.5-25.7,30.9
		c-4.3,1.4-8.8,2.6-13.4,3.7c-0.6,0.5-1.3,1-1.9,1.5c5.5-1.2,10.9-2.6,15.7-4.2c0.2-0.1,0.4-0.1,0.5-0.2c18.1-6,21.5-16.3,26.7-32
		C231.1,28.9,229.5,25.4,224.6,23.7z"/>
	<path class="st3" d="M65.9,23.7c5.2-1.8,13.4-1.4,22.5,0.2L87.3,24L87,24.7c-15.5-2.5-27.5-1-24,9.5c5.4,16.1,8.6,25.5,25.7,30.9
		c4.3,1.4,8.8,2.6,13.4,3.7c0.6,0.5,1.3,1,1.9,1.5c-5.5-1.2-10.9-2.6-15.7-4.2c-0.2-0.1-0.4-0.1-0.5-0.2c-18.1-6-21.5-16.3-26.7-32
		C59.4,28.9,61,25.4,65.9,23.7z"/>
	<path class="st3" d="M177.4,32.3c8.4-3.3,17.7-6.2,26.1-7.7l-0.2-0.8l-1.2-0.2c-8.2,1.7-17.2,4.5-25,7.6
		c-30.3,11.8-43.1,24.6-38.9,39.3c4,14.2,27.4,13.1,48.3,7.8c0.7-0.6,1.3-1.2,1.9-1.8c-21.5,5.8-44.5,6.7-48.3-6.7"/>
	<path class="st4" d="M145,95.2l-0.9-0.2c-18.2-4-42-15.4-49.1-34.2c-8.3-21.8-5.4-33.6-5.3-34.1l0.3-1.1l1.7-0.3
		c0.3,0,6.6-1.2,24.6-4.2c19.1-3.1,28.6-10.9,28.9-10.9l0.5-0.1l0.5,0.1c0.4,0,8.4,7.8,27.5,10.9c18,3,24.3,4.2,24.6,4.2l1.7,0.3
		l0.3,1.1c0.1,0.5,3,12.3-5.3,34.1C187.9,79.6,164.1,91,145.9,95L145,95.2z M95,28.4c-0.5,3.3-1.2,14.3,5.4,31.6
		c6.5,17.1,27.9,27.6,44.6,31.5c16.8-3.9,38.1-14.4,44.6-31.5c6.6-17.4,5.9-28.3,5.4-31.6c-3-0.5-9.9-1.8-22.7-3.9
		c-16.3-2.7-24.4-10.5-26.6-10.8c-2.2,0.3-11.8,8.1-28.1,10.8C104.9,26.6,97.9,27.8,95,28.4z"/>
	<path class="st1" d="M145.7,11.9c0,0,8.1,7.7,27.3,10.9c18.1,3,24.5,4.2,24.5,4.2s3,11.7-5.2,33.4c-6.6,17.5-28.4,28.7-47.3,32.9
		c-18.9-4.2-40.7-15.4-47.3-32.9C89.5,38.7,92.4,27,92.4,27s6.4-1.2,24.5-4.2C136.2,19.6,145.7,11.9,145.7,11.9z"/>
</g>
<g id="Modo_de_aislamiento">
</g>
</svg>
