<svg id="Capa_1" data-name="Capa 1" xmlns="http://www.w3.org/2000/svg" viewBox="0 0 581.31 124.76"><defs><style>.cls-1{fill:#a0c754;}.cls-2{fill:#552f81;}.cls-3{fill:#de6a37;}</style></defs><path class="cls-1" d="M142.24,82.37a16,16,0,0,0-10.38-.6c-3.91,1.19-6.75,3.53-7.47,7.77-.53,3.06.6,5.69,2.52,8,.6.73,1.26,1.4,1.94,2.16-.3,0-.68,0-1,0a6.18,6.18,0,0,0-5.82,4.35c-.52,2,.27,3,2.27,3,6.83.1,13.66.28,20.49.28a24.41,24.41,0,0,0,10.59-2.23c10.27-4.87,14.91-20.59,5-30a19.2,19.2,0,0,0-2.14-1.67,1.07,1.07,0,0,0-1.61.25,1.35,1.35,0,0,0,.05,1.92,1.94,1.94,0,0,0,.31.26c6.91,5.34,7,14.75,1.93,21-.28.35-.6.68-1,1.11-.13-1.7-.15-3.27-.38-4.8A21.35,21.35,0,0,0,152,82.1c-2.4-2.69-5-5.14-7.48-7.8a68.67,68.67,0,0,1-5.8-7,35.46,35.46,0,0,1-2.66-5.66,31.9,31.9,0,0,1-4.36,0c-5.08-.7-8-4.23-7.84-9.34A20.83,20.83,0,0,1,126.21,44c-.43,1.92-.91,3.66-1.2,5.43a12.3,12.3,0,0,0-.05,3.32c.52,4.32,3.46,7,7.9,7.33a11.66,11.66,0,0,0,7.72-2.18,7.83,7.83,0,0,0,3-9.45c-1.11-3.11-3.25-5.46-5.6-7.67A10.31,10.31,0,0,1,136.4,39a14.94,14.94,0,0,0-19.93-4.57,21.09,21.09,0,0,0-3.5,2.54c-2.54,2.26-5.37,3.54-8.84,3.06a5.43,5.43,0,0,0-1.61,0,3.4,3.4,0,0,1-3.17-.79c-1.18-1.09-3.17-.46-4,1a2.91,2.91,0,0,0,1.19,4c.33.19.75.49.84.82a16.82,16.82,0,0,0,12.39,12.1c1.66.46,3.34.79,5,1.22,2.18.57,2.75,1.65,1.93,3.75-.53,1.34-1.18,2.64-1.8,3.94a20.89,20.89,0,0,0-1.38,14.64c.75,2.9,1.72,5.75,2.27,8.68a26.27,26.27,0,0,1,.34,6.51c-.18,2.65-1.58,3.77-4.22,3.9a6.22,6.22,0,0,0-5.93,4.35c-.51,2,.29,3,2.28,3,2.66,0,5.32,0,8,0a3.44,3.44,0,0,0,3-1.33,33.17,33.17,0,0,0,2.54-4.09,26,26,0,0,0,1.27-3.29,7.1,7.1,0,0,0,.14-5.12,9.27,9.27,0,0,1,5-11.59C133,79.37,137.68,80.06,142.24,82.37ZM114.61,41c.11-1.77,1.23-2.9,2.72-2.84A2.87,2.87,0,0,1,120,41.1a2.63,2.63,0,0,1-2.65,2.66c1.08-1.23,1.18-2.4.3-3.24S115.79,39.85,114.61,41Z"/><path class="cls-1" d="M65.92,38.86A12.08,12.08,0,0,1,76.6,32.37a12.59,12.59,0,0,1,4.52.88A10.68,10.68,0,0,1,85,35.67,11.41,11.41,0,0,1,87.33,39a19.17,19.17,0,0,1,1.38,4.73l8.37,47.34c.15.81.26,1.54.33,2.21a15.33,15.33,0,0,1,.11,1.87,11.71,11.71,0,0,1-.93,4.68,11.46,11.46,0,0,1-2.54,3.69A12.61,12.61,0,0,1,90.26,106a11.82,11.82,0,0,1-4.63.93,12.72,12.72,0,0,1-7.93-2.52,10.65,10.65,0,0,1-4.07-6.72L70.87,83.89l-4.73,13q-3.63,10-12.44,10a11.6,11.6,0,0,1-7.48-2.36A16.55,16.55,0,0,1,41.37,97L36.52,83.89l-2,11.68a14.13,14.13,0,0,1-4.12,8.31,11.27,11.27,0,0,1-8,3,11.44,11.44,0,0,1-8.81-3.68,13.44,13.44,0,0,1-3.41-9.52c0-.51,0-1,0-1.49s.09-1,.16-1.49l8.37-47a14.57,14.57,0,0,1,4-8.32,10.91,10.91,0,0,1,7.87-3A13.2,13.2,0,0,1,42.8,40.52L53.7,64.85Z"/><path class="cls-2" d="M566.63,54.34a8.19,8.19,0,0,0-11.11,3.35,10.57,10.57,0,0,1-5.85,4.77L538.18,40.67C535,34.56,526.72,31,520.61,34.16a12.53,12.53,0,0,0-5.23,16.9l14.13,26.79H517.22a11.8,11.8,0,0,0-21.55-9.48L485,88.43A11.81,11.81,0,1,0,505.89,99.5l1.17-2.2h32.7l1.32,2.5A12.5,12.5,0,1,0,563.2,88.13l-5.84-11.08A26.29,26.29,0,0,0,570,65.45a8.21,8.21,0,0,0-3.36-11.11"/><path class="cls-3" d="M240.42,57.48H229.08V46.14a12.62,12.62,0,1,0-25.24,0V57.48H192.5a12.62,12.62,0,0,0,0,25.24h11.34V94.06a12.62,12.62,0,0,0,25.24,0V82.72h11.34a12.62,12.62,0,1,0,0-25.24"/><path class="cls-2" d="M491.48,44A10.52,10.52,0,0,0,481,33.52H433a10.52,10.52,0,0,0,0,21h11.34v39.5a12.63,12.63,0,0,0,25.25,0V54.56H481A10.52,10.52,0,0,0,491.48,44"/><path class="cls-2" d="M335,36.75a12.63,12.63,0,0,0-17.83,1l-20.1,22.4v-14a12.62,12.62,0,1,0-25.24,0V94.06a12.62,12.62,0,0,0,25.24,0V80.43l20.17,22.13a12.62,12.62,0,1,0,18.65-17L322,70.22l14-15.65a12.62,12.62,0,0,0-1-17.82"/><path class="cls-2" d="M382.39,32.49a37.44,37.44,0,1,0,37.43,37.44,37.48,37.48,0,0,0-37.43-37.44m0,52.81a15.37,15.37,0,1,1,15.37-15.37A15.39,15.39,0,0,1,382.39,85.3"/><path class="cls-2" d="M566.53,32.76A4.55,4.55,0,1,1,562,37.28a4.52,4.52,0,0,1,4.58-4.52m0,8.43a3.88,3.88,0,1,0-3.75-3.91,3.75,3.75,0,0,0,3.75,3.91m-1.77-6.55h2c1.27,0,1.86.5,1.86,1.52a1.37,1.37,0,0,1-1.4,1.45L568.79,40h-.88l-1.45-2.29h-.88V40h-.82Zm.82,2.36h.87c.73,0,1.4,0,1.4-.87s-.61-.82-1.17-.82h-1.1Z"/><ellipse class="cls-3" cx="105.01" cy="26.99" rx="9.31" ry="9.61" transform="translate(-2.67 14.29) rotate(-7.69)"/></svg>