<?xml version="1.0" encoding="utf-8"?>
<!-- Generator: Adobe Illustrator 24.2.3, SVG Export Plug-In . SVG Version: 6.00 Build 0)  -->
<svg version="1.1" id="Capa_1" xmlns="http://www.w3.org/2000/svg" xmlns:xlink="http://www.w3.org/1999/xlink" x="0px" y="0px"
	 viewBox="0 0 3352.5 1315.8" style="enable-background:new 0 0 3352.5 1315.8;" xml:space="preserve">
<style type="text/css">
	.st0{fill:#FFFFFF;}
</style>
<path class="st0" d="M518.3,1124.6l-24.6,89.1h-80.9l105.8-347.6h103.2L730,1213.7h-85l-26.7-89.1H518.3z M606.6,1065.8L585,992.1
	c-6.2-20.5-12.3-46.5-17.5-67h-1c-5.1,20.5-10.3,47-15.9,67l-20.5,73.7H606.6z"/>
<path class="st0" d="M769.8,1046.3c0-33.1-1-60.8-2-84.5h68l3.6,35.2h1c18.5-26.2,47.5-40.8,83.9-40.8c55.2,0,104.7,48,104.7,128.3
	c0,91.9-58.3,135-114.5,135c-30.3,0-54.2-12.3-65.5-28.8h-1v125h-78.3L769.8,1046.3z M848.4,1105.6c0,5.5,0.5,11,1.5,16.4
	c5.1,21,23.1,37.2,46,37.2c34.1,0,54.2-28.2,54.2-71.1c0-40.3-18-70.6-53.1-70.6c-22.1,0-41.8,16.4-47,39.8c-1,4.5-1.6,9.2-1.5,13.9
	L848.4,1105.6z"/>
<path class="st0" d="M1078.1,1044.8c0-37.2-0.5-61.3-2.1-82.9h67.3l3.1,46.5h2c12.8-37.2,43.4-52.6,68-52.6c5.5-0.1,11,0.4,16.4,1.5
	v73.7c-6.9-1.3-14-2-21-2c-29,0-48.5,15.4-53.7,39.8c-1.1,5.8-1.6,11.6-1.5,17.5v127.8h-78.3L1078.1,1044.8L1078.1,1044.8z"/>
<path class="st0" d="M1330.4,1112.8c2.1,32.6,34.7,48,71.1,48c26.7,0,48.5-3.6,69.6-10.8l10.3,53.1c-25.7,10.8-57.2,15.9-91.4,15.9
	c-85.5,0-134.5-49.5-134.5-128.3c0-63.9,39.8-134.5,127.3-134.5c81.4,0,112.4,63.4,112.4,125.8c0,10.4-0.9,20.8-2.6,31.1h-162.3
	V1112.8z M1422.6,1059.1c0-19-8.2-51.1-44.4-51.1c-33.1,0-46.5,30.5-48.5,51.1H1422.6z"/>
<path class="st0" d="M1542.2,1042.2c0-31.3-1-57.8-2.1-80.3h68l3.6,35.2h1.5c10.3-16.4,35.7-40.8,77.8-40.8
	c51.6,0,90.1,34.7,90.1,108.8v148.9h-78.3v-139.6c0-32.6-11.3-54.7-39.8-54.7c-21.6,0-34.7,14.9-40.3,29.3
	c-2.1,5.1-2.6,12.3-2.6,19.5v145.3h-78.3v-171.5H1542.2z"/>
<path class="st0" d="M2088.8,847.9v290.8c0,28.2,1,58.3,2.1,75.2h-69.6l-3.1-36.7h-1.5c-15.4,27.7-46.5,42.4-78.8,42.4
	c-59.8,0-107.8-51.1-107.8-129.4c-0.5-85,52.6-134.5,112.9-134.5c31.3,0,55.2,11.3,66.5,28.2h1v-136L2088.8,847.9z M2010.4,1068.4
	c0-4.1,0-9.8-1-14.4c-4.6-20.5-21.6-38.2-45.9-38.2c-36.2,0-54.2,32.1-54.2,71.6c0,42.9,21.1,69.6,53.7,69.6
	c22.6,0,41.3-15.4,45.9-37.7c1-5.9,1.6-12,1.5-18L2010.4,1068.4z"/>
<path class="st0" d="M2400.6,1085.1c0,92.4-65.4,134.5-133,134.5c-73.7,0-130.4-48.5-130.4-129.9c0-81.9,53.6-134,135-134
	C2349,955.7,2400.6,1008.6,2400.6,1085.1z M2218.1,1087.6c0,43.4,18,75.7,51.6,75.7c31.1,0,50-30.6,50-76.2
	c0-37.2-14.4-75.2-50-75.2C2232.8,1011.6,2218.1,1050.4,2218.1,1087.6z"/>
<path class="st0" d="M1084.5,478.2c-0.8-21.8-1.6-48-1.6-74.4h-0.5c-5.9,23.1-13.3,49-20.5,70.1l-22.1,70.6h-32.1l-19.2-69.8
	c-5.9-21.6-11.8-47.2-16.4-70.9h-0.5c-0.8,24.4-1.8,52.4-3.1,75l-3.6,68.8h-38l11.5-181.3h54.7l17.7,60.6
	c5.9,21,11.3,43.6,15.4,64.7h1c4.9-21.1,11-44.9,17.2-64.9l19-60.3h54.2l9.8,181.2h-39.8L1084.5,478.2z"/>
<path class="st0" d="M1189.8,494.9c1,16.9,18,24.9,37.2,24.9c13.9,0,25.2-1.8,36.2-5.7l5.4,27.7c-13.3,5.6-29.8,8.2-47.5,8.2
	c-44.7,0-70.1-25.9-70.1-67c0-33.4,20.8-70.1,66.5-70.1c42.4,0,58.5,33.1,58.5,65.7c0,5.4-0.4,10.8-1.3,16.2H1189.8z M1237.8,466.9
	c0-10-4.4-26.7-23.1-26.7c-17.2,0-24.1,15.9-25.2,26.7H1237.8z"/>
<path class="st0" d="M350.1,875.9l19.5,64.7c2.1,7.4,4.9,17.5,6.4,24.4h1c1.5-7.2,3.9-16.9,5.6-24.6l16.4-64.4h43.6l-30.5,86.5
	c-18.7,52.4-31.3,73.2-46.2,86.2c-13.9,12.3-29,16.9-39.3,18l-9-34.4c6.2-1.5,12.2-3.8,17.7-6.9c6.9-4,12.7-9.7,17-16.5
	c1.2-1.8,1.9-3.8,2.1-5.9c-0.1-2.3-0.6-4.6-1.5-6.7l-48.3-120.4H350.1z"/>
<path class="st0" d="M0,492.9c28.7-4.6,66.5-7.7,105.8-7.7c66.5,0,109.9,12.3,142.7,37.2c36.2,26.7,58.8,69.6,58.8,130.9
	c0,66.5-24.1,112.4-57.2,140.7c-36.7,30.5-92.9,44.9-160.9,44.9c-40.8,0-70.1-2.6-89.1-5.1L0,492.9z M78.3,776
	c6.7,1.5,18,1.5,27.2,1.5c71.6,0.5,118.6-38.8,118.6-121.7c0-72.1-42.4-110.4-110.4-110.4c-16.9,0-28.8,1.5-35.7,3.1V776H78.3z"/>
<path class="st0" d="M439.2,513.1c0,21.6-15.9,39.3-42.4,39.3c-24.6,0-40.8-17.5-40.8-39.3c0-22.1,16.4-39.3,41.8-39.3
	S438.7,490.8,439.2,513.1z M358.4,835.3V583.2h78.3v252.1H358.4z"/>
<path class="st0" d="M557.8,583.2l34.1,117.1c6.2,21.6,10.3,41.3,14.4,61.3h1.5c4.1-20.5,8.2-39.8,13.9-61.3l32.6-117.1h82.4
	l-93.9,252.1h-78.3l-91.9-252.1H557.8z"/>
<path class="st0" d="M853.8,513.1c0,21.6-15.9,39.3-42.3,39.3c-24.6,0-40.8-17.5-40.8-39.3c0-22.1,16.4-39.3,41.8-39.3
	S853.3,490.8,853.8,513.1z M772.9,835.3V583.2h78.3v252.1H772.9z"/>
<path class="st0" d="M974.4,734.2c2.1,32.6,34.7,48,71.1,48c26.7,0,48.5-3.6,69.6-10.8l10.3,53.1c-25.7,10.8-57.2,15.9-91.1,15.9
	c-85.5,0-134.5-49.5-134.5-128.3c0-63.9,39.8-134.5,127.3-134.5c81.4,0,112.4,63.4,112.4,125.8c0,10.3-0.9,20.6-2.6,30.8
	L974.4,734.2z M1066.8,680.5c0-19-8.2-51.1-44.4-51.1c-33.1,0-46.5,30.5-48.5,51.1L1066.8,680.5z"/>
<path class="st0" d="M1186.4,666.1c0-37.2-0.5-61.4-2-82.9h67l3.1,46.5h2c12.8-37.2,43.4-52.6,68-52.6c5.5-0.1,11,0.4,16.4,1.5v73.7
	c-6.9-1.3-14-2-21-2.1c-28.8,0-48.5,15.4-53.7,39.8c-1.1,5.8-1.6,11.6-1.5,17.5v127.8h-78.3V666.1z"/>
<path class="st0" d="M1480.6,515.2v68h56.2V641h-56.2v91.4c0,30.5,7.7,44.4,31.1,44.4c10.8,0,15.9-0.5,23.1-2l0.5,59.3
	c-9.8,3.6-29,6.7-50.6,6.7c-25.2,0-46.5-8.7-59.3-21.6c-14.4-14.9-21.6-39.3-21.6-74.7V641.2h-33.6v-58h33.6v-47L1480.6,515.2z"/>
<path class="st0" d="M1828.7,706.4c0,92.1-65.5,134.5-133,134.5c-73.7,0-130.4-48.5-130.4-129.9c0-81.9,53.7-134,135-134
	C1777.1,577.1,1828.7,630.2,1828.7,706.4z M1646.2,709c0,43.4,18,75.7,51.6,75.7c31.1,0,50.1-30.3,50.1-76.2
	c0-37.2-14.4-75.2-50.1-75.2C1660.6,633.3,1646.2,671.8,1646.2,709L1646.2,709z"/>
<path class="st0" d="M2484.6,888.7c0,23.1-18.7,41.6-42.6,41.6s-42.9-18.5-42.9-41.6c0-22.8,19-41.3,42.9-41.3
	S2484.6,865.8,2484.6,888.7z M2411.9,888.9c0,17.2,12.8,31.1,30,31.1s30-13.6,30-31.3c0-17.2-12.8-31.1-30.3-31.1
	C2424.5,857.6,2411.9,871.7,2411.9,888.9z M2436.6,908.5h-11.8v-38.2c5.6-0.9,11.3-1.3,16.9-1.3c8.7,0,12.6,1.3,15.4,2.8
	c2.6,2,4.2,5.2,4.1,8.5c0,3.8-3.6,7.2-9,8.7v0.5c4.4,1.5,6.7,4.4,8,9.8c1.3,5.7,1.8,7.7,2.6,9.2h-13.3c-1.3-1.5-1.8-4.9-2.6-8.2
	c-0.8-3.9-2.6-5.7-6.4-5.7h-3.9L2436.6,908.5L2436.6,908.5z M2437.1,886.6h3.4c4.4,0,7.2-1.8,7.2-4.6c0-3.1-2.6-4.9-6.7-4.9
	c-1.5,0-2.8,0.3-3.9,0.3L2437.1,886.6z"/>
<path class="st0" d="M2505.4,1174.7c0-28.5,19.5-49,47.5-49s47,20,47,49c0,28-19,48.5-47.5,48.5
	C2524.9,1223.2,2505.4,1202.6,2505.4,1174.7z"/>
<path class="st0" d="M2654,1041.9c0-32.1-1-59.5-2.1-82.1h67.5l3.6,34.9h1.5c11-16.4,33.6-40.6,78-40.6c33.1,0,59.6,16.9,70.6,43.6
	h1c8.9-12.4,20.2-23,33.1-31.1c14.1-8.5,30-12.6,49-12.6c49.5,0,87,34.9,87,111.7v151.7h-78v-140.1c0-37.5-12.1-59-38-59
	c-18.5,0-31.6,12.6-37,28c-2,5.9-3.1,14.1-3.1,20.5v150.6h-78V1073c0-32.6-11.6-54.9-37-54.9c-20.5,0-32.6,15.9-37.5,29
	c-2.6,6.4-3.1,13.6-3.1,20v150.5h-78v-175.6H2654z"/>
<path class="st0" d="M3174.3,959.5l25.4,42.6c7.4,13.1,14.1,26.4,21.1,38.5h1c6.9-13.6,13.1-27,20-39.5l22.7-41.6h87l-85,123l86,135
	h-90.6l-25.9-46.5c-7.4-12.6-13.6-25.9-20-39h-1.5c-6.4,13.6-13.1,26.4-19.5,39l-24.1,46.5h-88.1l87.5-131.1l-85.5-126.6h89.6
	L3174.3,959.5z"/>
</svg>
