<?xml version="1.0" encoding="utf-8"?>
<!-- Generator: Adobe Illustrator 26.4.1, SVG Export Plug-In . SVG Version: 6.00 Build 0)  -->
<svg version="1.1" id="Capa_1" xmlns="http://www.w3.org/2000/svg" xmlns:xlink="http://www.w3.org/1999/xlink" x="0px" y="0px"
	 viewBox="0 0 3352.5 1315.8" style="enable-background:new 0 0 3352.5 1315.8;" xml:space="preserve">
<style type="text/css">
	.st0{fill:#FFFFFF;}
	.st1{fill:#E13828;}
	.st2{fill:#262626;}
	.st3{fill-rule:evenodd;clip-rule:evenodd;fill:#FFFFFF;}
	.st4{fill-rule:evenodd;clip-rule:evenodd;fill:#E13828;}
	.st5{fill:#ECF1F6;}
</style>
<g id="logo_00000006692349972293160260000014951510931591489457_">
	<g>
		<path class="st0" d="M972.2,613.6c-86.4,0.1-157.4,71.1-157.4,157.5c0,86.4,71.1,157.5,157.5,157.5c86.4,0,157.5-71.1,157.5-157.5
			c0,0,0,0,0,0C1129.8,684.7,1058.7,613.6,972.2,613.6C972.3,613.6,972.3,613.6,972.2,613.6z"/>
		<path class="st1" d="M972.2,619.3c-83.2,0.1-151.6,68.5-151.6,151.7c0,83.2,68.5,151.7,151.8,151.7c83.2,0,151.7-68.5,151.7-151.7
			c0,0,0,0,0,0C1124.1,687.8,1055.6,619.3,972.2,619.3C972.3,619.3,972.3,619.3,972.2,619.3z"/>
		<path class="st2" d="M499.2,610.7c1.3-7,3.7-10.7,7.1-10.7c3.4,0,5.7,2,11.1,12.8l112.8,232.6l112.5-235.5c3.2-6.6,5.4-9.9,9-9.9
			c3.6,0,6.3,4.2,7.4,12.8l37.7,254.8c3.8,26,7.9,37.9,20.3,41.7c8.3,2.7,16.9,4.1,25.7,4.1c3.7,0,6.6,0.4,6.6,3
			c0,3.3-5,4.5-10.7,4.5c-10.4,0-67.4-1.2-84.1-2.4c-9.5-0.9-12-2.2-12-4.6c0-2.5,1.5-3.3,4.5-4.5c2.5-0.8,3.8-6,2.1-17.8L724.4,710
			h-1.7l-90.1,187.3c-9.5,19.4-11.5,23.1-15.3,23.1c-3.8,0-7.8-8.3-14.4-20.7c-10-19-42.6-82.1-47.6-93.6
			c-3.6-8.6-28.4-60.7-42.9-91.5h-1.6l-21.5,164.2c-0.8,6.4-1.3,12.8-1.3,19.3c0,7.9,5.4,11.7,12.5,13.2c5.7,1.4,11.4,2.1,17.3,2.1
			c3.3,0,6,0.9,6,3c0,3.8-3.7,4.5-9.8,4.5c-17.4,0-36-1.2-43.4-1.2s-27.7,1.2-40.9,1.2c-4.2,0-7.4-0.8-7.4-4.5c0-2,2.4-3,6.6-3
			c4.1,0.1,8.3-0.3,12.3-1.2c11.6-2.4,15-18.5,17-32.6L499.2,610.7L499.2,610.7z"/>
		<path class="st2" d="M1537.6,677l-54,1.2c-21,0.4-29.7,3-35.1,10.7c-2.7,3.6-4.8,7.6-6.2,11.9c-0.8,3-1.6,4.6-4.1,4.6
			c-2.5,0-3.2-2.1-3.2-5.7c0-5.8,7-39.6,7.8-42.5c0.8-4.5,2.1-6.6,4.1-6.6c3,0,6.6,3,15.7,4.2c12.1,1.2,24.2,1.7,36.3,1.6h147.4
			c8.3,0.1,16.6-0.5,24.8-1.6c5.8-0.8,8.7-1.7,10-1.7c2.5,0,2.8,2.1,2.8,7.5c0,7.4-0.8,33.4-0.8,42.5c-0.5,3.8-1.2,5.7-3.3,5.7
			c-3,0-3.7-1.7-4.1-7l-0.4-3.6c-0.9-9-10.3-19.8-42.9-20.2l-45.8-0.8v141.9c0,32.1,0.5,59.9,2,75.1c1.3,9.9,3.3,16.5,14.1,18
			c6.1,0.9,12.3,1.3,18.6,1.2c4.1,0,5.8,2.1,5.8,3.7c0,2.5-3,3.7-7.1,3.7c-24,0-48.3-1.2-58.6-1.2c-8.3,0-33,1.2-47.5,1.2
			c-4.5,0-7-1.2-7-3.7c0-1.6,1.2-3.7,5.8-3.7c4.3,0.2,8.6-0.2,12.8-1.2c7.5-1.6,9.5-8.2,10.8-18.5c1.7-14.8,1.7-42.6,1.7-74.7
			L1537.6,677L1537.6,677z"/>
		<path class="st2" d="M1724.9,757.1c0-53.3,0-63.1-0.4-74.3c-0.8-12-4.2-15.6-15.8-18.9c-4.8-1-9.6-1.4-14.5-1.3
			c-3.6,0-6-1.2-6-3.7c0-2.5,2.8-3.4,8.2-3.4c18.9,0,42,0.8,52.5,0.8c11.6,0,92.2,0.5,99.1,0c5.1-0.3,10.3-1,15.3-2
			c1.9-0.7,3.8-1.2,5.7-1.7c2.2,0,2.5,1.7,2.5,3.4c-1.5,7.5-2.4,15-2.9,22.6c-0.4,3.7-1.2,18.9-2,23.1c-0.4,1.7-1.2,5.8-4.2,5.8
			c-2.4,0-2.8-1.7-2.8-4.5c0-4.4-0.9-8.7-2.5-12.7c-3-6.3-5.8-11.2-24-12.8c-6.2-0.8-49.6-1.7-57-1.7c-1.7,0-2.5,1.2-2.5,3.3v86.5
			c0,2.3,0.4,3.9,2.5,3.9c8.2,0,55.4,0,63.7-0.8s14-1.7,17.3-5.4c3-2.5,4.1-4.5,5.7-4.5c1.6,0,3,1.7,3,3.8s-0.8,7.7-3,25.5
			c-0.7,7-1.6,21-1.6,23.5c0,2.5-0.4,7.9-3.7,7.9c-2.5,0-3.4-1.3-3.4-3c-0.4-3.6-0.4-8.2-1.2-12.8c-2-7-6.5-12.4-20.2-13.6
			c-6.7-0.8-48-1.6-57-1.6c-1.7,0-2.1,1.6-2.1,3.6v28.1c0,12-0.4,41.7,0,52c0.8,24,12,29.2,49.2,29.2c9.4,0,24.7-0.5,34.3-4.5
			c9.5-4.1,13.3-11.6,15.7-26c0.8-3.7,1.6-5.4,4.1-5.4c2.5,0,3.2,4.5,3.2,8.2c-0.5,13-2.1,26-4.7,38.8c-2.5,9-5.8,9-19.4,9
			c-27.2,0-49.1-0.4-67-1.2c-17.8-0.8-31.3-0.8-42-0.8c-4.1,0-12,0.5-20.6,0.5s-17.7,0.8-25.2,0.8c-4.5,0-7-1.2-7-3.7
			c0-1.6,1.1-3.7,5.7-3.7c4.3,0.2,8.6-0.3,12.8-1.2c7.3-1.6,9.5-8.2,10.8-18.5c1.7-14.8,1.7-42.6,1.7-74.7L1724.9,757.1
			L1724.9,757.1z"/>
		<path class="st2" d="M1946.2,873c0.8,27.3,5.4,35.5,12.4,37.9c6.1,1.9,12.6,2.7,19,2.5c4.1,0,6.2,1.7,6.2,3.7c0,3-3.3,3.7-8.3,3.7
			c-23.6,0-40.5-1.2-47.1-1.2c-3.3,0-20.7,1.2-39.3,1.2c-4.9,0-8.2-0.4-8.2-3.7c0-2.1,2.4-3.7,5.6-3.7c5.6,0.1,11.1-0.4,16.6-1.7
			c9.6-2.4,10.7-12,11.2-42.4l3.3-207.9c0-7.1,2.5-12,6.2-12c4.6,0,9.5,5.3,15.7,11.5c4.6,4.5,59.1,60.2,111.9,111.8
			c24.9,24.3,73.2,73.9,78.5,78.8h1.7l-3.7-155.8c-0.4-21.5-3.8-27.7-12.5-30.9c-5.3-2.1-14-2.1-19-2.1c-4.5,0-5.7-1.6-5.7-3.7
			c0-2.9,3.7-3.4,9-3.4c19.2,0,38.5,0.8,46.2,0.8c4.2,0,18-0.8,35.7-0.8c4.9,0,8.1,0.5,8.1,3.4c0,2.1-2,3.7-6.2,3.7
			c-3.8-0.2-7.5,0.3-11.2,1.3c-9.8,2.9-12.8,9-13.2,28.9l-4.1,221c0,7.9-3,11.2-5.8,11.2c-5.8-0.4-11.2-3.1-15-7.5
			c-22.7-21-68.1-64.3-106.2-101.1c-39.6-37.9-78.1-80.4-85.1-86.6h-1.3L1946.2,873L1946.2,873z"/>
		<path class="st2" d="M1189.4,873c0.8,27.3,5.3,35.5,12.5,37.9c6.1,1.9,12.6,2.7,19,2.5c4.1,0,6.2,1.7,6.2,3.7c0,3-3.4,3.7-8.3,3.7
			c-23.6,0-40.5-1.2-47.1-1.2c-3.3,0-20.7,1.2-39.3,1.2c-5,0-8.3-0.4-8.3-3.7c0-2.1,2.4-3.7,5.7-3.7c5.5,0.1,11.1-0.5,16.5-1.7
			c9.5-2.4,10.7-12,11.2-42.4l3.3-207.9c0-7.1,2.5-12,6.2-12c4.6,0,9.5,5.3,15.7,11.5c4.7,4.5,59.1,60.2,112,111.8
			c24.9,24.3,73.2,73.9,78.6,78.8h1.7l-3.7-155.8c-0.4-21.5-3.8-27.7-12.5-30.9c-5.3-2.1-14-2.1-18.9-2.1c-4.9,0-6-1.6-6-3.7
			c0-2.9,3.8-3.4,9-3.4c19.1,0,38.5,0.8,46.3,0.8c4.2,0,17.8-0.8,35.6-0.8c4.9,0,8.2,0.5,8.2,3.4c0,2.1-2,3.7-6.2,3.7
			c-3.8-0.2-7.6,0.3-11.3,1.3c-9.8,2.9-12.7,9-13.2,28.9l-4.1,221c0,7.9-3,11.2-5.8,11.2c-5.8-0.4-11.2-3.1-15-7.5
			c-22.7-21-68.2-64.3-106.1-101.1c-39.8-37.9-78.1-80.4-85.2-86.6h-1.3L1189.4,873L1189.4,873z"/>
		<path class="st2" d="M2208.3,757.1c0-53.3,0-63.1-0.3-74.3c-0.8-12-4.2-15.6-15.7-18.9c-4.7-1-9.6-1.4-14.4-1.3
			c-3.7,0-6.2-1.2-6.2-3.7c0-2.5,2.9-3.4,8.3-3.4c19,0,42,0.8,52.4,0.8c11.6,0,92.2,0.5,99.1,0c5.1-0.4,10.2-1,15.3-2
			c1.9-0.7,3.8-1.2,5.8-1.7c2.2,0,2.6,1.7,2.6,3.4c-1.6,7.5-2.6,15-3,22.6c-0.5,3.7-1.3,18.9-2,23.1c-0.5,1.7-1.3,5.8-4.3,5.8
			c-2.4,0-2.8-1.7-2.8-4.5c0-4.4-0.8-8.7-2.5-12.7c-3-6.3-5.8-11.2-24-12.8c-6.2-0.8-49.5-1.7-57-1.7c-1.7,0-2.5,1.2-2.5,3.3v86.5
			c0,2.3,0.4,3.9,2.5,3.9c8.3,0,55.4,0,63.7-0.8c8.3-0.8,14-1.7,17.3-5.4c3-2.5,4.2-4.5,6-4.5c1.8,0,2.9,1.7,2.9,3.8
			s-0.8,7.7-2.9,25.5c-0.9,7-1.7,21-1.7,23.5c0,2.5-0.4,7.9-3.8,7.9c-2.4,0-3.3-1.3-3.3-3c-0.4-3.6-0.4-8.2-1.2-12.8
			c-2.1-7-6.7-12.4-20.3-13.6c-6.6-0.8-48-1.6-57-1.6c-1.7,0-2.1,1.6-2.1,3.6v28.1c0,12-0.5,41.7,0,52c0.8,24,12,29.2,49.2,29.2
			c9.5,0,24.8-0.5,34.2-4.5c9.4-4.1,13.3-11.6,15.7-26c0.7-3.7,1.7-5.4,4.1-5.4c3,0,3.4,4.5,3.4,8.2c-0.5,13-2.2,26-4.9,38.8
			c-2.4,9-5.7,9-19.3,9c-27.3,0-49.3-0.4-67.1-1.2c-17.8-0.8-31.3-0.8-42-0.8c-4.1,0-12,0.5-20.7,0.5s-17.8,0.8-25.3,0.8
			c-4.5,0-7-1.2-7-3.7c0-1.6,1.2-3.7,5.8-3.7c4.3,0.1,8.6-0.3,12.8-1.2c7.6-1.6,9.5-8.2,10.7-18.5c1.7-14.8,1.7-42.6,1.7-74.7
			L2208.3,757.1L2208.3,757.1z"/>
		<path class="st2" d="M2621.4,897.3c0,9.5,0,9.8-4.5,12.5c-24.4,12-60.4,15.6-88.8,15.6c-89.3,0-168.1-40.4-168.1-137.4
			c0-56.1,30-95.2,63.6-114.6c34.8-20.3,67.4-22.8,98-22.8c21.6,0.3,43.2,2.2,64.6,5.8c9.6,1.8,19.2,3,28.9,3.7
			c4.2,0.5,4.9,1.7,4.9,4.2c-1.9,19.2-2.7,38.5-2.4,57.7c0,5.3-2.1,7.8-5,7.8c-2.5,0-3.3-1.6-3.7-4.5c-0.7-10.8-5.1-21-12.5-28.9
			c-10.7-11.1-38-26.8-78.9-26.8c-19.9,0-45,0.4-70.3,20.7c-20.2,16.5-33.5,42.4-33.5,85.3c0,75.5,48.8,130.4,126.5,130.4
			c9.5,0,17,0,25.6-3.8c5.4-2.5,7.1-6,7.1-12.4v-32.2c0-17.4,0-30.5-0.4-41.3c-0.5-12-4.1-15.7-15.7-18.9c-4.6-1-9.4-1.4-14.1-1.3
			c-3.3,0-5.8-1.7-5.8-3.7c0-3,3-3.3,7.8-3.3c19.1,0,45,0.8,55.8,0.8c11.6,0,30.6-0.8,42.5-0.8c5,0,7.4,0.4,7.4,3.3
			c-0.3,2.2-2.3,3.9-4.5,3.7c-3.3,0.1-6.6,0.5-9.9,1.3c-9.9,1.6-13.7,6.5-14.1,18.9c-0.4,10.7-0.4,24.8-0.4,42L2621.4,897.3z"/>
		<path class="st2" d="M2676,757.1c0-53.3,0-63.1-0.4-74.3c-0.8-12-4.2-15.6-15.7-18.9c-4.7-1-9.6-1.4-14.4-1.3
			c-3.7,0-6.2-1.2-6.2-3.7c0-2.5,3-3.4,8.2-3.4c19.1,0,42,0.8,49.5,0.8c12.4,0,45.5-0.8,56.7-0.8c23.1,0,49.6,2.1,69.1,15
			c15.6,11.1,25.1,29,25.6,48.2c0,26-15,49.2-50.4,77.6c32.2,39.6,57.8,71.3,79.8,93.1c20.2,20.3,33,21.8,38.9,23.1
			c2.8,0.6,5.8,0.9,8.7,0.8c2.2-0.2,4.2,1.5,4.5,3.7c0,3-2.5,3.7-7,3.7h-34.7c-20.3,0-30-2-39.7-7c-15.7-7.8-29.3-24.3-49.5-51.6
			c-14.5-18.9-29.8-42.5-34.3-47.8c-1.7-1.7-4.1-2.7-6.5-2.5l-32.7-0.8c-0.1,0-0.3,0-0.4,0c-1.4,0-2.6,1.2-2.6,2.6
			c0,0.1,0,0.3,0,0.4v5c0,32.5,0.4,59.9,2.1,74.7c1.2,10.3,3,16.9,14.1,18.5c5.9,0.8,11.9,1.2,17.8,1.2c2.2-0.1,4.2,1.5,4.4,3.7
			c0,2.5-2.8,3.7-7.4,3.7c-21,0-51.3-1.2-56.7-1.2c-7,0-30,1.2-44.6,1.2c-4.5,0-7.1-1.2-7.1-3.7c0-1.6,1.2-3.7,5.8-3.7
			c4.3,0.1,8.6-0.3,12.8-1.2c7.4-1.6,9.5-8.2,10.7-18.5c1.7-14.8,1.7-42.6,1.7-74.7L2676,757.1L2676,757.1z M2722.3,784.3
			c0,3.7,0.8,4.9,3.3,6c9,2.4,18.4,3.6,27.7,3.4c14.4,0,19.4-1.3,25.6-5.9c11.1-7.9,23.6-23.1,23.6-51.9c0-49.6-34-62.2-55.4-62.2
			c-7.2-0.2-14.4,0.2-21.5,1.2c-2.5,0.8-3.3,2-3.3,4.9C2722.3,679.8,2722.3,784.3,2722.3,784.3z"/>
		<path class="st2" d="M2865.7,788c0-59.8,42-137.4,152.5-137.4c91.8,0,148.8,50.8,148.8,131.2s-58.7,143.6-152.6,143.6
			C2908.6,925.3,2865.7,850.3,2865.7,788L2865.7,788z M3112.8,794.6c0-77.5-46.7-125.4-105.3-125.4c-40.6,0-88.1,21.5-88.1,108.1
			c0,72.2,41.4,129.1,109.9,129.1C3055,906.3,3112.8,894.5,3112.8,794.6L3112.8,794.6z"/>
		<path class="st2" d="M420.4,1080.2C319.9,1105.3,101,1129.6,118.7,962c6-55.8,37.9-107.9,69.1-152.3
			c47.2-67.5,107.6-125.3,170.1-177.8c73.6-61.8,149.9-109.1,234.9-152.3c97-49.3,193.1-79.1,293.1-100.6
			c58.3-12.5,115.2-18.8,164.8,9.5c71.4,40.7,22,203.2,22,203.2l55.9-15.4c0,0,45.8-169.3-34-209.7c-58.7-29.6-136.3-20.8-198.2-8.4
			c-183.3,36.8-354.3,115.4-508.5,223C262,669.3,106.7,797.6,66.3,956.7c-13.8,54.5,1.4,106.7,50.1,135.9
			c73.4,44,178.9,22.6,255.9,3.4C385.3,1092.8,430.8,1077.6,420.4,1080.2L420.4,1080.2L420.4,1080.2z"/>
		<path class="st2" d="M506.4,1032.6h-28.8v-10.3h70v10.3h-28.9v83.5h-12.3V1032.6z"/>
		<path class="st2" d="M653.2,1072.2h-36.7v33.7h41v10.2h-53.3v-93.6h51.3v10.1h-39v29.5h36.7V1072.2z"/>
		<path class="st2" d="M785.6,1113.1c-7.9,3.3-16.4,4.8-25,4.5c-26.7,0-46.7-16.7-46.7-47.5c0-29.5,20.1-49.1,49.5-49.1
			c7.7-0.3,15.3,1.1,22.4,4.2l-3,9.9c-6-2.7-12.4-4-19-3.9c-22.2,0-36.9,14-36.9,38.6c0,23,13.4,37.7,36.3,37.7
			c6.9,0.1,13.7-1.2,20-3.9C783.2,1103.4,785.6,1113.1,785.6,1113.1z"/>
		<path class="st2" d="M847.2,1116.1v-93.6h13.5l30,47.3c6.3,9.7,11.9,19.9,16.8,30.4h0.4c-1.1-12.5-1.4-24-1.4-38.3v-39.5h11.5
			v93.6h-12.4l-30-47.5c-6.6-10-12.4-20.4-17.6-31.2h-0.4c0.7,11.8,0.9,23.1,0.9,38.6v40.2H847.2z"/>
		<path class="st2" d="M1022.7,1117.6c-25.1,0-42.5-19.2-42.5-47.5c0-29.7,18.6-49.1,43.8-49.1c26.1,0,42.8,19.5,42.8,47.3
			c0,32.1-19.8,49.3-43.8,49.3C1022.9,1117.6,1022.7,1117.6,1022.7,1117.6z M1023.3,1107.7c19.4,0,30.3-17.6,30.3-38.9
			c0-18.6-9.8-38.1-30.2-38.1c-20.4,0-30.5,18.8-30.5,39c0,19.7,11,37.9,30.2,37.9H1023.3z"/>
		<path class="st2" d="M1128.6,1022.5h12.4v83.4h40.4v10.2h-52.8V1022.5z"/>
		<path class="st2" d="M1278.2,1117.6c-25.1,0-42.6-19.2-42.6-47.5c0-29.7,18.5-49.1,43.8-49.1c26,0,42.7,19.5,42.7,47.3
			C1322.1,1100.4,1302.3,1117.6,1278.2,1117.6C1278.3,1117.6,1278.2,1117.6,1278.2,1117.6z M1278.7,1107.7
			c19.3,0,30.3-17.6,30.3-38.9c0-18.6-9.8-38.1-30.2-38.1c-20.4,0-30.4,18.8-30.4,39c0,19.7,11,37.9,30.2,37.9H1278.7z"/>
		<path class="st2" d="M1456.3,1111.9c-9.4,3.4-19.2,5.1-29.2,5.1c-14.3,0-26.1-3.6-35.4-12.3c-8.9-9.4-13.7-22-13.2-34.9
			c0-27.9,19.5-48.3,51.3-48.3c8.1-0.2,16.2,1.3,23.7,4.3l-3,9.9c-6.6-3-13.8-4.4-21-4.1c-23,0-38,14.2-38,37.7s14.4,37.8,36.5,37.8
			c5.5,0.3,11.1-0.6,16.3-2.6v-27.9h-19.1v-9.7h31.2L1456.3,1111.9L1456.3,1111.9z"/>
		<path class="st2" d="M1547.9,1001.1l-18,16.3h-9.8l13.2-16.3H1547.9L1547.9,1001.1z M1533.3,1022.5v93.6h-12.3v-93.6H1533.3z"/>
		<path class="st2" d="M1616.1,1086.7l-9.8,29.5h-12.6l32.2-93.6h14.7l32.3,93.6h-13l-10.2-29.5
			C1649.6,1086.7,1616.1,1086.7,1616.1,1086.7z M1647.2,1077.3l-9.4-27c-2-6-3.4-11.7-4.7-17.1h-0.5c-1.3,5.4-2.8,11.3-4.6,17
			l-9.2,27L1647.2,1077.3z"/>
		<path class="st2" d="M1828,1072.2h-36.7v33.7h41v10.2H1779v-93.6h51.3v10.1h-39v29.5h36.7L1828,1072.2L1828,1072.2z"/>
		<path class="st2" d="M1894.4,1116.1v-93.6h13.5l30.2,47.3c6.3,9.8,11.9,19.9,16.9,30.4h0.4c-1.1-12.5-1.4-24-1.4-38.3v-39.5h11.5
			v93.6H1953l-30-47.5c-6.6-10-12.4-20.4-17.6-31.2h-0.4c0.7,11.8,0.8,23.1,0.8,38.6v40.2H1894.4z"/>
		<path class="st2" d="M2128,1072.2h-36.7v33.7h41v10.2H2079v-93.6h51.2v10.1h-39v29.5h36.7L2128,1072.2z"/>
		<path class="st2" d="M2194.3,1023.6c8.6-1.3,17.3-1.9,26-2c17.6,0,30,3.9,38.4,11.6c8.3,7.6,13.5,18.6,13.5,33.8
			s-4.9,27.7-13.6,36.3c-8.7,8.6-23.6,13.5-42,13.5c-7.5,0.1-14.9-0.2-22.3-1.1C2194.2,1115.7,2194.3,1023.6,2194.3,1023.6z
			 M2206.6,1106.5c4.1,0.5,8.2,0.7,12.4,0.6c26.1,0.2,40.3-14.4,40.3-39.7c0-22.3-12.5-36-38.3-36c-4.8-0.1-9.6,0.3-14.4,1.2
			C2206.6,1032.5,2206.6,1106.5,2206.6,1106.5z"/>
		<path class="st2" d="M2346.3,1022.5v55.5c0,20.8,9.4,29.7,22.1,29.7c13.9,0,23-9,23-29.7v-55.5h12.3v54.7
			c0,28.7-15.3,40.4-35.8,40.4c-19.3,0-33.9-10.8-33.9-40v-55.1H2346.3z"/>
		<path class="st2" d="M2537.1,1113.1c-7.9,3.3-16.4,4.8-25,4.5c-26.7,0-46.6-16.7-46.6-47.5c0-29.5,20.1-49.1,49.4-49.1
			c7.7-0.3,15.4,1.1,22.5,4.2l-3,9.9c-5.9-2.7-12.4-4-18.9-3.9c-22.3,0-36.9,14-36.9,38.6c0,23,13.3,37.7,36,37.7
			c6.9,0.1,13.8-1.3,20.1-3.9L2537.1,1113.1L2537.1,1113.1z"/>
		<path class="st2" d="M2614.1,1086.7l-9.8,29.5h-12.7l32.2-93.6h14.7l32.2,93.6h-13.1l-10.1-29.5
			C2647.6,1086.7,2614.1,1086.7,2614.1,1086.7z M2645.1,1077.3l-9.4-27c-2-6-3.4-11.7-4.8-17.1h-0.4c-1.3,5.4-2.8,11.3-4.6,17
			l-9.3,27L2645.1,1077.3L2645.1,1077.3z"/>
		<path class="st2" d="M2796.9,1113.1c-7.9,3.3-16.4,4.8-25,4.5c-26.7,0-46.6-16.7-46.6-47.5c0-29.5,20.1-49.1,49.4-49.1
			c7.7-0.3,15.4,1.1,22.4,4.2l-3,9.9c-5.9-2.7-12.4-4.1-18.9-3.9c-22.2,0-36.9,14-36.9,38.6c0,23,13.3,37.7,36.2,37.7
			c6.9,0.1,13.7-1.3,20.1-3.9L2796.9,1113.1L2796.9,1113.1z"/>
		<rect x="2858.4" y="1022.5" class="st2" width="12.3" height="93.6"/>
		<path class="st2" d="M2975.2,1117.6c-25.2,0-42.6-19.2-42.6-47.5c0-29.7,18.6-49.1,43.8-49.1c25.9,0,42.6,19.5,42.6,47.3
			c0,32.1-19.7,49.3-43.7,49.3L2975.2,1117.6L2975.2,1117.6z M2975.8,1107.7c19.3,0,30.3-17.6,30.3-38.9c0-18.6-9.9-38.1-30.2-38.1
			c-20.4,0-30.4,18.8-30.4,39c0,19.7,11,37.9,30,37.9H2975.8z M2998.1,1001.1l-18,16.3h-9.9l13.2-16.3H2998.1L2998.1,1001.1z"/>
		<path class="st2" d="M3081.4,1116.1v-93.6h13.5l30,47.3c6.3,9.7,12,19.9,16.9,30.4h0.4c-1.1-12.5-1.4-24-1.4-38.3v-39.5h11.5v93.6
			h-12.3l-30-47.5c-6.5-10-12.4-20.4-17.5-31.2h-0.5c0.8,11.8,0.9,23.1,0.9,38.6v40.2H3081.4z"/>
		<path class="st2" d="M3256.7,676.3c26.6,0,48.5,22,48.5,48.5c0,26.6-21.9,48.6-48.6,48.6c-26.6,0-48.6-21.9-48.6-48.6
			c0-26.6,21.9-48.5,48.5-48.5H3256.7L3256.7,676.3z M3256.5,683.8c-21.4,0-39,18.5-39,41.3c0,22.8,17.6,41.4,39.2,41.4
			c21.6,0,39-18.2,39-41.2c0-23-17.4-41.5-39-41.5H3256.5z M3247.5,753.5h-8.6V699c5.1-0.8,10.3-1.3,15.4-1.3
			c8.2,0,13.6,1.7,16.9,4.1c3.5,2.7,5.3,6.9,5,11.3c0,6.3-4.4,11.9-10.6,13.2v0.4c4.8,0.8,8,5.3,9,13.2c0.5,4.6,1.7,9.2,3.5,13.4h-9
			c-2.1-4.4-3.3-9-3.7-13.8c-1.3-7-4.8-9.5-11.7-9.5h-6L3247.5,753.5L3247.5,753.5z M3247.5,723.5h6.3c7.2,0,13.2-2.6,13.2-9.3
			c0-4.8-3.5-9.6-13.2-9.6c-2.1,0-4.2,0.1-6.3,0.4V723.5z"/>
		<path class="st0" d="M1017.8,776.9L914.9,879.8L868.1,833l103.1-102.9l-38.7-38.7l117.7,6l5.5,117.3
			C1055.7,814.8,1017.8,776.9,1017.8,776.9z"/>
	</g>
	<g>
		<path class="st3" d="M1484.2,505.9c-87.8,0-159.3-71.5-159.3-159.3c0-87.8,71.5-159.3,159.3-159.3h1530
			c87.8,0,159.3,71.5,159.3,159.3c0,87.8-71.5,159.3-159.3,159.3H1484.2z"/>
		<path class="st3" d="M3163.4,346.6c0-82.4-66.9-149.3-149.3-149.3h-1530c-82.4,0-149.3,66.9-149.3,149.3
			c0,82.4,66.9,149.3,149.3,149.3h1530C3096.5,495.9,3163.4,429,3163.4,346.6z"/>
		<path class="st4" d="M3163.4,346.6c0-82.4-66.9-149.3-149.3-149.3h-1530c-82.4,0-149.3,66.9-149.3,149.3
			c0,82.4,66.9,149.3,149.3,149.3h1530C3096.5,495.9,3163.4,429,3163.4,346.6z"/>
		<g>
			<path class="st5" d="M1500.7,400.7h19.6v-40.9c2.7,0.6,5.9,0.8,9.6,0.8c14,0,26.1-3.8,34.2-11.7c5.9-5.8,9.1-14.1,9.1-24.4
				c0-10.1-4.2-18.6-10.6-23.9c-6.9-5.8-17.3-8.8-31.8-8.8c-13.1,0-22.9,1-30.2,2.2V400.7z M1520.3,308c2.1-0.5,5.9-1,11.4-1
				c13.6,0,22,6.3,22,18.3c0,12.5-9,19.9-23.7,19.9c-4,0-7.1-0.2-9.6-1V308z"/>
			<path class="st5" d="M1635.8,400.7h64.1v-16.5h-44.4v-91.6h-19.7L1635.8,400.7L1635.8,400.7z"/>
			<path class="st5" d="M1816,370.1l9.8,30.6h21.3L1812,292.6h-25.2l-34.6,108.1h20.4l9.3-30.6H1816z M1785.1,355.2l8.3-26.6
				c1.8-6.4,3.5-14,5.1-20.2h0.3c1.6,6.3,3.4,13.6,5.5,20.2l8.5,26.6H1785.1L1785.1,355.2z"/>
			<path class="st5" d="M1928.3,400.7h19.7v-91.6h31.1v-16.5h-81.6v16.5h30.8V400.7z"/>
			<path class="st5" d="M2093.1,370.1l9.8,30.6h21.3l-35.1-108.1h-25.2l-34.6,108.1h20.4l9.3-30.6H2093.1z M2062.1,355.2l8.3-26.6
				c1.8-6.4,3.5-14,5.1-20.2h0.3c1.6,6.3,3.4,13.6,5.5,20.2l8.5,26.6H2062.1z"/>
			<path class="st5" d="M2184.7,400.7h19.7v-46h39.8v-16h-39.8v-29.8h42.8v-16.2h-62.5V400.7z"/>
			<path class="st5" d="M2357.6,290.7c-30.5,0-51.5,23.4-51.5,56.8c0,31.6,19.2,55,49.9,55c29.7,0,51.6-20.7,51.6-56.9
				C2407.6,314.6,2389,290.7,2357.6,290.7z M2357,306.6c19.7,0,29.8,19.2,29.8,39.6c0,22.6-10.7,40.4-29.8,40.4
				c-18.9,0-30-17.5-30-39.6C2327,324.7,2337.4,306.6,2357,306.6z"/>
			<path class="st5" d="M2470.1,400.7h19.6v-44.4h9.9c11.2,0.3,16.2,4.8,19.4,18.9c2.9,13.5,5.6,22.3,7.2,25.5h20.2
				c-2.1-4.2-5-16.7-8.5-30.2c-2.6-10.4-7.2-18-15.1-20.8v-0.5c10.3-3.5,19.7-13,19.7-26.9c0-9.3-3.4-16.8-9.3-21.8
				c-7.4-6.1-17.8-8.7-33.4-8.7c-11.4,0-22.3,1-29.8,2.4C2470.1,294.2,2470.1,400.7,2470.1,400.7z M2489.6,307.7
				c1.9-0.5,5.9-1,12.2-1c12.8,0,21,5.6,21,17.3c0,10.7-8.2,17.8-21.5,17.8h-11.7C2489.6,341.9,2489.6,307.7,2489.6,307.7z"/>
			<path class="st5" d="M2700.1,400.7h19.2l-6.3-108.1h-25.7l-14.9,43.3c-4.2,12.7-7.9,26-10.7,37.7h-0.5c-2.7-12-6.1-24.9-9.9-37.5
				l-14.1-43.5h-26l-7.2,108.1h18.4l2.4-43.5c0.8-14.8,1.4-31.9,1.9-46h0.3c2.9,13.5,6.7,28.2,10.9,42l14.4,46.2h15.1l15.9-46.8
				c4.8-13.6,9.3-28.2,12.8-41.4h0.5c-0.2,14.6,0.6,31.4,1.3,45.4L2700.1,400.7L2700.1,400.7z"/>
			<path class="st5" d="M2840.6,370.1l9.8,30.6h21.3l-35.1-108.1h-25.2l-34.6,108.1h20.4l9.3-30.6H2840.6z M2809.6,355.2l8.3-26.6
				c1.8-6.4,3.5-14,5.1-20.2h0.3c1.6,6.3,3.4,13.6,5.5,20.2l8.5,26.6H2809.6L2809.6,355.2z"/>
			<path class="st5" d="M2927.4,395.6c5.9,3.7,17.8,6.9,29.4,6.9c27.7,0,40.9-15.1,40.9-32.6c0-15.6-9-25-27.7-32.1
				c-14.4-5.6-20.7-9.5-20.7-17.8c0-6.4,5.3-13,17.8-13c10.1,0,17.6,3,21.6,5.1l4.7-15.9c-5.6-2.9-14.1-5.5-25.8-5.5
				c-23.6,0-38.3,13.3-38.3,31.1c0,15.6,11.4,25,29.3,31.4c13.6,5,19.1,9.8,19.1,18c0,8.8-7.1,14.8-19.6,14.8
				c-10.1,0-19.9-3.2-26.1-6.9L2927.4,395.6L2927.4,395.6z"/>
		</g>
	</g>
</g>
</svg>
