<?xml version="1.0" encoding="utf-8"?>
<!-- Generator: Adobe Illustrator 25.1.0, SVG Export Plug-In . SVG Version: 6.00 Build 0)  -->
<svg version="1.1" id="Capa_1" xmlns="http://www.w3.org/2000/svg" xmlns:xlink="http://www.w3.org/1999/xlink" x="0px" y="0px"
	 viewBox="0 0 290 158.6" style="enable-background:new 0 0 290 158.6;" xml:space="preserve">
<style type="text/css">
	.st0{fill:#1D2736;}
	.st1{fill:#FFFFFF;}
	.st2{fill:#EDBD44;}
	.st3{fill:#EEBD44;}
</style>
<g>
	<g>
		<g>
			<g>
				<g>
					<g>
						<path class="st0" d="M276.7,99.5l-20.8,0l0,0h-78.6c-1-1.5-2.4-2.8-4.2-3.6c-1.6-0.8-3.3-1.1-5.1-1c-2.2-1.7-4.9-2.7-7.7-2.7
							c-4,0-7.6,1.9-9.9,4.9l-11.9,0c-2.3,0-4.3,0.9-5.8,2.4H51.8l0,0l-18.6,0c-4.5,0-9.6,3.6-11.4,8.1L8,142.2
							c-1.8,4.5,0.4,8.1,4.9,8.1l18.5,0l0,0H240l0,0l20.7,0c4.5,0,9.3-3.6,10.7-8.1l10.9-34.6C283.6,103.1,281.1,99.5,276.7,99.5z"
							/>
						<path class="st1" d="M240,150.7H30.9l0,0l-18,0c-2.2,0-4-0.8-5-2.3c-1.1-1.6-1.2-3.9-0.3-6.3l13.8-34.6
							c1.8-4.6,7.1-8.3,11.7-8.3l18.3,0l0.3,0h80.7c1.6-1.6,3.7-2.4,5.9-2.4l11.8,0c2.4-3.1,6.2-4.9,10.1-4.9c2.8,0,5.6,1,7.9,2.7
							c1.8-0.1,3.5,0.3,5.1,1.1c1.7,0.8,3.1,2,4.2,3.6h78.9l0,0l20.3,0c2.2,0,4.1,0.9,5.2,2.4c1.2,1.6,1.5,3.8,0.7,6.2l-10.9,34.6
							c-1.5,4.6-6.4,8.4-11,8.4l-20.5,0L240,150.7z M31.9,150h207.7l0.3,0l20.7,0c4.3,0,9-3.5,10.3-7.9l10.9-34.6
							c0.7-2.1,0.4-4.1-0.6-5.6c-1-1.4-2.6-2.1-4.6-2.1l-21.3,0l0,0h-78.3l-0.1-0.2c-1-1.5-2.4-2.7-4.1-3.5c-1.5-0.7-3.2-1.1-4.9-1
							l-0.1,0l-0.1-0.1c-2.1-1.7-4.8-2.6-7.5-2.6c-3.8,0-7.4,1.8-9.6,4.8l-0.1,0.1l-12.1,0c-2.1,0-4,0.8-5.5,2.3l-0.1,0.1H52l-0.3,0
							l-18.6,0c-4.4,0-9.3,3.5-11.1,7.9L8.3,142.3c-0.9,2.1-0.8,4.2,0.2,5.6c0.9,1.3,2.4,2,4.4,2L31.9,150L31.9,150z"/>
					</g>
					<g>
						<path class="st1" d="M140.5,116.1l-6.7,0l-5.4,16.5c-2,6.2,0.1,8.5,4,8.5l4,0l1.4-4.4c-0.2,0-2-0.9-2-0.9
							c-0.9-0.5-1.4-1-0.3-4.5L140.5,116.1z M258.2,122.7c-0.8-0.4-2.3-0.6-3.3-0.3c-1.6,0.4-3.2,1-4.8,6c-1.2,3.9-1.7,6.7,0.6,6.7
							c2.1,0,3.3-0.8,4.4-2.3L258.2,122.7z M266,119.5l-6.7,21.3l-5.3,0l-0.6-2.3c-1.3,1.7-4.3,2.7-6.7,2.7c-4.1,0-6.5-4.4-3-13.8
							c3.6-9.8,8.7-10.5,12.7-10.6C259.6,116.7,264.2,117.3,266,119.5 M238.2,116.9c-3.4,0-6.2,1.6-8.5,3c-0.3-1.8-1.7-3-4.5-3
							c-3.4,0-5.1,1.3-7.4,2.8l-0.4-2.4l-5.5,0l-7.7,23.7l6.8,0l5.4-16.5c1.6-1.3,2.8-1.9,4.8-1.9c1.2,0,1.7,0.7,1,2.8l-5.1,15.6
							l6.8,0l5-15.4c0.1-0.3,0.3-1.1,0.4-1.4c1.5-1.2,3-1.6,4.9-1.6c1.2,0,1.7,0.8,1,2.8l-5.1,15.6l6.7,0l5-15.4
							C243.4,120.6,243.3,116.9,238.2,116.9 M200.1,122.8c-0.8-0.4-2.3-0.6-3.4-0.3c-1.6,0.4-3.2,1-4.8,6c-1.2,3.9-1.7,6.7,0.6,6.7
							c2.1,0,3.3-0.8,4.4-2.3L200.1,122.8z M207.9,119.6l-6.7,21.3l-5.3,0l-0.6-2.3c-1.3,1.7-4.3,2.7-6.7,2.7c-4.1,0-6.5-4.4-3-13.8
							c3.6-9.8,8.7-10.5,12.7-10.6C201.5,116.7,206.2,117.4,207.9,119.6 M187.6,117.3c-0.5-0.2-1.3-0.3-2.1-0.3
							c-2.5,0-5,1.6-6.7,3.2l0.1-3l-5.8,0l-7.7,23.7l6.7,0l4.6-14c1.6-2.4,3.4-2.6,5.5-2.7c1.3,0,2.6,0,3.2,0.1L187.6,117.3z
							 M114,127.4c0,0,5.3,1.2,6.6-2.4c0.6-1.9-0.2-2.4-2-2.3C115.6,122.6,114.8,124.8,114,127.4 M112.6,132.1
							c-1,2.9-0.3,3.6,2.7,3.6c2.2,0.1,6.2-0.3,8.6-0.8l-1.8,5.2c-3.4,1.1-7.1,1.7-12,1.3c-5.2-0.4-6-5.4-3-14
							c2.6-7.3,5-10.3,13-10.4c4.5,0,8.8,1.3,7.6,6.8C125.2,134.9,114,132.8,112.6,132.1 M98.4,123.3c-0.8-0.6-2.2-0.8-3.8-0.8
							c-1.5,0-2.7,0.9-4.5,6.5c-1.6,5-1.2,6.2,0.4,6.2c1.8,0,3.3-0.4,4.4-1.2L98.4,123.3z M110.7,106.1l-11.4,35l-5.7,0l-0.4-2.3
							c-1.9,1.3-4.2,2.6-6.8,2.6c-5.1,0-5.6-6-3.1-13.3c2.3-6.6,4.9-11,10.9-11c1.8,0,4.1,0.5,5.6,1.4l4.1-12.4L110.7,106.1z
							 M72.4,122.7c-3,0-3.6,1-5.6,6.9c-1.8,5.4-1.3,6.1,1.4,6.1c2.8,0,3.5-0.4,5.3-6.1C75.4,123.8,75.3,122.7,72.4,122.7
							 M80.1,130.4c-2.9,8.8-6,10.9-13.7,10.9c-7.5,0-9-4.1-6.2-12.5c3.1-9.7,6.5-11.7,14-11.7C81.7,117.1,83.1,121.3,80.1,130.4
							 M61.8,108.6l-7.6,32.6l-6.7,0l4.8-20l-10.4,20l-7.8,0l2.5-20l-8.2,20l-6.8,0l13.5-32.6l9.3,0l-2.7,20.5l10.5-20.5L61.8,108.6
							z"/>
					</g>
				</g>
				<g>
					<path class="st2" d="M158.3,136.9h-2.2l5.2-16h2.2L158.3,136.9z M152.2,136.9H150l5.2-16l2.2,0L152.2,136.9z M146,128.4
						c-0.7,0-1.5,0-1.1-1.2l2.1-6.4h3.2l-2.5,7.6L146,128.4z M143.8,117.3l-3.6,11.1c-0.9,2.9,0.6,3.8,2.7,3.8l3.5,0.1l-2.8,8.7
						l11.4,0c2.9,0,7.3-0.9,9.2-6.8l5.5-16.9H143.8z"/>
				</g>
				<g>
					<path class="st1" d="M122.5,113.1L122.5,113.1L122.5,113.1h49.9c1.7,0,3.1-1.4,3.1-3.1c0-1.7-1.4-3.1-3.1-3.1h-0.4
						c1-2.1,0.1-4.7-2-5.7c-1.5-0.7-3.3-0.5-4.5,0.5c-0.9-2.1-3-3.6-5.5-3.6c-2.9,0-5.4,2.1-5.9,4.9h-5.7c-0.9,0-1.7,0.7-1.7,1.7
						c0,0.9,0.8,1.7,1.7,1.7h2.5v0c0.9,0,1.7,0.8,1.7,1.7c0,0.9-0.8,1.7-1.7,1.7h-28.5h0c-0.9,0-1.7,0.8-1.7,1.7
						C120.8,112.4,121.6,113.1,122.5,113.1"/>
				</g>
				<g>
					<path class="st1" d="M138.7,106.4h4.4c0.9,0,1.7-0.8,1.7-1.7c0-0.9-0.8-1.7-1.7-1.7h-4.4c-0.9,0-1.7,0.7-1.7,1.7
						C137,105.7,137.7,106.4,138.7,106.4"/>
				</g>
			</g>
			<g>
				<path class="st1" d="M277.3,147.2c0,0.5-0.1,0.9-0.3,1.3c-0.2,0.4-0.4,0.7-0.7,1c-0.3,0.3-0.6,0.5-1,0.6
					c-0.4,0.2-0.8,0.2-1.2,0.2c-0.5,0-0.9-0.1-1.3-0.2c-0.4-0.2-0.7-0.4-1-0.7c-0.3-0.3-0.5-0.6-0.6-1c-0.2-0.4-0.2-0.8-0.2-1.3
					c0-0.5,0.1-0.9,0.3-1.3c0.2-0.4,0.4-0.7,0.7-1c0.3-0.3,0.6-0.5,1-0.6c0.4-0.2,0.8-0.2,1.2-0.2c0.4,0,0.8,0.1,1.2,0.2
					c0.4,0.2,0.7,0.4,1,0.6c0.3,0.3,0.5,0.6,0.7,1C277.2,146.3,277.3,146.7,277.3,147.2z M276.6,147.2c0-0.4-0.1-0.7-0.2-1.1
					c-0.1-0.3-0.3-0.6-0.5-0.8c-0.2-0.2-0.5-0.4-0.8-0.5s-0.6-0.2-1-0.2c-0.3,0-0.7,0.1-1,0.2s-0.6,0.3-0.8,0.5
					c-0.2,0.2-0.4,0.5-0.5,0.8s-0.2,0.7-0.2,1.1c0,0.4,0.1,0.7,0.2,1s0.3,0.6,0.5,0.8c0.2,0.2,0.5,0.4,0.8,0.6
					c0.3,0.1,0.6,0.2,1,0.2c0.3,0,0.7-0.1,1-0.2c0.3-0.1,0.6-0.3,0.8-0.5c0.2-0.2,0.4-0.5,0.5-0.8
					C276.5,147.9,276.6,147.6,276.6,147.2z M273.5,149H273v-3.5h1.3c0.4,0,0.7,0.1,1,0.2c0.2,0.2,0.3,0.4,0.3,0.8
					c0,0.3-0.1,0.6-0.3,0.7c-0.2,0.1-0.4,0.2-0.7,0.3l1,1.6H275l-0.9-1.5h-0.5V149z M274.2,147c0.1,0,0.2,0,0.3,0
					c0.1,0,0.2,0,0.3-0.1c0.1,0,0.1-0.1,0.2-0.2c0-0.1,0.1-0.2,0.1-0.3c0-0.1,0-0.2-0.1-0.3c0-0.1-0.1-0.1-0.2-0.1
					c-0.1,0-0.2-0.1-0.2-0.1c-0.1,0-0.2,0-0.3,0h-0.7v1H274.2z"/>
			</g>
		</g>
	</g>
	<g>
		<g>
			<path class="st3" d="M79.3,65.4l2.4,19.2C75.1,86.8,66,89.1,57,89.1c-20.5,0.1-33.7-11.3-33.8-32.4C23.1,32,41.2,15,66.5,14.9
				c9.1,0,17.5,2.1,23.6,4.3l-7.7,18.9c-3.1-1.5-7.7-2.6-12.6-2.6c-12.5,0-19.8,7.8-19.8,18.2c0,9.5,6.1,14.2,16,14.2
				C70.8,68,75.9,66.9,79.3,65.4z"/>
			<path class="st1" d="M57,90.2c-21.8,0.1-34.8-12.4-34.9-33.5c0-12.2,4.4-23.2,12.5-30.9c8-7.7,19.3-11.9,31.9-12
				c9.7,0,18.4,2.4,24,4.4l1.1,0.4l-8.6,21.1l-1-0.5c-3.3-1.6-7.8-2.5-12.1-2.5C58.3,36.7,51,43.5,51,53.8c0,6,2.6,13.2,14.9,13.1
				c4.3,0,9.3-1,13-2.6l1.3-0.6l2.7,21.5l-0.8,0.3C75.9,87.7,66.6,90.2,57,90.2z M66.5,16c-24.9,0.1-42.3,16.8-42.2,40.7
				c0,10,3,17.9,8.9,23.4c5.6,5.2,13.9,8,23.8,8c8.9,0,17.5-2.2,23.5-4.2l-2.1-16.9c-3.8,1.4-8.4,2.2-12.5,2.2
				c-10.8,0-17.1-5.5-17.1-15.3c0-11.5,8.3-19.3,20.9-19.3c4.2,0,8.6,0.8,12,2.2l6.9-16.8C83.2,18,75.2,16,66.5,16z"/>
		</g>
		<g>
			<path class="st3" d="M124.3,71.4l-2.2,15.4c-3.5,1.2-8.1,2-13.4,2.1c-10.5,0-20.5-4.7-17.9-23.4l7.7-56l25.5-0.1l-7.6,56
				c-0.8,5.8,2.2,6.2,5.4,6.2C122.5,71.6,123.5,71.5,124.3,71.4z"/>
			<path class="st1" d="M108.7,90c-6.8,0-12-1.9-15.3-5.7c-3.7-4.2-4.9-10.6-3.8-19l7.8-57l27.7-0.1l-7.8,57.3c-0.3,2-0.1,3.3,0.5,4
				c0.7,0.8,2,0.9,3.8,0.9c0.7,0,1.7-0.1,2.4-0.2l1.4-0.2l-2.5,17.5l-0.6,0.2C118.5,89.2,113.6,90,108.7,90z M99.4,10.6l-7.6,55.1
				c-1.1,7.8,0,13.6,3.2,17.2c2.9,3.3,7.4,4.9,13.6,4.9c4.4,0,8.8-0.7,12.4-1.8l1.9-13.4c-0.4,0-0.9,0.1-1.3,0.1
				c-1.9,0-4.1-0.1-5.4-1.7c-1.1-1.2-1.4-3.1-1.1-5.8l7.4-54.8L99.4,10.6z"/>
		</g>
		<g>
			<path class="st3" d="M190.7,66.8c-0.6,4.5,1.9,5.3,5.9,4.3l-2.2,15.4c-3.5,1.2-9.5,2-14.8,2.1c-8,0-12.8-3.2-14.6-8
				c-5.8,5.4-11.9,8.1-18.9,8.1c-11.2,0-18-8.2-16.4-19.3l5.2-38.1l25.6-0.1l-4.4,32c-0.4,2.9,1.4,5.2,4,5.2c2.5,0,5-2.3,5.4-5.2
				l4.4-32l25.6-0.1L190.7,66.8z"/>
			<path class="st1" d="M179.7,89.7c-9.3,0-13.3-4-15-7.3c-5.7,4.9-11.8,7.4-18.5,7.4c-5.6,0-10.5-2-13.7-5.7
				c-3.3-3.8-4.7-9-3.9-14.9l5.4-39l27.8-0.1l-4.6,33.3c-0.2,1.1,0.1,2.2,0.7,3c0.5,0.6,1.3,1,2.2,1c2,0,4-2,4.3-4.3l4.5-33
				l27.8-0.1l-5,36.9c-0.1,1-0.2,2.4,0.5,3c0.6,0.6,2.1,0.6,4.1,0.1l1.6-0.4l-2.5,17.7l-0.6,0.2C191.2,88.8,184.9,89.7,179.7,89.7z
				 M165.5,78.7l0.6,1.5c1.8,4.7,6.6,7.3,13.6,7.3c4.8,0,10.3-0.8,13.8-1.8l1.9-13.2c-2.1,0.3-3.5,0-4.5-0.9c-1.1-1-1.5-2.6-1.2-4.9
				l4.7-34.4l-23.4,0.1l-4.3,31.1c-0.5,3.4-3.4,6.1-6.4,6.1c-1.5,0-2.9-0.6-3.9-1.7c-1.1-1.2-1.5-2.9-1.3-4.7l4.2-30.8l-23.4,0.1
				l-5.1,37.1c-0.7,5.2,0.5,9.8,3.3,13.1c2.8,3.2,7.1,4.9,12,4.9c6.6,0,12.5-2.6,18.1-7.8L165.5,78.7z"/>
		</g>
		<g>
			<path class="st3" d="M266.8,54.1c0.1,18.2-10.3,34.3-26.8,34.3c-6.7,0-11.7-3.3-14.9-8.5l-1,7.2l-24.6,0.1l10.7-78.1L235.8,9
				L232,36.8c4.5-4.5,9.9-7.1,16-7.1C259.8,29.6,266.7,40.3,266.8,54.1z M241.8,57.4c0-4.4-2.4-7.9-6.3-7.9c-5,0-8.9,5.1-8.8,10.9
				c0,4.4,2.4,7.9,6.3,7.9C237.9,68.3,241.8,63.2,241.8,57.4z"/>
			<path class="st1" d="M240,89.5c-5.7,0-10.7-2.3-14.2-6.7l-0.8,5.4l-26.8,0.1l11-80.3L237,7.9L233.5,34c4.4-3.6,9.3-5.4,14.5-5.4
				c11.8,0,19.8,10.2,19.9,25.5c0,9.3-2.6,18.1-7.4,24.6C255.4,85.6,248.1,89.5,240,89.5z M224.4,76.8l1.6,2.6c3.2,5.2,8.2,8,14,8
				c7.5,0,14-3.5,18.7-9.9c4.5-6.2,7-14.4,7-23.3c-0.1-14-7.2-23.4-17.7-23.3c-5.6,0-10.7,2.3-15.3,6.8l-2.3,2.2l4.1-29.7l-23.5,0.1
				l-10.4,75.9l22.4-0.1L224.4,76.8z M232.9,69.4c-4.3,0-7.3-3.7-7.4-9c0-6.6,4.4-12,9.9-12c4.3,0,7.3,3.7,7.4,9
				C242.9,64,238.4,69.4,232.9,69.4z M235.5,50.6c-4.2,0-7.8,4.5-7.7,9.8c0,3.4,1.6,6.8,5.2,6.8c4.2,0,7.8-4.5,7.7-9.8
				C240.7,54,239.1,50.6,235.5,50.6z"/>
		</g>
	</g>
</g>
</svg>
