<svg id="Capa_1" data-name="Capa 1" xmlns="http://www.w3.org/2000/svg" viewBox="0 0 313 60"><defs><style>.cls-1{fill:#0a1e3f;}.cls-2{fill:#eb6798;}.cls-3{fill:#95b6e5;}.cls-4{fill:#a7a8a9;}.cls-5{fill:#fff;}</style></defs><path class="cls-1" d="M80.51,18.79h8.35c3.27,0,6.35,1.51,6.35,5.67,0,4.36-2.49,6.06-6.35,6.06H85.09v5.86H80.51ZM85.09,27h3.08c1.43,0,2.46-.59,2.46-2.19a2.17,2.17,0,0,0-2.46-2.32H85.09Z"/><path class="cls-1" d="M111.41,29.11c0,5.1-2.33,7.64-7.65,7.64s-7.66-2.54-7.66-7.64V18.79h4.58V29.38c0,2.27.84,3.43,3.08,3.43s3.07-1.16,3.07-3.43V18.79h4.58Z"/><path class="cls-1" d="M113.31,18.79h9c3.11,0,6.16,1.41,6.16,5a4.51,4.51,0,0,1-2.76,4.4v.05c1.87.45,2.41,2.54,2.56,4.21.05.74.13,3.33.74,4h-4.53a8.66,8.66,0,0,1-.52-2.81c-.12-1.77-.41-3.59-2.56-3.59h-3.47v6.4h-4.58Zm4.58,7.64h3.84a1.89,1.89,0,0,0,2.12-2.07c0-1.3-1-1.9-2.31-1.9h-3.65Z"/><path class="cls-1" d="M129.93,18.79h14v3.67h-9.43v3.08h8.62v3.55h-8.62v3.35h9.68v3.94H129.93Z"/><path class="cls-1" d="M152.24,18.79h4.58V32.44H165v3.94H152.24Z"/><path class="cls-1" d="M174.13,18.43c5.54,0,8.67,4.06,8.67,9.16s-3.13,9.16-8.67,9.16-8.67-4.07-8.67-9.16S168.59,18.43,174.13,18.43Zm0,14.38c3,0,4.09-2.61,4.09-5.22s-1.13-5.22-4.09-5.22S170,25,170,27.59,171.18,32.81,174.13,32.81Z"/><path class="cls-1" d="M193.07,29.83v6.55h-4.58V29.83l-6.4-11h5.19l3.5,7.15,3.49-7.15h5.2Z"/><path class="cls-1" d="M202.35,18.79H207l6.57,17.59h-4.77l-1.09-3.15h-6.13l-1.11,3.15h-4.7Zm.3,11h4l-1.95-6.16h-.05Z"/><path class="cls-1" d="M213.75,18.79h4.58V32.44h8.2v3.94H213.75Z"/><path class="cls-1" d="M238.4,22.73h-5.24V36.38h-4.58V22.73h-5.25V18.79H238.4Z"/><path class="cls-1" d="M248.2,29.83v6.55h-4.58V29.83l-6.4-11h5.2l3.49,7.15,3.5-7.15h5.2Z"/><path class="cls-2" d="M6.87,18.69H17.39a5.74,5.74,0,0,1,4,1.3,4.21,4.21,0,0,1,1.4,3.22,4.07,4.07,0,0,1-1,2.77,4.45,4.45,0,0,1-1.95,1.22,5,5,0,0,1,2.87,1.61,4.45,4.45,0,0,1,.92,2.87A4.93,4.93,0,0,1,23,34.22,4.88,4.88,0,0,1,21.21,36a5.9,5.9,0,0,1-2.13.59,23.22,23.22,0,0,1-2.52.25H6.87Zm5.65,7.13H15a2.91,2.91,0,0,0,1.84-.44,1.65,1.65,0,0,0,.52-1.32,1.52,1.52,0,0,0-.52-1.23,2.75,2.75,0,0,0-1.8-.45h-2.5Zm0,7.11H15.4a3.19,3.19,0,0,0,2-.51A1.73,1.73,0,0,0,18,31.05a1.56,1.56,0,0,0-.59-1.29,3.27,3.27,0,0,0-2.07-.49H12.52Z"/><path class="cls-3" d="M23.9,18.84h5.42V32.06h8.45v4.32H23.9Z"/><path class="cls-3" d="M49.18,18.84h5.41V29.3a8.93,8.93,0,0,1-.48,2.94,6.29,6.29,0,0,1-1.52,2.41,6.19,6.19,0,0,1-2.18,1.46,11,11,0,0,1-3.8.58,24.07,24.07,0,0,1-2.8-.18,7.43,7.43,0,0,1-2.53-.71,6.42,6.42,0,0,1-1.87-1.51,5.69,5.69,0,0,1-1.15-2,10.34,10.34,0,0,1-.5-3V18.84h5.41V29.55A3,3,0,0,0,44,31.8a3.42,3.42,0,0,0,4.41,0,3.05,3.05,0,0,0,.8-2.26Z"/><path class="cls-3" d="M61.35,28.88c.16,1.94,1.29,3.32,3.34,3.32A3.28,3.28,0,0,0,67.45,31h6.13c-1.33,3.69-4.94,5.4-8.85,5.4-5.51,0-9.65-3.22-9.65-8.92a8.79,8.79,0,0,1,9.08-9c6.83,0,9.78,3.78,9.78,10.43Zm6.3-3.39a2.82,2.82,0,0,0-2.89-2.86,3.1,3.1,0,0,0-3.38,2.86Z"/><path class="cls-1" d="M259.46,20.82a2.05,2.05,0,1,1-2-2A2,2,0,0,1,259.46,20.82Zm-3.59,0a1.56,1.56,0,0,0,1.56,1.6A1.54,1.54,0,0,0,259,20.83a1.54,1.54,0,1,0-3.08,0Zm1.23,1h-.46v-2a6.17,6.17,0,0,1,.77-.06,1,1,0,0,1,.68.16.5.5,0,0,1,.2.43.51.51,0,0,1-.41.47v0c.2.06.29.22.35.49a1.75,1.75,0,0,0,.15.49h-.49a1.78,1.78,0,0,1-.15-.49c0-.21-.16-.3-.42-.3h-.22Zm0-1.12h.23c.25,0,.46-.09.46-.3s-.14-.3-.43-.3a.79.79,0,0,0-.26,0Z"/><path class="cls-4" d="M134,50.23h-1.09L134.63,42h-2.56l.21-1h6.22l-.19,1h-2.58Z"/><path class="cls-4" d="M141.94,50.23l.94-4.37A5.72,5.72,0,0,0,143,45a.83.83,0,0,0-.93-.94,1.87,1.87,0,0,0-1.09.38,3.39,3.39,0,0,0-.95,1.08,5.88,5.88,0,0,0-.61,1.72l-.64,3h-1.06l2.08-9.83h1.07c-.08.35-.15.68-.22,1s-.14.65-.22,1-.15.68-.24,1.05-.18.76-.3,1.19H140a4.25,4.25,0,0,1,1.17-1.11,2.42,2.42,0,0,1,1.21-.33,1.72,1.72,0,0,1,1.28.45,1.75,1.75,0,0,1,.45,1.29,4.89,4.89,0,0,1-.14,1.05c-.16.81-.47,2.23-.92,4.24Z"/><path class="cls-4" d="M147.91,50.36a2.4,2.4,0,0,1-1.82-.69,2.6,2.6,0,0,1-.67-1.91,5.7,5.7,0,0,1,.47-2.27,4.22,4.22,0,0,1,1.25-1.7,2.7,2.7,0,0,1,1.71-.61,2.19,2.19,0,0,1,1.46.42,1.48,1.48,0,0,1,.48,1.18,2,2,0,0,1-1,1.78,5.76,5.76,0,0,1-3,.65h-.21l0,.5A2,2,0,0,0,146.9,49a1.48,1.48,0,0,0,1.2.47,3.36,3.36,0,0,0,.82-.11,7.09,7.09,0,0,0,1.05-.42v.92a5.35,5.35,0,0,1-1.05.39A4.53,4.53,0,0,1,147.91,50.36Zm.88-6.27a1.67,1.67,0,0,0-1.22.59,3.92,3.92,0,0,0-.88,1.65h.08A5.16,5.16,0,0,0,149,46a1.17,1.17,0,0,0,.76-1.09.71.71,0,0,0-.23-.55A1,1,0,0,0,148.79,44.09Z"/><path class="cls-4" d="M158,50.36a1.88,1.88,0,0,1-1.08-.32,2.09,2.09,0,0,1-.71-.88h-.06l0,.24c0,.1,0,.25-.06.44s-.28,1.36-.73,3.5h-1l2.13-10h.87l-.16,1.32h0a3.08,3.08,0,0,1,2.35-1.43,1.68,1.68,0,0,1,1.37.61,2.7,2.7,0,0,1,.49,1.73,6.76,6.76,0,0,1-.43,2.46,4.09,4.09,0,0,1-1.21,1.74A2.71,2.71,0,0,1,158,50.36Zm1.17-6.29a1.83,1.83,0,0,0-1.23.6,4.38,4.38,0,0,0-1,1.51,4.87,4.87,0,0,0-.37,1.87,1.49,1.49,0,0,0,.35,1.06,1.33,1.33,0,0,0,1,.37,1.67,1.67,0,0,0,1.16-.51,3.61,3.61,0,0,0,.87-1.46,6,6,0,0,0,.33-2C160.29,44.55,159.91,44.07,159.16,44.07Z"/><path class="cls-4" d="M166.07,43.22a2.55,2.55,0,0,1,1.9.71,2.71,2.71,0,0,1,.69,2,5.64,5.64,0,0,1-.45,2.24A3.83,3.83,0,0,1,167,49.76a2.92,2.92,0,0,1-1.76.57,2.5,2.5,0,0,1-1.9-.71,2.7,2.7,0,0,1-.69-1.95,5.74,5.74,0,0,1,.46-2.26,3.79,3.79,0,0,1,1.25-1.62A2.87,2.87,0,0,1,166.07,43.22Zm1.5,2.52a1.75,1.75,0,0,0-.4-1.18,1.35,1.35,0,0,0-1.07-.45,1.88,1.88,0,0,0-1.24.47,3,3,0,0,0-.84,1.3,5.4,5.4,0,0,0-.3,1.85,1.83,1.83,0,0,0,.4,1.27,1.44,1.44,0,0,0,1.15.46,1.77,1.77,0,0,0,1.18-.46,3,3,0,0,0,.82-1.32A5.77,5.77,0,0,0,167.57,45.74Z"/><path class="cls-4" d="M174.52,50.23l-.2-3.8c0-.4,0-.76,0-1.09v-1h0l-.32.74-.52,1.2-1.84,3.93h-1.28L170,43.31h1l.11,3.75v.56c0,.62,0,1.18,0,1.7h0c.19-.53.48-1.2.86-2l1.87-4H175l.23,3.75c0,.71,0,1.26,0,1.66v.33l0,.27h0c.12-.37.3-.82.53-1.38s.91-2.1,2-4.63H179l-3.19,6.92Z"/><path class="cls-4" d="M181.65,50.36a2.4,2.4,0,0,1-1.82-.69,2.6,2.6,0,0,1-.67-1.91,5.7,5.7,0,0,1,.47-2.27,4.22,4.22,0,0,1,1.25-1.7,2.7,2.7,0,0,1,1.71-.61,2.19,2.19,0,0,1,1.46.42,1.48,1.48,0,0,1,.48,1.18,2,2,0,0,1-1.05,1.78,5.71,5.71,0,0,1-3,.65h-.2l0,.5a2,2,0,0,0,.39,1.29,1.48,1.48,0,0,0,1.2.47,3.36,3.36,0,0,0,.82-.11,7.09,7.09,0,0,0,1.05-.42v.92a5.35,5.35,0,0,1-1.05.39A4.53,4.53,0,0,1,181.65,50.36Zm.88-6.27a1.67,1.67,0,0,0-1.22.59,4,4,0,0,0-.88,1.65h.08a5.16,5.16,0,0,0,2.21-.38,1.17,1.17,0,0,0,.76-1.09.71.71,0,0,0-.23-.55A1,1,0,0,0,182.53,44.09Z"/><path class="cls-4" d="M189.68,43.18a2.75,2.75,0,0,1,.75.09l-.22.95a2.61,2.61,0,0,0-.67-.08,1.69,1.69,0,0,0-1.07.38,3.2,3.2,0,0,0-.88,1,5.1,5.1,0,0,0-.55,1.49l-.68,3.17H185.3l1.48-6.92h.87l-.13,1.28h.06a5.6,5.6,0,0,1,.75-.86,2.25,2.25,0,0,1,.62-.4A1.73,1.73,0,0,1,189.68,43.18Z"/><path class="cls-4" d="M197.47,43.22a2.57,2.57,0,0,1,1.9.71,2.71,2.71,0,0,1,.69,2,5.64,5.64,0,0,1-.45,2.24,3.93,3.93,0,0,1-1.24,1.63,2.87,2.87,0,0,1-1.75.57,2.5,2.5,0,0,1-1.9-.71,2.7,2.7,0,0,1-.69-1.95,5.57,5.57,0,0,1,.46-2.26,3.78,3.78,0,0,1,1.24-1.62A2.92,2.92,0,0,1,197.47,43.22ZM199,45.74a1.75,1.75,0,0,0-.39-1.18,1.36,1.36,0,0,0-1.07-.45,1.88,1.88,0,0,0-1.24.47,3,3,0,0,0-.85,1.3,5.4,5.4,0,0,0-.3,1.85,1.83,1.83,0,0,0,.41,1.27,1.42,1.42,0,0,0,1.15.46,1.77,1.77,0,0,0,1.18-.46,3.08,3.08,0,0,0,.82-1.32A6,6,0,0,0,199,45.74Z"/><path class="cls-4" d="M200,53.34a2.22,2.22,0,0,1-.79-.13v-.89a2.33,2.33,0,0,0,.71.14.83.83,0,0,0,.74-.4,3.27,3.27,0,0,0,.41-1.11l1.44-6.84H201.3l.08-.42,1.3-.42.15-.63a3.7,3.7,0,0,1,.8-1.78,2.07,2.07,0,0,1,1.53-.53,3.28,3.28,0,0,1,.62.08,2.5,2.5,0,0,1,.57.16l-.27.81a2.55,2.55,0,0,0-.87-.18,1.07,1.07,0,0,0-.84.31,2.31,2.31,0,0,0-.48,1.12l-.16.68h1.5l-.15.8h-1.5l-1.47,6.94a3.57,3.57,0,0,1-.75,1.74A1.76,1.76,0,0,1,200,53.34Z"/><path class="cls-4" d="M208.62,50.23,210.57,41h1.08l-1.75,8.26h3.57l-.21,1Z"/><path class="cls-4" d="M218.27,43.22a2.55,2.55,0,0,1,1.9.71,2.71,2.71,0,0,1,.69,2,5.64,5.64,0,0,1-.45,2.24,3.92,3.92,0,0,1-1.23,1.63,2.92,2.92,0,0,1-1.76.57,2.5,2.5,0,0,1-1.9-.71,2.7,2.7,0,0,1-.69-1.95,5.57,5.57,0,0,1,.46-2.26,3.72,3.72,0,0,1,1.25-1.62A2.87,2.87,0,0,1,218.27,43.22Zm1.49,2.52a1.75,1.75,0,0,0-.39-1.18,1.35,1.35,0,0,0-1.07-.45,1.88,1.88,0,0,0-1.24.47,3,3,0,0,0-.84,1.3,5.4,5.4,0,0,0-.3,1.85,1.83,1.83,0,0,0,.4,1.27,1.44,1.44,0,0,0,1.15.46,1.77,1.77,0,0,0,1.18-.46,3.08,3.08,0,0,0,.82-1.32A5.78,5.78,0,0,0,219.76,45.74Z"/><path class="cls-4" d="M222.09,43.31h1.06l.47,3.44q.06.44.12,1.29c0,.56.06,1,.06,1.37h0c.15-.37.33-.79.55-1.27s.38-.8.49-1l2.05-3.85h1.12l-4.39,8.1a4.61,4.61,0,0,1-1.17,1.51,2.26,2.26,0,0,1-1.38.42,2.89,2.89,0,0,1-.88-.13v-.85a3.18,3.18,0,0,0,.82.11,1.33,1.33,0,0,0,.89-.32,3.4,3.4,0,0,0,.72-.94l.48-.86Z"/><path class="cls-4" d="M231.48,43.18a1.78,1.78,0,0,1,1,.32,2,2,0,0,1,.71.9h.07l.42-1.09h.8l-1.47,6.92h-.84l.16-1.32h-.05a3.09,3.09,0,0,1-2.38,1.45,1.68,1.68,0,0,1-1.38-.63,2.66,2.66,0,0,1-.49-1.71,6.74,6.74,0,0,1,.44-2.44,4.3,4.3,0,0,1,1.24-1.76A2.75,2.75,0,0,1,231.48,43.18Zm-1.2,6.3a1.76,1.76,0,0,0,1.22-.58,4.36,4.36,0,0,0,1-1.53,5,5,0,0,0,.38-1.87,1.46,1.46,0,0,0-.36-1,1.18,1.18,0,0,0-.93-.39,1.77,1.77,0,0,0-1.22.55,3.66,3.66,0,0,0-.89,1.47,6.06,6.06,0,0,0-.32,2,1.61,1.61,0,0,0,.3,1.07A1,1,0,0,0,230.28,49.48Z"/><path class="cls-4" d="M236.18,50.23h-1.06l2.09-9.83h1.06Z"/><path class="cls-4" d="M240.54,49.49a3.41,3.41,0,0,0,.91-.16v.81a3.57,3.57,0,0,1-.54.16,2.76,2.76,0,0,1-.5.06A1.75,1.75,0,0,1,239.2,50a1.42,1.42,0,0,1-.42-1.12,5,5,0,0,1,.11-1l.81-3.8h-1.09l.09-.46,1.17-.49.79-1.44h.61l-.34,1.59h1.73l-.17.8h-1.72L240,47.93a4.85,4.85,0,0,0-.11.83.73.73,0,0,0,.18.54A.69.69,0,0,0,240.54,49.49Z"/><path class="cls-4" d="M242.85,43.31h1.07l.46,3.44c.05.29.09.72.13,1.29s.06,1,.06,1.37h0c.15-.37.33-.79.55-1.27s.38-.8.49-1l2.05-3.85h1.13l-4.4,8.1a4.61,4.61,0,0,1-1.16,1.51,2.31,2.31,0,0,1-1.39.42,2.93,2.93,0,0,1-.88-.13v-.85a3.26,3.26,0,0,0,.83.11,1.35,1.35,0,0,0,.89-.32,3.59,3.59,0,0,0,.71-.94l.48-.86Z"/><path class="cls-4" d="M252.14,44.66a1.4,1.4,0,1,1-1.39-1.36A1.37,1.37,0,0,1,252.14,44.66Zm-2.45,0a1.06,1.06,0,0,0,1.06,1.09,1,1,0,0,0,1-1.08,1.05,1.05,0,1,0-2.1,0Zm.84.7h-.31V44a2.92,2.92,0,0,1,.52,0,.74.74,0,0,1,.46.11.33.33,0,0,1,.14.29.35.35,0,0,1-.28.33h0c.14,0,.2.15.24.33a1.14,1.14,0,0,0,.1.33h-.33A.92.92,0,0,1,251,45c0-.14-.1-.2-.28-.2h-.15Zm0-.76h.15c.17,0,.31-.06.31-.2s-.09-.2-.29-.2h-.17Z"/><path class="cls-2" d="M285.42,6.66a20.71,20.71,0,1,0,20.71,20.7,20.71,20.71,0,0,0-20.71-20.7m0,39.79A19.09,19.09,0,1,1,304.5,27.36a19.09,19.09,0,0,1-19.08,19.09"/><path class="cls-3" d="M285.42,8.28A19.09,19.09,0,1,0,304.5,27.36,19.09,19.09,0,0,0,285.42,8.28m0,37.14a18.06,18.06,0,1,1,18.05-18.06,18.05,18.05,0,0,1-18.05,18.06"/><path class="cls-2" d="M285.42,9.31a18.06,18.06,0,1,0,18.05,18.06A18.06,18.06,0,0,0,285.42,9.31"/><path class="cls-5" d="M282.52,32.93h3.79c1.51,0,2.55-.54,2.55-2s-1.12-2.13-2.55-2.13h-3.79Zm0-7.23h3.66A1.76,1.76,0,0,0,288.12,24c0-1.32-.94-1.75-1.94-1.75h-3.66Zm-4.73-7.15h8.5c3.13-.05,6.56.77,6.56,4.56a4.08,4.08,0,0,1-2.39,3.66,4.31,4.31,0,0,1,3.13,4.3c0,4.33-3.18,5.65-7.07,5.65h-8.73Z"/><path class="cls-1" d="M305.86,43.64a1.83,1.83,0,1,1-1.81-1.78A1.79,1.79,0,0,1,305.86,43.64Zm-3.2,0a1.39,1.39,0,0,0,1.39,1.42,1.37,1.37,0,0,0,1.36-1.41,1.38,1.38,0,1,0-2.75,0Zm1.1.92h-.42V42.78a5.16,5.16,0,0,1,.68-.05.93.93,0,0,1,.61.14.46.46,0,0,1,.19.38.45.45,0,0,1-.37.42v0c.17.06.26.2.31.44a1.85,1.85,0,0,0,.13.43h-.43a1.3,1.3,0,0,1-.14-.43c0-.18-.14-.27-.37-.27h-.19Zm0-1h.2c.23,0,.41-.08.41-.27S304.25,43,304,43a.63.63,0,0,0-.23,0Z"/></svg>