<svg id="Capa_1" data-name="Capa 1" xmlns="http://www.w3.org/2000/svg" viewBox="0 0 313 60"><defs><style>.cls-1{fill:#011e41;}.cls-2{fill:#8ab7e9;}.cls-3{fill:#a7a8a9;}.cls-4{fill:#fff;}</style></defs><path class="cls-1" d="M81.2,17.3h8.3c3.3,0,6.3,1.5,6.3,5.7s-2.5,6-6.3,6H85.7v5.8H81.1l.1-17.5Zm4.5,8.2h3.1c1.4,0,2.5-.6,2.5-2.2A2.21,2.21,0,0,0,88.8,21H85.7Z"/><path class="cls-1" d="M112,27.6c0,5.1-2.3,7.6-7.6,7.6s-7.6-2.5-7.6-7.6V17.3h4.6V27.9c0,2.3.8,3.4,3.1,3.4s3.1-1.2,3.1-3.4V17.3h4.6V27.6Z"/><path class="cls-1" d="M113.9,17.3h8.9c3.1,0,6.1,1.4,6.1,4.9a4.46,4.46,0,0,1-2.8,4.4h0c1.9.4,2.4,2.5,2.6,4.2,0,.7.1,3.3.7,4H125a7.22,7.22,0,0,1-.5-2.8c-.1-1.8-.4-3.6-2.6-3.6h-3.5v6.4h-4.6l.1-17.5Zm4.6,7.6h3.8a1.86,1.86,0,0,0,2.1-2.1c0-1.3-1-1.9-2.3-1.9h-3.6Z"/><path class="cls-1" d="M130.5,17.3h14V21h-9.4v3.1h8.6v3.5h-8.6v3.3h9.7v3.9H130.6V17.3Z"/><path class="cls-1" d="M152.7,17.3h4.6V30.9h8.2v3.9H152.7Z"/><path class="cls-1" d="M174.6,17c5.5,0,8.7,4.1,8.7,9.1s-3.1,9.1-8.7,9.1-8.7-4.1-8.7-9.1S169.1,17,174.6,17Zm0,14.3c2.9,0,4.1-2.6,4.1-5.2s-1.1-5.2-4.1-5.2-4.1,2.6-4.1,5.2S171.6,31.3,174.6,31.3Z"/><path class="cls-1" d="M193.5,28.3v6.5h-4.6V28.3l-6.4-11h5.2l3.5,7.1,3.5-7.1h5.2Z"/><path class="cls-1" d="M202.8,17.3h4.6L214,34.8h-4.8l-1.1-3.1H202l-1.1,3.1h-4.7Zm.2,11h4l-1.9-6.1H205Z"/><path class="cls-1" d="M214.1,17.3h4.6V30.9h8.2v3.9H214.1Z"/><path class="cls-1" d="M238.7,21.3h-5.2V34.9h-4.6V21.3h-5.2V17.4h15Z"/><path class="cls-1" d="M248.5,28.3v6.5h-4.6V28.3l-6.4-11h5.2l3.5,7.1,3.5-7.1h5.2Z"/><path class="cls-1" d="M8.1,17.4H18.2a5.26,5.26,0,0,1,3.9,1.3,4.1,4.1,0,0,1,1.4,3.1,3.94,3.94,0,0,1-1,2.7,4.44,4.44,0,0,1-1.9,1.2,4.55,4.55,0,0,1,2.8,1.6,4.28,4.28,0,0,1,.9,2.8,4.75,4.75,0,0,1-.6,2.4A4.62,4.62,0,0,1,22,34.2a4.78,4.78,0,0,1-2.1.6,13.64,13.64,0,0,1-2.4.2H8.1Zm5.5,6.8H16a2.82,2.82,0,0,0,1.8-.4,1.73,1.73,0,0,0,.5-1.3,1.66,1.66,0,0,0-.5-1.2,2.5,2.5,0,0,0-1.7-.4H13.7v3.3Zm0,6.9h2.8a3.44,3.44,0,0,0,2-.5,1.61,1.61,0,0,0,.6-1.3,1.43,1.43,0,0,0-.6-1.2,3.22,3.22,0,0,0-2-.5H13.6Z"/><path class="cls-2" d="M24.7,17.4h5.4V30.6h8.4v4.3H24.7Z"/><path class="cls-2" d="M49.9,17.4h5.4V27.8a9.29,9.29,0,0,1-.5,2.9,6.08,6.08,0,0,1-1.5,2.4,6.17,6.17,0,0,1-2.2,1.5,10.82,10.82,0,0,1-3.8.6c-.9,0-1.8-.1-2.8-.2a8.23,8.23,0,0,1-2.5-.7,9,9,0,0,1-1.9-1.5,7.08,7.08,0,0,1-1.2-2,11.73,11.73,0,0,1-.5-3V17.4h5.4V28.1a3,3,0,0,0,.8,2.2,3.43,3.43,0,0,0,4.4,0,3.2,3.2,0,0,0,.8-2.3l.1-10.6Z"/><path class="cls-2" d="M62,27.4c.2,1.9,1.3,3.3,3.3,3.3A3.16,3.16,0,0,0,68,29.5h6.1c-1.3,3.7-4.9,5.4-8.8,5.4-5.5,0-9.6-3.2-9.6-8.9a8.75,8.75,0,0,1,9.1-9c6.8,0,9.8,3.8,9.8,10.4ZM68.3,24a2.84,2.84,0,0,0-2.9-2.9A3.09,3.09,0,0,0,62,24Z"/><path class="cls-1" d="M259.7,19.3a2,2,0,0,1-2,2,2.09,2.09,0,0,1-2.1-2,2,2,0,0,1,2.1-2A2.07,2.07,0,0,1,259.7,19.3Zm-3.5,0a1.58,1.58,0,0,0,1.6,1.6,1.5,1.5,0,0,0,1.5-1.6,1.56,1.56,0,0,0-1.5-1.6A1.64,1.64,0,0,0,256.2,19.3Zm1.2,1.1h-.5v-2c.2,0,.4-.1.8-.1a1.17,1.17,0,0,1,.7.2.52.52,0,0,1,.2.4.66.66,0,0,1-.4.5h0a.7.7,0,0,1,.4.5,1.34,1.34,0,0,1,.1.5h-.5c-.1-.1-.1-.2-.2-.5s-.2-.3-.4-.3h-.2v.8Zm0-1.1h.2c.3,0,.5-.1.5-.3s-.1-.3-.4-.3h-.3Z"/><path class="cls-3" d="M134.5,48.7h-1.1l1.7-8.3h-2.6l.2-1h6.2l-.2,1h-2.6Z"/><path class="cls-3" d="M142.5,48.7l.9-4.4a3.44,3.44,0,0,0,.1-.9.8.8,0,0,0-.9-.9,1.67,1.67,0,0,0-1.1.4,2,2,0,0,0-.9,1.1,4.28,4.28,0,0,0-.6,1.7l-.6,3h-1.1l2.1-9.8h1.1c-.1.3-.1.7-.2,1s-.1.7-.2,1a3.55,3.55,0,0,0-.2,1l-.3,1.2h.1a4,4,0,0,1,1.2-1.1,2.66,2.66,0,0,1,1.2-.3,1.71,1.71,0,0,1,1.8,1.8,3.75,3.75,0,0,1-.1,1q-.3,1.2-.9,4.2Z"/><path class="cls-3" d="M148.4,48.8a2.14,2.14,0,0,1-1.8-.7,2.94,2.94,0,0,1-.7-1.9,6.35,6.35,0,0,1,.5-2.3,4.34,4.34,0,0,1,1.2-1.7,2.72,2.72,0,0,1,1.7-.6,2.41,2.41,0,0,1,1.5.4,1.66,1.66,0,0,1,.5,1.2,2,2,0,0,1-1,1.8,6.12,6.12,0,0,1-3,.6h-.2v.5a1.7,1.7,0,0,0,.4,1.3,1.66,1.66,0,0,0,1.2.5,2.2,2.2,0,0,0,.8-.1,6.89,6.89,0,0,0,1-.4v.9a6.89,6.89,0,0,1-1,.4A4.1,4.1,0,0,1,148.4,48.8Zm.9-6.2a1.73,1.73,0,0,0-1.2.6,3.54,3.54,0,0,0-.9,1.6h.1a4.32,4.32,0,0,0,2.2-.4,1.17,1.17,0,0,0,.8-1.1,1.42,1.42,0,0,0-.2-.6A2,2,0,0,0,149.3,42.6Z"/><path class="cls-3" d="M158.5,48.8a2,2,0,0,1-1.1-.3,2.18,2.18,0,0,1-.7-.9h-.1v.2a.6.6,0,0,1-.1.4c0,.2-.3,1.4-.7,3.5h-1l2.1-10h.9l-.2,1.3h.1a2.94,2.94,0,0,1,2.3-1.4,1.82,1.82,0,0,1,1.4.6,2.86,2.86,0,0,1,.5,1.7,6.9,6.9,0,0,1-.4,2.5,4.34,4.34,0,0,1-1.2,1.7A2.74,2.74,0,0,1,158.5,48.8Zm1.2-6.3a1.73,1.73,0,0,0-1.2.6,4,4,0,0,0-1,1.5,5.85,5.85,0,0,0-.4,1.9,1.8,1.8,0,0,0,.3,1.1,1.53,1.53,0,0,0,1,.4,2.08,2.08,0,0,0,1.2-.5,3.5,3.5,0,0,0,.9-1.5,6.45,6.45,0,0,0,.3-2C160.8,43,160.4,42.5,159.7,42.5Z"/><path class="cls-3" d="M166.6,41.7a2.49,2.49,0,0,1,1.9.7,2.58,2.58,0,0,1,.7,2,5.45,5.45,0,0,1-.5,2.2,4,4,0,0,1-1.2,1.6,2.79,2.79,0,0,1-1.8.6,2.42,2.42,0,0,1-2.6-2.6,5.93,5.93,0,0,1,.5-2.3,4,4,0,0,1,1.2-1.6A2.79,2.79,0,0,1,166.6,41.7Zm1.4,2.5a1.59,1.59,0,0,0-.4-1.2,1.43,1.43,0,0,0-1.1-.5,1.66,1.66,0,0,0-1.2.5,2.42,2.42,0,0,0-.8,1.3,5.66,5.66,0,0,0-.3,1.8,1.7,1.7,0,0,0,.4,1.3,1.66,1.66,0,0,0,1.2.5,2.08,2.08,0,0,0,1.2-.5,3.22,3.22,0,0,0,.8-1.3A10.07,10.07,0,0,0,168,44.2Z"/><path class="cls-3" d="M175,48.7l-.2-3.8V42.8h-.1l-.3.7-.5,1.2-1.8,3.9h-1.3l-.3-6.9h1l.1,3.7V46a9.15,9.15,0,0,1-.1,1.7h0c.2-.5.5-1.2.9-2l1.9-4h1.1l.2,3.7v2.3h0c.1-.4.3-.8.5-1.4s.9-2.1,2-4.6h1.1L176,48.6l-1,.1Z"/><path class="cls-3" d="M182.1,48.8a2.14,2.14,0,0,1-1.8-.7,2.94,2.94,0,0,1-.7-1.9,6.35,6.35,0,0,1,.5-2.3,4.34,4.34,0,0,1,1.2-1.7,2.72,2.72,0,0,1,1.7-.6,2.41,2.41,0,0,1,1.5.4,1.66,1.66,0,0,1,.5,1.2,2,2,0,0,1-1,1.8,6.12,6.12,0,0,1-3,.6h-.2v.5a1.7,1.7,0,0,0,.4,1.3,1.66,1.66,0,0,0,1.2.5,2.2,2.2,0,0,0,.8-.1,6.89,6.89,0,0,0,1-.4v.9a6.89,6.89,0,0,1-1,.4A4.1,4.1,0,0,1,182.1,48.8Zm.9-6.2a1.73,1.73,0,0,0-1.2.6,3.54,3.54,0,0,0-.9,1.6h.1a4.32,4.32,0,0,0,2.2-.4,1.17,1.17,0,0,0,.8-1.1,1.42,1.42,0,0,0-.2-.6A2.2,2.2,0,0,0,183,42.6Z"/><path class="cls-3" d="M190.1,41.7a2.2,2.2,0,0,1,.8.1l-.2.9a1.48,1.48,0,0,0-.7-.1,1.67,1.67,0,0,0-1.1.4,9,9,0,0,0-.9,1,5.21,5.21,0,0,0-.6,1.5l-.7,3.2h-1.1l1.5-6.9h.9l-.1,1.3h.1c.3-.4.6-.7.7-.9a2.09,2.09,0,0,1,.6-.4A2.2,2.2,0,0,1,190.1,41.7Z"/><path class="cls-3" d="M197.9,41.7a2.49,2.49,0,0,1,1.9.7,2.58,2.58,0,0,1,.7,2,5.45,5.45,0,0,1-.5,2.2,4,4,0,0,1-1.2,1.6,2.79,2.79,0,0,1-1.8.6,2.42,2.42,0,0,1-2.6-2.6,5.93,5.93,0,0,1,.5-2.3,4,4,0,0,1,1.2-1.6A3,3,0,0,1,197.9,41.7Zm1.5,2.5A1.59,1.59,0,0,0,199,43a1.43,1.43,0,0,0-1.1-.5,1.66,1.66,0,0,0-1.2.5,2.42,2.42,0,0,0-.8,1.3,5.66,5.66,0,0,0-.3,1.8,1.7,1.7,0,0,0,.4,1.3,1.66,1.66,0,0,0,1.2.5,2.08,2.08,0,0,0,1.2-.5,3.22,3.22,0,0,0,.8-1.3A10.07,10.07,0,0,0,199.4,44.2Z"/><path class="cls-3" d="M200.4,51.8a2,2,0,0,1-.8-.1v-.9a2,2,0,0,0,.7.1.67.67,0,0,0,.7-.4,2.82,2.82,0,0,0,.4-1.1l1.4-6.8h-1.2l.1-.4,1.3-.4.1-.6a5.07,5.07,0,0,1,.8-1.8,2.25,2.25,0,0,1,1.5-.5,1.27,1.27,0,0,1,.6.1,1.42,1.42,0,0,1,.6.2l-.3.8a2.92,2.92,0,0,0-.9-.2,1,1,0,0,0-.8.3,2.26,2.26,0,0,0-.5,1.1l-.2.7h1.5l-.2.8H204l-1.5,6.9a3,3,0,0,1-.8,1.7A1.73,1.73,0,0,1,200.4,51.8Z"/><path class="cls-3" d="M209,48.7l1.9-9.2H212l-1.7,8.2h3.6l-.2,1Z"/><path class="cls-3" d="M218.6,41.7a2.49,2.49,0,0,1,1.9.7,2.58,2.58,0,0,1,.7,2,5.45,5.45,0,0,1-.5,2.2,4,4,0,0,1-1.2,1.6,2.79,2.79,0,0,1-1.8.6,2.42,2.42,0,0,1-2.6-2.6,5.93,5.93,0,0,1,.5-2.3,4,4,0,0,1,1.2-1.6A3.23,3.23,0,0,1,218.6,41.7Zm1.5,2.5a1.59,1.59,0,0,0-.4-1.2,1.43,1.43,0,0,0-1.1-.5,1.66,1.66,0,0,0-1.2.5,2.42,2.42,0,0,0-.8,1.3,5.66,5.66,0,0,0-.3,1.8,1.7,1.7,0,0,0,.4,1.3,1.66,1.66,0,0,0,1.2.5,2.08,2.08,0,0,0,1.2-.5,3.22,3.22,0,0,0,.8-1.3A10.07,10.07,0,0,0,220.1,44.2Z"/><path class="cls-3" d="M222.4,41.8h1.1l.5,3.4c0,.3.1.7.1,1.3s.1,1,.1,1.4h0a11.22,11.22,0,0,1,.5-1.3,8.92,8.92,0,0,1,.5-1l2-3.8h1.1l-4.4,8.1a4.9,4.9,0,0,1-1.2,1.5,2.12,2.12,0,0,1-1.4.4,2.77,2.77,0,0,1-.9-.1v-.9a2.2,2.2,0,0,0,.8.1,1.61,1.61,0,0,0,.9-.3,3.51,3.51,0,0,0,.7-.9l.5-.9Z"/><path class="cls-3" d="M231.8,41.7a1.69,1.69,0,0,1,1,.3,2.18,2.18,0,0,1,.7.9h.1l.4-1.1h.8l-1.5,6.9h-.8l.2-1.3h-.1a3,3,0,0,1-2.4,1.4,1.82,1.82,0,0,1-1.4-.6,2.86,2.86,0,0,1-.5-1.7,6.05,6.05,0,0,1,.4-2.4,5.67,5.67,0,0,1,1.2-1.8A3.81,3.81,0,0,1,231.8,41.7Zm-1.2,6.2a1.73,1.73,0,0,0,1.2-.6,5.6,5.6,0,0,0,1-1.5,4.06,4.06,0,0,0,.4-1.9,1.16,1.16,0,0,0-.4-1,1,1,0,0,0-.9-.4,2.08,2.08,0,0,0-1.2.5,3.77,3.77,0,0,0-.9,1.5,6.45,6.45,0,0,0-.3,2,1.8,1.8,0,0,0,.3,1.1A1.14,1.14,0,0,0,230.6,47.9Z"/><path class="cls-3" d="M236.5,48.7h-1.1l2.1-9.8h1.1Z"/><path class="cls-3" d="M240.9,48a5.07,5.07,0,0,0,.9-.2v.8c-.1.1-.3.1-.5.2a4.33,4.33,0,0,0-.5.1,1.59,1.59,0,0,1-1.2-.4,1.25,1.25,0,0,1-.4-1.1,2.77,2.77,0,0,1,.1-.9l.8-3.8H239l.1-.5,1.2-.5.8-1.4h.6l-.3,1.6h1.7l-.2.8h-1.7l-.8,3.8a2.81,2.81,0,0,0-.1.8.76.76,0,0,0,.2.5C240.5,47.9,240.6,48,240.9,48Z"/><path class="cls-3" d="M243.2,41.8h1.1l.5,3.4c0,.3.1.7.1,1.3s.1,1,.1,1.4h0a11.22,11.22,0,0,1,.5-1.3,8.92,8.92,0,0,1,.5-1l2-3.8h1.1l-4.4,8.1a4.9,4.9,0,0,1-1.2,1.5,2.12,2.12,0,0,1-1.4.4,2.77,2.77,0,0,1-.9-.1v-.9a2.2,2.2,0,0,0,.8.1,1.61,1.61,0,0,0,.9-.3,3.51,3.51,0,0,0,.7-.9l.5-.9Z"/><path class="cls-3" d="M252.4,43.1a1.4,1.4,0,1,1-1.4-1.4A1.5,1.5,0,0,1,252.4,43.1Zm-2.4,0a1.11,1.11,0,0,0,1.1,1.1,1,1,0,0,0,1-1.1A1,1,0,0,0,251,42,1.1,1.1,0,0,0,250,43.1Zm.8.7h-.3V42.4h.5c.3,0,.4,0,.5.1a.37.37,0,0,1,.1.3.27.27,0,0,1-.3.3h0c.1,0,.2.1.2.3a.44.44,0,0,0,.1.3h-.3a1,1,0,0,1-.1-.3c0-.1-.1-.2-.3-.2h-.1v.6Zm0-.7h.1c.2,0,.3-.1.3-.2s-.1-.2-.3-.2h-.2l.1.4Z"/><path class="cls-1" d="M285.7,5.2a20.7,20.7,0,1,0,20.7,20.7A20.74,20.74,0,0,0,285.7,5.2m0,39.7a19,19,0,1,1,19-19,19,19,0,0,1-19,19"/><path class="cls-2" d="M285.7,6.8a19,19,0,1,0,19,19,19,19,0,0,0-19-19m0,37.1a18,18,0,1,1,18-18,18.05,18.05,0,0,1-18,18"/><path class="cls-1" d="M285.7,7.9a18,18,0,1,0,18,18,18.05,18.05,0,0,0-18-18"/><path class="cls-4" d="M282.8,31.4h3.8c1.5,0,2.5-.5,2.5-2s-1.1-2.1-2.5-2.1h-3.8Zm0-7.2h3.7a1.76,1.76,0,1,0,0-3.5h-3.7ZM278,17.1h8.5c3.1,0,6.6.8,6.6,4.5a4.33,4.33,0,0,1-2.4,3.7,4.33,4.33,0,0,1,3.1,4.3c0,4.3-3.2,5.6-7.1,5.6H278Z"/><path class="cls-1" d="M306,42.1a1.8,1.8,0,1,1-1.8-1.8A1.79,1.79,0,0,1,306,42.1Zm-3.2,0a1.4,1.4,0,1,0,1.4-1.4A1.37,1.37,0,0,0,302.8,42.1Zm1.1.9h-.4V41.2c.2,0,.4-.1.7-.1a3.54,3.54,0,0,1,.6.1.52.52,0,0,1,.2.4.43.43,0,0,1-.4.4h0c.2.1.3.2.3.4a1.58,1.58,0,0,1,.1.4h-.4c-.1-.1-.1-.2-.1-.4s-.1-.3-.4-.3h-.2V43Zm.1-1h.2c.2,0,.4-.1.4-.3s-.1-.3-.4-.3H304Z"/></svg>