<?xml version="1.0" encoding="utf-8"?>
<!-- Generator: Adobe Illustrator 25.4.1, SVG Export Plug-In . SVG Version: 6.00 Build 0)  -->
<svg version="1.1" id="Capa_1" xmlns="http://www.w3.org/2000/svg" xmlns:xlink="http://www.w3.org/1999/xlink" x="0px" y="0px"
	 viewBox="0 0 368.9 49.2" style="enable-background:new 0 0 368.9 49.2;" xml:space="preserve">
<style type="text/css">
	.st0{fill:#011E41;}
	.st1{fill:#EB6798;}
	.st2{fill:#95B6E5;}
</style>
<path class="st0" d="M4.5,11.8h9.4c5.5,0,7.3,4,7.3,8c0,5.5-3.4,8-8.5,8H9.9v10.6H4.5V11.8z M9.9,23.9h2.4c2.1,0,3.6-1.3,3.6-4
	s-1.1-4.1-3.7-4.1H9.9V23.9z"/>
<path class="st0" d="M32,11.3c8.1,0,9.1,5.7,9.1,13.8S40,39,32,39s-9.1-5.8-9.1-13.8S23.9,11.3,32,11.3z M32,35
	c3.2,0,3.7-2.7,3.7-9.9s-0.5-9.9-3.7-9.9s-3.7,2.8-3.7,9.9S28.8,35,32,35z"/>
<path class="st0" d="M42.3,11.8h5.1l3,19.7h0.1l3.1-19.7h5.2l3.1,19.7h0.1l3-19.7H70l-4.8,26.6h-6l-3-19.3h-0.1l-3,19.3h-6
	L42.3,11.8z"/>
<path class="st0" d="M86.7,11.8v4.4h-9.5v6.3h9v4.4h-9v7.2h9.9v4.4H71.8V11.8H86.7z"/>
<path class="st0" d="M89.4,11.8h9.9c4.4,0,7.1,2.3,7.1,6.9c0,3.5-1.4,5.9-4.4,6.6v0.1c3.7,0.5,4.2,2.5,4.3,8.1
	c0,2.8,0.2,4.3,1.2,4.8v0.2h-5.8c-0.5-0.8-0.7-1.8-0.7-2.8l-0.2-5.1c-0.1-2.1-1-3.4-3.2-3.4h-2.9v11.2h-5.4V11.8z M94.8,23.4H97
	c2.6,0,4-1.1,4-4c0-2.5-1.3-3.7-3.7-3.7h-2.5V23.4z"/>
<path class="st0" d="M124.7,11.8v4.4h-9.5v6.3h9v4.4h-9v7.2h9.9v4.4h-15.2V11.8H124.7z"/>
<path class="st0" d="M127.6,11.8h8.8c7.5,0,8.8,5.1,8.8,13c0,9.4-2,13.7-9.1,13.7h-8.5V11.8z M133,34.5h2.4c3.7,0,4.5-2.3,4.5-9.6
	c0-6-0.5-9.1-4.6-9.1H133V34.5z"/>
<path class="st0" d="M157,11.8h9c4.4,0,7.6,1.6,7.6,6.8c0,2.9-1.4,5.1-4,5.8v0.1c3,0.4,4.9,2.7,4.9,6.2c0,4.2-2.1,7.8-8.3,7.8H157
	V11.8z M162.4,22.7h1.5c3,0,4.3-1,4.3-3.5s-1.2-3.5-3.9-3.5h-1.9V22.7z M162.4,34.5h2.1c2.6,0,4.3-0.9,4.3-4s-1.8-4-4.1-4h-2.3V34.5
	z"/>
<path class="st0" d="M181.6,11.8l3.5,10.3h0.1l3.7-10.3h5.8L187.8,28v10.4h-5.4V28l-6.9-16.2L181.6,11.8z"/>
<path class="st1" d="M203.3,4.2h24.1c4,0,7.1,1,9.3,3c2.1,1.9,3.3,4.6,3.2,7.4c0.1,2.3-0.8,4.6-2.3,6.3c-1.2,1.3-2.8,2.3-4.5,2.8
	c2.5,0.5,4.9,1.8,6.6,3.7c1.5,1.9,2.2,4.2,2.1,6.6c0,2-0.5,4-1.5,5.8c-1,1.7-2.4,3.1-4.1,4.1c-1.5,0.8-3.2,1.2-4.9,1.3
	c-1.9,0.3-3.8,0.5-5.8,0.6h-22.2V4.2z M216.3,20.5h5.6c2,0,3.4-0.3,4.2-1c0.8-0.8,1.3-1.9,1.2-3c0.1-1.1-0.4-2.1-1.2-2.8
	c-0.8-0.7-2.2-1-4.1-1h-5.7V20.5z M216.3,36.8h6.6c2.2,0,3.8-0.4,4.7-1.2c0.9-0.8,1.4-1.9,1.4-3.2c0.1-1.2-0.5-2.3-1.4-3
	c-0.9-0.7-2.5-1.1-4.8-1.1h-6.6L216.3,36.8z"/>
<path class="st2" d="M242.7,4.2h12.8v31.4h20.1v10.2h-32.9L242.7,4.2z"/>
<path class="st2" d="M302.6,4.2h12.8V29c0,2.4-0.4,4.7-1.1,7c-0.7,2.2-2,4.1-3.6,5.7c-1.4,1.5-3.2,2.7-5.2,3.5c-2.9,1-5.9,1.5-9,1.4
	c-2.2,0-4.4-0.2-6.6-0.4c-2.1-0.2-4.1-0.8-6-1.7c-1.7-0.9-3.2-2.1-4.4-3.6c-1.2-1.4-2.2-3-2.8-4.8c-0.7-2.3-1.1-4.6-1.2-7V4.2h12.8
	v25.4c-0.1,2,0.6,3.9,1.9,5.3c1.4,1.3,3.3,2,5.2,1.9c1.9,0.1,3.8-0.6,5.2-1.8c1.3-1.5,2-3.4,1.9-5.4V4.2z"/>
<path class="st2" d="M331.5,28c0.4,4.6,3.1,7.9,8,7.9c2.5,0,5.3-0.9,6.5-2.9h14.6c-3.1,8.8-11.7,12.8-21,12.8
	c-13.1,0-22.9-7.6-22.9-21.1c0-11.8,8.6-21.4,21.5-21.4c16.2,0,23.2,9,23.2,24.8L331.5,28z M346.4,20c0.1-3.7-2.9-6.7-6.5-6.8
	c0,0,0,0,0,0h-0.3c-4.6,0-7.3,2.4-8,6.8H346.4z"/>
<path class="st2" d="M365.3,8c0.1,1.9-1.5,3.6-3.4,3.6c-1.9,0.1-3.6-1.5-3.6-3.4c-0.1-1.9,1.5-3.6,3.4-3.6h0.1
	C363.7,4.5,365.2,6.1,365.3,8C365.3,8,365.3,8,365.3,8z M359.1,8c0,1.5,1.1,2.7,2.6,2.7c0,0,0,0,0,0h0.1c1.5,0,2.6-1.2,2.6-2.7
	c0,0,0,0,0,0V8c0-1.5-1.2-2.7-2.6-2.7C360.3,5.3,359.1,6.5,359.1,8C359.1,8,359.1,8,359.1,8z M361.2,9.8h-0.8V6.3
	c0.4-0.1,0.9-0.1,1.3-0.1c0.4,0,0.8,0.1,1.2,0.3c0.2,0.2,0.4,0.4,0.4,0.7c0,0.4-0.3,0.7-0.7,0.8v0.1c0.3,0.1,0.5,0.4,0.6,0.8
	c0,0.3,0.1,0.6,0.2,0.8h-0.8c-0.1-0.3-0.2-0.5-0.3-0.8c-0.1-0.4-0.3-0.5-0.7-0.5h-0.4L361.2,9.8z M361.2,7.9h0.4
	c0.4,0,0.8-0.2,0.8-0.5s-0.2-0.5-0.7-0.5c-0.1,0-0.3,0-0.4,0V7.9z"/>
</svg>
