<?xml version="1.0" encoding="utf-8"?>
<!-- Generator: Adobe Illustrator 25.1.0, SVG Export Plug-In . SVG Version: 6.00 Build 0)  -->
<svg version="1.1" id="Capa_1" xmlns="http://www.w3.org/2000/svg" xmlns:xlink="http://www.w3.org/1999/xlink" x="0px" y="0px"
	 viewBox="0 0 350.5 104.8" style="enable-background:new 0 0 350.5 104.8;" xml:space="preserve">
<style type="text/css">
	.st0{fill:#FFFFFF;}
</style>
<g>
	<path class="st0" d="M21.2,69.7H4.8V35.1h14.6c5.6,0,10.8,2.5,10.8,8.8c0,3.4-1.5,6.3-4.7,7.6v0.1c4.1,0.9,6.4,4.1,6.4,8.3
		C32,66.3,27.3,69.7,21.2,69.7z M18.2,41.1h-5.5v8.2h5.5c2.4,0,4.4-1.5,4.4-4.1C22.6,42.6,20.7,41.1,18.2,41.1z M18.6,55.1h-5.9v8.6
		h5.9c2.8,0,5.4-1.1,5.4-4.3C24,56.3,21.4,55.1,18.6,55.1z"/>
	<path class="st0" d="M59.3,69.7H36.6V35.1h22.3v6.2H44.5v7.8h13.1v6.2H44.5v8.1h14.9v6.3H59.3z"/>
	<path class="st0" d="M94,69.7H77.6V35.1h14.6c5.6,0,10.8,2.5,10.8,8.8c0,3.4-1.5,6.3-4.7,7.6v0.1c4.1,0.9,6.4,4.1,6.4,8.3
		C104.8,66.3,100.1,69.7,94,69.7z M91,41.1h-5.5v8.2H91c2.4,0,4.4-1.5,4.4-4.1C95.4,42.6,93.4,41.1,91,41.1z M91.3,55.1h-5.9v8.6
		h5.9c2.8,0,5.4-1.1,5.4-4.3C96.8,56.3,94.1,55.1,91.3,55.1z"/>
	<path class="st0" d="M132.1,69.7h-22.7V35.1h22.3v6.2h-14.4v7.8h13.1v6.2h-13.1v8.1h14.9v6.3H132.1z"/>
	<path class="st0" d="M171.5,69.7h-8.3l-17.7-22.6v22.6h-7.9V35.1h8.5l17.6,22.6V35.1h7.9v34.6H171.5z"/>
	<path class="st0" d="M201.3,69.7h-22.7V35.1h22.3v6.2h-14.4v7.8h13.1v6.2h-13.1v8.1h14.9v6.3H201.3z"/>
	<path class="st0" d="M232.6,41.3h-9.7v28.4h-7.8V41.3h-10.2v-6.2h27.7V41.3z"/>
	<path class="st0" d="M264.4,41.3h-9.7v28.4h-7.8V41.3h-10.2v-6.2h27.7V41.3z"/>
	<path class="st0" d="M285,70.1c-10.6,0-19.1-6.7-19.1-17.8c0-2.7,0.6-5.4,1.8-7.9c3.2-6.9,9.9-9.9,17.3-9.9
		c10.5,0,18.9,6.9,18.9,17.8C303.9,63.2,295.5,70.1,285,70.1z M285,41.4c-6.2,0-11.2,4.7-11.2,11c0,6.2,5.1,11,11.2,11
		c6,0,11-5,11-11C296.1,46.3,291.1,41.4,285,41.4z"/>
	<path class="st0" d="M343.4,69.7h-8.3l-17.7-22.6v22.6h-7.9V35.1h8.5l17.6,22.6V35.1h7.9v34.6H343.4z"/>
</g>
</svg>
