<?xml version="1.0" encoding="utf-8"?>
<!-- Generator: Adobe Illustrator 26.1.0, SVG Export Plug-In . SVG Version: 6.00 Build 0)  -->
<svg version="1.1" id="Capa_1" xmlns="http://www.w3.org/2000/svg" xmlns:xlink="http://www.w3.org/1999/xlink" x="0px" y="0px"
	 viewBox="0 0 800 160.9" style="enable-background:new 0 0 800 160.9;" xml:space="preserve">
<style type="text/css">
	.st0{fill:#F17533;}
	.st1{fill:#7D2796;}
	.st2{fill:#D62F8A;}
	.st3{fill:#7AC943;}
	.st4{fill:#0A1E3F;}
	.st5{fill:none;stroke:#FFFFFF;stroke-width:1.59;stroke-linecap:round;stroke-linejoin:round;}
	.st6{clip-path:url(#SVGID_00000057843876726116917710000008144569090073787033_);}
	.st7{fill:none;stroke:#FFFFFF;stroke-width:0.5;stroke-miterlimit:10;}
	.st8{fill:#7AC943;stroke:#FFFFFF;stroke-width:0.5;stroke-miterlimit:10;}
	.st9{fill:#FFFFFF;}
	.st10{fill:#8AB7E9;}
	.st11{fill:#011E41;}
	.st12{fill:#95B6E5;}
	.st13{fill:#89229A;}
</style>
<circle class="st0" cx="80" cy="59.8" r="58.4"/>
<circle class="st1" cx="239.6" cy="59.8" r="58.4"/>
<circle class="st1" cx="239.5" cy="59.4" r="58.4"/>
<circle class="st2" cx="400.2" cy="59.8" r="58.4"/>
<circle class="st3" cx="560.2" cy="59.8" r="58.4"/>
<circle class="st4" cx="720" cy="59.8" r="58.4"/>
<path class="st4" d="M44.1,142.6l-0.9-2.9H39l-0.9,2.9h-2.7l4.2-12.1h3.1l4.2,12.1H44.1z M42.7,137.6c-0.8-2.6-1.2-4.1-1.3-4.4
	s-0.2-0.6-0.2-0.8c-0.2,0.7-0.7,2.4-1.5,5.2H42.7z"/>
<path class="st4" d="M59,142.6h-2.8l-1.6-6.3c-0.1-0.2-0.2-0.7-0.3-1.4s-0.2-1.2-0.2-1.4c0,0.3-0.1,0.8-0.2,1.4s-0.2,1.1-0.3,1.4
	l-1.6,6.3h-3l-3-12.1h2.5l1.5,6.6c0.3,1.2,0.5,2.3,0.6,3.2c0-0.3,0.1-0.8,0.2-1.4s0.2-1.2,0.3-1.5l1.7-6.8h2.4l1.8,6.8
	c0.1,0.3,0.2,0.8,0.3,1.4s0.2,1.2,0.3,1.6c0-0.4,0.1-1,0.3-1.6s0.2-1.2,0.3-1.6l1.5-6.6h2.5L59,142.6z"/>
<path class="st4" d="M70,142.6l-0.9-2.9h-4.4l-0.9,2.9h-2.7l4.2-12.1h3.1l4.2,12.1H70z M68.5,137.6c-0.8-2.6-1.2-4.1-1.3-4.4
	s-0.2-0.6-0.2-0.8c-0.2,0.7-0.7,2.4-1.5,5.2H68.5z"/>
<path class="st4" d="M75.8,138v4.6h-2.5v-12.1h3.4c1.3-0.1,2.5,0.2,3.6,0.9c1.3,1.2,1.5,3.1,0.6,4.6c-0.4,0.6-1,1-1.6,1.3
	c1.8,2.7,2.9,4.5,3.5,5.2H80l-2.8-4.6h-1.4V138z M75.8,135.9h0.8c0.6,0,1.2-0.1,1.8-0.4c0.4-0.3,0.6-0.8,0.6-1.3s-0.2-0.9-0.6-1.2
	c-0.6-0.3-1.2-0.4-1.8-0.4h-0.8V135.9z"/>
<path class="st4" d="M90.3,142.6h-6.8v-12.1h6.8v2.1H86v2.6h4v2.1h-4v3.1h4.3V142.6z"/>
<path class="st4" d="M102.4,142.6h-3.2l-5.2-9.1h0c0.1,1.6,0.2,2.8,0.2,3.4v5.7H92v-12.1h3.2l5.2,9h0.1c-0.1-1.6-0.1-2.7-0.1-3.3
	v-5.7h2.3L102.4,142.6z"/>
<path class="st4" d="M111.4,142.6h-6.8v-12.1h6.8v2.1h-4.3v2.6h4v2.1h-4v3.1h4.3V142.6z"/>
<path class="st4" d="M120,139.3c0,1-0.4,1.9-1.2,2.6c-0.9,0.7-2.1,1-3.2,0.9c-1.2,0-2.3-0.2-3.4-0.7v-2.4c0.6,0.3,1.3,0.6,2,0.8
	c0.5,0.1,1,0.2,1.5,0.2c0.4,0,0.9-0.1,1.3-0.3c0.3-0.2,0.5-0.6,0.4-0.9c0-0.2-0.1-0.4-0.2-0.6c-0.2-0.2-0.3-0.4-0.6-0.5
	c-0.5-0.3-1-0.6-1.5-0.8c-0.6-0.3-1.1-0.6-1.6-1c-0.4-0.3-0.7-0.7-0.9-1.1c-0.2-0.5-0.3-1-0.3-1.5c0-1,0.3-1.9,1.1-2.5
	c0.8-0.6,1.9-1,2.9-0.9c0.6,0,1.2,0.1,1.8,0.2c0.6,0.2,1.2,0.4,1.8,0.6l-0.8,2c-0.5-0.2-1-0.4-1.6-0.6c-0.4-0.1-0.8-0.1-1.2-0.1
	c-0.4,0-0.8,0.1-1.1,0.3c-0.3,0.2-0.4,0.5-0.4,0.9c0,0.2,0.1,0.4,0.2,0.6c0.1,0.2,0.3,0.4,0.5,0.5c0.5,0.3,1,0.6,1.6,0.9
	c0.9,0.4,1.6,0.9,2.3,1.6C119.8,137.9,120,138.6,120,139.3z"/>
<path class="st4" d="M128.3,139.3c0,1-0.4,2-1.2,2.6c-0.9,0.7-2.1,1-3.2,0.9c-1.2,0-2.3-0.2-3.3-0.7v-2.4c0.6,0.3,1.3,0.6,2,0.8
	c0.5,0.1,1,0.2,1.5,0.2c0.4,0,0.9-0.1,1.3-0.3c0.3-0.2,0.5-0.6,0.4-0.9c0-0.2-0.1-0.4-0.2-0.6c-0.2-0.2-0.3-0.4-0.6-0.5
	c-0.5-0.3-1-0.6-1.5-0.8c-0.6-0.3-1.1-0.6-1.6-1c-0.4-0.3-0.7-0.7-0.9-1.1c-0.6-1.4-0.3-3,0.7-4c0.8-0.6,1.9-1,2.9-0.9
	c0.6,0,1.2,0.1,1.8,0.2c0.6,0.2,1.2,0.4,1.8,0.6l-0.8,2c-0.5-0.2-1-0.4-1.6-0.6c-0.4-0.1-0.8-0.1-1.2-0.1c-0.4,0-0.8,0.1-1.1,0.3
	c-0.3,0.2-0.4,0.5-0.4,0.9c0,0.2,0,0.4,0.2,0.6c0.1,0.2,0.3,0.4,0.5,0.5c0.5,0.3,1,0.6,1.6,0.9c0.9,0.4,1.6,0.9,2.3,1.6
	C128.1,137.9,128.3,138.6,128.3,139.3z"/>
<path class="st4" d="M182.2,132.5c-0.9,0-1.7,0.4-2.2,1.1c-0.6,0.9-0.8,1.9-0.8,3c0,2.7,1,4,3,4c1,0,2-0.3,3-0.6v2.1
	c-1,0.4-2.1,0.6-3.2,0.6c-1.5,0.1-3-0.5-4-1.6c-1-1.3-1.5-2.9-1.4-4.6c0-1.1,0.2-2.3,0.7-3.3c0.4-0.9,1.1-1.7,1.9-2.2
	c0.9-0.5,1.9-0.8,3-0.8c1.2,0,2.4,0.3,3.5,0.9l-0.8,2.1c-0.4-0.2-0.9-0.4-1.3-0.6C183.1,132.6,182.7,132.5,182.2,132.5z"/>
<path class="st4" d="M197.7,136.6c0.1,1.7-0.4,3.3-1.5,4.6c-2.4,2.1-6,2.1-8.4,0c-1.1-1.3-1.6-3-1.5-4.6c-0.1-1.7,0.4-3.3,1.5-4.6
	c1.1-1.1,2.6-1.7,4.2-1.6c1.6-0.1,3.1,0.5,4.2,1.6C197.3,133.3,197.8,134.9,197.7,136.6z M189,136.6c-0.1,1.1,0.2,2.1,0.8,3
	c0.5,0.7,1.4,1.1,2.2,1c2,0,3-1.4,3-4.1c0-2.7-1-4.1-3-4.1c-0.9-0.1-1.7,0.3-2.3,1C189.2,134.4,188.9,135.5,189,136.6L189,136.6z"/>
<path class="st4" d="M209.8,142.6h-3.2l-5.1-9.1h-0.1c0.1,1.6,0.1,2.8,0.1,3.4v5.7h-2.2v-12.1h3.2l5.1,9h0.1
	c-0.1-1.6-0.1-2.7-0.1-3.3v-5.7h2.3L209.8,142.6z"/>
<path class="st4" d="M218.9,139.3c0,1-0.4,1.9-1.1,2.6c-0.9,0.7-2.1,1-3.2,0.9c-1.2,0-2.3-0.2-3.4-0.7v-2.4c0.6,0.3,1.3,0.6,2,0.8
	c0.5,0.1,1,0.2,1.5,0.2c0.4,0,0.9-0.1,1.3-0.3c0.3-0.2,0.5-0.6,0.4-0.9c0-0.2-0.1-0.4-0.2-0.6c-0.2-0.2-0.3-0.4-0.6-0.5
	c-0.5-0.3-1-0.6-1.5-0.8c-0.6-0.3-1.1-0.6-1.6-1c-0.4-0.3-0.6-0.7-0.9-1.1c-0.6-1.4-0.3-3,0.7-4c0.8-0.6,1.9-1,2.9-0.9
	c0.6,0,1.2,0.1,1.8,0.2c0.6,0.2,1.2,0.4,1.8,0.6l-0.8,2c-0.5-0.2-1-0.4-1.6-0.6c-0.4-0.1-0.8-0.1-1.2-0.1s-0.8,0.1-1.1,0.3
	s-0.4,0.5-0.4,0.9c0,0.2,0,0.4,0.1,0.6c0.1,0.2,0.3,0.4,0.5,0.5c0.5,0.3,1,0.6,1.6,0.9c0.9,0.4,1.6,0.9,2.3,1.6
	C218.7,137.9,218.9,138.6,218.9,139.3z"/>
<path class="st4" d="M220.2,142.6v-12.1h2.5v12.1H220.2z"/>
<path class="st4" d="M234.7,136.5c0.1,1.7-0.5,3.3-1.7,4.6c-1.3,1.1-3.1,1.7-4.8,1.6h-3.4v-12.1h3.7c1.6-0.1,3.3,0.5,4.5,1.6
	C234.2,133.3,234.8,134.9,234.7,136.5z M232.1,136.5c0-2.6-1.1-3.9-3.4-3.9h-1.3v7.9h1.1C230.9,140.5,232.1,139.2,232.1,136.5
	L232.1,136.5z"/>
<path class="st4" d="M243.2,142.6h-6.8v-12.1h6.8v2.1h-4.3v2.6h4v2.1h-4v3.1h4.3V142.6z"/>
<path class="st4" d="M247.3,138v4.6h-2.5v-12.1h3.4c1.3-0.1,2.5,0.2,3.6,0.9c0.8,0.7,1.2,1.7,1.2,2.7c0,0.7-0.2,1.3-0.6,1.9
	c-0.4,0.6-1,1-1.6,1.3c1.8,2.7,3,4.5,3.5,5.2h-2.8l-2.8-4.6h-1.4V138z M247.3,135.9h0.8c0.6,0,1.2-0.1,1.8-0.4
	c0.4-0.3,0.6-0.8,0.6-1.3s-0.2-1-0.6-1.2c-0.6-0.3-1.2-0.4-1.8-0.4h-0.8V135.9z"/>
<path class="st4" d="M262.2,142.6l-0.9-2.9H257l-0.9,2.9h-2.7l4.2-12.1h3.1l4.2,12.1H262.2z M260.7,137.6c-0.8-2.6-1.2-4.1-1.3-4.4
	s-0.2-0.6-0.2-0.8c-0.2,0.7-0.7,2.4-1.5,5.2H260.7z"/>
<path class="st4" d="M270.1,142.6h-2.5v-9.9h-3.2v-2.1h8.9v2.1h-3.2L270.1,142.6L270.1,142.6z"/>
<path class="st4" d="M274.3,142.6v-12.1h2.5v12.1H274.3z"/>
<path class="st4" d="M289.7,136.6c0.1,1.7-0.4,3.3-1.5,4.6c-2.4,2.1-6,2.1-8.4,0c-1.1-1.3-1.6-3-1.5-4.6c-0.1-1.7,0.4-3.3,1.5-4.6
	c2.4-2.1,6-2.1,8.4,0C289.3,133.3,289.8,134.9,289.7,136.6z M281.1,136.6c-0.1,1.1,0.2,2.1,0.8,3c0.5,0.7,1.4,1.1,2.3,1
	c2,0,3-1.4,3-4.1s-1-4.1-3-4.1c-0.9-0.1-1.7,0.3-2.3,1C281.3,134.4,281,135.5,281.1,136.6z"/>
<path class="st4" d="M301.9,142.6h-3.2l-5.1-9.1h-0.1c0.1,1.6,0.2,2.8,0.2,3.4v5.7h-2.2v-12.1h3.2l5.1,9h0.1
	c-0.1-1.6-0.1-2.7-0.1-3.3v-5.7h2.3L301.9,142.6z"/>
<path class="st4" d="M366.2,134.3c0.1,1.1-0.4,2.2-1.2,3c-1,0.7-2.2,1.1-3.4,1h-1.1v4.3H358v-12.1h3.8c1.2-0.1,2.3,0.3,3.3,0.9
	C365.8,132.2,366.3,133.3,366.2,134.3z M360.5,136.2h0.8c0.6,0,1.2-0.1,1.7-0.5c0.4-0.3,0.6-0.8,0.6-1.4c0-0.5-0.1-1-0.5-1.3
	s-1-0.5-1.5-0.4h-1.1V136.2z"/>
<path class="st4" d="M377.2,130.6v7.8c0,0.8-0.2,1.6-0.6,2.3s-1,1.2-1.7,1.5c-0.8,0.4-1.7,0.6-2.6,0.5c-1.3,0.1-2.6-0.4-3.5-1.2
	c-0.9-0.9-1.3-2-1.3-3.3v-7.8h2.5v7.4c-0.1,0.7,0.1,1.4,0.5,2c0.5,0.5,1.1,0.7,1.8,0.6c0.7,0.1,1.3-0.2,1.8-0.6
	c0.4-0.6,0.6-1.3,0.6-2.1v-7.4L377.2,130.6z"/>
<path class="st4" d="M381.8,138v4.6h-2.5v-12.1h3.5c1.3-0.1,2.5,0.2,3.6,0.9c0.8,0.7,1.2,1.7,1.2,2.7c0,0.7-0.2,1.3-0.6,1.9
	c-0.4,0.6-1,1-1.6,1.3c1.8,2.7,2.9,4.5,3.5,5.2H386l-2.9-4.6h-1.3V138z M381.8,135.9h0.8c0.6,0,1.2-0.1,1.8-0.4
	c0.4-0.3,0.6-0.8,0.6-1.3s-0.2-0.9-0.6-1.2c-0.6-0.3-1.2-0.4-1.8-0.4h-0.8V135.9z"/>
<path class="st4" d="M394.5,132.5c-0.9,0-1.7,0.4-2.2,1.1c-0.6,0.9-0.8,1.9-0.8,3c0,2.7,1,4,3,4c1,0,2-0.3,3-0.6v2.1
	c-1,0.4-2.1,0.6-3.3,0.6c-1.5,0.1-2.9-0.5-4-1.6c-1-1.3-1.5-2.9-1.4-4.6c0-1.1,0.2-2.3,0.7-3.3c0.4-0.9,1.1-1.7,1.9-2.2
	c0.9-0.5,1.9-0.8,3-0.8c1.2,0,2.4,0.3,3.5,0.9l-0.8,2.1c-0.4-0.2-0.9-0.4-1.3-0.6C395.4,132.6,394.9,132.5,394.5,132.5z"/>
<path class="st4" d="M408.9,142.6h-2.5v-5.2h-4.7v5.2h-2.5v-12.1h2.5v4.7h4.7v-4.7h2.5V142.6z"/>
<path class="st4" d="M418.3,142.6l-0.9-2.9h-4.3l-0.9,2.9h-2.7l4.2-12.1h3.1l4.2,12.1H418.3z M416.8,137.6c-0.8-2.6-1.2-4.1-1.3-4.4
	s-0.2-0.6-0.2-0.8c-0.2,0.7-0.7,2.4-1.5,5.2H416.8z"/>
<path class="st4" d="M428.6,139.3c0,1-0.4,1.9-1.1,2.6c-0.9,0.7-2.1,1-3.2,0.9c-1.2,0-2.3-0.2-3.4-0.7v-2.4c0.6,0.3,1.3,0.6,2,0.8
	c0.5,0.1,1,0.2,1.5,0.2c0.4,0,0.9-0.1,1.3-0.3c0.3-0.2,0.5-0.6,0.4-0.9c0-0.2-0.1-0.4-0.2-0.6c-0.1-0.2-0.3-0.4-0.6-0.5
	c-0.5-0.3-1-0.6-1.5-0.8c-0.6-0.3-1.1-0.6-1.6-1c-0.4-0.3-0.6-0.7-0.9-1.1c-0.6-1.4-0.3-3,0.7-4c0.8-0.6,1.9-1,2.9-0.9
	c0.6,0,1.2,0.1,1.8,0.2c0.6,0.2,1.2,0.4,1.8,0.6l-0.8,2c-0.5-0.2-1-0.4-1.6-0.6c-0.4-0.1-0.8-0.1-1.2-0.1c-0.4,0-0.8,0.1-1.1,0.3
	c-0.3,0.2-0.4,0.5-0.4,0.9c0,0.2,0,0.4,0.1,0.6c0.1,0.2,0.3,0.4,0.5,0.5c0.5,0.3,1,0.6,1.6,0.9c0.9,0.4,1.6,0.9,2.3,1.6
	C428.4,137.9,428.6,138.6,428.6,139.3z"/>
<path class="st4" d="M436.8,142.6H430v-12.1h6.8v2.1h-4.3v2.6h4v2.1h-4v3.1h4.3V142.6z"/>
<path class="st4" d="M520.2,138v4.6h-2.5v-12.1h3.5c1.3-0.1,2.5,0.2,3.6,0.9c0.8,0.7,1.2,1.7,1.2,2.7c0,0.7-0.2,1.3-0.6,1.9
	c-0.4,0.6-1,1-1.6,1.3c1.8,2.7,2.9,4.5,3.5,5.2h-2.8l-2.8-4.6h-1.5V138z M520.2,135.9h0.8c0.6,0,1.2-0.1,1.8-0.4
	c0.4-0.3,0.6-0.8,0.6-1.3s-0.2-1-0.6-1.2c-0.6-0.3-1.2-0.4-1.8-0.4h-0.8V135.9z"/>
<path class="st4" d="M534.7,142.6h-6.8v-12.1h6.8v2.1h-4.3v2.6h4v2.1h-4v3.1h4.3V142.6z"/>
<path class="st4" d="M540.9,142.6h-2.5v-9.9h-3.2v-2.1h8.9v2.1h-3.2V142.6z"/>
<path class="st4" d="M551.9,142.6h-6.8v-12.1h6.8v2.1h-4.3v2.6h4v2.1h-4v3.1h4.3V142.6z"/>
<path class="st4" d="M564,142.6h-3.2l-5.2-9.1h-0.1c0.1,1.6,0.2,2.8,0.2,3.4v5.7h-2.2v-12.1h3.2l5.1,9h0.1c-0.1-1.6-0.1-2.7-0.1-3.3
	v-5.7h2.3L564,142.6L564,142.6z"/>
<path class="st4" d="M570.8,142.6h-2.5v-9.9H565v-2.1h9v2.1h-3.2V142.6z"/>
<path class="st4" d="M575,142.6v-12.1h2.5v12.1H575z"/>
<path class="st4" d="M590.4,136.6c0.1,1.7-0.4,3.3-1.5,4.6c-2.4,2.1-6,2.1-8.3,0c-1.1-1.3-1.6-3-1.5-4.6c-0.1-1.7,0.4-3.3,1.5-4.6
	c2.4-2.1,6-2.1,8.4,0C590,133.3,590.5,134.9,590.4,136.6z M581.7,136.6c-0.1,1.1,0.2,2.1,0.8,3c0.5,0.7,1.4,1.1,2.3,1
	c2,0,3-1.4,3-4.1s-1-4.1-3-4.1c-0.9-0.1-1.7,0.3-2.3,1C581.9,134.4,581.6,135.5,581.7,136.6z"/>
<path class="st4" d="M602.5,142.6h-3.2l-5.2-9.1H594c0.1,1.6,0.2,2.8,0.2,3.4v5.7H592v-12.1h3.2l5.1,9h0.1c-0.1-1.6-0.1-2.7-0.1-3.3
	v-5.7h2.3L602.5,142.6L602.5,142.6z"/>
<path class="st4" d="M688,142.6v-12.1h2.5v9.9h4.8v2.1H688V142.6z"/>
<path class="st4" d="M707.2,136.6c0.1,1.7-0.4,3.3-1.5,4.6c-2.4,2.1-6,2.1-8.3,0c-1.1-1.3-1.6-3-1.5-4.6c-0.1-1.7,0.4-3.3,1.5-4.6
	c2.4-2.1,6-2.1,8.4,0C706.8,133.3,707.4,134.9,707.2,136.6z M698.6,136.6c-0.1,1.1,0.2,2.1,0.8,3c0.5,0.7,1.4,1.1,2.2,1
	c2,0,3-1.4,3-4.1c0-2.7-1-4.1-3-4.1c-0.9-0.1-1.7,0.3-2.3,1C698.8,134.4,698.5,135.5,698.6,136.6z"/>
<path class="st4" d="M712.5,135.5l2.5-5h2.7l-3.9,7.4v4.7h-2.5V138l-3.9-7.4h2.7L712.5,135.5z"/>
<path class="st4" d="M725.6,142.6l-0.9-2.9h-4.3l-0.9,2.9h-2.7l4.2-12.1h3.1l4.2,12.1H725.6z M724.2,137.6c-0.8-2.6-1.2-4.1-1.3-4.4
	s-0.2-0.6-0.2-0.8c-0.2,0.7-0.7,2.4-1.5,5.2H724.2z"/>
<path class="st4" d="M729,142.6v-12.1h2.5v9.9h4.8v2.1H729V142.6z"/>
<path class="st4" d="M742.1,142.6h-2.5v-9.9h-3.2v-2.1h8.9v2.1h-3.2V142.6z"/>
<path class="st4" d="M750,135.5l2.5-5h2.7l-3.9,7.4v4.7h-2.5V138l-3.9-7.4h2.7L750,135.5z"/>
<path class="st5" d="M67.5,35.9l-5.2,6.6v0.1c0,0,0,0,0.1,0H66c0.1,0,0.1,0.1,0.1,0.1l0,0l-0.9,3.9v0.1h0.1l0,0l5.2-6.6V40
	c0,0,0,0-0.1,0h-3.5c-0.1,0-0.1,0-0.1-0.1l0,0l1-3.9c0-0.1,0-0.1-0.1-0.2S67.5,35.8,67.5,35.9z"/>
<path class="st5" d="M93.1,35.9l-5.2,6.6v0.1c0,0,0,0,0.1,0h3.6c0.1,0,0.1,0.1,0.1,0.1l0,0l-1,3.9v0.1h0.1l0,0l5.2-6.6
	c0.1,0,0.1-0.1,0.1-0.1s0-0.1-0.1-0.1h-3.6c-0.1,0-0.1-0.1-0.1-0.1l0,0l1-3.9C93.3,35.8,93.3,35.8,93.1,35.9
	C93.2,35.8,93.1,35.8,93.1,35.9z"/>
<g>
	<g>
		<defs>
			<path id="SVGID_1_" d="M96.3,50.5v15.4c0,9.4-7.2,17.6-16.6,17.9c-9.5,0.3-17.4-7.1-17.7-16.6c0-0.2,0-0.4,0-0.6V50.5
				c0-0.6,0.4-1,1-1h6.7c0.6,0,1,0.4,1,1v15.7c0,4.6,3.4,8.7,8,8.9c4.7,0.2,8.7-3.3,8.9-8c0-0.1,0-0.3,0-0.4V50.5c0-0.6,0.4-1,1-1
				h6.7C95.9,49.5,96.3,50,96.3,50.5z"/>
		</defs>
		<clipPath id="SVGID_00000082345423869570989530000012116947677193576861_">
			<use xlink:href="#SVGID_1_"  style="overflow:visible;"/>
		</clipPath>
		<g style="clip-path:url(#SVGID_00000082345423869570989530000012116947677193576861_);">
			<path class="st7" d="M91.3,56.2c0,0.5-0.4,1-0.9,1s-1-0.4-1-0.9s0.4-1,0.9-1l0,0C90.8,55.2,91.3,55.7,91.3,56.2z"/>
			<path class="st7" d="M94.7,56.2c0,0.5-0.4,1-0.9,1s-1-0.4-1-0.9s0.4-1,0.9-1l0,0C94.2,55.2,94.7,55.7,94.7,56.2z"/>
			<path class="st7" d="M93,59c0,0.5-0.5,0.9-1,0.9s-0.9-0.5-0.9-1s0.4-0.9,1-0.9C92.6,58,93,58.4,93,59L93,59z"/>
			<path class="st7" d="M92.8,61.8c0-0.5,0.4-1,0.9-1s1,0.4,1,0.9s-0.4,0.9-0.9,1S92.8,62.4,92.8,61.8
				C92.8,61.9,92.8,61.9,92.8,61.8z"/>
			<path class="st7" d="M89.4,61.8c0-0.5,0.4-1,0.9-1s1,0.4,1,0.9s-0.4,0.9-0.9,1S89.4,62.4,89.4,61.8
				C89.4,61.9,89.4,61.9,89.4,61.8z"/>
			<path class="st7" d="M93,64.7c0,0.5-0.4,1-0.9,1s-1-0.4-1-0.9s0.4-1,0.9-1l0,0C92.6,63.7,93,64.2,93,64.7L93,64.7z"/>
			<path class="st7" d="M92.8,67.5c-0.1-0.5,0.3-1,0.8-1c0.5-0.1,1,0.3,1,0.8c0,0.1,0,0.1,0,0.2c-0.1,0.5-0.5,0.9-1,0.8
				C93.2,68.3,92.8,68,92.8,67.5z"/>
			<path class="st7" d="M89.4,67.5c-0.1-0.5,0.3-1,0.8-1c0.5-0.1,1,0.3,1,0.8c0,0.1,0,0.1,0,0.2c-0.1,0.5-0.5,0.9-1,0.8
				C89.8,68.3,89.4,68,89.4,67.5z"/>
			<path class="st7" d="M93,70.3c0,0.5-0.4,1-0.9,1s-1-0.4-1-0.9s0.4-1,0.9-1l0,0C92.6,69.4,93,69.8,93,70.3z"/>
			<path class="st7" d="M92.8,73.2c-0.1-0.5,0.3-1,0.8-1c0.5-0.1,1,0.3,1,0.8c0,0.1,0,0.1,0,0.2c-0.1,0.5-0.5,0.9-1,0.8
				C93.2,74,92.8,73.6,92.8,73.2z"/>
			<path class="st7" d="M89.4,73.2c-0.1-0.5,0.3-1,0.8-1c0.5-0.1,1,0.3,1,0.8c0,0.1,0,0.1,0,0.2c-0.1,0.5-0.5,0.9-1,0.8
				C89.8,74,89.4,73.6,89.4,73.2z"/>
			<path class="st7" d="M93,76c0,0.5-0.4,1-0.9,1s-1-0.4-1-0.9s0.4-1,0.9-1l0,0C92.6,75.1,93,75.5,93,76z"/>
			<path class="st7" d="M89.4,78.9c0-0.5,0.4-1,0.9-1s1,0.4,1,0.9s-0.4,0.9-0.9,1C89.9,79.8,89.4,79.4,89.4,78.9L89.4,78.9z"/>
			<path class="st7" d="M82.8,76c0.1,0.5-0.3,1-0.8,1c-0.5,0.1-1-0.3-1-0.8c0-0.1,0-0.1,0-0.2c0.1-0.5,0.5-0.9,1-0.8
				C82.4,75.2,82.7,75.6,82.8,76z"/>
			<path class="st7" d="M82.6,78.9c0-0.5,0.4-1,0.9-1s1,0.4,1,0.9s-0.4,1-0.9,1l0,0C83,79.8,82.6,79.4,82.6,78.9L82.6,78.9z"/>
			<path class="st7" d="M79.2,78.9c0-0.5,0.4-1,0.9-1s1,0.4,1,0.9s-0.4,1-0.9,1l0,0C79.6,79.8,79.2,79.4,79.2,78.9L79.2,78.9z"/>
			<path class="st7" d="M82.8,81.7c0,0.5-0.4,1-0.9,1s-1-0.4-1-0.9s0.4-0.9,0.9-1S82.7,81.1,82.8,81.7
				C82.8,81.6,82.8,81.7,82.8,81.7z"/>
			<path class="st7" d="M86,73.2c-0.1-0.5,0.3-1,0.8-1c0.5-0.1,1,0.3,1,0.8c0,0.1,0,0.1,0,0.2c-0.1,0.5-0.5,0.9-1,0.8
				C86.4,74,86,73.6,86,73.2z"/>
			<path class="st7" d="M86.2,76c0.1,0.5-0.3,1-0.8,1c-0.5,0.1-1-0.3-1-0.8c0-0.1,0-0.1,0-0.2c0.1-0.5,0.5-0.9,1-0.8
				C85.8,75.2,86.1,75.6,86.2,76z"/>
			<path class="st7" d="M86,78.9c0-0.5,0.4-1,0.9-1s1,0.4,1,0.9s-0.4,0.9-0.9,1C86.5,79.8,86,79.4,86,78.9L86,78.9z"/>
			<path class="st7" d="M86.2,81.7c0,0.5-0.4,1-0.9,1s-1-0.4-1-0.9s0.4-0.9,0.9-1S86.1,81.1,86.2,81.7
				C86.2,81.6,86.2,81.7,86.2,81.7z"/>
			<path class="st7" d="M89.6,59c0,0.5-0.5,0.9-1,0.9s-0.9-0.5-0.9-1s0.4-0.9,1-0.9C89.1,58,89.6,58.4,89.6,59L89.6,59z"/>
			<path class="st7" d="M89.6,64.7c0,0.5-0.4,1-0.9,1s-1-0.4-1-0.9s0.4-1,0.9-1l0,0C89.1,63.7,89.6,64.2,89.6,64.7L89.6,64.7z"/>
			<path class="st7" d="M89.6,70.3c0,0.5-0.4,1-0.9,1s-1-0.4-1-0.9s0.4-1,0.9-1l0,0C89.1,69.4,89.6,69.8,89.6,70.3z"/>
			<path class="st7" d="M89.6,76c0,0.5-0.4,1-0.9,1s-1-0.4-1-0.9s0.4-1,0.9-1l0,0C89.1,75.1,89.6,75.5,89.6,76z"/>
			<path class="st8" d="M89.6,81.7c0,0.5-0.4,1-0.9,1s-1-0.4-1-0.9s0.4-1,0.9-1l0,0C89.1,80.8,89.6,81.2,89.6,81.7L89.6,81.7z"/>
			<path class="st7" d="M96.4,59c-0.1,0.5-0.5,0.9-1,0.8c-0.4,0-0.8-0.4-0.8-0.8c-0.1-0.5,0.3-1,0.8-1s1,0.3,1,0.8
				C96.4,58.9,96.4,58.9,96.4,59z"/>
			<path class="st7" d="M96.4,64.7c0,0.5-0.4,1-0.9,1s-1-0.4-1-0.9s0.4-1,0.9-1l0,0C95.9,63.7,96.4,64.2,96.4,64.7L96.4,64.7z"/>
			<path class="st7" d="M96.4,70.3c0,0.5-0.4,1-0.9,1s-1-0.4-1-0.9s0.4-1,0.9-1l0,0C95.9,69.4,96.4,69.8,96.4,70.3z"/>
		</g>
	</g>
</g>
<path class="st5" d="M96.3,50.5v15.4c0,9.4-7.2,17.6-16.6,17.9c-9.5,0.3-17.4-7.1-17.7-16.6c0-0.2,0-0.4,0-0.6V50.5c0-0.6,0.4-1,1-1
	h6.7c0.6,0,1,0.4,1,1v15.7c0,4.6,3.4,8.7,8,8.9c4.7,0.2,8.7-3.3,8.9-8c0-0.1,0-0.3,0-0.4V50.5c0-0.6,0.4-1,1-1h6.7
	C95.9,49.5,96.3,50,96.3,50.5z"/>
<line class="st5" x1="62" y1="54.1" x2="70.7" y2="54.1"/>
<line class="st5" x1="87.6" y1="54.1" x2="96.3" y2="54.1"/>
<line class="st5" x1="79.2" y1="75.1" x2="79.2" y2="83.8"/>
<path class="st5" d="M75.7,80.2c-6.3-1.7-10.4-6.4-10.4-13.6"/>
<rect x="382.8" y="47.8" class="st2" width="19.5" height="25"/>
<path class="st9" d="M402.7,74.3H382c-0.4,0-0.8-0.3-0.8-0.8v-26c0-0.4,0.3-0.8,0.8-0.8h20.7c0.4,0,0.8,0.3,0.8,0.8v26
	C403.5,74,403.1,74.3,402.7,74.3L402.7,74.3z M401.9,48.3h-19.2v24.4h19.1"/>
<path class="st9" d="M396.4,51.3c-0.4,0-0.8-0.3-0.8-0.8v-4.7c0.1-1.8-1.3-3.4-3.1-3.5c-1.8-0.1-3.4,1.3-3.5,3.1c0,0.1,0,0.2,0,0.4
	v4.7c0,0.4-0.3,0.8-0.8,0.8c-0.4,0-0.8-0.3-0.8-0.8l0,0v-4.7c-0.1-2.7,1.9-4.9,4.6-5.1c2.7-0.1,4.9,1.9,5.1,4.6c0,0.1,0,0.3,0,0.4
	v4.7C397.2,51,396.8,51.3,396.4,51.3z"/>
<path class="st9" d="M389.5,50.5c0,0.7-0.5,1.2-1.2,1.2s-1.2-0.5-1.2-1.2s0.5-1.2,1.2-1.2S389.5,49.8,389.5,50.5L389.5,50.5z"/>
<path class="st9" d="M397.6,50.5c0,0.7-0.5,1.2-1.2,1.2s-1.2-0.5-1.2-1.2s0.5-1.2,1.2-1.2S397.6,49.8,397.6,50.5z"/>
<path class="st9" d="M415,58.4c-0.4,0-0.8-0.3-0.8-0.8l0,0v-3.9c0-1.7-1.4-3.2-3.2-3.2s-3.2,1.4-3.2,3.2l0,0v3.9
	c0,0.4-0.3,0.8-0.8,0.8c-0.4,0-0.8-0.3-0.8-0.8l0,0v-3.9c-0.1-2.6,1.9-4.8,4.5-4.9c2.6-0.1,4.8,1.9,4.9,4.5c0,0.1,0,0.3,0,0.4v3.9
	C415.8,58.1,415.4,58.4,415,58.4z"/>
<path class="st9" d="M408.3,57.7c0,0.7-0.5,1.2-1.2,1.2s-1.2-0.5-1.2-1.2s0.5-1.2,1.2-1.2l0,0C407.7,56.5,408.3,57,408.3,57.7z"/>
<circle class="st9" cx="415" cy="57.7" r="1.2"/>
<path class="st9" d="M421.1,78.8h-20.7c-0.4,0-0.8-0.3-0.8-0.8v-4.6c0-0.4,0.3-0.8,0.8-0.8h1.5V55.4c0-0.4,0.3-0.8,0.8-0.8l0,0h18.4
	c0.4,0,0.8,0.3,0.8,0.8l0,0v22.7C421.8,78.5,421.5,78.8,421.1,78.8z M401.1,77.3h19.1V56.2h-16.8v17.3c0,0.4-0.3,0.8-0.8,0.8h-1.5
	L401.1,77.3z"/>
<path class="st9" d="M393.9,70.8h-8.5c-0.4,0-0.8-0.3-0.8-0.8V57.3c0-0.4,0.3-0.8,0.8-0.8c0.4,0,0.8,0.3,0.8,0.8l0,0v11.9h7.7
	c0.4,0,0.7,0.4,0.7,0.9C394.6,70.4,394.3,70.7,393.9,70.8z"/>
<path class="st9" d="M417.5,75.6h-5c-0.4,0-0.7-0.4-0.7-0.9c0-0.4,0.3-0.7,0.7-0.7h4.2v-5c0-0.4,0.3-0.8,0.8-0.8
	c0.4,0,0.8,0.3,0.8,0.8l0,0v5.9C418.3,75.3,417.9,75.6,417.5,75.6z"/>
<path class="st9" d="M412.6,46.9c-0.4,0-0.8-0.4-0.8-0.8c0-0.1,0-0.1,0-0.2c0.4-1.3,0-2.8-1.2-3.6c-0.3-0.2-0.4-0.6-0.3-0.9
	c0.1-0.3,0.4-0.5,0.7-0.5c1.4,0,2.6-0.9,3-2.2c0.1-0.4,0.6-0.6,1-0.5c0.2,0.1,0.4,0.3,0.5,0.5c0.4,1.3,1.6,2.2,3,2.2
	c0.3,0,0.6,0.2,0.7,0.5s0,0.7-0.3,0.9c-1.1,0.8-1.6,2.3-1.2,3.6c0.1,0.3,0,0.7-0.3,0.9s-0.6,0.2-0.9,0c-1.1-0.8-2.6-0.8-3.8,0
	C412.9,46.9,412.8,46.9,412.6,46.9z M412.8,42.2c0.5,0.8,0.8,1.7,0.8,2.6c0.9-0.3,1.8-0.3,2.7,0c0-0.9,0.3-1.8,0.8-2.6
	c-0.9-0.3-1.6-0.9-2.2-1.6C414.4,41.3,413.6,41.9,412.8,42.2z"/>
<path class="st9" d="M386,85.4c-0.2,0-0.3-0.1-0.5-0.2l-0.6-0.4c-0.9-0.6-2.1-0.6-3,0l-0.6,0.4c-0.4,0.3-0.8,0.2-1.1-0.2
	c-0.1-0.2-0.2-0.5-0.1-0.7l0.2-0.7c0.4-1.1,0-2.2-0.9-2.9l-0.6-0.4c-0.3-0.2-0.4-0.6-0.3-0.9s0.4-0.5,0.7-0.5h0.7
	c1.1,0,2.1-0.7,2.5-1.8l0.2-0.7c0.1-0.3,0.4-0.5,0.7-0.5c0.3,0,0.6,0.2,0.8,0.5l0.2,0.7c0.3,1.1,1.3,1.8,2.5,1.8h0.7
	c0.4,0,0.8,0.3,0.8,0.8c0,0.3-0.1,0.5-0.3,0.7l-0.6,0.4c-0.9,0.7-1.3,1.8-0.9,2.9l0.2,0.7c0.1,0.4-0.1,0.8-0.5,1
	C386.1,85.3,386.1,85.3,386,85.4L386,85.4z M381.2,80.3c0.6,0.8,0.9,1.7,0.8,2.7c0.9-0.3,1.9-0.3,2.8,0c0-1,0.3-1.9,0.9-2.7
	c-0.9-0.3-1.7-0.9-2.3-1.7C382.9,79.5,382.1,80,381.2,80.3L381.2,80.3z"/>
<path class="st10" d="M720,84.5l-1.5-0.8c-1-0.5-24.1-11.9-24.1-28.4c0.1-7.9,6.8-14.4,15.1-14.4h0.2c3.9,0,7.6,1.5,10.4,4.1
	c2.8-2.6,6.5-4.1,10.3-4.1h0.1c8.4,0,15.2,6.5,15.2,14.4c0,7.2-4.3,14.5-12.4,21c-3.6,2.9-7.6,5.4-11.8,7.4L720,84.5z"/>
<path class="st11" d="M720,82.4l-0.8-0.4c-0.9-0.4-23-11.4-23-26.7c0.3-7.1,6.2-12.7,13.3-12.6h0.2c4.1,0,7.9,1.8,10.4,5
	c2.5-3.1,6.3-5,10.3-5h0.2c7.3,0,13.3,5.7,13.3,12.6c0,6.7-4,13.4-11.7,19.5c-3.5,2.8-7.3,5.2-11.4,7.2L720,82.4z"/>
<path class="st11" d="M720,82.4l-0.8-0.4c-0.9-0.4-23-11.4-23-26.7c0.3-7.1,6.2-12.7,13.3-12.6h0.2c4.1,0,7.9,1.8,10.4,5
	c2.5-3.1,6.3-5,10.3-5h0.2c7.3,0,13.3,5.7,13.3,12.6c0,6.7-4,13.4-11.7,19.5c-3.5,2.8-7.3,5.2-11.4,7.2L720,82.4z"/>
<path class="st10" d="M698.1,55.4c0,14.3,22,25,22,25s22-10.2,22-25c0-5.9-5.2-10.7-11.5-10.7c-4.5-0.1-8.6,2.5-10.5,6.7
	c-1.9-4.1-6-6.7-10.5-6.7C703.2,44.7,698.1,49.5,698.1,55.4z"/>
<path class="st9" d="M554,55.5c0,2.3-1.2,4.2-2.6,4.2s-2.6-1.9-2.6-4.2s1.2-4.2,2.6-4.2S554,53.2,554,55.5z"/>
<path class="st9" d="M571.7,55.5c0,2.3-1.2,4.2-2.6,4.2s-2.6-1.9-2.6-4.2s1.2-4.2,2.6-4.2S571.7,53.2,571.7,55.5z"/>
<path class="st9" d="M560.3,66.2c-4.3,0.1-8.5-0.9-12.3-2.8c0,0.3,0,0.7,0,1c0.2,6.8,5.9,12.2,12.7,12c6.6-0.2,11.8-5.5,12-12
	c0-0.3,0-0.7,0-1C568.8,65.4,564.6,66.3,560.3,66.2z"/>
<path class="st9" d="M560.3,35.7c-13.5,0-24.5,11-24.5,24.5s11,24.5,24.5,24.5s24.5-11,24.5-24.5S573.8,35.7,560.3,35.7z
	 M560.3,82.7c-12.4,0-22.5-10.1-22.5-22.5s10.1-22.5,22.5-22.5s22.5,10.1,22.5,22.5l0,0C582.8,72.6,572.7,82.7,560.3,82.7z"/>
<path class="st12" d="M489.3,60.5c0-0.1,0-0.1,0-0.2c0-1-0.4-2-1.1-2.8l-10.1-11c-1.7-1.7-4.4-1.8-6.2-0.1c-1.7,1.6-1.8,4.3-0.2,6
	l7.4,8.1l-7.5,8.1c-1.7,1.7-1.6,4.5,0.1,6.2s4.5,1.6,6.2-0.1l0.1-0.1l10.2-11c0.7-0.8,1.1-1.8,1.1-2.8
	C489.2,60.6,489.3,60.6,489.3,60.5z"/>
<path class="st12" d="M329.3,60.5c0-0.1,0-0.1,0-0.2c0-1-0.4-2-1.1-2.8l-10.1-11c-1.7-1.7-4.4-1.8-6.2-0.1c-1.7,1.6-1.8,4.3-0.2,6
	l7.4,8.1l-7.5,8.1c-1.7,1.7-1.6,4.5,0.1,6.2s4.5,1.6,6.2-0.1l0.1-0.1l10.2-11c0.7-0.8,1.1-1.8,1.1-2.8
	C329.2,60.6,329.3,60.6,329.3,60.5z"/>
<path class="st12" d="M169.3,60.5c0-0.1,0-0.1,0-0.2c0-1-0.4-2-1.1-2.8l-10.1-11c-1.7-1.7-4.4-1.8-6.2-0.1c-1.7,1.6-1.8,4.3-0.2,6
	l7.4,8.1l-7.5,8.1c-1.7,1.7-1.6,4.5,0.1,6.2s4.5,1.6,6.2-0.1l0.1-0.1l10.2-11c0.7-0.8,1.1-1.8,1.1-2.8
	C169.2,60.6,169.3,60.6,169.3,60.5z"/>
<path class="st12" d="M649.3,60.5c0-0.1,0-0.1,0-0.2c0-1-0.4-2-1.1-2.8l-10.1-11c-1.7-1.7-4.4-1.8-6.2-0.1c-1.7,1.6-1.8,4.3-0.2,6
	l7.4,8.1l-7.5,8.1c-1.7,1.7-1.6,4.5,0.1,6.2s4.5,1.6,6.2-0.1l0.1-0.1l10.2-11c0.7-0.8,1.1-1.8,1.1-2.8
	C649.2,60.6,649.3,60.6,649.3,60.5z"/>
<g id="mono">
	<path class="st13" d="M229.9,84.6c-3.3-0.1-4.4-4.1-5.7-8.8c-0.5-1.7-1-3.5-1.6-5.2c-0.7-1.9-0.6-4.1,0.4-5.9
		c1.9-4.1,6.7-7.4,8.8-8.1c2.2-0.8,2.9-2,2.4-4.2c-0.2-0.5-0.4-1-0.5-1.5c0-0.1,0-0.1,0-0.2c-1.1-4-2.4-10.5,0.1-14
		c1.2-1.6,3-2.5,5-2.5c0.3,0,0.5,0,0.8,0c2.8,0,4.9,0.8,6.2,2.5c1.8,2.2,2.1,5.9,1,11c-0.2,1.2-0.6,2.3-1.1,3.4c0,0.1,0,0.2,0,0.3
		c-0.1,0.3-0.2,0.5-0.3,0.8c0.2-0.1,0.3-0.1,0.5-0.1s0.4,0.1,0.6,0.2c0.3,0.2,0.5,0.6,0.5,1c0,0.5-0.4,1.1-1.1,1.7
		c-0.2,0.1-0.4,0.3-0.5,0.5c0.1,0.1,0.1,0.1,0.2,0.2c4.6,0.7,7.9,2.5,9.8,5.2c2.7,4,1.6,8.7,1.2,10.3c-0.2,0.7-0.3,1.6-0.4,2.6
		c-0.2,2.5-0.8,5-1.9,7.4c-0.8,1.6-3,2.4-6.5,2.4l0,0c-2.2,0-4.3-0.2-6.4-0.6c-0.4-0.1-0.8-0.1-1.1-0.1c-1.6,0.1-3.1,0.3-4.6,0.8
		c-1.7,0.5-3.4,0.8-5.2,0.9L229.9,84.6z"/>
	<path class="st9" d="M229.9,85c-3.6-0.1-4.7-4.3-6.1-9.1c-0.5-1.7-1-3.5-1.6-5.2c-0.7-2-0.6-4.3,0.4-6.2c2-4.2,6.9-7.6,9-8.3
		s2.6-1.7,2.1-3.7c-0.2-0.5-0.4-1-0.5-1.5c0-0.1,0-0.2,0-0.2c-0.6-2.1-1-4.3-1.2-6.4c-0.3-3.4,0.2-6,1.4-7.8
		c1.2-1.7,3.2-2.7,5.4-2.7h0.8c2.9,0,5,0.8,6.4,2.5c2,2.3,2.4,6.1,1.2,11.5c-0.3,1.1-0.7,2.3-1.1,3.3c0,0.1,0,0.3-0.1,0.4l-0.1,0.2
		h0.1c0.3,0,0.5,0.2,0.6,0.4c0.4,0.3,0.6,0.8,0.6,1.2c-0.1,0.8-0.6,1.6-1.3,2l-0.1,0.1c4.6,0.8,7.8,2.6,9.6,5.3
		c2.8,4.1,1.6,9,1.2,10.6c-0.2,0.7-0.3,1.6-0.4,2.5c-0.2,2.6-0.9,5.1-1.9,7.5c-0.9,1.7-3.2,2.6-7,2.6c-2.2,0-4.3-0.2-6.4-0.6
		c-0.4,0-0.7-0.1-1.1-0.1c-1.5,0.1-3.1,0.3-4.5,0.8C233.6,84.6,231.8,84.9,229.9,85L229.9,85z M235.1,55c-0.6,1.3-1.7,2.3-3.1,2.7
		c-1.9,0.7-6.3,3.7-8.1,7.5c-0.8,1.6-0.9,3.4-0.3,5c0.7,1.8,1.2,3.6,1.7,5.3c1.2,4.2,2.2,7.8,4.6,7.9h0.3c1.7-0.1,3.3-0.3,4.9-0.8
		c1.6-0.5,3.3-0.8,4.9-0.8c0.4,0,0.9,0,1.3,0.1c2.1,0.3,4.2,0.5,6.3,0.6c3.1,0,4.9-0.6,5.5-1.7c0.9-2.2,1.5-4.6,1.7-7
		c0.1-1,0.3-1.9,0.4-2.6c0.4-1.5,1.4-5.9-1-9.4c-1.7-2.5-4.7-4.1-9.1-4.7c-0.1,0-0.2-0.1-0.3-0.1c-0.3-0.2-0.6-0.5-0.8-0.9
		c-0.1-0.2-0.1-0.5,0-0.8c0.2-0.4,0.6-0.7,0.9-1c0.6-0.5,0.7-0.7,0.7-0.8l0,0c-0.2,0.1-0.4,0.2-0.5,0.3s-0.3,0.1-0.5,0.2l0,0
		c-0.1,0.1-0.2,0.2-0.2,0.4c0,0.1-0.1,0.1-0.1,0.2c-0.3,0.2-0.6,0.5-0.9,0.7c-0.6,0.5-1.1,0.9-1.5,1.2c-0.2,0.1-0.5,0.2-0.7,0.3
		c-0.6,0.2-1.3,0.3-2,0.3H239C237.5,56.9,236.1,56.2,235.1,55z M235.3,53c0.2,0,0.4,0.1,0.5,0.3c0.8,1.1,2.1,1.8,3.4,1.9
		c2.2,0,5.1-2.5,6.3-7.8c1.1-4.8,0.8-8.2-0.9-10.1c-1.1-1.3-2.8-1.9-5.2-1.9h-0.7c-1.6,0-3.2,0.7-4.1,2c-2.5,3.5-0.6,10.8,0.2,13.8
		c0,0.1,0,0.2,0,0.3l0.1,0.4l0,0c0,0,0,0.1,0.1,0.1v0.1c0,0.1,0,0.1,0,0.2C235.2,52.4,235.2,52.7,235.3,53z"/>
	<path class="st9" d="M230.2,84.6h-0.4c-3.3-0.1-4.4-4.1-5.7-8.8c-0.5-1.7-1-3.5-1.6-5.2c-0.7-1.9-0.6-4.1,0.4-5.9
		c1.9-4.1,6.7-7.4,8.8-8.1c2.2-0.8,2.9-2,2.4-4.2c-0.2-0.5-0.4-1-0.5-1.5c0-0.1,0-0.1,0-0.2c-0.6-2.1-1-4.3-1.2-6.5
		c-0.3-3.3,0.2-5.9,1.4-7.6c1.2-1.6,3-2.5,5-2.5c3.1-0.2,5.5,0.6,6.9,2.3c1.9,2.2,2.3,5.9,1.1,11.2c-0.3,1.2-0.6,2.3-1.1,3.4
		c0,0.1,0,0.2,0,0.3c-0.1,0.3-0.2,0.5-0.3,0.8c0.2-0.1,0.4-0.1,0.6-0.1c0.2,0,0.3,0.1,0.4,0.2c0.3,0.2,0.5,0.6,0.6,1
		c0,0.5-0.4,1.1-1.1,1.7c-0.2,0.1-0.4,0.3-0.5,0.5c0.1,0.1,0.1,0.1,0.2,0.2c4.6,0.7,7.9,2.5,9.8,5.2c2.7,4,1.6,8.7,1.2,10.3v0.1
		c-0.1,0.7-0.3,1.5-0.4,2.5c-0.2,2.5-0.9,5-1.9,7.4c-1.8,3.3-9.3,2.3-13,1.8c-2-0.1-3.9,0.1-5.8,0.7C233.7,84.2,232,84.5,230.2,84.6
		z M234.9,54.1c-0.2,1.5-1.2,2.5-3,3.2s-6.5,3.8-8.3,7.7c-0.8,1.6-1,3.5-0.3,5.3s1.2,3.6,1.7,5.3c1.2,4.3,2.3,8.1,5,8.2
		c1.8,0,3.6-0.3,5.4-0.8c2-0.6,4-0.9,6.1-0.7c3.2,0.4,10.7,1.5,12.2-1.4c1-2.3,1.6-4.7,1.8-7.1c0.1-1,0.3-1.9,0.4-2.6v-0.1
		c0.4-1.5,1.4-6-1.1-9.7c-1.7-2.6-4.9-4.2-9.3-4.9l-0.1-0.1c-0.3-0.2-0.5-0.4-0.7-0.7c-0.1-0.1-0.1-0.3,0-0.4
		c0.2-0.4,0.5-0.7,0.8-0.9c0.7-0.6,0.8-0.9,0.8-1.1c0-0.2-0.1-0.3-0.3-0.4l-0.1-0.1c-0.1,0-0.3,0.1-0.9,0.5c-0.1,0.1-0.3,0.1-0.4,0
		c-0.1,0.2-0.2,0.4-0.4,0.6l-0.1,0.1l-0.9,0.7c-0.5,0.5-1.1,0.9-1.5,1.2l0,0c-0.2,0.1-0.4,0.2-0.6,0.3l0,0c-0.7,0.2-1.4,0.3-2.1,0.2
		C237.4,56.4,235.8,55.5,234.9,54.1L234.9,54.1z M235.2,53.4c0.1,0,0.2,0.1,0.3,0.2c0.9,1.2,2.3,2,3.8,2.1c2.4,0,5.4-2.5,6.6-8.2
		c1.1-5,0.8-8.5-0.9-10.5c-1.3-1.5-3.4-2.2-6.3-2c-1.7,0-3.4,0.8-4.4,2.2c-2.6,3.7-0.7,11.1,0.2,14.1c0,0.1,0,0.1,0,0.2l0.2,0.5v0.1
		v0.1v0.1c0.1,0.4,0.2,0.8,0.2,1.3l0,0C234.9,53.5,235.1,53.4,235.2,53.4L235.2,53.4z"/>
	<path class="st13" d="M230,84.5c-0.2,0-0.4-0.2-0.4-0.4c0-0.2,0.1-0.4,0.3-0.4l0,0c5.4-0.5,9.1-8.9,11.8-15.1
		c1.5-3.4,2.6-6.1,3.8-6.9c0.7-0.4,1.2-1.1,1.2-1.9c-0.2-1-0.9-1.8-1.8-2.3c-0.4-0.2-0.6-0.6-0.6-1c0-0.8,0.4-1.6,1.1-2.1
		c0.7-0.6,0.8-0.9,0.8-1.1s0-0.2-0.3-0.4l-0.1-0.1l0,0c-0.9,0.5-1.8,1.2-2.6,1.9c-0.5,0.5-1.1,0.9-1.5,1.2c-1.8,0.9-4,0.8-5.6-0.4
		c-0.4,1.2,0.7,2.3,1.9,3.5c0.6,0.6,1,1,1,1.4s-0.6,1.4-2.3,4.1c-1.7,2.6-3.3,5.2-4.6,8c-0.1,0.2-0.3,0.3-0.5,0.3s-0.3-0.3-0.3-0.5
		v-0.1c1.3-2.8,2.9-5.5,4.7-8.1c0.8-1.2,1.6-2.4,2.2-3.7c-0.2-0.3-0.5-0.6-0.8-0.9c-1.2-1.2-3-3-1.8-4.9c0.1-0.1,0.2-0.2,0.3-0.2
		s0.2,0,0.3,0.1s2.6,2.1,5.1,0.6c0.4-0.3,0.9-0.7,1.4-1.2c1.6-1.3,2.6-2.2,3.3-2.1c0.2,0,0.3,0.1,0.5,0.2c0.3,0.2,0.5,0.6,0.5,1
		c0,0.5-0.4,1.1-1.1,1.7s-0.9,1.2-0.9,1.4c0,0.1,0.1,0.3,0.2,0.4c1.2,0.6,2,1.7,2.2,3c0,1.1-0.6,2.1-1.5,2.6c-1,0.7-2.2,3.4-3.5,6.6
		C239.6,75.3,235.9,84,230,84.5L230,84.5z"/>
	<path class="st13" d="M231.7,72.6c1.4-3.7,6.9-11.2,6.9-12s-4.1-3.2-2.6-5.6c0,0,2.8,2.2,5.6,0.7c1.4-1.1,4.1-3.8,4.6-3
		c0.5,0.4,0.8,1.1-0.5,2.1s-1.1,2.1-0.5,2.4s3.8,2.7,0.7,4.9s-7.2,21.2-15.7,22"/>
	<path class="st9" d="M230,84.9c-0.4,0-0.8-0.3-0.8-0.7c0-0.2,0-0.4,0.2-0.6c0.1-0.2,0.3-0.3,0.6-0.3c5.2-0.5,8.8-8.8,11.4-14.9
		c1.5-3.5,2.7-6.2,4-7.1c0.7-0.5,1.1-1,1-1.5c-0.1-0.9-1.3-1.8-1.6-2c-0.5-0.3-0.8-0.8-0.9-1.3c0-1,0.4-1.9,1.2-2.4
		c0.6-0.5,0.7-0.7,0.7-0.8l0,0c-0.8,0.5-1.5,1.1-2.2,1.8c-0.6,0.5-1.1,0.9-1.5,1.2c-0.8,0.5-1.7,0.7-2.6,0.7c-1,0-2-0.3-2.9-0.8
		c0.4,1,1,1.9,1.8,2.6c0.7,0.7,1.1,1.1,1.1,1.7s-0.4,1.2-2.4,4.3c-1.7,2.5-3.2,5.2-4.6,8c-0.1,0.3-0.4,0.5-0.7,0.5
		c-0.1,0-0.2,0-0.3-0.1c-0.2-0.1-0.4-0.2-0.4-0.4c-0.1-0.2-0.1-0.4,0-0.6c1.3-2.9,2.9-5.6,4.7-8.2c0.7-1.2,1.8-2.9,2.1-3.5
		c-0.1-0.2-0.5-0.5-0.6-0.7c-1.2-1.2-3.2-3.2-1.9-5.4c0.1-0.2,0.3-0.3,0.6-0.4h0.1c0.2,0,0.4,0.1,0.5,0.2c0.5,0.3,1,0.6,1.5,0.8
		s0.9,0.3,1.4,0.3c0.6,0,1.2-0.2,1.7-0.5c0.3-0.2,0.8-0.7,1.3-1.1c1.6-1.4,2.6-2.2,3.5-2.2h0.1c0.3,0,0.5,0.2,0.7,0.4
		c0.4,0.3,0.6,0.8,0.6,1.2c-0.1,0.8-0.6,1.6-1.3,2c-0.7,0.5-0.7,0.9-0.7,1c0.5,0.3,2.3,1.6,2.4,3.4c0,1.2-0.6,2.4-1.7,3
		c-0.9,0.6-2.1,3.5-3.4,6.4C240,75.5,236.2,84.3,230,84.9z"/>
	<path class="st9" d="M230,84.5c-0.2,0-0.4-0.2-0.3-0.5c0-0.2,0.2-0.3,0.3-0.3c5.4-0.5,9.1-8.9,11.8-15.1c1.5-3.4,2.6-6.1,3.8-6.9
		c0.7-0.4,1.2-1.1,1.2-1.9c-0.2-1-0.9-1.8-1.8-2.3c-0.4-0.2-0.6-0.6-0.6-1c0-0.8,0.4-1.6,1.1-2c0.7-0.6,0.8-0.9,0.8-1.1
		c0-0.2-0.1-0.3-0.3-0.4l-0.1-0.1c-1,0.5-1.8,1.1-2.6,1.9c-0.5,0.5-1.1,0.9-1.5,1.2l0,0c-1.8,0.9-4,0.8-5.6-0.4
		c-0.4,1.1,0.7,2.3,1.9,3.5c0.6,0.6,1,1,1,1.4s-0.6,1.4-2.3,4.1c-1.7,2.5-3.3,5.2-4.6,8c-0.1,0.2-0.3,0.3-0.5,0.3s-0.3-0.3-0.3-0.5
		v-0.1c1.3-2.8,2.9-5.6,4.6-8.2c0.8-1.2,1.5-2.4,2.2-3.7c-0.2-0.3-0.5-0.6-0.8-0.9c-1.2-1.2-3-3-1.8-4.9c0.1-0.1,0.2-0.2,0.3-0.2
		s0.2,0,0.3,0.1c0.5,0.4,1.1,0.7,1.6,0.9c1.1,0.4,2.4,0.4,3.4-0.2c0.4-0.3,0.9-0.7,1.4-1.2c1.6-1.3,2.6-2.2,3.3-2.1
		c0.2,0,0.3,0.1,0.4,0.2c0.3,0.2,0.5,0.6,0.6,1c0,0.5-0.4,1.1-1.1,1.7s-0.9,1.2-0.9,1.4c0,0.1,0.1,0.3,0.2,0.4
		c0.4,0.2,2.1,1.4,2.2,3c0,1.1-0.6,2.1-1.5,2.6c-1,0.7-2.2,3.4-3.5,6.6C239.6,75.3,235.9,84,230,84.5L230,84.5z"/>
</g>
</svg>
