<svg id="Capa_1" data-name="Capa 1" xmlns="http://www.w3.org/2000/svg" xmlns:xlink="http://www.w3.org/1999/xlink" viewBox="0 0 88.26 28.1"><defs><style>.cls-1{fill:#a7a6a6;}.cls-2{fill:#fff;}.cls-3{fill:#7bc7ef;}.cls-4{fill:url(#Degradado_sin_nombre_11);}.cls-5{fill:url(#Degradado_sin_nombre_12);}.cls-6{fill:url(#Degradado_sin_nombre_13);}</style><linearGradient id="Degradado_sin_nombre_11" x1="-2668.18" y1="4429.68" x2="-2666.44" y2="4429.68" gradientTransform="matrix(-8.84, 0, 0, 8.84, -23573.49, -39157.27)" gradientUnits="userSpaceOnUse"><stop offset="0" stop-color="#f8e04a"/><stop offset="0.37" stop-color="#f2c245"/><stop offset="0.76" stop-color="#eca841"/><stop offset="1" stop-color="#ea9f3f"/></linearGradient><linearGradient id="Degradado_sin_nombre_12" x1="-2706.02" y1="4434.95" x2="-2704.28" y2="4434.95" gradientTransform="matrix(-8.32, 8.32, 8.32, 8.32, -59375.91, -14364.42)" gradientUnits="userSpaceOnUse"><stop offset="0" stop-color="#db534f"/><stop offset="1" stop-color="#b42f6c"/></linearGradient><linearGradient id="Degradado_sin_nombre_13" x1="-2747.86" y1="4484.83" x2="-2746.12" y2="4484.83" gradientTransform="matrix(6.79, 6.79, 6.79, -6.79, -11792.88, 49113.69)" gradientUnits="userSpaceOnUse"><stop offset="0" stop-color="#519c73"/><stop offset="0.31" stop-color="#67aa73"/><stop offset="0.74" stop-color="#7fb972"/><stop offset="1" stop-color="#88bf72"/></linearGradient></defs><path d="M4.44,1.35H83.82A3.18,3.18,0,0,1,87,4.52v19a3.18,3.18,0,0,1-3.18,3.18H4.44a3.17,3.17,0,0,1-3.17-3.17V4.52A3.18,3.18,0,0,1,4.44,1.35Z"/><path class="cls-1" d="M83.82,1.85a2.67,2.67,0,0,1,2.66,2.67V23.57a2.67,2.67,0,0,1-2.66,2.67H4.44a2.68,2.68,0,0,1-2.67-2.67v-19A2.68,2.68,0,0,1,4.44,1.85H83.82m0-.5H4.44A3.18,3.18,0,0,0,1.26,4.52V23.57a3.19,3.19,0,0,0,3.18,3.18H83.82A3.19,3.19,0,0,0,87,23.57v-19A3.18,3.18,0,0,0,83.82,1.35Z"/><path class="cls-2" d="M44.53,15.16a2.7,2.7,0,1,0,2.71,2.7A2.66,2.66,0,0,0,44.53,15.16Zm0,4.34a1.64,1.64,0,1,1,1.53-1.64A1.56,1.56,0,0,1,44.53,19.5Zm-5.91-4.34a2.7,2.7,0,1,0,2.71,2.7A2.65,2.65,0,0,0,38.62,15.16Zm0,4.34a1.64,1.64,0,1,1,1.52-1.64A1.57,1.57,0,0,1,38.62,19.5Zm-7-3.51v1.14h2.74a2.32,2.32,0,0,1-.62,1.44,2.8,2.8,0,0,1-2.12.84,3,3,0,0,1,0-6.09,2.89,2.89,0,0,1,2.07.82l.81-.81a4,4,0,0,0-2.88-1.16,4.2,4.2,0,1,0,0,8.39,3.84,3.84,0,0,0,2.93-1.18,3.76,3.76,0,0,0,1-2.68,3.76,3.76,0,0,0-.06-.71Zm28.77.89A2.5,2.5,0,0,0,58,15.16a2.56,2.56,0,0,0-2.54,2.7,2.64,2.64,0,0,0,2.68,2.7,2.7,2.7,0,0,0,2.25-1.2l-.92-.61a1.55,1.55,0,0,1-1.33.75,1.37,1.37,0,0,1-1.31-.82l3.61-1.5Zm-3.68.9a1.48,1.48,0,0,1,1.41-1.58,1.08,1.08,0,0,1,1,.57ZM53.74,20.4h1.18V12.46H53.74Zm-2-4.64h0a1.87,1.87,0,0,0-1.42-.6,2.7,2.7,0,0,0,0,5.4A1.87,1.87,0,0,0,51.75,20h0v.38c0,1-.55,1.59-1.44,1.59A1.48,1.48,0,0,1,49,21l-1,.43A2.56,2.56,0,0,0,50.35,23c1.39,0,2.57-.81,2.57-2.81V15.32H51.79ZM50.43,19.5a1.65,1.65,0,0,1,0-3.28,1.52,1.52,0,0,1,1.44,1.65A1.51,1.51,0,0,1,50.43,19.5Zm15.48-7H63.07V20.4h1.19v-3h1.65a2.47,2.47,0,1,0,0-4.93Zm0,3.82H64.26V13.56h1.68a1.36,1.36,0,1,1,0,2.72Zm7.33-1.14a2.23,2.23,0,0,0-2.12,1.22l1,.44a1.28,1.28,0,0,1,2.33.44v.08A2.61,2.61,0,0,0,73.3,17C72.16,17,71,17.64,71,18.8a1.84,1.84,0,0,0,2,1.75,1.66,1.66,0,0,0,1.51-.78h0v.61h1.15v-3A2.18,2.18,0,0,0,73.27,15.14Zm-.15,4.35c-.38,0-.93-.19-.93-.67s.68-.85,1.26-.85a2,2,0,0,1,1.08.27A1.43,1.43,0,0,1,73.12,19.49Zm6.72-4.17-1.35,3.44h0L77,15.32H75.76l2.11,4.81-1.2,2.67H77.9l3.26-7.48ZM69.17,20.4h1.19V12.46H69.17Z"/><path class="cls-3" d="M7.89,6.14A1.28,1.28,0,0,0,7.6,7v14a1.28,1.28,0,0,0,.29.89l.05.05,7.86-7.86V14L7.94,6.09Z"/><path class="cls-4" d="M18.42,16.76,15.8,14.14V14l2.62-2.62.06,0,3.1,1.76a1,1,0,0,1,0,1.83l-3.1,1.77Z"/><path class="cls-5" d="M18.48,16.73,15.8,14.05,7.89,22a1,1,0,0,0,1.32,0l9.27-5.26"/><path class="cls-6" d="M18.48,11.37,9.21,6.1a1,1,0,0,0-1.32,0l7.91,7.91Z"/><path class="cls-2" d="M27.48,9.6V5.79h1.16a1.91,1.91,0,0,1,1.41.53,1.87,1.87,0,0,1,.53,1.38,1.86,1.86,0,0,1-.53,1.37,1.91,1.91,0,0,1-1.41.53ZM28,9.13h.67a1.41,1.41,0,0,0,1.05-.38,1.38,1.38,0,0,0,.38-1,1.39,1.39,0,0,0-.38-1.06,1.45,1.45,0,0,0-1.05-.38H28Z"/><path class="cls-2" d="M27.48,9.6h.06V5.85h1.1A1.75,1.75,0,0,1,30.51,7.7a1.75,1.75,0,0,1-1.87,1.84H27.48V9.6h0v.06h1.16a2,2,0,0,0,1.45-.54,1.93,1.93,0,0,0,.55-1.42,1.94,1.94,0,0,0-.55-1.43,2,2,0,0,0-1.45-.54H27.41V9.66h.07ZM28,9.13V9.2h.67a1.52,1.52,0,0,0,1.09-.4,1.49,1.49,0,0,0,.41-1.1,1.5,1.5,0,0,0-.41-1.11,1.47,1.47,0,0,0-1.09-.39H27.9v3H28V9.13H28V6.32h.61A1.26,1.26,0,0,1,30,7.7a1.32,1.32,0,0,1-.37,1,1.35,1.35,0,0,1-1,.36H28v.06h0Z"/><rect class="cls-2" x="31.26" y="5.79" width="0.49" height="3.81"/><polygon class="cls-2" points="31.26 9.6 31.32 9.6 31.32 5.85 31.69 5.85 31.69 9.54 31.26 9.54 31.26 9.6 31.32 9.6 31.26 9.6 31.26 9.66 31.75 9.66 31.81 9.66 31.81 5.73 31.26 5.73 31.2 5.73 31.2 9.66 31.26 9.66 31.26 9.6"/><path class="cls-2" d="M33.7,9.69a1.35,1.35,0,0,1-.81-.28,1.22,1.22,0,0,1-.52-.76l.45-.18a1,1,0,0,0,.32.53.81.81,0,0,0,.56.22.89.89,0,0,0,.54-.17.52.52,0,0,0,.23-.46.57.57,0,0,0-.23-.49,2.52,2.52,0,0,0-.71-.32,2,2,0,0,1-.77-.41.89.89,0,0,1-.26-.65A.93.93,0,0,1,32.83,6a1.17,1.17,0,0,1,.84-.3,1.24,1.24,0,0,1,.79.24,1.13,1.13,0,0,1,.39.53l-.44.18-.24-.33a.72.72,0,0,0-.49-.16.77.77,0,0,0-.48.16l-.2.39.19.36a1.51,1.51,0,0,0,.54.26,4.7,4.7,0,0,1,.47.18l.38.23.29.35a1.06,1.06,0,0,1,.1.48,1.15,1.15,0,0,1-.11.5l-.31.35-.4.19Z"/><path class="cls-2" d="M33.7,9.69V9.62a1.35,1.35,0,0,1-.78-.26,1.19,1.19,0,0,1-.49-.72h-.06l0,.06.45-.18,0-.06-.07,0a1.14,1.14,0,0,0,.35.56.9.9,0,0,0,.6.23,1,1,0,0,0,.58-.18.6.6,0,0,0,.25-.51.65.65,0,0,0-.25-.54,2.4,2.4,0,0,0-.73-.33,1.77,1.77,0,0,1-.74-.4.81.81,0,0,1-.25-.6.93.93,0,0,1,.31-.67,1.12,1.12,0,0,1,.8-.28,1.18,1.18,0,0,1,.75.23,1,1,0,0,1,.37.5l.06,0,0-.06-.4.16-.21-.29h0a.79.79,0,0,0-.53-.17.85.85,0,0,0-.52.17l0,0-.2.39v0l.2.39,0,0a1.62,1.62,0,0,0,.56.27,3.7,3.7,0,0,1,.46.18l0-.06,0,.05.38.23.28.34,0,0-.06,0a1,1,0,0,1,.1.46,1,1,0,0,1-.11.47l.06,0,0,0-.3.33-.38.19-.44.06v.13l.44-.07h0l.41-.2h0l.31-.36h0A1.15,1.15,0,0,0,35,8.58a1.19,1.19,0,0,0-.1-.51h0l-.29-.36h0l-.38-.22h0a4.13,4.13,0,0,0-.48-.18A1.68,1.68,0,0,1,33.22,7l0,0,.05,0-.17-.33.19-.36-.06,0,0,0a.66.66,0,0,1,.44-.14.64.64,0,0,1,.45.14l0,0-.05,0,.23.34,0,0,.5-.2,0,0,0,0a1.09,1.09,0,0,0-.41-.56,1.33,1.33,0,0,0-.83-.26,1.28,1.28,0,0,0-.89.32,1,1,0,0,0-.34.76.9.9,0,0,0,.28.69,2,2,0,0,0,.79.43,2.79,2.79,0,0,1,.7.31.57.57,0,0,1,.2.44.51.51,0,0,1-.2.41.85.85,0,0,1-.51.15.76.76,0,0,1-.52-.2,1,1,0,0,1-.3-.49l0-.07-.52.2-.05,0,0,.06a1.29,1.29,0,0,0,.54.8,1.54,1.54,0,0,0,.85.28h0Z"/><path class="cls-2" d="M36.16,9.6h-.49V5.79H37a1.24,1.24,0,0,1,.84.32,1,1,0,0,1,.35.81,1,1,0,0,1-.35.81,1.2,1.2,0,0,1-.84.33h-.81Zm0-2H37a.64.64,0,0,0,.5-.21.69.69,0,0,0,.18-.46.66.66,0,0,0-.18-.45.64.64,0,0,0-.5-.21h-.82Z"/><path class="cls-2" d="M36.16,9.6V9.54h-.42V5.85H37a1.13,1.13,0,0,1,.8.31,1,1,0,0,1,.33.76,1,1,0,0,1-.33.77A1.17,1.17,0,0,1,37,8H36.1V9.6h.06v0h.07V8.12H37a1.23,1.23,0,0,0,.88-.34,1.12,1.12,0,0,0,.38-.86,1.09,1.09,0,0,0-.38-.85A1.23,1.23,0,0,0,37,5.73H35.61V9.66h.62V9.6Zm0-2v.06H37a.66.66,0,0,0,.54-.23.69.69,0,0,0,.21-.5.72.72,0,0,0-.21-.5A.66.66,0,0,0,37,6.2H36.1V7.65h.06V7.59h.07V6.32H37a.55.55,0,0,1,.45.19l.17.41-.17.42a.62.62,0,0,1-.45.19h-.82v.06h0Z"/><path class="cls-2" d="M41.9,9.11a2,2,0,0,1-2.8,0,2.07,2.07,0,0,1,0-2.83,1.89,1.89,0,0,1,1.4-.57,1.84,1.84,0,0,1,1.39.58,1.92,1.92,0,0,1,.57,1.41A2,2,0,0,1,41.9,9.11Zm-2.44-.32a1.44,1.44,0,0,0,1,.43,1.4,1.4,0,0,0,1-.43A1.47,1.47,0,0,0,42,7.7a1.48,1.48,0,0,0-.43-1.1,1.4,1.4,0,0,0-1-.43,1.44,1.44,0,0,0-1,.43A1.51,1.51,0,0,0,39,7.7,1.5,1.5,0,0,0,39.46,8.79Z"/><path class="cls-2" d="M41.9,9.11l0,0a1.91,1.91,0,0,1-2.7,0,2,2,0,0,1,0-2.73,1.91,1.91,0,0,1,2.7,0,1.91,1.91,0,0,1,.54,1.37,1.87,1.87,0,0,1-.54,1.36l0,0,0,0a2,2,0,0,0,.58-1.45,2,2,0,0,0-.58-1.46,2,2,0,0,0-2.88,0,2,2,0,0,0-.58,1.46,2,2,0,0,0,.58,1.45,2,2,0,0,0,2.88,0Zm-2.44-.32,0,0a1.52,1.52,0,0,0,2.16,0A1.55,1.55,0,0,0,42,7.7a1.56,1.56,0,0,0-.44-1.14,1.52,1.52,0,0,0-2.16,0A1.52,1.52,0,0,0,39,7.7a1.51,1.51,0,0,0,.44,1.13l0,0,0,0a1.4,1.4,0,0,1-.41-1,1.42,1.42,0,0,1,.41-1,1.4,1.4,0,0,1,2,0,1.42,1.42,0,0,1,.4,1,1.39,1.39,0,0,1-.4,1,1.4,1.4,0,0,1-2,0Z"/><polygon class="cls-2" points="43.15 9.6 43.15 5.79 43.74 5.79 45.59 8.75 45.61 8.75 45.59 8.02 45.59 5.79 46.08 5.79 46.08 9.6 45.57 9.6 43.63 6.49 43.61 6.49 43.63 7.23 43.63 9.6 43.15 9.6"/><polygon class="cls-2" points="43.15 9.6 43.21 9.6 43.21 5.85 43.7 5.85 45.56 8.82 45.61 8.82 45.68 8.82 45.66 8.02 45.66 5.85 46.02 5.85 46.02 9.54 45.61 9.54 43.67 6.43 43.61 6.43 43.55 6.43 43.57 7.23 43.57 9.54 43.15 9.54 43.15 9.6 43.21 9.6 43.15 9.6 43.15 9.66 43.63 9.66 43.7 9.66 43.7 7.23 43.68 6.49 43.61 6.49 43.61 6.56 43.63 6.56 43.63 6.49 43.58 6.53 45.53 9.66 46.08 9.66 46.15 9.66 46.15 5.73 45.59 5.73 45.53 5.73 45.53 8.02 45.55 8.76 45.61 8.75 45.61 8.69 45.59 8.69 45.59 8.75 45.65 8.72 43.77 5.73 43.15 5.73 43.08 5.73 43.08 9.66 43.15 9.66 43.15 9.6"/><rect class="cls-2" x="46.96" y="5.79" width="0.49" height="3.81"/><polygon class="cls-2" points="46.95 9.6 47.02 9.6 47.02 5.85 47.38 5.85 47.38 9.54 46.95 9.54 46.95 9.6 47.02 9.6 46.95 9.6 46.95 9.66 47.44 9.66 47.51 9.66 47.51 5.73 46.95 5.73 46.89 5.73 46.89 9.66 46.95 9.66 46.95 9.6"/><path class="cls-2" d="M48.32,9.6V5.79H49.7a1.11,1.11,0,0,1,.77.3.94.94,0,0,1,.33.74.81.81,0,0,1-.15.48l-.37.31v0a1,1,0,0,1,.46.33.88.88,0,0,1,.18.54,1,1,0,0,1-.34.78,1.16,1.16,0,0,1-.81.31Zm.48-2.18h.9a.57.57,0,0,0,.44-.18l.17-.4-.17-.4a.53.53,0,0,0-.42-.18H48.8Zm0,1.71h1a.57.57,0,0,0,.46-.2.65.65,0,0,0,.17-.43l-.18-.42a.62.62,0,0,0-.47-.2h-1Z"/><path class="cls-2" d="M48.32,9.6h.06V5.85H49.7a1.09,1.09,0,0,1,.73.28.92.92,0,0,1,.3.7.74.74,0,0,1-.13.44l0,0,0,0-.37.31,0,0v.1h0a.84.84,0,0,1,.43.31.82.82,0,0,1,.17.5.94.94,0,0,1-.32.73,1.1,1.1,0,0,1-.77.3H48.32V9.6h0v.06h1.45a1.25,1.25,0,0,0,.85-.32A1.09,1.09,0,0,0,51,8.51a1,1,0,0,0-.2-.58,1,1,0,0,0-.49-.35l0,.06h.06v0h-.06l0,0,.38-.32h0a.9.9,0,0,0,.15-.51A1,1,0,0,0,50.51,6a1.16,1.16,0,0,0-.81-.31H48.25V9.66h.07Zm.48-2.18v.07h.9a.65.65,0,0,0,.49-.21v0l.17-.4v0l-.18-.42v0a.56.56,0,0,0-.47-.2h-1V7.49h.06V7.42h.07V6.32h.85a.48.48,0,0,1,.38.16l0,0,0,0,.15.38-.16.38.06,0,0,0a.48.48,0,0,1-.39.16h-.9v.06h0Zm0,1.71V9.2h1a.65.65,0,0,0,.5-.22.69.69,0,0,0,.2-.48v0l-.18-.43V8a.69.69,0,0,0-.52-.21h-1V9.2h.06V9.13h.07V7.94h.9a.59.59,0,0,1,.43.18l0,0-.06,0,.19.43.05,0h-.06l-.16.39a.52.52,0,0,1-.41.18h-1v.06h0Z"/><polygon class="cls-2" points="51.58 9.6 51.58 5.79 52.07 5.79 52.07 9.13 53.72 9.13 53.72 9.6 51.58 9.6"/><polygon class="cls-2" points="51.58 9.6 51.65 9.6 51.65 5.85 52.01 5.85 52.01 9.2 53.66 9.2 53.66 9.54 51.58 9.54 51.58 9.6 51.65 9.6 51.58 9.6 51.58 9.66 53.72 9.66 53.79 9.66 53.79 9.13 53.79 9.07 52.14 9.07 52.14 5.73 51.58 5.73 51.52 5.73 51.52 9.66 51.58 9.66 51.58 9.6"/><polygon class="cls-2" points="56.56 6.26 54.83 6.26 54.83 7.47 56.39 7.47 56.39 7.92 54.83 7.92 54.83 9.13 56.56 9.13 56.56 9.6 54.34 9.6 54.34 5.79 56.56 5.79 56.56 6.26"/><polygon class="cls-2" points="56.56 6.26 56.56 6.2 54.83 6.2 54.77 6.2 54.77 7.47 54.77 7.53 56.33 7.53 56.33 7.86 54.83 7.86 54.77 7.86 54.77 9.13 54.77 9.2 56.5 9.2 56.5 9.54 54.4 9.54 54.4 5.85 56.5 5.85 56.5 6.26 56.56 6.26 56.56 6.2 56.56 6.26 56.63 6.26 56.63 5.79 56.63 5.73 54.34 5.73 54.28 5.73 54.28 9.66 56.56 9.66 56.63 9.66 56.63 9.13 56.63 9.07 54.89 9.07 54.89 7.99 56.39 7.99 56.46 7.99 56.46 7.47 56.46 7.4 54.89 7.4 54.89 6.32 56.56 6.32 56.63 6.32 56.63 6.26 56.56 6.26"/><polygon class="cls-2" points="60.83 6.26 59.1 6.26 59.1 7.47 60.66 7.47 60.66 7.92 59.1 7.92 59.1 9.13 60.83 9.13 60.83 9.6 58.61 9.6 58.61 5.79 60.83 5.79 60.83 6.26"/><polygon class="cls-2" points="60.83 6.26 60.83 6.2 59.1 6.2 59.03 6.2 59.03 7.47 59.03 7.53 60.6 7.53 60.6 7.86 59.1 7.86 59.03 7.86 59.03 9.13 59.03 9.2 60.77 9.2 60.77 9.54 58.67 9.54 58.67 5.85 60.77 5.85 60.77 6.26 60.83 6.26 60.83 6.2 60.83 6.26 60.9 6.26 60.9 5.79 60.9 5.73 58.61 5.73 58.55 5.73 58.55 9.66 60.83 9.66 60.9 9.66 60.9 9.13 60.9 9.07 59.16 9.07 59.16 7.99 60.66 7.99 60.73 7.99 60.73 7.47 60.73 7.4 59.16 7.4 59.16 6.32 60.83 6.32 60.9 6.32 60.9 6.26 60.83 6.26"/><polygon class="cls-2" points="61.6 9.6 61.6 5.79 62.19 5.79 64.05 8.75 64.07 8.75 64.05 8.02 64.05 5.79 64.54 5.79 64.54 9.6 64.03 9.6 62.09 6.49 62.07 6.49 62.09 7.23 62.09 9.6 61.6 9.6"/><polygon class="cls-2" points="61.6 9.6 61.66 9.6 61.66 5.85 62.16 5.85 64.01 8.82 64.07 8.82 64.13 8.82 64.11 8.02 64.11 5.85 64.47 5.85 64.47 9.54 64.06 9.54 62.12 6.43 62.07 6.43 62 6.43 62.02 7.23 62.02 9.54 61.6 9.54 61.6 9.6 61.66 9.6 61.6 9.6 61.6 9.66 62.09 9.66 62.15 9.66 62.15 7.23 62.13 6.49 62.07 6.49 62.07 6.56 62.09 6.56 62.09 6.49 62.03 6.53 63.99 9.66 64.54 9.66 64.6 9.66 64.6 5.73 64.05 5.73 63.98 5.73 63.98 8.02 64 8.76 64.07 8.75 64.07 8.69 64.05 8.69 64.05 8.75 64.1 8.72 62.23 5.73 61.6 5.73 61.53 5.73 61.53 9.66 61.6 9.66 61.6 9.6"/></svg>