<svg id="Capa_1" data-name="Capa 1" xmlns="http://www.w3.org/2000/svg" viewBox="0 0 88.26 28.1"><defs><style>.cls-1{fill:#a7a6a6;}.cls-2{fill:#fff;}</style></defs><rect x="0.92" y="1.24" width="86.41" height="25.6" rx="3.2"/><path class="cls-1" d="M84.13,1.76a2.68,2.68,0,0,1,2.69,2.68V23.65a2.69,2.69,0,0,1-2.69,2.69h-80a2.7,2.7,0,0,1-2.69-2.69V4.44A2.69,2.69,0,0,1,4.12,1.76h80m0-.52h-80a3.21,3.21,0,0,0-3.2,3.2V23.65a3.21,3.21,0,0,0,3.2,3.2h80a3.21,3.21,0,0,0,3.2-3.2V4.44A3.21,3.21,0,0,0,84.13,1.24Z"/><path class="cls-2" d="M18.16,13.37a3.54,3.54,0,0,1,1.67-2.95A3.61,3.61,0,0,0,17,8.89c-1.19-.13-2.35.71-2.95.71s-1.56-.7-2.57-.68a3.78,3.78,0,0,0-3.18,1.94c-1.37,2.38-.35,5.88,1,7.8.66.94,1.43,2,2.44,2S13.05,20,14.24,20s1.52.63,2.55.6,1.73-.94,2.36-1.89a7.84,7.84,0,0,0,1.08-2.2A3.4,3.4,0,0,1,18.16,13.37Z"/><path class="cls-2" d="M16.21,7.62A3.46,3.46,0,0,0,17,5.14a3.54,3.54,0,0,0-2.28,1.18,3.31,3.31,0,0,0-.82,2.39A2.89,2.89,0,0,0,16.21,7.62Z"/><path class="cls-2" d="M30.62,18.23H27.25l-.81,2.39H25l3.19-8.83h1.48l3.18,8.83H31.42Zm-3-1.1h2.67L29,13.26h0Z"/><path class="cls-2" d="M39.75,17.4c0,2-1.07,3.28-2.68,3.28a2.19,2.19,0,0,1-2-1.12h0v3.19H33.69V14.18H35v1.07h0a2.28,2.28,0,0,1,2-1.13C38.68,14.12,39.75,15.41,39.75,17.4Zm-1.35,0c0-1.3-.68-2.16-1.7-2.16S35,16.12,35,17.4s.68,2.17,1.69,2.17S38.4,18.72,38.4,17.4Z"/><path class="cls-2" d="M46.83,17.4c0,2-1.07,3.28-2.68,3.28a2.17,2.17,0,0,1-2-1.12h0v3.19H40.77V14.18h1.28v1.07h0a2.27,2.27,0,0,1,2.05-1.13C45.76,14.12,46.83,15.41,46.83,17.4Zm-1.35,0c0-1.3-.68-2.16-1.7-2.16s-1.69.88-1.69,2.16.68,2.17,1.69,2.17S45.48,18.72,45.48,17.4Z"/><path class="cls-2" d="M51.51,18.16c.1.87,1,1.45,2.11,1.45s1.92-.58,1.92-1.37-.48-1.09-1.63-1.37l-1.14-.28c-1.62-.39-2.37-1.15-2.37-2.38,0-1.52,1.32-2.56,3.21-2.56s3.14,1,3.18,2.56H55.46c-.08-.88-.81-1.41-1.87-1.41s-1.79.54-1.79,1.32.46,1,1.6,1.27l1,.24c1.81.43,2.56,1.16,2.56,2.45,0,1.65-1.31,2.68-3.4,2.68s-3.28-1-3.37-2.6Z"/><path class="cls-2" d="M59.78,12.66v1.52H61v1.05H59.78v3.55c0,.55.25.8.79.8a2.63,2.63,0,0,0,.43,0v1a3.43,3.43,0,0,1-.73.06c-1.31,0-1.81-.48-1.81-1.73V15.23h-.94V14.18h.94V12.66Z"/><path class="cls-2" d="M61.72,17.4a3.06,3.06,0,1,1,6.1,0c0,2-1.18,3.3-3,3.3S61.72,19.43,61.72,17.4Zm4.75,0c0-1.39-.63-2.21-1.7-2.21s-1.71.83-1.71,2.21.64,2.21,1.71,2.21S66.47,18.8,66.47,17.4Z"/><path class="cls-2" d="M68.91,14.18h1.26v1.1h0a1.53,1.53,0,0,1,1.55-1.16,1.75,1.75,0,0,1,.45.05V15.4a2,2,0,0,0-.59-.08,1.34,1.34,0,0,0-1.38,1.48v3.82H68.91Z"/><path class="cls-2" d="M78.29,18.73a2.59,2.59,0,0,1-2.77,2,2.94,2.94,0,0,1-3-3.27c0-2,1.17-3.33,3-3.33s2.9,1.23,2.9,3.18v.45H73.82v.08a1.67,1.67,0,0,0,1.73,1.82,1.45,1.45,0,0,0,1.48-.9Zm-4.47-1.92H77a1.55,1.55,0,0,0-1.58-1.64A1.64,1.64,0,0,0,73.82,16.81Z"/><path class="cls-2" d="M27.4,5.31a1.86,1.86,0,0,1,2,2.09,1.87,1.87,0,0,1-2,2.12H25.88V5.31Zm-.87,3.62h.8a1.33,1.33,0,0,0,1.39-1.52,1.33,1.33,0,0,0-1.39-1.5h-.8Z"/><path class="cls-2" d="M33,8.66a1.29,1.29,0,0,1-1.38.92,1.44,1.44,0,0,1-1.47-1.64,1.47,1.47,0,0,1,1.47-1.66A1.4,1.4,0,0,1,33,7.88V8.1H30.76v0a.84.84,0,0,0,.85.91.77.77,0,0,0,.76-.39Zm-2.21-1h1.61a.77.77,0,0,0-.78-.82A.81.81,0,0,0,30.76,7.64Z"/><path class="cls-2" d="M35,6.28c.72,0,1.18.34,1.24.9h-.6c-.06-.24-.28-.39-.64-.39s-.62.17-.62.42.17.31.51.39l.53.12c.6.14.89.4.89.87s-.56,1-1.32,1-1.25-.34-1.31-.9h.63a.65.65,0,0,0,.69.4c.39,0,.67-.18.67-.43s-.15-.32-.46-.39l-.56-.13c-.6-.14-.88-.41-.88-.89S34.29,6.28,35,6.28Z"/><path class="cls-2" d="M39.24,7.38a.71.71,0,0,0-.75-.54c-.52,0-.85.41-.85,1.08S38,9,38.49,9a.69.69,0,0,0,.75-.52h.61A1.24,1.24,0,0,1,38.5,9.58,1.46,1.46,0,0,1,37,7.92a1.45,1.45,0,0,1,1.49-1.64,1.25,1.25,0,0,1,1.36,1.1Z"/><path class="cls-2" d="M40.47,8.62c0-.57.43-.9,1.19-.95l.86,0V7.35c0-.34-.22-.52-.65-.52s-.6.12-.67.35h-.6c.06-.55.58-.9,1.3-.9s1.24.4,1.24,1.07V9.52h-.6V9.08h0a1.09,1.09,0,0,1-1,.5A1,1,0,0,1,40.47,8.62Zm2.05-.27V8.09l-.78.05c-.44,0-.63.17-.63.45s.24.46.59.46A.75.75,0,0,0,42.52,8.35Zm-1-2.54.73-1H43l-.82,1Z"/><path class="cls-2" d="M44.13,6.34h.6v.49h.05a.86.86,0,0,1,.85-.54,1.09,1.09,0,0,1,.28,0v.62a1.53,1.53,0,0,0-.35,0,.75.75,0,0,0-.81.75V9.52h-.62Z"/><path class="cls-2" d="M46.49,9.84h.64c.06.23.32.38.74.38s.84-.25.84-.67V8.94h-.05a1.06,1.06,0,0,1-1,.54c-.81,0-1.31-.63-1.31-1.58s.5-1.61,1.31-1.61a1.11,1.11,0,0,1,1,.56h0V6.34h.6V9.55c0,.73-.57,1.19-1.46,1.19S46.56,10.38,46.49,9.84Zm2.23-1.95c0-.63-.33-1-.86-1s-.85.41-.85,1,.31,1,.85,1S48.72,8.53,48.72,7.89Z"/><path class="cls-2" d="M50.15,8.62c0-.57.43-.9,1.18-.95l.87,0V7.35c0-.34-.23-.52-.66-.52s-.59.12-.66.35h-.61c.07-.55.58-.9,1.3-.9s1.25.4,1.25,1.07V9.52h-.6V9.08h0a1.09,1.09,0,0,1-1,.5A1,1,0,0,1,50.15,8.62Zm2.05-.27V8.09l-.78.05c-.44,0-.64.17-.64.45s.25.46.59.46A.75.75,0,0,0,52.2,8.35Z"/><path class="cls-2" d="M53.83,5.1h.63V9.52h-.63Z"/><path class="cls-2" d="M55.33,7.93a1.51,1.51,0,1,1,3,0,1.51,1.51,0,1,1-3,0Zm2.35,0c0-.69-.31-1.09-.85-1.09S56,7.24,56,7.93s.31,1.1.85,1.1S57.68,8.62,57.68,7.93Z"/><path class="cls-2" d="M63.58,8.66a1.28,1.28,0,0,1-1.37.92,1.44,1.44,0,0,1-1.47-1.64A1.47,1.47,0,0,1,62.2,6.28c.89,0,1.42.61,1.42,1.6V8.1H61.38v0a.83.83,0,0,0,.84.91A.77.77,0,0,0,63,8.66Zm-2.2-1H63a.76.76,0,0,0-.78-.82A.8.8,0,0,0,61.38,7.64Z"/><path class="cls-2" d="M64.46,6.34h.61v.51h0a1,1,0,0,1,1-.57,1,1,0,0,1,1.1,1.18V9.52h-.62V7.62c0-.51-.23-.76-.69-.76a.73.73,0,0,0-.76.8V9.52h-.63Z"/><path class="cls-2" d="M72.55,8.66a1.3,1.3,0,0,1-1.38.92A1.44,1.44,0,0,1,69.7,7.94a1.47,1.47,0,0,1,1.47-1.66c.88,0,1.41.61,1.41,1.6V8.1H70.34v0a.84.84,0,0,0,.85.91.75.75,0,0,0,.75-.39Zm-2.21-1H72a.77.77,0,0,0-.79-.82A.8.8,0,0,0,70.34,7.64Z"/><path class="cls-2" d="M73.46,5.1h.62V9.52h-.62Z"/></svg>