<svg id="Capa_1" data-name="Capa 1" xmlns="http://www.w3.org/2000/svg" viewBox="0 0 88.26 28.1"><defs><style>.cls-1{fill:#a7a6a6;}.cls-2{fill:#fff;}</style></defs><rect x="0.92" y="1.24" width="86.41" height="25.6" rx="3.2"/><path class="cls-1" d="M84.13,1.76a2.68,2.68,0,0,1,2.69,2.68V23.65a2.69,2.69,0,0,1-2.69,2.69h-80a2.7,2.7,0,0,1-2.69-2.69V4.44A2.69,2.69,0,0,1,4.12,1.76h80m0-.52h-80a3.21,3.21,0,0,0-3.2,3.2V23.65a3.21,3.21,0,0,0,3.2,3.2h80a3.21,3.21,0,0,0,3.2-3.2V4.44A3.21,3.21,0,0,0,84.13,1.24Z"/><path class="cls-2" d="M18.16,13.37a3.54,3.54,0,0,1,1.67-2.95A3.61,3.61,0,0,0,17,8.89c-1.19-.13-2.35.71-2.95.71s-1.56-.7-2.57-.68a3.78,3.78,0,0,0-3.18,1.94c-1.37,2.38-.35,5.88,1,7.8.66.94,1.43,2,2.44,2S13.05,20,14.24,20s1.52.63,2.55.6,1.73-.94,2.36-1.89a7.84,7.84,0,0,0,1.08-2.2A3.4,3.4,0,0,1,18.16,13.37Z"/><path class="cls-2" d="M16.21,7.62A3.46,3.46,0,0,0,17,5.14a3.54,3.54,0,0,0-2.28,1.18,3.31,3.31,0,0,0-.82,2.39A2.89,2.89,0,0,0,16.21,7.62Z"/><path class="cls-2" d="M30.62,18.23H27.25l-.81,2.39H25l3.19-8.83h1.48l3.18,8.83H31.42Zm-3-1.1h2.67L29,13.26h0Z"/><path class="cls-2" d="M39.75,17.4c0,2-1.07,3.28-2.68,3.28a2.19,2.19,0,0,1-2-1.12h0v3.19H33.69V14.18H35v1.07h0a2.28,2.28,0,0,1,2-1.13C38.68,14.12,39.75,15.41,39.75,17.4Zm-1.35,0c0-1.3-.68-2.16-1.7-2.16S35,16.12,35,17.4s.68,2.17,1.69,2.17S38.4,18.72,38.4,17.4Z"/><path class="cls-2" d="M46.83,17.4c0,2-1.07,3.28-2.68,3.28a2.17,2.17,0,0,1-2-1.12h0v3.19H40.77V14.18h1.28v1.07h0a2.27,2.27,0,0,1,2.05-1.13C45.76,14.12,46.83,15.41,46.83,17.4Zm-1.35,0c0-1.3-.68-2.16-1.7-2.16s-1.69.88-1.69,2.16.68,2.17,1.69,2.17S45.48,18.72,45.48,17.4Z"/><path class="cls-2" d="M51.51,18.16c.1.87,1,1.45,2.11,1.45s1.92-.58,1.92-1.37-.48-1.09-1.63-1.37l-1.14-.28c-1.62-.39-2.37-1.15-2.37-2.38,0-1.52,1.32-2.56,3.21-2.56s3.14,1,3.18,2.56H55.46c-.08-.88-.81-1.41-1.87-1.41s-1.79.54-1.79,1.32.46,1,1.6,1.27l1,.24c1.81.43,2.56,1.16,2.56,2.45,0,1.65-1.31,2.68-3.4,2.68s-3.28-1-3.37-2.6Z"/><path class="cls-2" d="M59.78,12.66v1.52H61v1.05H59.78v3.55c0,.55.25.8.79.8a2.63,2.63,0,0,0,.43,0v1a3.43,3.43,0,0,1-.73.06c-1.31,0-1.81-.48-1.81-1.73V15.23h-.94V14.18h.94V12.66Z"/><path class="cls-2" d="M61.72,17.4a3.06,3.06,0,1,1,6.1,0c0,2-1.18,3.3-3,3.3S61.72,19.43,61.72,17.4Zm4.75,0c0-1.39-.63-2.21-1.7-2.21s-1.71.83-1.71,2.21.64,2.21,1.71,2.21S66.47,18.8,66.47,17.4Z"/><path class="cls-2" d="M68.91,14.18h1.26v1.1h0a1.53,1.53,0,0,1,1.55-1.16,1.75,1.75,0,0,1,.45.05V15.4a2,2,0,0,0-.59-.08,1.34,1.34,0,0,0-1.38,1.48v3.82H68.91Z"/><path class="cls-2" d="M78.29,18.73a2.59,2.59,0,0,1-2.77,2,2.94,2.94,0,0,1-3-3.27c0-2,1.17-3.33,3-3.33s2.9,1.23,2.9,3.18v.45H73.82v.08a1.67,1.67,0,0,0,1.73,1.82,1.45,1.45,0,0,0,1.48-.9Zm-4.47-1.92H77a1.55,1.55,0,0,0-1.58-1.64A1.64,1.64,0,0,0,73.82,16.81Z"/><path class="cls-2" d="M27.43,5.15a1.88,1.88,0,0,1,2,2.11,1.88,1.88,0,0,1-2,2.13H25.9V5.15Zm-.87,3.64h.8a1.33,1.33,0,0,0,1.4-1.52,1.34,1.34,0,0,0-1.4-1.52h-.8Z"/><path class="cls-2" d="M30.17,7.79a1.52,1.52,0,1,1,3,0,1.52,1.52,0,1,1-3,0Zm2.37,0c0-.69-.31-1.1-.86-1.1s-.85.41-.85,1.1.31,1.1.85,1.1S32.54,8.49,32.54,7.79Z"/><path class="cls-2" d="M37.2,9.39h-.65L35.89,7h0l-.66,2.36h-.65l-.88-3.2h.64l.57,2.44h0l.66-2.44h.6l.66,2.44h.05l.57-2.44h.63Z"/><path class="cls-2" d="M38.82,6.19h.61V6.7h0a1,1,0,0,1,1-.57,1,1,0,0,1,1.11,1.19V9.39h-.63V7.48c0-.52-.22-.77-.69-.77a.73.73,0,0,0-.76.81V9.39h-.64Z"/><path class="cls-2" d="M42.55,4.94h.63V9.39h-.63Z"/><path class="cls-2" d="M44.06,7.79a1.52,1.52,0,1,1,3,0,1.52,1.52,0,1,1-3,0Zm2.37,0c0-.69-.31-1.1-.86-1.1s-.86.41-.86,1.1.31,1.1.86,1.1S46.43,8.49,46.43,7.79Z"/><path class="cls-2" d="M47.74,8.49c0-.58.43-.91,1.19-1l.87,0V7.2c0-.33-.22-.52-.66-.52s-.59.12-.66.35h-.61c.06-.55.58-.9,1.3-.9s1.26.4,1.26,1.07V9.39h-.61V8.94h0a1.07,1.07,0,0,1-1,.5A1,1,0,0,1,47.74,8.49Zm2.06-.28V7.94L49,8c-.44,0-.64.18-.64.47s.25.45.59.45A.75.75,0,0,0,49.8,8.21Z"/><path class="cls-2" d="M51.26,7.79c0-1,.52-1.65,1.33-1.65a1.07,1.07,0,0,1,1,.56h0V4.94h.64V9.39h-.61V8.88h0a1.1,1.1,0,0,1-1,.56C51.77,9.44,51.26,8.8,51.26,7.79Zm.65,0c0,.68.32,1.09.85,1.09s.87-.42.87-1.09-.34-1.09-.87-1.09S51.91,7.12,51.91,7.79Z"/><path class="cls-2" d="M56.86,7.79a1.52,1.52,0,1,1,3,0,1.52,1.52,0,1,1-3,0Zm2.37,0c0-.69-.31-1.1-.86-1.1s-.86.41-.86,1.1.31,1.1.86,1.1S59.23,8.49,59.23,7.79Z"/><path class="cls-2" d="M60.72,6.19h.61V6.7h.05a.94.94,0,0,1,.95-.57,1,1,0,0,1,1.11,1.19V9.39h-.63V7.48c0-.52-.22-.77-.69-.77a.73.73,0,0,0-.76.81V9.39h-.64Z"/><path class="cls-2" d="M67,5.39v.82h.69v.53H67V8.38c0,.34.14.48.45.48h.24v.53a3.31,3.31,0,0,1-.34,0c-.7,0-1-.25-1-.87V6.74h-.51V6.21h.51V5.39Z"/><path class="cls-2" d="M68.57,4.94h.62V6.7h0a1,1,0,0,1,1-.57,1.05,1.05,0,0,1,1.1,1.19V9.39h-.63V7.48c0-.51-.24-.77-.69-.77a.75.75,0,0,0-.8.81V9.39h-.63Z"/><path class="cls-2" d="M75,8.53a1.29,1.29,0,0,1-1.38.92A1.45,1.45,0,0,1,72.14,7.8a1.47,1.47,0,0,1,1.47-1.67c.89,0,1.43.61,1.43,1.61V8H72.78V8a.84.84,0,0,0,.85.91.75.75,0,0,0,.76-.38Zm-2.22-1H74.4a.77.77,0,0,0-.79-.83A.82.82,0,0,0,72.78,7.5Z"/></svg>