<svg id="Capa_1" data-name="Capa 1" xmlns="http://www.w3.org/2000/svg" xmlns:xlink="http://www.w3.org/1999/xlink" viewBox="0 0 88.26 28.1"><defs><style>.cls-1{fill:#a7a6a6;}.cls-2{fill:#fff;}.cls-3{fill:#7bc7ef;}.cls-4{fill:url(#Degradado_sin_nombre_11);}.cls-5{fill:url(#Degradado_sin_nombre_12);}.cls-6{fill:url(#Degradado_sin_nombre_13);}</style><linearGradient id="Degradado_sin_nombre_11" x1="-2781.66" y1="4448.58" x2="-2780.66" y2="4448.58" gradientTransform="matrix(-15.48, 0, 0, 15.48, -43025.46, -68828.16)" gradientUnits="userSpaceOnUse"><stop offset="0" stop-color="#f8e04a"/><stop offset="0.37" stop-color="#f2c245"/><stop offset="0.76" stop-color="#eca841"/><stop offset="1" stop-color="#ea9f3f"/></linearGradient><linearGradient id="Degradado_sin_nombre_12" x1="-2800.48" y1="4455.42" x2="-2799.48" y2="4455.42" gradientTransform="matrix(-14.56, 14.56, 14.56, 14.56, -105593.42, -24072.42)" gradientUnits="userSpaceOnUse"><stop offset="0" stop-color="#db534f"/><stop offset="1" stop-color="#b42f6c"/></linearGradient><linearGradient id="Degradado_sin_nombre_13" x1="-2815.82" y1="4485.26" x2="-2814.82" y2="4485.26" gradientTransform="matrix(11.88, 11.88, 11.88, -11.88, -19837.08, 86763.43)" gradientUnits="userSpaceOnUse"><stop offset="0" stop-color="#519c73"/><stop offset="0.31" stop-color="#67aa73"/><stop offset="0.74" stop-color="#7fb972"/><stop offset="1" stop-color="#88bf72"/></linearGradient></defs><rect x="0.92" y="1.24" width="86.41" height="25.6" rx="3.2"/><path class="cls-1" d="M84.13,1.76a2.68,2.68,0,0,1,2.69,2.68V23.65a2.69,2.69,0,0,1-2.69,2.69h-80a2.7,2.7,0,0,1-2.69-2.69V4.44A2.69,2.69,0,0,1,4.12,1.76h80m0-.52h-80a3.21,3.21,0,0,0-3.2,3.2V23.65a3.21,3.21,0,0,0,3.2,3.2h80a3.21,3.21,0,0,0,3.2-3.2V4.44A3.21,3.21,0,0,0,84.13,1.24Z"/><path class="cls-2" d="M31.27,7.8a1.71,1.71,0,0,1-.47,1.28,1.85,1.85,0,0,1-1.41.57,2,2,0,0,1-2-2,2,2,0,0,1,2-2,1.91,1.91,0,0,1,.78.16,1.64,1.64,0,0,1,.61.43l-.34.34a1.3,1.3,0,0,0-1.05-.46A1.49,1.49,0,0,0,27.9,7.64a1.51,1.51,0,0,0,2.56,1.11A1.27,1.27,0,0,0,30.78,8H29.39V7.51h1.86A1.46,1.46,0,0,1,31.27,7.8Z"/><path class="cls-2" d="M31.27,7.8h-.06A1.67,1.67,0,0,1,30.75,9a1.82,1.82,0,0,1-1.36.55A1.89,1.89,0,0,1,28,9a1.85,1.85,0,0,1-.56-1.39A1.84,1.84,0,0,1,28,6.26a1.89,1.89,0,0,1,1.37-.56,1.82,1.82,0,0,1,.76.16,1.56,1.56,0,0,1,.58.41l.05,0-.05-.05-.34.34.05.05,0,0a1.37,1.37,0,0,0-1.1-.48,1.57,1.57,0,0,0-1.1.44,1.54,1.54,0,0,0-.46,1.15,1.54,1.54,0,0,0,.46,1.16,1.57,1.57,0,0,0,1.1.44A1.52,1.52,0,0,0,30.5,8.8,1.28,1.28,0,0,0,30.84,8V7.91h-1.4V7.57h1.8V7.51h-.07a1.41,1.41,0,0,1,0,.28h.13a1.53,1.53,0,0,0,0-.3v0h-2V8h1.46V8h-.06a1.1,1.1,0,0,1-.31.73,1.35,1.35,0,0,1-1,.41A1.4,1.4,0,0,1,28,7.64a1.42,1.42,0,0,1,.42-1.06,1.47,1.47,0,0,1,1-.41,1.26,1.26,0,0,1,1,.44l0,0,.39-.39,0,0,0,0a1.53,1.53,0,0,0-.62-.45,2.06,2.06,0,0,0-.81-.17,2,2,0,0,0-2.06,2.07,2,2,0,0,0,.6,1.48,2,2,0,0,0,1.46.59,1.88,1.88,0,0,0,1.45-.58,1.81,1.81,0,0,0,.5-1.33Z"/><polygon class="cls-2" points="34.23 6.2 32.48 6.2 32.48 7.41 34.05 7.41 34.05 7.88 32.48 7.88 32.48 9.09 34.23 9.09 34.23 9.56 31.98 9.56 31.98 5.72 34.23 5.72 34.23 6.2"/><polygon class="cls-2" points="34.23 6.2 34.23 6.13 32.41 6.13 32.41 7.41 32.41 7.48 33.99 7.48 33.99 7.81 32.41 7.81 32.41 9.09 32.41 9.16 34.16 9.16 34.16 9.5 32.05 9.5 32.05 5.79 34.16 5.79 34.16 6.2 34.23 6.2 34.23 6.13 34.23 6.2 34.29 6.2 34.29 5.72 34.29 5.66 31.92 5.66 31.92 9.63 34.29 9.63 34.29 9.09 34.29 9.03 32.54 9.03 32.54 7.94 34.12 7.94 34.12 7.41 34.12 7.35 32.54 7.35 32.54 6.26 34.29 6.26 34.29 6.2 34.23 6.2"/><polygon class="cls-2" points="36.3 9.56 35.81 9.56 35.81 6.2 34.74 6.2 34.74 5.72 37.38 5.72 37.38 6.2 36.3 6.2 36.3 9.56"/><polygon class="cls-2" points="36.3 9.56 36.3 9.5 35.88 9.5 35.88 6.13 34.8 6.13 34.8 5.79 37.31 5.79 37.31 6.13 36.3 6.13 36.24 6.13 36.24 9.56 36.3 9.56 36.3 9.5 36.3 9.56 36.37 9.56 36.37 6.26 37.38 6.26 37.44 6.26 37.44 5.72 37.44 5.66 34.67 5.66 34.67 6.2 34.67 6.26 35.75 6.26 35.75 9.63 36.3 9.63 36.37 9.63 36.37 9.56 36.3 9.56"/><rect class="cls-2" x="39.29" y="5.72" width="0.49" height="3.84"/><polygon class="cls-2" points="39.29 9.56 39.35 9.56 39.35 5.79 39.72 5.79 39.72 9.5 39.29 9.5 39.29 9.56 39.35 9.56 39.29 9.56 39.29 9.63 39.78 9.63 39.84 9.63 39.84 5.66 39.29 5.66 39.22 5.66 39.22 9.63 39.29 9.63 39.29 9.56"/><polygon class="cls-2" points="41.97 9.56 41.48 9.56 41.48 6.2 40.4 6.2 40.4 5.72 43.04 5.72 43.04 6.2 41.97 6.2 41.97 9.56"/><polygon class="cls-2" points="41.97 9.56 41.97 9.5 41.54 9.5 41.54 6.13 40.47 6.13 40.47 5.79 42.98 5.79 42.98 6.13 41.97 6.13 41.91 6.13 41.91 9.56 41.97 9.56 41.97 9.5 41.97 9.56 42.03 9.56 42.03 6.26 43.04 6.26 43.11 6.26 43.11 5.72 43.11 5.66 40.34 5.66 40.34 6.2 40.34 6.26 41.41 6.26 41.41 9.63 41.97 9.63 42.03 9.63 42.03 9.56 41.97 9.56"/><path class="cls-2" d="M48,9.07a2,2,0,0,1-2.82,0,2,2,0,0,1-.56-1.43,2,2,0,0,1,.56-1.42,2,2,0,0,1,2.82,0,2,2,0,0,1,.56,1.42A2,2,0,0,1,48,9.07Zm-2.45-.32a1.47,1.47,0,0,0,2.08,0,1.5,1.5,0,0,0,.43-1.11,1.49,1.49,0,0,0-.43-1.1,1.47,1.47,0,0,0-2.08,0,1.49,1.49,0,0,0-.43,1.1A1.5,1.5,0,0,0,45.59,8.75Z"/><path class="cls-2" d="M48,9.07,48,9a1.91,1.91,0,0,1-2.72,0,1.87,1.87,0,0,1-.55-1.38,1.86,1.86,0,0,1,.55-1.37,1.79,1.79,0,0,1,1.36-.57A1.82,1.82,0,0,1,48,6.27a1.88,1.88,0,0,1,.55,1.37A1.87,1.87,0,0,1,48,9l0,.05,0,0a2.11,2.11,0,0,0,0-2.93,2,2,0,0,0-1.45-.61,1.93,1.93,0,0,0-1.45.61,2,2,0,0,0-.59,1.46,2,2,0,0,0,.59,1.47,1.92,1.92,0,0,0,1.45.6,1.89,1.89,0,0,0,1.45-.6Zm-2.45-.32-.05,0a1.55,1.55,0,0,0,2.18,0,1.56,1.56,0,0,0,.44-1.15,1.54,1.54,0,0,0-.44-1.14,1.55,1.55,0,0,0-2.18,0,1.58,1.58,0,0,0-.44,1.14,1.6,1.6,0,0,0,.44,1.15l.05,0,0-.05a1.56,1.56,0,0,1,0-2.11,1.4,1.4,0,0,1,2,0,1.42,1.42,0,0,1,.41,1,1.43,1.43,0,0,1-.41,1.06,1.42,1.42,0,0,1-2,0Z"/><polygon class="cls-2" points="49.3 9.56 49.3 5.72 49.9 5.72 51.76 8.71 51.79 8.71 51.76 7.97 51.76 5.72 52.26 5.72 52.26 9.56 51.74 9.56 49.79 6.43 49.77 6.43 49.79 7.17 49.79 9.56 49.3 9.56"/><polygon class="cls-2" points="49.3 9.56 49.36 9.56 49.36 5.79 49.86 5.79 51.73 8.78 51.79 8.78 51.85 8.78 51.83 7.97 51.83 5.79 52.19 5.79 52.19 9.5 51.78 9.5 49.83 6.37 49.77 6.37 49.7 6.37 49.73 7.17 49.73 9.5 49.3 9.5 49.3 9.56 49.36 9.56 49.3 9.56 49.3 9.63 49.79 9.63 49.85 9.63 49.85 7.17 49.83 6.43 49.77 6.43 49.77 6.5 49.79 6.5 49.79 6.43 49.73 6.47 51.71 9.63 52.26 9.63 52.32 9.63 52.32 5.66 51.76 5.66 51.7 5.66 51.7 7.97 51.72 8.71 51.79 8.71 51.79 8.65 51.76 8.65 51.76 8.71 51.82 8.68 49.93 5.66 49.3 5.66 49.23 5.66 49.23 9.63 49.3 9.63 49.3 9.56"/><path class="cls-2" d="M44.54,15.17a2.72,2.72,0,1,0,2.73,2.72A2.68,2.68,0,0,0,44.54,15.17Zm0,4.37a1.65,1.65,0,1,1,1.53-1.65A1.57,1.57,0,0,1,44.54,19.54Zm-6-4.37a2.72,2.72,0,1,0,2.74,2.72A2.68,2.68,0,0,0,38.57,15.17Zm0,4.37a1.65,1.65,0,1,1,1.54-1.65A1.57,1.57,0,0,1,38.57,19.54ZM31.48,16v1.16h2.77a2.44,2.44,0,0,1-.63,1.45,2.85,2.85,0,0,1-2.14.85,3.08,3.08,0,0,1,0-6.15,3,3,0,0,1,2.09.83l.81-.82a4,4,0,0,0-2.9-1.16,4.23,4.23,0,1,0,0,8.45,3.73,3.73,0,0,0,3.95-3.89,4,4,0,0,0-.06-.72Zm29,.9a2.51,2.51,0,0,0-2.33-1.73,2.58,2.58,0,0,0-2.56,2.72,2.66,2.66,0,0,0,2.7,2.72,2.73,2.73,0,0,0,2.27-1.2l-.93-.62a1.56,1.56,0,0,1-1.34.75A1.38,1.38,0,0,1,57,18.71l3.64-1.5Zm-3.71.91a1.49,1.49,0,0,1,1.42-1.59,1,1,0,0,1,1,.58Zm-3,2.64H55v-8h-1.2Zm-2-4.67h0a1.88,1.88,0,0,0-1.43-.61,2.72,2.72,0,0,0,0,5.44A1.85,1.85,0,0,0,51.81,20h0v.39c0,1.05-.55,1.6-1.45,1.6A1.49,1.49,0,0,1,49,21L48,21.45a2.61,2.61,0,0,0,2.42,1.61c1.4,0,2.59-.83,2.59-2.84V15.33H51.85Zm-1.37,3.76a1.66,1.66,0,0,1,0-3.3,1.53,1.53,0,0,1,1.46,1.66A1.52,1.52,0,0,1,50.48,19.54Zm15.61-7.1H63.22v8h1.2v-3h1.67a2.49,2.49,0,1,0,0-5Zm0,3.86h-1.7V13.56h1.7a1.37,1.37,0,1,1,0,2.74Zm7.38-1.15a2.23,2.23,0,0,0-2.13,1.23l1.06.44a1.28,1.28,0,0,1,2.34.44v.08a2.64,2.64,0,0,0-1.24-.3c-1.14,0-2.31.62-2.31,1.8a1.85,1.85,0,0,0,2,1.76,1.68,1.68,0,0,0,1.52-.78h0v.61h1.16V17.37A2.2,2.2,0,0,0,73.5,15.15Zm-.15,4.39c-.39,0-.93-.2-.93-.68S73.1,18,73.68,18a2.13,2.13,0,0,1,1.09.27A1.45,1.45,0,0,1,73.35,19.54Zm6.78-4.21L78.76,18.8h0L77.3,15.33H76l2.13,4.85-1.21,2.69h1.24l3.29-7.54ZM69.37,20.45h1.19v-8H69.37Z"/><path class="cls-3" d="M7.6,6.07a1.33,1.33,0,0,0-.29.9V21.12a1.33,1.33,0,0,0,.29.9l.05,0,7.92-7.92V14L7.65,6Z"/><path class="cls-4" d="M18.21,16.78l-2.64-2.64V14l2.64-2.64.06,0,3.13,1.78a1,1,0,0,1,0,1.85l-3.13,1.78Z"/><path class="cls-5" d="M18.27,16.75l-2.7-2.7-8,8a1,1,0,0,0,1.33,0l9.34-5.31"/><path class="cls-6" d="M18.27,11.34,8.93,6a1,1,0,0,0-1.33,0l8,8Z"/></svg>