<?xml version="1.0" encoding="utf-8"?>
<!-- Generator: Adobe Illustrator 25.2.0, SVG Export Plug-In . SVG Version: 6.00 Build 0)  -->
<svg version="1.1" id="Capa_1" xmlns="http://www.w3.org/2000/svg" xmlns:xlink="http://www.w3.org/1999/xlink" x="0px" y="0px"
	 viewBox="0 0 616.1 111.9" style="enable-background:new 0 0 616.1 111.9;" xml:space="preserve">
<style type="text/css">
	.st0{fill:#0A203F;}
	.st1{fill:#8EB7E0;}
	.st2{fill:#872B90;}
	.st3{fill:#EC008C;}
	.st4{fill:#F36C21;}
	.st5{fill:#FFFFFF;}
	.st6{fill-rule:evenodd;clip-rule:evenodd;fill:#0A203F;}
</style>
<symbol  id="Blue" viewBox="-102 -27.2 203.9 54.5">
	<path class="st0" d="M-102-26.1h30.4c5.1,0,9,1.3,11.6,3.8c2.6,2.4,4.1,5.8,4.1,9.3c0.1,2.9-1,5.8-2.9,8c-1.5,1.6-3.5,2.9-5.6,3.5
		c3.8,0.9,6.5,2.5,8.3,4.7c1.8,2.4,2.8,5.3,2.7,8.3c0,2.6-0.6,5.1-1.9,7.3c-1.2,2.1-3,3.9-5.2,5.1c-1.9,0.9-4,1.5-6.1,1.7
		c-2.4,0.4-4.8,0.6-7.3,0.7h-28V-26.1z M-85.6-5.5h7.1c2.5,0,4.3-0.4,5.3-1.3c1-1,1.6-2.4,1.5-3.8c0.1-1.4-0.5-2.7-1.5-3.6
		c-1-0.9-2.7-1.3-5.2-1.3h-7.2V-5.5z M-85.6,15h8.3c2.8,0,4.8-0.5,5.9-1.5c1.2-1,1.8-2.5,1.7-4c0-1.4-0.6-2.8-1.7-3.7
		c-1.2-0.9-3.1-1.4-6-1.4h-8.2V15z"/>
	<path class="st1" d="M-52.4-26.1h16.2v39.5H-11v12.9h-41.4V-26.1z"/>
	<path class="st1" d="M23.1-26.1h16.2V5.2c0,3-0.5,6-1.4,8.8c-0.9,2.7-2.5,5.2-4.5,7.2c-1.8,1.9-4,3.4-6.5,4.3
		c-3.6,1.2-7.5,1.8-11.3,1.8c-2.8,0-5.6-0.2-8.4-0.5c-2.6-0.2-5.2-1-7.6-2.1c-2.1-1.1-4-2.7-5.6-4.5c-1.6-1.7-2.7-3.8-3.5-6
		c-0.9-2.9-1.4-5.9-1.5-8.9v-31.2H5.2v32c-0.1,2.5,0.7,4.9,2.4,6.7c3.8,3.2,9.4,3.2,13.2,0c1.7-1.8,2.5-4.3,2.4-6.7L23.1-26.1z"/>
	<path class="st1" d="M59.4,3.9c0.5,5.8,3.9,9.9,10,9.9c3.2,0,6.6-1.2,8.2-3.6H96c-4,11-14.8,16.1-26.4,16.1
		c-16.4,0-28.8-9.6-28.8-26.6c0-14.8,10.9-26.9,27.1-26.9C88.3-27.2,97-15.9,97,3.9H59.4z M78.3-6.2c0.1-4.6-3.6-8.5-8.2-8.6
		c-0.1,0-0.2,0-0.4,0c-5.8,0-9.2,3-10.1,8.5H78.3z"/>
	<path class="st0" d="M102-21.2c0.1,2.5-1.9,4.5-4.3,4.6c-2.5,0.1-4.5-1.9-4.6-4.3s1.9-4.5,4.3-4.6c0.1,0,0.1,0,0.2,0
		C100-25.6,101.9-23.7,102-21.2C102-21.3,102-21.3,102-21.2z M94.2-21.2c0,1.9,1.4,3.4,3.3,3.4c0,0,0.1,0,0.1,0
		c1.8,0,3.3-1.5,3.3-3.3c0,0,0-0.1,0-0.1c0.1-1.8-1.3-3.4-3.2-3.5s-3.4,1.3-3.5,3.2C94.2-21.5,94.2-21.4,94.2-21.2z M96.8-19h-1
		v-4.4c0.5-0.1,1.1-0.1,1.7-0.1c0.5-0.1,1,0.1,1.5,0.3c0.3,0.2,0.5,0.6,0.4,0.9c0,0.5-0.4,0.9-0.9,1v0.1c0.4,0.1,0.6,0.5,0.8,1
		c0.1,0.4,0.2,0.7,0.3,1.1h-1.1c-0.2-0.3-0.3-0.7-0.4-1.1c-0.1-0.4-0.3-0.7-0.9-0.7h-0.5V-19z M96.8-21.4h0.5c0.6,0,1-0.2,1-0.6
		s-0.3-0.7-0.9-0.7c-0.2,0-0.4,0-0.6,0V-21.4z"/>
</symbol>
<g>
	<path class="st2" d="M533.5,11.9h60.7c1.4,0,2.6,1.2,2.6,2.6v30.2c0,1.4-1.2,2.6-2.6,2.6h-60.7c-1.4,0-2.6-1.2-2.6-2.6V14.5
		C530.9,13.1,532.1,11.9,533.5,11.9z"/>
	<path class="st3" d="M533.5,17.9h60.7c1.4,0,2.6,1.2,2.6,2.6v30.2c0,1.4-1.2,2.6-2.6,2.6h-60.7c-1.4,0-2.6-1.2-2.6-2.6V20.5
		C530.9,19.1,532.1,17.9,533.5,17.9z"/>
	<path class="st4" d="M533.5,24h60.7c1.4,0,2.6,1.2,2.6,2.6v30.2c0,1.4-1.2,2.6-2.6,2.6h-60.7c-1.4,0-2.6-1.2-2.6-2.6V26.6
		C530.9,25.1,532.1,24,533.5,24z"/>
	<path class="st1" d="M563.8,37.6c-4.7,0-8.8-3-10.1-7.5h-18.4c-2.7,0-4.9,2.2-5,4.9c0,0,0,0,0,0v58.9c0,2.7,2.2,4.9,4.9,4.9
		c0,0,0,0,0,0h57.2c2.7,0,4.9-2.2,4.9-4.9c0,0,0,0,0,0V35c0-2.7-2.2-4.9-4.9-4.9l0,0H574C572.6,34.5,568.5,37.6,563.8,37.6z"/>
	<path class="st0" d="M563.8,44.6c-12.7,0-23.1,10.3-23.1,23.1c0,12.7,10.3,23.1,23.1,23.1c12.7,0,23.1-10.3,23.1-23.1c0,0,0,0,0,0
		C586.9,54.9,576.6,44.6,563.8,44.6 M563.8,88.9c-11.7,0-21.3-9.5-21.3-21.3s9.5-21.3,21.3-21.3s21.3,9.5,21.3,21.3v0
		C585.1,79.4,575.6,88.9,563.8,88.9"/>
	<path class="st1" d="M563.8,46.4c-11.7,0-21.3,9.5-21.3,21.3s9.5,21.3,21.3,21.3s21.3-9.5,21.3-21.3c0,0,0,0,0,0
		C585.1,55.9,575.6,46.4,563.8,46.4 M563.8,87.8c-11.1,0-20.1-9-20.1-20.1c0-11.1,9-20.1,20.1-20.1c11.1,0,20.1,9,20.1,20.1
		c0,0,0,0,0,0C583.9,78.8,574.9,87.8,563.8,87.8C563.8,87.8,563.8,87.8,563.8,87.8"/>
	<path class="st0" d="M563.8,47.5c-11.1,0-20.1,9-20.1,20.1c0,11.1,9,20.1,20.1,20.1c11.1,0,20.1-9,20.1-20.1
		C583.9,56.6,574.9,47.6,563.8,47.5"/>
	<path class="st5" d="M560.6,73.9h4.2c1.7,0,2.8-0.6,2.8-2.3s-1.3-2.4-2.8-2.4h-4.2V73.9z M560.6,65.8h4.1c1.1,0.1,2-0.7,2.1-1.8
		c0-0.1,0-0.1,0-0.2c0-1.5-1-2-2.2-2h-4.1V65.8z M555.3,57.8h9.5c3.5,0,7.3,0.9,7.3,5.1c0,1.8-1.1,3.3-2.7,4.1
		c2.1,0.6,3.6,2.6,3.5,4.8c0,4.8-3.5,6.3-7.9,6.3h-9.7L555.3,57.8z"/>
	<path class="st6" d="M584.5,83.8h0.3c0.2,0,0.4,0,0.4,0.2s-0.1,0.3-0.4,0.3h-0.3V83.8z M584.1,85.4h0.4v-0.8h0.2l0.4,0.8h0.4
		l-0.5-0.8c0.3,0,0.5-0.2,0.5-0.4c0,0,0,0,0,0c0-0.4-0.3-0.5-0.7-0.5h-0.7L584.1,85.4z M583.6,84.5c0-0.7,0.6-1.2,1.3-1.2
		c0.7,0,1.2,0.6,1.2,1.3c0,0.7-0.6,1.2-1.2,1.2C584.1,85.8,583.6,85.2,583.6,84.5C583.6,84.5,583.6,84.5,583.6,84.5L583.6,84.5z
		 M583.1,84.5c0,0.9,0.7,1.7,1.6,1.7c0.9,0,1.7-0.7,1.7-1.6c0-0.9-0.7-1.7-1.6-1.7c0,0,0,0-0.1,0C583.9,82.8,583.1,83.5,583.1,84.5
		C583.1,84.4,583.1,84.5,583.1,84.5L583.1,84.5z"/>
	<path class="st6" d="M602.1,95.6h0.4c0.2,0,0.5,0,0.5,0.3s-0.2,0.3-0.5,0.3h-0.4V95.6z M601.6,97.6h0.5v-1h0.3l0.6,1h0.5l-0.7-1.1
		c0.3,0,0.6-0.2,0.6-0.6c0,0,0,0,0-0.1c0-0.5-0.3-0.7-1-0.7h-0.9L601.6,97.6z M600.8,96.4c0-0.9,0.8-1.6,1.7-1.6
		c0.9,0,1.6,0.8,1.6,1.7c0,0.9-0.8,1.6-1.7,1.6C601.5,98.1,600.8,97.4,600.8,96.4C600.8,96.5,600.8,96.4,600.8,96.4z M600.2,96.4
		c0,1.2,0.9,2.3,2.2,2.3s2.3-0.9,2.3-2.2c0-1.2-0.9-2.3-2.2-2.3c0,0,0,0-0.1,0C601.2,94.2,600.2,95.1,600.2,96.4
		C600.2,96.4,600.2,96.4,600.2,96.4z"/>
	<path class="st0" d="M325.4,98.2h-17.2L302,63.4h-0.2l-6,34.8h-17.4l-15.6-57.1h17.4l7,35.3h0.2l6.9-35.3H310l6.8,35.8h0.2
		l7.2-35.8h17.5L325.4,98.2z"/>
	<path class="st0" d="M377.5,88.9c0,3.1,0.2,6.6,1.9,9.3h-16.3c-0.4-1.3-0.6-2.6-0.6-3.9h-0.2c-3.4,3.8-8.3,5-13.5,5
		c-8.1,0-14.8-3.8-14.8-12.6c0-13.1,15.5-12.6,23.6-14.2c2.2-0.4,4.4-1,4.4-3.7c0-2.9-2.7-3.9-5.2-3.9c-4.9,0-5.9,2.5-6,4.2h-14.8
		c0.2-5.8,3.1-9.3,7.3-11.2s9.4-2.4,14.3-2.4c20,0,19.8,8.2,19.8,16.2V88.9z M362.2,79.6c-2,0.9-4.1,1.6-6.3,2
		c-3.5,0.8-5.4,1.7-5.4,4.5c0,1.9,2.1,3.8,5,3.8c3.6,0,6.5-2.2,6.7-6.5V79.6z"/>
	<path class="st0" d="M380.7,41.1h16v57.1h-16V41.1z"/>
	<path class="st0" d="M400.4,41.1h16v57.1h-16V41.1z"/>
	<path class="st0" d="M433.3,81c0.4,4.7,3.1,8.1,8.1,8.1c2.6,0,5.4-1,6.7-3h14.9c-3.2,9-12,13.1-21.5,13.1
		c-13.4,0-23.5-7.8-23.5-21.7c0-12.1,8.9-21.9,22.1-21.9c16.6,0,23.8,9.2,23.8,25.4L433.3,81z M448.6,72.8c0.1-3.8-2.9-6.9-6.7-7
		c-0.1,0-0.2,0-0.3,0c-4.8,0-7.5,2.5-8.2,7H448.6z"/>
	<path class="st0" d="M484.2,56.7h8.5v9.8h-8.5v14.5c0,3.8,0.9,5.5,4.9,5.5c1.2,0,2.4-0.1,3.6-0.2v12c-3.2,0-6.9,0.5-10.2,0.5
		c-6.8,0-14.3-1-14.3-12.4V66.4h-7.1v-9.8h7.1V44h16L484.2,56.7z"/>
	<g>
		<defs>
			<rect id="SVGID_1_" x="21.4" y="40.1" width="224.3" height="59.9"/>
		</defs>
		<clipPath id="SVGID_2_">
			<use xlink:href="#SVGID_1_"  style="overflow:visible;"/>
		</clipPath>
		<g style="clip-path:url(#SVGID_2_);">
			
				<use xlink:href="#Blue"  width="203.9" height="54.5" x="-102" y="-27.2" transform="matrix(1.1 0 0 1.1 133.5569 70.059)" style="overflow:visible;"/>
		</g>
	</g>
</g>
</svg>
