<?xml version="1.0" encoding="utf-8"?>
<!-- Generator: Adobe Illustrator 25.2.1, SVG Export Plug-In . SVG Version: 6.00 Build 0)  -->
<svg version="1.1" id="Capa_1" xmlns="http://www.w3.org/2000/svg" xmlns:xlink="http://www.w3.org/1999/xlink" x="0px" y="0px"
	 viewBox="0 0 236.41 233.12" style="enable-background:new 0 0 236.41 233.12;" xml:space="preserve">
<style type="text/css">
	.st0{fill:#192D42;}
	.st1{fill:#84318A;}
	.st2{fill:#D52F89;}
	.st3{fill:#DD6B37;}
	.st4{fill:#8EB6DF;}
	.st5{fill:#0F213E;}
	.st6{fill:#FFFFFF;}
	.st7{fill-rule:evenodd;clip-rule:evenodd;fill:#0F213E;}
</style>
<g id="XMLID_1_">
	<path id="XMLID_17_" class="st0" d="M228.32,183.23c0,23.89-19.37,42.93-43.58,42.93H50.45c-23.89,0-43.58-19.05-43.58-42.93V50.55
		c0-23.89,19.37-42.93,43.58-42.93h134.29c23.89,0,43.58,19.05,43.58,42.93V183.23z"/>
</g>
<g>
	<path class="st1" d="M50.51,21.18h134.27c3.15,0,5.69,2.55,5.69,5.69v66.91c0,3.15-2.55,5.69-5.69,5.69H50.51
		c-3.15,0-5.69-2.55-5.69-5.69V26.87C44.82,23.73,47.37,21.18,50.51,21.18z"/>
	<path class="st2" d="M50.51,34.45h134.27c3.15,0,5.69,2.55,5.69,5.69v66.91c0,3.15-2.55,5.69-5.69,5.69H50.51
		c-3.15,0-5.69-2.55-5.69-5.69V40.15C44.82,37,47.37,34.45,50.51,34.45z"/>
	<path class="st3" d="M50.51,47.88h134.27c3.15,0,5.69,2.55,5.69,5.69v66.91c0,3.15-2.55,5.69-5.69,5.69H50.51
		c-3.15,0-5.69-2.55-5.69-5.69V53.57C44.82,50.43,47.37,47.88,50.51,47.88z"/>
	<path class="st4" d="M117.59,77.96c-10.32,0.01-19.43-6.74-22.42-16.62H54.33c-6.04-0.01-10.94,4.87-10.96,10.91v130.42
		c0,6.04,4.9,10.93,10.94,10.93h126.56c6.04,0,10.93-4.89,10.93-10.93l0,0l0,0V72.16c-0.01-6.03-4.9-10.92-10.93-10.92h-40.86
		C137.06,71.16,127.94,77.95,117.59,77.96z"/>
	<path class="st5" d="M117.59,93.47c-28.2,0-51.06,22.86-51.06,51.06s22.86,51.06,51.06,51.06s51.06-22.86,51.06-51.06l0,0l0,0
		c-0.01-28.19-22.87-51.04-51.06-51.04 M117.59,191.57c-25.99,0-47.06-21.06-47.07-47.05s21.06-47.06,47.05-47.07
		c25.99,0,47.06,21.06,47.07,47.05c0,0,0,0,0,0.01l0,0C164.65,170.5,143.58,191.57,117.59,191.57"/>
	<path class="st4" d="M117.59,97.48c-25.99,0-47.06,21.06-47.07,47.05s21.06,47.06,47.05,47.07c25.99,0,47.06-21.06,47.07-47.05
		c0,0,0-0.01,0-0.01l0,0c-0.01-25.98-21.08-47.03-47.05-47.03 M117.59,189.05c-24.59,0-44.52-19.92-44.52-44.51
		s19.92-44.52,44.51-44.52s44.52,19.92,44.52,44.51c0,0,0,0,0,0.01l0,0c0.01,24.57-19.89,44.5-44.46,44.52c0,0,0,0,0,0H117.59"/>
	<path class="st5" d="M117.59,100c-24.59,0-44.52,19.92-44.52,44.51c0,24.59,19.92,44.52,44.51,44.52
		c24.58,0,44.51-19.92,44.52-44.5c0.01-24.58-19.9-44.52-44.48-44.54C117.61,100,117.6,100,117.59,100"/>
	<path class="st6" d="M110.47,158.24h9.32c3.7,0,6.3-1.31,6.3-5.04s-2.77-5.26-6.3-5.26h-9.32V158.24z M110.47,140.43h9.02
		c2.39,0.22,4.51-1.54,4.73-3.94c0.01-0.11,0.01-0.23,0-0.34c0-3.25-2.32-4.34-4.73-4.34h-9.02V140.43z M98.78,122.79h20.97
		c7.71,0,16.23,1.89,16.23,11.23c-0.06,3.93-2.39,7.46-5.99,9.06c4.71,1.33,7.91,5.71,7.74,10.61c0,10.66-7.84,13.93-17.44,13.93
		H98.78V122.79z"/>
	<path class="st7" d="M163.36,180.28h0.68c0.38,0,0.83,0,0.83,0.51s-0.33,0.57-0.8,0.57h-0.68L163.36,180.28z M162.56,183.76h0.8
		v-1.74h0.51l0.95,1.74h0.83l-1.08-1.76c0.57,0.03,1.05-0.41,1.08-0.98c0.01-0.04,0.01-0.07,0-0.11c0-0.88-0.57-1.2-1.58-1.2h-1.54
		L162.56,183.76z M161.27,181.73c0.04-1.47,1.27-2.62,2.74-2.58c1.47,0.04,2.62,1.27,2.58,2.74s-1.27,2.62-2.74,2.58
		c-1.4-0.04-2.53-1.17-2.58-2.58c0-0.07,0-0.14,0-0.21V181.73z M160.29,181.73c-0.07,2.06,1.54,3.78,3.6,3.85
		c2.06,0.07,3.78-1.54,3.85-3.6c0.07-2.06-1.54-3.78-3.59-3.85h-0.13c-2-0.06-3.67,1.52-3.73,3.52c0,0,0,0,0,0V181.73z"/>
	<path class="st7" d="M225.22,218.25h0.91c0.51,0,1.13,0,1.13,0.68c0,0.68-0.47,0.76-1.09,0.76h-0.95V218.25z M224.13,222.85h1.09
		v-2.21h0.68l1.35,2.21h1.13l-1.44-2.39c0.74,0.04,1.38-0.53,1.42-1.28v-0.16c0-1.17-0.75-1.64-2.21-1.64h-2.03L224.13,222.85z
		 M222.41,220.15c0.06-1.99,1.71-3.56,3.71-3.5c1.99,0.06,3.56,1.71,3.5,3.7c-0.06,1.99-1.71,3.56-3.71,3.5
		c-1.91-0.05-3.45-1.59-3.5-3.5c-0.01-0.08,0-0.15,0-0.22L222.41,220.15z M221.05,220.15c-0.08,2.76,2.08,5.06,4.84,5.15
		c2.76,0.08,5.06-2.08,5.15-4.84c0.08-2.76-2.08-5.06-4.84-5.15h-0.16c-2.67-0.08-4.91,2.02-5,4.69V220.15z"/>
</g>
</svg>
