<svg id="Capa_1" data-name="Capa 1" xmlns="http://www.w3.org/2000/svg" xmlns:xlink="http://www.w3.org/1999/xlink" viewBox="0 0 500 500"><defs><symbol id="Blue" data-name="Blue" viewBox="0 0 203.91 54.48"><path d="M0,1.18H30.36Q38,1.18,42,4.94a12.17,12.17,0,0,1,4.06,9.29,11.79,11.79,0,0,1-2.89,8,12.76,12.76,0,0,1-5.65,3.5q5.64,1.37,8.29,4.66a12.83,12.83,0,0,1,2.66,8.3A14.28,14.28,0,0,1,46.59,46a14,14,0,0,1-5.2,5.14,17.23,17.23,0,0,1-6.14,1.7,70.72,70.72,0,0,1-7.27.72H0ZM16.32,21.77h7.09q3.82,0,5.32-1.3a4.75,4.75,0,0,0,1.5-3.78,4.43,4.43,0,0,0-1.5-3.57q-1.5-1.29-5.21-1.29h-7.2Zm0,20.51h8.29c2.79,0,4.77-.49,5.91-1.48a4.94,4.94,0,0,0,1.73-4,4.59,4.59,0,0,0-1.7-3.72c-1.15-.93-3.13-1.41-6-1.41H16.32Z" style="fill:#0a1e3f"/><path d="M49.6,1.18H65.76V40.65H91v12.9H49.6Z" style="fill:#95b6e5"/><path d="M125.07,1.18h16.16V32.4a26.16,26.16,0,0,1-1.45,8.77,18.61,18.61,0,0,1-4.54,7.21,17.91,17.91,0,0,1-6.49,4.35,32.64,32.64,0,0,1-11.34,1.75,70.91,70.91,0,0,1-8.36-.54,22,22,0,0,1-7.57-2.12,19.06,19.06,0,0,1-5.56-4.52,16.56,16.56,0,0,1-3.46-6A31.57,31.57,0,0,1,91,32.4V1.18h16.15v32a9.12,9.12,0,0,0,2.39,6.7,10.28,10.28,0,0,0,13.18,0,9.1,9.1,0,0,0,2.38-6.74Z" style="fill:#95b6e5"/><path d="M161.4,31.15c.5,5.79,3.86,9.92,10,9.92,3.17,0,6.63-1.18,8.22-3.63h18.31c-4,11-14.75,16.11-26.43,16.11-16.44,0-28.81-9.63-28.81-26.63C142.69,12.09,153.58,0,169.82,0,190.21,0,199,11.3,199,31.15ZM180.21,21a8.4,8.4,0,0,0-8.61-8.55c-5.84,0-9.21,3-10.1,8.55Z" style="fill:#95b6e5"/><path d="M203.91,6a4.45,4.45,0,1,1-4.41-4.33A4.36,4.36,0,0,1,203.91,6Zm-7.78,0a3.36,3.36,0,0,0,3.37,3.45A3.31,3.31,0,0,0,202.8,6a3.34,3.34,0,1,0-6.67,0Zm2.66,2.24h-1V3.87a12.12,12.12,0,0,1,1.66-.13,2.32,2.32,0,0,1,1.48.34,1.12,1.12,0,0,1,.45.93,1.11,1.11,0,0,1-.9,1v.06c.42.13.63.47.76,1a4.18,4.18,0,0,0,.32,1.06h-1.05a3.41,3.41,0,0,1-.35-1.06c-.08-.44-.34-.66-.89-.66h-.48Zm0-2.43h.47c.55,0,1-.19,1-.63s-.29-.66-.92-.66a2.2,2.2,0,0,0-.55,0Z" style="fill:#0a1e3f"/></symbol></defs><path d="M274.1,44.36h20.38c9.79,0,11.88,5.48,11.88,9.26s-1.83,5.74-4.59,7.24c3.34,1.14,6.46,3.78,6.46,9.21,0,7.4-6.46,11.22-13,11.22H274.1Zm11.47,14.38h6c2.4,0,3.91-.67,3.91-3.05,0-1.86-1.56-2.54-3.91-2.54h-6Zm0,13.76h6.72c2.4,0,4.48-.67,4.48-3.52,0-2.17-1.3-3.36-4-3.36h-7.19Z" style="fill:#0a1e3f"/><path d="M309.7,60.45c-.58-9.88,5.62-15.57,15.37-15.57,8.81,0,14.8,3.67,14.8,11.33,0,9.2-9.07,12.1-15.9,16.24v0h16.42v8.79H309a13.46,13.46,0,0,1,2.6-8.89c3-4.19,8.24-6.94,12.87-9.73,1.88-1.14,4.9-2.58,4.9-5.22,0-3.26-1.93-4.4-4.38-4.4-4.17,0-5.57,3-5.47,7.4Z" style="fill:#0a1e3f"/><path d="M365.77,58.12c-.21-1.35-1.25-5.43-6-5.43-5.37,0-7.09,5.17-7.09,10.14S354.41,73,359.78,73c3.85,0,5.36-2.69,6-6.16h11.26c0,7.45-6.1,15.36-17,15.36-12,0-18.86-8.43-18.86-19.34,0-11.64,7.39-19.35,18.86-19.35,10.21.05,15.84,5.38,16.83,14.64Z" style="fill:#0a1e3f"/><use width="203.91" height="54.48" transform="translate(122.92 44) scale(0.69)" xlink:href="#Blue"/><path d="M240.7,438.28a374,374,0,0,1-68.63-42.79c-20.36-16.13-36.74-33.08-48.62-50.44-15.88-23.17-23.93-47.14-23.93-71.25,0-46.59,39.9-84.49,89-84.49A90.59,90.59,0,0,1,250,212.81a90.66,90.66,0,0,1,61.54-23.47c49,0,88.91,37.91,88.91,84.49,0,23.34-8.07,46.84-24,69.85-11.85,17.12-28.13,34.08-48.4,50.4a399,399,0,0,1-68.3,44l-9.51,4.6Z" style="fill:#8ab7e9"/><path d="M245.36,428.1A360.31,360.31,0,0,1,179,386.7c-19.48-15.41-35.06-31.55-46.33-48-14.58-21.27-22-43.11-22-64.92,0-40.42,34.89-73.3,77.77-73.3C213,200.5,235.54,211.28,250,229c14.47-17.76,37-28.54,61.54-28.54,42.86,0,77.72,32.89,77.72,73.3,0,21-7.4,42.39-22,63.49-11.24,16.22-26.79,32.4-46.21,48A384,384,0,0,1,254.92,428l-4.77,2.28Z" style="fill:#011e41"/><path d="M311.57,211.69c-27.8,0-51.58,15.94-61.54,38.56-10-22.62-33.75-38.56-61.55-38.56-36.74,0-66.58,27.81-66.58,62.1C121.9,359.32,250,417.92,250,417.92s128.06-62.1,128.06-144.13C378.08,239.48,348.25,211.69,311.57,211.69Z" style="fill:#8ab7e9"/></svg>