<svg id="Capa_1" data-name="Capa 1" xmlns="http://www.w3.org/2000/svg" xmlns:xlink="http://www.w3.org/1999/xlink" viewBox="0 0 500 500"><defs><symbol id="Blue" data-name="Blue" viewBox="0 0 203.91 54.48"><path d="M0,1.18H30.36Q38,1.18,42,4.94a12.17,12.17,0,0,1,4.06,9.29,11.79,11.79,0,0,1-2.89,8,12.76,12.76,0,0,1-5.65,3.5q5.64,1.37,8.29,4.66a12.83,12.83,0,0,1,2.66,8.3A14.28,14.28,0,0,1,46.59,46a14,14,0,0,1-5.2,5.14,17.23,17.23,0,0,1-6.14,1.7,70.72,70.72,0,0,1-7.27.72H0ZM16.32,21.77h7.09q3.82,0,5.32-1.3a4.75,4.75,0,0,0,1.5-3.78,4.43,4.43,0,0,0-1.5-3.57q-1.5-1.29-5.21-1.29h-7.2Zm0,20.51h8.29c2.79,0,4.77-.49,5.91-1.48a4.94,4.94,0,0,0,1.73-4,4.59,4.59,0,0,0-1.7-3.72c-1.15-.93-3.13-1.41-6-1.41H16.32Z" style="fill:#0a1e3f"/><path d="M49.6,1.18H65.76V40.65H91v12.9H49.6Z" style="fill:#95b6e5"/><path d="M125.07,1.18h16.16V32.4a26.16,26.16,0,0,1-1.45,8.77,18.61,18.61,0,0,1-4.54,7.21,17.91,17.91,0,0,1-6.49,4.35,32.64,32.64,0,0,1-11.34,1.75,70.91,70.91,0,0,1-8.36-.54,22,22,0,0,1-7.57-2.12,19.06,19.06,0,0,1-5.56-4.52,16.56,16.56,0,0,1-3.46-6A31.57,31.57,0,0,1,91,32.4V1.18h16.15v32a9.12,9.12,0,0,0,2.39,6.7,10.28,10.28,0,0,0,13.18,0,9.1,9.1,0,0,0,2.38-6.74Z" style="fill:#95b6e5"/><path d="M161.4,31.15c.5,5.79,3.86,9.92,10,9.92,3.17,0,6.63-1.18,8.22-3.63h18.31c-4,11-14.75,16.11-26.43,16.11-16.44,0-28.81-9.63-28.81-26.63C142.69,12.09,153.58,0,169.82,0,190.21,0,199,11.3,199,31.15ZM180.21,21a8.4,8.4,0,0,0-8.61-8.55c-5.84,0-9.21,3-10.1,8.55Z" style="fill:#95b6e5"/><path d="M203.91,6a4.45,4.45,0,1,1-4.41-4.33A4.36,4.36,0,0,1,203.91,6Zm-7.78,0a3.36,3.36,0,0,0,3.37,3.45A3.31,3.31,0,0,0,202.8,6a3.34,3.34,0,1,0-6.67,0Zm2.66,2.24h-1V3.87a12.12,12.12,0,0,1,1.66-.13,2.32,2.32,0,0,1,1.48.34,1.12,1.12,0,0,1,.45.93,1.11,1.11,0,0,1-.9,1v.06c.42.13.63.47.76,1a4.18,4.18,0,0,0,.32,1.06h-1.05a3.41,3.41,0,0,1-.35-1.06c-.08-.44-.34-.66-.89-.66h-.48Zm0-2.43h.47c.55,0,1-.19,1-.63s-.29-.66-.92-.66a2.2,2.2,0,0,0-.55,0Z" style="fill:#0a1e3f"/></symbol></defs><path d="M370.38,302.76l-39.94,40.57-52.38-53.14a11.29,11.29,0,0,0-16.12,0l-12.16,12.34-12,12.14a28.12,28.12,0,0,1-40.27,0l32.13-32.59,20.22-20.46v-.06h40.28l19.76-20.05Z" style="fill:#f17533"/><path d="M249.72,384a16.58,16.58,0,0,1-1.6,1.88l-7.29,7.46a4.24,4.24,0,0,0-.51.46c-.17.17-.4.34-.57.51l-10.08,10.26-2,2a2.4,2.4,0,0,0-.45.63.62.62,0,0,0-.23.17,14.16,14.16,0,0,1-19.43-.74,14.6,14.6,0,0,1,0-20.46l2-2L228,365.51l.52-.52c.45-.34.91-.74,1.36-1.08a14.1,14.1,0,0,1,8.21-2.68,13.84,13.84,0,0,1,10,4.28,10.4,10.4,0,0,1,.8.85c.23.28.46.68.69,1A14.4,14.4,0,0,1,249.72,384Z" style="fill:#f17533"/><path d="M259.86,414.73,249.78,425l-2,2a14,14,0,0,1-20.11,0,14.41,14.41,0,0,1-.68-19.59.62.62,0,0,1,.23-.17l2.5-2.57,10.6-10.82a4.24,4.24,0,0,1,.51-.46,14.08,14.08,0,0,1,19,1A14.52,14.52,0,0,1,259.86,414.73Z" style="fill:#f17533"/><path d="M228.76,364.71c-.06.11-.18.17-.23.28l-.52.52-18.45,18.68-2,2a14,14,0,0,1-20.16,0,14.6,14.6,0,0,1,0-20.39l2-1.94.06-.05,10.08-10.31,8.32-8.44a14.1,14.1,0,0,1,10.08-4.27,13.88,13.88,0,0,1,9.57,3.82,3.43,3.43,0,0,1,.51.45,8.31,8.31,0,0,1,1,1.09A14.75,14.75,0,0,1,228.76,364.71Z" style="fill:#f17533"/><path d="M199.53,353.49,189.45,363.8l-.06.05-2,1.94a14.07,14.07,0,0,1-20.11,0,14.56,14.56,0,0,1,0-20.45l2-2,10.08-10.26a14,14,0,0,1,10.09-4.21,13.43,13.43,0,0,1,3.36.39,12.36,12.36,0,0,1,3.13,1.14,16.39,16.39,0,0,1,3.59,2.68A14.62,14.62,0,0,1,199.53,353.49Z" style="fill:#f17533"/><path d="M332.44,365.79a14.07,14.07,0,0,1-20.11,0c4.78,5.36,5.52,13.67,1,19.37a14.13,14.13,0,0,1-21.14,1,14.6,14.6,0,0,1,0,20.46,14.14,14.14,0,0,1-20.17,0A14.49,14.49,0,0,1,272,427a14,14,0,0,1-20.11,0l-2-2-.05-.06,10.08-10.25a14.52,14.52,0,0,0,0-20.4,14.08,14.08,0,0,0-19-1l7.29-7.46a16.58,16.58,0,0,0,1.6-1.88,14.4,14.4,0,0,0-.11-16.63c-.23-.35-.46-.75-.69-1a10.4,10.4,0,0,0-.8-.85,13.84,13.84,0,0,0-10-4.28,14.1,14.1,0,0,0-8.21,2.68l-.17-.17-1,1a14.75,14.75,0,0,0,.22-18.57,8.31,8.31,0,0,0-1-1.09,3.43,3.43,0,0,0-.51-.45,13.88,13.88,0,0,0-9.57-3.82,14.1,14.1,0,0,0-10.08,4.27l-8.32,8.44a14.62,14.62,0,0,0,0-20.4,16.39,16.39,0,0,0-3.59-2.68,12.36,12.36,0,0,0-3.13-1.14,13.43,13.43,0,0,0-3.36-.39,14,14,0,0,0-10.09,4.21l-10.08,10.26-.06,0-40-40.56,60.39-61.35,19.77,20.05h40.44l-20.16,20.51h-.06l-32.07,32.64a28.19,28.19,0,0,0,40.27,0l12-12.13L262,290.19a11.24,11.24,0,0,1,16.06,0l12.14,12.31,42.27,42.84A14.58,14.58,0,0,1,332.44,365.79Z" style="fill:#95b6e5"/><rect x="292.46" y="234.8" width="128.95" height="46" rx="12" transform="translate(283.36 -176.3) rotate(44.54)" style="fill:#d62f8a"/><rect x="78.13" y="234.8" width="128.95" height="46" rx="12" transform="translate(-141.17 178.61) rotate(-45.46)" style="fill:#d62f8a"/><path d="M274.42,44.36h20.37c9.8,0,11.88,5.48,11.88,9.26s-1.82,5.74-4.59,7.24c3.34,1.14,6.47,3.78,6.47,9.21,0,7.4-6.47,11.22-13,11.22h-21.1Zm11.46,14.38h6c2.4,0,3.91-.67,3.91-3.05,0-1.86-1.56-2.54-3.91-2.54h-6Zm0,13.76h6.72c2.4,0,4.48-.67,4.48-3.52,0-2.17-1.3-3.36-4-3.36h-7.19Z" style="fill:#0a1e3f"/><path d="M310,60.45c-.57-9.88,5.63-15.57,15.37-15.57,8.81,0,14.8,3.67,14.8,11.33,0,9.2-9.07,12.1-15.89,16.24v0H340.7v8.79H309.28a13.46,13.46,0,0,1,2.6-8.89c3-4.19,8.24-6.94,12.88-9.73,1.87-1.14,4.89-2.58,4.89-5.22,0-3.26-1.92-4.4-4.37-4.4-4.17,0-5.58,3-5.47,7.4Z" style="fill:#0a1e3f"/><path d="M342.63,44.36H363c9.79,0,11.88,5.48,11.88,9.26s-1.83,5.74-4.59,7.24c3.34,1.14,6.46,3.78,6.46,9.21,0,7.4-6.46,11.22-13,11.22H342.63ZM354.1,58.74h6c2.4,0,3.91-.67,3.91-3.05,0-1.86-1.56-2.54-3.91-2.54h-6Zm0,13.76h6.72c2.4,0,4.48-.67,4.48-3.52,0-2.17-1.3-3.36-4-3.36H354.1Z" style="fill:#0a1e3f"/><use width="203.91" height="54.48" transform="translate(123.23 44) scale(0.69)" xlink:href="#Blue"/></svg>