<svg id="Capa_1" data-name="Capa 1" xmlns="http://www.w3.org/2000/svg" xmlns:xlink="http://www.w3.org/1999/xlink" viewBox="0 0 330 269"><defs><style>.cls-1{fill:#0a1e3f;}.cls-2{fill:#8bb8e8;}.cls-3{fill:#f17533;}.cls-4{fill:#7d2796;}.cls-5{fill:#d62f8a;}</style><symbol id="Blue" data-name="Blue" viewBox="0 0 203.91 54.48"><path class="cls-1" d="M0,1.18H30.36Q38,1.18,42,4.94a12.17,12.17,0,0,1,4.06,9.29,11.79,11.79,0,0,1-2.89,8,12.76,12.76,0,0,1-5.65,3.5q5.64,1.37,8.29,4.66a12.83,12.83,0,0,1,2.66,8.3A14.28,14.28,0,0,1,46.59,46a14,14,0,0,1-5.2,5.14,17.23,17.23,0,0,1-6.14,1.7,70.72,70.72,0,0,1-7.27.72H0ZM16.32,21.77h7.09q3.82,0,5.32-1.3a4.75,4.75,0,0,0,1.5-3.78,4.43,4.43,0,0,0-1.5-3.57q-1.5-1.29-5.21-1.29h-7.2Zm0,20.51h8.29c2.79,0,4.77-.49,5.91-1.48a4.94,4.94,0,0,0,1.73-4,4.59,4.59,0,0,0-1.7-3.72c-1.15-.93-3.13-1.41-6-1.41H16.32Z"/><path class="cls-2" d="M49.6,1.18H65.76V40.65H91v12.9H49.6Z"/><path class="cls-2" d="M125.07,1.18h16.16V32.4a26.16,26.16,0,0,1-1.45,8.77,18.61,18.61,0,0,1-4.54,7.21,17.91,17.91,0,0,1-6.49,4.35,32.64,32.64,0,0,1-11.34,1.75,70.91,70.91,0,0,1-8.36-.54,22,22,0,0,1-7.57-2.12,19.06,19.06,0,0,1-5.56-4.52,16.56,16.56,0,0,1-3.46-6A31.57,31.57,0,0,1,91,32.4V1.18h16.15v32a9.12,9.12,0,0,0,2.39,6.7,10.28,10.28,0,0,0,13.18,0,9.1,9.1,0,0,0,2.38-6.74Z"/><path class="cls-2" d="M161.4,31.15c.5,5.79,3.86,9.92,10,9.92,3.17,0,6.63-1.18,8.22-3.63h18.31c-4,11-14.75,16.11-26.43,16.11-16.44,0-28.81-9.63-28.81-26.63C142.69,12.09,153.58,0,169.82,0,190.21,0,199,11.3,199,31.15ZM180.21,21a8.4,8.4,0,0,0-8.61-8.55c-5.84,0-9.21,3-10.1,8.55Z"/><path class="cls-1" d="M203.91,6a4.45,4.45,0,1,1-4.41-4.33A4.36,4.36,0,0,1,203.91,6Zm-7.78,0a3.36,3.36,0,0,0,3.37,3.45A3.31,3.31,0,0,0,202.8,6a3.34,3.34,0,1,0-6.67,0Zm2.66,2.24h-1V3.87a12.12,12.12,0,0,1,1.66-.13,2.32,2.32,0,0,1,1.48.34,1.12,1.12,0,0,1,.45.93,1.11,1.11,0,0,1-.9,1v.06c.42.13.63.47.76,1a4.18,4.18,0,0,0,.32,1.06h-1.05a3.41,3.41,0,0,1-.35-1.06c-.08-.44-.34-.66-.89-.66h-.48Zm0-2.43h.47c.55,0,1-.19,1-.63s-.29-.66-.92-.66a2.2,2.2,0,0,0-.55,0Z"/></symbol></defs><path class="cls-1" d="M171,214.23a8.38,8.38,0,0,1-6.78,3c-7.06,0-11.4-5.44-11.4-12.17,0-9,6.38-12.64,11.76-12.64,6.09,0,9.93,3.28,11,8.85h-7.05a3.49,3.49,0,0,0-3.48-2.95c-5.05,0-4.88,5.28-4.88,6.9,0,2.22.9,6.1,5.38,6.1a3.65,3.65,0,0,0,3.82-2.62h-3.25v-5.07h9.76v13h-4.64Z"/><path class="cls-1" d="M194.62,212.81a7,7,0,0,0,.8,3.85h-6.75a4.64,4.64,0,0,1-.24-1.63h-.06a7.11,7.11,0,0,1-5.59,2.06c-3.34,0-6.12-1.6-6.12-5.21,0-5.44,6.42-5.24,9.8-5.87.9-.17,1.81-.43,1.81-1.53s-1.11-1.59-2.18-1.59c-2,0-2.44,1-2.47,1.76h-6.15a5,5,0,0,1,3-4.65,14.39,14.39,0,0,1,5.91-1c8.3,0,8.23,3.41,8.23,6.73Zm-6.35-3.88a12,12,0,0,1-2.61.83c-1.47.33-2.24.69-2.24,1.85a1.9,1.9,0,0,0,2.07,1.6,2.62,2.62,0,0,0,2.78-2.69Z"/><path class="cls-1" d="M196.42,199.44h6.38v2.29h.07a6.29,6.29,0,0,1,5.68-2.72,5.16,5.16,0,0,1,4.68,2.68,6.81,6.81,0,0,1,5.92-2.68c4.45,0,5.95,3.05,5.95,5.84v11.81h-6.62v-9.33c0-1.62-.16-3.08-2.17-3.08-1.67,0-2.24,1.29-2.24,3.08v9.33h-6.62v-9.33c0-1.62-.17-3.08-2.17-3.08-1.67,0-2.24,1.29-2.24,3.08v9.33h-6.62Z"/><path class="cls-1" d="M233.72,197.58H227.1V193h6.62Zm-6.62,1.86h6.62v17.22H227.1Z"/><path class="cls-1" d="M235.83,199.44h6.38v2.19h.07a6.37,6.37,0,0,1,5.65-2.62c3.11,0,5.95,1.89,5.95,5.84v11.81h-6.62v-9c0-2-.24-3.38-2.17-3.38-1.14,0-2.65.56-2.65,3.32v9.09h-6.61Z"/><path class="cls-1" d="M273.5,214.43c0,3.42-.9,8.23-9,8.23-4.11,0-8.46-1.09-9.06-5.74H262a4.68,4.68,0,0,0,.37.6,2.56,2.56,0,0,0,1.94,1.26c2.14,0,2.61-2.52,2.61-3.95v-1.59h-.07a5.46,5.46,0,0,1-4.65,2.39c-5.11,0-7.42-3.78-7.42-8.4,0-4.47,2.58-8.22,7.53-8.22a4.67,4.67,0,0,1,4.54,2.52h.07v-2.09h6.62Zm-9.16-3c2.44,0,2.71-2.32,2.71-4.24s-.94-3.39-2.88-3.39-2.81,1.6-2.81,3.42S262,211.41,264.34,211.41Z"/><use width="203.91" height="54.48" transform="translate(56.5 192.74) scale(0.44)" xlink:href="#Blue"/><path class="cls-3" d="M226.79,89.33c-1.37-3.65-15.27-39.22-33.3-39.69-4.37-.11-10.22,4-14.44,5-5.78,1.41-11.36,3-24.6.17-8.34-2.34-14-6.48-19.4-5.32a21.83,21.83,0,0,0-8.4,3C88.31,75.57,96,135.28,96,135.64a22.43,22.43,0,0,0,2.66,7c1.67,2.78,3.84,4.83,7.2,5.29a19.82,19.82,0,0,0,8.27-.54,28.4,28.4,0,0,0,9.76-4.94c4.5-3.36,8.32-7.48,12.51-11.19A52,52,0,0,1,146.59,124,40.14,40.14,0,0,1,169,119.68a38.93,38.93,0,0,1,14.36,4.41,86.77,86.77,0,0,1,14.4,9.64c4,3.15,8,6.31,12.25,9.23,7.51,5.21,12.67,4.76,13.26,4.79a8.21,8.21,0,0,0,6.55-2.36,14.55,14.55,0,0,0,4-7.74C237.16,113.12,228.55,94,226.79,89.33Z"/><path class="cls-4" d="M207.34,105.1a5.65,5.65,0,1,1,8-.19A5.7,5.7,0,0,1,207.34,105.1Z"/><path class="cls-4" d="M197.52,104.43a5.78,5.78,0,0,1,.17,8,5.7,5.7,0,0,1-8.28-7.84A5.8,5.8,0,0,1,197.52,104.43Z"/><path class="cls-4" d="M203.46,119a5.62,5.62,0,0,1-.33-8,5.67,5.67,0,0,1,8.29,7.75A5.59,5.59,0,0,1,203.46,119Z"/><path class="cls-5" d="M143.66,92.7a5.65,5.65,0,1,1,5.78,5.52A5.64,5.64,0,0,1,143.66,92.7Z"/><path class="cls-5" d="M120.65,92.45a5.77,5.77,0,0,1-5.55,5.79,5.7,5.7,0,0,1-.31-11.39A5.78,5.78,0,0,1,120.65,92.45Z"/><path class="cls-5" d="M132.49,81.13A5.65,5.65,0,1,1,138,75.34,5.64,5.64,0,0,1,132.49,81.13Z"/><path class="cls-5" d="M132.24,104.13a5.77,5.77,0,0,1,5.79,5.55,5.7,5.7,0,0,1-11.39.32A5.79,5.79,0,0,1,132.24,104.13Z"/><path class="cls-4" d="M132.36,102.05a9.41,9.41,0,1,1,9.43-9.49A9.44,9.44,0,0,1,132.36,102.05Z"/></svg>