<svg id="Capa_1" data-name="Capa 1" xmlns="http://www.w3.org/2000/svg" xmlns:xlink="http://www.w3.org/1999/xlink" viewBox="0 0 330 269"><defs><style>.cls-1{fill:#0a1e3f;}.cls-2{fill:#8bb8e8;}.cls-3{fill:#7d2796;}</style><symbol id="Blue" data-name="Blue" viewBox="0 0 203.91 54.48"><path class="cls-1" d="M0,1.18H30.36Q38,1.18,42,4.94a12.17,12.17,0,0,1,4.06,9.29,11.79,11.79,0,0,1-2.89,8,12.76,12.76,0,0,1-5.65,3.5q5.64,1.37,8.29,4.66a12.83,12.83,0,0,1,2.66,8.3A14.28,14.28,0,0,1,46.59,46a14,14,0,0,1-5.2,5.14,17.23,17.23,0,0,1-6.14,1.7,70.72,70.72,0,0,1-7.27.72H0ZM16.32,21.77h7.09q3.82,0,5.32-1.3a4.75,4.75,0,0,0,1.5-3.78,4.43,4.43,0,0,0-1.5-3.57q-1.5-1.29-5.21-1.29h-7.2Zm0,20.51h8.29c2.79,0,4.77-.49,5.91-1.48a4.94,4.94,0,0,0,1.73-4,4.59,4.59,0,0,0-1.7-3.72c-1.15-.93-3.13-1.41-6-1.41H16.32Z"/><path class="cls-2" d="M49.6,1.18H65.76V40.65H91v12.9H49.6Z"/><path class="cls-2" d="M125.07,1.18h16.16V32.4a26.16,26.16,0,0,1-1.45,8.77,18.61,18.61,0,0,1-4.54,7.21,17.91,17.91,0,0,1-6.49,4.35,32.64,32.64,0,0,1-11.34,1.75,70.91,70.91,0,0,1-8.36-.54,22,22,0,0,1-7.57-2.12,19.06,19.06,0,0,1-5.56-4.52,16.56,16.56,0,0,1-3.46-6A31.57,31.57,0,0,1,91,32.4V1.18h16.15v32a9.12,9.12,0,0,0,2.39,6.7,10.28,10.28,0,0,0,13.18,0,9.1,9.1,0,0,0,2.38-6.74Z"/><path class="cls-2" d="M161.4,31.15c.5,5.79,3.86,9.92,10,9.92,3.17,0,6.63-1.18,8.22-3.63h18.31c-4,11-14.75,16.11-26.43,16.11-16.44,0-28.81-9.63-28.81-26.63C142.69,12.09,153.58,0,169.82,0,190.21,0,199,11.3,199,31.15ZM180.21,21a8.4,8.4,0,0,0-8.61-8.55c-5.84,0-9.21,3-10.1,8.55Z"/><path class="cls-1" d="M203.91,6a4.45,4.45,0,1,1-4.41-4.33A4.36,4.36,0,0,1,203.91,6Zm-7.78,0a3.36,3.36,0,0,0,3.37,3.45A3.31,3.31,0,0,0,202.8,6a3.34,3.34,0,1,0-6.67,0Zm2.66,2.24h-1V3.87a12.12,12.12,0,0,1,1.66-.13,2.32,2.32,0,0,1,1.48.34,1.12,1.12,0,0,1,.45.93,1.11,1.11,0,0,1-.9,1v.06c.42.13.63.47.76,1a4.18,4.18,0,0,0,.32,1.06h-1.05a3.41,3.41,0,0,1-.35-1.06c-.08-.44-.34-.66-.89-.66h-.48Zm0-2.43h.47c.55,0,1-.19,1-.63s-.29-.66-.92-.66a2.2,2.2,0,0,0-.55,0Z"/></symbol></defs><path class="cls-1" d="M167.77,199.26h-6.68v-6.07h20.72v6.07h-6.68v17.61h-7.36Z"/><path class="cls-1" d="M189.5,197.8h-6.62v-4.61h6.62Zm-6.62,1.86h6.62v17.21h-6.62Z"/><path class="cls-1" d="M202.8,206.19a2.31,2.31,0,0,0-.73-1.62,2.4,2.4,0,0,0-1.68-.57c-2.54,0-2.9,2.19-2.9,4.28s.36,4.25,2.9,4.25A2.65,2.65,0,0,0,203,210h6.32a8,8,0,0,1-3,5.4,9.7,9.7,0,0,1-6,1.9c-5.21,0-9.39-3.59-9.39-9s4.18-9.05,9.39-9.05c4.55,0,8.43,2.22,8.83,7Z"/><path class="cls-1" d="M210.49,193.19h6.62v11.44l4.21-5h7.49l-6.19,6.5,7.16,10.71h-8l-3.54-6.23-1.17,1.26v5h-6.62Z"/><path class="cls-1" d="M234.69,209.74c.16,2,1.3,3.35,3.37,3.35a3.34,3.34,0,0,0,2.78-1.23H247c-1.33,3.72-5,5.45-8.92,5.45-5.55,0-9.73-3.26-9.73-9a8.87,8.87,0,0,1,9.16-9.09c6.89,0,9.86,3.81,9.86,10.51Zm6.35-3.41a2.83,2.83,0,0,0-2.91-2.89,3.13,3.13,0,0,0-3.41,2.89Z"/><path class="cls-1" d="M256.45,199.66H260v4h-3.54v6c0,1.59.36,2.29,2,2.29a12.59,12.59,0,0,0,1.5-.1v5c-1.34,0-2.84.2-4.25.2-2.8,0-5.91-.43-5.91-5.14V203.7h-3v-4h3v-5.24h6.62Z"/><use width="203.91" height="54.48" transform="translate(65.22 192.95) scale(0.44)" xlink:href="#Blue"/><path class="cls-3" d="M161.59,141.11c-5,0-9.43-2.7-11-6.72l-3.42-8.83L142,112.2,131.75,109a4,4,0,0,1-2.81-3.82V52.49a4,4,0,0,1,5.19-3.82l11.39,3.55a4,4,0,0,1,3,2.71l6.12,15.8,3.45,8.93c.26.67,1.64,1.61,3.53,1.61h2.31c1.9,0,3.28-.94,3.54-1.61L171.58,69,177,55.06a4,4,0,0,1,2.69-2.82l11.44-3.56a3.75,3.75,0,0,1,1.19-.19,4,4,0,0,1,4,4v52.62a4.09,4.09,0,0,1-2.81,3.89l-9.94,3.1s-5.14,13.29-5.15,13.33l-3.47,9c-1.56,4-6,6.72-11,6.72Z"/><path class="cls-3" d="M180.83,56.06s0,.07,0,.1l-5.51,14.25-.67,1.73h0l-3.47,9c-.95,2.46-3.94,4.17-7.27,4.17h-2.31c-3.32,0-6.31-1.71-7.26-4.17l-3.42-8.83a.32.32,0,0,1,0-.09l-.68-1.77-5.52-14.25v0h-.11l-11.63-3.63v52.69l11.63,3.63H145l5.2,13.45.68,1.76s0,.07,0,.09l3.42,8.83c.95,2.46,3.94,4.17,7.26,4.17h2.31c3.33,0,6.32-1.71,7.27-4.17l3.47-9h0l.67-1.72,5.19-13.45h.14l11.63-3.63V52.49Z"/><path class="cls-2" d="M180.83,56.06s0,.07,0,.1l-5.51,14.25-.67,1.73h0l-3.47,9c-.95,2.46-3.94,4.17-7.27,4.17h-2.31c-3.32,0-6.31-1.71-7.26-4.17l-3.42-8.83a.32.32,0,0,1,0-.09l-.68-1.77-5.52-14.25v0h-.11l-11.63-3.63v52.69l11.63,3.63H145l5.2,13.45.68,1.76s0,.07,0,.09l3.42,8.83c.95,2.46,3.94,4.17,7.26,4.17h2.31c3.33,0,6.32-1.71,7.27-4.17l3.47-9h0l.67-1.72,5.19-13.45h.14l11.63-3.63V52.49Z"/><path class="cls-3" d="M163.49,99.25c0,3.51-1.94,5.92-5.92,5.92s-5.81-2.64-5.83-5.85,1.92-5.88,5.95-5.88S163.49,96.15,163.49,99.25Zm-8.08.07c0,2.6.84,3.84,2.25,3.84s2.19-1.29,2.19-3.87-.75-3.84-2.21-3.84S155.38,96.69,155.41,99.32Z"/><path class="cls-3" d="M170,96h0l-3,1-.6-2,4.12-1.39h3V105H170Z"/></svg>