<?xml version="1.0" encoding="UTF-8"?><svg id="Capa_1" xmlns="http://www.w3.org/2000/svg" xmlns:xlink="http://www.w3.org/1999/xlink" viewBox="0 0 330 269"><defs><symbol id="Blue_3" viewBox="0 0 203.91 54.49"><path d="m0,53.3h30.36c5.05,0,8.94-1.25,11.65-3.76,2.7-2.5,4.06-5.61,4.06-9.29,0-3.11-.96-5.77-2.89-7.98-1.29-1.48-3.16-2.65-5.64-3.51,3.76-.91,6.52-2.46,8.29-4.66s2.65-4.97,2.65-8.3c0-2.7-.63-5.15-1.9-7.32-1.26-2.16-2.99-3.87-5.2-5.13-1.36-.78-3.4-1.36-6.14-1.7-3.65-.49-6.08-.72-7.27-.72H0v52.37Zm16.32-20.59h7.09c2.55,0,4.32.43,5.31,1.29,1,.88,1.5,2.13,1.5,3.78,0,1.52-.49,2.71-1.5,3.57-1,.86-2.74,1.29-5.21,1.29h-7.2v-9.94h.01Zm0-20.51h8.29c2.8,0,4.77.49,5.91,1.48,1.15.98,1.72,2.31,1.72,3.97,0,1.54-.57,2.78-1.7,3.72-1.15.93-3.13,1.4-5.98,1.4h-8.25v-10.57h0Z" style="fill:#0a1e3f;"/><path d="m49.6,53.3h16.15V13.83h25.25V.93h-41.41v52.37h0Z" style="fill:#95b6e5;"/><path d="m125.07,53.3h16.16v-31.22c0-3.09-.48-6.02-1.45-8.77-.96-2.76-2.48-5.16-4.54-7.21-2.07-2.06-4.22-3.51-6.5-4.35-3.14-1.17-6.93-1.75-11.34-1.75-2.55,0-5.33.18-8.36.54-3.03.35-5.53,1.07-7.57,2.12-2.03,1.06-3.88,2.57-5.56,4.53-1.67,1.95-2.83,3.96-3.45,6.03-1,3.34-1.49,6.29-1.49,8.86v31.22h16.15v-31.99c0-2.86.8-5.1,2.39-6.7,1.58-1.61,3.79-2.41,6.61-2.41s4.99.79,6.57,2.37c1.59,1.59,2.39,3.83,2.39,6.74v31.99h-.01Z" style="fill:#95b6e5;"/><path d="m161.4,23.33c.49-5.8,3.86-9.92,10-9.92,3.17,0,6.63,1.18,8.22,3.64h18.32c-3.96-11.01-14.75-16.11-26.43-16.11-16.43,0-28.81,9.63-28.81,26.63,0,14.84,10.89,26.92,27.13,26.92,20.39,0,29.2-11.3,29.2-31.15h-37.63Zm18.81,10.12c0,4.72-3.56,8.55-8.61,8.55-5.84,0-9.21-3.04-10.1-8.55h18.71Z" style="fill:#95b6e5;"/><path d="m203.91,48.52c0-2.42-1.95-4.35-4.43-4.35s-4.46,1.93-4.46,4.35,1.97,4.33,4.48,4.33,4.4-1.9,4.4-4.33h.01Zm-7.78,0c0-1.92,1.45-3.45,3.38-3.45,1.87-.03,3.3,1.53,3.3,3.43s-1.43,3.48-3.35,3.48-3.32-1.56-3.32-3.46h0Zm2.67-2.24h-1v4.33c.4.05.95.13,1.66.13.82,0,1.19-.13,1.48-.34.27-.18.45-.5.45-.92,0-.53-.4-.87-.9-1.03v-.05c.42-.13.63-.47.77-1.05.13-.66.24-.9.31-1.06h-1.05c-.13.16-.21.53-.34,1.06-.08.44-.34.66-.9.66h-.47v-1.73Zm.02,2.42h.48c.55,0,1,.19,1,.64,0,.4-.29.66-.92.66-.27,0-.45-.02-.56-.05v-1.24h0Z" style="fill:#0a1e3f;"/></symbol><clipPath id="clippath"><rect x="87.68" y="195.67" width="86.21" height="23.03" style="fill:none;"/></clipPath></defs><path d="m215.44,219.12c-6.27,0-9.11-4.12-9.11-8.72s2.83-8.69,9.11-8.69,9.11,4.09,9.11,8.69-2.83,8.72-9.11,8.72Zm0-12.81c-2.41,0-2.73,2.33-2.73,4.09s.32,4.12,2.73,4.12,2.73-2.36,2.73-4.12-.32-4.09-2.73-4.09Z" style="fill:#0a1e3f;"/><path d="m229.34,209.98l-5.24-7.86h7.01l1.84,3.29,1.87-3.29h6.82l-5.24,7.86,5.92,8.72h-7.01l-2.45-4.06-2.35,4.06h-6.98l5.82-8.72h0Z" style="fill:#0a1e3f;"/><path d="m184.9,195.9h12.59c6.05,0,7.34,3.38,7.34,5.72s-1.13,3.55-2.83,4.47c2.06.7,3.99,2.33,3.99,5.68,0,4.57-3.99,6.93-8.04,6.93h-13.04v-22.81h0Zm7.08,8.88h3.74c1.47,0,2.41-.41,2.41-1.89,0-1.15-.96-1.56-2.41-1.56h-3.74v3.45Zm0,8.5h4.15c1.48,0,2.77-.41,2.77-2.17,0-1.34-.81-2.07-2.48-2.07h-4.44s0,4.25,0,4.25Z" style="fill:#0a1e3f;"/><g style="clip-path:url(#clippath); fill:none;"><use width="203.91" height="54.49" transform="translate(87.68 218.7) scale(.42 -.42)" xlink:href="#Blue_3"/></g><polygon points="206.07 154.63 124.85 154.63 117.01 75.53 212.99 75.53 206.07 154.63" style="fill:#0a1e3f;"/><polygon points="212.99 75.53 117.01 75.53 130.85 52.62 200.07 52.62 212.99 75.53" style="fill:#95b6e5;"/></svg>