<svg id="Capa_1" data-name="Capa 1" xmlns="http://www.w3.org/2000/svg" xmlns:xlink="http://www.w3.org/1999/xlink" viewBox="0 0 500 500"><defs><style>.cls-1{fill:none;}.cls-14,.cls-15,.cls-2{fill:#011e41;}.cls-11,.cls-3{fill:#8ab7e9;}.cls-4{fill:#e0e7f5;}.cls-5{fill:#fff;}.cls-6{fill:#89c252;}.cls-7{fill:#8a1a9b;}.cls-8{fill:#ff6c0e;}.cls-9{fill:#d62f8a;}.cls-10{fill:#061725;}.cls-11,.cls-14,.cls-20,.cls-21{fill-rule:evenodd;}.cls-12{fill:#f7f6f6;}.cls-13{fill:#78278b;}.cls-15{font-size:4.38px;font-family:HelveticaNeueLTStd-LtCn, Helvetica Neue LT Std;}.cls-16{clip-path:url(#clip-path);}.cls-17{fill:#231f20;}.cls-18{clip-path:url(#clip-path-2);}.cls-19{isolation:isolate;}.cls-20{fill:#80b9e4;}.cls-21{fill:#ec068d;}</style><clipPath id="clip-path"><rect id="SVGID" class="cls-1" x="341.01" y="120.98" width="36.93" height="24.33"/></clipPath><clipPath id="clip-path-2"><polygon class="cls-1" points="316.89 124.22 333.37 95.68 300.42 95.68 316.89 124.22"/></clipPath><symbol id="Blue" data-name="Blue" viewBox="0 0 203.91 54.48"><path class="cls-2" d="M0,1.18H30.36Q38,1.18,42,4.94a12.17,12.17,0,0,1,4.06,9.29,11.79,11.79,0,0,1-2.89,8,12.76,12.76,0,0,1-5.65,3.5q5.64,1.37,8.29,4.66a12.83,12.83,0,0,1,2.66,8.3A14.28,14.28,0,0,1,46.59,46a14,14,0,0,1-5.2,5.14,17.23,17.23,0,0,1-6.14,1.7,70.72,70.72,0,0,1-7.27.72H0ZM16.32,21.77h7.09q3.82,0,5.32-1.3a4.75,4.75,0,0,0,1.5-3.78,4.43,4.43,0,0,0-1.5-3.57q-1.5-1.29-5.21-1.29h-7.2Zm0,20.51h8.29c2.79,0,4.77-.49,5.91-1.48a4.94,4.94,0,0,0,1.73-4,4.59,4.59,0,0,0-1.7-3.72c-1.15-.93-3.13-1.41-6-1.41H16.32Z"/><path class="cls-3" d="M49.6,1.18H65.76V40.65H91v12.9H49.6Z"/><path class="cls-3" d="M125.07,1.18h16.16V32.4a26.16,26.16,0,0,1-1.45,8.77,18.61,18.61,0,0,1-4.54,7.21,17.91,17.91,0,0,1-6.49,4.35,32.64,32.64,0,0,1-11.34,1.75,70.91,70.91,0,0,1-8.36-.54,22,22,0,0,1-7.57-2.12,19.06,19.06,0,0,1-5.56-4.52,16.56,16.56,0,0,1-3.46-6A31.57,31.57,0,0,1,91,32.4V1.18h16.15v32a9.12,9.12,0,0,0,2.39,6.7,10.28,10.28,0,0,0,13.18,0,9.1,9.1,0,0,0,2.38-6.74Z"/><path class="cls-3" d="M161.4,31.15c.5,5.79,3.86,9.92,10,9.92,3.17,0,6.63-1.18,8.22-3.63h18.31c-4,11-14.75,16.11-26.43,16.11-16.44,0-28.81-9.63-28.81-26.63C142.69,12.09,153.58,0,169.82,0,190.21,0,199,11.3,199,31.15ZM180.21,21a8.4,8.4,0,0,0-8.61-8.55c-5.84,0-9.21,3-10.1,8.55Z"/><path class="cls-2" d="M203.91,6a4.45,4.45,0,1,1-4.41-4.33A4.36,4.36,0,0,1,203.91,6Zm-7.78,0a3.36,3.36,0,0,0,3.37,3.45A3.31,3.31,0,0,0,202.8,6a3.34,3.34,0,1,0-6.67,0Zm2.66,2.24h-1V3.87a12.12,12.12,0,0,1,1.66-.13,2.32,2.32,0,0,1,1.48.34,1.12,1.12,0,0,1,.45.93,1.11,1.11,0,0,1-.9,1v.06c.42.13.63.47.76,1a4.18,4.18,0,0,0,.32,1.06h-1.05a3.41,3.41,0,0,1-.35-1.06c-.08-.44-.34-.66-.89-.66h-.48Zm0-2.43h.47c.55,0,1-.19,1-.63s-.29-.66-.92-.66a2.2,2.2,0,0,0-.55,0Z"/></symbol></defs><path class="cls-4" d="M456.67,289.11a9.54,9.54,0,0,0,0-19.08,9.94,9.94,0,0,0-1.82.18l-6.09-17.39h.08a9.53,9.53,0,0,0,.53-19L435,194.34a9.51,9.51,0,0,0-2-15.65l.84-16.82-24.67-19.08a9.52,9.52,0,0,0-8.4-13.93l-1.63-8.45-24.94-22a9.54,9.54,0,1,0-12.22-14.53l-5.06-7.86L318.2,60.57a9.42,9.42,0,0,0,.52-3.07,9.54,9.54,0,0,0-19.08,0,9.66,9.66,0,0,0,.84,3.91l-15.37,8a9.54,9.54,0,1,0-10.67,13.11L262,123.66a9.53,9.53,0,0,0-1.83,18.83L263.5,168c1.06.17,2.11.35,3.15.56l-3.36-25.87a9.49,9.49,0,0,0,5-2.16l24.36,15.72a9.65,9.65,0,0,0-.63,3.41,9.52,9.52,0,0,0,.9,4l-13.8,8.5c1.19.45,2.36.92,3.52,1.42l12-7.39a9.53,9.53,0,0,0,15.63-2.71l38.25,7.8a9.44,9.44,0,0,0,1.51,5.07l-25.46,33.27a9.38,9.38,0,0,0-2.45-.53,82.49,82.49,0,0,1,6.73,15.38,9.49,9.49,0,0,0,2.05-5.88,9.59,9.59,0,0,0-.61-3.32l52.22-20.87a9.53,9.53,0,0,0,7.12,5.3l-12,62.94a9.47,9.47,0,0,0-5.4,2.41l-25.17-15.52a9.52,9.52,0,0,0-13.37-12.31l-3-6a82.94,82.94,0,0,1,2.1,18.5c0,1.12,0,2.24-.08,3.34a9.49,9.49,0,0,0,12.68-1l25,15.4a9.45,9.45,0,0,0-1.23,4.66,9.57,9.57,0,0,0,2.47,6.4l-28.22,52.34a9.69,9.69,0,0,0-2.55-.35,9.33,9.33,0,0,0-4,.89l-21.44-30.88c-.65.84-1.31,1.67-2,2.49l20.9,30.1a9.73,9.73,0,0,0-2,2.67l-38-16.06c-1.06.67-2.13,1.32-3.23,2l40.31,17a9.8,9.8,0,0,0-.1,1.33,9.48,9.48,0,0,0,.67,3.5l-57,21.76a9.5,9.5,0,0,0-6.06-4.4l2-30.94c-1,.27-2,.5-3.09.73l-1.93,30a9.53,9.53,0,0,0,.9,19l10.17,44a9.53,9.53,0,1,0,10.92,13.67l22.47,6.1c0,.17,0,.33,0,.5a9.54,9.54,0,1,0,19.07,0,9.74,9.74,0,0,0-.16-1.72l28.25-11.21a9.52,9.52,0,0,0,16.75-5l27.15-5L409.05,399a9.53,9.53,0,0,0,10.63-14.66l12.61-11.65a9.53,9.53,0,1,0,7-16l-5-19.18a9.55,9.55,0,0,0,5.81-11.68l1.73-1.31a9.53,9.53,0,1,0,10.63-14.58L455.46,289A9.71,9.71,0,0,0,456.67,289.11Zm-10.43-55a9.55,9.55,0,0,0-6.79,7.62l-13.5,2a9.5,9.5,0,0,0-12.59-8.53l-15.69-38a9.49,9.49,0,0,0,3-6.94c0-.29,0-.57,0-.86L419.17,188a9.55,9.55,0,0,0,13.18,8Zm-3.81,16.21L425.58,247a.19.19,0,0,1,0-.08l13.85-2.05A9.53,9.53,0,0,0,442.43,250.32ZM400.61,147.93h.07a9.51,9.51,0,0,0,6.63-2.69l23.36,18.08L430,177.76a9,9,0,0,0-1.28-.09,9.55,9.55,0,0,0-9.26,7.25l-19.56,1.5a9.52,9.52,0,0,0-4.09-4.48ZM366,99.73a9.66,9.66,0,0,0,2.77.41,10,10,0,0,0,2.4-.31L396.3,122l1.41,7.31a9.58,9.58,0,0,0-5.5,4.7l-23.49-2.92a9.53,9.53,0,0,0-5.53-8.15Zm25.74,41.88-28.2,21.75a9.59,9.59,0,0,0-5-1.67L361,141a9.55,9.55,0,0,0,7.38-6.85L391.26,137a10.72,10.72,0,0,0-.11,1.4A9.56,9.56,0,0,0,391.72,141.61ZM363.07,98.25l-2.86,23.89c-.33,0-.66,0-1,0a9.53,9.53,0,0,0-9.41,8H311L315.72,112h.33a9.51,9.51,0,0,0,9.51-9.1l34.66-8.1A9.63,9.63,0,0,0,363.07,98.25Zm-3-11.58a9.56,9.56,0,0,0-.85,3.93,9.36,9.36,0,0,0,.1,1.3l-34.11,8a3.37,3.37,0,0,0-.1-.34l30.31-20.1ZM316.75,63.29l35.84,14.36L323.7,96.82A9.5,9.5,0,0,0,316.22,93L312,66.61A9.56,9.56,0,0,0,316.75,63.29Zm-30.86,9.88c0-.24,0-.48,0-.71L302.18,64A9.51,9.51,0,0,0,309,67l4.21,26.37A9.55,9.55,0,0,0,309.05,96L284.81,77.56A9.56,9.56,0,0,0,285.89,73.17Zm-20.82,50.91,12.52-41.46A9.44,9.44,0,0,0,283,80l24.37,18.58a9.46,9.46,0,0,0,.1,8l-37.91,20.49A9.6,9.6,0,0,0,265.07,124.08Zm36.52,26a9.5,9.5,0,0,0-7.36,3.48l-23.9-15.41a9.47,9.47,0,0,0,1.41-5,9.62,9.62,0,0,0-.65-3.45l38.11-20.6a9.42,9.42,0,0,0,3.51,2.29l-10.09,38.72A8.77,8.77,0,0,0,301.59,150.08ZM349,168.25l-37.95-7.74c0-.3,0-.59,0-.89a9.53,9.53,0,0,0-5.55-8.66l4.64-17.8h39.6a9.53,9.53,0,0,0,8.13,7.92l-2.51,21A9.55,9.55,0,0,0,349,168.25Zm32.58,22a8.28,8.28,0,0,0,.09,1.23l-52.88,21.08a9.67,9.67,0,0,0-1.51-1.49l24.81-32.47a9.53,9.53,0,0,0,13.62-13.11l27.47-21.21a9.56,9.56,0,0,0,4.39,3.1l-4.77,33.49a9.2,9.2,0,0,0-1.68-.16A9.54,9.54,0,0,0,381.61,190.28Zm11.18,9.39a9.45,9.45,0,0,0,2.3-.71l15.56,37.7a9.49,9.49,0,0,0-1.84,13.27l-23.28,15.52a9.54,9.54,0,0,0-4.74-2.64Zm-18.73,80.78a9.55,9.55,0,0,0,10.19-.58l38.55,43.87a9.39,9.39,0,0,0-1.32,4.82,10.2,10.2,0,0,0,.14,1.58L349.88,337a9.46,9.46,0,0,0-3.68-4.82ZM311,440.53l-22.14-6A10.29,10.29,0,0,0,289,433a9.53,9.53,0,0,0-9-9.51l-10.21-44.2a9.62,9.62,0,0,0,1.28-.54l41.77,58.86A9.43,9.43,0,0,0,311,440.53Zm44.24-15.59a9.5,9.5,0,0,0,.68,3.51l-27.7,11a9.52,9.52,0,0,0-8.35-4.93,9.42,9.42,0,0,0-4.6,1.18l-41.7-58.75a9.53,9.53,0,0,0,2.79-6.74,9.29,9.29,0,0,0-.23-2.06l57.47-21.93a9.54,9.54,0,0,0,6.08,3.3l19.72,67.58A9.52,9.52,0,0,0,355.23,424.94Zm43.86-6.49-25,4.6a9.52,9.52,0,0,0-11.93-7.28l-19.37-66.4a9.51,9.51,0,0,0,4.33-2.17l55.58,40.27a9.46,9.46,0,0,0,3.69,10.17Zm37.22-61.29a9.51,9.51,0,0,0-5.72,12.9l-13.07,12.08A9.53,9.53,0,0,0,404,384.62L349.1,344.84a9.56,9.56,0,0,0,1.3-4.81v0l72.24-6.86a9.54,9.54,0,0,0,8.39,5l.31,0ZM440.14,319a9.79,9.79,0,0,0,.38,2.67L438.77,323a9.51,9.51,0,0,0-14-1.66l-38.35-43.65a9.45,9.45,0,0,0,.86-9.76l23.79-15.85a9.53,9.53,0,0,0,5.37,1.66,10.59,10.59,0,0,0,1.5-.13l26.31,57.55A9.52,9.52,0,0,0,440.14,319Zm9.35-9.52a9.24,9.24,0,0,0-2.48.37l-26.15-57.2a9.52,9.52,0,0,0,3.32-2.89L446,254.14l6,17.13a9.52,9.52,0,0,0,.52,16.87Z"/><path class="cls-4" d="M234,358.64l-1.8-27.93c-1-.23-2.07-.46-3.1-.72l1.85,28.85a9.55,9.55,0,0,0-6.05,4.39l-57-21.76a9.63,9.63,0,0,0,.67-3.49,9.82,9.82,0,0,0-.11-1.34l38.26-16.17c-1-.65-2.1-1.31-3.12-2L167.5,333.71a9.54,9.54,0,0,0-2-2.67l20.12-29c-.67-.83-1.33-1.67-2-2.52L163,329.32a9.47,9.47,0,0,0-4-.88,9.69,9.69,0,0,0-2.55.35L128.2,276.44a9.49,9.49,0,0,0,1.25-11l25-15.41a9.49,9.49,0,0,0,12.63,1.06c0-.44,0-.87,0-1.32a82.7,82.7,0,0,1,3.15-22.61l-4.1,8a9.52,9.52,0,0,0-13.37,12.3L127.52,263a9.48,9.48,0,0,0-5.4-2.42l-12-62.94a9.52,9.52,0,0,0,7.12-5.29L169.5,213.2a9.44,9.44,0,0,0,1.95,9.8,82.52,82.52,0,0,1,7.42-16l-.44,0a9.44,9.44,0,0,0-3.2.56l-25.44-33.3a9.43,9.43,0,0,0,1.49-5l38.24-7.8a9.52,9.52,0,0,0,15.63,2.71l14,8.63c1.19-.48,2.4-.93,3.62-1.35l-15.91-9.81a9.44,9.44,0,0,0,.26-7.44l24.37-15.71a9.56,9.56,0,0,0,5.05,2.16l-3.65,28c1-.21,2.1-.4,3.15-.57l3.6-27.57a9.53,9.53,0,0,0-1.82-18.84L225.41,80.45a9.54,9.54,0,1,0-10.69-13.11l-15.36-8a9.41,9.41,0,0,0,.84-3.9,9.54,9.54,0,1,0-18.56,3.07L143,74l-5.07,7.86A9.53,9.53,0,1,0,125.68,96.4l-25,21.95L99.1,126.8a9.52,9.52,0,0,0-8.4,13.93L66,159.81l.83,16.83a9.51,9.51,0,0,0-2,15.63L50.47,231.71a9.53,9.53,0,0,0,.51,19h.11L45,268.16a9.16,9.16,0,0,0-1.83-.18,9.54,9.54,0,1,0,1.21,19l3,20.89A9.54,9.54,0,1,0,58,322.44l1.73,1.31a9.65,9.65,0,0,0-.41,2.76,9.53,9.53,0,0,0,6.21,8.92l-5,19.18a9.54,9.54,0,1,0,7.06,16l12.61,11.65a9.44,9.44,0,0,0-1.81,5.57,9.55,9.55,0,0,0,9.54,9.55,9.32,9.32,0,0,0,2.9-.46l7.65,22.18L125.6,424a9.53,9.53,0,0,0,16.74,5l28.27,11.2a9.72,9.72,0,0,0-.17,1.71,9.54,9.54,0,1,0,19.07,0,4,4,0,0,0,0-.49L212,435.36a9.54,9.54,0,1,0,10.92-13.67l10.18-44a9.53,9.53,0,0,0,.89-19ZM125.77,278.39l27.87,51.68A9.52,9.52,0,0,0,150,334.9l-71.74-6.81a10.31,10.31,0,0,0,.14-1.58A9.61,9.61,0,0,0,77,321.69l38.55-43.88a9.54,9.54,0,0,0,10.18.58ZM119,260.76a9.47,9.47,0,0,0-4.73,2.64L91,247.87a9.5,9.5,0,0,0-1.83-13.27l15.56-37.7a9.38,9.38,0,0,0,2.29.71Zm53.48-51.71a9.42,9.42,0,0,0-1.49,1.47L118.15,189.4a9.23,9.23,0,0,0,.08-1.18,9.54,9.54,0,0,0-9.55-9.53,10.17,10.17,0,0,0-1.67.15l-4.78-33.49a9.41,9.41,0,0,0,4.38-3.1l27.49,21.22a9.53,9.53,0,0,0,7.63,15.22,9.57,9.57,0,0,0,6-2.11Zm-64-74.12,22.86-2.86a9.5,9.5,0,0,0,7.39,6.86l2.48,20.71a9.46,9.46,0,0,0-5,1.7L108.1,139.56a9.34,9.34,0,0,0,.58-3.23A9.22,9.22,0,0,0,108.56,134.93Zm80.15,22.63c0,.3,0,.6,0,.89l-37.94,7.74a9.55,9.55,0,0,0-6.4-6.19l-2.52-21A9.53,9.53,0,0,0,150,131.1h39.61l4.64,17.79A9.54,9.54,0,0,0,188.71,157.56Zm16.9-6.06a9.53,9.53,0,0,0-7.36-3.48,8.77,8.77,0,0,0-1,.06l-10.1-38.71a9.56,9.56,0,0,0,3.52-2.3l38.11,20.59a9.46,9.46,0,0,0,.75,8.44Zm16.63-70.94L234.77,122a9.58,9.58,0,0,0-4.48,3l-37.9-20.48a9.44,9.44,0,0,0,.09-8L216.85,78A9.58,9.58,0,0,0,222.24,80.56ZM190.86,65a9.53,9.53,0,0,0,6.8-3.06L214,70.4c0,.24,0,.47,0,.71A9.38,9.38,0,0,0,215,75.5L190.79,94a9.55,9.55,0,0,0-4.14-2.63Zm-7.77-3.74a9.6,9.6,0,0,0,4.75,3.33l-4.22,26.35a9.51,9.51,0,0,0-7.48,3.86l-28.9-19.18ZM144.41,77.38l30.32,20.11c0,.11-.07.22-.1.33l-34.11-8a11.2,11.2,0,0,0,.1-1.3,9.56,9.56,0,0,0-.87-4Zm-4.79,15.39,34.66,8.11a9.53,9.53,0,0,0,9.51,9.1l.33,0,4.71,18.09H150a9.53,9.53,0,0,0-9.4-8,8.27,8.27,0,0,0-1,0l-2.86-23.9A9.59,9.59,0,0,0,139.62,92.77ZM103.54,120l25.21-22.18a9.36,9.36,0,0,0,2.33.3,9.84,9.84,0,0,0,2.78-.41l2.79,23.24A9.5,9.5,0,0,0,131.1,129L107.62,132a9.58,9.58,0,0,0-5.5-4.7Zm-11,23.22a9.52,9.52,0,0,0,6.64,2.69h.06l4.85,34a9.57,9.57,0,0,0-4.12,4.54l-19.54-1.54a9.53,9.53,0,0,0-9.26-7.27,8.94,8.94,0,0,0-1.27.1l-.72-14.45ZM67.49,194a9.54,9.54,0,0,0,13.16-8l18.55,1.42a7.94,7.94,0,0,0,0,.85,9.49,9.49,0,0,0,3,6.94l-15.69,38a9.5,9.5,0,0,0-12.59,8.52l-13.5-2a9.53,9.53,0,0,0-6.8-7.61Zm6.78,50.94-16.86,3.37a9.5,9.5,0,0,0,3-5.5l13.86,2.05A.19.19,0,0,0,74.27,244.89ZM50.34,307.44l-3-21.35a9.53,9.53,0,0,0,.53-16.87l6-17.13,21.82-4.36a9.53,9.53,0,0,0,3.3,2.88L52.82,307.82A9.66,9.66,0,0,0,50.34,307.44ZM61.07,321l-1.76-1.32a9.79,9.79,0,0,0,.38-2.67,9.53,9.53,0,0,0-4.11-7.84L81.9,251.57a9.07,9.07,0,0,0,1.49.13A9.41,9.41,0,0,0,88.76,250l23.8,15.86a9.49,9.49,0,0,0,.86,9.75L75.06,319.31a9.51,9.51,0,0,0-14,1.65Zm26.82,57.32a9.44,9.44,0,0,0-5.67,1.88l-13-12.11a9.41,9.41,0,0,0,.84-3.9,9.53,9.53,0,0,0-6.54-9l5-19.08.31,0a9.54,9.54,0,0,0,8.38-5l72.25,6.86s0,0,0,.06a9.43,9.43,0,0,0,1.31,4.8l-54.9,39.78A9.51,9.51,0,0,0,87.89,378.28Zm47.17,35.07a9.53,9.53,0,0,0-9.34,7.62l-25-4.58-7.21-20.9a9.5,9.5,0,0,0,3.9-7.68,9.38,9.38,0,0,0-.32-2.39l55.58-40.28a9.41,9.41,0,0,0,4.34,2.18l-19.37,66.4A9.72,9.72,0,0,0,135.06,413.35Zm49.52,20.26a9.55,9.55,0,0,0-13,3.76l-27.7-10.95a9.4,9.4,0,0,0,.68-3.53,9.51,9.51,0,0,0-4.15-7.87l19.71-67.59a9.53,9.53,0,0,0,6.09-3.29l57.46,21.93a9.93,9.93,0,0,0-.22,2.06,9.52,9.52,0,0,0,2.78,6.73Zm35.25-12.23a9.54,9.54,0,0,0-9,9.51,9,9,0,0,0,.15,1.57l-22.14,6a9.69,9.69,0,0,0-1.87-3l41.78-58.86a9.49,9.49,0,0,0,1.27.54Z"/><path class="cls-4" d="M249.92,182.42a67.32,67.32,0,1,1-67.32,67.31,67.39,67.39,0,0,1,67.32-67.31m0-6.71a74,74,0,1,0,74,74,74,74,0,0,0-74-74Z"/><circle class="cls-5" cx="188.65" cy="54.3" r="14.39"/><circle class="cls-5" cx="430.08" cy="327.97" r="14.39"/><circle class="cls-5" cx="339.88" cy="336.5" r="14.39"/><circle class="cls-5" cx="456.32" cy="279.01" r="14.39"/><circle class="cls-5" cx="280.4" cy="75.41" r="14.39"/><circle class="cls-5" cx="99.11" cy="139.07" r="14.39"/><circle class="cls-5" cx="107.89" cy="191.98" r="18.44"/><circle class="cls-5" cx="70.44" cy="185.5" r="14.39"/><circle class="cls-5" cx="52.2" cy="241.71" r="14.39"/><circle class="cls-5" cx="133.06" cy="88.93" r="14.39"/><circle class="cls-5" cx="237.4" cy="133.15" r="14.39"/><circle class="cls-5" cx="358.56" cy="169.02" r="14.39"/><circle class="cls-5" cx="312.62" cy="57.68" r="14.39"/><circle class="cls-5" cx="367.07" cy="92.59" r="14.39"/><circle class="cls-5" cx="339.84" cy="243.36" r="14.39"/><circle class="cls-5" cx="266.99" cy="371.24" r="14.39"/><circle class="cls-5" cx="440.45" cy="367.21" r="14.39"/><circle class="cls-5" cx="411.94" cy="394.73" r="14.39"/><circle class="cls-5" cx="377.34" cy="275.53" r="14.39"/><circle class="cls-5" cx="415.73" cy="248.98" r="14.39"/><circle class="cls-5" cx="314.26" cy="106.12" r="14.39"/><circle class="cls-5" cx="160.6" cy="245.01" r="14.39"/><circle class="cls-5" cx="121.71" cy="273.98" r="14.39"/><path class="cls-2" d="M248.42,272.82H257v2.63H251.6v1.27h4.86v2.44H251.6v1.27h5.51v2.63h-8.69Z"/><path class="cls-2" d="M257.82,275.62h2.76v.94h0a2.76,2.76,0,0,1,2.44-1.13,2.41,2.41,0,0,1,2.57,2.52v5.11h-2.86v-3.9c0-.86-.1-1.46-.94-1.46-.49,0-1.14.24-1.14,1.43v3.93h-2.86Z"/><path class="cls-2" d="M274.1,282.1c0,1.47-.39,3.55-3.9,3.55-1.78,0-3.65-.47-3.91-2.48h2.83a1.87,1.87,0,0,0,.15.26,1.12,1.12,0,0,0,.84.55c.93,0,1.13-1.09,1.13-1.71v-.69h0a2.37,2.37,0,0,1-2,1c-2.21,0-3.2-1.63-3.2-3.62s1.11-3.56,3.25-3.56a2,2,0,0,1,2,1.09h0v-.9h2.86Zm-4-1.31c1.05,0,1.17-1,1.17-1.83s-.4-1.46-1.24-1.46-1.21.68-1.21,1.47S269.12,280.79,270.14,280.79Z"/><path class="cls-2" d="M277.75,274.81h-2.86v-2h2.86Zm-2.86.81h2.86v7.44h-2.86Z"/><path class="cls-2" d="M278.66,275.62h2.76v.94h0a2.76,2.76,0,0,1,2.44-1.13,2.41,2.41,0,0,1,2.57,2.52v5.11H283.6v-3.9c0-.86-.1-1.46-.94-1.46-.49,0-1.14.24-1.14,1.43v3.93h-2.86Z"/><path class="cls-2" d="M289.71,280a1.5,1.5,0,0,0,2.65.92H295a3.84,3.84,0,0,1-3.86,2.35c-2.4,0-4.2-1.4-4.2-3.88a3.83,3.83,0,0,1,4-3.93c3,0,4.25,1.65,4.25,4.54Zm2.74-1.47a1.23,1.23,0,0,0-1.25-1.25,1.36,1.36,0,0,0-1.48,1.25Z"/><use width="203.91" height="54.48" transform="translate(204.65 272.72) scale(0.19)" xlink:href="#Blue"/><path class="cls-2" d="M244.55,230.93a9.68,9.68,0,1,0,9.68,9.68,9.68,9.68,0,0,0-9.68-9.68m0,18.6a8.92,8.92,0,1,1,8.92-8.92,8.92,8.92,0,0,1-8.92,8.92"/><path class="cls-3" d="M244.55,231.69a8.92,8.92,0,1,0,8.92,8.92,8.92,8.92,0,0,0-8.92-8.92m0,17.36a8.44,8.44,0,1,1,8.44-8.44,8.44,8.44,0,0,1-8.44,8.44"/><path class="cls-2" d="M244.55,232.17a8.44,8.44,0,1,0,8.44,8.44,8.44,8.44,0,0,0-8.44-8.44"/><path class="cls-5" d="M243.19,243.21H245c.7,0,1.19-.25,1.19-1s-.53-1-1.19-1h-1.78Zm0-3.38h1.72a.82.82,0,0,0,.9-.81.79.79,0,0,0-.9-.82h-1.72ZM241,236.49h4c1.47,0,3.07.36,3.07,2.13a1.9,1.9,0,0,1-1.12,1.71,2,2,0,0,1,1.47,2c0,2-1.49,2.64-3.31,2.64H241Z"/><path class="cls-2" d="M257.54,251.65a1.45,1.45,0,0,0,.49.11.53.53,0,0,0,.5,0,1.44,1.44,0,0,0,.39-.22c.11-.17.28-.28.28-.39l2.6-5a1.36,1.36,0,0,0,.11-.94.46.46,0,0,0-.22-.39.56.56,0,0,0-.44-.28l-1.94-1a12.65,12.65,0,0,0,.22-3.54l2.11-.67c.16-.05.27-.22.38-.22a.57.57,0,0,0,.28-.39,1.45,1.45,0,0,0,.11-.5.51.51,0,0,0-.05-.49l-1.78-5.32a.46.46,0,0,0-.22-.39c0-.11-.28-.28-.39-.28a1.72,1.72,0,0,0-.5-.11.54.54,0,0,0-.49.06l-2.11.66a17.42,17.42,0,0,0-2.33-2.66l1-1.94a.85.85,0,0,0,.06-.88,1.07,1.07,0,0,0-.67-.72l-5.1-2.61a1.46,1.46,0,0,0-.94-.11c-.16.06-.28.22-.39.22a.58.58,0,0,0-.27.45l-1,1.94a12.22,12.22,0,0,0-3.55-.28l-.66-2.11c-.06-.16-.11-.33-.22-.39a.58.58,0,0,0-.45-.27,1.45,1.45,0,0,0-.5-.11c-.16,0-.33-.06-.49.05L236,224.62c-.17,0-.28.22-.39.22a.55.55,0,0,0-.28.44.87.87,0,0,0-.05.89l.66,2.1a15.58,15.58,0,0,0-2.6,2.38l-1.89-1a1.12,1.12,0,0,0-.94-.11.67.67,0,0,0-.39.22.58.58,0,0,0-.27.44l-2.55,5a1.56,1.56,0,0,0-.11.5.79.79,0,0,0,.05.5,1.44,1.44,0,0,0,.22.39c.17.11.28.28.39.28l1.94,1a15.53,15.53,0,0,0-.28,3.55l-2.1.66a1.2,1.2,0,0,0-.39.23.57.57,0,0,0-.28.44,1.8,1.8,0,0,0-.11.5.8.8,0,0,0,.06.5l1.77,5.32c.06.16.22.27.22.38.17.11.28.28.39.28a1.5,1.5,0,0,0,.5.11c.17,0,.33.06.5,0l2.1-.67a14.67,14.67,0,0,0,2.39,2.6l-1,1.94a1.56,1.56,0,0,0-.11.5.78.78,0,0,0,0,.5c.06.17.23.28.23.39a.56.56,0,0,0,.38.28l5.1,2.55a.46.46,0,0,0,.22.05.87.87,0,0,0,.89-.11,1,1,0,0,0,.66-.61l1-1.94a12.72,12.72,0,0,0,3.55.22l.66,2.11c.06.16.11.33.22.39s.28.27.45.27a1.34,1.34,0,0,0,.94.11l5.32-1.77a1.08,1.08,0,0,0,.72-.66A1.19,1.19,0,0,0,254,255l-.67-2.1A15.38,15.38,0,0,0,256,250.6Zm-3.22-3.32a11.39,11.39,0,0,1-3.54,2.94,1.27,1.27,0,0,0-.56.66,1.75,1.75,0,0,0,.06.89l.61,1.77-3,1-.55-1.88a1.36,1.36,0,0,0-.5-.67,1,1,0,0,0-.77-.22,11.78,11.78,0,0,1-4.6-.38,1,1,0,0,0-.89.11,1.48,1.48,0,0,0-.61.55l-.83,1.77-2.77-1.44.83-1.72a.88.88,0,0,0,.06-.83,1.77,1.77,0,0,0-.5-.77,12,12,0,0,1-3-3.49c-.23-.22-.39-.45-.61-.5a1.59,1.59,0,0,0-.89.05l-1.77.61-1-2.93,1.77-.67a1.57,1.57,0,0,0,.67-.5,1.19,1.19,0,0,0,.22-.77,11.17,11.17,0,0,1,.33-4.66.9.9,0,0,0-.11-.77,1.18,1.18,0,0,0-.55-.61l-1.78-.83,1.44-2.77,1.72.83a1.57,1.57,0,0,0,.83.11,1.71,1.71,0,0,0,.78-.5,11.54,11.54,0,0,1,3.54-3c.23-.22.45-.39.5-.61a1.63,1.63,0,0,0-.05-.89l-.56-1.83,3-.94.6,1.77a1.38,1.38,0,0,0,.5.67,1.85,1.85,0,0,0,.78.22,12.2,12.2,0,0,1,4.65.33.79.79,0,0,0,.78-.11,1.65,1.65,0,0,0,.66-.61l.84-1.77,2.77,1.39-.84,1.77a.89.89,0,0,0-.05.83,1.75,1.75,0,0,0,.39.66,12,12,0,0,1,3,3.61,1.05,1.05,0,0,0,.61.49,1.21,1.21,0,0,0,.89-.05l1.77-.67.95,3-1.83.72a1.27,1.27,0,0,0-.67.5,1.07,1.07,0,0,0-.11.83,11.63,11.63,0,0,1-.39,4.6,1.17,1.17,0,0,0,.11.83c.11.33.34.44.56.61L259,246l-1.38,2.77-1.78-.83a1.37,1.37,0,0,0-.83-.17A3,3,0,0,0,254.32,248.33Z"/><path class="cls-3" d="M268.3,230.83a.74.74,0,0,0,.22.14.25.25,0,0,0,.25.06.55.55,0,0,0,.23,0c.09-.06.19-.08.21-.14l2.16-2a.8.8,0,0,0,.22-.44.58.58,0,0,0-.21-.44l-.78-.83a6.61,6.61,0,0,0,.73-1.7l1.15,0c.09,0,.17-.06.23,0a.26.26,0,0,0,.2-.14.59.59,0,0,0,.14-.22.27.27,0,0,0,.06-.26l.07-2.91a.26.26,0,0,0,0-.23s-.09-.18-.14-.2a.62.62,0,0,0-.23-.14.28.28,0,0,0-.25-.07l-1.15,0a9.34,9.34,0,0,0-.67-1.71l.83-.77a.44.44,0,0,0,.18-.43.6.6,0,0,0-.2-.47l-2-2.17a.74.74,0,0,0-.44-.22c-.09,0-.17.06-.23,0a.31.31,0,0,0-.21.17l-.83.78a6.5,6.5,0,0,0-1.69-.76l.05-1.15a.4.4,0,0,0,0-.23.31.31,0,0,0-.17-.21.68.68,0,0,0-.23-.14c-.08,0-.15-.09-.25-.06l-2.91-.07c-.09,0-.18.06-.23,0a.33.33,0,0,0-.22.17.48.48,0,0,0-.18.43l0,1.14a8.57,8.57,0,0,0-1.7.71l-.74-.82a.67.67,0,0,0-.44-.22.36.36,0,0,0-.23,0,.29.29,0,0,0-.22.16l-2.13,2a1,1,0,0,0-.14.23.36.36,0,0,0-.06.25.59.59,0,0,0,0,.23c.06.09.09.19.14.21l.77.82a7.56,7.56,0,0,0-.75,1.69l-1.15,0a.63.63,0,0,0-.23,0,.27.27,0,0,0-.21.17.74.74,0,0,0-.14.22.36.36,0,0,0-.06.25l-.07,2.92c0,.09.06.17,0,.23s.09.18.14.2a.79.79,0,0,0,.23.14c.08,0,.15.09.25.06l1.15,0a7.57,7.57,0,0,0,.71,1.69l-.83.78a.74.74,0,0,0-.14.22.36.36,0,0,0-.06.25c0,.09.06.18,0,.23a.28.28,0,0,0,.14.21l2.05,2.14a.22.22,0,0,0,.1.06.42.42,0,0,0,.45.11.54.54,0,0,0,.43-.19l.83-.77a6.61,6.61,0,0,0,1.7.73l-.05,1.15a.4.4,0,0,0,0,.23c.07.08.09.18.17.21a.74.74,0,0,0,.44.22l2.92.06a.54.54,0,0,0,.47-.2.59.59,0,0,0,.22-.44l0-1.14a7.82,7.82,0,0,0,1.71-.68Zm-1-2.19a6,6,0,0,1-2.26.81.77.77,0,0,0-.38.23.8.8,0,0,0-.13.45v1h-1.65l.06-1a.71.71,0,0,0-.13-.41.48.48,0,0,0-.34-.24,6.38,6.38,0,0,1-2.19-1,.52.52,0,0,0-.45-.1.71.71,0,0,0-.39.16l-.72.72L257.61,228l.71-.69a.49.49,0,0,0,.18-.4,1,1,0,0,0-.11-.47,6.23,6.23,0,0,1-.86-2.23.7.7,0,0,0-.21-.35.74.74,0,0,0-.44-.13h-1l0-1.61,1,0a.8.8,0,0,0,.41-.13.59.59,0,0,0,.24-.34,5.88,5.88,0,0,1,1-2.22.48.48,0,0,0,.09-.4.64.64,0,0,0-.17-.39l-.72-.72,1.19-1.1.7.7a.67.67,0,0,0,.38.2.89.89,0,0,0,.47-.1,6,6,0,0,1,2.26-.85c.15-.07.29-.11.35-.21a.79.79,0,0,0,.13-.44l0-1,1.63.06v1a.65.65,0,0,0,.12.41,1,1,0,0,0,.35.24,6.29,6.29,0,0,1,2.22,1,.39.39,0,0,0,.39.08.83.83,0,0,0,.44-.18l.71-.72,1.12,1.16-.72.73a.44.44,0,0,0-.17.39,1,1,0,0,0,.07.4,6.28,6.28,0,0,1,.86,2.29.6.6,0,0,0,.21.36.64.64,0,0,0,.44.12h1l-.06,1.63-1,0a.71.71,0,0,0-.41.13.59.59,0,0,0-.2.39,6.08,6.08,0,0,1-1,2.18.63.63,0,0,0-.09.43.64.64,0,0,0,.17.39l.72.72-1.16,1.11-.73-.72a.74.74,0,0,0-.37-.22A1.31,1.31,0,0,0,267.31,228.64Z"/><path class="cls-3" d="M265.39,218.81a4.43,4.43,0,0,0-1.87-.25,4.16,4.16,0,0,0-1.78.52,3.81,3.81,0,0,0-1.45,1.16,4.47,4.47,0,0,0-.85,1.63,4.26,4.26,0,0,0-.08,1.84,4.56,4.56,0,0,0,1.81,3.13,6,6,0,0,0,1.67.75,8.38,8.38,0,0,0,.87.18,4.48,4.48,0,0,0,3-1,4.25,4.25,0,0,0,1.63-2.73,4.61,4.61,0,0,0-.58-3.18A3.8,3.8,0,0,0,265.39,218.81Zm1.49,5.14a2.91,2.91,0,0,1-1.45,1.86,3,3,0,0,1-4.14-1.11,3.26,3.26,0,0,1-.45-2.25,3.15,3.15,0,0,1,1.19-1.93,3.1,3.1,0,0,1,2.15-.61,1.43,1.43,0,0,1,.56.1,3.88,3.88,0,0,1,1.1.58,4.32,4.32,0,0,1,.8.94,2.7,2.7,0,0,1,.39,1.18,3,3,0,0,1-.15,1.24Z"/><rect class="cls-6" x="140.66" y="326.78" width="12.09" height="9.39" rx="2.97"/><rect class="cls-7" x="156.48" y="326.78" width="12.09" height="9.39" rx="2.96"/><rect class="cls-3" x="172.3" y="326.78" width="12.09" height="9.39" rx="3.06"/><rect class="cls-8" x="140.66" y="339.51" width="12.09" height="9.39" rx="3"/><rect class="cls-9" x="156.48" y="339.51" width="12.09" height="9.39" rx="3.02"/><rect class="cls-2" x="172.3" y="339.51" width="12.09" height="9.39" rx="2.94"/><path class="cls-8" d="M104.58,390.07c-.39-1.06-4.43-11.4-9.67-11.54-1.27,0-3,1.17-4.2,1.47a13.24,13.24,0,0,1-7.15.05c-2.43-.68-4.06-1.89-5.64-1.55a6.42,6.42,0,0,0-2.44.86c-11.15,6.71-8.92,24.07-8.9,24.17a6.32,6.32,0,0,0,.77,2,2.89,2.89,0,0,0,2.09,1.54,6,6,0,0,0,2.41-.16,8.16,8.16,0,0,0,2.83-1.44c1.31-1,2.42-2.17,3.64-3.25a15.06,15.06,0,0,1,3-2.13,11.64,11.64,0,0,1,6.51-1.24A11.3,11.3,0,0,1,92,400.17a25.62,25.62,0,0,1,4.18,2.8c1.17.92,2.34,1.84,3.56,2.69a6.41,6.41,0,0,0,3.86,1.39,2.4,2.4,0,0,0,1.9-.69,4.18,4.18,0,0,0,1.16-2.25A27.06,27.06,0,0,0,104.58,390.07Z"/><path class="cls-7" d="M98.93,394.65a1.64,1.64,0,1,1,2.33,0A1.66,1.66,0,0,1,98.93,394.65Z"/><path class="cls-7" d="M96.08,394.46a1.68,1.68,0,0,1,0,2.33,1.66,1.66,0,0,1-2.41-2.28A1.69,1.69,0,0,1,96.08,394.46Z"/><path class="cls-7" d="M97.8,398.7a1.64,1.64,0,1,1,2.32-.06A1.64,1.64,0,0,1,97.8,398.7Z"/><path class="cls-9" d="M80.42,391.05a1.65,1.65,0,1,1,1.68,1.6A1.64,1.64,0,0,1,80.42,391.05Z"/><path class="cls-9" d="M73.73,391a1.65,1.65,0,1,1-1.7-1.62A1.67,1.67,0,0,1,73.73,391Z"/><path class="cls-9" d="M77.18,387.68a1.64,1.64,0,1,1,1.6-1.68A1.64,1.64,0,0,1,77.18,387.68Z"/><path class="cls-9" d="M77.1,394.37a1.65,1.65,0,1,1,0,3.3,1.66,1.66,0,0,1-1.66-1.59A1.68,1.68,0,0,1,77.1,394.37Z"/><path class="cls-7" d="M77.14,393.77A2.74,2.74,0,1,1,79.88,391,2.76,2.76,0,0,1,77.14,393.77Z"/><path class="cls-2" d="M116.67,288.3a5.05,5.05,0,0,1-5-4.86,4.64,4.64,0,0,1-4.19-4.64,5.52,5.52,0,0,1,0-.71,6.28,6.28,0,0,1,.63-10.46,4.25,4.25,0,0,1-.07-.8,4.72,4.72,0,0,1,3.67-4.62,5,5,0,0,1,10,1v20A5.06,5.06,0,0,1,116.67,288.3Zm-3.32-5.07a3.33,3.33,0,1,0,6.65,0v-2.82a2.24,2.24,0,0,0-1.92-.88,3.82,3.82,0,0,0-1.09.16.9.9,0,0,1-.28,0,.85.85,0,0,1-.28-1.66,5.56,5.56,0,0,1,1.65-.25,4.27,4.27,0,0,1,1.92.42V271.4c-.3,0-.59.05-.87.05a6.21,6.21,0,0,1-1.65-.22,1.67,1.67,0,0,0-1.11,1.77.83.83,0,0,1-.21.62.85.85,0,0,1-.59.3h-.06a.86.86,0,0,1-.85-.8,3.28,3.28,0,0,1,1.1-2.8,3.77,3.77,0,0,1-1-1.21.86.86,0,0,1,0-.65.88.88,0,0,1,.46-.47.77.77,0,0,1,.34-.08.84.84,0,0,1,.78.51,2.37,2.37,0,0,0,1.3,1.06l.22.08a4.06,4.06,0,0,0,1.25.18,6.63,6.63,0,0,0,.86-.07v-6.44a3.33,3.33,0,0,0-6.64-.39,3.32,3.32,0,0,0,1.45,1.54.69.69,0,0,1,.15.07,4.24,4.24,0,0,0,1.83.37h.34a.86.86,0,0,1,0,1.71h-.38a6.1,6.1,0,0,1-2.13-.36.86.86,0,0,0,0,.48.82.82,0,0,1-.15.64.87.87,0,0,1-.56.34h-.13a.85.85,0,0,1-.84-.72,2.35,2.35,0,0,1,.25-1.6,5.46,5.46,0,0,1-1.19-1.41,3,3,0,0,0-2.22,2.92,3.11,3.11,0,0,0,0,.43,4.24,4.24,0,0,1,3.49,2.29.85.85,0,0,1-.38,1.14.86.86,0,0,1-.39.09.84.84,0,0,1-.76-.47,2.65,2.65,0,0,0-2.44-1.37,4.53,4.53,0,0,0-2.62,4.12,4.62,4.62,0,0,0,1.63,3.5,5,5,0,0,1,1.32-.94,3.57,3.57,0,0,1,.48-3.18.88.88,0,0,1,.69-.34.85.85,0,0,1,.69,1.36,1.92,1.92,0,0,0-.22,1.71l.42,0a5.49,5.49,0,0,1,1.37.18.86.86,0,0,1-.21,1.69l-.21,0a3.76,3.76,0,0,0-1-.13,3,3,0,0,0-.66.07l-.13,0a3.19,3.19,0,0,0-1.65,1.12,2.78,2.78,0,0,0-.09.72,2.93,2.93,0,0,0,2.91,2.95h0a3.17,3.17,0,0,1,2.12-.84,4.11,4.11,0,0,1,2.4.88.85.85,0,0,1,.2,1.19.87.87,0,0,1-.7.36.9.9,0,0,1-.5-.16,2.45,2.45,0,0,0-1.41-.56,1.43,1.43,0,0,0-.87.31Z"/><path class="cls-10" d="M128.7,270.64l-.06-.13a.27.27,0,0,0-.5.22l.13.28a5.82,5.82,0,0,1-3.11,7.56.28.28,0,0,0,.11.53l.1,0a6.37,6.37,0,0,0,3.4-8.29Z"/><path class="cls-3" d="M133.81,275.13l-1.55-.65a9.66,9.66,0,0,0,0-2.52l1.56-.64a1,1,0,0,0,.51-1.25l-1.12-2.72a1,1,0,0,0-.51-.52,1,1,0,0,0-.74,0l-1.55.65a8.39,8.39,0,0,0-1.75-1.77l.63-1.57a.93.93,0,0,0,0-.73.9.9,0,0,0-.51-.52l-2.69-1.13a1,1,0,0,0-.74,0,1,1,0,0,0-.51.52l-.63,1.56a10.1,10.1,0,0,0-1.25-.08.28.28,0,0,0-.28.28v4.87a.28.28,0,0,0,.28.27,4,4,0,0,1,3.68,2.5A4.05,4.05,0,0,1,124.5,277a4.14,4.14,0,0,1-1.53.31.28.28,0,0,0-.28.27v4.89a.28.28,0,0,0,.28.27,9.31,9.31,0,0,0,1.25-.09l.63,1.56a1,1,0,0,0,.51.52,1,1,0,0,0,.37.08,1,1,0,0,0,.37-.08l2.69-1.12a1,1,0,0,0,.51-1.25l-.64-1.56a9.33,9.33,0,0,0,1.76-1.79l1.54.65a1,1,0,0,0,.74,0,.93.93,0,0,0,.51-.52l1.12-2.71A1,1,0,0,0,133.81,275.13Z"/><rect class="cls-6" x="111.35" y="408.16" width="24.11" height="16.97" rx="6" transform="translate(62.82 -13.65) rotate(8.48)"/><rect class="cls-9" x="133.29" y="410.62" width="24.11" height="16.97" rx="6" transform="translate(-36.85 14.66) rotate(-5.12)"/><rect class="cls-8" x="122.92" y="418.38" width="24.11" height="16.97" rx="6" transform="translate(153.55 -20.45) rotate(19.92)"/><path class="cls-8" d="M368,88.23a.46.46,0,0,0-.06.23.58.58,0,0,0,.13.35L373,94.57a.53.53,0,0,0,.42.2.55.55,0,0,0,.42-.2l4.86-5.76a.55.55,0,0,0-.41-.9h-1.53V78a.55.55,0,0,0-.54-.55h-5.6A.55.55,0,0,0,370,78v9.88h-1.52A.52.52,0,0,0,368,88.23Z"/><path class="cls-7" d="M359.65,77.68l-4.87,5.76a.59.59,0,0,0-.13.36.56.56,0,0,0,.55.54h1.52v9.88a.55.55,0,0,0,.55.55h5.6a.55.55,0,0,0,.54-.55V84.34h1.52a.54.54,0,0,0,.5-.31.55.55,0,0,0-.08-.59l-4.87-5.76a.54.54,0,0,0-.41-.2A.56.56,0,0,0,359.65,77.68Z"/><rect class="cls-8" x="352.04" y="97.6" width="8.84" height="7.87" rx="3.94"/><rect class="cls-7" x="372.58" y="97.6" width="8.84" height="7.87" rx="3.94"/><path class="cls-6" d="M364.54,97.6a2.23,2.23,0,0,0-2.23,2.23v3.41a2.24,2.24,0,0,0,2.23,2.23h2.19V97.6Z"/><path class="cls-2" d="M368.92,97.6h-2.19v7.87h2.19a2.25,2.25,0,0,0,2.23-2.23V99.83A2.24,2.24,0,0,0,368.92,97.6Z"/><rect class="cls-8" x="171.53" y="90.21" width="22.79" height="28.59" rx="5.34"/><rect class="cls-7" x="167.07" y="97.41" width="9" height="3.4" rx="1.7"/><rect class="cls-7" x="167.07" y="103.01" width="9" height="3.4" rx="1.7"/><rect class="cls-7" x="167.07" y="108.61" width="9" height="3.4" rx="1.7"/><circle class="cls-9" cx="184.1" cy="97.94" r="1.72"/><rect class="cls-9" x="180.99" y="100.21" width="6.23" height="5.91" rx="1.69"/><circle class="cls-3" cx="188.39" cy="102.52" r="1.72"/><rect class="cls-3" x="185.28" y="104.79" width="6.23" height="5.91" rx="1.69"/><circle class="cls-6" cx="180.67" cy="104.75" r="1.72"/><rect class="cls-6" x="177.56" y="107.02" width="6.23" height="5.91" rx="1.69"/><path class="cls-3" d="M312.7,157.51c0-1.43-1.94-2.69-4.83-3.38,2.89-.69,4.83-1.94,4.83-3.38,0-2.18-4.47-3.95-10-3.95s-10,1.77-10,3.95c0,1.44,1.93,2.69,4.82,3.38-2.89.69-4.82,2-4.82,3.38s2,2.75,5,3.43c-3,.68-5,2-5,3.43,0,2.18,4.46,3.95,10,3.95s10-1.77,10-3.95c0-1.47-2-2.75-5-3.43C310.67,160.26,312.7,159,312.7,157.51Z"/><path class="cls-2" d="M313.39,150.28c0-2.57-4.78-4.65-10.67-4.65S292,147.71,292,150.28v18.05c0,2.56,4.78,4.65,10.68,4.65s10.67-2.09,10.67-4.65ZM302.72,147c4.9,0,8.37,1.53,9.16,2.79a1,1,0,0,1,.17.52c0,.94-1.9,2.23-5,2.89a22.12,22.12,0,0,1-8.58,0c-3.14-.66-5-1.95-5-2.89a.87.87,0,0,1,.12-.42C294.18,148.58,297.69,147,302.72,147Z"/><path class="cls-2" d="M302.72,154.77a7.12,7.12,0,1,0,7.11,7.12,7.12,7.12,0,0,0-7.11-7.12m0,13.67a6.56,6.56,0,1,1,6.55-6.55,6.56,6.56,0,0,1-6.55,6.55"/><path class="cls-3" d="M302.72,155.33a6.56,6.56,0,1,0,6.55,6.56,6.56,6.56,0,0,0-6.55-6.56m0,12.76a6.21,6.21,0,1,1,6.2-6.2,6.21,6.21,0,0,1-6.2,6.2"/><path class="cls-2" d="M302.72,155.68a6.21,6.21,0,1,0,6.2,6.21,6.21,6.21,0,0,0-6.2-6.21"/><path class="cls-5" d="M301.72,163.8H303c.52,0,.88-.19.88-.7s-.39-.74-.88-.74h-1.3Zm0-2.48H303a.61.61,0,0,0,.67-.6c0-.45-.33-.6-.67-.6h-1.26Zm-1.62-2.46H303c1.08,0,2.26.26,2.26,1.56a1.4,1.4,0,0,1-.82,1.26,1.48,1.48,0,0,1,1.07,1.48c0,1.49-1.09,1.94-2.43,1.94h-3Z"/><path class="cls-11" d="M309.1,167.71h.09c.05,0,.12,0,.12.07s-.05.08-.11.08h-.1Zm-.12.48h.12V168h.07l.13.24h.12l-.15-.25c.08,0,.15-.05.15-.15s-.08-.17-.22-.17H309Zm-.17-.29a.38.38,0,0,1,.38-.39.4.4,0,0,1,0,.79A.37.37,0,0,1,308.81,167.9Zm-.14,0a.52.52,0,1,0,.52-.5A.5.5,0,0,0,308.67,167.9Z"/><rect class="cls-3" x="254.73" y="369.78" width="27.39" height="3.32" rx="1.66"/><circle class="cls-6" cx="283.05" cy="371.44" r="3.44"/><circle class="cls-9" cx="253.81" cy="371.44" r="3.44"/><path class="cls-9" d="M142.33,170.88l-9-7.39h17.9Zm-9-5.55v12.94h17.9V165.33l-8.95,7.39Z"/><path class="cls-7" d="M125.15,163.14h0l6.44,0a.91.91,0,0,0,.91-.91v-3c0-1.15,1.26-1.38,3.85-1.65,1.71-.18,10.76-.23,12.87,0,1.48.16,2.92.43,2.92,1.64v3h0a.91.91,0,0,0,.91.91h6.63a.92.92,0,0,0,.92-.92v-3c-.15-1.39-4-5.83-18.45-5.83-14.73,0-17.92,4.47-17.9,5.86l0,3h0A.92.92,0,0,0,125.15,163.14Z"/><g id="PIN_UBICACIÒN" data-name="PIN UBICACIÒN"><path class="cls-7" d="M428.86,210.42a.91.91,0,0,1-.79-.45c-2.35-3.94-10-17.19-10-22.25a10.82,10.82,0,0,1,21.63,0c0,2.2-1.44,6.18-4.27,11.82-2.25,4.49-4.77,8.79-5.75,10.43A.93.93,0,0,1,428.86,210.42Z"/><path class="cls-3" d="M420.86,187.19a8,8,0,1,1,8,8A8,8,0,0,1,420.86,187.19Zm2,0a5.95,5.95,0,1,0,5.95-5.94A6,6,0,0,0,422.89,187.19Z"/><circle class="cls-5" cx="428.71" cy="187.26" r="6.49"/></g><path id="CAJA" class="cls-2" d="M428.89,183l3.84,1.54a.09.09,0,0,1,.06.09v5.19a.1.1,0,0,1-.06.09l-3.84,1.53h-.07L425,189.87a.11.11,0,0,1-.06-.09v-5.19a.09.09,0,0,1,.06-.09l3.85-1.54A.15.15,0,0,1,428.89,183Zm-1.19.65,3.38,1.52,1.36-.54-3.59-1.44Zm-2.44,1,3.59,1.44,1.48-.59L426.84,184Zm-.16,5.13,3.66,1.46v-5l-3.66-1.46Zm6.06-4.4v5l-.77.29v-5l-1.44.58v5l3.65-1.46v-5Z"/><path class="cls-9" d="M424.46,338.36c-.43,0-.84-.06-1.24-.12a2.49,2.49,0,0,1-2.22-2,2.55,2.55,0,0,1,1.08-2.63c.26-.19.47-.31.37-.71q-1.47-6.51-2.9-13a.75.75,0,0,0-.92-.7c-1.16.05-2.32,0-3.48,0-.62,0-1.13-.18-1.14-.86s.47-.9,1.09-.89c1.57,0,3.15,0,4.72,0a1,1,0,0,1,1.17,1c.11.61.33,1.2.4,1.8s.34.73.9.73c6.63,0,13.26,0,19.89,0,.21,0,.41,0,.62,0a.86.86,0,0,1,.85,1.17c-1.13,4-2.28,8-3.42,12-.18.64-.64.77-1.24.77H424.21c-1.06,0-1.54.28-1.53.88s.48.86,1.54.86h14.47a4.86,4.86,0,0,1,.85.06.83.83,0,0,1,0,1.63c-.35.06-.7.07-1.09.11,1.5.92,2.05,2,1.67,3.31a2.63,2.63,0,0,1-2.72,1.83,2.59,2.59,0,0,1-2.34-2,2.64,2.64,0,0,1,1.68-3c-.53-.17-9.37-.23-10.56-.07,1.5.95,2,1.94,1.61,3.25a2.51,2.51,0,0,1-2.52,1.88,2.54,2.54,0,0,1-2.48-1.94C422.43,340.31,423,339.3,424.46,338.36Z"/><path class="cls-5" d="M431.81,322.63c3,0,6.08,0,9.12,0,.62,0,.75.13.57.72q-1.33,4.57-2.63,9.17c-.11.39-.23.59-.71.59-4.44,0-8.87,0-13.31,0-.43,0-.62-.1-.72-.55-.67-3.11-1.37-6.22-2.07-9.32-.12-.51.07-.6.54-.6C425.67,322.64,428.74,322.63,431.81,322.63Z"/><path class="cls-12" d="M425.31,341.79a.84.84,0,0,1-.85-.92.77.77,0,0,1,.84-.8.8.8,0,0,1,.87.86A.84.84,0,0,1,425.31,341.79Z"/><path class="cls-12" d="M437.63,341.79a.83.83,0,0,1-.87-.89.77.77,0,0,1,.83-.83.76.76,0,0,1,.85.79A.82.82,0,0,1,437.63,341.79Z"/><path class="cls-7" d="M440.28,381.7a3.36,3.36,0,0,1-3.2-2l-1-2.56-1.5-3.88-3-.93a1.16,1.16,0,0,1-.81-1.11V355.94a1.13,1.13,0,0,1,.47-.93,1.14,1.14,0,0,1,.69-.23,1.41,1.41,0,0,1,.35.05l3.31,1a1.18,1.18,0,0,1,.86.79l1.78,4.59,1,2.6a1.18,1.18,0,0,0,1,.47H441a1.18,1.18,0,0,0,1-.47l1.2-3.11,1.56-4a1.17,1.17,0,0,1,.78-.82l3.33-1a1.33,1.33,0,0,1,.34-.05,1.18,1.18,0,0,1,1.17,1.16v15.29a1.2,1.2,0,0,1-.82,1.14l-2.89.9s-1.49,3.86-1.5,3.87l-1,2.61A3.35,3.35,0,0,1,441,381.7Z"/><path class="cls-7" d="M445.87,357a0,0,0,0,1,0,0l-1.6,4.14-.19.5h0l-1,2.61a2.23,2.23,0,0,1-2.11,1.21h-.67a2.22,2.22,0,0,1-2.11-1.21l-1-2.57a0,0,0,0,0,0,0l-.2-.51-1.6-4.14h0L432,355.94v15.32l3.38,1.05h.12l1.51,3.91.2.51a0,0,0,0,1,0,0l1,2.57a2.22,2.22,0,0,0,2.11,1.21H441a2.23,2.23,0,0,0,2.11-1.21l1-2.61h0l.19-.5,1.51-3.91h0l3.38-1.05V355.94Z"/><path class="cls-3" d="M445.87,357a0,0,0,0,1,0,0l-1.6,4.14-.19.5h0l-1,2.61a2.23,2.23,0,0,1-2.11,1.21h-.67a2.22,2.22,0,0,1-2.11-1.21l-1-2.57a0,0,0,0,0,0,0l-.2-.51-1.6-4.14h0L432,355.94v15.32l3.38,1.05h.12l1.51,3.91.2.51a0,0,0,0,1,0,0l1,2.57a2.22,2.22,0,0,0,2.11,1.21H441a2.23,2.23,0,0,0,2.11-1.21l1-2.61h0l.19-.5,1.51-3.91h0l3.38-1.05V355.94Z"/><path class="cls-7" d="M440.83,369.53a1.71,1.71,0,1,1-3.42,0,1.6,1.6,0,0,1,1.73-1.71A1.55,1.55,0,0,1,440.83,369.53Zm-2.35,0c0,.76.24,1.12.65,1.12s.64-.38.64-1.13-.22-1.11-.64-1.11S438.47,368.79,438.48,369.55Z"/><path class="cls-7" d="M442.71,368.58h0l-.86.3-.18-.57,1.2-.41h.88v3.3h-1Z"/><path class="cls-8" d="M280.27,60.66A14.75,14.75,0,1,0,295,75.41,14.75,14.75,0,0,0,280.27,60.66Zm0,25.69a10.94,10.94,0,1,1,10.94-10.94A10.94,10.94,0,0,1,280.27,86.35Z"/><path class="cls-8" d="M280.27,67.68A7.74,7.74,0,1,0,288,75.41,7.73,7.73,0,0,0,280.27,67.68Zm0,12.25a4.52,4.52,0,1,1,4.51-4.52A4.52,4.52,0,0,1,280.27,79.93Z"/><path class="cls-8" d="M280.27,73.39a2,2,0,1,0,2,2A2,2,0,0,0,280.27,73.39Z"/><path class="cls-13" d="M255.84,80.28a2.34,2.34,0,0,0,2.34,2.34h19.41a2.34,2.34,0,0,0,2.33-2.34V73H255.84Z"/><path class="cls-13" d="M279.92,70.47a2.35,2.35,0,0,0-2.33-2.34H258.18a2.35,2.35,0,0,0-2.34,2.34v.43h24.08Z"/><path class="cls-9" d="M409.32,240.66a9.66,9.66,0,1,0,9.66,9.65A9.66,9.66,0,0,0,409.32,240.66Zm0,18.08a8.43,8.43,0,1,1,8.43-8.43A8.42,8.42,0,0,1,409.32,258.74Z"/><path class="cls-6" d="M420.78,240.66a9.66,9.66,0,1,0,9.66,9.65A9.65,9.65,0,0,0,420.78,240.66Zm0,18.08a8.43,8.43,0,1,1,8.43-8.43A8.42,8.42,0,0,1,420.78,258.74Z"/><path class="cls-7" d="M405.35,244.46A9.66,9.66,0,1,0,415,234.8,9.67,9.67,0,0,0,405.35,244.46Zm18.09,0A8.43,8.43,0,1,1,415,236,8.43,8.43,0,0,1,423.44,244.46Z"/><path class="cls-8" d="M405.34,256.17a9.66,9.66,0,1,0,9.66-9.65A9.66,9.66,0,0,0,405.34,256.17Zm18.09,0a8.43,8.43,0,1,1-8.43-8.43A8.42,8.42,0,0,1,423.43,256.17Z"/><path class="cls-14" d="M378.43,141.15h.11s.13,0,.13.08-.06.08-.13.08h-.11Zm-.13.53h.13v-.27h.08l.15.27h.14l-.17-.27a.16.16,0,0,0,.16-.17c0-.14-.09-.19-.25-.19h-.24Zm-.2-.31a.43.43,0,1,1,.43.45A.43.43,0,0,1,378.1,141.37Zm-.15,0a.58.58,0,0,0,1.16,0,.58.58,0,0,0-1.16,0Z"/><text class="cls-15" transform="translate(364.04 142.17) scale(1.01 1)">2583</text><use width="203.91" height="54.48" transform="translate(346.57 138.7) scale(0.06)" xlink:href="#Blue"/><g class="cls-16"><rect class="cls-9" x="341.8" y="123.22" width="0.61" height="16.95"/><rect class="cls-9" x="342.49" y="123.22" width="0.61" height="16.95"/><rect class="cls-8" x="343.45" y="123.22" width="0.91" height="16.95"/><rect class="cls-2" x="344.74" y="123.22" width="0.91" height="16.95"/><rect class="cls-2" x="346.6" y="123.22" width="0.56" height="14.77"/><rect class="cls-2" x="347.7" y="123.22" width="0.56" height="14.77"/><rect class="cls-2" x="348.47" y="123.22" width="0.56" height="14.77"/><rect class="cls-8" x="349.42" y="123.22" width="1.45" height="14.77"/><rect class="cls-2" x="351.42" y="123.22" width="0.53" height="14.77"/><rect class="cls-2" x="352.45" y="123.22" width="0.96" height="14.77"/><rect class="cls-9" x="353.61" y="123.22" width="0.53" height="14.77"/><rect class="cls-2" x="354.66" y="123.22" width="1.42" height="14.77"/><rect class="cls-6" x="358.99" y="123.22" width="1.11" height="14.77"/><rect class="cls-2" x="358.22" y="123.22" width="0.59" height="14.77"/><rect class="cls-7" x="360.47" y="123.22" width="0.59" height="16.95"/><rect class="cls-2" x="362" y="123.22" width="0.59" height="16.95"/><rect class="cls-2" x="362.84" y="123.22" width="0.59" height="16.95"/><rect class="cls-2" x="364.29" y="123.22" width="0.59" height="14.77"/><rect class="cls-2" x="365.49" y="123.22" width="1.15" height="14.77"/><rect class="cls-8" x="367.13" y="123.22" width="0.49" height="14.77"/><rect class="cls-9" x="368.04" y="123.22" width="0.49" height="14.77"/><rect class="cls-9" x="368.77" y="123.22" width="0.49" height="14.77"/><rect class="cls-7" x="370.66" y="123.22" width="0.76" height="14.77"/><rect class="cls-2" x="371.76" y="123.22" width="0.76" height="14.77"/><rect class="cls-2" x="373.13" y="123.22" width="0.54" height="16.95"/><rect class="cls-2" x="374.05" y="123.22" width="1.08" height="16.95"/><rect class="cls-6" x="375.73" y="123.22" width="0.59" height="16.95"/><rect class="cls-6" x="376.49" y="123.22" width="0.59" height="16.95"/><rect class="cls-9" x="356.65" y="123.22" width="0.59" height="14.77"/><rect class="cls-2" x="357.41" y="123.22" width="0.59" height="14.77"/></g><path class="cls-3" d="M324.94,64.21V50.84a2.41,2.41,0,0,0-2.4-2.41H303a2.41,2.41,0,0,0-2.4,2.41V64.21a2.41,2.41,0,0,0,2.4,2.41h19.51A2.41,2.41,0,0,0,324.94,64.21Zm-22.86,0V50.84a1,1,0,0,1,.95-1h19.51a1,1,0,0,1,.94,1V64.21a1,1,0,0,1-.94,1H303A1,1,0,0,1,302.08,64.21Z"/><path class="cls-2" d="M311.31,54.14a3.06,3.06,0,1,0-3,3A3.08,3.08,0,0,0,311.31,54.14Zm-3,1.29a1.32,1.32,0,1,1,1.28-1.29A1.3,1.3,0,0,1,308.27,55.43Z"/><path class="cls-2" d="M320.37,54.14a3.06,3.06,0,1,0-3,3A3.07,3.07,0,0,0,320.37,54.14Zm-3,1.29a1.32,1.32,0,1,1,1.28-1.29A1.3,1.3,0,0,1,317.33,55.43Z"/><path class="cls-3" d="M315.34,41.62a2.56,2.56,0,1,0-2.54,2.57A2.57,2.57,0,0,0,315.34,41.62Zm-2.54,1.09a1.11,1.11,0,1,1,1.07-1.09A1.09,1.09,0,0,1,312.8,42.71Z"/><path class="cls-2" d="M316.19,60.11a.73.73,0,0,0-1,.27,2.76,2.76,0,0,1-2.43,1.41h0a2.74,2.74,0,0,1-2.4-1.4.72.72,0,1,0-1.26.71,4.14,4.14,0,0,0,3.65,2.14h0a4.19,4.19,0,0,0,3.69-2.14A.72.72,0,0,0,316.19,60.11Z"/><rect class="cls-3" x="311.87" y="43.75" width="1.83" height="5.09"/><path class="cls-3" d="M324.53,52.86a5.19,5.19,0,0,0-1,.1v1.68a3.11,3.11,0,0,1,1.06-.18,3.22,3.22,0,0,1,0,6.44,3.42,3.42,0,0,1-1.06-.18v1.67a5.19,5.19,0,0,0,1,.11,4.82,4.82,0,1,0,0-9.64Z"/><path class="cls-3" d="M301,62.5a5,5,0,0,0,1-.11V60.72a3.31,3.31,0,0,1-1.05.18,3.22,3.22,0,0,1,0-6.44,3,3,0,0,1,1.05.18V53a5,5,0,0,0-1-.1,4.82,4.82,0,1,0,0,9.64Z"/><path class="cls-7" d="M104,153H94.22a.9.9,0,1,1,0-1.79H104a.9.9,0,1,1,0,1.79Z"/><path class="cls-7" d="M99.11,153a.89.89,0,0,1-.9-.89V144.7a.9.9,0,0,1,1.8,0v7.36A.89.89,0,0,1,99.11,153Z"/><rect class="cls-8" x="94.22" y="123.25" width="9.78" height="18.24" rx="4.84"/><path class="cls-9" d="M99.16,145.06h-.1a8.43,8.43,0,0,1-8.42-8.42.9.9,0,0,1,1.8,0,6.62,6.62,0,0,0,6.62,6.62h.1a6.62,6.62,0,0,0,6.62-6.62.9.9,0,0,1,1.79,0,8.42,8.42,0,0,1-8.41,8.42Z"/><path class="cls-8" d="M102.88,128.45a.36.36,0,0,1-.36-.36,3.37,3.37,0,0,0-3.36-3.36.36.36,0,0,1,0-.72,4.08,4.08,0,0,1,4.08,4.08A.36.36,0,0,1,102.88,128.45Z"/><path class="cls-5" d="M415.5,133.32H391.86a1.45,1.45,0,0,0-1.24,1.59v11.82a1.45,1.45,0,0,0,1.24,1.58H415.5a1.44,1.44,0,0,0,1.23-1.58V134.91A1.44,1.44,0,0,0,415.5,133.32Z"/><path class="cls-3" d="M416.13,129.21H401.36a.6.6,0,0,1-.62-.3l-1.3-2.42,0-.06a1.78,1.78,0,0,0-1.57-1.22h-6.62c-.32,0-.59.39-.59.85v3.29h0v3.18a2.28,2.28,0,0,1,1.24-.4H415.5a2.23,2.23,0,0,1,1.23.4v-2.47C416.73,129.6,416.46,129.21,416.13,129.21Z"/><path class="cls-7" d="M416.13,128H401.62l-1.12-2.08a2.94,2.94,0,0,0-2.66-1.93h-6.62a1.93,1.93,0,0,0-1.78,2v3.29h0v5.18a.43.43,0,0,0,0,.11,2.64,2.64,0,0,0,0,.28v11.82a2.62,2.62,0,0,0,2.42,2.77H415.5a2.62,2.62,0,0,0,2.42-2.77V134.91a2.66,2.66,0,0,0,0-.28.45.45,0,0,0,0-.11v-4.46A1.93,1.93,0,0,0,416.13,128Zm.6,18.71a1.44,1.44,0,0,1-1.23,1.58H391.86a1.45,1.45,0,0,1-1.24-1.58V134.91a1.45,1.45,0,0,1,1.24-1.59H415.5a1.44,1.44,0,0,1,1.23,1.59Zm0-14.2a2.23,2.23,0,0,0-1.23-.4H391.86a2.28,2.28,0,0,0-1.24.4v-3.18h0v-3.29c0-.46.27-.85.59-.85h6.62a1.78,1.78,0,0,1,1.57,1.22l0,.06,1.3,2.42a.6.6,0,0,0,.62.3h14.77c.33,0,.6.39.6.85Z"/><path class="cls-3" d="M416.73,146.73a1.44,1.44,0,0,1-1.23,1.58H391.86a1.45,1.45,0,0,1-1.24-1.58V134.91a1.45,1.45,0,0,1,1.24-1.59H415.5a1.44,1.44,0,0,1,1.23,1.59Z"/><path class="cls-2" d="M107.18,88.36c-.2-3.56,2-5.6,5.53-5.6,3.17,0,5.33,1.32,5.33,4.07,0,3.31-3.26,4.35-5.72,5.84v0h5.91v3.16H106.92a4.82,4.82,0,0,1,.94-3.2c1.08-1.5,3-2.49,4.63-3.49.67-.41,1.76-.93,1.76-1.88a1.41,1.41,0,0,0-1.57-1.58c-1.5,0-2,1.07-2,2.66Z"/><path class="cls-8" d="M128.89,86.07h-6.07l-.38,1.71,0,0a4.79,4.79,0,0,1,2.85-.77c2.33,0,4.26,1.34,4.26,4.39,0,2.63-2.08,4.56-5.85,4.56-4.82,0-5.7-2.94-5.59-4.22h3.69a1.61,1.61,0,0,0,.53.86,2.4,2.4,0,0,0,1.48.42,1.83,1.83,0,0,0,2-1.73,1.71,1.71,0,0,0-1.88-1.8,2,2,0,0,0-1.89.84h-3.49l1.35-7.47h9Z"/><path class="cls-7" d="M135.68,82.76c3.58,0,5.29,1.67,5.29,3.55a2.68,2.68,0,0,1-2,2.72v0a2.78,2.78,0,0,1,2.56,2.85c0,3.07-3.16,4.09-5.81,4.09-2.81,0-5.79-1-5.79-4.09a2.74,2.74,0,0,1,2.6-2.85v0a2.56,2.56,0,0,1-2-2.72C130.47,83.46,133.53,82.76,135.68,82.76Zm0,10.56c.92,0,2.1-.31,2.1-1.43s-.94-1.67-2.06-1.67-2.12.37-2.12,1.67C133.6,93,134.74,93.32,135.68,93.32Zm0-5.28c.92,0,2-.28,2-1.36,0-1.23-1-1.45-1.95-1.45s-1.87.28-1.87,1.45C133.81,87.7,134.76,88,135.66,88Z"/><path class="cls-9" d="M142,87.22a4.12,4.12,0,0,1,1.63-3.39,6.48,6.48,0,0,1,3.81-1.07c3.78,0,5,2.23,5,3.33,0,2.71-1.73,2.71-1.73,2.77v0c0,.14,2.14.14,2.14,3,0,1.58-1.2,4.07-5.47,4.07-5.87,0-5.89-4.09-5.8-5.06h3.57a2,2,0,0,0,.5,1.55,1.94,1.94,0,0,0,1.56.57c1.07,0,1.74-.39,1.74-1.45s-.88-1.34-1.74-1.34a6,6,0,0,0-1.09.1V87.83a10.57,10.57,0,0,0,1.09.08c.79,0,1.78-.17,1.78-1.17,0-.82-.94-1.14-1.71-1.14-1,0-1.83.54-1.8,1.62Z"/><path class="cls-3" d="M217.46,127.26l34.81-6.32L240,147.51l-9.12-12.37s.65.84.63.86l-3.74,4.4,1-8.6Z"/><polygon class="cls-2" points="229 131.69 252.27 120.94 231.54 136 227.8 140.4 228.76 131.81 229 131.69"/><polyline class="cls-17" points="227.8 140.4 231.54 136 232.72 137.59"/><path class="cls-3" d="M424.79,391.61a13.93,13.93,0,0,0-11.21-7v-.06h-1.8v.06a14,14,0,0,0-11.22,7h0l-.25.5-.69,1.31h.09a13.8,13.8,0,0,0-.92,4.22h-.06v1.8h.06a13.8,13.8,0,0,0,.92,4.21h-.09l.69,1.32.25.48h0a13.89,13.89,0,0,0,11.22,7v.06h1.8v-.06a13.87,13.87,0,0,0,11.21-7h0l.25-.48.68-1.32h-.1a13.54,13.54,0,0,0,.94-4.21h.05v-1.8h-.05a13.54,13.54,0,0,0-.94-4.22h.1l-.68-1.31-.25-.5Zm-17.26-4a14.35,14.35,0,0,0-2,4H402.8A11.9,11.9,0,0,1,407.53,387.63Zm-5.85,5.79h3.38a22.24,22.24,0,0,0-.54,4.22h-3.91A11.89,11.89,0,0,1,401.68,393.42Zm-1.07,6h3.91a22.24,22.24,0,0,0,.54,4.21h-3.38A11.89,11.89,0,0,1,400.61,399.44Zm2.19,6h2.77a14.28,14.28,0,0,0,2,4A11.84,11.84,0,0,1,402.8,405.45Zm9,5c-1.7-.5-3.23-2.31-4.25-5h4.25Zm0-6.82H407a21.26,21.26,0,0,1-.57-4.21h5.36Zm0-6h-5.36a21.36,21.36,0,0,1,.57-4.22h4.79Zm0-6h-4.25c1-2.7,2.55-4.52,4.25-5Zm10.78,0h-2.78a14.62,14.62,0,0,0-1.95-4A12,12,0,0,1,422.56,391.61Zm-9-5c1.69.49,3.22,2.31,4.25,5h-4.25Zm0,6.82h4.78a20.64,20.64,0,0,1,.57,4.22h-5.35Zm0,6h5.35a20.54,20.54,0,0,1-.57,4.21h-4.78Zm0,11v-5h4.25C416.8,408.16,415.27,410,413.58,410.47Zm4.25-1a14.55,14.55,0,0,0,1.95-4h2.78A12,12,0,0,1,417.83,409.44Zm5.84-5.79h-3.38a22.24,22.24,0,0,0,.54-4.21h3.92A11.9,11.9,0,0,1,423.67,403.65Zm-2.84-6a22.24,22.24,0,0,0-.54-4.22h3.38a11.9,11.9,0,0,1,1.08,4.22Z"/><rect class="cls-7" x="189.42" y="141.09" width="23.73" height="12.76" rx="0.93"/><rect class="cls-9" x="189.42" y="143.26" width="23.73" height="12.76" rx="0.93"/><rect class="cls-8" x="189.42" y="145.45" width="23.73" height="12.76" rx="0.93"/><path class="cls-3" d="M201.28,150.33a3.81,3.81,0,0,1-3.65-2.71H191a1.78,1.78,0,0,0-1.78,1.78v21.27a1.78,1.78,0,0,0,1.78,1.78h20.62a1.79,1.79,0,0,0,1.79-1.78V149.4a1.79,1.79,0,0,0-1.79-1.78h-6.65A3.82,3.82,0,0,1,201.28,150.33Z"/><path class="cls-2" d="M201.28,152.87a8.33,8.33,0,1,0,8.32,8.33,8.33,8.33,0,0,0-8.32-8.33m0,16A7.67,7.67,0,1,1,209,161.2a7.66,7.66,0,0,1-7.67,7.66"/><path class="cls-3" d="M201.28,153.53a7.67,7.67,0,1,0,7.67,7.66,7.66,7.66,0,0,0-7.67-7.66m0,14.92a7.26,7.26,0,1,1,7.26-7.26,7.26,7.26,0,0,1-7.26,7.26"/><path class="cls-2" d="M201.28,153.94a7.26,7.26,0,1,0,7.26,7.26,7.26,7.26,0,0,0-7.26-7.26"/><path class="cls-5" d="M200.12,163.43h1.52c.6,0,1-.21,1-.82s-.45-.86-1-.86h-1.52Zm0-2.9h1.47a.71.71,0,0,0,.78-.7c0-.53-.38-.7-.78-.7h-1.47Zm-1.9-2.88h3.41c1.26,0,2.64.31,2.64,1.83a1.65,1.65,0,0,1-1,1.48,1.72,1.72,0,0,1,1.26,1.72c0,1.74-1.28,2.27-2.85,2.27h-3.5Z"/><path class="cls-14" d="M208.74,168h.11c.06,0,.14,0,.14.08s-.06.09-.13.09h-.12Zm-.13.55h.13v-.28h.08l.16.28h.14l-.18-.29a.16.16,0,0,0,.18-.17c0-.14-.09-.2-.26-.2h-.25Zm-.21-.33a.45.45,0,1,1,.45.47A.45.45,0,0,1,208.4,168.23Zm-.16,0a.61.61,0,1,0,.61-.58A.59.59,0,0,0,208.24,168.23Z"/><circle class="cls-2" cx="392.7" cy="191.1" r="14.65"/><circle class="cls-5" cx="392.7" cy="191.1" r="8.36"/><circle class="cls-3" cx="392.7" cy="191.1" r="3.6"/><path class="cls-9" d="M114,178.13h-13.7A2.26,2.26,0,0,0,98,180.38V207a2.25,2.25,0,0,0,2.25,2.25H114a2.25,2.25,0,0,0,2.25-2.25V180.38A2.26,2.26,0,0,0,114,178.13Zm1.23,27.6H99.05v-24h16.16Z"/><path class="cls-13" d="M83.47,175.72H81.91l-.63,2.67H61.45l-1.06-6.52a1.52,1.52,0,0,0-1.28-1.28H53.4a.64.64,0,1,0,0,1.28h4.43c.87,0,1.16.43,1.28,1.28l2.56,17.95H80.91v-1.28H63l-.37-2.56H80.91ZM79,193.67a1.92,1.92,0,1,0,1.92,1.92A1.93,1.93,0,0,0,79,193.67Zm-15.39,0a1.92,1.92,0,1,0,1.92,1.92A1.93,1.93,0,0,0,63.6,193.67Z"/><path class="cls-5" d="M76.29,184a.81.81,0,0,0-1.36-.61v2.3a.22.22,0,0,1-.22.22.22.22,0,0,1-.23-.22v-2.59a.81.81,0,0,0-.77-.57.79.79,0,0,0-.57.23v2.93a.22.22,0,0,1-.23.22.22.22,0,0,1-.22-.22v-3s0,0,0,0a.81.81,0,0,0-1.46-.38v3.36a.22.22,0,0,1-.22.22.22.22,0,0,1-.23-.22V180a.83.83,0,0,0-1.66,0v6.9a.21.21,0,0,1-.17.21.22.22,0,0,1-.25-.1l-1.44-2.61a.81.81,0,0,0-.65-.32.83.83,0,0,0-.48.15.85.85,0,0,0-.3.9l0,.07a.75.75,0,0,0,.07.12v0l3.38,6.93h6l1-4.28Z"/><path class="cls-9" d="M68.91,192.28h.4v0h-.47Z"/><path class="cls-9" d="M75.27,192.28h.3l.09,0h-.38Z"/><path class="cls-9" d="M75.79,192.1l.94-4a.07.07,0,0,0,0-.05v-4a1.27,1.27,0,0,0-1.27-1.27,1.23,1.23,0,0,0-.57.14l-.05-.06a1.28,1.28,0,0,0-1.14-.73,1.2,1.2,0,0,0-.69.21,1.27,1.27,0,0,0-1.15-.74,1.32,1.32,0,0,0-.65.18V180a1.28,1.28,0,1,0-2.56,0v6l-1-1.86,0,0a1.26,1.26,0,0,0-1.76-.28,1.27,1.27,0,0,0-.34,1.68l3.19,6.61a.22.22,0,0,0,.12.11h.47l-3.38-6.93v0a.75.75,0,0,1-.07-.12l0-.07a.85.85,0,0,1,.3-.9.83.83,0,0,1,.48-.15.81.81,0,0,1,.65.32L68.69,187a.22.22,0,0,0,.25.1.21.21,0,0,0,.17-.21V180a.83.83,0,0,1,1.66,0v5.63a.22.22,0,0,0,.23.22.22.22,0,0,0,.22-.22v-3.36a.81.81,0,0,1,1.46.38s0,0,0,0v3a.22.22,0,0,0,.22.22.22.22,0,0,0,.23-.22v-2.93a.79.79,0,0,1,.57-.23.81.81,0,0,1,.77.57v2.59a.22.22,0,0,0,.23.22.22.22,0,0,0,.22-.22v-2.3a.81.81,0,0,1,1.36.61v4l-1,4.28h.38A.21.21,0,0,0,75.79,192.1Z"/><path class="cls-3" d="M71.44,178.42a.32.32,0,0,1-.11-.42l1-1.7a.3.3,0,0,1,.42-.11.32.32,0,0,1,.11.42l-1,1.7A.32.32,0,0,1,71.44,178.42Z"/><path class="cls-3" d="M70,178a.33.33,0,0,1-.15-.27v-2a.31.31,0,0,1,.61,0v2a.31.31,0,0,1-.31.31A.42.42,0,0,1,70,178Z"/><path class="cls-3" d="M68.52,178.41a.23.23,0,0,1-.11-.11l-1-1.7a.31.31,0,1,1,.53-.31l1,1.71a.31.31,0,0,1-.11.41A.29.29,0,0,1,68.52,178.41Z"/><path class="cls-3" d="M67.45,179.48l-1.7-1a.3.3,0,1,1,.3-.52l1.7,1a.31.31,0,0,1,.12.42A.3.3,0,0,1,67.45,179.48Z"/><path class="cls-3" d="M65.09,180.94a.32.32,0,0,1-.16-.27.3.3,0,0,1,.31-.3h2a.3.3,0,0,1,.3.31.29.29,0,0,1-.3.3h-2A.33.33,0,0,1,65.09,180.94Z"/><path class="cls-3" d="M72.9,181a.3.3,0,0,1-.15-.26.3.3,0,0,1,.3-.31h2a.29.29,0,0,1,.3.3.3.3,0,0,1-.3.31h-2A.24.24,0,0,1,72.9,181Z"/><path class="cls-3" d="M72.51,179.49a.29.29,0,0,1-.11-.11.3.3,0,0,1,.11-.42l1.71-1a.31.31,0,0,1,.41.11.3.3,0,0,1-.11.42l-1.71,1A.29.29,0,0,1,72.51,179.49Z"/><path class="cls-2" d="M228.35,358.89a12.58,12.58,0,0,0-12.53,11.28,9.9,9.9,0,0,0-.06,1.21,12.35,12.35,0,0,0,2.4,7.33l-1.56,4.65,4.83-1.54a12.59,12.59,0,0,0,19.51-10.44c0-.31,0-.64,0-1A12.57,12.57,0,0,0,228.35,358.89Z"/><path class="cls-2" d="M228.35,356.54a14.88,14.88,0,0,0-14.94,14.2,4.5,4.5,0,0,0,0,.64,14.81,14.81,0,0,0,2.15,7.68l-2.72,8,8.31-2.63a15,15,0,0,0,22.22-13c0-.13,0-.23,0-.36A14.92,14.92,0,0,0,228.35,356.54Zm0,27.35a12.55,12.55,0,0,1-6.92-2.07l-4.83,1.54,1.56-4.65a12.35,12.35,0,0,1-2.4-7.33,9.9,9.9,0,0,1,.06-1.21,12.6,12.6,0,0,1,25.09.24c0,.33,0,.66,0,1A12.56,12.56,0,0,1,228.35,383.89Z"/><path class="cls-3" d="M228.32,357.93a13.52,13.52,0,0,0-13.58,12.9,3.76,3.76,0,0,0,0,.59,14.73,14.73,0,0,0,2.13,7.27L214.75,385l6.63-1.89a15.32,15.32,0,0,0,6.94,1.87A13.56,13.56,0,0,0,242,371.42c0-.12,0-.21,0-.33A13.58,13.58,0,0,0,228.32,357.93Zm0,26a12.55,12.55,0,0,1-6.92-2.07l-4.83,1.54,1.56-4.65a12.35,12.35,0,0,1-2.4-7.33,9.9,9.9,0,0,1,.06-1.21,12.6,12.6,0,0,1,25.09.24c0,.33,0,.66,0,1A12.56,12.56,0,0,1,228.35,383.89Z"/><path class="cls-5" d="M226.27,374.86h2.49c1,0,1.67-.35,1.67-1.34s-.74-1.39-1.67-1.39h-2.49Zm0-4.74h2.4a1.15,1.15,0,0,0,1.27-1.13c0-.86-.62-1.15-1.27-1.15h-2.4Zm-3.1-4.68h5.57c2,0,4.3.5,4.3,3a2.66,2.66,0,0,1-1.57,2.4,2.83,2.83,0,0,1,2.05,2.82c0,2.84-2.08,3.7-4.63,3.7h-5.72Z"/><rect class="cls-3" x="268.06" y="425.17" width="22.48" height="22.48" transform="translate(-41.06 29.19) rotate(-5.57)"/><rect class="cls-8" x="265.94" y="424.27" width="22.48" height="22.48" transform="translate(-33.02 22.87) rotate(-4.46)"/><rect class="cls-7" x="266.09" y="424.09" width="22.48" height="22.48" transform="translate(18.51 -11.25) rotate(2.41)"/><rect class="cls-6" x="267.95" y="425.47" width="22.48" height="22.48" transform="translate(26.63 -15.92) rotate(3.43)"/><path class="cls-5" d="M286,428.79l.45.24-1.67,3.13a2.71,2.71,0,0,1-.72.86h0s-.06,0-.06,0h0a3,3,0,0,1,.33-1.08Z"/><path class="cls-2" d="M287.55,430.59a1.92,1.92,0,0,0,.1-1.62l1.21-3.2c.21.05.36.05.4,0s-.34-.49-.91-.8-1.09-.44-1.16-.31.05.19.21.33l-2,2.79a2,2,0,0,0-1.3,1Z"/><path class="cls-3" d="M458.59,249.88H437.2a2.18,2.18,0,0,1-1.61-3.63,11.5,11.5,0,0,0,3-7.75v-.29a9.31,9.31,0,0,1,9.49-9.31,9.51,9.51,0,0,1,9.14,9.6,11.5,11.5,0,0,0,3,7.75,2.18,2.18,0,0,1-1.61,3.63Z"/><path class="cls-5" d="M442.15,236.08a.46.46,0,0,1-.23-.06.5.5,0,0,1-.22-.67,6.92,6.92,0,0,1,6.32-3.78.49.49,0,0,1,.49.51.51.51,0,0,1-.5.49,5.91,5.91,0,0,0-5.42,3.23A.49.49,0,0,1,442.15,236.08Z"/><path class="cls-3" d="M447.89,254.06a4.69,4.69,0,0,1-4.68-4.68.5.5,0,0,1,.5-.5h8.37a.5.5,0,0,1,.5.5A4.69,4.69,0,0,1,447.89,254.06Zm-3.64-4.18a3.68,3.68,0,0,0,7.29,0Zm0,0a3.68,3.68,0,0,0,7.29,0Zm7.29,0h-7.29"/><path class="cls-3" d="M450.18,230.22l-.14,0a7.74,7.74,0,0,0-2-.3,8,8,0,0,0-2.31.29.5.5,0,0,1-.63-.49V227a2.79,2.79,0,1,1,5.57,0v2.68a.51.51,0,0,1-.2.4A.54.54,0,0,1,450.18,230.22Zm-2.27-1.32h.16a8.92,8.92,0,0,1,1.61.18v-2a1.79,1.79,0,1,0-3.57,0v2A10,10,0,0,1,447.91,228.9Z"/><path class="cls-2" d="M444.25,249.88a3.68,3.68,0,0,0,7.29,0Z"/><g class="cls-18"><rect class="cls-8" x="307.18" y="116.81" width="19.43" height="5.16"/><rect class="cls-9" x="304.95" y="109.79" width="23.89" height="5.16"/><rect class="cls-3" x="302.58" y="102.77" width="28.62" height="5.16"/><rect class="cls-2" x="300.37" y="95.74" width="33.05" height="5.16"/></g><rect class="cls-9" x="27.05" y="269.13" width="11.32" height="16.91"/><rect class="cls-8" x="39.76" y="269.13" width="11.32" height="16.91"/><rect class="cls-6" x="52.47" y="269.13" width="11.32" height="16.91"/><g id="g6829" class="cls-19"><g id="path6680"><path class="cls-9" d="M338.42,255h-10.8a.5.5,0,0,1-.51-.5c0-4.55.55-7,3.64-8.55a3.17,3.17,0,0,1-.94-2.25,3.21,3.21,0,0,1,6.42,0,3.17,3.17,0,0,1-.94,2.25c3.09,1.56,3.64,4,3.64,8.55A.5.5,0,0,1,338.42,255Zm-10.29-1h9.78c-.05-4.35-.78-6-3.09-7.14a.54.54,0,0,1-.27-.34,3.31,3.31,0,0,1-3.06,0,.54.54,0,0,1-.27.34C328.91,248,328.18,249.62,328.13,254ZM333,241.48a2.2,2.2,0,1,0,2.19,2.2A2.2,2.2,0,0,0,333,241.48Z"/></g><g id="path6682"><path class="cls-6" d="M325.59,255h-8.1a.5.5,0,0,1-.5-.5c0-4.55.54-7,3.63-8.55a3.16,3.16,0,0,1-.93-2.25,3.21,3.21,0,1,1,5.48,2.25,6.43,6.43,0,0,1,2,1.54.51.51,0,0,1-.06.71.5.5,0,0,1-.71-.06,5.34,5.34,0,0,0-1.74-1.29.49.49,0,0,1-.26-.34,3.33,3.33,0,0,1-3.07,0,.51.51,0,0,1-.27.34c-2.31,1.16-3,2.79-3.09,7.14h7.59a.51.51,0,0,1,.51.51A.5.5,0,0,1,325.59,255Zm-2.7-13.5a2.2,2.2,0,1,0,2.2,2.2A2.2,2.2,0,0,0,322.89,241.48Z"/></g><g id="path6684"><path class="cls-8" d="M348.55,255h-8.1a.5.5,0,0,1-.51-.5.51.51,0,0,1,.51-.51H348c-.05-4.35-.78-6-3.09-7.14a.51.51,0,0,1-.27-.34,3.33,3.33,0,0,1-3.07,0,.49.49,0,0,1-.26.34,5.18,5.18,0,0,0-1.73,1.29.51.51,0,0,1-.78-.65,6.43,6.43,0,0,1,2-1.54,3.2,3.2,0,1,1,5.48-2.25,3.16,3.16,0,0,1-.93,2.25c3.09,1.56,3.63,4,3.63,8.55A.5.5,0,0,1,348.55,255Zm-5.4-13.5a2.2,2.2,0,1,0,2.19,2.2A2.21,2.21,0,0,0,343.15,241.48Z"/></g><g id="path6686"><path class="cls-3" d="M333,238.11a.49.49,0,0,1-.23-.06c-3-1.51-7.06-5.33-6.59-9.09a4.29,4.29,0,0,1,3.13-3.59,3.94,3.94,0,0,1,.6-.05,3.73,3.73,0,0,1,3.09,1.55,3.73,3.73,0,0,1,3.09-1.55,3.94,3.94,0,0,1,.6.05,4.29,4.29,0,0,1,3.13,3.59c.47,3.76-3.57,7.58-6.59,9.09A.46.46,0,0,1,333,238.11Zm-3.09-11.78a3.13,3.13,0,0,0-.44,0,3.28,3.28,0,0,0-2.28,2.72c-.4,3.14,3.15,6.52,5.81,7.94,2.66-1.42,6.21-4.8,5.82-7.94a3.31,3.31,0,0,0-2.29-2.72,3.13,3.13,0,0,0-.44,0,2.58,2.58,0,0,0-2.6,1.92.5.5,0,0,1-.49.38.51.51,0,0,1-.49-.38A2.58,2.58,0,0,0,329.93,226.33Z"/></g><g id="path6731"><path class="cls-2" d="M341.8,238.11a.46.46,0,0,1-.23-.06,14.73,14.73,0,0,1-3.06-2.11.51.51,0,0,1-.05-.71.52.52,0,0,1,.72,0A13.65,13.65,0,0,0,341.8,237c2.65-1.42,6.2-4.8,5.81-7.94a3.3,3.3,0,0,0-2.28-2.72,2.61,2.61,0,0,0-3,1.88.51.51,0,0,1-.49.38h0a.5.5,0,0,1-.49-.38,2.4,2.4,0,0,0-1.23-1.58.5.5,0,0,1-.21-.69.5.5,0,0,1,.68-.21,3.36,3.36,0,0,1,1.25,1.11,3.72,3.72,0,0,1,3.68-1.51,4.28,4.28,0,0,1,3.14,3.59c.47,3.76-3.58,7.58-6.6,9.09A.46.46,0,0,1,341.8,238.11Z"/></g><g id="path6690"><path class="cls-2" d="M324.24,238.11a.46.46,0,0,1-.22-.06c-3-1.51-7.07-5.33-6.6-9.09a4.3,4.3,0,0,1,3.14-3.59,3.72,3.72,0,0,1,3.68,1.51,3.36,3.36,0,0,1,1.25-1.11.51.51,0,0,1,.69.21.52.52,0,0,1-.21.69,2.37,2.37,0,0,0-1.23,1.58.51.51,0,0,1-1,0,2.61,2.61,0,0,0-3-1.88,3.3,3.3,0,0,0-2.28,2.72c-.39,3.14,3.16,6.52,5.81,7.94a13.65,13.65,0,0,0,2.62-1.85.52.52,0,0,1,.72,0,.51.51,0,0,1-.05.71,14.23,14.23,0,0,1-3.06,2.11A.46.46,0,0,1,324.24,238.11Z"/></g></g><path class="cls-7" d="M367.17,289h20.55a1.24,1.24,0,0,0,1.24-1.23V265.81a2.14,2.14,0,0,0-.68-1.48l-5.88-5.16a2.51,2.51,0,0,0-1.48-.56H367.17a1.24,1.24,0,0,0-1.23,1.23v27.91A1.23,1.23,0,0,0,367.17,289Zm15-27.59,3.61,3.18h-3.61Zm-14.36-.93h12.51v4.72a1.23,1.23,0,0,0,1.23,1.23h5.59v20.72H367.78V260.46Z"/><rect class="cls-3" x="370.66" y="272.17" width="1.81" height="1.81"/><rect class="cls-3" x="374.06" y="272.17" width="10.17" height="1.81"/><rect class="cls-2" x="370.66" y="276.31" width="1.81" height="1.81"/><rect class="cls-3" x="374.06" y="276.31" width="10.17" height="1.81"/><rect class="cls-3" x="370.66" y="280.45" width="1.81" height="1.81"/><rect class="cls-3" x="374.06" y="280.45" width="10.17" height="1.81"/><polygon class="cls-6" points="161.89 243.07 147.04 252.5 145.62 249.84 160.47 240.41 161.89 243.07"/><polygon class="cls-6" points="175.53 227.9 163.32 243.36 161.1 241.24 173.31 225.79 175.53 227.9"/><circle class="cls-2" cx="147.14" cy="251.14" r="3.44"/><circle class="cls-8" cx="162.43" cy="241.49" r="3.44"/><circle class="cls-9" cx="174.06" cy="227.5" r="3.44"/><rect class="cls-3" x="455.66" y="263.95" width="1.13" height="31.59" transform="translate(200.99 -190.63) rotate(30)"/><path class="cls-3" d="M456.32,267.17c8,0,9.89,5.2,9.89,12.4s-1.89,12.4-9.89,12.4-9.89-5.2-9.89-12.4S448.32,267.17,456.32,267.17Zm0,22.72c4.66,0,6.48-2.77,6.48-10.32s-1.82-10.31-6.48-10.31-6.48,2.76-6.48,10.31S451.67,289.89,456.32,289.89Z"/><rect class="cls-2" x="440.43" y="279.18" width="31.59" height="1.13" transform="translate(-14.16 534.97) rotate(-60)"/><path class="cls-7" d="M356.1,179.05l-2.82-16.5a9,9,0,0,1-.1-1.41,4.48,4.48,0,0,1,1.05-3.08c.7-.79,2-1.19,3.87-1.19a7.28,7.28,0,0,1,3.17.57,3.19,3.19,0,0,1,1.59,1.52,5.51,5.51,0,0,1,.42,2.25c0,.3,0,.75-.07,1.34l-2.84,16.5Zm-2.27,5.7a3.69,3.69,0,0,1,1.23-2.93,4.47,4.47,0,0,1,3-1.08,4.64,4.64,0,0,1,1.65.3,4.2,4.2,0,0,1,1.36.84,4,4,0,0,1,.93,1.28,3.69,3.69,0,0,1,.34,1.59,4.16,4.16,0,0,1-1.21,3,4.37,4.37,0,0,1-6.13,0A4.17,4.17,0,0,1,353.83,184.75Z"/><path class="cls-6" d="M78.8,310.25h-20a1.21,1.21,0,0,0-1.2,1.21v26.31a1.2,1.2,0,0,0,1.2,1.2h20a1.21,1.21,0,0,0,1.21-1.2V311.46A1.22,1.22,0,0,0,78.8,310.25Zm-.49,26.19a1.21,1.21,0,0,1-1.2,1.21H60.53a1.21,1.21,0,0,1-1.2-1.21v-23.3a1.2,1.2,0,0,1,1.2-1.2H77.11a1.2,1.2,0,0,1,1.2,1.2Z"/><rect class="cls-6" x="64.56" y="309.17" width="8.53" height="3.96" rx="1.98"/><rect class="cls-6" x="60.53" y="318.18" width="16.58" height="1.8" rx="0.9"/><rect class="cls-6" x="60.53" y="321.8" width="16.58" height="1.8" rx="0.9"/><rect class="cls-6" x="60.53" y="325.42" width="16.58" height="1.8" rx="0.9"/><rect class="cls-6" x="60.53" y="329.04" width="16.58" height="1.8" rx="0.9"/><rect class="cls-8" x="74.67" y="328.84" width="6.78" height="3.24" transform="translate(-160.62 88.95) rotate(-31.37)"/><path class="cls-8" d="M82.09,326.11l-1.54.93,1.69,2.77,1.54-.93a1,1,0,0,0,.32-1.32l-.69-1.13A1,1,0,0,0,82.09,326.11Z"/><polygon class="cls-8" points="72.39 333.92 73.54 333.89 72.94 332.91 72.39 333.92"/><polygon class="cls-8" points="73.95 331.07 73.11 332.61 73.88 333.88 75.64 333.84 73.95 331.07"/><g id="g6885" class="cls-19"><g id="path6794"><path class="cls-3" d="M186.35,67.3a.31.31,0,0,1-.21-.07l-10.53-7.78a.35.35,0,0,1-.07-.48.34.34,0,0,1,.48-.07l10.33,7.63,10.32-7.63a.34.34,0,0,1,.48.07.35.35,0,0,1-.07.48l-10.53,7.78A.31.31,0,0,1,186.35,67.3Z"/></g><g id="path6801"><path class="cls-3" d="M195.5,72.79H177.19a1.72,1.72,0,0,1-1.72-1.72V59.17a.32.32,0,0,1,.14-.27l7.2-4.77a.35.35,0,0,1,.48.07.33.33,0,0,1-.07.48l-7.06,4.66v.36l7,5.31,2.94,2.22,10.08-7.48.31-.41L196.1,59a.34.34,0,0,1-.08-.48.35.35,0,0,1,.48-.07l.58.42a.32.32,0,0,1,.14.27v11.9A1.72,1.72,0,0,1,195.5,72.79Z"/></g></g><g id="g6877" class="cls-19"><g id="path6733"><path class="cls-6" d="M186.68,61.05l-.14,0a.36.36,0,0,1-.19-.31V58.3h-1a1.69,1.69,0,0,1-1.66-1.71V43.31a1.7,1.7,0,0,1,1.66-1.72h19.07a.34.34,0,0,1,.33.35.34.34,0,0,1-.33.34H185.35a1,1,0,0,0-1,1V56.59a1,1,0,0,0,1,1h1.33A.33.33,0,0,1,187,58v2l2.56-2.26a.35.35,0,0,1,.22-.08h13.3a1,1,0,0,0,1-1V41.94a.34.34,0,1,1,.67,0V56.59a1.69,1.69,0,0,1-1.66,1.71H189.91l-3,2.67A.35.35,0,0,1,186.68,61.05Z"/></g><g id="path6735"><path class="cls-6" d="M198.08,56H186.24a.34.34,0,0,1,0-.68h11.84a.34.34,0,0,1,0,.68Zm4.43-2.29H186.24a.34.34,0,0,1,0-.68h16.27a.34.34,0,0,1,0,.68Zm0-2.28H186.24a.34.34,0,0,1-.33-.35.34.34,0,0,1,.33-.34h16.27a.34.34,0,0,1,.33.34A.34.34,0,0,1,202.51,51.44Zm0-2.29H186.24a.34.34,0,0,1-.33-.35.34.34,0,0,1,.33-.34h16.27a.34.34,0,0,1,.33.34A.34.34,0,0,1,202.51,49.15Zm0-2.29H186.24a.34.34,0,0,1-.33-.35.34.34,0,0,1,.33-.34h16.27a.34.34,0,0,1,.33.34A.34.34,0,0,1,202.51,46.86Zm0-2.29H186.24a.34.34,0,0,1-.33-.34.34.34,0,0,1,.33-.35h16.27a.34.34,0,0,1,.33.35A.34.34,0,0,1,202.51,44.57Z"/></g></g><path class="cls-20" d="M332.49,336.43Zm0,0a16.85,16.85,0,0,0,5.3-.36c1.83-.5,3.38-1.56,3.65-3.45.38-2.65-.23-4.19-2-4.53a18.74,18.74,0,0,0-2.48-.32,7.35,7.35,0,0,0-5.93-2.36c-3.83.07-4.88,3.47-5.46,5.42s-.29,3,.24,3.67a3,3,0,0,0,2.54.92,3.17,3.17,0,0,0,2.1-.61,2.37,2.37,0,0,0,.7-1.27,14.73,14.73,0,0,0,.21-3.2.76.76,0,0,0-.76-.74.74.74,0,0,0-.75.76,15.65,15.65,0,0,1-.11,2.53,1.37,1.37,0,0,1-.3.8.67.67,0,0,1-.32.14,4.87,4.87,0,0,1-.83.08,1.55,1.55,0,0,1-1.31-.36c-.33-.41-.32-1.11,0-2.28.45-1.51,1.09-4.3,4.05-4.35a5.7,5.7,0,0,1,4.87,2,.78.78,0,0,0,.62.35,16.21,16.21,0,0,1,2.6.3,1,1,0,0,1,.85.95,6.07,6.07,0,0,1-.05,1.88c-.19,1.28-1.33,1.87-2.56,2.21a15,15,0,0,1-4.74.32.75.75,0,0,0-.16,1.5Z"/><path class="cls-20" d="M333.4,338.39a13.55,13.55,0,0,1-1.25,4.89,10.48,10.48,0,0,0-.6,5.47,27.44,27.44,0,0,0,1.14,5.2.76.76,0,1,0,1.43-.49,25.64,25.64,0,0,1-1.07-4.88,8.88,8.88,0,0,1,.45-4.64,15,15,0,0,0,1.41-5.5.75.75,0,0,0-.73-.78A.76.76,0,0,0,333.4,338.39Z"/><path class="cls-20" d="M327.56,341c.08,4.48.1,9.59,1.71,13.72a4.54,4.54,0,0,0,1.33,2.1c.73.56,1.77.64,3.76.6a.76.76,0,0,0,0-1.51,17.19,17.19,0,0,1-2,0,1.75,1.75,0,0,1-.86-.27,3.34,3.34,0,0,1-.84-1.45c-1.54-4-1.52-8.89-1.6-13.19a.74.74,0,0,0-.76-.74A.76.76,0,0,0,327.56,341Z"/><path class="cls-20" d="M322.5,347.45c1.86,1,2.93,3.5,2.75,6.21a.76.76,0,0,0,.7.8.74.74,0,0,0,.8-.7c.23-3.35-1.22-6.36-3.52-7.63a.75.75,0,1,0-.73,1.32Z"/><path class="cls-20" d="M325.37,336.89c-1,2.87-1.91,4.27-4.68,6.94a12.2,12.2,0,0,0-3.18,6.39,22.76,22.76,0,0,0-.35,6.31.77.77,0,0,0,.83.67.75.75,0,0,0,.67-.83l.33-5.85a10.63,10.63,0,0,1,2.75-5.6c3-2.9,4-4.42,5.06-7.53a.76.76,0,0,0-1.43-.5Z"/><path class="cls-20" d="M327.94,355.88s-7.39,0-10.1,0h0A5.4,5.4,0,0,1,314,354.5a7.33,7.33,0,0,1-2-5.27,5.7,5.7,0,0,1,2-4.76,8.94,8.94,0,0,0,.7,8.57.75.75,0,0,0,1.26-.83c-1.24-1.86-2-4.9.31-8.95a.77.77,0,0,0,0-.8.74.74,0,0,0-.72-.33,6.7,6.7,0,0,0-5,7.16,8.72,8.72,0,0,0,2.44,6.31,6.86,6.86,0,0,0,4.9,1.79c2.72,0,10.1,0,10.1,0a.75.75,0,0,0,.75-.75A.76.76,0,0,0,327.94,355.88Z"/><path class="cls-21" d="M351.77,336.43Zm0,0a16.79,16.79,0,0,1-5.29-.36c-1.83-.5-3.38-1.56-3.66-3.45-.38-2.65.23-4.19,2-4.53a18.84,18.84,0,0,1,2.49-.32,7.34,7.34,0,0,1,5.92-2.36c3.83.07,4.88,3.47,5.47,5.42s.29,3-.25,3.67a3,3,0,0,1-2.54.92,3.21,3.21,0,0,1-2.1-.61,2.43,2.43,0,0,1-.69-1.27,13.54,13.54,0,0,1-.21-3.2.75.75,0,1,1,1.5,0,15.42,15.42,0,0,0,.12,2.53,1.37,1.37,0,0,0,.29.8.71.71,0,0,0,.33.14,4.67,4.67,0,0,0,.83.08,1.54,1.54,0,0,0,1.3-.36c.34-.41.32-1.11,0-2.28-.45-1.51-1.09-4.3-4.05-4.35a5.7,5.7,0,0,0-4.87,2,.78.78,0,0,1-.62.35,16.21,16.21,0,0,0-2.6.3,1,1,0,0,0-.84.95,6.07,6.07,0,0,0,.05,1.88c.18,1.28,1.32,1.87,2.56,2.21a15,15,0,0,0,4.73.32.75.75,0,0,1,.83.67A.74.74,0,0,1,351.77,336.43Z"/><path class="cls-21" d="M350.86,338.39a13.45,13.45,0,0,0,1.26,4.89,10.48,10.48,0,0,1,.59,5.47,27,27,0,0,1-1.13,5.2.77.77,0,0,1-1,.47.75.75,0,0,1-.47-1,25.19,25.19,0,0,0,1.06-4.88,8.88,8.88,0,0,0-.45-4.64,15.2,15.2,0,0,1-1.41-5.5.76.76,0,0,1,.73-.78A.75.75,0,0,1,350.86,338.39Z"/><path class="cls-21" d="M356.7,341c-.08,4.48-.1,9.59-1.7,13.72a4.71,4.71,0,0,1-1.33,2.1c-.74.56-1.77.64-3.77.6a.76.76,0,0,1,0-1.51,17.19,17.19,0,0,0,2,0,1.72,1.72,0,0,0,.86-.27,3.25,3.25,0,0,0,.84-1.45c1.54-4,1.53-8.89,1.6-13.19a.76.76,0,0,1,1.51,0Z"/><path class="cls-21" d="M361.77,347.45c-1.86,1-2.93,3.5-2.75,6.21a.77.77,0,0,1-.71.8.76.76,0,0,1-.8-.7c-.22-3.35,1.22-6.36,3.53-7.63a.75.75,0,0,1,1,.29A.76.76,0,0,1,361.77,347.45Z"/><path class="cls-21" d="M358.89,336.89c1,2.87,1.92,4.27,4.69,6.94a12.28,12.28,0,0,1,3.18,6.39,23,23,0,0,1,.34,6.31.75.75,0,1,1-1.5-.16l-.32-5.85a10.7,10.7,0,0,0-2.75-5.6c-3-2.9-4-4.42-5.06-7.53a.75.75,0,1,1,1.42-.5Z"/><path class="cls-21" d="M356.33,355.88s7.38,0,10.09,0h0a5.39,5.39,0,0,0,3.85-1.39,7.29,7.29,0,0,0,2-5.27,5.68,5.68,0,0,0-2-4.76,8.91,8.91,0,0,1-.7,8.57.75.75,0,0,1-1,.21.76.76,0,0,1-.21-1c1.24-1.86,2-4.9-.3-8.95a.75.75,0,0,1,.75-1.13c1.58.21,5.17,2.33,5,7.16a8.76,8.76,0,0,1-2.45,6.31,6.86,6.86,0,0,1-4.9,1.79c-2.72,0-10.1,0-10.1,0a.76.76,0,0,1,0-1.51Z"/><rect class="cls-3" x="193.29" y="436.69" width="5.6" height="7.99"/><rect class="cls-8" x="206.68" y="420.27" width="23.64" height="2.3" rx="1.15"/><rect class="cls-8" x="206.68" y="422.77" width="23.64" height="17.69" rx="2.37"/><path class="cls-5" d="M240,437.06h-3.58a4.22,4.22,0,0,0-3,1.23l-1.21,1.22a2.92,2.92,0,0,1-2,.85H227a1.21,1.21,0,0,0-1.09.54h-4.79l2.83,3.88a4.25,4.25,0,0,0,3.13,1.38h8.15c2.06,0,4.77-2.74,4.77-2.74Z"/><path class="cls-2" d="M223.67,445l0,0-2.83-3.88a.39.39,0,0,1,.31-.61h4.59A1.71,1.71,0,0,1,227,440h3.18a2.53,2.53,0,0,0,1.78-.73l1.21-1.22a4.55,4.55,0,0,1,3.25-1.34H240a.38.38,0,0,1,.38.38v6.36a.39.39,0,0,1-.11.27c-.11.12-2.84,2.85-5,2.85h-8.15A4.62,4.62,0,0,1,223.67,445Zm16-7.59h-3.2a3.77,3.77,0,0,0-2.7,1.13l-1.22,1.21a3.25,3.25,0,0,1-2.32,1H227a.83.83,0,0,0-.75.34.4.4,0,0,1-.34.2h-4l2.37,3.25a3.86,3.86,0,0,0,2.83,1.24h8.15c1.66,0,3.87-2,4.39-2.51Z"/><rect class="cls-3" x="240" y="436.31" width="6.37" height="8.76" transform="translate(486.37 881.37) rotate(-180)"/><path class="cls-2" d="M239.62,445.06v-8.75a.38.38,0,0,1,.38-.39h6.37a.38.38,0,0,1,.38.39v8.75a.39.39,0,0,1-.38.39H240A.39.39,0,0,1,239.62,445.06Zm6.37-8.37h-5.61v8H246Z"/><path class="cls-2" d="M227,443.47h6.38a.39.39,0,1,0,0-.77H227a1,1,0,1,1,0-2h3.55a.38.38,0,1,0,0-.76H227a1.75,1.75,0,1,0,0,3.5Z"/><path class="cls-5" d="M197,443.42s2.7,2.74,4.77,2.74h8.14a4.22,4.22,0,0,0,3.13-1.38l2.84-3.88h-4.79a1.21,1.21,0,0,0-1.09-.54h-3.18a2.91,2.91,0,0,1-2-.85l-1.22-1.22a4.21,4.21,0,0,0-3-1.23H197Z"/><path class="cls-2" d="M209.91,446.54h-8.14c-2.2,0-4.93-2.73-5.05-2.85a.39.39,0,0,1-.11-.27v-6.36a.38.38,0,0,1,.39-.38h3.57a4.53,4.53,0,0,1,3.25,1.34l1.22,1.22a2.51,2.51,0,0,0,1.78.73H210a1.69,1.69,0,0,1,1.28.54h4.6a.39.39,0,0,1,.34.21.41.41,0,0,1,0,.4L213.35,445l0,0A4.64,4.64,0,0,1,209.91,446.54Zm-12.53-3.28c.52.49,2.73,2.51,4.39,2.51h8.14a3.83,3.83,0,0,0,2.83-1.24l2.38-3.25h-4a.38.38,0,0,1-.34-.2.86.86,0,0,0-.75-.34h-3.18a3.25,3.25,0,0,1-2.32-1l-1.22-1.21a3.77,3.77,0,0,0-2.71-1.13h-3.19Z"/><rect class="cls-5" x="190.63" y="436.31" width="6.37" height="8.76"/><path class="cls-2" d="M197,445.45h-6.37a.39.39,0,0,1-.39-.39v-8.75a.38.38,0,0,1,.39-.39H197a.38.38,0,0,1,.38.39v8.75A.39.39,0,0,1,197,445.45Zm-6-.77h5.6v-8H191Z"/><path class="cls-2" d="M210,443.47H203.6a.39.39,0,0,1,0-.77H210a1,1,0,0,0,0-2h-3.56a.38.38,0,1,1,0-.76H210a1.75,1.75,0,0,1,0,3.5Z"/><rect class="cls-9" x="190.99" y="436.67" width="5.6" height="7.99"/><path class="cls-7" d="M370.12,417.36a.88.88,0,0,0-.28-.06H348.78a1.85,1.85,0,0,0-1.85,1.85V434a1.85,1.85,0,0,0,1.85,1.85h21.06a.7.7,0,0,0,.7-.7h0V418A.72.72,0,0,0,370.12,417.36Z"/><circle class="cls-5" cx="355.32" cy="436.73" r="3.86"/><circle class="cls-3" cx="355.32" cy="436.73" r="3.3"/><circle class="cls-5" cx="355.32" cy="436.73" r="2.12"/><path class="cls-3" d="M373.62,427.83h7a5.82,5.82,0,0,1,5.82,5.82v0a2.15,2.15,0,0,1-2.15,2.15H373.62a2.15,2.15,0,0,1-2.15-2.15V430a2.15,2.15,0,0,1,2.15-2.15Z"/><circle class="cls-5" cx="380.89" cy="436.73" r="3.86"/><circle class="cls-3" cx="380.89" cy="436.73" r="3.3"/><circle class="cls-5" cx="380.89" cy="436.73" r="2.12"/><path class="cls-5" d="M377.42,418.5h0Z"/><path class="cls-5" d="M380.78,421.06l.08.34A3.38,3.38,0,0,0,380.78,421.06Z"/><path class="cls-3" d="M380.86,421.4l-.08-.34a3.47,3.47,0,0,0-3.15-2.55h-5.25a.7.7,0,0,0-.7.7v7.09a.7.7,0,0,0,.7.7h8.85a.71.71,0,0,0,.7-.7Z"/><path class="cls-5" d="M379.11,422l0-.19a2,2,0,0,0-1.8-1.46h-3a.4.4,0,0,0-.4.4v4a.4.4,0,0,0,.4.4h5a.4.4,0,0,0,.4-.4Z"/><path class="cls-5" d="M378.61,424.93h-3.95a.71.71,0,0,1-.71-.71v-3a.71.71,0,0,1,.71-.71h2.85c.69,0,1,.26,1.1.71l.71,3A.71.71,0,0,1,378.61,424.93Z"/><path class="cls-5" d="M358.3,430.89h-3.69V425.1h3.69Zm.84-5.79v5.79h3.69V425.1Zm-.87-2.09h-4.13v1.68h4.13Zm.9,0v1.68h4.13V423Zm-.17-.6a.34.34,0,0,0,.2.13h.32l.58,0a6.53,6.53,0,0,0,1.16-.19,3.93,3.93,0,0,0,.58-.19,2.44,2.44,0,0,0,.56-.32,2.13,2.13,0,0,0,.26-.26,1.31,1.31,0,0,0,.2-.37,1.07,1.07,0,0,0,0-.47,1.13,1.13,0,0,0-.18-.4,1.72,1.72,0,0,0-.25-.28,1.76,1.76,0,0,0-.3-.21,1.44,1.44,0,0,0-.73-.18,1.73,1.73,0,0,0-.68.15,2.77,2.77,0,0,0-.55.33,3.49,3.49,0,0,0-.81.91,3,3,0,0,0-.28.53,2,2,0,0,0-.17.59h0A.33.33,0,0,0,359,422.41Zm.21-.19a2.21,2.21,0,0,1,.52-.9,3.35,3.35,0,0,1,.81-.66,1.66,1.66,0,0,1,.87-.24.8.8,0,0,1,.35.11.61.61,0,0,1,.16.12.57.57,0,0,1,.13.14.41.41,0,0,1,.06.11.14.14,0,0,1,0,.09.62.62,0,0,1-.18.28,3.24,3.24,0,0,1-.85.53,6,6,0,0,1-1,.33l-.54.09-.14,0h-.15v0Zm-.52-.05h0a2,2,0,0,0-.16-.59,5.36,5.36,0,0,0-.28-.53,3.72,3.72,0,0,0-.82-.91,2.29,2.29,0,0,0-.55-.33,1.66,1.66,0,0,0-.68-.15,1.44,1.44,0,0,0-.73.18,2.28,2.28,0,0,0-.3.21,1.72,1.72,0,0,0-.25.28,1.12,1.12,0,0,0-.17.4.94.94,0,0,0,0,.47,1.31,1.31,0,0,0,.2.37,2.13,2.13,0,0,0,.26.26,2.44,2.44,0,0,0,.56.32,4.36,4.36,0,0,0,.58.19,6.84,6.84,0,0,0,1.16.19l.58,0h.32a.34.34,0,0,0,.2-.13A.29.29,0,0,0,358.69,422.17Zm-.28.05s0,0,0,0h-.15l-.13,0a4.85,4.85,0,0,1-.55-.09,5.64,5.64,0,0,1-1-.33,2.94,2.94,0,0,1-.85-.53.57.57,0,0,1-.19-.28.27.27,0,0,1,0-.09.41.41,0,0,1,.06-.11.57.57,0,0,1,.13-.14.83.83,0,0,1,.16-.12.85.85,0,0,1,.35-.11,1.66,1.66,0,0,1,.87.24,3.17,3.17,0,0,1,.81.66,2.11,2.11,0,0,1,.52.9Z"/><path class="cls-2" d="M71,242.79a1.56,1.56,0,0,0-.41-1l-3.58-3.89A1.53,1.53,0,0,0,64.79,240l1.41,1.53H59.89a1.34,1.34,0,0,0,0,2.68H66.2l-1.41,1.53a1.53,1.53,0,0,0,2.26,2.07l3.58-3.89a1.56,1.56,0,0,0,.41-1v-.12Z"/><path class="cls-8" d="M52.68,255.67a.49.49,0,0,1-.23-.06.48.48,0,0,1-.25-.43v-4.1a2.47,2.47,0,0,1,2.46-2.47H61.8a.48.48,0,0,1,.46.35.47.47,0,0,1-.19.55L53,255.58A.44.44,0,0,1,52.68,255.67Zm2-6.08a1.49,1.49,0,0,0-1.49,1.49v3.19l7-4.68Z"/><path class="cls-8" d="M57.71,233.79h-13a.49.49,0,0,1-.49-.49v-2.1a.49.49,0,0,1,.49-.49h13a.49.49,0,0,1,.49.49v2.1A.49.49,0,0,1,57.71,233.79Zm-12.52-1h12v-1.13h-12Z"/><path class="cls-8" d="M53.18,236.43h-4a.49.49,0,0,1,0-1h4a.49.49,0,0,1,0,1Z"/><path class="cls-8" d="M57.83,239.07H44.7a.49.49,0,1,1,0-1H57.83a.49.49,0,0,1,0,1Z"/><path class="cls-8" d="M56.19,241.71H44.7a.49.49,0,1,1,0-1H56.19a.49.49,0,0,1,0,1Z"/><path class="cls-8" d="M56.18,244.35H44.7a.49.49,0,0,1,0-1H56.18a.49.49,0,0,1,0,1Z"/><path class="cls-8" d="M56.18,247H44.7a.48.48,0,0,1-.49-.48.49.49,0,0,1,.49-.49H56.18a.49.49,0,0,1,.48.49A.48.48,0,0,1,56.18,247Z"/><path class="cls-8" d="M52.68,255.67H42.59a2.47,2.47,0,0,1-2.46-2.47v-5.26a.48.48,0,0,1,.48-.48.49.49,0,0,1,.49.48v5.26a1.49,1.49,0,0,0,1.49,1.49h9.95l8.77-5.85V246a.49.49,0,1,1,1,0v3.06a.52.52,0,0,1-.22.41L53,255.58A.44.44,0,0,1,52.68,255.67Z"/><path class="cls-8" d="M40.61,249.66a.48.48,0,0,1-.48-.49V230.09a2.47,2.47,0,0,1,2.46-2.47H59.82a2.48,2.48,0,0,1,2.47,2.47v9.47a.49.49,0,1,1-1,0v-9.47a1.5,1.5,0,0,0-1.49-1.5H42.59a1.5,1.5,0,0,0-1.49,1.5v19.08A.49.49,0,0,1,40.61,249.66Z"/></svg>