<svg xmlns="http://www.w3.org/2000/svg" xmlns:xlink="http://www.w3.org/1999/xlink" viewBox="0 0 330 269"><defs><style>.cls-1{fill:#0a1e3f;}.cls-2{fill:#8bb8e8;}.cls-3{fill:#221f20;}</style><symbol id="Blue" data-name="Blue" viewBox="0 0 203.91 54.48"><path class="cls-1" d="M0,1.18H30.36Q38,1.18,42,4.94a12.17,12.17,0,0,1,4.06,9.29,11.79,11.79,0,0,1-2.89,8,12.76,12.76,0,0,1-5.65,3.5q5.64,1.37,8.29,4.66a12.83,12.83,0,0,1,2.66,8.3A14.28,14.28,0,0,1,46.59,46a14,14,0,0,1-5.2,5.14,17.23,17.23,0,0,1-6.14,1.7,70.72,70.72,0,0,1-7.27.72H0ZM16.32,21.77h7.09q3.82,0,5.32-1.3a4.75,4.75,0,0,0,1.5-3.78,4.43,4.43,0,0,0-1.5-3.57q-1.5-1.29-5.21-1.29h-7.2Zm0,20.51h8.29c2.79,0,4.77-.49,5.91-1.48a4.94,4.94,0,0,0,1.73-4,4.59,4.59,0,0,0-1.7-3.72c-1.15-.93-3.13-1.41-6-1.41H16.32Z"/><path class="cls-2" d="M49.6,1.18H65.76V40.65H91v12.9H49.6Z"/><path class="cls-2" d="M125.07,1.18h16.16V32.4a26.16,26.16,0,0,1-1.45,8.77,18.61,18.61,0,0,1-4.54,7.21,17.91,17.91,0,0,1-6.49,4.35,32.64,32.64,0,0,1-11.34,1.75,70.91,70.91,0,0,1-8.36-.54,22,22,0,0,1-7.57-2.12,19.06,19.06,0,0,1-5.56-4.52,16.56,16.56,0,0,1-3.46-6A31.57,31.57,0,0,1,91,32.4V1.18h16.15v32a9.12,9.12,0,0,0,2.39,6.7,10.28,10.28,0,0,0,13.18,0,9.1,9.1,0,0,0,2.38-6.74Z"/><path class="cls-2" d="M161.4,31.15c.5,5.79,3.86,9.92,10,9.92,3.17,0,6.63-1.18,8.22-3.63h18.31c-4,11-14.75,16.11-26.43,16.11-16.44,0-28.81-9.63-28.81-26.63C142.69,12.09,153.58,0,169.82,0,190.21,0,199,11.3,199,31.15ZM180.21,21a8.4,8.4,0,0,0-8.61-8.55c-5.84,0-9.21,3-10.1,8.55Z"/><path class="cls-1" d="M203.91,6a4.45,4.45,0,1,1-4.41-4.33A4.36,4.36,0,0,1,203.91,6Zm-7.78,0a3.36,3.36,0,0,0,3.37,3.45A3.31,3.31,0,0,0,202.8,6a3.34,3.34,0,1,0-6.67,0Zm2.66,2.24h-1V3.87a12.12,12.12,0,0,1,1.66-.13,2.32,2.32,0,0,1,1.48.34,1.12,1.12,0,0,1,.45.93,1.11,1.11,0,0,1-.9,1v.06c.42.13.63.47.76,1a4.18,4.18,0,0,0,.32,1.06h-1.05a3.41,3.41,0,0,1-.35-1.06c-.08-.44-.34-.66-.89-.66h-.48Zm0-2.43h.47c.55,0,1-.19,1-.63s-.29-.66-.92-.66a2.2,2.2,0,0,0-.55,0Z"/></symbol></defs><g id="Capa_1" data-name="Capa 1"><path class="cls-1" d="M180.29,208.69a4.27,4.27,0,0,0,.27,1.56c.53,1.43,2.14,1.73,3.51,1.73,1.2,0,3-.4,3-2.16,0-1.23-1-1.56-5.15-2.72-3.78-1.06-8.09-2.09-8.09-6.87,0-5.47,4.71-7.82,9.63-7.82,5.18,0,9.76,2,10,7.73h-7a1.83,1.83,0,0,0-.87-1.9,3.84,3.84,0,0,0-2.17-.59c-1,0-2.64.26-2.64,1.59.13,1.69,3.54,2.06,6.92,3s6.72,2.48,6.72,6.83c0,6.17-5.72,8.16-11,8.16-2.71,0-10.43-1-10.49-8.53Z"/><path class="cls-1" d="M200.55,209.52c.16,2,1.3,3.35,3.37,3.35a3.34,3.34,0,0,0,2.78-1.22h6.18c-1.34,3.71-5,5.44-8.92,5.44-5.55,0-9.73-3.25-9.73-9a8.87,8.87,0,0,1,9.16-9.09c6.88,0,9.86,3.81,9.86,10.51Zm6.35-3.41a2.84,2.84,0,0,0-2.91-2.89,3.13,3.13,0,0,0-3.41,2.89Z"/><path class="cls-1" d="M214.35,199.44h6.38v2.19h.07a6.37,6.37,0,0,1,5.65-2.62c3.11,0,6,1.89,6,5.84v11.81h-6.62v-9c0-2-.23-3.38-2.17-3.38-1.14,0-2.64.56-2.64,3.32v9.09h-6.62Z"/><path class="cls-1" d="M252.39,216.66H246v-1.89h-.06c-.84,1.09-1.84,2.32-5.08,2.32-4.92,0-7.29-4.81-7.29-9.13,0-4,1.57-9,7.39-9a5.66,5.66,0,0,1,4.74,2.32h.07V193h6.62Zm-9.29-12.88c-2.38,0-2.91,2.23-2.91,4.25s.53,4.28,2.91,4.28,2.9-2.22,2.9-4.28S245.47,203.78,243.1,203.78Z"/><use width="203.91" height="54.48" transform="translate(77.48 192.74) scale(0.44)" xlink:href="#Blue"/></g><g id="Objects"><path class="cls-2" d="M105.11,74.52,224.89,52.78l-42.1,91.41-31.4-42.57c0-.06,2.23,2.9,2.19,3l-12.9,15.16L144,90.16Z"/><polygon class="cls-1" points="144.84 89.76 224.89 52.78 153.58 104.58 140.68 119.74 144 90.16 144.84 89.76"/><polyline class="cls-3" points="140.68 119.74 153.58 104.58 157.62 110.07"/></g></svg>