<svg width="330" height="269" viewBox="0 0 330 269" fill="none" xmlns="http://www.w3.org/2000/svg">
<g clip-path="url(#clip0_1752_460)">
<path d="M61 193.26H74.3584C76.5995 193.26 78.3067 193.811 79.48 194.914C80.0541 195.427 80.5108 196.058 80.8191 196.763C81.1274 197.468 81.28 198.232 81.2664 199.002C81.2953 200.292 80.8419 201.548 79.9948 202.522C79.3167 203.246 78.459 203.777 77.5088 204.062C79.1632 204.464 80.3791 205.147 81.1564 206.112C81.9607 207.156 82.3748 208.448 82.3268 209.764C82.3445 210.891 82.0588 212.002 81.4996 212.981C80.9507 213.924 80.1611 214.704 79.2116 215.242C78.3654 215.657 77.4492 215.911 76.51 215.99C75.4499 216.151 74.3822 216.257 73.3112 216.307H61V193.26ZM68.1808 202.319H71.3004C72.4209 202.319 73.2012 202.129 73.6412 201.747C73.8675 201.536 74.0441 201.278 74.1582 200.99C74.2723 200.702 74.3212 200.393 74.3012 200.084C74.3173 199.789 74.2662 199.495 74.1519 199.223C74.0376 198.951 73.863 198.708 73.6412 198.513C73.2012 198.135 72.4371 197.946 71.3488 197.946H68.1808V202.319ZM68.1808 211.344H71.8284C73.056 211.344 73.9272 211.128 74.4288 210.693C74.6818 210.477 74.882 210.206 75.014 209.901C75.1459 209.596 75.2062 209.265 75.19 208.933C75.2003 208.62 75.1382 208.31 75.0084 208.026C74.8786 207.742 74.6847 207.492 74.442 207.296C73.936 206.887 73.0648 206.675 71.802 206.675H68.1808V211.344Z" fill="#0A1E3F"/>
<path d="M82.824 193.26H89.9344V210.627H101.04V216.303H82.824V193.26Z" fill="#8BB8E8"/>
<path d="M116.031 193.26H123.141V206.997C123.15 208.31 122.934 209.615 122.503 210.855C122.092 212.053 121.408 213.139 120.506 214.028C119.706 214.868 118.731 215.522 117.65 215.942C116.045 216.491 114.356 216.752 112.66 216.712C111.431 216.705 110.202 216.626 108.982 216.474C107.825 216.366 106.696 216.05 105.651 215.541C104.717 215.039 103.887 214.364 103.205 213.553C102.517 212.79 101.998 211.89 101.682 210.913C101.282 209.645 101.066 208.326 101.04 206.997V193.26H108.146V207.34C108.115 207.877 108.192 208.414 108.373 208.921C108.553 209.427 108.834 209.892 109.198 210.288C110.011 210.967 111.037 211.339 112.097 211.339C113.157 211.339 114.183 210.967 114.997 210.288C115.362 209.89 115.644 209.422 115.824 208.912C116.004 208.402 116.079 207.862 116.044 207.322L116.031 193.26Z" fill="#8BB8E8"/>
<path d="M132.016 206.446C132.236 208.994 133.714 210.811 136.416 210.811C137.811 210.811 139.333 210.292 140.033 209.214H148.089C146.329 214.054 141.599 216.302 136.46 216.302C129.226 216.302 123.784 212.065 123.784 204.585C123.784 198.06 128.575 192.74 135.721 192.74C144.692 192.74 148.56 197.712 148.56 206.446H132.016ZM140.292 201.98C140.301 201.481 140.209 200.986 140.022 200.524C139.834 200.062 139.555 199.642 139.201 199.29C138.847 198.939 138.426 198.663 137.962 198.478C137.499 198.294 137.003 198.206 136.504 198.218C133.934 198.218 132.452 199.538 132.06 201.98H140.292Z" fill="#8BB8E8"/>
<path d="M150.72 195.38C150.731 195.77 150.625 196.154 150.415 196.484C150.206 196.813 149.903 197.072 149.545 197.228C149.187 197.384 148.791 197.429 148.407 197.358C148.024 197.287 147.67 197.103 147.391 196.83C147.113 196.556 146.922 196.206 146.845 195.824C146.767 195.441 146.805 195.044 146.954 194.684C147.103 194.323 147.357 194.016 147.682 193.8C148.007 193.585 148.39 193.471 148.78 193.475C149.033 193.472 149.283 193.519 149.518 193.613C149.752 193.707 149.966 193.847 150.146 194.024C150.326 194.201 150.47 194.412 150.569 194.645C150.667 194.877 150.719 195.127 150.72 195.38ZM147.297 195.38C147.292 195.578 147.326 195.775 147.399 195.959C147.471 196.143 147.579 196.311 147.717 196.453C147.856 196.594 148.021 196.707 148.204 196.783C148.386 196.86 148.582 196.899 148.78 196.898C148.976 196.898 149.17 196.857 149.351 196.78C149.531 196.703 149.694 196.59 149.829 196.448C149.965 196.306 150.071 196.139 150.14 195.955C150.209 195.772 150.24 195.576 150.232 195.38C150.243 195.18 150.213 194.981 150.144 194.793C150.075 194.606 149.969 194.434 149.832 194.289C149.694 194.144 149.529 194.029 149.346 193.95C149.162 193.871 148.964 193.83 148.765 193.83C148.565 193.83 148.367 193.871 148.184 193.95C148 194.029 147.835 194.144 147.697 194.289C147.56 194.434 147.454 194.606 147.385 194.793C147.316 194.981 147.286 195.18 147.297 195.38ZM148.468 196.366H148.028V194.443C148.269 194.407 148.514 194.388 148.758 194.386C148.986 194.361 149.215 194.414 149.409 194.535C149.473 194.582 149.524 194.644 149.558 194.716C149.593 194.787 149.609 194.865 149.607 194.944C149.598 195.051 149.555 195.152 149.483 195.231C149.412 195.311 149.316 195.364 149.211 195.384V195.411C149.396 195.468 149.488 195.618 149.546 195.851C149.572 196.012 149.619 196.169 149.686 196.317H149.224C149.148 196.171 149.096 196.014 149.07 195.851C149.035 195.657 148.921 195.56 148.679 195.56H148.468V196.366ZM148.468 195.296H148.674C148.916 195.296 149.114 195.213 149.114 195.019C149.114 194.826 148.987 194.729 148.71 194.729C148.629 194.719 148.548 194.719 148.468 194.729V195.296Z" fill="#0A1E3F"/>
</g>
<rect x="121" y="42" width="87.2727" height="115.636" rx="13" fill="#0A1E3F"/>
<rect x="132" y="52.6348" width="65" height="95" rx="8" stroke="#95B6E5" stroke-width="6"/>
<rect x="143" y="63.6348" width="32" height="15" rx="2" fill="#FF6A1B"/>
<rect x="157" y="84.6348" width="32" height="15" rx="2" fill="#FF0296"/>
<rect x="141" y="105.635" width="32" height="15" rx="2" fill="#FF6A1B"/>
<rect x="141" y="129.635" width="48" height="7" rx="2" fill="#95B6E5"/>
<path d="M158.61 217V193.081H165.98V217H158.61ZM168.392 217V193.081H178.877L182.294 207.151H182.361L185.778 193.081H196.264V217H189.296V201.657H189.229L185.075 217H179.581L175.427 201.657H175.36V217H168.392ZM208.536 217V193.081H219.021L222.438 207.151H222.505L225.922 193.081H236.408V217H229.44V201.657H229.373L225.219 217H219.725L215.571 201.657H215.504V217H208.536ZM239.065 217V193.081H246.435V201.322H246.502L253.068 193.081H262.147L253.47 202.427L263.554 217H254.375L248.479 207.687L246.435 209.931V217H239.065ZM269.192 217V199.211H262.492V193.081H283.262V199.211H276.562V217H269.192Z" fill="#0A1E3F"/>
<defs>
<clipPath id="clip0_1752_460">
<rect width="89.7204" height="23.9712" fill="white" transform="translate(61 192.74)"/>
</clipPath>
</defs>
</svg>
