<svg id="Capa_1" data-name="Capa 1" xmlns="http://www.w3.org/2000/svg" xmlns:xlink="http://www.w3.org/1999/xlink" viewBox="0 0 330 260"><defs><style>.cls-1{fill:#0a1e3f;}.cls-2{fill:#8bb8e8;}.cls-3{fill:#7d2796;}.cls-4{fill:#fff;}</style><symbol id="Blue" data-name="Blue" viewBox="0 0 203.91 54.48"><path class="cls-1" d="M0,1.18H30.36Q38,1.18,42,4.94a12.17,12.17,0,0,1,4.06,9.29,11.79,11.79,0,0,1-2.89,8,12.76,12.76,0,0,1-5.65,3.5q5.64,1.37,8.29,4.66a12.83,12.83,0,0,1,2.66,8.3A14.28,14.28,0,0,1,46.59,46a14,14,0,0,1-5.2,5.14,17.23,17.23,0,0,1-6.14,1.7,70.72,70.72,0,0,1-7.27.72H0ZM16.32,21.77h7.09q3.82,0,5.32-1.3a4.75,4.75,0,0,0,1.5-3.78,4.43,4.43,0,0,0-1.5-3.57q-1.5-1.29-5.21-1.29h-7.2Zm0,20.51h8.29c2.79,0,4.77-.49,5.91-1.48a4.94,4.94,0,0,0,1.73-4,4.59,4.59,0,0,0-1.7-3.72c-1.15-.93-3.13-1.41-6-1.41H16.32Z"/><path class="cls-2" d="M49.6,1.18H65.76V40.65H91v12.9H49.6Z"/><path class="cls-2" d="M125.07,1.18h16.16V32.4a26.16,26.16,0,0,1-1.45,8.77,18.61,18.61,0,0,1-4.54,7.21,17.91,17.91,0,0,1-6.49,4.35,32.64,32.64,0,0,1-11.34,1.75,70.91,70.91,0,0,1-8.36-.54,22,22,0,0,1-7.57-2.12,19.06,19.06,0,0,1-5.56-4.52,16.56,16.56,0,0,1-3.46-6A31.57,31.57,0,0,1,91,32.4V1.18h16.15v32a9.12,9.12,0,0,0,2.39,6.7,10.28,10.28,0,0,0,13.18,0,9.1,9.1,0,0,0,2.38-6.74Z"/><path class="cls-2" d="M161.4,31.15c.5,5.79,3.86,9.92,10,9.92,3.17,0,6.63-1.18,8.22-3.63h18.31c-4,11-14.75,16.11-26.43,16.11-16.44,0-28.81-9.63-28.81-26.63C142.69,12.09,153.58,0,169.82,0,190.21,0,199,11.3,199,31.15ZM180.21,21a8.4,8.4,0,0,0-8.61-8.55c-5.84,0-9.21,3-10.1,8.55Z"/><path class="cls-1" d="M203.91,6a4.45,4.45,0,1,1-4.41-4.33A4.36,4.36,0,0,1,203.91,6Zm-7.78,0a3.36,3.36,0,0,0,3.37,3.45A3.31,3.31,0,0,0,202.8,6a3.34,3.34,0,1,0-6.67,0Zm2.66,2.24h-1V3.87a12.12,12.12,0,0,1,1.66-.13,2.32,2.32,0,0,1,1.48.34,1.12,1.12,0,0,1,.45.93,1.11,1.11,0,0,1-.9,1v.06c.42.13.63.47.76,1a4.18,4.18,0,0,0,.32,1.06h-1.05a3.41,3.41,0,0,1-.35-1.06c-.08-.44-.34-.66-.89-.66h-.48Zm0-2.43h.47c.55,0,1-.19,1-.63s-.29-.66-.92-.66a2.2,2.2,0,0,0-.55,0Z"/></symbol></defs><g id="PIN_UBICACIÒN" data-name="PIN UBICACIÒN"><path class="cls-3" d="M163.35,157.78a3.18,3.18,0,0,1-2.74-1.56c-8.08-13.55-34.46-59.13-34.46-76.53a37.2,37.2,0,1,1,74.4,0c0,7.56-4.94,21.24-14.68,40.65-7.75,15.45-16.42,30.24-19.78,35.88A3.18,3.18,0,0,1,163.35,157.78Z"/><path class="cls-2" d="M135.81,77.86a27.45,27.45,0,1,1,27.44,27.45A27.47,27.47,0,0,1,135.81,77.86Zm7,0A20.46,20.46,0,1,0,163.25,57.4,20.49,20.49,0,0,0,142.79,77.86Z"/><circle class="cls-4" cx="162.82" cy="78.08" r="22.34"/></g><path id="CAJA" class="cls-1" d="M163.43,63.29l13.23,5.29a.35.35,0,0,1,.21.31V86.75a.34.34,0,0,1-.21.3l-13.23,5.29a.28.28,0,0,1-.25,0L150,87.05a.34.34,0,0,1-.21-.3V68.89a.34.34,0,0,1,.21-.31l13.22-5.29A.42.42,0,0,1,163.43,63.29Zm-4.1,2.25L171,70.75l4.67-1.86L163.31,64ZM151,68.88l12.34,4.94,5.09-2-12-5.07Zm-.56,17.65,12.57,5V74.4l-12.57-5Zm20.84-15.17v17.2l-2.65,1V72.42l-5,2V91.55l12.57-5V69.38Z"/><path class="cls-1" d="M115.67,188.21c7.26,0,12.11,5.17,12.11,12.41S122.93,213,115.67,213s-12.1-5.17-12.1-12.4S108.42,188.21,115.67,188.21Zm0,18.91c1.88,0,4.75-1.23,4.75-6.5s-2.87-6.51-4.75-6.51-4.74,1.23-4.74,6.51S113.8,207.12,115.67,207.12Z"/><path class="cls-1" d="M129.11,195.24h6.35V198h.07c1.07-2.06,2.47-3.19,4.88-3.19a7.45,7.45,0,0,1,1.94.27v5.8a6.79,6.79,0,0,0-2.61-.43c-2.61,0-4,1.53-4,5.21v6.8h-6.62Z"/><path class="cls-1" d="M161.4,212.46H155v-1.89H155c-.84,1.09-1.84,2.32-5.08,2.32-4.92,0-7.29-4.81-7.29-9.12,0-4.05,1.57-9,7.39-9a5.66,5.66,0,0,1,4.74,2.32h.07v-8.36h6.62Zm-9.29-12.87c-2.38,0-2.91,2.22-2.91,4.24s.53,4.28,2.91,4.28,2.9-2.22,2.9-4.28S154.48,199.59,152.11,199.59Z"/><path class="cls-1" d="M168.92,205.33c.16,1.95,1.3,3.35,3.37,3.35a3.34,3.34,0,0,0,2.78-1.23h6.18c-1.33,3.71-5,5.44-8.92,5.44-5.55,0-9.73-3.25-9.73-9a8.87,8.87,0,0,1,9.16-9.09c6.89,0,9.86,3.82,9.86,10.52Zm6.35-3.42a2.84,2.84,0,0,0-2.91-2.89,3.13,3.13,0,0,0-3.41,2.89Z"/><path class="cls-1" d="M182.72,195.24h6.35V198h.07c1.07-2.06,2.47-3.19,4.88-3.19a7.45,7.45,0,0,1,1.94.27v5.8a6.79,6.79,0,0,0-2.61-.43c-2.61,0-4,1.53-4,5.21v6.8h-6.62Z"/><path class="cls-1" d="M207.72,194.84H201v-6.07h20.72v6.07h-6.68v17.62h-7.36Z"/><path class="cls-1" d="M219.62,195.24H226V198H226c1.07-2.06,2.47-3.19,4.88-3.19a7.45,7.45,0,0,1,1.94.27v5.8a6.79,6.79,0,0,0-2.61-.43c-2.61,0-4,1.53-4,5.21v6.8h-6.62Z"/><path class="cls-1" d="M251.38,208.61a6.9,6.9,0,0,0,.8,3.85h-6.75a4.61,4.61,0,0,1-.24-1.63h-.06c-1.41,1.6-3.45,2.06-5.59,2.06-3.34,0-6.12-1.59-6.12-5.21,0-5.44,6.42-5.24,9.8-5.87.9-.17,1.81-.43,1.81-1.53s-1.11-1.59-2.18-1.59c-2,0-2.44,1-2.47,1.76h-6.15a5,5,0,0,1,3-4.64,14.23,14.23,0,0,1,5.91-1c8.29,0,8.23,3.42,8.23,6.73ZM245,204.73a11.52,11.52,0,0,1-2.61.83c-1.47.33-2.24.7-2.24,1.86a1.91,1.91,0,0,0,2.07,1.59,2.62,2.62,0,0,0,2.78-2.69Z"/><path class="cls-1" d="M264.41,201.78a2.33,2.33,0,0,0-.73-1.63,2.47,2.47,0,0,0-1.68-.56c-2.54,0-2.9,2.19-2.9,4.28s.36,4.24,2.9,4.24a2.66,2.66,0,0,0,2.58-2.52h6.32a8,8,0,0,1-3,5.41,9.7,9.7,0,0,1-6,1.89c-5.21,0-9.39-3.58-9.39-9s4.18-9.06,9.39-9.06c4.55,0,8.43,2.22,8.83,7Z"/><path class="cls-1" d="M272.1,188.77h6.62v11.45l4.21-5h7.49l-6.19,6.5,7.16,10.72h-8l-3.54-6.24-1.17,1.26v5H272.1Z"/><path class="cls-1" d="M296.3,205.33c.16,1.95,1.3,3.35,3.37,3.35a3.34,3.34,0,0,0,2.78-1.23h6.18c-1.33,3.71-5,5.44-8.92,5.44-5.55,0-9.73-3.25-9.73-9a8.87,8.87,0,0,1,9.16-9.09c6.88,0,9.86,3.82,9.86,10.52Zm6.35-3.42a2.85,2.85,0,0,0-2.91-2.89,3.13,3.13,0,0,0-3.41,2.89Z"/><path class="cls-1" d="M310.1,195.24h6.35V198h.07c1.07-2.06,2.47-3.19,4.88-3.19a7.45,7.45,0,0,1,1.94.27v5.8a6.79,6.79,0,0,0-2.61-.43c-2.61,0-4,1.53-4,5.21v6.8H310.1Z"/><use width="203.91" height="54.48" transform="translate(6.66 188.54) scale(0.44)" xlink:href="#Blue"/></svg>