<?xml version="1.0" encoding="utf-8"?>
<!-- Generator: Adobe Illustrator 25.4.1, SVG Export Plug-In . SVG Version: 6.00 Build 0)  -->
<svg version="1.1" id="Capa_1" xmlns="http://www.w3.org/2000/svg" xmlns:xlink="http://www.w3.org/1999/xlink" x="0px" y="0px"
	 viewBox="0 0 330 269" style="enable-background:new 0 0 330 269;" xml:space="preserve">
<style type="text/css">
	.st0{fill:#0A1E3F;}
	.st1{fill:#8BB8E8;}
	.st2{fill:#96BF61;}
	.st3{fill:#D62F8A;}
	.st4{fill:#F17533;}
</style>
<symbol  id="Blue" viewBox="-102 -27.2 203.9 54.5">
	<path class="st0" d="M-102-26.1h30.4c5.1,0,9,1.3,11.6,3.8c2.6,2.4,4.1,5.8,4.1,9.3c0.1,2.9-1,5.8-2.9,8c-1.5,1.6-3.5,2.9-5.6,3.5
		c3.8,0.9,6.5,2.5,8.3,4.7c1.8,2.4,2.8,5.3,2.7,8.3c0,2.6-0.6,5.1-1.9,7.3c-1.2,2.1-3,3.9-5.2,5.1c-1.9,0.9-4,1.5-6.1,1.7
		c-2.4,0.4-4.8,0.6-7.3,0.7h-28V-26.1z M-85.6-5.5h7.1c2.5,0,4.3-0.4,5.3-1.3c1-1,1.6-2.4,1.5-3.8c0.1-1.4-0.5-2.7-1.5-3.6
		c-1-0.9-2.7-1.3-5.2-1.3h-7.2V-5.5z M-85.6,15h8.3c2.8,0,4.8-0.5,5.9-1.5c1.2-1,1.8-2.5,1.7-4c0-1.4-0.6-2.8-1.7-3.7
		c-1.2-0.9-3.1-1.4-6-1.4h-8.2V15z"/>
	<path class="st1" d="M-52.4-26.1h16.2v39.5H-11v12.9h-41.4V-26.1z"/>
	<path class="st1" d="M23.1-26.1h16.2V5.2c0,3-0.5,6-1.4,8.8c-0.9,2.7-2.5,5.2-4.5,7.2c-1.8,1.9-4,3.4-6.5,4.3
		c-3.6,1.2-7.5,1.8-11.3,1.8c-2.8,0-5.6-0.2-8.4-0.5c-2.6-0.2-5.2-1-7.6-2.1c-2.1-1.1-4-2.7-5.6-4.5c-1.6-1.7-2.7-3.8-3.5-6
		c-0.9-2.9-1.4-5.9-1.5-8.9v-31.2H5.2v32c-0.1,2.5,0.7,4.9,2.4,6.7c3.8,3.2,9.4,3.2,13.2,0c1.7-1.8,2.5-4.3,2.4-6.7L23.1-26.1z"/>
	<path class="st1" d="M59.4,3.9c0.5,5.8,3.9,9.9,10,9.9c3.2,0,6.6-1.2,8.2-3.6H96c-4,11-14.8,16.1-26.4,16.1
		c-16.4,0-28.8-9.6-28.8-26.6c0-14.8,10.9-26.9,27.1-26.9C88.3-27.2,97-15.9,97,3.9H59.4z M78.3-6.2c0.1-4.6-3.6-8.5-8.2-8.6
		c-0.1,0-0.2,0-0.4,0c-5.8,0-9.2,3-10.1,8.5H78.3z"/>
	<path class="st0" d="M102-21.2c0.1,2.5-1.9,4.5-4.3,4.6c-2.5,0.1-4.5-1.9-4.6-4.3s1.9-4.5,4.3-4.6c0.1,0,0.1,0,0.2,0
		C100-25.6,101.9-23.7,102-21.2C102-21.3,102-21.3,102-21.2z M94.2-21.2c0,1.9,1.4,3.4,3.3,3.4c0,0,0.1,0,0.1,0
		c1.8,0,3.3-1.5,3.3-3.3c0,0,0-0.1,0-0.1c0.1-1.8-1.3-3.4-3.2-3.5s-3.4,1.3-3.5,3.2C94.2-21.5,94.2-21.4,94.2-21.2z M96.8-19h-1
		v-4.4c0.5-0.1,1.1-0.1,1.7-0.1c0.5-0.1,1,0.1,1.5,0.3c0.3,0.2,0.5,0.6,0.4,0.9c0,0.5-0.4,0.9-0.9,1v0.1c0.4,0.1,0.6,0.5,0.8,1
		c0.1,0.4,0.2,0.7,0.3,1.1h-1.1c-0.2-0.3-0.3-0.7-0.4-1.1c-0.1-0.4-0.3-0.7-0.9-0.7h-0.5V-19z M96.8-21.4h0.5c0.6,0,1-0.2,1-0.6
		s-0.3-0.7-0.9-0.7c-0.2,0-0.4,0-0.6,0V-21.4z"/>
</symbol>
<path class="st0" d="M147.9,214.5c-1.7,2-4.2,3.1-6.8,3c-7,0-11.4-5.4-11.4-12.2c0-9,6.4-12.6,11.8-12.6c6.1,0,9.9,3.3,11,8.9h-7.1
	c-0.3-1.7-1.7-3-3.5-2.9c-5,0-4.9,5.3-4.9,6.9c0,2.2,0.9,6.1,5.4,6.1c1.7,0.1,3.3-1,3.8-2.6h-3.2v-5.1h9.8v13h-4.6L147.9,214.5z"/>
<path class="st0" d="M162.3,197.9h-6.6v-4.6h6.6V197.9z M155.6,199.7h6.6V217h-6.6V199.7z"/>
<path class="st0" d="M166.3,203.8h-2.7v-4.1h2.7c-0.1-1.7,0.1-3.6,1.4-4.8c1.4-1.4,3.1-1.6,5.8-1.6c1,0,2,0.1,3,0.1v4.5
	c-0.5-0.1-1.1-0.2-1.6-0.2c-1.6,0-2.1,0.5-2,2h3.5v4.1H173V217h-6.6L166.3,203.8z"/>
<path class="st0" d="M187.8,199.7h3.6v4.1h-3.6v6c0,1.6,0.4,2.3,2,2.3c0.5,0,1,0,1.5-0.1v5c-1.3,0-2.9,0.2-4.2,0.2
	c-2.8,0-5.9-0.4-5.9-5.1v-8.2h-2.9v-4.1h2.9v-5.2h6.6L187.8,199.7z"/>
<path class="st0" d="M215.6,202.1c-0.2-2-1.8-3.5-3.8-3.5c-3.4,0-4.6,3.3-4.6,6.5s1.1,6.5,4.6,6.5c2.5,0,3.4-1.7,3.9-4h7.2
	c0,4.8-3.9,9.9-10.9,9.9c-7.7,0-12.1-5.4-12.1-12.4c0-7.5,4.8-12.4,12.1-12.4c6.6,0,10.2,3.4,10.8,9.4L215.6,202.1z"/>
<path class="st0" d="M241.9,213.1c-0.1,1.3,0.2,2.7,0.8,3.9H236c-0.2-0.5-0.2-1.1-0.2-1.6h-0.1c-1.4,1.6-3.4,2-5.6,2
	c-3.3,0-6.1-1.6-6.1-5.2c0-5.4,6.4-5.2,9.8-5.9c0.9-0.2,1.8-0.4,1.8-1.5s-1.1-1.6-2.2-1.6c-2,0-2.4,1-2.5,1.8h-6.2
	c0-2,1.2-3.8,3-4.6c1.9-0.7,3.9-1.1,5.9-1c8.3,0,8.2,3.4,8.2,6.7L241.9,213.1z M235.6,209.2c-0.8,0.4-1.7,0.7-2.6,0.8
	c-1.5,0.3-2.2,0.7-2.2,1.9c0.2,1,1.1,1.7,2.1,1.6c1.4,0.1,2.7-1,2.8-2.4c0-0.1,0-0.2,0-0.2L235.6,209.2z"/>
<path class="st0" d="M244.6,199.7h6.4v2.8h0.1c1.1-2.1,2.5-3.2,4.9-3.2c0.7,0,1.3,0.1,1.9,0.3v5.8c-0.8-0.3-1.7-0.5-2.6-0.4
	c-2.6,0-4,1.5-4,5.2v6.8h-6.6L244.6,199.7z"/>
<path class="st0" d="M277.2,217h-6.4v-1.9h-0.1c-0.8,1.1-1.8,2.3-5.1,2.3c-4.9,0-7.3-4.8-7.3-9.1c0-4,1.6-9,7.4-9
	c1.9-0.1,3.6,0.8,4.7,2.3h0.1v-8.4h6.6V217z M267.9,204.1c-2.4,0-2.9,2.2-2.9,4.2s0.5,4.3,2.9,4.3s2.9-2.2,2.9-4.3
	S270.3,204.1,267.9,204.1L267.9,204.1z"/>
<path class="st0" d="M290,204.7c0-0.5-0.3-1-0.8-1.3c-0.4-0.3-0.9-0.5-1.5-0.5c-0.9,0-2,0.2-2,1.3c0,0.5,0.4,0.7,0.8,0.9
	c1.1,0.5,3.6,0.6,5.8,1.3s4.1,2,4.1,4.8c0,4.8-4.6,6.1-8.8,6.1s-8.6-1.6-8.7-6.1h6.3c0,0.6,0.3,1.2,0.8,1.5c0.5,0.4,1.1,0.5,1.8,0.5
	c0.9,0,2.2-0.3,2.2-1.3s-0.6-1.3-3.6-1.8c-5-0.9-7.1-2.4-7.1-5.4c0-4.4,4.7-5.5,8.2-5.5c3.8,0,8.3,1,8.4,5.4L290,204.7z"/>
<g>
	<defs>
		<rect id="SVGID_1_" x="33.5" y="193" width="89.7" height="24"/>
	</defs>
	<clipPath id="SVGID_00000183208774056303132520000009610337030708468660_">
		<use xlink:href="#SVGID_1_"  style="overflow:visible;"/>
	</clipPath>
	<g style="clip-path:url(#SVGID_00000183208774056303132520000009610337030708468660_);">
		
			<use xlink:href="#Blue"  width="203.9" height="54.5" x="-102" y="-27.2" transform="matrix(0.44 0 0 0.44 78.3406 205.0176)" style="overflow:visible;"/>
	</g>
</g>
<path class="st2" d="M169.7,119.8l-70.9,0.2c-3.3,0-6-2.7-6-6l-0.1-46.4c0-3.3,2.7-6,6-6l70.9-0.2c3.3,0,6,2.7,6,6l0.1,46.4
	C175.7,117,173,119.8,169.7,119.8z"/>
<path class="st3" d="M231.2,130.3l-70.9-0.2c-3.3,0-6-2.7-6-6l0.2-46.4c0-3.3,2.7-6,6-6l70.9,0.2c3.3,0,6,2.7,6,6l-0.2,46.4
	C237.2,127.7,234.5,130.4,231.2,130.3z"/>
<path class="st4" d="M200.4,140.6l-70.9-0.3c-3.3,0-6-2.7-6-6l0.2-46.4c0-3.3,2.7-6,6-6l70.9,0.3c3.3,0,6,2.7,6,6l-0.2,46.4
	C206.4,137.9,203.7,140.6,200.4,140.6z"/>
</svg>
