<svg id="Capa_1" data-name="Capa 1" xmlns="http://www.w3.org/2000/svg" xmlns:xlink="http://www.w3.org/1999/xlink" viewBox="0 0 330 269"><defs><style>.cls-1{fill:#0a1e3f;}.cls-2,.cls-4{fill:#8bb8e8;}.cls-3{fill:#fff;}.cls-4{fill-rule:evenodd;}</style><symbol id="Blue" data-name="Blue" viewBox="0 0 203.91 54.48"><path class="cls-1" d="M0,1.18H30.36Q38,1.18,42,4.94a12.17,12.17,0,0,1,4.06,9.29,11.79,11.79,0,0,1-2.89,8,12.76,12.76,0,0,1-5.65,3.5q5.64,1.37,8.29,4.66a12.83,12.83,0,0,1,2.66,8.3A14.28,14.28,0,0,1,46.59,46a14,14,0,0,1-5.2,5.14,17.23,17.23,0,0,1-6.14,1.7,70.72,70.72,0,0,1-7.27.72H0ZM16.32,21.77h7.09q3.82,0,5.32-1.3a4.75,4.75,0,0,0,1.5-3.78,4.43,4.43,0,0,0-1.5-3.57q-1.5-1.29-5.21-1.29h-7.2Zm0,20.51h8.29c2.79,0,4.77-.49,5.91-1.48a4.94,4.94,0,0,0,1.73-4,4.59,4.59,0,0,0-1.7-3.72c-1.15-.93-3.13-1.41-6-1.41H16.32Z"/><path class="cls-2" d="M49.6,1.18H65.76V40.65H91v12.9H49.6Z"/><path class="cls-2" d="M125.07,1.18h16.16V32.4a26.16,26.16,0,0,1-1.45,8.77,18.61,18.61,0,0,1-4.54,7.21,17.91,17.91,0,0,1-6.49,4.35,32.64,32.64,0,0,1-11.34,1.75,70.91,70.91,0,0,1-8.36-.54,22,22,0,0,1-7.57-2.12,19.06,19.06,0,0,1-5.56-4.52,16.56,16.56,0,0,1-3.46-6A31.57,31.57,0,0,1,91,32.4V1.18h16.15v32a9.12,9.12,0,0,0,2.39,6.7,10.28,10.28,0,0,0,13.18,0,9.1,9.1,0,0,0,2.38-6.74Z"/><path class="cls-2" d="M161.4,31.15c.5,5.79,3.86,9.92,10,9.92,3.17,0,6.63-1.18,8.22-3.63h18.31c-4,11-14.75,16.11-26.43,16.11-16.44,0-28.81-9.63-28.81-26.63C142.69,12.09,153.58,0,169.82,0,190.21,0,199,11.3,199,31.15ZM180.21,21a8.4,8.4,0,0,0-8.61-8.55c-5.84,0-9.21,3-10.1,8.55Z"/><path class="cls-1" d="M203.91,6a4.45,4.45,0,1,1-4.41-4.33A4.36,4.36,0,0,1,203.91,6Zm-7.78,0a3.36,3.36,0,0,0,3.37,3.45A3.31,3.31,0,0,0,202.8,6a3.34,3.34,0,1,0-6.67,0Zm2.66,2.24h-1V3.87a12.12,12.12,0,0,1,1.66-.13,2.32,2.32,0,0,1,1.48.34,1.12,1.12,0,0,1,.45.93,1.11,1.11,0,0,1-.9,1v.06c.42.13.63.47.76,1a4.18,4.18,0,0,0,.32,1.06h-1.05a3.41,3.41,0,0,1-.35-1.06c-.08-.44-.34-.66-.89-.66h-.48Zm0-2.43h.47c.55,0,1-.19,1-.63s-.29-.66-.92-.66a2.2,2.2,0,0,0-.55,0Z"/></symbol></defs><path class="cls-1" d="M155.6,193.27H163v8.22h6.89v-8.22h7.35V217h-7.35v-9.39H163V217H155.6Z"/><path class="cls-1" d="M187.93,217.38c-6.52,0-9.46-4.28-9.46-9s2.94-9,9.46-9,9.46,4.25,9.46,9S194.45,217.38,187.93,217.38Zm0-13.3c-2.51,0-2.85,2.42-2.85,4.25s.34,4.28,2.85,4.28,2.84-2.46,2.84-4.28S190.43,204.08,187.93,204.08Z"/><path class="cls-1" d="M208.62,204.74a1.69,1.69,0,0,0-.77-1.29,2.33,2.33,0,0,0-1.47-.5c-.94,0-2,.2-2,1.33,0,.5.4.73.77.9,1.1.46,3.61.59,5.82,1.32s4.14,2,4.14,4.81c0,4.78-4.61,6.07-8.82,6.07s-8.56-1.62-8.66-6.07h6.32a2.1,2.1,0,0,0,.8,1.53,2.73,2.73,0,0,0,1.77.5c.87,0,2.24-.34,2.24-1.33s-.57-1.29-3.64-1.83c-5.05-.86-7.09-2.45-7.09-5.4,0-4.35,4.71-5.48,8.19-5.48,3.74,0,8.26,1,8.42,5.44Z"/><path class="cls-1" d="M225.06,199.73h3.54v4.05h-3.54v6c0,1.59.37,2.29,2,2.29a12.59,12.59,0,0,0,1.5-.1v5c-1.34,0-2.84.2-4.24.2-2.81,0-5.92-.43-5.92-5.14v-8.23H215.5v-4.05h2.94v-5.24h6.62Z"/><path class="cls-1" d="M235.79,197.88h-6.62v-4.61h6.62Zm-6.62,1.85h6.62V217h-6.62Z"/><path class="cls-1" d="M237.89,199.73h6.39v2.19h.06A6.4,6.4,0,0,1,250,199.3c3.11,0,5.95,1.89,5.95,5.84V217h-6.62v-9c0-2-.23-3.39-2.17-3.39-1.14,0-2.64.57-2.64,3.32V217h-6.62Z"/><path class="cls-1" d="M275.56,214.73c0,3.42-.9,8.23-9,8.23-4.11,0-8.46-1.1-9.06-5.74H264a3.72,3.72,0,0,0,.37.59,2.54,2.54,0,0,0,1.94,1.26c2.14,0,2.6-2.52,2.6-3.94v-1.6h-.06a5.47,5.47,0,0,1-4.65,2.39c-5.11,0-7.42-3.78-7.42-8.39s2.57-8.23,7.52-8.23a4.69,4.69,0,0,1,4.55,2.52h.06v-2.09h6.62Zm-9.16-3c2.44,0,2.71-2.32,2.71-4.25s-.93-3.38-2.87-3.38-2.81,1.59-2.81,3.42S264,211.71,266.4,211.71Z"/><use width="203.91" height="54.48" transform="translate(54.44 193.03) scale(0.44)" xlink:href="#Blue"/><path class="cls-2" d="M199.33,94.5c0-4.94-6.67-9.26-16.61-11.63,9.94-2.39,16.61-6.7,16.61-11.64,0-7.51-15.35-13.59-34.29-13.59s-34.27,6.08-34.27,13.59c0,4.94,6.66,9.25,16.6,11.64-9.94,2.37-16.6,6.69-16.6,11.63s7,9.45,17.27,11.79c-10.34,2.34-17.32,6.74-17.32,11.81,0,7.5,15.35,13.59,34.28,13.59s34.28-6.09,34.28-13.59c0-5.06-7-9.46-17.27-11.8C192.34,104,199.33,99.55,199.33,94.5Z"/><path class="cls-1" d="M201.72,69.62c0-8.84-16.44-16-36.71-16s-36.73,7.16-36.73,16V131.7c0,8.82,16.44,16,36.73,16s36.71-7.18,36.71-16ZM165,58.24c16.87,0,28.79,5.25,31.51,9.6a3.4,3.4,0,0,1,.58,1.78c0,3.24-6.55,7.67-17.35,9.94a75.75,75.75,0,0,1-29.5,0c-10.8-2.27-17.35-6.7-17.35-9.94a3.05,3.05,0,0,1,.42-1.46C135.61,63.75,147.69,58.24,165,58.24Z"/><path class="cls-1" d="M165,85.06a24.49,24.49,0,1,0,24.48,24.48A24.48,24.48,0,0,0,165,85.06m0,47a22.56,22.56,0,1,1,22.56-22.56A22.56,22.56,0,0,1,165,132.1"/><path class="cls-2" d="M165,87a22.56,22.56,0,1,0,22.56,22.55A22.56,22.56,0,0,0,165,87m0,43.9a21.35,21.35,0,1,1,21.34-21.35A21.34,21.34,0,0,1,165,130.89"/><path class="cls-1" d="M165,88.2a21.35,21.35,0,1,0,21.34,21.35A21.34,21.34,0,0,0,165,88.2"/><path class="cls-3" d="M161.57,116.12h4.48c1.78,0,3-.63,3-2.41s-1.33-2.52-3-2.52h-4.48Zm0-8.54h4.33a2.09,2.09,0,0,0,2.29-2c0-1.56-1.11-2.07-2.29-2.07h-4.33ZM156,99.13h10c3.71-.06,7.76.9,7.76,5.38a4.83,4.83,0,0,1-2.82,4.33,5.11,5.11,0,0,1,3.7,5.08c0,5.12-3.76,6.68-8.36,6.68H156Z"/><path class="cls-4" d="M186.94,129.58h.33c.18,0,.4,0,.4.24s-.16.27-.38.27h-.35Zm-.38,1.64h.38v-.83h.24l.48.83h.4l-.52-.85a.48.48,0,0,0,.51-.51c0-.42-.27-.58-.76-.58h-.73Zm-.61-1a1.3,1.3,0,1,1,2.6,0,1.3,1.3,0,1,1-2.6,0Zm-.48,0a1.78,1.78,0,1,0,1.78-1.72A1.72,1.72,0,0,0,185.47,130.25Z"/></svg>