<?xml version="1.0" encoding="UTF-8"?><svg id="Capa_1" xmlns="http://www.w3.org/2000/svg" xmlns:xlink="http://www.w3.org/1999/xlink" viewBox="0 0 330 269"><defs><symbol id="Blue_2" viewBox="0 0 203.91 54.48"><path d="m0,1.18h30.36c5.05,0,8.94,1.25,11.65,3.76,2.7,2.5,4.06,5.61,4.06,9.29,0,3.11-.96,5.77-2.89,7.98-1.29,1.48-3.16,2.65-5.64,3.51,3.76.91,6.52,2.46,8.29,4.66,1.77,2.2,2.65,4.97,2.65,8.3,0,2.7-.63,5.15-1.9,7.32-1.26,2.16-2.99,3.87-5.2,5.13-1.36.78-3.4,1.36-6.14,1.7-3.65.49-6.08.72-7.27.72H0V1.18Zm16.32,20.59h7.09c2.55,0,4.32-.43,5.31-1.29,1-.88,1.5-2.13,1.5-3.78,0-1.52-.49-2.71-1.5-3.57-1-.86-2.74-1.29-5.21-1.29h-7.2v9.94Zm0,20.51h8.29c2.8,0,4.77-.49,5.91-1.48,1.15-.98,1.72-2.31,1.72-3.97,0-1.54-.57-2.78-1.7-3.72-1.15-.93-3.13-1.4-5.98-1.4h-8.25v10.57Z" style="fill:#0a1e3f;"/><path d="m49.6,1.18h16.15v39.47h25.25v12.9h-41.41V1.18Z" style="fill:#95b6e5;"/><path d="m125.07,1.18h16.16v31.22c0,3.09-.48,6.02-1.45,8.77-.96,2.76-2.48,5.16-4.54,7.21-2.07,2.06-4.22,3.51-6.5,4.35-3.14,1.17-6.93,1.75-11.34,1.75-2.55,0-5.33-.18-8.36-.54-3.03-.35-5.53-1.07-7.57-2.12-2.03-1.06-3.88-2.57-5.56-4.53-1.67-1.95-2.83-3.96-3.45-6.03-1-3.34-1.49-6.29-1.49-8.86V1.18h16.15v31.99c0,2.86.8,5.1,2.39,6.7,1.58,1.61,3.79,2.41,6.61,2.41s4.99-.79,6.57-2.37c1.59-1.59,2.39-3.83,2.39-6.74V1.18Z" style="fill:#95b6e5;"/><path d="m161.4,31.15c.49,5.8,3.86,9.92,10,9.92,3.17,0,6.63-1.18,8.22-3.64h18.32c-3.96,11.01-14.75,16.11-26.43,16.11-16.43,0-28.81-9.63-28.81-26.63,0-14.84,10.89-26.92,27.13-26.92,20.39,0,29.2,11.3,29.2,31.15h-37.62Zm18.81-10.12c0-4.72-3.56-8.55-8.61-8.55-5.84,0-9.21,3.04-10.1,8.55h18.71Z" style="fill:#95b6e5;"/><path d="m203.91,5.96c0,2.42-1.95,4.35-4.43,4.35s-4.46-1.93-4.46-4.35,1.97-4.33,4.48-4.33,4.4,1.9,4.4,4.33Zm-7.78,0c0,1.92,1.45,3.45,3.38,3.45,1.87.03,3.3-1.53,3.3-3.43s-1.43-3.48-3.35-3.48-3.32,1.56-3.32,3.46Zm2.67,2.24h-1V3.87c.4-.05.95-.13,1.66-.13.82,0,1.19.13,1.48.34.27.18.45.5.45.92,0,.53-.4.87-.9,1.03v.05c.42.13.63.47.77,1.05.13.66.24.9.31,1.06h-1.05c-.13-.16-.21-.53-.34-1.06-.08-.44-.34-.66-.9-.66h-.47v1.71Zm.02-2.42h.48c.55,0,1-.19,1-.64,0-.4-.29-.66-.92-.66-.27,0-.45.02-.56.05v1.24Z" style="fill:#0a1e3f;"/></symbol></defs><path d="m168.62,196.37h12.34c5.94,0,7.2,3.32,7.2,5.61s-1.1,3.48-2.78,4.39c2.02.69,3.91,2.29,3.91,5.58,0,4.48-3.91,6.8-7.89,6.8h-12.79v-22.37Zm6.95,8.71h3.66c1.45,0,2.37-.41,2.37-1.85,0-1.13-.95-1.54-2.37-1.54h-3.66v3.38Zm0,8.34h4.07c1.45,0,2.72-.41,2.72-2.13,0-1.32-.79-2.04-2.43-2.04h-4.36v4.17Z" style="fill:#0a1e3f;"/><path d="m197.19,212.01c.16,1.85,1.23,3.16,3.19,3.16,1.01,0,2.12-.38,2.62-1.16h5.84c-1.26,3.51-4.7,5.14-8.43,5.14-5.24,0-9.19-3.07-9.19-8.49,0-4.73,3.47-8.59,8.65-8.59,6.5,0,9.31,3.6,9.31,9.93h-12Zm6-3.23c0-1.5-1.14-2.73-2.75-2.73-1.86,0-2.94.97-3.22,2.73h5.97Z" style="fill:#0a1e3f;"/><path d="m211.81,202.48h6v2.6h.06c1.01-1.94,2.34-3.01,4.61-3.01.63,0,1.23.09,1.83.25v5.48c-.63-.22-1.2-.41-2.46-.41-2.46,0-3.79,1.44-3.79,4.92v6.42h-6.25v-16.26Z" style="fill:#0a1e3f;"/><path d="m225.83,202.48h6v2.6h.06c1.01-1.94,2.34-3.01,4.61-3.01.63,0,1.23.09,1.83.25v5.48c-.63-.22-1.2-.41-2.46-.41-2.46,0-3.79,1.44-3.79,4.92v6.42h-6.25v-16.26Z" style="fill:#0a1e3f;"/><path d="m251.85,217.49c-.5,1.44-1.07,3.29-2.05,4.51-1.64,2.04-4.17,2.01-6.6,2.01h-2.84v-4.95h1.45c.63,0,1.45.06,1.89-.16.38-.19.6-.5.6-1.22,0-.78-2.4-6.77-2.75-7.71l-2.78-7.49h6.69l2.62,9.34h.06l2.65-9.34h6.47l-5.43,15.01Z" style="fill:#0a1e3f;"/><use width="203.91" height="54.48" transform="translate(72.72 196.15) scale(.42)" xlink:href="#Blue_2"/><path d="m165,38.59c-31.7,0-57.4,25.7-57.4,57.4s25.7,57.4,57.4,57.4,57.4-25.7,57.4-57.4-25.7-57.4-57.4-57.4Z" style="fill:#7d2796;"/><path d="m161.53,79.53c.25,1.64-.53,2.64-1.94,3.35-3.67,1.86-5.4,4.97-5.47,9-.07,3.71-2.29,5.13-5.58,3.31-3.61-1.99-7.04-1.96-10.62.09-2.98,1.71-5.47.13-5.42-3.33.06-4.04-1.47-7.11-5.14-8.97-3.1-1.57-3.14-5.17-.16-6.68,3.73-1.89,5.51-5.02,5.28-9.23-.16-2.98,2.36-4.47,5.29-3.32,1.8.7,3.66,1.61,5.52,1.69,1.67.07,3.47-.7,5.05-1.44,1.5-.7,2.88-.8,4.33-.21,1.49.61,1.39,1.96,1.45,3.27.16,4,1.49,7.3,5.36,9.19,1.25.61,2.36,1.56,2.05,3.27Zm-14.24,7.28c1.29-2.1,2.71-4.34,4.02-6.64.2-.35,0-1.06-.23-1.48-.85-1.56-1.96-3.01-2.66-4.63-.53-1.21-1.21-1.49-2.4-1.45-2.01.06-4.02-.09-6.03-.08-.37,0-.89.28-1.09.59-1.13,1.78-2.09,3.69-3.32,5.41-.61.86-.59,1.29.04,2.1,1.06,1.38,2.21,2.81,2.76,4.41.63,1.8,1.73,1.85,3.21,1.79,1.87-.08,3.75-.02,5.69-.02Z" style="fill:#fff;"/><path d="m147.29,86.81c-1.95,0-3.82-.06-5.69.02-1.48.06-2.58.01-3.21-1.79-.56-1.6-1.7-3.04-2.76-4.41-.62-.81-.65-1.24-.04-2.1,1.22-1.72,2.18-3.62,3.32-5.41.2-.31.72-.59,1.09-.59,2.01-.02,4.02.13,6.03.08,1.2-.03,1.88.24,2.4,1.45.7,1.62,1.81,3.07,2.66,4.63.23.42.42,1.13.23,1.48-1.31,2.3-2.73,4.54-4.02,6.64Zm-.61-7.26c0-2.31-1.12-3.38-3.48-3.37-1.9.02-3.28,1.5-3.28,3.52,0,1.61,1.65,3.66,2.95,3.49,2.55-.33,3.81-.74,3.81-3.65Z" style="fill:#7d2796;"/><path d="m146.68,79.55c0,2.91-1.25,3.32-3.81,3.65-1.3.17-2.95-1.88-2.95-3.49,0-2.02,1.38-3.51,3.28-3.52,2.36-.02,3.47,1.05,3.48,3.37Z" style="fill:#fff;"/></svg>