<svg xmlns="http://www.w3.org/2000/svg" xmlns:xlink="http://www.w3.org/1999/xlink" viewBox="0 0 330 269"><defs><style>.cls-1{fill:#0a1e3f;}.cls-2{fill:#8bb8e8;}</style><symbol id="Blue" data-name="Blue" viewBox="0 0 203.91 54.48"><path class="cls-1" d="M0,1.18H30.36Q38,1.18,42,4.94a12.17,12.17,0,0,1,4.06,9.29,11.79,11.79,0,0,1-2.89,8,12.76,12.76,0,0,1-5.65,3.5q5.64,1.37,8.29,4.66a12.83,12.83,0,0,1,2.66,8.3A14.28,14.28,0,0,1,46.59,46a14,14,0,0,1-5.2,5.14,17.23,17.23,0,0,1-6.14,1.7,70.72,70.72,0,0,1-7.27.72H0ZM16.32,21.77h7.09q3.82,0,5.32-1.3a4.75,4.75,0,0,0,1.5-3.78,4.43,4.43,0,0,0-1.5-3.57q-1.5-1.29-5.21-1.29h-7.2Zm0,20.51h8.29c2.79,0,4.77-.49,5.91-1.48a4.94,4.94,0,0,0,1.73-4,4.59,4.59,0,0,0-1.7-3.72c-1.15-.93-3.13-1.41-6-1.41H16.32Z"/><path class="cls-2" d="M49.6,1.18H65.76V40.65H91v12.9H49.6Z"/><path class="cls-2" d="M125.07,1.18h16.16V32.4a26.16,26.16,0,0,1-1.45,8.77,18.61,18.61,0,0,1-4.54,7.21,17.91,17.91,0,0,1-6.49,4.35,32.64,32.64,0,0,1-11.34,1.75,70.91,70.91,0,0,1-8.36-.54,22,22,0,0,1-7.57-2.12,19.06,19.06,0,0,1-5.56-4.52,16.56,16.56,0,0,1-3.46-6A31.57,31.57,0,0,1,91,32.4V1.18h16.15v32a9.12,9.12,0,0,0,2.39,6.7,10.28,10.28,0,0,0,13.18,0,9.1,9.1,0,0,0,2.38-6.74Z"/><path class="cls-2" d="M161.4,31.15c.5,5.79,3.86,9.92,10,9.92,3.17,0,6.63-1.18,8.22-3.63h18.31c-4,11-14.75,16.11-26.43,16.11-16.44,0-28.81-9.63-28.81-26.63C142.69,12.09,153.58,0,169.82,0,190.21,0,199,11.3,199,31.15ZM180.21,21a8.4,8.4,0,0,0-8.61-8.55c-5.84,0-9.21,3-10.1,8.55Z"/><path class="cls-1" d="M203.91,6a4.45,4.45,0,1,1-4.41-4.33A4.36,4.36,0,0,1,203.91,6Zm-7.78,0a3.36,3.36,0,0,0,3.37,3.45A3.31,3.31,0,0,0,202.8,6a3.34,3.34,0,1,0-6.67,0Zm2.66,2.24h-1V3.87a12.12,12.12,0,0,1,1.66-.13,2.32,2.32,0,0,1,1.48.34,1.12,1.12,0,0,1,.45.93,1.11,1.11,0,0,1-.9,1v.06c.42.13.63.47.76,1a4.18,4.18,0,0,0,.32,1.06h-1.05a3.41,3.41,0,0,1-.35-1.06c-.08-.44-.34-.66-.89-.66h-.48Zm0-2.43h.47c.55,0,1-.19,1-.63s-.29-.66-.92-.66a2.2,2.2,0,0,0-.55,0Z"/></symbol></defs><g id="Capa_1" data-name="Capa 1"><path class="cls-1" d="M184.72,193h13.07c6.29,0,7.62,3.52,7.62,5.94a4.87,4.87,0,0,1-2.94,4.64,5.79,5.79,0,0,1,4.15,5.91c0,4.74-4.15,7.2-8.36,7.2H184.72Zm7.36,9.22H196c1.54,0,2.51-.43,2.51-2,0-1.19-1-1.62-2.51-1.62h-3.87Zm0,8.83h4.31c1.54,0,2.87-.44,2.87-2.26,0-1.39-.83-2.16-2.57-2.16h-4.61Z"/><path class="cls-1" d="M218.11,217.09c-6.52,0-9.46-4.28-9.46-9.06s2.94-9,9.46-9,9.46,4.24,9.46,9S224.63,217.09,218.11,217.09Zm0-13.31c-2.5,0-2.84,2.43-2.84,4.25s.34,4.28,2.84,4.28S221,209.86,221,208,220.62,203.78,218.11,203.78Z"/><path class="cls-1" d="M238.4,199.44h3.54v4.05H238.4v6c0,1.59.37,2.29,2,2.29a10.8,10.8,0,0,0,1.5-.1v5c-1.33,0-2.84.19-4.24.19-2.81,0-5.92-.43-5.92-5.14v-8.22h-2.94v-4.05h2.94V194.2h6.62Z"/><use width="203.91" height="54.48" transform="translate(87.76 192.74) scale(0.44)" xlink:href="#Blue"/></g><g id="Objects"><path class="cls-2" d="M206.81,137.41v-46a8.26,8.26,0,0,0-8.23-8.29H131.43a8.26,8.26,0,0,0-8.24,8.29v46a8.27,8.27,0,0,0,8.24,8.29h67.15A8.27,8.27,0,0,0,206.81,137.41Zm-78.62,0v-46a3.27,3.27,0,0,1,3.24-3.3h67.15a3.27,3.27,0,0,1,3.23,3.3v46a3.27,3.27,0,0,1-3.23,3.3H131.43A3.27,3.27,0,0,1,128.19,137.41Z"/><path class="cls-1" d="M159.92,102.74a10.51,10.51,0,1,0-10.45,10.52A10.56,10.56,0,0,0,159.92,102.74Zm-10.45,4.48a4.54,4.54,0,1,1,4.4-4.48A4.51,4.51,0,0,1,149.47,107.22Z"/><path class="cls-1" d="M191.1,102.74a10.51,10.51,0,1,0-10.45,10.52A10.56,10.56,0,0,0,191.1,102.74Zm-10.45,4.48a4.54,4.54,0,1,1,4.4-4.48A4.51,4.51,0,0,1,180.65,107.22Z"/><path class="cls-2" d="M173.81,59.7a8.81,8.81,0,1,0-8.76,8.82A8.85,8.85,0,0,0,173.81,59.7Zm-8.76,3.75a3.81,3.81,0,1,1,3.69-3.75A3.78,3.78,0,0,1,165.05,63.45Z"/><path class="cls-1" d="M176.73,123.31a2.51,2.51,0,0,0-3.41.93,9.55,9.55,0,0,1-8.36,4.85h0a9.41,9.41,0,0,1-8.25-4.84,2.49,2.49,0,1,0-4.34,2.46,14.35,14.35,0,0,0,12.57,7.37h0a14.47,14.47,0,0,0,12.69-7.36A2.5,2.5,0,0,0,176.73,123.31Z"/><rect class="cls-2" x="161.85" y="67" width="6.3" height="17.5"/><path class="cls-2" d="M205.4,98.35a17.7,17.7,0,0,0-3.59.37v5.75a11.08,11.08,0,1,1,0,20.92v5.76a17.7,17.7,0,0,0,3.59.37c9.39,0,17-7.4,17-16.49A16.88,16.88,0,0,0,205.4,98.35Z"/><path class="cls-2" d="M124.6,131.52a17.7,17.7,0,0,0,3.59-.37V125.4a11.21,11.21,0,0,1-3.64.61,11.08,11.08,0,1,1,3.64-21.53V98.71a18.44,18.44,0,0,0-3.59-.36c-9.39,0-17,7.39-17,16.49A16.88,16.88,0,0,0,124.6,131.52Z"/></g></svg>