<?xml version="1.0" encoding="UTF-8"?><svg id="b" xmlns="http://www.w3.org/2000/svg" xmlns:xlink="http://www.w3.org/1999/xlink" viewBox="0 0 330 269"><defs><symbol id="a" viewBox="0 0 203.91 54.48"><path d="M0,1.18h30.36c5.05,0,8.94,1.25,11.65,3.76,2.7,2.5,4.06,5.61,4.06,9.29,0,3.11-.96,5.77-2.89,7.98-1.29,1.48-3.16,2.65-5.64,3.51,3.76.91,6.52,2.46,8.29,4.66,1.77,2.2,2.65,4.97,2.65,8.3,0,2.7-.63,5.15-1.9,7.32-1.26,2.16-2.99,3.87-5.2,5.13-1.36.78-3.4,1.36-6.14,1.7-3.65.49-6.08.72-7.27.72H0V1.18ZM16.32,21.77h7.09c2.55,0,4.32-.43,5.31-1.29,1-.88,1.5-2.13,1.5-3.78,0-1.52-.49-2.71-1.5-3.57-1-.86-2.74-1.29-5.21-1.29h-7.2v9.94ZM16.32,42.28h8.29c2.8,0,4.77-.49,5.91-1.48,1.15-.98,1.72-2.31,1.72-3.97,0-1.54-.57-2.78-1.7-3.72-1.15-.93-3.13-1.4-5.98-1.4h-8.25v10.57Z" style="fill:#0a1e3f; stroke-width:0px;"/><path d="M49.6,1.18h16.15v39.47h25.25v12.9h-41.41V1.18Z" style="fill:#95b6e5; stroke-width:0px;"/><path d="M125.07,1.18h16.16v31.22c0,3.09-.48,6.02-1.45,8.77-.96,2.76-2.48,5.16-4.54,7.21-2.07,2.06-4.22,3.51-6.5,4.35-3.14,1.17-6.93,1.75-11.34,1.75-2.55,0-5.33-.18-8.36-.54-3.03-.35-5.53-1.07-7.57-2.12-2.03-1.06-3.88-2.57-5.56-4.53-1.67-1.95-2.83-3.96-3.45-6.03-1-3.34-1.49-6.29-1.49-8.86V1.18h16.15v31.99c0,2.86.8,5.1,2.39,6.7,1.58,1.61,3.79,2.41,6.61,2.41s4.99-.79,6.57-2.37c1.59-1.59,2.39-3.83,2.39-6.74V1.18Z" style="fill:#95b6e5; stroke-width:0px;"/><path d="M161.4,31.15c.49,5.8,3.86,9.92,10,9.92,3.17,0,6.63-1.18,8.22-3.64h18.32c-3.96,11.01-14.75,16.11-26.43,16.11-16.43,0-28.81-9.63-28.81-26.63,0-14.84,10.89-26.92,27.13-26.92,20.39,0,29.2,11.3,29.2,31.15h-37.62ZM180.21,21.03c0-4.72-3.56-8.55-8.61-8.55-5.84,0-9.21,3.04-10.1,8.55h18.71Z" style="fill:#95b6e5; stroke-width:0px;"/><path d="M203.91,5.96c0,2.42-1.95,4.35-4.43,4.35s-4.46-1.93-4.46-4.35,1.97-4.33,4.48-4.33,4.4,1.9,4.4,4.33ZM196.13,5.96c0,1.92,1.45,3.45,3.38,3.45,1.87.03,3.3-1.53,3.3-3.43s-1.43-3.48-3.35-3.48-3.32,1.56-3.32,3.46ZM198.79,8.2h-1V3.87c.4-.05.95-.13,1.66-.13.82,0,1.19.13,1.48.34.27.18.45.5.45.92,0,.53-.4.87-.9,1.03v.05c.42.13.63.47.77,1.05.13.66.24.9.31,1.06h-1.05c-.13-.16-.21-.53-.34-1.06-.08-.44-.34-.66-.9-.66h-.47v1.71ZM198.82,5.77h.48c.55,0,1-.19,1-.64,0-.4-.29-.66-.92-.66-.27,0-.45.02-.56.05v1.24Z" style="fill:#0a1e3f; stroke-width:0px;"/></symbol></defs><path d="M161.59,141.11c-5,0-9.43-2.7-11-6.72l-3.42-8.83-5.17-13.36-10.25-3.2c-1.67-.52-2.81-2.07-2.81-3.82v-52.69c0-2.21,1.79-4,4-4,.4,0,.81.06,1.19.18l11.39,3.55c1.42.29,2.56,1.33,3,2.71l6.12,15.8,3.45,8.93c.26.67,1.64,1.61,3.53,1.61h2.31c1.9,0,3.28-.94,3.54-1.61l4.11-10.66,5.42-13.94c.35-1.34,1.37-2.41,2.69-2.82l11.44-3.56c.38-.13.79-.19,1.19-.19,2.21,0,4,1.79,4,4v52.62c0,1.77-1.13,3.34-2.81,3.89l-9.94,3.1s-5.14,13.29-5.15,13.33l-3.47,9c-1.56,4-6,6.72-11,6.72l-2.36-.04Z" style="fill:#7d2796; stroke-width:0px;"/><path d="M180.83,56.06v.1l-5.51,14.25-.67,1.73h0l-3.47,9c-.95,2.46-3.94,4.17-7.27,4.17h-2.31c-3.32,0-6.31-1.71-7.26-4.17l-3.42-8.83s0-.06,0-.09l-.68-1.77-5.52-14.25h-.11l-11.63-3.63v52.69l11.63,3.63h.39l5.2,13.45.68,1.76v.09l3.42,8.83c.95,2.46,3.94,4.17,7.26,4.17h2.31c3.33,0,6.32-1.71,7.27-4.17l3.47-9h0l.67-1.72,5.19-13.45h.14l11.63-3.63v-52.73l-11.41,3.57Z" style="fill:#7d2796; stroke-width:0px;"/><path d="M180.83,56.06v.1l-5.51,14.25-.67,1.73h0l-3.47,9c-.95,2.46-3.94,4.17-7.27,4.17h-2.31c-3.32,0-6.31-1.71-7.26-4.17l-3.42-8.83s0-.06,0-.09l-.68-1.77-5.52-14.25h-.11l-11.63-3.63v52.69l11.63,3.63h.39l5.2,13.45.68,1.76v.09l3.42,8.83c.95,2.46,3.94,4.17,7.26,4.17h2.31c3.33,0,6.32-1.71,7.27-4.17l3.47-9h0l.67-1.72,5.19-13.45h.14l11.63-3.63v-52.73l-11.41,3.57Z" style="fill:#8bb8e8; stroke-width:0px;"/><path d="M163.49,99.25c0,3.51-1.94,5.92-5.92,5.92s-5.81-2.64-5.83-5.85,1.92-5.88,5.95-5.88,5.8,2.71,5.8,5.81ZM155.41,99.32c0,2.6.84,3.84,2.25,3.84s2.19-1.29,2.19-3.87-.75-3.84-2.21-3.84-2.26,1.24-2.23,3.87Z" style="fill:#7d2796; stroke-width:0px;"/><path d="M170,96h0l-3,1-.6-2,4.12-1.39h3v11.39h-3.52v-9Z" style="fill:#7d2796; stroke-width:0px;"/><path d="M189.45,209.01c0,.6.1,1.13.27,1.56.54,1.43,2.14,1.72,3.51,1.72,1.2,0,3.04-.4,3.04-2.16,0-1.23-1.04-1.56-5.15-2.72-3.78-1.06-8.09-2.09-8.09-6.87,0-5.47,4.71-7.83,9.63-7.83,5.18,0,9.76,1.96,9.96,7.73h-6.95c.13-.9-.27-1.49-.87-1.89-.6-.43-1.44-.6-2.17-.6-1,0-2.64.27-2.64,1.59.13,1.69,3.54,2.06,6.92,2.99,3.38.93,6.72,2.49,6.72,6.83,0,6.17-5.72,8.16-11.03,8.16-2.71,0-10.43-.96-10.5-8.53h7.35Z" style="fill:#0a1e3f; stroke-width:0px;"/><path d="M210.88,197.9h-6.62v-4.61h6.62v4.61ZM204.26,199.75h6.62v17.22h-6.62v-17.22Z" style="fill:#0a1e3f; stroke-width:0px;"/><path d="M212.95,199.75h6.39v2.29h.07c1.34-1.99,3.28-2.72,5.68-2.72,1.87,0,3.88.96,4.68,2.69.27-.2,1.61-2.69,5.92-2.69s5.95,3.05,5.95,5.84v11.81h-6.62v-9.32c0-1.63-.17-3.08-2.17-3.08-1.67,0-2.24,1.29-2.24,3.08v9.32h-6.62v-9.32c0-1.63-.17-3.08-2.17-3.08-1.67,0-2.24,1.29-2.24,3.08v9.32h-6.62v-17.22Z" style="fill:#0a1e3f; stroke-width:0px;"/><use width="203.91" height="54.48" transform="translate(86.64 193.05) scale(.44)" xlink:href="#a"/></svg>