<svg id="Capa_1" data-name="Capa 1" xmlns="http://www.w3.org/2000/svg" xmlns:xlink="http://www.w3.org/1999/xlink" viewBox="0 0 330 269"><defs><style>.cls-1{fill:#0a1e3f;}.cls-2{fill:#8bb8e8;}.cls-3{fill:#f17533;}.cls-4{fill:#7d2796;}.cls-5{fill:#96c061;}</style><symbol id="Blue" data-name="Blue" viewBox="0 0 203.91 54.48"><path class="cls-1" d="M0,1.18H30.36Q38,1.18,42,4.94a12.17,12.17,0,0,1,4.06,9.29,11.79,11.79,0,0,1-2.89,8,12.76,12.76,0,0,1-5.65,3.5q5.64,1.37,8.29,4.66a12.83,12.83,0,0,1,2.66,8.3A14.28,14.28,0,0,1,46.59,46a14,14,0,0,1-5.2,5.14,17.23,17.23,0,0,1-6.14,1.7,70.72,70.72,0,0,1-7.27.72H0ZM16.32,21.77h7.09q3.82,0,5.32-1.3a4.75,4.75,0,0,0,1.5-3.78,4.43,4.43,0,0,0-1.5-3.57q-1.5-1.29-5.21-1.29h-7.2Zm0,20.51h8.29c2.79,0,4.77-.49,5.91-1.48a4.94,4.94,0,0,0,1.73-4,4.59,4.59,0,0,0-1.7-3.72c-1.15-.93-3.13-1.41-6-1.41H16.32Z"/><path class="cls-2" d="M49.6,1.18H65.76V40.65H91v12.9H49.6Z"/><path class="cls-2" d="M125.07,1.18h16.16V32.4a26.16,26.16,0,0,1-1.45,8.77,18.61,18.61,0,0,1-4.54,7.21,17.91,17.91,0,0,1-6.49,4.35,32.64,32.64,0,0,1-11.34,1.75,70.91,70.91,0,0,1-8.36-.54,22,22,0,0,1-7.57-2.12,19.06,19.06,0,0,1-5.56-4.52,16.56,16.56,0,0,1-3.46-6A31.57,31.57,0,0,1,91,32.4V1.18h16.15v32a9.12,9.12,0,0,0,2.39,6.7,10.28,10.28,0,0,0,13.18,0,9.1,9.1,0,0,0,2.38-6.74Z"/><path class="cls-2" d="M161.4,31.15c.5,5.79,3.86,9.92,10,9.92,3.17,0,6.63-1.18,8.22-3.63h18.31c-4,11-14.75,16.11-26.43,16.11-16.44,0-28.81-9.63-28.81-26.63C142.69,12.09,153.58,0,169.82,0,190.21,0,199,11.3,199,31.15ZM180.21,21a8.4,8.4,0,0,0-8.61-8.55c-5.84,0-9.21,3-10.1,8.55Z"/><path class="cls-1" d="M203.91,6a4.45,4.45,0,1,1-4.41-4.33A4.36,4.36,0,0,1,203.91,6Zm-7.78,0a3.36,3.36,0,0,0,3.37,3.45A3.31,3.31,0,0,0,202.8,6a3.34,3.34,0,1,0-6.67,0Zm2.66,2.24h-1V3.87a12.12,12.12,0,0,1,1.66-.13,2.32,2.32,0,0,1,1.48.34,1.12,1.12,0,0,1,.45.93,1.11,1.11,0,0,1-.9,1v.06c.42.13.63.47.76,1a4.18,4.18,0,0,0,.32,1.06h-1.05a3.41,3.41,0,0,1-.35-1.06c-.08-.44-.34-.66-.89-.66h-.48Zm0-2.43h.47c.55,0,1-.19,1-.63s-.29-.66-.92-.66a2.2,2.2,0,0,0-.55,0Z"/></symbol></defs><path class="cls-1" d="M188.92,202.09a3.81,3.81,0,0,0-3.84-3.48c-3.45,0-4.55,3.31-4.55,6.5s1.1,6.5,4.55,6.5c2.47,0,3.44-1.72,3.88-4h7.22c0,4.78-3.91,9.86-10.9,9.86-7.72,0-12.1-5.41-12.1-12.41,0-7.46,4.74-12.41,12.1-12.41,6.55,0,10.16,3.45,10.8,9.39Z"/><path class="cls-1" d="M197.54,193.27H208l3.41,13.93h.06l3.41-13.93h10.47V217h-7V201.76h-.06L214.19,217h-5.48l-4.15-15.19h-.06V217h-7Z"/><path class="cls-1" d="M233.31,209a4.27,4.27,0,0,0,.27,1.56c.53,1.43,2.13,1.72,3.51,1.72,1.2,0,3-.39,3-2.15,0-1.23-1-1.56-5.15-2.72-3.78-1.06-8.09-2.09-8.09-6.87,0-5.47,4.71-7.83,9.63-7.83,5.18,0,9.76,2,10,7.73h-6.95a1.82,1.82,0,0,0-.87-1.89,3.86,3.86,0,0,0-2.18-.6c-1,0-2.64.27-2.64,1.6.14,1.69,3.55,2.05,6.92,3s6.72,2.49,6.72,6.83c0,6.18-5.71,8.17-11,8.17-2.71,0-10.43-1-10.5-8.53Z"/><use width="203.91" height="54.48" transform="translate(76.91 193.03) scale(0.44)" xlink:href="#Blue"/><path class="cls-3" d="M166.66,83.87a1.81,1.81,0,0,0-.17.79,1.9,1.9,0,0,0,.44,1.21l16.75,19.84a1.86,1.86,0,0,0,1.43.66,1.9,1.9,0,0,0,1.44-.66l16.74-19.84a1.88,1.88,0,0,0-1.43-3.09h-5.24v-34a1.88,1.88,0,0,0-1.88-1.88H175.48a1.88,1.88,0,0,0-1.88,1.88v34h-5.24A1.87,1.87,0,0,0,166.66,83.87Z"/><path class="cls-4" d="M137.85,47.58,121.1,67.41a1.9,1.9,0,0,0-.44,1.21,2.05,2.05,0,0,0,.17.8,1.89,1.89,0,0,0,1.71,1.08h5.24v34a1.88,1.88,0,0,0,1.87,1.88h19.26a1.88,1.88,0,0,0,1.88-1.88v-34H156a1.88,1.88,0,0,0,1.43-3.09L140.72,47.58a1.87,1.87,0,0,0-2.87,0Z"/><rect class="cls-3" x="111.67" y="116.11" width="30.4" height="27.08" rx="7.67"/><rect class="cls-4" x="182.32" y="116.11" width="30.4" height="27.08" rx="7.67"/><path class="cls-5" d="M154.67,116.11a7.69,7.69,0,0,0-7.67,7.67v11.73a7.69,7.69,0,0,0,7.67,7.67h7.52V116.11Z"/><path class="cls-1" d="M169.73,116.11h-7.54v27.07h7.54a7.7,7.7,0,0,0,7.67-7.67V123.78A7.7,7.7,0,0,0,169.73,116.11Z"/></svg>