<?xml version="1.0" encoding="UTF-8"?><svg id="b" xmlns="http://www.w3.org/2000/svg" xmlns:xlink="http://www.w3.org/1999/xlink" viewBox="0 0 330 269"><defs><symbol id="a" viewBox="0 0 203.91 54.48"><path d="M0,1.18h30.36c5.05,0,8.94,1.25,11.65,3.76,2.7,2.5,4.06,5.61,4.06,9.29,0,3.11-.96,5.77-2.89,7.98-1.29,1.48-3.16,2.65-5.64,3.51,3.76.91,6.52,2.46,8.29,4.66,1.77,2.2,2.65,4.97,2.65,8.3,0,2.7-.63,5.15-1.9,7.32-1.26,2.16-2.99,3.87-5.2,5.13-1.36.78-3.4,1.36-6.14,1.7-3.65.49-6.08.72-7.27.72H0V1.18ZM16.32,21.77h7.09c2.55,0,4.32-.43,5.31-1.29,1-.88,1.5-2.13,1.5-3.78,0-1.52-.49-2.71-1.5-3.57-1-.86-2.74-1.29-5.21-1.29h-7.2v9.94ZM16.32,42.28h8.29c2.8,0,4.77-.49,5.91-1.48,1.15-.98,1.72-2.31,1.72-3.97,0-1.54-.57-2.78-1.7-3.72-1.15-.93-3.13-1.4-5.98-1.4h-8.25v10.57Z" style="fill:#0a1e3f; stroke-width:0px;"/><path d="M49.6,1.18h16.15v39.47h25.25v12.9h-41.41V1.18Z" style="fill:#95b6e5; stroke-width:0px;"/><path d="M125.07,1.18h16.16v31.22c0,3.09-.48,6.02-1.45,8.77-.96,2.76-2.48,5.16-4.54,7.21-2.07,2.06-4.22,3.51-6.5,4.35-3.14,1.17-6.93,1.75-11.34,1.75-2.55,0-5.33-.18-8.36-.54-3.03-.35-5.53-1.07-7.57-2.12-2.03-1.06-3.88-2.57-5.56-4.53-1.67-1.95-2.83-3.96-3.45-6.03-1-3.34-1.49-6.29-1.49-8.86V1.18h16.15v31.99c0,2.86.8,5.1,2.39,6.7,1.58,1.61,3.79,2.41,6.61,2.41s4.99-.79,6.57-2.37c1.59-1.59,2.39-3.83,2.39-6.74V1.18Z" style="fill:#95b6e5; stroke-width:0px;"/><path d="M161.4,31.15c.49,5.8,3.86,9.92,10,9.92,3.17,0,6.63-1.18,8.22-3.64h18.32c-3.96,11.01-14.75,16.11-26.43,16.11-16.43,0-28.81-9.63-28.81-26.63,0-14.84,10.89-26.92,27.13-26.92,20.39,0,29.2,11.3,29.2,31.15h-37.62ZM180.21,21.03c0-4.72-3.56-8.55-8.61-8.55-5.84,0-9.21,3.04-10.1,8.55h18.71Z" style="fill:#95b6e5; stroke-width:0px;"/><path d="M203.91,5.96c0,2.42-1.95,4.35-4.43,4.35s-4.46-1.93-4.46-4.35,1.97-4.33,4.48-4.33,4.4,1.9,4.4,4.33ZM196.13,5.96c0,1.92,1.45,3.45,3.38,3.45,1.87.03,3.3-1.53,3.3-3.43s-1.43-3.48-3.35-3.48-3.32,1.56-3.32,3.46ZM198.79,8.2h-1V3.87c.4-.05.95-.13,1.66-.13.82,0,1.19.13,1.48.34.27.18.45.5.45.92,0,.53-.4.87-.9,1.03v.05c.42.13.63.47.77,1.05.13.66.24.9.31,1.06h-1.05c-.13-.16-.21-.53-.34-1.06-.08-.44-.34-.66-.9-.66h-.47v1.71ZM198.82,5.77h.48c.55,0,1-.19,1-.64,0-.4-.29-.66-.92-.66-.27,0-.45.02-.56.05v1.24Z" style="fill:#0a1e3f; stroke-width:0px;"/></symbol></defs><g id="c"><path d="M206.81,137.41v-46c.02-4.56-3.67-8.27-8.23-8.29h-67.15c-4.56.01-8.25,3.72-8.24,8.28,0,0,0,0,0,.01v46c-.01,4.56,3.68,8.27,8.24,8.29h67.15c4.56-.02,8.24-3.73,8.23-8.29ZM128.19,137.41v-46c-.02-1.81,1.43-3.28,3.24-3.3h67.15c1.8.02,3.25,1.5,3.23,3.3v46c.02,1.8-1.43,3.28-3.23,3.3h-67.15c-1.81-.02-3.26-1.49-3.24-3.3h0Z" style="fill:#8bb8e8; stroke-width:0px;"/><path d="M159.92,102.74c0-5.8-4.72-10.51-10.52-10.5-5.8,0-10.51,4.72-10.5,10.52,0,5.8,4.72,10.51,10.52,10.5.02,0,.03,0,.05,0,5.77-.06,10.43-4.75,10.45-10.52ZM149.47,107.22c-2.51.08-4.6-1.89-4.68-4.4s1.89-4.6,4.4-4.68c2.51-.08,4.6,1.89,4.68,4.4,0,.07,0,.13,0,.2-.02,2.44-1.96,4.42-4.4,4.48Z" style="fill:#0a1e3f; stroke-width:0px;"/><path d="M191.1,102.74c0-5.8-4.72-10.51-10.52-10.5-5.8,0-10.51,4.72-10.5,10.52,0,5.8,4.72,10.51,10.52,10.5.02,0,.03,0,.05,0,5.77-.06,10.43-4.75,10.45-10.52ZM180.65,107.22c-2.51.08-4.6-1.89-4.68-4.4s1.89-4.6,4.4-4.68c2.51-.08,4.6,1.89,4.68,4.4,0,.07,0,.13,0,.2-.02,2.44-1.96,4.42-4.4,4.48h0Z" style="fill:#0a1e3f; stroke-width:0px;"/><path d="M173.81,59.7c0-4.87-3.95-8.81-8.82-8.8-4.87,0-8.81,3.95-8.8,8.82,0,4.87,3.95,8.81,8.82,8.8.01,0,.03,0,.04,0,4.84-.05,8.74-3.98,8.76-8.82ZM165.05,63.45c-2.1.07-3.86-1.59-3.93-3.69-.07-2.1,1.59-3.86,3.69-3.93,2.1-.07,3.86,1.59,3.93,3.69,0,.06,0,.12,0,.18-.02,2.04-1.65,3.7-3.69,3.75Z" style="fill:#8bb8e8; stroke-width:0px;"/><path d="M176.73,123.31c-1.2-.68-2.72-.26-3.41.93-1.7,3.01-4.9,4.87-8.36,4.85h0c-3.43,0-6.59-1.85-8.25-4.84-.68-1.2-2.2-1.62-3.4-.94-1.2.68-1.62,2.2-.94,3.4h0c2.54,4.56,7.35,7.38,12.57,7.37h0c5.25.03,10.11-2.79,12.69-7.36.69-1.19.29-2.71-.9-3.41Z" style="fill:#0a1e3f; stroke-width:0px;"/><rect x="161.85" y="67" width="6.3" height="17.5" style="fill:#8bb8e8; stroke-width:0px;"/><path d="M205.4,98.35c-1.21,0-2.41.12-3.59.37v5.75c5.78-2.02,12.1,1.03,14.11,6.81,2.02,5.78-1.03,12.1-6.81,14.11-2.37.83-4.94.83-7.31,0v5.76c1.18.25,2.38.37,3.59.37,9.39,0,17-7.4,17-16.49-.11-9.29-7.71-16.75-17-16.68Z" style="fill:#8bb8e8; stroke-width:0px;"/><path d="M124.6,131.52c1.21,0,2.41-.12,3.59-.37v-5.75c-1.17.4-2.4.61-3.64.61-6.12.02-11.1-4.92-11.12-11.04-.02-6.12,4.92-11.1,11.04-11.12,1.27,0,2.53.21,3.73.63v-5.77c-1.18-.24-2.38-.36-3.59-.36-9.39,0-17,7.39-17,16.49.11,9.29,7.71,16.75,17,16.68Z" style="fill:#8bb8e8; stroke-width:0px;"/></g><path d="M160.39,192.99h10.46l3.41,13.93h.07l3.41-13.93h10.46v23.69h-6.95v-15.19h-.07l-4.15,15.19h-5.48l-4.15-15.19h-.07v15.19h-6.95v-23.69Z" style="fill:#0a1e3f; stroke-width:0px;"/><path d="M198.93,217.11c-6.52,0-9.46-4.28-9.46-9.06s2.94-9.02,9.46-9.02,9.46,4.25,9.46,9.02-2.94,9.06-9.46,9.06ZM198.93,203.8c-2.51,0-2.84,2.42-2.84,4.25s.33,4.28,2.84,4.28,2.84-2.46,2.84-4.28-.33-4.25-2.84-4.25Z" style="fill:#0a1e3f; stroke-width:0px;"/><path d="M209.59,192.99h6.62v8.36h.07c1-1.46,2.77-2.32,4.75-2.32,5.82,0,7.39,4.91,7.39,8.96,0,4.31-2.37,9.12-7.29,9.12-3.24,0-4.25-1.23-5.08-2.32h-.07v1.89h-6.38v-23.69ZM218.88,203.8c-2.37,0-2.91,2.22-2.91,4.25s.54,4.28,2.91,4.28,2.91-2.22,2.91-4.28-.54-4.25-2.91-4.25Z" style="fill:#0a1e3f; stroke-width:0px;"/><path d="M236.33,197.6h-6.62v-4.61h6.62v4.61ZM229.71,199.46h6.62v17.22h-6.62v-17.22Z" style="fill:#0a1e3f; stroke-width:0px;"/><path d="M238.57,192.99h6.62v23.69h-6.62v-23.69Z" style="fill:#0a1e3f; stroke-width:0px;"/><path d="M252.87,209.54c.17,1.96,1.3,3.35,3.38,3.35,1.07,0,2.24-.4,2.78-1.23h6.18c-1.34,3.72-4.98,5.44-8.93,5.44-5.55,0-9.73-3.25-9.73-8.99,0-5.01,3.68-9.09,9.16-9.09,6.89,0,9.86,3.82,9.86,10.52h-12.7ZM259.23,206.13c0-1.59-1.2-2.89-2.91-2.89-1.97,0-3.11,1.03-3.41,2.89h6.32Z" style="fill:#0a1e3f; stroke-width:0px;"/><use width="203.91" height="54.48" transform="translate(63.46 192.76) scale(.44)" xlink:href="#a"/></svg>