<?xml version="1.0" encoding="UTF-8"?><svg id="b" xmlns="http://www.w3.org/2000/svg" xmlns:xlink="http://www.w3.org/1999/xlink" viewBox="0 0 330 269"><defs><symbol id="a" viewBox="0 0 203.91 54.48"><path d="M0,1.18h30.36c5.05,0,8.94,1.25,11.65,3.76,2.7,2.5,4.06,5.61,4.06,9.29,0,3.11-.96,5.77-2.89,7.98-1.29,1.48-3.16,2.65-5.64,3.51,3.76.91,6.52,2.46,8.29,4.66,1.77,2.2,2.65,4.97,2.65,8.3,0,2.7-.63,5.15-1.9,7.32-1.26,2.16-2.99,3.87-5.2,5.13-1.36.78-3.4,1.36-6.14,1.7-3.65.49-6.08.72-7.27.72H0V1.18ZM16.32,21.77h7.09c2.55,0,4.32-.43,5.31-1.29,1-.88,1.5-2.13,1.5-3.78,0-1.52-.49-2.71-1.5-3.57-1-.86-2.74-1.29-5.21-1.29h-7.2v9.94ZM16.32,42.28h8.29c2.8,0,4.77-.49,5.91-1.48,1.15-.98,1.72-2.31,1.72-3.97,0-1.54-.57-2.78-1.7-3.72-1.15-.93-3.13-1.4-5.98-1.4h-8.25v10.57Z" style="fill:#0a1e3f; stroke-width:0px;"/><path d="M49.6,1.18h16.15v39.47h25.25v12.9h-41.41V1.18Z" style="fill:#95b6e5; stroke-width:0px;"/><path d="M125.07,1.18h16.16v31.22c0,3.09-.48,6.02-1.45,8.77-.96,2.76-2.48,5.16-4.54,7.21-2.07,2.06-4.22,3.51-6.5,4.35-3.14,1.17-6.93,1.75-11.34,1.75-2.55,0-5.33-.18-8.36-.54-3.03-.35-5.53-1.07-7.57-2.12-2.03-1.06-3.88-2.57-5.56-4.53-1.67-1.95-2.83-3.96-3.45-6.03-1-3.34-1.49-6.29-1.49-8.86V1.18h16.15v31.99c0,2.86.8,5.1,2.39,6.7,1.58,1.61,3.79,2.41,6.61,2.41s4.99-.79,6.57-2.37c1.59-1.59,2.39-3.83,2.39-6.74V1.18Z" style="fill:#95b6e5; stroke-width:0px;"/><path d="M161.4,31.15c.49,5.8,3.86,9.92,10,9.92,3.17,0,6.63-1.18,8.22-3.64h18.32c-3.96,11.01-14.75,16.11-26.43,16.11-16.43,0-28.81-9.63-28.81-26.63,0-14.84,10.89-26.92,27.13-26.92,20.39,0,29.2,11.3,29.2,31.15h-37.62ZM180.21,21.03c0-4.72-3.56-8.55-8.61-8.55-5.84,0-9.21,3.04-10.1,8.55h18.71Z" style="fill:#95b6e5; stroke-width:0px;"/><path d="M203.91,5.96c0,2.42-1.95,4.35-4.43,4.35s-4.46-1.93-4.46-4.35,1.97-4.33,4.48-4.33,4.4,1.9,4.4,4.33ZM196.13,5.96c0,1.92,1.45,3.45,3.38,3.45,1.87.03,3.3-1.53,3.3-3.43s-1.43-3.48-3.35-3.48-3.32,1.56-3.32,3.46ZM198.79,8.2h-1V3.87c.4-.05.95-.13,1.66-.13.82,0,1.19.13,1.48.34.27.18.45.5.45.92,0,.53-.4.87-.9,1.03v.05c.42.13.63.47.77,1.05.13.66.24.9.31,1.06h-1.05c-.13-.16-.21-.53-.34-1.06-.08-.44-.34-.66-.9-.66h-.47v1.71ZM198.82,5.77h.48c.55,0,1-.19,1-.64,0-.4-.29-.66-.92-.66-.27,0-.45.02-.56.05v1.24Z" style="fill:#0a1e3f; stroke-width:0px;"/></symbol></defs><path d="M199.33,94.5c0-4.94-6.67-9.26-16.61-11.63,9.94-2.39,16.61-6.7,16.61-11.64,0-7.51-15.35-13.59-34.29-13.59s-34.27,6.08-34.27,13.59c0,4.94,6.66,9.25,16.6,11.64-9.94,2.37-16.6,6.69-16.6,11.63s7,9.45,17.27,11.79c-10.34,2.34-17.32,6.74-17.32,11.81,0,7.5,15.35,13.59,34.28,13.59s34.28-6.09,34.28-13.59c0-5.06-7-9.46-17.27-11.8,10.33-2.3,17.32-6.75,17.32-11.8Z" style="fill:#8bb8e8; stroke-width:0px;"/><path d="M201.72,69.62c0-8.84-16.44-16-36.71-16s-36.73,7.16-36.73,16v62.08c0,8.82,16.44,16,36.73,16s36.71-7.18,36.71-16v-62.08ZM165,58.24c16.87,0,28.79,5.25,31.51,9.6.36.53.56,1.14.58,1.78,0,3.24-6.55,7.67-17.35,9.94-9.74,1.93-19.76,1.93-29.5,0-10.8-2.27-17.35-6.7-17.35-9.94.01-.51.16-1.02.42-1.46,2.3-4.41,14.38-9.92,31.69-9.92Z" style="fill:#0a1e3f; stroke-width:0px;"/><path d="M165,85.06c-13.53,0-24.49,10.95-24.5,24.48s10.95,24.49,24.48,24.5,24.49-10.95,24.5-24.48v-.02c0-13.52-10.96-24.48-24.48-24.48M165,132.06c-12.46,0-22.56-10.1-22.56-22.56s10.1-22.56,22.56-22.56c12.46,0,22.56,10.1,22.56,22.56h0c.02,12.46-10.06,22.58-22.52,22.6-.01,0-.03,0-.04,0" style="fill:#0a1e3f; stroke-width:0px;"/><path d="M165,87c-12.46,0-22.56,10.1-22.56,22.56s10.1,22.56,22.56,22.56,22.56-10.1,22.56-22.56h0c0-12.47-10.1-22.56-22.56-22.56M165,130.9c-11.79,0-21.35-9.55-21.36-21.34,0-11.79,9.55-21.35,21.34-21.36s21.35,9.55,21.36,21.34h0c0,11.8-9.55,21.35-21.34,21.35h0" style="fill:#8bb8e8; stroke-width:0px;"/><path d="M165,88.2c-11.79,0-21.35,9.55-21.36,21.34,0,11.79,9.55,21.35,21.34,21.36s21.35-9.55,21.36-21.34h0c0-11.8-9.54-21.35-21.33-21.36h0" style="fill:#0a1e3f; stroke-width:0px;"/><path d="M161.57,116.12h4.48c1.78,0,3-.63,3-2.41s-1.33-2.52-3-2.52h-4.48v4.93ZM161.57,107.58h4.33c1.15.11,2.17-.73,2.28-1.88,0-.04,0-.08,0-.12,0-1.56-1.11-2.07-2.29-2.07h-4.33v4.07ZM156,99.13h10c3.71-.06,7.76.9,7.76,5.38-.02,1.87-1.12,3.55-2.82,4.33,2.25.65,3.78,2.74,3.7,5.08,0,5.12-3.76,6.68-8.36,6.68h-10.28v-21.47Z" style="fill:#fff; stroke-width:0px;"/><path d="M186.94,129.58h.33c.18,0,.4,0,.4.24s-.16.27-.38.27h-.35v-.51ZM186.56,131.22h.38v-.83h.24l.48.83h.4l-.52-.85c.26.02.49-.18.51-.45,0-.02,0-.04,0-.06,0-.42-.27-.58-.76-.58h-.73v1.94ZM185.95,130.22c0-.72.58-1.3,1.3-1.3s1.3.58,1.3,1.3-.58,1.3-1.3,1.3-1.3-.58-1.3-1.3ZM185.47,130.22c-.03.98.74,1.81,1.72,1.84.98.03,1.81-.74,1.84-1.72.03-.98-.74-1.81-1.72-1.84-.02,0-.04,0-.06,0-.95-.03-1.75.71-1.78,1.66,0,.03,0,.06,0,.09v-.03Z" style="fill:#8bb8e8; fill-rule:evenodd; stroke-width:0px;"/><path d="M144.57,193.28h7.52l6.95,12.67h.07v-12.67h6.95v23.69h-7.15l-7.32-12.94h-.07v12.94h-6.95v-23.69Z" style="fill:#0a1e3f; stroke-width:0px;"/><path d="M173.72,209.83c.17,1.96,1.3,3.35,3.38,3.35,1.07,0,2.24-.4,2.78-1.23h6.18c-1.34,3.72-4.98,5.44-8.93,5.44-5.55,0-9.73-3.25-9.73-8.99,0-5.01,3.68-9.09,9.16-9.09,6.89,0,9.86,3.82,9.86,10.52h-12.7ZM180.07,206.42c0-1.59-1.2-2.89-2.91-2.89-1.97,0-3.11,1.03-3.41,2.89h6.32Z" style="fill:#0a1e3f; stroke-width:0px;"/><path d="M195.48,199.75h3.54v4.05h-3.54v6c0,1.59.37,2.29,2.04,2.29.5,0,1-.03,1.5-.1v4.98c-1.34,0-2.84.2-4.25.2-2.81,0-5.92-.43-5.92-5.14v-8.23h-2.94v-4.05h2.94v-5.24h6.62v5.24Z" style="fill:#0a1e3f; stroke-width:0px;"/><path d="M224.07,216.97h-6.79l-2.51-10.58h-.07l-2.57,10.58h-6.79l-5.42-17.22h6.89l2.57,10.65h.07l2.21-10.65h6.19l2.31,10.65h.13l2.41-10.65h6.89l-5.52,17.22Z" style="fill:#0a1e3f; stroke-width:0px;"/><path d="M238.17,217.4c-6.52,0-9.46-4.28-9.46-9.06s2.94-9.02,9.46-9.02,9.46,4.25,9.46,9.02-2.94,9.06-9.46,9.06ZM238.17,204.09c-2.51,0-2.84,2.42-2.84,4.25s.33,4.28,2.84,4.28,2.84-2.46,2.84-4.28-.33-4.25-2.84-4.25Z" style="fill:#0a1e3f; stroke-width:0px;"/><path d="M248.83,199.75h6.35v2.75h.07c1.07-2.06,2.47-3.18,4.88-3.18.67,0,1.3.1,1.94.27v5.81c-.67-.23-1.27-.43-2.61-.43-2.61,0-4.01,1.53-4.01,5.21v6.8h-6.62v-17.22Z" style="fill:#0a1e3f; stroke-width:0px;"/><path d="M263.14,193.28h6.62v11.44l4.21-4.98h7.49l-6.18,6.5,7.15,10.71h-7.96l-3.54-6.24-1.17,1.26v4.98h-6.62v-23.69Z" style="fill:#0a1e3f; stroke-width:0px;"/><use width="203.91" height="54.48" transform="translate(47.57 193.05) scale(.44)" xlink:href="#a"/></svg>