<svg xmlns="http://www.w3.org/2000/svg" xmlns:xlink="http://www.w3.org/1999/xlink" viewBox="0 0 330 269"><defs><style>.cls-1{fill:#0a1e3f;}.cls-2{fill:#8bb8e8;}.cls-3{fill:#fff;}</style><symbol id="Blue" data-name="Blue" viewBox="0 0 203.91 54.48"><path class="cls-1" d="M0,1.18H30.36Q38,1.18,42,4.94a12.17,12.17,0,0,1,4.06,9.29,11.79,11.79,0,0,1-2.89,8,12.76,12.76,0,0,1-5.65,3.5q5.64,1.37,8.29,4.66a12.83,12.83,0,0,1,2.66,8.3A14.28,14.28,0,0,1,46.59,46a14,14,0,0,1-5.2,5.14,17.23,17.23,0,0,1-6.14,1.7,70.72,70.72,0,0,1-7.27.72H0ZM16.32,21.77h7.09q3.82,0,5.32-1.3a4.75,4.75,0,0,0,1.5-3.78,4.43,4.43,0,0,0-1.5-3.57q-1.5-1.29-5.21-1.29h-7.2Zm0,20.51h8.29c2.79,0,4.77-.49,5.91-1.48a4.94,4.94,0,0,0,1.73-4,4.59,4.59,0,0,0-1.7-3.72c-1.15-.93-3.13-1.41-6-1.41H16.32Z"/><path class="cls-2" d="M49.6,1.18H65.76V40.65H91v12.9H49.6Z"/><path class="cls-2" d="M125.07,1.18h16.16V32.4a26.16,26.16,0,0,1-1.45,8.77,18.61,18.61,0,0,1-4.54,7.21,17.91,17.91,0,0,1-6.49,4.35,32.64,32.64,0,0,1-11.34,1.75,70.91,70.91,0,0,1-8.36-.54,22,22,0,0,1-7.57-2.12,19.06,19.06,0,0,1-5.56-4.52,16.56,16.56,0,0,1-3.46-6A31.57,31.57,0,0,1,91,32.4V1.18h16.15v32a9.12,9.12,0,0,0,2.39,6.7,10.28,10.28,0,0,0,13.18,0,9.1,9.1,0,0,0,2.38-6.74Z"/><path class="cls-2" d="M161.4,31.15c.5,5.79,3.86,9.92,10,9.92,3.17,0,6.63-1.18,8.22-3.63h18.31c-4,11-14.75,16.11-26.43,16.11-16.44,0-28.81-9.63-28.81-26.63C142.69,12.09,153.58,0,169.82,0,190.21,0,199,11.3,199,31.15ZM180.21,21a8.4,8.4,0,0,0-8.61-8.55c-5.84,0-9.21,3-10.1,8.55Z"/><path class="cls-1" d="M203.91,6a4.45,4.45,0,1,1-4.41-4.33A4.36,4.36,0,0,1,203.91,6Zm-7.78,0a3.36,3.36,0,0,0,3.37,3.45A3.31,3.31,0,0,0,202.8,6a3.34,3.34,0,1,0-6.67,0Zm2.66,2.24h-1V3.87a12.12,12.12,0,0,1,1.66-.13,2.32,2.32,0,0,1,1.48.34,1.12,1.12,0,0,1,.45.93,1.11,1.11,0,0,1-.9,1v.06c.42.13.63.47.76,1a4.18,4.18,0,0,0,.32,1.06h-1.05a3.41,3.41,0,0,1-.35-1.06c-.08-.44-.34-.66-.89-.66h-.48Zm0-2.43h.47c.55,0,1-.19,1-.63s-.29-.66-.92-.66a2.2,2.2,0,0,0-.55,0Z"/></symbol></defs><g id="Capa_1" data-name="Capa 1"><path class="cls-1" d="M177.42,201.79a3.81,3.81,0,0,0-3.85-3.48c-3.44,0-4.54,3.32-4.54,6.5s1.1,6.5,4.54,6.5c2.48,0,3.45-1.72,3.88-3.94h7.22c0,4.77-3.91,9.85-10.9,9.85-7.72,0-12.1-5.41-12.1-12.41,0-7.46,4.75-12.4,12.1-12.4,6.56,0,10.17,3.45,10.8,9.38Z"/><path class="cls-1" d="M194.7,217.09c-6.52,0-9.46-4.28-9.46-9.06s2.94-9,9.46-9,9.46,4.24,9.46,9S201.22,217.09,194.7,217.09Zm0-13.31c-2.51,0-2.84,2.43-2.84,4.25s.33,4.28,2.84,4.28,2.84-2.45,2.84-4.28S197.21,203.78,194.7,203.78Z"/><path class="cls-1" d="M205.32,199.44h6.39v2.29h.07a6.27,6.27,0,0,1,5.68-2.72,5.17,5.17,0,0,1,4.68,2.68,6.81,6.81,0,0,1,5.92-2.68c4.44,0,5.95,3.05,5.95,5.84v11.81h-6.62v-9.33c0-1.62-.17-3.08-2.17-3.08-1.68,0-2.24,1.29-2.24,3.08v9.33h-6.62v-9.33c0-1.62-.17-3.08-2.18-3.08-1.67,0-2.24,1.29-2.24,3.08v9.33h-6.62Z"/><path class="cls-1" d="M235.84,199.44h6.39v2.29h.06A6.3,6.3,0,0,1,248,199a5.18,5.18,0,0,1,4.68,2.68c.26-.19,1.6-2.68,5.91-2.68s6,3.05,6,5.84v11.81h-6.62v-9.33c0-1.62-.17-3.08-2.18-3.08-1.67,0-2.24,1.29-2.24,3.08v9.33h-6.62v-9.33c0-1.62-.16-3.08-2.17-3.08-1.67,0-2.24,1.29-2.24,3.08v9.33h-6.62Z"/><use width="203.91" height="54.48" transform="translate(65.41 192.74) scale(0.44)" xlink:href="#Blue"/></g><g id="Objects"><circle class="cls-1" cx="165" cy="98.48" r="50.4"/><circle class="cls-3" cx="165" cy="98.48" r="28.76"/><circle class="cls-2" cx="165" cy="98.48" r="12.39"/></g></svg>