<svg xmlns="http://www.w3.org/2000/svg" xmlns:xlink="http://www.w3.org/1999/xlink" viewBox="0 0 330 269"><defs><style>.cls-1{fill:#0a1e3f;}.cls-2{fill:#8bb8e8;}.cls-3{fill:#f17533;}.cls-4{fill:#7d2796;}.cls-5{fill:#d62f8a;}</style><symbol id="Blue" data-name="Blue" viewBox="0 0 203.91 54.48"><path class="cls-1" d="M0,1.18H30.36Q38,1.18,42,4.94a12.17,12.17,0,0,1,4.06,9.29,11.79,11.79,0,0,1-2.89,8,12.76,12.76,0,0,1-5.65,3.5q5.64,1.37,8.29,4.66a12.83,12.83,0,0,1,2.66,8.3A14.28,14.28,0,0,1,46.59,46a14,14,0,0,1-5.2,5.14,17.23,17.23,0,0,1-6.14,1.7,70.72,70.72,0,0,1-7.27.72H0ZM16.32,21.77h7.09q3.82,0,5.32-1.3a4.75,4.75,0,0,0,1.5-3.78,4.43,4.43,0,0,0-1.5-3.57q-1.5-1.29-5.21-1.29h-7.2Zm0,20.51h8.29c2.79,0,4.77-.49,5.91-1.48a4.94,4.94,0,0,0,1.73-4,4.59,4.59,0,0,0-1.7-3.72c-1.15-.93-3.13-1.41-6-1.41H16.32Z"/><path class="cls-2" d="M49.6,1.18H65.76V40.65H91v12.9H49.6Z"/><path class="cls-2" d="M125.07,1.18h16.16V32.4a26.16,26.16,0,0,1-1.45,8.77,18.61,18.61,0,0,1-4.54,7.21,17.91,17.91,0,0,1-6.49,4.35,32.64,32.64,0,0,1-11.34,1.75,70.91,70.91,0,0,1-8.36-.54,22,22,0,0,1-7.57-2.12,19.06,19.06,0,0,1-5.56-4.52,16.56,16.56,0,0,1-3.46-6A31.57,31.57,0,0,1,91,32.4V1.18h16.15v32a9.12,9.12,0,0,0,2.39,6.7,10.28,10.28,0,0,0,13.18,0,9.1,9.1,0,0,0,2.38-6.74Z"/><path class="cls-2" d="M161.4,31.15c.5,5.79,3.86,9.92,10,9.92,3.17,0,6.63-1.18,8.22-3.63h18.31c-4,11-14.75,16.11-26.43,16.11-16.44,0-28.81-9.63-28.81-26.63C142.69,12.09,153.58,0,169.82,0,190.21,0,199,11.3,199,31.15ZM180.21,21a8.4,8.4,0,0,0-8.61-8.55c-5.84,0-9.21,3-10.1,8.55Z"/><path class="cls-1" d="M203.91,6a4.45,4.45,0,1,1-4.41-4.33A4.36,4.36,0,0,1,203.91,6Zm-7.78,0a3.36,3.36,0,0,0,3.37,3.45A3.31,3.31,0,0,0,202.8,6a3.34,3.34,0,1,0-6.67,0Zm2.66,2.24h-1V3.87a12.12,12.12,0,0,1,1.66-.13,2.32,2.32,0,0,1,1.48.34,1.12,1.12,0,0,1,.45.93,1.11,1.11,0,0,1-.9,1v.06c.42.13.63.47.76,1a4.18,4.18,0,0,0,.32,1.06h-1.05a3.41,3.41,0,0,1-.35-1.06c-.08-.44-.34-.66-.89-.66h-.48Zm0-2.43h.47c.55,0,1-.19,1-.63s-.29-.66-.92-.66a2.2,2.2,0,0,0-.55,0Z"/></symbol></defs><g id="Capa_1" data-name="Capa 1"><path class="cls-1" d="M179.09,201.79a3.81,3.81,0,0,0-3.84-3.48c-3.45,0-4.55,3.32-4.55,6.5s1.1,6.5,4.55,6.5c2.47,0,3.44-1.72,3.87-3.94h7.23c0,4.77-3.92,9.85-10.9,9.85-7.73,0-12.11-5.41-12.11-12.41,0-7.46,4.75-12.4,12.11-12.4,6.55,0,10.16,3.45,10.79,9.38Z"/><path class="cls-1" d="M196.37,217.09c-6.52,0-9.46-4.28-9.46-9.06s2.94-9,9.46-9,9.46,4.24,9.46,9S202.89,217.09,196.37,217.09Zm0-13.31c-2.51,0-2.84,2.43-2.84,4.25s.33,4.28,2.84,4.28,2.84-2.45,2.84-4.28S198.88,203.78,196.37,203.78Z"/><path class="cls-1" d="M225.08,216.66H218.7v-1.89h-.07c-.84,1.09-1.84,2.32-5.08,2.32-4.92,0-7.29-4.81-7.29-9.13,0-4,1.57-9,7.39-9a5.66,5.66,0,0,1,4.74,2.32h.07V193h6.62Zm-9.29-12.88c-2.38,0-2.91,2.23-2.91,4.25s.53,4.28,2.91,4.28,2.91-2.22,2.91-4.28S218.16,203.78,215.79,203.78Z"/><path class="cls-1" d="M232.6,209.52c.17,2,1.3,3.35,3.38,3.35a3.3,3.3,0,0,0,2.77-1.22h6.19c-1.34,3.71-5,5.44-8.93,5.44-5.55,0-9.73-3.25-9.73-9a8.87,8.87,0,0,1,9.16-9.09c6.89,0,9.86,3.81,9.86,10.51Zm6.35-3.41a2.83,2.83,0,0,0-2.91-2.89,3.13,3.13,0,0,0-3.41,2.89Z"/><path class="cls-1" d="M256.43,204.45a1.64,1.64,0,0,0-.77-1.3,2.31,2.31,0,0,0-1.47-.49c-.93,0-2,.2-2,1.32,0,.5.4.73.77.9,1.1.46,3.61.6,5.81,1.33s4.15,2,4.15,4.81c0,4.77-4.61,6.07-8.83,6.07s-8.56-1.63-8.66-6.07h6.32a2.11,2.11,0,0,0,.81,1.52,2.71,2.71,0,0,0,1.77.5c.87,0,2.24-.33,2.24-1.33s-.57-1.29-3.65-1.82c-5-.86-7.08-2.46-7.08-5.41,0-4.34,4.71-5.47,8.19-5.47,3.74,0,8.25,1,8.42,5.44Z"/><use width="203.91" height="54.48" transform="translate(67.09 192.74) scale(0.44)" xlink:href="#Blue"/></g><g id="Objects"><path class="cls-1" d="M86.77,94.86c-.71-12.23,7-19.27,19-19.27,10.9,0,18.32,4.55,18.32,14,0,11.4-11.23,15-19.68,20.1v.07h20.32v10.88H85.87a16.67,16.67,0,0,1,3.22-11c3.74-5.19,10.19-8.58,15.93-12,2.33-1.4,6.07-3.2,6.07-6.46,0-4-2.39-5.44-5.42-5.44-5.16,0-6.9,3.71-6.77,9.15Z"/><path class="cls-3" d="M161.47,87h-20.9l-1.29,5.89.13.12c2.77-2,6.45-2.62,9.8-2.62,8,0,14.65,4.61,14.65,15.11,0,9-7.16,15.68-20.13,15.68-16.58,0-19.61-10.11-19.23-14.53h12.71a5.29,5.29,0,0,0,1.81,3,8.18,8.18,0,0,0,5.1,1.47c3.74,0,6.83-2.43,6.83-6,0-3.9-2.58-6.21-6.45-6.21-3,0-5.16.84-6.51,2.89H126l4.64-25.68h30.84Z"/><path class="cls-4" d="M184.82,75.59c12.32,0,18.19,5.76,18.19,12.23,0,4.61-2.77,8.39-7,9.35v.12a9.57,9.57,0,0,1,8.84,9.8c0,10.56-10.9,14.08-20,14.08-9.68,0-19.93-3.26-19.93-14.08,0-7.62,5.74-9.22,9-9.8v-.12c-4.77-1.28-7-4.55-7-9.35C166.89,78,177.4,75.59,184.82,75.59Zm0,36.36C188,112,192,110.87,192,107c0-4.28-3.22-5.76-7.09-5.76s-7.29,1.28-7.29,5.76C177.66,110.87,181.59,112,184.82,112Zm-.06-18.18c3.16,0,6.77-1,6.77-4.67,0-4.23-3.35-5-6.71-5s-6.45,1-6.45,5C178.37,92.62,181.66,93.77,184.76,93.77Z"/><path class="cls-5" d="M206.69,91a14,14,0,0,1,5.61-11.65c3.42-2.5,8.06-3.72,13.1-3.72,13,0,17.35,7.68,17.35,11.46,0,9.35-5.94,9.35-5.94,9.54v.13c0,.51,7.36.51,7.36,10.43,0,5.44-4.13,14-18.84,14-20.19,0-20.25-14.08-19.93-17.41h12.25c-.06,2.37.52,4.16,1.75,5.31,1.22,1.48,3.09,2,5.35,2,3.68,0,6-1.35,6-5,0-3.9-3-4.6-6-4.6a22.1,22.1,0,0,0-3.74.32V93.07c1,.06,2,.26,3.74.26,2.71,0,6.13-.58,6.13-4,0-2.81-3.23-3.9-5.87-3.9-3.48,0-6.32,1.85-6.19,5.57Z"/></g></svg>