<svg xmlns="http://www.w3.org/2000/svg" xmlns:xlink="http://www.w3.org/1999/xlink" viewBox="0 0 330 269"><defs><style>.cls-1{fill:none;}.cls-2,.cls-4{fill:#0a1e3f;}.cls-3{fill:#8bb8e8;}.cls-4{fill-rule:evenodd;}.cls-5{clip-path:url(#clip-path);}.cls-6{fill:#d62f8a;}.cls-7{fill:#f17533;}.cls-8{fill:#96c061;}.cls-9{fill:#7d2796;}</style><clipPath id="clip-path"><rect id="SVGID" class="cls-1" x="103.97" y="53.52" width="127.06" height="83.7"/></clipPath><symbol id="Blue" data-name="Blue" viewBox="0 0 203.91 54.48"><path class="cls-2" d="M0,1.18H30.36Q38,1.18,42,4.94a12.17,12.17,0,0,1,4.06,9.29,11.79,11.79,0,0,1-2.89,8,12.76,12.76,0,0,1-5.65,3.5q5.64,1.37,8.29,4.66a12.83,12.83,0,0,1,2.66,8.3A14.28,14.28,0,0,1,46.59,46a14,14,0,0,1-5.2,5.14,17.23,17.23,0,0,1-6.14,1.7,70.72,70.72,0,0,1-7.27.72H0ZM16.32,21.77h7.09q3.82,0,5.32-1.3a4.75,4.75,0,0,0,1.5-3.78,4.43,4.43,0,0,0-1.5-3.57q-1.5-1.29-5.21-1.29h-7.2Zm0,20.51h8.29c2.79,0,4.77-.49,5.91-1.48a4.94,4.94,0,0,0,1.73-4,4.59,4.59,0,0,0-1.7-3.72c-1.15-.93-3.13-1.41-6-1.41H16.32Z"/><path class="cls-3" d="M49.6,1.18H65.76V40.65H91v12.9H49.6Z"/><path class="cls-3" d="M125.07,1.18h16.16V32.4a26.16,26.16,0,0,1-1.45,8.77,18.61,18.61,0,0,1-4.54,7.21,17.91,17.91,0,0,1-6.49,4.35,32.64,32.64,0,0,1-11.34,1.75,70.91,70.91,0,0,1-8.36-.54,22,22,0,0,1-7.57-2.12,19.06,19.06,0,0,1-5.56-4.52,16.56,16.56,0,0,1-3.46-6A31.57,31.57,0,0,1,91,32.4V1.18h16.15v32a9.12,9.12,0,0,0,2.39,6.7,10.28,10.28,0,0,0,13.18,0,9.1,9.1,0,0,0,2.38-6.74Z"/><path class="cls-3" d="M161.4,31.15c.5,5.79,3.86,9.92,10,9.92,3.17,0,6.63-1.18,8.22-3.63h18.31c-4,11-14.75,16.11-26.43,16.11-16.44,0-28.81-9.63-28.81-26.63C142.69,12.09,153.58,0,169.82,0,190.21,0,199,11.3,199,31.15ZM180.21,21a8.4,8.4,0,0,0-8.61-8.55c-5.84,0-9.21,3-10.1,8.55Z"/><path class="cls-2" d="M203.91,6a4.45,4.45,0,1,1-4.41-4.33A4.36,4.36,0,0,1,203.91,6Zm-7.78,0a3.36,3.36,0,0,0,3.37,3.45A3.31,3.31,0,0,0,202.8,6a3.34,3.34,0,1,0-6.67,0Zm2.66,2.24h-1V3.87a12.12,12.12,0,0,1,1.66-.13,2.32,2.32,0,0,1,1.48.34,1.12,1.12,0,0,1,.45.93,1.11,1.11,0,0,1-.9,1v.06c.42.13.63.47.76,1a4.18,4.18,0,0,0,.32,1.06h-1.05a3.41,3.41,0,0,1-.35-1.06c-.08-.44-.34-.66-.89-.66h-.48Zm0-2.43h.47c.55,0,1-.19,1-.63s-.29-.66-.92-.66a2.2,2.2,0,0,0-.55,0Z"/></symbol></defs><g id="Capa_1" data-name="Capa 1"><path class="cls-2" d="M153.19,208.69a4.5,4.5,0,0,0,.26,1.56c.54,1.43,2.14,1.73,3.51,1.73,1.21,0,3-.4,3-2.16,0-1.22-1-1.56-5.15-2.72-3.78-1.06-8.09-2.09-8.09-6.86,0-5.48,4.71-7.83,9.63-7.83,5.18,0,9.76,2,10,7.73h-7a1.78,1.78,0,0,0-.87-1.89,3.75,3.75,0,0,0-2.17-.6c-1,0-2.64.26-2.64,1.59.13,1.69,3.54,2.06,6.92,3s6.72,2.48,6.72,6.83c0,6.17-5.72,8.16-11,8.16-2.71,0-10.43-1-10.5-8.53Z"/><path class="cls-2" d="M179.89,206a2.31,2.31,0,0,0-.73-1.62,2.4,2.4,0,0,0-1.68-.57c-2.54,0-2.9,2.19-2.9,4.28s.36,4.25,2.9,4.25a2.65,2.65,0,0,0,2.58-2.52h6.32a8,8,0,0,1-3,5.41,9.76,9.76,0,0,1-6,1.89c-5.21,0-9.39-3.59-9.39-9s4.18-9.05,9.39-9.05c4.55,0,8.43,2.22,8.83,7Z"/><path class="cls-2" d="M205.2,212.81a6.9,6.9,0,0,0,.8,3.85h-6.75A4.64,4.64,0,0,1,199,215h-.07a7.07,7.07,0,0,1-5.58,2.06c-3.34,0-6.12-1.6-6.12-5.21,0-5.44,6.42-5.24,9.8-5.87.9-.17,1.8-.43,1.8-1.53s-1.1-1.59-2.17-1.59c-2,0-2.44,1-2.47,1.76h-6.15a5,5,0,0,1,3-4.65,14.47,14.47,0,0,1,5.92-1c8.29,0,8.23,3.42,8.23,6.73Zm-6.36-3.88a11.78,11.78,0,0,1-2.6.83c-1.47.33-2.24.69-2.24,1.85a1.9,1.9,0,0,0,2.07,1.6,2.62,2.62,0,0,0,2.77-2.69Z"/><path class="cls-2" d="M207,199.44h6.38v2.19h.07a6.37,6.37,0,0,1,5.65-2.62c3.11,0,6,1.89,6,5.84v11.81h-6.62v-9c0-2-.23-3.38-2.17-3.38-1.14,0-2.64.56-2.64,3.32v9.09H207Z"/><path class="cls-2" d="M227,199.44h6.38v2.19h.07a6.37,6.37,0,0,1,5.65-2.62c3.11,0,5.95,1.89,5.95,5.84v11.81h-6.62v-9c0-2-.23-3.38-2.17-3.38-1.14,0-2.64.56-2.64,3.32v9.09H227Z"/><path class="cls-2" d="M252.59,209.52c.17,2,1.3,3.35,3.38,3.35a3.3,3.3,0,0,0,2.77-1.22h6.19c-1.34,3.71-5,5.44-8.93,5.44-5.55,0-9.73-3.25-9.73-9a8.87,8.87,0,0,1,9.16-9.09c6.89,0,9.86,3.81,9.86,10.51Zm6.35-3.41a2.84,2.84,0,0,0-2.91-2.89,3.13,3.13,0,0,0-3.41,2.89Z"/><path class="cls-2" d="M266.39,199.44h6.35v2.75h.07c1.07-2.05,2.47-3.18,4.88-3.18a7.82,7.82,0,0,1,1.94.26v5.81a6.79,6.79,0,0,0-2.61-.43c-2.6,0-4,1.52-4,5.21v6.8h-6.62Z"/><use width="203.91" height="54.48" transform="translate(50.37 192.74) scale(0.44)" xlink:href="#Blue"/></g><g id="Objects"><path class="cls-4" d="M232.7,122.88h.36c.2,0,.45,0,.45.28s-.18.3-.43.3h-.38Zm-.44,1.86h.44v-.94H233l.53.94H234l-.59-1a.55.55,0,0,0,.58-.59c0-.47-.31-.65-.86-.65h-.83Zm-.69-1.1a1.48,1.48,0,1,1,3,0,1.48,1.48,0,1,1-3,0Zm-.54,0a2,2,0,1,0,2-2A2,2,0,0,0,231,123.64Z"/><path class="cls-2" d="M183.89,119.09c0-2.07,1-3.35,3-3.35a2.63,2.63,0,0,1,2.78,2.9,3.81,3.81,0,0,1-1.78,3.28l-1.17,1a4.24,4.24,0,0,0-1.88,2.72h4.92v.82h-6a5,5,0,0,1,2.24-4.11l1.16-1a3.24,3.24,0,0,0,1.49-2.65c0-1.41-.79-2.18-1.9-2.18s-1.91.81-2,2.59Z"/><path class="cls-2" d="M196.63,115.92v.82h-4l-.47,3.72,0,0a2.26,2.26,0,0,1,2.08-1.09c1.65,0,2.84,1.16,2.84,3.53,0,2.14-1.08,3.66-3.19,3.66a2.68,2.68,0,0,1-2.85-2.91h1a2,2,0,0,0,2,2.15c1.29,0,2.11-1,2.11-3,0-1.48-.66-2.62-2.1-2.62a1.84,1.84,0,0,0-1.85,1.23h-.91l.62-5.47Z"/><path class="cls-2" d="M200.31,120.76v0a2.34,2.34,0,0,1-1.62-2.35,2.7,2.7,0,0,1,5.4,0,2.32,2.32,0,0,1-1.62,2.35v0a2.38,2.38,0,0,1,1.94,2.63,3,3,0,1,1-6,0A2.38,2.38,0,0,1,200.31,120.76Zm1.08,5.07a2.09,2.09,0,0,0,2.05-2.36c0-1.3-.68-2.38-2.05-2.38a2.39,2.39,0,0,0,0,4.74Zm0-5.49c1.17,0,1.73-.79,1.73-1.92s-.56-1.92-1.73-1.92-1.73.78-1.73,1.92A1.68,1.68,0,0,0,201.39,120.34Z"/><path class="cls-2" d="M207.87,120.49h.5a1.84,1.84,0,0,0,2-2c0-1.23-.61-2-1.78-2s-1.88.69-1.9,2.2h-1a2.66,2.66,0,0,1,2.87-3,2.51,2.51,0,0,1,2.75,2.64,2.28,2.28,0,0,1-1.73,2.41v0a2.4,2.4,0,0,1,2,2.53,2.91,2.91,0,0,1-3.08,3.24c-1.86,0-2.93-1-3-3h1a2,2,0,0,0,2,2.27c1.09,0,2.11-.66,2.11-2.45a2,2,0,0,0-2.14-2.14h-.72Z"/><use width="203.91" height="54.48" transform="translate(123.08 114.47) scale(0.22)" xlink:href="#Blue"/><g class="cls-5"><rect class="cls-6" x="106.67" y="61.23" width="2.09" height="58.3"/><rect class="cls-6" x="109.04" y="61.23" width="2.09" height="58.3"/><rect class="cls-7" x="112.35" y="61.23" width="3.13" height="58.3"/><rect class="cls-2" x="116.79" y="61.23" width="3.13" height="58.3"/><rect class="cls-2" x="123.19" y="61.23" width="1.92" height="50.82"/><rect class="cls-2" x="126.98" y="61.23" width="1.92" height="50.82"/><rect class="cls-2" x="129.61" y="61.23" width="1.92" height="50.82"/><rect class="cls-7" x="132.89" y="61.23" width="4.99" height="50.82"/><rect class="cls-2" x="139.78" y="61.23" width="1.81" height="50.82"/><rect class="cls-2" x="143.33" y="61.23" width="3.31" height="50.82"/><rect class="cls-6" x="147.32" y="61.23" width="1.81" height="50.82"/><rect class="cls-2" x="150.92" y="61.23" width="4.89" height="50.82"/><rect class="cls-8" x="165.82" y="61.23" width="3.82" height="50.82"/><rect class="cls-2" x="163.17" y="61.23" width="2.02" height="50.82"/><rect class="cls-9" x="170.89" y="61.23" width="2.02" height="58.3"/><rect class="cls-2" x="176.18" y="61.23" width="2.02" height="58.3"/><rect class="cls-2" x="179.07" y="61.23" width="2.02" height="58.3"/><rect class="cls-2" x="184.06" y="61.23" width="2.02" height="50.82"/><rect class="cls-2" x="188.17" y="61.23" width="3.97" height="50.82"/><rect class="cls-7" x="193.83" y="61.23" width="1.67" height="50.82"/><rect class="cls-6" x="196.97" y="61.23" width="1.67" height="50.82"/><rect class="cls-6" x="199.46" y="61.23" width="1.67" height="50.82"/><rect class="cls-9" x="205.96" y="61.23" width="2.6" height="50.82"/><rect class="cls-2" x="209.77" y="61.23" width="2.6" height="50.82"/><rect class="cls-2" x="214.46" y="61.23" width="1.86" height="58.3"/><rect class="cls-2" x="217.61" y="61.23" width="3.7" height="58.3"/><rect class="cls-8" x="223.39" y="61.23" width="2.02" height="58.3"/><rect class="cls-8" x="226.02" y="61.23" width="2.02" height="58.3"/><rect class="cls-6" x="157.76" y="61.23" width="2.02" height="50.82"/><rect class="cls-2" x="160.39" y="61.23" width="2.02" height="50.82"/></g></g></svg>