<svg xmlns="http://www.w3.org/2000/svg" xmlns:xlink="http://www.w3.org/1999/xlink" viewBox="0 0 330 269"><defs><style>.cls-1{fill:none;}.cls-2{fill:#0a1e3f;}.cls-3{fill:#8bb8e8;}.cls-4{clip-path:url(#clip-path);}.cls-5{fill:#f17533;}.cls-6{fill:#d62f8a;}</style><clipPath id="clip-path"><polygon class="cls-1" points="165 156.09 229.84 43.79 100.16 43.79 165 156.09"/></clipPath><symbol id="Blue" data-name="Blue" viewBox="0 0 203.91 54.48"><path class="cls-2" d="M0,1.18H30.36Q38,1.18,42,4.94a12.17,12.17,0,0,1,4.06,9.29,11.79,11.79,0,0,1-2.89,8,12.76,12.76,0,0,1-5.65,3.5q5.64,1.37,8.29,4.66a12.83,12.83,0,0,1,2.66,8.3A14.28,14.28,0,0,1,46.59,46a14,14,0,0,1-5.2,5.14,17.23,17.23,0,0,1-6.14,1.7,70.72,70.72,0,0,1-7.27.72H0ZM16.32,21.77h7.09q3.82,0,5.32-1.3a4.75,4.75,0,0,0,1.5-3.78,4.43,4.43,0,0,0-1.5-3.57q-1.5-1.29-5.21-1.29h-7.2Zm0,20.51h8.29c2.79,0,4.77-.49,5.91-1.48a4.94,4.94,0,0,0,1.73-4,4.59,4.59,0,0,0-1.7-3.72c-1.15-.93-3.13-1.41-6-1.41H16.32Z"/><path class="cls-3" d="M49.6,1.18H65.76V40.65H91v12.9H49.6Z"/><path class="cls-3" d="M125.07,1.18h16.16V32.4a26.16,26.16,0,0,1-1.45,8.77,18.61,18.61,0,0,1-4.54,7.21,17.91,17.91,0,0,1-6.49,4.35,32.64,32.64,0,0,1-11.34,1.75,70.91,70.91,0,0,1-8.36-.54,22,22,0,0,1-7.57-2.12,19.06,19.06,0,0,1-5.56-4.52,16.56,16.56,0,0,1-3.46-6A31.57,31.57,0,0,1,91,32.4V1.18h16.15v32a9.12,9.12,0,0,0,2.39,6.7,10.28,10.28,0,0,0,13.18,0,9.1,9.1,0,0,0,2.38-6.74Z"/><path class="cls-3" d="M161.4,31.15c.5,5.79,3.86,9.92,10,9.92,3.17,0,6.63-1.18,8.22-3.63h18.31c-4,11-14.75,16.11-26.43,16.11-16.44,0-28.81-9.63-28.81-26.63C142.69,12.09,153.58,0,169.82,0,190.21,0,199,11.3,199,31.15ZM180.21,21a8.4,8.4,0,0,0-8.61-8.55c-5.84,0-9.21,3-10.1,8.55Z"/><path class="cls-2" d="M203.91,6a4.45,4.45,0,1,1-4.41-4.33A4.36,4.36,0,0,1,203.91,6Zm-7.78,0a3.36,3.36,0,0,0,3.37,3.45A3.31,3.31,0,0,0,202.8,6a3.34,3.34,0,1,0-6.67,0Zm2.66,2.24h-1V3.87a12.12,12.12,0,0,1,1.66-.13,2.32,2.32,0,0,1,1.48.34,1.12,1.12,0,0,1,.45.93,1.11,1.11,0,0,1-.9,1v.06c.42.13.63.47.76,1a4.18,4.18,0,0,0,.32,1.06h-1.05a3.41,3.41,0,0,1-.35-1.06c-.08-.44-.34-.66-.89-.66h-.48Zm0-2.43h.47c.55,0,1-.19,1-.63s-.29-.66-.92-.66a2.2,2.2,0,0,0-.55,0Z"/></symbol></defs><g id="Capa_1" data-name="Capa 1"><path class="cls-2" d="M160.64,193h18.45V199H168v3h9.53v5.64H168v9h-7.35Z"/><path class="cls-2" d="M198,216.66h-6.39v-2.19h-.06a6.4,6.4,0,0,1-5.65,2.62c-3.11,0-5.95-1.89-5.95-5.84V199.44h6.61v9c0,2,.24,3.39,2.18,3.39,1.13,0,2.64-.57,2.64-3.32v-9.09H198Z"/><path class="cls-2" d="M199.91,199.44h6.39v2.19h.06A6.37,6.37,0,0,1,212,199c3.11,0,6,1.89,6,5.84v11.81h-6.62v-9c0-2-.24-3.38-2.18-3.38-1.13,0-2.64.56-2.64,3.32v9.09h-6.62Z"/><path class="cls-2" d="M219.9,199.44h6.39v2.19h.06A6.37,6.37,0,0,1,232,199c3.11,0,5.95,1.89,5.95,5.84v11.81h-6.62v-9c0-2-.23-3.38-2.17-3.38-1.14,0-2.64.56-2.64,3.32v9.09H219.9Z"/><path class="cls-2" d="M245.47,209.52c.17,2,1.31,3.35,3.38,3.35a3.3,3.3,0,0,0,2.77-1.22h6.19c-1.34,3.71-5,5.44-8.93,5.44-5.55,0-9.73-3.25-9.73-9a8.87,8.87,0,0,1,9.16-9.09c6.89,0,9.87,3.81,9.87,10.51Zm6.35-3.41a2.83,2.83,0,0,0-2.9-2.89,3.13,3.13,0,0,0-3.41,2.89Z"/><path class="cls-2" d="M259.41,193H266v23.69h-6.62Z"/><use width="203.91" height="54.48" transform="translate(63.67 192.74) scale(0.44)" xlink:href="#Blue"/></g><g id="Objects"><g class="cls-4"><rect class="cls-5" x="126.77" y="126.93" width="76.45" height="20.3"/><rect class="cls-6" x="117.99" y="99.3" width="94.02" height="20.3"/><rect class="cls-3" x="108.7" y="71.67" width="112.6" height="20.3"/><rect class="cls-2" x="99.98" y="44.04" width="130.04" height="20.3"/></g></g></svg>