<svg xmlns="http://www.w3.org/2000/svg" xmlns:xlink="http://www.w3.org/1999/xlink" viewBox="0 0 330 269"><defs><style>.cls-1{fill:#0a1e3f;}.cls-2{fill:#8bb8e8;}.cls-3{isolation:isolate;}.cls-4{fill:#96c061;}</style><symbol id="Blue" data-name="Blue" viewBox="0 0 203.91 54.48"><path class="cls-1" d="M0,1.18H30.36Q38,1.18,42,4.94a12.17,12.17,0,0,1,4.06,9.29,11.79,11.79,0,0,1-2.89,8,12.76,12.76,0,0,1-5.65,3.5q5.64,1.37,8.29,4.66a12.83,12.83,0,0,1,2.66,8.3A14.28,14.28,0,0,1,46.59,46a14,14,0,0,1-5.2,5.14,17.23,17.23,0,0,1-6.14,1.7,70.72,70.72,0,0,1-7.27.72H0ZM16.32,21.77h7.09q3.82,0,5.32-1.3a4.75,4.75,0,0,0,1.5-3.78,4.43,4.43,0,0,0-1.5-3.57q-1.5-1.29-5.21-1.29h-7.2Zm0,20.51h8.29c2.79,0,4.77-.49,5.91-1.48a4.94,4.94,0,0,0,1.73-4,4.59,4.59,0,0,0-1.7-3.72c-1.15-.93-3.13-1.41-6-1.41H16.32Z"/><path class="cls-2" d="M49.6,1.18H65.76V40.65H91v12.9H49.6Z"/><path class="cls-2" d="M125.07,1.18h16.16V32.4a26.16,26.16,0,0,1-1.45,8.77,18.61,18.61,0,0,1-4.54,7.21,17.91,17.91,0,0,1-6.49,4.35,32.64,32.64,0,0,1-11.34,1.75,70.91,70.91,0,0,1-8.36-.54,22,22,0,0,1-7.57-2.12,19.06,19.06,0,0,1-5.56-4.52,16.56,16.56,0,0,1-3.46-6A31.57,31.57,0,0,1,91,32.4V1.18h16.15v32a9.12,9.12,0,0,0,2.39,6.7,10.28,10.28,0,0,0,13.18,0,9.1,9.1,0,0,0,2.38-6.74Z"/><path class="cls-2" d="M161.4,31.15c.5,5.79,3.86,9.92,10,9.92,3.17,0,6.63-1.18,8.22-3.63h18.31c-4,11-14.75,16.11-26.43,16.11-16.44,0-28.81-9.63-28.81-26.63C142.69,12.09,153.58,0,169.82,0,190.21,0,199,11.3,199,31.15ZM180.21,21a8.4,8.4,0,0,0-8.61-8.55c-5.84,0-9.21,3-10.1,8.55Z"/><path class="cls-1" d="M203.91,6a4.45,4.45,0,1,1-4.41-4.33A4.36,4.36,0,0,1,203.91,6Zm-7.78,0a3.36,3.36,0,0,0,3.37,3.45A3.31,3.31,0,0,0,202.8,6a3.34,3.34,0,1,0-6.67,0Zm2.66,2.24h-1V3.87a12.12,12.12,0,0,1,1.66-.13,2.32,2.32,0,0,1,1.48.34,1.12,1.12,0,0,1,.45.93,1.11,1.11,0,0,1-.9,1v.06c.42.13.63.47.76,1a4.18,4.18,0,0,0,.32,1.06h-1.05a3.41,3.41,0,0,1-.35-1.06c-.08-.44-.34-.66-.89-.66h-.48Zm0-2.43h.47c.55,0,1-.19,1-.63s-.29-.66-.92-.66a2.2,2.2,0,0,0-.55,0Z"/></symbol></defs><g id="Capa_1" data-name="Capa 1"><path class="cls-1" d="M135.54,193h14c4.18,0,7.79,2.29,7.79,6.77,0,2.45-1.13,5-3.57,5.94,2,.76,3.24,2.95,3.51,5.9.1,1.16.13,4,.8,5.08h-7.36a17.6,17.6,0,0,1-.6-3.65c-.2-2.26-.4-4.61-3.31-4.61h-3.91v8.26h-7.35Zm7.35,10.35h3.85c1.37,0,3.24-.23,3.24-2.35,0-1.5-.84-2.36-3.64-2.36h-3.45Z"/><path class="cls-1" d="M164.12,209.52c.16,2,1.3,3.35,3.37,3.35a3.34,3.34,0,0,0,2.78-1.22h6.18c-1.33,3.71-5,5.44-8.92,5.44-5.55,0-9.73-3.25-9.73-9A8.87,8.87,0,0,1,167,199c6.88,0,9.86,3.81,9.86,10.51Zm6.35-3.41a2.84,2.84,0,0,0-2.91-2.89,3.13,3.13,0,0,0-3.41,2.89Z"/><path class="cls-1" d="M177.92,199.44h6.38v1.89h.07c.84-1.09,1.84-2.32,5.08-2.32,4.92,0,7.29,4.81,7.29,9.12,0,4.05-1.57,9-7.39,9a5.72,5.72,0,0,1-4.75-2.32h-.06v7.46h-6.62Zm9.29,12.87c2.38,0,2.91-2.22,2.91-4.25s-.53-4.27-2.91-4.27-2.91,2.22-2.91,4.27S184.84,212.31,187.21,212.31Z"/><path class="cls-1" d="M206.63,217.09c-6.52,0-9.46-4.28-9.46-9.06s2.94-9,9.46-9,9.46,4.24,9.46,9S213.15,217.09,206.63,217.09Zm0-13.3c-2.51,0-2.84,2.42-2.84,4.24s.33,4.28,2.84,4.28,2.84-2.45,2.84-4.28S209.14,203.79,206.63,203.79Z"/><path class="cls-1" d="M217.29,199.44h6.35v2.75h.07c1.07-2.05,2.48-3.18,4.88-3.18a7.82,7.82,0,0,1,1.94.26v5.81a6.79,6.79,0,0,0-2.61-.43c-2.6,0-4,1.52-4,5.21v6.8h-6.62Z"/><path class="cls-1" d="M240.92,199.44h3.55v4.05h-3.55v6c0,1.59.37,2.29,2,2.29a10.94,10.94,0,0,0,1.51-.1v5c-1.34,0-2.84.2-4.25.2-2.81,0-5.92-.44-5.92-5.15v-8.22h-2.94v-4.05h2.94V194.2h6.62Z"/><path class="cls-1" d="M251.65,197.58H245V193h6.62ZM245,199.44h6.62v17.22H245Z"/><path class="cls-1" d="M253.76,199.44h6.38v2.19h.07a6.37,6.37,0,0,1,5.65-2.62c3.11,0,5.95,1.89,5.95,5.84v11.81h-6.62v-9c0-2-.23-3.38-2.17-3.38-1.14,0-2.64.56-2.64,3.32v9.09h-6.62Z"/><path class="cls-1" d="M291.43,214.43c0,3.42-.9,8.23-9,8.23-4.11,0-8.45-1.09-9.06-5.74h6.56a3.65,3.65,0,0,0,.36.6,2.57,2.57,0,0,0,1.94,1.26c2.14,0,2.61-2.52,2.61-3.95v-1.59h-.07a5.46,5.46,0,0,1-4.64,2.39c-5.12,0-7.43-3.78-7.43-8.39s2.58-8.23,7.53-8.23a4.66,4.66,0,0,1,4.54,2.52h.07v-2.09h6.62Zm-9.16-3c2.44,0,2.71-2.33,2.71-4.25s-.94-3.38-2.88-3.38-2.81,1.59-2.81,3.41S279.9,211.42,282.27,211.42Z"/><use width="203.91" height="54.48" transform="translate(38.57 192.74) scale(0.44)" xlink:href="#Blue"/></g><g id="Objects"><g id="g6885" class="cls-3"><g id="path6794"><path class="cls-2" d="M152.05,133.85a1.17,1.17,0,0,1-.7-.23l-36.23-26.78a1.17,1.17,0,0,1-.25-1.65,1.19,1.19,0,0,1,1.65-.25l35.53,26.26,35.52-26.26a1.19,1.19,0,0,1,1.65.25,1.17,1.17,0,0,1-.25,1.65l-36.22,26.78A1.22,1.22,0,0,1,152.05,133.85Z"/></g><g id="path6801"><path class="cls-2" d="M183.55,152.75h-63a5.92,5.92,0,0,1-5.91-5.91V105.89a1.19,1.19,0,0,1,.48-1L139.9,88.55a1.18,1.18,0,0,1,1.4,1.9l-24.3,16v1.23L141.22,126l10.13,7.66L186,107.88l1.08-1.39-1.5-1.08a1.18,1.18,0,1,1,1.41-1.9l2,1.43a1.19,1.19,0,0,1,.48,1v41A5.91,5.91,0,0,1,183.55,152.75Z"/></g></g><g id="g6877" class="cls-3"><g id="path6733"><path class="cls-4" d="M153.21,112.35a1,1,0,0,1-.48-.11,1.17,1.17,0,0,1-.67-1.07V102.9h-3.43a5.82,5.82,0,0,1-5.72-5.9V51.32a5.82,5.82,0,0,1,5.72-5.9h65.58a1.18,1.18,0,0,1,0,2.36H148.63a3.49,3.49,0,0,0-3.43,3.54V97a3.49,3.49,0,0,0,3.43,3.54h4.58a1.16,1.16,0,0,1,1.14,1.18v6.88l8.79-7.78a1.14,1.14,0,0,1,.74-.28h45.76A3.49,3.49,0,0,0,213.07,97V46.6a1.15,1.15,0,1,1,2.29,0V97a5.82,5.82,0,0,1-5.72,5.9H164.31L154,112.07A1.16,1.16,0,0,1,153.21,112.35Z"/></g><g id="path6735"><path class="cls-4" d="M192.41,95H151.68a1.19,1.19,0,0,1,0-2.37h40.73a1.19,1.19,0,0,1,0,2.37Zm15.25-7.88h-56a1.18,1.18,0,0,1,0-2.36h56a1.18,1.18,0,0,1,0,2.36Zm0-7.87h-56a1.19,1.19,0,0,1,0-2.37h56a1.19,1.19,0,0,1,0,2.37Zm0-7.88h-56a1.18,1.18,0,0,1,0-2.36h56a1.18,1.18,0,0,1,0,2.36Zm0-7.87h-56a1.19,1.19,0,0,1,0-2.37h56a1.19,1.19,0,0,1,0,2.37Zm0-7.88h-56a1.18,1.18,0,0,1,0-2.36h56a1.18,1.18,0,0,1,0,2.36Z"/></g></g></g></svg>