<svg id="Capa_1" data-name="Capa 1" xmlns="http://www.w3.org/2000/svg" xmlns:xlink="http://www.w3.org/1999/xlink" viewBox="0 0 330 269"><defs><style>.cls-1{fill:#0a1e3f;}.cls-2{fill:#8bb8e8;}.cls-3{fill:#8eb7e0;}.cls-3,.cls-4{fill-rule:evenodd;}.cls-4{fill:#d6318a;}</style><symbol id="Blue" data-name="Blue" viewBox="0 0 203.91 54.48"><path class="cls-1" d="M0,1.18H30.36Q38,1.18,42,4.94a12.17,12.17,0,0,1,4.06,9.29,11.79,11.79,0,0,1-2.89,8,12.76,12.76,0,0,1-5.65,3.5q5.64,1.37,8.29,4.66a12.83,12.83,0,0,1,2.66,8.3A14.28,14.28,0,0,1,46.59,46a14,14,0,0,1-5.2,5.14,17.23,17.23,0,0,1-6.14,1.7,70.72,70.72,0,0,1-7.27.72H0ZM16.32,21.77h7.09q3.82,0,5.32-1.3a4.75,4.75,0,0,0,1.5-3.78,4.43,4.43,0,0,0-1.5-3.57q-1.5-1.29-5.21-1.29h-7.2Zm0,20.51h8.29c2.79,0,4.77-.49,5.91-1.48a4.94,4.94,0,0,0,1.73-4,4.59,4.59,0,0,0-1.7-3.72c-1.15-.93-3.13-1.41-6-1.41H16.32Z"/><path class="cls-2" d="M49.6,1.18H65.76V40.65H91v12.9H49.6Z"/><path class="cls-2" d="M125.07,1.18h16.16V32.4a26.16,26.16,0,0,1-1.45,8.77,18.61,18.61,0,0,1-4.54,7.21,17.91,17.91,0,0,1-6.49,4.35,32.64,32.64,0,0,1-11.34,1.75,70.91,70.91,0,0,1-8.36-.54,22,22,0,0,1-7.57-2.12,19.06,19.06,0,0,1-5.56-4.52,16.56,16.56,0,0,1-3.46-6A31.57,31.57,0,0,1,91,32.4V1.18h16.15v32a9.12,9.12,0,0,0,2.39,6.7,10.28,10.28,0,0,0,13.18,0,9.1,9.1,0,0,0,2.38-6.74Z"/><path class="cls-2" d="M161.4,31.15c.5,5.79,3.86,9.92,10,9.92,3.17,0,6.63-1.18,8.22-3.63h18.31c-4,11-14.75,16.11-26.43,16.11-16.44,0-28.81-9.63-28.81-26.63C142.69,12.09,153.58,0,169.82,0,190.21,0,199,11.3,199,31.15ZM180.21,21a8.4,8.4,0,0,0-8.61-8.55c-5.84,0-9.21,3-10.1,8.55Z"/><path class="cls-1" d="M203.91,6a4.45,4.45,0,1,1-4.41-4.33A4.36,4.36,0,0,1,203.91,6Zm-7.78,0a3.36,3.36,0,0,0,3.37,3.45A3.31,3.31,0,0,0,202.8,6a3.34,3.34,0,1,0-6.67,0Zm2.66,2.24h-1V3.87a12.12,12.12,0,0,1,1.66-.13,2.32,2.32,0,0,1,1.48.34,1.12,1.12,0,0,1,.45.93,1.11,1.11,0,0,1-.9,1v.06c.42.13.63.47.76,1a4.18,4.18,0,0,0,.32,1.06h-1.05a3.41,3.41,0,0,1-.35-1.06c-.08-.44-.34-.66-.89-.66h-.48Zm0-2.43h.47c.55,0,1-.19,1-.63s-.29-.66-.92-.66a2.2,2.2,0,0,0-.55,0Z"/></symbol></defs><path class="cls-1" d="M131.53,193.27h7.19L147.41,217h-7.62l-1-3.38h-7.59L130.12,217h-7.38Zm5.78,15.22-2.14-7.3h-.06l-2.31,7.3Z"/><path class="cls-1" d="M147.27,199.73h6.38v2.19h.07a6.4,6.4,0,0,1,5.65-2.62c3.11,0,5.95,1.89,5.95,5.84V217H158.7v-9c0-2-.23-3.39-2.17-3.39-1.14,0-2.64.57-2.64,3.32V217h-6.62Z"/><path class="cls-1" d="M174,197.88h-6.62v-4.61H174Zm-6.62,1.85H174V217h-6.62Z"/><path class="cls-1" d="M176.08,199.73h6.39V202h.06a6.3,6.3,0,0,1,5.69-2.72A5.18,5.18,0,0,1,192.9,202c.26-.2,1.6-2.69,5.92-2.69s6,3.06,6,5.84V217h-6.62v-9.32c0-1.63-.17-3.09-2.18-3.09-1.67,0-2.24,1.3-2.24,3.09V217h-6.62v-9.32c0-1.63-.16-3.09-2.17-3.09-1.67,0-2.24,1.3-2.24,3.09V217h-6.62Z"/><path class="cls-1" d="M223.55,213.1a6.86,6.86,0,0,0,.8,3.85H217.6a4.56,4.56,0,0,1-.24-1.62h-.06a7.1,7.1,0,0,1-5.59,2c-3.34,0-6.12-1.59-6.12-5.21,0-5.44,6.42-5.24,9.8-5.87.9-.16,1.81-.43,1.81-1.52s-1.11-1.59-2.18-1.59c-2,0-2.44,1-2.47,1.75H206.4a5,5,0,0,1,3-4.64,14.23,14.23,0,0,1,5.91-1c8.29,0,8.23,3.42,8.23,6.74Zm-6.35-3.88a11.52,11.52,0,0,1-2.61.83c-1.47.33-2.24.7-2.24,1.86a1.9,1.9,0,0,0,2.07,1.59,2.62,2.62,0,0,0,2.78-2.69Z"/><path class="cls-1" d="M233.34,199.73h3.54v4.05h-3.54v6c0,1.59.37,2.29,2,2.29a12.59,12.59,0,0,0,1.5-.1v5c-1.34,0-2.84.2-4.24.2-2.81,0-5.92-.43-5.92-5.14v-8.23h-2.94v-4.05h2.94v-5.24h6.62Z"/><path class="cls-1" d="M244.07,197.88h-6.62v-4.61h6.62Zm-6.62,1.85h6.62V217h-6.62Z"/><path class="cls-1" d="M254.9,217.38c-6.52,0-9.46-4.28-9.46-9s2.94-9,9.46-9,9.46,4.25,9.46,9S261.42,217.38,254.9,217.38Zm0-13.3c-2.51,0-2.84,2.42-2.84,4.25s.33,4.28,2.84,4.28,2.84-2.46,2.84-4.28S257.4,204.08,254.9,204.08Z"/><path class="cls-1" d="M265.56,199.73h6.38v2.19H272a6.4,6.4,0,0,1,5.65-2.62c3.11,0,5.95,1.89,5.95,5.84V217H277v-9c0-2-.23-3.39-2.17-3.39-1.14,0-2.64.57-2.64,3.32V217h-6.62Z"/><path class="cls-1" d="M295.57,204.74a1.66,1.66,0,0,0-.76-1.29,2.36,2.36,0,0,0-1.48-.5c-.93,0-2,.2-2,1.33,0,.5.4.73.77.9,1.1.46,3.61.59,5.81,1.32s4.15,2,4.15,4.81c0,4.78-4.61,6.07-8.83,6.07s-8.55-1.62-8.66-6.07h6.32a2.11,2.11,0,0,0,.81,1.53,2.73,2.73,0,0,0,1.77.5c.87,0,2.24-.34,2.24-1.33s-.57-1.29-3.65-1.83c-5-.86-7.08-2.45-7.08-5.4,0-4.35,4.71-5.48,8.19-5.48,3.74,0,8.25,1,8.42,5.44Z"/><use width="203.91" height="54.48" transform="translate(27.94 193.03) scale(0.44)" xlink:href="#Blue"/><path class="cls-3" d="M131.36,81.39Zm0,0s10,1,18.47-1.28c6.39-1.74,11.8-5.42,12.76-12,1.34-9.23-.8-14.6-7-15.81a67.86,67.86,0,0,0-8.69-1.09c-2.15-2.56-8.47-8.47-20.66-8.26-13.39.24-17,12.11-19.09,18.93-2,6.59-1,10.54.86,12.82,2,2.47,5.36,3.34,8.86,3.2s5.72-.67,7.33-2.12a8.52,8.52,0,0,0,2.43-4.46c.58-2.35.79-5.87.74-11.14a2.64,2.64,0,0,0-5.27,0,54.91,54.91,0,0,1-.39,8.83,4.65,4.65,0,0,1-1,2.8,2.38,2.38,0,0,1-1.13.49,17.36,17.36,0,0,1-2.89.29c-1.76.07-3.55,0-4.57-1.28-1.16-1.41-1.11-3.88.11-8,1.59-5.27,3.81-15,14.14-15.18,12.16-.21,17,7,17,7a2.63,2.63,0,0,0,2.15,1.2,60.2,60.2,0,0,1,9.08,1.06,3.6,3.6,0,0,1,3,3.32,21.47,21.47,0,0,1-.17,6.57c-.65,4.45-4.64,6.54-8.94,7.71-7.58,2.07-16.53,1.12-16.53,1.12a2.63,2.63,0,1,0-.55,5.24Z"/><path class="cls-3" d="M134.54,88.21a47.5,47.5,0,0,1-4.39,17.1c-2.55,5.24-2.81,12.37-2.09,19.06a95.17,95.17,0,0,0,4,18.16,2.63,2.63,0,1,0,5-1.71,89.2,89.2,0,0,1-3.72-17c-.61-5.67-.58-11.74,1.58-16.19a53,53,0,0,0,4.92-19.23,2.63,2.63,0,1,0-5.26-.17Z"/><path class="cls-3" d="M114.16,97.2c.26,15.62.34,33.45,5.93,47.87,1.46,3.75,2.86,6,4.64,7.32,2.58,2,6.19,2.26,13.16,2.11a2.64,2.64,0,0,0-.12-5.27,58.54,58.54,0,0,1-6.85-.08,5.67,5.67,0,0,1-3-1c-1.2-.91-1.94-2.51-2.93-5-5.38-13.86-5.32-31-5.58-46a2.63,2.63,0,1,0-5.26.09Z"/><path class="cls-3" d="M96.47,119.84c6.49,3.59,10.23,12.23,9.6,21.66a2.64,2.64,0,0,0,5.26.35c.77-11.68-4.27-22.17-12.31-26.62a2.63,2.63,0,0,0-2.55,4.61Z"/><path class="cls-3" d="M52.4,100.57a31.79,31.79,0,0,0-8.87,21.89,2.65,2.65,0,0,0,5.29.09A26.7,26.7,0,0,1,56,104.46a2.65,2.65,0,0,0-3.59-3.89Z"/><path class="cls-3" d="M106.51,83c-3.5,10-6.69,14.88-16.36,24.22-6.22,6-9.48,14.38-11.1,22.29a80,80,0,0,0-1.2,22,2.63,2.63,0,1,0,5.23-.57l1.13-20.41c1.42-6.92,4.16-14.29,9.6-19.55,10.47-10.12,13.89-15.44,17.67-26.28a2.63,2.63,0,1,0-5-1.73Z"/><path class="cls-3" d="M115.45,149.28s-25.77.07-35.23,0h-.07a18.76,18.76,0,0,1-13.43-4.83c-3.9-3.67-6.54-9.6-6.88-18.38-.31-8.16,3.19-13.58,6.88-16.62-5.2,13.24-1.91,23.38,2.45,29.92a2.63,2.63,0,1,0,4.38-2.92c-4.31-6.48-7.09-17.11,1.07-31.24A2.63,2.63,0,0,0,72,101.28c-5.51.73-18.06,8.13-17.42,25,.4,10.56,3.83,17.6,8.53,22a24,24,0,0,0,17.11,6.26c9.5.07,35.25,0,35.25,0a2.64,2.64,0,0,0,0-5.27Z"/><path class="cls-3" d="M37.12,105.87c-1.54,3-2.19,5.53-2.93,10.12a2.65,2.65,0,0,0,5.24.84c.61-3.87,1.1-6,2.4-8.53a2.65,2.65,0,1,0-4.71-2.43Z"/><path class="cls-4" d="M198.64,81.39Zm0,0s-10,1-18.47-1.28c-6.39-1.74-11.8-5.42-12.76-12-1.34-9.23.8-14.6,7-15.81a67.86,67.86,0,0,1,8.69-1.09c2.15-2.56,8.47-8.47,20.66-8.26,13.39.24,17,12.11,19.09,18.93,2,6.59,1,10.54-.86,12.82-2,2.47-5.36,3.34-8.86,3.2s-5.72-.67-7.33-2.12a8.52,8.52,0,0,1-2.43-4.46c-.58-2.35-.79-5.87-.74-11.14a2.64,2.64,0,0,1,5.27,0,54.91,54.91,0,0,0,.39,8.83,4.65,4.65,0,0,0,1,2.8,2.38,2.38,0,0,0,1.13.49,17.36,17.36,0,0,0,2.89.29c1.76.07,3.55,0,4.57-1.28,1.16-1.41,1.11-3.88-.11-8-1.59-5.27-3.81-15-14.14-15.18-12.16-.21-17,7-17,7a2.63,2.63,0,0,1-2.15,1.2,60.2,60.2,0,0,0-9.08,1.06,3.6,3.6,0,0,0-3,3.32,21.47,21.47,0,0,0,.17,6.57c.65,4.45,4.64,6.54,8.94,7.71,7.58,2.07,16.53,1.12,16.53,1.12a2.63,2.63,0,1,1,.55,5.24Z"/><path class="cls-4" d="M195.46,88.21a47.5,47.5,0,0,0,4.39,17.1c2.55,5.24,2.81,12.37,2.09,19.06a95.17,95.17,0,0,1-4,18.16,2.63,2.63,0,1,1-5-1.71,89.2,89.2,0,0,0,3.72-17c.61-5.67.58-11.74-1.58-16.19a53,53,0,0,1-4.92-19.23,2.63,2.63,0,1,1,5.26-.17Z"/><path class="cls-4" d="M215.84,97.2c-.26,15.62-.34,33.45-5.93,47.87-1.46,3.75-2.86,6-4.64,7.32-2.58,2-6.19,2.26-13.16,2.11a2.64,2.64,0,1,1,.12-5.27,58.54,58.54,0,0,0,6.85-.08,5.67,5.67,0,0,0,3-1c1.2-.91,1.94-2.51,2.93-5,5.38-13.86,5.32-31,5.58-46a2.63,2.63,0,1,1,5.26.09Z"/><path class="cls-4" d="M233.53,119.84c-6.49,3.59-10.23,12.23-9.6,21.66a2.64,2.64,0,0,1-5.26.35c-.78-11.68,4.27-22.17,12.31-26.62a2.63,2.63,0,1,1,2.55,4.61Z"/><path class="cls-4" d="M277.6,100.57a31.79,31.79,0,0,1,8.87,21.89,2.65,2.65,0,0,1-5.29.09A26.7,26.7,0,0,0,274,104.46a2.65,2.65,0,0,1,3.59-3.89Z"/><path class="cls-4" d="M223.49,83c3.5,10,6.69,14.88,16.36,24.22,6.22,6,9.48,14.38,11.1,22.29a80,80,0,0,1,1.2,22,2.63,2.63,0,0,1-5.23-.57l-1.13-20.41c-1.42-6.92-4.16-14.29-9.6-19.55-10.47-10.12-13.89-15.44-17.67-26.28a2.63,2.63,0,0,1,5-1.73Z"/><path class="cls-4" d="M214.55,149.28s25.77.07,35.23,0h.07a18.76,18.76,0,0,0,13.43-4.83c3.91-3.67,6.54-9.6,6.88-18.38.31-8.16-3.19-13.58-6.88-16.62,5.2,13.24,1.91,23.38-2.45,29.92a2.63,2.63,0,0,1-4.38-2.92c4.31-6.48,7.09-17.11-1.07-31.24a2.63,2.63,0,0,1,2.62-3.93c5.51.73,18.06,8.13,17.42,25-.4,10.56-3.83,17.6-8.53,22a24,24,0,0,1-17.11,6.26c-9.5.07-35.25,0-35.25,0a2.64,2.64,0,1,1,0-5.27Z"/><path class="cls-4" d="M292.88,105.87c1.54,3,2.19,5.53,2.93,10.12a2.65,2.65,0,1,1-5.24.84c-.61-3.87-1.1-6-2.4-8.53a2.65,2.65,0,1,1,4.71-2.43Z"/></svg>