<svg xmlns="http://www.w3.org/2000/svg" xmlns:xlink="http://www.w3.org/1999/xlink" viewBox="0 0 330 269"><defs><style>.cls-1{fill:#0a1e3f;}.cls-2{fill:#8bb8e8;}</style><symbol id="Blue" data-name="Blue" viewBox="0 0 203.91 54.48"><path class="cls-1" d="M0,1.18H30.36Q38,1.18,42,4.94a12.17,12.17,0,0,1,4.06,9.29,11.79,11.79,0,0,1-2.89,8,12.76,12.76,0,0,1-5.65,3.5q5.64,1.37,8.29,4.66a12.83,12.83,0,0,1,2.66,8.3A14.28,14.28,0,0,1,46.59,46a14,14,0,0,1-5.2,5.14,17.23,17.23,0,0,1-6.14,1.7,70.72,70.72,0,0,1-7.27.72H0ZM16.32,21.77h7.09q3.82,0,5.32-1.3a4.75,4.75,0,0,0,1.5-3.78,4.43,4.43,0,0,0-1.5-3.57q-1.5-1.29-5.21-1.29h-7.2Zm0,20.51h8.29c2.79,0,4.77-.49,5.91-1.48a4.94,4.94,0,0,0,1.73-4,4.59,4.59,0,0,0-1.7-3.72c-1.15-.93-3.13-1.41-6-1.41H16.32Z"/><path class="cls-2" d="M49.6,1.18H65.76V40.65H91v12.9H49.6Z"/><path class="cls-2" d="M125.07,1.18h16.16V32.4a26.16,26.16,0,0,1-1.45,8.77,18.61,18.61,0,0,1-4.54,7.21,17.91,17.91,0,0,1-6.49,4.35,32.64,32.64,0,0,1-11.34,1.75,70.91,70.91,0,0,1-8.36-.54,22,22,0,0,1-7.57-2.12,19.06,19.06,0,0,1-5.56-4.52,16.56,16.56,0,0,1-3.46-6A31.57,31.57,0,0,1,91,32.4V1.18h16.15v32a9.12,9.12,0,0,0,2.39,6.7,10.28,10.28,0,0,0,13.18,0,9.1,9.1,0,0,0,2.38-6.74Z"/><path class="cls-2" d="M161.4,31.15c.5,5.79,3.86,9.92,10,9.92,3.17,0,6.63-1.18,8.22-3.63h18.31c-4,11-14.75,16.11-26.43,16.11-16.44,0-28.81-9.63-28.81-26.63C142.69,12.09,153.58,0,169.82,0,190.21,0,199,11.3,199,31.15ZM180.21,21a8.4,8.4,0,0,0-8.61-8.55c-5.84,0-9.21,3-10.1,8.55Z"/><path class="cls-1" d="M203.91,6a4.45,4.45,0,1,1-4.41-4.33A4.36,4.36,0,0,1,203.91,6Zm-7.78,0a3.36,3.36,0,0,0,3.37,3.45A3.31,3.31,0,0,0,202.8,6a3.34,3.34,0,1,0-6.67,0Zm2.66,2.24h-1V3.87a12.12,12.12,0,0,1,1.66-.13,2.32,2.32,0,0,1,1.48.34,1.12,1.12,0,0,1,.45.93,1.11,1.11,0,0,1-.9,1v.06c.42.13.63.47.76,1a4.18,4.18,0,0,0,.32,1.06h-1.05a3.41,3.41,0,0,1-.35-1.06c-.08-.44-.34-.66-.89-.66h-.48Zm0-2.43h.47c.55,0,1-.19,1-.63s-.29-.66-.92-.66a2.2,2.2,0,0,0-.55,0Z"/></symbol></defs><g id="Capa_1" data-name="Capa 1"><path class="cls-1" d="M203.62,216.66h-7.15l-2.57-14.43h-.07l-2.51,14.43h-7.19L177.65,193h7.22l2.91,14.63h.07L190.72,193h6.49L200,207.8h.07l3-14.83h7.25Z"/><path class="cls-1" d="M214.55,209.52c.17,2,1.31,3.35,3.38,3.35a3.3,3.3,0,0,0,2.77-1.22h6.19c-1.34,3.71-5,5.44-8.93,5.44-5.55,0-9.73-3.25-9.73-9a8.87,8.87,0,0,1,9.16-9.09c6.89,0,9.87,3.81,9.87,10.51Zm6.35-3.41a2.83,2.83,0,0,0-2.91-2.89,3.14,3.14,0,0,0-3.41,2.89Z"/><path class="cls-1" d="M228.35,193H235v8.36H235a5.67,5.67,0,0,1,4.75-2.32c5.81,0,7.39,4.91,7.39,9,0,4.32-2.38,9.13-7.29,9.13-3.25,0-4.25-1.23-5.08-2.32h-.07v1.89h-6.39Zm9.3,10.81c-2.38,0-2.91,2.23-2.91,4.25s.53,4.28,2.91,4.28,2.91-2.22,2.91-4.28S240,203.78,237.65,203.78Z"/><use width="203.91" height="54.48" transform="translate(82.83 192.74) scale(0.44)" xlink:href="#Blue"/></g><g id="Objects"><path class="cls-2" d="M212.37,71.31A54.39,54.39,0,0,0,168.54,44v-.26h-7V44a54.38,54.38,0,0,0-43.84,27.36h-.16l-1,1.92-2.67,5.16h.36a53.54,53.54,0,0,0-3.63,16.46h-.23v7.05h.23a53.73,53.73,0,0,0,3.63,16.46h-.36l2.67,5.16,1,1.89h.16a54.35,54.35,0,0,0,43.84,27.4V153h7v-.22a54.36,54.36,0,0,0,43.83-27.4h.17l1-1.89,2.68-5.16h-.4a53.21,53.21,0,0,0,3.67-16.46h.19V94.85h-.19a53,53,0,0,0-3.67-16.46h.4l-2.68-5.16-1-1.92ZM144.89,55.73a57,57,0,0,0-7.67,15.58H126.4A46.78,46.78,0,0,1,144.89,55.73ZM122,78.39h13.22a86.37,86.37,0,0,0-2.11,16.46H117.83A46.77,46.77,0,0,1,122,78.39Zm-4.2,23.51h15.31a86.68,86.68,0,0,0,2.11,16.46H122A47.11,47.11,0,0,1,117.83,101.9Zm8.57,23.51h10.82A56.68,56.68,0,0,0,144.89,141,46.57,46.57,0,0,1,126.4,125.41ZM161.49,145c-6.62-1.95-12.6-9-16.6-19.62h16.6Zm0-26.67H142.8a82.26,82.26,0,0,1-2.25-16.46h20.94Zm0-23.51H140.55a82,82,0,0,1,2.25-16.46h18.69Zm0-23.54h-16.6c4-10.57,10-17.67,16.6-19.61Zm42.14,0H192.78a57,57,0,0,0-7.64-15.58A47,47,0,0,1,203.63,71.31ZM168.54,51.7c6.59,1.94,12.6,9,16.6,19.61h-16.6Zm0,26.69h18.69a80.55,80.55,0,0,1,2.23,16.46H168.54Zm0,23.51h20.92a80.83,80.83,0,0,1-2.23,16.46H168.54Zm0,43.13V125.41h16.6C181.14,136,175.13,143.08,168.54,145Zm16.6-4a56.65,56.65,0,0,0,7.64-15.59h10.85A46.77,46.77,0,0,1,185.14,141ZM208,118.36H194.78a90,90,0,0,0,2.12-16.46h15.3A46.5,46.5,0,0,1,208,118.36ZM196.9,94.85a89.69,89.69,0,0,0-2.12-16.46H208a46.18,46.18,0,0,1,4.23,16.46Z"/></g></svg>