<?xml version="1.0" encoding="UTF-8"?><svg id="b" xmlns="http://www.w3.org/2000/svg" xmlns:xlink="http://www.w3.org/1999/xlink" viewBox="0 0 330 269"><defs><symbol id="a" viewBox="0 0 203.91 54.48"><path d="M0,1.18h30.36c5.05,0,8.94,1.25,11.65,3.76,2.7,2.5,4.06,5.61,4.06,9.29,0,3.11-.96,5.77-2.89,7.98-1.29,1.48-3.16,2.65-5.64,3.51,3.76.91,6.52,2.46,8.29,4.66,1.77,2.2,2.65,4.97,2.65,8.3,0,2.7-.63,5.15-1.9,7.32-1.26,2.16-2.99,3.87-5.2,5.13-1.36.78-3.4,1.36-6.14,1.7-3.65.49-6.08.72-7.27.72H0V1.18ZM16.32,21.77h7.09c2.55,0,4.32-.43,5.31-1.29,1-.88,1.5-2.13,1.5-3.78,0-1.52-.49-2.71-1.5-3.57-1-.86-2.74-1.29-5.21-1.29h-7.2v9.94ZM16.32,42.28h8.29c2.8,0,4.77-.49,5.91-1.48,1.15-.98,1.72-2.31,1.72-3.97,0-1.54-.57-2.78-1.7-3.72-1.15-.93-3.13-1.4-5.98-1.4h-8.25v10.57Z" style="fill:#0a1e3f; stroke-width:0px;"/><path d="M49.6,1.18h16.15v39.47h25.25v12.9h-41.41V1.18Z" style="fill:#95b6e5; stroke-width:0px;"/><path d="M125.07,1.18h16.16v31.22c0,3.09-.48,6.02-1.45,8.77-.96,2.76-2.48,5.16-4.54,7.21-2.07,2.06-4.22,3.51-6.5,4.35-3.14,1.17-6.93,1.75-11.34,1.75-2.55,0-5.33-.18-8.36-.54-3.03-.35-5.53-1.07-7.57-2.12-2.03-1.06-3.88-2.57-5.56-4.53-1.67-1.95-2.83-3.96-3.45-6.03-1-3.34-1.49-6.29-1.49-8.86V1.18h16.15v31.99c0,2.86.8,5.1,2.39,6.7,1.58,1.61,3.79,2.41,6.61,2.41s4.99-.79,6.57-2.37c1.59-1.59,2.39-3.83,2.39-6.74V1.18Z" style="fill:#95b6e5; stroke-width:0px;"/><path d="M161.4,31.15c.49,5.8,3.86,9.92,10,9.92,3.17,0,6.63-1.18,8.22-3.64h18.32c-3.96,11.01-14.75,16.11-26.43,16.11-16.43,0-28.81-9.63-28.81-26.63,0-14.84,10.89-26.92,27.13-26.92,20.39,0,29.2,11.3,29.2,31.15h-37.62ZM180.21,21.03c0-4.72-3.56-8.55-8.61-8.55-5.84,0-9.21,3.04-10.1,8.55h18.71Z" style="fill:#95b6e5; stroke-width:0px;"/><path d="M203.91,5.96c0,2.42-1.95,4.35-4.43,4.35s-4.46-1.93-4.46-4.35,1.97-4.33,4.48-4.33,4.4,1.9,4.4,4.33ZM196.13,5.96c0,1.92,1.45,3.45,3.38,3.45,1.87.03,3.3-1.53,3.3-3.43s-1.43-3.48-3.35-3.48-3.32,1.56-3.32,3.46ZM198.79,8.2h-1V3.87c.4-.05.95-.13,1.66-.13.82,0,1.19.13,1.48.34.27.18.45.5.45.92,0,.53-.4.87-.9,1.03v.05c.42.13.63.47.77,1.05.13.66.24.9.31,1.06h-1.05c-.13-.16-.21-.53-.34-1.06-.08-.44-.34-.66-.9-.66h-.47v1.71ZM198.82,5.77h.48c.55,0,1-.19,1-.64,0-.4-.29-.66-.92-.66-.27,0-.45.02-.56.05v1.24Z" style="fill:#0a1e3f; stroke-width:0px;"/></symbol></defs><path d="M169.7,119.8l-70.9.2c-3.3,0-6-2.7-6-6l-.1-46.4c0-3.3,2.7-6,6-6l70.9-.2c3.3,0,6,2.7,6,6l.1,46.4c0,3.2-2.7,6-6,6Z" style="fill:#96bf61; stroke-width:0px;"/><path d="M231.2,130.3l-70.9-.2c-3.3,0-6-2.7-6-6l.2-46.4c0-3.3,2.7-6,6-6l70.9.2c3.3,0,6,2.7,6,6l-.2,46.4c0,3.4-2.7,6.1-6,6Z" style="fill:#d62f8a; stroke-width:0px;"/><path d="M200.4,140.6l-70.9-.3c-3.3,0-6-2.7-6-6l.2-46.4c0-3.3,2.7-6,6-6l70.9.3c3.3,0,6,2.7,6,6l-.2,46.4c0,3.3-2.7,6-6,6Z" style="fill:#f17533; stroke-width:0px;"/><path d="M158.03,214.3c-1.64,2.09-4.18,2.99-6.79,2.99-7.05,0-11.4-5.44-11.4-12.17,0-9.02,6.39-12.64,11.77-12.64,6.08,0,9.93,3.29,11,8.86h-7.05c-.27-1.72-1.74-2.95-3.48-2.95-5.05,0-4.88,5.27-4.88,6.9,0,2.22.9,6.1,5.38,6.1,1.71,0,3.44-.86,3.81-2.62h-3.24v-5.08h9.76v13.04h-4.65l-.23-2.42Z" style="fill:#0a1e3f; stroke-width:0px;"/><path d="M171.54,197.65h-6.62v-4.61h6.62v4.61ZM164.92,199.51h6.62v17.22h-6.62v-17.22Z" style="fill:#0a1e3f; stroke-width:0px;"/><path d="M174.74,203.55h-2.71v-4.05h2.71c-.07-1.69.1-3.58,1.37-4.84,1.44-1.43,3.11-1.62,5.78-1.62,1,0,1.97.1,2.97.13v4.51c-.53-.07-1.07-.23-1.6-.23-1.6,0-2.14.46-2.04,2.06h3.48v4.05h-3.34v13.17h-6.62v-13.17Z" style="fill:#0a1e3f; stroke-width:0px;"/><path d="M194.93,199.51h3.54v4.05h-3.54v6c0,1.59.37,2.29,2.04,2.29.5,0,1-.03,1.5-.1v4.98c-1.34,0-2.84.2-4.25.2-2.81,0-5.92-.43-5.92-5.14v-8.23h-2.94v-4.05h2.94v-5.24h6.62v5.24Z" style="fill:#0a1e3f; stroke-width:0px;"/><path d="M223.55,201.86c-.13-.86-.8-3.48-3.84-3.48-3.44,0-4.55,3.32-4.55,6.5s1.1,6.5,4.55,6.5c2.47,0,3.44-1.72,3.88-3.95h7.22c0,4.78-3.91,9.85-10.9,9.85-7.72,0-12.1-5.41-12.1-12.41,0-7.46,4.75-12.41,12.1-12.41,6.55.03,10.16,3.45,10.8,9.39h-7.15Z" style="fill:#0a1e3f; stroke-width:0px;"/><path d="M249.01,212.88c0,1.29.07,2.75.8,3.85h-6.75c-.17-.46-.27-1.16-.23-1.63h-.07c-1.4,1.59-3.44,2.06-5.58,2.06-3.34,0-6.12-1.59-6.12-5.21,0-5.44,6.42-5.24,9.8-5.87.9-.17,1.81-.43,1.81-1.53,0-1.16-1.1-1.59-2.17-1.59-2.04,0-2.44,1.03-2.47,1.76h-6.15c.1-2.42,1.3-3.85,3.01-4.64,1.67-.8,3.88-1,5.92-1,8.29,0,8.22,3.42,8.22,6.73v7.07ZM242.66,209c-.8.4-1.71.63-2.61.83-1.47.33-2.24.7-2.24,1.86,0,.8.87,1.59,2.07,1.59,1.5,0,2.67-.89,2.78-2.69v-1.59Z" style="fill:#0a1e3f; stroke-width:0px;"/><path d="M260.88,204.52c-.03-.56-.33-1-.77-1.29-.4-.33-.94-.5-1.47-.5-.94,0-2.01.2-2.01,1.33,0,.5.4.73.77.89,1.1.46,3.61.6,5.82,1.33,2.21.7,4.15,1.99,4.15,4.81,0,4.78-4.61,6.07-8.83,6.07s-8.56-1.63-8.66-6.07h6.32c.03.6.3,1.09.8,1.53.33.3.97.5,1.77.5.87,0,2.24-.33,2.24-1.33s-.57-1.29-3.64-1.82c-5.05-.86-7.09-2.46-7.09-5.41,0-4.35,4.71-5.47,8.19-5.47,3.74,0,8.26,1.03,8.42,5.44h-6.02Z" style="fill:#0a1e3f; stroke-width:0px;"/><path d="M268.36,193.04h6.62v8.33h.07c1.14-1.33,2.61-2.29,5.42-2.29,3.11,0,5.95,1.89,5.95,5.84v11.81h-6.62v-9.02c0-1.99-.23-3.38-2.17-3.38-1.14,0-2.64.56-2.64,3.32v9.09h-6.62v-23.69Z" style="fill:#0a1e3f; stroke-width:0px;"/><use width="203.91" height="54.48" transform="translate(43.58 192.81) scale(.44)" xlink:href="#a"/></svg>