<?xml version="1.0" encoding="UTF-8"?><svg id="b" xmlns="http://www.w3.org/2000/svg" xmlns:xlink="http://www.w3.org/1999/xlink" viewBox="0 0 330 269"><defs><symbol id="a" viewBox="0 0 203.91 54.49"><path d="M0,53.31h30.36c5.09,0,8.97-1.25,11.64-3.76,2.64-2.36,4.12-5.75,4.06-9.29.07-2.93-.96-5.79-2.89-8-1.54-1.65-3.49-2.85-5.65-3.5,3.76-.91,6.52-2.47,8.29-4.66,1.83-2.37,2.77-5.31,2.66-8.3.04-2.56-.61-5.09-1.88-7.31-1.25-2.14-3.04-3.92-5.2-5.14-1.92-.94-4.01-1.52-6.14-1.7-2.41-.37-4.84-.61-7.27-.72H0v52.38ZM16.32,32.72h7.09c2.55,0,4.32.43,5.32,1.3,1.04.97,1.59,2.36,1.5,3.78.07,1.36-.48,2.67-1.5,3.57-1,.86-2.74,1.29-5.21,1.29h-7.2v-9.94ZM16.32,12.21h8.29c2.79,0,4.77.49,5.91,1.48,1.17.99,1.8,2.47,1.73,4,.05,1.44-.58,2.81-1.7,3.72-1.15.93-3.13,1.41-6,1.41h-8.23v-10.61Z" style="fill:#0a1e3f; stroke-width:0px;"/><path d="M49.6,53.31h16.16V13.84h25.24V.94h-41.4v52.37Z" style="fill:#8bb8e8; stroke-width:0px;"/><path d="M125.07,53.31h16.16v-31.22c.02-2.98-.47-5.95-1.45-8.77-.94-2.72-2.49-5.19-4.54-7.21-1.82-1.91-4.03-3.4-6.49-4.35-3.65-1.25-7.49-1.84-11.34-1.75-2.79.02-5.59.2-8.36.54-2.63.25-5.19.96-7.57,2.12-2.12,1.14-4.01,2.68-5.56,4.52-1.56,1.73-2.74,3.78-3.46,6-.91,2.88-1.4,5.88-1.46,8.9v31.22h16.15V21.31c-.14-2.46.72-4.88,2.39-6.7,3.82-3.19,9.36-3.19,13.18,0,1.68,1.83,2.54,4.26,2.38,6.74l-.03,31.96Z" style="fill:#8bb8e8; stroke-width:0px;"/><path d="M161.4,23.34c.5-5.79,3.86-9.92,10-9.92,3.17,0,6.63,1.18,8.22,3.63h18.31c-4-11-14.75-16.11-26.43-16.11-16.44,0-28.81,9.63-28.81,26.63,0,14.83,10.89,26.92,27.13,26.92,20.39,0,29.18-11.3,29.18-31.15h-37.6ZM180.21,33.49c.08,4.64-3.61,8.47-8.25,8.55-.12,0-.24,0-.36,0-5.84,0-9.21-3-10.1-8.55h18.71Z" style="fill:#8bb8e8; stroke-width:0px;"/><path d="M203.91,48.49c.07-2.46-1.87-4.5-4.33-4.57-2.46-.07-4.5,1.87-4.57,4.33-.07,2.46,1.87,4.5,4.33,4.57.05,0,.11,0,.16,0,2.41.03,4.38-1.9,4.41-4.31,0,0,0-.01,0-.02ZM196.13,48.49c-.05-1.86,1.41-3.4,3.27-3.45.03,0,.07,0,.1,0,1.83,0,3.31,1.49,3.3,3.32,0,.04,0,.09,0,.13.1,1.84-1.31,3.42-3.15,3.52-1.84.1-3.42-1.31-3.52-3.15,0-.12,0-.24,0-.37ZM198.79,46.25h-1v4.37c.55.08,1.1.12,1.66.13.52.06,1.04-.06,1.48-.34.29-.22.46-.57.45-.93-.04-.5-.41-.91-.9-1v-.06c.42-.13.63-.47.76-1,.06-.37.17-.72.32-1.06h-1.05c-.17.33-.29.69-.35,1.06-.08.44-.34.66-.89.66h-.48v-1.83ZM198.79,48.68h.47c.55,0,1,.19,1,.63s-.29.66-.92.66c-.18.02-.37.02-.55,0v-1.29Z" style="fill:#0a1e3f; stroke-width:0px;"/></symbol><clipPath id="c"><rect x="76.91" y="193.03" width="89.72" height="23.97" style="fill:none; stroke-width:0px;"/></clipPath></defs><path d="M197.54,193.27h10.46l3.41,13.93h.06l3.41-13.93h10.47v23.73h-7v-15.24h-.06l-4.1,15.24h-5.48l-4.15-15.19h-.06v15.19h-7l.04-23.73Z" style="fill:#0a1e3f; stroke-width:0px;"/><path d="M180.51,209c0,.53.08,1.06.27,1.56.53,1.43,2.13,1.72,3.51,1.72,1.2,0,3-.39,3-2.15,0-1.23-1-1.56-5.15-2.72-3.78-1.06-8.09-2.09-8.09-6.87,0-5.47,4.71-7.83,9.63-7.83,5.18,0,9.76,2,10,7.73h-6.95c.13-.75-.21-1.5-.87-1.89-.65-.41-1.41-.62-2.18-.6-1,0-2.64.27-2.64,1.6.14,1.69,3.55,2.05,6.92,3s6.72,2.49,6.72,6.83c0,6.18-5.71,8.17-11,8.17-2.71,0-10.43-1-10.5-8.53l7.33-.02Z" style="fill:#0a1e3f; stroke-width:0px;"/><path d="M234,209c0,.53.08,1.06.27,1.56.53,1.43,2.13,1.72,3.51,1.72,1.2,0,3-.39,3-2.15,0-1.23-1-1.56-5.15-2.72-3.78-1.06-8.09-2.09-8.09-6.87,0-5.47,4.71-7.83,9.63-7.83,5.18,0,9.76,2,10,7.73h-6.95c.13-.75-.21-1.5-.87-1.89-.65-.41-1.41-.62-2.18-.6-1,0-2.64.27-2.64,1.6.14,1.69,3.55,2.05,6.92,3s6.72,2.49,6.72,6.83c0,6.18-5.71,8.17-11,8.17-2.71,0-10.43-1-10.5-8.53l7.33-.02Z" style="fill:#0a1e3f; stroke-width:0px;"/><g style="clip-path:url(#c);"><use width="203.91" height="54.49" transform="translate(76.91 217.01) scale(.44 -.44)" xlink:href="#a"/></g><path d="M166.66,83.87c-.12.25-.17.52-.17.79,0,.44.16.87.44,1.21l16.75,19.84c.36.42.88.66,1.43.66.55,0,1.08-.24,1.44-.66l16.74-19.84c.67-.79.57-1.98-.23-2.65-.34-.28-.76-.44-1.2-.44h-5.24v-34c0-1.04-.84-1.88-1.88-1.88h-19.26c-1.04,0-1.88.84-1.88,1.88h0v34h-5.24c-.73,0-1.4.43-1.7,1.09Z" style="fill:#f17533; stroke-width:0px;"/><path d="M137.85,47.58l-16.75,19.83c-.28.34-.44.77-.44,1.21,0,.28.06.55.17.8.31.66.98,1.08,1.71,1.08h5.24v34c0,1.03.84,1.87,1.87,1.88h19.26c1.04,0,1.88-.84,1.88-1.88h0v-34h5.21c1.04,0,1.88-.85,1.87-1.89,0-.44-.16-.86-.44-1.2l-16.71-19.83c-.66-.79-1.84-.9-2.63-.24-.09.07-.16.15-.24.24Z" style="fill:#7d2796; stroke-width:0px;"/><rect x="111.67" y="116.11" width="30.4" height="27.08" rx="7.67" ry="7.67" style="fill:#f17533; stroke-width:0px;"/><rect x="182.32" y="116.11" width="30.4" height="27.08" rx="7.67" ry="7.67" style="fill:#7d2796; stroke-width:0px;"/><path d="M154.67,116.11c-4.23.01-7.66,3.44-7.67,7.67v11.73c.01,4.23,3.44,7.66,7.67,7.67h7.52v-27.07h-7.52Z" style="fill:#96c061; stroke-width:0px;"/><path d="M169.73,116.11h-7.54v27.07h7.54c4.23-.02,7.65-3.44,7.67-7.67v-11.73c-.02-4.23-3.44-7.65-7.67-7.67Z" style="fill:#0a1e3f; stroke-width:0px;"/></svg>