<svg xmlns="http://www.w3.org/2000/svg" xmlns:xlink="http://www.w3.org/1999/xlink" viewBox="0 0 330 260"><defs><style>.cls-1{fill:#0a1e3f;}.cls-2{fill:#8bb8e8;}.cls-3{fill:#f17533;}.cls-4{fill:#fff;}.cls-5{fill:#d62f8a;}</style><symbol id="Blue" data-name="Blue" viewBox="0 0 203.91 54.48"><path class="cls-1" d="M0,1.18H30.36Q38,1.18,42,4.94a12.17,12.17,0,0,1,4.06,9.29,11.79,11.79,0,0,1-2.89,8,12.76,12.76,0,0,1-5.65,3.5q5.64,1.37,8.29,4.66a12.83,12.83,0,0,1,2.66,8.3A14.28,14.28,0,0,1,46.59,46a14,14,0,0,1-5.2,5.14,17.23,17.23,0,0,1-6.14,1.7,70.72,70.72,0,0,1-7.27.72H0ZM16.32,21.77h7.09q3.82,0,5.32-1.3a4.75,4.75,0,0,0,1.5-3.78,4.43,4.43,0,0,0-1.5-3.57q-1.5-1.29-5.21-1.29h-7.2Zm0,20.51h8.29c2.79,0,4.77-.49,5.91-1.48a4.94,4.94,0,0,0,1.73-4,4.59,4.59,0,0,0-1.7-3.72c-1.15-.93-3.13-1.41-6-1.41H16.32Z"/><path class="cls-2" d="M49.6,1.18H65.76V40.65H91v12.9H49.6Z"/><path class="cls-2" d="M125.07,1.18h16.16V32.4a26.16,26.16,0,0,1-1.45,8.77,18.61,18.61,0,0,1-4.54,7.21,17.91,17.91,0,0,1-6.49,4.35,32.64,32.64,0,0,1-11.34,1.75,70.91,70.91,0,0,1-8.36-.54,22,22,0,0,1-7.57-2.12,19.06,19.06,0,0,1-5.56-4.52,16.56,16.56,0,0,1-3.46-6A31.57,31.57,0,0,1,91,32.4V1.18h16.15v32a9.12,9.12,0,0,0,2.39,6.7,10.28,10.28,0,0,0,13.18,0,9.1,9.1,0,0,0,2.38-6.74Z"/><path class="cls-2" d="M161.4,31.15c.5,5.79,3.86,9.92,10,9.92,3.17,0,6.63-1.18,8.22-3.63h18.31c-4,11-14.75,16.11-26.43,16.11-16.44,0-28.81-9.63-28.81-26.63C142.69,12.09,153.58,0,169.82,0,190.21,0,199,11.3,199,31.15ZM180.21,21a8.4,8.4,0,0,0-8.61-8.55c-5.84,0-9.21,3-10.1,8.55Z"/><path class="cls-1" d="M203.91,6a4.45,4.45,0,1,1-4.41-4.33A4.36,4.36,0,0,1,203.91,6Zm-7.78,0a3.36,3.36,0,0,0,3.37,3.45A3.31,3.31,0,0,0,202.8,6a3.34,3.34,0,1,0-6.67,0Zm2.66,2.24h-1V3.87a12.12,12.12,0,0,1,1.66-.13,2.32,2.32,0,0,1,1.48.34,1.12,1.12,0,0,1,.45.93,1.11,1.11,0,0,1-.9,1v.06c.42.13.63.47.76,1a4.18,4.18,0,0,0,.32,1.06h-1.05a3.41,3.41,0,0,1-.35-1.06c-.08-.44-.34-.66-.89-.66h-.48Zm0-2.43h.47c.55,0,1-.19,1-.63s-.29-.66-.92-.66a2.2,2.2,0,0,0-.55,0Z"/></symbol></defs><g id="Capa_1" data-name="Capa 1"><path class="cls-1" d="M109.08,188.77h12.31c6.48,0,8.75,4.71,8.75,8.09,0,5.74-3.87,8.43-9.36,8.43h-4.34v7.16h-7.36Zm7.36,10.88h2.84c1.9,0,3.91-.14,3.91-2.52,0-2.16-1.67-2.29-3.48-2.29h-3.27Z"/><path class="cls-1" d="M130.84,195.23h6.35V198h.07c1.07-2.06,2.47-3.19,4.88-3.19a7.39,7.39,0,0,1,1.94.27v5.8a6.79,6.79,0,0,0-2.61-.43c-2.6,0-4,1.53-4,5.21v6.8h-6.62Z"/><path class="cls-1" d="M153.64,212.88c-6.52,0-9.46-4.28-9.46-9s2.94-9,9.46-9,9.46,4.25,9.46,9S160.16,212.88,153.64,212.88Zm0-13.3c-2.51,0-2.84,2.42-2.84,4.25s.33,4.28,2.84,4.28,2.84-2.46,2.84-4.28S156.15,199.58,153.64,199.58Z"/><path class="cls-1" d="M175.5,201.77a2.34,2.34,0,0,0-.74-1.63,2.44,2.44,0,0,0-1.67-.56c-2.54,0-2.91,2.19-2.91,4.28s.37,4.25,2.91,4.25a2.67,2.67,0,0,0,2.58-2.53H182a8,8,0,0,1-3,5.41,9.72,9.72,0,0,1-6,1.89c-5.22,0-9.4-3.58-9.4-9s4.18-9.06,9.4-9.06c4.54,0,8.42,2.23,8.82,7Z"/><path class="cls-1" d="M201.1,212.45h-6.38v-2.19h-.07a6.37,6.37,0,0,1-5.65,2.62c-3.11,0-5.95-1.89-5.95-5.84V195.23h6.62v9c0,2,.23,3.38,2.17,3.38,1.14,0,2.64-.56,2.64-3.32v-9.09h6.62Z"/><path class="cls-1" d="M203,195.23h6.35V198h.07c1.07-2.06,2.47-3.19,4.88-3.19a7.45,7.45,0,0,1,1.94.27v5.8a6.79,6.79,0,0,0-2.61-.43c-2.61,0-4,1.53-4,5.21v6.8H203Z"/><path class="cls-1" d="M222.69,205.32c.17,2,1.31,3.35,3.38,3.35a3.31,3.31,0,0,0,2.77-1.23H235c-1.34,3.72-5,5.44-8.93,5.44-5.55,0-9.73-3.25-9.73-9a8.87,8.87,0,0,1,9.16-9.09c6.89,0,9.87,3.82,9.87,10.52ZM229,201.9a2.83,2.83,0,0,0-2.9-2.88,3.12,3.12,0,0,0-3.41,2.88Z"/><path class="cls-1" d="M236.46,195.23h6.39v2.29h.07a6.27,6.27,0,0,1,5.68-2.72,5.18,5.18,0,0,1,4.68,2.69c.27-.2,1.6-2.69,5.92-2.69s5.95,3.06,5.95,5.84v11.81h-6.62v-9.32c0-1.63-.17-3.09-2.18-3.09-1.67,0-2.24,1.3-2.24,3.09v9.32H247.5v-9.32c0-1.63-.17-3.09-2.18-3.09-1.67,0-2.24,1.3-2.24,3.09v9.32h-6.62Z"/><path class="cls-1" d="M272.6,205.32c.16,2,1.3,3.35,3.37,3.35a3.34,3.34,0,0,0,2.78-1.23h6.18c-1.34,3.72-5,5.44-8.92,5.44-5.55,0-9.73-3.25-9.73-9a8.87,8.87,0,0,1,9.16-9.09c6.88,0,9.86,3.82,9.86,10.52ZM279,201.9A2.84,2.84,0,0,0,276,199a3.13,3.13,0,0,0-3.41,2.88Z"/><path class="cls-1" d="M286.4,195.23h6.38v2.19h.07a6.4,6.4,0,0,1,5.65-2.62c3.11,0,5.95,1.89,5.95,5.84v11.81h-6.62v-9c0-2-.23-3.39-2.17-3.39-1.14,0-2.64.57-2.64,3.32v9.09H286.4Z"/><path class="cls-1" d="M314.34,195.23h3.55v4.05h-3.55v6c0,1.59.37,2.29,2,2.29a12.9,12.9,0,0,0,1.51-.1v5c-1.34,0-2.85.2-4.25.2-2.81,0-5.92-.43-5.92-5.14v-8.23h-2.94v-4.05h2.94V190h6.62Z"/><use width="203.91" height="54.48" transform="translate(12.12 188.53) scale(0.44)" xlink:href="#Blue"/></g><g id="Modo_de_aislamiento" data-name="Modo de aislamiento"><rect class="cls-2" x="75.26" y="107.56" width="21.72" height="30.97"/><rect class="cls-3" x="127.17" y="43.89" width="91.66" height="8.9" rx="2.37"/><rect class="cls-3" x="127.17" y="53.58" width="91.66" height="68.61" rx="2.37"/><path class="cls-4" d="M256.37,109H242.5A16.36,16.36,0,0,0,231,113.77l-4.72,4.72a11.19,11.19,0,0,1-7.93,3.29H206a4.68,4.68,0,0,0-4.22,2.09H183.16l11,15a16.43,16.43,0,0,0,12.13,5.35h31.59c8,0,18.5-10.61,18.5-10.61Z"/><path class="cls-1" d="M193.05,139.91l-.1-.12-11-15a1.5,1.5,0,0,1,1.2-2.37H201a6.53,6.53,0,0,1,5-2.09H218.3a9.66,9.66,0,0,0,6.88-2.85l4.72-4.72a17.73,17.73,0,0,1,12.6-5.22h13.87a1.49,1.49,0,0,1,1.49,1.49v24.66a1.47,1.47,0,0,1-.43,1c-.45.45-11,11.05-19.56,11.05H206.28A17.93,17.93,0,0,1,193.05,139.91Zm61.83-29.43H242.5A14.75,14.75,0,0,0,232,114.83l-4.72,4.71a12.65,12.65,0,0,1-9,3.73H206a3.3,3.3,0,0,0-2.91,1.3,1.47,1.47,0,0,1-1.31.79H186.1L195.31,138a15,15,0,0,0,11,4.81h31.59c6.43,0,15-7.84,17-9.75Z"/><rect class="cls-2" x="256.37" y="106.07" width="24.7" height="33.95" transform="translate(537.45 246.09) rotate(-180)"/><path class="cls-1" d="M254.88,140v-34a1.49,1.49,0,0,1,1.49-1.49h24.7a1.49,1.49,0,0,1,1.49,1.49v34a1.49,1.49,0,0,1-1.49,1.49h-24.7A1.49,1.49,0,0,1,254.88,140Zm24.71-32.46H257.86v31h21.73Z"/><path class="cls-1" d="M206,133.85h24.77a1.49,1.49,0,0,0,0-3H206a3.82,3.82,0,0,1,0-7.63h13.8a1.49,1.49,0,1,0,0-3H206a6.8,6.8,0,0,0,0,13.59Z"/><path class="cls-4" d="M89.63,133.65s10.49,10.61,18.5,10.61h31.59a16.43,16.43,0,0,0,12.13-5.35l11-15H144.26a4.68,4.68,0,0,0-4.22-2.09H127.7a11.19,11.19,0,0,1-7.93-3.29l-4.72-4.72A16.36,16.36,0,0,0,103.5,109H89.63Z"/><path class="cls-1" d="M139.72,145.75H108.13c-8.53,0-19.11-10.6-19.56-11.05a1.47,1.47,0,0,1-.43-1V109a1.49,1.49,0,0,1,1.49-1.49H103.5a17.73,17.73,0,0,1,12.6,5.22l4.72,4.72a9.66,9.66,0,0,0,6.88,2.85H140a6.53,6.53,0,0,1,5,2.09h17.82a1.5,1.5,0,0,1,1.2,2.37l-11,15-.1.12A17.93,17.93,0,0,1,139.72,145.75ZM91.12,133c2,1.91,10.58,9.75,17,9.75h31.59a15,15,0,0,0,11-4.81l9.21-12.61H144.26a1.47,1.47,0,0,1-1.31-.79,3.3,3.3,0,0,0-2.91-1.3H127.7a12.65,12.65,0,0,1-9-3.73L114,114.83a14.75,14.75,0,0,0-10.49-4.35H91.12Z"/><rect class="cls-4" x="64.93" y="106.07" width="24.7" height="33.95"/><path class="cls-1" d="M89.63,141.51H64.93A1.49,1.49,0,0,1,63.44,140v-34a1.49,1.49,0,0,1,1.49-1.49h24.7a1.49,1.49,0,0,1,1.49,1.49v34A1.49,1.49,0,0,1,89.63,141.51Zm-23.22-3H88.14v-31H66.41Z"/><path class="cls-1" d="M140,133.85H115.24a1.49,1.49,0,0,1,0-3H140a3.82,3.82,0,0,0,0-7.63h-13.8a1.49,1.49,0,0,1,0-3H140a6.8,6.8,0,0,1,0,13.59Z"/><rect class="cls-5" x="66.35" y="107.49" width="21.72" height="30.97"/></g></svg>